<?xml version="1.0" encoding="UTF-8"?>
<svg xmlns="http://www.w3.org/2000/svg"
     xmlns:xlink="http://www.w3.org/1999/xlink"
     version="1.2"
     width="150mm" height="86mm" viewBox="0 0 150 86"
     stroke="none"
     fill="#000000"
     stroke-width="0.3"
     font-size="3.88"
>
<defs>
  <marker id="arrow" markerWidth="15" markerHeight="7" refX="5" refY="3.5" orient="auto" markerUnits="strokeWidth">
    <path d="M0,0 L15,3.5 L0,7 z" stroke="context-stroke" fill="context-stroke"/>
  </marker>
</defs>
<g stroke-opacity="1" stroke-width="0.3" id="img-29b4c979-1">
  <g transform="translate(34.76,3.91)" stroke="#D63D45">
    <path fill="none" d="M-2.22,0 L2.22,0 " class="primitive"/>
  </g>
  <g transform="translate(34.64,6.8)" stroke="#5B7FD9">
    <path fill="none" d="M-2.1,0 L2.1,0 " class="primitive"/>
  </g>
  <g transform="translate(29.29,5.36)" stroke="#5B7FD9">
    <path fill="none" d="M-3.24,0 L3.24,0 " class="primitive"/>
  </g>
  <g transform="translate(32.53,5.36)" stroke="#5B7FD9">
    <path fill="none" d="M0,1.45 L0,-1.45 " class="primitive"/>
  </g>
  <g transform="translate(38.87,9.7)" stroke="#D63D45">
    <path fill="none" d="M-10.05,0 L10.05,0 " class="primitive"/>
  </g>
  <g transform="translate(48.08,12.6)" stroke="#D63D45">
    <path fill="none" d="M-19.25,0 L19.25,0 " class="primitive"/>
  </g>
  <g transform="translate(27.44,11.15)" stroke="#D63D45">
    <path fill="none" d="M-1.39,0 L1.39,0 " class="primitive"/>
  </g>
  <g transform="translate(28.83,11.15)" stroke="#D63D45">
    <path fill="none" d="M0,1.45 L0,-1.45 " class="primitive"/>
  </g>
  <g transform="translate(19.75,8.25)" stroke="#5B7FD9">
    <path fill="none" d="M-6.31,0 L6.31,0 " class="primitive"/>
  </g>
  <g transform="translate(26.05,8.25)" stroke="#5B7FD9">
    <path fill="none" d="M0,2.9 L0,-2.9 " class="primitive"/>
  </g>
  <g transform="translate(33.65,15.49)" stroke="#D63D45">
    <path fill="none" d="M-14.79,0 L14.79,0 " class="primitive"/>
  </g>
  <g transform="translate(20.12,18.39)" stroke="#D63D45">
    <path fill="none" d="M-1.26,0 L1.26,0 " class="primitive"/>
  </g>
  <g transform="translate(17.57,16.94)" stroke="#D63D45">
    <path fill="none" d="M-1.29,0 L1.29,0 " class="primitive"/>
  </g>
  <g transform="translate(18.86,16.94)" stroke="#D63D45">
    <path fill="none" d="M0,1.45 L0,-1.45 " class="primitive"/>
  </g>
  <g transform="translate(49.41,21.28)" stroke="#D63D45">
    <path fill="none" d="M-29.34,0 L29.34,0 " class="primitive"/>
  </g>
  <g transform="translate(33.42,24.18)" stroke="#D63D45">
    <path fill="none" d="M-13.34,0 L13.34,0 " class="primitive"/>
  </g>
  <g transform="translate(18.18,22.73)" stroke="#5B7FD9">
    <path fill="none" d="M-1.9,0 L1.9,0 " class="primitive"/>
  </g>
  <g transform="translate(20.08,22.73)" stroke="#5B7FD9">
    <path fill="none" d="M0,1.45 L0,-1.45 " class="primitive"/>
  </g>
  <g transform="translate(14.96,19.84)" stroke="#D63D45">
    <path fill="none" d="M-1.32,0 L1.32,0 " class="primitive"/>
  </g>
  <g transform="translate(16.28,19.84)" stroke="#D63D45">
    <path fill="none" d="M0,2.9 L0,-2.9 " class="primitive"/>
  </g>
  <g transform="translate(36.43,27.07)" stroke="#D63D45">
    <path fill="none" d="M-2.64,0 L2.64,0 " class="primitive"/>
  </g>
  <g transform="translate(43.16,29.97)" stroke="#D63D45">
    <path fill="none" d="M-9.38,0 L9.38,0 " class="primitive"/>
  </g>
  <g transform="translate(29.25,28.52)" stroke="#D63D45">
    <path fill="none" d="M-4.53,0 L4.53,0 " class="primitive"/>
  </g>
  <g transform="translate(33.78,28.52)" stroke="#D63D45">
    <path fill="none" d="M0,1.45 L0,-1.45 " class="primitive"/>
  </g>
  <g transform="translate(58.49,32.87)" stroke="#D63D45">
    <path fill="none" d="M-14.67,0 L14.67,0 " class="primitive"/>
  </g>
  <g transform="translate(60.78,35.76)" stroke="#D63D45">
    <path fill="none" d="M-16.97,0 L16.97,0 " class="primitive"/>
  </g>
  <g transform="translate(34.27,34.31)" stroke="#D63D45">
    <path fill="none" d="M-9.55,0 L9.55,0 " class="primitive"/>
  </g>
  <g transform="translate(43.82,34.31)" stroke="#D63D45">
    <path fill="none" d="M0,1.45 L0,-1.45 " class="primitive"/>
  </g>
  <g transform="translate(19.18,31.42)" stroke="#5B7FD9">
    <path fill="none" d="M-5.54,0 L5.54,0 " class="primitive"/>
  </g>
  <g transform="translate(24.72,31.42)" stroke="#5B7FD9">
    <path fill="none" d="M0,2.9 L0,-2.9 " class="primitive"/>
  </g>
  <g transform="translate(13.54,25.63)" stroke="#D63D45">
    <path fill="none" d="M-0.1,0 L0.1,0 " class="primitive"/>
  </g>
  <g transform="translate(13.64,25.63)" stroke="#D63D45">
    <path fill="none" d="M0,5.79 L0,-5.79 " class="primitive"/>
  </g>
  <g transform="translate(8.59,16.94)" stroke="#D63D45">
    <path fill="none" d="M-4.84,0 L4.84,0 " class="primitive"/>
  </g>
  <g transform="translate(13.44,16.94)" stroke="#D63D45">
    <path fill="none" d="M0,8.69 L0,-8.69 " class="primitive"/>
  </g>
  <g transform="translate(39.46,38.66)" stroke="#D63D45">
    <path fill="none" d="M-0.19,0 L0.19,0 " class="primitive"/>
  </g>
  <g transform="translate(54.49,41.55)" stroke="#5B7FD9">
    <path fill="none" d="M-15.22,0 L15.22,0 " class="primitive"/>
  </g>
  <g transform="translate(32.38,40.1)" stroke="#5B7FD9">
    <path fill="none" d="M-6.89,0 L6.89,0 " class="primitive"/>
  </g>
  <g transform="translate(39.27,40.1)" stroke="#5B7FD9">
    <path fill="none" d="M0,1.45 L0,-1.45 " class="primitive"/>
  </g>
  <g transform="translate(38.42,44.45)" stroke="#D63D45">
    <path fill="none" d="M-12.3,0 L12.3,0 " class="primitive"/>
  </g>
  <g transform="translate(36.72,47.34)" stroke="#D63D45">
    <path fill="none" d="M-10.6,0 L10.6,0 " class="primitive"/>
  </g>
  <g transform="translate(25.8,45.9)" stroke="#D63D45">
    <path fill="none" d="M-0.32,0 L0.32,0 " class="primitive"/>
  </g>
  <g transform="translate(26.12,45.9)" stroke="#D63D45">
    <path fill="none" d="M0,1.45 L0,-1.45 " class="primitive"/>
  </g>
  <g transform="translate(16.44,43)" stroke="#5B7FD9">
    <path fill="none" d="M-9.05,0 L9.05,0 " class="primitive"/>
  </g>
  <g transform="translate(25.49,43)" stroke="#5B7FD9">
    <path fill="none" d="M0,2.9 L0,-2.9 " class="primitive"/>
  </g>
  <g transform="translate(39.04,50.24)" stroke="#D63D45">
    <path fill="none" d="M-10.99,0 L10.99,0 " class="primitive"/>
  </g>
  <g transform="translate(33.95,53.13)" stroke="#D63D45">
    <path fill="none" d="M-5.9,0 L5.9,0 " class="primitive"/>
  </g>
  <g transform="translate(18.47,51.69)" stroke="#D63D45">
    <path fill="none" d="M-9.59,0 L9.59,0 " class="primitive"/>
  </g>
  <g transform="translate(28.05,51.69)" stroke="#D63D45">
    <path fill="none" d="M0,1.45 L0,-1.45 " class="primitive"/>
  </g>
  <g transform="translate(26.65,56.03)" stroke="#D63D45">
    <path fill="none" d="M-3.45,0 L3.45,0 " class="primitive"/>
  </g>
  <g transform="translate(26.35,58.93)" stroke="#D63D45">
    <path fill="none" d="M-3.15,0 L3.15,0 " class="primitive"/>
  </g>
  <g transform="translate(16.04,57.48)" stroke="#D63D45">
    <path fill="none" d="M-7.16,0 L7.16,0 " class="primitive"/>
  </g>
  <g stroke-opacity="1" stroke-width="0.3" id="img-29b4c979-2">
    <g transform="translate(16.04,57.48)" stroke="#D63D45">
      <path fill="none" d="M-7.16,0 L7.16,0 " class="primitive"/>
    </g>
    <g transform="translate(23.2,57.48)" stroke="#D63D45">
      <path fill="none" d="M0,1.45 L0,-1.45 " class="primitive"/>
    </g>
    <g transform="translate(8.13,54.58)" stroke="#D63D45">
      <path fill="none" d="M-0.74,0 L0.74,0 " class="primitive"/>
    </g>
    <g transform="translate(8.88,54.58)" stroke="#D63D45">
      <path fill="none" d="M0,2.9 L0,-2.9 " class="primitive"/>
    </g>
    <g transform="translate(5.57,48.79)" stroke="#D63D45">
      <path fill="none" d="M-1.82,0 L1.82,0 " class="primitive"/>
    </g>
    <g transform="translate(7.39,48.79)" stroke="#D63D45">
      <path fill="none" d="M0,5.79 L0,-5.79 " class="primitive"/>
    </g>
    <g transform="translate(32.96,61.82)" stroke="#5B7FD9">
      <path fill="none" d="M-1.8,0 L1.8,0 " class="primitive"/>
    </g>
    <g transform="translate(36.26,64.72)" stroke="#D63D45">
      <path fill="none" d="M-5.1,0 L5.1,0 " class="primitive"/>
    </g>
    <g transform="translate(26.71,63.27)" stroke="#D63D45">
      <path fill="none" d="M-4.45,0 L4.45,0 " class="primitive"/>
    </g>
    <g transform="translate(31.16,63.27)" stroke="#D63D45">
      <path fill="none" d="M0,1.45 L0,-1.45 " class="primitive"/>
    </g>
    <g transform="translate(32.92,67.61)" stroke="#D63D45">
      <path fill="none" d="M-1.96,0 L1.96,0 " class="primitive"/>
    </g>
    <g transform="translate(39.41,70.51)" stroke="#D63D45">
      <path fill="none" d="M-8.46,0 L8.46,0 " class="primitive"/>
    </g>
    <g transform="translate(26.61,69.06)" stroke="#5B7FD9">
      <path fill="none" d="M-4.35,0 L4.35,0 " class="primitive"/>
    </g>
    <g transform="translate(30.96,69.06)" stroke="#5B7FD9">
      <path fill="none" d="M0,1.45 L0,-1.45 " class="primitive"/>
    </g>
    <g transform="translate(21.71,66.16)" stroke="#D63D45">
      <path fill="none" d="M-0.55,0 L0.55,0 " class="primitive"/>
    </g>
    <g transform="translate(22.26,66.16)" stroke="#D63D45">
      <path fill="none" d="M0,2.9 L0,-2.9 " class="primitive"/>
    </g>
    <g transform="translate(29.05,73.4)" stroke="#D63D45">
      <path fill="none" d="M-2.45,0 L2.45,0 " class="primitive"/>
    </g>
    <g transform="translate(27.11,76.3)" stroke="#D63D45">
      <path fill="none" d="M-0.52,0 L0.52,0 " class="primitive"/>
    </g>
    <g transform="translate(26.49,74.85)" stroke="#D63D45">
      <path fill="none" d="M-0.1,0 L0.1,0 " class="primitive"/>
    </g>
    <g transform="translate(26.59,74.85)" stroke="#D63D45">
      <path fill="none" d="M0,1.45 L0,-1.45 " class="primitive"/>
    </g>
    <g transform="translate(35.8,79.2)" stroke="#D63D45">
      <path fill="none" d="M-1.36,0 L1.36,0 " class="primitive"/>
    </g>
    <g transform="translate(39.18,82.09)" stroke="#5B7FD9">
      <path fill="none" d="M-4.74,0 L4.74,0 " class="primitive"/>
    </g>
    <g transform="translate(30.42,80.64)" stroke="#D63D45">
      <path fill="none" d="M-4.02,0 L4.02,0 " class="primitive"/>
    </g>
    <g transform="translate(34.44,80.64)" stroke="#D63D45">
      <path fill="none" d="M0,1.45 L0,-1.45 " class="primitive"/>
    </g>
    <g transform="translate(23.78,77.75)" stroke="#5B7FD9">
      <path fill="none" d="M-2.61,0 L2.61,0 " class="primitive"/>
    </g>
    <g transform="translate(26.39,77.75)" stroke="#5B7FD9">
      <path fill="none" d="M0,2.9 L0,-2.9 " class="primitive"/>
    </g>
    <g transform="translate(12.46,71.96)" stroke="#D63D45">
      <path fill="none" d="M-8.71,0 L8.71,0 " class="primitive"/>
    </g>
    <g transform="translate(21.16,71.96)" stroke="#D63D45">
      <path fill="none" d="M0,5.79 L0,-5.79 " class="primitive"/>
    </g>
    <g transform="translate(3.75,60.37)" stroke="#000000">
      <path fill="none" d="M0,0 L0,0 " class="primitive"/>
    </g>
    <g transform="translate(3.75,60.37)" stroke="#000000">
      <path fill="none" d="M0,11.58 L0,-11.58 " class="primitive"/>
    </g>
    <g transform="translate(3.75,38.66)" stroke="#000000">
      <path fill="none" d="M0,0 L0,0 " class="primitive"/>
    </g>
    <g transform="translate(3.75,38.66)" stroke="#000000">
      <path fill="none" d="M0,21.72 L0,-21.72 " class="primitive"/>
    </g>
  </g>
</g>
<g fill-opacity="1" id="img-29b4c979-3">
  <g transform="translate(36.98,3.91)" fill="#D63D45">
    <circle cx="0" cy="0" r="0.75" class="primitive"/>
  </g>
  <g transform="translate(36.74,6.8)" fill="#5B7FD9">
    <circle cx="0" cy="0" r="0.75" class="primitive"/>
  </g>
  <g transform="translate(32.53,5.36)" fill="#5B7FD9">
    <circle cx="0" cy="0" r="0.75" class="primitive"/>
  </g>
  <g transform="translate(48.92,9.7)" fill="#D63D45">
    <circle cx="0" cy="0" r="0.75" class="primitive"/>
  </g>
  <g transform="translate(67.34,12.6)" fill="#D63D45">
    <circle cx="0" cy="0" r="0.75" class="primitive"/>
  </g>
  <g transform="translate(28.83,11.15)" fill="#D63D45">
    <circle cx="0" cy="0" r="0.75" class="primitive"/>
  </g>
  <g transform="translate(26.05,8.25)" fill="#5B7FD9">
    <circle cx="0" cy="0" r="0.75" class="primitive"/>
  </g>
  <g transform="translate(48.45,15.49)" fill="#D63D45">
    <circle cx="0" cy="0" r="0.75" class="primitive"/>
  </g>
  <g transform="translate(21.38,18.39)" fill="#D63D45">
    <circle cx="0" cy="0" r="0.75" class="primitive"/>
  </g>
  <g transform="translate(18.86,16.94)" fill="#D63D45">
    <circle cx="0" cy="0" r="0.75" class="primitive"/>
  </g>
  <g transform="translate(78.75,21.28)" fill="#D63D45">
    <circle cx="0" cy="0" r="0.75" class="primitive"/>
  </g>
  <g transform="translate(46.76,24.18)" fill="#D63D45">
    <circle cx="0" cy="0" r="0.75" class="primitive"/>
  </g>
  <g transform="translate(20.08,22.73)" fill="#5B7FD9">
    <circle cx="0" cy="0" r="0.75" class="primitive"/>
  </g>
  <g transform="translate(16.28,19.84)" fill="#D63D45">
    <circle cx="0" cy="0" r="0.75" class="primitive"/>
  </g>
  <g transform="translate(39.07,27.07)" fill="#D63D45">
    <circle cx="0" cy="0" r="0.75" class="primitive"/>
  </g>
  <g transform="translate(52.54,29.97)" fill="#D63D45">
    <circle cx="0" cy="0" r="0.75" class="primitive"/>
  </g>
  <g transform="translate(33.78,28.52)" fill="#D63D45">
    <circle cx="0" cy="0" r="0.75" class="primitive"/>
  </g>
  <g transform="translate(73.17,32.87)" fill="#D63D45">
    <circle cx="0" cy="0" r="0.75" class="primitive"/>
  </g>
  <g transform="translate(77.75,35.76)" fill="#D63D45">
    <circle cx="0" cy="0" r="0.75" class="primitive"/>
  </g>
  <g transform="translate(43.82,34.31)" fill="#D63D45">
    <circle cx="0" cy="0" r="0.75" class="primitive"/>
  </g>
  <g transform="translate(24.72,31.42)" fill="#5B7FD9">
    <circle cx="0" cy="0" r="0.75" class="primitive"/>
  </g>
  <g transform="translate(13.64,25.63)" fill="#D63D45">
    <circle cx="0" cy="0" r="0.75" class="primitive"/>
  </g>
  <g transform="translate(13.44,16.94)" fill="#D63D45">
    <circle cx="0" cy="0" r="0.75" class="primitive"/>
  </g>
  <g transform="translate(39.64,38.66)" fill="#D63D45">
    <circle cx="0" cy="0" r="0.75" class="primitive"/>
  </g>
  <g transform="translate(69.71,41.55)" fill="#5B7FD9">
    <circle cx="0" cy="0" r="0.75" class="primitive"/>
  </g>
  <g transform="translate(39.27,40.1)" fill="#5B7FD9">
    <circle cx="0" cy="0" r="0.75" class="primitive"/>
  </g>
  <g transform="translate(50.72,44.45)" fill="#D63D45">
    <circle cx="0" cy="0" r="0.75" class="primitive"/>
  </g>
  <g transform="translate(47.32,47.34)" fill="#D63D45">
    <circle cx="0" cy="0" r="0.75" class="primitive"/>
  </g>
  <g transform="translate(26.12,45.9)" fill="#D63D45">
    <circle cx="0" cy="0" r="0.75" class="primitive"/>
  </g>
  <g transform="translate(25.49,43)" fill="#5B7FD9">
    <circle cx="0" cy="0" r="0.75" class="primitive"/>
  </g>
  <g transform="translate(50.03,50.24)" fill="#D63D45">
    <circle cx="0" cy="0" r="0.75" class="primitive"/>
  </g>
  <g transform="translate(39.85,53.13)" fill="#D63D45">
    <circle cx="0" cy="0" r="0.75" class="primitive"/>
  </g>
  <g transform="translate(28.05,51.69)" fill="#D63D45">
    <circle cx="0" cy="0" r="0.75" class="primitive"/>
  </g>
  <g transform="translate(30.1,56.03)" fill="#D63D45">
    <circle cx="0" cy="0" r="0.75" class="primitive"/>
  </g>
  <g transform="translate(29.5,58.93)" fill="#D63D45">
    <circle cx="0" cy="0" r="0.75" class="primitive"/>
  </g>
  <g transform="translate(23.2,57.48)" fill="#D63D45">
    <circle cx="0" cy="0" r="0.75" class="primitive"/>
  </g>
  <g transform="translate(8.88,54.58)" fill="#D63D45">
    <circle cx="0" cy="0" r="0.75" class="primitive"/>
  </g>
  <g transform="translate(7.39,48.79)" fill="#D63D45">
    <circle cx="0" cy="0" r="0.75" class="primitive"/>
  </g>
  <g transform="translate(34.76,61.82)" fill="#5B7FD9">
    <circle cx="0" cy="0" r="0.75" class="primitive"/>
  </g>
  <g transform="translate(41.36,64.72)" fill="#D63D45">
    <circle cx="0" cy="0" r="0.75" class="primitive"/>
  </g>
  <g transform="translate(31.16,63.27)" fill="#D63D45">
    <circle cx="0" cy="0" r="0.75" class="primitive"/>
  </g>
  <g transform="translate(34.89,67.61)" fill="#D63D45">
    <circle cx="0" cy="0" r="0.75" class="primitive"/>
  </g>
  <g transform="translate(47.87,70.51)" fill="#D63D45">
    <circle cx="0" cy="0" r="0.75" class="primitive"/>
  </g>
  <g transform="translate(30.96,69.06)" fill="#5B7FD9">
    <circle cx="0" cy="0" r="0.75" class="primitive"/>
  </g>
  <g transform="translate(22.26,66.16)" fill="#D63D45">
    <circle cx="0" cy="0" r="0.75" class="primitive"/>
  </g>
  <g transform="translate(31.5,73.4)" fill="#D63D45">
    <circle cx="0" cy="0" r="0.75" class="primitive"/>
  </g>
  <g transform="translate(27.63,76.3)" fill="#D63D45">
    <circle cx="0" cy="0" r="0.75" class="primitive"/>
  </g>
  <g transform="translate(26.59,74.85)" fill="#D63D45">
    <circle cx="0" cy="0" r="0.75" class="primitive"/>
  </g>
  <g transform="translate(37.16,79.2)" fill="#D63D45">
    <circle cx="0" cy="0" r="0.75" class="primitive"/>
  </g>
  <g transform="translate(43.92,82.09)" fill="#5B7FD9">
    <circle cx="0" cy="0" r="0.75" class="primitive"/>
  </g>
  <g transform="translate(34.44,80.64)" fill="#D63D45">
    <circle cx="0" cy="0" r="0.75" class="primitive"/>
  </g>
  <g fill-opacity="1" id="img-29b4c979-4">
    <g transform="translate(34.44,80.64)" fill="#D63D45">
      <circle cx="0" cy="0" r="0.75" class="primitive"/>
    </g>
    <g transform="translate(26.39,77.75)" fill="#5B7FD9">
      <circle cx="0" cy="0" r="0.75" class="primitive"/>
    </g>
    <g transform="translate(21.16,71.96)" fill="#D63D45">
      <circle cx="0" cy="0" r="0.75" class="primitive"/>
    </g>
    <g transform="translate(3.75,60.37)" fill="#000000">
      <circle cx="0" cy="0" r="0.75" class="primitive"/>
    </g>
    <g transform="translate(3.75,38.66)" fill="#000000">
      <circle cx="0" cy="0" r="0.75" class="primitive"/>
    </g>
  </g>
</g>
<g stroke-opacity="1" fill-opacity="1" font-size="1.41" stroke-width="0.1" id="img-29b4c979-5">
  <g transform="translate(38.85,3.91)" stroke="#000000">
    <g class="primitive">
      <text dy="0.35em">N24</text>
    </g>
  </g>
  <g transform="translate(38.61,6.8)" stroke="#000000">
    <g class="primitive">
      <text dy="0.35em">N25</text>
    </g>
  </g>
  <g transform="translate(34.41,5.36)" stroke="#000000">
    <g class="primitive">
      <text dy="0.35em">N40</text>
    </g>
  </g>
  <g transform="translate(50.8,9.7)" stroke="#000000">
    <g class="primitive">
      <text dy="0.35em">N26</text>
    </g>
  </g>
  <g transform="translate(69.21,12.6)" stroke="#000000">
    <g class="primitive">
      <text dy="0.35em">N27</text>
    </g>
  </g>
  <g transform="translate(30.7,11.15)" stroke="#000000">
    <g class="primitive">
      <text dy="0.35em">N41</text>
    </g>
  </g>
  <g transform="translate(27.93,8.25)" stroke="#000000">
    <g class="primitive">
      <text dy="0.35em">N48</text>
    </g>
  </g>
  <g transform="translate(50.32,15.49)" stroke="#000000">
    <g class="primitive">
      <text dy="0.35em">N0</text>
    </g>
  </g>
  <g transform="translate(23.25,18.39)" stroke="#000000">
    <g class="primitive">
      <text dy="0.35em">N1</text>
    </g>
  </g>
  <g transform="translate(20.73,16.94)" stroke="#000000">
    <g class="primitive">
      <text dy="0.35em">N28</text>
    </g>
  </g>
  <g transform="translate(80.62,21.28)" stroke="#000000">
    <g class="primitive">
      <text dy="0.35em">N2</text>
    </g>
  </g>
  <g transform="translate(48.64,24.18)" stroke="#000000">
    <g class="primitive">
      <text dy="0.35em">N3</text>
    </g>
  </g>
  <g transform="translate(21.95,22.73)" stroke="#000000">
    <g class="primitive">
      <text dy="0.35em">N29</text>
    </g>
  </g>
  <g transform="translate(18.15,19.84)" stroke="#000000">
    <g class="primitive">
      <text dy="0.35em">N42</text>
    </g>
  </g>
  <g transform="translate(40.95,27.07)" stroke="#000000">
    <g class="primitive">
      <text dy="0.35em">N4</text>
    </g>
  </g>
  <g transform="translate(54.41,29.97)" stroke="#000000">
    <g class="primitive">
      <text dy="0.35em">N5</text>
    </g>
  </g>
  <g transform="translate(35.66,28.52)" stroke="#000000">
    <g class="primitive">
      <text dy="0.35em">N30</text>
    </g>
  </g>
  <g transform="translate(75.04,32.87)" stroke="#000000">
    <g class="primitive">
      <text dy="0.35em">N6</text>
    </g>
  </g>
  <g transform="translate(79.62,35.76)" stroke="#000000">
    <g class="primitive">
      <text dy="0.35em">N7</text>
    </g>
  </g>
  <g transform="translate(45.69,34.31)" stroke="#000000">
    <g class="primitive">
      <text dy="0.35em">N31</text>
    </g>
  </g>
  <g transform="translate(26.6,31.42)" stroke="#000000">
    <g class="primitive">
      <text dy="0.35em">N43</text>
    </g>
  </g>
  <g transform="translate(15.52,25.63)" stroke="#000000">
    <g class="primitive">
      <text dy="0.35em">N49</text>
    </g>
  </g>
  <g transform="translate(15.31,16.94)" stroke="#000000">
    <g class="primitive">
      <text dy="0.35em">N52</text>
    </g>
  </g>
  <g transform="translate(41.52,38.66)" stroke="#000000">
    <g class="primitive">
      <text dy="0.35em">N8</text>
    </g>
  </g>
  <g transform="translate(71.59,41.55)" stroke="#000000">
    <g class="primitive">
      <text dy="0.35em">N9</text>
    </g>
  </g>
  <g transform="translate(41.15,40.1)" stroke="#000000">
    <g class="primitive">
      <text dy="0.35em">N32</text>
    </g>
  </g>
  <g transform="translate(52.59,44.45)" stroke="#000000">
    <g class="primitive">
      <text dy="0.35em">N10</text>
    </g>
  </g>
  <g transform="translate(49.19,47.34)" stroke="#000000">
    <g class="primitive">
      <text dy="0.35em">N11</text>
    </g>
  </g>
  <g transform="translate(28,45.9)" stroke="#000000">
    <g class="primitive">
      <text dy="0.35em">N33</text>
    </g>
  </g>
  <g transform="translate(27.36,43)" stroke="#000000">
    <g class="primitive">
      <text dy="0.35em">N44</text>
    </g>
  </g>
  <g transform="translate(51.9,50.24)" stroke="#000000">
    <g class="primitive">
      <text dy="0.35em">N12</text>
    </g>
  </g>
  <g transform="translate(41.72,53.13)" stroke="#000000">
    <g class="primitive">
      <text dy="0.35em">N13</text>
    </g>
  </g>
  <g transform="translate(29.93,51.69)" stroke="#000000">
    <g class="primitive">
      <text dy="0.35em">N34</text>
    </g>
  </g>
  <g transform="translate(31.98,56.03)" stroke="#000000">
    <g class="primitive">
      <text dy="0.35em">N14</text>
    </g>
  </g>
  <g transform="translate(31.38,58.93)" stroke="#000000">
    <g class="primitive">
      <text dy="0.35em">N15</text>
    </g>
  </g>
  <g transform="translate(25.07,57.48)" stroke="#000000">
    <g class="primitive">
      <text dy="0.35em">N35</text>
    </g>
  </g>
  <g transform="translate(10.75,54.58)" stroke="#000000">
    <g class="primitive">
      <text dy="0.35em">N45</text>
    </g>
  </g>
  <g transform="translate(9.27,48.79)" stroke="#000000">
    <g class="primitive">
      <text dy="0.35em">N50</text>
    </g>
  </g>
  <g transform="translate(36.63,61.82)" stroke="#000000">
    <g class="primitive">
      <text dy="0.35em">N16</text>
    </g>
  </g>
  <g transform="translate(43.23,64.72)" stroke="#000000">
    <g class="primitive">
      <text dy="0.35em">N17</text>
    </g>
  </g>
  <g transform="translate(33.03,63.27)" stroke="#000000">
    <g class="primitive">
      <text dy="0.35em">N36</text>
    </g>
  </g>
  <g transform="translate(36.76,67.61)" stroke="#000000">
    <g class="primitive">
      <text dy="0.35em">N18</text>
    </g>
  </g>
  <g transform="translate(49.74,70.51)" stroke="#000000">
    <g class="primitive">
      <text dy="0.35em">N19</text>
    </g>
  </g>
  <g transform="translate(32.83,69.06)" stroke="#000000">
    <g class="primitive">
      <text dy="0.35em">N37</text>
    </g>
  </g>
  <g transform="translate(24.14,66.16)" stroke="#000000">
    <g class="primitive">
      <text dy="0.35em">N46</text>
    </g>
  </g>
  <g transform="translate(33.37,73.4)" stroke="#000000">
    <g class="primitive">
      <text dy="0.35em">N20</text>
    </g>
  </g>
  <g transform="translate(29.51,76.3)" stroke="#000000">
    <g class="primitive">
      <text dy="0.35em">N21</text>
    </g>
  </g>
  <g transform="translate(28.47,74.85)" stroke="#000000">
    <g class="primitive">
      <text dy="0.35em">N38</text>
    </g>
  </g>
  <g transform="translate(39.03,79.2)" stroke="#000000">
    <g class="primitive">
      <text dy="0.35em">N22</text>
    </g>
  </g>
  <g transform="translate(45.8,82.09)" stroke="#000000">
    <g class="primitive">
      <text dy="0.35em">N23</text>
    </g>
  </g>
  <g transform="translate(36.32,80.64)" stroke="#000000">
    <g class="primitive">
      <text dy="0.35em">N39</text>
    </g>
  </g>
  <g stroke-opacity="1" fill-opacity="1" font-size="1.41" stroke-width="0.1" id="img-29b4c979-6">
    <g transform="translate(36.32,80.64)" stroke="#000000">
      <g class="primitive">
        <text dy="0.35em">N39</text>
      </g>
    </g>
    <g transform="translate(28.27,77.75)" stroke="#000000">
      <g class="primitive">
        <text dy="0.35em">N47</text>
      </g>
    </g>
    <g transform="translate(23.04,71.96)" stroke="#000000">
      <g class="primitive">
        <text dy="0.35em">N51</text>
      </g>
    </g>
    <g transform="translate(5.63,60.37)" stroke="#000000">
      <g class="primitive">
        <text dy="0.35em"></text>
      </g>
    </g>
    <g transform="translate(5.63,38.66)" stroke="#000000">
      <g class="primitive">
        <text dy="0.35em"></text>
      </g>
    </g>
  </g>
</g>
</svg>
