<?xml version="1.0" encoding="UTF-8"?>
<svg xmlns="http://www.w3.org/2000/svg"
     xmlns:xlink="http://www.w3.org/1999/xlink"
     version="1.2"
     width="150mm" height="100mm" viewBox="0 0 150 100"
     stroke="none"
     fill="#000000"
     stroke-width="0.3"
     font-size="3.88"
>
<defs>
  <marker id="arrow" markerWidth="15" markerHeight="7" refX="5" refY="3.5" orient="auto" markerUnits="strokeWidth">
    <path d="M0,0 L15,3.5 L0,7 z" stroke="context-stroke" fill="context-stroke"/>
  </marker>
</defs>
<g stroke-opacity="1" stroke-width="0.3" id="img-29b4c979-1">
  <g transform="translate(3.76,4.55)" stroke="#04724C">
    <path fill="none" d="M-0.01,0 L0.01,0 " class="primitive"/>
  </g>
  <g transform="translate(3.81,7.22)" stroke="#04724C">
    <path fill="none" d="M-0.06,0 L0.06,0 " class="primitive"/>
  </g>
  <g transform="translate(9.82,9.89)" stroke="#96E823">
    <path fill="none" d="M-3.59,0 L3.59,0 " class="primitive"/>
  </g>
  <g transform="translate(7.84,12.57)" stroke="#96E823">
    <path fill="none" d="M-1.18,0 L1.18,0 " class="primitive"/>
  </g>
  <g transform="translate(7.87,15.24)" stroke="#96E823">
    <path fill="none" d="M-0.56,0 L0.56,0 " class="primitive"/>
  </g>
  <g transform="translate(9.2,17.91)" stroke="#04724C">
    <path fill="none" d="M-0.16,0 L0.16,0 " class="primitive"/>
  </g>
  <g transform="translate(15.66,20.59)" stroke="#04724C">
    <path fill="none" d="M-3.04,0 L3.04,0 " class="primitive"/>
  </g>
  <g transform="translate(18.21,23.26)" stroke="#96E823">
    <path fill="none" d="M-3.88,0 L3.88,0 " class="primitive"/>
  </g>
  <g transform="translate(19.15,25.94)" stroke="#04724C">
    <path fill="none" d="M-1.57,0 L1.57,0 " class="primitive"/>
  </g>
  <g transform="translate(18.69,28.61)" stroke="#04724C">
    <path fill="none" d="M-0.33,0 L0.33,0 " class="primitive"/>
  </g>
  <g transform="translate(21.12,31.28)" stroke="#04724C">
    <path fill="none" d="M-1.86,0 L1.86,0 " class="primitive"/>
  </g>
  <g transform="translate(22.59,33.96)" stroke="#04724C">
    <path fill="none" d="M-2.16,0 L2.16,0 " class="primitive"/>
  </g>
  <g transform="translate(31.79,36.63)" stroke="#04724C">
    <path fill="none" d="M-3.48,0 L3.48,0 " class="primitive"/>
  </g>
  <g transform="translate(29.53,39.3)" stroke="#04724C">
    <path fill="none" d="M-1.19,0 L1.19,0 " class="primitive"/>
  </g>
  <g transform="translate(31.87,41.98)" stroke="#04724C">
    <path fill="none" d="M-1.81,0 L1.81,0 " class="primitive"/>
  </g>
  <g transform="translate(32.4,44.65)" stroke="#04724C">
    <path fill="none" d="M-0.14,0 L0.14,0 " class="primitive"/>
  </g>
  <g transform="translate(32.68,47.33)" stroke="#96E823">
    <path fill="none" d="M-0.37,0 L0.37,0 " class="primitive"/>
  </g>
  <g transform="translate(36.96,50)" stroke="#04724C">
    <path fill="none" d="M-1.11,0 L1.11,0 " class="primitive"/>
  </g>
  <g transform="translate(37.22,52.67)" stroke="#04724C">
    <path fill="none" d="M-0.49,0 L0.49,0 " class="primitive"/>
  </g>
  <g transform="translate(38.05,55.35)" stroke="#04724C">
    <path fill="none" d="M-0.16,0 L0.16,0 " class="primitive"/>
  </g>
  <g transform="translate(41.69,58.02)" stroke="#04724C">
    <path fill="none" d="M-0.28,0 L0.28,0 " class="primitive"/>
  </g>
  <g transform="translate(46.26,60.7)" stroke="#04724C">
    <path fill="none" d="M-0.29,0 L0.29,0 " class="primitive"/>
  </g>
  <g transform="translate(48.36,63.37)" stroke="#04724C">
    <path fill="none" d="M-0.54,0 L0.54,0 " class="primitive"/>
  </g>
  <g transform="translate(48.43,66.04)" stroke="#04724C">
    <path fill="none" d="M-0.38,0 L0.38,0 " class="primitive"/>
  </g>
  <g transform="translate(52.87,68.72)" stroke="#04724C">
    <path fill="none" d="M-2.99,0 L2.99,0 " class="primitive"/>
  </g>
  <g transform="translate(55.15,71.39)" stroke="#96E823">
    <path fill="none" d="M-2.26,0 L2.26,0 " class="primitive"/>
  </g>
  <g transform="translate(54.92,74.06)" stroke="#96E823">
    <path fill="none" d="M-0.02,0 L0.02,0 " class="primitive"/>
  </g>
  <g transform="translate(59.41,76.74)" stroke="#04724C">
    <path fill="none" d="M-2.73,0 L2.73,0 " class="primitive"/>
  </g>
  <g transform="translate(57.77,79.41)" stroke="#04724C">
    <path fill="none" d="M-0.08,0 L0.08,0 " class="primitive"/>
  </g>
  <g transform="translate(66.7,82.09)" stroke="#96E823">
    <path fill="none" d="M-2.08,0 L2.08,0 " class="primitive"/>
  </g>
  <g transform="translate(67.21,84.76)" stroke="#96E823">
    <path fill="none" d="M-0.11,0 L0.11,0 " class="primitive"/>
  </g>
  <g transform="translate(70.6,87.43)" stroke="#04724C">
    <path fill="none" d="M-0.05,0 L0.05,0 " class="primitive"/>
  </g>
  <g transform="translate(73,90.11)" stroke="#96E823">
    <path fill="none" d="M-0.49,0 L0.49,0 " class="primitive"/>
  </g>
  <g transform="translate(74.44,92.78)" stroke="#04724C">
    <path fill="none" d="M-0.95,0 L0.95,0 " class="primitive"/>
  </g>
  <g transform="translate(76.12,95.45)" stroke="#04724C">
    <path fill="none" d="M-2.63,0 L2.63,0 " class="primitive"/>
  </g>
  <g transform="translate(73,94.12)" stroke="#04724C">
    <path fill="none" d="M-0.48,0 L0.48,0 " class="primitive"/>
  </g>
  <g transform="translate(73.49,94.12)" stroke="#04724C">
    <path fill="none" d="M0,1.34 L0,-1.34 " class="primitive"/>
  </g>
  <g transform="translate(71.53,92.11)" stroke="#96E823">
    <path fill="none" d="M-0.98,0 L0.98,0 " class="primitive"/>
  </g>
  <g transform="translate(72.52,92.11)" stroke="#96E823">
    <path fill="none" d="M0,2.01 L0,-2.01 " class="primitive"/>
  </g>
  <g transform="translate(68.83,89.77)" stroke="#04724C">
    <path fill="none" d="M-1.72,0 L1.72,0 " class="primitive"/>
  </g>
  <g transform="translate(70.55,89.77)" stroke="#04724C">
    <path fill="none" d="M0,2.34 L0,-2.34 " class="primitive"/>
  </g>
  <g transform="translate(65.87,87.27)" stroke="#96E823">
    <path fill="none" d="M-1.24,0 L1.24,0 " class="primitive"/>
  </g>
  <g transform="translate(67.11,87.27)" stroke="#96E823">
    <path fill="none" d="M0,2.51 L0,-2.51 " class="primitive"/>
  </g>
  <g transform="translate(61.16,84.68)" stroke="#96E823">
    <path fill="none" d="M-3.46,0 L3.46,0 " class="primitive"/>
  </g>
  <g transform="translate(64.63,84.68)" stroke="#96E823">
    <path fill="none" d="M0,2.59 L0,-2.59 " class="primitive"/>
  </g>
  <g transform="translate(57.19,82.04)" stroke="#04724C">
    <path fill="none" d="M-0.51,0 L0.51,0 " class="primitive"/>
  </g>
  <g transform="translate(57.7,82.04)" stroke="#04724C">
    <path fill="none" d="M0,2.63 L0,-2.63 " class="primitive"/>
  </g>
  <g transform="translate(55.79,79.39)" stroke="#04724C">
    <path fill="none" d="M-0.89,0 L0.89,0 " class="primitive"/>
  </g>
  <g transform="translate(56.68,79.39)" stroke="#04724C">
    <path fill="none" d="M0,2.65 L0,-2.65 " class="primitive"/>
  </g>
  <g transform="translate(53.9,76.73)" stroke="#04724C">
    <path fill="none" d="M-1,0 L1,0 " class="primitive"/>
  </g>
  <g transform="translate(54.9,76.73)" stroke="#04724C">
    <path fill="none" d="M0,2.66 L0,-2.66 " class="primitive"/>
  </g>
  <g stroke-opacity="1" stroke-width="0.3" id="img-29b4c979-2">
    <g transform="translate(3.75,9.89)" stroke="#000000">
      <path fill="none" d="M0,2.67 L0,-2.67 " class="primitive"/>
    </g>
    <g transform="translate(3.75,7.22)" stroke="#000000">
      <path fill="none" d="M0,0 L0,0 " class="primitive"/>
    </g>
    <g transform="translate(3.75,7.22)" stroke="#000000">
      <path fill="none" d="M0,2.67 L0,-2.67 " class="primitive"/>
    </g>
  </g>
  <g stroke-opacity="1" stroke-width="0.3" id="img-29b4c979-3">
    <g transform="translate(54.9,76.73)" stroke="#04724C">
      <path fill="none" d="M0,2.66 L0,-2.66 " class="primitive"/>
    </g>
    <g transform="translate(51.39,74.06)" stroke="#96E823">
      <path fill="none" d="M-1.51,0 L1.51,0 " class="primitive"/>
    </g>
    <g transform="translate(52.9,74.06)" stroke="#96E823">
      <path fill="none" d="M0,2.67 L0,-2.67 " class="primitive"/>
    </g>
    <g transform="translate(48.96,71.39)" stroke="#04724C">
      <path fill="none" d="M-0.92,0 L0.92,0 " class="primitive"/>
    </g>
    <g transform="translate(49.88,71.39)" stroke="#04724C">
      <path fill="none" d="M0,2.67 L0,-2.67 " class="primitive"/>
    </g>
    <g transform="translate(47.93,68.72)" stroke="#04724C">
      <path fill="none" d="M-0.11,0 L0.11,0 " class="primitive"/>
    </g>
    <g transform="translate(48.04,68.72)" stroke="#04724C">
      <path fill="none" d="M0,2.67 L0,-2.67 " class="primitive"/>
    </g>
    <g transform="translate(46.89,66.04)" stroke="#04724C">
      <path fill="none" d="M-0.93,0 L0.93,0 " class="primitive"/>
    </g>
    <g transform="translate(47.81,66.04)" stroke="#04724C">
      <path fill="none" d="M0,2.67 L0,-2.67 " class="primitive"/>
    </g>
    <g transform="translate(43.69,63.37)" stroke="#04724C">
      <path fill="none" d="M-2.28,0 L2.28,0 " class="primitive"/>
    </g>
    <g transform="translate(45.96,63.37)" stroke="#04724C">
      <path fill="none" d="M0,2.67 L0,-2.67 " class="primitive"/>
    </g>
    <g transform="translate(39.65,60.7)" stroke="#04724C">
      <path fill="none" d="M-1.76,0 L1.76,0 " class="primitive"/>
    </g>
    <g transform="translate(41.41,60.7)" stroke="#04724C">
      <path fill="none" d="M0,2.67 L0,-2.67 " class="primitive"/>
    </g>
    <g transform="translate(37.31,58.02)" stroke="#04724C">
      <path fill="none" d="M-0.58,0 L0.58,0 " class="primitive"/>
    </g>
    <g transform="translate(37.88,58.02)" stroke="#04724C">
      <path fill="none" d="M0,2.67 L0,-2.67 " class="primitive"/>
    </g>
    <g transform="translate(36.29,55.35)" stroke="#96E823">
      <path fill="none" d="M-0.44,0 L0.44,0 " class="primitive"/>
    </g>
    <g transform="translate(36.73,55.35)" stroke="#96E823">
      <path fill="none" d="M0,2.67 L0,-2.67 " class="primitive"/>
    </g>
    <g transform="translate(34.08,52.67)" stroke="#96E823">
      <path fill="none" d="M-1.77,0 L1.77,0 " class="primitive"/>
    </g>
    <g transform="translate(35.85,52.67)" stroke="#96E823">
      <path fill="none" d="M0,2.67 L0,-2.67 " class="primitive"/>
    </g>
    <g transform="translate(32.28,50)" stroke="#04724C">
      <path fill="none" d="M-0.03,0 L0.03,0 " class="primitive"/>
    </g>
    <g transform="translate(32.31,50)" stroke="#04724C">
      <path fill="none" d="M0,2.67 L0,-2.67 " class="primitive"/>
    </g>
    <g transform="translate(31.16,47.33)" stroke="#96E823">
      <path fill="none" d="M-1.1,0 L1.1,0 " class="primitive"/>
    </g>
    <g transform="translate(32.25,47.33)" stroke="#96E823">
      <path fill="none" d="M0,2.67 L0,-2.67 " class="primitive"/>
    </g>
    <g transform="translate(29.2,44.65)" stroke="#04724C">
      <path fill="none" d="M-0.86,0 L0.86,0 " class="primitive"/>
    </g>
    <g transform="translate(30.06,44.65)" stroke="#04724C">
      <path fill="none" d="M0,2.67 L0,-2.67 " class="primitive"/>
    </g>
    <g transform="translate(28.33,41.98)" stroke="#04724C">
      <path fill="none" d="M-0.02,0 L0.02,0 " class="primitive"/>
    </g>
    <g transform="translate(28.35,41.98)" stroke="#04724C">
      <path fill="none" d="M0,2.67 L0,-2.67 " class="primitive"/>
    </g>
    <g transform="translate(24.37,39.3)" stroke="#04724C">
      <path fill="none" d="M-3.94,0 L3.94,0 " class="primitive"/>
    </g>
    <g transform="translate(28.31,39.3)" stroke="#04724C">
      <path fill="none" d="M0,2.67 L0,-2.67 " class="primitive"/>
    </g>
    <g transform="translate(19.84,36.63)" stroke="#04724C">
      <path fill="none" d="M-0.59,0 L0.59,0 " class="primitive"/>
    </g>
    <g transform="translate(20.43,36.63)" stroke="#04724C">
      <path fill="none" d="M0,2.67 L0,-2.67 " class="primitive"/>
    </g>
    <g transform="translate(18.81,33.96)" stroke="#04724C">
      <path fill="none" d="M-0.45,0 L0.45,0 " class="primitive"/>
    </g>
    <g transform="translate(19.26,33.96)" stroke="#04724C">
      <path fill="none" d="M0,2.67 L0,-2.67 " class="primitive"/>
    </g>
    <g transform="translate(17.97,31.28)" stroke="#04724C">
      <path fill="none" d="M-0.39,0 L0.39,0 " class="primitive"/>
    </g>
    <g transform="translate(18.36,31.28)" stroke="#04724C">
      <path fill="none" d="M0,2.67 L0,-2.67 " class="primitive"/>
    </g>
    <g transform="translate(15.95,28.61)" stroke="#04724C">
      <path fill="none" d="M-1.62,0 L1.62,0 " class="primitive"/>
    </g>
    <g transform="translate(17.58,28.61)" stroke="#04724C">
      <path fill="none" d="M0,2.67 L0,-2.67 " class="primitive"/>
    </g>
    <g transform="translate(13.47,25.94)" stroke="#04724C">
      <path fill="none" d="M-0.85,0 L0.85,0 " class="primitive"/>
    </g>
    <g transform="translate(14.33,25.94)" stroke="#04724C">
      <path fill="none" d="M0,2.67 L0,-2.67 " class="primitive"/>
    </g>
    <g transform="translate(10.83,23.26)" stroke="#04724C">
      <path fill="none" d="M-1.79,0 L1.79,0 " class="primitive"/>
    </g>
    <g transform="translate(12.62,23.26)" stroke="#04724C">
      <path fill="none" d="M0,2.67 L0,-2.67 " class="primitive"/>
    </g>
    <g transform="translate(8.18,20.59)" stroke="#04724C">
      <path fill="none" d="M-0.86,0 L0.86,0 " class="primitive"/>
    </g>
    <g transform="translate(9.04,20.59)" stroke="#04724C">
      <path fill="none" d="M0,2.67 L0,-2.67 " class="primitive"/>
    </g>
    <g transform="translate(6.99,17.91)" stroke="#04724C">
      <path fill="none" d="M-0.33,0 L0.33,0 " class="primitive"/>
    </g>
    <g transform="translate(7.32,17.91)" stroke="#04724C">
      <path fill="none" d="M0,2.67 L0,-2.67 " class="primitive"/>
    </g>
    <g transform="translate(6.44,15.24)" stroke="#96E823">
      <path fill="none" d="M-0.21,0 L0.21,0 " class="primitive"/>
    </g>
    <g transform="translate(6.66,15.24)" stroke="#96E823">
      <path fill="none" d="M0,2.67 L0,-2.67 " class="primitive"/>
    </g>
    <g transform="translate(4.99,12.57)" stroke="#96E823">
      <path fill="none" d="M-1.24,0 L1.24,0 " class="primitive"/>
    </g>
    <g transform="translate(6.23,12.57)" stroke="#96E823">
      <path fill="none" d="M0,2.67 L0,-2.67 " class="primitive"/>
    </g>
    <g transform="translate(3.75,9.89)" stroke="#000000">
      <path fill="none" d="M0,0 L0,0 " class="primitive"/>
    </g>
    <g transform="translate(3.75,9.89)" stroke="#000000">
      <path fill="none" d="M0,2.67 L0,-2.67 " class="primitive"/>
    </g>
  </g>
</g>
<g fill-opacity="1" id="img-29b4c979-4">
  <g transform="translate(3.77,4.55)" fill="#04724C">
    <circle cx="0" cy="0" r="0.75" class="primitive"/>
  </g>
  <g transform="translate(3.88,7.22)" fill="#04724C">
    <circle cx="0" cy="0" r="0.75" class="primitive"/>
  </g>
  <g transform="translate(13.41,9.89)" fill="#96E823">
    <circle cx="0" cy="0" r="0.75" class="primitive"/>
  </g>
  <g transform="translate(9.02,12.57)" fill="#96E823">
    <circle cx="0" cy="0" r="0.75" class="primitive"/>
  </g>
  <g transform="translate(8.43,15.24)" fill="#96E823">
    <circle cx="0" cy="0" r="0.75" class="primitive"/>
  </g>
  <g transform="translate(9.36,17.91)" fill="#04724C">
    <circle cx="0" cy="0" r="0.75" class="primitive"/>
  </g>
  <g transform="translate(18.7,20.59)" fill="#04724C">
    <circle cx="0" cy="0" r="0.75" class="primitive"/>
  </g>
  <g transform="translate(22.09,23.26)" fill="#96E823">
    <circle cx="0" cy="0" r="0.75" class="primitive"/>
  </g>
  <g transform="translate(20.72,25.94)" fill="#04724C">
    <circle cx="0" cy="0" r="0.75" class="primitive"/>
  </g>
  <g transform="translate(19.02,28.61)" fill="#04724C">
    <circle cx="0" cy="0" r="0.75" class="primitive"/>
  </g>
  <g transform="translate(22.98,31.28)" fill="#04724C">
    <circle cx="0" cy="0" r="0.75" class="primitive"/>
  </g>
  <g transform="translate(24.75,33.96)" fill="#04724C">
    <circle cx="0" cy="0" r="0.75" class="primitive"/>
  </g>
  <g transform="translate(35.27,36.63)" fill="#04724C">
    <circle cx="0" cy="0" r="0.75" class="primitive"/>
  </g>
  <g transform="translate(30.72,39.3)" fill="#04724C">
    <circle cx="0" cy="0" r="0.75" class="primitive"/>
  </g>
  <g transform="translate(33.68,41.98)" fill="#04724C">
    <circle cx="0" cy="0" r="0.75" class="primitive"/>
  </g>
  <g transform="translate(32.54,44.65)" fill="#04724C">
    <circle cx="0" cy="0" r="0.75" class="primitive"/>
  </g>
  <g transform="translate(33.05,47.33)" fill="#96E823">
    <circle cx="0" cy="0" r="0.75" class="primitive"/>
  </g>
  <g transform="translate(38.07,50)" fill="#04724C">
    <circle cx="0" cy="0" r="0.75" class="primitive"/>
  </g>
  <g transform="translate(37.7,52.67)" fill="#04724C">
    <circle cx="0" cy="0" r="0.75" class="primitive"/>
  </g>
  <g transform="translate(38.21,55.35)" fill="#04724C">
    <circle cx="0" cy="0" r="0.75" class="primitive"/>
  </g>
  <g transform="translate(41.98,58.02)" fill="#04724C">
    <circle cx="0" cy="0" r="0.75" class="primitive"/>
  </g>
  <g transform="translate(46.55,60.7)" fill="#04724C">
    <circle cx="0" cy="0" r="0.75" class="primitive"/>
  </g>
  <g transform="translate(48.9,63.37)" fill="#04724C">
    <circle cx="0" cy="0" r="0.75" class="primitive"/>
  </g>
  <g transform="translate(48.81,66.04)" fill="#04724C">
    <circle cx="0" cy="0" r="0.75" class="primitive"/>
  </g>
  <g transform="translate(55.86,68.72)" fill="#04724C">
    <circle cx="0" cy="0" r="0.75" class="primitive"/>
  </g>
  <g transform="translate(57.41,71.39)" fill="#96E823">
    <circle cx="0" cy="0" r="0.75" class="primitive"/>
  </g>
  <g transform="translate(54.94,74.06)" fill="#96E823">
    <circle cx="0" cy="0" r="0.75" class="primitive"/>
  </g>
  <g transform="translate(62.14,76.74)" fill="#04724C">
    <circle cx="0" cy="0" r="0.75" class="primitive"/>
  </g>
  <g transform="translate(57.85,79.41)" fill="#04724C">
    <circle cx="0" cy="0" r="0.75" class="primitive"/>
  </g>
  <g transform="translate(68.78,82.09)" fill="#96E823">
    <circle cx="0" cy="0" r="0.75" class="primitive"/>
  </g>
  <g transform="translate(67.32,84.76)" fill="#96E823">
    <circle cx="0" cy="0" r="0.75" class="primitive"/>
  </g>
  <g transform="translate(70.66,87.43)" fill="#04724C">
    <circle cx="0" cy="0" r="0.75" class="primitive"/>
  </g>
  <g transform="translate(73.49,90.11)" fill="#96E823">
    <circle cx="0" cy="0" r="0.75" class="primitive"/>
  </g>
  <g transform="translate(75.39,92.78)" fill="#04724C">
    <circle cx="0" cy="0" r="0.75" class="primitive"/>
  </g>
  <g transform="translate(78.75,95.45)" fill="#04724C">
    <circle cx="0" cy="0" r="0.75" class="primitive"/>
  </g>
  <g transform="translate(73.49,94.12)" fill="#04724C">
    <circle cx="0" cy="0" r="0.75" class="primitive"/>
  </g>
  <g transform="translate(72.52,92.11)" fill="#96E823">
    <circle cx="0" cy="0" r="0.75" class="primitive"/>
  </g>
  <g transform="translate(70.55,89.77)" fill="#04724C">
    <circle cx="0" cy="0" r="0.75" class="primitive"/>
  </g>
  <g transform="translate(67.11,87.27)" fill="#96E823">
    <circle cx="0" cy="0" r="0.75" class="primitive"/>
  </g>
  <g transform="translate(64.63,84.68)" fill="#96E823">
    <circle cx="0" cy="0" r="0.75" class="primitive"/>
  </g>
  <g transform="translate(57.7,82.04)" fill="#04724C">
    <circle cx="0" cy="0" r="0.75" class="primitive"/>
  </g>
  <g transform="translate(56.68,79.39)" fill="#04724C">
    <circle cx="0" cy="0" r="0.75" class="primitive"/>
  </g>
  <g transform="translate(54.9,76.73)" fill="#04724C">
    <circle cx="0" cy="0" r="0.75" class="primitive"/>
  </g>
  <g transform="translate(52.9,74.06)" fill="#96E823">
    <circle cx="0" cy="0" r="0.75" class="primitive"/>
  </g>
  <g transform="translate(49.88,71.39)" fill="#04724C">
    <circle cx="0" cy="0" r="0.75" class="primitive"/>
  </g>
  <g transform="translate(48.04,68.72)" fill="#04724C">
    <circle cx="0" cy="0" r="0.75" class="primitive"/>
  </g>
  <g transform="translate(47.81,66.04)" fill="#04724C">
    <circle cx="0" cy="0" r="0.75" class="primitive"/>
  </g>
  <g transform="translate(45.96,63.37)" fill="#04724C">
    <circle cx="0" cy="0" r="0.75" class="primitive"/>
  </g>
  <g transform="translate(41.41,60.7)" fill="#04724C">
    <circle cx="0" cy="0" r="0.75" class="primitive"/>
  </g>
  <g transform="translate(37.88,58.02)" fill="#04724C">
    <circle cx="0" cy="0" r="0.75" class="primitive"/>
  </g>
  <g transform="translate(36.73,55.35)" fill="#96E823">
    <circle cx="0" cy="0" r="0.75" class="primitive"/>
  </g>
  <g fill-opacity="1" id="img-29b4c979-5">
    <g transform="translate(36.73,55.35)" fill="#96E823">
      <circle cx="0" cy="0" r="0.75" class="primitive"/>
    </g>
    <g transform="translate(35.85,52.67)" fill="#96E823">
      <circle cx="0" cy="0" r="0.75" class="primitive"/>
    </g>
    <g transform="translate(32.31,50)" fill="#04724C">
      <circle cx="0" cy="0" r="0.75" class="primitive"/>
    </g>
    <g transform="translate(32.25,47.33)" fill="#96E823">
      <circle cx="0" cy="0" r="0.75" class="primitive"/>
    </g>
    <g transform="translate(30.06,44.65)" fill="#04724C">
      <circle cx="0" cy="0" r="0.75" class="primitive"/>
    </g>
    <g transform="translate(28.35,41.98)" fill="#04724C">
      <circle cx="0" cy="0" r="0.75" class="primitive"/>
    </g>
    <g transform="translate(28.31,39.3)" fill="#04724C">
      <circle cx="0" cy="0" r="0.75" class="primitive"/>
    </g>
    <g transform="translate(20.43,36.63)" fill="#04724C">
      <circle cx="0" cy="0" r="0.75" class="primitive"/>
    </g>
    <g transform="translate(19.26,33.96)" fill="#04724C">
      <circle cx="0" cy="0" r="0.75" class="primitive"/>
    </g>
    <g transform="translate(18.36,31.28)" fill="#04724C">
      <circle cx="0" cy="0" r="0.75" class="primitive"/>
    </g>
    <g transform="translate(17.58,28.61)" fill="#04724C">
      <circle cx="0" cy="0" r="0.75" class="primitive"/>
    </g>
    <g transform="translate(14.33,25.94)" fill="#04724C">
      <circle cx="0" cy="0" r="0.75" class="primitive"/>
    </g>
    <g transform="translate(12.62,23.26)" fill="#04724C">
      <circle cx="0" cy="0" r="0.75" class="primitive"/>
    </g>
    <g transform="translate(9.04,20.59)" fill="#04724C">
      <circle cx="0" cy="0" r="0.75" class="primitive"/>
    </g>
    <g transform="translate(7.32,17.91)" fill="#04724C">
      <circle cx="0" cy="0" r="0.75" class="primitive"/>
    </g>
    <g transform="translate(6.66,15.24)" fill="#96E823">
      <circle cx="0" cy="0" r="0.75" class="primitive"/>
    </g>
    <g transform="translate(6.23,12.57)" fill="#96E823">
      <circle cx="0" cy="0" r="0.75" class="primitive"/>
    </g>
    <g transform="translate(3.75,9.89)" fill="#000000">
      <circle cx="0" cy="0" r="0.75" class="primitive"/>
    </g>
    <g transform="translate(3.75,7.22)" fill="#000000">
      <circle cx="0" cy="0" r="0.75" class="primitive"/>
    </g>
  </g>
</g>
<g stroke-opacity="1" fill-opacity="1" font-size="1.41" stroke-width="0.1" id="img-29b4c979-6">
  <g transform="translate(5.64,4.55)" stroke="#000000">
    <g class="primitive">
      <text dy="0.35em">N34</text>
    </g>
  </g>
  <g transform="translate(5.75,7.22)" stroke="#000000">
    <g class="primitive">
      <text dy="0.35em">N33</text>
    </g>
  </g>
  <g transform="translate(15.29,9.89)" stroke="#000000">
    <g class="primitive">
      <text dy="0.35em">N32</text>
    </g>
  </g>
  <g transform="translate(10.9,12.57)" stroke="#000000">
    <g class="primitive">
      <text dy="0.35em">N31</text>
    </g>
  </g>
  <g transform="translate(10.31,15.24)" stroke="#000000">
    <g class="primitive">
      <text dy="0.35em">N30</text>
    </g>
  </g>
  <g transform="translate(11.23,17.91)" stroke="#000000">
    <g class="primitive">
      <text dy="0.35em">N29</text>
    </g>
  </g>
  <g transform="translate(20.58,20.59)" stroke="#000000">
    <g class="primitive">
      <text dy="0.35em">N28</text>
    </g>
  </g>
  <g transform="translate(23.97,23.26)" stroke="#000000">
    <g class="primitive">
      <text dy="0.35em">N27</text>
    </g>
  </g>
  <g transform="translate(22.6,25.94)" stroke="#000000">
    <g class="primitive">
      <text dy="0.35em">N26</text>
    </g>
  </g>
  <g transform="translate(20.9,28.61)" stroke="#000000">
    <g class="primitive">
      <text dy="0.35em">N25</text>
    </g>
  </g>
  <g transform="translate(24.86,31.28)" stroke="#000000">
    <g class="primitive">
      <text dy="0.35em">N24</text>
    </g>
  </g>
  <g transform="translate(26.63,33.96)" stroke="#000000">
    <g class="primitive">
      <text dy="0.35em">N23</text>
    </g>
  </g>
  <g transform="translate(37.15,36.63)" stroke="#000000">
    <g class="primitive">
      <text dy="0.35em">N22</text>
    </g>
  </g>
  <g transform="translate(32.59,39.3)" stroke="#000000">
    <g class="primitive">
      <text dy="0.35em">N21</text>
    </g>
  </g>
  <g transform="translate(35.56,41.98)" stroke="#000000">
    <g class="primitive">
      <text dy="0.35em">N20</text>
    </g>
  </g>
  <g transform="translate(34.41,44.65)" stroke="#000000">
    <g class="primitive">
      <text dy="0.35em">N19</text>
    </g>
  </g>
  <g transform="translate(34.93,47.33)" stroke="#000000">
    <g class="primitive">
      <text dy="0.35em">N18</text>
    </g>
  </g>
  <g transform="translate(39.95,50)" stroke="#000000">
    <g class="primitive">
      <text dy="0.35em">N17</text>
    </g>
  </g>
  <g transform="translate(39.58,52.67)" stroke="#000000">
    <g class="primitive">
      <text dy="0.35em">N16</text>
    </g>
  </g>
  <g transform="translate(40.09,55.35)" stroke="#000000">
    <g class="primitive">
      <text dy="0.35em">N15</text>
    </g>
  </g>
  <g transform="translate(43.85,58.02)" stroke="#000000">
    <g class="primitive">
      <text dy="0.35em">N14</text>
    </g>
  </g>
  <g transform="translate(48.43,60.7)" stroke="#000000">
    <g class="primitive">
      <text dy="0.35em">N13</text>
    </g>
  </g>
  <g transform="translate(50.77,63.37)" stroke="#000000">
    <g class="primitive">
      <text dy="0.35em">N12</text>
    </g>
  </g>
  <g transform="translate(50.69,66.04)" stroke="#000000">
    <g class="primitive">
      <text dy="0.35em">N11</text>
    </g>
  </g>
  <g transform="translate(57.73,68.72)" stroke="#000000">
    <g class="primitive">
      <text dy="0.35em">N10</text>
    </g>
  </g>
  <g transform="translate(59.29,71.39)" stroke="#000000">
    <g class="primitive">
      <text dy="0.35em">N9</text>
    </g>
  </g>
  <g transform="translate(56.81,74.06)" stroke="#000000">
    <g class="primitive">
      <text dy="0.35em">N8</text>
    </g>
  </g>
  <g transform="translate(64.02,76.74)" stroke="#000000">
    <g class="primitive">
      <text dy="0.35em">N7</text>
    </g>
  </g>
  <g transform="translate(59.73,79.41)" stroke="#000000">
    <g class="primitive">
      <text dy="0.35em">N6</text>
    </g>
  </g>
  <g transform="translate(70.66,82.09)" stroke="#000000">
    <g class="primitive">
      <text dy="0.35em">N5</text>
    </g>
  </g>
  <g transform="translate(69.19,84.76)" stroke="#000000">
    <g class="primitive">
      <text dy="0.35em">N4</text>
    </g>
  </g>
  <g transform="translate(72.53,87.43)" stroke="#000000">
    <g class="primitive">
      <text dy="0.35em">N3</text>
    </g>
  </g>
  <g transform="translate(75.37,90.11)" stroke="#000000">
    <g class="primitive">
      <text dy="0.35em">N2</text>
    </g>
  </g>
  <g transform="translate(77.26,92.78)" stroke="#000000">
    <g class="primitive">
      <text dy="0.35em">N0</text>
    </g>
  </g>
  <g transform="translate(80.62,95.45)" stroke="#000000">
    <g class="primitive">
      <text dy="0.35em">N1</text>
    </g>
  </g>
  <g transform="translate(75.36,94.12)" stroke="#000000">
    <g class="primitive">
      <text dy="0.35em">N35</text>
    </g>
  </g>
  <g transform="translate(74.39,92.11)" stroke="#000000">
    <g class="primitive">
      <text dy="0.35em">N36</text>
    </g>
  </g>
  <g transform="translate(72.43,89.77)" stroke="#000000">
    <g class="primitive">
      <text dy="0.35em">N37</text>
    </g>
  </g>
  <g transform="translate(68.98,87.27)" stroke="#000000">
    <g class="primitive">
      <text dy="0.35em">N38</text>
    </g>
  </g>
  <g transform="translate(66.5,84.68)" stroke="#000000">
    <g class="primitive">
      <text dy="0.35em">N39</text>
    </g>
  </g>
  <g transform="translate(59.57,82.04)" stroke="#000000">
    <g class="primitive">
      <text dy="0.35em">N40</text>
    </g>
  </g>
  <g transform="translate(58.55,79.39)" stroke="#000000">
    <g class="primitive">
      <text dy="0.35em">N41</text>
    </g>
  </g>
  <g transform="translate(56.77,76.73)" stroke="#000000">
    <g class="primitive">
      <text dy="0.35em">N42</text>
    </g>
  </g>
  <g transform="translate(54.77,74.06)" stroke="#000000">
    <g class="primitive">
      <text dy="0.35em">N43</text>
    </g>
  </g>
  <g transform="translate(51.75,71.39)" stroke="#000000">
    <g class="primitive">
      <text dy="0.35em">N44</text>
    </g>
  </g>
  <g transform="translate(49.92,68.72)" stroke="#000000">
    <g class="primitive">
      <text dy="0.35em">N45</text>
    </g>
  </g>
  <g transform="translate(49.69,66.04)" stroke="#000000">
    <g class="primitive">
      <text dy="0.35em">N46</text>
    </g>
  </g>
  <g transform="translate(47.84,63.37)" stroke="#000000">
    <g class="primitive">
      <text dy="0.35em">N47</text>
    </g>
  </g>
  <g transform="translate(43.28,60.7)" stroke="#000000">
    <g class="primitive">
      <text dy="0.35em">N48</text>
    </g>
  </g>
  <g transform="translate(39.76,58.02)" stroke="#000000">
    <g class="primitive">
      <text dy="0.35em">N49</text>
    </g>
  </g>
  <g transform="translate(38.61,55.35)" stroke="#000000">
    <g class="primitive">
      <text dy="0.35em">N50</text>
    </g>
  </g>
  <g stroke-opacity="1" fill-opacity="1" font-size="1.41" stroke-width="0.1" id="img-29b4c979-7">
    <g transform="translate(38.61,55.35)" stroke="#000000">
      <g class="primitive">
        <text dy="0.35em">N50</text>
      </g>
    </g>
    <g transform="translate(37.72,52.67)" stroke="#000000">
      <g class="primitive">
        <text dy="0.35em">N51</text>
      </g>
    </g>
    <g transform="translate(34.19,50)" stroke="#000000">
      <g class="primitive">
        <text dy="0.35em">N52</text>
      </g>
    </g>
    <g transform="translate(34.13,47.33)" stroke="#000000">
      <g class="primitive">
        <text dy="0.35em">N53</text>
      </g>
    </g>
    <g transform="translate(31.94,44.65)" stroke="#000000">
      <g class="primitive">
        <text dy="0.35em">N54</text>
      </g>
    </g>
    <g transform="translate(30.22,41.98)" stroke="#000000">
      <g class="primitive">
        <text dy="0.35em">N55</text>
      </g>
    </g>
    <g transform="translate(30.18,39.3)" stroke="#000000">
      <g class="primitive">
        <text dy="0.35em">N56</text>
      </g>
    </g>
    <g transform="translate(22.3,36.63)" stroke="#000000">
      <g class="primitive">
        <text dy="0.35em">N57</text>
      </g>
    </g>
    <g transform="translate(21.13,33.96)" stroke="#000000">
      <g class="primitive">
        <text dy="0.35em">N58</text>
      </g>
    </g>
    <g transform="translate(20.24,31.28)" stroke="#000000">
      <g class="primitive">
        <text dy="0.35em">N59</text>
      </g>
    </g>
    <g transform="translate(19.45,28.61)" stroke="#000000">
      <g class="primitive">
        <text dy="0.35em">N60</text>
      </g>
    </g>
    <g transform="translate(16.2,25.94)" stroke="#000000">
      <g class="primitive">
        <text dy="0.35em">N61</text>
      </g>
    </g>
    <g transform="translate(14.5,23.26)" stroke="#000000">
      <g class="primitive">
        <text dy="0.35em">N62</text>
      </g>
    </g>
    <g transform="translate(10.92,20.59)" stroke="#000000">
      <g class="primitive">
        <text dy="0.35em">N63</text>
      </g>
    </g>
    <g transform="translate(9.19,17.91)" stroke="#000000">
      <g class="primitive">
        <text dy="0.35em">N64</text>
      </g>
    </g>
    <g transform="translate(8.53,15.24)" stroke="#000000">
      <g class="primitive">
        <text dy="0.35em">N65</text>
      </g>
    </g>
    <g transform="translate(8.11,12.57)" stroke="#000000">
      <g class="primitive">
        <text dy="0.35em">N66</text>
      </g>
    </g>
    <g transform="translate(5.63,9.89)" stroke="#000000">
      <g class="primitive">
        <text dy="0.35em"></text>
      </g>
    </g>
    <g transform="translate(5.63,7.22)" stroke="#000000">
      <g class="primitive">
        <text dy="0.35em"></text>
      </g>
    </g>
  </g>
</g>
</svg>
