<?xml version="1.0" encoding="UTF-8"?>
<svg xmlns="http://www.w3.org/2000/svg"
     xmlns:xlink="http://www.w3.org/1999/xlink"
     version="1.2"
     width="150mm" height="70mm" viewBox="0 0 150 70"
     stroke="none"
     fill="#000000"
     stroke-width="0.3"
     font-size="3.88"
>
<defs>
  <marker id="arrow" markerWidth="15" markerHeight="7" refX="5" refY="3.5" orient="auto" markerUnits="strokeWidth">
    <path d="M0,0 L15,3.5 L0,7 z" stroke="context-stroke" fill="context-stroke"/>
  </marker>
</defs>
<g stroke-opacity="1" stroke-width="0.3" id="img-29b4c979-1">
  <g transform="translate(15.44,3.18)" stroke="#C30FF2">
    <path fill="none" d="M-5.91,0 L5.91,0 " class="primitive"/>
  </g>
  <g transform="translate(13.33,6.53)" stroke="#AB7DB4">
    <path fill="none" d="M-0.96,0 L0.96,0 " class="primitive"/>
  </g>
  <g transform="translate(17.56,9.88)" stroke="#C30FF2">
    <path fill="none" d="M-5.19,0 L5.19,0 " class="primitive"/>
  </g>
  <g transform="translate(10.95,8.21)" stroke="#C30FF2">
    <path fill="none" d="M-1.42,0 L1.42,0 " class="primitive"/>
  </g>
  <g transform="translate(12.37,8.21)" stroke="#C30FF2">
    <path fill="none" d="M0,1.67 L0,-1.67 " class="primitive"/>
  </g>
  <g transform="translate(6.64,5.69)" stroke="#AB7DB4">
    <path fill="none" d="M-2.89,0 L2.89,0 " class="primitive"/>
  </g>
  <g transform="translate(9.54,5.69)" stroke="#AB7DB4">
    <path fill="none" d="M0,2.51 L0,-2.51 " class="primitive"/>
  </g>
  <g transform="translate(6.09,13.23)" stroke="#AB7DB4">
    <path fill="none" d="M-2,0 L2,0 " class="primitive"/>
  </g>
  <g transform="translate(38.85,16.58)" stroke="#C30FF2">
    <path fill="none" d="M-4.03,0 L4.03,0 " class="primitive"/>
  </g>
  <g transform="translate(41.07,19.93)" stroke="#C30FF2">
    <path fill="none" d="M-6.25,0 L6.25,0 " class="primitive"/>
  </g>
  <g transform="translate(32,18.25)" stroke="#C30FF2">
    <path fill="none" d="M-2.82,0 L2.82,0 " class="primitive"/>
  </g>
  <g transform="translate(34.82,18.25)" stroke="#C30FF2">
    <path fill="none" d="M0,1.67 L0,-1.67 " class="primitive"/>
  </g>
  <g transform="translate(37.62,23.28)" stroke="#C30FF2">
    <path fill="none" d="M-0.05,0 L0.05,0 " class="primitive"/>
  </g>
  <g transform="translate(52.84,26.63)" stroke="#C30FF2">
    <path fill="none" d="M-7.71,0 L7.71,0 " class="primitive"/>
  </g>
  <g transform="translate(51.84,29.98)" stroke="#C30FF2">
    <path fill="none" d="M-1.18,0 L1.18,0 " class="primitive"/>
  </g>
  <g transform="translate(54.94,33.33)" stroke="#C30FF2">
    <path fill="none" d="M-4.27,0 L4.27,0 " class="primitive"/>
  </g>
  <g transform="translate(47.9,31.65)" stroke="#AB7DB4">
    <path fill="none" d="M-2.77,0 L2.77,0 " class="primitive"/>
  </g>
  <g transform="translate(50.67,31.65)" stroke="#AB7DB4">
    <path fill="none" d="M0,1.67 L0,-1.67 " class="primitive"/>
  </g>
  <g transform="translate(41.35,29.14)" stroke="#C30FF2">
    <path fill="none" d="M-3.78,0 L3.78,0 " class="primitive"/>
  </g>
  <g transform="translate(45.13,29.14)" stroke="#C30FF2">
    <path fill="none" d="M0,2.51 L0,-2.51 " class="primitive"/>
  </g>
  <g transform="translate(33.38,26.21)" stroke="#C30FF2">
    <path fill="none" d="M-4.2,0 L4.2,0 " class="primitive"/>
  </g>
  <g transform="translate(37.57,26.21)" stroke="#C30FF2">
    <path fill="none" d="M0,2.93 L0,-2.93 " class="primitive"/>
  </g>
  <g transform="translate(16.63,22.23)" stroke="#C30FF2">
    <path fill="none" d="M-12.55,0 L12.55,0 " class="primitive"/>
  </g>
  <g transform="translate(29.18,22.23)" stroke="#C30FF2">
    <path fill="none" d="M0,3.98 L0,-3.98 " class="primitive"/>
  </g>
  <g transform="translate(3.92,17.73)" stroke="#C30FF2">
    <path fill="none" d="M-0.17,0 L0.17,0 " class="primitive"/>
  </g>
  <g transform="translate(4.09,17.73)" stroke="#C30FF2">
    <path fill="none" d="M0,4.5 L0,-4.5 " class="primitive"/>
  </g>
  <g transform="translate(3.75,11.71)" stroke="#000000">
    <path fill="none" d="M0,0 L0,0 " class="primitive"/>
  </g>
  <g transform="translate(3.75,11.71)" stroke="#000000">
    <path fill="none" d="M0,6.02 L0,-6.02 " class="primitive"/>
  </g>
  <g transform="translate(7.96,36.67)" stroke="#C30FF2">
    <path fill="none" d="M-0.81,0 L0.81,0 " class="primitive"/>
  </g>
  <g transform="translate(14.27,40.02)" stroke="#C30FF2">
    <path fill="none" d="M-1.53,0 L1.53,0 " class="primitive"/>
  </g>
  <g transform="translate(14.68,43.37)" stroke="#AB7DB4">
    <path fill="none" d="M-1.93,0 L1.93,0 " class="primitive"/>
  </g>
  <g transform="translate(9.95,41.7)" stroke="#C30FF2">
    <path fill="none" d="M-2.8,0 L2.8,0 " class="primitive"/>
  </g>
  <g transform="translate(12.74,41.7)" stroke="#C30FF2">
    <path fill="none" d="M0,1.67 L0,-1.67 " class="primitive"/>
  </g>
  <g transform="translate(6.8,39.19)" stroke="#C30FF2">
    <path fill="none" d="M-0.35,0 L0.35,0 " class="primitive"/>
  </g>
  <g transform="translate(7.15,39.19)" stroke="#C30FF2">
    <path fill="none" d="M0,2.51 L0,-2.51 " class="primitive"/>
  </g>
  <g transform="translate(7.59,46.72)" stroke="#AB7DB4">
    <path fill="none" d="M-1.14,0 L1.14,0 " class="primitive"/>
  </g>
  <g transform="translate(18.26,50.07)" stroke="#AB7DB4">
    <path fill="none" d="M-1.12,0 L1.12,0 " class="primitive"/>
  </g>
  <g transform="translate(17.98,53.42)" stroke="#AB7DB4">
    <path fill="none" d="M-0.84,0 L0.84,0 " class="primitive"/>
  </g>
  <g transform="translate(16.87,51.75)" stroke="#C30FF2">
    <path fill="none" d="M-0.28,0 L0.28,0 " class="primitive"/>
  </g>
  <g transform="translate(17.14,51.75)" stroke="#C30FF2">
    <path fill="none" d="M0,1.67 L0,-1.67 " class="primitive"/>
  </g>
  <g transform="translate(28.24,56.77)" stroke="#C30FF2">
    <path fill="none" d="M-2.21,0 L2.21,0 " class="primitive"/>
  </g>
  <g transform="translate(34.49,60.12)" stroke="#C30FF2">
    <path fill="none" d="M-1.11,0 L1.11,0 " class="primitive"/>
  </g>
  <g transform="translate(77.13,63.47)" stroke="#C30FF2">
    <path fill="none" d="M-1.55,0 L1.55,0 " class="primitive"/>
  </g>
  <g transform="translate(77.17,66.82)" stroke="#C30FF2">
    <path fill="none" d="M-1.58,0 L1.58,0 " class="primitive"/>
  </g>
  <g transform="translate(54.48,65.14)" stroke="#C30FF2">
    <path fill="none" d="M-21.1,0 L21.1,0 " class="primitive"/>
  </g>
  <g transform="translate(75.58,65.14)" stroke="#C30FF2">
    <path fill="none" d="M0,1.67 L0,-1.67 " class="primitive"/>
  </g>
  <g transform="translate(29.71,62.63)" stroke="#C30FF2">
    <path fill="none" d="M-3.67,0 L3.67,0 " class="primitive"/>
  </g>
  <g transform="translate(33.38,62.63)" stroke="#C30FF2">
    <path fill="none" d="M0,2.51 L0,-2.51 " class="primitive"/>
  </g>
  <g transform="translate(21.31,59.7)" stroke="#AB7DB4">
    <path fill="none" d="M-4.73,0 L4.73,0 " class="primitive"/>
  </g>
  <g transform="translate(26.04,59.7)" stroke="#AB7DB4">
    <path fill="none" d="M0,2.93 L0,-2.93 " class="primitive"/>
  </g>
  <g transform="translate(11.52,55.72)" stroke="#C30FF2">
    <path fill="none" d="M-5.07,0 L5.07,0 " class="primitive"/>
  </g>
  <g stroke-opacity="1" stroke-width="0.3" id="img-29b4c979-2">
    <g transform="translate(11.52,55.72)" stroke="#C30FF2">
      <path fill="none" d="M-5.07,0 L5.07,0 " class="primitive"/>
    </g>
    <g transform="translate(16.59,55.72)" stroke="#C30FF2">
      <path fill="none" d="M0,3.98 L0,-3.98 " class="primitive"/>
    </g>
    <g transform="translate(6.46,51.22)" stroke="#C30FF2">
      <path fill="none" d="M-0,0 L0,0 " class="primitive"/>
    </g>
    <g transform="translate(6.46,51.22)" stroke="#C30FF2">
      <path fill="none" d="M0,4.5 L0,-4.5 " class="primitive"/>
    </g>
    <g transform="translate(5.1,45.2)" stroke="#C30FF2">
      <path fill="none" d="M-1.35,0 L1.35,0 " class="primitive"/>
    </g>
    <g transform="translate(6.46,45.2)" stroke="#C30FF2">
      <path fill="none" d="M0,6.02 L0,-6.02 " class="primitive"/>
    </g>
    <g transform="translate(3.75,28.46)" stroke="#000000">
      <path fill="none" d="M0,0 L0,0 " class="primitive"/>
    </g>
    <g transform="translate(3.75,28.46)" stroke="#000000">
      <path fill="none" d="M0,16.75 L0,-16.75 " class="primitive"/>
    </g>
  </g>
</g>
<g fill-opacity="1" id="img-29b4c979-3">
  <g transform="translate(21.35,3.18)" fill="#C30FF2">
    <circle cx="0" cy="0" r="0.75" class="primitive"/>
  </g>
  <g transform="translate(14.28,6.53)" fill="#AB7DB4">
    <circle cx="0" cy="0" r="0.75" class="primitive"/>
  </g>
  <g transform="translate(22.75,9.88)" fill="#C30FF2">
    <circle cx="0" cy="0" r="0.75" class="primitive"/>
  </g>
  <g transform="translate(12.37,8.21)" fill="#C30FF2">
    <circle cx="0" cy="0" r="0.75" class="primitive"/>
  </g>
  <g transform="translate(9.54,5.69)" fill="#AB7DB4">
    <circle cx="0" cy="0" r="0.75" class="primitive"/>
  </g>
  <g transform="translate(8.08,13.23)" fill="#AB7DB4">
    <circle cx="0" cy="0" r="0.75" class="primitive"/>
  </g>
  <g transform="translate(42.87,16.58)" fill="#C30FF2">
    <circle cx="0" cy="0" r="0.75" class="primitive"/>
  </g>
  <g transform="translate(47.32,19.93)" fill="#C30FF2">
    <circle cx="0" cy="0" r="0.75" class="primitive"/>
  </g>
  <g transform="translate(34.82,18.25)" fill="#C30FF2">
    <circle cx="0" cy="0" r="0.75" class="primitive"/>
  </g>
  <g transform="translate(37.66,23.28)" fill="#C30FF2">
    <circle cx="0" cy="0" r="0.75" class="primitive"/>
  </g>
  <g transform="translate(60.54,26.63)" fill="#C30FF2">
    <circle cx="0" cy="0" r="0.75" class="primitive"/>
  </g>
  <g transform="translate(53.02,29.98)" fill="#C30FF2">
    <circle cx="0" cy="0" r="0.75" class="primitive"/>
  </g>
  <g transform="translate(59.21,33.33)" fill="#C30FF2">
    <circle cx="0" cy="0" r="0.75" class="primitive"/>
  </g>
  <g transform="translate(50.67,31.65)" fill="#AB7DB4">
    <circle cx="0" cy="0" r="0.75" class="primitive"/>
  </g>
  <g transform="translate(45.13,29.14)" fill="#C30FF2">
    <circle cx="0" cy="0" r="0.75" class="primitive"/>
  </g>
  <g transform="translate(37.57,26.21)" fill="#C30FF2">
    <circle cx="0" cy="0" r="0.75" class="primitive"/>
  </g>
  <g transform="translate(29.18,22.23)" fill="#C30FF2">
    <circle cx="0" cy="0" r="0.75" class="primitive"/>
  </g>
  <g transform="translate(4.09,17.73)" fill="#C30FF2">
    <circle cx="0" cy="0" r="0.75" class="primitive"/>
  </g>
  <g transform="translate(3.75,11.71)" fill="#000000">
    <circle cx="0" cy="0" r="0.75" class="primitive"/>
  </g>
  <g transform="translate(8.78,36.67)" fill="#C30FF2">
    <circle cx="0" cy="0" r="0.75" class="primitive"/>
  </g>
  <g transform="translate(15.8,40.02)" fill="#C30FF2">
    <circle cx="0" cy="0" r="0.75" class="primitive"/>
  </g>
  <g transform="translate(16.61,43.37)" fill="#AB7DB4">
    <circle cx="0" cy="0" r="0.75" class="primitive"/>
  </g>
  <g transform="translate(12.74,41.7)" fill="#C30FF2">
    <circle cx="0" cy="0" r="0.75" class="primitive"/>
  </g>
  <g transform="translate(7.15,39.19)" fill="#C30FF2">
    <circle cx="0" cy="0" r="0.75" class="primitive"/>
  </g>
  <g transform="translate(8.73,46.72)" fill="#AB7DB4">
    <circle cx="0" cy="0" r="0.75" class="primitive"/>
  </g>
  <g transform="translate(19.39,50.07)" fill="#AB7DB4">
    <circle cx="0" cy="0" r="0.75" class="primitive"/>
  </g>
  <g transform="translate(18.82,53.42)" fill="#AB7DB4">
    <circle cx="0" cy="0" r="0.75" class="primitive"/>
  </g>
  <g transform="translate(17.14,51.75)" fill="#C30FF2">
    <circle cx="0" cy="0" r="0.75" class="primitive"/>
  </g>
  <g transform="translate(30.45,56.77)" fill="#C30FF2">
    <circle cx="0" cy="0" r="0.75" class="primitive"/>
  </g>
  <g transform="translate(35.6,60.12)" fill="#C30FF2">
    <circle cx="0" cy="0" r="0.75" class="primitive"/>
  </g>
  <g transform="translate(78.68,63.47)" fill="#C30FF2">
    <circle cx="0" cy="0" r="0.75" class="primitive"/>
  </g>
  <g transform="translate(78.75,66.82)" fill="#C30FF2">
    <circle cx="0" cy="0" r="0.75" class="primitive"/>
  </g>
  <g transform="translate(75.58,65.14)" fill="#C30FF2">
    <circle cx="0" cy="0" r="0.75" class="primitive"/>
  </g>
  <g transform="translate(33.38,62.63)" fill="#C30FF2">
    <circle cx="0" cy="0" r="0.75" class="primitive"/>
  </g>
  <g transform="translate(26.04,59.7)" fill="#AB7DB4">
    <circle cx="0" cy="0" r="0.75" class="primitive"/>
  </g>
  <g transform="translate(16.59,55.72)" fill="#C30FF2">
    <circle cx="0" cy="0" r="0.75" class="primitive"/>
  </g>
  <g transform="translate(6.46,51.22)" fill="#C30FF2">
    <circle cx="0" cy="0" r="0.75" class="primitive"/>
  </g>
  <g transform="translate(6.46,45.2)" fill="#C30FF2">
    <circle cx="0" cy="0" r="0.75" class="primitive"/>
  </g>
  <g transform="translate(3.75,28.46)" fill="#000000">
    <circle cx="0" cy="0" r="0.75" class="primitive"/>
  </g>
</g>
<g stroke-opacity="1" fill-opacity="1" font-size="1.41" stroke-width="0.1" id="img-29b4c979-4">
  <g transform="translate(23.23,3.18)" stroke="#000000">
    <g class="primitive">
      <text dy="0.35em">N5</text>
    </g>
  </g>
  <g transform="translate(16.16,6.53)" stroke="#000000">
    <g class="primitive">
      <text dy="0.35em">N8</text>
    </g>
  </g>
  <g transform="translate(24.62,9.88)" stroke="#000000">
    <g class="primitive">
      <text dy="0.35em">N15</text>
    </g>
  </g>
  <g transform="translate(14.24,8.21)" stroke="#000000">
    <g class="primitive">
      <text dy="0.35em">N27</text>
    </g>
  </g>
  <g transform="translate(11.41,5.69)" stroke="#000000">
    <g class="primitive">
      <text dy="0.35em">N32</text>
    </g>
  </g>
  <g transform="translate(9.96,13.23)" stroke="#000000">
    <g class="primitive">
      <text dy="0.35em">N1</text>
    </g>
  </g>
  <g transform="translate(44.75,16.58)" stroke="#000000">
    <g class="primitive">
      <text dy="0.35em">N0</text>
    </g>
  </g>
  <g transform="translate(49.2,19.93)" stroke="#000000">
    <g class="primitive">
      <text dy="0.35em">N3</text>
    </g>
  </g>
  <g transform="translate(36.7,18.25)" stroke="#000000">
    <g class="primitive">
      <text dy="0.35em">N20</text>
    </g>
  </g>
  <g transform="translate(39.54,23.28)" stroke="#000000">
    <g class="primitive">
      <text dy="0.35em">N11</text>
    </g>
  </g>
  <g transform="translate(62.42,26.63)" stroke="#000000">
    <g class="primitive">
      <text dy="0.35em">N17</text>
    </g>
  </g>
  <g transform="translate(54.89,29.98)" stroke="#000000">
    <g class="primitive">
      <text dy="0.35em">N12</text>
    </g>
  </g>
  <g transform="translate(61.08,33.33)" stroke="#000000">
    <g class="primitive">
      <text dy="0.35em">N2</text>
    </g>
  </g>
  <g transform="translate(52.54,31.65)" stroke="#000000">
    <g class="primitive">
      <text dy="0.35em">N23</text>
    </g>
  </g>
  <g transform="translate(47.01,29.14)" stroke="#000000">
    <g class="primitive">
      <text dy="0.35em">N26</text>
    </g>
  </g>
  <g transform="translate(39.45,26.21)" stroke="#000000">
    <g class="primitive">
      <text dy="0.35em">N30</text>
    </g>
  </g>
  <g transform="translate(31.06,22.23)" stroke="#000000">
    <g class="primitive">
      <text dy="0.35em">N31</text>
    </g>
  </g>
  <g transform="translate(5.96,17.73)" stroke="#000000">
    <g class="primitive">
      <text dy="0.35em">N33</text>
    </g>
  </g>
  <g transform="translate(5.63,11.71)" stroke="#000000">
    <g class="primitive">
      <text dy="0.35em"></text>
    </g>
  </g>
  <g transform="translate(10.65,36.67)" stroke="#000000">
    <g class="primitive">
      <text dy="0.35em">N9</text>
    </g>
  </g>
  <g transform="translate(17.68,40.02)" stroke="#000000">
    <g class="primitive">
      <text dy="0.35em">N16</text>
    </g>
  </g>
  <g transform="translate(18.48,43.37)" stroke="#000000">
    <g class="primitive">
      <text dy="0.35em">N6</text>
    </g>
  </g>
  <g transform="translate(14.62,41.7)" stroke="#000000">
    <g class="primitive">
      <text dy="0.35em">N22</text>
    </g>
  </g>
  <g transform="translate(9.03,39.19)" stroke="#000000">
    <g class="primitive">
      <text dy="0.35em">N29</text>
    </g>
  </g>
  <g transform="translate(10.61,46.72)" stroke="#000000">
    <g class="primitive">
      <text dy="0.35em">N19</text>
    </g>
  </g>
  <g transform="translate(21.26,50.07)" stroke="#000000">
    <g class="primitive">
      <text dy="0.35em">N13</text>
    </g>
  </g>
  <g transform="translate(20.69,53.42)" stroke="#000000">
    <g class="primitive">
      <text dy="0.35em">N18</text>
    </g>
  </g>
  <g transform="translate(19.02,51.75)" stroke="#000000">
    <g class="primitive">
      <text dy="0.35em">N28</text>
    </g>
  </g>
  <g transform="translate(32.32,56.77)" stroke="#000000">
    <g class="primitive">
      <text dy="0.35em">N4</text>
    </g>
  </g>
  <g transform="translate(37.48,60.12)" stroke="#000000">
    <g class="primitive">
      <text dy="0.35em">N7</text>
    </g>
  </g>
  <g transform="translate(80.56,63.47)" stroke="#000000">
    <g class="primitive">
      <text dy="0.35em">N14</text>
    </g>
  </g>
  <g transform="translate(80.62,66.82)" stroke="#000000">
    <g class="primitive">
      <text dy="0.35em">N10</text>
    </g>
  </g>
  <g transform="translate(77.46,65.14)" stroke="#000000">
    <g class="primitive">
      <text dy="0.35em">N21</text>
    </g>
  </g>
  <g transform="translate(35.26,62.63)" stroke="#000000">
    <g class="primitive">
      <text dy="0.35em">N24</text>
    </g>
  </g>
  <g transform="translate(27.91,59.7)" stroke="#000000">
    <g class="primitive">
      <text dy="0.35em">N25</text>
    </g>
  </g>
  <g transform="translate(18.46,55.72)" stroke="#000000">
    <g class="primitive">
      <text dy="0.35em">N34</text>
    </g>
  </g>
  <g transform="translate(8.33,51.22)" stroke="#000000">
    <g class="primitive">
      <text dy="0.35em">N35</text>
    </g>
  </g>
  <g transform="translate(8.33,45.2)" stroke="#000000">
    <g class="primitive">
      <text dy="0.35em">N36</text>
    </g>
  </g>
  <g transform="translate(5.63,28.46)" stroke="#000000">
    <g class="primitive">
      <text dy="0.35em"></text>
    </g>
  </g>
</g>
</svg>
