<?xml version="1.0" encoding="UTF-8"?>
<svg xmlns="http://www.w3.org/2000/svg"
     xmlns:xlink="http://www.w3.org/1999/xlink"
     version="1.2"
     width="150mm" height="122mm" viewBox="0 0 150 122"
     stroke="none"
     fill="#000000"
     stroke-width="0.3"
     font-size="3.88"
>
<defs>
  <marker id="arrow" markerWidth="15" markerHeight="7" refX="5" refY="3.5" orient="auto" markerUnits="strokeWidth">
    <path d="M0,0 L15,3.5 L0,7 z" stroke="context-stroke" fill="context-stroke"/>
  </marker>
</defs>
<g stroke-opacity="1" stroke-width="0.3" id="img-29b4c979-1">
  <g transform="translate(8.1,5.55)" stroke="#68687C">
    <path fill="none" d="M-0.4,0 L0.4,0 " class="primitive"/>
  </g>
  <g transform="translate(9.99,8.01)" stroke="#8BD367">
    <path fill="none" d="M-2.28,0 L2.28,0 " class="primitive"/>
  </g>
  <g transform="translate(6.78,6.78)" stroke="#8BD367">
    <path fill="none" d="M-0.93,0 L0.93,0 " class="primitive"/>
  </g>
  <g transform="translate(7.71,6.78)" stroke="#8BD367">
    <path fill="none" d="M0,1.23 L0,-1.23 " class="primitive"/>
  </g>
  <g transform="translate(15.07,10.47)" stroke="#8BD367">
    <path fill="none" d="M-2.92,0 L2.92,0 " class="primitive"/>
  </g>
  <g transform="translate(43.35,12.94)" stroke="#8BD367">
    <path fill="none" d="M-5.97,0 L5.97,0 " class="primitive"/>
  </g>
  <g transform="translate(41.68,15.4)" stroke="#68687C">
    <path fill="none" d="M-1.28,0 L1.28,0 " class="primitive"/>
  </g>
  <g transform="translate(42.83,17.87)" stroke="#68687C">
    <path fill="none" d="M-2.43,0 L2.43,0 " class="primitive"/>
  </g>
  <g transform="translate(38.89,16.64)" stroke="#68687C">
    <path fill="none" d="M-1.51,0 L1.51,0 " class="primitive"/>
  </g>
  <g transform="translate(40.4,16.64)" stroke="#68687C">
    <path fill="none" d="M0,1.23 L0,-1.23 " class="primitive"/>
  </g>
  <g transform="translate(24.76,14.79)" stroke="#68687C">
    <path fill="none" d="M-12.61,0 L12.61,0 " class="primitive"/>
  </g>
  <g transform="translate(37.38,14.79)" stroke="#68687C">
    <path fill="none" d="M0,1.85 L0,-1.85 " class="primitive"/>
  </g>
  <g transform="translate(9,12.63)" stroke="#8BD367">
    <path fill="none" d="M-3.15,0 L3.15,0 " class="primitive"/>
  </g>
  <g transform="translate(12.15,12.63)" stroke="#8BD367">
    <path fill="none" d="M0,2.16 L0,-2.16 " class="primitive"/>
  </g>
  <g transform="translate(4.8,9.7)" stroke="#8BD367">
    <path fill="none" d="M-1.05,0 L1.05,0 " class="primitive"/>
  </g>
  <g transform="translate(5.85,9.7)" stroke="#8BD367">
    <path fill="none" d="M0,2.93 L0,-2.93 " class="primitive"/>
  </g>
  <g transform="translate(24.74,20.33)" stroke="#68687C">
    <path fill="none" d="M-9.35,0 L9.35,0 " class="primitive"/>
  </g>
  <g transform="translate(22.19,22.8)" stroke="#8BD367">
    <path fill="none" d="M-6.12,0 L6.12,0 " class="primitive"/>
  </g>
  <g transform="translate(25.41,25.26)" stroke="#68687C">
    <path fill="none" d="M-4.28,0 L4.28,0 " class="primitive"/>
  </g>
  <g transform="translate(27.35,27.73)" stroke="#8BD367">
    <path fill="none" d="M-3.72,0 L3.72,0 " class="primitive"/>
  </g>
  <g transform="translate(34.52,30.19)" stroke="#8BD367">
    <path fill="none" d="M-10.89,0 L10.89,0 " class="primitive"/>
  </g>
  <g transform="translate(22.38,28.96)" stroke="#68687C">
    <path fill="none" d="M-1.25,0 L1.25,0 " class="primitive"/>
  </g>
  <g transform="translate(23.63,28.96)" stroke="#68687C">
    <path fill="none" d="M0,1.23 L0,-1.23 " class="primitive"/>
  </g>
  <g transform="translate(18.6,27.11)" stroke="#8BD367">
    <path fill="none" d="M-2.53,0 L2.53,0 " class="primitive"/>
  </g>
  <g transform="translate(21.13,27.11)" stroke="#8BD367">
    <path fill="none" d="M0,1.85 L0,-1.85 " class="primitive"/>
  </g>
  <g transform="translate(15.73,24.95)" stroke="#8BD367">
    <path fill="none" d="M-0.34,0 L0.34,0 " class="primitive"/>
  </g>
  <g transform="translate(16.07,24.95)" stroke="#8BD367">
    <path fill="none" d="M0,2.16 L0,-2.16 " class="primitive"/>
  </g>
  <g transform="translate(12.44,22.64)" stroke="#8BD367">
    <path fill="none" d="M-2.95,0 L2.95,0 " class="primitive"/>
  </g>
  <g transform="translate(15.39,22.64)" stroke="#8BD367">
    <path fill="none" d="M0,2.31 L0,-2.31 " class="primitive"/>
  </g>
  <g transform="translate(39.32,32.66)" stroke="#8BD367">
    <path fill="none" d="M-1.16,0 L1.16,0 " class="primitive"/>
  </g>
  <g transform="translate(55.65,35.12)" stroke="#8BD367">
    <path fill="none" d="M-4.04,0 L4.04,0 " class="primitive"/>
  </g>
  <g transform="translate(53.1,37.59)" stroke="#68687C">
    <path fill="none" d="M-0.1,0 L0.1,0 " class="primitive"/>
  </g>
  <g transform="translate(53.07,40.05)" stroke="#8BD367">
    <path fill="none" d="M-0.08,0 L0.08,0 " class="primitive"/>
  </g>
  <g transform="translate(52.3,38.82)" stroke="#68687C">
    <path fill="none" d="M-0.69,0 L0.69,0 " class="primitive"/>
  </g>
  <g transform="translate(53,38.82)" stroke="#68687C">
    <path fill="none" d="M0,1.23 L0,-1.23 " class="primitive"/>
  </g>
  <g transform="translate(44.89,36.97)" stroke="#8BD367">
    <path fill="none" d="M-6.72,0 L6.72,0 " class="primitive"/>
  </g>
  <g transform="translate(51.61,36.97)" stroke="#8BD367">
    <path fill="none" d="M0,1.85 L0,-1.85 " class="primitive"/>
  </g>
  <g transform="translate(37.29,34.81)" stroke="#8BD367">
    <path fill="none" d="M-0.87,0 L0.87,0 " class="primitive"/>
  </g>
  <g transform="translate(38.16,34.81)" stroke="#8BD367">
    <path fill="none" d="M0,2.16 L0,-2.16 " class="primitive"/>
  </g>
  <g transform="translate(37.92,42.52)" stroke="#8BD367">
    <path fill="none" d="M-0.81,0 L0.81,0 " class="primitive"/>
  </g>
  <g transform="translate(49.36,44.98)" stroke="#68687C">
    <path fill="none" d="M-3.1,0 L3.1,0 " class="primitive"/>
  </g>
  <g transform="translate(65.29,47.44)" stroke="#68687C">
    <path fill="none" d="M-0.66,0 L0.66,0 " class="primitive"/>
  </g>
  <g transform="translate(68.1,49.91)" stroke="#8BD367">
    <path fill="none" d="M-0.04,0 L0.04,0 " class="primitive"/>
  </g>
  <g transform="translate(68.08,52.37)" stroke="#8BD367">
    <path fill="none" d="M-0.02,0 L0.02,0 " class="primitive"/>
  </g>
  <g transform="translate(66.35,51.14)" stroke="#68687C">
    <path fill="none" d="M-1.71,0 L1.71,0 " class="primitive"/>
  </g>
  <g transform="translate(68.06,51.14)" stroke="#68687C">
    <path fill="none" d="M0,1.23 L0,-1.23 " class="primitive"/>
  </g>
  <g transform="translate(55.44,49.29)" stroke="#8BD367">
    <path fill="none" d="M-9.19,0 L9.19,0 " class="primitive"/>
  </g>
  <g transform="translate(64.64,49.29)" stroke="#8BD367">
    <path fill="none" d="M0,1.85 L0,-1.85 " class="primitive"/>
  </g>
  <g transform="translate(41.68,47.14)" stroke="#68687C">
    <path fill="none" d="M-4.57,0 L4.57,0 " class="primitive"/>
  </g>
  <g transform="translate(46.25,47.14)" stroke="#68687C">
    <path fill="none" d="M0,2.16 L0,-2.16 " class="primitive"/>
  </g>
  <g transform="translate(36.76,44.83)" stroke="#68687C">
    <path fill="none" d="M-0.35,0 L0.35,0 " class="primitive"/>
  </g>
  <g stroke-opacity="1" stroke-width="0.3" id="img-29b4c979-2">
    <g transform="translate(40.24,98.59)" stroke="#68687C">
      <path fill="none" d="M-9.67,0 L9.67,0 " class="primitive"/>
    </g>
    <g transform="translate(49.91,98.59)" stroke="#68687C">
      <path fill="none" d="M0,1.85 L0,-1.85 " class="primitive"/>
    </g>
    <g transform="translate(29.28,96.43)" stroke="#8BD367">
      <path fill="none" d="M-1.29,0 L1.29,0 " class="primitive"/>
    </g>
    <g transform="translate(30.57,96.43)" stroke="#8BD367">
      <path fill="none" d="M0,2.16 L0,-2.16 " class="primitive"/>
    </g>
    <g transform="translate(52.76,104.13)" stroke="#8BD367">
      <path fill="none" d="M-5.5,0 L5.5,0 " class="primitive"/>
    </g>
    <g transform="translate(50.03,106.6)" stroke="#68687C">
      <path fill="none" d="M-2.77,0 L2.77,0 " class="primitive"/>
    </g>
    <g transform="translate(42.84,105.36)" stroke="#8BD367">
      <path fill="none" d="M-4.42,0 L4.42,0 " class="primitive"/>
    </g>
    <g transform="translate(47.26,105.36)" stroke="#8BD367">
      <path fill="none" d="M0,1.23 L0,-1.23 " class="primitive"/>
    </g>
    <g transform="translate(68.47,109.06)" stroke="#8BD367">
      <path fill="none" d="M-9.82,0 L9.82,0 " class="primitive"/>
    </g>
    <g transform="translate(68.7,111.53)" stroke="#68687C">
      <path fill="none" d="M-10.05,0 L10.05,0 " class="primitive"/>
    </g>
    <g transform="translate(56.67,110.29)" stroke="#8BD367">
      <path fill="none" d="M-1.98,0 L1.98,0 " class="primitive"/>
    </g>
    <g transform="translate(58.65,110.29)" stroke="#8BD367">
      <path fill="none" d="M0,1.23 L0,-1.23 " class="primitive"/>
    </g>
    <g transform="translate(55.81,113.99)" stroke="#68687C">
      <path fill="none" d="M-0.49,0 L0.49,0 " class="primitive"/>
    </g>
    <g transform="translate(65.36,116.45)" stroke="#68687C">
      <path fill="none" d="M-10.04,0 L10.04,0 " class="primitive"/>
    </g>
    <g transform="translate(55,115.22)" stroke="#8BD367">
      <path fill="none" d="M-0.32,0 L0.32,0 " class="primitive"/>
    </g>
    <g transform="translate(55.32,115.22)" stroke="#8BD367">
      <path fill="none" d="M0,1.23 L0,-1.23 " class="primitive"/>
    </g>
    <g transform="translate(46.56,112.76)" stroke="#8BD367">
      <path fill="none" d="M-8.13,0 L8.13,0 " class="primitive"/>
    </g>
    <g transform="translate(54.68,112.76)" stroke="#8BD367">
      <path fill="none" d="M0,2.46 L0,-2.46 " class="primitive"/>
    </g>
    <g transform="translate(33.21,109.06)" stroke="#8BD367">
      <path fill="none" d="M-5.22,0 L5.22,0 " class="primitive"/>
    </g>
    <g transform="translate(38.43,109.06)" stroke="#8BD367">
      <path fill="none" d="M0,3.7 L0,-3.7 " class="primitive"/>
    </g>
    <g transform="translate(26.88,102.74)" stroke="#8BD367">
      <path fill="none" d="M-1.11,0 L1.11,0 " class="primitive"/>
    </g>
    <g transform="translate(27.99,102.74)" stroke="#8BD367">
      <path fill="none" d="M0,6.32 L0,-6.32 " class="primitive"/>
    </g>
    <g transform="translate(23.35,97.28)" stroke="#68687C">
      <path fill="none" d="M-2.42,0 L2.42,0 " class="primitive"/>
    </g>
    <g transform="translate(25.77,97.28)" stroke="#68687C">
      <path fill="none" d="M0,5.47 L0,-5.47 " class="primitive"/>
    </g>
    <g transform="translate(19.67,93.31)" stroke="#8BD367">
      <path fill="none" d="M-1.26,0 L1.26,0 " class="primitive"/>
    </g>
    <g transform="translate(20.93,93.31)" stroke="#8BD367">
      <path fill="none" d="M0,3.97 L0,-3.97 " class="primitive"/>
    </g>
    <g transform="translate(13.51,90.09)" stroke="#8BD367">
      <path fill="none" d="M-4.9,0 L4.9,0 " class="primitive"/>
    </g>
    <g transform="translate(18.41,90.09)" stroke="#8BD367">
      <path fill="none" d="M0,3.22 L0,-3.22 " class="primitive"/>
    </g>
    <g transform="translate(6.86,79.9)" stroke="#68687C">
      <path fill="none" d="M-1.75,0 L1.75,0 " class="primitive"/>
    </g>
    <g transform="translate(8.61,79.9)" stroke="#68687C">
      <path fill="none" d="M0,10.2 L0,-10.2 " class="primitive"/>
    </g>
    <g transform="translate(4.43,68.29)" stroke="#68687C">
      <path fill="none" d="M-0.68,0 L0.68,0 " class="primitive"/>
    </g>
    <g transform="translate(5.11,68.29)" stroke="#68687C">
      <path fill="none" d="M0,11.61 L0,-11.61 " class="primitive"/>
    </g>
    <g transform="translate(3.75,49.76)" stroke="#000000">
      <path fill="none" d="M0,0 L0,0 " class="primitive"/>
    </g>
    <g transform="translate(3.75,49.76)" stroke="#000000">
      <path fill="none" d="M0,18.53 L0,-18.53 " class="primitive"/>
    </g>
    <g transform="translate(3.75,29.73)" stroke="#000000">
      <path fill="none" d="M0,0 L0,0 " class="primitive"/>
    </g>
    <g transform="translate(3.75,29.73)" stroke="#000000">
      <path fill="none" d="M0,20.03 L0,-20.03 " class="primitive"/>
    </g>
  </g>
  <g stroke-opacity="1" stroke-width="0.3" id="img-29b4c979-3">
    <g transform="translate(36.76,44.83)" stroke="#68687C">
      <path fill="none" d="M-0.35,0 L0.35,0 " class="primitive"/>
    </g>
    <g transform="translate(37.11,44.83)" stroke="#68687C">
      <path fill="none" d="M0,2.31 L0,-2.31 " class="primitive"/>
    </g>
    <g transform="translate(22.95,39.82)" stroke="#68687C">
      <path fill="none" d="M-13.46,0 L13.46,0 " class="primitive"/>
    </g>
    <g transform="translate(36.41,39.82)" stroke="#68687C">
      <path fill="none" d="M0,5.01 L0,-5.01 " class="primitive"/>
    </g>
    <g transform="translate(6.62,31.23)" stroke="#68687C">
      <path fill="none" d="M-2.87,0 L2.87,0 " class="primitive"/>
    </g>
    <g transform="translate(9.49,31.23)" stroke="#68687C">
      <path fill="none" d="M0,8.59 L0,-8.59 " class="primitive"/>
    </g>
    <g transform="translate(9.47,54.84)" stroke="#8BD367">
      <path fill="none" d="M-3.16,0 L3.16,0 " class="primitive"/>
    </g>
    <g transform="translate(17.54,57.3)" stroke="#8BD367">
      <path fill="none" d="M-4.53,0 L4.53,0 " class="primitive"/>
    </g>
    <g transform="translate(16.73,59.77)" stroke="#68687C">
      <path fill="none" d="M-3.72,0 L3.72,0 " class="primitive"/>
    </g>
    <g transform="translate(9.66,58.54)" stroke="#8BD367">
      <path fill="none" d="M-3.35,0 L3.35,0 " class="primitive"/>
    </g>
    <g transform="translate(13.01,58.54)" stroke="#8BD367">
      <path fill="none" d="M0,1.23 L0,-1.23 " class="primitive"/>
    </g>
    <g transform="translate(5.71,56.69)" stroke="#8BD367">
      <path fill="none" d="M-0.6,0 L0.6,0 " class="primitive"/>
    </g>
    <g transform="translate(6.31,56.69)" stroke="#8BD367">
      <path fill="none" d="M0,1.85 L0,-1.85 " class="primitive"/>
    </g>
    <g transform="translate(33.26,62.23)" stroke="#68687C">
      <path fill="none" d="M-0.38,0 L0.38,0 " class="primitive"/>
    </g>
    <g transform="translate(40.73,64.7)" stroke="#8BD367">
      <path fill="none" d="M-7.09,0 L7.09,0 " class="primitive"/>
    </g>
    <g transform="translate(35.47,67.16)" stroke="#8BD367">
      <path fill="none" d="M-1.83,0 L1.83,0 " class="primitive"/>
    </g>
    <g transform="translate(33.26,65.93)" stroke="#68687C">
      <path fill="none" d="M-0.38,0 L0.38,0 " class="primitive"/>
    </g>
    <g transform="translate(33.64,65.93)" stroke="#68687C">
      <path fill="none" d="M0,1.23 L0,-1.23 " class="primitive"/>
    </g>
    <g transform="translate(21.99,64.08)" stroke="#8BD367">
      <path fill="none" d="M-10.89,0 L10.89,0 " class="primitive"/>
    </g>
    <g transform="translate(32.87,64.08)" stroke="#8BD367">
      <path fill="none" d="M0,1.85 L0,-1.85 " class="primitive"/>
    </g>
    <g transform="translate(31.47,69.63)" stroke="#68687C">
      <path fill="none" d="M-5.63,0 L5.63,0 " class="primitive"/>
    </g>
    <g transform="translate(34.18,72.09)" stroke="#8BD367">
      <path fill="none" d="M-3.16,0 L3.16,0 " class="primitive"/>
    </g>
    <g transform="translate(33.47,74.56)" stroke="#8BD367">
      <path fill="none" d="M-2.45,0 L2.45,0 " class="primitive"/>
    </g>
    <g transform="translate(28.43,73.32)" stroke="#68687C">
      <path fill="none" d="M-2.59,0 L2.59,0 " class="primitive"/>
    </g>
    <g transform="translate(31.02,73.32)" stroke="#68687C">
      <path fill="none" d="M0,1.23 L0,-1.23 " class="primitive"/>
    </g>
    <g transform="translate(24.84,71.47)" stroke="#8BD367">
      <path fill="none" d="M-0.99,0 L0.99,0 " class="primitive"/>
    </g>
    <g transform="translate(25.84,71.47)" stroke="#8BD367">
      <path fill="none" d="M0,1.85 L0,-1.85 " class="primitive"/>
    </g>
    <g transform="translate(31.43,77.02)" stroke="#8BD367">
      <path fill="none" d="M-0.09,0 L0.09,0 " class="primitive"/>
    </g>
    <g transform="translate(35.9,79.48)" stroke="#8BD367">
      <path fill="none" d="M-3.09,0 L3.09,0 " class="primitive"/>
    </g>
    <g transform="translate(34.64,81.95)" stroke="#8BD367">
      <path fill="none" d="M-0.53,0 L0.53,0 " class="primitive"/>
    </g>
    <g transform="translate(35.42,84.41)" stroke="#8BD367">
      <path fill="none" d="M-1.3,0 L1.3,0 " class="primitive"/>
    </g>
    <g transform="translate(33.46,83.18)" stroke="#8BD367">
      <path fill="none" d="M-0.65,0 L0.65,0 " class="primitive"/>
    </g>
    <g transform="translate(34.11,83.18)" stroke="#8BD367">
      <path fill="none" d="M0,1.23 L0,-1.23 " class="primitive"/>
    </g>
    <g transform="translate(32.07,81.33)" stroke="#68687C">
      <path fill="none" d="M-0.73,0 L0.73,0 " class="primitive"/>
    </g>
    <g transform="translate(32.81,81.33)" stroke="#68687C">
      <path fill="none" d="M0,1.85 L0,-1.85 " class="primitive"/>
    </g>
    <g transform="translate(27.59,79.18)" stroke="#8BD367">
      <path fill="none" d="M-3.75,0 L3.75,0 " class="primitive"/>
    </g>
    <g transform="translate(31.34,79.18)" stroke="#8BD367">
      <path fill="none" d="M0,2.16 L0,-2.16 " class="primitive"/>
    </g>
    <g transform="translate(17.47,75.33)" stroke="#68687C">
      <path fill="none" d="M-6.37,0 L6.37,0 " class="primitive"/>
    </g>
    <g transform="translate(23.85,75.33)" stroke="#68687C">
      <path fill="none" d="M0,3.85 L0,-3.85 " class="primitive"/>
    </g>
    <g transform="translate(9.86,69.7)" stroke="#68687C">
      <path fill="none" d="M-1.25,0 L1.25,0 " class="primitive"/>
    </g>
    <g transform="translate(11.1,69.7)" stroke="#68687C">
      <path fill="none" d="M0,5.62 L0,-5.62 " class="primitive"/>
    </g>
    <g transform="translate(21.88,86.88)" stroke="#8BD367">
      <path fill="none" d="M-3.47,0 L3.47,0 " class="primitive"/>
    </g>
    <g transform="translate(23.91,89.34)" stroke="#8BD367">
      <path fill="none" d="M-2.97,0 L2.97,0 " class="primitive"/>
    </g>
    <g transform="translate(36.51,91.81)" stroke="#8BD367">
      <path fill="none" d="M-10.75,0 L10.75,0 " class="primitive"/>
    </g>
    <g transform="translate(33.34,94.27)" stroke="#8BD367">
      <path fill="none" d="M-2.77,0 L2.77,0 " class="primitive"/>
    </g>
    <g transform="translate(60.57,96.74)" stroke="#8BD367">
      <path fill="none" d="M-10.66,0 L10.66,0 " class="primitive"/>
    </g>
    <g transform="translate(66.05,99.2)" stroke="#68687C">
      <path fill="none" d="M-2.2,0 L2.2,0 " class="primitive"/>
    </g>
    <g transform="translate(70.07,101.67)" stroke="#8BD367">
      <path fill="none" d="M-6.22,0 L6.22,0 " class="primitive"/>
    </g>
    <g transform="translate(56.88,100.43)" stroke="#68687C">
      <path fill="none" d="M-6.97,0 L6.97,0 " class="primitive"/>
    </g>
    <g transform="translate(63.85,100.43)" stroke="#68687C">
      <path fill="none" d="M0,1.23 L0,-1.23 " class="primitive"/>
    </g>
    <g transform="translate(40.24,98.59)" stroke="#68687C">
      <path fill="none" d="M-9.67,0 L9.67,0 " class="primitive"/>
    </g>
  </g>
</g>
<g fill-opacity="1" id="img-29b4c979-4">
  <g transform="translate(8.5,5.55)" fill="#68687C">
    <circle cx="0" cy="0" r="0.75" class="primitive"/>
  </g>
  <g transform="translate(12.27,8.01)" fill="#8BD367">
    <circle cx="0" cy="0" r="0.75" class="primitive"/>
  </g>
  <g transform="translate(7.71,6.78)" fill="#8BD367">
    <circle cx="0" cy="0" r="0.75" class="primitive"/>
  </g>
  <g transform="translate(18,10.47)" fill="#8BD367">
    <circle cx="0" cy="0" r="0.75" class="primitive"/>
  </g>
  <g transform="translate(49.32,12.94)" fill="#8BD367">
    <circle cx="0" cy="0" r="0.75" class="primitive"/>
  </g>
  <g transform="translate(42.95,15.4)" fill="#68687C">
    <circle cx="0" cy="0" r="0.75" class="primitive"/>
  </g>
  <g transform="translate(45.27,17.87)" fill="#68687C">
    <circle cx="0" cy="0" r="0.75" class="primitive"/>
  </g>
  <g transform="translate(40.4,16.64)" fill="#68687C">
    <circle cx="0" cy="0" r="0.75" class="primitive"/>
  </g>
  <g transform="translate(37.38,14.79)" fill="#68687C">
    <circle cx="0" cy="0" r="0.75" class="primitive"/>
  </g>
  <g transform="translate(12.15,12.63)" fill="#8BD367">
    <circle cx="0" cy="0" r="0.75" class="primitive"/>
  </g>
  <g transform="translate(5.85,9.7)" fill="#8BD367">
    <circle cx="0" cy="0" r="0.75" class="primitive"/>
  </g>
  <g transform="translate(34.09,20.33)" fill="#68687C">
    <circle cx="0" cy="0" r="0.75" class="primitive"/>
  </g>
  <g transform="translate(28.31,22.8)" fill="#8BD367">
    <circle cx="0" cy="0" r="0.75" class="primitive"/>
  </g>
  <g transform="translate(29.69,25.26)" fill="#68687C">
    <circle cx="0" cy="0" r="0.75" class="primitive"/>
  </g>
  <g transform="translate(31.07,27.73)" fill="#8BD367">
    <circle cx="0" cy="0" r="0.75" class="primitive"/>
  </g>
  <g transform="translate(45.4,30.19)" fill="#8BD367">
    <circle cx="0" cy="0" r="0.75" class="primitive"/>
  </g>
  <g transform="translate(23.63,28.96)" fill="#68687C">
    <circle cx="0" cy="0" r="0.75" class="primitive"/>
  </g>
  <g transform="translate(21.13,27.11)" fill="#8BD367">
    <circle cx="0" cy="0" r="0.75" class="primitive"/>
  </g>
  <g transform="translate(16.07,24.95)" fill="#8BD367">
    <circle cx="0" cy="0" r="0.75" class="primitive"/>
  </g>
  <g transform="translate(15.39,22.64)" fill="#8BD367">
    <circle cx="0" cy="0" r="0.75" class="primitive"/>
  </g>
  <g transform="translate(40.48,32.66)" fill="#8BD367">
    <circle cx="0" cy="0" r="0.75" class="primitive"/>
  </g>
  <g transform="translate(59.7,35.12)" fill="#8BD367">
    <circle cx="0" cy="0" r="0.75" class="primitive"/>
  </g>
  <g transform="translate(53.21,37.59)" fill="#68687C">
    <circle cx="0" cy="0" r="0.75" class="primitive"/>
  </g>
  <g transform="translate(53.15,40.05)" fill="#8BD367">
    <circle cx="0" cy="0" r="0.75" class="primitive"/>
  </g>
  <g transform="translate(53,38.82)" fill="#68687C">
    <circle cx="0" cy="0" r="0.75" class="primitive"/>
  </g>
  <g transform="translate(51.61,36.97)" fill="#8BD367">
    <circle cx="0" cy="0" r="0.75" class="primitive"/>
  </g>
  <g transform="translate(38.16,34.81)" fill="#8BD367">
    <circle cx="0" cy="0" r="0.75" class="primitive"/>
  </g>
  <g transform="translate(38.74,42.52)" fill="#8BD367">
    <circle cx="0" cy="0" r="0.75" class="primitive"/>
  </g>
  <g transform="translate(52.46,44.98)" fill="#68687C">
    <circle cx="0" cy="0" r="0.75" class="primitive"/>
  </g>
  <g transform="translate(65.95,47.44)" fill="#68687C">
    <circle cx="0" cy="0" r="0.75" class="primitive"/>
  </g>
  <g transform="translate(68.14,49.91)" fill="#8BD367">
    <circle cx="0" cy="0" r="0.75" class="primitive"/>
  </g>
  <g transform="translate(68.09,52.37)" fill="#8BD367">
    <circle cx="0" cy="0" r="0.75" class="primitive"/>
  </g>
  <g transform="translate(68.06,51.14)" fill="#68687C">
    <circle cx="0" cy="0" r="0.75" class="primitive"/>
  </g>
  <g transform="translate(64.64,49.29)" fill="#8BD367">
    <circle cx="0" cy="0" r="0.75" class="primitive"/>
  </g>
  <g transform="translate(46.25,47.14)" fill="#68687C">
    <circle cx="0" cy="0" r="0.75" class="primitive"/>
  </g>
  <g transform="translate(37.11,44.83)" fill="#68687C">
    <circle cx="0" cy="0" r="0.75" class="primitive"/>
  </g>
  <g transform="translate(36.41,39.82)" fill="#68687C">
    <circle cx="0" cy="0" r="0.75" class="primitive"/>
  </g>
  <g transform="translate(9.49,31.23)" fill="#68687C">
    <circle cx="0" cy="0" r="0.75" class="primitive"/>
  </g>
  <g transform="translate(12.63,54.84)" fill="#8BD367">
    <circle cx="0" cy="0" r="0.75" class="primitive"/>
  </g>
  <g transform="translate(22.07,57.3)" fill="#8BD367">
    <circle cx="0" cy="0" r="0.75" class="primitive"/>
  </g>
  <g transform="translate(20.44,59.77)" fill="#68687C">
    <circle cx="0" cy="0" r="0.75" class="primitive"/>
  </g>
  <g transform="translate(13.01,58.54)" fill="#8BD367">
    <circle cx="0" cy="0" r="0.75" class="primitive"/>
  </g>
  <g transform="translate(6.31,56.69)" fill="#8BD367">
    <circle cx="0" cy="0" r="0.75" class="primitive"/>
  </g>
  <g transform="translate(33.64,62.23)" fill="#68687C">
    <circle cx="0" cy="0" r="0.75" class="primitive"/>
  </g>
  <g transform="translate(47.81,64.7)" fill="#8BD367">
    <circle cx="0" cy="0" r="0.75" class="primitive"/>
  </g>
  <g transform="translate(37.29,67.16)" fill="#8BD367">
    <circle cx="0" cy="0" r="0.75" class="primitive"/>
  </g>
  <g transform="translate(33.64,65.93)" fill="#68687C">
    <circle cx="0" cy="0" r="0.75" class="primitive"/>
  </g>
  <g transform="translate(32.87,64.08)" fill="#8BD367">
    <circle cx="0" cy="0" r="0.75" class="primitive"/>
  </g>
  <g transform="translate(37.1,69.63)" fill="#68687C">
    <circle cx="0" cy="0" r="0.75" class="primitive"/>
  </g>
  <g transform="translate(37.34,72.09)" fill="#8BD367">
    <circle cx="0" cy="0" r="0.75" class="primitive"/>
  </g>
  <g transform="translate(35.91,74.56)" fill="#8BD367">
    <circle cx="0" cy="0" r="0.75" class="primitive"/>
  </g>
  <g fill-opacity="1" id="img-29b4c979-5">
    <g transform="translate(35.91,74.56)" fill="#8BD367">
      <circle cx="0" cy="0" r="0.75" class="primitive"/>
    </g>
    <g transform="translate(31.02,73.32)" fill="#68687C">
      <circle cx="0" cy="0" r="0.75" class="primitive"/>
    </g>
    <g transform="translate(25.84,71.47)" fill="#8BD367">
      <circle cx="0" cy="0" r="0.75" class="primitive"/>
    </g>
    <g transform="translate(31.52,77.02)" fill="#8BD367">
      <circle cx="0" cy="0" r="0.75" class="primitive"/>
    </g>
    <g transform="translate(38.99,79.48)" fill="#8BD367">
      <circle cx="0" cy="0" r="0.75" class="primitive"/>
    </g>
    <g transform="translate(35.18,81.95)" fill="#8BD367">
      <circle cx="0" cy="0" r="0.75" class="primitive"/>
    </g>
    <g transform="translate(36.72,84.41)" fill="#8BD367">
      <circle cx="0" cy="0" r="0.75" class="primitive"/>
    </g>
    <g transform="translate(34.11,83.18)" fill="#8BD367">
      <circle cx="0" cy="0" r="0.75" class="primitive"/>
    </g>
    <g transform="translate(32.81,81.33)" fill="#68687C">
      <circle cx="0" cy="0" r="0.75" class="primitive"/>
    </g>
    <g transform="translate(31.34,79.18)" fill="#8BD367">
      <circle cx="0" cy="0" r="0.75" class="primitive"/>
    </g>
    <g transform="translate(23.85,75.33)" fill="#68687C">
      <circle cx="0" cy="0" r="0.75" class="primitive"/>
    </g>
    <g transform="translate(11.1,69.7)" fill="#68687C">
      <circle cx="0" cy="0" r="0.75" class="primitive"/>
    </g>
    <g transform="translate(25.34,86.88)" fill="#8BD367">
      <circle cx="0" cy="0" r="0.75" class="primitive"/>
    </g>
    <g transform="translate(26.88,89.34)" fill="#8BD367">
      <circle cx="0" cy="0" r="0.75" class="primitive"/>
    </g>
    <g transform="translate(47.26,91.81)" fill="#8BD367">
      <circle cx="0" cy="0" r="0.75" class="primitive"/>
    </g>
    <g transform="translate(36.12,94.27)" fill="#8BD367">
      <circle cx="0" cy="0" r="0.75" class="primitive"/>
    </g>
    <g transform="translate(71.23,96.74)" fill="#8BD367">
      <circle cx="0" cy="0" r="0.75" class="primitive"/>
    </g>
    <g transform="translate(68.25,99.2)" fill="#68687C">
      <circle cx="0" cy="0" r="0.75" class="primitive"/>
    </g>
    <g transform="translate(76.29,101.67)" fill="#8BD367">
      <circle cx="0" cy="0" r="0.75" class="primitive"/>
    </g>
    <g transform="translate(63.85,100.43)" fill="#68687C">
      <circle cx="0" cy="0" r="0.75" class="primitive"/>
    </g>
    <g transform="translate(49.91,98.59)" fill="#68687C">
      <circle cx="0" cy="0" r="0.75" class="primitive"/>
    </g>
    <g transform="translate(30.57,96.43)" fill="#8BD367">
      <circle cx="0" cy="0" r="0.75" class="primitive"/>
    </g>
    <g transform="translate(58.27,104.13)" fill="#8BD367">
      <circle cx="0" cy="0" r="0.75" class="primitive"/>
    </g>
    <g transform="translate(52.79,106.6)" fill="#68687C">
      <circle cx="0" cy="0" r="0.75" class="primitive"/>
    </g>
    <g transform="translate(47.26,105.36)" fill="#8BD367">
      <circle cx="0" cy="0" r="0.75" class="primitive"/>
    </g>
    <g transform="translate(78.29,109.06)" fill="#8BD367">
      <circle cx="0" cy="0" r="0.75" class="primitive"/>
    </g>
    <g transform="translate(78.75,111.53)" fill="#68687C">
      <circle cx="0" cy="0" r="0.75" class="primitive"/>
    </g>
    <g transform="translate(58.65,110.29)" fill="#8BD367">
      <circle cx="0" cy="0" r="0.75" class="primitive"/>
    </g>
    <g transform="translate(56.31,113.99)" fill="#68687C">
      <circle cx="0" cy="0" r="0.75" class="primitive"/>
    </g>
    <g transform="translate(75.41,116.45)" fill="#68687C">
      <circle cx="0" cy="0" r="0.75" class="primitive"/>
    </g>
    <g transform="translate(55.32,115.22)" fill="#8BD367">
      <circle cx="0" cy="0" r="0.75" class="primitive"/>
    </g>
    <g transform="translate(54.68,112.76)" fill="#8BD367">
      <circle cx="0" cy="0" r="0.75" class="primitive"/>
    </g>
    <g transform="translate(38.43,109.06)" fill="#8BD367">
      <circle cx="0" cy="0" r="0.75" class="primitive"/>
    </g>
    <g transform="translate(27.99,102.74)" fill="#8BD367">
      <circle cx="0" cy="0" r="0.75" class="primitive"/>
    </g>
    <g transform="translate(25.77,97.28)" fill="#68687C">
      <circle cx="0" cy="0" r="0.75" class="primitive"/>
    </g>
    <g transform="translate(20.93,93.31)" fill="#8BD367">
      <circle cx="0" cy="0" r="0.75" class="primitive"/>
    </g>
    <g transform="translate(18.41,90.09)" fill="#8BD367">
      <circle cx="0" cy="0" r="0.75" class="primitive"/>
    </g>
    <g transform="translate(8.61,79.9)" fill="#68687C">
      <circle cx="0" cy="0" r="0.75" class="primitive"/>
    </g>
    <g transform="translate(5.11,68.29)" fill="#68687C">
      <circle cx="0" cy="0" r="0.75" class="primitive"/>
    </g>
    <g transform="translate(3.75,49.76)" fill="#000000">
      <circle cx="0" cy="0" r="0.75" class="primitive"/>
    </g>
    <g transform="translate(3.75,29.73)" fill="#000000">
      <circle cx="0" cy="0" r="0.75" class="primitive"/>
    </g>
  </g>
</g>
<g stroke-opacity="1" fill-opacity="1" font-size="1.41" stroke-width="0.1" id="img-29b4c979-6">
  <g transform="translate(10.38,5.55)" stroke="#000000">
    <g class="primitive">
      <text dy="0.35em">N42</text>
    </g>
  </g>
  <g transform="translate(14.15,8.01)" stroke="#000000">
    <g class="primitive">
      <text dy="0.35em">N45</text>
    </g>
  </g>
  <g transform="translate(9.58,6.78)" stroke="#000000">
    <g class="primitive">
      <text dy="0.35em">N69</text>
    </g>
  </g>
  <g transform="translate(19.87,10.47)" stroke="#000000">
    <g class="primitive">
      <text dy="0.35em">N9</text>
    </g>
  </g>
  <g transform="translate(51.19,12.94)" stroke="#000000">
    <g class="primitive">
      <text dy="0.35em">N27</text>
    </g>
  </g>
  <g transform="translate(44.83,15.4)" stroke="#000000">
    <g class="primitive">
      <text dy="0.35em">N41</text>
    </g>
  </g>
  <g transform="translate(47.14,17.87)" stroke="#000000">
    <g class="primitive">
      <text dy="0.35em">N0</text>
    </g>
  </g>
  <g transform="translate(42.28,16.64)" stroke="#000000">
    <g class="primitive">
      <text dy="0.35em">N75</text>
    </g>
  </g>
  <g transform="translate(39.25,14.79)" stroke="#000000">
    <g class="primitive">
      <text dy="0.35em">N78</text>
    </g>
  </g>
  <g transform="translate(14.02,12.63)" stroke="#000000">
    <g class="primitive">
      <text dy="0.35em">N80</text>
    </g>
  </g>
  <g transform="translate(7.72,9.7)" stroke="#000000">
    <g class="primitive">
      <text dy="0.35em">N82</text>
    </g>
  </g>
  <g transform="translate(35.96,20.33)" stroke="#000000">
    <g class="primitive">
      <text dy="0.35em">N15</text>
    </g>
  </g>
  <g transform="translate(30.19,22.8)" stroke="#000000">
    <g class="primitive">
      <text dy="0.35em">N20</text>
    </g>
  </g>
  <g transform="translate(31.56,25.26)" stroke="#000000">
    <g class="primitive">
      <text dy="0.35em">N17</text>
    </g>
  </g>
  <g transform="translate(32.94,27.73)" stroke="#000000">
    <g class="primitive">
      <text dy="0.35em">N13</text>
    </g>
  </g>
  <g transform="translate(47.28,30.19)" stroke="#000000">
    <g class="primitive">
      <text dy="0.35em">N4</text>
    </g>
  </g>
  <g transform="translate(25.51,28.96)" stroke="#000000">
    <g class="primitive">
      <text dy="0.35em">N53</text>
    </g>
  </g>
  <g transform="translate(23.01,27.11)" stroke="#000000">
    <g class="primitive">
      <text dy="0.35em">N67</text>
    </g>
  </g>
  <g transform="translate(17.95,24.95)" stroke="#000000">
    <g class="primitive">
      <text dy="0.35em">N76</text>
    </g>
  </g>
  <g transform="translate(17.26,22.64)" stroke="#000000">
    <g class="primitive">
      <text dy="0.35em">N79</text>
    </g>
  </g>
  <g transform="translate(42.35,32.66)" stroke="#000000">
    <g class="primitive">
      <text dy="0.35em">N23</text>
    </g>
  </g>
  <g transform="translate(61.57,35.12)" stroke="#000000">
    <g class="primitive">
      <text dy="0.35em">N24</text>
    </g>
  </g>
  <g transform="translate(55.08,37.59)" stroke="#000000">
    <g class="primitive">
      <text dy="0.35em">N14</text>
    </g>
  </g>
  <g transform="translate(55.03,40.05)" stroke="#000000">
    <g class="primitive">
      <text dy="0.35em">N25</text>
    </g>
  </g>
  <g transform="translate(54.87,38.82)" stroke="#000000">
    <g class="primitive">
      <text dy="0.35em">N63</text>
    </g>
  </g>
  <g transform="translate(53.48,36.97)" stroke="#000000">
    <g class="primitive">
      <text dy="0.35em">N72</text>
    </g>
  </g>
  <g transform="translate(40.04,34.81)" stroke="#000000">
    <g class="primitive">
      <text dy="0.35em">N73</text>
    </g>
  </g>
  <g transform="translate(40.61,42.52)" stroke="#000000">
    <g class="primitive">
      <text dy="0.35em">N10</text>
    </g>
  </g>
  <g transform="translate(54.33,44.98)" stroke="#000000">
    <g class="primitive">
      <text dy="0.35em">N30</text>
    </g>
  </g>
  <g transform="translate(67.82,47.44)" stroke="#000000">
    <g class="primitive">
      <text dy="0.35em">N38</text>
    </g>
  </g>
  <g transform="translate(70.01,49.91)" stroke="#000000">
    <g class="primitive">
      <text dy="0.35em">N7</text>
    </g>
  </g>
  <g transform="translate(69.97,52.37)" stroke="#000000">
    <g class="primitive">
      <text dy="0.35em">N19</text>
    </g>
  </g>
  <g transform="translate(69.93,51.14)" stroke="#000000">
    <g class="primitive">
      <text dy="0.35em">N54</text>
    </g>
  </g>
  <g transform="translate(66.51,49.29)" stroke="#000000">
    <g class="primitive">
      <text dy="0.35em">N55</text>
    </g>
  </g>
  <g transform="translate(48.13,47.14)" stroke="#000000">
    <g class="primitive">
      <text dy="0.35em">N64</text>
    </g>
  </g>
  <g transform="translate(38.99,44.83)" stroke="#000000">
    <g class="primitive">
      <text dy="0.35em">N74</text>
    </g>
  </g>
  <g transform="translate(38.29,39.82)" stroke="#000000">
    <g class="primitive">
      <text dy="0.35em">N83</text>
    </g>
  </g>
  <g transform="translate(11.36,31.23)" stroke="#000000">
    <g class="primitive">
      <text dy="0.35em">N84</text>
    </g>
  </g>
  <g transform="translate(14.5,54.84)" stroke="#000000">
    <g class="primitive">
      <text dy="0.35em">N11</text>
    </g>
  </g>
  <g transform="translate(23.95,57.3)" stroke="#000000">
    <g class="primitive">
      <text dy="0.35em">N33</text>
    </g>
  </g>
  <g transform="translate(22.32,59.77)" stroke="#000000">
    <g class="primitive">
      <text dy="0.35em">N26</text>
    </g>
  </g>
  <g transform="translate(14.89,58.54)" stroke="#000000">
    <g class="primitive">
      <text dy="0.35em">N51</text>
    </g>
  </g>
  <g transform="translate(8.19,56.69)" stroke="#000000">
    <g class="primitive">
      <text dy="0.35em">N52</text>
    </g>
  </g>
  <g transform="translate(35.52,62.23)" stroke="#000000">
    <g class="primitive">
      <text dy="0.35em">N39</text>
    </g>
  </g>
  <g transform="translate(49.69,64.7)" stroke="#000000">
    <g class="primitive">
      <text dy="0.35em">N28</text>
    </g>
  </g>
  <g transform="translate(39.17,67.16)" stroke="#000000">
    <g class="primitive">
      <text dy="0.35em">N5</text>
    </g>
  </g>
  <g transform="translate(35.51,65.93)" stroke="#000000">
    <g class="primitive">
      <text dy="0.35em">N50</text>
    </g>
  </g>
  <g transform="translate(34.75,64.08)" stroke="#000000">
    <g class="primitive">
      <text dy="0.35em">N65</text>
    </g>
  </g>
  <g transform="translate(38.98,69.63)" stroke="#000000">
    <g class="primitive">
      <text dy="0.35em">N12</text>
    </g>
  </g>
  <g transform="translate(39.21,72.09)" stroke="#000000">
    <g class="primitive">
      <text dy="0.35em">N44</text>
    </g>
  </g>
  <g transform="translate(37.79,74.56)" stroke="#000000">
    <g class="primitive">
      <text dy="0.35em">N34</text>
    </g>
  </g>
  <g stroke-opacity="1" fill-opacity="1" font-size="1.41" stroke-width="0.1" id="img-29b4c979-7">
    <g transform="translate(37.79,74.56)" stroke="#000000">
      <g class="primitive">
        <text dy="0.35em">N34</text>
      </g>
    </g>
    <g transform="translate(32.9,73.32)" stroke="#000000">
      <g class="primitive">
        <text dy="0.35em">N58</text>
      </g>
    </g>
    <g transform="translate(27.71,71.47)" stroke="#000000">
      <g class="primitive">
        <text dy="0.35em">N60</text>
      </g>
    </g>
    <g transform="translate(33.4,77.02)" stroke="#000000">
      <g class="primitive">
        <text dy="0.35em">N18</text>
      </g>
    </g>
    <g transform="translate(40.87,79.48)" stroke="#000000">
      <g class="primitive">
        <text dy="0.35em">N29</text>
      </g>
    </g>
    <g transform="translate(37.05,81.95)" stroke="#000000">
      <g class="primitive">
        <text dy="0.35em">N16</text>
      </g>
    </g>
    <g transform="translate(38.59,84.41)" stroke="#000000">
      <g class="primitive">
        <text dy="0.35em">N2</text>
      </g>
    </g>
    <g transform="translate(35.99,83.18)" stroke="#000000">
      <g class="primitive">
        <text dy="0.35em">N46</text>
      </g>
    </g>
    <g transform="translate(34.68,81.33)" stroke="#000000">
      <g class="primitive">
        <text dy="0.35em">N56</text>
      </g>
    </g>
    <g transform="translate(33.21,79.18)" stroke="#000000">
      <g class="primitive">
        <text dy="0.35em">N57</text>
      </g>
    </g>
    <g transform="translate(25.72,75.33)" stroke="#000000">
      <g class="primitive">
        <text dy="0.35em">N77</text>
      </g>
    </g>
    <g transform="translate(12.98,69.7)" stroke="#000000">
      <g class="primitive">
        <text dy="0.35em">N86</text>
      </g>
    </g>
    <g transform="translate(27.22,86.88)" stroke="#000000">
      <g class="primitive">
        <text dy="0.35em">N6</text>
      </g>
    </g>
    <g transform="translate(28.75,89.34)" stroke="#000000">
      <g class="primitive">
        <text dy="0.35em">N31</text>
      </g>
    </g>
    <g transform="translate(49.13,91.81)" stroke="#000000">
      <g class="primitive">
        <text dy="0.35em">N35</text>
      </g>
    </g>
    <g transform="translate(37.99,94.27)" stroke="#000000">
      <g class="primitive">
        <text dy="0.35em">N3</text>
      </g>
    </g>
    <g transform="translate(73.11,96.74)" stroke="#000000">
      <g class="primitive">
        <text dy="0.35em">N21</text>
      </g>
    </g>
    <g transform="translate(70.12,99.2)" stroke="#000000">
      <g class="primitive">
        <text dy="0.35em">N1</text>
      </g>
    </g>
    <g transform="translate(78.16,101.67)" stroke="#000000">
      <g class="primitive">
        <text dy="0.35em">N37</text>
      </g>
    </g>
    <g transform="translate(65.72,100.43)" stroke="#000000">
      <g class="primitive">
        <text dy="0.35em">N47</text>
      </g>
    </g>
    <g transform="translate(51.78,98.59)" stroke="#000000">
      <g class="primitive">
        <text dy="0.35em">N59</text>
      </g>
    </g>
    <g transform="translate(32.44,96.43)" stroke="#000000">
      <g class="primitive">
        <text dy="0.35em">N66</text>
      </g>
    </g>
    <g transform="translate(60.14,104.13)" stroke="#000000">
      <g class="primitive">
        <text dy="0.35em">N43</text>
      </g>
    </g>
    <g transform="translate(54.67,106.6)" stroke="#000000">
      <g class="primitive">
        <text dy="0.35em">N8</text>
      </g>
    </g>
    <g transform="translate(49.13,105.36)" stroke="#000000">
      <g class="primitive">
        <text dy="0.35em">N49</text>
      </g>
    </g>
    <g transform="translate(80.17,109.06)" stroke="#000000">
      <g class="primitive">
        <text dy="0.35em">N36</text>
      </g>
    </g>
    <g transform="translate(80.62,111.53)" stroke="#000000">
      <g class="primitive">
        <text dy="0.35em">N40</text>
      </g>
    </g>
    <g transform="translate(60.53,110.29)" stroke="#000000">
      <g class="primitive">
        <text dy="0.35em">N61</text>
      </g>
    </g>
    <g transform="translate(58.18,113.99)" stroke="#000000">
      <g class="primitive">
        <text dy="0.35em">N32</text>
      </g>
    </g>
    <g transform="translate(77.28,116.45)" stroke="#000000">
      <g class="primitive">
        <text dy="0.35em">N22</text>
      </g>
    </g>
    <g transform="translate(57.19,115.22)" stroke="#000000">
      <g class="primitive">
        <text dy="0.35em">N48</text>
      </g>
    </g>
    <g transform="translate(56.56,112.76)" stroke="#000000">
      <g class="primitive">
        <text dy="0.35em">N62</text>
      </g>
    </g>
    <g transform="translate(40.3,109.06)" stroke="#000000">
      <g class="primitive">
        <text dy="0.35em">N68</text>
      </g>
    </g>
    <g transform="translate(29.87,102.74)" stroke="#000000">
      <g class="primitive">
        <text dy="0.35em">N70</text>
      </g>
    </g>
    <g transform="translate(27.64,97.28)" stroke="#000000">
      <g class="primitive">
        <text dy="0.35em">N71</text>
      </g>
    </g>
    <g transform="translate(22.81,93.31)" stroke="#000000">
      <g class="primitive">
        <text dy="0.35em">N81</text>
      </g>
    </g>
    <g transform="translate(20.29,90.09)" stroke="#000000">
      <g class="primitive">
        <text dy="0.35em">N85</text>
      </g>
    </g>
    <g transform="translate(10.48,79.9)" stroke="#000000">
      <g class="primitive">
        <text dy="0.35em">N87</text>
      </g>
    </g>
    <g transform="translate(6.99,68.29)" stroke="#000000">
      <g class="primitive">
        <text dy="0.35em">N88</text>
      </g>
    </g>
    <g transform="translate(5.63,49.76)" stroke="#000000">
      <g class="primitive">
        <text dy="0.35em"></text>
      </g>
    </g>
    <g transform="translate(5.63,29.73)" stroke="#000000">
      <g class="primitive">
        <text dy="0.35em"></text>
      </g>
    </g>
  </g>
</g>
</svg>
