<?xml version="1.0" encoding="UTF-8"?>
<svg xmlns="http://www.w3.org/2000/svg"
     xmlns:xlink="http://www.w3.org/1999/xlink"
     version="1.2"
     width="150mm" height="118mm" viewBox="0 0 150 118"
     stroke="none"
     fill="#000000"
     stroke-width="0.3"
     font-size="3.88"
>
<defs>
  <marker id="arrow" markerWidth="15" markerHeight="7" refX="5" refY="3.5" orient="auto" markerUnits="strokeWidth">
    <path d="M0,0 L15,3.5 L0,7 z" stroke="context-stroke" fill="context-stroke"/>
  </marker>
</defs>
<g stroke-opacity="1" stroke-width="0.3" id="img-29b4c979-1">
  <g transform="translate(40.29,5.36)" stroke="#94F686">
    <path fill="none" d="M-2.54,0 L2.54,0 " class="primitive"/>
  </g>
  <g transform="translate(40.57,7.86)" stroke="#F29835">
    <path fill="none" d="M-2.82,0 L2.82,0 " class="primitive"/>
  </g>
  <g transform="translate(29.77,6.61)" stroke="#94F686">
    <path fill="none" d="M-7.98,0 L7.98,0 " class="primitive"/>
  </g>
  <g transform="translate(37.75,6.61)" stroke="#94F686">
    <path fill="none" d="M0,1.25 L0,-1.25 " class="primitive"/>
  </g>
  <g transform="translate(34.13,10.35)" stroke="#94F686">
    <path fill="none" d="M-11.62,0 L11.62,0 " class="primitive"/>
  </g>
  <g transform="translate(31.24,12.85)" stroke="#94F686">
    <path fill="none" d="M-8.73,0 L8.73,0 " class="primitive"/>
  </g>
  <g transform="translate(22.15,11.6)" stroke="#F29835">
    <path fill="none" d="M-0.36,0 L0.36,0 " class="primitive"/>
  </g>
  <g transform="translate(22.51,11.6)" stroke="#F29835">
    <path fill="none" d="M0,1.25 L0,-1.25 " class="primitive"/>
  </g>
  <g transform="translate(18.86,9.11)" stroke="#F29835">
    <path fill="none" d="M-2.94,0 L2.94,0 " class="primitive"/>
  </g>
  <g transform="translate(21.8,9.11)" stroke="#F29835">
    <path fill="none" d="M0,2.49 L0,-2.49 " class="primitive"/>
  </g>
  <g transform="translate(32.3,15.34)" stroke="#94F686">
    <path fill="none" d="M-1.85,0 L1.85,0 " class="primitive"/>
  </g>
  <g transform="translate(32.22,17.84)" stroke="#94F686">
    <path fill="none" d="M-1.77,0 L1.77,0 " class="primitive"/>
  </g>
  <g transform="translate(26.75,16.59)" stroke="#94F686">
    <path fill="none" d="M-3.69,0 L3.69,0 " class="primitive"/>
  </g>
  <g transform="translate(30.45,16.59)" stroke="#94F686">
    <path fill="none" d="M0,1.25 L0,-1.25 " class="primitive"/>
  </g>
  <g transform="translate(30.31,20.33)" stroke="#F29835">
    <path fill="none" d="M-5.5,0 L5.5,0 " class="primitive"/>
  </g>
  <g transform="translate(24.96,22.83)" stroke="#F29835">
    <path fill="none" d="M-0.16,0 L0.16,0 " class="primitive"/>
  </g>
  <g transform="translate(23.93,21.58)" stroke="#94F686">
    <path fill="none" d="M-0.87,0 L0.87,0 " class="primitive"/>
  </g>
  <g transform="translate(24.81,21.58)" stroke="#94F686">
    <path fill="none" d="M0,1.25 L0,-1.25 " class="primitive"/>
  </g>
  <g transform="translate(19.49,19.08)" stroke="#94F686">
    <path fill="none" d="M-3.57,0 L3.57,0 " class="primitive"/>
  </g>
  <g transform="translate(23.06,19.08)" stroke="#94F686">
    <path fill="none" d="M0,2.49 L0,-2.49 " class="primitive"/>
  </g>
  <g transform="translate(11.06,14.1)" stroke="#94F686">
    <path fill="none" d="M-4.87,0 L4.87,0 " class="primitive"/>
  </g>
  <g transform="translate(15.93,14.1)" stroke="#94F686">
    <path fill="none" d="M0,4.99 L0,-4.99 " class="primitive"/>
  </g>
  <g transform="translate(27.08,25.32)" stroke="#F29835">
    <path fill="none" d="M-2.35,0 L2.35,0 " class="primitive"/>
  </g>
  <g transform="translate(25.8,27.82)" stroke="#94F686">
    <path fill="none" d="M-1.06,0 L1.06,0 " class="primitive"/>
  </g>
  <g transform="translate(17.1,26.57)" stroke="#94F686">
    <path fill="none" d="M-7.63,0 L7.63,0 " class="primitive"/>
  </g>
  <g transform="translate(24.73,26.57)" stroke="#94F686">
    <path fill="none" d="M0,1.25 L0,-1.25 " class="primitive"/>
  </g>
  <g transform="translate(16.39,30.31)" stroke="#F29835">
    <path fill="none" d="M-2.92,0 L2.92,0 " class="primitive"/>
  </g>
  <g transform="translate(14.01,32.81)" stroke="#F29835">
    <path fill="none" d="M-0.55,0 L0.55,0 " class="primitive"/>
  </g>
  <g transform="translate(11.47,31.56)" stroke="#F29835">
    <path fill="none" d="M-2,0 L2,0 " class="primitive"/>
  </g>
  <g transform="translate(13.47,31.56)" stroke="#F29835">
    <path fill="none" d="M0,1.25 L0,-1.25 " class="primitive"/>
  </g>
  <g transform="translate(9,29.06)" stroke="#94F686">
    <path fill="none" d="M-0.47,0 L0.47,0 " class="primitive"/>
  </g>
  <g transform="translate(9.47,29.06)" stroke="#94F686">
    <path fill="none" d="M0,2.49 L0,-2.49 " class="primitive"/>
  </g>
  <g transform="translate(34.5,35.3)" stroke="#94F686">
    <path fill="none" d="M-12.5,0 L12.5,0 " class="primitive"/>
  </g>
  <g transform="translate(22.17,37.79)" stroke="#94F686">
    <path fill="none" d="M-0.17,0 L0.17,0 " class="primitive"/>
  </g>
  <g transform="translate(19.82,36.55)" stroke="#F29835">
    <path fill="none" d="M-2.18,0 L2.18,0 " class="primitive"/>
  </g>
  <g transform="translate(22,36.55)" stroke="#F29835">
    <path fill="none" d="M0,1.25 L0,-1.25 " class="primitive"/>
  </g>
  <g transform="translate(18.91,40.29)" stroke="#94F686">
    <path fill="none" d="M-1.11,0 L1.11,0 " class="primitive"/>
  </g>
  <g transform="translate(20.07,42.78)" stroke="#F29835">
    <path fill="none" d="M-2.27,0 L2.27,0 " class="primitive"/>
  </g>
  <g transform="translate(17.72,41.54)" stroke="#F29835">
    <path fill="none" d="M-0.08,0 L0.08,0 " class="primitive"/>
  </g>
  <g transform="translate(17.8,41.54)" stroke="#F29835">
    <path fill="none" d="M0,1.25 L0,-1.25 " class="primitive"/>
  </g>
  <g transform="translate(13.09,39.04)" stroke="#94F686">
    <path fill="none" d="M-4.56,0 L4.56,0 " class="primitive"/>
  </g>
  <g transform="translate(17.65,39.04)" stroke="#94F686">
    <path fill="none" d="M0,2.49 L0,-2.49 " class="primitive"/>
  </g>
  <g transform="translate(7.36,34.05)" stroke="#F29835">
    <path fill="none" d="M-1.17,0 L1.17,0 " class="primitive"/>
  </g>
  <g transform="translate(8.53,34.05)" stroke="#F29835">
    <path fill="none" d="M0,4.99 L0,-4.99 " class="primitive"/>
  </g>
  <g transform="translate(4.97,24.07)" stroke="#F29835">
    <path fill="none" d="M-1.22,0 L1.22,0 " class="primitive"/>
  </g>
  <g transform="translate(6.19,24.07)" stroke="#F29835">
    <path fill="none" d="M0,9.98 L0,-9.98 " class="primitive"/>
  </g>
  <g transform="translate(23.94,45.28)" stroke="#F29835">
    <path fill="none" d="M-0.41,0 L0.41,0 " class="primitive"/>
  </g>
  <g transform="translate(23.63,47.77)" stroke="#F29835">
    <path fill="none" d="M-0.1,0 L0.1,0 " class="primitive"/>
  </g>
  <g transform="translate(22.87,46.53)" stroke="#F29835">
    <path fill="none" d="M-0.65,0 L0.65,0 " class="primitive"/>
  </g>
  <g transform="translate(23.52,46.53)" stroke="#F29835">
    <path fill="none" d="M0,1.25 L0,-1.25 " class="primitive"/>
  </g>
  <g transform="translate(43.2,50.27)" stroke="#94F686">
    <path fill="none" d="M-19,0 L19,0 " class="primitive"/>
  </g>
  <g stroke-opacity="1" stroke-width="0.3" id="img-29b4c979-2">
    <g transform="translate(10.28,83.95)" stroke="#F29835">
      <path fill="none" d="M-1.06,0 L1.06,0 " class="primitive"/>
    </g>
    <g transform="translate(11.34,83.95)" stroke="#F29835">
      <path fill="none" d="M0,4.99 L0,-4.99 " class="primitive"/>
    </g>
    <g transform="translate(31.95,95.17)" stroke="#94F686">
      <path fill="none" d="M-3.55,0 L3.55,0 " class="primitive"/>
    </g>
    <g transform="translate(29.22,97.67)" stroke="#94F686">
      <path fill="none" d="M-0.82,0 L0.82,0 " class="primitive"/>
    </g>
    <g transform="translate(27.3,96.42)" stroke="#F29835">
      <path fill="none" d="M-1.09,0 L1.09,0 " class="primitive"/>
    </g>
    <g transform="translate(28.4,96.42)" stroke="#F29835">
      <path fill="none" d="M0,1.25 L0,-1.25 " class="primitive"/>
    </g>
    <g transform="translate(42.94,100.16)" stroke="#94F686">
      <path fill="none" d="M-3.83,0 L3.83,0 " class="primitive"/>
    </g>
    <g transform="translate(46.2,102.66)" stroke="#94F686">
      <path fill="none" d="M-7.1,0 L7.1,0 " class="primitive"/>
    </g>
    <g transform="translate(32.66,101.41)" stroke="#94F686">
      <path fill="none" d="M-6.44,0 L6.44,0 " class="primitive"/>
    </g>
    <g transform="translate(39.1,101.41)" stroke="#94F686">
      <path fill="none" d="M0,1.25 L0,-1.25 " class="primitive"/>
    </g>
    <g transform="translate(22.5,98.92)" stroke="#F29835">
      <path fill="none" d="M-3.72,0 L3.72,0 " class="primitive"/>
    </g>
    <g transform="translate(26.21,98.92)" stroke="#F29835">
      <path fill="none" d="M0,2.49 L0,-2.49 " class="primitive"/>
    </g>
    <g transform="translate(41.57,105.15)" stroke="#94F686">
      <path fill="none" d="M-15.78,0 L15.78,0 " class="primitive"/>
    </g>
    <g transform="translate(30.59,107.65)" stroke="#F29835">
      <path fill="none" d="M-4.8,0 L4.8,0 " class="primitive"/>
    </g>
    <g transform="translate(23.37,106.4)" stroke="#94F686">
      <path fill="none" d="M-2.42,0 L2.42,0 " class="primitive"/>
    </g>
    <g transform="translate(25.79,106.4)" stroke="#94F686">
      <path fill="none" d="M0,1.25 L0,-1.25 " class="primitive"/>
    </g>
    <g transform="translate(25.67,110.14)" stroke="#F29835">
      <path fill="none" d="M-1.34,0 L1.34,0 " class="primitive"/>
    </g>
    <g transform="translate(26.83,112.64)" stroke="#F29835">
      <path fill="none" d="M-2.51,0 L2.51,0 " class="primitive"/>
    </g>
    <g transform="translate(22.64,111.39)" stroke="#94F686">
      <path fill="none" d="M-1.69,0 L1.69,0 " class="primitive"/>
    </g>
    <g transform="translate(24.32,111.39)" stroke="#94F686">
      <path fill="none" d="M0,1.25 L0,-1.25 " class="primitive"/>
    </g>
    <g transform="translate(19.86,108.89)" stroke="#94F686">
      <path fill="none" d="M-1.09,0 L1.09,0 " class="primitive"/>
    </g>
    <g transform="translate(20.95,108.89)" stroke="#94F686">
      <path fill="none" d="M0,2.49 L0,-2.49 " class="primitive"/>
    </g>
    <g transform="translate(14,103.9)" stroke="#94F686">
      <path fill="none" d="M-4.78,0 L4.78,0 " class="primitive"/>
    </g>
    <g transform="translate(18.78,103.9)" stroke="#94F686">
      <path fill="none" d="M0,4.99 L0,-4.99 " class="primitive"/>
    </g>
    <g transform="translate(6.49,93.93)" stroke="#94F686">
      <path fill="none" d="M-2.74,0 L2.74,0 " class="primitive"/>
    </g>
    <g transform="translate(9.22,93.93)" stroke="#94F686">
      <path fill="none" d="M0,9.98 L0,-9.98 " class="primitive"/>
    </g>
    <g transform="translate(3.75,75.22)" stroke="#000000">
      <path fill="none" d="M0,0 L0,0 " class="primitive"/>
    </g>
    <g transform="translate(3.75,75.22)" stroke="#000000">
      <path fill="none" d="M0,18.71 L0,-18.71 " class="primitive"/>
    </g>
    <g transform="translate(3.75,49.64)" stroke="#000000">
      <path fill="none" d="M0,0 L0,0 " class="primitive"/>
    </g>
    <g transform="translate(3.75,49.64)" stroke="#000000">
      <path fill="none" d="M0,25.57 L0,-25.57 " class="primitive"/>
    </g>
  </g>
  <g stroke-opacity="1" stroke-width="0.3" id="img-29b4c979-3">
    <g transform="translate(43.2,50.27)" stroke="#94F686">
      <path fill="none" d="M-19,0 L19,0 " class="primitive"/>
    </g>
    <g transform="translate(45.09,52.76)" stroke="#F29835">
      <path fill="none" d="M-20.89,0 L20.89,0 " class="primitive"/>
    </g>
    <g transform="translate(23.21,51.52)" stroke="#F29835">
      <path fill="none" d="M-0.99,0 L0.99,0 " class="primitive"/>
    </g>
    <g transform="translate(24.2,51.52)" stroke="#F29835">
      <path fill="none" d="M0,1.25 L0,-1.25 " class="primitive"/>
    </g>
    <g transform="translate(17.15,49.02)" stroke="#94F686">
      <path fill="none" d="M-5.07,0 L5.07,0 " class="primitive"/>
    </g>
    <g transform="translate(22.22,49.02)" stroke="#94F686">
      <path fill="none" d="M0,2.49 L0,-2.49 " class="primitive"/>
    </g>
    <g transform="translate(39.77,55.26)" stroke="#94F686">
      <path fill="none" d="M-1.82,0 L1.82,0 " class="primitive"/>
    </g>
    <g transform="translate(42.38,57.75)" stroke="#F29835">
      <path fill="none" d="M-4.44,0 L4.44,0 " class="primitive"/>
    </g>
    <g transform="translate(35.7,56.51)" stroke="#F29835">
      <path fill="none" d="M-2.25,0 L2.25,0 " class="primitive"/>
    </g>
    <g transform="translate(37.94,56.51)" stroke="#F29835">
      <path fill="none" d="M0,1.25 L0,-1.25 " class="primitive"/>
    </g>
    <g transform="translate(53.15,60.25)" stroke="#94F686">
      <path fill="none" d="M-4.72,0 L4.72,0 " class="primitive"/>
    </g>
    <g transform="translate(48.65,62.74)" stroke="#94F686">
      <path fill="none" d="M-0.22,0 L0.22,0 " class="primitive"/>
    </g>
    <g transform="translate(40.94,61.49)" stroke="#F29835">
      <path fill="none" d="M-7.49,0 L7.49,0 " class="primitive"/>
    </g>
    <g transform="translate(48.43,61.49)" stroke="#F29835">
      <path fill="none" d="M0,1.25 L0,-1.25 " class="primitive"/>
    </g>
    <g transform="translate(24.45,59)" stroke="#F29835">
      <path fill="none" d="M-9,0 L9,0 " class="primitive"/>
    </g>
    <g transform="translate(33.45,59)" stroke="#F29835">
      <path fill="none" d="M0,2.49 L0,-2.49 " class="primitive"/>
    </g>
    <g transform="translate(38.39,65.24)" stroke="#F29835">
      <path fill="none" d="M-0.21,0 L0.21,0 " class="primitive"/>
    </g>
    <g transform="translate(58.47,67.73)" stroke="#94F686">
      <path fill="none" d="M-20.28,0 L20.28,0 " class="primitive"/>
    </g>
    <g transform="translate(37.7,66.48)" stroke="#F29835">
      <path fill="none" d="M-0.48,0 L0.48,0 " class="primitive"/>
    </g>
    <g transform="translate(38.18,66.48)" stroke="#F29835">
      <path fill="none" d="M0,1.25 L0,-1.25 " class="primitive"/>
    </g>
    <g transform="translate(41.11,70.23)" stroke="#F29835">
      <path fill="none" d="M-3.62,0 L3.62,0 " class="primitive"/>
    </g>
    <g transform="translate(48.84,72.72)" stroke="#F29835">
      <path fill="none" d="M-11.35,0 L11.35,0 " class="primitive"/>
    </g>
    <g transform="translate(37.35,71.47)" stroke="#94F686">
      <path fill="none" d="M-0.13,0 L0.13,0 " class="primitive"/>
    </g>
    <g transform="translate(37.48,71.47)" stroke="#94F686">
      <path fill="none" d="M0,1.25 L0,-1.25 " class="primitive"/>
    </g>
    <g transform="translate(26.34,68.98)" stroke="#94F686">
      <path fill="none" d="M-10.88,0 L10.88,0 " class="primitive"/>
    </g>
    <g transform="translate(37.22,68.98)" stroke="#94F686">
      <path fill="none" d="M0,2.49 L0,-2.49 " class="primitive"/>
    </g>
    <g transform="translate(13.77,63.99)" stroke="#94F686">
      <path fill="none" d="M-1.69,0 L1.69,0 " class="primitive"/>
    </g>
    <g transform="translate(15.46,63.99)" stroke="#94F686">
      <path fill="none" d="M0,4.99 L0,-4.99 " class="primitive"/>
    </g>
    <g transform="translate(7.91,56.51)" stroke="#94F686">
      <path fill="none" d="M-4.16,0 L4.16,0 " class="primitive"/>
    </g>
    <g transform="translate(12.08,56.51)" stroke="#94F686">
      <path fill="none" d="M0,7.48 L0,-7.48 " class="primitive"/>
    </g>
    <g transform="translate(26.32,75.22)" stroke="#94F686">
      <path fill="none" d="M-1.56,0 L1.56,0 " class="primitive"/>
    </g>
    <g transform="translate(33.64,77.71)" stroke="#94F686">
      <path fill="none" d="M-8.88,0 L8.88,0 " class="primitive"/>
    </g>
    <g transform="translate(21.32,76.46)" stroke="#94F686">
      <path fill="none" d="M-3.44,0 L3.44,0 " class="primitive"/>
    </g>
    <g transform="translate(24.76,76.46)" stroke="#94F686">
      <path fill="none" d="M0,1.25 L0,-1.25 " class="primitive"/>
    </g>
    <g transform="translate(24.92,80.21)" stroke="#94F686">
      <path fill="none" d="M-5.59,0 L5.59,0 " class="primitive"/>
    </g>
    <g transform="translate(24.6,82.7)" stroke="#94F686">
      <path fill="none" d="M-5.27,0 L5.27,0 " class="primitive"/>
    </g>
    <g transform="translate(18.61,81.45)" stroke="#F29835">
      <path fill="none" d="M-0.72,0 L0.72,0 " class="primitive"/>
    </g>
    <g transform="translate(19.33,81.45)" stroke="#F29835">
      <path fill="none" d="M0,1.25 L0,-1.25 " class="primitive"/>
    </g>
    <g transform="translate(14.62,78.96)" stroke="#F29835">
      <path fill="none" d="M-3.27,0 L3.27,0 " class="primitive"/>
    </g>
    <g transform="translate(17.89,78.96)" stroke="#F29835">
      <path fill="none" d="M0,2.49 L0,-2.49 " class="primitive"/>
    </g>
    <g transform="translate(46.08,85.19)" stroke="#94F686">
      <path fill="none" d="M-5.4,0 L5.4,0 " class="primitive"/>
    </g>
    <g transform="translate(46.32,87.69)" stroke="#F29835">
      <path fill="none" d="M-5.64,0 L5.64,0 " class="primitive"/>
    </g>
    <g transform="translate(27.41,86.44)" stroke="#F29835">
      <path fill="none" d="M-13.26,0 L13.26,0 " class="primitive"/>
    </g>
    <g transform="translate(40.68,86.44)" stroke="#F29835">
      <path fill="none" d="M0,1.25 L0,-1.25 " class="primitive"/>
    </g>
    <g transform="translate(35.01,90.18)" stroke="#94F686">
      <path fill="none" d="M-10.4,0 L10.4,0 " class="primitive"/>
    </g>
    <g transform="translate(26.83,92.68)" stroke="#94F686">
      <path fill="none" d="M-2.23,0 L2.23,0 " class="primitive"/>
    </g>
    <g transform="translate(19.38,91.43)" stroke="#F29835">
      <path fill="none" d="M-5.23,0 L5.23,0 " class="primitive"/>
    </g>
    <g transform="translate(24.61,91.43)" stroke="#F29835">
      <path fill="none" d="M0,1.25 L0,-1.25 " class="primitive"/>
    </g>
    <g transform="translate(12.75,88.94)" stroke="#94F686">
      <path fill="none" d="M-1.4,0 L1.4,0 " class="primitive"/>
    </g>
    <g transform="translate(14.15,88.94)" stroke="#94F686">
      <path fill="none" d="M0,2.49 L0,-2.49 " class="primitive"/>
    </g>
    <g transform="translate(10.28,83.95)" stroke="#F29835">
      <path fill="none" d="M-1.06,0 L1.06,0 " class="primitive"/>
    </g>
  </g>
</g>
<g fill-opacity="1" id="img-29b4c979-4">
  <g transform="translate(42.83,5.36)" fill="#94F686">
    <circle cx="0" cy="0" r="0.75" class="primitive"/>
  </g>
  <g transform="translate(43.39,7.86)" fill="#F29835">
    <circle cx="0" cy="0" r="0.75" class="primitive"/>
  </g>
  <g transform="translate(37.75,6.61)" fill="#94F686">
    <circle cx="0" cy="0" r="0.75" class="primitive"/>
  </g>
  <g transform="translate(45.75,10.35)" fill="#94F686">
    <circle cx="0" cy="0" r="0.75" class="primitive"/>
  </g>
  <g transform="translate(39.97,12.85)" fill="#94F686">
    <circle cx="0" cy="0" r="0.75" class="primitive"/>
  </g>
  <g transform="translate(22.51,11.6)" fill="#F29835">
    <circle cx="0" cy="0" r="0.75" class="primitive"/>
  </g>
  <g transform="translate(21.8,9.11)" fill="#F29835">
    <circle cx="0" cy="0" r="0.75" class="primitive"/>
  </g>
  <g transform="translate(34.15,15.34)" fill="#94F686">
    <circle cx="0" cy="0" r="0.75" class="primitive"/>
  </g>
  <g transform="translate(33.98,17.84)" fill="#94F686">
    <circle cx="0" cy="0" r="0.75" class="primitive"/>
  </g>
  <g transform="translate(30.45,16.59)" fill="#94F686">
    <circle cx="0" cy="0" r="0.75" class="primitive"/>
  </g>
  <g transform="translate(35.81,20.33)" fill="#F29835">
    <circle cx="0" cy="0" r="0.75" class="primitive"/>
  </g>
  <g transform="translate(25.12,22.83)" fill="#F29835">
    <circle cx="0" cy="0" r="0.75" class="primitive"/>
  </g>
  <g transform="translate(24.81,21.58)" fill="#94F686">
    <circle cx="0" cy="0" r="0.75" class="primitive"/>
  </g>
  <g transform="translate(23.06,19.08)" fill="#94F686">
    <circle cx="0" cy="0" r="0.75" class="primitive"/>
  </g>
  <g transform="translate(15.93,14.1)" fill="#94F686">
    <circle cx="0" cy="0" r="0.75" class="primitive"/>
  </g>
  <g transform="translate(29.43,25.32)" fill="#F29835">
    <circle cx="0" cy="0" r="0.75" class="primitive"/>
  </g>
  <g transform="translate(26.86,27.82)" fill="#94F686">
    <circle cx="0" cy="0" r="0.75" class="primitive"/>
  </g>
  <g transform="translate(24.73,26.57)" fill="#94F686">
    <circle cx="0" cy="0" r="0.75" class="primitive"/>
  </g>
  <g transform="translate(19.3,30.31)" fill="#F29835">
    <circle cx="0" cy="0" r="0.75" class="primitive"/>
  </g>
  <g transform="translate(14.56,32.81)" fill="#F29835">
    <circle cx="0" cy="0" r="0.75" class="primitive"/>
  </g>
  <g transform="translate(13.47,31.56)" fill="#F29835">
    <circle cx="0" cy="0" r="0.75" class="primitive"/>
  </g>
  <g transform="translate(9.47,29.06)" fill="#94F686">
    <circle cx="0" cy="0" r="0.75" class="primitive"/>
  </g>
  <g transform="translate(47.01,35.3)" fill="#94F686">
    <circle cx="0" cy="0" r="0.75" class="primitive"/>
  </g>
  <g transform="translate(22.34,37.79)" fill="#94F686">
    <circle cx="0" cy="0" r="0.75" class="primitive"/>
  </g>
  <g transform="translate(22,36.55)" fill="#F29835">
    <circle cx="0" cy="0" r="0.75" class="primitive"/>
  </g>
  <g transform="translate(20.02,40.29)" fill="#94F686">
    <circle cx="0" cy="0" r="0.75" class="primitive"/>
  </g>
  <g transform="translate(22.34,42.78)" fill="#F29835">
    <circle cx="0" cy="0" r="0.75" class="primitive"/>
  </g>
  <g transform="translate(17.8,41.54)" fill="#F29835">
    <circle cx="0" cy="0" r="0.75" class="primitive"/>
  </g>
  <g transform="translate(17.65,39.04)" fill="#94F686">
    <circle cx="0" cy="0" r="0.75" class="primitive"/>
  </g>
  <g transform="translate(8.53,34.05)" fill="#F29835">
    <circle cx="0" cy="0" r="0.75" class="primitive"/>
  </g>
  <g transform="translate(6.19,24.07)" fill="#F29835">
    <circle cx="0" cy="0" r="0.75" class="primitive"/>
  </g>
  <g transform="translate(24.35,45.28)" fill="#F29835">
    <circle cx="0" cy="0" r="0.75" class="primitive"/>
  </g>
  <g transform="translate(23.73,47.77)" fill="#F29835">
    <circle cx="0" cy="0" r="0.75" class="primitive"/>
  </g>
  <g transform="translate(23.52,46.53)" fill="#F29835">
    <circle cx="0" cy="0" r="0.75" class="primitive"/>
  </g>
  <g transform="translate(62.2,50.27)" fill="#94F686">
    <circle cx="0" cy="0" r="0.75" class="primitive"/>
  </g>
  <g transform="translate(65.98,52.76)" fill="#F29835">
    <circle cx="0" cy="0" r="0.75" class="primitive"/>
  </g>
  <g transform="translate(24.2,51.52)" fill="#F29835">
    <circle cx="0" cy="0" r="0.75" class="primitive"/>
  </g>
  <g transform="translate(22.22,49.02)" fill="#94F686">
    <circle cx="0" cy="0" r="0.75" class="primitive"/>
  </g>
  <g transform="translate(41.59,55.26)" fill="#94F686">
    <circle cx="0" cy="0" r="0.75" class="primitive"/>
  </g>
  <g transform="translate(46.82,57.75)" fill="#F29835">
    <circle cx="0" cy="0" r="0.75" class="primitive"/>
  </g>
  <g transform="translate(37.94,56.51)" fill="#F29835">
    <circle cx="0" cy="0" r="0.75" class="primitive"/>
  </g>
  <g transform="translate(57.88,60.25)" fill="#94F686">
    <circle cx="0" cy="0" r="0.75" class="primitive"/>
  </g>
  <g transform="translate(48.86,62.74)" fill="#94F686">
    <circle cx="0" cy="0" r="0.75" class="primitive"/>
  </g>
  <g transform="translate(48.43,61.49)" fill="#F29835">
    <circle cx="0" cy="0" r="0.75" class="primitive"/>
  </g>
  <g transform="translate(33.45,59)" fill="#F29835">
    <circle cx="0" cy="0" r="0.75" class="primitive"/>
  </g>
  <g transform="translate(38.59,65.24)" fill="#F29835">
    <circle cx="0" cy="0" r="0.75" class="primitive"/>
  </g>
  <g transform="translate(78.75,67.73)" fill="#94F686">
    <circle cx="0" cy="0" r="0.75" class="primitive"/>
  </g>
  <g transform="translate(38.18,66.48)" fill="#F29835">
    <circle cx="0" cy="0" r="0.75" class="primitive"/>
  </g>
  <g transform="translate(44.73,70.23)" fill="#F29835">
    <circle cx="0" cy="0" r="0.75" class="primitive"/>
  </g>
  <g transform="translate(60.19,72.72)" fill="#F29835">
    <circle cx="0" cy="0" r="0.75" class="primitive"/>
  </g>
  <g transform="translate(37.48,71.47)" fill="#94F686">
    <circle cx="0" cy="0" r="0.75" class="primitive"/>
  </g>
  <g fill-opacity="1" id="img-29b4c979-5">
    <g transform="translate(37.48,71.47)" fill="#94F686">
      <circle cx="0" cy="0" r="0.75" class="primitive"/>
    </g>
    <g transform="translate(37.22,68.98)" fill="#94F686">
      <circle cx="0" cy="0" r="0.75" class="primitive"/>
    </g>
    <g transform="translate(15.46,63.99)" fill="#94F686">
      <circle cx="0" cy="0" r="0.75" class="primitive"/>
    </g>
    <g transform="translate(12.08,56.51)" fill="#94F686">
      <circle cx="0" cy="0" r="0.75" class="primitive"/>
    </g>
    <g transform="translate(27.88,75.22)" fill="#94F686">
      <circle cx="0" cy="0" r="0.75" class="primitive"/>
    </g>
    <g transform="translate(42.52,77.71)" fill="#94F686">
      <circle cx="0" cy="0" r="0.75" class="primitive"/>
    </g>
    <g transform="translate(24.76,76.46)" fill="#94F686">
      <circle cx="0" cy="0" r="0.75" class="primitive"/>
    </g>
    <g transform="translate(30.51,80.21)" fill="#94F686">
      <circle cx="0" cy="0" r="0.75" class="primitive"/>
    </g>
    <g transform="translate(29.87,82.7)" fill="#94F686">
      <circle cx="0" cy="0" r="0.75" class="primitive"/>
    </g>
    <g transform="translate(19.33,81.45)" fill="#F29835">
      <circle cx="0" cy="0" r="0.75" class="primitive"/>
    </g>
    <g transform="translate(17.89,78.96)" fill="#F29835">
      <circle cx="0" cy="0" r="0.75" class="primitive"/>
    </g>
    <g transform="translate(51.49,85.19)" fill="#94F686">
      <circle cx="0" cy="0" r="0.75" class="primitive"/>
    </g>
    <g transform="translate(51.96,87.69)" fill="#F29835">
      <circle cx="0" cy="0" r="0.75" class="primitive"/>
    </g>
    <g transform="translate(40.68,86.44)" fill="#F29835">
      <circle cx="0" cy="0" r="0.75" class="primitive"/>
    </g>
    <g transform="translate(45.41,90.18)" fill="#94F686">
      <circle cx="0" cy="0" r="0.75" class="primitive"/>
    </g>
    <g transform="translate(29.06,92.68)" fill="#94F686">
      <circle cx="0" cy="0" r="0.75" class="primitive"/>
    </g>
    <g transform="translate(24.61,91.43)" fill="#F29835">
      <circle cx="0" cy="0" r="0.75" class="primitive"/>
    </g>
    <g transform="translate(14.15,88.94)" fill="#94F686">
      <circle cx="0" cy="0" r="0.75" class="primitive"/>
    </g>
    <g transform="translate(11.34,83.95)" fill="#F29835">
      <circle cx="0" cy="0" r="0.75" class="primitive"/>
    </g>
    <g transform="translate(35.49,95.17)" fill="#94F686">
      <circle cx="0" cy="0" r="0.75" class="primitive"/>
    </g>
    <g transform="translate(30.03,97.67)" fill="#94F686">
      <circle cx="0" cy="0" r="0.75" class="primitive"/>
    </g>
    <g transform="translate(28.4,96.42)" fill="#F29835">
      <circle cx="0" cy="0" r="0.75" class="primitive"/>
    </g>
    <g transform="translate(46.77,100.16)" fill="#94F686">
      <circle cx="0" cy="0" r="0.75" class="primitive"/>
    </g>
    <g transform="translate(53.3,102.66)" fill="#94F686">
      <circle cx="0" cy="0" r="0.75" class="primitive"/>
    </g>
    <g transform="translate(39.1,101.41)" fill="#94F686">
      <circle cx="0" cy="0" r="0.75" class="primitive"/>
    </g>
    <g transform="translate(26.21,98.92)" fill="#F29835">
      <circle cx="0" cy="0" r="0.75" class="primitive"/>
    </g>
    <g transform="translate(57.35,105.15)" fill="#94F686">
      <circle cx="0" cy="0" r="0.75" class="primitive"/>
    </g>
    <g transform="translate(35.4,107.65)" fill="#F29835">
      <circle cx="0" cy="0" r="0.75" class="primitive"/>
    </g>
    <g transform="translate(25.79,106.4)" fill="#94F686">
      <circle cx="0" cy="0" r="0.75" class="primitive"/>
    </g>
    <g transform="translate(27.01,110.14)" fill="#F29835">
      <circle cx="0" cy="0" r="0.75" class="primitive"/>
    </g>
    <g transform="translate(29.34,112.64)" fill="#F29835">
      <circle cx="0" cy="0" r="0.75" class="primitive"/>
    </g>
    <g transform="translate(24.32,111.39)" fill="#94F686">
      <circle cx="0" cy="0" r="0.75" class="primitive"/>
    </g>
    <g transform="translate(20.95,108.89)" fill="#94F686">
      <circle cx="0" cy="0" r="0.75" class="primitive"/>
    </g>
    <g transform="translate(18.78,103.9)" fill="#94F686">
      <circle cx="0" cy="0" r="0.75" class="primitive"/>
    </g>
    <g transform="translate(9.22,93.93)" fill="#94F686">
      <circle cx="0" cy="0" r="0.75" class="primitive"/>
    </g>
    <g transform="translate(3.75,75.22)" fill="#000000">
      <circle cx="0" cy="0" r="0.75" class="primitive"/>
    </g>
    <g transform="translate(3.75,49.64)" fill="#000000">
      <circle cx="0" cy="0" r="0.75" class="primitive"/>
    </g>
  </g>
</g>
<g stroke-opacity="1" fill-opacity="1" font-size="1.41" stroke-width="0.1" id="img-29b4c979-6">
  <g transform="translate(44.7,5.36)" stroke="#000000">
    <g class="primitive">
      <text dy="0.35em">N24</text>
    </g>
  </g>
  <g transform="translate(45.26,7.86)" stroke="#000000">
    <g class="primitive">
      <text dy="0.35em">N25</text>
    </g>
  </g>
  <g transform="translate(39.63,6.61)" stroke="#000000">
    <g class="primitive">
      <text dy="0.35em">N56</text>
    </g>
  </g>
  <g transform="translate(47.62,10.35)" stroke="#000000">
    <g class="primitive">
      <text dy="0.35em">N26</text>
    </g>
  </g>
  <g transform="translate(41.84,12.85)" stroke="#000000">
    <g class="primitive">
      <text dy="0.35em">N27</text>
    </g>
  </g>
  <g transform="translate(24.38,11.6)" stroke="#000000">
    <g class="primitive">
      <text dy="0.35em">N57</text>
    </g>
  </g>
  <g transform="translate(23.67,9.11)" stroke="#000000">
    <g class="primitive">
      <text dy="0.35em">N72</text>
    </g>
  </g>
  <g transform="translate(36.02,15.34)" stroke="#000000">
    <g class="primitive">
      <text dy="0.35em">N28</text>
    </g>
  </g>
  <g transform="translate(35.86,17.84)" stroke="#000000">
    <g class="primitive">
      <text dy="0.35em">N29</text>
    </g>
  </g>
  <g transform="translate(32.32,16.59)" stroke="#000000">
    <g class="primitive">
      <text dy="0.35em">N58</text>
    </g>
  </g>
  <g transform="translate(37.69,20.33)" stroke="#000000">
    <g class="primitive">
      <text dy="0.35em">N30</text>
    </g>
  </g>
  <g transform="translate(26.99,22.83)" stroke="#000000">
    <g class="primitive">
      <text dy="0.35em">N31</text>
    </g>
  </g>
  <g transform="translate(26.68,21.58)" stroke="#000000">
    <g class="primitive">
      <text dy="0.35em">N59</text>
    </g>
  </g>
  <g transform="translate(24.94,19.08)" stroke="#000000">
    <g class="primitive">
      <text dy="0.35em">N73</text>
    </g>
  </g>
  <g transform="translate(17.8,14.1)" stroke="#000000">
    <g class="primitive">
      <text dy="0.35em">N80</text>
    </g>
  </g>
  <g transform="translate(31.3,25.32)" stroke="#000000">
    <g class="primitive">
      <text dy="0.35em">N32</text>
    </g>
  </g>
  <g transform="translate(28.73,27.82)" stroke="#000000">
    <g class="primitive">
      <text dy="0.35em">N33</text>
    </g>
  </g>
  <g transform="translate(26.61,26.57)" stroke="#000000">
    <g class="primitive">
      <text dy="0.35em">N60</text>
    </g>
  </g>
  <g transform="translate(21.18,30.31)" stroke="#000000">
    <g class="primitive">
      <text dy="0.35em">N34</text>
    </g>
  </g>
  <g transform="translate(16.43,32.81)" stroke="#000000">
    <g class="primitive">
      <text dy="0.35em">N35</text>
    </g>
  </g>
  <g transform="translate(15.34,31.56)" stroke="#000000">
    <g class="primitive">
      <text dy="0.35em">N61</text>
    </g>
  </g>
  <g transform="translate(11.35,29.06)" stroke="#000000">
    <g class="primitive">
      <text dy="0.35em">N74</text>
    </g>
  </g>
  <g transform="translate(48.88,35.3)" stroke="#000000">
    <g class="primitive">
      <text dy="0.35em">N36</text>
    </g>
  </g>
  <g transform="translate(24.22,37.79)" stroke="#000000">
    <g class="primitive">
      <text dy="0.35em">N37</text>
    </g>
  </g>
  <g transform="translate(23.88,36.55)" stroke="#000000">
    <g class="primitive">
      <text dy="0.35em">N62</text>
    </g>
  </g>
  <g transform="translate(21.9,40.29)" stroke="#000000">
    <g class="primitive">
      <text dy="0.35em">N38</text>
    </g>
  </g>
  <g transform="translate(24.22,42.78)" stroke="#000000">
    <g class="primitive">
      <text dy="0.35em">N39</text>
    </g>
  </g>
  <g transform="translate(19.67,41.54)" stroke="#000000">
    <g class="primitive">
      <text dy="0.35em">N63</text>
    </g>
  </g>
  <g transform="translate(19.52,39.04)" stroke="#000000">
    <g class="primitive">
      <text dy="0.35em">N75</text>
    </g>
  </g>
  <g transform="translate(10.41,34.05)" stroke="#000000">
    <g class="primitive">
      <text dy="0.35em">N81</text>
    </g>
  </g>
  <g transform="translate(8.06,24.07)" stroke="#000000">
    <g class="primitive">
      <text dy="0.35em">N84</text>
    </g>
  </g>
  <g transform="translate(26.23,45.28)" stroke="#000000">
    <g class="primitive">
      <text dy="0.35em">N40</text>
    </g>
  </g>
  <g transform="translate(25.61,47.77)" stroke="#000000">
    <g class="primitive">
      <text dy="0.35em">N41</text>
    </g>
  </g>
  <g transform="translate(25.4,46.53)" stroke="#000000">
    <g class="primitive">
      <text dy="0.35em">N64</text>
    </g>
  </g>
  <g transform="translate(64.07,50.27)" stroke="#000000">
    <g class="primitive">
      <text dy="0.35em">N42</text>
    </g>
  </g>
  <g transform="translate(67.85,52.76)" stroke="#000000">
    <g class="primitive">
      <text dy="0.35em">N43</text>
    </g>
  </g>
  <g transform="translate(26.07,51.52)" stroke="#000000">
    <g class="primitive">
      <text dy="0.35em">N65</text>
    </g>
  </g>
  <g transform="translate(24.09,49.02)" stroke="#000000">
    <g class="primitive">
      <text dy="0.35em">N76</text>
    </g>
  </g>
  <g transform="translate(43.46,55.26)" stroke="#000000">
    <g class="primitive">
      <text dy="0.35em">N0</text>
    </g>
  </g>
  <g transform="translate(48.7,57.75)" stroke="#000000">
    <g class="primitive">
      <text dy="0.35em">N1</text>
    </g>
  </g>
  <g transform="translate(39.82,56.51)" stroke="#000000">
    <g class="primitive">
      <text dy="0.35em">N44</text>
    </g>
  </g>
  <g transform="translate(59.75,60.25)" stroke="#000000">
    <g class="primitive">
      <text dy="0.35em">N2</text>
    </g>
  </g>
  <g transform="translate(50.74,62.74)" stroke="#000000">
    <g class="primitive">
      <text dy="0.35em">N3</text>
    </g>
  </g>
  <g transform="translate(50.31,61.49)" stroke="#000000">
    <g class="primitive">
      <text dy="0.35em">N45</text>
    </g>
  </g>
  <g transform="translate(35.33,59)" stroke="#000000">
    <g class="primitive">
      <text dy="0.35em">N66</text>
    </g>
  </g>
  <g transform="translate(40.47,65.24)" stroke="#000000">
    <g class="primitive">
      <text dy="0.35em">N4</text>
    </g>
  </g>
  <g transform="translate(80.62,67.73)" stroke="#000000">
    <g class="primitive">
      <text dy="0.35em">N5</text>
    </g>
  </g>
  <g transform="translate(40.06,66.48)" stroke="#000000">
    <g class="primitive">
      <text dy="0.35em">N46</text>
    </g>
  </g>
  <g transform="translate(46.61,70.23)" stroke="#000000">
    <g class="primitive">
      <text dy="0.35em">N6</text>
    </g>
  </g>
  <g transform="translate(62.06,72.72)" stroke="#000000">
    <g class="primitive">
      <text dy="0.35em">N7</text>
    </g>
  </g>
  <g transform="translate(39.36,71.47)" stroke="#000000">
    <g class="primitive">
      <text dy="0.35em">N47</text>
    </g>
  </g>
  <g stroke-opacity="1" fill-opacity="1" font-size="1.41" stroke-width="0.1" id="img-29b4c979-7">
    <g transform="translate(39.36,71.47)" stroke="#000000">
      <g class="primitive">
        <text dy="0.35em">N47</text>
      </g>
    </g>
    <g transform="translate(39.09,68.98)" stroke="#000000">
      <g class="primitive">
        <text dy="0.35em">N67</text>
      </g>
    </g>
    <g transform="translate(17.33,63.99)" stroke="#000000">
      <g class="primitive">
        <text dy="0.35em">N77</text>
      </g>
    </g>
    <g transform="translate(13.95,56.51)" stroke="#000000">
      <g class="primitive">
        <text dy="0.35em">N82</text>
      </g>
    </g>
    <g transform="translate(29.75,75.22)" stroke="#000000">
      <g class="primitive">
        <text dy="0.35em">N8</text>
      </g>
    </g>
    <g transform="translate(44.39,77.71)" stroke="#000000">
      <g class="primitive">
        <text dy="0.35em">N9</text>
      </g>
    </g>
    <g transform="translate(26.64,76.46)" stroke="#000000">
      <g class="primitive">
        <text dy="0.35em">N48</text>
      </g>
    </g>
    <g transform="translate(32.38,80.21)" stroke="#000000">
      <g class="primitive">
        <text dy="0.35em">N10</text>
      </g>
    </g>
    <g transform="translate(31.74,82.7)" stroke="#000000">
      <g class="primitive">
        <text dy="0.35em">N11</text>
      </g>
    </g>
    <g transform="translate(21.21,81.45)" stroke="#000000">
      <g class="primitive">
        <text dy="0.35em">N49</text>
      </g>
    </g>
    <g transform="translate(19.76,78.96)" stroke="#000000">
      <g class="primitive">
        <text dy="0.35em">N68</text>
      </g>
    </g>
    <g transform="translate(53.36,85.19)" stroke="#000000">
      <g class="primitive">
        <text dy="0.35em">N12</text>
      </g>
    </g>
    <g transform="translate(53.83,87.69)" stroke="#000000">
      <g class="primitive">
        <text dy="0.35em">N13</text>
      </g>
    </g>
    <g transform="translate(42.55,86.44)" stroke="#000000">
      <g class="primitive">
        <text dy="0.35em">N50</text>
      </g>
    </g>
    <g transform="translate(47.29,90.18)" stroke="#000000">
      <g class="primitive">
        <text dy="0.35em">N14</text>
      </g>
    </g>
    <g transform="translate(30.93,92.68)" stroke="#000000">
      <g class="primitive">
        <text dy="0.35em">N15</text>
      </g>
    </g>
    <g transform="translate(26.48,91.43)" stroke="#000000">
      <g class="primitive">
        <text dy="0.35em">N51</text>
      </g>
    </g>
    <g transform="translate(16.03,88.94)" stroke="#000000">
      <g class="primitive">
        <text dy="0.35em">N69</text>
      </g>
    </g>
    <g transform="translate(13.22,83.95)" stroke="#000000">
      <g class="primitive">
        <text dy="0.35em">N78</text>
      </g>
    </g>
    <g transform="translate(37.37,95.17)" stroke="#000000">
      <g class="primitive">
        <text dy="0.35em">N16</text>
      </g>
    </g>
    <g transform="translate(31.91,97.67)" stroke="#000000">
      <g class="primitive">
        <text dy="0.35em">N17</text>
      </g>
    </g>
    <g transform="translate(30.27,96.42)" stroke="#000000">
      <g class="primitive">
        <text dy="0.35em">N52</text>
      </g>
    </g>
    <g transform="translate(48.64,100.16)" stroke="#000000">
      <g class="primitive">
        <text dy="0.35em">N18</text>
      </g>
    </g>
    <g transform="translate(55.18,102.66)" stroke="#000000">
      <g class="primitive">
        <text dy="0.35em">N19</text>
      </g>
    </g>
    <g transform="translate(40.98,101.41)" stroke="#000000">
      <g class="primitive">
        <text dy="0.35em">N53</text>
      </g>
    </g>
    <g transform="translate(28.09,98.92)" stroke="#000000">
      <g class="primitive">
        <text dy="0.35em">N70</text>
      </g>
    </g>
    <g transform="translate(59.23,105.15)" stroke="#000000">
      <g class="primitive">
        <text dy="0.35em">N20</text>
      </g>
    </g>
    <g transform="translate(37.27,107.65)" stroke="#000000">
      <g class="primitive">
        <text dy="0.35em">N21</text>
      </g>
    </g>
    <g transform="translate(27.66,106.4)" stroke="#000000">
      <g class="primitive">
        <text dy="0.35em">N54</text>
      </g>
    </g>
    <g transform="translate(28.89,110.14)" stroke="#000000">
      <g class="primitive">
        <text dy="0.35em">N22</text>
      </g>
    </g>
    <g transform="translate(31.22,112.64)" stroke="#000000">
      <g class="primitive">
        <text dy="0.35em">N23</text>
      </g>
    </g>
    <g transform="translate(26.2,111.39)" stroke="#000000">
      <g class="primitive">
        <text dy="0.35em">N55</text>
      </g>
    </g>
    <g transform="translate(22.82,108.89)" stroke="#000000">
      <g class="primitive">
        <text dy="0.35em">N71</text>
      </g>
    </g>
    <g transform="translate(20.65,103.9)" stroke="#000000">
      <g class="primitive">
        <text dy="0.35em">N79</text>
      </g>
    </g>
    <g transform="translate(11.1,93.93)" stroke="#000000">
      <g class="primitive">
        <text dy="0.35em">N83</text>
      </g>
    </g>
    <g transform="translate(5.63,75.22)" stroke="#000000">
      <g class="primitive">
        <text dy="0.35em"></text>
      </g>
    </g>
    <g transform="translate(5.63,49.64)" stroke="#000000">
      <g class="primitive">
        <text dy="0.35em"></text>
      </g>
    </g>
  </g>
</g>
</svg>
