<?xml version="1.0" encoding="UTF-8"?>
<svg xmlns="http://www.w3.org/2000/svg"
     xmlns:xlink="http://www.w3.org/1999/xlink"
     version="1.2"
     width="150mm" height="134mm" viewBox="0 0 150 134"
     stroke="none"
     fill="#000000"
     stroke-width="0.3"
     font-size="3.88"
>
<defs>
  <marker id="arrow" markerWidth="15" markerHeight="7" refX="5" refY="3.5" orient="auto" markerUnits="strokeWidth">
    <path d="M0,0 L15,3.5 L0,7 z" stroke="context-stroke" fill="context-stroke"/>
  </marker>
</defs>
<g stroke-opacity="1" stroke-width="0.3" id="img-29b4c979-1">
  <g transform="translate(17.56,6.09)" stroke="#2AD6CB">
    <path fill="none" d="M-0.04,0 L0.04,0 " class="primitive"/>
  </g>
  <g transform="translate(17.65,8.48)" stroke="#2C3D7C">
    <path fill="none" d="M-0.13,0 L0.13,0 " class="primitive"/>
  </g>
  <g transform="translate(12.51,7.29)" stroke="#2C3D7C">
    <path fill="none" d="M-5.01,0 L5.01,0 " class="primitive"/>
  </g>
  <g transform="translate(17.52,7.29)" stroke="#2C3D7C">
    <path fill="none" d="M0,1.19 L0,-1.19 " class="primitive"/>
  </g>
  <g transform="translate(10.19,10.87)" stroke="#2AD6CB">
    <path fill="none" d="M-0.83,0 L0.83,0 " class="primitive"/>
  </g>
  <g transform="translate(36.07,13.26)" stroke="#2C3D7C">
    <path fill="none" d="M-0.13,0 L0.13,0 " class="primitive"/>
  </g>
  <g transform="translate(41.11,15.65)" stroke="#2C3D7C">
    <path fill="none" d="M-5.18,0 L5.18,0 " class="primitive"/>
  </g>
  <g transform="translate(22.65,14.45)" stroke="#2C3D7C">
    <path fill="none" d="M-13.28,0 L13.28,0 " class="primitive"/>
  </g>
  <g transform="translate(35.93,14.45)" stroke="#2C3D7C">
    <path fill="none" d="M0,1.19 L0,-1.19 " class="primitive"/>
  </g>
  <g transform="translate(8.44,12.66)" stroke="#2C3D7C">
    <path fill="none" d="M-0.93,0 L0.93,0 " class="primitive"/>
  </g>
  <g transform="translate(9.36,12.66)" stroke="#2C3D7C">
    <path fill="none" d="M0,1.79 L0,-1.79 " class="primitive"/>
  </g>
  <g transform="translate(5.63,9.97)" stroke="#2AD6CB">
    <path fill="none" d="M-1.88,0 L1.88,0 " class="primitive"/>
  </g>
  <g transform="translate(7.51,9.97)" stroke="#2AD6CB">
    <path fill="none" d="M0,2.69 L0,-2.69 " class="primitive"/>
  </g>
  <g transform="translate(15.98,18.03)" stroke="#2AD6CB">
    <path fill="none" d="M-1.7,0 L1.7,0 " class="primitive"/>
  </g>
  <g transform="translate(27.86,20.42)" stroke="#2C3D7C">
    <path fill="none" d="M-3.04,0 L3.04,0 " class="primitive"/>
  </g>
  <g transform="translate(29.38,22.81)" stroke="#2AD6CB">
    <path fill="none" d="M-0.58,0 L0.58,0 " class="primitive"/>
  </g>
  <g transform="translate(37.5,25.2)" stroke="#2C3D7C">
    <path fill="none" d="M-8.71,0 L8.71,0 " class="primitive"/>
  </g>
  <g transform="translate(26.81,24.01)" stroke="#2AD6CB">
    <path fill="none" d="M-1.98,0 L1.98,0 " class="primitive"/>
  </g>
  <g transform="translate(28.79,24.01)" stroke="#2AD6CB">
    <path fill="none" d="M0,1.19 L0,-1.19 " class="primitive"/>
  </g>
  <g transform="translate(19.55,22.21)" stroke="#2C3D7C">
    <path fill="none" d="M-5.27,0 L5.27,0 " class="primitive"/>
  </g>
  <g transform="translate(24.83,22.21)" stroke="#2C3D7C">
    <path fill="none" d="M0,1.79 L0,-1.79 " class="primitive"/>
  </g>
  <g transform="translate(9.6,20.12)" stroke="#2AD6CB">
    <path fill="none" d="M-4.68,0 L4.68,0 " class="primitive"/>
  </g>
  <g transform="translate(14.28,20.12)" stroke="#2AD6CB">
    <path fill="none" d="M0,2.09 L0,-2.09 " class="primitive"/>
  </g>
  <g transform="translate(14.54,27.59)" stroke="#2C3D7C">
    <path fill="none" d="M-0.27,0 L0.27,0 " class="primitive"/>
  </g>
  <g transform="translate(15.56,29.98)" stroke="#2C3D7C">
    <path fill="none" d="M-1.29,0 L1.29,0 " class="primitive"/>
  </g>
  <g transform="translate(13.96,28.78)" stroke="#2C3D7C">
    <path fill="none" d="M-0.31,0 L0.31,0 " class="primitive"/>
  </g>
  <g transform="translate(14.27,28.78)" stroke="#2C3D7C">
    <path fill="none" d="M0,1.19 L0,-1.19 " class="primitive"/>
  </g>
  <g transform="translate(22.69,32.37)" stroke="#2C3D7C">
    <path fill="none" d="M-0.98,0 L0.98,0 " class="primitive"/>
  </g>
  <g transform="translate(25.65,34.75)" stroke="#2AD6CB">
    <path fill="none" d="M-3.93,0 L3.93,0 " class="primitive"/>
  </g>
  <g transform="translate(19.2,33.56)" stroke="#2AD6CB">
    <path fill="none" d="M-2.52,0 L2.52,0 " class="primitive"/>
  </g>
  <g transform="translate(21.72,33.56)" stroke="#2AD6CB">
    <path fill="none" d="M0,1.19 L0,-1.19 " class="primitive"/>
  </g>
  <g transform="translate(27.1,37.14)" stroke="#2C3D7C">
    <path fill="none" d="M-2.98,0 L2.98,0 " class="primitive"/>
  </g>
  <g transform="translate(24.2,39.53)" stroke="#2AD6CB">
    <path fill="none" d="M-0.08,0 L0.08,0 " class="primitive"/>
  </g>
  <g transform="translate(20.4,38.34)" stroke="#2AD6CB">
    <path fill="none" d="M-3.72,0 L3.72,0 " class="primitive"/>
  </g>
  <g transform="translate(24.12,38.34)" stroke="#2AD6CB">
    <path fill="none" d="M0,1.19 L0,-1.19 " class="primitive"/>
  </g>
  <g transform="translate(15.16,35.95)" stroke="#2AD6CB">
    <path fill="none" d="M-1.52,0 L1.52,0 " class="primitive"/>
  </g>
  <g transform="translate(16.68,35.95)" stroke="#2AD6CB">
    <path fill="none" d="M0,2.39 L0,-2.39 " class="primitive"/>
  </g>
  <g transform="translate(11.22,32.37)" stroke="#2C3D7C">
    <path fill="none" d="M-2.42,0 L2.42,0 " class="primitive"/>
  </g>
  <g transform="translate(13.64,32.37)" stroke="#2C3D7C">
    <path fill="none" d="M0,3.58 L0,-3.58 " class="primitive"/>
  </g>
  <g transform="translate(31.35,41.92)" stroke="#2C3D7C">
    <path fill="none" d="M-4.21,0 L4.21,0 " class="primitive"/>
  </g>
  <g transform="translate(27.58,44.31)" stroke="#2AD6CB">
    <path fill="none" d="M-0.44,0 L0.44,0 " class="primitive"/>
  </g>
  <g transform="translate(21.92,43.11)" stroke="#2AD6CB">
    <path fill="none" d="M-5.22,0 L5.22,0 " class="primitive"/>
  </g>
  <g transform="translate(27.14,43.11)" stroke="#2AD6CB">
    <path fill="none" d="M0,1.19 L0,-1.19 " class="primitive"/>
  </g>
  <g transform="translate(20.78,46.7)" stroke="#2AD6CB">
    <path fill="none" d="M-0.35,0 L0.35,0 " class="primitive"/>
  </g>
  <g transform="translate(23,49.09)" stroke="#2AD6CB">
    <path fill="none" d="M-1.64,0 L1.64,0 " class="primitive"/>
  </g>
  <g transform="translate(23.83,51.47)" stroke="#2C3D7C">
    <path fill="none" d="M-0.52,0 L0.52,0 " class="primitive"/>
  </g>
  <g transform="translate(26.67,53.86)" stroke="#2C3D7C">
    <path fill="none" d="M-0.08,0 L0.08,0 " class="primitive"/>
  </g>
  <g transform="translate(28.18,56.25)" stroke="#2C3D7C">
    <path fill="none" d="M-1.58,0 L1.58,0 " class="primitive"/>
  </g>
  <g transform="translate(24.95,55.06)" stroke="#2AD6CB">
    <path fill="none" d="M-1.64,0 L1.64,0 " class="primitive"/>
  </g>
  <g transform="translate(26.59,55.06)" stroke="#2AD6CB">
    <path fill="none" d="M0,1.19 L0,-1.19 " class="primitive"/>
  </g>
  <g transform="translate(22.33,53.27)" stroke="#2C3D7C">
    <path fill="none" d="M-0.98,0 L0.98,0 " class="primitive"/>
  </g>
  <g stroke-opacity="1" stroke-width="0.3" id="img-29b4c979-2">
    <g transform="translate(6.65,68.29)" stroke="#2AD6CB">
      <path fill="none" d="M-2.9,0 L2.9,0 " class="primitive"/>
    </g>
    <g transform="translate(9.55,68.29)" stroke="#2AD6CB">
      <path fill="none" d="M0,7.86 L0,-7.86 " class="primitive"/>
    </g>
    <g transform="translate(3.75,44.05)" stroke="#000000">
      <path fill="none" d="M0,0 L0,0 " class="primitive"/>
    </g>
    <g transform="translate(3.75,44.05)" stroke="#000000">
      <path fill="none" d="M0,24.24 L0,-24.24 " class="primitive"/>
    </g>
  </g>
  <g stroke-opacity="1" stroke-width="0.3" id="img-29b4c979-3">
    <g transform="translate(42.21,96.86)" stroke="#2C3D7C">
      <path fill="none" d="M-3.78,0 L3.78,0 " class="primitive"/>
    </g>
    <g transform="translate(37.22,95.66)" stroke="#2C3D7C">
      <path fill="none" d="M-1.22,0 L1.22,0 " class="primitive"/>
    </g>
    <g transform="translate(38.43,95.66)" stroke="#2C3D7C">
      <path fill="none" d="M0,1.19 L0,-1.19 " class="primitive"/>
    </g>
    <g transform="translate(35.96,93.87)" stroke="#2C3D7C">
      <path fill="none" d="M-0.04,0 L0.04,0 " class="primitive"/>
    </g>
    <g transform="translate(36,93.87)" stroke="#2C3D7C">
      <path fill="none" d="M0,1.79 L0,-1.79 " class="primitive"/>
    </g>
    <g transform="translate(47.38,99.25)" stroke="#2AD6CB">
      <path fill="none" d="M-3.11,0 L3.11,0 " class="primitive"/>
    </g>
    <g transform="translate(47.91,101.63)" stroke="#2AD6CB">
      <path fill="none" d="M-3.43,0 L3.43,0 " class="primitive"/>
    </g>
    <g transform="translate(47.7,104.02)" stroke="#2AD6CB">
      <path fill="none" d="M-1.19,0 L1.19,0 " class="primitive"/>
    </g>
    <g transform="translate(50.04,106.41)" stroke="#2C3D7C">
      <path fill="none" d="M-0.76,0 L0.76,0 " class="primitive"/>
    </g>
    <g transform="translate(51.01,108.8)" stroke="#2AD6CB">
      <path fill="none" d="M-1.73,0 L1.73,0 " class="primitive"/>
    </g>
    <g transform="translate(47.9,107.61)" stroke="#2C3D7C">
      <path fill="none" d="M-1.38,0 L1.38,0 " class="primitive"/>
    </g>
    <g transform="translate(49.28,107.61)" stroke="#2C3D7C">
      <path fill="none" d="M0,1.19 L0,-1.19 " class="primitive"/>
    </g>
    <g transform="translate(45.5,105.81)" stroke="#2AD6CB">
      <path fill="none" d="M-1.02,0 L1.02,0 " class="primitive"/>
    </g>
    <g transform="translate(46.52,105.81)" stroke="#2AD6CB">
      <path fill="none" d="M0,1.79 L0,-1.79 " class="primitive"/>
    </g>
    <g transform="translate(44.37,103.72)" stroke="#2C3D7C">
      <path fill="none" d="M-0.1,0 L0.1,0 " class="primitive"/>
    </g>
    <g transform="translate(44.48,103.72)" stroke="#2C3D7C">
      <path fill="none" d="M0,2.09 L0,-2.09 " class="primitive"/>
    </g>
    <g transform="translate(43.51,101.49)" stroke="#2AD6CB">
      <path fill="none" d="M-0.76,0 L0.76,0 " class="primitive"/>
    </g>
    <g transform="translate(44.27,101.49)" stroke="#2AD6CB">
      <path fill="none" d="M0,2.24 L0,-2.24 " class="primitive"/>
    </g>
    <g transform="translate(55.47,111.19)" stroke="#2AD6CB">
      <path fill="none" d="M-0.19,0 L0.19,0 " class="primitive"/>
    </g>
    <g transform="translate(59.27,113.58)" stroke="#2C3D7C">
      <path fill="none" d="M-3.94,0 L3.94,0 " class="primitive"/>
    </g>
    <g transform="translate(55.93,115.97)" stroke="#2C3D7C">
      <path fill="none" d="M-0.6,0 L0.6,0 " class="primitive"/>
    </g>
    <g transform="translate(55.31,114.77)" stroke="#2AD6CB">
      <path fill="none" d="M-0.03,0 L0.03,0 " class="primitive"/>
    </g>
    <g transform="translate(55.34,114.77)" stroke="#2AD6CB">
      <path fill="none" d="M0,1.19 L0,-1.19 " class="primitive"/>
    </g>
    <g transform="translate(51.42,112.98)" stroke="#2C3D7C">
      <path fill="none" d="M-3.86,0 L3.86,0 " class="primitive"/>
    </g>
    <g transform="translate(55.28,112.98)" stroke="#2C3D7C">
      <path fill="none" d="M0,1.79 L0,-1.79 " class="primitive"/>
    </g>
    <g transform="translate(74.21,118.35)" stroke="#2AD6CB">
      <path fill="none" d="M-4.54,0 L4.54,0 " class="primitive"/>
    </g>
    <g transform="translate(69.92,120.74)" stroke="#2C3D7C">
      <path fill="none" d="M-0.25,0 L0.25,0 " class="primitive"/>
    </g>
    <g transform="translate(62.95,119.55)" stroke="#2C3D7C">
      <path fill="none" d="M-6.71,0 L6.71,0 " class="primitive"/>
    </g>
    <g transform="translate(69.66,119.55)" stroke="#2C3D7C">
      <path fill="none" d="M0,1.19 L0,-1.19 " class="primitive"/>
    </g>
    <g transform="translate(64.84,123.13)" stroke="#2C3D7C">
      <path fill="none" d="M-0.88,0 L0.88,0 " class="primitive"/>
    </g>
    <g transform="translate(64.37,125.52)" stroke="#2AD6CB">
      <path fill="none" d="M-0.08,0 L0.08,0 " class="primitive"/>
    </g>
    <g transform="translate(65.79,127.91)" stroke="#2C3D7C">
      <path fill="none" d="M-1.51,0 L1.51,0 " class="primitive"/>
    </g>
    <g transform="translate(64.12,126.71)" stroke="#2AD6CB">
      <path fill="none" d="M-0.16,0 L0.16,0 " class="primitive"/>
    </g>
    <g transform="translate(64.28,126.71)" stroke="#2AD6CB">
      <path fill="none" d="M0,1.19 L0,-1.19 " class="primitive"/>
    </g>
    <g transform="translate(60.1,124.92)" stroke="#2C3D7C">
      <path fill="none" d="M-3.86,0 L3.86,0 " class="primitive"/>
    </g>
    <g transform="translate(63.96,124.92)" stroke="#2C3D7C">
      <path fill="none" d="M0,1.79 L0,-1.79 " class="primitive"/>
    </g>
    <g transform="translate(51.9,122.24)" stroke="#2C3D7C">
      <path fill="none" d="M-4.34,0 L4.34,0 " class="primitive"/>
    </g>
    <g transform="translate(56.25,122.24)" stroke="#2C3D7C">
      <path fill="none" d="M0,2.69 L0,-2.69 " class="primitive"/>
    </g>
    <g transform="translate(45.15,117.61)" stroke="#2C3D7C">
      <path fill="none" d="M-2.4,0 L2.4,0 " class="primitive"/>
    </g>
    <g transform="translate(47.56,117.61)" stroke="#2C3D7C">
      <path fill="none" d="M0,4.63 L0,-4.63 " class="primitive"/>
    </g>
    <g transform="translate(39.33,109.55)" stroke="#2AD6CB">
      <path fill="none" d="M-3.42,0 L3.42,0 " class="primitive"/>
    </g>
    <g transform="translate(42.75,109.55)" stroke="#2AD6CB">
      <path fill="none" d="M0,8.06 L0,-8.06 " class="primitive"/>
    </g>
    <g transform="translate(32.58,101.71)" stroke="#2AD6CB">
      <path fill="none" d="M-3.33,0 L3.33,0 " class="primitive"/>
    </g>
    <g transform="translate(35.91,101.71)" stroke="#2AD6CB">
      <path fill="none" d="M0,7.84 L0,-7.84 " class="primitive"/>
    </g>
    <g transform="translate(28.36,95.1)" stroke="#2C3D7C">
      <path fill="none" d="M-0.89,0 L0.89,0 " class="primitive"/>
    </g>
    <g transform="translate(29.26,95.1)" stroke="#2C3D7C">
      <path fill="none" d="M0,6.61 L0,-6.61 " class="primitive"/>
    </g>
    <g transform="translate(27.44,85.31)" stroke="#2C3D7C">
      <path fill="none" d="M-0.03,0 L0.03,0 " class="primitive"/>
    </g>
    <g transform="translate(27.47,85.31)" stroke="#2C3D7C">
      <path fill="none" d="M0,9.8 L0,-9.8 " class="primitive"/>
    </g>
    <g transform="translate(18.48,76.15)" stroke="#2C3D7C">
      <path fill="none" d="M-8.93,0 L8.93,0 " class="primitive"/>
    </g>
    <g transform="translate(27.41,76.15)" stroke="#2C3D7C">
      <path fill="none" d="M0,9.15 L0,-9.15 " class="primitive"/>
    </g>
    <g transform="translate(6.65,68.29)" stroke="#2AD6CB">
      <path fill="none" d="M-2.9,0 L2.9,0 " class="primitive"/>
    </g>
  </g>
  <g stroke-opacity="1" stroke-width="0.3" id="img-29b4c979-4">
    <g transform="translate(22.33,53.27)" stroke="#2C3D7C">
      <path fill="none" d="M-0.98,0 L0.98,0 " class="primitive"/>
    </g>
    <g transform="translate(23.31,53.27)" stroke="#2C3D7C">
      <path fill="none" d="M0,1.79 L0,-1.79 " class="primitive"/>
    </g>
    <g transform="translate(20.89,51.18)" stroke="#2AD6CB">
      <path fill="none" d="M-0.47,0 L0.47,0 " class="primitive"/>
    </g>
    <g transform="translate(21.36,51.18)" stroke="#2AD6CB">
      <path fill="none" d="M0,2.09 L0,-2.09 " class="primitive"/>
    </g>
    <g transform="translate(18.56,48.94)" stroke="#2C3D7C">
      <path fill="none" d="M-1.87,0 L1.87,0 " class="primitive"/>
    </g>
    <g transform="translate(20.42,48.94)" stroke="#2C3D7C">
      <path fill="none" d="M0,2.24 L0,-2.24 " class="primitive"/>
    </g>
    <g transform="translate(12.74,46.03)" stroke="#2AD6CB">
      <path fill="none" d="M-3.95,0 L3.95,0 " class="primitive"/>
    </g>
    <g transform="translate(16.69,46.03)" stroke="#2AD6CB">
      <path fill="none" d="M0,2.91 L0,-2.91 " class="primitive"/>
    </g>
    <g transform="translate(6.85,39.2)" stroke="#2AD6CB">
      <path fill="none" d="M-1.94,0 L1.94,0 " class="primitive"/>
    </g>
    <g transform="translate(8.79,39.2)" stroke="#2AD6CB">
      <path fill="none" d="M0,6.83 L0,-6.83 " class="primitive"/>
    </g>
    <g transform="translate(4.33,29.66)" stroke="#2C3D7C">
      <path fill="none" d="M-0.58,0 L0.58,0 " class="primitive"/>
    </g>
    <g transform="translate(4.92,29.66)" stroke="#2C3D7C">
      <path fill="none" d="M0,9.54 L0,-9.54 " class="primitive"/>
    </g>
    <g transform="translate(3.75,19.82)" stroke="#000000">
      <path fill="none" d="M0,0 L0,0 " class="primitive"/>
    </g>
    <g transform="translate(3.75,19.82)" stroke="#000000">
      <path fill="none" d="M0,9.84 L0,-9.84 " class="primitive"/>
    </g>
    <g transform="translate(18.26,58.64)" stroke="#2AD6CB">
      <path fill="none" d="M-1.22,0 L1.22,0 " class="primitive"/>
    </g>
    <g transform="translate(20.45,61.03)" stroke="#2AD6CB">
      <path fill="none" d="M-3.38,0 L3.38,0 " class="primitive"/>
    </g>
    <g transform="translate(17.57,63.42)" stroke="#2AD6CB">
      <path fill="none" d="M-0.5,0 L0.5,0 " class="primitive"/>
    </g>
    <g transform="translate(17.05,62.22)" stroke="#2AD6CB">
      <path fill="none" d="M-0.02,0 L0.02,0 " class="primitive"/>
    </g>
    <g transform="translate(17.07,62.22)" stroke="#2AD6CB">
      <path fill="none" d="M0,1.19 L0,-1.19 " class="primitive"/>
    </g>
    <g transform="translate(13.29,60.43)" stroke="#2C3D7C">
      <path fill="none" d="M-3.74,0 L3.74,0 " class="primitive"/>
    </g>
    <g transform="translate(17.04,60.43)" stroke="#2C3D7C">
      <path fill="none" d="M0,1.79 L0,-1.79 " class="primitive"/>
    </g>
    <g transform="translate(30.01,65.81)" stroke="#2AD6CB">
      <path fill="none" d="M-2.16,0 L2.16,0 " class="primitive"/>
    </g>
    <g transform="translate(32.17,68.19)" stroke="#2C3D7C">
      <path fill="none" d="M-4.31,0 L4.31,0 " class="primitive"/>
    </g>
    <g transform="translate(27.63,67)" stroke="#2AD6CB">
      <path fill="none" d="M-0.22,0 L0.22,0 " class="primitive"/>
    </g>
    <g transform="translate(27.85,67)" stroke="#2AD6CB">
      <path fill="none" d="M0,1.19 L0,-1.19 " class="primitive"/>
    </g>
    <g transform="translate(33.22,70.58)" stroke="#2AD6CB">
      <path fill="none" d="M-0.41,0 L0.41,0 " class="primitive"/>
    </g>
    <g transform="translate(33.94,72.97)" stroke="#2C3D7C">
      <path fill="none" d="M-1.13,0 L1.13,0 " class="primitive"/>
    </g>
    <g transform="translate(30.26,71.78)" stroke="#2AD6CB">
      <path fill="none" d="M-2.56,0 L2.56,0 " class="primitive"/>
    </g>
    <g transform="translate(32.81,71.78)" stroke="#2AD6CB">
      <path fill="none" d="M0,1.19 L0,-1.19 " class="primitive"/>
    </g>
    <g transform="translate(35.72,75.36)" stroke="#2AD6CB">
      <path fill="none" d="M-1.36,0 L1.36,0 " class="primitive"/>
    </g>
    <g transform="translate(35.75,77.75)" stroke="#2C3D7C">
      <path fill="none" d="M-1.38,0 L1.38,0 " class="primitive"/>
    </g>
    <g transform="translate(32.12,76.55)" stroke="#2C3D7C">
      <path fill="none" d="M-2.24,0 L2.24,0 " class="primitive"/>
    </g>
    <g transform="translate(34.37,76.55)" stroke="#2C3D7C">
      <path fill="none" d="M0,1.19 L0,-1.19 " class="primitive"/>
    </g>
    <g transform="translate(33.13,80.14)" stroke="#2C3D7C">
      <path fill="none" d="M-2.16,0 L2.16,0 " class="primitive"/>
    </g>
    <g transform="translate(33.68,82.53)" stroke="#2C3D7C">
      <path fill="none" d="M-0.4,0 L0.4,0 " class="primitive"/>
    </g>
    <g transform="translate(34.89,84.91)" stroke="#2AD6CB">
      <path fill="none" d="M-1.62,0 L1.62,0 " class="primitive"/>
    </g>
    <g transform="translate(32.12,83.72)" stroke="#2C3D7C">
      <path fill="none" d="M-1.15,0 L1.15,0 " class="primitive"/>
    </g>
    <g transform="translate(33.27,83.72)" stroke="#2C3D7C">
      <path fill="none" d="M0,1.19 L0,-1.19 " class="primitive"/>
    </g>
    <g transform="translate(30.43,81.93)" stroke="#2AD6CB">
      <path fill="none" d="M-0.55,0 L0.55,0 " class="primitive"/>
    </g>
    <g transform="translate(30.97,81.93)" stroke="#2AD6CB">
      <path fill="none" d="M0,1.79 L0,-1.79 " class="primitive"/>
    </g>
    <g transform="translate(28.79,79.24)" stroke="#2AD6CB">
      <path fill="none" d="M-1.09,0 L1.09,0 " class="primitive"/>
    </g>
    <g transform="translate(29.88,79.24)" stroke="#2AD6CB">
      <path fill="none" d="M0,2.69 L0,-2.69 " class="primitive"/>
    </g>
    <g transform="translate(27.59,75.51)" stroke="#2C3D7C">
      <path fill="none" d="M-0.12,0 L0.12,0 " class="primitive"/>
    </g>
    <g transform="translate(27.7,75.51)" stroke="#2C3D7C">
      <path fill="none" d="M0,3.73 L0,-3.73 " class="primitive"/>
    </g>
    <g transform="translate(31.88,87.3)" stroke="#2AD6CB">
      <path fill="none" d="M-0.79,0 L0.79,0 " class="primitive"/>
    </g>
    <g transform="translate(31.28,89.69)" stroke="#2AD6CB">
      <path fill="none" d="M-0.19,0 L0.19,0 " class="primitive"/>
    </g>
    <g transform="translate(30.18,88.5)" stroke="#2C3D7C">
      <path fill="none" d="M-0.92,0 L0.92,0 " class="primitive"/>
    </g>
    <g transform="translate(31.09,88.5)" stroke="#2C3D7C">
      <path fill="none" d="M0,1.19 L0,-1.19 " class="primitive"/>
    </g>
    <g transform="translate(39.44,92.08)" stroke="#2C3D7C">
      <path fill="none" d="M-3.44,0 L3.44,0 " class="primitive"/>
    </g>
    <g transform="translate(43.6,94.47)" stroke="#2AD6CB">
      <path fill="none" d="M-5.17,0 L5.17,0 " class="primitive"/>
    </g>
    <g transform="translate(42.21,96.86)" stroke="#2C3D7C">
      <path fill="none" d="M-3.78,0 L3.78,0 " class="primitive"/>
    </g>
  </g>
</g>
<g fill-opacity="1" id="img-29b4c979-5">
  <g transform="translate(17.61,6.09)" fill="#2AD6CB">
    <circle cx="0" cy="0" r="0.75" class="primitive"/>
  </g>
  <g transform="translate(17.78,8.48)" fill="#2C3D7C">
    <circle cx="0" cy="0" r="0.75" class="primitive"/>
  </g>
  <g transform="translate(17.52,7.29)" fill="#2C3D7C">
    <circle cx="0" cy="0" r="0.75" class="primitive"/>
  </g>
  <g transform="translate(11.02,10.87)" fill="#2AD6CB">
    <circle cx="0" cy="0" r="0.75" class="primitive"/>
  </g>
  <g transform="translate(36.2,13.26)" fill="#2C3D7C">
    <circle cx="0" cy="0" r="0.75" class="primitive"/>
  </g>
  <g transform="translate(46.28,15.65)" fill="#2C3D7C">
    <circle cx="0" cy="0" r="0.75" class="primitive"/>
  </g>
  <g transform="translate(35.93,14.45)" fill="#2C3D7C">
    <circle cx="0" cy="0" r="0.75" class="primitive"/>
  </g>
  <g transform="translate(9.36,12.66)" fill="#2C3D7C">
    <circle cx="0" cy="0" r="0.75" class="primitive"/>
  </g>
  <g transform="translate(7.51,9.97)" fill="#2AD6CB">
    <circle cx="0" cy="0" r="0.75" class="primitive"/>
  </g>
  <g transform="translate(17.68,18.03)" fill="#2AD6CB">
    <circle cx="0" cy="0" r="0.75" class="primitive"/>
  </g>
  <g transform="translate(30.9,20.42)" fill="#2C3D7C">
    <circle cx="0" cy="0" r="0.75" class="primitive"/>
  </g>
  <g transform="translate(29.96,22.81)" fill="#2AD6CB">
    <circle cx="0" cy="0" r="0.75" class="primitive"/>
  </g>
  <g transform="translate(46.22,25.2)" fill="#2C3D7C">
    <circle cx="0" cy="0" r="0.75" class="primitive"/>
  </g>
  <g transform="translate(28.79,24.01)" fill="#2AD6CB">
    <circle cx="0" cy="0" r="0.75" class="primitive"/>
  </g>
  <g transform="translate(24.83,22.21)" fill="#2C3D7C">
    <circle cx="0" cy="0" r="0.75" class="primitive"/>
  </g>
  <g transform="translate(14.28,20.12)" fill="#2AD6CB">
    <circle cx="0" cy="0" r="0.75" class="primitive"/>
  </g>
  <g transform="translate(14.8,27.59)" fill="#2C3D7C">
    <circle cx="0" cy="0" r="0.75" class="primitive"/>
  </g>
  <g transform="translate(16.84,29.98)" fill="#2C3D7C">
    <circle cx="0" cy="0" r="0.75" class="primitive"/>
  </g>
  <g transform="translate(14.27,28.78)" fill="#2C3D7C">
    <circle cx="0" cy="0" r="0.75" class="primitive"/>
  </g>
  <g transform="translate(23.67,32.37)" fill="#2C3D7C">
    <circle cx="0" cy="0" r="0.75" class="primitive"/>
  </g>
  <g transform="translate(29.58,34.75)" fill="#2AD6CB">
    <circle cx="0" cy="0" r="0.75" class="primitive"/>
  </g>
  <g transform="translate(21.72,33.56)" fill="#2AD6CB">
    <circle cx="0" cy="0" r="0.75" class="primitive"/>
  </g>
  <g transform="translate(30.07,37.14)" fill="#2C3D7C">
    <circle cx="0" cy="0" r="0.75" class="primitive"/>
  </g>
  <g transform="translate(24.28,39.53)" fill="#2AD6CB">
    <circle cx="0" cy="0" r="0.75" class="primitive"/>
  </g>
  <g transform="translate(24.12,38.34)" fill="#2AD6CB">
    <circle cx="0" cy="0" r="0.75" class="primitive"/>
  </g>
  <g transform="translate(16.68,35.95)" fill="#2AD6CB">
    <circle cx="0" cy="0" r="0.75" class="primitive"/>
  </g>
  <g transform="translate(13.64,32.37)" fill="#2C3D7C">
    <circle cx="0" cy="0" r="0.75" class="primitive"/>
  </g>
  <g transform="translate(35.57,41.92)" fill="#2C3D7C">
    <circle cx="0" cy="0" r="0.75" class="primitive"/>
  </g>
  <g transform="translate(28.01,44.31)" fill="#2AD6CB">
    <circle cx="0" cy="0" r="0.75" class="primitive"/>
  </g>
  <g transform="translate(27.14,43.11)" fill="#2AD6CB">
    <circle cx="0" cy="0" r="0.75" class="primitive"/>
  </g>
  <g transform="translate(21.13,46.7)" fill="#2AD6CB">
    <circle cx="0" cy="0" r="0.75" class="primitive"/>
  </g>
  <g transform="translate(24.64,49.09)" fill="#2AD6CB">
    <circle cx="0" cy="0" r="0.75" class="primitive"/>
  </g>
  <g transform="translate(24.34,51.47)" fill="#2C3D7C">
    <circle cx="0" cy="0" r="0.75" class="primitive"/>
  </g>
  <g transform="translate(26.75,53.86)" fill="#2C3D7C">
    <circle cx="0" cy="0" r="0.75" class="primitive"/>
  </g>
  <g transform="translate(29.76,56.25)" fill="#2C3D7C">
    <circle cx="0" cy="0" r="0.75" class="primitive"/>
  </g>
  <g transform="translate(26.59,55.06)" fill="#2AD6CB">
    <circle cx="0" cy="0" r="0.75" class="primitive"/>
  </g>
  <g transform="translate(23.31,53.27)" fill="#2C3D7C">
    <circle cx="0" cy="0" r="0.75" class="primitive"/>
  </g>
  <g transform="translate(21.36,51.18)" fill="#2AD6CB">
    <circle cx="0" cy="0" r="0.75" class="primitive"/>
  </g>
  <g transform="translate(20.42,48.94)" fill="#2C3D7C">
    <circle cx="0" cy="0" r="0.75" class="primitive"/>
  </g>
  <g transform="translate(16.69,46.03)" fill="#2AD6CB">
    <circle cx="0" cy="0" r="0.75" class="primitive"/>
  </g>
  <g transform="translate(8.79,39.2)" fill="#2AD6CB">
    <circle cx="0" cy="0" r="0.75" class="primitive"/>
  </g>
  <g transform="translate(4.92,29.66)" fill="#2C3D7C">
    <circle cx="0" cy="0" r="0.75" class="primitive"/>
  </g>
  <g transform="translate(3.75,19.82)" fill="#000000">
    <circle cx="0" cy="0" r="0.75" class="primitive"/>
  </g>
  <g transform="translate(19.48,58.64)" fill="#2AD6CB">
    <circle cx="0" cy="0" r="0.75" class="primitive"/>
  </g>
  <g transform="translate(23.84,61.03)" fill="#2AD6CB">
    <circle cx="0" cy="0" r="0.75" class="primitive"/>
  </g>
  <g transform="translate(18.06,63.42)" fill="#2AD6CB">
    <circle cx="0" cy="0" r="0.75" class="primitive"/>
  </g>
  <g transform="translate(17.07,62.22)" fill="#2AD6CB">
    <circle cx="0" cy="0" r="0.75" class="primitive"/>
  </g>
  <g transform="translate(17.04,60.43)" fill="#2C3D7C">
    <circle cx="0" cy="0" r="0.75" class="primitive"/>
  </g>
  <g transform="translate(32.17,65.81)" fill="#2AD6CB">
    <circle cx="0" cy="0" r="0.75" class="primitive"/>
  </g>
  <g transform="translate(36.48,68.19)" fill="#2C3D7C">
    <circle cx="0" cy="0" r="0.75" class="primitive"/>
  </g>
  <g transform="translate(27.85,67)" fill="#2AD6CB">
    <circle cx="0" cy="0" r="0.75" class="primitive"/>
  </g>
  <g fill-opacity="1" id="img-29b4c979-6">
    <g transform="translate(27.41,76.15)" fill="#2C3D7C">
      <circle cx="0" cy="0" r="0.75" class="primitive"/>
    </g>
    <g transform="translate(9.55,68.29)" fill="#2AD6CB">
      <circle cx="0" cy="0" r="0.75" class="primitive"/>
    </g>
    <g transform="translate(3.75,44.05)" fill="#000000">
      <circle cx="0" cy="0" r="0.75" class="primitive"/>
    </g>
  </g>
  <g fill-opacity="1" id="img-29b4c979-7">
    <g transform="translate(27.85,67)" fill="#2AD6CB">
      <circle cx="0" cy="0" r="0.75" class="primitive"/>
    </g>
    <g transform="translate(33.63,70.58)" fill="#2AD6CB">
      <circle cx="0" cy="0" r="0.75" class="primitive"/>
    </g>
    <g transform="translate(35.07,72.97)" fill="#2C3D7C">
      <circle cx="0" cy="0" r="0.75" class="primitive"/>
    </g>
    <g transform="translate(32.81,71.78)" fill="#2AD6CB">
      <circle cx="0" cy="0" r="0.75" class="primitive"/>
    </g>
    <g transform="translate(37.08,75.36)" fill="#2AD6CB">
      <circle cx="0" cy="0" r="0.75" class="primitive"/>
    </g>
    <g transform="translate(37.13,77.75)" fill="#2C3D7C">
      <circle cx="0" cy="0" r="0.75" class="primitive"/>
    </g>
    <g transform="translate(34.37,76.55)" fill="#2C3D7C">
      <circle cx="0" cy="0" r="0.75" class="primitive"/>
    </g>
    <g transform="translate(35.28,80.14)" fill="#2C3D7C">
      <circle cx="0" cy="0" r="0.75" class="primitive"/>
    </g>
    <g transform="translate(34.08,82.53)" fill="#2C3D7C">
      <circle cx="0" cy="0" r="0.75" class="primitive"/>
    </g>
    <g transform="translate(36.51,84.91)" fill="#2AD6CB">
      <circle cx="0" cy="0" r="0.75" class="primitive"/>
    </g>
    <g transform="translate(33.27,83.72)" fill="#2C3D7C">
      <circle cx="0" cy="0" r="0.75" class="primitive"/>
    </g>
    <g transform="translate(30.97,81.93)" fill="#2AD6CB">
      <circle cx="0" cy="0" r="0.75" class="primitive"/>
    </g>
    <g transform="translate(29.88,79.24)" fill="#2AD6CB">
      <circle cx="0" cy="0" r="0.75" class="primitive"/>
    </g>
    <g transform="translate(27.7,75.51)" fill="#2C3D7C">
      <circle cx="0" cy="0" r="0.75" class="primitive"/>
    </g>
    <g transform="translate(32.66,87.3)" fill="#2AD6CB">
      <circle cx="0" cy="0" r="0.75" class="primitive"/>
    </g>
    <g transform="translate(31.47,89.69)" fill="#2AD6CB">
      <circle cx="0" cy="0" r="0.75" class="primitive"/>
    </g>
    <g transform="translate(31.09,88.5)" fill="#2C3D7C">
      <circle cx="0" cy="0" r="0.75" class="primitive"/>
    </g>
    <g transform="translate(42.88,92.08)" fill="#2C3D7C">
      <circle cx="0" cy="0" r="0.75" class="primitive"/>
    </g>
    <g transform="translate(48.77,94.47)" fill="#2AD6CB">
      <circle cx="0" cy="0" r="0.75" class="primitive"/>
    </g>
    <g transform="translate(45.99,96.86)" fill="#2C3D7C">
      <circle cx="0" cy="0" r="0.75" class="primitive"/>
    </g>
    <g transform="translate(38.43,95.66)" fill="#2C3D7C">
      <circle cx="0" cy="0" r="0.75" class="primitive"/>
    </g>
    <g transform="translate(36,93.87)" fill="#2C3D7C">
      <circle cx="0" cy="0" r="0.75" class="primitive"/>
    </g>
    <g transform="translate(50.49,99.25)" fill="#2AD6CB">
      <circle cx="0" cy="0" r="0.75" class="primitive"/>
    </g>
    <g transform="translate(51.34,101.63)" fill="#2AD6CB">
      <circle cx="0" cy="0" r="0.75" class="primitive"/>
    </g>
    <g transform="translate(48.89,104.02)" fill="#2AD6CB">
      <circle cx="0" cy="0" r="0.75" class="primitive"/>
    </g>
    <g transform="translate(50.8,106.41)" fill="#2C3D7C">
      <circle cx="0" cy="0" r="0.75" class="primitive"/>
    </g>
    <g transform="translate(52.74,108.8)" fill="#2AD6CB">
      <circle cx="0" cy="0" r="0.75" class="primitive"/>
    </g>
    <g transform="translate(49.28,107.61)" fill="#2C3D7C">
      <circle cx="0" cy="0" r="0.75" class="primitive"/>
    </g>
    <g transform="translate(46.52,105.81)" fill="#2AD6CB">
      <circle cx="0" cy="0" r="0.75" class="primitive"/>
    </g>
    <g transform="translate(44.48,103.72)" fill="#2C3D7C">
      <circle cx="0" cy="0" r="0.75" class="primitive"/>
    </g>
    <g transform="translate(44.27,101.49)" fill="#2AD6CB">
      <circle cx="0" cy="0" r="0.75" class="primitive"/>
    </g>
    <g transform="translate(55.67,111.19)" fill="#2AD6CB">
      <circle cx="0" cy="0" r="0.75" class="primitive"/>
    </g>
    <g transform="translate(63.21,113.58)" fill="#2C3D7C">
      <circle cx="0" cy="0" r="0.75" class="primitive"/>
    </g>
    <g transform="translate(56.53,115.97)" fill="#2C3D7C">
      <circle cx="0" cy="0" r="0.75" class="primitive"/>
    </g>
    <g transform="translate(55.34,114.77)" fill="#2AD6CB">
      <circle cx="0" cy="0" r="0.75" class="primitive"/>
    </g>
    <g transform="translate(55.28,112.98)" fill="#2C3D7C">
      <circle cx="0" cy="0" r="0.75" class="primitive"/>
    </g>
    <g transform="translate(78.75,118.35)" fill="#2AD6CB">
      <circle cx="0" cy="0" r="0.75" class="primitive"/>
    </g>
    <g transform="translate(70.17,120.74)" fill="#2C3D7C">
      <circle cx="0" cy="0" r="0.75" class="primitive"/>
    </g>
    <g transform="translate(69.66,119.55)" fill="#2C3D7C">
      <circle cx="0" cy="0" r="0.75" class="primitive"/>
    </g>
    <g transform="translate(65.72,123.13)" fill="#2C3D7C">
      <circle cx="0" cy="0" r="0.75" class="primitive"/>
    </g>
    <g transform="translate(64.45,125.52)" fill="#2AD6CB">
      <circle cx="0" cy="0" r="0.75" class="primitive"/>
    </g>
    <g transform="translate(67.29,127.91)" fill="#2C3D7C">
      <circle cx="0" cy="0" r="0.75" class="primitive"/>
    </g>
    <g transform="translate(64.28,126.71)" fill="#2AD6CB">
      <circle cx="0" cy="0" r="0.75" class="primitive"/>
    </g>
    <g transform="translate(63.96,124.92)" fill="#2C3D7C">
      <circle cx="0" cy="0" r="0.75" class="primitive"/>
    </g>
    <g transform="translate(56.25,122.24)" fill="#2C3D7C">
      <circle cx="0" cy="0" r="0.75" class="primitive"/>
    </g>
    <g transform="translate(47.56,117.61)" fill="#2C3D7C">
      <circle cx="0" cy="0" r="0.75" class="primitive"/>
    </g>
    <g transform="translate(42.75,109.55)" fill="#2AD6CB">
      <circle cx="0" cy="0" r="0.75" class="primitive"/>
    </g>
    <g transform="translate(35.91,101.71)" fill="#2AD6CB">
      <circle cx="0" cy="0" r="0.75" class="primitive"/>
    </g>
    <g transform="translate(29.26,95.1)" fill="#2C3D7C">
      <circle cx="0" cy="0" r="0.75" class="primitive"/>
    </g>
    <g transform="translate(27.47,85.31)" fill="#2C3D7C">
      <circle cx="0" cy="0" r="0.75" class="primitive"/>
    </g>
    <g transform="translate(27.41,76.15)" fill="#2C3D7C">
      <circle cx="0" cy="0" r="0.75" class="primitive"/>
    </g>
  </g>
</g>
<g stroke-opacity="1" fill-opacity="1" font-size="1.41" stroke-width="0.1" id="img-29b4c979-8">
  <g transform="translate(19.48,6.09)" stroke="#000000">
    <g class="primitive">
      <text dy="0.35em">N51</text>
    </g>
  </g>
  <g transform="translate(19.66,8.48)" stroke="#000000">
    <g class="primitive">
      <text dy="0.35em">N0</text>
    </g>
  </g>
  <g transform="translate(19.4,7.29)" stroke="#000000">
    <g class="primitive">
      <text dy="0.35em">N67</text>
    </g>
  </g>
  <g transform="translate(12.9,10.87)" stroke="#000000">
    <g class="primitive">
      <text dy="0.35em">N3</text>
    </g>
  </g>
  <g transform="translate(38.08,13.26)" stroke="#000000">
    <g class="primitive">
      <text dy="0.35em">N50</text>
    </g>
  </g>
  <g transform="translate(48.16,15.65)" stroke="#000000">
    <g class="primitive">
      <text dy="0.35em">N43</text>
    </g>
  </g>
  <g transform="translate(37.81,14.45)" stroke="#000000">
    <g class="primitive">
      <text dy="0.35em">N71</text>
    </g>
  </g>
  <g transform="translate(11.24,12.66)" stroke="#000000">
    <g class="primitive">
      <text dy="0.35em">N82</text>
    </g>
  </g>
  <g transform="translate(9.38,9.97)" stroke="#000000">
    <g class="primitive">
      <text dy="0.35em">N97</text>
    </g>
  </g>
  <g transform="translate(19.55,18.03)" stroke="#000000">
    <g class="primitive">
      <text dy="0.35em">N47</text>
    </g>
  </g>
  <g transform="translate(32.78,20.42)" stroke="#000000">
    <g class="primitive">
      <text dy="0.35em">N30</text>
    </g>
  </g>
  <g transform="translate(31.84,22.81)" stroke="#000000">
    <g class="primitive">
      <text dy="0.35em">N27</text>
    </g>
  </g>
  <g transform="translate(48.09,25.2)" stroke="#000000">
    <g class="primitive">
      <text dy="0.35em">N26</text>
    </g>
  </g>
  <g transform="translate(30.67,24.01)" stroke="#000000">
    <g class="primitive">
      <text dy="0.35em">N68</text>
    </g>
  </g>
  <g transform="translate(26.7,22.21)" stroke="#000000">
    <g class="primitive">
      <text dy="0.35em">N70</text>
    </g>
  </g>
  <g transform="translate(16.15,20.12)" stroke="#000000">
    <g class="primitive">
      <text dy="0.35em">N88</text>
    </g>
  </g>
  <g transform="translate(16.68,27.59)" stroke="#000000">
    <g class="primitive">
      <text dy="0.35em">N15</text>
    </g>
  </g>
  <g transform="translate(18.72,29.98)" stroke="#000000">
    <g class="primitive">
      <text dy="0.35em">N2</text>
    </g>
  </g>
  <g transform="translate(16.15,28.78)" stroke="#000000">
    <g class="primitive">
      <text dy="0.35em">N62</text>
    </g>
  </g>
  <g transform="translate(25.54,32.37)" stroke="#000000">
    <g class="primitive">
      <text dy="0.35em">N35</text>
    </g>
  </g>
  <g transform="translate(31.46,34.75)" stroke="#000000">
    <g class="primitive">
      <text dy="0.35em">N6</text>
    </g>
  </g>
  <g transform="translate(23.59,33.56)" stroke="#000000">
    <g class="primitive">
      <text dy="0.35em">N54</text>
    </g>
  </g>
  <g transform="translate(31.95,37.14)" stroke="#000000">
    <g class="primitive">
      <text dy="0.35em">N16</text>
    </g>
  </g>
  <g transform="translate(26.15,39.53)" stroke="#000000">
    <g class="primitive">
      <text dy="0.35em">N37</text>
    </g>
  </g>
  <g transform="translate(25.99,38.34)" stroke="#000000">
    <g class="primitive">
      <text dy="0.35em">N55</text>
    </g>
  </g>
  <g transform="translate(18.55,35.95)" stroke="#000000">
    <g class="primitive">
      <text dy="0.35em">N85</text>
    </g>
  </g>
  <g transform="translate(15.52,32.37)" stroke="#000000">
    <g class="primitive">
      <text dy="0.35em">N98</text>
    </g>
  </g>
  <g transform="translate(37.44,41.92)" stroke="#000000">
    <g class="primitive">
      <text dy="0.35em">N41</text>
    </g>
  </g>
  <g transform="translate(29.89,44.31)" stroke="#000000">
    <g class="primitive">
      <text dy="0.35em">N13</text>
    </g>
  </g>
  <g transform="translate(29.01,43.11)" stroke="#000000">
    <g class="primitive">
      <text dy="0.35em">N56</text>
    </g>
  </g>
  <g transform="translate(23,46.7)" stroke="#000000">
    <g class="primitive">
      <text dy="0.35em">N28</text>
    </g>
  </g>
  <g transform="translate(26.51,49.09)" stroke="#000000">
    <g class="primitive">
      <text dy="0.35em">N40</text>
    </g>
  </g>
  <g transform="translate(26.22,51.47)" stroke="#000000">
    <g class="primitive">
      <text dy="0.35em">N5</text>
    </g>
  </g>
  <g transform="translate(28.63,53.86)" stroke="#000000">
    <g class="primitive">
      <text dy="0.35em">N34</text>
    </g>
  </g>
  <g transform="translate(31.64,56.25)" stroke="#000000">
    <g class="primitive">
      <text dy="0.35em">N32</text>
    </g>
  </g>
  <g transform="translate(28.47,55.06)" stroke="#000000">
    <g class="primitive">
      <text dy="0.35em">N52</text>
    </g>
  </g>
  <g transform="translate(25.18,53.27)" stroke="#000000">
    <g class="primitive">
      <text dy="0.35em">N53</text>
    </g>
  </g>
  <g transform="translate(23.23,51.18)" stroke="#000000">
    <g class="primitive">
      <text dy="0.35em">N66</text>
    </g>
  </g>
  <g transform="translate(22.3,48.94)" stroke="#000000">
    <g class="primitive">
      <text dy="0.35em">N79</text>
    </g>
  </g>
  <g transform="translate(18.57,46.03)" stroke="#000000">
    <g class="primitive">
      <text dy="0.35em">N80</text>
    </g>
  </g>
  <g transform="translate(10.67,39.2)" stroke="#000000">
    <g class="primitive">
      <text dy="0.35em">N99</text>
    </g>
  </g>
  <g transform="translate(6.79,29.66)" stroke="#000000">
    <g class="primitive">
      <text dy="0.35em">N100</text>
    </g>
  </g>
  <g transform="translate(5.63,19.82)" stroke="#000000">
    <g class="primitive">
      <text dy="0.35em"></text>
    </g>
  </g>
  <g transform="translate(21.35,58.64)" stroke="#000000">
    <g class="primitive">
      <text dy="0.35em">N22</text>
    </g>
  </g>
  <g transform="translate(25.71,61.03)" stroke="#000000">
    <g class="primitive">
      <text dy="0.35em">N12</text>
    </g>
  </g>
  <g transform="translate(19.94,63.42)" stroke="#000000">
    <g class="primitive">
      <text dy="0.35em">N39</text>
    </g>
  </g>
  <g transform="translate(18.95,62.22)" stroke="#000000">
    <g class="primitive">
      <text dy="0.35em">N90</text>
    </g>
  </g>
  <g transform="translate(18.91,60.43)" stroke="#000000">
    <g class="primitive">
      <text dy="0.35em">N91</text>
    </g>
  </g>
  <g transform="translate(34.04,65.81)" stroke="#000000">
    <g class="primitive">
      <text dy="0.35em">N20</text>
    </g>
  </g>
  <g transform="translate(38.36,68.19)" stroke="#000000">
    <g class="primitive">
      <text dy="0.35em">N1</text>
    </g>
  </g>
  <g transform="translate(29.73,67)" stroke="#000000">
    <g class="primitive">
      <text dy="0.35em">N75</text>
    </g>
  </g>
  <g stroke-opacity="1" fill-opacity="1" font-size="1.41" stroke-width="0.1" id="img-29b4c979-9">
    <g transform="translate(29.28,76.15)" stroke="#000000">
      <g class="primitive">
        <text dy="0.35em">N95</text>
      </g>
    </g>
    <g transform="translate(11.43,68.29)" stroke="#000000">
      <g class="primitive">
        <text dy="0.35em">N96</text>
      </g>
    </g>
    <g transform="translate(5.63,44.05)" stroke="#000000">
      <g class="primitive">
        <text dy="0.35em"></text>
      </g>
    </g>
  </g>
  <g stroke-opacity="1" fill-opacity="1" font-size="1.41" stroke-width="0.1" id="img-29b4c979-10">
    <g transform="translate(29.73,67)" stroke="#000000">
      <g class="primitive">
        <text dy="0.35em">N75</text>
      </g>
    </g>
    <g transform="translate(35.5,70.58)" stroke="#000000">
      <g class="primitive">
        <text dy="0.35em">N10</text>
      </g>
    </g>
    <g transform="translate(36.94,72.97)" stroke="#000000">
      <g class="primitive">
        <text dy="0.35em">N36</text>
      </g>
    </g>
    <g transform="translate(34.69,71.78)" stroke="#000000">
      <g class="primitive">
        <text dy="0.35em">N83</text>
      </g>
    </g>
    <g transform="translate(38.96,75.36)" stroke="#000000">
      <g class="primitive">
        <text dy="0.35em">N8</text>
      </g>
    </g>
    <g transform="translate(39.01,77.75)" stroke="#000000">
      <g class="primitive">
        <text dy="0.35em">N23</text>
      </g>
    </g>
    <g transform="translate(36.24,76.55)" stroke="#000000">
      <g class="primitive">
        <text dy="0.35em">N61</text>
      </g>
    </g>
    <g transform="translate(37.16,80.14)" stroke="#000000">
      <g class="primitive">
        <text dy="0.35em">N18</text>
      </g>
    </g>
    <g transform="translate(35.96,82.53)" stroke="#000000">
      <g class="primitive">
        <text dy="0.35em">N42</text>
      </g>
    </g>
    <g transform="translate(38.39,84.91)" stroke="#000000">
      <g class="primitive">
        <text dy="0.35em">N38</text>
      </g>
    </g>
    <g transform="translate(35.15,83.72)" stroke="#000000">
      <g class="primitive">
        <text dy="0.35em">N57</text>
      </g>
    </g>
    <g transform="translate(32.85,81.93)" stroke="#000000">
      <g class="primitive">
        <text dy="0.35em">N58</text>
      </g>
    </g>
    <g transform="translate(31.75,79.24)" stroke="#000000">
      <g class="primitive">
        <text dy="0.35em">N78</text>
      </g>
    </g>
    <g transform="translate(29.58,75.51)" stroke="#000000">
      <g class="primitive">
        <text dy="0.35em">N86</text>
      </g>
    </g>
    <g transform="translate(34.54,87.3)" stroke="#000000">
      <g class="primitive">
        <text dy="0.35em">N17</text>
      </g>
    </g>
    <g transform="translate(33.35,89.69)" stroke="#000000">
      <g class="primitive">
        <text dy="0.35em">N11</text>
      </g>
    </g>
    <g transform="translate(32.97,88.5)" stroke="#000000">
      <g class="primitive">
        <text dy="0.35em">N60</text>
      </g>
    </g>
    <g transform="translate(44.76,92.08)" stroke="#000000">
      <g class="primitive">
        <text dy="0.35em">N25</text>
      </g>
    </g>
    <g transform="translate(50.64,94.47)" stroke="#000000">
      <g class="primitive">
        <text dy="0.35em">N29</text>
      </g>
    </g>
    <g transform="translate(47.86,96.86)" stroke="#000000">
      <g class="primitive">
        <text dy="0.35em">N7</text>
      </g>
    </g>
    <g transform="translate(40.31,95.66)" stroke="#000000">
      <g class="primitive">
        <text dy="0.35em">N69</text>
      </g>
    </g>
    <g transform="translate(37.88,93.87)" stroke="#000000">
      <g class="primitive">
        <text dy="0.35em">N72</text>
      </g>
    </g>
    <g transform="translate(52.36,99.25)" stroke="#000000">
      <g class="primitive">
        <text dy="0.35em">N4</text>
      </g>
    </g>
    <g transform="translate(53.22,101.63)" stroke="#000000">
      <g class="primitive">
        <text dy="0.35em">N31</text>
      </g>
    </g>
    <g transform="translate(50.76,104.02)" stroke="#000000">
      <g class="primitive">
        <text dy="0.35em">N24</text>
      </g>
    </g>
    <g transform="translate(52.67,106.41)" stroke="#000000">
      <g class="primitive">
        <text dy="0.35em">N21</text>
      </g>
    </g>
    <g transform="translate(54.61,108.8)" stroke="#000000">
      <g class="primitive">
        <text dy="0.35em">N44</text>
      </g>
    </g>
    <g transform="translate(51.15,107.61)" stroke="#000000">
      <g class="primitive">
        <text dy="0.35em">N76</text>
      </g>
    </g>
    <g transform="translate(48.39,105.81)" stroke="#000000">
      <g class="primitive">
        <text dy="0.35em">N77</text>
      </g>
    </g>
    <g transform="translate(46.35,103.72)" stroke="#000000">
      <g class="primitive">
        <text dy="0.35em">N84</text>
      </g>
    </g>
    <g transform="translate(46.15,101.49)" stroke="#000000">
      <g class="primitive">
        <text dy="0.35em">N87</text>
      </g>
    </g>
    <g transform="translate(57.54,111.19)" stroke="#000000">
      <g class="primitive">
        <text dy="0.35em">N14</text>
      </g>
    </g>
    <g transform="translate(65.08,113.58)" stroke="#000000">
      <g class="primitive">
        <text dy="0.35em">N49</text>
      </g>
    </g>
    <g transform="translate(58.4,115.97)" stroke="#000000">
      <g class="primitive">
        <text dy="0.35em">N48</text>
      </g>
    </g>
    <g transform="translate(57.21,114.77)" stroke="#000000">
      <g class="primitive">
        <text dy="0.35em">N64</text>
      </g>
    </g>
    <g transform="translate(57.16,112.98)" stroke="#000000">
      <g class="primitive">
        <text dy="0.35em">N74</text>
      </g>
    </g>
    <g transform="translate(80.62,118.35)" stroke="#000000">
      <g class="primitive">
        <text dy="0.35em">N19</text>
      </g>
    </g>
    <g transform="translate(72.05,120.74)" stroke="#000000">
      <g class="primitive">
        <text dy="0.35em">N45</text>
      </g>
    </g>
    <g transform="translate(71.54,119.55)" stroke="#000000">
      <g class="primitive">
        <text dy="0.35em">N63</text>
      </g>
    </g>
    <g transform="translate(67.59,123.13)" stroke="#000000">
      <g class="primitive">
        <text dy="0.35em">N46</text>
      </g>
    </g>
    <g transform="translate(66.32,125.52)" stroke="#000000">
      <g class="primitive">
        <text dy="0.35em">N9</text>
      </g>
    </g>
    <g transform="translate(69.17,127.91)" stroke="#000000">
      <g class="primitive">
        <text dy="0.35em">N33</text>
      </g>
    </g>
    <g transform="translate(66.16,126.71)" stroke="#000000">
      <g class="primitive">
        <text dy="0.35em">N59</text>
      </g>
    </g>
    <g transform="translate(65.83,124.92)" stroke="#000000">
      <g class="primitive">
        <text dy="0.35em">N65</text>
      </g>
    </g>
    <g transform="translate(58.12,122.24)" stroke="#000000">
      <g class="primitive">
        <text dy="0.35em">N73</text>
      </g>
    </g>
    <g transform="translate(49.43,117.61)" stroke="#000000">
      <g class="primitive">
        <text dy="0.35em">N81</text>
      </g>
    </g>
    <g transform="translate(44.63,109.55)" stroke="#000000">
      <g class="primitive">
        <text dy="0.35em">N89</text>
      </g>
    </g>
    <g transform="translate(37.79,101.71)" stroke="#000000">
      <g class="primitive">
        <text dy="0.35em">N92</text>
      </g>
    </g>
    <g transform="translate(31.13,95.1)" stroke="#000000">
      <g class="primitive">
        <text dy="0.35em">N93</text>
      </g>
    </g>
    <g transform="translate(29.35,85.31)" stroke="#000000">
      <g class="primitive">
        <text dy="0.35em">N94</text>
      </g>
    </g>
    <g transform="translate(29.28,76.15)" stroke="#000000">
      <g class="primitive">
        <text dy="0.35em">N95</text>
      </g>
    </g>
  </g>
</g>
</svg>
