<?xml version="1.0" encoding="utf-8"?>
<svg xmlns="http://www.w3.org/2000/svg" xmlns:xlink="http://www.w3.org/1999/xlink" width="700" height="300" viewBox="0 0 2800 1200">
<defs>
  <clipPath id="clip180">
    <rect x="0" y="0" width="2800" height="1200"/>
  </clipPath>
</defs>
<path clip-path="url(#clip180)" d="M0 1200 L2800 1200 L2800 0 L0 0  Z" fill="#ffffff" fill-rule="evenodd" fill-opacity="1"/>
<defs>
  <clipPath id="clip181">
    <rect x="560" y="0" width="1961" height="1200"/>
  </clipPath>
</defs>
<path clip-path="url(#clip180)" d="M256.963 1055.55 L2705.51 1055.55 L2705.51 94.4882 L256.963 94.4882  Z" fill="#ffffff" fill-rule="evenodd" fill-opacity="1"/>
<defs>
  <clipPath id="clip182">
    <rect x="256" y="94" width="2450" height="962"/>
  </clipPath>
</defs>
<polyline clip-path="url(#clip182)" style="stroke:#000000; stroke-linecap:round; stroke-linejoin:round; stroke-width:2; stroke-opacity:0.1; fill:none" points="325.277,1055.55 325.277,94.4882 "/>
<polyline clip-path="url(#clip182)" style="stroke:#000000; stroke-linecap:round; stroke-linejoin:round; stroke-width:2; stroke-opacity:0.1; fill:none" points="817.594,1055.55 817.594,94.4882 "/>
<polyline clip-path="url(#clip182)" style="stroke:#000000; stroke-linecap:round; stroke-linejoin:round; stroke-width:2; stroke-opacity:0.1; fill:none" points="1309.91,1055.55 1309.91,94.4882 "/>
<polyline clip-path="url(#clip182)" style="stroke:#000000; stroke-linecap:round; stroke-linejoin:round; stroke-width:2; stroke-opacity:0.1; fill:none" points="1802.23,1055.55 1802.23,94.4882 "/>
<polyline clip-path="url(#clip182)" style="stroke:#000000; stroke-linecap:round; stroke-linejoin:round; stroke-width:2; stroke-opacity:0.1; fill:none" points="2294.55,1055.55 2294.55,94.4882 "/>
<polyline clip-path="url(#clip180)" style="stroke:#000000; stroke-linecap:round; stroke-linejoin:round; stroke-width:4; stroke-opacity:1; fill:none" points="256.963,1055.55 2705.51,1055.55 "/>
<polyline clip-path="url(#clip180)" style="stroke:#000000; stroke-linecap:round; stroke-linejoin:round; stroke-width:4; stroke-opacity:1; fill:none" points="325.277,1055.55 325.277,1036.65 "/>
<polyline clip-path="url(#clip180)" style="stroke:#000000; stroke-linecap:round; stroke-linejoin:round; stroke-width:4; stroke-opacity:1; fill:none" points="817.594,1055.55 817.594,1036.65 "/>
<polyline clip-path="url(#clip180)" style="stroke:#000000; stroke-linecap:round; stroke-linejoin:round; stroke-width:4; stroke-opacity:1; fill:none" points="1309.91,1055.55 1309.91,1036.65 "/>
<polyline clip-path="url(#clip180)" style="stroke:#000000; stroke-linecap:round; stroke-linejoin:round; stroke-width:4; stroke-opacity:1; fill:none" points="1802.23,1055.55 1802.23,1036.65 "/>
<polyline clip-path="url(#clip180)" style="stroke:#000000; stroke-linecap:round; stroke-linejoin:round; stroke-width:4; stroke-opacity:1; fill:none" points="2294.55,1055.55 2294.55,1036.65 "/>
<path clip-path="url(#clip180)" d="M325.277 1089.67 Q321.666 1089.67 319.837 1093.23 Q318.032 1096.77 318.032 1103.9 Q318.032 1111.01 319.837 1114.57 Q321.666 1118.11 325.277 1118.11 Q328.911 1118.11 330.717 1114.57 Q332.545 1111.01 332.545 1103.9 Q332.545 1096.77 330.717 1093.23 Q328.911 1089.67 325.277 1089.67 M325.277 1085.96 Q331.087 1085.96 334.143 1090.57 Q337.221 1095.15 337.221 1103.9 Q337.221 1112.63 334.143 1117.23 Q331.087 1121.82 325.277 1121.82 Q319.467 1121.82 316.388 1117.23 Q313.333 1112.63 313.333 1103.9 Q313.333 1095.15 316.388 1090.57 Q319.467 1085.96 325.277 1085.96 Z" fill="#000000" fill-rule="nonzero" fill-opacity="1" /><path clip-path="url(#clip180)" d="M777.212 1086.59 L795.569 1086.59 L795.569 1090.52 L781.495 1090.52 L781.495 1098.99 Q782.513 1098.65 783.532 1098.48 Q784.55 1098.3 785.569 1098.3 Q791.356 1098.3 794.735 1101.47 Q798.115 1104.64 798.115 1110.06 Q798.115 1115.64 794.643 1118.74 Q791.171 1121.82 784.851 1121.82 Q782.675 1121.82 780.407 1121.45 Q778.161 1121.08 775.754 1120.34 L775.754 1115.64 Q777.837 1116.77 780.059 1117.33 Q782.282 1117.88 784.759 1117.88 Q788.763 1117.88 791.101 1115.78 Q793.439 1113.67 793.439 1110.06 Q793.439 1106.45 791.101 1104.34 Q788.763 1102.23 784.759 1102.23 Q782.884 1102.23 781.009 1102.65 Q779.157 1103.07 777.212 1103.95 L777.212 1086.59 Z" fill="#000000" fill-rule="nonzero" fill-opacity="1" /><path clip-path="url(#clip180)" d="M817.328 1089.67 Q813.717 1089.67 811.888 1093.23 Q810.082 1096.77 810.082 1103.9 Q810.082 1111.01 811.888 1114.57 Q813.717 1118.11 817.328 1118.11 Q820.962 1118.11 822.768 1114.57 Q824.596 1111.01 824.596 1103.9 Q824.596 1096.77 822.768 1093.23 Q820.962 1089.67 817.328 1089.67 M817.328 1085.96 Q823.138 1085.96 826.193 1090.57 Q829.272 1095.15 829.272 1103.9 Q829.272 1112.63 826.193 1117.23 Q823.138 1121.82 817.328 1121.82 Q811.518 1121.82 808.439 1117.23 Q805.383 1112.63 805.383 1103.9 Q805.383 1095.15 808.439 1090.57 Q811.518 1085.96 817.328 1085.96 Z" fill="#000000" fill-rule="nonzero" fill-opacity="1" /><path clip-path="url(#clip180)" d="M847.49 1089.67 Q843.879 1089.67 842.05 1093.23 Q840.244 1096.77 840.244 1103.9 Q840.244 1111.01 842.05 1114.57 Q843.879 1118.11 847.49 1118.11 Q851.124 1118.11 852.929 1114.57 Q854.758 1111.01 854.758 1103.9 Q854.758 1096.77 852.929 1093.23 Q851.124 1089.67 847.49 1089.67 M847.49 1085.96 Q853.3 1085.96 856.355 1090.57 Q859.434 1095.15 859.434 1103.9 Q859.434 1112.63 856.355 1117.23 Q853.3 1121.82 847.49 1121.82 Q841.68 1121.82 838.601 1117.23 Q835.545 1112.63 835.545 1103.9 Q835.545 1095.15 838.601 1090.57 Q841.68 1085.96 847.49 1085.96 Z" fill="#000000" fill-rule="nonzero" fill-opacity="1" /><path clip-path="url(#clip180)" d="M1254.44 1117.21 L1262.08 1117.21 L1262.08 1090.85 L1253.77 1092.51 L1253.77 1088.25 L1262.03 1086.59 L1266.71 1086.59 L1266.71 1117.21 L1274.34 1117.21 L1274.34 1121.15 L1254.44 1121.15 L1254.44 1117.21 Z" fill="#000000" fill-rule="nonzero" fill-opacity="1" /><path clip-path="url(#clip180)" d="M1293.79 1089.67 Q1290.18 1089.67 1288.35 1093.23 Q1286.54 1096.77 1286.54 1103.9 Q1286.54 1111.01 1288.35 1114.57 Q1290.18 1118.11 1293.79 1118.11 Q1297.42 1118.11 1299.23 1114.57 Q1301.06 1111.01 1301.06 1103.9 Q1301.06 1096.77 1299.23 1093.23 Q1297.42 1089.67 1293.79 1089.67 M1293.79 1085.96 Q1299.6 1085.96 1302.65 1090.57 Q1305.73 1095.15 1305.73 1103.9 Q1305.73 1112.63 1302.65 1117.23 Q1299.6 1121.82 1293.79 1121.82 Q1287.98 1121.82 1284.9 1117.23 Q1281.84 1112.63 1281.84 1103.9 Q1281.84 1095.15 1284.9 1090.57 Q1287.98 1085.96 1293.79 1085.96 Z" fill="#000000" fill-rule="nonzero" fill-opacity="1" /><path clip-path="url(#clip180)" d="M1323.95 1089.67 Q1320.34 1089.67 1318.51 1093.23 Q1316.71 1096.77 1316.71 1103.9 Q1316.71 1111.01 1318.51 1114.57 Q1320.34 1118.11 1323.95 1118.11 Q1327.58 1118.11 1329.39 1114.57 Q1331.22 1111.01 1331.22 1103.9 Q1331.22 1096.77 1329.39 1093.23 Q1327.58 1089.67 1323.95 1089.67 M1323.95 1085.96 Q1329.76 1085.96 1332.82 1090.57 Q1335.89 1095.15 1335.89 1103.9 Q1335.89 1112.63 1332.82 1117.23 Q1329.76 1121.82 1323.95 1121.82 Q1318.14 1121.82 1315.06 1117.23 Q1312.01 1112.63 1312.01 1103.9 Q1312.01 1095.15 1315.06 1090.57 Q1318.14 1085.96 1323.95 1085.96 Z" fill="#000000" fill-rule="nonzero" fill-opacity="1" /><path clip-path="url(#clip180)" d="M1354.11 1089.67 Q1350.5 1089.67 1348.67 1093.23 Q1346.87 1096.77 1346.87 1103.9 Q1346.87 1111.01 1348.67 1114.57 Q1350.5 1118.11 1354.11 1118.11 Q1357.75 1118.11 1359.55 1114.57 Q1361.38 1111.01 1361.38 1103.9 Q1361.38 1096.77 1359.55 1093.23 Q1357.75 1089.67 1354.11 1089.67 M1354.11 1085.96 Q1359.92 1085.96 1362.98 1090.57 Q1366.06 1095.15 1366.06 1103.9 Q1366.06 1112.63 1362.98 1117.23 Q1359.92 1121.82 1354.11 1121.82 Q1348.3 1121.82 1345.22 1117.23 Q1342.17 1112.63 1342.17 1103.9 Q1342.17 1095.15 1345.22 1090.57 Q1348.3 1085.96 1354.11 1085.96 Z" fill="#000000" fill-rule="nonzero" fill-opacity="1" /><path clip-path="url(#clip180)" d="M1746.75 1117.21 L1754.39 1117.21 L1754.39 1090.85 L1746.08 1092.51 L1746.08 1088.25 L1754.35 1086.59 L1759.02 1086.59 L1759.02 1117.21 L1766.66 1117.21 L1766.66 1121.15 L1746.75 1121.15 L1746.75 1117.21 Z" fill="#000000" fill-rule="nonzero" fill-opacity="1" /><path clip-path="url(#clip180)" d="M1776.15 1086.59 L1794.51 1086.59 L1794.51 1090.52 L1780.43 1090.52 L1780.43 1098.99 Q1781.45 1098.65 1782.47 1098.48 Q1783.49 1098.3 1784.51 1098.3 Q1790.3 1098.3 1793.67 1101.47 Q1797.05 1104.64 1797.05 1110.06 Q1797.05 1115.64 1793.58 1118.74 Q1790.11 1121.82 1783.79 1121.82 Q1781.61 1121.82 1779.35 1121.45 Q1777.1 1121.08 1774.69 1120.34 L1774.69 1115.64 Q1776.78 1116.77 1779 1117.33 Q1781.22 1117.88 1783.7 1117.88 Q1787.7 1117.88 1790.04 1115.78 Q1792.38 1113.67 1792.38 1110.06 Q1792.38 1106.45 1790.04 1104.34 Q1787.7 1102.23 1783.7 1102.23 Q1781.82 1102.23 1779.95 1102.65 Q1778.1 1103.07 1776.15 1103.95 L1776.15 1086.59 Z" fill="#000000" fill-rule="nonzero" fill-opacity="1" /><path clip-path="url(#clip180)" d="M1816.27 1089.67 Q1812.66 1089.67 1810.83 1093.23 Q1809.02 1096.77 1809.02 1103.9 Q1809.02 1111.01 1810.83 1114.57 Q1812.66 1118.11 1816.27 1118.11 Q1819.9 1118.11 1821.71 1114.57 Q1823.54 1111.01 1823.54 1103.9 Q1823.54 1096.77 1821.71 1093.23 Q1819.9 1089.67 1816.27 1089.67 M1816.27 1085.96 Q1822.08 1085.96 1825.13 1090.57 Q1828.21 1095.15 1828.21 1103.9 Q1828.21 1112.63 1825.13 1117.23 Q1822.08 1121.82 1816.27 1121.82 Q1810.46 1121.82 1807.38 1117.23 Q1804.32 1112.63 1804.32 1103.9 Q1804.32 1095.15 1807.38 1090.57 Q1810.46 1085.96 1816.27 1085.96 Z" fill="#000000" fill-rule="nonzero" fill-opacity="1" /><path clip-path="url(#clip180)" d="M1846.43 1089.67 Q1842.82 1089.67 1840.99 1093.23 Q1839.18 1096.77 1839.18 1103.9 Q1839.18 1111.01 1840.99 1114.57 Q1842.82 1118.11 1846.43 1118.11 Q1850.06 1118.11 1851.87 1114.57 Q1853.7 1111.01 1853.7 1103.9 Q1853.7 1096.77 1851.87 1093.23 Q1850.06 1089.67 1846.43 1089.67 M1846.43 1085.96 Q1852.24 1085.96 1855.29 1090.57 Q1858.37 1095.15 1858.37 1103.9 Q1858.37 1112.63 1855.29 1117.23 Q1852.24 1121.82 1846.43 1121.82 Q1840.62 1121.82 1837.54 1117.23 Q1834.48 1112.63 1834.48 1103.9 Q1834.48 1095.15 1837.54 1090.57 Q1840.62 1085.96 1846.43 1085.96 Z" fill="#000000" fill-rule="nonzero" fill-opacity="1" /><path clip-path="url(#clip180)" d="M2243.16 1117.21 L2259.48 1117.21 L2259.48 1121.15 L2237.53 1121.15 L2237.53 1117.21 Q2240.19 1114.46 2244.78 1109.83 Q2249.38 1105.17 2250.56 1103.83 Q2252.81 1101.31 2253.69 1099.57 Q2254.59 1097.81 2254.59 1096.12 Q2254.59 1093.37 2252.65 1091.63 Q2250.73 1089.9 2247.62 1089.9 Q2245.43 1089.9 2242.97 1090.66 Q2240.54 1091.42 2237.76 1092.98 L2237.76 1088.25 Q2240.59 1087.12 2243.04 1086.54 Q2245.49 1085.96 2247.53 1085.96 Q2252.9 1085.96 2256.1 1088.65 Q2259.29 1091.33 2259.29 1095.82 Q2259.29 1097.95 2258.48 1099.87 Q2257.69 1101.77 2255.59 1104.36 Q2255.01 1105.04 2251.91 1108.25 Q2248.8 1111.45 2243.16 1117.21 Z" fill="#000000" fill-rule="nonzero" fill-opacity="1" /><path clip-path="url(#clip180)" d="M2279.29 1089.67 Q2275.68 1089.67 2273.85 1093.23 Q2272.05 1096.77 2272.05 1103.9 Q2272.05 1111.01 2273.85 1114.57 Q2275.68 1118.11 2279.29 1118.11 Q2282.92 1118.11 2284.73 1114.57 Q2286.56 1111.01 2286.56 1103.9 Q2286.56 1096.77 2284.73 1093.23 Q2282.92 1089.67 2279.29 1089.67 M2279.29 1085.96 Q2285.1 1085.96 2288.16 1090.57 Q2291.24 1095.15 2291.24 1103.9 Q2291.24 1112.63 2288.16 1117.23 Q2285.1 1121.82 2279.29 1121.82 Q2273.48 1121.82 2270.4 1117.23 Q2267.35 1112.63 2267.35 1103.9 Q2267.35 1095.15 2270.4 1090.57 Q2273.48 1085.96 2279.29 1085.96 Z" fill="#000000" fill-rule="nonzero" fill-opacity="1" /><path clip-path="url(#clip180)" d="M2309.45 1089.67 Q2305.84 1089.67 2304.01 1093.23 Q2302.21 1096.77 2302.21 1103.9 Q2302.21 1111.01 2304.01 1114.57 Q2305.84 1118.11 2309.45 1118.11 Q2313.09 1118.11 2314.89 1114.57 Q2316.72 1111.01 2316.72 1103.9 Q2316.72 1096.77 2314.89 1093.23 Q2313.09 1089.67 2309.45 1089.67 M2309.45 1085.96 Q2315.26 1085.96 2318.32 1090.57 Q2321.4 1095.15 2321.4 1103.9 Q2321.4 1112.63 2318.32 1117.23 Q2315.26 1121.82 2309.45 1121.82 Q2303.64 1121.82 2300.56 1117.23 Q2297.51 1112.63 2297.51 1103.9 Q2297.51 1095.15 2300.56 1090.57 Q2303.64 1085.96 2309.45 1085.96 Z" fill="#000000" fill-rule="nonzero" fill-opacity="1" /><path clip-path="url(#clip180)" d="M2339.61 1089.67 Q2336 1089.67 2334.17 1093.23 Q2332.37 1096.77 2332.37 1103.9 Q2332.37 1111.01 2334.17 1114.57 Q2336 1118.11 2339.61 1118.11 Q2343.25 1118.11 2345.05 1114.57 Q2346.88 1111.01 2346.88 1103.9 Q2346.88 1096.77 2345.05 1093.23 Q2343.25 1089.67 2339.61 1089.67 M2339.61 1085.96 Q2345.42 1085.96 2348.48 1090.57 Q2351.56 1095.15 2351.56 1103.9 Q2351.56 1112.63 2348.48 1117.23 Q2345.42 1121.82 2339.61 1121.82 Q2333.8 1121.82 2330.73 1117.23 Q2327.67 1112.63 2327.67 1103.9 Q2327.67 1095.15 2330.73 1090.57 Q2333.8 1085.96 2339.61 1085.96 Z" fill="#000000" fill-rule="nonzero" fill-opacity="1" /><polyline clip-path="url(#clip182)" style="stroke:#000000; stroke-linecap:round; stroke-linejoin:round; stroke-width:2; stroke-opacity:0.1; fill:none" points="256.963,740.502 2705.51,740.502 "/>
<polyline clip-path="url(#clip182)" style="stroke:#000000; stroke-linecap:round; stroke-linejoin:round; stroke-width:2; stroke-opacity:0.1; fill:none" points="256.963,409.536 2705.51,409.536 "/>
<polyline clip-path="url(#clip180)" style="stroke:#000000; stroke-linecap:round; stroke-linejoin:round; stroke-width:4; stroke-opacity:1; fill:none" points="256.963,1055.55 256.963,94.4882 "/>
<polyline clip-path="url(#clip180)" style="stroke:#000000; stroke-linecap:round; stroke-linejoin:round; stroke-width:4; stroke-opacity:1; fill:none" points="256.963,740.502 275.861,740.502 "/>
<polyline clip-path="url(#clip180)" style="stroke:#000000; stroke-linecap:round; stroke-linejoin:round; stroke-width:4; stroke-opacity:1; fill:none" points="256.963,409.536 275.861,409.536 "/>
<path clip-path="url(#clip180)" d="M145.179 760.294 L152.818 760.294 L152.818 733.928 L144.508 735.595 L144.508 731.336 L152.771 729.669 L157.447 729.669 L157.447 760.294 L165.086 760.294 L165.086 764.229 L145.179 764.229 L145.179 760.294 Z" fill="#000000" fill-rule="nonzero" fill-opacity="1" /><path clip-path="url(#clip180)" d="M184.531 732.748 Q180.919 732.748 179.091 736.313 Q177.285 739.854 177.285 746.984 Q177.285 754.09 179.091 757.655 Q180.919 761.197 184.531 761.197 Q188.165 761.197 189.97 757.655 Q191.799 754.09 191.799 746.984 Q191.799 739.854 189.97 736.313 Q188.165 732.748 184.531 732.748 M184.531 729.044 Q190.341 729.044 193.396 733.651 Q196.475 738.234 196.475 746.984 Q196.475 755.711 193.396 760.317 Q190.341 764.9 184.531 764.9 Q178.72 764.9 175.642 760.317 Q172.586 755.711 172.586 746.984 Q172.586 738.234 175.642 733.651 Q178.72 729.044 184.531 729.044 Z" fill="#000000" fill-rule="nonzero" fill-opacity="1" /><path clip-path="url(#clip180)" d="M209.17 721.679 Q211.897 722.262 213.421 724.105 Q214.963 725.948 214.963 728.656 Q214.963 732.813 212.104 735.088 Q209.245 737.364 203.979 737.364 Q202.211 737.364 200.331 737.007 Q198.469 736.668 196.475 735.972 L196.475 732.305 Q198.055 733.226 199.936 733.697 Q201.816 734.167 203.866 734.167 Q207.44 734.167 209.302 732.756 Q211.183 731.346 211.183 728.656 Q211.183 726.174 209.434 724.782 Q207.703 723.371 204.6 723.371 L201.327 723.371 L201.327 720.249 L204.75 720.249 Q207.553 720.249 209.039 719.139 Q210.524 718.011 210.524 715.905 Q210.524 713.742 208.982 712.594 Q207.459 711.428 204.6 711.428 Q203.039 711.428 201.252 711.767 Q199.465 712.105 197.321 712.82 L197.321 709.435 Q199.484 708.833 201.365 708.532 Q203.265 708.231 204.938 708.231 Q209.264 708.231 211.784 710.206 Q214.305 712.162 214.305 715.51 Q214.305 717.842 212.969 719.459 Q211.634 721.058 209.17 721.679 Z" fill="#000000" fill-rule="nonzero" fill-opacity="1" /><path clip-path="url(#clip180)" d="M143.204 429.329 L150.843 429.329 L150.843 402.963 L142.533 404.63 L142.533 400.371 L150.797 398.704 L155.473 398.704 L155.473 429.329 L163.111 429.329 L163.111 433.264 L143.204 433.264 L143.204 429.329 Z" fill="#000000" fill-rule="nonzero" fill-opacity="1" /><path clip-path="url(#clip180)" d="M182.556 401.783 Q178.945 401.783 177.116 405.347 Q175.31 408.889 175.31 416.019 Q175.31 423.125 177.116 426.69 Q178.945 430.232 182.556 430.232 Q186.19 430.232 187.996 426.69 Q189.824 423.125 189.824 416.019 Q189.824 408.889 187.996 405.347 Q186.19 401.783 182.556 401.783 M182.556 398.079 Q188.366 398.079 191.421 402.685 Q194.5 407.269 194.5 416.019 Q194.5 424.745 191.421 429.352 Q188.366 433.935 182.556 433.935 Q176.746 433.935 173.667 429.352 Q170.611 424.745 170.611 416.019 Q170.611 407.269 173.667 402.685 Q176.746 398.079 182.556 398.079 Z" fill="#000000" fill-rule="nonzero" fill-opacity="1" /><path clip-path="url(#clip180)" d="M207.177 381.084 L197.585 396.073 L207.177 396.073 L207.177 381.084 M206.18 377.773 L210.957 377.773 L210.957 396.073 L214.963 396.073 L214.963 399.233 L210.957 399.233 L210.957 405.853 L207.177 405.853 L207.177 399.233 L194.5 399.233 L194.5 395.566 L206.18 377.773 Z" fill="#000000" fill-rule="nonzero" fill-opacity="1" /><path clip-path="url(#clip180)" d="M18.947 682.711 L18.947 676.855 L68.4722 676.855 L68.4722 682.711 L18.947 682.711 Z" fill="#000000" fill-rule="nonzero" fill-opacity="1" /><path clip-path="url(#clip180)" d="M36.9301 650.787 Q36.9301 655.498 40.6222 658.235 Q44.2825 660.972 50.68 660.972 Q57.0775 660.972 60.7696 658.267 Q64.4299 655.53 64.4299 650.787 Q64.4299 646.108 60.7378 643.371 Q57.0457 640.634 50.68 640.634 Q44.3461 640.634 40.654 643.371 Q36.9301 646.108 36.9301 650.787 M31.9648 650.787 Q31.9648 643.148 36.9301 638.788 Q41.8953 634.427 50.68 634.427 Q59.4328 634.427 64.4299 638.788 Q69.3952 643.148 69.3952 650.787 Q69.3952 658.458 64.4299 662.818 Q59.4328 667.147 50.68 667.147 Q41.8953 667.147 36.9301 662.818 Q31.9648 658.458 31.9648 650.787 Z" fill="#000000" fill-rule="nonzero" fill-opacity="1" /><path clip-path="url(#clip180)" d="M50.2344 601.262 Q43.8687 601.262 40.3676 603.904 Q36.8664 606.514 36.8664 611.256 Q36.8664 615.967 40.3676 618.608 Q43.8687 621.218 50.2344 621.218 Q56.5683 621.218 60.0694 618.608 Q63.5706 615.967 63.5706 611.256 Q63.5706 606.514 60.0694 603.904 Q56.5683 601.262 50.2344 601.262 M64.048 595.405 Q73.1509 595.405 77.5751 599.448 Q82.0311 603.49 82.0311 611.829 Q82.0311 614.916 81.5537 617.654 Q81.1081 620.391 80.1532 622.969 L74.4559 622.969 Q75.8564 620.391 76.5248 617.876 Q77.1932 615.362 77.1932 612.752 Q77.1932 606.991 74.1695 604.126 Q71.1776 601.262 65.0983 601.262 L62.2019 601.262 Q65.353 603.076 66.9126 605.909 Q68.4722 608.742 68.4722 612.688 Q68.4722 619.245 63.4751 623.255 Q58.478 627.266 50.2344 627.266 Q41.959 627.266 36.9619 623.255 Q31.9648 619.245 31.9648 612.688 Q31.9648 608.742 33.5244 605.909 Q35.084 603.076 38.235 601.262 L32.8242 601.262 L32.8242 595.405 L64.048 595.405 Z" fill="#000000" fill-rule="nonzero" fill-opacity="1" /><path clip-path="url(#clip180)" d="M60.3859 588.365 L58.9431 588.365 Q58.9431 582.82 55.9898 579.957 Q55.9898 579.167 56.1702 579.032 Q56.3505 578.897 57.1846 578.897 L83.0878 578.897 Q84.463 578.897 84.8913 578.221 Q85.3197 577.544 85.3197 574.591 L85.3197 573.126 L86.74 573.126 Q86.6047 574.749 86.6047 580.61 Q86.6047 586.472 86.74 588.072 L85.3197 588.072 L85.3197 586.607 Q85.3197 583.699 84.9139 583 Q84.4856 582.301 83.0878 582.301 L59.1685 582.301 Q60.3859 584.713 60.3859 588.365 Z" fill="#000000" fill-rule="nonzero" fill-opacity="1" /><path clip-path="url(#clip180)" d="M71.9736 570.843 Q65.1878 570.843 61.4906 569.13 Q55.9898 566.74 55.9898 561.104 Q55.9898 559.909 56.328 558.67 Q56.6436 557.407 57.8835 555.829 Q59.1234 554.228 61.1524 553.259 Q65.0751 551.41 71.9736 551.41 Q78.7143 551.41 82.389 553.124 Q87.7544 555.626 87.7544 561.149 Q87.7544 563.223 86.6949 565.343 Q85.6353 567.439 83.0878 568.769 Q79.2779 570.843 71.9736 570.843 M71.41 567.011 Q78.3761 567.011 81.149 566.515 Q84.1474 565.951 85.455 564.418 Q86.74 562.863 86.74 561.149 Q86.74 559.301 85.3648 557.768 Q83.967 556.212 80.9687 555.739 Q78.0154 555.22 71.41 555.243 Q64.9849 555.243 62.4149 555.694 Q59.4165 556.302 58.2217 557.926 Q57.0043 559.526 57.0043 561.149 Q57.0043 561.758 57.1846 562.412 Q57.365 563.043 57.8835 563.967 Q58.402 564.892 59.687 565.613 Q60.9721 566.312 62.9108 566.65 Q65.4132 567.011 71.41 567.011 Z" fill="#000000" fill-rule="nonzero" fill-opacity="1" /><path clip-path="url(#clip180)" d="M19.0106 526.334 Q26.3312 530.599 33.4926 532.668 Q40.654 534.737 48.0064 534.737 Q55.3588 534.737 62.5839 532.668 Q69.7771 530.567 77.0659 526.334 L77.0659 531.426 Q69.5862 536.201 62.3611 538.588 Q55.136 540.943 48.0064 540.943 Q40.9086 540.943 33.7154 538.588 Q26.5221 536.232 19.0106 531.426 L19.0106 526.334 Z" fill="#000000" fill-rule="nonzero" fill-opacity="1" /><path clip-path="url(#clip180)" d="M33.8745 492.245 L39.4127 492.245 Q38.1396 494.728 37.503 497.402 Q36.8664 500.075 36.8664 502.94 Q36.8664 507.3 38.2032 509.497 Q39.54 511.661 42.2136 511.661 Q44.2506 511.661 45.4283 510.101 Q46.5741 508.542 47.6245 503.831 L48.0701 501.826 Q49.4069 495.587 51.8577 492.977 Q54.2766 490.336 58.6371 490.336 Q63.6024 490.336 66.4988 494.282 Q69.3952 498.197 69.3952 505.072 Q69.3952 507.937 68.8223 511.056 Q68.2812 514.143 67.1672 517.581 L61.1198 517.581 Q62.8067 514.334 63.666 511.183 Q64.4936 508.032 64.4936 504.945 Q64.4936 500.807 63.0931 498.579 Q61.6608 496.351 59.0827 496.351 Q56.6956 496.351 55.4225 497.975 Q54.1493 499.566 52.9717 505.009 L52.4942 507.046 Q51.3484 512.488 48.9931 514.907 Q46.6059 517.326 42.4682 517.326 Q37.4393 517.326 34.7021 513.762 Q31.9648 510.197 31.9648 503.64 Q31.9648 500.394 32.4423 497.529 Q32.9197 494.664 33.8745 492.245 Z" fill="#000000" fill-rule="nonzero" fill-opacity="1" /><path clip-path="url(#clip180)" d="M19.0106 481.933 L19.0106 476.84 Q26.5221 472.066 33.7154 469.711 Q40.9086 467.324 48.0064 467.324 Q55.136 467.324 62.3611 469.711 Q69.5862 472.066 77.0659 476.84 L77.0659 481.933 Q69.7771 477.7 62.5839 475.631 Q55.3588 473.53 48.0064 473.53 Q40.654 473.53 33.4926 475.631 Q26.3312 477.7 19.0106 481.933 Z" fill="#000000" fill-rule="nonzero" fill-opacity="1" /><polyline clip-path="url(#clip182)" style="stroke:#0000ff; stroke-linecap:round; stroke-linejoin:round; stroke-width:8; stroke-opacity:1; fill:none" points="326.262,985.285 327.246,1027.83 328.231,1028.2 329.215,1026.53 330.2,1025.74 331.185,1028.35 332.169,984.71 333.154,987.521 334.139,988.839 335.123,1009.12 336.108,989.859 337.093,989.322 338.077,856.16 339.062,855.097 340.046,987.705 341.031,977.725 342.016,990.296 343,979.523 343.985,1001.61 344.97,978.623 345.954,855.568 346.939,987.424 347.923,855.439 348.908,976.506 349.893,854.878 350.877,860.135 351.862,995.29 352.847,987.468 353.831,859.899 354.816,859.816 355.801,987.972 356.785,988.046 357.77,962.913 358.754,930.69 359.739,859.781 360.724,987.825 361.708,860.07 362.693,964.646 363.678,995.135 364.662,940.098 365.647,988.129 366.632,984.887 367.616,931.299 368.601,994.901 369.585,930.93 370.57,863.986 371.555,940.594 372.539,887.542 373.524,906.796 374.509,986.014 375.493,985.751 376.478,963.487 377.463,919.578 378.447,930.779 379.432,937.972 380.416,864.671 381.401,908.49 382.386,962.877 383.37,938.833 384.355,993.27 385.34,986.014 386.324,965.05 387.309,994.766 388.293,931.433 389.278,940.144 390.263,985.103 391.247,939.642 392.232,864.284 393.217,940.05 394.201,959.198 395.186,919.122 396.171,906.115 397.155,908.456 398.14,941.945 399.124,940.073 400.109,919.573 401.094,917.566 402.078,999.503 403.063,850.766 404.048,885.481 405.032,940.425 406.017,938.183 407.002,893.602 407.986,940.667 408.971,1003.91 409.955,941.195 410.94,1003.14 411.925,1002 412.909,875.032 413.894,941.538 414.879,1000.29 415.863,873.296 416.848,866.068 417.833,916.579 418.817,957.718 419.802,941.543 420.786,942.541 421.771,960.763 422.756,851.347 423.74,897.072 424.725,848.579 425.71,923.493 426.694,862.167 427.679,918.785 428.663,889 429.648,894.165 430.633,907.741 431.617,872.899 432.602,820.67 433.587,897.556 434.571,875.284 435.556,851.582 436.541,827.801 437.525,812.211 438.51,849.688 439.494,923.535 440.479,933.89 441.464,887.024 442.448,935.378 443.433,816.001 444.418,912.58 445.402,887.918 446.387,888.387 447.372,937.723 448.356,897.264 449.341,960.465 450.325,919.996 451.31,895.484 452.295,936.14 453.279,920.096 454.264,911.781 455.249,814.324 456.233,934.201 457.218,944.836 458.203,895.315 459.187,869.436 460.172,933.092 461.156,873.446 462.141,844.839 463.126,850.34 464.11,960.093 465.095,923.852 466.08,874.192 467.064,873.011 468.049,944.364 469.033,933.75 470.018,945.132 471.003,870.017 471.987,869.201 472.972,873.119 473.957,937.73 474.941,869.973 475.926,871.36 476.911,943.393 477.895,919.999 478.88,870.558 479.864,902.763 480.849,851.211 481.834,897.054 482.818,849.704 483.803,873.98 484.788,870.909 485.772,887.504 486.757,923.41 487.742,872.025 488.726,914.583 489.711,914.136 490.695,870.155 491.68,942.447 492.665,886.588 493.649,923.278 494.634,933.557 495.619,915.464 496.603,891.916 497.588,919.086 498.573,821.041 499.557,921.886 500.542,876.847 501.526,914.762 502.511,849.375 503.496,914.496 504.48,886.49 505.465,816.543 506.45,873.015 507.434,887.931 508.419,816.94 509.403,922.569 510.388,914.416 511.373,819.887 512.357,892.534 513.342,922.985 514.327,829.969 515.311,915.166 516.296,819.906 517.281,868.271 518.265,828.285 519.25,922.968 520.234,913.56 521.219,736.688 522.204,874.305 523.188,892.102 524.173,921.588 525.158,845.82 526.142,903.797 527.127,901.362 528.112,914.47 529.096,792.458 530.081,912.953 531.065,914.01 532.05,828.795 533.035,915.171 534.019,892.201 535.004,903.158 535.989,834.053 536.973,981.931 537.958,902.406 538.943,934.191 539.927,981.54 540.912,935.902 541.896,729.054 542.881,868.033 543.866,895.257 544.85,923.421 545.835,889.934 546.82,981.724 547.804,892.977 548.789,893.746 549.773,894.08 550.758,897.897 551.743,820.051 552.727,850.917 553.712,792.89 554.697,732.699 555.681,868.577 556.666,826.05 557.651,845.503 558.635,924.437 559.62,796.682 560.604,922.168 561.589,792.344 562.574,981.333 563.558,867.724 564.543,922.711 565.528,883.115 566.512,868.472 567.497,890.546 568.482,907.558 569.466,894.136 570.451,943.934 571.435,894.053 572.42,922.42 573.405,793.252 574.389,907.102 575.374,886.433 576.359,943.471 577.343,923.246 578.328,877.694 579.313,915.032 580.297,891.682 581.282,892.297 582.266,793.312 583.251,737.989 584.236,894.084 585.22,850.534 586.205,903.938 587.19,924.558 588.174,893.008 589.159,934.53 590.143,907.938 591.128,792.532 592.113,756.549 593.097,934.952 594.082,981.53 595.067,893.22 596.051,888.936 597.036,921.94 598.021,886.348 599.005,920.554 599.99,890.918 600.974,876.208 601.959,792.864 602.944,910.001 603.928,893.098 604.913,793.115 605.898,944.316 606.882,922.709 607.867,891.683 608.852,874.665 609.836,925.304 610.821,924.962 611.805,793.749 612.79,924.367 613.775,874.438 614.759,796.564 615.744,935.014 616.729,847.646 617.713,943.498 618.698,680.734 619.683,874.77 620.667,922.559 621.652,736.577 622.636,891.84 623.621,883.952 624.606,851.996 625.59,886.584 626.575,886.708 627.56,852.03 628.544,907.731 629.529,876.329 630.513,877.524 631.498,680.83 632.483,875.342 633.467,894.019 634.452,922.85 635.437,909.247 636.421,907.248 637.406,889.652 638.391,876.188 639.375,886.733 640.36,878.056 641.344,877.014 642.329,808.705 643.314,908.928 644.298,877.478 645.283,893.829 646.268,877.357 647.252,893.391 648.237,794.271 649.222,884.931 650.206,890.179 651.191,943.733 652.175,892.704 653.16,848.406 654.145,752.47 655.129,903.938 656.114,893.484 657.099,863.191 658.083,892.082 659.068,909.926 660.053,878.154 661.037,790.816 662.022,875.628 663.006,865.317 663.991,878.946 664.976,898.792 665.96,875.881 666.945,902.77 667.93,898.34 668.914,906.852 669.899,892.196 670.883,957.674 671.868,847.177 672.853,851.879 673.837,904.567 674.822,755.406 675.807,831.728 676.791,883.792 677.776,793.657 678.761,892.62 679.745,878.37 680.73,906.386 681.714,874.454 682.699,808.095 683.684,909.523 684.668,847.586 685.653,878.735 686.638,729.13 687.622,859.544 688.607,878.654 689.592,834.41 690.576,792.4 691.561,903.315 692.545,848.168 693.53,908.209 694.515,907.059 695.499,847.954 696.484,910.72 697.469,796.531 698.453,878.054 699.438,866.692 700.423,878.347 701.407,892.361 702.392,849.007 703.376,830.717 704.361,883.695 705.346,877.697 706.33,876.305 707.315,878.142 708.3,852.482 709.284,878.322 710.269,846.605 711.253,958.887 712.238,861.153 713.223,910.105 714.207,893.044 715.192,968.201 716.177,892.492 717.161,884.255 718.146,877.861 719.131,877.842 720.115,879.05 721.1,845.592 722.084,834.114 723.069,849.526 724.054,850.128 725.038,904.647 726.023,862.938 727.008,737.636 727.992,877.742 728.977,850.131 729.962,912.949 730.946,831.991 731.931,863.673 732.915,846.698 733.9,863.027 734.885,845.191 735.869,854.31 736.854,876.113 737.839,852.054 738.823,849.066 739.808,875.585 740.793,902.365 741.777,863.475 742.762,913.885 743.746,891.941 744.731,898.437 745.716,875.203 746.7,908.762 747.685,955.26 748.67,846.844 749.654,830.058 750.639,809.812 751.623,877.926 752.608,910.813 753.593,854.352 754.577,775.866 755.562,890.765 756.547,680.584 757.531,897.407 758.516,898.415 759.501,903.85 760.485,848.913 761.47,801.009 762.454,876.056 763.439,830.138 764.424,890.421 765.408,819.586 766.393,890.825 767.378,953.834 768.362,883.734 769.347,862.631 770.332,847.941 771.316,907.638 772.301,910.727 773.285,850.104 774.27,802.004 775.255,890.998 776.239,864.843 777.224,755.455 778.209,884.785 779.193,680.661 780.178,885.824 781.163,811.113 782.147,954.957 783.132,862.68 784.116,866.595 785.101,737.053 786.086,849.351 787.07,885.855 788.055,728.557 789.04,890.055 790.024,912.648 791.009,875.55 791.993,876.373 792.978,874.569 793.963,846.599 794.947,849.222 795.932,801.542 796.917,922.693 797.901,967.275 798.886,872.865 799.871,891.747 800.855,913.173 801.84,832.279 802.824,892.213 803.809,903.67 804.794,860.568 805.778,861.317 806.763,860.688 807.748,913.035 808.732,904.242 809.717,936.342 810.702,886.389 811.686,922.945 812.671,922.655 813.655,875.96 814.64,808.839 815.625,922.33 816.609,854.966 817.594,834.395 818.579,937.396 819.563,756.158 820.548,937.321 821.533,854.737 822.517,911.028 823.502,890.449 824.486,839.654 825.471,857.49 826.456,848.227 827.44,877.643 828.425,917.047 829.41,911.443 830.394,870.423 831.379,888.811 832.363,846.874 833.348,824.934 834.333,800.43 835.317,680.637 836.302,856.813 837.287,790.73 838.271,942.643 839.256,791.347 840.241,910.703 841.225,853.884 842.21,832.84 843.194,943.625 844.179,917.359 845.164,787.737 846.148,802.095 847.133,942.481 848.118,846.821 849.102,819.837 850.087,863.425 851.072,922.399 852.056,963.412 853.041,848.135 854.025,868.785 855.01,851.332 855.995,767.309 856.979,875.79 857.964,876.931 858.949,882.04 859.933,776.332 860.918,856.914 861.903,942.907 862.887,801.168 863.872,910.953 864.856,793.33 865.841,910.477 866.826,855.668 867.81,968.004 868.795,777.377 869.78,939.093 870.764,935.226 871.749,818.297 872.733,802.36 873.718,869.024 874.703,868.925 875.687,802.834 876.672,799.526 877.657,913.218 878.641,841.886 879.626,965.156 880.611,858.871 881.595,937.955 882.58,912.058 883.564,792.004 884.549,825.418 885.534,912.319 886.518,869.839 887.503,854.02 888.488,725.773 889.472,793.465 890.457,869.72 891.442,824.06 892.426,883.038 893.411,788.204 894.395,815.458 895.38,859.142 896.365,810.192 897.349,841.774 898.334,968.734 899.319,912.65 900.303,823.546 901.288,870.072 902.273,791.515 903.257,768.634 904.242,964.919 905.226,795.99 906.211,798.778 907.196,802.07 908.18,868.756 909.165,838.737 910.15,799.042 911.134,913.407 912.119,841.479 913.103,845.246 914.088,825.468 915.073,846.872 916.057,915.781 917.042,801.239 918.027,882.088 919.011,859.411 919.996,801.155 920.981,882.029 921.965,844.373 922.95,883.246 923.934,857.02 924.919,841.776 925.904,769.302 926.888,825.002 927.873,795.609 928.858,841.611 929.842,963.974 930.827,818.198 931.812,818.223 932.796,880.339 933.781,791.024 934.765,883.203 935.75,858.783 936.735,844.593 937.719,796.891 938.704,883.28 939.689,881.862 940.673,800.297 941.658,790.76 942.643,853.289 943.627,965.494 944.612,792.279 945.596,864.492 946.581,769.67 947.566,808.514 948.55,862.72 949.535,777.127 950.52,804.322 951.504,882.932 952.489,807.491 953.473,883.84 954.458,848.198 955.443,795.147 956.427,740.58 957.412,845.506 958.397,846.53 959.381,811.774 960.366,804.136 961.351,799.055 962.335,800.678 963.32,816.276 964.304,914.946 965.289,973.785 966.274,869.599 967.258,799.081 968.243,801.51 969.228,846.458 970.212,810.488 971.197,816.612 972.182,825.95 973.166,798.653 974.151,777.443 975.135,818.18 976.12,686.533 977.105,790.914 978.089,802.971 979.074,839.723 980.059,801.491 981.043,915.174 982.028,844.664 983.013,794.757 983.997,819.534 984.982,814.04 985.966,907.181 986.951,818.888 987.936,735.063 988.92,818.777 989.905,686.288 990.89,825.28 991.874,808.569 992.859,860.763 993.843,839.717 994.828,774.887 995.813,792.405 996.797,776.227 997.782,881.98 998.767,863.08 999.751,839.298 1000.74,881.019 1001.72,819.589 1002.71,810.503 1003.69,822.887 1004.67,884.531 1005.66,825.267 1006.64,735.858 1007.63,687.183 1008.61,803.226 1009.6,827.067 1010.58,804.326 1011.57,818.872 1012.55,822.204 1013.54,912.213 1014.52,811.991 1015.51,788.082 1016.49,845.398 1017.47,795.642 1018.46,858.758 1019.44,686.862 1020.43,835.135 1021.41,818.969 1022.4,790.836 1023.38,777.35 1024.37,912.446 1025.35,778.211 1026.34,842.973 1027.32,792.218 1028.31,810.901 1029.29,844.162 1030.27,797.926 1031.26,851.929 1032.24,800.494 1033.23,792.336 1034.21,824.39 1035.2,791.149 1036.18,823.676 1037.17,819.642 1038.15,810.159 1039.14,906.009 1040.12,816.579 1041.11,770.563 1042.09,824.727 1043.08,799.247 1044.06,824.642 1045.04,835.127 1046.03,869.485 1047.01,768.726 1048,796.554 1048.98,867.877 1049.97,825.469 1050.95,810.42 1051.94,799.344 1052.92,841.433 1053.91,839.443 1054.89,882.302 1055.88,821.09 1056.86,849.573 1057.84,799.276 1058.83,821.842 1059.81,793.611 1060.8,842.499 1061.78,838.997 1062.77,839.589 1063.75,859.34 1064.74,842.136 1065.72,800.529 1066.71,820.15 1067.69,741.508 1068.68,737.357 1069.66,798.35 1070.64,793.107 1071.63,848.405 1072.61,798.562 1073.6,774.405 1074.58,810.21 1075.57,910.647 1076.55,798.099 1077.54,819.076 1078.52,821.466 1079.51,808.783 1080.49,794.071 1081.48,823.137 1082.46,777.075 1083.45,736.502 1084.43,788.096 1085.41,798.113 1086.4,797.604 1087.38,810.962 1088.37,808.511 1089.35,740.634 1090.34,741.068 1091.32,846.187 1092.31,822.377 1093.29,792.288 1094.28,908.388 1095.26,859.806 1096.25,839.947 1097.23,860.482 1098.21,863.234 1099.2,825.744 1100.18,808.308 1101.17,869.547 1102.15,831.582 1103.14,882.46 1104.12,792.346 1105.11,791.177 1106.09,793.412 1107.08,889.747 1108.06,881.283 1109.05,834.897 1110.03,809.301 1111.01,791.732 1112,839.589 1112.98,826.03 1113.97,817.796 1114.95,800.971 1115.94,823.393 1116.92,686.406 1117.91,798.866 1118.89,841.807 1119.88,905.732 1120.86,889.308 1121.85,819.104 1122.83,834.633 1123.82,807.967 1124.8,774.367 1125.78,850.709 1126.77,850.155 1127.75,795.824 1128.74,884.128 1129.72,792.717 1130.71,967.207 1131.69,911.361 1132.68,795.949 1133.66,848.19 1134.65,739.206 1135.63,808.614 1136.62,776.411 1137.6,826.936 1138.58,846.431 1139.57,796.69 1140.55,853.832 1141.54,852.07 1142.52,811.734 1143.51,798.514 1144.49,868.98 1145.48,786.286 1146.46,734.892 1147.45,846.581 1148.43,736.112 1149.42,845.851 1150.4,968.706 1151.38,969.419 1152.37,883.8 1153.35,858.34 1154.34,797.793 1155.32,776.66 1156.31,776.208 1157.29,797.25 1158.28,775.9 1159.26,823.107 1160.25,843.559 1161.23,775.478 1162.22,796.79 1163.2,847.432 1164.19,770.347 1165.17,795.923 1166.15,809.216 1167.14,889.28 1168.12,756.216 1169.11,850.247 1170.09,811.152 1171.08,795.664 1172.06,810.54 1173.05,775.004 1174.03,884.5 1175.02,799.491 1176,841.793 1176.99,757.393 1177.97,792.546 1178.95,823.093 1179.94,807.869 1180.92,852.356 1181.91,795.934 1182.89,842.085 1183.88,863.506 1184.86,886.687 1185.85,906.85 1186.83,811.181 1187.82,812.599 1188.8,757.384 1189.79,853.83 1190.77,738.73 1191.75,786.826 1192.74,740.353 1193.72,853.923 1194.71,853.735 1195.69,911.687 1196.68,741.55 1197.66,866.643 1198.65,754.526 1199.63,754.488 1200.62,717.017 1201.6,815.901 1202.59,738.233 1203.57,772.823 1204.56,848.483 1205.54,845.782 1206.52,820.242 1207.51,972.374 1208.49,758.348 1209.48,740.399 1210.46,789.659 1211.45,797.224 1212.43,842.664 1213.42,803.897 1214.4,812.096 1215.39,802.079 1216.37,787.657 1217.36,847.735 1218.34,810.307 1219.32,787.066 1220.31,848.037 1221.29,755.568 1222.28,736.009 1223.26,801.878 1224.25,817.875 1225.23,809.364 1226.22,808.526 1227.2,740.626 1228.19,831.171 1229.17,870.016 1230.16,803.361 1231.14,816.738 1232.12,810.905 1233.11,889.658 1234.09,846.931 1235.08,788.09 1236.06,853.882 1237.05,718.855 1238.03,839.386 1239.02,738.756 1240,819.143 1240.99,812.432 1241.97,819.357 1242.96,831.631 1243.94,812.18 1244.93,811.53 1245.91,918.888 1246.89,841.816 1247.88,765.895 1248.86,754.641 1249.85,796.214 1250.83,779.854 1251.82,756.412 1252.8,819.041 1253.79,719.084 1254.77,739.94 1255.76,832.391 1256.74,771.613 1257.73,840.779 1258.71,811.85 1259.69,812.223 1260.68,810.684 1261.66,745.189 1262.65,773.744 1263.63,813.231 1264.62,794.418 1265.6,812.667 1266.59,779.133 1267.57,742.619 1268.56,799.842 1269.54,813.337 1270.53,788.243 1271.51,743.774 1272.49,831.729 1273.48,803.398 1274.46,822.67 1275.45,779.443 1276.43,798.979 1277.42,815.082 1278.4,794.169 1279.39,793.064 1280.37,917.143 1281.36,791.986 1282.34,758.023 1283.33,719.869 1284.31,810.747 1285.3,816.05 1286.28,840.968 1287.26,767.121 1288.25,765.713 1289.23,752.271 1290.22,769.503 1291.2,813.018 1292.19,780.17 1293.17,794.123 1294.16,779.424 1295.14,786.05 1296.13,791.233 1297.11,840.272 1298.1,812.757 1299.08,769.376 1300.06,780.633 1301.05,788.648 1302.03,767.96 1303.02,766.642 1304,768.864 1304.99,792.441 1305.97,918.162 1306.96,799.607 1307.94,740.017 1308.93,823.365 1309.91,789.147 1310.9,816.294 1311.88,742.93 1312.86,743.807 1313.85,757.825 1314.83,742.14 1315.82,799.516 1316.8,788.894 1317.79,796.431 1318.77,822.044 1319.76,742.193 1320.74,778.791 1321.73,768.316 1322.71,796.182 1323.7,769.974 1324.68,801.085 1325.67,769.094 1326.65,758.473 1327.63,706.943 1328.62,765.487 1329.6,742.488 1330.59,766.638 1331.57,786.875 1332.56,800.023 1333.54,734.638 1334.53,800.837 1335.51,814.133 1336.5,719.907 1337.48,811.172 1338.47,767.703 1339.45,782.935 1340.43,799.452 1341.42,823.794 1342.4,766.263 1343.39,788.117 1344.37,743.529 1345.36,744.261 1346.34,779.612 1347.33,744.38 1348.31,798.868 1349.3,780.335 1350.28,783.292 1351.27,736.272 1352.25,773.931 1353.23,767.054 1354.22,767.637 1355.2,918.62 1356.19,788.898 1357.17,793.899 1358.16,733.41 1359.14,805.032 1360.13,782.483 1361.11,735.732 1362.1,867.519 1363.08,767.267 1364.07,766.457 1365.05,915.361 1366.04,788.823 1367.02,769.466 1368,769.861 1368.99,755.796 1369.97,799.253 1370.96,755.195 1371.94,774.447 1372.93,805.795 1373.91,782.681 1374.9,803.402 1375.88,794.141 1376.87,725.515 1377.85,792.23 1378.84,758.017 1379.82,699.134 1380.8,788.363 1381.79,782.146 1382.77,731.985 1383.76,778.544 1384.74,799.335 1385.73,778.225 1386.71,782.344 1387.7,786.462 1388.68,796.405 1389.67,788.521 1390.65,803.118 1391.64,795.061 1392.62,781.455 1393.6,779.441 1394.59,776.004 1395.57,822.236 1396.56,804.328 1397.54,757.774 1398.53,805.52 1399.51,802.857 1400.5,779.31 1401.48,743.366 1402.47,736.372 1403.45,820.971 1404.44,756.048 1405.42,805.707 1406.41,765.379 1407.39,779.2 1408.37,767.89 1409.36,801.939 1410.34,767.081 1411.33,766.705 1412.31,765.491 1413.3,837.151 1414.28,767.399 1415.27,799.829 1416.25,794.518 1417.24,766.338 1418.22,766.116 1419.21,850.642 1420.19,746.534 1421.17,795.934 1422.16,769.088 1423.14,780.462 1424.13,730.958 1425.11,801.749 1426.1,763.228 1427.08,728.38 1428.07,742.036 1429.05,767.447 1430.04,781.661 1431.02,724.887 1432.01,778.974 1432.99,725.432 1433.97,799.52 1434.96,706.22 1435.94,766.138 1436.93,781.584 1437.91,795.587 1438.9,747.006 1439.88,755.876 1440.87,796.436 1441.85,765.705 1442.84,768.356 1443.82,796.257 1444.81,776.695 1445.79,777.222 1446.78,755.895 1447.76,765.552 1448.74,762.229 1449.73,733.071 1450.71,743.508 1451.7,779.183 1452.68,897.222 1453.67,767.027 1454.65,788.552 1455.64,745.381 1456.62,700.194 1457.61,850.536 1458.59,789.209 1459.58,745.281 1460.56,842.376 1461.54,767.44 1462.53,781.895 1463.51,823.288 1464.5,765.45 1465.48,742.535 1466.47,766.555 1467.45,794.605 1468.44,786.219 1469.42,840.419 1470.41,840.211 1471.39,765.635 1472.38,804.948 1473.36,776.069 1474.34,734.875 1475.33,779.274 1476.31,794.914 1477.3,737.587 1478.28,821.528 1479.27,804.567 1480.25,748.394 1481.24,783.06 1482.22,767.889 1483.21,776.412 1484.19,768.945 1485.18,802.724 1486.16,775.352 1487.15,779.264 1488.13,776.201 1489.11,767.5 1490.1,715.325 1491.08,768.071 1492.07,781.08 1493.05,734.241 1494.04,772.776 1495.02,796.499 1496.01,804.545 1496.99,796.579 1497.98,701.259 1498.96,782.653 1499.95,761.632 1500.93,774.936 1501.91,725.716 1502.9,660.51 1503.88,765.428 1504.87,784.146 1505.85,779.167 1506.84,776.019 1507.82,788.251 1508.81,735.198 1509.79,780.034 1510.78,822.237 1511.76,802.705 1512.75,734.236 1513.73,796.367 1514.71,761.317 1515.7,732.136 1516.68,698.354 1517.67,839.305 1518.65,700.792 1519.64,774.67 1520.62,737.103 1521.61,774.418 1522.59,698.17 1523.58,736.679 1524.56,774.95 1525.55,780.243 1526.53,749.569 1527.52,765.13 1528.5,765.073 1529.48,791.212 1530.47,768.04 1531.45,749.098 1532.44,731.993 1533.42,824.156 1534.41,698.767 1535.39,758.702 1536.38,747.874 1537.36,769.23 1538.35,736.379 1539.33,784.881 1540.32,754.592 1541.3,731.925 1542.28,773.957 1543.27,785.712 1544.25,709.67 1545.24,735.889 1546.22,781.876 1547.21,788.952 1548.19,698.324 1549.18,804.476 1550.16,734.427 1551.15,768.445 1552.13,839.881 1553.12,788.297 1554.1,781.351 1555.08,894.637 1556.07,778.874 1557.05,746.383 1558.04,788.668 1559.02,843.549 1560.01,765.447 1560.99,712.414 1561.98,768.537 1562.96,726.921 1563.95,778.391 1564.93,761.451 1565.92,699.856 1566.9,725.73 1567.89,746.087 1568.87,761.611 1569.85,702.046 1570.84,700.111 1571.82,774.412 1572.81,752.202 1573.79,745.675 1574.78,778.497 1575.76,764.318 1576.75,655.681 1577.73,840.789 1578.72,788.857 1579.7,761.371 1580.69,761.994 1581.67,700.065 1582.65,761.667 1583.64,744.052 1584.62,701.8 1585.61,761.831 1586.59,775.007 1587.58,755.339 1588.56,732.868 1589.55,778.698 1590.53,755.38 1591.52,777.752 1592.5,779.045 1593.49,761.258 1594.47,894.898 1595.45,732.503 1596.44,734.367 1597.42,700.611 1598.41,867.496 1599.39,780.893 1600.38,803.432 1601.36,848.555 1602.35,849.976 1603.33,706.684 1604.32,726.96 1605.3,737.751 1606.29,747.841 1607.27,781.013 1608.26,761.425 1609.24,734.777 1610.22,837.481 1611.21,652.558 1612.19,715.246 1613.18,775.745 1614.16,725.017 1615.15,845.669 1616.13,707.165 1617.12,768.657 1618.1,735.737 1619.09,792.071 1620.07,675.087 1621.06,780.838 1622.04,850.967 1623.02,736.009 1624.01,748.592 1624.99,706.525 1625.98,675.342 1626.96,690.125 1627.95,655.216 1628.93,742.018 1629.92,768.787 1630.9,902.061 1631.89,767.871 1632.87,734.523 1633.86,780.791 1634.84,714.262 1635.82,761.955 1636.81,767.211 1637.79,726.445 1638.78,733.339 1639.76,765.541 1640.75,754.683 1641.73,898.615 1642.72,764.28 1643.7,730.947 1644.69,657.225 1645.67,766.867 1646.66,833.487 1647.64,732.894 1648.63,780.755 1649.61,750.388 1650.59,778.247 1651.58,694.66 1652.56,750.209 1653.55,752.35 1654.53,767.209 1655.52,713.586 1656.5,710.266 1657.49,766.946 1658.47,657.038 1659.46,758.79 1660.44,675.422 1661.43,833.509 1662.41,764.382 1663.39,747.544 1664.38,749.338 1665.36,846.148 1666.35,693.213 1667.33,781.331 1668.32,803.304 1669.3,761.7 1670.29,768.739 1671.27,797.867 1672.26,743.731 1673.24,804.09 1674.23,769.07 1675.21,712.364 1676.19,749.24 1677.18,833.866 1678.16,755.384 1679.15,724.894 1680.13,664.047 1681.12,726.361 1682.1,710.342 1683.09,713.709 1684.07,762.074 1685.06,663.143 1686.04,762.665 1687.03,733.028 1688.01,707.22 1689,744.37 1689.98,675.619 1690.96,726.558 1691.95,792.25 1692.93,725.144 1693.92,749.843 1694.9,711.699 1695.89,762.009 1696.87,710.895 1697.86,689.874 1698.84,670.879 1699.83,737.742 1700.81,694.132 1701.8,746.531 1702.78,712.107 1703.76,799.184 1704.75,774.705 1705.73,711.14 1706.72,713.343 1707.7,733.472 1708.69,711.325 1709.67,791.724 1710.66,747.591 1711.64,724.913 1712.63,706.151 1713.61,744.495 1714.6,725.759 1715.58,710.159 1716.56,776.056 1717.55,737.296 1718.53,712.808 1719.52,719.266 1720.5,762.572 1721.49,867.043 1722.47,750.136 1723.46,759.601 1724.44,677.66 1725.43,762.882 1726.41,799.779 1727.4,676.507 1728.38,749.993 1729.37,744.086 1730.35,747.186 1731.33,745.263 1732.32,772.236 1733.3,807.363 1734.29,664.095 1735.27,775.967 1736.26,713.84 1737.24,809.913 1738.23,818.982 1739.21,749.23 1740.2,663.29 1741.18,694.434 1742.17,770.696 1743.15,674.923 1744.13,733.014 1745.12,866.126 1746.1,757.257 1747.09,742.627 1748.07,749.814 1749.06,671.574 1750.04,776.349 1751.03,736.856 1752.01,691.07 1753,776.221 1753.98,688.437 1754.97,746.717 1755.95,693.161 1756.93,797.837 1757.92,747.664 1758.9,760.402 1759.89,700.363 1760.87,730.908 1761.86,742.104 1762.84,834.784 1763.83,797.873 1764.81,750.312 1765.8,749.557 1766.78,741.703 1767.77,771.85 1768.75,750.737 1769.74,729.199 1770.72,797.682 1771.7,706.332 1772.69,729.14 1773.67,797.918 1774.66,702.511 1775.64,710.507 1776.63,768.681 1777.61,741.599 1778.6,744.419 1779.58,700.11 1780.57,740.32 1781.55,705.488 1782.54,671.91 1783.52,762.539 1784.5,737.294 1785.49,747.458 1786.47,868.135 1787.46,684.133 1788.44,791.593 1789.43,810.067 1790.41,792.576 1791.4,748.976 1792.38,770.018 1793.37,699.494 1794.35,692.878 1795.34,707.472 1796.32,690.785 1797.3,715.321 1798.29,771.257 1799.27,671.614 1800.26,682.824 1801.24,769.006 1802.23,742.268 1803.21,674.86 1804.2,833.494 1805.18,762.721 1806.17,745.976 1807.15,792.61 1808.14,748.224 1809.12,725.213 1810.11,746.691 1811.09,725.918 1812.07,748.159 1813.06,864.602 1814.04,737.934 1815.03,825.125 1816.01,743.86 1817,714.706 1817.98,723.284 1818.97,720.916 1819.95,737.753 1820.94,677.184 1821.92,791.35 1822.91,690.311 1823.89,714.976 1824.87,676.99 1825.86,825.94 1826.84,711.022 1827.83,763.454 1828.81,624.097 1829.8,747.729 1830.78,853.94 1831.77,671.758 1832.75,743.94 1833.74,748.916 1834.72,741.139 1835.71,746.469 1836.69,759.552 1837.67,699.136 1838.66,684.418 1839.64,689.179 1840.63,689.857 1841.61,769.319 1842.6,855.393 1843.58,819.993 1844.57,678.155 1845.55,690.903 1846.54,720.458 1847.52,745.808 1848.51,711.864 1849.49,742.828 1850.48,731.488 1851.46,735.958 1852.44,747.368 1853.43,791.986 1854.41,731.823 1855.4,742.057 1856.38,853.582 1857.37,677.969 1858.35,791.644 1859.34,824.294 1860.32,736.479 1861.31,716.166 1862.29,736.483 1863.28,850.298 1864.26,743.465 1865.24,775.08 1866.23,676.503 1867.21,825.952 1868.2,743.075 1869.18,720.985 1870.17,684.755 1871.15,720.11 1872.14,745.517 1873.12,715.62 1874.11,738.993 1875.09,761.125 1876.08,677.175 1877.06,715.814 1878.04,854.393 1879.03,705.45 1880.01,778.255 1881,736.722 1881.98,747.408 1882.97,737.388 1883.95,738.427 1884.94,769.177 1885.92,720.976 1886.91,742.965 1887.89,736.183 1888.88,763.187 1889.86,746.32 1890.85,700.248 1891.83,708.837 1892.81,736.585 1893.8,676.107 1894.78,684.259 1895.77,709.496 1896.75,852.761 1897.74,768.531 1898.72,736.325 1899.71,746.395 1900.69,720.323 1901.68,841.382 1902.66,778.599 1903.65,623.769 1904.63,791.236 1905.61,695.338 1906.6,778.056 1907.58,693.158 1908.57,720.525 1909.55,775.474 1910.54,689.639 1911.52,749.014 1912.51,808.571 1913.49,738.826 1914.48,714.968 1915.46,730.543 1916.45,735.213 1917.43,720.455 1918.41,720.469 1919.4,853.72 1920.38,763.43 1921.37,680.056 1922.35,775.737 1923.34,841.14 1924.32,825.76 1925.31,843.933 1926.29,699.694 1927.28,718.971 1928.26,778.975 1929.25,762.649 1930.23,774.861 1931.22,840.916 1932.2,798.063 1933.18,748.458 1934.17,738.248 1935.15,733.389 1936.14,690.713 1937.12,737.514 1938.11,708.513 1939.09,746.583 1940.08,853.488 1941.06,733.752 1942.05,746.564 1943.03,740.054 1944.02,775.849 1945,778.765 1945.98,775.19 1946.97,734.353 1947.95,739.103 1948.94,749.414 1949.92,851.686 1950.91,720.082 1951.89,740.508 1952.88,739.381 1953.86,763.267 1954.85,740.566 1955.83,699.287 1956.82,647.51 1957.8,773.873 1958.78,739.347 1959.77,841.318 1960.75,749.909 1961.74,702.735 1962.72,762.921 1963.71,734.766 1964.69,746.291 1965.68,623.281 1966.66,702.034 1967.65,853.621 1968.63,738.042 1969.62,714.556 1970.6,712.22 1971.59,751.619 1972.57,802.44 1973.55,774.842 1974.54,733.844 1975.52,740.813 1976.51,646.823 1977.49,709.659 1978.48,773.606 1979.46,669.704 1980.45,737.421 1981.43,699.568 1982.42,720.284 1983.4,743.153 1984.39,737.463 1985.37,622.959 1986.35,714.463 1987.34,737.761 1988.32,702.671 1989.31,730.982 1990.29,670.393 1991.28,733.377 1992.26,690.882 1993.25,787.023 1994.23,622.527 1995.22,785.008 1996.2,731.672 1997.19,720.504 1998.17,736.745 1999.15,719.389 2000.14,718.005 2001.12,734.882 2002.11,843.211 2003.09,708.223 2004.08,734.188 2005.06,667.612 2006.05,751.36 2007.03,670.313 2008.02,734.625 2009,663.812 2009.99,772.625 2010.97,662.8 2011.96,699.36 2012.94,733.747 2013.92,776.579 2014.91,827.821 2015.89,733.538 2016.88,750.061 2017.86,749.423 2018.85,789.049 2019.83,751.184 2020.82,691.707 2021.8,737.083 2022.79,735.057 2023.77,734.054 2024.76,680.274 2025.74,710.393 2026.72,700.568 2027.71,697.248 2028.69,735.321 2029.68,697.958 2030.66,737.396 2031.65,801.843 2032.63,691.122 2033.62,683.54 2034.6,662.802 2035.59,663.067 2036.57,654.86 2037.56,647.223 2038.54,692.652 2039.52,735.02 2040.51,735.238 2041.49,665.016 2042.48,715.739 2043.46,774.831 2044.45,787.007 2045.43,719.442 2046.42,661.774 2047.4,749.245 2048.39,707.661 2049.37,713.965 2050.36,763.896 2051.34,709.309 2052.33,686.459 2053.31,708.258 2054.29,743.579 2055.28,691.499 2056.26,734.204 2057.25,712.196 2058.23,787.755 2059.22,710.202 2060.2,824.016 2061.19,683.656 2062.17,701.668 2063.16,700.347 2064.14,742.878 2065.13,761.867 2066.11,708.475 2067.09,701.182 2068.08,718.547 2069.06,747.479 2070.05,743.967 2071.03,654.493 2072.02,706.068 2073,743.732 2073.99,747.752 2074.97,803.908 2075.96,649.222 2076.94,701.177 2077.93,744.121 2078.91,699.41 2079.89,750.965 2080.88,801.788 2081.86,663.485 2082.85,690.402 2083.83,773.941 2084.82,691.663 2085.8,663.289 2086.79,666.059 2087.77,751.693 2088.76,691.031 2089.74,735.185 2090.73,751.884 2091.71,710.107 2092.7,653.992 2093.68,751.758 2094.66,662.732 2095.65,649.097 2096.63,732.447 2097.62,802.94 2098.6,717.872 2099.59,718.501 2100.57,700.916 2101.56,750.96 2102.54,647.926 2103.53,713.296 2104.51,727.708 2105.5,669.948 2106.48,783.87 2107.46,662.905 2108.45,693.176 2109.43,786.618 2110.42,662.484 2111.4,743.895 2112.39,659.686 2113.37,677.051 2114.36,745.541 2115.34,737.028 2116.33,716.727 2117.31,750.954 2118.3,679.068 2119.28,718.16 2120.26,666.52 2121.25,664.341 2122.23,712.896 2123.22,744.681 2124.2,802.316 2125.19,772.815 2126.17,691.624 2127.16,665.41 2128.14,707.916 2129.13,734.109 2130.11,648.258 2131.1,775.644 2132.08,779.322 2133.07,748.465 2134.05,718.589 2135.03,707.507 2136.02,679.724 2137,653.706 2137.99,685.982 2138.97,682.323 2139.96,804.381 2140.94,719.445 2141.93,668.607 2142.91,692.078 2143.9,662.606 2144.88,686.879 2145.87,662.22 2146.85,773.834 2147.83,804.236 2148.82,676.281 2149.8,719.118 2150.79,718.086 2151.77,655.046 2152.76,660.578 2153.74,745.323 2154.73,751.024 2155.71,662.607 2156.7,800.306 2157.68,709.132 2158.67,697.921 2159.65,662.637 2160.63,660.538 2161.62,743.716 2162.6,727.218 2163.59,735.908 2164.57,695.704 2165.56,649.482 2166.54,695.204 2167.53,745.748 2168.51,691.286 2169.5,691.725 2170.48,680.839 2171.47,692.898 2172.45,683.485 2173.44,682.973 2174.42,693.446 2175.4,691.402 2176.39,662.363 2177.37,675.251 2178.36,682.122 2179.34,691.35 2180.33,676.877 2181.31,681.94 2182.3,648.104 2183.28,786.866 2184.27,677.214 2185.25,670.124 2186.24,735.616 2187.22,716.105 2188.2,691.632 2189.19,661.834 2190.17,713.998 2191.16,659.638 2192.14,682.409 2193.13,681.859 2194.11,634.971 2195.1,692.789 2196.08,677.25 2197.07,649.446 2198.05,660.187 2199.04,697.551 2200.02,682.096 2201,691.244 2201.99,686.029 2202.97,869.127 2203.96,686.588 2204.94,736.184 2205.93,738.044 2206.91,665.704 2207.9,694.914 2208.88,738.879 2209.87,716.995 2210.85,666.04 2211.84,738.559 2212.82,691.659 2213.81,660.283 2214.79,708.704 2215.77,679.823 2216.76,736.094 2217.74,695.644 2218.73,715.446 2219.71,739.892 2220.7,676.884 2221.68,788.789 2222.67,697.964 2223.65,784.13 2224.64,682.109 2225.62,649.038 2226.61,739.039 2227.59,716.751 2228.57,665.204 2229.56,681.905 2230.54,665.168 2231.53,687.123 2232.51,728.123 2233.5,727.682 2234.48,666.281 2235.47,718.38 2236.45,736.067 2237.44,671.358 2238.42,728.373 2239.41,695.102 2240.39,776.933 2241.37,662.63 2242.36,713.049 2243.34,723.442 2244.33,686.02 2245.31,787.149 2246.3,765.167 2247.28,678.246 2248.27,772.209 2249.25,648.792 2250.24,710.133 2251.22,684.672 2252.21,660.393 2253.19,716.758 2254.18,719.114 2255.16,661.8 2256.14,687.905 2257.13,710.471 2258.11,678.651 2259.1,870.902 2260.08,663.558 2261.07,687.247 2262.05,872.815 2263.04,687.5 2264.02,871.211 2265.01,671.188 2265.99,777.109 2266.98,716.652 2267.96,719.143 2268.94,771.435 2269.93,679.873 2270.91,659.933 2271.9,645.815 2272.88,722.895 2273.87,721.787 2274.85,675.989 2275.84,690.226 2276.82,659.385 2277.81,647.846 2278.79,778.279 2279.78,678.158 2280.76,721.166 2281.74,671.387 2282.73,646.723 2283.71,719.25 2284.7,663.318 2285.68,705.855 2286.67,657.311 2287.65,715.352 2288.64,718.982 2289.62,713.401 2290.61,696.362 2291.59,687.387 2292.58,728.492 2293.56,685.659 2294.55,714.137 2295.53,654.068 2296.51,719.814 2297.5,763.247 2298.48,678.107 2299.47,769.325 2300.45,678.258 2301.44,714.363 2302.42,681.729 2303.41,714.102 2304.39,660.444 2305.38,711.432 2306.36,688.011 2307.35,764.118 2308.33,654.983 2309.31,700.064 2310.3,704.926 2311.28,659.741 2312.27,687.389 2313.25,709.703 2314.24,671.193 2315.22,683.119 2316.21,768.465 2317.19,682.46 2318.18,663.374 2319.16,681.644 2320.15,663.172 2321.13,638.288 2322.11,718.666 2323.1,654.518 2324.08,684.927 2325.07,694.966 2326.05,671.026 2327.04,665.019 2328.02,719.02 2329.01,654.778 2329.99,690.722 2330.98,720.366 2331.96,804.085 2332.95,682.002 2333.93,736.433 2334.92,871.217 2335.9,642.54 2336.88,691.389 2337.87,719.12 2338.85,661.63 2339.84,679.54 2340.82,705.425 2341.81,691.499 2342.79,659.941 2343.78,682.484 2344.76,873.504 2345.75,655.012 2346.73,774.003 2347.72,682.264 2348.7,637.629 2349.68,640.977 2350.67,700.133 2351.65,704.849 2352.64,653.104 2353.62,766.452 2354.61,681.132 2355.59,709.993 2356.58,636.343 2357.56,681.241 2358.55,638.157 2359.53,657.523 2360.52,675.77 2361.5,641.938 2362.48,696.972 2363.47,664.202 2364.45,661.409 2365.44,636.772 2366.42,637.303 2367.41,662.24 2368.39,675.525 2369.38,659.701 2370.36,696.566 2371.35,678.886 2372.33,736.718 2373.32,710.067 2374.3,762.427 2375.29,710.597 2376.27,798.122 2377.25,673.681 2378.24,705.837 2379.22,718.247 2380.21,641.615 2381.19,730.664 2382.18,770.309 2383.16,734.506 2384.15,638.378 2385.13,779.377 2386.12,656.815 2387.1,642.471 2388.09,680.54 2389.07,679.911 2390.05,663.738 2391.04,778.017 2392.02,660.623 2393.01,660.073 2393.99,720.662 2394.98,656.744 2395.96,721.459 2396.95,661.587 2397.93,703.981 2398.92,688.003 2399.9,785 2400.89,768.933 2401.87,619.673 2402.85,642.389 2403.84,709.291 2404.82,691.125 2405.81,648.917 2406.79,679.289 2407.78,680.719 2408.76,696.668 2409.75,700.02 2410.73,728.465 2411.72,661.614 2412.7,716.643 2413.69,767.504 2414.67,786.065 2415.66,660.753 2416.64,771.744 2417.62,637.368 2418.61,637.258 2419.59,769.376 2420.58,718.239 2421.56,719.64 2422.55,637.806 2423.53,679.951 2424.52,719.427 2425.5,736.187 2426.49,665.141 2427.47,647.952 2428.46,736.194 2429.44,767.772 2430.42,711.364 2431.41,696.714 2432.39,700.273 2433.38,682.535 2434.36,688.365 2435.35,618.976 2436.33,735.946 2437.32,730.037 2438.3,660.36 2439.29,683.602 2440.27,851.741 2441.26,696.742 2442.24,679.223 2443.22,784.99 2444.21,664.419 2445.19,695.831 2446.18,709.116 2447.16,616.902 2448.15,726.727 2449.13,794.307 2450.12,675.462 2451.1,709.114 2452.09,696.921 2453.07,659.572 2454.06,661.895 2455.04,644.559 2456.03,684.259 2457.01,675.209 2457.99,700.471 2458.98,783.014 2459.96,733.349 2460.95,619.374 2461.93,786.178 2462.92,695.714 2463.9,645.366 2464.89,709.791 2465.87,849.498 2466.86,644.585 2467.84,766.48 2468.83,729.645 2469.81,644.619 2470.79,642.669 2471.78,641.98 2472.76,730.175 2473.75,642.693 2474.73,676.762 2475.72,699.563 2476.7,648.729 2477.69,709.48 2478.67,680.478 2479.66,675.885 2480.64,648.273 2481.63,684.243 2482.61,744.339 2483.59,685.23 2484.58,682.51 2485.56,618.631 2486.55,660.591 2487.53,728.727 2488.52,659.686 2489.5,758.26 2490.49,661.015 2491.47,733.186 2492.46,851.746 2493.44,644.768 2494.43,748.119 2495.41,766.395 2496.4,648.461 2497.38,733.713 2498.36,748.652 2499.35,683.778 2500.33,658.04 2501.32,661.202 2502.3,655.471 2503.29,647.326 2504.27,684.137 2505.26,708.708 2506.24,648.576 2507.23,684.975 2508.21,696.416 2509.2,647.812 2510.18,648.037 2511.16,772.03 2512.15,733.356 2513.13,734.45 2514.12,849.687 2515.1,694.721 2516.09,709.22 2517.07,684.85 2518.06,766.187 2519.04,647.335 2520.03,622.222 2521.01,684.516 2522,773.966 2522.98,661.103 2523.96,660.414 2524.95,731.562 2525.93,851.736 2526.92,679.289 2527.9,679.849 2528.89,659.725 2529.87,622.26 2530.86,657.444 2531.84,621.734 2532.83,651.325 2533.81,644.674 2534.8,686.224 2535.78,756.494 2536.77,644.503 2537.75,760.996 2538.73,651.567 2539.72,764.645 2540.7,760.707 2541.69,751.936 2542.67,743.816 2543.66,765.467 2544.64,738.681 2545.63,657.141 2546.61,644.019 2547.6,743.848 2548.58,651.516 2549.57,743.312 2550.55,644.028 2551.53,767.133 2552.52,750.841 2553.5,644.442 2554.49,657.413 2555.47,773.969 2556.46,750.325 2557.44,651.068 2558.43,621.879 2559.41,743.038 2560.4,643.798 2561.38,751.287 2562.37,802.09 2563.35,645.291 2564.33,651.432 2565.32,599.032 2566.3,643.937 2567.29,600.942 2568.27,743.486 2569.26,752.803 2570.24,686.466 2571.23,766.257 2572.21,670.686 2573.2,751.832 2574.18,599.243 2575.17,644.785 2576.15,667.342 2577.14,752.637 2578.12,658.426 2579.1,642.076 2580.09,644.454 2581.07,765.683 2582.06,648.573 2583.04,649.008 2584.03,599.64 2585.01,648.955 2586,642.487 2586.98,621.696 2587.97,600.084 2588.95,642.417 2589.94,605.019 2590.92,773.166 2591.9,648.306 2592.89,743.113 2593.87,751.738 2594.86,760.096 2595.84,604.156 2596.83,774.765 2597.81,760.758 2598.8,603.724 2599.78,665.737 2600.77,605.083 2601.75,667.049 2602.74,665.825 2603.72,605.364 2604.7,701.214 2605.69,642.644 2606.67,639.626 2607.66,648.57 2608.64,700.245 2609.63,773.975 2610.61,714.653 2611.6,761.754 2612.58,691.747 2613.57,759.834 2614.55,760.191 2615.54,667.177 2616.52,685.182 2617.51,763.893 2618.49,762.713 2619.47,763.853 2620.46,713.89 2621.44,721.278 2622.43,763.949 2623.41,608.908 2624.4,685.704 2625.38,716.784 2626.37,608.334 2627.35,740.883 2628.34,609.066 2629.32,711.355 2630.31,607.317 2631.29,620.984 2632.27,609.013 2633.26,741.959 2634.24,710.194 2635.23,623.901 2636.21,620.67 "/>
<polyline clip-path="url(#clip182)" style="stroke:#ff0000; stroke-linecap:round; stroke-linejoin:round; stroke-width:8; stroke-opacity:1; fill:none" points="326.262,861.798 327.246,858.837 328.231,845.764 329.215,844.062 330.2,840.268 331.185,838.473 332.169,836.896 333.154,830.652 334.139,822.879 335.123,818.033 336.108,814.978 337.093,808.72 338.077,804.074 339.062,803.924 340.046,799.759 341.031,799.267 342.016,794.517 343,792.666 343.985,787.701 344.97,785.705 345.954,782.812 346.939,780.248 347.923,779.991 348.908,777.43 349.893,769.875 350.877,764.828 351.862,754.904 352.847,754.511 353.831,752.642 354.816,749.43 355.801,749.138 356.785,746.468 357.77,746.086 358.754,741.084 359.739,740.582 360.724,737.47 361.708,736.69 362.693,736.566 363.678,736.152 364.662,734.495 365.647,729.123 366.632,727.07 367.616,724.572 368.601,719.844 369.585,718.679 370.57,712.563 371.555,712.037 372.539,711.26 373.524,703.515 374.509,703.33 375.493,703.298 376.478,703.297 377.463,703.283 378.447,702.485 379.432,701.596 380.416,700.846 381.401,698.481 382.386,698.311 383.37,697.233 384.355,694.878 385.34,694.549 386.324,694.16 387.309,693.716 388.293,689.885 389.278,688.885 390.263,687.57 391.247,685.081 392.232,684.731 393.217,680.986 394.201,679.495 395.186,678.89 396.171,677.33 397.155,676.249 398.14,676.122 399.124,673.537 400.109,673.052 401.094,672.937 402.078,671.151 403.063,664.834 404.048,662.634 405.032,662.415 406.017,660.46 407.002,660.438 407.986,660.14 408.971,658.478 409.955,657.387 410.94,656.701 411.925,656.144 412.909,655.376 413.894,654.186 414.879,654.182 415.863,653.798 416.848,653.795 417.833,653.634 418.817,653.097 419.802,652.84 420.786,651.944 421.771,650.959 422.756,648.777 423.74,648.378 424.725,644.029 425.71,643.719 426.694,643.691 427.679,643.191 428.663,641.588 429.648,641.484 430.633,640.24 431.617,639.444 432.602,637.722 433.587,637.607 434.571,637.345 435.556,637.085 436.541,636.89 437.525,636.555 438.51,635.525 439.494,634.818 440.479,634.322 441.464,633.76 442.448,632.794 443.433,632.596 444.418,632.262 445.402,631.915 446.387,631.85 447.372,631.214 448.356,631.182 449.341,630.888 450.325,630.822 451.31,630.045 452.295,629.726 453.279,629.713 454.264,629.394 455.249,629.023 456.233,629.015 457.218,628.402 458.203,628.345 459.187,626.926 460.172,626.376 461.156,626.302 462.141,626.256 463.126,625.794 464.11,624.374 465.095,624.001 466.08,623.942 467.064,623.749 468.049,623.416 469.033,623.262 470.018,622.331 471.003,621.835 471.987,621.331 472.972,621.05 473.957,620.891 474.941,620.157 475.926,619.68 476.911,618.547 477.895,618.489 478.88,618.446 479.864,618.241 480.849,618.128 481.834,618.006 482.818,617.092 483.803,616.798 484.788,616.754 485.772,616.674 486.757,616.104 487.742,614.062 488.726,614 489.711,613.862 490.695,613.439 491.68,612.601 492.665,612.056 493.649,610.865 494.634,610.325 495.619,609.703 496.603,609.503 497.588,609.382 498.573,608.88 499.557,608.458 500.542,608.187 501.526,607.486 502.511,607.457 503.496,606.939 504.48,606.369 505.465,605.979 506.45,603.857 507.434,603.219 508.419,602.824 509.403,600.697 510.388,599.618 511.373,599.568 512.357,599.5 513.342,598.474 514.327,597.787 515.311,597.768 516.296,597.046 517.281,596.099 518.265,595.598 519.25,595.503 520.234,595.206 521.219,595.057 522.204,594.586 523.188,594.348 524.173,593.362 525.158,593.17 526.142,593.092 527.127,592.356 528.112,592.169 529.096,591.292 530.081,591.002 531.065,589.772 532.05,589.028 533.035,588.98 534.019,588.483 535.004,588.192 535.989,587.979 536.973,587.573 537.958,587.322 538.943,586.388 539.927,585.97 540.912,585.119 541.896,585.057 542.881,584.859 543.866,584.34 544.85,584.266 545.835,584.233 546.82,584.207 547.804,583.793 548.789,583.74 549.773,583.347 550.758,582.834 551.743,581.248 552.727,581.059 553.712,580.231 554.697,580.208 555.681,579.978 556.666,579.574 557.651,578.778 558.635,578.357 559.62,578.038 560.604,577.869 561.589,577.273 562.574,575.845 563.558,575.6 564.543,575.513 565.528,575.017 566.512,574.263 567.497,573.042 568.482,572.737 569.466,571.698 570.451,571.692 571.435,571.686 572.42,571.362 573.405,571.094 574.389,571.008 575.374,570.283 576.359,570.183 577.343,569.852 578.328,569.554 579.313,569.541 580.297,568.6 581.282,567.691 582.266,567.684 583.251,567.451 584.236,567.44 585.22,567.357 586.205,567.029 587.19,566.604 588.174,565.723 589.159,565.259 590.143,564.917 591.128,563.669 592.113,563.545 593.097,563.527 594.082,562.549 595.067,561.927 596.051,561.816 597.036,561.516 598.021,561.469 599.005,561.304 599.99,560.994 600.974,560.611 601.959,560.502 602.944,559.234 603.928,559.225 604.913,559.21 605.898,559.184 606.882,559.158 607.867,558.924 608.852,558.808 609.836,558.425 610.821,557.949 611.805,557.492 612.79,557.326 613.775,557.179 614.759,557.165 615.744,556.559 616.729,556.301 617.713,555.918 618.698,555.881 619.683,555.472 620.667,555.186 621.652,554.94 622.636,554.804 623.621,554.651 624.606,554.649 625.59,554.622 626.575,554.528 627.56,554.323 628.544,554.292 629.529,554.285 630.513,553.613 631.498,552.897 632.483,552.845 633.467,552.804 634.452,552.731 635.437,552.571 636.421,551.873 637.406,551.778 638.391,550.961 639.375,550.882 640.36,549.75 641.344,549.145 642.329,548.868 643.314,548.81 644.298,548.644 645.283,548.597 646.268,548.449 647.252,548.337 648.237,548.31 649.222,547.888 650.206,547.541 651.191,547.111 652.175,546.977 653.16,546.804 654.145,546.516 655.129,546.142 656.114,546.041 657.099,545.69 658.083,545.641 659.068,544.996 660.053,544.905 661.037,544.493 662.022,544.462 663.006,544.238 663.991,544.156 664.976,543.51 665.96,542.805 666.945,542.754 667.93,542.625 668.914,542.526 669.899,542.206 670.883,541.117 671.868,540.895 672.853,540.778 673.837,540.541 674.822,540.459 675.807,539.719 676.791,538.582 677.776,538.569 678.761,538.512 679.745,538.436 680.73,538.189 681.714,538.179 682.699,538.111 683.684,537.794 684.668,537.257 685.653,537.211 686.638,537.194 687.622,537.138 688.607,536.702 689.592,536.652 690.576,536.493 691.561,536.086 692.545,535.834 693.53,535.19 694.515,534.882 695.499,534.835 696.484,534.736 697.469,534.592 698.453,534.57 699.438,534.52 700.423,534.483 701.407,534.448 702.392,534.412 703.376,533.997 704.361,533.909 705.346,533.826 706.33,533.813 707.315,533.323 708.3,533.005 709.284,532.646 710.269,532.594 711.253,532.428 712.238,532.329 713.223,532.215 714.207,532.038 715.192,531.948 716.177,531.534 717.161,531.379 718.146,531.369 719.131,531.127 720.115,530.65 721.1,530.247 722.084,529.995 723.069,529.808 724.054,529.187 725.038,529.171 726.023,528.929 727.008,528.595 727.992,528.101 728.977,527.9 729.962,527.552 730.946,527.442 731.931,527.046 732.915,527.035 733.9,526.696 734.885,526.225 735.869,525.82 736.854,525.656 737.839,525.546 738.823,525.437 739.808,525.393 740.793,525.25 741.777,524.445 742.762,524.397 743.746,524.341 744.731,523.822 745.716,523.818 746.7,523.733 747.685,523.371 748.67,523.095 749.654,523.008 750.639,522.926 751.623,522.687 752.608,522.044 753.593,521.723 754.577,521.722 755.562,521.719 756.547,521.196 757.531,521.043 758.516,520.946 759.501,520.249 760.485,519.992 761.47,519.834 762.454,519.82 763.439,519.154 764.424,518.515 765.408,518.137 766.393,517.978 767.378,517.847 768.362,517.747 769.347,517.441 770.332,517.372 771.316,517.349 772.301,516.85 773.285,516.582 774.27,516.233 775.255,515.658 776.239,515.562 777.224,515.233 778.209,515.093 779.193,514.894 780.178,514.395 781.163,514.203 782.147,513.676 783.132,513.64 784.116,513.471 785.101,513.192 786.086,512.898 787.07,512.827 788.055,512.563 789.04,512.437 790.024,512.228 791.009,512.182 791.993,512.058 792.978,511.928 793.963,511.657 794.947,511.554 795.932,511.55 796.917,511.392 797.901,511.331 798.886,510.841 799.871,510.742 800.855,510.576 801.84,509.958 802.824,509.685 803.809,509.643 804.794,509.282 805.778,509.256 806.763,509.119 807.748,509.063 808.732,509.002 809.717,508.268 810.702,508.215 811.686,507.816 812.671,507.091 813.655,506.785 814.64,506.15 815.625,505.846 816.609,505.841 817.594,505.173 818.579,504.589 819.563,504.531 820.548,504.328 821.533,504.209 822.517,504.142 823.502,504.116 824.486,504.094 825.471,503.996 826.456,503.951 827.44,503.796 828.425,503.654 829.41,503.309 830.394,502.986 831.379,502.306 832.363,501.43 833.348,500.737 834.333,500.522 835.317,500.476 836.302,500.461 837.287,500.348 838.271,500.044 839.256,499.53 840.241,499.371 841.225,499.278 842.21,498.583 843.194,498.522 844.179,498.401 845.164,498.299 846.148,498.22 847.133,498.074 848.118,497.912 849.102,497.751 850.087,495.642 851.072,495.416 852.056,495.068 853.041,494.6 854.025,494.186 855.01,493.544 855.995,493.218 856.979,493.155 857.964,492.244 858.949,491.957 859.933,491.872 860.918,490.716 861.903,490.521 862.887,490.134 863.872,490.065 864.856,489.726 865.841,489.53 866.826,489.254 867.81,489.184 868.795,488.706 869.78,488.554 870.764,488.441 871.749,488.383 872.733,488.312 873.718,488.012 874.703,487.988 875.687,487.358 876.672,486.533 877.657,486.392 878.641,485.985 879.626,485.682 880.611,484.827 881.595,484.326 882.58,483.869 883.564,483.749 884.549,483.548 885.534,483.368 886.518,483.267 887.503,482.871 888.488,482.83 889.472,482.704 890.457,482.403 891.442,482.038 892.426,481.835 893.411,481.826 894.395,481.631 895.38,481.247 896.365,480.748 897.349,480.722 898.334,480.697 899.319,480.534 900.303,479.912 901.288,479.826 902.273,479.634 903.257,479.503 904.242,479.371 905.226,479.352 906.211,479.331 907.196,479.108 908.18,479.091 909.165,478.472 910.15,478.427 911.134,478.383 912.119,478.342 913.103,478.17 914.088,477.964 915.073,477.901 916.057,477.828 917.042,477.443 918.027,477.218 919.011,477.173 919.996,476.982 920.981,476.958 921.965,476.296 922.95,476.009 923.934,475.912 924.919,475.357 925.904,475.141 926.888,474.412 927.873,474.236 928.858,473.664 929.842,473.558 930.827,473.229 931.812,472.969 932.796,472.494 933.781,472.409 934.765,471.573 935.75,471.283 936.735,471.075 937.719,470.896 938.704,470.638 939.689,470.396 940.673,469.913 941.658,469.789 942.643,469.733 943.627,469.576 944.612,469.213 945.596,469.181 946.581,468.403 947.566,468.396 948.55,468.298 949.535,468.123 950.52,467.727 951.504,467.549 952.489,467.465 953.473,467.409 954.458,467.325 955.443,467.092 956.427,466.204 957.412,465.423 958.397,465.381 959.381,465.32 960.366,464.911 961.351,464.531 962.335,464.498 963.32,464.491 964.304,464.372 965.289,464.184 966.274,463.797 967.258,463.663 968.243,463.536 969.228,463.222 970.212,463.025 971.197,462.814 972.182,462.744 973.166,462.683 974.151,462.543 975.135,461.944 976.12,461.936 977.105,461.404 978.089,461.366 979.074,461.159 980.059,460.751 981.043,460.346 982.028,459.894 983.013,459.838 983.997,459.224 984.982,459.052 985.966,458.973 986.951,458.944 987.936,458.722 988.92,458.718 989.905,458.529 990.89,458.492 991.874,458.193 992.859,458.172 993.843,458.088 994.828,457.62 995.813,457.43 996.797,457.121 997.782,457.035 998.767,456.807 999.751,456.766 1000.74,456.681 1001.72,456.655 1002.71,456.3 1003.69,456.241 1004.67,455.982 1005.66,455.842 1006.64,455.822 1007.63,455.734 1008.61,455.617 1009.6,455.535 1010.58,455.5 1011.57,454.921 1012.55,454.576 1013.54,454.314 1014.52,454.295 1015.51,453.777 1016.49,453.734 1017.47,453.704 1018.46,453.617 1019.44,453.601 1020.43,453.526 1021.41,453.504 1022.4,453.423 1023.38,453.026 1024.37,452.833 1025.35,452.186 1026.34,451.988 1027.32,451.63 1028.31,451.578 1029.29,451.013 1030.27,450.411 1031.26,449.87 1032.24,449.727 1033.23,449.551 1034.21,448.996 1035.2,448.831 1036.18,448.747 1037.17,448.426 1038.15,448.247 1039.14,448.151 1040.12,448.084 1041.11,447.701 1042.09,447.166 1043.08,446.556 1044.06,446.554 1045.04,446.502 1046.03,446.416 1047.01,446.29 1048,446.256 1048.98,446.221 1049.97,446.101 1050.95,445.91 1051.94,445.354 1052.92,445.146 1053.91,445.136 1054.89,445.087 1055.88,445.06 1056.86,445.053 1057.84,444.935 1058.83,444.854 1059.81,444.516 1060.8,444.485 1061.78,444.301 1062.77,444.276 1063.75,443.686 1064.74,443.437 1065.72,442.841 1066.71,442.778 1067.69,442.662 1068.68,442.657 1069.66,442.576 1070.64,442.565 1071.63,442.061 1072.61,441.994 1073.6,441.669 1074.58,441.613 1075.57,441.041 1076.55,440.7 1077.54,440.646 1078.52,440.505 1079.51,440.438 1080.49,440.163 1081.48,439.942 1082.46,439.849 1083.45,439.844 1084.43,439.795 1085.41,439.758 1086.4,439.686 1087.38,439.673 1088.37,439.309 1089.35,439.292 1090.34,439.117 1091.32,438.363 1092.31,438.326 1093.29,438.212 1094.28,438.194 1095.26,438.184 1096.25,438.064 1097.23,437.682 1098.21,437.659 1099.2,437.499 1100.18,437.288 1101.17,437.121 1102.15,437.084 1103.14,436.898 1104.12,436.601 1105.11,436.554 1106.09,436.44 1107.08,436.395 1108.06,436.178 1109.05,435.798 1110.03,435.62 1111.01,435.599 1112,434.926 1112.98,434.869 1113.97,434.847 1114.95,434.512 1115.94,434.226 1116.92,434.207 1117.91,434.007 1118.89,433.926 1119.88,433.636 1120.86,433.635 1121.85,433.616 1122.83,433.465 1123.82,433.034 1124.8,432.985 1125.78,432.958 1126.77,432.89 1127.75,432.502 1128.74,432.485 1129.72,432.346 1130.71,432.304 1131.69,432.182 1132.68,432.039 1133.66,432.039 1134.65,432.025 1135.63,431.997 1136.62,431.86 1137.6,431.568 1138.58,431.558 1139.57,431.189 1140.55,431.168 1141.54,431.026 1142.52,431.022 1143.51,430.984 1144.49,430.893 1145.48,430.617 1146.46,430.575 1147.45,430.418 1148.43,430.299 1149.42,430.037 1150.4,429.996 1151.38,429.719 1152.37,429.607 1153.35,429.514 1154.34,429.462 1155.32,429.448 1156.31,429.171 1157.29,429.057 1158.28,428.954 1159.26,428.896 1160.25,428.251 1161.23,428.189 1162.22,428.155 1163.2,428.127 1164.19,427.988 1165.17,427.83 1166.15,427.662 1167.14,427.367 1168.12,427.263 1169.11,427.199 1170.09,427.176 1171.08,426.9 1172.06,426.609 1173.05,426.589 1174.03,426.574 1175.02,426.479 1176,426.471 1176.99,426.342 1177.97,426.013 1178.95,425.987 1179.94,425.831 1180.92,425.822 1181.91,425.66 1182.89,425.563 1183.88,425.326 1184.86,425.222 1185.85,424.294 1186.83,424.138 1187.82,423.564 1188.8,423.462 1189.79,423.458 1190.77,423.186 1191.75,423.153 1192.74,423.001 1193.72,422.713 1194.71,422.403 1195.69,422.329 1196.68,422.211 1197.66,421.759 1198.65,421.582 1199.63,421.284 1200.62,420.452 1201.6,420.263 1202.59,419.976 1203.57,419.944 1204.56,419.733 1205.54,419.587 1206.52,419.491 1207.51,419.383 1208.49,418.923 1209.48,418.855 1210.46,418.836 1211.45,418.263 1212.43,417.676 1213.42,417.589 1214.4,417.392 1215.39,417.374 1216.37,417.333 1217.36,416.977 1218.34,416.904 1219.32,416.023 1220.31,415.979 1221.29,415.952 1222.28,415.804 1223.26,415.634 1224.25,415.502 1225.23,415.153 1226.22,414.942 1227.2,414.878 1228.19,414.764 1229.17,414.751 1230.16,413.891 1231.14,413.717 1232.12,413.534 1233.11,413.37 1234.09,412.916 1235.08,412.854 1236.06,412.668 1237.05,412.468 1238.03,412.299 1239.02,412.175 1240,412.136 1240.99,412.059 1241.97,412.052 1242.96,411.683 1243.94,410.799 1244.93,410.797 1245.91,410.656 1246.89,410.64 1247.88,410.616 1248.86,410.555 1249.85,410.525 1250.83,410.396 1251.82,410.21 1252.8,410.196 1253.79,410.142 1254.77,409.544 1255.76,408.815 1256.74,408.723 1257.73,408.271 1258.71,408.194 1259.69,408.093 1260.68,407.302 1261.66,406.906 1262.65,406.405 1263.63,405.521 1264.62,405.499 1265.6,404.808 1266.59,404.623 1267.57,404.407 1268.56,404.294 1269.54,404.166 1270.53,404.024 1271.51,403.799 1272.49,403.561 1273.48,403.224 1274.46,403.158 1275.45,403.016 1276.43,402.841 1277.42,402.493 1278.4,402.4 1279.39,401.976 1280.37,401.959 1281.36,401.662 1282.34,401.621 1283.33,401.344 1284.31,401.197 1285.3,401.006 1286.28,400.869 1287.26,400.833 1288.25,400.714 1289.23,399.702 1290.22,399.699 1291.2,399.684 1292.19,399.45 1293.17,399.318 1294.16,399.187 1295.14,398.737 1296.13,398.588 1297.11,398.38 1298.1,398.283 1299.08,397.971 1300.06,397.948 1301.05,397.936 1302.03,397.916 1303.02,397.82 1304,397.584 1304.99,397.017 1305.97,396.982 1306.96,396.955 1307.94,396.305 1308.93,396.025 1309.91,395.82 1310.9,395.71 1311.88,395.042 1312.86,394.51 1313.85,394.287 1314.83,393.942 1315.82,393.776 1316.8,393.701 1317.79,393.62 1318.77,393.411 1319.76,393.409 1320.74,393.334 1321.73,393.277 1322.71,393.138 1323.7,392.965 1324.68,392.928 1325.67,392.676 1326.65,392.651 1327.63,392.323 1328.62,391.958 1329.6,391.778 1330.59,391.706 1331.57,391.582 1332.56,391.213 1333.54,391.011 1334.53,390.945 1335.51,390.828 1336.5,390.613 1337.48,390.329 1338.47,390.267 1339.45,389.973 1340.43,389.77 1341.42,389.144 1342.4,388.905 1343.39,388.504 1344.37,388.09 1345.36,388.013 1346.34,387.642 1347.33,387.565 1348.31,387.484 1349.3,386.969 1350.28,386.434 1351.27,386.39 1352.25,386.384 1353.23,386.238 1354.22,386.222 1355.2,385.814 1356.19,385.516 1357.17,385.461 1358.16,385.327 1359.14,385.319 1360.13,385.101 1361.11,385.026 1362.1,384.895 1363.08,384.57 1364.07,384.455 1365.05,384.431 1366.04,384.381 1367.02,384.284 1368,384.064 1368.99,383.86 1369.97,383.826 1370.96,383.819 1371.94,383.381 1372.93,383.038 1373.91,382.55 1374.9,382.49 1375.88,382.268 1376.87,381.559 1377.85,381.492 1378.84,380.843 1379.82,380.806 1380.8,380.785 1381.79,380.718 1382.77,380.561 1383.76,380.556 1384.74,380.237 1385.73,379.968 1386.71,379.235 1387.7,378.994 1388.68,378.879 1389.67,378.762 1390.65,378.587 1391.64,378.587 1392.62,378.398 1393.6,378.365 1394.59,378.299 1395.57,378.283 1396.56,378.238 1397.54,378.061 1398.53,378.032 1399.51,377.886 1400.5,377.425 1401.48,377.297 1402.47,376.949 1403.45,376.71 1404.44,376.633 1405.42,376.135 1406.41,375.919 1407.39,375.85 1408.37,375.808 1409.36,375.239 1410.34,375.125 1411.33,374.784 1412.31,373.905 1413.3,373.308 1414.28,373.226 1415.27,373.172 1416.25,373.04 1417.24,373.017 1418.22,372.908 1419.21,372.848 1420.19,372.534 1421.17,372.523 1422.16,372.483 1423.14,372.48 1424.13,372.247 1425.11,372.233 1426.1,372.052 1427.08,371.902 1428.07,371.899 1429.05,371.621 1430.04,371.582 1431.02,371.474 1432.01,371.449 1432.99,371.436 1433.97,371.399 1434.96,371.127 1435.94,370.971 1436.93,370.543 1437.91,370.512 1438.9,370.348 1439.88,370.294 1440.87,370.293 1441.85,370.186 1442.84,370.171 1443.82,370.127 1444.81,370.005 1445.79,368.888 1446.78,368.732 1447.76,368.386 1448.74,367.985 1449.73,367.979 1450.71,367.953 1451.7,367.735 1452.68,367.721 1453.67,367.579 1454.65,367.353 1455.64,367.054 1456.62,366.99 1457.61,366.963 1458.59,366.873 1459.58,366.852 1460.56,366.695 1461.54,366.669 1462.53,366.453 1463.51,366.412 1464.5,366.404 1465.48,366.318 1466.47,366.134 1467.45,366.106 1468.44,365.896 1469.42,365.831 1470.41,365.793 1471.39,365.451 1472.38,365.016 1473.36,364.947 1474.34,364.751 1475.33,364.569 1476.31,364.503 1477.3,364.447 1478.28,364.435 1479.27,364.419 1480.25,364.133 1481.24,364.109 1482.22,363.932 1483.21,363.849 1484.19,363.835 1485.18,363.722 1486.16,363.543 1487.15,363.311 1488.13,363.206 1489.11,362.99 1490.1,362.807 1491.08,362.805 1492.07,362.424 1493.05,362.318 1494.04,361.86 1495.02,361.687 1496.01,361.618 1496.99,361.564 1497.98,361.409 1498.96,361.16 1499.95,360.956 1500.93,360.869 1501.91,360.512 1502.9,359.864 1503.88,359.698 1504.87,359.554 1505.85,359.325 1506.84,359.027 1507.82,358.972 1508.81,358.767 1509.79,358.628 1510.78,358.441 1511.76,358.191 1512.75,358.166 1513.73,358.152 1514.71,358.148 1515.7,357.904 1516.68,357.487 1517.67,357.265 1518.65,357.041 1519.64,356.989 1520.62,356.889 1521.61,356.82 1522.59,356.587 1523.58,356.2 1524.56,356.1 1525.55,355.986 1526.53,355.912 1527.52,355.858 1528.5,355.627 1529.48,355.52 1530.47,355.195 1531.45,355.158 1532.44,355.129 1533.42,355.067 1534.41,355.023 1535.39,355.001 1536.38,354.684 1537.36,354.498 1538.35,354.418 1539.33,354.244 1540.32,354.154 1541.3,354.108 1542.28,354.091 1543.27,354.069 1544.25,354.033 1545.24,353.991 1546.22,353.428 1547.21,353.38 1548.19,353.006 1549.18,352.943 1550.16,352.684 1551.15,352.154 1552.13,351.942 1553.12,351.784 1554.1,351.711 1555.08,351.701 1556.07,351.37 1557.05,351.059 1558.04,350.936 1559.02,350.876 1560.01,350.609 1560.99,350.538 1561.98,350.498 1562.96,350.443 1563.95,350.301 1564.93,349.538 1565.92,349.508 1566.9,349.439 1567.89,349.183 1568.87,349.122 1569.85,348.46 1570.84,348.222 1571.82,347.998 1572.81,347.914 1573.79,347.9 1574.78,347.844 1575.76,347.824 1576.75,347.733 1577.73,347.703 1578.72,347.553 1579.7,347.463 1580.69,347.355 1581.67,347.312 1582.65,347.273 1583.64,347.138 1584.62,346.959 1585.61,346.919 1586.59,346.63 1587.58,346.56 1588.56,346.502 1589.55,346.49 1590.53,346.446 1591.52,345.738 1592.5,345.712 1593.49,345.21 1594.47,345.142 1595.45,345.056 1596.44,344.778 1597.42,344.358 1598.41,344.319 1599.39,344.271 1600.38,344.208 1601.36,343.846 1602.35,343.689 1603.33,343.624 1604.32,343.509 1605.3,343.501 1606.29,343.487 1607.27,343.289 1608.26,343.13 1609.24,343.032 1610.22,342.758 1611.21,342.516 1612.19,342.42 1613.18,342.255 1614.16,341.603 1615.15,341.451 1616.13,341.384 1617.12,341.338 1618.1,341.285 1619.09,340.925 1620.07,340.866 1621.06,340.838 1622.04,340.518 1623.02,340.377 1624.01,340.26 1624.99,340.23 1625.98,339.625 1626.96,339.143 1627.95,338.872 1628.93,338.678 1629.92,338.49 1630.9,338.448 1631.89,338.392 1632.87,338.375 1633.86,338.101 1634.84,338.038 1635.82,337.956 1636.81,337.722 1637.79,337.667 1638.78,337.625 1639.76,337.468 1640.75,337.378 1641.73,337.257 1642.72,337.127 1643.7,337.102 1644.69,336.81 1645.67,336.687 1646.66,336.677 1647.64,336.434 1648.63,336.103 1649.61,336.083 1650.59,336.002 1651.58,335.909 1652.56,335.881 1653.55,335.746 1654.53,335.721 1655.52,335.7 1656.5,335.454 1657.49,335.437 1658.47,335.105 1659.46,334.937 1660.44,334.783 1661.43,334.709 1662.41,334.643 1663.39,334.584 1664.38,334.561 1665.36,334.462 1666.35,334.335 1667.33,334.072 1668.32,334.033 1669.3,333.993 1670.29,333.854 1671.27,333.79 1672.26,333.302 1673.24,333.193 1674.23,332.984 1675.21,332.698 1676.19,332.636 1677.18,332.253 1678.16,332.15 1679.15,332.102 1680.13,331.735 1681.12,331.436 1682.1,331.034 1683.09,330.816 1684.07,330.501 1685.06,330.456 1686.04,330.421 1687.03,330.307 1688.01,330.215 1689,330.17 1689.98,329.855 1690.96,329.398 1691.95,329.284 1692.93,329.212 1693.92,329.001 1694.9,328.517 1695.89,328.494 1696.87,328.431 1697.86,328.301 1698.84,327.781 1699.83,327.557 1700.81,327.484 1701.8,327.316 1702.78,327.269 1703.76,327.098 1704.75,326.998 1705.73,326.944 1706.72,326.793 1707.7,326.78 1708.69,326.301 1709.67,326.175 1710.66,326.034 1711.64,326 1712.63,325.583 1713.61,325.542 1714.6,325.41 1715.58,325.334 1716.56,325.216 1717.55,325.135 1718.53,325.038 1719.52,324.312 1720.5,324.194 1721.49,323.86 1722.47,323.804 1723.46,323.775 1724.44,323.349 1725.43,322.904 1726.41,322.791 1727.4,322.786 1728.38,322.764 1729.37,322.383 1730.35,322.349 1731.33,322.181 1732.32,322.173 1733.3,322.155 1734.29,321.858 1735.27,321.773 1736.26,321.481 1737.24,321.437 1738.23,321.243 1739.21,321.068 1740.2,320.875 1741.18,320.731 1742.17,320.695 1743.15,320.531 1744.13,320.514 1745.12,320.054 1746.1,319.995 1747.09,319.958 1748.07,319.945 1749.06,319.922 1750.04,319.817 1751.03,319.802 1752.01,319.624 1753,319.311 1753.98,319.108 1754.97,318.929 1755.95,318.745 1756.93,318.734 1757.92,318.64 1758.9,318.271 1759.89,318.198 1760.87,317.951 1761.86,317.798 1762.84,317.626 1763.83,317.546 1764.81,317.482 1765.8,317.208 1766.78,317.206 1767.77,317.185 1768.75,317.002 1769.74,316.996 1770.72,316.867 1771.7,316.271 1772.69,316.197 1773.67,316.177 1774.66,316.032 1775.64,315.958 1776.63,315.923 1777.61,315.915 1778.6,315.911 1779.58,315.727 1780.57,315.711 1781.55,315.632 1782.54,315.469 1783.52,315.413 1784.5,315.397 1785.49,315.334 1786.47,314.832 1787.46,314.6 1788.44,314.358 1789.43,314.014 1790.41,313.978 1791.4,313.962 1792.38,313.725 1793.37,313.651 1794.35,313.472 1795.34,313.067 1796.32,312.397 1797.3,312.228 1798.29,311.985 1799.27,311.934 1800.26,311.709 1801.24,311.421 1802.23,311.375 1803.21,311.28 1804.2,311.085 1805.18,311.072 1806.17,310.646 1807.15,310.328 1808.14,310.232 1809.12,310.232 1810.11,309.884 1811.09,309.392 1812.07,308.397 1813.06,308.356 1814.04,307.38 1815.03,306.661 1816.01,306.659 1817,306.607 1817.98,306.466 1818.97,306.415 1819.95,306.379 1820.94,306.249 1821.92,305.851 1822.91,305.542 1823.89,305.073 1824.87,305.064 1825.86,304.612 1826.84,304.597 1827.83,304.518 1828.81,304.47 1829.8,304.06 1830.78,303.547 1831.77,303.46 1832.75,303.409 1833.74,303.393 1834.72,303.357 1835.71,303.135 1836.69,302.679 1837.67,302.54 1838.66,302.442 1839.64,302.306 1840.63,302.118 1841.61,301.935 1842.6,301.893 1843.58,301.788 1844.57,301.622 1845.55,301.295 1846.54,301.173 1847.52,301.153 1848.51,301.044 1849.49,300.887 1850.48,300.472 1851.46,300.466 1852.44,300.362 1853.43,300.326 1854.41,300.095 1855.4,299.905 1856.38,299.78 1857.37,299.572 1858.35,299.516 1859.34,299.303 1860.32,299.267 1861.31,298.718 1862.29,298.517 1863.28,298.32 1864.26,298.209 1865.24,298.164 1866.23,298.101 1867.21,297.951 1868.2,297.849 1869.18,297.519 1870.17,297.376 1871.15,297.267 1872.14,297.178 1873.12,297.133 1874.11,297.059 1875.09,296.92 1876.08,296.678 1877.06,296.661 1878.04,296.525 1879.03,296.339 1880.01,295.887 1881,295.824 1881.98,295.736 1882.97,295.673 1883.95,294.91 1884.94,294.808 1885.92,293.897 1886.91,293.889 1887.89,293.839 1888.88,293.362 1889.86,293.304 1890.85,292.895 1891.83,292.644 1892.81,292.445 1893.8,292.242 1894.78,292.005 1895.77,291.945 1896.75,291.849 1897.74,291.596 1898.72,291.532 1899.71,291.471 1900.69,291.31 1901.68,291.268 1902.66,291.176 1903.65,290.795 1904.63,290.534 1905.61,290.468 1906.6,290.306 1907.58,290.294 1908.57,290.198 1909.55,290.128 1910.54,289.712 1911.52,289.526 1912.51,289.258 1913.49,289.188 1914.48,289.138 1915.46,288.966 1916.45,288.915 1917.43,288.858 1918.41,288.827 1919.4,288.796 1920.38,288.734 1921.37,288.612 1922.35,288.567 1923.34,288.344 1924.32,288.061 1925.31,287.953 1926.29,287.905 1927.28,287.903 1928.26,287.831 1929.25,287.718 1930.23,287.713 1931.22,287.624 1932.2,287.198 1933.18,286.324 1934.17,285.608 1935.15,285.58 1936.14,285.322 1937.12,285.144 1938.11,285.088 1939.09,284.984 1940.08,284.878 1941.06,284.833 1942.05,284.138 1943.03,284.035 1944.02,283.933 1945,283.869 1945.98,283.785 1946.97,283.484 1947.95,283.136 1948.94,282.626 1949.92,282.613 1950.91,282.267 1951.89,282.178 1952.88,282.032 1953.86,281.911 1954.85,281.852 1955.83,281.747 1956.82,281.686 1957.8,281.56 1958.78,281.47 1959.77,281.45 1960.75,281.114 1961.74,280.728 1962.72,279.896 1963.71,279.713 1964.69,279.482 1965.68,279.25 1966.66,279.211 1967.65,279.092 1968.63,278.854 1969.62,278.621 1970.6,278.35 1971.59,278.333 1972.57,278.312 1973.55,277.787 1974.54,277.417 1975.52,277.275 1976.51,276.9 1977.49,276.854 1978.48,276.843 1979.46,276.76 1980.45,276.655 1981.43,276.436 1982.42,276.424 1983.4,276.416 1984.39,276.394 1985.37,276.334 1986.35,276.331 1987.34,276.252 1988.32,276.249 1989.31,275.969 1990.29,275.532 1991.28,275.295 1992.26,275.151 1993.25,274.785 1994.23,274.679 1995.22,274.633 1996.2,274.411 1997.19,274.379 1998.17,274.182 1999.15,273.952 2000.14,273.824 2001.12,273.737 2002.11,273.715 2003.09,273.701 2004.08,273.181 2005.06,273.138 2006.05,272.989 2007.03,272.98 2008.02,272.952 2009,272.878 2009.99,272.801 2010.97,272.749 2011.96,272.655 2012.94,272.363 2013.92,272.291 2014.91,272.263 2015.89,272.163 2016.88,271.849 2017.86,271.499 2018.85,271.425 2019.83,271.395 2020.82,271.105 2021.8,270.859 2022.79,270.673 2023.77,270.598 2024.76,270.533 2025.74,270.267 2026.72,270.166 2027.71,270.143 2028.69,269.893 2029.68,269.708 2030.66,269.348 2031.65,269.088 2032.63,268.89 2033.62,268.873 2034.6,268.744 2035.59,268.116 2036.57,267.967 2037.56,267.645 2038.54,267.631 2039.52,267.558 2040.51,267.538 2041.49,267.434 2042.48,267.083 2043.46,267.041 2044.45,266.954 2045.43,266.606 2046.42,266.384 2047.4,266.355 2048.39,266.32 2049.37,266.25 2050.36,266.249 2051.34,265.866 2052.33,265.709 2053.31,265.561 2054.29,265.442 2055.28,265.393 2056.26,265.214 2057.25,265.192 2058.23,264.757 2059.22,264.719 2060.2,264.672 2061.19,264.53 2062.17,264.517 2063.16,264.267 2064.14,264.036 2065.13,263.841 2066.11,263.692 2067.09,263.193 2068.08,263.006 2069.06,262.871 2070.05,262.763 2071.03,262.738 2072.02,262.729 2073,262.672 2073.99,262.658 2074.97,262.497 2075.96,262.134 2076.94,262.044 2077.93,262.004 2078.91,261.848 2079.89,261.483 2080.88,261.452 2081.86,261.314 2082.85,261.243 2083.83,261.205 2084.82,260.811 2085.8,260.419 2086.79,260.41 2087.77,260.254 2088.76,260.017 2089.74,259.953 2090.73,259.829 2091.71,259.819 2092.7,259.746 2093.68,259.609 2094.66,259.509 2095.65,259.195 2096.63,259.109 2097.62,258.988 2098.6,258.855 2099.59,258.795 2100.57,258.758 2101.56,258.621 2102.54,258.551 2103.53,258.545 2104.51,258.31 2105.5,258.3 2106.48,258.253 2107.46,257.563 2108.45,257.259 2109.43,257.107 2110.42,256.858 2111.4,256.569 2112.39,256.3 2113.37,256.011 2114.36,255.968 2115.34,255.874 2116.33,255.369 2117.31,255.277 2118.3,255.205 2119.28,255.201 2120.26,255.112 2121.25,255.026 2122.23,254.993 2123.22,254.985 2124.2,254.963 2125.19,254.86 2126.17,254.762 2127.16,254.67 2128.14,254.539 2129.13,254.524 2130.11,254.524 2131.1,254.426 2132.08,254.392 2133.07,254.274 2134.05,254.268 2135.03,254.076 2136.02,253.782 2137,253.54 2137.99,253.516 2138.97,253.401 2139.96,253.372 2140.94,253.345 2141.93,253.152 2142.91,252.808 2143.9,252.594 2144.88,252.528 2145.87,252.198 2146.85,252.102 2147.83,252.062 2148.82,251.804 2149.8,251.648 2150.79,251.33 2151.77,251.216 2152.76,251.213 2153.74,250.818 2154.73,250.805 2155.71,250.778 2156.7,250.526 2157.68,250.414 2158.67,250.271 2159.65,250.174 2160.63,249.91 2161.62,249.856 2162.6,249.736 2163.59,249.681 2164.57,249.241 2165.56,249.144 2166.54,249.124 2167.53,249.02 2168.51,248.888 2169.5,248.804 2170.48,248.69 2171.47,248.685 2172.45,248.577 2173.44,248.507 2174.42,248.437 2175.4,248.413 2176.39,248.344 2177.37,248.19 2178.36,248.18 2179.34,248.075 2180.33,247.986 2181.31,247.959 2182.3,247.951 2183.28,247.884 2184.27,247.443 2185.25,247.228 2186.24,246.978 2187.22,246.452 2188.2,246.439 2189.19,246.083 2190.17,245.941 2191.16,245.832 2192.14,245.184 2193.13,245.083 2194.11,245.025 2195.1,244.844 2196.08,244.821 2197.07,244.744 2198.05,244.72 2199.04,244.557 2200.02,244.518 2201,244.326 2201.99,244.316 2202.97,244.171 2203.96,244.138 2204.94,244.102 2205.93,243.751 2206.91,243.736 2207.9,243.597 2208.88,243.304 2209.87,243.207 2210.85,243.194 2211.84,243.073 2212.82,242.825 2213.81,242.683 2214.79,242.418 2215.77,242.157 2216.76,242.045 2217.74,241.57 2218.73,241.336 2219.71,241.313 2220.7,241.271 2221.68,241.249 2222.67,241.037 2223.65,240.955 2224.64,240.73 2225.62,240.655 2226.61,240.605 2227.59,240.545 2228.57,240.413 2229.56,240.112 2230.54,239.949 2231.53,239.829 2232.51,239.62 2233.5,239.539 2234.48,239.078 2235.47,238.979 2236.45,238.973 2237.44,238.422 2238.42,238.137 2239.41,238.021 2240.39,237.794 2241.37,237.676 2242.36,237.457 2243.34,237.447 2244.33,237.421 2245.31,237.311 2246.3,236.802 2247.28,236.683 2248.27,236.66 2249.25,236.463 2250.24,236.418 2251.22,236.403 2252.21,235.851 2253.19,235.485 2254.18,235.146 2255.16,234.939 2256.14,234.812 2257.13,234.682 2258.11,234.262 2259.1,234.153 2260.08,234.028 2261.07,233.972 2262.05,233.821 2263.04,233.672 2264.02,233.636 2265.01,233.606 2265.99,233.163 2266.98,233.002 2267.96,232.955 2268.94,232.931 2269.93,232.872 2270.91,232.814 2271.9,232.69 2272.88,232.279 2273.87,232.238 2274.85,232.194 2275.84,231.993 2276.82,231.917 2277.81,231.468 2278.79,231.432 2279.78,231.213 2280.76,231.131 2281.74,231.102 2282.73,231.015 2283.71,231 2284.7,230.887 2285.68,230.619 2286.67,230.527 2287.65,230.398 2288.64,230.327 2289.62,230.323 2290.61,230.231 2291.59,230.029 2292.58,229.993 2293.56,229.865 2294.55,229.864 2295.53,229.773 2296.51,229.639 2297.5,229.6 2298.48,229.523 2299.47,229.485 2300.45,229.192 2301.44,228.611 2302.42,228.532 2303.41,228.464 2304.39,228.448 2305.38,227.991 2306.36,227.965 2307.35,227.712 2308.33,227.579 2309.31,227.498 2310.3,227.273 2311.28,227.018 2312.27,226.776 2313.25,226.496 2314.24,226.482 2315.22,225.93 2316.21,225.822 2317.19,225.793 2318.18,225.672 2319.16,225.661 2320.15,225.575 2321.13,225.53 2322.11,225.378 2323.1,225.03 2324.08,224.951 2325.07,224.87 2326.05,224.673 2327.04,224.511 2328.02,224.467 2329.01,224.431 2329.99,224.399 2330.98,224.202 2331.96,224.179 2332.95,224.033 2333.93,223.929 2334.92,223.868 2335.9,223.751 2336.88,223.549 2337.87,223.417 2338.85,223.395 2339.84,223.306 2340.82,222.835 2341.81,222.815 2342.79,222.8 2343.78,222.693 2344.76,222.642 2345.75,222.477 2346.73,222.449 2347.72,222.409 2348.7,222.294 2349.68,222.211 2350.67,222.122 2351.65,222.045 2352.64,221.979 2353.62,221.971 2354.61,221.692 2355.59,221.688 2356.58,221.548 2357.56,221.378 2358.55,221.364 2359.53,221.042 2360.52,220.486 2361.5,220.294 2362.48,220.26 2363.47,220.254 2364.45,219.772 2365.44,219.624 2366.42,219.581 2367.41,219.331 2368.39,219.028 2369.38,218.685 2370.36,218.65 2371.35,218.582 2372.33,218.542 2373.32,218.154 2374.3,217.865 2375.29,217.835 2376.27,217.56 2377.25,217.5 2378.24,217.165 2379.22,217.15 2380.21,217.126 2381.19,217.111 2382.18,216.949 2383.16,216.662 2384.15,216.521 2385.13,216.478 2386.12,216.472 2387.1,216.435 2388.09,216.197 2389.07,216.158 2390.05,216.032 2391.04,215.962 2392.02,215.956 2393.01,215.724 2393.99,215.701 2394.98,215.495 2395.96,215.259 2396.95,215.159 2397.93,214.618 2398.92,214.411 2399.9,214.057 2400.89,214.051 2401.87,213.921 2402.85,213.891 2403.84,213.661 2404.82,213.626 2405.81,213.359 2406.79,213.26 2407.78,213.109 2408.76,213.036 2409.75,212.969 2410.73,212.881 2411.72,212.851 2412.7,212.758 2413.69,212.752 2414.67,212.702 2415.66,212.659 2416.64,212.407 2417.62,212.403 2418.61,212.065 2419.59,211.822 2420.58,211.482 2421.56,211.419 2422.55,211.355 2423.53,211.15 2424.52,211.108 2425.5,210.913 2426.49,210.89 2427.47,210.885 2428.46,210.789 2429.44,210.778 2430.42,210.647 2431.41,210.405 2432.39,210.112 2433.38,209.713 2434.36,209.663 2435.35,209.484 2436.33,209.174 2437.32,208.911 2438.3,208.531 2439.29,208.52 2440.27,208.468 2441.26,208.455 2442.24,208.343 2443.22,208.205 2444.21,208.129 2445.19,207.532 2446.18,207.09 2447.16,206.964 2448.15,206.898 2449.13,206.862 2450.12,206.824 2451.1,206.824 2452.09,206.763 2453.07,206.188 2454.06,206.029 2455.04,205.74 2456.03,205.117 2457.01,205.026 2457.99,204.661 2458.98,204.281 2459.96,204.04 2460.95,203.447 2461.93,203.261 2462.92,203.218 2463.9,203.139 2464.89,203.128 2465.87,203.117 2466.86,202.633 2467.84,202.617 2468.83,202.346 2469.81,202.255 2470.79,202.192 2471.78,201.911 2472.76,201.576 2473.75,201.421 2474.73,201.327 2475.72,201.031 2476.7,200.786 2477.69,200.522 2478.67,200.436 2479.66,200.327 2480.64,200.04 2481.63,199.654 2482.61,199.636 2483.59,199.216 2484.58,199.145 2485.56,198.939 2486.55,198.935 2487.53,198.898 2488.52,198.78 2489.5,198.418 2490.49,198.282 2491.47,197.998 2492.46,197.892 2493.44,197.883 2494.43,197.636 2495.41,197.169 2496.4,197.068 2497.38,197.066 2498.36,196.774 2499.35,196.403 2500.33,196.382 2501.32,196.247 2502.3,195.988 2503.29,195.966 2504.27,195.738 2505.26,195.63 2506.24,195.412 2507.23,195.277 2508.21,194.803 2509.2,194.601 2510.18,194.543 2511.16,194.348 2512.15,193.6 2513.13,193.569 2514.12,193.393 2515.1,192.838 2516.09,192.778 2517.07,192.448 2518.06,192.394 2519.04,192.01 2520.03,191.765 2521.01,191.305 2522,191.256 2522.98,191.1 2523.96,190.973 2524.95,189.312 2525.93,189.268 2526.92,188.842 2527.9,188.441 2528.89,188.27 2529.87,188.234 2530.86,186.325 2531.84,186.25 2532.83,185.919 2533.81,185.083 2534.8,184.928 2535.78,184.57 2536.77,183.953 2537.75,183.504 2538.73,183.152 2539.72,182.796 2540.7,182.472 2541.69,181.208 2542.67,180.876 2543.66,180.745 2544.64,180.565 2545.63,179.904 2546.61,179.327 2547.6,179.123 2548.58,178.995 2549.57,178.98 2550.55,177.946 2551.53,177.312 2552.52,176.924 2553.5,176.851 2554.49,176.644 2555.47,176.608 2556.46,176.578 2557.44,176.47 2558.43,175.684 2559.41,175.625 2560.4,175.07 2561.38,175.059 2562.37,175.007 2563.35,174.288 2564.33,174.226 2565.32,173.969 2566.3,173.96 2567.29,173.918 2568.27,173.737 2569.26,173.73 2570.24,173.104 2571.23,172.272 2572.21,171.768 2573.2,171.737 2574.18,171.076 2575.17,170.796 2576.15,170.092 2577.14,169.885 2578.12,169.535 2579.1,169.233 2580.09,168.959 2581.07,168.406 2582.06,167.978 2583.04,167.255 2584.03,167.025 2585.01,166.54 2586,165.492 2586.98,164.656 2587.97,164.29 2588.95,163.973 2589.94,163.833 2590.92,163.647 2591.9,163.352 2592.89,163.292 2593.87,163.195 2594.86,163.151 2595.84,163.031 2596.83,162.602 2597.81,161.489 2598.8,161.005 2599.78,160.913 2600.77,160.878 2601.75,160.107 2602.74,159.905 2603.72,159.462 2604.7,158.782 2605.69,158.498 2606.67,157.303 2607.66,154.398 2608.64,153.446 2609.63,153.445 2610.61,152.855 2611.6,152.65 2612.58,151.911 2613.57,151.237 2614.55,150.733 2615.54,150.668 2616.52,150.054 2617.51,149.845 2618.49,149.431 2619.47,147.951 2620.46,147.553 2621.44,146.707 2622.43,144.185 2623.41,143.689 2624.4,142.659 2625.38,142.24 2626.37,137.636 2627.35,136.446 2628.34,135.636 2629.32,134.567 2630.31,134.196 2631.29,131.21 2632.27,129.388 2633.26,129.307 2634.24,125.497 2635.23,125.11 2636.21,121.688 "/>
</svg>
