<?xml version="1.0" encoding="UTF-8"?>
<svg xmlns="http://www.w3.org/2000/svg"
     xmlns:xlink="http://www.w3.org/1999/xlink"
     version="1.2"
     width="150mm" height="84mm" viewBox="0 0 150 84"
     stroke="none"
     fill="#000000"
     stroke-width="0.3"
     font-size="3.88"
>
<defs>
  <marker id="arrow" markerWidth="15" markerHeight="7" refX="5" refY="3.5" orient="auto" markerUnits="strokeWidth">
    <path d="M0,0 L15,3.5 L0,7 z" stroke="context-stroke" fill="context-stroke"/>
  </marker>
</defs>
<g stroke-opacity="1" stroke-width="0.3" id="img-29b4c979-1">
  <g transform="translate(11.89,3.82)" stroke="#A3148A">
    <path fill="none" d="M-3.2,0 L3.2,0 " class="primitive"/>
  </g>
  <g transform="translate(12.01,6.76)" stroke="#A3148A">
    <path fill="none" d="M-3.32,0 L3.32,0 " class="primitive"/>
  </g>
  <g transform="translate(6.22,5.29)" stroke="#0D4008">
    <path fill="none" d="M-2.47,0 L2.47,0 " class="primitive"/>
  </g>
  <g transform="translate(8.69,5.29)" stroke="#0D4008">
    <path fill="none" d="M0,1.47 L0,-1.47 " class="primitive"/>
  </g>
  <g transform="translate(11.47,9.69)" stroke="#0D4008">
    <path fill="none" d="M-4.27,0 L4.27,0 " class="primitive"/>
  </g>
  <g transform="translate(30.47,12.63)" stroke="#0D4008">
    <path fill="none" d="M-2.89,0 L2.89,0 " class="primitive"/>
  </g>
  <g transform="translate(30.57,15.57)" stroke="#0D4008">
    <path fill="none" d="M-2.99,0 L2.99,0 " class="primitive"/>
  </g>
  <g transform="translate(23.69,14.1)" stroke="#0D4008">
    <path fill="none" d="M-3.89,0 L3.89,0 " class="primitive"/>
  </g>
  <g transform="translate(27.58,14.1)" stroke="#0D4008">
    <path fill="none" d="M0,1.47 L0,-1.47 " class="primitive"/>
  </g>
  <g transform="translate(27.47,18.5)" stroke="#0D4008">
    <path fill="none" d="M-5.43,0 L5.43,0 " class="primitive"/>
  </g>
  <g transform="translate(41.32,21.44)" stroke="#0D4008">
    <path fill="none" d="M-12.15,0 L12.15,0 " class="primitive"/>
  </g>
  <g transform="translate(35.8,24.38)" stroke="#A3148A">
    <path fill="none" d="M-4.06,0 L4.06,0 " class="primitive"/>
  </g>
  <g transform="translate(34.05,27.31)" stroke="#0D4008">
    <path fill="none" d="M-2.31,0 L2.31,0 " class="primitive"/>
  </g>
  <g transform="translate(30.45,25.85)" stroke="#0D4008">
    <path fill="none" d="M-1.29,0 L1.29,0 " class="primitive"/>
  </g>
  <g transform="translate(31.74,25.85)" stroke="#0D4008">
    <path fill="none" d="M0,1.47 L0,-1.47 " class="primitive"/>
  </g>
  <g transform="translate(25.6,23.64)" stroke="#A3148A">
    <path fill="none" d="M-3.56,0 L3.56,0 " class="primitive"/>
  </g>
  <g transform="translate(29.16,23.64)" stroke="#A3148A">
    <path fill="none" d="M0,2.2 L0,-2.2 " class="primitive"/>
  </g>
  <g transform="translate(20.92,21.07)" stroke="#0D4008">
    <path fill="none" d="M-1.12,0 L1.12,0 " class="primitive"/>
  </g>
  <g transform="translate(22.04,21.07)" stroke="#0D4008">
    <path fill="none" d="M0,2.57 L0,-2.57 " class="primitive"/>
  </g>
  <g transform="translate(13.5,17.59)" stroke="#0D4008">
    <path fill="none" d="M-6.3,0 L6.3,0 " class="primitive"/>
  </g>
  <g transform="translate(19.8,17.59)" stroke="#0D4008">
    <path fill="none" d="M0,3.49 L0,-3.49 " class="primitive"/>
  </g>
  <g transform="translate(5.48,13.64)" stroke="#A3148A">
    <path fill="none" d="M-1.73,0 L1.73,0 " class="primitive"/>
  </g>
  <g transform="translate(7.2,13.64)" stroke="#A3148A">
    <path fill="none" d="M0,3.95 L0,-3.95 " class="primitive"/>
  </g>
  <g transform="translate(3.75,9.46)" stroke="#000000">
    <path fill="none" d="M0,0 L0,0 " class="primitive"/>
  </g>
  <g transform="translate(3.75,9.46)" stroke="#000000">
    <path fill="none" d="M0,4.18 L0,-4.18 " class="primitive"/>
  </g>
  <g transform="translate(36.06,30.25)" stroke="#0D4008">
    <path fill="none" d="M-8.85,0 L8.85,0 " class="primitive"/>
  </g>
  <g transform="translate(31.82,33.19)" stroke="#0D4008">
    <path fill="none" d="M-4.61,0 L4.61,0 " class="primitive"/>
  </g>
  <g transform="translate(21.76,31.72)" stroke="#A3148A">
    <path fill="none" d="M-5.45,0 L5.45,0 " class="primitive"/>
  </g>
  <g transform="translate(27.2,31.72)" stroke="#A3148A">
    <path fill="none" d="M0,1.47 L0,-1.47 " class="primitive"/>
  </g>
  <g transform="translate(30.56,36.13)" stroke="#0D4008">
    <path fill="none" d="M-0.76,0 L0.76,0 " class="primitive"/>
  </g>
  <g transform="translate(50.22,39.06)" stroke="#0D4008">
    <path fill="none" d="M-20.42,0 L20.42,0 " class="primitive"/>
  </g>
  <g transform="translate(23.06,37.59)" stroke="#0D4008">
    <path fill="none" d="M-6.74,0 L6.74,0 " class="primitive"/>
  </g>
  <g transform="translate(29.8,37.59)" stroke="#0D4008">
    <path fill="none" d="M0,1.47 L0,-1.47 " class="primitive"/>
  </g>
  <g transform="translate(11.03,34.66)" stroke="#A3148A">
    <path fill="none" d="M-5.28,0 L5.28,0 " class="primitive"/>
  </g>
  <g transform="translate(16.31,34.66)" stroke="#A3148A">
    <path fill="none" d="M0,2.94 L0,-2.94 " class="primitive"/>
  </g>
  <g transform="translate(29.92,42)" stroke="#0D4008">
    <path fill="none" d="M-3.82,0 L3.82,0 " class="primitive"/>
  </g>
  <g transform="translate(38.47,44.94)" stroke="#A3148A">
    <path fill="none" d="M-8.37,0 L8.37,0 " class="primitive"/>
  </g>
  <g transform="translate(34.95,47.87)" stroke="#0D4008">
    <path fill="none" d="M-1.77,0 L1.77,0 " class="primitive"/>
  </g>
  <g transform="translate(34.2,50.81)" stroke="#0D4008">
    <path fill="none" d="M-1.03,0 L1.03,0 " class="primitive"/>
  </g>
  <g transform="translate(31.64,49.34)" stroke="#A3148A">
    <path fill="none" d="M-1.54,0 L1.54,0 " class="primitive"/>
  </g>
  <g transform="translate(33.17,49.34)" stroke="#A3148A">
    <path fill="none" d="M0,1.47 L0,-1.47 " class="primitive"/>
  </g>
  <g transform="translate(28.1,47.14)" stroke="#A3148A">
    <path fill="none" d="M-2,0 L2,0 " class="primitive"/>
  </g>
  <g transform="translate(30.1,47.14)" stroke="#A3148A">
    <path fill="none" d="M0,2.2 L0,-2.2 " class="primitive"/>
  </g>
  <g transform="translate(23.28,44.57)" stroke="#A3148A">
    <path fill="none" d="M-2.81,0 L2.81,0 " class="primitive"/>
  </g>
  <g transform="translate(26.09,44.57)" stroke="#A3148A">
    <path fill="none" d="M0,2.57 L0,-2.57 " class="primitive"/>
  </g>
  <g transform="translate(26.7,53.75)" stroke="#A3148A">
    <path fill="none" d="M-2.07,0 L2.07,0 " class="primitive"/>
  </g>
  <g transform="translate(43.36,56.69)" stroke="#0D4008">
    <path fill="none" d="M-11.22,0 L11.22,0 " class="primitive"/>
  </g>
  <g transform="translate(34.58,59.62)" stroke="#A3148A">
    <path fill="none" d="M-1.94,0 L1.94,0 " class="primitive"/>
  </g>
  <g transform="translate(42.01,62.56)" stroke="#A3148A">
    <path fill="none" d="M-9.37,0 L9.37,0 " class="primitive"/>
  </g>
  <g transform="translate(32.39,61.09)" stroke="#0D4008">
    <path fill="none" d="M-0.25,0 L0.25,0 " class="primitive"/>
  </g>
  <g transform="translate(32.64,61.09)" stroke="#0D4008">
    <path fill="none" d="M0,1.47 L0,-1.47 " class="primitive"/>
  </g>
  <g stroke-opacity="1" stroke-width="0.3" id="img-29b4c979-2">
    <g transform="translate(32.64,61.09)" stroke="#0D4008">
      <path fill="none" d="M0,1.47 L0,-1.47 " class="primitive"/>
    </g>
    <g transform="translate(28.38,58.89)" stroke="#A3148A">
      <path fill="none" d="M-3.76,0 L3.76,0 " class="primitive"/>
    </g>
    <g transform="translate(32.14,58.89)" stroke="#A3148A">
      <path fill="none" d="M0,2.2 L0,-2.2 " class="primitive"/>
    </g>
    <g transform="translate(23.8,56.32)" stroke="#A3148A">
      <path fill="none" d="M-0.82,0 L0.82,0 " class="primitive"/>
    </g>
    <g transform="translate(24.62,56.32)" stroke="#A3148A">
      <path fill="none" d="M0,2.57 L0,-2.57 " class="primitive"/>
    </g>
    <g transform="translate(29.41,65.5)" stroke="#0D4008">
      <path fill="none" d="M-1.58,0 L1.58,0 " class="primitive"/>
    </g>
    <g transform="translate(32.23,68.43)" stroke="#0D4008">
      <path fill="none" d="M-4.4,0 L4.4,0 " class="primitive"/>
    </g>
    <g transform="translate(26.66,66.97)" stroke="#0D4008">
      <path fill="none" d="M-1.18,0 L1.18,0 " class="primitive"/>
    </g>
    <g transform="translate(27.84,66.97)" stroke="#0D4008">
      <path fill="none" d="M0,1.47 L0,-1.47 " class="primitive"/>
    </g>
    <g transform="translate(65.69,71.37)" stroke="#0D4008">
      <path fill="none" d="M-13.06,0 L13.06,0 " class="primitive"/>
    </g>
    <g transform="translate(61.02,74.31)" stroke="#0D4008">
      <path fill="none" d="M-8.4,0 L8.4,0 " class="primitive"/>
    </g>
    <g transform="translate(49.41,72.84)" stroke="#0D4008">
      <path fill="none" d="M-3.21,0 L3.21,0 " class="primitive"/>
    </g>
    <g transform="translate(52.62,72.84)" stroke="#0D4008">
      <path fill="none" d="M0,1.47 L0,-1.47 " class="primitive"/>
    </g>
    <g transform="translate(59.93,77.24)" stroke="#0D4008">
      <path fill="none" d="M-3.86,0 L3.86,0 " class="primitive"/>
    </g>
    <g transform="translate(58.34,80.18)" stroke="#0D4008">
      <path fill="none" d="M-2.26,0 L2.26,0 " class="primitive"/>
    </g>
    <g transform="translate(51.14,78.71)" stroke="#0D4008">
      <path fill="none" d="M-4.94,0 L4.94,0 " class="primitive"/>
    </g>
    <g transform="translate(56.07,78.71)" stroke="#0D4008">
      <path fill="none" d="M0,1.47 L0,-1.47 " class="primitive"/>
    </g>
    <g transform="translate(35.84,75.78)" stroke="#A3148A">
      <path fill="none" d="M-10.36,0 L10.36,0 " class="primitive"/>
    </g>
    <g transform="translate(46.2,75.78)" stroke="#A3148A">
      <path fill="none" d="M0,2.94 L0,-2.94 " class="primitive"/>
    </g>
    <g transform="translate(24.23,71.37)" stroke="#0D4008">
      <path fill="none" d="M-1.25,0 L1.25,0 " class="primitive"/>
    </g>
    <g transform="translate(25.47,71.37)" stroke="#0D4008">
      <path fill="none" d="M0,4.41 L0,-4.41 " class="primitive"/>
    </g>
    <g transform="translate(21.72,63.84)" stroke="#A3148A">
      <path fill="none" d="M-1.26,0 L1.26,0 " class="primitive"/>
    </g>
    <g transform="translate(22.98,63.84)" stroke="#A3148A">
      <path fill="none" d="M0,7.53 L0,-7.53 " class="primitive"/>
    </g>
    <g transform="translate(13.1,54.21)" stroke="#0D4008">
      <path fill="none" d="M-7.36,0 L7.36,0 " class="primitive"/>
    </g>
    <g transform="translate(20.46,54.21)" stroke="#0D4008">
      <path fill="none" d="M0,9.64 L0,-9.64 " class="primitive"/>
    </g>
    <g transform="translate(4.75,44.43)" stroke="#0D4008">
      <path fill="none" d="M-1,0 L1,0 " class="primitive"/>
    </g>
    <g transform="translate(5.75,44.43)" stroke="#0D4008">
      <path fill="none" d="M0,9.77 L0,-9.77 " class="primitive"/>
    </g>
    <g transform="translate(3.75,26.95)" stroke="#000000">
      <path fill="none" d="M0,0 L0,0 " class="primitive"/>
    </g>
    <g transform="translate(3.75,26.95)" stroke="#000000">
      <path fill="none" d="M0,17.48 L0,-17.48 " class="primitive"/>
    </g>
  </g>
</g>
<g fill-opacity="1" id="img-29b4c979-3">
  <g transform="translate(15.09,3.82)" fill="#A3148A">
    <circle cx="0" cy="0" r="0.75" class="primitive"/>
  </g>
  <g transform="translate(15.33,6.76)" fill="#A3148A">
    <circle cx="0" cy="0" r="0.75" class="primitive"/>
  </g>
  <g transform="translate(8.69,5.29)" fill="#0D4008">
    <circle cx="0" cy="0" r="0.75" class="primitive"/>
  </g>
  <g transform="translate(15.74,9.69)" fill="#0D4008">
    <circle cx="0" cy="0" r="0.75" class="primitive"/>
  </g>
  <g transform="translate(33.36,12.63)" fill="#0D4008">
    <circle cx="0" cy="0" r="0.75" class="primitive"/>
  </g>
  <g transform="translate(33.56,15.57)" fill="#0D4008">
    <circle cx="0" cy="0" r="0.75" class="primitive"/>
  </g>
  <g transform="translate(27.58,14.1)" fill="#0D4008">
    <circle cx="0" cy="0" r="0.75" class="primitive"/>
  </g>
  <g transform="translate(32.9,18.5)" fill="#0D4008">
    <circle cx="0" cy="0" r="0.75" class="primitive"/>
  </g>
  <g transform="translate(53.47,21.44)" fill="#0D4008">
    <circle cx="0" cy="0" r="0.75" class="primitive"/>
  </g>
  <g transform="translate(39.87,24.38)" fill="#A3148A">
    <circle cx="0" cy="0" r="0.75" class="primitive"/>
  </g>
  <g transform="translate(36.35,27.31)" fill="#0D4008">
    <circle cx="0" cy="0" r="0.75" class="primitive"/>
  </g>
  <g transform="translate(31.74,25.85)" fill="#0D4008">
    <circle cx="0" cy="0" r="0.75" class="primitive"/>
  </g>
  <g transform="translate(29.16,23.64)" fill="#A3148A">
    <circle cx="0" cy="0" r="0.75" class="primitive"/>
  </g>
  <g transform="translate(22.04,21.07)" fill="#0D4008">
    <circle cx="0" cy="0" r="0.75" class="primitive"/>
  </g>
  <g transform="translate(19.8,17.59)" fill="#0D4008">
    <circle cx="0" cy="0" r="0.75" class="primitive"/>
  </g>
  <g transform="translate(7.2,13.64)" fill="#A3148A">
    <circle cx="0" cy="0" r="0.75" class="primitive"/>
  </g>
  <g transform="translate(3.75,9.46)" fill="#000000">
    <circle cx="0" cy="0" r="0.75" class="primitive"/>
  </g>
  <g transform="translate(44.91,30.25)" fill="#0D4008">
    <circle cx="0" cy="0" r="0.75" class="primitive"/>
  </g>
  <g transform="translate(36.43,33.19)" fill="#0D4008">
    <circle cx="0" cy="0" r="0.75" class="primitive"/>
  </g>
  <g transform="translate(27.2,31.72)" fill="#A3148A">
    <circle cx="0" cy="0" r="0.75" class="primitive"/>
  </g>
  <g transform="translate(31.32,36.13)" fill="#0D4008">
    <circle cx="0" cy="0" r="0.75" class="primitive"/>
  </g>
  <g transform="translate(70.64,39.06)" fill="#0D4008">
    <circle cx="0" cy="0" r="0.75" class="primitive"/>
  </g>
  <g transform="translate(29.8,37.59)" fill="#0D4008">
    <circle cx="0" cy="0" r="0.75" class="primitive"/>
  </g>
  <g transform="translate(16.31,34.66)" fill="#A3148A">
    <circle cx="0" cy="0" r="0.75" class="primitive"/>
  </g>
  <g transform="translate(33.74,42)" fill="#0D4008">
    <circle cx="0" cy="0" r="0.75" class="primitive"/>
  </g>
  <g transform="translate(46.84,44.94)" fill="#A3148A">
    <circle cx="0" cy="0" r="0.75" class="primitive"/>
  </g>
  <g transform="translate(36.72,47.87)" fill="#0D4008">
    <circle cx="0" cy="0" r="0.75" class="primitive"/>
  </g>
  <g transform="translate(35.23,50.81)" fill="#0D4008">
    <circle cx="0" cy="0" r="0.75" class="primitive"/>
  </g>
  <g transform="translate(33.17,49.34)" fill="#A3148A">
    <circle cx="0" cy="0" r="0.75" class="primitive"/>
  </g>
  <g transform="translate(30.1,47.14)" fill="#A3148A">
    <circle cx="0" cy="0" r="0.75" class="primitive"/>
  </g>
  <g transform="translate(26.09,44.57)" fill="#A3148A">
    <circle cx="0" cy="0" r="0.75" class="primitive"/>
  </g>
  <g transform="translate(28.77,53.75)" fill="#A3148A">
    <circle cx="0" cy="0" r="0.75" class="primitive"/>
  </g>
  <g transform="translate(54.58,56.69)" fill="#0D4008">
    <circle cx="0" cy="0" r="0.75" class="primitive"/>
  </g>
  <g transform="translate(36.52,59.62)" fill="#A3148A">
    <circle cx="0" cy="0" r="0.75" class="primitive"/>
  </g>
  <g transform="translate(51.38,62.56)" fill="#A3148A">
    <circle cx="0" cy="0" r="0.75" class="primitive"/>
  </g>
  <g transform="translate(32.64,61.09)" fill="#0D4008">
    <circle cx="0" cy="0" r="0.75" class="primitive"/>
  </g>
  <g transform="translate(32.14,58.89)" fill="#A3148A">
    <circle cx="0" cy="0" r="0.75" class="primitive"/>
  </g>
  <g transform="translate(24.62,56.32)" fill="#A3148A">
    <circle cx="0" cy="0" r="0.75" class="primitive"/>
  </g>
  <g transform="translate(30.99,65.5)" fill="#0D4008">
    <circle cx="0" cy="0" r="0.75" class="primitive"/>
  </g>
  <g transform="translate(36.63,68.43)" fill="#0D4008">
    <circle cx="0" cy="0" r="0.75" class="primitive"/>
  </g>
  <g transform="translate(27.84,66.97)" fill="#0D4008">
    <circle cx="0" cy="0" r="0.75" class="primitive"/>
  </g>
  <g transform="translate(78.75,71.37)" fill="#0D4008">
    <circle cx="0" cy="0" r="0.75" class="primitive"/>
  </g>
  <g transform="translate(69.41,74.31)" fill="#0D4008">
    <circle cx="0" cy="0" r="0.75" class="primitive"/>
  </g>
  <g transform="translate(52.62,72.84)" fill="#0D4008">
    <circle cx="0" cy="0" r="0.75" class="primitive"/>
  </g>
  <g transform="translate(63.79,77.24)" fill="#0D4008">
    <circle cx="0" cy="0" r="0.75" class="primitive"/>
  </g>
  <g transform="translate(60.6,80.18)" fill="#0D4008">
    <circle cx="0" cy="0" r="0.75" class="primitive"/>
  </g>
  <g transform="translate(56.07,78.71)" fill="#0D4008">
    <circle cx="0" cy="0" r="0.75" class="primitive"/>
  </g>
  <g transform="translate(46.2,75.78)" fill="#A3148A">
    <circle cx="0" cy="0" r="0.75" class="primitive"/>
  </g>
  <g transform="translate(25.47,71.37)" fill="#0D4008">
    <circle cx="0" cy="0" r="0.75" class="primitive"/>
  </g>
  <g transform="translate(22.98,63.84)" fill="#A3148A">
    <circle cx="0" cy="0" r="0.75" class="primitive"/>
  </g>
  <g transform="translate(20.46,54.21)" fill="#0D4008">
    <circle cx="0" cy="0" r="0.75" class="primitive"/>
  </g>
  <g fill-opacity="1" id="img-29b4c979-4">
    <g transform="translate(20.46,54.21)" fill="#0D4008">
      <circle cx="0" cy="0" r="0.75" class="primitive"/>
    </g>
    <g transform="translate(5.75,44.43)" fill="#0D4008">
      <circle cx="0" cy="0" r="0.75" class="primitive"/>
    </g>
    <g transform="translate(3.75,26.95)" fill="#000000">
      <circle cx="0" cy="0" r="0.75" class="primitive"/>
    </g>
  </g>
</g>
<g stroke-opacity="1" fill-opacity="1" font-size="1.41" stroke-width="0.1" id="img-29b4c979-5">
  <g transform="translate(16.96,3.82)" stroke="#000000">
    <g class="primitive">
      <text dy="0.35em">N1</text>
    </g>
  </g>
  <g transform="translate(17.2,6.76)" stroke="#000000">
    <g class="primitive">
      <text dy="0.35em">N20</text>
    </g>
  </g>
  <g transform="translate(10.57,5.29)" stroke="#000000">
    <g class="primitive">
      <text dy="0.35em">N50</text>
    </g>
  </g>
  <g transform="translate(17.61,9.69)" stroke="#000000">
    <g class="primitive">
      <text dy="0.35em">N2</text>
    </g>
  </g>
  <g transform="translate(35.23,12.63)" stroke="#000000">
    <g class="primitive">
      <text dy="0.35em">N6</text>
    </g>
  </g>
  <g transform="translate(35.44,15.57)" stroke="#000000">
    <g class="primitive">
      <text dy="0.35em">N22</text>
    </g>
  </g>
  <g transform="translate(29.45,14.1)" stroke="#000000">
    <g class="primitive">
      <text dy="0.35em">N27</text>
    </g>
  </g>
  <g transform="translate(34.78,18.5)" stroke="#000000">
    <g class="primitive">
      <text dy="0.35em">N0</text>
    </g>
  </g>
  <g transform="translate(55.35,21.44)" stroke="#000000">
    <g class="primitive">
      <text dy="0.35em">N26</text>
    </g>
  </g>
  <g transform="translate(41.74,24.38)" stroke="#000000">
    <g class="primitive">
      <text dy="0.35em">N4</text>
    </g>
  </g>
  <g transform="translate(38.23,27.31)" stroke="#000000">
    <g class="primitive">
      <text dy="0.35em">N17</text>
    </g>
  </g>
  <g transform="translate(33.62,25.85)" stroke="#000000">
    <g class="primitive">
      <text dy="0.35em">N28</text>
    </g>
  </g>
  <g transform="translate(31.04,23.64)" stroke="#000000">
    <g class="primitive">
      <text dy="0.35em">N29</text>
    </g>
  </g>
  <g transform="translate(23.92,21.07)" stroke="#000000">
    <g class="primitive">
      <text dy="0.35em">N32</text>
    </g>
  </g>
  <g transform="translate(21.67,17.59)" stroke="#000000">
    <g class="primitive">
      <text dy="0.35em">N34</text>
    </g>
  </g>
  <g transform="translate(9.08,13.64)" stroke="#000000">
    <g class="primitive">
      <text dy="0.35em">N35</text>
    </g>
  </g>
  <g transform="translate(5.63,9.46)" stroke="#000000">
    <g class="primitive">
      <text dy="0.35em"></text>
    </g>
  </g>
  <g transform="translate(46.78,30.25)" stroke="#000000">
    <g class="primitive">
      <text dy="0.35em">N10</text>
    </g>
  </g>
  <g transform="translate(38.31,33.19)" stroke="#000000">
    <g class="primitive">
      <text dy="0.35em">N21</text>
    </g>
  </g>
  <g transform="translate(29.08,31.72)" stroke="#000000">
    <g class="primitive">
      <text dy="0.35em">N40</text>
    </g>
  </g>
  <g transform="translate(33.19,36.13)" stroke="#000000">
    <g class="primitive">
      <text dy="0.35em">N23</text>
    </g>
  </g>
  <g transform="translate(72.52,39.06)" stroke="#000000">
    <g class="primitive">
      <text dy="0.35em">N25</text>
    </g>
  </g>
  <g transform="translate(31.67,37.59)" stroke="#000000">
    <g class="primitive">
      <text dy="0.35em">N44</text>
    </g>
  </g>
  <g transform="translate(18.19,34.66)" stroke="#000000">
    <g class="primitive">
      <text dy="0.35em">N47</text>
    </g>
  </g>
  <g transform="translate(35.62,42)" stroke="#000000">
    <g class="primitive">
      <text dy="0.35em">N14</text>
    </g>
  </g>
  <g transform="translate(48.72,44.94)" stroke="#000000">
    <g class="primitive">
      <text dy="0.35em">N18</text>
    </g>
  </g>
  <g transform="translate(38.59,47.87)" stroke="#000000">
    <g class="primitive">
      <text dy="0.35em">N5</text>
    </g>
  </g>
  <g transform="translate(37.1,50.81)" stroke="#000000">
    <g class="primitive">
      <text dy="0.35em">N9</text>
    </g>
  </g>
  <g transform="translate(35.05,49.34)" stroke="#000000">
    <g class="primitive">
      <text dy="0.35em">N37</text>
    </g>
  </g>
  <g transform="translate(31.97,47.14)" stroke="#000000">
    <g class="primitive">
      <text dy="0.35em">N39</text>
    </g>
  </g>
  <g transform="translate(27.97,44.57)" stroke="#000000">
    <g class="primitive">
      <text dy="0.35em">N42</text>
    </g>
  </g>
  <g transform="translate(30.65,53.75)" stroke="#000000">
    <g class="primitive">
      <text dy="0.35em">N19</text>
    </g>
  </g>
  <g transform="translate(56.46,56.69)" stroke="#000000">
    <g class="primitive">
      <text dy="0.35em">N11</text>
    </g>
  </g>
  <g transform="translate(38.39,59.62)" stroke="#000000">
    <g class="primitive">
      <text dy="0.35em">N8</text>
    </g>
  </g>
  <g transform="translate(53.26,62.56)" stroke="#000000">
    <g class="primitive">
      <text dy="0.35em">N3</text>
    </g>
  </g>
  <g transform="translate(34.52,61.09)" stroke="#000000">
    <g class="primitive">
      <text dy="0.35em">N33</text>
    </g>
  </g>
  <g transform="translate(34.02,58.89)" stroke="#000000">
    <g class="primitive">
      <text dy="0.35em">N36</text>
    </g>
  </g>
  <g transform="translate(26.5,56.32)" stroke="#000000">
    <g class="primitive">
      <text dy="0.35em">N41</text>
    </g>
  </g>
  <g transform="translate(32.86,65.5)" stroke="#000000">
    <g class="primitive">
      <text dy="0.35em">N15</text>
    </g>
  </g>
  <g transform="translate(38.51,68.43)" stroke="#000000">
    <g class="primitive">
      <text dy="0.35em">N13</text>
    </g>
  </g>
  <g transform="translate(29.71,66.97)" stroke="#000000">
    <g class="primitive">
      <text dy="0.35em">N31</text>
    </g>
  </g>
  <g transform="translate(80.62,71.37)" stroke="#000000">
    <g class="primitive">
      <text dy="0.35em">N7</text>
    </g>
  </g>
  <g transform="translate(71.29,74.31)" stroke="#000000">
    <g class="primitive">
      <text dy="0.35em">N12</text>
    </g>
  </g>
  <g transform="translate(54.5,72.84)" stroke="#000000">
    <g class="primitive">
      <text dy="0.35em">N30</text>
    </g>
  </g>
  <g transform="translate(65.67,77.24)" stroke="#000000">
    <g class="primitive">
      <text dy="0.35em">N24</text>
    </g>
  </g>
  <g transform="translate(62.48,80.18)" stroke="#000000">
    <g class="primitive">
      <text dy="0.35em">N16</text>
    </g>
  </g>
  <g transform="translate(57.95,78.71)" stroke="#000000">
    <g class="primitive">
      <text dy="0.35em">N38</text>
    </g>
  </g>
  <g transform="translate(48.08,75.78)" stroke="#000000">
    <g class="primitive">
      <text dy="0.35em">N43</text>
    </g>
  </g>
  <g transform="translate(27.35,71.37)" stroke="#000000">
    <g class="primitive">
      <text dy="0.35em">N45</text>
    </g>
  </g>
  <g transform="translate(24.86,63.84)" stroke="#000000">
    <g class="primitive">
      <text dy="0.35em">N46</text>
    </g>
  </g>
  <g transform="translate(22.34,54.21)" stroke="#000000">
    <g class="primitive">
      <text dy="0.35em">N48</text>
    </g>
  </g>
  <g stroke-opacity="1" fill-opacity="1" font-size="1.41" stroke-width="0.1" id="img-29b4c979-6">
    <g transform="translate(22.34,54.21)" stroke="#000000">
      <g class="primitive">
        <text dy="0.35em">N48</text>
      </g>
    </g>
    <g transform="translate(7.62,44.43)" stroke="#000000">
      <g class="primitive">
        <text dy="0.35em">N49</text>
      </g>
    </g>
    <g transform="translate(5.63,26.95)" stroke="#000000">
      <g class="primitive">
        <text dy="0.35em"></text>
      </g>
    </g>
  </g>
</g>
</svg>
