<?xml version="1.0" encoding="UTF-8"?>
<svg xmlns="http://www.w3.org/2000/svg"
     xmlns:xlink="http://www.w3.org/1999/xlink"
     version="1.2"
     width="150mm" height="92mm" viewBox="0 0 150 92"
     stroke="none"
     fill="#000000"
     stroke-width="0.3"
     font-size="3.88"
>
<defs>
  <marker id="arrow" markerWidth="15" markerHeight="7" refX="5" refY="3.5" orient="auto" markerUnits="strokeWidth">
    <path d="M0,0 L15,3.5 L0,7 z" stroke="context-stroke" fill="context-stroke"/>
  </marker>
</defs>
<g stroke-opacity="1" stroke-width="0.3" id="img-29b4c979-1">
  <g transform="translate(16.71,4.18)" stroke="#124067">
    <path fill="none" d="M-5.4,0 L5.4,0 " class="primitive"/>
  </g>
  <g transform="translate(32.28,6.97)" stroke="#5F0AB6">
    <path fill="none" d="M-1.95,0 L1.95,0 " class="primitive"/>
  </g>
  <g transform="translate(36.68,9.76)" stroke="#5F0AB6">
    <path fill="none" d="M-6.35,0 L6.35,0 " class="primitive"/>
  </g>
  <g transform="translate(27.65,8.36)" stroke="#5F0AB6">
    <path fill="none" d="M-2.68,0 L2.68,0 " class="primitive"/>
  </g>
  <g transform="translate(30.34,8.36)" stroke="#5F0AB6">
    <path fill="none" d="M0,1.39 L0,-1.39 " class="primitive"/>
  </g>
  <g transform="translate(32.19,12.55)" stroke="#124067">
    <path fill="none" d="M-3.78,0 L3.78,0 " class="primitive"/>
  </g>
  <g transform="translate(37.34,15.33)" stroke="#124067">
    <path fill="none" d="M-8.94,0 L8.94,0 " class="primitive"/>
  </g>
  <g transform="translate(27.6,13.94)" stroke="#5F0AB6">
    <path fill="none" d="M-0.81,0 L0.81,0 " class="primitive"/>
  </g>
  <g transform="translate(28.41,13.94)" stroke="#5F0AB6">
    <path fill="none" d="M0,1.39 L0,-1.39 " class="primitive"/>
  </g>
  <g transform="translate(34.18,18.12)" stroke="#5F0AB6">
    <path fill="none" d="M-4.74,0 L4.74,0 " class="primitive"/>
  </g>
  <g transform="translate(47.22,20.91)" stroke="#124067">
    <path fill="none" d="M-4.11,0 L4.11,0 " class="primitive"/>
  </g>
  <g transform="translate(50.79,23.7)" stroke="#124067">
    <path fill="none" d="M-7.68,0 L7.68,0 " class="primitive"/>
  </g>
  <g transform="translate(36.28,22.3)" stroke="#5F0AB6">
    <path fill="none" d="M-6.83,0 L6.83,0 " class="primitive"/>
  </g>
  <g transform="translate(43.11,22.3)" stroke="#5F0AB6">
    <path fill="none" d="M0,1.39 L0,-1.39 " class="primitive"/>
  </g>
  <g transform="translate(28.11,20.21)" stroke="#5F0AB6">
    <path fill="none" d="M-1.33,0 L1.33,0 " class="primitive"/>
  </g>
  <g transform="translate(29.44,20.21)" stroke="#5F0AB6">
    <path fill="none" d="M0,2.09 L0,-2.09 " class="primitive"/>
  </g>
  <g transform="translate(25.88,17.08)" stroke="#5F0AB6">
    <path fill="none" d="M-0.91,0 L0.91,0 " class="primitive"/>
  </g>
  <g transform="translate(26.78,17.08)" stroke="#5F0AB6">
    <path fill="none" d="M0,3.14 L0,-3.14 " class="primitive"/>
  </g>
  <g transform="translate(18.14,12.72)" stroke="#5F0AB6">
    <path fill="none" d="M-6.83,0 L6.83,0 " class="primitive"/>
  </g>
  <g transform="translate(24.97,12.72)" stroke="#5F0AB6">
    <path fill="none" d="M0,4.36 L0,-4.36 " class="primitive"/>
  </g>
  <g transform="translate(7.53,8.45)" stroke="#5F0AB6">
    <path fill="none" d="M-3.78,0 L3.78,0 " class="primitive"/>
  </g>
  <g transform="translate(11.31,8.45)" stroke="#5F0AB6">
    <path fill="none" d="M0,4.27 L0,-4.27 " class="primitive"/>
  </g>
  <g transform="translate(16.06,26.48)" stroke="#5F0AB6">
    <path fill="none" d="M-0.1,0 L0.1,0 " class="primitive"/>
  </g>
  <g transform="translate(19.28,29.27)" stroke="#5F0AB6">
    <path fill="none" d="M-3.33,0 L3.33,0 " class="primitive"/>
  </g>
  <g transform="translate(11.18,27.88)" stroke="#124067">
    <path fill="none" d="M-4.77,0 L4.77,0 " class="primitive"/>
  </g>
  <g transform="translate(15.95,27.88)" stroke="#124067">
    <path fill="none" d="M0,1.39 L0,-1.39 " class="primitive"/>
  </g>
  <g transform="translate(11.72,32.06)" stroke="#124067">
    <path fill="none" d="M-0.06,0 L0.06,0 " class="primitive"/>
  </g>
  <g transform="translate(15.5,34.85)" stroke="#5F0AB6">
    <path fill="none" d="M-3.83,0 L3.83,0 " class="primitive"/>
  </g>
  <g transform="translate(9.04,33.45)" stroke="#5F0AB6">
    <path fill="none" d="M-2.63,0 L2.63,0 " class="primitive"/>
  </g>
  <g transform="translate(11.67,33.45)" stroke="#5F0AB6">
    <path fill="none" d="M0,1.39 L0,-1.39 " class="primitive"/>
  </g>
  <g transform="translate(5.08,30.67)" stroke="#5F0AB6">
    <path fill="none" d="M-1.33,0 L1.33,0 " class="primitive"/>
  </g>
  <g transform="translate(6.4,30.67)" stroke="#5F0AB6">
    <path fill="none" d="M0,2.79 L0,-2.79 " class="primitive"/>
  </g>
  <g transform="translate(23.07,37.64)" stroke="#5F0AB6">
    <path fill="none" d="M-0.43,0 L0.43,0 " class="primitive"/>
  </g>
  <g transform="translate(39.19,40.42)" stroke="#124067">
    <path fill="none" d="M-4.55,0 L4.55,0 " class="primitive"/>
  </g>
  <g transform="translate(56.29,43.21)" stroke="#124067">
    <path fill="none" d="M-21.65,0 L21.65,0 " class="primitive"/>
  </g>
  <g transform="translate(31.85,41.82)" stroke="#5F0AB6">
    <path fill="none" d="M-2.79,0 L2.79,0 " class="primitive"/>
  </g>
  <g transform="translate(34.64,41.82)" stroke="#5F0AB6">
    <path fill="none" d="M0,1.39 L0,-1.39 " class="primitive"/>
  </g>
  <g transform="translate(38.72,46)" stroke="#5F0AB6">
    <path fill="none" d="M-6.2,0 L6.2,0 " class="primitive"/>
  </g>
  <g transform="translate(58.01,48.79)" stroke="#5F0AB6">
    <path fill="none" d="M-17.4,0 L17.4,0 " class="primitive"/>
  </g>
  <g transform="translate(40.77,51.58)" stroke="#5F0AB6">
    <path fill="none" d="M-0.16,0 L0.16,0 " class="primitive"/>
  </g>
  <g transform="translate(36.56,50.18)" stroke="#5F0AB6">
    <path fill="none" d="M-4.05,0 L4.05,0 " class="primitive"/>
  </g>
  <g transform="translate(40.61,50.18)" stroke="#5F0AB6">
    <path fill="none" d="M0,1.39 L0,-1.39 " class="primitive"/>
  </g>
  <g transform="translate(30.79,48.09)" stroke="#5F0AB6">
    <path fill="none" d="M-1.73,0 L1.73,0 " class="primitive"/>
  </g>
  <g transform="translate(32.52,48.09)" stroke="#5F0AB6">
    <path fill="none" d="M0,2.09 L0,-2.09 " class="primitive"/>
  </g>
  <g transform="translate(25.85,44.95)" stroke="#5F0AB6">
    <path fill="none" d="M-3.21,0 L3.21,0 " class="primitive"/>
  </g>
  <g transform="translate(29.06,44.95)" stroke="#5F0AB6">
    <path fill="none" d="M0,3.14 L0,-3.14 " class="primitive"/>
  </g>
  <g transform="translate(22.25,41.3)" stroke="#5F0AB6">
    <path fill="none" d="M-0.4,0 L0.4,0 " class="primitive"/>
  </g>
  <g transform="translate(22.64,41.3)" stroke="#5F0AB6">
    <path fill="none" d="M0,3.66 L0,-3.66 " class="primitive"/>
  </g>
  <g transform="translate(39.03,54.36)" stroke="#5F0AB6">
    <path fill="none" d="M-8.35,0 L8.35,0 " class="primitive"/>
  </g>
  <g transform="translate(77.2,57.15)" stroke="#5F0AB6">
    <path fill="none" d="M-0.01,0 L0.01,0 " class="primitive"/>
  </g>
  <g transform="translate(77.97,59.94)" stroke="#5F0AB6">
    <path fill="none" d="M-0.78,0 L0.78,0 " class="primitive"/>
  </g>
  <g stroke-opacity="1" stroke-width="0.3" id="img-29b4c979-2">
    <g transform="translate(77.97,59.94)" stroke="#5F0AB6">
      <path fill="none" d="M-0.78,0 L0.78,0 " class="primitive"/>
    </g>
    <g transform="translate(69.08,58.55)" stroke="#5F0AB6">
      <path fill="none" d="M-8.11,0 L8.11,0 " class="primitive"/>
    </g>
    <g transform="translate(77.19,58.55)" stroke="#5F0AB6">
      <path fill="none" d="M0,1.39 L0,-1.39 " class="primitive"/>
    </g>
    <g transform="translate(63.45,62.73)" stroke="#5F0AB6">
      <path fill="none" d="M-1.66,0 L1.66,0 " class="primitive"/>
    </g>
    <g transform="translate(62.61,65.52)" stroke="#5F0AB6">
      <path fill="none" d="M-0.81,0 L0.81,0 " class="primitive"/>
    </g>
    <g transform="translate(61.38,64.12)" stroke="#5F0AB6">
      <path fill="none" d="M-0.42,0 L0.42,0 " class="primitive"/>
    </g>
    <g transform="translate(61.8,64.12)" stroke="#5F0AB6">
      <path fill="none" d="M0,1.39 L0,-1.39 " class="primitive"/>
    </g>
    <g transform="translate(45.82,61.33)" stroke="#5F0AB6">
      <path fill="none" d="M-15.14,0 L15.14,0 " class="primitive"/>
    </g>
    <g transform="translate(60.96,61.33)" stroke="#5F0AB6">
      <path fill="none" d="M0,2.79 L0,-2.79 " class="primitive"/>
    </g>
    <g transform="translate(27.42,57.85)" stroke="#124067">
      <path fill="none" d="M-3.26,0 L3.26,0 " class="primitive"/>
    </g>
    <g transform="translate(30.68,57.85)" stroke="#124067">
      <path fill="none" d="M0,3.48 L0,-3.48 " class="primitive"/>
    </g>
    <g transform="translate(30.81,68.3)" stroke="#5F0AB6">
      <path fill="none" d="M-2.93,0 L2.93,0 " class="primitive"/>
    </g>
    <g transform="translate(35.57,71.09)" stroke="#124067">
      <path fill="none" d="M-0.36,0 L0.36,0 " class="primitive"/>
    </g>
    <g transform="translate(66.94,73.88)" stroke="#5F0AB6">
      <path fill="none" d="M-4.15,0 L4.15,0 " class="primitive"/>
    </g>
    <g transform="translate(65.43,76.67)" stroke="#5F0AB6">
      <path fill="none" d="M-2.64,0 L2.64,0 " class="primitive"/>
    </g>
    <g transform="translate(49,75.27)" stroke="#124067">
      <path fill="none" d="M-13.79,0 L13.79,0 " class="primitive"/>
    </g>
    <g transform="translate(62.79,75.27)" stroke="#124067">
      <path fill="none" d="M0,1.39 L0,-1.39 " class="primitive"/>
    </g>
    <g transform="translate(31.54,73.18)" stroke="#5F0AB6">
      <path fill="none" d="M-3.67,0 L3.67,0 " class="primitive"/>
    </g>
    <g transform="translate(35.21,73.18)" stroke="#5F0AB6">
      <path fill="none" d="M0,2.09 L0,-2.09 " class="primitive"/>
    </g>
    <g transform="translate(26.4,70.74)" stroke="#5F0AB6">
      <path fill="none" d="M-1.48,0 L1.48,0 " class="primitive"/>
    </g>
    <g transform="translate(27.88,70.74)" stroke="#5F0AB6">
      <path fill="none" d="M0,2.44 L0,-2.44 " class="primitive"/>
    </g>
    <g transform="translate(27.84,79.45)" stroke="#5F0AB6">
      <path fill="none" d="M-2.49,0 L2.49,0 " class="primitive"/>
    </g>
    <g transform="translate(47.78,82.24)" stroke="#5F0AB6">
      <path fill="none" d="M-1.8,0 L1.8,0 " class="primitive"/>
    </g>
    <g transform="translate(53.7,85.03)" stroke="#5F0AB6">
      <path fill="none" d="M-2.69,0 L2.69,0 " class="primitive"/>
    </g>
    <g transform="translate(61.19,87.82)" stroke="#124067">
      <path fill="none" d="M-10.18,0 L10.18,0 " class="primitive"/>
    </g>
    <g transform="translate(48.5,86.42)" stroke="#5F0AB6">
      <path fill="none" d="M-2.51,0 L2.51,0 " class="primitive"/>
    </g>
    <g transform="translate(51.01,86.42)" stroke="#5F0AB6">
      <path fill="none" d="M0,1.39 L0,-1.39 " class="primitive"/>
    </g>
    <g transform="translate(35.67,84.33)" stroke="#5F0AB6">
      <path fill="none" d="M-10.32,0 L10.32,0 " class="primitive"/>
    </g>
    <g transform="translate(45.99,84.33)" stroke="#5F0AB6">
      <path fill="none" d="M0,2.09 L0,-2.09 " class="primitive"/>
    </g>
    <g transform="translate(25.13,81.89)" stroke="#5F0AB6">
      <path fill="none" d="M-0.21,0 L0.21,0 " class="primitive"/>
    </g>
    <g transform="translate(25.35,81.89)" stroke="#5F0AB6">
      <path fill="none" d="M0,2.44 L0,-2.44 " class="primitive"/>
    </g>
    <g transform="translate(24.54,76.32)" stroke="#124067">
      <path fill="none" d="M-0.38,0 L0.38,0 " class="primitive"/>
    </g>
    <g transform="translate(24.92,76.32)" stroke="#124067">
      <path fill="none" d="M0,5.58 L0,-5.58 " class="primitive"/>
    </g>
    <g transform="translate(23,67.08)" stroke="#124067">
      <path fill="none" d="M-1.15,0 L1.15,0 " class="primitive"/>
    </g>
    <g transform="translate(24.16,67.08)" stroke="#124067">
      <path fill="none" d="M0,9.23 L0,-9.23 " class="primitive"/>
    </g>
    <g transform="translate(12.8,54.19)" stroke="#5F0AB6">
      <path fill="none" d="M-9.05,0 L9.05,0 " class="primitive"/>
    </g>
    <g transform="translate(21.85,54.19)" stroke="#5F0AB6">
      <path fill="none" d="M0,12.89 L0,-12.89 " class="primitive"/>
    </g>
    <g transform="translate(3.75,42.43)" stroke="#000000">
      <path fill="none" d="M0,0 L0,0 " class="primitive"/>
    </g>
    <g transform="translate(3.75,42.43)" stroke="#000000">
      <path fill="none" d="M0,11.76 L0,-11.76 " class="primitive"/>
    </g>
    <g transform="translate(3.75,25.44)" stroke="#000000">
      <path fill="none" d="M0,0 L0,0 " class="primitive"/>
    </g>
    <g transform="translate(3.75,25.44)" stroke="#000000">
      <path fill="none" d="M0,16.99 L0,-16.99 " class="primitive"/>
    </g>
  </g>
</g>
<g fill-opacity="1" id="img-29b4c979-3">
  <g transform="translate(22.11,4.18)" fill="#124067">
    <circle cx="0" cy="0" r="0.75" class="primitive"/>
  </g>
  <g transform="translate(34.23,6.97)" fill="#5F0AB6">
    <circle cx="0" cy="0" r="0.75" class="primitive"/>
  </g>
  <g transform="translate(43.03,9.76)" fill="#5F0AB6">
    <circle cx="0" cy="0" r="0.75" class="primitive"/>
  </g>
  <g transform="translate(30.34,8.36)" fill="#5F0AB6">
    <circle cx="0" cy="0" r="0.75" class="primitive"/>
  </g>
  <g transform="translate(35.97,12.55)" fill="#124067">
    <circle cx="0" cy="0" r="0.75" class="primitive"/>
  </g>
  <g transform="translate(46.28,15.33)" fill="#124067">
    <circle cx="0" cy="0" r="0.75" class="primitive"/>
  </g>
  <g transform="translate(28.41,13.94)" fill="#5F0AB6">
    <circle cx="0" cy="0" r="0.75" class="primitive"/>
  </g>
  <g transform="translate(38.91,18.12)" fill="#5F0AB6">
    <circle cx="0" cy="0" r="0.75" class="primitive"/>
  </g>
  <g transform="translate(51.32,20.91)" fill="#124067">
    <circle cx="0" cy="0" r="0.75" class="primitive"/>
  </g>
  <g transform="translate(58.46,23.7)" fill="#124067">
    <circle cx="0" cy="0" r="0.75" class="primitive"/>
  </g>
  <g transform="translate(43.11,22.3)" fill="#5F0AB6">
    <circle cx="0" cy="0" r="0.75" class="primitive"/>
  </g>
  <g transform="translate(29.44,20.21)" fill="#5F0AB6">
    <circle cx="0" cy="0" r="0.75" class="primitive"/>
  </g>
  <g transform="translate(26.78,17.08)" fill="#5F0AB6">
    <circle cx="0" cy="0" r="0.75" class="primitive"/>
  </g>
  <g transform="translate(24.97,12.72)" fill="#5F0AB6">
    <circle cx="0" cy="0" r="0.75" class="primitive"/>
  </g>
  <g transform="translate(11.31,8.45)" fill="#5F0AB6">
    <circle cx="0" cy="0" r="0.75" class="primitive"/>
  </g>
  <g transform="translate(16.16,26.48)" fill="#5F0AB6">
    <circle cx="0" cy="0" r="0.75" class="primitive"/>
  </g>
  <g transform="translate(22.61,29.27)" fill="#5F0AB6">
    <circle cx="0" cy="0" r="0.75" class="primitive"/>
  </g>
  <g transform="translate(15.95,27.88)" fill="#124067">
    <circle cx="0" cy="0" r="0.75" class="primitive"/>
  </g>
  <g transform="translate(11.78,32.06)" fill="#124067">
    <circle cx="0" cy="0" r="0.75" class="primitive"/>
  </g>
  <g transform="translate(19.33,34.85)" fill="#5F0AB6">
    <circle cx="0" cy="0" r="0.75" class="primitive"/>
  </g>
  <g transform="translate(11.67,33.45)" fill="#5F0AB6">
    <circle cx="0" cy="0" r="0.75" class="primitive"/>
  </g>
  <g transform="translate(6.4,30.67)" fill="#5F0AB6">
    <circle cx="0" cy="0" r="0.75" class="primitive"/>
  </g>
  <g transform="translate(23.5,37.64)" fill="#5F0AB6">
    <circle cx="0" cy="0" r="0.75" class="primitive"/>
  </g>
  <g transform="translate(43.74,40.42)" fill="#124067">
    <circle cx="0" cy="0" r="0.75" class="primitive"/>
  </g>
  <g transform="translate(77.95,43.21)" fill="#124067">
    <circle cx="0" cy="0" r="0.75" class="primitive"/>
  </g>
  <g transform="translate(34.64,41.82)" fill="#5F0AB6">
    <circle cx="0" cy="0" r="0.75" class="primitive"/>
  </g>
  <g transform="translate(44.93,46)" fill="#5F0AB6">
    <circle cx="0" cy="0" r="0.75" class="primitive"/>
  </g>
  <g transform="translate(75.41,48.79)" fill="#5F0AB6">
    <circle cx="0" cy="0" r="0.75" class="primitive"/>
  </g>
  <g transform="translate(40.94,51.58)" fill="#5F0AB6">
    <circle cx="0" cy="0" r="0.75" class="primitive"/>
  </g>
  <g transform="translate(40.61,50.18)" fill="#5F0AB6">
    <circle cx="0" cy="0" r="0.75" class="primitive"/>
  </g>
  <g transform="translate(32.52,48.09)" fill="#5F0AB6">
    <circle cx="0" cy="0" r="0.75" class="primitive"/>
  </g>
  <g transform="translate(29.06,44.95)" fill="#5F0AB6">
    <circle cx="0" cy="0" r="0.75" class="primitive"/>
  </g>
  <g transform="translate(22.64,41.3)" fill="#5F0AB6">
    <circle cx="0" cy="0" r="0.75" class="primitive"/>
  </g>
  <g transform="translate(47.38,54.36)" fill="#5F0AB6">
    <circle cx="0" cy="0" r="0.75" class="primitive"/>
  </g>
  <g transform="translate(77.21,57.15)" fill="#5F0AB6">
    <circle cx="0" cy="0" r="0.75" class="primitive"/>
  </g>
  <g transform="translate(78.75,59.94)" fill="#5F0AB6">
    <circle cx="0" cy="0" r="0.75" class="primitive"/>
  </g>
  <g transform="translate(77.19,58.55)" fill="#5F0AB6">
    <circle cx="0" cy="0" r="0.75" class="primitive"/>
  </g>
  <g transform="translate(65.11,62.73)" fill="#5F0AB6">
    <circle cx="0" cy="0" r="0.75" class="primitive"/>
  </g>
  <g transform="translate(63.41,65.52)" fill="#5F0AB6">
    <circle cx="0" cy="0" r="0.75" class="primitive"/>
  </g>
  <g transform="translate(61.8,64.12)" fill="#5F0AB6">
    <circle cx="0" cy="0" r="0.75" class="primitive"/>
  </g>
  <g transform="translate(60.96,61.33)" fill="#5F0AB6">
    <circle cx="0" cy="0" r="0.75" class="primitive"/>
  </g>
  <g transform="translate(30.68,57.85)" fill="#124067">
    <circle cx="0" cy="0" r="0.75" class="primitive"/>
  </g>
  <g transform="translate(33.74,68.3)" fill="#5F0AB6">
    <circle cx="0" cy="0" r="0.75" class="primitive"/>
  </g>
  <g transform="translate(35.93,71.09)" fill="#124067">
    <circle cx="0" cy="0" r="0.75" class="primitive"/>
  </g>
  <g transform="translate(71.09,73.88)" fill="#5F0AB6">
    <circle cx="0" cy="0" r="0.75" class="primitive"/>
  </g>
  <g transform="translate(68.07,76.67)" fill="#5F0AB6">
    <circle cx="0" cy="0" r="0.75" class="primitive"/>
  </g>
  <g transform="translate(62.79,75.27)" fill="#124067">
    <circle cx="0" cy="0" r="0.75" class="primitive"/>
  </g>
  <g transform="translate(35.21,73.18)" fill="#5F0AB6">
    <circle cx="0" cy="0" r="0.75" class="primitive"/>
  </g>
  <g transform="translate(27.88,70.74)" fill="#5F0AB6">
    <circle cx="0" cy="0" r="0.75" class="primitive"/>
  </g>
  <g transform="translate(30.33,79.45)" fill="#5F0AB6">
    <circle cx="0" cy="0" r="0.75" class="primitive"/>
  </g>
  <g transform="translate(49.58,82.24)" fill="#5F0AB6">
    <circle cx="0" cy="0" r="0.75" class="primitive"/>
  </g>
  <g fill-opacity="1" id="img-29b4c979-4">
    <g transform="translate(49.58,82.24)" fill="#5F0AB6">
      <circle cx="0" cy="0" r="0.75" class="primitive"/>
    </g>
    <g transform="translate(56.39,85.03)" fill="#5F0AB6">
      <circle cx="0" cy="0" r="0.75" class="primitive"/>
    </g>
    <g transform="translate(71.37,87.82)" fill="#124067">
      <circle cx="0" cy="0" r="0.75" class="primitive"/>
    </g>
    <g transform="translate(51.01,86.42)" fill="#5F0AB6">
      <circle cx="0" cy="0" r="0.75" class="primitive"/>
    </g>
    <g transform="translate(45.99,84.33)" fill="#5F0AB6">
      <circle cx="0" cy="0" r="0.75" class="primitive"/>
    </g>
    <g transform="translate(25.35,81.89)" fill="#5F0AB6">
      <circle cx="0" cy="0" r="0.75" class="primitive"/>
    </g>
    <g transform="translate(24.92,76.32)" fill="#124067">
      <circle cx="0" cy="0" r="0.75" class="primitive"/>
    </g>
    <g transform="translate(24.16,67.08)" fill="#124067">
      <circle cx="0" cy="0" r="0.75" class="primitive"/>
    </g>
    <g transform="translate(21.85,54.19)" fill="#5F0AB6">
      <circle cx="0" cy="0" r="0.75" class="primitive"/>
    </g>
    <g transform="translate(3.75,42.43)" fill="#000000">
      <circle cx="0" cy="0" r="0.75" class="primitive"/>
    </g>
    <g transform="translate(3.75,25.44)" fill="#000000">
      <circle cx="0" cy="0" r="0.75" class="primitive"/>
    </g>
  </g>
</g>
<g stroke-opacity="1" fill-opacity="1" font-size="1.41" stroke-width="0.1" id="img-29b4c979-5">
  <g transform="translate(23.99,4.18)" stroke="#000000">
    <g class="primitive">
      <text dy="0.35em">N26</text>
    </g>
  </g>
  <g transform="translate(36.11,6.97)" stroke="#000000">
    <g class="primitive">
      <text dy="0.35em">N15</text>
    </g>
  </g>
  <g transform="translate(44.9,9.76)" stroke="#000000">
    <g class="primitive">
      <text dy="0.35em">N11</text>
    </g>
  </g>
  <g transform="translate(32.21,8.36)" stroke="#000000">
    <g class="primitive">
      <text dy="0.35em">N38</text>
    </g>
  </g>
  <g transform="translate(37.85,12.55)" stroke="#000000">
    <g class="primitive">
      <text dy="0.35em">N13</text>
    </g>
  </g>
  <g transform="translate(48.15,15.33)" stroke="#000000">
    <g class="primitive">
      <text dy="0.35em">N16</text>
    </g>
  </g>
  <g transform="translate(30.28,13.94)" stroke="#000000">
    <g class="primitive">
      <text dy="0.35em">N52</text>
    </g>
  </g>
  <g transform="translate(40.79,18.12)" stroke="#000000">
    <g class="primitive">
      <text dy="0.35em">N30</text>
    </g>
  </g>
  <g transform="translate(53.2,20.91)" stroke="#000000">
    <g class="primitive">
      <text dy="0.35em">N18</text>
    </g>
  </g>
  <g transform="translate(60.34,23.7)" stroke="#000000">
    <g class="primitive">
      <text dy="0.35em">N20</text>
    </g>
  </g>
  <g transform="translate(44.98,22.3)" stroke="#000000">
    <g class="primitive">
      <text dy="0.35em">N46</text>
    </g>
  </g>
  <g transform="translate(31.32,20.21)" stroke="#000000">
    <g class="primitive">
      <text dy="0.35em">N47</text>
    </g>
  </g>
  <g transform="translate(28.66,17.08)" stroke="#000000">
    <g class="primitive">
      <text dy="0.35em">N53</text>
    </g>
  </g>
  <g transform="translate(26.85,12.72)" stroke="#000000">
    <g class="primitive">
      <text dy="0.35em">N54</text>
    </g>
  </g>
  <g transform="translate(13.19,8.45)" stroke="#000000">
    <g class="primitive">
      <text dy="0.35em">N58</text>
    </g>
  </g>
  <g transform="translate(18.03,26.48)" stroke="#000000">
    <g class="primitive">
      <text dy="0.35em">N0</text>
    </g>
  </g>
  <g transform="translate(24.49,29.27)" stroke="#000000">
    <g class="primitive">
      <text dy="0.35em">N4</text>
    </g>
  </g>
  <g transform="translate(17.83,27.88)" stroke="#000000">
    <g class="primitive">
      <text dy="0.35em">N41</text>
    </g>
  </g>
  <g transform="translate(13.66,32.06)" stroke="#000000">
    <g class="primitive">
      <text dy="0.35em">N6</text>
    </g>
  </g>
  <g transform="translate(21.21,34.85)" stroke="#000000">
    <g class="primitive">
      <text dy="0.35em">N5</text>
    </g>
  </g>
  <g transform="translate(13.54,33.45)" stroke="#000000">
    <g class="primitive">
      <text dy="0.35em">N33</text>
    </g>
  </g>
  <g transform="translate(8.28,30.67)" stroke="#000000">
    <g class="primitive">
      <text dy="0.35em">N49</text>
    </g>
  </g>
  <g transform="translate(25.37,37.64)" stroke="#000000">
    <g class="primitive">
      <text dy="0.35em">N24</text>
    </g>
  </g>
  <g transform="translate(45.62,40.42)" stroke="#000000">
    <g class="primitive">
      <text dy="0.35em">N25</text>
    </g>
  </g>
  <g transform="translate(79.82,43.21)" stroke="#000000">
    <g class="primitive">
      <text dy="0.35em">N12</text>
    </g>
  </g>
  <g transform="translate(36.52,41.82)" stroke="#000000">
    <g class="primitive">
      <text dy="0.35em">N31</text>
    </g>
  </g>
  <g transform="translate(46.8,46)" stroke="#000000">
    <g class="primitive">
      <text dy="0.35em">N2</text>
    </g>
  </g>
  <g transform="translate(77.28,48.79)" stroke="#000000">
    <g class="primitive">
      <text dy="0.35em">N27</text>
    </g>
  </g>
  <g transform="translate(42.81,51.58)" stroke="#000000">
    <g class="primitive">
      <text dy="0.35em">N17</text>
    </g>
  </g>
  <g transform="translate(42.49,50.18)" stroke="#000000">
    <g class="primitive">
      <text dy="0.35em">N35</text>
    </g>
  </g>
  <g transform="translate(34.39,48.09)" stroke="#000000">
    <g class="primitive">
      <text dy="0.35em">N48</text>
    </g>
  </g>
  <g transform="translate(30.94,44.95)" stroke="#000000">
    <g class="primitive">
      <text dy="0.35em">N50</text>
    </g>
  </g>
  <g transform="translate(24.52,41.3)" stroke="#000000">
    <g class="primitive">
      <text dy="0.35em">N51</text>
    </g>
  </g>
  <g transform="translate(49.26,54.36)" stroke="#000000">
    <g class="primitive">
      <text dy="0.35em">N1</text>
    </g>
  </g>
  <g transform="translate(79.09,57.15)" stroke="#000000">
    <g class="primitive">
      <text dy="0.35em">N14</text>
    </g>
  </g>
  <g transform="translate(80.62,59.94)" stroke="#000000">
    <g class="primitive">
      <text dy="0.35em">N21</text>
    </g>
  </g>
  <g transform="translate(79.06,58.55)" stroke="#000000">
    <g class="primitive">
      <text dy="0.35em">N36</text>
    </g>
  </g>
  <g transform="translate(66.98,62.73)" stroke="#000000">
    <g class="primitive">
      <text dy="0.35em">N8</text>
    </g>
  </g>
  <g transform="translate(65.29,65.52)" stroke="#000000">
    <g class="primitive">
      <text dy="0.35em">N29</text>
    </g>
  </g>
  <g transform="translate(63.67,64.12)" stroke="#000000">
    <g class="primitive">
      <text dy="0.35em">N37</text>
    </g>
  </g>
  <g transform="translate(62.84,61.33)" stroke="#000000">
    <g class="primitive">
      <text dy="0.35em">N40</text>
    </g>
  </g>
  <g transform="translate(32.56,57.85)" stroke="#000000">
    <g class="primitive">
      <text dy="0.35em">N55</text>
    </g>
  </g>
  <g transform="translate(35.61,68.3)" stroke="#000000">
    <g class="primitive">
      <text dy="0.35em">N28</text>
    </g>
  </g>
  <g transform="translate(37.8,71.09)" stroke="#000000">
    <g class="primitive">
      <text dy="0.35em">N23</text>
    </g>
  </g>
  <g transform="translate(72.97,73.88)" stroke="#000000">
    <g class="primitive">
      <text dy="0.35em">N9</text>
    </g>
  </g>
  <g transform="translate(69.94,76.67)" stroke="#000000">
    <g class="primitive">
      <text dy="0.35em">N7</text>
    </g>
  </g>
  <g transform="translate(64.66,75.27)" stroke="#000000">
    <g class="primitive">
      <text dy="0.35em">N39</text>
    </g>
  </g>
  <g transform="translate(37.08,73.18)" stroke="#000000">
    <g class="primitive">
      <text dy="0.35em">N42</text>
    </g>
  </g>
  <g transform="translate(29.75,70.74)" stroke="#000000">
    <g class="primitive">
      <text dy="0.35em">N44</text>
    </g>
  </g>
  <g transform="translate(32.2,79.45)" stroke="#000000">
    <g class="primitive">
      <text dy="0.35em">N22</text>
    </g>
  </g>
  <g transform="translate(51.46,82.24)" stroke="#000000">
    <g class="primitive">
      <text dy="0.35em">N10</text>
    </g>
  </g>
  <g stroke-opacity="1" fill-opacity="1" font-size="1.41" stroke-width="0.1" id="img-29b4c979-6">
    <g transform="translate(51.46,82.24)" stroke="#000000">
      <g class="primitive">
        <text dy="0.35em">N10</text>
      </g>
    </g>
    <g transform="translate(58.27,85.03)" stroke="#000000">
      <g class="primitive">
        <text dy="0.35em">N19</text>
      </g>
    </g>
    <g transform="translate(73.25,87.82)" stroke="#000000">
      <g class="primitive">
        <text dy="0.35em">N3</text>
      </g>
    </g>
    <g transform="translate(52.88,86.42)" stroke="#000000">
      <g class="primitive">
        <text dy="0.35em">N32</text>
      </g>
    </g>
    <g transform="translate(47.86,84.33)" stroke="#000000">
      <g class="primitive">
        <text dy="0.35em">N34</text>
      </g>
    </g>
    <g transform="translate(27.22,81.89)" stroke="#000000">
      <g class="primitive">
        <text dy="0.35em">N43</text>
      </g>
    </g>
    <g transform="translate(26.8,76.32)" stroke="#000000">
      <g class="primitive">
        <text dy="0.35em">N45</text>
      </g>
    </g>
    <g transform="translate(26.03,67.08)" stroke="#000000">
      <g class="primitive">
        <text dy="0.35em">N56</text>
      </g>
    </g>
    <g transform="translate(23.73,54.19)" stroke="#000000">
      <g class="primitive">
        <text dy="0.35em">N57</text>
      </g>
    </g>
    <g transform="translate(5.63,42.43)" stroke="#000000">
      <g class="primitive">
        <text dy="0.35em"></text>
      </g>
    </g>
    <g transform="translate(5.63,25.44)" stroke="#000000">
      <g class="primitive">
        <text dy="0.35em"></text>
      </g>
    </g>
  </g>
</g>
</svg>
