<?xml version="1.0" encoding="UTF-8"?>
<svg xmlns="http://www.w3.org/2000/svg"
     xmlns:xlink="http://www.w3.org/1999/xlink"
     version="1.2"
     width="150mm" height="90mm" viewBox="0 0 150 90"
     stroke="none"
     fill="#000000"
     stroke-width="0.3"
     font-size="3.88"
>
<defs>
  <marker id="arrow" markerWidth="15" markerHeight="7" refX="5" refY="3.5" orient="auto" markerUnits="strokeWidth">
    <path d="M0,0 L15,3.5 L0,7 z" stroke="context-stroke" fill="context-stroke"/>
  </marker>
</defs>
<g stroke-opacity="1" stroke-width="0.3" id="img-300d6e6f-1">
  <g transform="translate(11.39,4.09)" stroke="#28655B">
    <path fill="none" d="M-3.56,0 L3.56,0 " class="primitive"/>
  </g>
  <g transform="translate(33.97,6.91)" stroke="#28655B">
    <path fill="none" d="M-12.12,0 L12.12,0 " class="primitive"/>
  </g>
  <g transform="translate(23.41,9.73)" stroke="#28655B">
    <path fill="none" d="M-1.55,0 L1.55,0 " class="primitive"/>
  </g>
  <g transform="translate(16.44,8.32)" stroke="#365A54">
    <path fill="none" d="M-5.42,0 L5.42,0 " class="primitive"/>
  </g>
  <g transform="translate(21.86,8.32)" stroke="#365A54">
    <path fill="none" d="M0,1.41 L0,-1.41 " class="primitive"/>
  </g>
  <g transform="translate(18.6,12.55)" stroke="#28655B">
    <path fill="none" d="M-4.55,0 L4.55,0 " class="primitive"/>
  </g>
  <g transform="translate(26.47,15.38)" stroke="#28655B">
    <path fill="none" d="M-3.1,0 L3.1,0 " class="primitive"/>
  </g>
  <g transform="translate(49.42,18.2)" stroke="#365A54">
    <path fill="none" d="M-7.57,0 L7.57,0 " class="primitive"/>
  </g>
  <g transform="translate(42.98,21.02)" stroke="#28655B">
    <path fill="none" d="M-1.13,0 L1.13,0 " class="primitive"/>
  </g>
  <g transform="translate(35.86,19.61)" stroke="#28655B">
    <path fill="none" d="M-5.99,0 L5.99,0 " class="primitive"/>
  </g>
  <g transform="translate(41.85,19.61)" stroke="#28655B">
    <path fill="none" d="M0,1.41 L0,-1.41 " class="primitive"/>
  </g>
  <g transform="translate(36.87,23.84)" stroke="#28655B">
    <path fill="none" d="M-6.05,0 L6.05,0 " class="primitive"/>
  </g>
  <g transform="translate(31.15,26.66)" stroke="#28655B">
    <path fill="none" d="M-0.34,0 L0.34,0 " class="primitive"/>
  </g>
  <g transform="translate(30.34,25.25)" stroke="#28655B">
    <path fill="none" d="M-0.47,0 L0.47,0 " class="primitive"/>
  </g>
  <g transform="translate(30.82,25.25)" stroke="#28655B">
    <path fill="none" d="M0,1.41 L0,-1.41 " class="primitive"/>
  </g>
  <g transform="translate(26.62,22.43)" stroke="#28655B">
    <path fill="none" d="M-3.25,0 L3.25,0 " class="primitive"/>
  </g>
  <g transform="translate(29.87,22.43)" stroke="#28655B">
    <path fill="none" d="M0,2.82 L0,-2.82 " class="primitive"/>
  </g>
  <g transform="translate(18.71,18.9)" stroke="#28655B">
    <path fill="none" d="M-4.66,0 L4.66,0 " class="primitive"/>
  </g>
  <g transform="translate(23.37,18.9)" stroke="#28655B">
    <path fill="none" d="M0,3.53 L0,-3.53 " class="primitive"/>
  </g>
  <g transform="translate(12.54,15.73)" stroke="#28655B">
    <path fill="none" d="M-1.51,0 L1.51,0 " class="primitive"/>
  </g>
  <g transform="translate(14.05,15.73)" stroke="#28655B">
    <path fill="none" d="M0,3.17 L0,-3.17 " class="primitive"/>
  </g>
  <g transform="translate(9.43,12.03)" stroke="#365A54">
    <path fill="none" d="M-1.6,0 L1.6,0 " class="primitive"/>
  </g>
  <g transform="translate(11.03,12.03)" stroke="#365A54">
    <path fill="none" d="M0,3.7 L0,-3.7 " class="primitive"/>
  </g>
  <g transform="translate(5.79,8.06)" stroke="#365A54">
    <path fill="none" d="M-2.04,0 L2.04,0 " class="primitive"/>
  </g>
  <g transform="translate(7.83,8.06)" stroke="#365A54">
    <path fill="none" d="M0,3.97 L0,-3.97 " class="primitive"/>
  </g>
  <g transform="translate(19.39,29.48)" stroke="#28655B">
    <path fill="none" d="M-3.03,0 L3.03,0 " class="primitive"/>
  </g>
  <g transform="translate(21.5,32.3)" stroke="#28655B">
    <path fill="none" d="M-4.51,0 L4.51,0 " class="primitive"/>
  </g>
  <g transform="translate(30.53,35.13)" stroke="#28655B">
    <path fill="none" d="M-8.03,0 L8.03,0 " class="primitive"/>
  </g>
  <g transform="translate(24,37.95)" stroke="#28655B">
    <path fill="none" d="M-1.49,0 L1.49,0 " class="primitive"/>
  </g>
  <g transform="translate(21.72,36.54)" stroke="#365A54">
    <path fill="none" d="M-0.78,0 L0.78,0 " class="primitive"/>
  </g>
  <g transform="translate(22.51,36.54)" stroke="#365A54">
    <path fill="none" d="M0,1.41 L0,-1.41 " class="primitive"/>
  </g>
  <g transform="translate(23.12,40.77)" stroke="#28655B">
    <path fill="none" d="M-1.03,0 L1.03,0 " class="primitive"/>
  </g>
  <g transform="translate(30.95,43.59)" stroke="#365A54">
    <path fill="none" d="M-7.85,0 L7.85,0 " class="primitive"/>
  </g>
  <g transform="translate(32.7,46.41)" stroke="#28655B">
    <path fill="none" d="M-1.04,0 L1.04,0 " class="primitive"/>
  </g>
  <g transform="translate(33.53,49.23)" stroke="#365A54">
    <path fill="none" d="M-1.88,0 L1.88,0 " class="primitive"/>
  </g>
  <g transform="translate(27.37,47.82)" stroke="#365A54">
    <path fill="none" d="M-4.28,0 L4.28,0 " class="primitive"/>
  </g>
  <g transform="translate(31.65,47.82)" stroke="#365A54">
    <path fill="none" d="M0,1.41 L0,-1.41 " class="primitive"/>
  </g>
  <g transform="translate(22.59,45.71)" stroke="#28655B">
    <path fill="none" d="M-0.51,0 L0.51,0 " class="primitive"/>
  </g>
  <g transform="translate(23.1,45.71)" stroke="#28655B">
    <path fill="none" d="M0,2.12 L0,-2.12 " class="primitive"/>
  </g>
  <g transform="translate(21.51,43.24)" stroke="#28655B">
    <path fill="none" d="M-0.57,0 L0.57,0 " class="primitive"/>
  </g>
  <g transform="translate(22.08,43.24)" stroke="#28655B">
    <path fill="none" d="M0,2.47 L0,-2.47 " class="primitive"/>
  </g>
  <g transform="translate(18.97,39.89)" stroke="#28655B">
    <path fill="none" d="M-1.98,0 L1.98,0 " class="primitive"/>
  </g>
  <g transform="translate(20.94,39.89)" stroke="#28655B">
    <path fill="none" d="M0,3.35 L0,-3.35 " class="primitive"/>
  </g>
  <g transform="translate(16.67,36.1)" stroke="#28655B">
    <path fill="none" d="M-0.31,0 L0.31,0 " class="primitive"/>
  </g>
  <g transform="translate(16.99,36.1)" stroke="#28655B">
    <path fill="none" d="M0,3.79 L0,-3.79 " class="primitive"/>
  </g>
  <g transform="translate(10.06,32.79)" stroke="#28655B">
    <path fill="none" d="M-6.31,0 L6.31,0 " class="primitive"/>
  </g>
  <g transform="translate(16.36,32.79)" stroke="#28655B">
    <path fill="none" d="M0,3.31 L0,-3.31 " class="primitive"/>
  </g>
  <g transform="translate(5.14,52.05)" stroke="#28655B">
    <path fill="none" d="M-0.11,0 L0.11,0 " class="primitive"/>
  </g>
  <g transform="translate(11.77,54.87)" stroke="#28655B">
    <path fill="none" d="M-0.08,0 L0.08,0 " class="primitive"/>
  </g>
  <g transform="translate(38.93,57.7)" stroke="#28655B">
    <path fill="none" d="M-16.21,0 L16.21,0 " class="primitive"/>
  </g>
  <g transform="translate(40.35,60.52)" stroke="#28655B">
    <path fill="none" d="M-2.66,0 L2.66,0 " class="primitive"/>
  </g>
  <g stroke-opacity="1" stroke-width="0.3" id="img-300d6e6f-2">
    <g transform="translate(40.35,60.52)" stroke="#28655B">
      <path fill="none" d="M-2.66,0 L2.66,0 " class="primitive"/>
    </g>
    <g transform="translate(38.56,63.34)" stroke="#28655B">
      <path fill="none" d="M-0.88,0 L0.88,0 " class="primitive"/>
    </g>
    <g transform="translate(30.2,61.93)" stroke="#28655B">
      <path fill="none" d="M-7.49,0 L7.49,0 " class="primitive"/>
    </g>
    <g transform="translate(37.69,61.93)" stroke="#28655B">
      <path fill="none" d="M0,1.41 L0,-1.41 " class="primitive"/>
    </g>
    <g transform="translate(17.2,59.81)" stroke="#28655B">
      <path fill="none" d="M-5.51,0 L5.51,0 " class="primitive"/>
    </g>
    <g transform="translate(22.72,59.81)" stroke="#28655B">
      <path fill="none" d="M0,2.12 L0,-2.12 " class="primitive"/>
    </g>
    <g transform="translate(10.56,57.34)" stroke="#365A54">
      <path fill="none" d="M-1.13,0 L1.13,0 " class="primitive"/>
    </g>
    <g transform="translate(11.69,57.34)" stroke="#365A54">
      <path fill="none" d="M0,2.47 L0,-2.47 " class="primitive"/>
    </g>
    <g transform="translate(19.96,66.16)" stroke="#28655B">
      <path fill="none" d="M-8.58,0 L8.58,0 " class="primitive"/>
    </g>
    <g transform="translate(31.17,68.98)" stroke="#28655B">
      <path fill="none" d="M-2.69,0 L2.69,0 " class="primitive"/>
    </g>
    <g transform="translate(29.97,71.8)" stroke="#28655B">
      <path fill="none" d="M-1.49,0 L1.49,0 " class="primitive"/>
    </g>
    <g transform="translate(21.17,70.39)" stroke="#365A54">
      <path fill="none" d="M-7.31,0 L7.31,0 " class="primitive"/>
    </g>
    <g transform="translate(28.48,70.39)" stroke="#365A54">
      <path fill="none" d="M0,1.41 L0,-1.41 " class="primitive"/>
    </g>
    <g transform="translate(31.26,74.62)" stroke="#28655B">
      <path fill="none" d="M-5.94,0 L5.94,0 " class="primitive"/>
    </g>
    <g transform="translate(43.61,77.45)" stroke="#28655B">
      <path fill="none" d="M-0.69,0 L0.69,0 " class="primitive"/>
    </g>
    <g transform="translate(65.49,80.27)" stroke="#28655B">
      <path fill="none" d="M-0.82,0 L0.82,0 " class="primitive"/>
    </g>
    <g transform="translate(76.49,83.09)" stroke="#28655B">
      <path fill="none" d="M-1.16,0 L1.16,0 " class="primitive"/>
    </g>
    <g transform="translate(77.04,85.91)" stroke="#365A54">
      <path fill="none" d="M-1.71,0 L1.71,0 " class="primitive"/>
    </g>
    <g transform="translate(70,84.5)" stroke="#28655B">
      <path fill="none" d="M-5.33,0 L5.33,0 " class="primitive"/>
    </g>
    <g transform="translate(75.33,84.5)" stroke="#28655B">
      <path fill="none" d="M0,1.41 L0,-1.41 " class="primitive"/>
    </g>
    <g transform="translate(53.79,82.38)" stroke="#365A54">
      <path fill="none" d="M-10.88,0 L10.88,0 " class="primitive"/>
    </g>
    <g transform="translate(64.67,82.38)" stroke="#365A54">
      <path fill="none" d="M0,2.12 L0,-2.12 " class="primitive"/>
    </g>
    <g transform="translate(34.12,79.91)" stroke="#28655B">
      <path fill="none" d="M-8.8,0 L8.8,0 " class="primitive"/>
    </g>
    <g transform="translate(42.92,79.91)" stroke="#28655B">
      <path fill="none" d="M0,2.47 L0,-2.47 " class="primitive"/>
    </g>
    <g transform="translate(19.59,77.27)" stroke="#28655B">
      <path fill="none" d="M-5.73,0 L5.73,0 " class="primitive"/>
    </g>
    <g transform="translate(25.32,77.27)" stroke="#28655B">
      <path fill="none" d="M0,2.64 L0,-2.64 " class="primitive"/>
    </g>
    <g transform="translate(12.62,73.83)" stroke="#28655B">
      <path fill="none" d="M-1.24,0 L1.24,0 " class="primitive"/>
    </g>
    <g transform="translate(13.86,73.83)" stroke="#28655B">
      <path fill="none" d="M0,3.44 L0,-3.44 " class="primitive"/>
    </g>
    <g transform="translate(10.41,70)" stroke="#365A54">
      <path fill="none" d="M-0.97,0 L0.97,0 " class="primitive"/>
    </g>
    <g transform="translate(11.38,70)" stroke="#365A54">
      <path fill="none" d="M0,3.84 L0,-3.84 " class="primitive"/>
    </g>
    <g transform="translate(7.23,63.67)" stroke="#365A54">
      <path fill="none" d="M-2.2,0 L2.2,0 " class="primitive"/>
    </g>
    <g transform="translate(9.43,63.67)" stroke="#365A54">
      <path fill="none" d="M0,6.33 L0,-6.33 " class="primitive"/>
    </g>
    <g transform="translate(4.39,57.86)" stroke="#28655B">
      <path fill="none" d="M-0.64,0 L0.64,0 " class="primitive"/>
    </g>
    <g transform="translate(5.03,57.86)" stroke="#28655B">
      <path fill="none" d="M0,5.81 L0,-5.81 " class="primitive"/>
    </g>
    <g transform="translate(3.75,45.33)" stroke="#000000">
      <path fill="none" d="M0,0 L0,0 " class="primitive"/>
    </g>
    <g transform="translate(3.75,45.33)" stroke="#000000">
      <path fill="none" d="M0,12.54 L0,-12.54 " class="primitive"/>
    </g>
    <g transform="translate(3.75,26.69)" stroke="#000000">
      <path fill="none" d="M0,0 L0,0 " class="primitive"/>
    </g>
    <g transform="translate(3.75,26.69)" stroke="#000000">
      <path fill="none" d="M0,18.63 L0,-18.63 " class="primitive"/>
    </g>
  </g>
</g>
<g fill-opacity="1" id="img-300d6e6f-3">
  <g transform="translate(14.94,4.09)" fill="#28655B">
    <circle cx="0" cy="0" r="0.75" class="primitive"/>
  </g>
  <g transform="translate(46.09,6.91)" fill="#28655B">
    <circle cx="0" cy="0" r="0.75" class="primitive"/>
  </g>
  <g transform="translate(24.96,9.73)" fill="#28655B">
    <circle cx="0" cy="0" r="0.75" class="primitive"/>
  </g>
  <g transform="translate(21.86,8.32)" fill="#365A54">
    <circle cx="0" cy="0" r="0.75" class="primitive"/>
  </g>
  <g transform="translate(23.15,12.55)" fill="#28655B">
    <circle cx="0" cy="0" r="0.75" class="primitive"/>
  </g>
  <g transform="translate(29.56,15.38)" fill="#28655B">
    <circle cx="0" cy="0" r="0.75" class="primitive"/>
  </g>
  <g transform="translate(56.99,18.2)" fill="#365A54">
    <circle cx="0" cy="0" r="0.75" class="primitive"/>
  </g>
  <g transform="translate(44.12,21.02)" fill="#28655B">
    <circle cx="0" cy="0" r="0.75" class="primitive"/>
  </g>
  <g transform="translate(41.85,19.61)" fill="#28655B">
    <circle cx="0" cy="0" r="0.75" class="primitive"/>
  </g>
  <g transform="translate(42.92,23.84)" fill="#28655B">
    <circle cx="0" cy="0" r="0.75" class="primitive"/>
  </g>
  <g transform="translate(31.49,26.66)" fill="#28655B">
    <circle cx="0" cy="0" r="0.75" class="primitive"/>
  </g>
  <g transform="translate(30.82,25.25)" fill="#28655B">
    <circle cx="0" cy="0" r="0.75" class="primitive"/>
  </g>
  <g transform="translate(29.87,22.43)" fill="#28655B">
    <circle cx="0" cy="0" r="0.75" class="primitive"/>
  </g>
  <g transform="translate(23.37,18.9)" fill="#28655B">
    <circle cx="0" cy="0" r="0.75" class="primitive"/>
  </g>
  <g transform="translate(14.05,15.73)" fill="#28655B">
    <circle cx="0" cy="0" r="0.75" class="primitive"/>
  </g>
  <g transform="translate(11.03,12.03)" fill="#365A54">
    <circle cx="0" cy="0" r="0.75" class="primitive"/>
  </g>
  <g transform="translate(7.83,8.06)" fill="#365A54">
    <circle cx="0" cy="0" r="0.75" class="primitive"/>
  </g>
  <g transform="translate(22.42,29.48)" fill="#28655B">
    <circle cx="0" cy="0" r="0.75" class="primitive"/>
  </g>
  <g transform="translate(26.02,32.3)" fill="#28655B">
    <circle cx="0" cy="0" r="0.75" class="primitive"/>
  </g>
  <g transform="translate(38.56,35.13)" fill="#28655B">
    <circle cx="0" cy="0" r="0.75" class="primitive"/>
  </g>
  <g transform="translate(25.5,37.95)" fill="#28655B">
    <circle cx="0" cy="0" r="0.75" class="primitive"/>
  </g>
  <g transform="translate(22.51,36.54)" fill="#365A54">
    <circle cx="0" cy="0" r="0.75" class="primitive"/>
  </g>
  <g transform="translate(24.15,40.77)" fill="#28655B">
    <circle cx="0" cy="0" r="0.75" class="primitive"/>
  </g>
  <g transform="translate(38.8,43.59)" fill="#365A54">
    <circle cx="0" cy="0" r="0.75" class="primitive"/>
  </g>
  <g transform="translate(33.74,46.41)" fill="#28655B">
    <circle cx="0" cy="0" r="0.75" class="primitive"/>
  </g>
  <g transform="translate(35.41,49.23)" fill="#365A54">
    <circle cx="0" cy="0" r="0.75" class="primitive"/>
  </g>
  <g transform="translate(31.65,47.82)" fill="#365A54">
    <circle cx="0" cy="0" r="0.75" class="primitive"/>
  </g>
  <g transform="translate(23.1,45.71)" fill="#28655B">
    <circle cx="0" cy="0" r="0.75" class="primitive"/>
  </g>
  <g transform="translate(22.08,43.24)" fill="#28655B">
    <circle cx="0" cy="0" r="0.75" class="primitive"/>
  </g>
  <g transform="translate(20.94,39.89)" fill="#28655B">
    <circle cx="0" cy="0" r="0.75" class="primitive"/>
  </g>
  <g transform="translate(16.99,36.1)" fill="#28655B">
    <circle cx="0" cy="0" r="0.75" class="primitive"/>
  </g>
  <g transform="translate(16.36,32.79)" fill="#28655B">
    <circle cx="0" cy="0" r="0.75" class="primitive"/>
  </g>
  <g transform="translate(5.25,52.05)" fill="#28655B">
    <circle cx="0" cy="0" r="0.75" class="primitive"/>
  </g>
  <g transform="translate(11.86,54.87)" fill="#28655B">
    <circle cx="0" cy="0" r="0.75" class="primitive"/>
  </g>
  <g transform="translate(55.14,57.7)" fill="#28655B">
    <circle cx="0" cy="0" r="0.75" class="primitive"/>
  </g>
  <g transform="translate(43.01,60.52)" fill="#28655B">
    <circle cx="0" cy="0" r="0.75" class="primitive"/>
  </g>
  <g transform="translate(39.44,63.34)" fill="#28655B">
    <circle cx="0" cy="0" r="0.75" class="primitive"/>
  </g>
  <g transform="translate(37.69,61.93)" fill="#28655B">
    <circle cx="0" cy="0" r="0.75" class="primitive"/>
  </g>
  <g transform="translate(22.72,59.81)" fill="#28655B">
    <circle cx="0" cy="0" r="0.75" class="primitive"/>
  </g>
  <g transform="translate(11.69,57.34)" fill="#365A54">
    <circle cx="0" cy="0" r="0.75" class="primitive"/>
  </g>
  <g transform="translate(28.53,66.16)" fill="#28655B">
    <circle cx="0" cy="0" r="0.75" class="primitive"/>
  </g>
  <g transform="translate(33.86,68.98)" fill="#28655B">
    <circle cx="0" cy="0" r="0.75" class="primitive"/>
  </g>
  <g transform="translate(31.46,71.8)" fill="#28655B">
    <circle cx="0" cy="0" r="0.75" class="primitive"/>
  </g>
  <g transform="translate(28.48,70.39)" fill="#365A54">
    <circle cx="0" cy="0" r="0.75" class="primitive"/>
  </g>
  <g transform="translate(37.2,74.62)" fill="#28655B">
    <circle cx="0" cy="0" r="0.75" class="primitive"/>
  </g>
  <g transform="translate(44.3,77.45)" fill="#28655B">
    <circle cx="0" cy="0" r="0.75" class="primitive"/>
  </g>
  <g transform="translate(66.31,80.27)" fill="#28655B">
    <circle cx="0" cy="0" r="0.75" class="primitive"/>
  </g>
  <g transform="translate(77.65,83.09)" fill="#28655B">
    <circle cx="0" cy="0" r="0.75" class="primitive"/>
  </g>
  <g transform="translate(78.75,85.91)" fill="#365A54">
    <circle cx="0" cy="0" r="0.75" class="primitive"/>
  </g>
  <g transform="translate(75.33,84.5)" fill="#28655B">
    <circle cx="0" cy="0" r="0.75" class="primitive"/>
  </g>
  <g transform="translate(64.67,82.38)" fill="#365A54">
    <circle cx="0" cy="0" r="0.75" class="primitive"/>
  </g>
  <g fill-opacity="1" id="img-300d6e6f-4">
    <g transform="translate(64.67,82.38)" fill="#365A54">
      <circle cx="0" cy="0" r="0.75" class="primitive"/>
    </g>
    <g transform="translate(42.92,79.91)" fill="#28655B">
      <circle cx="0" cy="0" r="0.75" class="primitive"/>
    </g>
    <g transform="translate(25.32,77.27)" fill="#28655B">
      <circle cx="0" cy="0" r="0.75" class="primitive"/>
    </g>
    <g transform="translate(13.86,73.83)" fill="#28655B">
      <circle cx="0" cy="0" r="0.75" class="primitive"/>
    </g>
    <g transform="translate(11.38,70)" fill="#365A54">
      <circle cx="0" cy="0" r="0.75" class="primitive"/>
    </g>
    <g transform="translate(9.43,63.67)" fill="#365A54">
      <circle cx="0" cy="0" r="0.75" class="primitive"/>
    </g>
    <g transform="translate(5.03,57.86)" fill="#28655B">
      <circle cx="0" cy="0" r="0.75" class="primitive"/>
    </g>
    <g transform="translate(3.75,45.33)" fill="#000000">
      <circle cx="0" cy="0" r="0.75" class="primitive"/>
    </g>
    <g transform="translate(3.75,26.69)" fill="#000000">
      <circle cx="0" cy="0" r="0.75" class="primitive"/>
    </g>
  </g>
</g>
<g stroke-opacity="1" fill-opacity="1" font-size="1.41" stroke-width="0.1" id="img-300d6e6f-5">
  <g transform="translate(16.82,4.09)" stroke="#000000">
    <g class="primitive">
      <text dy="0.35em">N8</text>
    </g>
  </g>
  <g transform="translate(47.96,6.91)" stroke="#000000">
    <g class="primitive">
      <text dy="0.35em">N27</text>
    </g>
  </g>
  <g transform="translate(26.83,9.73)" stroke="#000000">
    <g class="primitive">
      <text dy="0.35em">N13</text>
    </g>
  </g>
  <g transform="translate(23.73,8.32)" stroke="#000000">
    <g class="primitive">
      <text dy="0.35em">N31</text>
    </g>
  </g>
  <g transform="translate(25.02,12.55)" stroke="#000000">
    <g class="primitive">
      <text dy="0.35em">N0</text>
    </g>
  </g>
  <g transform="translate(31.44,15.38)" stroke="#000000">
    <g class="primitive">
      <text dy="0.35em">N4</text>
    </g>
  </g>
  <g transform="translate(58.87,18.2)" stroke="#000000">
    <g class="primitive">
      <text dy="0.35em">N24</text>
    </g>
  </g>
  <g transform="translate(45.99,21.02)" stroke="#000000">
    <g class="primitive">
      <text dy="0.35em">N18</text>
    </g>
  </g>
  <g transform="translate(43.73,19.61)" stroke="#000000">
    <g class="primitive">
      <text dy="0.35em">N38</text>
    </g>
  </g>
  <g transform="translate(44.79,23.84)" stroke="#000000">
    <g class="primitive">
      <text dy="0.35em">N1</text>
    </g>
  </g>
  <g transform="translate(33.36,26.66)" stroke="#000000">
    <g class="primitive">
      <text dy="0.35em">N17</text>
    </g>
  </g>
  <g transform="translate(32.69,25.25)" stroke="#000000">
    <g class="primitive">
      <text dy="0.35em">N33</text>
    </g>
  </g>
  <g transform="translate(31.74,22.43)" stroke="#000000">
    <g class="primitive">
      <text dy="0.35em">N44</text>
    </g>
  </g>
  <g transform="translate(25.24,18.9)" stroke="#000000">
    <g class="primitive">
      <text dy="0.35em">N45</text>
    </g>
  </g>
  <g transform="translate(15.93,15.73)" stroke="#000000">
    <g class="primitive">
      <text dy="0.35em">N46</text>
    </g>
  </g>
  <g transform="translate(12.9,12.03)" stroke="#000000">
    <g class="primitive">
      <text dy="0.35em">N51</text>
    </g>
  </g>
  <g transform="translate(9.71,8.06)" stroke="#000000">
    <g class="primitive">
      <text dy="0.35em">N52</text>
    </g>
  </g>
  <g transform="translate(24.3,29.48)" stroke="#000000">
    <g class="primitive">
      <text dy="0.35em">N22</text>
    </g>
  </g>
  <g transform="translate(27.89,32.3)" stroke="#000000">
    <g class="primitive">
      <text dy="0.35em">N16</text>
    </g>
  </g>
  <g transform="translate(40.44,35.13)" stroke="#000000">
    <g class="primitive">
      <text dy="0.35em">N26</text>
    </g>
  </g>
  <g transform="translate(27.37,37.95)" stroke="#000000">
    <g class="primitive">
      <text dy="0.35em">N19</text>
    </g>
  </g>
  <g transform="translate(24.38,36.54)" stroke="#000000">
    <g class="primitive">
      <text dy="0.35em">N35</text>
    </g>
  </g>
  <g transform="translate(26.02,40.77)" stroke="#000000">
    <g class="primitive">
      <text dy="0.35em">N12</text>
    </g>
  </g>
  <g transform="translate(40.68,43.59)" stroke="#000000">
    <g class="primitive">
      <text dy="0.35em">N3</text>
    </g>
  </g>
  <g transform="translate(35.61,46.41)" stroke="#000000">
    <g class="primitive">
      <text dy="0.35em">N25</text>
    </g>
  </g>
  <g transform="translate(37.29,49.23)" stroke="#000000">
    <g class="primitive">
      <text dy="0.35em">N6</text>
    </g>
  </g>
  <g transform="translate(33.53,47.82)" stroke="#000000">
    <g class="primitive">
      <text dy="0.35em">N32</text>
    </g>
  </g>
  <g transform="translate(24.97,45.71)" stroke="#000000">
    <g class="primitive">
      <text dy="0.35em">N34</text>
    </g>
  </g>
  <g transform="translate(23.96,43.24)" stroke="#000000">
    <g class="primitive">
      <text dy="0.35em">N41</text>
    </g>
  </g>
  <g transform="translate(22.82,39.89)" stroke="#000000">
    <g class="primitive">
      <text dy="0.35em">N43</text>
    </g>
  </g>
  <g transform="translate(18.86,36.1)" stroke="#000000">
    <g class="primitive">
      <text dy="0.35em">N54</text>
    </g>
  </g>
  <g transform="translate(18.24,32.79)" stroke="#000000">
    <g class="primitive">
      <text dy="0.35em">N56</text>
    </g>
  </g>
  <g transform="translate(7.13,52.05)" stroke="#000000">
    <g class="primitive">
      <text dy="0.35em">N15</text>
    </g>
  </g>
  <g transform="translate(13.73,54.87)" stroke="#000000">
    <g class="primitive">
      <text dy="0.35em">N7</text>
    </g>
  </g>
  <g transform="translate(57.02,57.7)" stroke="#000000">
    <g class="primitive">
      <text dy="0.35em">N29</text>
    </g>
  </g>
  <g transform="translate(44.89,60.52)" stroke="#000000">
    <g class="primitive">
      <text dy="0.35em">N9</text>
    </g>
  </g>
  <g transform="translate(41.31,63.34)" stroke="#000000">
    <g class="primitive">
      <text dy="0.35em">N11</text>
    </g>
  </g>
  <g transform="translate(39.56,61.93)" stroke="#000000">
    <g class="primitive">
      <text dy="0.35em">N37</text>
    </g>
  </g>
  <g transform="translate(24.59,59.81)" stroke="#000000">
    <g class="primitive">
      <text dy="0.35em">N49</text>
    </g>
  </g>
  <g transform="translate(13.57,57.34)" stroke="#000000">
    <g class="primitive">
      <text dy="0.35em">N50</text>
    </g>
  </g>
  <g transform="translate(30.41,66.16)" stroke="#000000">
    <g class="primitive">
      <text dy="0.35em">N2</text>
    </g>
  </g>
  <g transform="translate(35.73,68.98)" stroke="#000000">
    <g class="primitive">
      <text dy="0.35em">N5</text>
    </g>
  </g>
  <g transform="translate(33.33,71.8)" stroke="#000000">
    <g class="primitive">
      <text dy="0.35em">N21</text>
    </g>
  </g>
  <g transform="translate(30.35,70.39)" stroke="#000000">
    <g class="primitive">
      <text dy="0.35em">N30</text>
    </g>
  </g>
  <g transform="translate(39.07,74.62)" stroke="#000000">
    <g class="primitive">
      <text dy="0.35em">N20</text>
    </g>
  </g>
  <g transform="translate(46.17,77.45)" stroke="#000000">
    <g class="primitive">
      <text dy="0.35em">N14</text>
    </g>
  </g>
  <g transform="translate(68.19,80.27)" stroke="#000000">
    <g class="primitive">
      <text dy="0.35em">N28</text>
    </g>
  </g>
  <g transform="translate(79.52,83.09)" stroke="#000000">
    <g class="primitive">
      <text dy="0.35em">N10</text>
    </g>
  </g>
  <g transform="translate(80.62,85.91)" stroke="#000000">
    <g class="primitive">
      <text dy="0.35em">N23</text>
    </g>
  </g>
  <g transform="translate(77.2,84.5)" stroke="#000000">
    <g class="primitive">
      <text dy="0.35em">N36</text>
    </g>
  </g>
  <g transform="translate(66.54,82.38)" stroke="#000000">
    <g class="primitive">
      <text dy="0.35em">N39</text>
    </g>
  </g>
  <g stroke-opacity="1" fill-opacity="1" font-size="1.41" stroke-width="0.1" id="img-300d6e6f-6">
    <g transform="translate(66.54,82.38)" stroke="#000000">
      <g class="primitive">
        <text dy="0.35em">N39</text>
      </g>
    </g>
    <g transform="translate(44.79,79.91)" stroke="#000000">
      <g class="primitive">
        <text dy="0.35em">N40</text>
      </g>
    </g>
    <g transform="translate(27.19,77.27)" stroke="#000000">
      <g class="primitive">
        <text dy="0.35em">N42</text>
      </g>
    </g>
    <g transform="translate(15.74,73.83)" stroke="#000000">
      <g class="primitive">
        <text dy="0.35em">N47</text>
      </g>
    </g>
    <g transform="translate(13.26,70)" stroke="#000000">
      <g class="primitive">
        <text dy="0.35em">N48</text>
      </g>
    </g>
    <g transform="translate(11.31,63.67)" stroke="#000000">
      <g class="primitive">
        <text dy="0.35em">N53</text>
      </g>
    </g>
    <g transform="translate(6.9,57.86)" stroke="#000000">
      <g class="primitive">
        <text dy="0.35em">N55</text>
      </g>
    </g>
    <g transform="translate(5.63,45.33)" stroke="#000000">
      <g class="primitive">
        <text dy="0.35em"></text>
      </g>
    </g>
    <g transform="translate(5.63,26.69)" stroke="#000000">
      <g class="primitive">
        <text dy="0.35em"></text>
      </g>
    </g>
  </g>
</g>
</svg>
