<?xml version="1.0" encoding="UTF-8"?>
<svg xmlns="http://www.w3.org/2000/svg"
     xmlns:xlink="http://www.w3.org/1999/xlink"
     version="1.2"
     width="150mm" height="94mm" viewBox="0 0 150 94"
     stroke="none"
     fill="#000000"
     stroke-width="0.3"
     font-size="3.88"
>
<defs>
  <marker id="arrow" markerWidth="15" markerHeight="7" refX="5" refY="3.5" orient="auto" markerUnits="strokeWidth">
    <path d="M0,0 L15,3.5 L0,7 z" stroke="context-stroke" fill="context-stroke"/>
  </marker>
</defs>
<g stroke-opacity="1" stroke-width="0.3" id="img-29b4c979-1">
  <g transform="translate(15.52,4.27)" stroke="#1074BD">
    <path fill="none" d="M-0.42,0 L0.42,0 " class="primitive"/>
  </g>
  <g transform="translate(25.15,7.03)" stroke="#BE0BE0">
    <path fill="none" d="M-5.43,0 L5.43,0 " class="primitive"/>
  </g>
  <g transform="translate(41.89,9.79)" stroke="#BE0BE0">
    <path fill="none" d="M-3.62,0 L3.62,0 " class="primitive"/>
  </g>
  <g transform="translate(73.9,12.54)" stroke="#BE0BE0">
    <path fill="none" d="M-2.39,0 L2.39,0 " class="primitive"/>
  </g>
  <g transform="translate(75.13,15.3)" stroke="#1074BD">
    <path fill="none" d="M-3.62,0 L3.62,0 " class="primitive"/>
  </g>
  <g transform="translate(54.89,13.92)" stroke="#1074BD">
    <path fill="none" d="M-16.62,0 L16.62,0 " class="primitive"/>
  </g>
  <g transform="translate(71.51,13.92)" stroke="#1074BD">
    <path fill="none" d="M0,1.38 L0,-1.38 " class="primitive"/>
  </g>
  <g transform="translate(29,11.85)" stroke="#BE0BE0">
    <path fill="none" d="M-9.27,0 L9.27,0 " class="primitive"/>
  </g>
  <g transform="translate(38.27,11.85)" stroke="#BE0BE0">
    <path fill="none" d="M0,2.07 L0,-2.07 " class="primitive"/>
  </g>
  <g transform="translate(17.41,9.44)" stroke="#BE0BE0">
    <path fill="none" d="M-2.31,0 L2.31,0 " class="primitive"/>
  </g>
  <g transform="translate(19.72,9.44)" stroke="#BE0BE0">
    <path fill="none" d="M0,2.41 L0,-2.41 " class="primitive"/>
  </g>
  <g transform="translate(13.52,6.86)" stroke="#1074BD">
    <path fill="none" d="M-1.58,0 L1.58,0 " class="primitive"/>
  </g>
  <g transform="translate(15.1,6.86)" stroke="#1074BD">
    <path fill="none" d="M0,2.58 L0,-2.58 " class="primitive"/>
  </g>
  <g transform="translate(18.44,18.06)" stroke="#BE0BE0">
    <path fill="none" d="M-1.21,0 L1.21,0 " class="primitive"/>
  </g>
  <g transform="translate(32.9,20.81)" stroke="#BE0BE0">
    <path fill="none" d="M-11.55,0 L11.55,0 " class="primitive"/>
  </g>
  <g transform="translate(23.09,23.57)" stroke="#1074BD">
    <path fill="none" d="M-1.75,0 L1.75,0 " class="primitive"/>
  </g>
  <g transform="translate(19.29,22.19)" stroke="#BE0BE0">
    <path fill="none" d="M-2.06,0 L2.06,0 " class="primitive"/>
  </g>
  <g transform="translate(21.35,22.19)" stroke="#BE0BE0">
    <path fill="none" d="M0,1.38 L0,-1.38 " class="primitive"/>
  </g>
  <g transform="translate(14.73,20.12)" stroke="#BE0BE0">
    <path fill="none" d="M-2.5,0 L2.5,0 " class="primitive"/>
  </g>
  <g transform="translate(17.23,20.12)" stroke="#BE0BE0">
    <path fill="none" d="M0,2.07 L0,-2.07 " class="primitive"/>
  </g>
  <g transform="translate(28.26,26.33)" stroke="#1074BD">
    <path fill="none" d="M-0.98,0 L0.98,0 " class="primitive"/>
  </g>
  <g transform="translate(28.46,29.08)" stroke="#BE0BE0">
    <path fill="none" d="M-0.06,0 L0.06,0 " class="primitive"/>
  </g>
  <g transform="translate(31.61,31.84)" stroke="#1074BD">
    <path fill="none" d="M-3.2,0 L3.2,0 " class="primitive"/>
  </g>
  <g transform="translate(27.84,30.46)" stroke="#1074BD">
    <path fill="none" d="M-0.56,0 L0.56,0 " class="primitive"/>
  </g>
  <g transform="translate(28.4,30.46)" stroke="#1074BD">
    <path fill="none" d="M0,1.38 L0,-1.38 " class="primitive"/>
  </g>
  <g transform="translate(24.05,28.39)" stroke="#1074BD">
    <path fill="none" d="M-3.23,0 L3.23,0 " class="primitive"/>
  </g>
  <g transform="translate(27.28,28.39)" stroke="#1074BD">
    <path fill="none" d="M0,2.07 L0,-2.07 " class="primitive"/>
  </g>
  <g transform="translate(27.57,34.6)" stroke="#BE0BE0">
    <path fill="none" d="M-3.43,0 L3.43,0 " class="primitive"/>
  </g>
  <g transform="translate(59.34,37.35)" stroke="#1074BD">
    <path fill="none" d="M-7.02,0 L7.02,0 " class="primitive"/>
  </g>
  <g transform="translate(66.16,40.11)" stroke="#BE0BE0">
    <path fill="none" d="M-3.21,0 L3.21,0 " class="primitive"/>
  </g>
  <g transform="translate(63.37,42.87)" stroke="#1074BD">
    <path fill="none" d="M-0.43,0 L0.43,0 " class="primitive"/>
  </g>
  <g transform="translate(57.64,41.49)" stroke="#1074BD">
    <path fill="none" d="M-5.31,0 L5.31,0 " class="primitive"/>
  </g>
  <g transform="translate(62.95,41.49)" stroke="#1074BD">
    <path fill="none" d="M0,1.38 L0,-1.38 " class="primitive"/>
  </g>
  <g transform="translate(38.23,39.42)" stroke="#BE0BE0">
    <path fill="none" d="M-14.1,0 L14.1,0 " class="primitive"/>
  </g>
  <g transform="translate(52.33,39.42)" stroke="#BE0BE0">
    <path fill="none" d="M0,2.07 L0,-2.07 " class="primitive"/>
  </g>
  <g transform="translate(22.48,37.01)" stroke="#1074BD">
    <path fill="none" d="M-1.66,0 L1.66,0 " class="primitive"/>
  </g>
  <g transform="translate(24.13,37.01)" stroke="#1074BD">
    <path fill="none" d="M0,2.41 L0,-2.41 " class="primitive"/>
  </g>
  <g transform="translate(16.53,32.7)" stroke="#1074BD">
    <path fill="none" d="M-4.3,0 L4.3,0 " class="primitive"/>
  </g>
  <g transform="translate(20.82,32.7)" stroke="#1074BD">
    <path fill="none" d="M0,4.31 L0,-4.31 " class="primitive"/>
  </g>
  <g transform="translate(12.08,26.41)" stroke="#BE0BE0">
    <path fill="none" d="M-0.15,0 L0.15,0 " class="primitive"/>
  </g>
  <g transform="translate(12.23,26.41)" stroke="#BE0BE0">
    <path fill="none" d="M0,6.29 L0,-6.29 " class="primitive"/>
  </g>
  <g transform="translate(7.84,16.63)" stroke="#BE0BE0">
    <path fill="none" d="M-4.09,0 L4.09,0 " class="primitive"/>
  </g>
  <g transform="translate(11.94,16.63)" stroke="#BE0BE0">
    <path fill="none" d="M0,9.78 L0,-9.78 " class="primitive"/>
  </g>
  <g transform="translate(5.91,45.62)" stroke="#BE0BE0">
    <path fill="none" d="M-0.45,0 L0.45,0 " class="primitive"/>
  </g>
  <g transform="translate(29.11,48.38)" stroke="#1074BD">
    <path fill="none" d="M-17.09,0 L17.09,0 " class="primitive"/>
  </g>
  <g transform="translate(13.88,51.13)" stroke="#1074BD">
    <path fill="none" d="M-1.56,0 L1.56,0 " class="primitive"/>
  </g>
  <g transform="translate(15.05,53.89)" stroke="#1074BD">
    <path fill="none" d="M-2.73,0 L2.73,0 " class="primitive"/>
  </g>
  <g transform="translate(12.17,52.51)" stroke="#BE0BE0">
    <path fill="none" d="M-0.15,0 L0.15,0 " class="primitive"/>
  </g>
  <g transform="translate(12.32,52.51)" stroke="#BE0BE0">
    <path fill="none" d="M0,1.38 L0,-1.38 " class="primitive"/>
  </g>
  <g transform="translate(11.17,50.45)" stroke="#1074BD">
    <path fill="none" d="M-0.85,0 L0.85,0 " class="primitive"/>
  </g>
  <g transform="translate(12.02,50.45)" stroke="#1074BD">
    <path fill="none" d="M0,2.07 L0,-2.07 " class="primitive"/>
  </g>
  <g stroke-opacity="1" stroke-width="0.3" id="img-29b4c979-2">
    <g transform="translate(12.02,50.45)" stroke="#1074BD">
      <path fill="none" d="M0,2.07 L0,-2.07 " class="primitive"/>
    </g>
    <g transform="translate(38.36,56.65)" stroke="#BE0BE0">
      <path fill="none" d="M-23.45,0 L23.45,0 " class="primitive"/>
    </g>
    <g transform="translate(22.63,59.4)" stroke="#1074BD">
      <path fill="none" d="M-3.84,0 L3.84,0 " class="primitive"/>
    </g>
    <g transform="translate(32.68,62.16)" stroke="#BE0BE0">
      <path fill="none" d="M-13.89,0 L13.89,0 " class="primitive"/>
    </g>
    <g transform="translate(16.85,60.78)" stroke="#BE0BE0">
      <path fill="none" d="M-1.94,0 L1.94,0 " class="primitive"/>
    </g>
    <g transform="translate(18.79,60.78)" stroke="#BE0BE0">
      <path fill="none" d="M0,1.38 L0,-1.38 " class="primitive"/>
    </g>
    <g transform="translate(12.61,58.72)" stroke="#BE0BE0">
      <path fill="none" d="M-2.29,0 L2.29,0 " class="primitive"/>
    </g>
    <g transform="translate(14.9,58.72)" stroke="#BE0BE0">
      <path fill="none" d="M0,2.07 L0,-2.07 " class="primitive"/>
    </g>
    <g transform="translate(7.89,54.58)" stroke="#BE0BE0">
      <path fill="none" d="M-2.43,0 L2.43,0 " class="primitive"/>
    </g>
    <g transform="translate(10.32,54.58)" stroke="#BE0BE0">
      <path fill="none" d="M0,4.13 L0,-4.13 " class="primitive"/>
    </g>
    <g transform="translate(4.61,50.1)" stroke="#BE0BE0">
      <path fill="none" d="M-0.86,0 L0.86,0 " class="primitive"/>
    </g>
    <g transform="translate(5.46,50.1)" stroke="#BE0BE0">
      <path fill="none" d="M0,4.48 L0,-4.48 " class="primitive"/>
    </g>
    <g transform="translate(29.89,64.92)" stroke="#1074BD">
      <path fill="none" d="M-3.39,0 L3.39,0 " class="primitive"/>
    </g>
    <g transform="translate(52.39,67.67)" stroke="#1074BD">
      <path fill="none" d="M-1.98,0 L1.98,0 " class="primitive"/>
    </g>
    <g transform="translate(58.11,70.43)" stroke="#BE0BE0">
      <path fill="none" d="M-7.43,0 L7.43,0 " class="primitive"/>
    </g>
    <g transform="translate(53.18,73.19)" stroke="#1074BD">
      <path fill="none" d="M-2.5,0 L2.5,0 " class="primitive"/>
    </g>
    <g transform="translate(50.55,71.81)" stroke="#BE0BE0">
      <path fill="none" d="M-0.13,0 L0.13,0 " class="primitive"/>
    </g>
    <g transform="translate(50.68,71.81)" stroke="#BE0BE0">
      <path fill="none" d="M0,1.38 L0,-1.38 " class="primitive"/>
    </g>
    <g transform="translate(38.46,69.74)" stroke="#BE0BE0">
      <path fill="none" d="M-11.96,0 L11.96,0 " class="primitive"/>
    </g>
    <g transform="translate(50.42,69.74)" stroke="#BE0BE0">
      <path fill="none" d="M0,2.07 L0,-2.07 " class="primitive"/>
    </g>
    <g transform="translate(17.53,67.33)" stroke="#1074BD">
      <path fill="none" d="M-8.97,0 L8.97,0 " class="primitive"/>
    </g>
    <g transform="translate(26.5,67.33)" stroke="#1074BD">
      <path fill="none" d="M0,2.41 L0,-2.41 " class="primitive"/>
    </g>
    <g transform="translate(20.1,75.94)" stroke="#1074BD">
      <path fill="none" d="M-6.3,0 L6.3,0 " class="primitive"/>
    </g>
    <g transform="translate(29.02,78.7)" stroke="#1074BD">
      <path fill="none" d="M-14.81,0 L14.81,0 " class="primitive"/>
    </g>
    <g transform="translate(24.9,81.46)" stroke="#1074BD">
      <path fill="none" d="M-10.69,0 L10.69,0 " class="primitive"/>
    </g>
    <g transform="translate(14.01,80.08)" stroke="#1074BD">
      <path fill="none" d="M-0.21,0 L0.21,0 " class="primitive"/>
    </g>
    <g transform="translate(14.22,80.08)" stroke="#1074BD">
      <path fill="none" d="M0,1.38 L0,-1.38 " class="primitive"/>
    </g>
    <g transform="translate(13.09,78.01)" stroke="#BE0BE0">
      <path fill="none" d="M-0.71,0 L0.71,0 " class="primitive"/>
    </g>
    <g transform="translate(13.8,78.01)" stroke="#BE0BE0">
      <path fill="none" d="M0,2.07 L0,-2.07 " class="primitive"/>
    </g>
    <g transform="translate(16.7,84.21)" stroke="#1074BD">
      <path fill="none" d="M-3.51,0 L3.51,0 " class="primitive"/>
    </g>
    <g transform="translate(15.55,86.97)" stroke="#1074BD">
      <path fill="none" d="M-0.15,0 L0.15,0 " class="primitive"/>
    </g>
    <g transform="translate(17.39,89.73)" stroke="#1074BD">
      <path fill="none" d="M-2,0 L2,0 " class="primitive"/>
    </g>
    <g transform="translate(14.29,88.35)" stroke="#1074BD">
      <path fill="none" d="M-1.1,0 L1.1,0 " class="primitive"/>
    </g>
    <g transform="translate(15.4,88.35)" stroke="#1074BD">
      <path fill="none" d="M0,1.38 L0,-1.38 " class="primitive"/>
    </g>
    <g transform="translate(12.79,86.28)" stroke="#BE0BE0">
      <path fill="none" d="M-0.4,0 L0.4,0 " class="primitive"/>
    </g>
    <g transform="translate(13.19,86.28)" stroke="#BE0BE0">
      <path fill="none" d="M0,2.07 L0,-2.07 " class="primitive"/>
    </g>
    <g transform="translate(10.48,82.15)" stroke="#1074BD">
      <path fill="none" d="M-1.91,0 L1.91,0 " class="primitive"/>
    </g>
    <g transform="translate(12.39,82.15)" stroke="#1074BD">
      <path fill="none" d="M0,4.13 L0,-4.13 " class="primitive"/>
    </g>
    <g transform="translate(6.16,74.74)" stroke="#1074BD">
      <path fill="none" d="M-2.41,0 L2.41,0 " class="primitive"/>
    </g>
    <g transform="translate(8.56,74.74)" stroke="#1074BD">
      <path fill="none" d="M0,7.41 L0,-7.41 " class="primitive"/>
    </g>
    <g transform="translate(3.75,62.42)" stroke="#000000">
      <path fill="none" d="M0,0 L0,0 " class="primitive"/>
    </g>
    <g transform="translate(3.75,62.42)" stroke="#000000">
      <path fill="none" d="M0,12.32 L0,-12.32 " class="primitive"/>
    </g>
    <g transform="translate(3.75,39.53)" stroke="#000000">
      <path fill="none" d="M0,0 L0,0 " class="primitive"/>
    </g>
    <g transform="translate(3.75,39.53)" stroke="#000000">
      <path fill="none" d="M0,22.89 L0,-22.89 " class="primitive"/>
    </g>
  </g>
</g>
<g fill-opacity="1" id="img-29b4c979-3">
  <g transform="translate(15.94,4.27)" fill="#1074BD">
    <circle cx="0" cy="0" r="0.75" class="primitive"/>
  </g>
  <g transform="translate(30.58,7.03)" fill="#BE0BE0">
    <circle cx="0" cy="0" r="0.75" class="primitive"/>
  </g>
  <g transform="translate(45.52,9.79)" fill="#BE0BE0">
    <circle cx="0" cy="0" r="0.75" class="primitive"/>
  </g>
  <g transform="translate(76.3,12.54)" fill="#BE0BE0">
    <circle cx="0" cy="0" r="0.75" class="primitive"/>
  </g>
  <g transform="translate(78.75,15.3)" fill="#1074BD">
    <circle cx="0" cy="0" r="0.75" class="primitive"/>
  </g>
  <g transform="translate(71.51,13.92)" fill="#1074BD">
    <circle cx="0" cy="0" r="0.75" class="primitive"/>
  </g>
  <g transform="translate(38.27,11.85)" fill="#BE0BE0">
    <circle cx="0" cy="0" r="0.75" class="primitive"/>
  </g>
  <g transform="translate(19.72,9.44)" fill="#BE0BE0">
    <circle cx="0" cy="0" r="0.75" class="primitive"/>
  </g>
  <g transform="translate(15.1,6.86)" fill="#1074BD">
    <circle cx="0" cy="0" r="0.75" class="primitive"/>
  </g>
  <g transform="translate(19.65,18.06)" fill="#BE0BE0">
    <circle cx="0" cy="0" r="0.75" class="primitive"/>
  </g>
  <g transform="translate(44.45,20.81)" fill="#BE0BE0">
    <circle cx="0" cy="0" r="0.75" class="primitive"/>
  </g>
  <g transform="translate(24.84,23.57)" fill="#1074BD">
    <circle cx="0" cy="0" r="0.75" class="primitive"/>
  </g>
  <g transform="translate(21.35,22.19)" fill="#BE0BE0">
    <circle cx="0" cy="0" r="0.75" class="primitive"/>
  </g>
  <g transform="translate(17.23,20.12)" fill="#BE0BE0">
    <circle cx="0" cy="0" r="0.75" class="primitive"/>
  </g>
  <g transform="translate(29.24,26.33)" fill="#1074BD">
    <circle cx="0" cy="0" r="0.75" class="primitive"/>
  </g>
  <g transform="translate(28.52,29.08)" fill="#BE0BE0">
    <circle cx="0" cy="0" r="0.75" class="primitive"/>
  </g>
  <g transform="translate(34.81,31.84)" fill="#1074BD">
    <circle cx="0" cy="0" r="0.75" class="primitive"/>
  </g>
  <g transform="translate(28.4,30.46)" fill="#1074BD">
    <circle cx="0" cy="0" r="0.75" class="primitive"/>
  </g>
  <g transform="translate(27.28,28.39)" fill="#1074BD">
    <circle cx="0" cy="0" r="0.75" class="primitive"/>
  </g>
  <g transform="translate(31,34.6)" fill="#BE0BE0">
    <circle cx="0" cy="0" r="0.75" class="primitive"/>
  </g>
  <g transform="translate(66.36,37.35)" fill="#1074BD">
    <circle cx="0" cy="0" r="0.75" class="primitive"/>
  </g>
  <g transform="translate(69.37,40.11)" fill="#BE0BE0">
    <circle cx="0" cy="0" r="0.75" class="primitive"/>
  </g>
  <g transform="translate(63.8,42.87)" fill="#1074BD">
    <circle cx="0" cy="0" r="0.75" class="primitive"/>
  </g>
  <g transform="translate(62.95,41.49)" fill="#1074BD">
    <circle cx="0" cy="0" r="0.75" class="primitive"/>
  </g>
  <g transform="translate(52.33,39.42)" fill="#BE0BE0">
    <circle cx="0" cy="0" r="0.75" class="primitive"/>
  </g>
  <g transform="translate(24.13,37.01)" fill="#1074BD">
    <circle cx="0" cy="0" r="0.75" class="primitive"/>
  </g>
  <g transform="translate(20.82,32.7)" fill="#1074BD">
    <circle cx="0" cy="0" r="0.75" class="primitive"/>
  </g>
  <g transform="translate(12.23,26.41)" fill="#BE0BE0">
    <circle cx="0" cy="0" r="0.75" class="primitive"/>
  </g>
  <g transform="translate(11.94,16.63)" fill="#BE0BE0">
    <circle cx="0" cy="0" r="0.75" class="primitive"/>
  </g>
  <g transform="translate(6.35,45.62)" fill="#BE0BE0">
    <circle cx="0" cy="0" r="0.75" class="primitive"/>
  </g>
  <g transform="translate(46.2,48.38)" fill="#1074BD">
    <circle cx="0" cy="0" r="0.75" class="primitive"/>
  </g>
  <g transform="translate(15.43,51.13)" fill="#1074BD">
    <circle cx="0" cy="0" r="0.75" class="primitive"/>
  </g>
  <g transform="translate(17.77,53.89)" fill="#1074BD">
    <circle cx="0" cy="0" r="0.75" class="primitive"/>
  </g>
  <g transform="translate(12.32,52.51)" fill="#BE0BE0">
    <circle cx="0" cy="0" r="0.75" class="primitive"/>
  </g>
  <g transform="translate(12.02,50.45)" fill="#1074BD">
    <circle cx="0" cy="0" r="0.75" class="primitive"/>
  </g>
  <g transform="translate(61.81,56.65)" fill="#BE0BE0">
    <circle cx="0" cy="0" r="0.75" class="primitive"/>
  </g>
  <g transform="translate(26.47,59.4)" fill="#1074BD">
    <circle cx="0" cy="0" r="0.75" class="primitive"/>
  </g>
  <g transform="translate(46.57,62.16)" fill="#BE0BE0">
    <circle cx="0" cy="0" r="0.75" class="primitive"/>
  </g>
  <g transform="translate(18.79,60.78)" fill="#BE0BE0">
    <circle cx="0" cy="0" r="0.75" class="primitive"/>
  </g>
  <g transform="translate(14.9,58.72)" fill="#BE0BE0">
    <circle cx="0" cy="0" r="0.75" class="primitive"/>
  </g>
  <g transform="translate(10.32,54.58)" fill="#BE0BE0">
    <circle cx="0" cy="0" r="0.75" class="primitive"/>
  </g>
  <g transform="translate(5.46,50.1)" fill="#BE0BE0">
    <circle cx="0" cy="0" r="0.75" class="primitive"/>
  </g>
  <g transform="translate(33.29,64.92)" fill="#1074BD">
    <circle cx="0" cy="0" r="0.75" class="primitive"/>
  </g>
  <g transform="translate(54.37,67.67)" fill="#1074BD">
    <circle cx="0" cy="0" r="0.75" class="primitive"/>
  </g>
  <g transform="translate(65.55,70.43)" fill="#BE0BE0">
    <circle cx="0" cy="0" r="0.75" class="primitive"/>
  </g>
  <g transform="translate(55.69,73.19)" fill="#1074BD">
    <circle cx="0" cy="0" r="0.75" class="primitive"/>
  </g>
  <g transform="translate(50.68,71.81)" fill="#BE0BE0">
    <circle cx="0" cy="0" r="0.75" class="primitive"/>
  </g>
  <g transform="translate(50.42,69.74)" fill="#BE0BE0">
    <circle cx="0" cy="0" r="0.75" class="primitive"/>
  </g>
  <g transform="translate(26.5,67.33)" fill="#1074BD">
    <circle cx="0" cy="0" r="0.75" class="primitive"/>
  </g>
  <g transform="translate(26.41,75.94)" fill="#1074BD">
    <circle cx="0" cy="0" r="0.75" class="primitive"/>
  </g>
  <g transform="translate(43.83,78.7)" fill="#1074BD">
    <circle cx="0" cy="0" r="0.75" class="primitive"/>
  </g>
  <g fill-opacity="1" id="img-29b4c979-4">
    <g transform="translate(43.83,78.7)" fill="#1074BD">
      <circle cx="0" cy="0" r="0.75" class="primitive"/>
    </g>
    <g transform="translate(35.59,81.46)" fill="#1074BD">
      <circle cx="0" cy="0" r="0.75" class="primitive"/>
    </g>
    <g transform="translate(14.22,80.08)" fill="#1074BD">
      <circle cx="0" cy="0" r="0.75" class="primitive"/>
    </g>
    <g transform="translate(13.8,78.01)" fill="#BE0BE0">
      <circle cx="0" cy="0" r="0.75" class="primitive"/>
    </g>
    <g transform="translate(20.21,84.21)" fill="#1074BD">
      <circle cx="0" cy="0" r="0.75" class="primitive"/>
    </g>
    <g transform="translate(15.7,86.97)" fill="#1074BD">
      <circle cx="0" cy="0" r="0.75" class="primitive"/>
    </g>
    <g transform="translate(19.39,89.73)" fill="#1074BD">
      <circle cx="0" cy="0" r="0.75" class="primitive"/>
    </g>
    <g transform="translate(15.4,88.35)" fill="#1074BD">
      <circle cx="0" cy="0" r="0.75" class="primitive"/>
    </g>
    <g transform="translate(13.19,86.28)" fill="#BE0BE0">
      <circle cx="0" cy="0" r="0.75" class="primitive"/>
    </g>
    <g transform="translate(12.39,82.15)" fill="#1074BD">
      <circle cx="0" cy="0" r="0.75" class="primitive"/>
    </g>
    <g transform="translate(8.56,74.74)" fill="#1074BD">
      <circle cx="0" cy="0" r="0.75" class="primitive"/>
    </g>
    <g transform="translate(3.75,62.42)" fill="#000000">
      <circle cx="0" cy="0" r="0.75" class="primitive"/>
    </g>
    <g transform="translate(3.75,39.53)" fill="#000000">
      <circle cx="0" cy="0" r="0.75" class="primitive"/>
    </g>
  </g>
</g>
<g stroke-opacity="1" fill-opacity="1" font-size="1.41" stroke-width="0.1" id="img-29b4c979-5">
  <g transform="translate(17.81,4.27)" stroke="#000000">
    <g class="primitive">
      <text dy="0.35em">N3</text>
    </g>
  </g>
  <g transform="translate(32.46,7.03)" stroke="#000000">
    <g class="primitive">
      <text dy="0.35em">N0</text>
    </g>
  </g>
  <g transform="translate(47.39,9.79)" stroke="#000000">
    <g class="primitive">
      <text dy="0.35em">N23</text>
    </g>
  </g>
  <g transform="translate(78.17,12.54)" stroke="#000000">
    <g class="primitive">
      <text dy="0.35em">N5</text>
    </g>
  </g>
  <g transform="translate(80.62,15.3)" stroke="#000000">
    <g class="primitive">
      <text dy="0.35em">N19</text>
    </g>
  </g>
  <g transform="translate(73.39,13.92)" stroke="#000000">
    <g class="primitive">
      <text dy="0.35em">N34</text>
    </g>
  </g>
  <g transform="translate(40.14,11.85)" stroke="#000000">
    <g class="primitive">
      <text dy="0.35em">N38</text>
    </g>
  </g>
  <g transform="translate(21.6,9.44)" stroke="#000000">
    <g class="primitive">
      <text dy="0.35em">N54</text>
    </g>
  </g>
  <g transform="translate(16.98,6.86)" stroke="#000000">
    <g class="primitive">
      <text dy="0.35em">N56</text>
    </g>
  </g>
  <g transform="translate(21.52,18.06)" stroke="#000000">
    <g class="primitive">
      <text dy="0.35em">N11</text>
    </g>
  </g>
  <g transform="translate(46.33,20.81)" stroke="#000000">
    <g class="primitive">
      <text dy="0.35em">N26</text>
    </g>
  </g>
  <g transform="translate(26.72,23.57)" stroke="#000000">
    <g class="primitive">
      <text dy="0.35em">N30</text>
    </g>
  </g>
  <g transform="translate(23.22,22.19)" stroke="#000000">
    <g class="primitive">
      <text dy="0.35em">N35</text>
    </g>
  </g>
  <g transform="translate(19.11,20.12)" stroke="#000000">
    <g class="primitive">
      <text dy="0.35em">N52</text>
    </g>
  </g>
  <g transform="translate(31.12,26.33)" stroke="#000000">
    <g class="primitive">
      <text dy="0.35em">N4</text>
    </g>
  </g>
  <g transform="translate(30.4,29.08)" stroke="#000000">
    <g class="primitive">
      <text dy="0.35em">N9</text>
    </g>
  </g>
  <g transform="translate(36.68,31.84)" stroke="#000000">
    <g class="primitive">
      <text dy="0.35em">N12</text>
    </g>
  </g>
  <g transform="translate(30.28,30.46)" stroke="#000000">
    <g class="primitive">
      <text dy="0.35em">N45</text>
    </g>
  </g>
  <g transform="translate(29.16,28.39)" stroke="#000000">
    <g class="primitive">
      <text dy="0.35em">N48</text>
    </g>
  </g>
  <g transform="translate(32.88,34.6)" stroke="#000000">
    <g class="primitive">
      <text dy="0.35em">N13</text>
    </g>
  </g>
  <g transform="translate(68.23,37.35)" stroke="#000000">
    <g class="primitive">
      <text dy="0.35em">N10</text>
    </g>
  </g>
  <g transform="translate(71.24,40.11)" stroke="#000000">
    <g class="primitive">
      <text dy="0.35em">N29</text>
    </g>
  </g>
  <g transform="translate(65.68,42.87)" stroke="#000000">
    <g class="primitive">
      <text dy="0.35em">N8</text>
    </g>
  </g>
  <g transform="translate(64.82,41.49)" stroke="#000000">
    <g class="primitive">
      <text dy="0.35em">N41</text>
    </g>
  </g>
  <g transform="translate(54.2,39.42)" stroke="#000000">
    <g class="primitive">
      <text dy="0.35em">N44</text>
    </g>
  </g>
  <g transform="translate(26.01,37.01)" stroke="#000000">
    <g class="primitive">
      <text dy="0.35em">N46</text>
    </g>
  </g>
  <g transform="translate(22.7,32.7)" stroke="#000000">
    <g class="primitive">
      <text dy="0.35em">N50</text>
    </g>
  </g>
  <g transform="translate(14.1,26.41)" stroke="#000000">
    <g class="primitive">
      <text dy="0.35em">N53</text>
    </g>
  </g>
  <g transform="translate(13.81,16.63)" stroke="#000000">
    <g class="primitive">
      <text dy="0.35em">N59</text>
    </g>
  </g>
  <g transform="translate(8.23,45.62)" stroke="#000000">
    <g class="primitive">
      <text dy="0.35em">N14</text>
    </g>
  </g>
  <g transform="translate(48.08,48.38)" stroke="#000000">
    <g class="primitive">
      <text dy="0.35em">N31</text>
    </g>
  </g>
  <g transform="translate(17.31,51.13)" stroke="#000000">
    <g class="primitive">
      <text dy="0.35em">N28</text>
    </g>
  </g>
  <g transform="translate(19.65,53.89)" stroke="#000000">
    <g class="primitive">
      <text dy="0.35em">N22</text>
    </g>
  </g>
  <g transform="translate(14.2,52.51)" stroke="#000000">
    <g class="primitive">
      <text dy="0.35em">N42</text>
    </g>
  </g>
  <g transform="translate(13.89,50.45)" stroke="#000000">
    <g class="primitive">
      <text dy="0.35em">N47</text>
    </g>
  </g>
  <g transform="translate(63.69,56.65)" stroke="#000000">
    <g class="primitive">
      <text dy="0.35em">N24</text>
    </g>
  </g>
  <g transform="translate(28.35,59.4)" stroke="#000000">
    <g class="primitive">
      <text dy="0.35em">N25</text>
    </g>
  </g>
  <g transform="translate(48.45,62.16)" stroke="#000000">
    <g class="primitive">
      <text dy="0.35em">N21</text>
    </g>
  </g>
  <g transform="translate(20.66,60.78)" stroke="#000000">
    <g class="primitive">
      <text dy="0.35em">N32</text>
    </g>
  </g>
  <g transform="translate(16.78,58.72)" stroke="#000000">
    <g class="primitive">
      <text dy="0.35em">N33</text>
    </g>
  </g>
  <g transform="translate(12.2,54.58)" stroke="#000000">
    <g class="primitive">
      <text dy="0.35em">N49</text>
    </g>
  </g>
  <g transform="translate(7.34,50.1)" stroke="#000000">
    <g class="primitive">
      <text dy="0.35em">N51</text>
    </g>
  </g>
  <g transform="translate(35.16,64.92)" stroke="#000000">
    <g class="primitive">
      <text dy="0.35em">N1</text>
    </g>
  </g>
  <g transform="translate(56.24,67.67)" stroke="#000000">
    <g class="primitive">
      <text dy="0.35em">N18</text>
    </g>
  </g>
  <g transform="translate(67.42,70.43)" stroke="#000000">
    <g class="primitive">
      <text dy="0.35em">N15</text>
    </g>
  </g>
  <g transform="translate(57.56,73.19)" stroke="#000000">
    <g class="primitive">
      <text dy="0.35em">N2</text>
    </g>
  </g>
  <g transform="translate(52.56,71.81)" stroke="#000000">
    <g class="primitive">
      <text dy="0.35em">N55</text>
    </g>
  </g>
  <g transform="translate(52.29,69.74)" stroke="#000000">
    <g class="primitive">
      <text dy="0.35em">N57</text>
    </g>
  </g>
  <g transform="translate(28.37,67.33)" stroke="#000000">
    <g class="primitive">
      <text dy="0.35em">N58</text>
    </g>
  </g>
  <g transform="translate(28.28,75.94)" stroke="#000000">
    <g class="primitive">
      <text dy="0.35em">N16</text>
    </g>
  </g>
  <g transform="translate(45.71,78.7)" stroke="#000000">
    <g class="primitive">
      <text dy="0.35em">N17</text>
    </g>
  </g>
  <g stroke-opacity="1" fill-opacity="1" font-size="1.41" stroke-width="0.1" id="img-29b4c979-6">
    <g transform="translate(45.71,78.7)" stroke="#000000">
      <g class="primitive">
        <text dy="0.35em">N17</text>
      </g>
    </g>
    <g transform="translate(37.47,81.46)" stroke="#000000">
      <g class="primitive">
        <text dy="0.35em">N20</text>
      </g>
    </g>
    <g transform="translate(16.09,80.08)" stroke="#000000">
      <g class="primitive">
        <text dy="0.35em">N39</text>
      </g>
    </g>
    <g transform="translate(15.67,78.01)" stroke="#000000">
      <g class="primitive">
        <text dy="0.35em">N40</text>
      </g>
    </g>
    <g transform="translate(22.09,84.21)" stroke="#000000">
      <g class="primitive">
        <text dy="0.35em">N6</text>
      </g>
    </g>
    <g transform="translate(17.58,86.97)" stroke="#000000">
      <g class="primitive">
        <text dy="0.35em">N27</text>
      </g>
    </g>
    <g transform="translate(21.27,89.73)" stroke="#000000">
      <g class="primitive">
        <text dy="0.35em">N7</text>
      </g>
    </g>
    <g transform="translate(17.27,88.35)" stroke="#000000">
      <g class="primitive">
        <text dy="0.35em">N36</text>
      </g>
    </g>
    <g transform="translate(15.06,86.28)" stroke="#000000">
      <g class="primitive">
        <text dy="0.35em">N37</text>
      </g>
    </g>
    <g transform="translate(14.26,82.15)" stroke="#000000">
      <g class="primitive">
        <text dy="0.35em">N43</text>
      </g>
    </g>
    <g transform="translate(10.44,74.74)" stroke="#000000">
      <g class="primitive">
        <text dy="0.35em">N60</text>
      </g>
    </g>
    <g transform="translate(5.63,62.42)" stroke="#000000">
      <g class="primitive">
        <text dy="0.35em"></text>
      </g>
    </g>
    <g transform="translate(5.63,39.53)" stroke="#000000">
      <g class="primitive">
        <text dy="0.35em"></text>
      </g>
    </g>
  </g>
</g>
</svg>
