<?xml version="1.0" encoding="UTF-8"?>
<svg xmlns="http://www.w3.org/2000/svg"
     xmlns:xlink="http://www.w3.org/1999/xlink"
     version="1.2"
     width="150mm" height="112mm" viewBox="0 0 150 112"
     stroke="none"
     fill="#000000"
     stroke-width="0.3"
     font-size="3.88"
>
<defs>
  <marker id="arrow" markerWidth="15" markerHeight="7" refX="5" refY="3.5" orient="auto" markerUnits="strokeWidth">
    <path d="M0,0 L15,3.5 L0,7 z" stroke="context-stroke" fill="context-stroke"/>
  </marker>
</defs>
<g stroke-opacity="1" stroke-width="0.3" id="img-29b4c979-1">
  <g transform="translate(4.12,5.09)" stroke="#9E9970">
    <path fill="none" d="M-0.37,0 L0.37,0 " class="primitive"/>
  </g>
  <g transform="translate(25.95,7.64)" stroke="#7D2C6A">
    <path fill="none" d="M-2.43,0 L2.43,0 " class="primitive"/>
  </g>
  <g transform="translate(26.4,10.18)" stroke="#9E9970">
    <path fill="none" d="M-2.88,0 L2.88,0 " class="primitive"/>
  </g>
  <g transform="translate(22.24,8.91)" stroke="#7D2C6A">
    <path fill="none" d="M-1.28,0 L1.28,0 " class="primitive"/>
  </g>
  <g transform="translate(23.52,8.91)" stroke="#7D2C6A">
    <path fill="none" d="M0,1.27 L0,-1.27 " class="primitive"/>
  </g>
  <g transform="translate(31.65,12.73)" stroke="#9E9970">
    <path fill="none" d="M-2.66,0 L2.66,0 " class="primitive"/>
  </g>
  <g transform="translate(32.37,15.27)" stroke="#7D2C6A">
    <path fill="none" d="M-3.38,0 L3.38,0 " class="primitive"/>
  </g>
  <g transform="translate(24.97,14)" stroke="#9E9970">
    <path fill="none" d="M-4.02,0 L4.02,0 " class="primitive"/>
  </g>
  <g transform="translate(28.99,14)" stroke="#9E9970">
    <path fill="none" d="M0,1.27 L0,-1.27 " class="primitive"/>
  </g>
  <g transform="translate(18.06,11.45)" stroke="#7D2C6A">
    <path fill="none" d="M-2.89,0 L2.89,0 " class="primitive"/>
  </g>
  <g transform="translate(20.95,11.45)" stroke="#7D2C6A">
    <path fill="none" d="M0,2.55 L0,-2.55 " class="primitive"/>
  </g>
  <g transform="translate(41.58,17.82)" stroke="#7D2C6A">
    <path fill="none" d="M-3.09,0 L3.09,0 " class="primitive"/>
  </g>
  <g transform="translate(38.85,20.36)" stroke="#7D2C6A">
    <path fill="none" d="M-0.36,0 L0.36,0 " class="primitive"/>
  </g>
  <g transform="translate(34.56,19.09)" stroke="#7D2C6A">
    <path fill="none" d="M-3.93,0 L3.93,0 " class="primitive"/>
  </g>
  <g transform="translate(38.49,19.09)" stroke="#7D2C6A">
    <path fill="none" d="M0,1.27 L0,-1.27 " class="primitive"/>
  </g>
  <g transform="translate(41.34,22.91)" stroke="#9E9970">
    <path fill="none" d="M-0.44,0 L0.44,0 " class="primitive"/>
  </g>
  <g transform="translate(52.92,25.45)" stroke="#7D2C6A">
    <path fill="none" d="M-12.02,0 L12.02,0 " class="primitive"/>
  </g>
  <g transform="translate(35.77,24.18)" stroke="#9E9970">
    <path fill="none" d="M-5.13,0 L5.13,0 " class="primitive"/>
  </g>
  <g transform="translate(40.9,24.18)" stroke="#9E9970">
    <path fill="none" d="M0,1.27 L0,-1.27 " class="primitive"/>
  </g>
  <g transform="translate(22.9,21.64)" stroke="#7D2C6A">
    <path fill="none" d="M-7.73,0 L7.73,0 " class="primitive"/>
  </g>
  <g transform="translate(30.64,21.64)" stroke="#7D2C6A">
    <path fill="none" d="M0,2.55 L0,-2.55 " class="primitive"/>
  </g>
  <g transform="translate(15.07,16.55)" stroke="#9E9970">
    <path fill="none" d="M-0.11,0 L0.11,0 " class="primitive"/>
  </g>
  <g transform="translate(15.17,16.55)" stroke="#9E9970">
    <path fill="none" d="M0,5.09 L0,-5.09 " class="primitive"/>
  </g>
  <g transform="translate(40.81,28)" stroke="#7D2C6A">
    <path fill="none" d="M-1.02,0 L1.02,0 " class="primitive"/>
  </g>
  <g transform="translate(47.42,30.55)" stroke="#7D2C6A">
    <path fill="none" d="M-7.63,0 L7.63,0 " class="primitive"/>
  </g>
  <g transform="translate(38.68,29.27)" stroke="#7D2C6A">
    <path fill="none" d="M-1.11,0 L1.11,0 " class="primitive"/>
  </g>
  <g transform="translate(39.79,29.27)" stroke="#7D2C6A">
    <path fill="none" d="M0,1.27 L0,-1.27 " class="primitive"/>
  </g>
  <g transform="translate(68.19,33.09)" stroke="#9E9970">
    <path fill="none" d="M-10.56,0 L10.56,0 " class="primitive"/>
  </g>
  <g transform="translate(67.19,35.64)" stroke="#7D2C6A">
    <path fill="none" d="M-9.56,0 L9.56,0 " class="primitive"/>
  </g>
  <g transform="translate(47.6,34.36)" stroke="#9E9970">
    <path fill="none" d="M-10.03,0 L10.03,0 " class="primitive"/>
  </g>
  <g transform="translate(57.63,34.36)" stroke="#9E9970">
    <path fill="none" d="M0,1.27 L0,-1.27 " class="primitive"/>
  </g>
  <g transform="translate(29.22,31.82)" stroke="#7D2C6A">
    <path fill="none" d="M-8.35,0 L8.35,0 " class="primitive"/>
  </g>
  <g transform="translate(37.56,31.82)" stroke="#7D2C6A">
    <path fill="none" d="M0,2.55 L0,-2.55 " class="primitive"/>
  </g>
  <g transform="translate(31.61,38.18)" stroke="#7D2C6A">
    <path fill="none" d="M-4.48,0 L4.48,0 " class="primitive"/>
  </g>
  <g transform="translate(29.57,40.73)" stroke="#7D2C6A">
    <path fill="none" d="M-2.44,0 L2.44,0 " class="primitive"/>
  </g>
  <g transform="translate(26.16,39.45)" stroke="#7D2C6A">
    <path fill="none" d="M-0.97,0 L0.97,0 " class="primitive"/>
  </g>
  <g transform="translate(27.13,39.45)" stroke="#7D2C6A">
    <path fill="none" d="M0,1.27 L0,-1.27 " class="primitive"/>
  </g>
  <g transform="translate(25.91,43.27)" stroke="#7D2C6A">
    <path fill="none" d="M-0.25,0 L0.25,0 " class="primitive"/>
  </g>
  <g transform="translate(25.78,45.82)" stroke="#9E9970">
    <path fill="none" d="M-0.12,0 L0.12,0 " class="primitive"/>
  </g>
  <g transform="translate(25.43,44.55)" stroke="#7D2C6A">
    <path fill="none" d="M-0.23,0 L0.23,0 " class="primitive"/>
  </g>
  <g transform="translate(25.66,44.55)" stroke="#7D2C6A">
    <path fill="none" d="M0,1.27 L0,-1.27 " class="primitive"/>
  </g>
  <g transform="translate(23.03,42)" stroke="#7D2C6A">
    <path fill="none" d="M-2.16,0 L2.16,0 " class="primitive"/>
  </g>
  <g transform="translate(25.2,42)" stroke="#7D2C6A">
    <path fill="none" d="M0,2.55 L0,-2.55 " class="primitive"/>
  </g>
  <g transform="translate(17.92,36.91)" stroke="#7D2C6A">
    <path fill="none" d="M-2.96,0 L2.96,0 " class="primitive"/>
  </g>
  <g transform="translate(20.87,36.91)" stroke="#7D2C6A">
    <path fill="none" d="M0,5.09 L0,-5.09 " class="primitive"/>
  </g>
  <g transform="translate(9.36,26.73)" stroke="#7D2C6A">
    <path fill="none" d="M-5.61,0 L5.61,0 " class="primitive"/>
  </g>
  <g transform="translate(14.96,26.73)" stroke="#7D2C6A">
    <path fill="none" d="M0,10.18 L0,-10.18 " class="primitive"/>
  </g>
  <g transform="translate(41,48.36)" stroke="#7D2C6A">
    <path fill="none" d="M-0.04,0 L0.04,0 " class="primitive"/>
  </g>
  <g transform="translate(44.54,50.91)" stroke="#7D2C6A">
    <path fill="none" d="M-3.58,0 L3.58,0 " class="primitive"/>
  </g>
  <g transform="translate(35.81,49.64)" stroke="#7D2C6A">
    <path fill="none" d="M-5.15,0 L5.15,0 " class="primitive"/>
  </g>
  <g transform="translate(40.96,49.64)" stroke="#7D2C6A">
    <path fill="none" d="M0,1.27 L0,-1.27 " class="primitive"/>
  </g>
  <g stroke-opacity="1" stroke-width="0.3" id="img-29b4c979-2">
    <g transform="translate(16.64,92.91)" stroke="#9E9970">
      <path fill="none" d="M0,2.55 L0,-2.55 " class="primitive"/>
    </g>
    <g transform="translate(36.38,99.27)" stroke="#7D2C6A">
      <path fill="none" d="M-0.62,0 L0.62,0 " class="primitive"/>
    </g>
    <g transform="translate(35.99,101.82)" stroke="#7D2C6A">
      <path fill="none" d="M-0.23,0 L0.23,0 " class="primitive"/>
    </g>
    <g transform="translate(32.1,100.55)" stroke="#7D2C6A">
      <path fill="none" d="M-3.65,0 L3.65,0 " class="primitive"/>
    </g>
    <g transform="translate(35.76,100.55)" stroke="#7D2C6A">
      <path fill="none" d="M0,1.27 L0,-1.27 " class="primitive"/>
    </g>
    <g transform="translate(38.36,104.36)" stroke="#7D2C6A">
      <path fill="none" d="M-9.03,0 L9.03,0 " class="primitive"/>
    </g>
    <g transform="translate(32.13,106.91)" stroke="#9E9970">
      <path fill="none" d="M-2.8,0 L2.8,0 " class="primitive"/>
    </g>
    <g transform="translate(28.89,105.64)" stroke="#9E9970">
      <path fill="none" d="M-0.44,0 L0.44,0 " class="primitive"/>
    </g>
    <g transform="translate(29.33,105.64)" stroke="#9E9970">
      <path fill="none" d="M0,1.27 L0,-1.27 " class="primitive"/>
    </g>
    <g transform="translate(22.12,103.09)" stroke="#9E9970">
      <path fill="none" d="M-6.34,0 L6.34,0 " class="primitive"/>
    </g>
    <g transform="translate(28.45,103.09)" stroke="#9E9970">
      <path fill="none" d="M0,2.55 L0,-2.55 " class="primitive"/>
    </g>
    <g transform="translate(13.26,98)" stroke="#9E9970">
      <path fill="none" d="M-2.52,0 L2.52,0 " class="primitive"/>
    </g>
    <g transform="translate(15.78,98)" stroke="#9E9970">
      <path fill="none" d="M0,5.09 L0,-5.09 " class="primitive"/>
    </g>
    <g transform="translate(7.75,87.82)" stroke="#7D2C6A">
      <path fill="none" d="M-2.99,0 L2.99,0 " class="primitive"/>
    </g>
    <g transform="translate(10.74,87.82)" stroke="#7D2C6A">
      <path fill="none" d="M0,10.18 L0,-10.18 " class="primitive"/>
    </g>
    <g transform="translate(4.26,72.55)" stroke="#9E9970">
      <path fill="none" d="M-0.51,0 L0.51,0 " class="primitive"/>
    </g>
    <g transform="translate(4.76,72.55)" stroke="#9E9970">
      <path fill="none" d="M0,15.27 L0,-15.27 " class="primitive"/>
    </g>
    <g transform="translate(3.75,49.64)" stroke="#000000">
      <path fill="none" d="M0,0 L0,0 " class="primitive"/>
    </g>
    <g transform="translate(3.75,49.64)" stroke="#000000">
      <path fill="none" d="M0,22.91 L0,-22.91 " class="primitive"/>
    </g>
    <g transform="translate(3.75,27.36)" stroke="#000000">
      <path fill="none" d="M0,0 L0,0 " class="primitive"/>
    </g>
    <g transform="translate(3.75,27.36)" stroke="#000000">
      <path fill="none" d="M0,22.27 L0,-22.27 " class="primitive"/>
    </g>
  </g>
  <g stroke-opacity="1" stroke-width="0.3" id="img-29b4c979-3">
    <g transform="translate(40.96,49.64)" stroke="#7D2C6A">
      <path fill="none" d="M0,1.27 L0,-1.27 " class="primitive"/>
    </g>
    <g transform="translate(42.03,53.45)" stroke="#7D2C6A">
      <path fill="none" d="M-7.87,0 L7.87,0 " class="primitive"/>
    </g>
    <g transform="translate(35.75,56)" stroke="#7D2C6A">
      <path fill="none" d="M-1.59,0 L1.59,0 " class="primitive"/>
    </g>
    <g transform="translate(32.41,54.73)" stroke="#7D2C6A">
      <path fill="none" d="M-1.75,0 L1.75,0 " class="primitive"/>
    </g>
    <g transform="translate(34.16,54.73)" stroke="#7D2C6A">
      <path fill="none" d="M0,1.27 L0,-1.27 " class="primitive"/>
    </g>
    <g transform="translate(30.14,52.18)" stroke="#9E9970">
      <path fill="none" d="M-0.52,0 L0.52,0 " class="primitive"/>
    </g>
    <g transform="translate(30.66,52.18)" stroke="#9E9970">
      <path fill="none" d="M0,2.55 L0,-2.55 " class="primitive"/>
    </g>
    <g transform="translate(63.72,58.55)" stroke="#9E9970">
      <path fill="none" d="M-1.9,0 L1.9,0 " class="primitive"/>
    </g>
    <g transform="translate(63.83,61.09)" stroke="#7D2C6A">
      <path fill="none" d="M-2.01,0 L2.01,0 " class="primitive"/>
    </g>
    <g transform="translate(54.22,59.82)" stroke="#9E9970">
      <path fill="none" d="M-7.6,0 L7.6,0 " class="primitive"/>
    </g>
    <g transform="translate(61.82,59.82)" stroke="#9E9970">
      <path fill="none" d="M0,1.27 L0,-1.27 " class="primitive"/>
    </g>
    <g transform="translate(55.99,63.64)" stroke="#7D2C6A">
      <path fill="none" d="M-8.28,0 L8.28,0 " class="primitive"/>
    </g>
    <g transform="translate(48.3,66.18)" stroke="#7D2C6A">
      <path fill="none" d="M-0.59,0 L0.59,0 " class="primitive"/>
    </g>
    <g transform="translate(47.16,64.91)" stroke="#7D2C6A">
      <path fill="none" d="M-0.55,0 L0.55,0 " class="primitive"/>
    </g>
    <g transform="translate(47.71,64.91)" stroke="#7D2C6A">
      <path fill="none" d="M0,1.27 L0,-1.27 " class="primitive"/>
    </g>
    <g transform="translate(38.12,62.36)" stroke="#7D2C6A">
      <path fill="none" d="M-8.5,0 L8.5,0 " class="primitive"/>
    </g>
    <g transform="translate(46.62,62.36)" stroke="#7D2C6A">
      <path fill="none" d="M0,2.55 L0,-2.55 " class="primitive"/>
    </g>
    <g transform="translate(17.19,57.27)" stroke="#9E9970">
      <path fill="none" d="M-12.43,0 L12.43,0 " class="primitive"/>
    </g>
    <g transform="translate(29.62,57.27)" stroke="#9E9970">
      <path fill="none" d="M0,5.09 L0,-5.09 " class="primitive"/>
    </g>
    <g transform="translate(20.81,68.73)" stroke="#9E9970">
      <path fill="none" d="M-4.2,0 L4.2,0 " class="primitive"/>
    </g>
    <g transform="translate(22.71,71.27)" stroke="#7D2C6A">
      <path fill="none" d="M-6.1,0 L6.1,0 " class="primitive"/>
    </g>
    <g transform="translate(16.37,70)" stroke="#7D2C6A">
      <path fill="none" d="M-0.24,0 L0.24,0 " class="primitive"/>
    </g>
    <g transform="translate(16.61,70)" stroke="#7D2C6A">
      <path fill="none" d="M0,1.27 L0,-1.27 " class="primitive"/>
    </g>
    <g transform="translate(20.16,73.82)" stroke="#7D2C6A">
      <path fill="none" d="M-2.94,0 L2.94,0 " class="primitive"/>
    </g>
    <g transform="translate(18.17,76.36)" stroke="#7D2C6A">
      <path fill="none" d="M-0.95,0 L0.95,0 " class="primitive"/>
    </g>
    <g transform="translate(16.68,75.09)" stroke="#7D2C6A">
      <path fill="none" d="M-0.55,0 L0.55,0 " class="primitive"/>
    </g>
    <g transform="translate(17.22,75.09)" stroke="#7D2C6A">
      <path fill="none" d="M0,1.27 L0,-1.27 " class="primitive"/>
    </g>
    <g transform="translate(14.86,72.55)" stroke="#9E9970">
      <path fill="none" d="M-1.27,0 L1.27,0 " class="primitive"/>
    </g>
    <g transform="translate(16.13,72.55)" stroke="#9E9970">
      <path fill="none" d="M0,2.55 L0,-2.55 " class="primitive"/>
    </g>
    <g transform="translate(35.03,78.91)" stroke="#7D2C6A">
      <path fill="none" d="M-0.84,0 L0.84,0 " class="primitive"/>
    </g>
    <g transform="translate(38.14,81.45)" stroke="#9E9970">
      <path fill="none" d="M-3.94,0 L3.94,0 " class="primitive"/>
    </g>
    <g transform="translate(28.45,80.18)" stroke="#9E9970">
      <path fill="none" d="M-5.75,0 L5.75,0 " class="primitive"/>
    </g>
    <g transform="translate(34.2,80.18)" stroke="#9E9970">
      <path fill="none" d="M0,1.27 L0,-1.27 " class="primitive"/>
    </g>
    <g transform="translate(31.75,84)" stroke="#9E9970">
      <path fill="none" d="M-1.25,0 L1.25,0 " class="primitive"/>
    </g>
    <g transform="translate(31.5,86.55)" stroke="#7D2C6A">
      <path fill="none" d="M-1.01,0 L1.01,0 " class="primitive"/>
    </g>
    <g transform="translate(26.6,85.27)" stroke="#9E9970">
      <path fill="none" d="M-3.9,0 L3.9,0 " class="primitive"/>
    </g>
    <g transform="translate(30.5,85.27)" stroke="#9E9970">
      <path fill="none" d="M0,1.27 L0,-1.27 " class="primitive"/>
    </g>
    <g transform="translate(18.14,82.73)" stroke="#7D2C6A">
      <path fill="none" d="M-4.55,0 L4.55,0 " class="primitive"/>
    </g>
    <g transform="translate(22.7,82.73)" stroke="#7D2C6A">
      <path fill="none" d="M0,2.55 L0,-2.55 " class="primitive"/>
    </g>
    <g transform="translate(12.16,77.64)" stroke="#7D2C6A">
      <path fill="none" d="M-1.43,0 L1.43,0 " class="primitive"/>
    </g>
    <g transform="translate(13.59,77.64)" stroke="#7D2C6A">
      <path fill="none" d="M0,5.09 L0,-5.09 " class="primitive"/>
    </g>
    <g transform="translate(41.97,89.09)" stroke="#7D2C6A">
      <path fill="none" d="M-18.46,0 L18.46,0 " class="primitive"/>
    </g>
    <g transform="translate(27.88,91.64)" stroke="#7D2C6A">
      <path fill="none" d="M-4.37,0 L4.37,0 " class="primitive"/>
    </g>
    <g transform="translate(20.08,90.36)" stroke="#7D2C6A">
      <path fill="none" d="M-3.44,0 L3.44,0 " class="primitive"/>
    </g>
    <g transform="translate(23.52,90.36)" stroke="#7D2C6A">
      <path fill="none" d="M0,1.27 L0,-1.27 " class="primitive"/>
    </g>
    <g transform="translate(59.65,94.18)" stroke="#7D2C6A">
      <path fill="none" d="M-0.21,0 L0.21,0 " class="primitive"/>
    </g>
    <g transform="translate(60.22,96.73)" stroke="#7D2C6A">
      <path fill="none" d="M-0.78,0 L0.78,0 " class="primitive"/>
    </g>
    <g transform="translate(38.04,95.45)" stroke="#7D2C6A">
      <path fill="none" d="M-21.4,0 L21.4,0 " class="primitive"/>
    </g>
    <g transform="translate(59.44,95.45)" stroke="#7D2C6A">
      <path fill="none" d="M0,1.27 L0,-1.27 " class="primitive"/>
    </g>
    <g transform="translate(16.21,92.91)" stroke="#9E9970">
      <path fill="none" d="M-0.43,0 L0.43,0 " class="primitive"/>
    </g>
    <g transform="translate(16.64,92.91)" stroke="#9E9970">
      <path fill="none" d="M0,2.55 L0,-2.55 " class="primitive"/>
    </g>
  </g>
</g>
<g fill-opacity="1" id="img-29b4c979-4">
  <g transform="translate(4.5,5.09)" fill="#9E9970">
    <circle cx="0" cy="0" r="0.75" class="primitive"/>
  </g>
  <g transform="translate(28.37,7.64)" fill="#7D2C6A">
    <circle cx="0" cy="0" r="0.75" class="primitive"/>
  </g>
  <g transform="translate(29.28,10.18)" fill="#9E9970">
    <circle cx="0" cy="0" r="0.75" class="primitive"/>
  </g>
  <g transform="translate(23.52,8.91)" fill="#7D2C6A">
    <circle cx="0" cy="0" r="0.75" class="primitive"/>
  </g>
  <g transform="translate(34.32,12.73)" fill="#9E9970">
    <circle cx="0" cy="0" r="0.75" class="primitive"/>
  </g>
  <g transform="translate(35.75,15.27)" fill="#7D2C6A">
    <circle cx="0" cy="0" r="0.75" class="primitive"/>
  </g>
  <g transform="translate(28.99,14)" fill="#9E9970">
    <circle cx="0" cy="0" r="0.75" class="primitive"/>
  </g>
  <g transform="translate(20.95,11.45)" fill="#7D2C6A">
    <circle cx="0" cy="0" r="0.75" class="primitive"/>
  </g>
  <g transform="translate(44.67,17.82)" fill="#7D2C6A">
    <circle cx="0" cy="0" r="0.75" class="primitive"/>
  </g>
  <g transform="translate(39.21,20.36)" fill="#7D2C6A">
    <circle cx="0" cy="0" r="0.75" class="primitive"/>
  </g>
  <g transform="translate(38.49,19.09)" fill="#7D2C6A">
    <circle cx="0" cy="0" r="0.75" class="primitive"/>
  </g>
  <g transform="translate(41.78,22.91)" fill="#9E9970">
    <circle cx="0" cy="0" r="0.75" class="primitive"/>
  </g>
  <g transform="translate(64.94,25.45)" fill="#7D2C6A">
    <circle cx="0" cy="0" r="0.75" class="primitive"/>
  </g>
  <g transform="translate(40.9,24.18)" fill="#9E9970">
    <circle cx="0" cy="0" r="0.75" class="primitive"/>
  </g>
  <g transform="translate(30.64,21.64)" fill="#7D2C6A">
    <circle cx="0" cy="0" r="0.75" class="primitive"/>
  </g>
  <g transform="translate(15.17,16.55)" fill="#9E9970">
    <circle cx="0" cy="0" r="0.75" class="primitive"/>
  </g>
  <g transform="translate(41.84,28)" fill="#7D2C6A">
    <circle cx="0" cy="0" r="0.75" class="primitive"/>
  </g>
  <g transform="translate(55.05,30.55)" fill="#7D2C6A">
    <circle cx="0" cy="0" r="0.75" class="primitive"/>
  </g>
  <g transform="translate(39.79,29.27)" fill="#7D2C6A">
    <circle cx="0" cy="0" r="0.75" class="primitive"/>
  </g>
  <g transform="translate(78.75,33.09)" fill="#9E9970">
    <circle cx="0" cy="0" r="0.75" class="primitive"/>
  </g>
  <g transform="translate(76.74,35.64)" fill="#7D2C6A">
    <circle cx="0" cy="0" r="0.75" class="primitive"/>
  </g>
  <g transform="translate(57.63,34.36)" fill="#9E9970">
    <circle cx="0" cy="0" r="0.75" class="primitive"/>
  </g>
  <g transform="translate(37.56,31.82)" fill="#7D2C6A">
    <circle cx="0" cy="0" r="0.75" class="primitive"/>
  </g>
  <g transform="translate(36.09,38.18)" fill="#7D2C6A">
    <circle cx="0" cy="0" r="0.75" class="primitive"/>
  </g>
  <g transform="translate(32.01,40.73)" fill="#7D2C6A">
    <circle cx="0" cy="0" r="0.75" class="primitive"/>
  </g>
  <g transform="translate(27.13,39.45)" fill="#7D2C6A">
    <circle cx="0" cy="0" r="0.75" class="primitive"/>
  </g>
  <g transform="translate(26.16,43.27)" fill="#7D2C6A">
    <circle cx="0" cy="0" r="0.75" class="primitive"/>
  </g>
  <g transform="translate(25.9,45.82)" fill="#9E9970">
    <circle cx="0" cy="0" r="0.75" class="primitive"/>
  </g>
  <g transform="translate(25.66,44.55)" fill="#7D2C6A">
    <circle cx="0" cy="0" r="0.75" class="primitive"/>
  </g>
  <g transform="translate(25.2,42)" fill="#7D2C6A">
    <circle cx="0" cy="0" r="0.75" class="primitive"/>
  </g>
  <g transform="translate(20.87,36.91)" fill="#7D2C6A">
    <circle cx="0" cy="0" r="0.75" class="primitive"/>
  </g>
  <g transform="translate(14.96,26.73)" fill="#7D2C6A">
    <circle cx="0" cy="0" r="0.75" class="primitive"/>
  </g>
  <g transform="translate(41.04,48.36)" fill="#7D2C6A">
    <circle cx="0" cy="0" r="0.75" class="primitive"/>
  </g>
  <g transform="translate(48.12,50.91)" fill="#7D2C6A">
    <circle cx="0" cy="0" r="0.75" class="primitive"/>
  </g>
  <g transform="translate(40.96,49.64)" fill="#7D2C6A">
    <circle cx="0" cy="0" r="0.75" class="primitive"/>
  </g>
  <g transform="translate(49.9,53.45)" fill="#7D2C6A">
    <circle cx="0" cy="0" r="0.75" class="primitive"/>
  </g>
  <g transform="translate(37.33,56)" fill="#7D2C6A">
    <circle cx="0" cy="0" r="0.75" class="primitive"/>
  </g>
  <g transform="translate(34.16,54.73)" fill="#7D2C6A">
    <circle cx="0" cy="0" r="0.75" class="primitive"/>
  </g>
  <g transform="translate(30.66,52.18)" fill="#9E9970">
    <circle cx="0" cy="0" r="0.75" class="primitive"/>
  </g>
  <g transform="translate(65.62,58.55)" fill="#9E9970">
    <circle cx="0" cy="0" r="0.75" class="primitive"/>
  </g>
  <g transform="translate(65.84,61.09)" fill="#7D2C6A">
    <circle cx="0" cy="0" r="0.75" class="primitive"/>
  </g>
  <g transform="translate(61.82,59.82)" fill="#9E9970">
    <circle cx="0" cy="0" r="0.75" class="primitive"/>
  </g>
  <g transform="translate(64.27,63.64)" fill="#7D2C6A">
    <circle cx="0" cy="0" r="0.75" class="primitive"/>
  </g>
  <g transform="translate(48.89,66.18)" fill="#7D2C6A">
    <circle cx="0" cy="0" r="0.75" class="primitive"/>
  </g>
  <g transform="translate(47.71,64.91)" fill="#7D2C6A">
    <circle cx="0" cy="0" r="0.75" class="primitive"/>
  </g>
  <g transform="translate(46.62,62.36)" fill="#7D2C6A">
    <circle cx="0" cy="0" r="0.75" class="primitive"/>
  </g>
  <g transform="translate(29.62,57.27)" fill="#9E9970">
    <circle cx="0" cy="0" r="0.75" class="primitive"/>
  </g>
  <g transform="translate(25.01,68.73)" fill="#9E9970">
    <circle cx="0" cy="0" r="0.75" class="primitive"/>
  </g>
  <g transform="translate(28.82,71.27)" fill="#7D2C6A">
    <circle cx="0" cy="0" r="0.75" class="primitive"/>
  </g>
  <g transform="translate(16.61,70)" fill="#7D2C6A">
    <circle cx="0" cy="0" r="0.75" class="primitive"/>
  </g>
  <g transform="translate(23.1,73.82)" fill="#7D2C6A">
    <circle cx="0" cy="0" r="0.75" class="primitive"/>
  </g>
  <g fill-opacity="1" id="img-29b4c979-5">
    <g transform="translate(23.1,73.82)" fill="#7D2C6A">
      <circle cx="0" cy="0" r="0.75" class="primitive"/>
    </g>
    <g transform="translate(19.12,76.36)" fill="#7D2C6A">
      <circle cx="0" cy="0" r="0.75" class="primitive"/>
    </g>
    <g transform="translate(17.22,75.09)" fill="#7D2C6A">
      <circle cx="0" cy="0" r="0.75" class="primitive"/>
    </g>
    <g transform="translate(16.13,72.55)" fill="#9E9970">
      <circle cx="0" cy="0" r="0.75" class="primitive"/>
    </g>
    <g transform="translate(35.87,78.91)" fill="#7D2C6A">
      <circle cx="0" cy="0" r="0.75" class="primitive"/>
    </g>
    <g transform="translate(42.08,81.45)" fill="#9E9970">
      <circle cx="0" cy="0" r="0.75" class="primitive"/>
    </g>
    <g transform="translate(34.2,80.18)" fill="#9E9970">
      <circle cx="0" cy="0" r="0.75" class="primitive"/>
    </g>
    <g transform="translate(33,84)" fill="#9E9970">
      <circle cx="0" cy="0" r="0.75" class="primitive"/>
    </g>
    <g transform="translate(32.51,86.55)" fill="#7D2C6A">
      <circle cx="0" cy="0" r="0.75" class="primitive"/>
    </g>
    <g transform="translate(30.5,85.27)" fill="#9E9970">
      <circle cx="0" cy="0" r="0.75" class="primitive"/>
    </g>
    <g transform="translate(22.7,82.73)" fill="#7D2C6A">
      <circle cx="0" cy="0" r="0.75" class="primitive"/>
    </g>
    <g transform="translate(13.59,77.64)" fill="#7D2C6A">
      <circle cx="0" cy="0" r="0.75" class="primitive"/>
    </g>
    <g transform="translate(60.43,89.09)" fill="#7D2C6A">
      <circle cx="0" cy="0" r="0.75" class="primitive"/>
    </g>
    <g transform="translate(32.25,91.64)" fill="#7D2C6A">
      <circle cx="0" cy="0" r="0.75" class="primitive"/>
    </g>
    <g transform="translate(23.52,90.36)" fill="#7D2C6A">
      <circle cx="0" cy="0" r="0.75" class="primitive"/>
    </g>
    <g transform="translate(59.86,94.18)" fill="#7D2C6A">
      <circle cx="0" cy="0" r="0.75" class="primitive"/>
    </g>
    <g transform="translate(61,96.73)" fill="#7D2C6A">
      <circle cx="0" cy="0" r="0.75" class="primitive"/>
    </g>
    <g transform="translate(59.44,95.45)" fill="#7D2C6A">
      <circle cx="0" cy="0" r="0.75" class="primitive"/>
    </g>
    <g transform="translate(16.64,92.91)" fill="#9E9970">
      <circle cx="0" cy="0" r="0.75" class="primitive"/>
    </g>
    <g transform="translate(37.01,99.27)" fill="#7D2C6A">
      <circle cx="0" cy="0" r="0.75" class="primitive"/>
    </g>
    <g transform="translate(36.22,101.82)" fill="#7D2C6A">
      <circle cx="0" cy="0" r="0.75" class="primitive"/>
    </g>
    <g transform="translate(35.76,100.55)" fill="#7D2C6A">
      <circle cx="0" cy="0" r="0.75" class="primitive"/>
    </g>
    <g transform="translate(47.39,104.36)" fill="#7D2C6A">
      <circle cx="0" cy="0" r="0.75" class="primitive"/>
    </g>
    <g transform="translate(34.93,106.91)" fill="#9E9970">
      <circle cx="0" cy="0" r="0.75" class="primitive"/>
    </g>
    <g transform="translate(29.33,105.64)" fill="#9E9970">
      <circle cx="0" cy="0" r="0.75" class="primitive"/>
    </g>
    <g transform="translate(28.45,103.09)" fill="#9E9970">
      <circle cx="0" cy="0" r="0.75" class="primitive"/>
    </g>
    <g transform="translate(15.78,98)" fill="#9E9970">
      <circle cx="0" cy="0" r="0.75" class="primitive"/>
    </g>
    <g transform="translate(10.74,87.82)" fill="#7D2C6A">
      <circle cx="0" cy="0" r="0.75" class="primitive"/>
    </g>
    <g transform="translate(4.76,72.55)" fill="#9E9970">
      <circle cx="0" cy="0" r="0.75" class="primitive"/>
    </g>
    <g transform="translate(3.75,49.64)" fill="#000000">
      <circle cx="0" cy="0" r="0.75" class="primitive"/>
    </g>
    <g transform="translate(3.75,27.36)" fill="#000000">
      <circle cx="0" cy="0" r="0.75" class="primitive"/>
    </g>
  </g>
</g>
<g stroke-opacity="1" fill-opacity="1" font-size="1.41" stroke-width="0.1" id="img-29b4c979-6">
  <g transform="translate(6.37,5.09)" stroke="#000000">
    <g class="primitive">
      <text dy="0.35em">N40</text>
    </g>
  </g>
  <g transform="translate(30.25,7.64)" stroke="#000000">
    <g class="primitive">
      <text dy="0.35em">N16</text>
    </g>
  </g>
  <g transform="translate(31.15,10.18)" stroke="#000000">
    <g class="primitive">
      <text dy="0.35em">N17</text>
    </g>
  </g>
  <g transform="translate(25.4,8.91)" stroke="#000000">
    <g class="primitive">
      <text dy="0.35em">N49</text>
    </g>
  </g>
  <g transform="translate(36.19,12.73)" stroke="#000000">
    <g class="primitive">
      <text dy="0.35em">N18</text>
    </g>
  </g>
  <g transform="translate(37.63,15.27)" stroke="#000000">
    <g class="primitive">
      <text dy="0.35em">N19</text>
    </g>
  </g>
  <g transform="translate(30.86,14)" stroke="#000000">
    <g class="primitive">
      <text dy="0.35em">N50</text>
    </g>
  </g>
  <g transform="translate(22.83,11.45)" stroke="#000000">
    <g class="primitive">
      <text dy="0.35em">N65</text>
    </g>
  </g>
  <g transform="translate(46.55,17.82)" stroke="#000000">
    <g class="primitive">
      <text dy="0.35em">N20</text>
    </g>
  </g>
  <g transform="translate(41.09,20.36)" stroke="#000000">
    <g class="primitive">
      <text dy="0.35em">N21</text>
    </g>
  </g>
  <g transform="translate(40.37,19.09)" stroke="#000000">
    <g class="primitive">
      <text dy="0.35em">N51</text>
    </g>
  </g>
  <g transform="translate(43.65,22.91)" stroke="#000000">
    <g class="primitive">
      <text dy="0.35em">N22</text>
    </g>
  </g>
  <g transform="translate(66.82,25.45)" stroke="#000000">
    <g class="primitive">
      <text dy="0.35em">N23</text>
    </g>
  </g>
  <g transform="translate(42.77,24.18)" stroke="#000000">
    <g class="primitive">
      <text dy="0.35em">N52</text>
    </g>
  </g>
  <g transform="translate(32.51,21.64)" stroke="#000000">
    <g class="primitive">
      <text dy="0.35em">N66</text>
    </g>
  </g>
  <g transform="translate(17.05,16.55)" stroke="#000000">
    <g class="primitive">
      <text dy="0.35em">N73</text>
    </g>
  </g>
  <g transform="translate(43.71,28)" stroke="#000000">
    <g class="primitive">
      <text dy="0.35em">N24</text>
    </g>
  </g>
  <g transform="translate(56.93,30.55)" stroke="#000000">
    <g class="primitive">
      <text dy="0.35em">N25</text>
    </g>
  </g>
  <g transform="translate(41.67,29.27)" stroke="#000000">
    <g class="primitive">
      <text dy="0.35em">N53</text>
    </g>
  </g>
  <g transform="translate(80.62,33.09)" stroke="#000000">
    <g class="primitive">
      <text dy="0.35em">N26</text>
    </g>
  </g>
  <g transform="translate(78.62,35.64)" stroke="#000000">
    <g class="primitive">
      <text dy="0.35em">N27</text>
    </g>
  </g>
  <g transform="translate(59.5,34.36)" stroke="#000000">
    <g class="primitive">
      <text dy="0.35em">N54</text>
    </g>
  </g>
  <g transform="translate(39.44,31.82)" stroke="#000000">
    <g class="primitive">
      <text dy="0.35em">N67</text>
    </g>
  </g>
  <g transform="translate(37.96,38.18)" stroke="#000000">
    <g class="primitive">
      <text dy="0.35em">N28</text>
    </g>
  </g>
  <g transform="translate(33.88,40.73)" stroke="#000000">
    <g class="primitive">
      <text dy="0.35em">N29</text>
    </g>
  </g>
  <g transform="translate(29,39.45)" stroke="#000000">
    <g class="primitive">
      <text dy="0.35em">N55</text>
    </g>
  </g>
  <g transform="translate(28.04,43.27)" stroke="#000000">
    <g class="primitive">
      <text dy="0.35em">N30</text>
    </g>
  </g>
  <g transform="translate(27.78,45.82)" stroke="#000000">
    <g class="primitive">
      <text dy="0.35em">N31</text>
    </g>
  </g>
  <g transform="translate(27.54,44.55)" stroke="#000000">
    <g class="primitive">
      <text dy="0.35em">N56</text>
    </g>
  </g>
  <g transform="translate(27.07,42)" stroke="#000000">
    <g class="primitive">
      <text dy="0.35em">N68</text>
    </g>
  </g>
  <g transform="translate(22.75,36.91)" stroke="#000000">
    <g class="primitive">
      <text dy="0.35em">N74</text>
    </g>
  </g>
  <g transform="translate(16.84,26.73)" stroke="#000000">
    <g class="primitive">
      <text dy="0.35em">N77</text>
    </g>
  </g>
  <g transform="translate(42.92,48.36)" stroke="#000000">
    <g class="primitive">
      <text dy="0.35em">N32</text>
    </g>
  </g>
  <g transform="translate(50,50.91)" stroke="#000000">
    <g class="primitive">
      <text dy="0.35em">N33</text>
    </g>
  </g>
  <g transform="translate(42.84,49.64)" stroke="#000000">
    <g class="primitive">
      <text dy="0.35em">N57</text>
    </g>
  </g>
  <g transform="translate(51.77,53.45)" stroke="#000000">
    <g class="primitive">
      <text dy="0.35em">N34</text>
    </g>
  </g>
  <g transform="translate(39.21,56)" stroke="#000000">
    <g class="primitive">
      <text dy="0.35em">N35</text>
    </g>
  </g>
  <g transform="translate(36.03,54.73)" stroke="#000000">
    <g class="primitive">
      <text dy="0.35em">N58</text>
    </g>
  </g>
  <g transform="translate(32.54,52.18)" stroke="#000000">
    <g class="primitive">
      <text dy="0.35em">N69</text>
    </g>
  </g>
  <g transform="translate(67.5,58.55)" stroke="#000000">
    <g class="primitive">
      <text dy="0.35em">N36</text>
    </g>
  </g>
  <g transform="translate(67.71,61.09)" stroke="#000000">
    <g class="primitive">
      <text dy="0.35em">N37</text>
    </g>
  </g>
  <g transform="translate(63.7,59.82)" stroke="#000000">
    <g class="primitive">
      <text dy="0.35em">N59</text>
    </g>
  </g>
  <g transform="translate(66.14,63.64)" stroke="#000000">
    <g class="primitive">
      <text dy="0.35em">N38</text>
    </g>
  </g>
  <g transform="translate(50.76,66.18)" stroke="#000000">
    <g class="primitive">
      <text dy="0.35em">N39</text>
    </g>
  </g>
  <g transform="translate(49.58,64.91)" stroke="#000000">
    <g class="primitive">
      <text dy="0.35em">N60</text>
    </g>
  </g>
  <g transform="translate(48.49,62.36)" stroke="#000000">
    <g class="primitive">
      <text dy="0.35em">N70</text>
    </g>
  </g>
  <g transform="translate(31.5,57.27)" stroke="#000000">
    <g class="primitive">
      <text dy="0.35em">N75</text>
    </g>
  </g>
  <g transform="translate(26.88,68.73)" stroke="#000000">
    <g class="primitive">
      <text dy="0.35em">N0</text>
    </g>
  </g>
  <g transform="translate(30.69,71.27)" stroke="#000000">
    <g class="primitive">
      <text dy="0.35em">N1</text>
    </g>
  </g>
  <g transform="translate(18.48,70)" stroke="#000000">
    <g class="primitive">
      <text dy="0.35em">N41</text>
    </g>
  </g>
  <g transform="translate(24.98,73.82)" stroke="#000000">
    <g class="primitive">
      <text dy="0.35em">N2</text>
    </g>
  </g>
  <g stroke-opacity="1" fill-opacity="1" font-size="1.41" stroke-width="0.1" id="img-29b4c979-7">
    <g transform="translate(24.98,73.82)" stroke="#000000">
      <g class="primitive">
        <text dy="0.35em">N2</text>
      </g>
    </g>
    <g transform="translate(20.99,76.36)" stroke="#000000">
      <g class="primitive">
        <text dy="0.35em">N3</text>
      </g>
    </g>
    <g transform="translate(19.1,75.09)" stroke="#000000">
      <g class="primitive">
        <text dy="0.35em">N42</text>
      </g>
    </g>
    <g transform="translate(18,72.55)" stroke="#000000">
      <g class="primitive">
        <text dy="0.35em">N61</text>
      </g>
    </g>
    <g transform="translate(37.74,78.91)" stroke="#000000">
      <g class="primitive">
        <text dy="0.35em">N4</text>
      </g>
    </g>
    <g transform="translate(43.95,81.45)" stroke="#000000">
      <g class="primitive">
        <text dy="0.35em">N5</text>
      </g>
    </g>
    <g transform="translate(36.07,80.18)" stroke="#000000">
      <g class="primitive">
        <text dy="0.35em">N43</text>
      </g>
    </g>
    <g transform="translate(34.88,84)" stroke="#000000">
      <g class="primitive">
        <text dy="0.35em">N6</text>
      </g>
    </g>
    <g transform="translate(34.38,86.55)" stroke="#000000">
      <g class="primitive">
        <text dy="0.35em">N7</text>
      </g>
    </g>
    <g transform="translate(32.37,85.27)" stroke="#000000">
      <g class="primitive">
        <text dy="0.35em">N44</text>
      </g>
    </g>
    <g transform="translate(24.57,82.73)" stroke="#000000">
      <g class="primitive">
        <text dy="0.35em">N62</text>
      </g>
    </g>
    <g transform="translate(15.47,77.64)" stroke="#000000">
      <g class="primitive">
        <text dy="0.35em">N71</text>
      </g>
    </g>
    <g transform="translate(62.31,89.09)" stroke="#000000">
      <g class="primitive">
        <text dy="0.35em">N8</text>
      </g>
    </g>
    <g transform="translate(34.13,91.64)" stroke="#000000">
      <g class="primitive">
        <text dy="0.35em">N9</text>
      </g>
    </g>
    <g transform="translate(25.39,90.36)" stroke="#000000">
      <g class="primitive">
        <text dy="0.35em">N45</text>
      </g>
    </g>
    <g transform="translate(61.73,94.18)" stroke="#000000">
      <g class="primitive">
        <text dy="0.35em">N10</text>
      </g>
    </g>
    <g transform="translate(62.87,96.73)" stroke="#000000">
      <g class="primitive">
        <text dy="0.35em">N11</text>
      </g>
    </g>
    <g transform="translate(61.31,95.45)" stroke="#000000">
      <g class="primitive">
        <text dy="0.35em">N46</text>
      </g>
    </g>
    <g transform="translate(18.52,92.91)" stroke="#000000">
      <g class="primitive">
        <text dy="0.35em">N63</text>
      </g>
    </g>
    <g transform="translate(38.88,99.27)" stroke="#000000">
      <g class="primitive">
        <text dy="0.35em">N12</text>
      </g>
    </g>
    <g transform="translate(38.1,101.82)" stroke="#000000">
      <g class="primitive">
        <text dy="0.35em">N13</text>
      </g>
    </g>
    <g transform="translate(37.63,100.55)" stroke="#000000">
      <g class="primitive">
        <text dy="0.35em">N47</text>
      </g>
    </g>
    <g transform="translate(49.27,104.36)" stroke="#000000">
      <g class="primitive">
        <text dy="0.35em">N14</text>
      </g>
    </g>
    <g transform="translate(36.8,106.91)" stroke="#000000">
      <g class="primitive">
        <text dy="0.35em">N15</text>
      </g>
    </g>
    <g transform="translate(31.21,105.64)" stroke="#000000">
      <g class="primitive">
        <text dy="0.35em">N48</text>
      </g>
    </g>
    <g transform="translate(30.33,103.09)" stroke="#000000">
      <g class="primitive">
        <text dy="0.35em">N64</text>
      </g>
    </g>
    <g transform="translate(17.66,98)" stroke="#000000">
      <g class="primitive">
        <text dy="0.35em">N72</text>
      </g>
    </g>
    <g transform="translate(12.61,87.82)" stroke="#000000">
      <g class="primitive">
        <text dy="0.35em">N76</text>
      </g>
    </g>
    <g transform="translate(6.64,72.55)" stroke="#000000">
      <g class="primitive">
        <text dy="0.35em">N78</text>
      </g>
    </g>
    <g transform="translate(5.63,49.64)" stroke="#000000">
      <g class="primitive">
        <text dy="0.35em"></text>
      </g>
    </g>
    <g transform="translate(5.63,27.36)" stroke="#000000">
      <g class="primitive">
        <text dy="0.35em"></text>
      </g>
    </g>
  </g>
</g>
</svg>
