<?xml version="1.0" encoding="UTF-8"?>
<svg xmlns="http://www.w3.org/2000/svg"
     xmlns:xlink="http://www.w3.org/1999/xlink"
     version="1.2"
     width="150mm" height="80mm" viewBox="0 0 150 80"
     stroke="none"
     fill="#000000"
     stroke-width="0.3"
     font-size="3.88"
>
<defs>
  <marker id="arrow" markerWidth="15" markerHeight="7" refX="5" refY="3.5" orient="auto" markerUnits="strokeWidth">
    <path d="M0,0 L15,3.5 L0,7 z" stroke="context-stroke" fill="context-stroke"/>
  </marker>
</defs>
<g stroke-opacity="1" stroke-width="0.3" id="img-29b4c979-1">
  <g transform="translate(17.63,3.64)" stroke="#7B386B">
    <path fill="none" d="M-13.88,0 L13.88,0 " class="primitive"/>
  </g>
  <g transform="translate(24.45,6.67)" stroke="#7B386B">
    <path fill="none" d="M-4.28,0 L4.28,0 " class="primitive"/>
  </g>
  <g transform="translate(22.57,9.7)" stroke="#8B0811">
    <path fill="none" d="M-2.4,0 L2.4,0 " class="primitive"/>
  </g>
  <g transform="translate(19.91,8.18)" stroke="#7B386B">
    <path fill="none" d="M-0.26,0 L0.26,0 " class="primitive"/>
  </g>
  <g transform="translate(20.17,8.18)" stroke="#7B386B">
    <path fill="none" d="M0,1.52 L0,-1.52 " class="primitive"/>
  </g>
  <g transform="translate(52.04,12.73)" stroke="#7B386B">
    <path fill="none" d="M-18.22,0 L18.22,0 " class="primitive"/>
  </g>
  <g transform="translate(43.75,15.76)" stroke="#7B386B">
    <path fill="none" d="M-9.94,0 L9.94,0 " class="primitive"/>
  </g>
  <g transform="translate(26.73,14.24)" stroke="#7B386B">
    <path fill="none" d="M-7.09,0 L7.09,0 " class="primitive"/>
  </g>
  <g transform="translate(33.82,14.24)" stroke="#7B386B">
    <path fill="none" d="M0,1.52 L0,-1.52 " class="primitive"/>
  </g>
  <g transform="translate(19.12,11.21)" stroke="#8B0811">
    <path fill="none" d="M-0.53,0 L0.53,0 " class="primitive"/>
  </g>
  <g transform="translate(19.65,11.21)" stroke="#8B0811">
    <path fill="none" d="M0,3.03 L0,-3.03 " class="primitive"/>
  </g>
  <g transform="translate(52.47,18.79)" stroke="#7B386B">
    <path fill="none" d="M-6.26,0 L6.26,0 " class="primitive"/>
  </g>
  <g transform="translate(62.48,21.82)" stroke="#7B386B">
    <path fill="none" d="M-16.27,0 L16.27,0 " class="primitive"/>
  </g>
  <g transform="translate(35.21,20.3)" stroke="#8B0811">
    <path fill="none" d="M-11,0 L11,0 " class="primitive"/>
  </g>
  <g transform="translate(46.21,20.3)" stroke="#8B0811">
    <path fill="none" d="M0,1.52 L0,-1.52 " class="primitive"/>
  </g>
  <g transform="translate(25.69,24.85)" stroke="#7B386B">
    <path fill="none" d="M-1.43,0 L1.43,0 " class="primitive"/>
  </g>
  <g transform="translate(24.92,27.88)" stroke="#7B386B">
    <path fill="none" d="M-0.66,0 L0.66,0 " class="primitive"/>
  </g>
  <g transform="translate(24.24,26.36)" stroke="#8B0811">
    <path fill="none" d="M-0.03,0 L0.03,0 " class="primitive"/>
  </g>
  <g transform="translate(24.26,26.36)" stroke="#8B0811">
    <path fill="none" d="M0,1.52 L0,-1.52 " class="primitive"/>
  </g>
  <g transform="translate(21.4,23.33)" stroke="#7B386B">
    <path fill="none" d="M-2.81,0 L2.81,0 " class="primitive"/>
  </g>
  <g transform="translate(24.21,23.33)" stroke="#7B386B">
    <path fill="none" d="M0,3.03 L0,-3.03 " class="primitive"/>
  </g>
  <g transform="translate(11.17,17.27)" stroke="#7B386B">
    <path fill="none" d="M-7.42,0 L7.42,0 " class="primitive"/>
  </g>
  <g transform="translate(18.59,17.27)" stroke="#7B386B">
    <path fill="none" d="M0,6.06 L0,-6.06 " class="primitive"/>
  </g>
  <g transform="translate(50.43,30.91)" stroke="#8B0811">
    <path fill="none" d="M-1.52,0 L1.52,0 " class="primitive"/>
  </g>
  <g transform="translate(57.33,33.94)" stroke="#7B386B">
    <path fill="none" d="M-8.41,0 L8.41,0 " class="primitive"/>
  </g>
  <g transform="translate(45.6,32.42)" stroke="#7B386B">
    <path fill="none" d="M-3.32,0 L3.32,0 " class="primitive"/>
  </g>
  <g transform="translate(48.92,32.42)" stroke="#7B386B">
    <path fill="none" d="M0,1.52 L0,-1.52 " class="primitive"/>
  </g>
  <g transform="translate(60.22,36.97)" stroke="#8B0811">
    <path fill="none" d="M-6.1,0 L6.1,0 " class="primitive"/>
  </g>
  <g transform="translate(55.59,40)" stroke="#8B0811">
    <path fill="none" d="M-1.48,0 L1.48,0 " class="primitive"/>
  </g>
  <g transform="translate(48.2,38.48)" stroke="#7B386B">
    <path fill="none" d="M-5.92,0 L5.92,0 " class="primitive"/>
  </g>
  <g transform="translate(54.12,38.48)" stroke="#7B386B">
    <path fill="none" d="M0,1.52 L0,-1.52 " class="primitive"/>
  </g>
  <g transform="translate(41.64,35.45)" stroke="#8B0811">
    <path fill="none" d="M-0.63,0 L0.63,0 " class="primitive"/>
  </g>
  <g transform="translate(42.28,35.45)" stroke="#8B0811">
    <path fill="none" d="M0,3.03 L0,-3.03 " class="primitive"/>
  </g>
  <g transform="translate(61.21,43.03)" stroke="#7B386B">
    <path fill="none" d="M-2.57,0 L2.57,0 " class="primitive"/>
  </g>
  <g transform="translate(65.51,46.06)" stroke="#7B386B">
    <path fill="none" d="M-6.86,0 L6.86,0 " class="primitive"/>
  </g>
  <g transform="translate(53.91,44.55)" stroke="#7B386B">
    <path fill="none" d="M-4.73,0 L4.73,0 " class="primitive"/>
  </g>
  <g transform="translate(58.64,44.55)" stroke="#7B386B">
    <path fill="none" d="M0,1.52 L0,-1.52 " class="primitive"/>
  </g>
  <g transform="translate(68.7,49.09)" stroke="#7B386B">
    <path fill="none" d="M-1.2,0 L1.2,0 " class="primitive"/>
  </g>
  <g transform="translate(69.91,52.12)" stroke="#7B386B">
    <path fill="none" d="M-2.41,0 L2.41,0 " class="primitive"/>
  </g>
  <g transform="translate(58.34,50.61)" stroke="#7B386B">
    <path fill="none" d="M-9.16,0 L9.16,0 " class="primitive"/>
  </g>
  <g transform="translate(67.5,50.61)" stroke="#7B386B">
    <path fill="none" d="M0,1.52 L0,-1.52 " class="primitive"/>
  </g>
  <g transform="translate(45.1,47.58)" stroke="#7B386B">
    <path fill="none" d="M-4.09,0 L4.09,0 " class="primitive"/>
  </g>
  <g transform="translate(49.18,47.58)" stroke="#7B386B">
    <path fill="none" d="M0,3.03 L0,-3.03 " class="primitive"/>
  </g>
  <g transform="translate(31.69,41.52)" stroke="#8B0811">
    <path fill="none" d="M-9.32,0 L9.32,0 " class="primitive"/>
  </g>
  <g transform="translate(41.01,41.52)" stroke="#8B0811">
    <path fill="none" d="M0,6.06 L0,-6.06 " class="primitive"/>
  </g>
  <g transform="translate(50.24,55.15)" stroke="#7B386B">
    <path fill="none" d="M-0.89,0 L0.89,0 " class="primitive"/>
  </g>
  <g transform="translate(49.68,58.18)" stroke="#7B386B">
    <path fill="none" d="M-0.33,0 L0.33,0 " class="primitive"/>
  </g>
  <g transform="translate(46.11,56.67)" stroke="#7B386B">
    <path fill="none" d="M-3.24,0 L3.24,0 " class="primitive"/>
  </g>
  <g transform="translate(49.35,56.67)" stroke="#7B386B">
    <path fill="none" d="M0,1.52 L0,-1.52 " class="primitive"/>
  </g>
  <g transform="translate(59.65,61.21)" stroke="#8B0811">
    <path fill="none" d="M-1.48,0 L1.48,0 " class="primitive"/>
  </g>
  <g transform="translate(58.83,64.24)" stroke="#7B386B">
    <path fill="none" d="M-0.66,0 L0.66,0 " class="primitive"/>
  </g>
  <g stroke-opacity="1" stroke-width="0.3" id="img-29b4c979-2">
    <g transform="translate(58.83,64.24)" stroke="#7B386B">
      <path fill="none" d="M-0.66,0 L0.66,0 " class="primitive"/>
    </g>
    <g transform="translate(50.52,62.73)" stroke="#7B386B">
      <path fill="none" d="M-7.65,0 L7.65,0 " class="primitive"/>
    </g>
    <g transform="translate(58.17,62.73)" stroke="#7B386B">
      <path fill="none" d="M0,1.52 L0,-1.52 " class="primitive"/>
    </g>
    <g transform="translate(34.85,59.7)" stroke="#7B386B">
      <path fill="none" d="M-8.02,0 L8.02,0 " class="primitive"/>
    </g>
    <g transform="translate(42.87,59.7)" stroke="#7B386B">
      <path fill="none" d="M0,3.03 L0,-3.03 " class="primitive"/>
    </g>
    <g transform="translate(64.24,67.27)" stroke="#7B386B">
      <path fill="none" d="M-0.98,0 L0.98,0 " class="primitive"/>
    </g>
    <g transform="translate(65.16,70.3)" stroke="#7B386B">
      <path fill="none" d="M-1.89,0 L1.89,0 " class="primitive"/>
    </g>
    <g transform="translate(57.52,68.79)" stroke="#8B0811">
      <path fill="none" d="M-5.74,0 L5.74,0 " class="primitive"/>
    </g>
    <g transform="translate(63.26,68.79)" stroke="#8B0811">
      <path fill="none" d="M0,1.52 L0,-1.52 " class="primitive"/>
    </g>
    <g transform="translate(66.48,73.33)" stroke="#8B0811">
      <path fill="none" d="M-2.06,0 L2.06,0 " class="primitive"/>
    </g>
    <g transform="translate(69.63,76.36)" stroke="#7B386B">
      <path fill="none" d="M-5.2,0 L5.2,0 " class="primitive"/>
    </g>
    <g transform="translate(58.11,74.85)" stroke="#7B386B">
      <path fill="none" d="M-6.32,0 L6.32,0 " class="primitive"/>
    </g>
    <g transform="translate(64.43,74.85)" stroke="#7B386B">
      <path fill="none" d="M0,1.52 L0,-1.52 " class="primitive"/>
    </g>
    <g transform="translate(39.3,71.82)" stroke="#7B386B">
      <path fill="none" d="M-12.48,0 L12.48,0 " class="primitive"/>
    </g>
    <g transform="translate(51.79,71.82)" stroke="#7B386B">
      <path fill="none" d="M0,3.03 L0,-3.03 " class="primitive"/>
    </g>
    <g transform="translate(24.6,65.76)" stroke="#8B0811">
      <path fill="none" d="M-2.22,0 L2.22,0 " class="primitive"/>
    </g>
    <g transform="translate(26.82,65.76)" stroke="#8B0811">
      <path fill="none" d="M0,6.06 L0,-6.06 " class="primitive"/>
    </g>
    <g transform="translate(13.06,53.64)" stroke="#7B386B">
      <path fill="none" d="M-9.31,0 L9.31,0 " class="primitive"/>
    </g>
    <g transform="translate(22.38,53.64)" stroke="#7B386B">
      <path fill="none" d="M0,12.12 L0,-12.12 " class="primitive"/>
    </g>
    <g transform="translate(3.75,35.45)" stroke="#000000">
      <path fill="none" d="M0,0 L0,0 " class="primitive"/>
    </g>
    <g transform="translate(3.75,35.45)" stroke="#000000">
      <path fill="none" d="M0,18.18 L0,-18.18 " class="primitive"/>
    </g>
    <g transform="translate(3.75,19.55)" stroke="#000000">
      <path fill="none" d="M0,0 L0,0 " class="primitive"/>
    </g>
    <g transform="translate(3.75,19.55)" stroke="#000000">
      <path fill="none" d="M0,15.91 L0,-15.91 " class="primitive"/>
    </g>
  </g>
</g>
<g fill-opacity="1" id="img-29b4c979-3">
  <g transform="translate(31.51,3.64)" fill="#7B386B">
    <circle cx="0" cy="0" r="0.75" class="primitive"/>
  </g>
  <g transform="translate(28.73,6.67)" fill="#7B386B">
    <circle cx="0" cy="0" r="0.75" class="primitive"/>
  </g>
  <g transform="translate(24.97,9.7)" fill="#8B0811">
    <circle cx="0" cy="0" r="0.75" class="primitive"/>
  </g>
  <g transform="translate(20.17,8.18)" fill="#7B386B">
    <circle cx="0" cy="0" r="0.75" class="primitive"/>
  </g>
  <g transform="translate(70.25,12.73)" fill="#7B386B">
    <circle cx="0" cy="0" r="0.75" class="primitive"/>
  </g>
  <g transform="translate(53.69,15.76)" fill="#7B386B">
    <circle cx="0" cy="0" r="0.75" class="primitive"/>
  </g>
  <g transform="translate(33.82,14.24)" fill="#7B386B">
    <circle cx="0" cy="0" r="0.75" class="primitive"/>
  </g>
  <g transform="translate(19.65,11.21)" fill="#8B0811">
    <circle cx="0" cy="0" r="0.75" class="primitive"/>
  </g>
  <g transform="translate(58.73,18.79)" fill="#7B386B">
    <circle cx="0" cy="0" r="0.75" class="primitive"/>
  </g>
  <g transform="translate(78.75,21.82)" fill="#7B386B">
    <circle cx="0" cy="0" r="0.75" class="primitive"/>
  </g>
  <g transform="translate(46.21,20.3)" fill="#8B0811">
    <circle cx="0" cy="0" r="0.75" class="primitive"/>
  </g>
  <g transform="translate(27.13,24.85)" fill="#7B386B">
    <circle cx="0" cy="0" r="0.75" class="primitive"/>
  </g>
  <g transform="translate(25.58,27.88)" fill="#7B386B">
    <circle cx="0" cy="0" r="0.75" class="primitive"/>
  </g>
  <g transform="translate(24.26,26.36)" fill="#8B0811">
    <circle cx="0" cy="0" r="0.75" class="primitive"/>
  </g>
  <g transform="translate(24.21,23.33)" fill="#7B386B">
    <circle cx="0" cy="0" r="0.75" class="primitive"/>
  </g>
  <g transform="translate(18.59,17.27)" fill="#7B386B">
    <circle cx="0" cy="0" r="0.75" class="primitive"/>
  </g>
  <g transform="translate(51.95,30.91)" fill="#8B0811">
    <circle cx="0" cy="0" r="0.75" class="primitive"/>
  </g>
  <g transform="translate(65.74,33.94)" fill="#7B386B">
    <circle cx="0" cy="0" r="0.75" class="primitive"/>
  </g>
  <g transform="translate(48.92,32.42)" fill="#7B386B">
    <circle cx="0" cy="0" r="0.75" class="primitive"/>
  </g>
  <g transform="translate(66.32,36.97)" fill="#8B0811">
    <circle cx="0" cy="0" r="0.75" class="primitive"/>
  </g>
  <g transform="translate(57.07,40)" fill="#8B0811">
    <circle cx="0" cy="0" r="0.75" class="primitive"/>
  </g>
  <g transform="translate(54.12,38.48)" fill="#7B386B">
    <circle cx="0" cy="0" r="0.75" class="primitive"/>
  </g>
  <g transform="translate(42.28,35.45)" fill="#8B0811">
    <circle cx="0" cy="0" r="0.75" class="primitive"/>
  </g>
  <g transform="translate(63.78,43.03)" fill="#7B386B">
    <circle cx="0" cy="0" r="0.75" class="primitive"/>
  </g>
  <g transform="translate(72.37,46.06)" fill="#7B386B">
    <circle cx="0" cy="0" r="0.75" class="primitive"/>
  </g>
  <g transform="translate(58.64,44.55)" fill="#7B386B">
    <circle cx="0" cy="0" r="0.75" class="primitive"/>
  </g>
  <g transform="translate(69.89,49.09)" fill="#7B386B">
    <circle cx="0" cy="0" r="0.75" class="primitive"/>
  </g>
  <g transform="translate(72.32,52.12)" fill="#7B386B">
    <circle cx="0" cy="0" r="0.75" class="primitive"/>
  </g>
  <g transform="translate(67.5,50.61)" fill="#7B386B">
    <circle cx="0" cy="0" r="0.75" class="primitive"/>
  </g>
  <g transform="translate(49.18,47.58)" fill="#7B386B">
    <circle cx="0" cy="0" r="0.75" class="primitive"/>
  </g>
  <g transform="translate(41.01,41.52)" fill="#8B0811">
    <circle cx="0" cy="0" r="0.75" class="primitive"/>
  </g>
  <g transform="translate(51.12,55.15)" fill="#7B386B">
    <circle cx="0" cy="0" r="0.75" class="primitive"/>
  </g>
  <g transform="translate(50.01,58.18)" fill="#7B386B">
    <circle cx="0" cy="0" r="0.75" class="primitive"/>
  </g>
  <g transform="translate(49.35,56.67)" fill="#7B386B">
    <circle cx="0" cy="0" r="0.75" class="primitive"/>
  </g>
  <g transform="translate(61.14,61.21)" fill="#8B0811">
    <circle cx="0" cy="0" r="0.75" class="primitive"/>
  </g>
  <g transform="translate(59.49,64.24)" fill="#7B386B">
    <circle cx="0" cy="0" r="0.75" class="primitive"/>
  </g>
  <g transform="translate(58.17,62.73)" fill="#7B386B">
    <circle cx="0" cy="0" r="0.75" class="primitive"/>
  </g>
  <g transform="translate(42.87,59.7)" fill="#7B386B">
    <circle cx="0" cy="0" r="0.75" class="primitive"/>
  </g>
  <g transform="translate(65.22,67.27)" fill="#7B386B">
    <circle cx="0" cy="0" r="0.75" class="primitive"/>
  </g>
  <g transform="translate(67.05,70.3)" fill="#7B386B">
    <circle cx="0" cy="0" r="0.75" class="primitive"/>
  </g>
  <g transform="translate(63.26,68.79)" fill="#8B0811">
    <circle cx="0" cy="0" r="0.75" class="primitive"/>
  </g>
  <g transform="translate(68.54,73.33)" fill="#8B0811">
    <circle cx="0" cy="0" r="0.75" class="primitive"/>
  </g>
  <g transform="translate(74.82,76.36)" fill="#7B386B">
    <circle cx="0" cy="0" r="0.75" class="primitive"/>
  </g>
  <g transform="translate(64.43,74.85)" fill="#7B386B">
    <circle cx="0" cy="0" r="0.75" class="primitive"/>
  </g>
  <g transform="translate(51.79,71.82)" fill="#7B386B">
    <circle cx="0" cy="0" r="0.75" class="primitive"/>
  </g>
  <g transform="translate(26.82,65.76)" fill="#8B0811">
    <circle cx="0" cy="0" r="0.75" class="primitive"/>
  </g>
  <g transform="translate(22.38,53.64)" fill="#7B386B">
    <circle cx="0" cy="0" r="0.75" class="primitive"/>
  </g>
  <g transform="translate(3.75,35.45)" fill="#000000">
    <circle cx="0" cy="0" r="0.75" class="primitive"/>
  </g>
  <g transform="translate(3.75,19.55)" fill="#000000">
    <circle cx="0" cy="0" r="0.75" class="primitive"/>
  </g>
</g>
<g stroke-opacity="1" fill-opacity="1" font-size="1.41" stroke-width="0.1" id="img-29b4c979-4">
  <g transform="translate(33.39,3.64)" stroke="#000000">
    <g class="primitive">
      <text dy="0.35em">N24</text>
    </g>
  </g>
  <g transform="translate(30.6,6.67)" stroke="#000000">
    <g class="primitive">
      <text dy="0.35em">N16</text>
    </g>
  </g>
  <g transform="translate(26.85,9.7)" stroke="#000000">
    <g class="primitive">
      <text dy="0.35em">N17</text>
    </g>
  </g>
  <g transform="translate(22.05,8.18)" stroke="#000000">
    <g class="primitive">
      <text dy="0.35em">N33</text>
    </g>
  </g>
  <g transform="translate(72.13,12.73)" stroke="#000000">
    <g class="primitive">
      <text dy="0.35em">N18</text>
    </g>
  </g>
  <g transform="translate(55.57,15.76)" stroke="#000000">
    <g class="primitive">
      <text dy="0.35em">N19</text>
    </g>
  </g>
  <g transform="translate(35.69,14.24)" stroke="#000000">
    <g class="primitive">
      <text dy="0.35em">N34</text>
    </g>
  </g>
  <g transform="translate(21.52,11.21)" stroke="#000000">
    <g class="primitive">
      <text dy="0.35em">N41</text>
    </g>
  </g>
  <g transform="translate(60.61,18.79)" stroke="#000000">
    <g class="primitive">
      <text dy="0.35em">N20</text>
    </g>
  </g>
  <g transform="translate(80.62,21.82)" stroke="#000000">
    <g class="primitive">
      <text dy="0.35em">N21</text>
    </g>
  </g>
  <g transform="translate(48.09,20.3)" stroke="#000000">
    <g class="primitive">
      <text dy="0.35em">N35</text>
    </g>
  </g>
  <g transform="translate(29,24.85)" stroke="#000000">
    <g class="primitive">
      <text dy="0.35em">N22</text>
    </g>
  </g>
  <g transform="translate(27.46,27.88)" stroke="#000000">
    <g class="primitive">
      <text dy="0.35em">N23</text>
    </g>
  </g>
  <g transform="translate(26.14,26.36)" stroke="#000000">
    <g class="primitive">
      <text dy="0.35em">N36</text>
    </g>
  </g>
  <g transform="translate(26.09,23.33)" stroke="#000000">
    <g class="primitive">
      <text dy="0.35em">N42</text>
    </g>
  </g>
  <g transform="translate(20.47,17.27)" stroke="#000000">
    <g class="primitive">
      <text dy="0.35em">N45</text>
    </g>
  </g>
  <g transform="translate(53.83,30.91)" stroke="#000000">
    <g class="primitive">
      <text dy="0.35em">N0</text>
    </g>
  </g>
  <g transform="translate(67.61,33.94)" stroke="#000000">
    <g class="primitive">
      <text dy="0.35em">N1</text>
    </g>
  </g>
  <g transform="translate(50.79,32.42)" stroke="#000000">
    <g class="primitive">
      <text dy="0.35em">N25</text>
    </g>
  </g>
  <g transform="translate(68.2,36.97)" stroke="#000000">
    <g class="primitive">
      <text dy="0.35em">N2</text>
    </g>
  </g>
  <g transform="translate(58.95,40)" stroke="#000000">
    <g class="primitive">
      <text dy="0.35em">N3</text>
    </g>
  </g>
  <g transform="translate(55.99,38.48)" stroke="#000000">
    <g class="primitive">
      <text dy="0.35em">N26</text>
    </g>
  </g>
  <g transform="translate(44.15,35.45)" stroke="#000000">
    <g class="primitive">
      <text dy="0.35em">N37</text>
    </g>
  </g>
  <g transform="translate(65.66,43.03)" stroke="#000000">
    <g class="primitive">
      <text dy="0.35em">N4</text>
    </g>
  </g>
  <g transform="translate(74.24,46.06)" stroke="#000000">
    <g class="primitive">
      <text dy="0.35em">N5</text>
    </g>
  </g>
  <g transform="translate(60.52,44.55)" stroke="#000000">
    <g class="primitive">
      <text dy="0.35em">N27</text>
    </g>
  </g>
  <g transform="translate(71.77,49.09)" stroke="#000000">
    <g class="primitive">
      <text dy="0.35em">N6</text>
    </g>
  </g>
  <g transform="translate(74.2,52.12)" stroke="#000000">
    <g class="primitive">
      <text dy="0.35em">N7</text>
    </g>
  </g>
  <g transform="translate(69.37,50.61)" stroke="#000000">
    <g class="primitive">
      <text dy="0.35em">N28</text>
    </g>
  </g>
  <g transform="translate(51.06,47.58)" stroke="#000000">
    <g class="primitive">
      <text dy="0.35em">N38</text>
    </g>
  </g>
  <g transform="translate(42.89,41.52)" stroke="#000000">
    <g class="primitive">
      <text dy="0.35em">N43</text>
    </g>
  </g>
  <g transform="translate(53,55.15)" stroke="#000000">
    <g class="primitive">
      <text dy="0.35em">N8</text>
    </g>
  </g>
  <g transform="translate(51.88,58.18)" stroke="#000000">
    <g class="primitive">
      <text dy="0.35em">N9</text>
    </g>
  </g>
  <g transform="translate(51.23,56.67)" stroke="#000000">
    <g class="primitive">
      <text dy="0.35em">N29</text>
    </g>
  </g>
  <g transform="translate(63.01,61.21)" stroke="#000000">
    <g class="primitive">
      <text dy="0.35em">N10</text>
    </g>
  </g>
  <g transform="translate(61.36,64.24)" stroke="#000000">
    <g class="primitive">
      <text dy="0.35em">N11</text>
    </g>
  </g>
  <g transform="translate(60.05,62.73)" stroke="#000000">
    <g class="primitive">
      <text dy="0.35em">N30</text>
    </g>
  </g>
  <g transform="translate(44.74,59.7)" stroke="#000000">
    <g class="primitive">
      <text dy="0.35em">N39</text>
    </g>
  </g>
  <g transform="translate(67.09,67.27)" stroke="#000000">
    <g class="primitive">
      <text dy="0.35em">N12</text>
    </g>
  </g>
  <g transform="translate(68.92,70.3)" stroke="#000000">
    <g class="primitive">
      <text dy="0.35em">N13</text>
    </g>
  </g>
  <g transform="translate(65.14,68.79)" stroke="#000000">
    <g class="primitive">
      <text dy="0.35em">N31</text>
    </g>
  </g>
  <g transform="translate(70.42,73.33)" stroke="#000000">
    <g class="primitive">
      <text dy="0.35em">N14</text>
    </g>
  </g>
  <g transform="translate(76.7,76.36)" stroke="#000000">
    <g class="primitive">
      <text dy="0.35em">N15</text>
    </g>
  </g>
  <g transform="translate(66.3,74.85)" stroke="#000000">
    <g class="primitive">
      <text dy="0.35em">N32</text>
    </g>
  </g>
  <g transform="translate(53.66,71.82)" stroke="#000000">
    <g class="primitive">
      <text dy="0.35em">N40</text>
    </g>
  </g>
  <g transform="translate(28.7,65.76)" stroke="#000000">
    <g class="primitive">
      <text dy="0.35em">N44</text>
    </g>
  </g>
  <g transform="translate(24.25,53.64)" stroke="#000000">
    <g class="primitive">
      <text dy="0.35em">N46</text>
    </g>
  </g>
  <g transform="translate(5.63,35.45)" stroke="#000000">
    <g class="primitive">
      <text dy="0.35em"></text>
    </g>
  </g>
  <g transform="translate(5.63,19.55)" stroke="#000000">
    <g class="primitive">
      <text dy="0.35em"></text>
    </g>
  </g>
</g>
</svg>
