<?xml version="1.0" encoding="UTF-8"?>
<svg xmlns="http://www.w3.org/2000/svg"
     xmlns:xlink="http://www.w3.org/1999/xlink"
     version="1.2"
     width="150mm" height="120mm" viewBox="0 0 150 120"
     stroke="none"
     fill="#000000"
     stroke-width="0.3"
     font-size="3.88"
>
<defs>
  <marker id="arrow" markerWidth="15" markerHeight="7" refX="5" refY="3.5" orient="auto" markerUnits="strokeWidth">
    <path d="M0,0 L15,3.5 L0,7 z" stroke="context-stroke" fill="context-stroke"/>
  </marker>
</defs>
<g stroke-opacity="1" stroke-width="0.3" id="img-29b4c979-1">
  <g transform="translate(3.9,5.45)" stroke="#3B1E42">
    <path fill="none" d="M-0.15,0 L0.15,0 " class="primitive"/>
  </g>
  <g transform="translate(30.61,7.93)" stroke="#3B1E42">
    <path fill="none" d="M-1.58,0 L1.58,0 " class="primitive"/>
  </g>
  <g transform="translate(37.82,10.41)" stroke="#3B1E42">
    <path fill="none" d="M-8.78,0 L8.78,0 " class="primitive"/>
  </g>
  <g transform="translate(25.51,9.17)" stroke="#3B1E42">
    <path fill="none" d="M-3.52,0 L3.52,0 " class="primitive"/>
  </g>
  <g transform="translate(29.04,9.17)" stroke="#3B1E42">
    <path fill="none" d="M0,1.24 L0,-1.24 " class="primitive"/>
  </g>
  <g transform="translate(30.12,12.89)" stroke="#E8B740">
    <path fill="none" d="M-2.5,0 L2.5,0 " class="primitive"/>
  </g>
  <g transform="translate(27.82,15.37)" stroke="#3B1E42">
    <path fill="none" d="M-0.21,0 L0.21,0 " class="primitive"/>
  </g>
  <g transform="translate(24.81,14.13)" stroke="#3B1E42">
    <path fill="none" d="M-2.81,0 L2.81,0 " class="primitive"/>
  </g>
  <g transform="translate(27.62,14.13)" stroke="#3B1E42">
    <path fill="none" d="M0,1.24 L0,-1.24 " class="primitive"/>
  </g>
  <g transform="translate(19.47,11.65)" stroke="#3B1E42">
    <path fill="none" d="M-2.53,0 L2.53,0 " class="primitive"/>
  </g>
  <g transform="translate(21.99,11.65)" stroke="#3B1E42">
    <path fill="none" d="M0,2.48 L0,-2.48 " class="primitive"/>
  </g>
  <g transform="translate(27.04,17.85)" stroke="#3B1E42">
    <path fill="none" d="M-4.81,0 L4.81,0 " class="primitive"/>
  </g>
  <g transform="translate(31.83,20.33)" stroke="#E8B740">
    <path fill="none" d="M-9.59,0 L9.59,0 " class="primitive"/>
  </g>
  <g transform="translate(20.09,19.09)" stroke="#E8B740">
    <path fill="none" d="M-2.15,0 L2.15,0 " class="primitive"/>
  </g>
  <g transform="translate(22.23,19.09)" stroke="#E8B740">
    <path fill="none" d="M0,1.24 L0,-1.24 " class="primitive"/>
  </g>
  <g transform="translate(25.78,22.81)" stroke="#3B1E42">
    <path fill="none" d="M-1,0 L1,0 " class="primitive"/>
  </g>
  <g transform="translate(24.78,25.29)" stroke="#3B1E42">
    <path fill="none" d="M-0.01,0 L0.01,0 " class="primitive"/>
  </g>
  <g transform="translate(21.36,24.05)" stroke="#E8B740">
    <path fill="none" d="M-3.42,0 L3.42,0 " class="primitive"/>
  </g>
  <g transform="translate(24.77,24.05)" stroke="#E8B740">
    <path fill="none" d="M0,1.24 L0,-1.24 " class="primitive"/>
  </g>
  <g transform="translate(17.44,21.57)" stroke="#E8B740">
    <path fill="none" d="M-0.5,0 L0.5,0 " class="primitive"/>
  </g>
  <g transform="translate(17.94,21.57)" stroke="#E8B740">
    <path fill="none" d="M0,2.48 L0,-2.48 " class="primitive"/>
  </g>
  <g transform="translate(12.85,16.61)" stroke="#E8B740">
    <path fill="none" d="M-4.09,0 L4.09,0 " class="primitive"/>
  </g>
  <g transform="translate(16.94,16.61)" stroke="#E8B740">
    <path fill="none" d="M0,4.96 L0,-4.96 " class="primitive"/>
  </g>
  <g transform="translate(29.77,27.77)" stroke="#3B1E42">
    <path fill="none" d="M-4.66,0 L4.66,0 " class="primitive"/>
  </g>
  <g transform="translate(33.92,30.25)" stroke="#E8B740">
    <path fill="none" d="M-8.81,0 L8.81,0 " class="primitive"/>
  </g>
  <g transform="translate(24.22,29.01)" stroke="#3B1E42">
    <path fill="none" d="M-0.9,0 L0.9,0 " class="primitive"/>
  </g>
  <g transform="translate(25.11,29.01)" stroke="#3B1E42">
    <path fill="none" d="M0,1.24 L0,-1.24 " class="primitive"/>
  </g>
  <g transform="translate(33.09,32.73)" stroke="#E8B740">
    <path fill="none" d="M-0.68,0 L0.68,0 " class="primitive"/>
  </g>
  <g transform="translate(34.15,35.21)" stroke="#E8B740">
    <path fill="none" d="M-1.75,0 L1.75,0 " class="primitive"/>
  </g>
  <g transform="translate(27.86,33.97)" stroke="#3B1E42">
    <path fill="none" d="M-4.54,0 L4.54,0 " class="primitive"/>
  </g>
  <g transform="translate(32.41,33.97)" stroke="#3B1E42">
    <path fill="none" d="M0,1.24 L0,-1.24 " class="primitive"/>
  </g>
  <g transform="translate(20.3,31.49)" stroke="#3B1E42">
    <path fill="none" d="M-3.02,0 L3.02,0 " class="primitive"/>
  </g>
  <g transform="translate(23.32,31.49)" stroke="#3B1E42">
    <path fill="none" d="M0,2.48 L0,-2.48 " class="primitive"/>
  </g>
  <g transform="translate(50.77,37.69)" stroke="#E8B740">
    <path fill="none" d="M-17.36,0 L17.36,0 " class="primitive"/>
  </g>
  <g transform="translate(35.6,40.17)" stroke="#3B1E42">
    <path fill="none" d="M-2.19,0 L2.19,0 " class="primitive"/>
  </g>
  <g transform="translate(32.04,38.93)" stroke="#3B1E42">
    <path fill="none" d="M-1.37,0 L1.37,0 " class="primitive"/>
  </g>
  <g transform="translate(33.41,38.93)" stroke="#3B1E42">
    <path fill="none" d="M0,1.24 L0,-1.24 " class="primitive"/>
  </g>
  <g transform="translate(53.4,42.64)" stroke="#E8B740">
    <path fill="none" d="M-20.81,0 L20.81,0 " class="primitive"/>
  </g>
  <g transform="translate(36.7,45.12)" stroke="#E8B740">
    <path fill="none" d="M-4.11,0 L4.11,0 " class="primitive"/>
  </g>
  <g transform="translate(31.63,43.88)" stroke="#3B1E42">
    <path fill="none" d="M-0.96,0 L0.96,0 " class="primitive"/>
  </g>
  <g transform="translate(32.59,43.88)" stroke="#3B1E42">
    <path fill="none" d="M0,1.24 L0,-1.24 " class="primitive"/>
  </g>
  <g transform="translate(23.98,41.4)" stroke="#E8B740">
    <path fill="none" d="M-6.69,0 L6.69,0 " class="primitive"/>
  </g>
  <g transform="translate(30.67,41.4)" stroke="#E8B740">
    <path fill="none" d="M0,2.48 L0,-2.48 " class="primitive"/>
  </g>
  <g transform="translate(13.02,36.45)" stroke="#3B1E42">
    <path fill="none" d="M-4.26,0 L4.26,0 " class="primitive"/>
  </g>
  <g transform="translate(17.28,36.45)" stroke="#3B1E42">
    <path fill="none" d="M0,4.96 L0,-4.96 " class="primitive"/>
  </g>
  <g transform="translate(6.25,26.53)" stroke="#3B1E42">
    <path fill="none" d="M-2.5,0 L2.5,0 " class="primitive"/>
  </g>
  <g transform="translate(8.76,26.53)" stroke="#3B1E42">
    <path fill="none" d="M0,9.92 L0,-9.92 " class="primitive"/>
  </g>
  <g transform="translate(32.97,47.6)" stroke="#3B1E42">
    <path fill="none" d="M-1.91,0 L1.91,0 " class="primitive"/>
  </g>
  <g transform="translate(43.52,50.08)" stroke="#3B1E42">
    <path fill="none" d="M-12.46,0 L12.46,0 " class="primitive"/>
  </g>
  <g transform="translate(25.87,48.84)" stroke="#3B1E42">
    <path fill="none" d="M-5.19,0 L5.19,0 " class="primitive"/>
  </g>
  <g transform="translate(31.06,48.84)" stroke="#3B1E42">
    <path fill="none" d="M0,1.24 L0,-1.24 " class="primitive"/>
  </g>
  <g stroke-opacity="1" stroke-width="0.3" id="img-29b4c979-2">
    <g transform="translate(16.79,90.99)" stroke="#3B1E42">
      <path fill="none" d="M0,2.48 L0,-2.48 " class="primitive"/>
    </g>
    <g transform="translate(13.24,86.03)" stroke="#3B1E42">
      <path fill="none" d="M-1.5,0 L1.5,0 " class="primitive"/>
    </g>
    <g transform="translate(14.74,86.03)" stroke="#3B1E42">
      <path fill="none" d="M0,4.96 L0,-4.96 " class="primitive"/>
    </g>
    <g transform="translate(69.75,97.19)" stroke="#E8B740">
      <path fill="none" d="M-8.47,0 L8.47,0 " class="primitive"/>
    </g>
    <g transform="translate(68.01,99.67)" stroke="#3B1E42">
      <path fill="none" d="M-6.73,0 L6.73,0 " class="primitive"/>
    </g>
    <g transform="translate(56.68,98.43)" stroke="#3B1E42">
      <path fill="none" d="M-4.6,0 L4.6,0 " class="primitive"/>
    </g>
    <g transform="translate(61.28,98.43)" stroke="#3B1E42">
      <path fill="none" d="M0,1.24 L0,-1.24 " class="primitive"/>
    </g>
    <g transform="translate(68.28,102.15)" stroke="#3B1E42">
      <path fill="none" d="M-0.25,0 L0.25,0 " class="primitive"/>
    </g>
    <g transform="translate(73.39,104.63)" stroke="#3B1E42">
      <path fill="none" d="M-5.36,0 L5.36,0 " class="primitive"/>
    </g>
    <g transform="translate(60.05,103.39)" stroke="#3B1E42">
      <path fill="none" d="M-7.98,0 L7.98,0 " class="primitive"/>
    </g>
    <g transform="translate(68.03,103.39)" stroke="#3B1E42">
      <path fill="none" d="M0,1.24 L0,-1.24 " class="primitive"/>
    </g>
    <g transform="translate(39.15,100.91)" stroke="#E8B740">
      <path fill="none" d="M-12.93,0 L12.93,0 " class="primitive"/>
    </g>
    <g transform="translate(52.07,100.91)" stroke="#E8B740">
      <path fill="none" d="M0,2.48 L0,-2.48 " class="primitive"/>
    </g>
    <g transform="translate(35.01,107.11)" stroke="#3B1E42">
      <path fill="none" d="M-0.39,0 L0.39,0 " class="primitive"/>
    </g>
    <g transform="translate(35.87,109.59)" stroke="#3B1E42">
      <path fill="none" d="M-1.24,0 L1.24,0 " class="primitive"/>
    </g>
    <g transform="translate(30.93,108.35)" stroke="#3B1E42">
      <path fill="none" d="M-3.69,0 L3.69,0 " class="primitive"/>
    </g>
    <g transform="translate(34.62,108.35)" stroke="#3B1E42">
      <path fill="none" d="M0,1.24 L0,-1.24 " class="primitive"/>
    </g>
    <g transform="translate(37.1,112.07)" stroke="#3B1E42">
      <path fill="none" d="M-0.29,0 L0.29,0 " class="primitive"/>
    </g>
    <g transform="translate(37.33,114.55)" stroke="#3B1E42">
      <path fill="none" d="M-0.52,0 L0.52,0 " class="primitive"/>
    </g>
    <g transform="translate(32.03,113.31)" stroke="#3B1E42">
      <path fill="none" d="M-4.78,0 L4.78,0 " class="primitive"/>
    </g>
    <g transform="translate(36.81,113.31)" stroke="#3B1E42">
      <path fill="none" d="M0,1.24 L0,-1.24 " class="primitive"/>
    </g>
    <g transform="translate(26.73,110.83)" stroke="#3B1E42">
      <path fill="none" d="M-0.51,0 L0.51,0 " class="primitive"/>
    </g>
    <g transform="translate(27.24,110.83)" stroke="#3B1E42">
      <path fill="none" d="M0,2.48 L0,-2.48 " class="primitive"/>
    </g>
    <g transform="translate(18.98,105.87)" stroke="#3B1E42">
      <path fill="none" d="M-7.24,0 L7.24,0 " class="primitive"/>
    </g>
    <g transform="translate(26.22,105.87)" stroke="#3B1E42">
      <path fill="none" d="M0,4.96 L0,-4.96 " class="primitive"/>
    </g>
    <g transform="translate(10.88,95.95)" stroke="#3B1E42">
      <path fill="none" d="M-0.86,0 L0.86,0 " class="primitive"/>
    </g>
    <g transform="translate(11.74,95.95)" stroke="#3B1E42">
      <path fill="none" d="M0,9.92 L0,-9.92 " class="primitive"/>
    </g>
    <g transform="translate(6.88,77.36)" stroke="#3B1E42">
      <path fill="none" d="M-3.13,0 L3.13,0 " class="primitive"/>
    </g>
    <g transform="translate(10.02,77.36)" stroke="#3B1E42">
      <path fill="none" d="M0,18.6 L0,-18.6 " class="primitive"/>
    </g>
    <g transform="translate(3.75,51.94)" stroke="#000000">
      <path fill="none" d="M0,0 L0,0 " class="primitive"/>
    </g>
    <g transform="translate(3.75,51.94)" stroke="#000000">
      <path fill="none" d="M0,25.41 L0,-25.41 " class="primitive"/>
    </g>
    <g transform="translate(3.75,28.7)" stroke="#000000">
      <path fill="none" d="M0,0 L0,0 " class="primitive"/>
    </g>
    <g transform="translate(3.75,28.7)" stroke="#000000">
      <path fill="none" d="M0,23.24 L0,-23.24 " class="primitive"/>
    </g>
  </g>
  <g stroke-opacity="1" stroke-width="0.3" id="img-29b4c979-3">
    <g transform="translate(31.06,48.84)" stroke="#3B1E42">
      <path fill="none" d="M0,1.24 L0,-1.24 " class="primitive"/>
    </g>
    <g transform="translate(48.74,52.56)" stroke="#3B1E42">
      <path fill="none" d="M-2.1,0 L2.1,0 " class="primitive"/>
    </g>
    <g transform="translate(58.04,55.04)" stroke="#E8B740">
      <path fill="none" d="M-11.4,0 L11.4,0 " class="primitive"/>
    </g>
    <g transform="translate(33.66,53.8)" stroke="#E8B740">
      <path fill="none" d="M-12.98,0 L12.98,0 " class="primitive"/>
    </g>
    <g transform="translate(46.64,53.8)" stroke="#E8B740">
      <path fill="none" d="M0,1.24 L0,-1.24 " class="primitive"/>
    </g>
    <g transform="translate(19.9,51.32)" stroke="#3B1E42">
      <path fill="none" d="M-0.78,0 L0.78,0 " class="primitive"/>
    </g>
    <g transform="translate(20.68,51.32)" stroke="#3B1E42">
      <path fill="none" d="M0,2.48 L0,-2.48 " class="primitive"/>
    </g>
    <g transform="translate(29.47,57.52)" stroke="#3B1E42">
      <path fill="none" d="M-0.64,0 L0.64,0 " class="primitive"/>
    </g>
    <g transform="translate(39.55,60)" stroke="#3B1E42">
      <path fill="none" d="M-10.73,0 L10.73,0 " class="primitive"/>
    </g>
    <g transform="translate(28.39,58.76)" stroke="#3B1E42">
      <path fill="none" d="M-0.44,0 L0.44,0 " class="primitive"/>
    </g>
    <g transform="translate(28.83,58.76)" stroke="#3B1E42">
      <path fill="none" d="M0,1.24 L0,-1.24 " class="primitive"/>
    </g>
    <g transform="translate(50.78,62.48)" stroke="#3B1E42">
      <path fill="none" d="M-0.85,0 L0.85,0 " class="primitive"/>
    </g>
    <g transform="translate(51.84,64.96)" stroke="#3B1E42">
      <path fill="none" d="M-1.91,0 L1.91,0 " class="primitive"/>
    </g>
    <g transform="translate(38.94,63.72)" stroke="#3B1E42">
      <path fill="none" d="M-10.99,0 L10.99,0 " class="primitive"/>
    </g>
    <g transform="translate(49.93,63.72)" stroke="#3B1E42">
      <path fill="none" d="M0,1.24 L0,-1.24 " class="primitive"/>
    </g>
    <g transform="translate(26.45,61.24)" stroke="#E8B740">
      <path fill="none" d="M-1.5,0 L1.5,0 " class="primitive"/>
    </g>
    <g transform="translate(27.95,61.24)" stroke="#E8B740">
      <path fill="none" d="M0,2.48 L0,-2.48 " class="primitive"/>
    </g>
    <g transform="translate(61.85,67.44)" stroke="#3B1E42">
      <path fill="none" d="M-9.93,0 L9.93,0 " class="primitive"/>
    </g>
    <g transform="translate(57.57,69.92)" stroke="#3B1E42">
      <path fill="none" d="M-5.65,0 L5.65,0 " class="primitive"/>
    </g>
    <g transform="translate(49.45,68.68)" stroke="#E8B740">
      <path fill="none" d="M-2.47,0 L2.47,0 " class="primitive"/>
    </g>
    <g transform="translate(51.92,68.68)" stroke="#E8B740">
      <path fill="none" d="M0,1.24 L0,-1.24 " class="primitive"/>
    </g>
    <g transform="translate(51.72,72.4)" stroke="#3B1E42">
      <path fill="none" d="M-2.25,0 L2.25,0 " class="primitive"/>
    </g>
    <g transform="translate(52.94,74.88)" stroke="#E8B740">
      <path fill="none" d="M-3.48,0 L3.48,0 " class="primitive"/>
    </g>
    <g transform="translate(48.22,73.64)" stroke="#3B1E42">
      <path fill="none" d="M-1.25,0 L1.25,0 " class="primitive"/>
    </g>
    <g transform="translate(49.47,73.64)" stroke="#3B1E42">
      <path fill="none" d="M0,1.24 L0,-1.24 " class="primitive"/>
    </g>
    <g transform="translate(35.96,71.16)" stroke="#3B1E42">
      <path fill="none" d="M-11.01,0 L11.01,0 " class="primitive"/>
    </g>
    <g transform="translate(46.97,71.16)" stroke="#3B1E42">
      <path fill="none" d="M0,2.48 L0,-2.48 " class="primitive"/>
    </g>
    <g transform="translate(22.03,66.2)" stroke="#E8B740">
      <path fill="none" d="M-2.91,0 L2.91,0 " class="primitive"/>
    </g>
    <g transform="translate(24.94,66.2)" stroke="#E8B740">
      <path fill="none" d="M0,4.96 L0,-4.96 " class="primitive"/>
    </g>
    <g transform="translate(14.57,58.76)" stroke="#3B1E42">
      <path fill="none" d="M-4.55,0 L4.55,0 " class="primitive"/>
    </g>
    <g transform="translate(19.12,58.76)" stroke="#3B1E42">
      <path fill="none" d="M0,7.44 L0,-7.44 " class="primitive"/>
    </g>
    <g transform="translate(36.68,77.36)" stroke="#E8B740">
      <path fill="none" d="M-1.92,0 L1.92,0 " class="primitive"/>
    </g>
    <g transform="translate(38.24,79.83)" stroke="#E8B740">
      <path fill="none" d="M-3.49,0 L3.49,0 " class="primitive"/>
    </g>
    <g transform="translate(25.05,78.6)" stroke="#E8B740">
      <path fill="none" d="M-9.71,0 L9.71,0 " class="primitive"/>
    </g>
    <g transform="translate(34.76,78.6)" stroke="#E8B740">
      <path fill="none" d="M0,1.24 L0,-1.24 " class="primitive"/>
    </g>
    <g transform="translate(37.78,82.31)" stroke="#E8B740">
      <path fill="none" d="M-6.07,0 L6.07,0 " class="primitive"/>
    </g>
    <g transform="translate(31.94,84.79)" stroke="#3B1E42">
      <path fill="none" d="M-0.23,0 L0.23,0 " class="primitive"/>
    </g>
    <g transform="translate(23.52,83.55)" stroke="#3B1E42">
      <path fill="none" d="M-8.18,0 L8.18,0 " class="primitive"/>
    </g>
    <g transform="translate(31.7,83.55)" stroke="#3B1E42">
      <path fill="none" d="M0,1.24 L0,-1.24 " class="primitive"/>
    </g>
    <g transform="translate(15.04,81.07)" stroke="#E8B740">
      <path fill="none" d="M-0.3,0 L0.3,0 " class="primitive"/>
    </g>
    <g transform="translate(15.34,81.07)" stroke="#E8B740">
      <path fill="none" d="M0,2.48 L0,-2.48 " class="primitive"/>
    </g>
    <g transform="translate(27.58,87.27)" stroke="#3B1E42">
      <path fill="none" d="M-9.31,0 L9.31,0 " class="primitive"/>
    </g>
    <g transform="translate(23.47,89.75)" stroke="#E8B740">
      <path fill="none" d="M-5.2,0 L5.2,0 " class="primitive"/>
    </g>
    <g transform="translate(17.53,88.51)" stroke="#3B1E42">
      <path fill="none" d="M-0.74,0 L0.74,0 " class="primitive"/>
    </g>
    <g transform="translate(18.28,88.51)" stroke="#3B1E42">
      <path fill="none" d="M0,1.24 L0,-1.24 " class="primitive"/>
    </g>
    <g transform="translate(19.45,92.23)" stroke="#3B1E42">
      <path fill="none" d="M-0.76,0 L0.76,0 " class="primitive"/>
    </g>
    <g transform="translate(21.74,94.71)" stroke="#3B1E42">
      <path fill="none" d="M-3.05,0 L3.05,0 " class="primitive"/>
    </g>
    <g transform="translate(17.74,93.47)" stroke="#3B1E42">
      <path fill="none" d="M-0.95,0 L0.95,0 " class="primitive"/>
    </g>
    <g transform="translate(18.69,93.47)" stroke="#3B1E42">
      <path fill="none" d="M0,1.24 L0,-1.24 " class="primitive"/>
    </g>
    <g transform="translate(15.77,90.99)" stroke="#3B1E42">
      <path fill="none" d="M-1.02,0 L1.02,0 " class="primitive"/>
    </g>
    <g transform="translate(16.79,90.99)" stroke="#3B1E42">
      <path fill="none" d="M0,2.48 L0,-2.48 " class="primitive"/>
    </g>
  </g>
</g>
<g fill-opacity="1" id="img-29b4c979-4">
  <g transform="translate(4.06,5.45)" fill="#3B1E42">
    <circle cx="0" cy="0" r="0.75" class="primitive"/>
  </g>
  <g transform="translate(32.19,7.93)" fill="#3B1E42">
    <circle cx="0" cy="0" r="0.75" class="primitive"/>
  </g>
  <g transform="translate(46.6,10.41)" fill="#3B1E42">
    <circle cx="0" cy="0" r="0.75" class="primitive"/>
  </g>
  <g transform="translate(29.04,9.17)" fill="#3B1E42">
    <circle cx="0" cy="0" r="0.75" class="primitive"/>
  </g>
  <g transform="translate(32.62,12.89)" fill="#E8B740">
    <circle cx="0" cy="0" r="0.75" class="primitive"/>
  </g>
  <g transform="translate(28.03,15.37)" fill="#3B1E42">
    <circle cx="0" cy="0" r="0.75" class="primitive"/>
  </g>
  <g transform="translate(27.62,14.13)" fill="#3B1E42">
    <circle cx="0" cy="0" r="0.75" class="primitive"/>
  </g>
  <g transform="translate(21.99,11.65)" fill="#3B1E42">
    <circle cx="0" cy="0" r="0.75" class="primitive"/>
  </g>
  <g transform="translate(31.85,17.85)" fill="#3B1E42">
    <circle cx="0" cy="0" r="0.75" class="primitive"/>
  </g>
  <g transform="translate(41.42,20.33)" fill="#E8B740">
    <circle cx="0" cy="0" r="0.75" class="primitive"/>
  </g>
  <g transform="translate(22.23,19.09)" fill="#E8B740">
    <circle cx="0" cy="0" r="0.75" class="primitive"/>
  </g>
  <g transform="translate(26.78,22.81)" fill="#3B1E42">
    <circle cx="0" cy="0" r="0.75" class="primitive"/>
  </g>
  <g transform="translate(24.79,25.29)" fill="#3B1E42">
    <circle cx="0" cy="0" r="0.75" class="primitive"/>
  </g>
  <g transform="translate(24.77,24.05)" fill="#E8B740">
    <circle cx="0" cy="0" r="0.75" class="primitive"/>
  </g>
  <g transform="translate(17.94,21.57)" fill="#E8B740">
    <circle cx="0" cy="0" r="0.75" class="primitive"/>
  </g>
  <g transform="translate(16.94,16.61)" fill="#E8B740">
    <circle cx="0" cy="0" r="0.75" class="primitive"/>
  </g>
  <g transform="translate(34.44,27.77)" fill="#3B1E42">
    <circle cx="0" cy="0" r="0.75" class="primitive"/>
  </g>
  <g transform="translate(42.72,30.25)" fill="#E8B740">
    <circle cx="0" cy="0" r="0.75" class="primitive"/>
  </g>
  <g transform="translate(25.11,29.01)" fill="#3B1E42">
    <circle cx="0" cy="0" r="0.75" class="primitive"/>
  </g>
  <g transform="translate(33.77,32.73)" fill="#E8B740">
    <circle cx="0" cy="0" r="0.75" class="primitive"/>
  </g>
  <g transform="translate(35.9,35.21)" fill="#E8B740">
    <circle cx="0" cy="0" r="0.75" class="primitive"/>
  </g>
  <g transform="translate(32.41,33.97)" fill="#3B1E42">
    <circle cx="0" cy="0" r="0.75" class="primitive"/>
  </g>
  <g transform="translate(23.32,31.49)" fill="#3B1E42">
    <circle cx="0" cy="0" r="0.75" class="primitive"/>
  </g>
  <g transform="translate(68.12,37.69)" fill="#E8B740">
    <circle cx="0" cy="0" r="0.75" class="primitive"/>
  </g>
  <g transform="translate(37.8,40.17)" fill="#3B1E42">
    <circle cx="0" cy="0" r="0.75" class="primitive"/>
  </g>
  <g transform="translate(33.41,38.93)" fill="#3B1E42">
    <circle cx="0" cy="0" r="0.75" class="primitive"/>
  </g>
  <g transform="translate(74.22,42.64)" fill="#E8B740">
    <circle cx="0" cy="0" r="0.75" class="primitive"/>
  </g>
  <g transform="translate(40.81,45.12)" fill="#E8B740">
    <circle cx="0" cy="0" r="0.75" class="primitive"/>
  </g>
  <g transform="translate(32.59,43.88)" fill="#3B1E42">
    <circle cx="0" cy="0" r="0.75" class="primitive"/>
  </g>
  <g transform="translate(30.67,41.4)" fill="#E8B740">
    <circle cx="0" cy="0" r="0.75" class="primitive"/>
  </g>
  <g transform="translate(17.28,36.45)" fill="#3B1E42">
    <circle cx="0" cy="0" r="0.75" class="primitive"/>
  </g>
  <g transform="translate(8.76,26.53)" fill="#3B1E42">
    <circle cx="0" cy="0" r="0.75" class="primitive"/>
  </g>
  <g transform="translate(34.88,47.6)" fill="#3B1E42">
    <circle cx="0" cy="0" r="0.75" class="primitive"/>
  </g>
  <g transform="translate(55.98,50.08)" fill="#3B1E42">
    <circle cx="0" cy="0" r="0.75" class="primitive"/>
  </g>
  <g transform="translate(31.06,48.84)" fill="#3B1E42">
    <circle cx="0" cy="0" r="0.75" class="primitive"/>
  </g>
  <g transform="translate(50.84,52.56)" fill="#3B1E42">
    <circle cx="0" cy="0" r="0.75" class="primitive"/>
  </g>
  <g transform="translate(69.44,55.04)" fill="#E8B740">
    <circle cx="0" cy="0" r="0.75" class="primitive"/>
  </g>
  <g transform="translate(46.64,53.8)" fill="#E8B740">
    <circle cx="0" cy="0" r="0.75" class="primitive"/>
  </g>
  <g transform="translate(20.68,51.32)" fill="#3B1E42">
    <circle cx="0" cy="0" r="0.75" class="primitive"/>
  </g>
  <g transform="translate(30.11,57.52)" fill="#3B1E42">
    <circle cx="0" cy="0" r="0.75" class="primitive"/>
  </g>
  <g transform="translate(50.28,60)" fill="#3B1E42">
    <circle cx="0" cy="0" r="0.75" class="primitive"/>
  </g>
  <g transform="translate(28.83,58.76)" fill="#3B1E42">
    <circle cx="0" cy="0" r="0.75" class="primitive"/>
  </g>
  <g transform="translate(51.64,62.48)" fill="#3B1E42">
    <circle cx="0" cy="0" r="0.75" class="primitive"/>
  </g>
  <g transform="translate(53.74,64.96)" fill="#3B1E42">
    <circle cx="0" cy="0" r="0.75" class="primitive"/>
  </g>
  <g transform="translate(49.93,63.72)" fill="#3B1E42">
    <circle cx="0" cy="0" r="0.75" class="primitive"/>
  </g>
  <g transform="translate(27.95,61.24)" fill="#E8B740">
    <circle cx="0" cy="0" r="0.75" class="primitive"/>
  </g>
  <g transform="translate(71.78,67.44)" fill="#3B1E42">
    <circle cx="0" cy="0" r="0.75" class="primitive"/>
  </g>
  <g transform="translate(63.21,69.92)" fill="#3B1E42">
    <circle cx="0" cy="0" r="0.75" class="primitive"/>
  </g>
  <g transform="translate(51.92,68.68)" fill="#E8B740">
    <circle cx="0" cy="0" r="0.75" class="primitive"/>
  </g>
  <g transform="translate(53.97,72.4)" fill="#3B1E42">
    <circle cx="0" cy="0" r="0.75" class="primitive"/>
  </g>
  <g transform="translate(56.42,74.88)" fill="#E8B740">
    <circle cx="0" cy="0" r="0.75" class="primitive"/>
  </g>
  <g fill-opacity="1" id="img-29b4c979-5">
    <g transform="translate(56.42,74.88)" fill="#E8B740">
      <circle cx="0" cy="0" r="0.75" class="primitive"/>
    </g>
    <g transform="translate(49.47,73.64)" fill="#3B1E42">
      <circle cx="0" cy="0" r="0.75" class="primitive"/>
    </g>
    <g transform="translate(46.97,71.16)" fill="#3B1E42">
      <circle cx="0" cy="0" r="0.75" class="primitive"/>
    </g>
    <g transform="translate(24.94,66.2)" fill="#E8B740">
      <circle cx="0" cy="0" r="0.75" class="primitive"/>
    </g>
    <g transform="translate(19.12,58.76)" fill="#3B1E42">
      <circle cx="0" cy="0" r="0.75" class="primitive"/>
    </g>
    <g transform="translate(38.6,77.36)" fill="#E8B740">
      <circle cx="0" cy="0" r="0.75" class="primitive"/>
    </g>
    <g transform="translate(41.73,79.83)" fill="#E8B740">
      <circle cx="0" cy="0" r="0.75" class="primitive"/>
    </g>
    <g transform="translate(34.76,78.6)" fill="#E8B740">
      <circle cx="0" cy="0" r="0.75" class="primitive"/>
    </g>
    <g transform="translate(43.85,82.31)" fill="#E8B740">
      <circle cx="0" cy="0" r="0.75" class="primitive"/>
    </g>
    <g transform="translate(32.17,84.79)" fill="#3B1E42">
      <circle cx="0" cy="0" r="0.75" class="primitive"/>
    </g>
    <g transform="translate(31.7,83.55)" fill="#3B1E42">
      <circle cx="0" cy="0" r="0.75" class="primitive"/>
    </g>
    <g transform="translate(15.34,81.07)" fill="#E8B740">
      <circle cx="0" cy="0" r="0.75" class="primitive"/>
    </g>
    <g transform="translate(36.89,87.27)" fill="#3B1E42">
      <circle cx="0" cy="0" r="0.75" class="primitive"/>
    </g>
    <g transform="translate(28.67,89.75)" fill="#E8B740">
      <circle cx="0" cy="0" r="0.75" class="primitive"/>
    </g>
    <g transform="translate(18.28,88.51)" fill="#3B1E42">
      <circle cx="0" cy="0" r="0.75" class="primitive"/>
    </g>
    <g transform="translate(20.21,92.23)" fill="#3B1E42">
      <circle cx="0" cy="0" r="0.75" class="primitive"/>
    </g>
    <g transform="translate(24.8,94.71)" fill="#3B1E42">
      <circle cx="0" cy="0" r="0.75" class="primitive"/>
    </g>
    <g transform="translate(18.69,93.47)" fill="#3B1E42">
      <circle cx="0" cy="0" r="0.75" class="primitive"/>
    </g>
    <g transform="translate(16.79,90.99)" fill="#3B1E42">
      <circle cx="0" cy="0" r="0.75" class="primitive"/>
    </g>
    <g transform="translate(14.74,86.03)" fill="#3B1E42">
      <circle cx="0" cy="0" r="0.75" class="primitive"/>
    </g>
    <g transform="translate(78.22,97.19)" fill="#E8B740">
      <circle cx="0" cy="0" r="0.75" class="primitive"/>
    </g>
    <g transform="translate(74.73,99.67)" fill="#3B1E42">
      <circle cx="0" cy="0" r="0.75" class="primitive"/>
    </g>
    <g transform="translate(61.28,98.43)" fill="#3B1E42">
      <circle cx="0" cy="0" r="0.75" class="primitive"/>
    </g>
    <g transform="translate(68.53,102.15)" fill="#3B1E42">
      <circle cx="0" cy="0" r="0.75" class="primitive"/>
    </g>
    <g transform="translate(78.75,104.63)" fill="#3B1E42">
      <circle cx="0" cy="0" r="0.75" class="primitive"/>
    </g>
    <g transform="translate(68.03,103.39)" fill="#3B1E42">
      <circle cx="0" cy="0" r="0.75" class="primitive"/>
    </g>
    <g transform="translate(52.07,100.91)" fill="#E8B740">
      <circle cx="0" cy="0" r="0.75" class="primitive"/>
    </g>
    <g transform="translate(35.4,107.11)" fill="#3B1E42">
      <circle cx="0" cy="0" r="0.75" class="primitive"/>
    </g>
    <g transform="translate(37.11,109.59)" fill="#3B1E42">
      <circle cx="0" cy="0" r="0.75" class="primitive"/>
    </g>
    <g transform="translate(34.62,108.35)" fill="#3B1E42">
      <circle cx="0" cy="0" r="0.75" class="primitive"/>
    </g>
    <g transform="translate(37.39,112.07)" fill="#3B1E42">
      <circle cx="0" cy="0" r="0.75" class="primitive"/>
    </g>
    <g transform="translate(37.86,114.55)" fill="#3B1E42">
      <circle cx="0" cy="0" r="0.75" class="primitive"/>
    </g>
    <g transform="translate(36.81,113.31)" fill="#3B1E42">
      <circle cx="0" cy="0" r="0.75" class="primitive"/>
    </g>
    <g transform="translate(27.24,110.83)" fill="#3B1E42">
      <circle cx="0" cy="0" r="0.75" class="primitive"/>
    </g>
    <g transform="translate(26.22,105.87)" fill="#3B1E42">
      <circle cx="0" cy="0" r="0.75" class="primitive"/>
    </g>
    <g transform="translate(11.74,95.95)" fill="#3B1E42">
      <circle cx="0" cy="0" r="0.75" class="primitive"/>
    </g>
    <g transform="translate(10.02,77.36)" fill="#3B1E42">
      <circle cx="0" cy="0" r="0.75" class="primitive"/>
    </g>
    <g transform="translate(3.75,51.94)" fill="#000000">
      <circle cx="0" cy="0" r="0.75" class="primitive"/>
    </g>
    <g transform="translate(3.75,28.7)" fill="#000000">
      <circle cx="0" cy="0" r="0.75" class="primitive"/>
    </g>
  </g>
</g>
<g stroke-opacity="1" fill-opacity="1" font-size="1.41" stroke-width="0.1" id="img-29b4c979-6">
  <g transform="translate(5.93,5.45)" stroke="#000000">
    <g class="primitive">
      <text dy="0.35em">N44</text>
    </g>
  </g>
  <g transform="translate(34.06,7.93)" stroke="#000000">
    <g class="primitive">
      <text dy="0.35em">N24</text>
    </g>
  </g>
  <g transform="translate(48.48,10.41)" stroke="#000000">
    <g class="primitive">
      <text dy="0.35em">N25</text>
    </g>
  </g>
  <g transform="translate(30.91,9.17)" stroke="#000000">
    <g class="primitive">
      <text dy="0.35em">N57</text>
    </g>
  </g>
  <g transform="translate(34.5,12.89)" stroke="#000000">
    <g class="primitive">
      <text dy="0.35em">N26</text>
    </g>
  </g>
  <g transform="translate(29.9,15.37)" stroke="#000000">
    <g class="primitive">
      <text dy="0.35em">N27</text>
    </g>
  </g>
  <g transform="translate(29.49,14.13)" stroke="#000000">
    <g class="primitive">
      <text dy="0.35em">N58</text>
    </g>
  </g>
  <g transform="translate(23.87,11.65)" stroke="#000000">
    <g class="primitive">
      <text dy="0.35em">N73</text>
    </g>
  </g>
  <g transform="translate(33.72,17.85)" stroke="#000000">
    <g class="primitive">
      <text dy="0.35em">N28</text>
    </g>
  </g>
  <g transform="translate(43.29,20.33)" stroke="#000000">
    <g class="primitive">
      <text dy="0.35em">N29</text>
    </g>
  </g>
  <g transform="translate(24.11,19.09)" stroke="#000000">
    <g class="primitive">
      <text dy="0.35em">N59</text>
    </g>
  </g>
  <g transform="translate(28.65,22.81)" stroke="#000000">
    <g class="primitive">
      <text dy="0.35em">N30</text>
    </g>
  </g>
  <g transform="translate(26.66,25.29)" stroke="#000000">
    <g class="primitive">
      <text dy="0.35em">N31</text>
    </g>
  </g>
  <g transform="translate(26.65,24.05)" stroke="#000000">
    <g class="primitive">
      <text dy="0.35em">N60</text>
    </g>
  </g>
  <g transform="translate(19.82,21.57)" stroke="#000000">
    <g class="primitive">
      <text dy="0.35em">N74</text>
    </g>
  </g>
  <g transform="translate(18.81,16.61)" stroke="#000000">
    <g class="primitive">
      <text dy="0.35em">N81</text>
    </g>
  </g>
  <g transform="translate(36.31,27.77)" stroke="#000000">
    <g class="primitive">
      <text dy="0.35em">N32</text>
    </g>
  </g>
  <g transform="translate(44.6,30.25)" stroke="#000000">
    <g class="primitive">
      <text dy="0.35em">N33</text>
    </g>
  </g>
  <g transform="translate(26.99,29.01)" stroke="#000000">
    <g class="primitive">
      <text dy="0.35em">N61</text>
    </g>
  </g>
  <g transform="translate(35.65,32.73)" stroke="#000000">
    <g class="primitive">
      <text dy="0.35em">N34</text>
    </g>
  </g>
  <g transform="translate(37.78,35.21)" stroke="#000000">
    <g class="primitive">
      <text dy="0.35em">N35</text>
    </g>
  </g>
  <g transform="translate(34.28,33.97)" stroke="#000000">
    <g class="primitive">
      <text dy="0.35em">N62</text>
    </g>
  </g>
  <g transform="translate(25.19,31.49)" stroke="#000000">
    <g class="primitive">
      <text dy="0.35em">N75</text>
    </g>
  </g>
  <g transform="translate(70,37.69)" stroke="#000000">
    <g class="primitive">
      <text dy="0.35em">N36</text>
    </g>
  </g>
  <g transform="translate(39.67,40.17)" stroke="#000000">
    <g class="primitive">
      <text dy="0.35em">N37</text>
    </g>
  </g>
  <g transform="translate(35.29,38.93)" stroke="#000000">
    <g class="primitive">
      <text dy="0.35em">N63</text>
    </g>
  </g>
  <g transform="translate(76.09,42.64)" stroke="#000000">
    <g class="primitive">
      <text dy="0.35em">N38</text>
    </g>
  </g>
  <g transform="translate(42.69,45.12)" stroke="#000000">
    <g class="primitive">
      <text dy="0.35em">N39</text>
    </g>
  </g>
  <g transform="translate(34.47,43.88)" stroke="#000000">
    <g class="primitive">
      <text dy="0.35em">N64</text>
    </g>
  </g>
  <g transform="translate(32.55,41.4)" stroke="#000000">
    <g class="primitive">
      <text dy="0.35em">N76</text>
    </g>
  </g>
  <g transform="translate(19.16,36.45)" stroke="#000000">
    <g class="primitive">
      <text dy="0.35em">N82</text>
    </g>
  </g>
  <g transform="translate(10.63,26.53)" stroke="#000000">
    <g class="primitive">
      <text dy="0.35em">N85</text>
    </g>
  </g>
  <g transform="translate(36.75,47.6)" stroke="#000000">
    <g class="primitive">
      <text dy="0.35em">N40</text>
    </g>
  </g>
  <g transform="translate(57.85,50.08)" stroke="#000000">
    <g class="primitive">
      <text dy="0.35em">N41</text>
    </g>
  </g>
  <g transform="translate(32.93,48.84)" stroke="#000000">
    <g class="primitive">
      <text dy="0.35em">N65</text>
    </g>
  </g>
  <g transform="translate(52.71,52.56)" stroke="#000000">
    <g class="primitive">
      <text dy="0.35em">N42</text>
    </g>
  </g>
  <g transform="translate(71.32,55.04)" stroke="#000000">
    <g class="primitive">
      <text dy="0.35em">N43</text>
    </g>
  </g>
  <g transform="translate(48.52,53.8)" stroke="#000000">
    <g class="primitive">
      <text dy="0.35em">N66</text>
    </g>
  </g>
  <g transform="translate(22.55,51.32)" stroke="#000000">
    <g class="primitive">
      <text dy="0.35em">N77</text>
    </g>
  </g>
  <g transform="translate(31.98,57.52)" stroke="#000000">
    <g class="primitive">
      <text dy="0.35em">N0</text>
    </g>
  </g>
  <g transform="translate(52.15,60)" stroke="#000000">
    <g class="primitive">
      <text dy="0.35em">N1</text>
    </g>
  </g>
  <g transform="translate(30.7,58.76)" stroke="#000000">
    <g class="primitive">
      <text dy="0.35em">N45</text>
    </g>
  </g>
  <g transform="translate(53.51,62.48)" stroke="#000000">
    <g class="primitive">
      <text dy="0.35em">N2</text>
    </g>
  </g>
  <g transform="translate(55.62,64.96)" stroke="#000000">
    <g class="primitive">
      <text dy="0.35em">N3</text>
    </g>
  </g>
  <g transform="translate(51.8,63.72)" stroke="#000000">
    <g class="primitive">
      <text dy="0.35em">N46</text>
    </g>
  </g>
  <g transform="translate(29.83,61.24)" stroke="#000000">
    <g class="primitive">
      <text dy="0.35em">N67</text>
    </g>
  </g>
  <g transform="translate(73.65,67.44)" stroke="#000000">
    <g class="primitive">
      <text dy="0.35em">N4</text>
    </g>
  </g>
  <g transform="translate(65.09,69.92)" stroke="#000000">
    <g class="primitive">
      <text dy="0.35em">N5</text>
    </g>
  </g>
  <g transform="translate(53.8,68.68)" stroke="#000000">
    <g class="primitive">
      <text dy="0.35em">N47</text>
    </g>
  </g>
  <g transform="translate(55.85,72.4)" stroke="#000000">
    <g class="primitive">
      <text dy="0.35em">N6</text>
    </g>
  </g>
  <g transform="translate(58.3,74.88)" stroke="#000000">
    <g class="primitive">
      <text dy="0.35em">N7</text>
    </g>
  </g>
  <g stroke-opacity="1" fill-opacity="1" font-size="1.41" stroke-width="0.1" id="img-29b4c979-7">
    <g transform="translate(58.3,74.88)" stroke="#000000">
      <g class="primitive">
        <text dy="0.35em">N7</text>
      </g>
    </g>
    <g transform="translate(51.34,73.64)" stroke="#000000">
      <g class="primitive">
        <text dy="0.35em">N48</text>
      </g>
    </g>
    <g transform="translate(48.85,71.16)" stroke="#000000">
      <g class="primitive">
        <text dy="0.35em">N68</text>
      </g>
    </g>
    <g transform="translate(26.82,66.2)" stroke="#000000">
      <g class="primitive">
        <text dy="0.35em">N78</text>
      </g>
    </g>
    <g transform="translate(21,58.76)" stroke="#000000">
      <g class="primitive">
        <text dy="0.35em">N83</text>
      </g>
    </g>
    <g transform="translate(40.47,77.36)" stroke="#000000">
      <g class="primitive">
        <text dy="0.35em">N8</text>
      </g>
    </g>
    <g transform="translate(43.61,79.83)" stroke="#000000">
      <g class="primitive">
        <text dy="0.35em">N9</text>
      </g>
    </g>
    <g transform="translate(36.63,78.6)" stroke="#000000">
      <g class="primitive">
        <text dy="0.35em">N49</text>
      </g>
    </g>
    <g transform="translate(45.73,82.31)" stroke="#000000">
      <g class="primitive">
        <text dy="0.35em">N10</text>
      </g>
    </g>
    <g transform="translate(34.05,84.79)" stroke="#000000">
      <g class="primitive">
        <text dy="0.35em">N11</text>
      </g>
    </g>
    <g transform="translate(33.58,83.55)" stroke="#000000">
      <g class="primitive">
        <text dy="0.35em">N50</text>
      </g>
    </g>
    <g transform="translate(17.21,81.07)" stroke="#000000">
      <g class="primitive">
        <text dy="0.35em">N69</text>
      </g>
    </g>
    <g transform="translate(38.76,87.27)" stroke="#000000">
      <g class="primitive">
        <text dy="0.35em">N12</text>
      </g>
    </g>
    <g transform="translate(30.54,89.75)" stroke="#000000">
      <g class="primitive">
        <text dy="0.35em">N13</text>
      </g>
    </g>
    <g transform="translate(20.15,88.51)" stroke="#000000">
      <g class="primitive">
        <text dy="0.35em">N51</text>
      </g>
    </g>
    <g transform="translate(22.09,92.23)" stroke="#000000">
      <g class="primitive">
        <text dy="0.35em">N14</text>
      </g>
    </g>
    <g transform="translate(26.67,94.71)" stroke="#000000">
      <g class="primitive">
        <text dy="0.35em">N15</text>
      </g>
    </g>
    <g transform="translate(20.57,93.47)" stroke="#000000">
      <g class="primitive">
        <text dy="0.35em">N52</text>
      </g>
    </g>
    <g transform="translate(18.66,90.99)" stroke="#000000">
      <g class="primitive">
        <text dy="0.35em">N70</text>
      </g>
    </g>
    <g transform="translate(16.62,86.03)" stroke="#000000">
      <g class="primitive">
        <text dy="0.35em">N79</text>
      </g>
    </g>
    <g transform="translate(80.09,97.19)" stroke="#000000">
      <g class="primitive">
        <text dy="0.35em">N16</text>
      </g>
    </g>
    <g transform="translate(76.61,99.67)" stroke="#000000">
      <g class="primitive">
        <text dy="0.35em">N17</text>
      </g>
    </g>
    <g transform="translate(63.15,98.43)" stroke="#000000">
      <g class="primitive">
        <text dy="0.35em">N53</text>
      </g>
    </g>
    <g transform="translate(70.4,102.15)" stroke="#000000">
      <g class="primitive">
        <text dy="0.35em">N18</text>
      </g>
    </g>
    <g transform="translate(80.62,104.63)" stroke="#000000">
      <g class="primitive">
        <text dy="0.35em">N19</text>
      </g>
    </g>
    <g transform="translate(69.91,103.39)" stroke="#000000">
      <g class="primitive">
        <text dy="0.35em">N54</text>
      </g>
    </g>
    <g transform="translate(53.95,100.91)" stroke="#000000">
      <g class="primitive">
        <text dy="0.35em">N71</text>
      </g>
    </g>
    <g transform="translate(37.27,107.11)" stroke="#000000">
      <g class="primitive">
        <text dy="0.35em">N20</text>
      </g>
    </g>
    <g transform="translate(38.99,109.59)" stroke="#000000">
      <g class="primitive">
        <text dy="0.35em">N21</text>
      </g>
    </g>
    <g transform="translate(36.5,108.35)" stroke="#000000">
      <g class="primitive">
        <text dy="0.35em">N55</text>
      </g>
    </g>
    <g transform="translate(39.26,112.07)" stroke="#000000">
      <g class="primitive">
        <text dy="0.35em">N22</text>
      </g>
    </g>
    <g transform="translate(39.73,114.55)" stroke="#000000">
      <g class="primitive">
        <text dy="0.35em">N23</text>
      </g>
    </g>
    <g transform="translate(38.69,113.31)" stroke="#000000">
      <g class="primitive">
        <text dy="0.35em">N56</text>
      </g>
    </g>
    <g transform="translate(29.12,110.83)" stroke="#000000">
      <g class="primitive">
        <text dy="0.35em">N72</text>
      </g>
    </g>
    <g transform="translate(28.09,105.87)" stroke="#000000">
      <g class="primitive">
        <text dy="0.35em">N80</text>
      </g>
    </g>
    <g transform="translate(13.62,95.95)" stroke="#000000">
      <g class="primitive">
        <text dy="0.35em">N84</text>
      </g>
    </g>
    <g transform="translate(11.89,77.36)" stroke="#000000">
      <g class="primitive">
        <text dy="0.35em">N86</text>
      </g>
    </g>
    <g transform="translate(5.63,51.94)" stroke="#000000">
      <g class="primitive">
        <text dy="0.35em"></text>
      </g>
    </g>
    <g transform="translate(5.63,28.7)" stroke="#000000">
      <g class="primitive">
        <text dy="0.35em"></text>
      </g>
    </g>
  </g>
</g>
</svg>
