<?xml version="1.0" encoding="UTF-8"?>
<svg xmlns="http://www.w3.org/2000/svg"
     xmlns:xlink="http://www.w3.org/1999/xlink"
     version="1.2"
     width="150mm" height="48mm" viewBox="0 0 150 48"
     stroke="none"
     fill="#000000"
     stroke-width="0.3"
     font-size="3.88"
>
<defs>
  <marker id="arrow" markerWidth="15" markerHeight="7" refX="5" refY="3.5" orient="auto" markerUnits="strokeWidth">
    <path d="M0,0 L15,3.5 L0,7 z" stroke="context-stroke" fill="context-stroke"/>
  </marker>
</defs>
<g stroke-opacity="1" stroke-width="0.3" id="img-d6e1d110-1">
  <g transform="translate(11.84,2.18)" stroke="#2DC977">
    <path fill="none" d="M-8.09,0 L8.09,0 " class="primitive"/>
  </g>
  <g transform="translate(64.33,7.64)" stroke="#2DC977">
    <path fill="none" d="M-14.42,0 L14.42,0 " class="primitive"/>
  </g>
  <g transform="translate(60.92,13.09)" stroke="#175F30">
    <path fill="none" d="M-11,0 L11,0 " class="primitive"/>
  </g>
  <g transform="translate(28,10.36)" stroke="#2DC977">
    <path fill="none" d="M-21.92,0 L21.92,0 " class="primitive"/>
  </g>
  <g transform="translate(49.92,10.36)" stroke="#2DC977">
    <path fill="none" d="M0,2.73 L0,-2.73 " class="primitive"/>
  </g>
  <g transform="translate(28.75,18.55)" stroke="#175F30">
    <path fill="none" d="M-16.32,0 L16.32,0 " class="primitive"/>
  </g>
  <g transform="translate(36.18,24)" stroke="#2DC977">
    <path fill="none" d="M-23.76,0 L23.76,0 " class="primitive"/>
  </g>
  <g transform="translate(9.25,21.27)" stroke="#2DC977">
    <path fill="none" d="M-3.18,0 L3.18,0 " class="primitive"/>
  </g>
  <g transform="translate(12.43,21.27)" stroke="#2DC977">
    <path fill="none" d="M0,2.73 L0,-2.73 " class="primitive"/>
  </g>
  <g transform="translate(4.91,15.82)" stroke="#2DC977">
    <path fill="none" d="M-1.16,0 L1.16,0 " class="primitive"/>
  </g>
  <g transform="translate(6.07,15.82)" stroke="#2DC977">
    <path fill="none" d="M0,5.45 L0,-5.45 " class="primitive"/>
  </g>
  <g transform="translate(41.43,29.45)" stroke="#175F30">
    <path fill="none" d="M-0.93,0 L0.93,0 " class="primitive"/>
  </g>
  <g transform="translate(47.4,34.91)" stroke="#2DC977">
    <path fill="none" d="M-6.89,0 L6.89,0 " class="primitive"/>
  </g>
  <g transform="translate(24.79,32.18)" stroke="#2DC977">
    <path fill="none" d="M-15.71,0 L15.71,0 " class="primitive"/>
  </g>
  <g transform="translate(40.5,32.18)" stroke="#2DC977">
    <path fill="none" d="M0,2.73 L0,-2.73 " class="primitive"/>
  </g>
  <g transform="translate(32.63,40.36)" stroke="#2DC977">
    <path fill="none" d="M-9.46,0 L9.46,0 " class="primitive"/>
  </g>
  <g transform="translate(27.36,45.82)" stroke="#175F30">
    <path fill="none" d="M-4.18,0 L4.18,0 " class="primitive"/>
  </g>
  <g transform="translate(16.13,43.09)" stroke="#175F30">
    <path fill="none" d="M-7.05,0 L7.05,0 " class="primitive"/>
  </g>
  <g transform="translate(23.18,43.09)" stroke="#175F30">
    <path fill="none" d="M0,2.73 L0,-2.73 " class="primitive"/>
  </g>
  <g transform="translate(6.41,37.64)" stroke="#2DC977">
    <path fill="none" d="M-2.66,0 L2.66,0 " class="primitive"/>
  </g>
  <g transform="translate(9.08,37.64)" stroke="#2DC977">
    <path fill="none" d="M0,5.45 L0,-5.45 " class="primitive"/>
  </g>
  <g transform="translate(3.75,26.73)" stroke="#000000">
    <path fill="none" d="M0,0 L0,0 " class="primitive"/>
  </g>
  <g transform="translate(3.75,26.73)" stroke="#000000">
    <path fill="none" d="M0,10.91 L0,-10.91 " class="primitive"/>
  </g>
  <g transform="translate(3.75,14.45)" stroke="#000000">
    <path fill="none" d="M0,0 L0,0 " class="primitive"/>
  </g>
  <g transform="translate(3.75,14.45)" stroke="#000000">
    <path fill="none" d="M0,12.27 L0,-12.27 " class="primitive"/>
  </g>
</g>
<g fill-opacity="1" id="img-d6e1d110-2">
  <g transform="translate(19.93,2.18)" fill="#2DC977">
    <circle cx="0" cy="0" r="0.75" class="primitive"/>
  </g>
  <g transform="translate(78.75,7.64)" fill="#2DC977">
    <circle cx="0" cy="0" r="0.75" class="primitive"/>
  </g>
  <g transform="translate(71.92,13.09)" fill="#175F30">
    <circle cx="0" cy="0" r="0.75" class="primitive"/>
  </g>
  <g transform="translate(49.92,10.36)" fill="#2DC977">
    <circle cx="0" cy="0" r="0.75" class="primitive"/>
  </g>
  <g transform="translate(45.07,18.55)" fill="#175F30">
    <circle cx="0" cy="0" r="0.75" class="primitive"/>
  </g>
  <g transform="translate(59.94,24)" fill="#2DC977">
    <circle cx="0" cy="0" r="0.75" class="primitive"/>
  </g>
  <g transform="translate(12.43,21.27)" fill="#2DC977">
    <circle cx="0" cy="0" r="0.75" class="primitive"/>
  </g>
  <g transform="translate(6.07,15.82)" fill="#2DC977">
    <circle cx="0" cy="0" r="0.75" class="primitive"/>
  </g>
  <g transform="translate(42.36,29.45)" fill="#175F30">
    <circle cx="0" cy="0" r="0.75" class="primitive"/>
  </g>
  <g transform="translate(54.29,34.91)" fill="#2DC977">
    <circle cx="0" cy="0" r="0.75" class="primitive"/>
  </g>
  <g transform="translate(40.5,32.18)" fill="#2DC977">
    <circle cx="0" cy="0" r="0.75" class="primitive"/>
  </g>
  <g transform="translate(42.09,40.36)" fill="#2DC977">
    <circle cx="0" cy="0" r="0.75" class="primitive"/>
  </g>
  <g transform="translate(31.54,45.82)" fill="#175F30">
    <circle cx="0" cy="0" r="0.75" class="primitive"/>
  </g>
  <g transform="translate(23.18,43.09)" fill="#175F30">
    <circle cx="0" cy="0" r="0.75" class="primitive"/>
  </g>
  <g transform="translate(9.08,37.64)" fill="#2DC977">
    <circle cx="0" cy="0" r="0.75" class="primitive"/>
  </g>
  <g transform="translate(3.75,26.73)" fill="#000000">
    <circle cx="0" cy="0" r="0.75" class="primitive"/>
  </g>
  <g transform="translate(3.75,14.45)" fill="#000000">
    <circle cx="0" cy="0" r="0.75" class="primitive"/>
  </g>
</g>
<g stroke-opacity="1" fill-opacity="1" font-size="1.41" stroke-width="0.1" id="img-d6e1d110-3">
  <g transform="translate(21.8,2.18)" stroke="#000000">
    <g class="primitive">
      <text dy="0.35em">N8</text>
    </g>
  </g>
  <g transform="translate(80.62,7.64)" stroke="#000000">
    <g class="primitive">
      <text dy="0.35em">N0</text>
    </g>
  </g>
  <g transform="translate(73.79,13.09)" stroke="#000000">
    <g class="primitive">
      <text dy="0.35em">N1</text>
    </g>
  </g>
  <g transform="translate(51.79,10.36)" stroke="#000000">
    <g class="primitive">
      <text dy="0.35em">N9</text>
    </g>
  </g>
  <g transform="translate(46.95,18.55)" stroke="#000000">
    <g class="primitive">
      <text dy="0.35em">N2</text>
    </g>
  </g>
  <g transform="translate(61.81,24)" stroke="#000000">
    <g class="primitive">
      <text dy="0.35em">N3</text>
    </g>
  </g>
  <g transform="translate(14.3,21.27)" stroke="#000000">
    <g class="primitive">
      <text dy="0.35em">N10</text>
    </g>
  </g>
  <g transform="translate(7.95,15.82)" stroke="#000000">
    <g class="primitive">
      <text dy="0.35em">N13</text>
    </g>
  </g>
  <g transform="translate(44.23,29.45)" stroke="#000000">
    <g class="primitive">
      <text dy="0.35em">N4</text>
    </g>
  </g>
  <g transform="translate(56.17,34.91)" stroke="#000000">
    <g class="primitive">
      <text dy="0.35em">N5</text>
    </g>
  </g>
  <g transform="translate(42.38,32.18)" stroke="#000000">
    <g class="primitive">
      <text dy="0.35em">N11</text>
    </g>
  </g>
  <g transform="translate(43.96,40.36)" stroke="#000000">
    <g class="primitive">
      <text dy="0.35em">N6</text>
    </g>
  </g>
  <g transform="translate(33.42,45.82)" stroke="#000000">
    <g class="primitive">
      <text dy="0.35em">N7</text>
    </g>
  </g>
  <g transform="translate(25.05,43.09)" stroke="#000000">
    <g class="primitive">
      <text dy="0.35em">N12</text>
    </g>
  </g>
  <g transform="translate(10.95,37.64)" stroke="#000000">
    <g class="primitive">
      <text dy="0.35em">N14</text>
    </g>
  </g>
  <g transform="translate(5.63,26.73)" stroke="#000000">
    <g class="primitive">
      <text dy="0.35em"></text>
    </g>
  </g>
  <g transform="translate(5.63,14.45)" stroke="#000000">
    <g class="primitive">
      <text dy="0.35em"></text>
    </g>
  </g>
</g>
</svg>
