<?xml version="1.0" encoding="UTF-8"?>
<svg xmlns="http://www.w3.org/2000/svg"
     xmlns:xlink="http://www.w3.org/1999/xlink"
     version="1.2"
     width="150mm" height="66mm" viewBox="0 0 150 66"
     stroke="none"
     fill="#000000"
     stroke-width="0.3"
     font-size="3.88"
>
<defs>
  <marker id="arrow" markerWidth="15" markerHeight="7" refX="5" refY="3.5" orient="auto" markerUnits="strokeWidth">
    <path d="M0,0 L15,3.5 L0,7 z" stroke="context-stroke" fill="context-stroke"/>
  </marker>
</defs>
<g stroke-opacity="1" stroke-width="0.3" id="img-300d6e6f-1">
  <g transform="translate(5.4,3)" stroke="#A327D1">
    <path fill="none" d="M-1.65,0 L1.65,0 " class="primitive"/>
  </g>
  <g transform="translate(4.28,6.53)" stroke="#A327D1">
    <path fill="none" d="M-0.53,0 L0.53,0 " class="primitive"/>
  </g>
  <g transform="translate(11.51,10.06)" stroke="#EB3BD4">
    <path fill="none" d="M-4.45,0 L4.45,0 " class="primitive"/>
  </g>
  <g transform="translate(10.83,13.59)" stroke="#A327D1">
    <path fill="none" d="M-1.33,0 L1.33,0 " class="primitive"/>
  </g>
  <g transform="translate(24.83,17.12)" stroke="#EB3BD4">
    <path fill="none" d="M-12.95,0 L12.95,0 " class="primitive"/>
  </g>
  <g transform="translate(21.23,20.65)" stroke="#A327D1">
    <path fill="none" d="M-1.06,0 L1.06,0 " class="primitive"/>
  </g>
  <g transform="translate(33.49,24.18)" stroke="#A327D1">
    <path fill="none" d="M-2.04,0 L2.04,0 " class="primitive"/>
  </g>
  <g transform="translate(32.6,27.71)" stroke="#EB3BD4">
    <path fill="none" d="M-1.02,0 L1.02,0 " class="primitive"/>
  </g>
  <g transform="translate(35.38,31.24)" stroke="#A327D1">
    <path fill="none" d="M-1.61,0 L1.61,0 " class="primitive"/>
  </g>
  <g transform="translate(37.41,34.76)" stroke="#A327D1">
    <path fill="none" d="M-2.38,0 L2.38,0 " class="primitive"/>
  </g>
  <g transform="translate(37.82,38.29)" stroke="#EB3BD4">
    <path fill="none" d="M-0.5,0 L0.5,0 " class="primitive"/>
  </g>
  <g transform="translate(39.53,41.82)" stroke="#EB3BD4">
    <path fill="none" d="M-0.91,0 L0.91,0 " class="primitive"/>
  </g>
  <g transform="translate(46.37,45.35)" stroke="#A327D1">
    <path fill="none" d="M-5.23,0 L5.23,0 " class="primitive"/>
  </g>
  <g transform="translate(50.3,48.88)" stroke="#EB3BD4">
    <path fill="none" d="M-3.4,0 L3.4,0 " class="primitive"/>
  </g>
  <g transform="translate(58.11,52.41)" stroke="#A327D1">
    <path fill="none" d="M-0.68,0 L0.68,0 " class="primitive"/>
  </g>
  <g transform="translate(67.17,55.94)" stroke="#A327D1">
    <path fill="none" d="M-6.3,0 L6.3,0 " class="primitive"/>
  </g>
  <g transform="translate(69.86,59.47)" stroke="#A327D1">
    <path fill="none" d="M-1.18,0 L1.18,0 " class="primitive"/>
  </g>
  <g transform="translate(73.71,63)" stroke="#A327D1">
    <path fill="none" d="M-5.04,0 L5.04,0 " class="primitive"/>
  </g>
  <g transform="translate(64.77,61.24)" stroke="#EB3BD4">
    <path fill="none" d="M-3.9,0 L3.9,0 " class="primitive"/>
  </g>
  <g transform="translate(68.67,61.24)" stroke="#EB3BD4">
    <path fill="none" d="M0,1.76 L0,-1.76 " class="primitive"/>
  </g>
  <g transform="translate(59.15,58.59)" stroke="#A327D1">
    <path fill="none" d="M-1.72,0 L1.72,0 " class="primitive"/>
  </g>
  <g transform="translate(60.87,58.59)" stroke="#A327D1">
    <path fill="none" d="M0,2.65 L0,-2.65 " class="primitive"/>
  </g>
  <g transform="translate(52.17,55.5)" stroke="#A327D1">
    <path fill="none" d="M-5.26,0 L5.26,0 " class="primitive"/>
  </g>
  <g transform="translate(57.43,55.5)" stroke="#A327D1">
    <path fill="none" d="M0,3.09 L0,-3.09 " class="primitive"/>
  </g>
  <g transform="translate(44.02,52.19)" stroke="#A327D1">
    <path fill="none" d="M-2.89,0 L2.89,0 " class="primitive"/>
  </g>
  <g transform="translate(46.9,52.19)" stroke="#A327D1">
    <path fill="none" d="M0,3.31 L0,-3.31 " class="primitive"/>
  </g>
  <g transform="translate(39.88,48.77)" stroke="#A327D1">
    <path fill="none" d="M-1.26,0 L1.26,0 " class="primitive"/>
  </g>
  <g transform="translate(41.13,48.77)" stroke="#A327D1">
    <path fill="none" d="M0,3.42 L0,-3.42 " class="primitive"/>
  </g>
  <g transform="translate(37.97,45.3)" stroke="#EB3BD4">
    <path fill="none" d="M-0.65,0 L0.65,0 " class="primitive"/>
  </g>
  <g transform="translate(38.62,45.3)" stroke="#EB3BD4">
    <path fill="none" d="M0,3.47 L0,-3.47 " class="primitive"/>
  </g>
  <g transform="translate(36.17,41.8)" stroke="#A327D1">
    <path fill="none" d="M-1.14,0 L1.14,0 " class="primitive"/>
  </g>
  <g transform="translate(37.31,41.8)" stroke="#A327D1">
    <path fill="none" d="M0,3.5 L0,-3.5 " class="primitive"/>
  </g>
  <g transform="translate(34.4,38.28)" stroke="#A327D1">
    <path fill="none" d="M-0.63,0 L0.63,0 " class="primitive"/>
  </g>
  <g transform="translate(35.03,38.28)" stroke="#A327D1">
    <path fill="none" d="M0,3.52 L0,-3.52 " class="primitive"/>
  </g>
  <g transform="translate(32.67,34.76)" stroke="#A327D1">
    <path fill="none" d="M-1.09,0 L1.09,0 " class="primitive"/>
  </g>
  <g transform="translate(33.77,34.76)" stroke="#A327D1">
    <path fill="none" d="M0,3.52 L0,-3.52 " class="primitive"/>
  </g>
  <g transform="translate(31.52,31.23)" stroke="#A327D1">
    <path fill="none" d="M-0.06,0 L0.06,0 " class="primitive"/>
  </g>
  <g transform="translate(31.58,31.23)" stroke="#A327D1">
    <path fill="none" d="M0,3.53 L0,-3.53 " class="primitive"/>
  </g>
  <g transform="translate(25.81,27.7)" stroke="#A327D1">
    <path fill="none" d="M-5.65,0 L5.65,0 " class="primitive"/>
  </g>
  <g transform="translate(31.46,27.7)" stroke="#A327D1">
    <path fill="none" d="M0,3.53 L0,-3.53 " class="primitive"/>
  </g>
  <g transform="translate(16.03,24.18)" stroke="#A327D1">
    <path fill="none" d="M-4.14,0 L4.14,0 " class="primitive"/>
  </g>
  <g transform="translate(20.17,24.18)" stroke="#A327D1">
    <path fill="none" d="M0,3.53 L0,-3.53 " class="primitive"/>
  </g>
  <g transform="translate(10.69,20.65)" stroke="#EB3BD4">
    <path fill="none" d="M-1.19,0 L1.19,0 " class="primitive"/>
  </g>
  <g transform="translate(11.89,20.65)" stroke="#EB3BD4">
    <path fill="none" d="M0,3.53 L0,-3.53 " class="primitive"/>
  </g>
  <g transform="translate(8.28,17.12)" stroke="#EB3BD4">
    <path fill="none" d="M-1.22,0 L1.22,0 " class="primitive"/>
  </g>
  <g transform="translate(9.5,17.12)" stroke="#EB3BD4">
    <path fill="none" d="M0,3.53 L0,-3.53 " class="primitive"/>
  </g>
  <g transform="translate(5.4,13.59)" stroke="#A327D1">
    <path fill="none" d="M-1.65,0 L1.65,0 " class="primitive"/>
  </g>
  <g transform="translate(7.06,13.59)" stroke="#A327D1">
    <path fill="none" d="M0,3.53 L0,-3.53 " class="primitive"/>
  </g>
  <g transform="translate(3.75,10.06)" stroke="#000000">
    <path fill="none" d="M0,0 L0,0 " class="primitive"/>
  </g>
  <g transform="translate(3.75,10.06)" stroke="#000000">
    <path fill="none" d="M0,3.53 L0,-3.53 " class="primitive"/>
  </g>
  <g transform="translate(3.75,6.53)" stroke="#000000">
    <path fill="none" d="M0,0 L0,0 " class="primitive"/>
  </g>
  <g stroke-opacity="1" stroke-width="0.3" id="img-300d6e6f-2">
    <g transform="translate(3.75,6.53)" stroke="#000000">
      <path fill="none" d="M0,0 L0,0 " class="primitive"/>
    </g>
    <g transform="translate(3.75,6.53)" stroke="#000000">
      <path fill="none" d="M0,3.53 L0,-3.53 " class="primitive"/>
    </g>
  </g>
</g>
<g fill-opacity="1" id="img-300d6e6f-3">
  <g transform="translate(7.06,3)" fill="#A327D1">
    <circle cx="0" cy="0" r="0.75" class="primitive"/>
  </g>
  <g transform="translate(4.81,6.53)" fill="#A327D1">
    <circle cx="0" cy="0" r="0.75" class="primitive"/>
  </g>
  <g transform="translate(15.96,10.06)" fill="#EB3BD4">
    <circle cx="0" cy="0" r="0.75" class="primitive"/>
  </g>
  <g transform="translate(12.17,13.59)" fill="#A327D1">
    <circle cx="0" cy="0" r="0.75" class="primitive"/>
  </g>
  <g transform="translate(37.78,17.12)" fill="#EB3BD4">
    <circle cx="0" cy="0" r="0.75" class="primitive"/>
  </g>
  <g transform="translate(22.29,20.65)" fill="#A327D1">
    <circle cx="0" cy="0" r="0.75" class="primitive"/>
  </g>
  <g transform="translate(35.53,24.18)" fill="#A327D1">
    <circle cx="0" cy="0" r="0.75" class="primitive"/>
  </g>
  <g transform="translate(33.63,27.71)" fill="#EB3BD4">
    <circle cx="0" cy="0" r="0.75" class="primitive"/>
  </g>
  <g transform="translate(36.99,31.24)" fill="#A327D1">
    <circle cx="0" cy="0" r="0.75" class="primitive"/>
  </g>
  <g transform="translate(39.79,34.76)" fill="#A327D1">
    <circle cx="0" cy="0" r="0.75" class="primitive"/>
  </g>
  <g transform="translate(38.32,38.29)" fill="#EB3BD4">
    <circle cx="0" cy="0" r="0.75" class="primitive"/>
  </g>
  <g transform="translate(40.43,41.82)" fill="#EB3BD4">
    <circle cx="0" cy="0" r="0.75" class="primitive"/>
  </g>
  <g transform="translate(51.6,45.35)" fill="#A327D1">
    <circle cx="0" cy="0" r="0.75" class="primitive"/>
  </g>
  <g transform="translate(53.7,48.88)" fill="#EB3BD4">
    <circle cx="0" cy="0" r="0.75" class="primitive"/>
  </g>
  <g transform="translate(58.79,52.41)" fill="#A327D1">
    <circle cx="0" cy="0" r="0.75" class="primitive"/>
  </g>
  <g transform="translate(73.47,55.94)" fill="#A327D1">
    <circle cx="0" cy="0" r="0.75" class="primitive"/>
  </g>
  <g transform="translate(71.04,59.47)" fill="#A327D1">
    <circle cx="0" cy="0" r="0.75" class="primitive"/>
  </g>
  <g transform="translate(78.75,63)" fill="#A327D1">
    <circle cx="0" cy="0" r="0.75" class="primitive"/>
  </g>
  <g transform="translate(68.67,61.24)" fill="#EB3BD4">
    <circle cx="0" cy="0" r="0.75" class="primitive"/>
  </g>
  <g transform="translate(60.87,58.59)" fill="#A327D1">
    <circle cx="0" cy="0" r="0.75" class="primitive"/>
  </g>
  <g transform="translate(57.43,55.5)" fill="#A327D1">
    <circle cx="0" cy="0" r="0.75" class="primitive"/>
  </g>
  <g transform="translate(46.9,52.19)" fill="#A327D1">
    <circle cx="0" cy="0" r="0.75" class="primitive"/>
  </g>
  <g transform="translate(41.13,48.77)" fill="#A327D1">
    <circle cx="0" cy="0" r="0.75" class="primitive"/>
  </g>
  <g transform="translate(38.62,45.3)" fill="#EB3BD4">
    <circle cx="0" cy="0" r="0.75" class="primitive"/>
  </g>
  <g transform="translate(37.31,41.8)" fill="#A327D1">
    <circle cx="0" cy="0" r="0.75" class="primitive"/>
  </g>
  <g transform="translate(35.03,38.28)" fill="#A327D1">
    <circle cx="0" cy="0" r="0.75" class="primitive"/>
  </g>
  <g transform="translate(33.77,34.76)" fill="#A327D1">
    <circle cx="0" cy="0" r="0.75" class="primitive"/>
  </g>
  <g transform="translate(31.58,31.23)" fill="#A327D1">
    <circle cx="0" cy="0" r="0.75" class="primitive"/>
  </g>
  <g transform="translate(31.46,27.7)" fill="#A327D1">
    <circle cx="0" cy="0" r="0.75" class="primitive"/>
  </g>
  <g transform="translate(20.17,24.18)" fill="#A327D1">
    <circle cx="0" cy="0" r="0.75" class="primitive"/>
  </g>
  <g transform="translate(11.89,20.65)" fill="#EB3BD4">
    <circle cx="0" cy="0" r="0.75" class="primitive"/>
  </g>
  <g transform="translate(9.5,17.12)" fill="#EB3BD4">
    <circle cx="0" cy="0" r="0.75" class="primitive"/>
  </g>
  <g transform="translate(7.06,13.59)" fill="#A327D1">
    <circle cx="0" cy="0" r="0.75" class="primitive"/>
  </g>
  <g transform="translate(3.75,10.06)" fill="#000000">
    <circle cx="0" cy="0" r="0.75" class="primitive"/>
  </g>
  <g transform="translate(3.75,6.53)" fill="#000000">
    <circle cx="0" cy="0" r="0.75" class="primitive"/>
  </g>
</g>
<g stroke-opacity="1" fill-opacity="1" font-size="1.41" stroke-width="0.1" id="img-300d6e6f-4">
  <g transform="translate(8.93,3)" stroke="#000000">
    <g class="primitive">
      <text dy="0.35em">N17</text>
    </g>
  </g>
  <g transform="translate(6.69,6.53)" stroke="#000000">
    <g class="primitive">
      <text dy="0.35em">N16</text>
    </g>
  </g>
  <g transform="translate(17.84,10.06)" stroke="#000000">
    <g class="primitive">
      <text dy="0.35em">N15</text>
    </g>
  </g>
  <g transform="translate(14.04,13.59)" stroke="#000000">
    <g class="primitive">
      <text dy="0.35em">N14</text>
    </g>
  </g>
  <g transform="translate(39.65,17.12)" stroke="#000000">
    <g class="primitive">
      <text dy="0.35em">N13</text>
    </g>
  </g>
  <g transform="translate(24.17,20.65)" stroke="#000000">
    <g class="primitive">
      <text dy="0.35em">N12</text>
    </g>
  </g>
  <g transform="translate(37.4,24.18)" stroke="#000000">
    <g class="primitive">
      <text dy="0.35em">N11</text>
    </g>
  </g>
  <g transform="translate(35.5,27.71)" stroke="#000000">
    <g class="primitive">
      <text dy="0.35em">N10</text>
    </g>
  </g>
  <g transform="translate(38.86,31.24)" stroke="#000000">
    <g class="primitive">
      <text dy="0.35em">N9</text>
    </g>
  </g>
  <g transform="translate(41.66,34.76)" stroke="#000000">
    <g class="primitive">
      <text dy="0.35em">N8</text>
    </g>
  </g>
  <g transform="translate(40.2,38.29)" stroke="#000000">
    <g class="primitive">
      <text dy="0.35em">N7</text>
    </g>
  </g>
  <g transform="translate(42.31,41.82)" stroke="#000000">
    <g class="primitive">
      <text dy="0.35em">N6</text>
    </g>
  </g>
  <g transform="translate(53.48,45.35)" stroke="#000000">
    <g class="primitive">
      <text dy="0.35em">N5</text>
    </g>
  </g>
  <g transform="translate(55.57,48.88)" stroke="#000000">
    <g class="primitive">
      <text dy="0.35em">N4</text>
    </g>
  </g>
  <g transform="translate(60.67,52.41)" stroke="#000000">
    <g class="primitive">
      <text dy="0.35em">N3</text>
    </g>
  </g>
  <g transform="translate(75.34,55.94)" stroke="#000000">
    <g class="primitive">
      <text dy="0.35em">N2</text>
    </g>
  </g>
  <g transform="translate(72.92,59.47)" stroke="#000000">
    <g class="primitive">
      <text dy="0.35em">N0</text>
    </g>
  </g>
  <g transform="translate(80.62,63)" stroke="#000000">
    <g class="primitive">
      <text dy="0.35em">N1</text>
    </g>
  </g>
  <g transform="translate(70.55,61.24)" stroke="#000000">
    <g class="primitive">
      <text dy="0.35em">N18</text>
    </g>
  </g>
  <g transform="translate(62.75,58.59)" stroke="#000000">
    <g class="primitive">
      <text dy="0.35em">N19</text>
    </g>
  </g>
  <g transform="translate(59.3,55.5)" stroke="#000000">
    <g class="primitive">
      <text dy="0.35em">N20</text>
    </g>
  </g>
  <g transform="translate(48.78,52.19)" stroke="#000000">
    <g class="primitive">
      <text dy="0.35em">N21</text>
    </g>
  </g>
  <g transform="translate(43.01,48.77)" stroke="#000000">
    <g class="primitive">
      <text dy="0.35em">N22</text>
    </g>
  </g>
  <g transform="translate(40.49,45.3)" stroke="#000000">
    <g class="primitive">
      <text dy="0.35em">N23</text>
    </g>
  </g>
  <g transform="translate(39.19,41.8)" stroke="#000000">
    <g class="primitive">
      <text dy="0.35em">N24</text>
    </g>
  </g>
  <g transform="translate(36.91,38.28)" stroke="#000000">
    <g class="primitive">
      <text dy="0.35em">N25</text>
    </g>
  </g>
  <g transform="translate(35.64,34.76)" stroke="#000000">
    <g class="primitive">
      <text dy="0.35em">N26</text>
    </g>
  </g>
  <g transform="translate(33.46,31.23)" stroke="#000000">
    <g class="primitive">
      <text dy="0.35em">N27</text>
    </g>
  </g>
  <g transform="translate(33.33,27.7)" stroke="#000000">
    <g class="primitive">
      <text dy="0.35em">N28</text>
    </g>
  </g>
  <g transform="translate(22.04,24.18)" stroke="#000000">
    <g class="primitive">
      <text dy="0.35em">N29</text>
    </g>
  </g>
  <g transform="translate(13.76,20.65)" stroke="#000000">
    <g class="primitive">
      <text dy="0.35em">N30</text>
    </g>
  </g>
  <g transform="translate(11.38,17.12)" stroke="#000000">
    <g class="primitive">
      <text dy="0.35em">N31</text>
    </g>
  </g>
  <g transform="translate(8.93,13.59)" stroke="#000000">
    <g class="primitive">
      <text dy="0.35em">N32</text>
    </g>
  </g>
  <g transform="translate(5.63,10.06)" stroke="#000000">
    <g class="primitive">
      <text dy="0.35em"></text>
    </g>
  </g>
  <g transform="translate(5.63,6.53)" stroke="#000000">
    <g class="primitive">
      <text dy="0.35em"></text>
    </g>
  </g>
</g>
</svg>
