<?xml version="1.0" encoding="UTF-8"?>
<svg xmlns="http://www.w3.org/2000/svg"
     xmlns:xlink="http://www.w3.org/1999/xlink"
     version="1.2"
     width="150mm" height="134mm" viewBox="0 0 150 134"
     stroke="none"
     fill="#000000"
     stroke-width="0.3"
     font-size="3.88"
>
<defs>
  <marker id="arrow" markerWidth="15" markerHeight="7" refX="5" refY="3.5" orient="auto" markerUnits="strokeWidth">
    <path d="M0,0 L15,3.5 L0,7 z" stroke="context-stroke" fill="context-stroke"/>
  </marker>
</defs>
<g stroke-opacity="1" stroke-width="0.3" id="img-d6e1d110-1">
  <g transform="translate(23.73,6.09)" stroke="#533076">
    <path fill="none" d="M-15.1,0 L15.1,0 " class="primitive"/>
  </g>
  <g transform="translate(20.46,8.48)" stroke="#533076">
    <path fill="none" d="M-11.83,0 L11.83,0 " class="primitive"/>
  </g>
  <g transform="translate(8.36,7.29)" stroke="#533076">
    <path fill="none" d="M-0.27,0 L0.27,0 " class="primitive"/>
  </g>
  <g transform="translate(8.63,7.29)" stroke="#533076">
    <path fill="none" d="M0,1.19 L0,-1.19 " class="primitive"/>
  </g>
  <g transform="translate(15.3,10.87)" stroke="#533076">
    <path fill="none" d="M-7.02,0 L7.02,0 " class="primitive"/>
  </g>
  <g transform="translate(20.52,13.26)" stroke="#533076">
    <path fill="none" d="M-4.57,0 L4.57,0 " class="primitive"/>
  </g>
  <g transform="translate(23.16,15.65)" stroke="#3B96A2">
    <path fill="none" d="M-7.21,0 L7.21,0 " class="primitive"/>
  </g>
  <g transform="translate(12.11,14.45)" stroke="#3B96A2">
    <path fill="none" d="M-3.84,0 L3.84,0 " class="primitive"/>
  </g>
  <g transform="translate(15.95,14.45)" stroke="#3B96A2">
    <path fill="none" d="M0,1.19 L0,-1.19 " class="primitive"/>
  </g>
  <g transform="translate(8.18,12.66)" stroke="#3B96A2">
    <path fill="none" d="M-0.09,0 L0.09,0 " class="primitive"/>
  </g>
  <g transform="translate(8.28,12.66)" stroke="#3B96A2">
    <path fill="none" d="M0,1.79 L0,-1.79 " class="primitive"/>
  </g>
  <g transform="translate(6.28,9.97)" stroke="#533076">
    <path fill="none" d="M-1.81,0 L1.81,0 " class="primitive"/>
  </g>
  <g transform="translate(8.09,9.97)" stroke="#533076">
    <path fill="none" d="M0,2.69 L0,-2.69 " class="primitive"/>
  </g>
  <g transform="translate(9.59,18.03)" stroke="#533076">
    <path fill="none" d="M-1.45,0 L1.45,0 " class="primitive"/>
  </g>
  <g transform="translate(13.52,20.42)" stroke="#533076">
    <path fill="none" d="M-2.96,0 L2.96,0 " class="primitive"/>
  </g>
  <g transform="translate(13.73,22.81)" stroke="#3B96A2">
    <path fill="none" d="M-3.17,0 L3.17,0 " class="primitive"/>
  </g>
  <g transform="translate(9.35,21.62)" stroke="#533076">
    <path fill="none" d="M-1.21,0 L1.21,0 " class="primitive"/>
  </g>
  <g transform="translate(10.56,21.62)" stroke="#533076">
    <path fill="none" d="M0,1.19 L0,-1.19 " class="primitive"/>
  </g>
  <g transform="translate(6.58,19.83)" stroke="#533076">
    <path fill="none" d="M-1.55,0 L1.55,0 " class="primitive"/>
  </g>
  <g transform="translate(8.13,19.83)" stroke="#533076">
    <path fill="none" d="M0,1.79 L0,-1.79 " class="primitive"/>
  </g>
  <g transform="translate(32.85,25.2)" stroke="#533076">
    <path fill="none" d="M-0.73,0 L0.73,0 " class="primitive"/>
  </g>
  <g transform="translate(32.89,27.59)" stroke="#3B96A2">
    <path fill="none" d="M-0.77,0 L0.77,0 " class="primitive"/>
  </g>
  <g transform="translate(26.74,26.39)" stroke="#533076">
    <path fill="none" d="M-5.38,0 L5.38,0 " class="primitive"/>
  </g>
  <g transform="translate(32.12,26.39)" stroke="#533076">
    <path fill="none" d="M0,1.19 L0,-1.19 " class="primitive"/>
  </g>
  <g transform="translate(33.25,29.98)" stroke="#533076">
    <path fill="none" d="M-2.96,0 L2.96,0 " class="primitive"/>
  </g>
  <g transform="translate(30.64,32.37)" stroke="#533076">
    <path fill="none" d="M-0.35,0 L0.35,0 " class="primitive"/>
  </g>
  <g transform="translate(29.84,31.17)" stroke="#3B96A2">
    <path fill="none" d="M-0.46,0 L0.46,0 " class="primitive"/>
  </g>
  <g transform="translate(30.29,31.17)" stroke="#3B96A2">
    <path fill="none" d="M0,1.19 L0,-1.19 " class="primitive"/>
  </g>
  <g transform="translate(31.41,34.75)" stroke="#533076">
    <path fill="none" d="M-0.93,0 L0.93,0 " class="primitive"/>
  </g>
  <g transform="translate(40.88,37.14)" stroke="#533076">
    <path fill="none" d="M-10.4,0 L10.4,0 " class="primitive"/>
  </g>
  <g transform="translate(29.93,35.95)" stroke="#533076">
    <path fill="none" d="M-0.55,0 L0.55,0 " class="primitive"/>
  </g>
  <g transform="translate(30.47,35.95)" stroke="#533076">
    <path fill="none" d="M0,1.19 L0,-1.19 " class="primitive"/>
  </g>
  <g transform="translate(25.37,33.56)" stroke="#533076">
    <path fill="none" d="M-4.01,0 L4.01,0 " class="primitive"/>
  </g>
  <g transform="translate(29.38,33.56)" stroke="#533076">
    <path fill="none" d="M0,2.39 L0,-2.39 " class="primitive"/>
  </g>
  <g transform="translate(13.2,29.98)" stroke="#3B96A2">
    <path fill="none" d="M-8.17,0 L8.17,0 " class="primitive"/>
  </g>
  <g transform="translate(21.37,29.98)" stroke="#3B96A2">
    <path fill="none" d="M0,3.58 L0,-3.58 " class="primitive"/>
  </g>
  <g transform="translate(4.75,24.9)" stroke="#533076">
    <path fill="none" d="M-0.27,0 L0.27,0 " class="primitive"/>
  </g>
  <g transform="translate(5.03,24.9)" stroke="#533076">
    <path fill="none" d="M0,5.08 L0,-5.08 " class="primitive"/>
  </g>
  <g transform="translate(4.11,17.44)" stroke="#3B96A2">
    <path fill="none" d="M-0.36,0 L0.36,0 " class="primitive"/>
  </g>
  <g transform="translate(4.48,17.44)" stroke="#3B96A2">
    <path fill="none" d="M0,7.46 L0,-7.46 " class="primitive"/>
  </g>
  <g transform="translate(24.1,39.53)" stroke="#3B96A2">
    <path fill="none" d="M-11.52,0 L11.52,0 " class="primitive"/>
  </g>
  <g transform="translate(14.09,41.92)" stroke="#533076">
    <path fill="none" d="M-1.45,0 L1.45,0 " class="primitive"/>
  </g>
  <g transform="translate(23.6,44.31)" stroke="#533076">
    <path fill="none" d="M-2.22,0 L2.22,0 " class="primitive"/>
  </g>
  <g transform="translate(32.03,46.7)" stroke="#533076">
    <path fill="none" d="M-3.61,0 L3.61,0 " class="primitive"/>
  </g>
  <g transform="translate(43.05,49.09)" stroke="#533076">
    <path fill="none" d="M-14.63,0 L14.63,0 " class="primitive"/>
  </g>
  <g transform="translate(24.9,47.89)" stroke="#533076">
    <path fill="none" d="M-3.52,0 L3.52,0 " class="primitive"/>
  </g>
  <g transform="translate(28.42,47.89)" stroke="#533076">
    <path fill="none" d="M0,1.19 L0,-1.19 " class="primitive"/>
  </g>
  <g transform="translate(17.02,46.1)" stroke="#533076">
    <path fill="none" d="M-4.37,0 L4.37,0 " class="primitive"/>
  </g>
  <g transform="translate(21.39,46.1)" stroke="#533076">
    <path fill="none" d="M0,1.79 L0,-1.79 " class="primitive"/>
  </g>
  <g transform="translate(12.61,44.01)" stroke="#533076">
    <path fill="none" d="M-0.03,0 L0.03,0 " class="primitive"/>
  </g>
  <g transform="translate(12.65,44.01)" stroke="#533076">
    <path fill="none" d="M0,2.09 L0,-2.09 " class="primitive"/>
  </g>
  <g stroke-opacity="1" stroke-width="0.3" id="img-d6e1d110-2">
    <g transform="translate(3.75,59.01)" stroke="#000000">
      <path fill="none" d="M0,0 L0,0 " class="primitive"/>
    </g>
    <g transform="translate(3.75,59.01)" stroke="#000000">
      <path fill="none" d="M0,17.24 L0,-17.24 " class="primitive"/>
    </g>
    <g transform="translate(3.75,38.22)" stroke="#000000">
      <path fill="none" d="M0,0 L0,0 " class="primitive"/>
    </g>
    <g transform="translate(3.75,38.22)" stroke="#000000">
      <path fill="none" d="M0,20.79 L0,-20.79 " class="primitive"/>
    </g>
  </g>
  <g stroke-opacity="1" stroke-width="0.3" id="img-d6e1d110-3">
    <g transform="translate(33.2,91.48)" stroke="#533076">
      <path fill="none" d="M-9.28,0 L9.28,0 " class="primitive"/>
    </g>
    <g transform="translate(42.48,91.48)" stroke="#533076">
      <path fill="none" d="M0,1.79 L0,-1.79 " class="primitive"/>
    </g>
    <g transform="translate(15.62,87.9)" stroke="#533076">
      <path fill="none" d="M-8.3,0 L8.3,0 " class="primitive"/>
    </g>
    <g transform="translate(23.92,87.9)" stroke="#533076">
      <path fill="none" d="M0,3.58 L0,-3.58 " class="primitive"/>
    </g>
    <g transform="translate(6.76,84.02)" stroke="#533076">
      <path fill="none" d="M-0.56,0 L0.56,0 " class="primitive"/>
    </g>
    <g transform="translate(7.32,84.02)" stroke="#533076">
      <path fill="none" d="M0,3.88 L0,-3.88 " class="primitive"/>
    </g>
    <g transform="translate(33.6,96.86)" stroke="#533076">
      <path fill="none" d="M-3.7,0 L3.7,0 " class="primitive"/>
    </g>
    <g transform="translate(36.29,99.25)" stroke="#3B96A2">
      <path fill="none" d="M-6.38,0 L6.38,0 " class="primitive"/>
    </g>
    <g transform="translate(27.83,98.05)" stroke="#533076">
      <path fill="none" d="M-2.08,0 L2.08,0 " class="primitive"/>
    </g>
    <g transform="translate(29.91,98.05)" stroke="#533076">
      <path fill="none" d="M0,1.19 L0,-1.19 " class="primitive"/>
    </g>
    <g transform="translate(44.15,101.63)" stroke="#3B96A2">
      <path fill="none" d="M-11.42,0 L11.42,0 " class="primitive"/>
    </g>
    <g transform="translate(32.93,104.02)" stroke="#533076">
      <path fill="none" d="M-0.21,0 L0.21,0 " class="primitive"/>
    </g>
    <g transform="translate(29.24,102.83)" stroke="#533076">
      <path fill="none" d="M-3.49,0 L3.49,0 " class="primitive"/>
    </g>
    <g transform="translate(32.72,102.83)" stroke="#533076">
      <path fill="none" d="M0,1.19 L0,-1.19 " class="primitive"/>
    </g>
    <g transform="translate(16.43,100.44)" stroke="#533076">
      <path fill="none" d="M-9.32,0 L9.32,0 " class="primitive"/>
    </g>
    <g transform="translate(25.75,100.44)" stroke="#533076">
      <path fill="none" d="M0,2.39 L0,-2.39 " class="primitive"/>
    </g>
    <g transform="translate(26.35,106.41)" stroke="#533076">
      <path fill="none" d="M-3.77,0 L3.77,0 " class="primitive"/>
    </g>
    <g transform="translate(24.3,108.8)" stroke="#533076">
      <path fill="none" d="M-1.72,0 L1.72,0 " class="primitive"/>
    </g>
    <g transform="translate(16.39,107.61)" stroke="#533076">
      <path fill="none" d="M-6.19,0 L6.19,0 " class="primitive"/>
    </g>
    <g transform="translate(22.58,107.61)" stroke="#533076">
      <path fill="none" d="M0,1.19 L0,-1.19 " class="primitive"/>
    </g>
    <g transform="translate(26.18,111.19)" stroke="#3B96A2">
      <path fill="none" d="M-11.78,0 L11.78,0 " class="primitive"/>
    </g>
    <g transform="translate(28.2,113.58)" stroke="#533076">
      <path fill="none" d="M-0.81,0 L0.81,0 " class="primitive"/>
    </g>
    <g transform="translate(45.68,115.97)" stroke="#533076">
      <path fill="none" d="M-0.93,0 L0.93,0 " class="primitive"/>
    </g>
    <g transform="translate(58.36,118.35)" stroke="#533076">
      <path fill="none" d="M-13.61,0 L13.61,0 " class="primitive"/>
    </g>
    <g transform="translate(43.34,117.16)" stroke="#533076">
      <path fill="none" d="M-1.41,0 L1.41,0 " class="primitive"/>
    </g>
    <g transform="translate(44.75,117.16)" stroke="#533076">
      <path fill="none" d="M0,1.19 L0,-1.19 " class="primitive"/>
    </g>
    <g transform="translate(52.89,120.74)" stroke="#533076">
      <path fill="none" d="M-1.17,0 L1.17,0 " class="primitive"/>
    </g>
    <g transform="translate(60.1,123.13)" stroke="#533076">
      <path fill="none" d="M-2.08,0 L2.08,0 " class="primitive"/>
    </g>
    <g transform="translate(71.09,125.52)" stroke="#533076">
      <path fill="none" d="M-4.13,0 L4.13,0 " class="primitive"/>
    </g>
    <g transform="translate(68.41,127.91)" stroke="#533076">
      <path fill="none" d="M-1.45,0 L1.45,0 " class="primitive"/>
    </g>
    <g transform="translate(62.49,126.71)" stroke="#533076">
      <path fill="none" d="M-4.47,0 L4.47,0 " class="primitive"/>
    </g>
    <g transform="translate(66.96,126.71)" stroke="#533076">
      <path fill="none" d="M0,1.19 L0,-1.19 " class="primitive"/>
    </g>
    <g transform="translate(54.86,124.92)" stroke="#3B96A2">
      <path fill="none" d="M-3.15,0 L3.15,0 " class="primitive"/>
    </g>
    <g transform="translate(58.02,124.92)" stroke="#3B96A2">
      <path fill="none" d="M0,1.79 L0,-1.79 " class="primitive"/>
    </g>
    <g transform="translate(46.82,122.83)" stroke="#533076">
      <path fill="none" d="M-4.9,0 L4.9,0 " class="primitive"/>
    </g>
    <g transform="translate(51.71,122.83)" stroke="#533076">
      <path fill="none" d="M0,2.09 L0,-2.09 " class="primitive"/>
    </g>
    <g transform="translate(34.66,120)" stroke="#533076">
      <path fill="none" d="M-7.26,0 L7.26,0 " class="primitive"/>
    </g>
    <g transform="translate(41.92,120)" stroke="#533076">
      <path fill="none" d="M0,2.84 L0,-2.84 " class="primitive"/>
    </g>
    <g transform="translate(20.9,116.79)" stroke="#3B96A2">
      <path fill="none" d="M-6.5,0 L6.5,0 " class="primitive"/>
    </g>
    <g transform="translate(27.4,116.79)" stroke="#3B96A2">
      <path fill="none" d="M0,3.21 L0,-3.21 " class="primitive"/>
    </g>
    <g transform="translate(12.3,113.99)" stroke="#3B96A2">
      <path fill="none" d="M-2.1,0 L2.1,0 " class="primitive"/>
    </g>
    <g transform="translate(14.4,113.99)" stroke="#3B96A2">
      <path fill="none" d="M0,2.8 L0,-2.8 " class="primitive"/>
    </g>
    <g transform="translate(8.66,110.8)" stroke="#533076">
      <path fill="none" d="M-1.54,0 L1.54,0 " class="primitive"/>
    </g>
    <g transform="translate(10.2,110.8)" stroke="#533076">
      <path fill="none" d="M0,3.19 L0,-3.19 " class="primitive"/>
    </g>
    <g transform="translate(6.66,105.62)" stroke="#533076">
      <path fill="none" d="M-0.46,0 L0.46,0 " class="primitive"/>
    </g>
    <g transform="translate(7.11,105.62)" stroke="#533076">
      <path fill="none" d="M0,5.18 L0,-5.18 " class="primitive"/>
    </g>
    <g transform="translate(5.26,94.82)" stroke="#533076">
      <path fill="none" d="M-0.94,0 L0.94,0 " class="primitive"/>
    </g>
    <g transform="translate(6.2,94.82)" stroke="#533076">
      <path fill="none" d="M0,10.8 L0,-10.8 " class="primitive"/>
    </g>
    <g transform="translate(4.04,76.25)" stroke="#533076">
      <path fill="none" d="M-0.29,0 L0.29,0 " class="primitive"/>
    </g>
    <g transform="translate(4.33,76.25)" stroke="#533076">
      <path fill="none" d="M0,18.57 L0,-18.57 " class="primitive"/>
    </g>
    <g transform="translate(3.75,59.01)" stroke="#000000">
      <path fill="none" d="M0,0 L0,0 " class="primitive"/>
    </g>
  </g>
  <g stroke-opacity="1" stroke-width="0.3" id="img-d6e1d110-4">
    <g transform="translate(12.65,44.01)" stroke="#533076">
      <path fill="none" d="M0,2.09 L0,-2.09 " class="primitive"/>
    </g>
    <g transform="translate(8.16,41.77)" stroke="#3B96A2">
      <path fill="none" d="M-4.41,0 L4.41,0 " class="primitive"/>
    </g>
    <g transform="translate(12.58,41.77)" stroke="#3B96A2">
      <path fill="none" d="M0,2.24 L0,-2.24 " class="primitive"/>
    </g>
    <g transform="translate(21.33,51.47)" stroke="#533076">
      <path fill="none" d="M-3.69,0 L3.69,0 " class="primitive"/>
    </g>
    <g transform="translate(41.66,53.86)" stroke="#533076">
      <path fill="none" d="M-3.37,0 L3.37,0 " class="primitive"/>
    </g>
    <g transform="translate(52.53,56.25)" stroke="#533076">
      <path fill="none" d="M-14.24,0 L14.24,0 " class="primitive"/>
    </g>
    <g transform="translate(27.97,55.06)" stroke="#533076">
      <path fill="none" d="M-10.33,0 L10.33,0 " class="primitive"/>
    </g>
    <g transform="translate(38.29,55.06)" stroke="#533076">
      <path fill="none" d="M0,1.19 L0,-1.19 " class="primitive"/>
    </g>
    <g transform="translate(15.12,53.27)" stroke="#533076">
      <path fill="none" d="M-2.52,0 L2.52,0 " class="primitive"/>
    </g>
    <g transform="translate(17.64,53.27)" stroke="#533076">
      <path fill="none" d="M0,1.79 L0,-1.79 " class="primitive"/>
    </g>
    <g transform="translate(23.15,58.64)" stroke="#533076">
      <path fill="none" d="M-5.99,0 L5.99,0 " class="primitive"/>
    </g>
    <g transform="translate(76.11,61.03)" stroke="#533076">
      <path fill="none" d="M-1.81,0 L1.81,0 " class="primitive"/>
    </g>
    <g transform="translate(76.52,63.42)" stroke="#3B96A2">
      <path fill="none" d="M-2.23,0 L2.23,0 " class="primitive"/>
    </g>
    <g transform="translate(51.08,62.22)" stroke="#3B96A2">
      <path fill="none" d="M-23.22,0 L23.22,0 " class="primitive"/>
    </g>
    <g transform="translate(74.3,62.22)" stroke="#3B96A2">
      <path fill="none" d="M0,1.19 L0,-1.19 " class="primitive"/>
    </g>
    <g transform="translate(31.49,65.81)" stroke="#533076">
      <path fill="none" d="M-2.82,0 L2.82,0 " class="primitive"/>
    </g>
    <g transform="translate(38.29,68.19)" stroke="#533076">
      <path fill="none" d="M-1.66,0 L1.66,0 " class="primitive"/>
    </g>
    <g transform="translate(48.42,70.58)" stroke="#3B96A2">
      <path fill="none" d="M-11.79,0 L11.79,0 " class="primitive"/>
    </g>
    <g transform="translate(35.9,69.39)" stroke="#533076">
      <path fill="none" d="M-0.73,0 L0.73,0 " class="primitive"/>
    </g>
    <g transform="translate(36.63,69.39)" stroke="#533076">
      <path fill="none" d="M0,1.19 L0,-1.19 " class="primitive"/>
    </g>
    <g transform="translate(49.91,72.97)" stroke="#533076">
      <path fill="none" d="M-2.48,0 L2.48,0 " class="primitive"/>
    </g>
    <g transform="translate(56.55,75.36)" stroke="#533076">
      <path fill="none" d="M-6.08,0 L6.08,0 " class="primitive"/>
    </g>
    <g transform="translate(55.63,77.75)" stroke="#533076">
      <path fill="none" d="M-5.15,0 L5.15,0 " class="primitive"/>
    </g>
    <g transform="translate(48.95,76.55)" stroke="#533076">
      <path fill="none" d="M-1.52,0 L1.52,0 " class="primitive"/>
    </g>
    <g transform="translate(50.47,76.55)" stroke="#533076">
      <path fill="none" d="M0,1.19 L0,-1.19 " class="primitive"/>
    </g>
    <g transform="translate(41.3,74.76)" stroke="#533076">
      <path fill="none" d="M-6.13,0 L6.13,0 " class="primitive"/>
    </g>
    <g transform="translate(47.43,74.76)" stroke="#533076">
      <path fill="none" d="M0,1.79 L0,-1.79 " class="primitive"/>
    </g>
    <g transform="translate(31.92,72.08)" stroke="#533076">
      <path fill="none" d="M-3.25,0 L3.25,0 " class="primitive"/>
    </g>
    <g transform="translate(35.16,72.08)" stroke="#533076">
      <path fill="none" d="M0,2.69 L0,-2.69 " class="primitive"/>
    </g>
    <g transform="translate(28.27,68.94)" stroke="#533076">
      <path fill="none" d="M-0.41,0 L0.41,0 " class="primitive"/>
    </g>
    <g transform="translate(28.67,68.94)" stroke="#533076">
      <path fill="none" d="M0,3.14 L0,-3.14 " class="primitive"/>
    </g>
    <g transform="translate(22.51,65.58)" stroke="#533076">
      <path fill="none" d="M-5.35,0 L5.35,0 " class="primitive"/>
    </g>
    <g transform="translate(27.86,65.58)" stroke="#533076">
      <path fill="none" d="M0,3.36 L0,-3.36 " class="primitive"/>
    </g>
    <g transform="translate(14.88,62.11)" stroke="#533076">
      <path fill="none" d="M-2.27,0 L2.27,0 " class="primitive"/>
    </g>
    <g transform="translate(17.15,62.11)" stroke="#533076">
      <path fill="none" d="M0,3.47 L0,-3.47 " class="primitive"/>
    </g>
    <g transform="translate(8.47,57.69)" stroke="#533076">
      <path fill="none" d="M-4.14,0 L4.14,0 " class="primitive"/>
    </g>
    <g transform="translate(12.61,57.69)" stroke="#533076">
      <path fill="none" d="M0,4.42 L0,-4.42 " class="primitive"/>
    </g>
    <g transform="translate(9.27,80.14)" stroke="#533076">
      <path fill="none" d="M-1.94,0 L1.94,0 " class="primitive"/>
    </g>
    <g transform="translate(37.01,82.53)" stroke="#533076">
      <path fill="none" d="M-5.18,0 L5.18,0 " class="primitive"/>
    </g>
    <g transform="translate(42.19,84.91)" stroke="#533076">
      <path fill="none" d="M-4.59,0 L4.59,0 " class="primitive"/>
    </g>
    <g transform="translate(48.78,87.3)" stroke="#533076">
      <path fill="none" d="M-11.17,0 L11.17,0 " class="primitive"/>
    </g>
    <g transform="translate(34.72,86.11)" stroke="#533076">
      <path fill="none" d="M-2.89,0 L2.89,0 " class="primitive"/>
    </g>
    <g transform="translate(37.61,86.11)" stroke="#533076">
      <path fill="none" d="M0,1.19 L0,-1.19 " class="primitive"/>
    </g>
    <g transform="translate(27.87,84.32)" stroke="#533076">
      <path fill="none" d="M-3.95,0 L3.95,0 " class="primitive"/>
    </g>
    <g transform="translate(31.82,84.32)" stroke="#533076">
      <path fill="none" d="M0,1.79 L0,-1.79 " class="primitive"/>
    </g>
    <g transform="translate(43.11,89.69)" stroke="#533076">
      <path fill="none" d="M-0.64,0 L0.64,0 " class="primitive"/>
    </g>
    <g transform="translate(48.83,92.08)" stroke="#533076">
      <path fill="none" d="M-0.45,0 L0.45,0 " class="primitive"/>
    </g>
    <g transform="translate(49.14,94.47)" stroke="#533076">
      <path fill="none" d="M-0.76,0 L0.76,0 " class="primitive"/>
    </g>
    <g transform="translate(45.43,93.27)" stroke="#533076">
      <path fill="none" d="M-2.95,0 L2.95,0 " class="primitive"/>
    </g>
    <g transform="translate(48.38,93.27)" stroke="#533076">
      <path fill="none" d="M0,1.19 L0,-1.19 " class="primitive"/>
    </g>
    <g transform="translate(33.2,91.48)" stroke="#533076">
      <path fill="none" d="M-9.28,0 L9.28,0 " class="primitive"/>
    </g>
  </g>
</g>
<g fill-opacity="1" id="img-d6e1d110-5">
  <g transform="translate(38.82,6.09)" fill="#533076">
    <circle cx="0" cy="0" r="0.75" class="primitive"/>
  </g>
  <g transform="translate(32.3,8.48)" fill="#533076">
    <circle cx="0" cy="0" r="0.75" class="primitive"/>
  </g>
  <g transform="translate(8.63,7.29)" fill="#533076">
    <circle cx="0" cy="0" r="0.75" class="primitive"/>
  </g>
  <g transform="translate(22.32,10.87)" fill="#533076">
    <circle cx="0" cy="0" r="0.75" class="primitive"/>
  </g>
  <g transform="translate(25.08,13.26)" fill="#533076">
    <circle cx="0" cy="0" r="0.75" class="primitive"/>
  </g>
  <g transform="translate(30.37,15.65)" fill="#3B96A2">
    <circle cx="0" cy="0" r="0.75" class="primitive"/>
  </g>
  <g transform="translate(15.95,14.45)" fill="#3B96A2">
    <circle cx="0" cy="0" r="0.75" class="primitive"/>
  </g>
  <g transform="translate(8.28,12.66)" fill="#3B96A2">
    <circle cx="0" cy="0" r="0.75" class="primitive"/>
  </g>
  <g transform="translate(8.09,9.97)" fill="#533076">
    <circle cx="0" cy="0" r="0.75" class="primitive"/>
  </g>
  <g transform="translate(11.04,18.03)" fill="#533076">
    <circle cx="0" cy="0" r="0.75" class="primitive"/>
  </g>
  <g transform="translate(16.48,20.42)" fill="#533076">
    <circle cx="0" cy="0" r="0.75" class="primitive"/>
  </g>
  <g transform="translate(16.91,22.81)" fill="#3B96A2">
    <circle cx="0" cy="0" r="0.75" class="primitive"/>
  </g>
  <g transform="translate(10.56,21.62)" fill="#533076">
    <circle cx="0" cy="0" r="0.75" class="primitive"/>
  </g>
  <g transform="translate(8.13,19.83)" fill="#533076">
    <circle cx="0" cy="0" r="0.75" class="primitive"/>
  </g>
  <g transform="translate(33.59,25.2)" fill="#533076">
    <circle cx="0" cy="0" r="0.75" class="primitive"/>
  </g>
  <g transform="translate(33.66,27.59)" fill="#3B96A2">
    <circle cx="0" cy="0" r="0.75" class="primitive"/>
  </g>
  <g transform="translate(32.12,26.39)" fill="#533076">
    <circle cx="0" cy="0" r="0.75" class="primitive"/>
  </g>
  <g transform="translate(36.21,29.98)" fill="#533076">
    <circle cx="0" cy="0" r="0.75" class="primitive"/>
  </g>
  <g transform="translate(30.98,32.37)" fill="#533076">
    <circle cx="0" cy="0" r="0.75" class="primitive"/>
  </g>
  <g transform="translate(30.29,31.17)" fill="#3B96A2">
    <circle cx="0" cy="0" r="0.75" class="primitive"/>
  </g>
  <g transform="translate(32.34,34.75)" fill="#533076">
    <circle cx="0" cy="0" r="0.75" class="primitive"/>
  </g>
  <g transform="translate(51.28,37.14)" fill="#533076">
    <circle cx="0" cy="0" r="0.75" class="primitive"/>
  </g>
  <g transform="translate(30.47,35.95)" fill="#533076">
    <circle cx="0" cy="0" r="0.75" class="primitive"/>
  </g>
  <g transform="translate(29.38,33.56)" fill="#533076">
    <circle cx="0" cy="0" r="0.75" class="primitive"/>
  </g>
  <g transform="translate(21.37,29.98)" fill="#3B96A2">
    <circle cx="0" cy="0" r="0.75" class="primitive"/>
  </g>
  <g transform="translate(5.03,24.9)" fill="#533076">
    <circle cx="0" cy="0" r="0.75" class="primitive"/>
  </g>
  <g transform="translate(4.48,17.44)" fill="#3B96A2">
    <circle cx="0" cy="0" r="0.75" class="primitive"/>
  </g>
  <g transform="translate(35.62,39.53)" fill="#3B96A2">
    <circle cx="0" cy="0" r="0.75" class="primitive"/>
  </g>
  <g transform="translate(15.54,41.92)" fill="#533076">
    <circle cx="0" cy="0" r="0.75" class="primitive"/>
  </g>
  <g transform="translate(25.82,44.31)" fill="#533076">
    <circle cx="0" cy="0" r="0.75" class="primitive"/>
  </g>
  <g transform="translate(35.64,46.7)" fill="#533076">
    <circle cx="0" cy="0" r="0.75" class="primitive"/>
  </g>
  <g transform="translate(57.68,49.09)" fill="#533076">
    <circle cx="0" cy="0" r="0.75" class="primitive"/>
  </g>
  <g transform="translate(28.42,47.89)" fill="#533076">
    <circle cx="0" cy="0" r="0.75" class="primitive"/>
  </g>
  <g transform="translate(21.39,46.1)" fill="#533076">
    <circle cx="0" cy="0" r="0.75" class="primitive"/>
  </g>
  <g transform="translate(12.65,44.01)" fill="#533076">
    <circle cx="0" cy="0" r="0.75" class="primitive"/>
  </g>
  <g transform="translate(12.58,41.77)" fill="#3B96A2">
    <circle cx="0" cy="0" r="0.75" class="primitive"/>
  </g>
  <g transform="translate(25.03,51.47)" fill="#533076">
    <circle cx="0" cy="0" r="0.75" class="primitive"/>
  </g>
  <g transform="translate(45.03,53.86)" fill="#533076">
    <circle cx="0" cy="0" r="0.75" class="primitive"/>
  </g>
  <g transform="translate(66.77,56.25)" fill="#533076">
    <circle cx="0" cy="0" r="0.75" class="primitive"/>
  </g>
  <g transform="translate(38.29,55.06)" fill="#533076">
    <circle cx="0" cy="0" r="0.75" class="primitive"/>
  </g>
  <g transform="translate(17.64,53.27)" fill="#533076">
    <circle cx="0" cy="0" r="0.75" class="primitive"/>
  </g>
  <g transform="translate(29.14,58.64)" fill="#533076">
    <circle cx="0" cy="0" r="0.75" class="primitive"/>
  </g>
  <g transform="translate(77.93,61.03)" fill="#533076">
    <circle cx="0" cy="0" r="0.75" class="primitive"/>
  </g>
  <g transform="translate(78.75,63.42)" fill="#3B96A2">
    <circle cx="0" cy="0" r="0.75" class="primitive"/>
  </g>
  <g transform="translate(74.3,62.22)" fill="#3B96A2">
    <circle cx="0" cy="0" r="0.75" class="primitive"/>
  </g>
  <g transform="translate(34.31,65.81)" fill="#533076">
    <circle cx="0" cy="0" r="0.75" class="primitive"/>
  </g>
  <g transform="translate(39.95,68.19)" fill="#533076">
    <circle cx="0" cy="0" r="0.75" class="primitive"/>
  </g>
  <g transform="translate(60.21,70.58)" fill="#3B96A2">
    <circle cx="0" cy="0" r="0.75" class="primitive"/>
  </g>
  <g transform="translate(36.63,69.39)" fill="#533076">
    <circle cx="0" cy="0" r="0.75" class="primitive"/>
  </g>
  <g transform="translate(52.39,72.97)" fill="#533076">
    <circle cx="0" cy="0" r="0.75" class="primitive"/>
  </g>
  <g transform="translate(62.63,75.36)" fill="#533076">
    <circle cx="0" cy="0" r="0.75" class="primitive"/>
  </g>
  <g fill-opacity="1" id="img-d6e1d110-6">
    <g transform="translate(4.33,76.25)" fill="#533076">
      <circle cx="0" cy="0" r="0.75" class="primitive"/>
    </g>
    <g transform="translate(3.75,59.01)" fill="#000000">
      <circle cx="0" cy="0" r="0.75" class="primitive"/>
    </g>
    <g transform="translate(3.75,38.22)" fill="#000000">
      <circle cx="0" cy="0" r="0.75" class="primitive"/>
    </g>
  </g>
  <g fill-opacity="1" id="img-d6e1d110-7">
    <g transform="translate(62.63,75.36)" fill="#533076">
      <circle cx="0" cy="0" r="0.75" class="primitive"/>
    </g>
    <g transform="translate(60.78,77.75)" fill="#533076">
      <circle cx="0" cy="0" r="0.75" class="primitive"/>
    </g>
    <g transform="translate(50.47,76.55)" fill="#533076">
      <circle cx="0" cy="0" r="0.75" class="primitive"/>
    </g>
    <g transform="translate(47.43,74.76)" fill="#533076">
      <circle cx="0" cy="0" r="0.75" class="primitive"/>
    </g>
    <g transform="translate(35.16,72.08)" fill="#533076">
      <circle cx="0" cy="0" r="0.75" class="primitive"/>
    </g>
    <g transform="translate(28.67,68.94)" fill="#533076">
      <circle cx="0" cy="0" r="0.75" class="primitive"/>
    </g>
    <g transform="translate(27.86,65.58)" fill="#533076">
      <circle cx="0" cy="0" r="0.75" class="primitive"/>
    </g>
    <g transform="translate(17.15,62.11)" fill="#533076">
      <circle cx="0" cy="0" r="0.75" class="primitive"/>
    </g>
    <g transform="translate(12.61,57.69)" fill="#533076">
      <circle cx="0" cy="0" r="0.75" class="primitive"/>
    </g>
    <g transform="translate(11.21,80.14)" fill="#533076">
      <circle cx="0" cy="0" r="0.75" class="primitive"/>
    </g>
    <g transform="translate(42.19,82.53)" fill="#533076">
      <circle cx="0" cy="0" r="0.75" class="primitive"/>
    </g>
    <g transform="translate(46.78,84.91)" fill="#533076">
      <circle cx="0" cy="0" r="0.75" class="primitive"/>
    </g>
    <g transform="translate(59.95,87.3)" fill="#533076">
      <circle cx="0" cy="0" r="0.75" class="primitive"/>
    </g>
    <g transform="translate(37.61,86.11)" fill="#533076">
      <circle cx="0" cy="0" r="0.75" class="primitive"/>
    </g>
    <g transform="translate(31.82,84.32)" fill="#533076">
      <circle cx="0" cy="0" r="0.75" class="primitive"/>
    </g>
    <g transform="translate(43.75,89.69)" fill="#533076">
      <circle cx="0" cy="0" r="0.75" class="primitive"/>
    </g>
    <g transform="translate(49.28,92.08)" fill="#533076">
      <circle cx="0" cy="0" r="0.75" class="primitive"/>
    </g>
    <g transform="translate(49.91,94.47)" fill="#533076">
      <circle cx="0" cy="0" r="0.75" class="primitive"/>
    </g>
    <g transform="translate(48.38,93.27)" fill="#533076">
      <circle cx="0" cy="0" r="0.75" class="primitive"/>
    </g>
    <g transform="translate(42.48,91.48)" fill="#533076">
      <circle cx="0" cy="0" r="0.75" class="primitive"/>
    </g>
    <g transform="translate(23.92,87.9)" fill="#533076">
      <circle cx="0" cy="0" r="0.75" class="primitive"/>
    </g>
    <g transform="translate(7.32,84.02)" fill="#533076">
      <circle cx="0" cy="0" r="0.75" class="primitive"/>
    </g>
    <g transform="translate(37.3,96.86)" fill="#533076">
      <circle cx="0" cy="0" r="0.75" class="primitive"/>
    </g>
    <g transform="translate(42.67,99.25)" fill="#3B96A2">
      <circle cx="0" cy="0" r="0.75" class="primitive"/>
    </g>
    <g transform="translate(29.91,98.05)" fill="#533076">
      <circle cx="0" cy="0" r="0.75" class="primitive"/>
    </g>
    <g transform="translate(55.57,101.63)" fill="#3B96A2">
      <circle cx="0" cy="0" r="0.75" class="primitive"/>
    </g>
    <g transform="translate(33.15,104.02)" fill="#533076">
      <circle cx="0" cy="0" r="0.75" class="primitive"/>
    </g>
    <g transform="translate(32.72,102.83)" fill="#533076">
      <circle cx="0" cy="0" r="0.75" class="primitive"/>
    </g>
    <g transform="translate(25.75,100.44)" fill="#533076">
      <circle cx="0" cy="0" r="0.75" class="primitive"/>
    </g>
    <g transform="translate(30.12,106.41)" fill="#533076">
      <circle cx="0" cy="0" r="0.75" class="primitive"/>
    </g>
    <g transform="translate(26.02,108.8)" fill="#533076">
      <circle cx="0" cy="0" r="0.75" class="primitive"/>
    </g>
    <g transform="translate(22.58,107.61)" fill="#533076">
      <circle cx="0" cy="0" r="0.75" class="primitive"/>
    </g>
    <g transform="translate(37.96,111.19)" fill="#3B96A2">
      <circle cx="0" cy="0" r="0.75" class="primitive"/>
    </g>
    <g transform="translate(29.01,113.58)" fill="#533076">
      <circle cx="0" cy="0" r="0.75" class="primitive"/>
    </g>
    <g transform="translate(46.62,115.97)" fill="#533076">
      <circle cx="0" cy="0" r="0.75" class="primitive"/>
    </g>
    <g transform="translate(71.96,118.35)" fill="#533076">
      <circle cx="0" cy="0" r="0.75" class="primitive"/>
    </g>
    <g transform="translate(44.75,117.16)" fill="#533076">
      <circle cx="0" cy="0" r="0.75" class="primitive"/>
    </g>
    <g transform="translate(54.06,120.74)" fill="#533076">
      <circle cx="0" cy="0" r="0.75" class="primitive"/>
    </g>
    <g transform="translate(62.18,123.13)" fill="#533076">
      <circle cx="0" cy="0" r="0.75" class="primitive"/>
    </g>
    <g transform="translate(75.22,125.52)" fill="#533076">
      <circle cx="0" cy="0" r="0.75" class="primitive"/>
    </g>
    <g transform="translate(69.86,127.91)" fill="#533076">
      <circle cx="0" cy="0" r="0.75" class="primitive"/>
    </g>
    <g transform="translate(66.96,126.71)" fill="#533076">
      <circle cx="0" cy="0" r="0.75" class="primitive"/>
    </g>
    <g transform="translate(58.02,124.92)" fill="#3B96A2">
      <circle cx="0" cy="0" r="0.75" class="primitive"/>
    </g>
    <g transform="translate(51.71,122.83)" fill="#533076">
      <circle cx="0" cy="0" r="0.75" class="primitive"/>
    </g>
    <g transform="translate(41.92,120)" fill="#533076">
      <circle cx="0" cy="0" r="0.75" class="primitive"/>
    </g>
    <g transform="translate(27.4,116.79)" fill="#3B96A2">
      <circle cx="0" cy="0" r="0.75" class="primitive"/>
    </g>
    <g transform="translate(14.4,113.99)" fill="#3B96A2">
      <circle cx="0" cy="0" r="0.75" class="primitive"/>
    </g>
    <g transform="translate(10.2,110.8)" fill="#533076">
      <circle cx="0" cy="0" r="0.75" class="primitive"/>
    </g>
    <g transform="translate(7.11,105.62)" fill="#533076">
      <circle cx="0" cy="0" r="0.75" class="primitive"/>
    </g>
    <g transform="translate(6.2,94.82)" fill="#533076">
      <circle cx="0" cy="0" r="0.75" class="primitive"/>
    </g>
    <g transform="translate(4.33,76.25)" fill="#533076">
      <circle cx="0" cy="0" r="0.75" class="primitive"/>
    </g>
  </g>
</g>
<g stroke-opacity="1" fill-opacity="1" font-size="1.41" stroke-width="0.1" id="img-d6e1d110-8">
  <g transform="translate(40.7,6.09)" stroke="#000000">
    <g class="primitive">
      <text dy="0.35em">N3</text>
    </g>
  </g>
  <g transform="translate(34.17,8.48)" stroke="#000000">
    <g class="primitive">
      <text dy="0.35em">N27</text>
    </g>
  </g>
  <g transform="translate(10.51,7.29)" stroke="#000000">
    <g class="primitive">
      <text dy="0.35em">N66</text>
    </g>
  </g>
  <g transform="translate(24.19,10.87)" stroke="#000000">
    <g class="primitive">
      <text dy="0.35em">N34</text>
    </g>
  </g>
  <g transform="translate(26.96,13.26)" stroke="#000000">
    <g class="primitive">
      <text dy="0.35em">N4</text>
    </g>
  </g>
  <g transform="translate(32.24,15.65)" stroke="#000000">
    <g class="primitive">
      <text dy="0.35em">N43</text>
    </g>
  </g>
  <g transform="translate(17.82,14.45)" stroke="#000000">
    <g class="primitive">
      <text dy="0.35em">N61</text>
    </g>
  </g>
  <g transform="translate(10.15,12.66)" stroke="#000000">
    <g class="primitive">
      <text dy="0.35em">N65</text>
    </g>
  </g>
  <g transform="translate(9.97,9.97)" stroke="#000000">
    <g class="primitive">
      <text dy="0.35em">N70</text>
    </g>
  </g>
  <g transform="translate(12.91,18.03)" stroke="#000000">
    <g class="primitive">
      <text dy="0.35em">N12</text>
    </g>
  </g>
  <g transform="translate(18.35,20.42)" stroke="#000000">
    <g class="primitive">
      <text dy="0.35em">N29</text>
    </g>
  </g>
  <g transform="translate(18.78,22.81)" stroke="#000000">
    <g class="primitive">
      <text dy="0.35em">N32</text>
    </g>
  </g>
  <g transform="translate(12.44,21.62)" stroke="#000000">
    <g class="primitive">
      <text dy="0.35em">N60</text>
    </g>
  </g>
  <g transform="translate(10.01,19.83)" stroke="#000000">
    <g class="primitive">
      <text dy="0.35em">N80</text>
    </g>
  </g>
  <g transform="translate(35.46,25.2)" stroke="#000000">
    <g class="primitive">
      <text dy="0.35em">N15</text>
    </g>
  </g>
  <g transform="translate(35.54,27.59)" stroke="#000000">
    <g class="primitive">
      <text dy="0.35em">N9</text>
    </g>
  </g>
  <g transform="translate(33.99,26.39)" stroke="#000000">
    <g class="primitive">
      <text dy="0.35em">N57</text>
    </g>
  </g>
  <g transform="translate(38.09,29.98)" stroke="#000000">
    <g class="primitive">
      <text dy="0.35em">N24</text>
    </g>
  </g>
  <g transform="translate(32.86,32.37)" stroke="#000000">
    <g class="primitive">
      <text dy="0.35em">N30</text>
    </g>
  </g>
  <g transform="translate(32.17,31.17)" stroke="#000000">
    <g class="primitive">
      <text dy="0.35em">N73</text>
    </g>
  </g>
  <g transform="translate(34.21,34.75)" stroke="#000000">
    <g class="primitive">
      <text dy="0.35em">N40</text>
    </g>
  </g>
  <g transform="translate(53.15,37.14)" stroke="#000000">
    <g class="primitive">
      <text dy="0.35em">N18</text>
    </g>
  </g>
  <g transform="translate(32.35,35.95)" stroke="#000000">
    <g class="primitive">
      <text dy="0.35em">N59</text>
    </g>
  </g>
  <g transform="translate(31.26,33.56)" stroke="#000000">
    <g class="primitive">
      <text dy="0.35em">N86</text>
    </g>
  </g>
  <g transform="translate(23.24,29.98)" stroke="#000000">
    <g class="primitive">
      <text dy="0.35em">N87</text>
    </g>
  </g>
  <g transform="translate(6.9,24.9)" stroke="#000000">
    <g class="primitive">
      <text dy="0.35em">N90</text>
    </g>
  </g>
  <g transform="translate(6.35,17.44)" stroke="#000000">
    <g class="primitive">
      <text dy="0.35em">N96</text>
    </g>
  </g>
  <g transform="translate(37.49,39.53)" stroke="#000000">
    <g class="primitive">
      <text dy="0.35em">N6</text>
    </g>
  </g>
  <g transform="translate(17.41,41.92)" stroke="#000000">
    <g class="primitive">
      <text dy="0.35em">N33</text>
    </g>
  </g>
  <g transform="translate(27.69,44.31)" stroke="#000000">
    <g class="primitive">
      <text dy="0.35em">N47</text>
    </g>
  </g>
  <g transform="translate(37.51,46.7)" stroke="#000000">
    <g class="primitive">
      <text dy="0.35em">N11</text>
    </g>
  </g>
  <g transform="translate(59.56,49.09)" stroke="#000000">
    <g class="primitive">
      <text dy="0.35em">N46</text>
    </g>
  </g>
  <g transform="translate(30.29,47.89)" stroke="#000000">
    <g class="primitive">
      <text dy="0.35em">N52</text>
    </g>
  </g>
  <g transform="translate(23.26,46.1)" stroke="#000000">
    <g class="primitive">
      <text dy="0.35em">N54</text>
    </g>
  </g>
  <g transform="translate(14.52,44.01)" stroke="#000000">
    <g class="primitive">
      <text dy="0.35em">N56</text>
    </g>
  </g>
  <g transform="translate(14.45,41.77)" stroke="#000000">
    <g class="primitive">
      <text dy="0.35em">N72</text>
    </g>
  </g>
  <g transform="translate(26.9,51.47)" stroke="#000000">
    <g class="primitive">
      <text dy="0.35em">N26</text>
    </g>
  </g>
  <g transform="translate(46.9,53.86)" stroke="#000000">
    <g class="primitive">
      <text dy="0.35em">N23</text>
    </g>
  </g>
  <g transform="translate(68.64,56.25)" stroke="#000000">
    <g class="primitive">
      <text dy="0.35em">N5</text>
    </g>
  </g>
  <g transform="translate(40.17,55.06)" stroke="#000000">
    <g class="primitive">
      <text dy="0.35em">N78</text>
    </g>
  </g>
  <g transform="translate(19.52,53.27)" stroke="#000000">
    <g class="primitive">
      <text dy="0.35em">N93</text>
    </g>
  </g>
  <g transform="translate(31.01,58.64)" stroke="#000000">
    <g class="primitive">
      <text dy="0.35em">N7</text>
    </g>
  </g>
  <g transform="translate(79.8,61.03)" stroke="#000000">
    <g class="primitive">
      <text dy="0.35em">N48</text>
    </g>
  </g>
  <g transform="translate(80.62,63.42)" stroke="#000000">
    <g class="primitive">
      <text dy="0.35em">N2</text>
    </g>
  </g>
  <g transform="translate(76.17,62.22)" stroke="#000000">
    <g class="primitive">
      <text dy="0.35em">N85</text>
    </g>
  </g>
  <g transform="translate(36.18,65.81)" stroke="#000000">
    <g class="primitive">
      <text dy="0.35em">N22</text>
    </g>
  </g>
  <g transform="translate(41.83,68.19)" stroke="#000000">
    <g class="primitive">
      <text dy="0.35em">N50</text>
    </g>
  </g>
  <g transform="translate(62.08,70.58)" stroke="#000000">
    <g class="primitive">
      <text dy="0.35em">N19</text>
    </g>
  </g>
  <g transform="translate(38.51,69.39)" stroke="#000000">
    <g class="primitive">
      <text dy="0.35em">N69</text>
    </g>
  </g>
  <g transform="translate(54.27,72.97)" stroke="#000000">
    <g class="primitive">
      <text dy="0.35em">N41</text>
    </g>
  </g>
  <g transform="translate(64.5,75.36)" stroke="#000000">
    <g class="primitive">
      <text dy="0.35em">N31</text>
    </g>
  </g>
  <g stroke-opacity="1" fill-opacity="1" font-size="1.41" stroke-width="0.1" id="img-d6e1d110-9">
    <g transform="translate(6.2,76.25)" stroke="#000000">
      <g class="primitive">
        <text dy="0.35em">N100</text>
      </g>
    </g>
    <g transform="translate(5.63,59.01)" stroke="#000000">
      <g class="primitive">
        <text dy="0.35em"></text>
      </g>
    </g>
    <g transform="translate(5.63,38.22)" stroke="#000000">
      <g class="primitive">
        <text dy="0.35em"></text>
      </g>
    </g>
  </g>
  <g stroke-opacity="1" fill-opacity="1" font-size="1.41" stroke-width="0.1" id="img-d6e1d110-10">
    <g transform="translate(64.5,75.36)" stroke="#000000">
      <g class="primitive">
        <text dy="0.35em">N31</text>
      </g>
    </g>
    <g transform="translate(62.65,77.75)" stroke="#000000">
      <g class="primitive">
        <text dy="0.35em">N38</text>
      </g>
    </g>
    <g transform="translate(52.35,76.55)" stroke="#000000">
      <g class="primitive">
        <text dy="0.35em">N74</text>
      </g>
    </g>
    <g transform="translate(49.31,74.76)" stroke="#000000">
      <g class="primitive">
        <text dy="0.35em">N75</text>
      </g>
    </g>
    <g transform="translate(37.04,72.08)" stroke="#000000">
      <g class="primitive">
        <text dy="0.35em">N76</text>
      </g>
    </g>
    <g transform="translate(30.55,68.94)" stroke="#000000">
      <g class="primitive">
        <text dy="0.35em">N82</text>
      </g>
    </g>
    <g transform="translate(29.74,65.58)" stroke="#000000">
      <g class="primitive">
        <text dy="0.35em">N89</text>
      </g>
    </g>
    <g transform="translate(19.03,62.11)" stroke="#000000">
      <g class="primitive">
        <text dy="0.35em">N92</text>
      </g>
    </g>
    <g transform="translate(14.48,57.69)" stroke="#000000">
      <g class="primitive">
        <text dy="0.35em">N99</text>
      </g>
    </g>
    <g transform="translate(13.08,80.14)" stroke="#000000">
      <g class="primitive">
        <text dy="0.35em">N36</text>
      </g>
    </g>
    <g transform="translate(44.06,82.53)" stroke="#000000">
      <g class="primitive">
        <text dy="0.35em">N16</text>
      </g>
    </g>
    <g transform="translate(48.65,84.91)" stroke="#000000">
      <g class="primitive">
        <text dy="0.35em">N49</text>
      </g>
    </g>
    <g transform="translate(61.83,87.3)" stroke="#000000">
      <g class="primitive">
        <text dy="0.35em">N28</text>
      </g>
    </g>
    <g transform="translate(39.48,86.11)" stroke="#000000">
      <g class="primitive">
        <text dy="0.35em">N63</text>
      </g>
    </g>
    <g transform="translate(33.7,84.32)" stroke="#000000">
      <g class="primitive">
        <text dy="0.35em">N77</text>
      </g>
    </g>
    <g transform="translate(45.62,89.69)" stroke="#000000">
      <g class="primitive">
        <text dy="0.35em">N14</text>
      </g>
    </g>
    <g transform="translate(51.15,92.08)" stroke="#000000">
      <g class="primitive">
        <text dy="0.35em">N39</text>
      </g>
    </g>
    <g transform="translate(51.78,94.47)" stroke="#000000">
      <g class="primitive">
        <text dy="0.35em">N44</text>
      </g>
    </g>
    <g transform="translate(50.26,93.27)" stroke="#000000">
      <g class="primitive">
        <text dy="0.35em">N58</text>
      </g>
    </g>
    <g transform="translate(44.35,91.48)" stroke="#000000">
      <g class="primitive">
        <text dy="0.35em">N64</text>
      </g>
    </g>
    <g transform="translate(25.8,87.9)" stroke="#000000">
      <g class="primitive">
        <text dy="0.35em">N94</text>
      </g>
    </g>
    <g transform="translate(9.2,84.02)" stroke="#000000">
      <g class="primitive">
        <text dy="0.35em">N97</text>
      </g>
    </g>
    <g transform="translate(39.17,96.86)" stroke="#000000">
      <g class="primitive">
        <text dy="0.35em">N1</text>
      </g>
    </g>
    <g transform="translate(44.55,99.25)" stroke="#000000">
      <g class="primitive">
        <text dy="0.35em">N42</text>
      </g>
    </g>
    <g transform="translate(31.78,98.05)" stroke="#000000">
      <g class="primitive">
        <text dy="0.35em">N62</text>
      </g>
    </g>
    <g transform="translate(57.45,101.63)" stroke="#000000">
      <g class="primitive">
        <text dy="0.35em">N0</text>
      </g>
    </g>
    <g transform="translate(35.02,104.02)" stroke="#000000">
      <g class="primitive">
        <text dy="0.35em">N35</text>
      </g>
    </g>
    <g transform="translate(34.6,102.83)" stroke="#000000">
      <g class="primitive">
        <text dy="0.35em">N79</text>
      </g>
    </g>
    <g transform="translate(27.63,100.44)" stroke="#000000">
      <g class="primitive">
        <text dy="0.35em">N81</text>
      </g>
    </g>
    <g transform="translate(31.99,106.41)" stroke="#000000">
      <g class="primitive">
        <text dy="0.35em">N20</text>
      </g>
    </g>
    <g transform="translate(27.9,108.8)" stroke="#000000">
      <g class="primitive">
        <text dy="0.35em">N37</text>
      </g>
    </g>
    <g transform="translate(24.45,107.61)" stroke="#000000">
      <g class="primitive">
        <text dy="0.35em">N88</text>
      </g>
    </g>
    <g transform="translate(39.84,111.19)" stroke="#000000">
      <g class="primitive">
        <text dy="0.35em">N45</text>
      </g>
    </g>
    <g transform="translate(30.88,113.58)" stroke="#000000">
      <g class="primitive">
        <text dy="0.35em">N13</text>
      </g>
    </g>
    <g transform="translate(48.49,115.97)" stroke="#000000">
      <g class="primitive">
        <text dy="0.35em">N10</text>
      </g>
    </g>
    <g transform="translate(73.84,118.35)" stroke="#000000">
      <g class="primitive">
        <text dy="0.35em">N21</text>
      </g>
    </g>
    <g transform="translate(46.63,117.16)" stroke="#000000">
      <g class="primitive">
        <text dy="0.35em">N67</text>
      </g>
    </g>
    <g transform="translate(55.93,120.74)" stroke="#000000">
      <g class="primitive">
        <text dy="0.35em">N25</text>
      </g>
    </g>
    <g transform="translate(64.06,123.13)" stroke="#000000">
      <g class="primitive">
        <text dy="0.35em">N8</text>
      </g>
    </g>
    <g transform="translate(77.1,125.52)" stroke="#000000">
      <g class="primitive">
        <text dy="0.35em">N51</text>
      </g>
    </g>
    <g transform="translate(71.74,127.91)" stroke="#000000">
      <g class="primitive">
        <text dy="0.35em">N17</text>
      </g>
    </g>
    <g transform="translate(68.84,126.71)" stroke="#000000">
      <g class="primitive">
        <text dy="0.35em">N53</text>
      </g>
    </g>
    <g transform="translate(59.89,124.92)" stroke="#000000">
      <g class="primitive">
        <text dy="0.35em">N55</text>
      </g>
    </g>
    <g transform="translate(53.59,122.83)" stroke="#000000">
      <g class="primitive">
        <text dy="0.35em">N68</text>
      </g>
    </g>
    <g transform="translate(43.8,120)" stroke="#000000">
      <g class="primitive">
        <text dy="0.35em">N71</text>
      </g>
    </g>
    <g transform="translate(29.27,116.79)" stroke="#000000">
      <g class="primitive">
        <text dy="0.35em">N83</text>
      </g>
    </g>
    <g transform="translate(16.28,113.99)" stroke="#000000">
      <g class="primitive">
        <text dy="0.35em">N84</text>
      </g>
    </g>
    <g transform="translate(12.07,110.8)" stroke="#000000">
      <g class="primitive">
        <text dy="0.35em">N91</text>
      </g>
    </g>
    <g transform="translate(8.99,105.62)" stroke="#000000">
      <g class="primitive">
        <text dy="0.35em">N95</text>
      </g>
    </g>
    <g transform="translate(8.08,94.82)" stroke="#000000">
      <g class="primitive">
        <text dy="0.35em">N98</text>
      </g>
    </g>
    <g transform="translate(6.2,76.25)" stroke="#000000">
      <g class="primitive">
        <text dy="0.35em">N100</text>
      </g>
    </g>
  </g>
</g>
</svg>
