<?xml version="1.0" encoding="UTF-8"?>
<svg xmlns="http://www.w3.org/2000/svg"
     xmlns:xlink="http://www.w3.org/1999/xlink"
     version="1.2"
     width="150mm" height="82mm" viewBox="0 0 150 82"
     stroke="none"
     fill="#000000"
     stroke-width="0.3"
     font-size="3.88"
>
<defs>
  <marker id="arrow" markerWidth="15" markerHeight="7" refX="5" refY="3.5" orient="auto" markerUnits="strokeWidth">
    <path d="M0,0 L15,3.5 L0,7 z" stroke="context-stroke" fill="context-stroke"/>
  </marker>
</defs>
<g stroke-opacity="1" stroke-width="0.3" id="img-29b4c979-1">
  <g transform="translate(36.58,3.73)" stroke="#E29A1D">
    <path fill="none" d="M-5.59,0 L5.59,0 " class="primitive"/>
  </g>
  <g transform="translate(33.49,6.71)" stroke="#E29A1D">
    <path fill="none" d="M-2.5,0 L2.5,0 " class="primitive"/>
  </g>
  <g transform="translate(19.13,5.22)" stroke="#9942A3">
    <path fill="none" d="M-11.86,0 L11.86,0 " class="primitive"/>
  </g>
  <g transform="translate(30.99,5.22)" stroke="#9942A3">
    <path fill="none" d="M0,1.49 L0,-1.49 " class="primitive"/>
  </g>
  <g transform="translate(69.76,9.69)" stroke="#E29A1D">
    <path fill="none" d="M-8.42,0 L8.42,0 " class="primitive"/>
  </g>
  <g transform="translate(70.05,12.67)" stroke="#E29A1D">
    <path fill="none" d="M-8.7,0 L8.7,0 " class="primitive"/>
  </g>
  <g transform="translate(55.36,11.18)" stroke="#9942A3">
    <path fill="none" d="M-5.98,0 L5.98,0 " class="primitive"/>
  </g>
  <g transform="translate(61.34,11.18)" stroke="#9942A3">
    <path fill="none" d="M0,1.49 L0,-1.49 " class="primitive"/>
  </g>
  <g transform="translate(60.29,15.65)" stroke="#9942A3">
    <path fill="none" d="M-1.77,0 L1.77,0 " class="primitive"/>
  </g>
  <g transform="translate(60.97,18.64)" stroke="#E29A1D">
    <path fill="none" d="M-2.45,0 L2.45,0 " class="primitive"/>
  </g>
  <g transform="translate(54.56,17.15)" stroke="#9942A3">
    <path fill="none" d="M-3.97,0 L3.97,0 " class="primitive"/>
  </g>
  <g transform="translate(58.52,17.15)" stroke="#9942A3">
    <path fill="none" d="M0,1.49 L0,-1.49 " class="primitive"/>
  </g>
  <g transform="translate(52.21,21.62)" stroke="#9942A3">
    <path fill="none" d="M-0.61,0 L0.61,0 " class="primitive"/>
  </g>
  <g transform="translate(53.18,24.6)" stroke="#E29A1D">
    <path fill="none" d="M-1.59,0 L1.59,0 " class="primitive"/>
  </g>
  <g transform="translate(51.09,23.11)" stroke="#9942A3">
    <path fill="none" d="M-0.5,0 L0.5,0 " class="primitive"/>
  </g>
  <g transform="translate(51.6,23.11)" stroke="#9942A3">
    <path fill="none" d="M0,1.49 L0,-1.49 " class="primitive"/>
  </g>
  <g transform="translate(49.98,20.13)" stroke="#E29A1D">
    <path fill="none" d="M-0.61,0 L0.61,0 " class="primitive"/>
  </g>
  <g transform="translate(50.59,20.13)" stroke="#E29A1D">
    <path fill="none" d="M0,2.98 L0,-2.98 " class="primitive"/>
  </g>
  <g transform="translate(28.33,15.65)" stroke="#9942A3">
    <path fill="none" d="M-21.05,0 L21.05,0 " class="primitive"/>
  </g>
  <g transform="translate(49.37,15.65)" stroke="#9942A3">
    <path fill="none" d="M0,4.47 L0,-4.47 " class="primitive"/>
  </g>
  <g transform="translate(5.51,10.44)" stroke="#E29A1D">
    <path fill="none" d="M-1.76,0 L1.76,0 " class="primitive"/>
  </g>
  <g transform="translate(7.28,10.44)" stroke="#E29A1D">
    <path fill="none" d="M0,5.22 L0,-5.22 " class="primitive"/>
  </g>
  <g transform="translate(8.9,27.58)" stroke="#9942A3">
    <path fill="none" d="M-2.09,0 L2.09,0 " class="primitive"/>
  </g>
  <g transform="translate(9.5,30.56)" stroke="#E29A1D">
    <path fill="none" d="M-2.69,0 L2.69,0 " class="primitive"/>
  </g>
  <g transform="translate(5.28,29.07)" stroke="#9942A3">
    <path fill="none" d="M-1.53,0 L1.53,0 " class="primitive"/>
  </g>
  <g transform="translate(6.81,29.07)" stroke="#9942A3">
    <path fill="none" d="M0,1.49 L0,-1.49 " class="primitive"/>
  </g>
  <g transform="translate(19.01,33.55)" stroke="#E29A1D">
    <path fill="none" d="M-0.51,0 L0.51,0 " class="primitive"/>
  </g>
  <g transform="translate(20.1,36.53)" stroke="#9942A3">
    <path fill="none" d="M-1.01,0 L1.01,0 " class="primitive"/>
  </g>
  <g transform="translate(21.34,39.51)" stroke="#9942A3">
    <path fill="none" d="M-2.25,0 L2.25,0 " class="primitive"/>
  </g>
  <g transform="translate(18.79,38.02)" stroke="#9942A3">
    <path fill="none" d="M-0.3,0 L0.3,0 " class="primitive"/>
  </g>
  <g transform="translate(19.09,38.02)" stroke="#9942A3">
    <path fill="none" d="M0,1.49 L0,-1.49 " class="primitive"/>
  </g>
  <g transform="translate(18.29,35.78)" stroke="#E29A1D">
    <path fill="none" d="M-0.21,0 L0.21,0 " class="primitive"/>
  </g>
  <g transform="translate(18.5,35.78)" stroke="#E29A1D">
    <path fill="none" d="M0,2.24 L0,-2.24 " class="primitive"/>
  </g>
  <g transform="translate(45.43,42.49)" stroke="#E29A1D">
    <path fill="none" d="M-5.08,0 L5.08,0 " class="primitive"/>
  </g>
  <g transform="translate(57.17,45.47)" stroke="#E29A1D">
    <path fill="none" d="M-16.81,0 L16.81,0 " class="primitive"/>
  </g>
  <g transform="translate(35.44,43.98)" stroke="#9942A3">
    <path fill="none" d="M-4.91,0 L4.91,0 " class="primitive"/>
  </g>
  <g transform="translate(40.35,43.98)" stroke="#9942A3">
    <path fill="none" d="M0,1.49 L0,-1.49 " class="primitive"/>
  </g>
  <g transform="translate(44.92,48.45)" stroke="#9942A3">
    <path fill="none" d="M-0.96,0 L0.96,0 " class="primitive"/>
  </g>
  <g transform="translate(55.71,51.44)" stroke="#E29A1D">
    <path fill="none" d="M-7.93,0 L7.93,0 " class="primitive"/>
  </g>
  <g transform="translate(50.31,54.42)" stroke="#9942A3">
    <path fill="none" d="M-2.53,0 L2.53,0 " class="primitive"/>
  </g>
  <g transform="translate(45.87,52.93)" stroke="#E29A1D">
    <path fill="none" d="M-1.91,0 L1.91,0 " class="primitive"/>
  </g>
  <g transform="translate(47.78,52.93)" stroke="#E29A1D">
    <path fill="none" d="M0,1.49 L0,-1.49 " class="primitive"/>
  </g>
  <g transform="translate(37.24,50.69)" stroke="#E29A1D">
    <path fill="none" d="M-6.71,0 L6.71,0 " class="primitive"/>
  </g>
  <g transform="translate(43.95,50.69)" stroke="#E29A1D">
    <path fill="none" d="M0,2.24 L0,-2.24 " class="primitive"/>
  </g>
  <g transform="translate(24.3,47.34)" stroke="#E29A1D">
    <path fill="none" d="M-6.22,0 L6.22,0 " class="primitive"/>
  </g>
  <g transform="translate(30.53,47.34)" stroke="#E29A1D">
    <path fill="none" d="M0,3.35 L0,-3.35 " class="primitive"/>
  </g>
  <g transform="translate(11.06,41.56)" stroke="#9942A3">
    <path fill="none" d="M-7.02,0 L7.02,0 " class="primitive"/>
  </g>
  <g transform="translate(18.08,41.56)" stroke="#9942A3">
    <path fill="none" d="M0,5.78 L0,-5.78 " class="primitive"/>
  </g>
  <g transform="translate(18.84,57.4)" stroke="#9942A3">
    <path fill="none" d="M-0.73,0 L0.73,0 " class="primitive"/>
  </g>
  <g transform="translate(34.39,60.38)" stroke="#E29A1D">
    <path fill="none" d="M-1.8,0 L1.8,0 " class="primitive"/>
  </g>
  <g transform="translate(38.85,63.36)" stroke="#E29A1D">
    <path fill="none" d="M-3.56,0 L3.56,0 " class="primitive"/>
  </g>
  <g stroke-opacity="1" stroke-width="0.3" id="img-29b4c979-2">
    <g transform="translate(38.85,63.36)" stroke="#E29A1D">
      <path fill="none" d="M-3.56,0 L3.56,0 " class="primitive"/>
    </g>
    <g transform="translate(42.06,66.35)" stroke="#9942A3">
      <path fill="none" d="M-6.77,0 L6.77,0 " class="primitive"/>
    </g>
    <g transform="translate(33.95,64.85)" stroke="#9942A3">
      <path fill="none" d="M-1.35,0 L1.35,0 " class="primitive"/>
    </g>
    <g transform="translate(35.3,64.85)" stroke="#9942A3">
      <path fill="none" d="M0,1.49 L0,-1.49 " class="primitive"/>
    </g>
    <g transform="translate(28.78,62.62)" stroke="#9942A3">
      <path fill="none" d="M-3.81,0 L3.81,0 " class="primitive"/>
    </g>
    <g transform="translate(32.6,62.62)" stroke="#9942A3">
      <path fill="none" d="M0,2.24 L0,-2.24 " class="primitive"/>
    </g>
    <g transform="translate(28.59,69.33)" stroke="#E29A1D">
      <path fill="none" d="M-1.49,0 L1.49,0 " class="primitive"/>
    </g>
    <g transform="translate(53.83,72.31)" stroke="#9942A3">
      <path fill="none" d="M-4.08,0 L4.08,0 " class="primitive"/>
    </g>
    <g transform="translate(62.49,75.29)" stroke="#E29A1D">
      <path fill="none" d="M-9.16,0 L9.16,0 " class="primitive"/>
    </g>
    <g transform="translate(62.45,78.27)" stroke="#9942A3">
      <path fill="none" d="M-9.13,0 L9.13,0 " class="primitive"/>
    </g>
    <g transform="translate(51.54,76.78)" stroke="#9942A3">
      <path fill="none" d="M-1.79,0 L1.79,0 " class="primitive"/>
    </g>
    <g transform="translate(53.32,76.78)" stroke="#9942A3">
      <path fill="none" d="M0,1.49 L0,-1.49 " class="primitive"/>
    </g>
    <g transform="translate(38.43,74.55)" stroke="#E29A1D">
      <path fill="none" d="M-11.32,0 L11.32,0 " class="primitive"/>
    </g>
    <g transform="translate(49.75,74.55)" stroke="#E29A1D">
      <path fill="none" d="M0,2.24 L0,-2.24 " class="primitive"/>
    </g>
    <g transform="translate(26.03,71.94)" stroke="#E29A1D">
      <path fill="none" d="M-1.07,0 L1.07,0 " class="primitive"/>
    </g>
    <g transform="translate(27.1,71.94)" stroke="#E29A1D">
      <path fill="none" d="M0,2.61 L0,-2.61 " class="primitive"/>
    </g>
    <g transform="translate(21.54,67.28)" stroke="#9942A3">
      <path fill="none" d="M-3.43,0 L3.43,0 " class="primitive"/>
    </g>
    <g transform="translate(24.97,67.28)" stroke="#9942A3">
      <path fill="none" d="M0,4.66 L0,-4.66 " class="primitive"/>
    </g>
    <g transform="translate(11.08,62.34)" stroke="#9942A3">
      <path fill="none" d="M-7.03,0 L7.03,0 " class="primitive"/>
    </g>
    <g transform="translate(18.11,62.34)" stroke="#9942A3">
      <path fill="none" d="M0,4.94 L0,-4.94 " class="primitive"/>
    </g>
    <g transform="translate(3.9,51.95)" stroke="#9942A3">
      <path fill="none" d="M-0.15,0 L0.15,0 " class="primitive"/>
    </g>
    <g transform="translate(4.05,51.95)" stroke="#9942A3">
      <path fill="none" d="M0,10.39 L0,-10.39 " class="primitive"/>
    </g>
    <g transform="translate(3.75,40.51)" stroke="#000000">
      <path fill="none" d="M0,0 L0,0 " class="primitive"/>
    </g>
    <g transform="translate(3.75,40.51)" stroke="#000000">
      <path fill="none" d="M0,11.44 L0,-11.44 " class="primitive"/>
    </g>
    <g transform="translate(3.75,25.47)" stroke="#000000">
      <path fill="none" d="M0,0 L0,0 " class="primitive"/>
    </g>
    <g transform="translate(3.75,25.47)" stroke="#000000">
      <path fill="none" d="M0,15.04 L0,-15.04 " class="primitive"/>
    </g>
  </g>
</g>
<g fill-opacity="1" id="img-29b4c979-3">
  <g transform="translate(42.17,3.73)" fill="#E29A1D">
    <circle cx="0" cy="0" r="0.75" class="primitive"/>
  </g>
  <g transform="translate(36,6.71)" fill="#E29A1D">
    <circle cx="0" cy="0" r="0.75" class="primitive"/>
  </g>
  <g transform="translate(30.99,5.22)" fill="#9942A3">
    <circle cx="0" cy="0" r="0.75" class="primitive"/>
  </g>
  <g transform="translate(78.17,9.69)" fill="#E29A1D">
    <circle cx="0" cy="0" r="0.75" class="primitive"/>
  </g>
  <g transform="translate(78.75,12.67)" fill="#E29A1D">
    <circle cx="0" cy="0" r="0.75" class="primitive"/>
  </g>
  <g transform="translate(61.34,11.18)" fill="#9942A3">
    <circle cx="0" cy="0" r="0.75" class="primitive"/>
  </g>
  <g transform="translate(62.05,15.65)" fill="#9942A3">
    <circle cx="0" cy="0" r="0.75" class="primitive"/>
  </g>
  <g transform="translate(63.42,18.64)" fill="#E29A1D">
    <circle cx="0" cy="0" r="0.75" class="primitive"/>
  </g>
  <g transform="translate(58.52,17.15)" fill="#9942A3">
    <circle cx="0" cy="0" r="0.75" class="primitive"/>
  </g>
  <g transform="translate(52.82,21.62)" fill="#9942A3">
    <circle cx="0" cy="0" r="0.75" class="primitive"/>
  </g>
  <g transform="translate(54.77,24.6)" fill="#E29A1D">
    <circle cx="0" cy="0" r="0.75" class="primitive"/>
  </g>
  <g transform="translate(51.6,23.11)" fill="#9942A3">
    <circle cx="0" cy="0" r="0.75" class="primitive"/>
  </g>
  <g transform="translate(50.59,20.13)" fill="#E29A1D">
    <circle cx="0" cy="0" r="0.75" class="primitive"/>
  </g>
  <g transform="translate(49.37,15.65)" fill="#9942A3">
    <circle cx="0" cy="0" r="0.75" class="primitive"/>
  </g>
  <g transform="translate(7.28,10.44)" fill="#E29A1D">
    <circle cx="0" cy="0" r="0.75" class="primitive"/>
  </g>
  <g transform="translate(10.99,27.58)" fill="#9942A3">
    <circle cx="0" cy="0" r="0.75" class="primitive"/>
  </g>
  <g transform="translate(12.19,30.56)" fill="#E29A1D">
    <circle cx="0" cy="0" r="0.75" class="primitive"/>
  </g>
  <g transform="translate(6.81,29.07)" fill="#9942A3">
    <circle cx="0" cy="0" r="0.75" class="primitive"/>
  </g>
  <g transform="translate(19.51,33.55)" fill="#E29A1D">
    <circle cx="0" cy="0" r="0.75" class="primitive"/>
  </g>
  <g transform="translate(21.1,36.53)" fill="#9942A3">
    <circle cx="0" cy="0" r="0.75" class="primitive"/>
  </g>
  <g transform="translate(23.59,39.51)" fill="#9942A3">
    <circle cx="0" cy="0" r="0.75" class="primitive"/>
  </g>
  <g transform="translate(19.09,38.02)" fill="#9942A3">
    <circle cx="0" cy="0" r="0.75" class="primitive"/>
  </g>
  <g transform="translate(18.5,35.78)" fill="#E29A1D">
    <circle cx="0" cy="0" r="0.75" class="primitive"/>
  </g>
  <g transform="translate(50.51,42.49)" fill="#E29A1D">
    <circle cx="0" cy="0" r="0.75" class="primitive"/>
  </g>
  <g transform="translate(73.98,45.47)" fill="#E29A1D">
    <circle cx="0" cy="0" r="0.75" class="primitive"/>
  </g>
  <g transform="translate(40.35,43.98)" fill="#9942A3">
    <circle cx="0" cy="0" r="0.75" class="primitive"/>
  </g>
  <g transform="translate(45.88,48.45)" fill="#9942A3">
    <circle cx="0" cy="0" r="0.75" class="primitive"/>
  </g>
  <g transform="translate(63.64,51.44)" fill="#E29A1D">
    <circle cx="0" cy="0" r="0.75" class="primitive"/>
  </g>
  <g transform="translate(52.84,54.42)" fill="#9942A3">
    <circle cx="0" cy="0" r="0.75" class="primitive"/>
  </g>
  <g transform="translate(47.78,52.93)" fill="#E29A1D">
    <circle cx="0" cy="0" r="0.75" class="primitive"/>
  </g>
  <g transform="translate(43.95,50.69)" fill="#E29A1D">
    <circle cx="0" cy="0" r="0.75" class="primitive"/>
  </g>
  <g transform="translate(30.53,47.34)" fill="#E29A1D">
    <circle cx="0" cy="0" r="0.75" class="primitive"/>
  </g>
  <g transform="translate(18.08,41.56)" fill="#9942A3">
    <circle cx="0" cy="0" r="0.75" class="primitive"/>
  </g>
  <g transform="translate(19.57,57.4)" fill="#9942A3">
    <circle cx="0" cy="0" r="0.75" class="primitive"/>
  </g>
  <g transform="translate(36.19,60.38)" fill="#E29A1D">
    <circle cx="0" cy="0" r="0.75" class="primitive"/>
  </g>
  <g transform="translate(42.41,63.36)" fill="#E29A1D">
    <circle cx="0" cy="0" r="0.75" class="primitive"/>
  </g>
  <g transform="translate(48.83,66.35)" fill="#9942A3">
    <circle cx="0" cy="0" r="0.75" class="primitive"/>
  </g>
  <g transform="translate(35.3,64.85)" fill="#9942A3">
    <circle cx="0" cy="0" r="0.75" class="primitive"/>
  </g>
  <g transform="translate(32.6,62.62)" fill="#9942A3">
    <circle cx="0" cy="0" r="0.75" class="primitive"/>
  </g>
  <g transform="translate(30.08,69.33)" fill="#E29A1D">
    <circle cx="0" cy="0" r="0.75" class="primitive"/>
  </g>
  <g transform="translate(57.91,72.31)" fill="#9942A3">
    <circle cx="0" cy="0" r="0.75" class="primitive"/>
  </g>
  <g transform="translate(71.65,75.29)" fill="#E29A1D">
    <circle cx="0" cy="0" r="0.75" class="primitive"/>
  </g>
  <g transform="translate(71.58,78.27)" fill="#9942A3">
    <circle cx="0" cy="0" r="0.75" class="primitive"/>
  </g>
  <g transform="translate(53.32,76.78)" fill="#9942A3">
    <circle cx="0" cy="0" r="0.75" class="primitive"/>
  </g>
  <g transform="translate(49.75,74.55)" fill="#E29A1D">
    <circle cx="0" cy="0" r="0.75" class="primitive"/>
  </g>
  <g transform="translate(27.1,71.94)" fill="#E29A1D">
    <circle cx="0" cy="0" r="0.75" class="primitive"/>
  </g>
  <g transform="translate(24.97,67.28)" fill="#9942A3">
    <circle cx="0" cy="0" r="0.75" class="primitive"/>
  </g>
  <g transform="translate(18.11,62.34)" fill="#9942A3">
    <circle cx="0" cy="0" r="0.75" class="primitive"/>
  </g>
  <g transform="translate(4.05,51.95)" fill="#9942A3">
    <circle cx="0" cy="0" r="0.75" class="primitive"/>
  </g>
  <g transform="translate(3.75,40.51)" fill="#000000">
    <circle cx="0" cy="0" r="0.75" class="primitive"/>
  </g>
  <g transform="translate(3.75,25.47)" fill="#000000">
    <circle cx="0" cy="0" r="0.75" class="primitive"/>
  </g>
  <g fill-opacity="1" fill="#000000" id="img-29b4c979-4">
    <g transform="translate(3.75,25.47)">
      <circle cx="0" cy="0" r="0.75" class="primitive"/>
    </g>
  </g>
</g>
<g stroke-opacity="1" fill-opacity="1" font-size="1.41" stroke-width="0.1" id="img-29b4c979-5">
  <g transform="translate(44.04,3.73)" stroke="#000000">
    <g class="primitive">
      <text dy="0.35em">N6</text>
    </g>
  </g>
  <g transform="translate(37.87,6.71)" stroke="#000000">
    <g class="primitive">
      <text dy="0.35em">N24</text>
    </g>
  </g>
  <g transform="translate(32.86,5.22)" stroke="#000000">
    <g class="primitive">
      <text dy="0.35em">N36</text>
    </g>
  </g>
  <g transform="translate(80.05,9.69)" stroke="#000000">
    <g class="primitive">
      <text dy="0.35em">N4</text>
    </g>
  </g>
  <g transform="translate(80.62,12.67)" stroke="#000000">
    <g class="primitive">
      <text dy="0.35em">N16</text>
    </g>
  </g>
  <g transform="translate(63.22,11.18)" stroke="#000000">
    <g class="primitive">
      <text dy="0.35em">N33</text>
    </g>
  </g>
  <g transform="translate(63.93,15.65)" stroke="#000000">
    <g class="primitive">
      <text dy="0.35em">N9</text>
    </g>
  </g>
  <g transform="translate(65.29,18.64)" stroke="#000000">
    <g class="primitive">
      <text dy="0.35em">N22</text>
    </g>
  </g>
  <g transform="translate(60.4,17.15)" stroke="#000000">
    <g class="primitive">
      <text dy="0.35em">N32</text>
    </g>
  </g>
  <g transform="translate(54.69,21.62)" stroke="#000000">
    <g class="primitive">
      <text dy="0.35em">N8</text>
    </g>
  </g>
  <g transform="translate(56.65,24.6)" stroke="#000000">
    <g class="primitive">
      <text dy="0.35em">N20</text>
    </g>
  </g>
  <g transform="translate(53.47,23.11)" stroke="#000000">
    <g class="primitive">
      <text dy="0.35em">N40</text>
    </g>
  </g>
  <g transform="translate(52.46,20.13)" stroke="#000000">
    <g class="primitive">
      <text dy="0.35em">N41</text>
    </g>
  </g>
  <g transform="translate(51.25,15.65)" stroke="#000000">
    <g class="primitive">
      <text dy="0.35em">N44</text>
    </g>
  </g>
  <g transform="translate(9.15,10.44)" stroke="#000000">
    <g class="primitive">
      <text dy="0.35em">N47</text>
    </g>
  </g>
  <g transform="translate(12.86,27.58)" stroke="#000000">
    <g class="primitive">
      <text dy="0.35em">N10</text>
    </g>
  </g>
  <g transform="translate(14.07,30.56)" stroke="#000000">
    <g class="primitive">
      <text dy="0.35em">N12</text>
    </g>
  </g>
  <g transform="translate(8.69,29.07)" stroke="#000000">
    <g class="primitive">
      <text dy="0.35em">N46</text>
    </g>
  </g>
  <g transform="translate(21.39,33.55)" stroke="#000000">
    <g class="primitive">
      <text dy="0.35em">N1</text>
    </g>
  </g>
  <g transform="translate(22.98,36.53)" stroke="#000000">
    <g class="primitive">
      <text dy="0.35em">N0</text>
    </g>
  </g>
  <g transform="translate(25.47,39.51)" stroke="#000000">
    <g class="primitive">
      <text dy="0.35em">N25</text>
    </g>
  </g>
  <g transform="translate(20.97,38.02)" stroke="#000000">
    <g class="primitive">
      <text dy="0.35em">N31</text>
    </g>
  </g>
  <g transform="translate(20.37,35.78)" stroke="#000000">
    <g class="primitive">
      <text dy="0.35em">N37</text>
    </g>
  </g>
  <g transform="translate(52.39,42.49)" stroke="#000000">
    <g class="primitive">
      <text dy="0.35em">N21</text>
    </g>
  </g>
  <g transform="translate(75.86,45.47)" stroke="#000000">
    <g class="primitive">
      <text dy="0.35em">N14</text>
    </g>
  </g>
  <g transform="translate(42.23,43.98)" stroke="#000000">
    <g class="primitive">
      <text dy="0.35em">N30</text>
    </g>
  </g>
  <g transform="translate(47.75,48.45)" stroke="#000000">
    <g class="primitive">
      <text dy="0.35em">N13</text>
    </g>
  </g>
  <g transform="translate(65.52,51.44)" stroke="#000000">
    <g class="primitive">
      <text dy="0.35em">N7</text>
    </g>
  </g>
  <g transform="translate(54.71,54.42)" stroke="#000000">
    <g class="primitive">
      <text dy="0.35em">N23</text>
    </g>
  </g>
  <g transform="translate(49.66,52.93)" stroke="#000000">
    <g class="primitive">
      <text dy="0.35em">N35</text>
    </g>
  </g>
  <g transform="translate(45.83,50.69)" stroke="#000000">
    <g class="primitive">
      <text dy="0.35em">N42</text>
    </g>
  </g>
  <g transform="translate(32.4,47.34)" stroke="#000000">
    <g class="primitive">
      <text dy="0.35em">N43</text>
    </g>
  </g>
  <g transform="translate(19.96,41.56)" stroke="#000000">
    <g class="primitive">
      <text dy="0.35em">N45</text>
    </g>
  </g>
  <g transform="translate(21.45,57.4)" stroke="#000000">
    <g class="primitive">
      <text dy="0.35em">N17</text>
    </g>
  </g>
  <g transform="translate(38.07,60.38)" stroke="#000000">
    <g class="primitive">
      <text dy="0.35em">N19</text>
    </g>
  </g>
  <g transform="translate(44.28,63.36)" stroke="#000000">
    <g class="primitive">
      <text dy="0.35em">N18</text>
    </g>
  </g>
  <g transform="translate(50.71,66.35)" stroke="#000000">
    <g class="primitive">
      <text dy="0.35em">N15</text>
    </g>
  </g>
  <g transform="translate(37.17,64.85)" stroke="#000000">
    <g class="primitive">
      <text dy="0.35em">N28</text>
    </g>
  </g>
  <g transform="translate(34.47,62.62)" stroke="#000000">
    <g class="primitive">
      <text dy="0.35em">N34</text>
    </g>
  </g>
  <g transform="translate(31.96,69.33)" stroke="#000000">
    <g class="primitive">
      <text dy="0.35em">N5</text>
    </g>
  </g>
  <g transform="translate(59.78,72.31)" stroke="#000000">
    <g class="primitive">
      <text dy="0.35em">N3</text>
    </g>
  </g>
  <g transform="translate(73.53,75.29)" stroke="#000000">
    <g class="primitive">
      <text dy="0.35em">N11</text>
    </g>
  </g>
  <g transform="translate(73.45,78.27)" stroke="#000000">
    <g class="primitive">
      <text dy="0.35em">N2</text>
    </g>
  </g>
  <g transform="translate(55.2,76.78)" stroke="#000000">
    <g class="primitive">
      <text dy="0.35em">N26</text>
    </g>
  </g>
  <g transform="translate(51.63,74.55)" stroke="#000000">
    <g class="primitive">
      <text dy="0.35em">N27</text>
    </g>
  </g>
  <g transform="translate(28.98,71.94)" stroke="#000000">
    <g class="primitive">
      <text dy="0.35em">N29</text>
    </g>
  </g>
  <g transform="translate(26.84,67.28)" stroke="#000000">
    <g class="primitive">
      <text dy="0.35em">N38</text>
    </g>
  </g>
  <g transform="translate(19.99,62.34)" stroke="#000000">
    <g class="primitive">
      <text dy="0.35em">N39</text>
    </g>
  </g>
  <g transform="translate(5.92,51.95)" stroke="#000000">
    <g class="primitive">
      <text dy="0.35em">N48</text>
    </g>
  </g>
  <g transform="translate(5.63,40.51)" stroke="#000000">
    <g class="primitive">
      <text dy="0.35em"></text>
    </g>
  </g>
  <g transform="translate(5.63,25.47)" stroke="#000000">
    <g class="primitive">
      <text dy="0.35em"></text>
    </g>
  </g>
  <g stroke-opacity="1" fill-opacity="1" font-size="1.41" stroke-width="0.1" stroke="#000000" fill="#000000" id="img-29b4c979-6">
    <g transform="translate(5.63,25.47)">
      <g class="primitive">
        <text dy="0.35em"></text>
      </g>
    </g>
  </g>
</g>
</svg>
