<?xml version="1.0" encoding="UTF-8"?>
<svg xmlns="http://www.w3.org/2000/svg"
     xmlns:xlink="http://www.w3.org/1999/xlink"
     version="1.2"
     width="150mm" height="52mm" viewBox="0 0 150 52"
     stroke="none"
     fill="#000000"
     stroke-width="0.3"
     font-size="3.88"
>
<defs>
  <marker id="arrow" markerWidth="15" markerHeight="7" refX="5" refY="3.5" orient="auto" markerUnits="strokeWidth">
    <path d="M0,0 L15,3.5 L0,7 z" stroke="context-stroke" fill="context-stroke"/>
  </marker>
</defs>
<g stroke-opacity="1" stroke-width="0.3" id="img-29b4c979-1">
  <g transform="translate(4.04,2.36)" stroke="#998353">
    <path fill="none" d="M-0.29,0 L0.29,0 " class="primitive"/>
  </g>
  <g transform="translate(16.07,7.09)" stroke="#998353">
    <path fill="none" d="M-3.05,0 L3.05,0 " class="primitive"/>
  </g>
  <g transform="translate(49.07,11.82)" stroke="#998353">
    <path fill="none" d="M-2.7,0 L2.7,0 " class="primitive"/>
  </g>
  <g transform="translate(49.66,16.55)" stroke="#F31BB5">
    <path fill="none" d="M-3.29,0 L3.29,0 " class="primitive"/>
  </g>
  <g transform="translate(29.7,14.18)" stroke="#F31BB5">
    <path fill="none" d="M-16.67,0 L16.67,0 " class="primitive"/>
  </g>
  <g transform="translate(46.37,14.18)" stroke="#F31BB5">
    <path fill="none" d="M0,2.36 L0,-2.36 " class="primitive"/>
  </g>
  <g transform="translate(8.39,10.64)" stroke="#F31BB5">
    <path fill="none" d="M-4.64,0 L4.64,0 " class="primitive"/>
  </g>
  <g transform="translate(13.03,10.64)" stroke="#F31BB5">
    <path fill="none" d="M0,3.55 L0,-3.55 " class="primitive"/>
  </g>
  <g transform="translate(25.9,21.27)" stroke="#998353">
    <path fill="none" d="M-21.12,0 L21.12,0 " class="primitive"/>
  </g>
  <g transform="translate(53.39,26)" stroke="#998353">
    <path fill="none" d="M-4.19,0 L4.19,0 " class="primitive"/>
  </g>
  <g transform="translate(52.14,30.73)" stroke="#F31BB5">
    <path fill="none" d="M-2.94,0 L2.94,0 " class="primitive"/>
  </g>
  <g transform="translate(30.93,28.36)" stroke="#F31BB5">
    <path fill="none" d="M-18.27,0 L18.27,0 " class="primitive"/>
  </g>
  <g transform="translate(49.2,28.36)" stroke="#F31BB5">
    <path fill="none" d="M0,2.36 L0,-2.36 " class="primitive"/>
  </g>
  <g transform="translate(31.35,35.45)" stroke="#F31BB5">
    <path fill="none" d="M-1.31,0 L1.31,0 " class="primitive"/>
  </g>
  <g transform="translate(45.19,40.18)" stroke="#F31BB5">
    <path fill="none" d="M-5.49,0 L5.49,0 " class="primitive"/>
  </g>
  <g transform="translate(62.68,44.91)" stroke="#998353">
    <path fill="none" d="M-5.03,0 L5.03,0 " class="primitive"/>
  </g>
  <g transform="translate(68.2,49.64)" stroke="#998353">
    <path fill="none" d="M-10.55,0 L10.55,0 " class="primitive"/>
  </g>
  <g transform="translate(48.67,47.27)" stroke="#F31BB5">
    <path fill="none" d="M-8.97,0 L8.97,0 " class="primitive"/>
  </g>
  <g transform="translate(57.65,47.27)" stroke="#F31BB5">
    <path fill="none" d="M0,2.36 L0,-2.36 " class="primitive"/>
  </g>
  <g transform="translate(34.87,43.73)" stroke="#998353">
    <path fill="none" d="M-4.83,0 L4.83,0 " class="primitive"/>
  </g>
  <g transform="translate(39.7,43.73)" stroke="#998353">
    <path fill="none" d="M0,3.55 L0,-3.55 " class="primitive"/>
  </g>
  <g transform="translate(21.35,39.59)" stroke="#998353">
    <path fill="none" d="M-8.69,0 L8.69,0 " class="primitive"/>
  </g>
  <g transform="translate(30.04,39.59)" stroke="#998353">
    <path fill="none" d="M0,4.14 L0,-4.14 " class="primitive"/>
  </g>
  <g transform="translate(8.71,33.98)" stroke="#998353">
    <path fill="none" d="M-3.94,0 L3.94,0 " class="primitive"/>
  </g>
  <g transform="translate(12.66,33.98)" stroke="#998353">
    <path fill="none" d="M0,5.61 L0,-5.61 " class="primitive"/>
  </g>
  <g transform="translate(4.26,27.62)" stroke="#998353">
    <path fill="none" d="M-0.51,0 L0.51,0 " class="primitive"/>
  </g>
  <g transform="translate(4.77,27.62)" stroke="#998353">
    <path fill="none" d="M0,6.35 L0,-6.35 " class="primitive"/>
  </g>
  <g transform="translate(3.75,19.13)" stroke="#000000">
    <path fill="none" d="M0,0 L0,0 " class="primitive"/>
  </g>
  <g transform="translate(3.75,19.13)" stroke="#000000">
    <path fill="none" d="M0,8.49 L0,-8.49 " class="primitive"/>
  </g>
  <g transform="translate(3.75,10.75)" stroke="#000000">
    <path fill="none" d="M0,0 L0,0 " class="primitive"/>
  </g>
  <g transform="translate(3.75,10.75)" stroke="#000000">
    <path fill="none" d="M0,8.38 L0,-8.38 " class="primitive"/>
  </g>
</g>
<g fill-opacity="1" id="img-29b4c979-2">
  <g transform="translate(4.34,2.36)" fill="#998353">
    <circle cx="0" cy="0" r="0.75" class="primitive"/>
  </g>
  <g transform="translate(19.12,7.09)" fill="#998353">
    <circle cx="0" cy="0" r="0.75" class="primitive"/>
  </g>
  <g transform="translate(51.77,11.82)" fill="#998353">
    <circle cx="0" cy="0" r="0.75" class="primitive"/>
  </g>
  <g transform="translate(52.95,16.55)" fill="#F31BB5">
    <circle cx="0" cy="0" r="0.75" class="primitive"/>
  </g>
  <g transform="translate(46.37,14.18)" fill="#F31BB5">
    <circle cx="0" cy="0" r="0.75" class="primitive"/>
  </g>
  <g transform="translate(13.03,10.64)" fill="#F31BB5">
    <circle cx="0" cy="0" r="0.75" class="primitive"/>
  </g>
  <g transform="translate(47.02,21.27)" fill="#998353">
    <circle cx="0" cy="0" r="0.75" class="primitive"/>
  </g>
  <g transform="translate(57.58,26)" fill="#998353">
    <circle cx="0" cy="0" r="0.75" class="primitive"/>
  </g>
  <g transform="translate(55.09,30.73)" fill="#F31BB5">
    <circle cx="0" cy="0" r="0.75" class="primitive"/>
  </g>
  <g transform="translate(49.2,28.36)" fill="#F31BB5">
    <circle cx="0" cy="0" r="0.75" class="primitive"/>
  </g>
  <g transform="translate(32.66,35.45)" fill="#F31BB5">
    <circle cx="0" cy="0" r="0.75" class="primitive"/>
  </g>
  <g transform="translate(50.67,40.18)" fill="#F31BB5">
    <circle cx="0" cy="0" r="0.75" class="primitive"/>
  </g>
  <g transform="translate(67.71,44.91)" fill="#998353">
    <circle cx="0" cy="0" r="0.75" class="primitive"/>
  </g>
  <g transform="translate(78.75,49.64)" fill="#998353">
    <circle cx="0" cy="0" r="0.75" class="primitive"/>
  </g>
  <g transform="translate(57.65,47.27)" fill="#F31BB5">
    <circle cx="0" cy="0" r="0.75" class="primitive"/>
  </g>
  <g transform="translate(39.7,43.73)" fill="#998353">
    <circle cx="0" cy="0" r="0.75" class="primitive"/>
  </g>
  <g transform="translate(30.04,39.59)" fill="#998353">
    <circle cx="0" cy="0" r="0.75" class="primitive"/>
  </g>
  <g transform="translate(12.66,33.98)" fill="#998353">
    <circle cx="0" cy="0" r="0.75" class="primitive"/>
  </g>
  <g transform="translate(4.77,27.62)" fill="#998353">
    <circle cx="0" cy="0" r="0.75" class="primitive"/>
  </g>
  <g transform="translate(3.75,19.13)" fill="#000000">
    <circle cx="0" cy="0" r="0.75" class="primitive"/>
  </g>
  <g transform="translate(3.75,10.75)" fill="#000000">
    <circle cx="0" cy="0" r="0.75" class="primitive"/>
  </g>
</g>
<g stroke-opacity="1" fill-opacity="1" font-size="1.41" stroke-width="0.1" id="img-29b4c979-3">
  <g transform="translate(6.21,2.36)" stroke="#000000">
    <g class="primitive">
      <text dy="0.35em">N5</text>
    </g>
  </g>
  <g transform="translate(20.99,7.09)" stroke="#000000">
    <g class="primitive">
      <text dy="0.35em">N4</text>
    </g>
  </g>
  <g transform="translate(53.64,11.82)" stroke="#000000">
    <g class="primitive">
      <text dy="0.35em">N0</text>
    </g>
  </g>
  <g transform="translate(54.82,16.55)" stroke="#000000">
    <g class="primitive">
      <text dy="0.35em">N3</text>
    </g>
  </g>
  <g transform="translate(48.24,14.18)" stroke="#000000">
    <g class="primitive">
      <text dy="0.35em">N11</text>
    </g>
  </g>
  <g transform="translate(14.9,10.64)" stroke="#000000">
    <g class="primitive">
      <text dy="0.35em">N15</text>
    </g>
  </g>
  <g transform="translate(48.89,21.27)" stroke="#000000">
    <g class="primitive">
      <text dy="0.35em">N9</text>
    </g>
  </g>
  <g transform="translate(59.46,26)" stroke="#000000">
    <g class="primitive">
      <text dy="0.35em">N10</text>
    </g>
  </g>
  <g transform="translate(56.96,30.73)" stroke="#000000">
    <g class="primitive">
      <text dy="0.35em">N1</text>
    </g>
  </g>
  <g transform="translate(51.07,28.36)" stroke="#000000">
    <g class="primitive">
      <text dy="0.35em">N13</text>
    </g>
  </g>
  <g transform="translate(34.53,35.45)" stroke="#000000">
    <g class="primitive">
      <text dy="0.35em">N6</text>
    </g>
  </g>
  <g transform="translate(52.55,40.18)" stroke="#000000">
    <g class="primitive">
      <text dy="0.35em">N2</text>
    </g>
  </g>
  <g transform="translate(69.59,44.91)" stroke="#000000">
    <g class="primitive">
      <text dy="0.35em">N8</text>
    </g>
  </g>
  <g transform="translate(80.62,49.64)" stroke="#000000">
    <g class="primitive">
      <text dy="0.35em">N7</text>
    </g>
  </g>
  <g transform="translate(59.52,47.27)" stroke="#000000">
    <g class="primitive">
      <text dy="0.35em">N12</text>
    </g>
  </g>
  <g transform="translate(41.57,43.73)" stroke="#000000">
    <g class="primitive">
      <text dy="0.35em">N14</text>
    </g>
  </g>
  <g transform="translate(31.92,39.59)" stroke="#000000">
    <g class="primitive">
      <text dy="0.35em">N16</text>
    </g>
  </g>
  <g transform="translate(14.53,33.98)" stroke="#000000">
    <g class="primitive">
      <text dy="0.35em">N17</text>
    </g>
  </g>
  <g transform="translate(6.65,27.62)" stroke="#000000">
    <g class="primitive">
      <text dy="0.35em">N18</text>
    </g>
  </g>
  <g transform="translate(5.63,19.13)" stroke="#000000">
    <g class="primitive">
      <text dy="0.35em"></text>
    </g>
  </g>
  <g transform="translate(5.63,10.75)" stroke="#000000">
    <g class="primitive">
      <text dy="0.35em"></text>
    </g>
  </g>
</g>
</svg>
