<?xml version="1.0" encoding="UTF-8"?>
<svg xmlns="http://www.w3.org/2000/svg"
     xmlns:xlink="http://www.w3.org/1999/xlink"
     version="1.2"
     width="150mm" height="104mm" viewBox="0 0 150 104"
     stroke="none"
     fill="#000000"
     stroke-width="0.3"
     font-size="3.88"
>
<defs>
  <marker id="arrow" markerWidth="15" markerHeight="7" refX="5" refY="3.5" orient="auto" markerUnits="strokeWidth">
    <path d="M0,0 L15,3.5 L0,7 z" stroke="context-stroke" fill="context-stroke"/>
  </marker>
</defs>
<g stroke-opacity="1" stroke-width="0.3" id="img-29b4c979-1">
  <g transform="translate(4.06,4.73)" stroke="#D8167F">
    <path fill="none" d="M-0.31,0 L0.31,0 " class="primitive"/>
  </g>
  <g transform="translate(6.41,7.35)" stroke="#7E0746">
    <path fill="none" d="M-2.66,0 L2.66,0 " class="primitive"/>
  </g>
  <g transform="translate(12.42,9.98)" stroke="#D8167F">
    <path fill="none" d="M-1.98,0 L1.98,0 " class="primitive"/>
  </g>
  <g transform="translate(10.93,12.61)" stroke="#D8167F">
    <path fill="none" d="M-0.4,0 L0.4,0 " class="primitive"/>
  </g>
  <g transform="translate(15.8,15.23)" stroke="#D8167F">
    <path fill="none" d="M-1.92,0 L1.92,0 " class="primitive"/>
  </g>
  <g transform="translate(16.92,17.86)" stroke="#D8167F">
    <path fill="none" d="M-1.83,0 L1.83,0 " class="primitive"/>
  </g>
  <g transform="translate(17.21,20.48)" stroke="#D8167F">
    <path fill="none" d="M-0.42,0 L0.42,0 " class="primitive"/>
  </g>
  <g transform="translate(18.68,23.11)" stroke="#D8167F">
    <path fill="none" d="M-0.03,0 L0.03,0 " class="primitive"/>
  </g>
  <g transform="translate(20.56,25.74)" stroke="#D8167F">
    <path fill="none" d="M-0.6,0 L0.6,0 " class="primitive"/>
  </g>
  <g transform="translate(20.19,28.36)" stroke="#7E0746">
    <path fill="none" d="M-0.1,0 L0.1,0 " class="primitive"/>
  </g>
  <g transform="translate(23.4,30.99)" stroke="#D8167F">
    <path fill="none" d="M-0.63,0 L0.63,0 " class="primitive"/>
  </g>
  <g transform="translate(26.58,33.62)" stroke="#7E0746">
    <path fill="none" d="M-0.44,0 L0.44,0 " class="primitive"/>
  </g>
  <g transform="translate(27.61,36.24)" stroke="#D8167F">
    <path fill="none" d="M-0.34,0 L0.34,0 " class="primitive"/>
  </g>
  <g transform="translate(28.94,38.87)" stroke="#D8167F">
    <path fill="none" d="M-0.2,0 L0.2,0 " class="primitive"/>
  </g>
  <g transform="translate(31.87,41.49)" stroke="#D8167F">
    <path fill="none" d="M-0.15,0 L0.15,0 " class="primitive"/>
  </g>
  <g transform="translate(38.18,44.12)" stroke="#7E0746">
    <path fill="none" d="M-0.23,0 L0.23,0 " class="primitive"/>
  </g>
  <g transform="translate(40.06,46.75)" stroke="#7E0746">
    <path fill="none" d="M-0.44,0 L0.44,0 " class="primitive"/>
  </g>
  <g transform="translate(43.5,49.37)" stroke="#D8167F">
    <path fill="none" d="M-2.55,0 L2.55,0 " class="primitive"/>
  </g>
  <g transform="translate(42.71,52)" stroke="#D8167F">
    <path fill="none" d="M-0.56,0 L0.56,0 " class="primitive"/>
  </g>
  <g transform="translate(42.79,54.63)" stroke="#D8167F">
    <path fill="none" d="M-0.3,0 L0.3,0 " class="primitive"/>
  </g>
  <g transform="translate(46.94,57.25)" stroke="#7E0746">
    <path fill="none" d="M-2.67,0 L2.67,0 " class="primitive"/>
  </g>
  <g transform="translate(48.79,59.88)" stroke="#7E0746">
    <path fill="none" d="M-0.73,0 L0.73,0 " class="primitive"/>
  </g>
  <g transform="translate(51.29,62.51)" stroke="#D8167F">
    <path fill="none" d="M-1.39,0 L1.39,0 " class="primitive"/>
  </g>
  <g transform="translate(53.14,65.13)" stroke="#D8167F">
    <path fill="none" d="M-0.86,0 L0.86,0 " class="primitive"/>
  </g>
  <g transform="translate(53.36,67.76)" stroke="#D8167F">
    <path fill="none" d="M-0.52,0 L0.52,0 " class="primitive"/>
  </g>
  <g transform="translate(54.9,70.38)" stroke="#D8167F">
    <path fill="none" d="M-0.7,0 L0.7,0 " class="primitive"/>
  </g>
  <g transform="translate(61.46,73.01)" stroke="#7E0746">
    <path fill="none" d="M-1.84,0 L1.84,0 " class="primitive"/>
  </g>
  <g transform="translate(61.55,75.64)" stroke="#D8167F">
    <path fill="none" d="M-0.31,0 L0.31,0 " class="primitive"/>
  </g>
  <g transform="translate(64.65,78.26)" stroke="#7E0746">
    <path fill="none" d="M-0.82,0 L0.82,0 " class="primitive"/>
  </g>
  <g transform="translate(68.13,80.89)" stroke="#D8167F">
    <path fill="none" d="M-2.28,0 L2.28,0 " class="primitive"/>
  </g>
  <g transform="translate(67.06,83.52)" stroke="#D8167F">
    <path fill="none" d="M-0.62,0 L0.62,0 " class="primitive"/>
  </g>
  <g transform="translate(68.75,86.14)" stroke="#D8167F">
    <path fill="none" d="M-0.89,0 L0.89,0 " class="primitive"/>
  </g>
  <g transform="translate(71.98,88.77)" stroke="#D8167F">
    <path fill="none" d="M-2.87,0 L2.87,0 " class="primitive"/>
  </g>
  <g transform="translate(72.04,91.39)" stroke="#D8167F">
    <path fill="none" d="M-0.1,0 L0.1,0 " class="primitive"/>
  </g>
  <g transform="translate(77.1,94.02)" stroke="#D8167F">
    <path fill="none" d="M-0.53,0 L0.53,0 " class="primitive"/>
  </g>
  <g transform="translate(78.51,96.65)" stroke="#D8167F">
    <path fill="none" d="M-0.24,0 L0.24,0 " class="primitive"/>
  </g>
  <g transform="translate(78.46,99.27)" stroke="#D8167F">
    <path fill="none" d="M-0.19,0 L0.19,0 " class="primitive"/>
  </g>
  <g transform="translate(77.42,97.96)" stroke="#D8167F">
    <path fill="none" d="M-0.85,0 L0.85,0 " class="primitive"/>
  </g>
  <g transform="translate(78.27,97.96)" stroke="#D8167F">
    <path fill="none" d="M0,1.31 L0,-1.31 " class="primitive"/>
  </g>
  <g transform="translate(74.25,95.99)" stroke="#7E0746">
    <path fill="none" d="M-2.32,0 L2.32,0 " class="primitive"/>
  </g>
  <g transform="translate(76.57,95.99)" stroke="#7E0746">
    <path fill="none" d="M0,1.97 L0,-1.97 " class="primitive"/>
  </g>
  <g transform="translate(70.52,93.69)" stroke="#D8167F">
    <path fill="none" d="M-1.41,0 L1.41,0 " class="primitive"/>
  </g>
  <g transform="translate(71.94,93.69)" stroke="#D8167F">
    <path fill="none" d="M0,2.3 L0,-2.3 " class="primitive"/>
  </g>
  <g transform="translate(68.49,91.23)" stroke="#D8167F">
    <path fill="none" d="M-0.63,0 L0.63,0 " class="primitive"/>
  </g>
  <g transform="translate(69.11,91.23)" stroke="#D8167F">
    <path fill="none" d="M0,2.46 L0,-2.46 " class="primitive"/>
  </g>
  <g transform="translate(67.15,88.69)" stroke="#7E0746">
    <path fill="none" d="M-0.71,0 L0.71,0 " class="primitive"/>
  </g>
  <g transform="translate(67.86,88.69)" stroke="#7E0746">
    <path fill="none" d="M0,2.54 L0,-2.54 " class="primitive"/>
  </g>
  <g transform="translate(66.15,86.1)" stroke="#D8167F">
    <path fill="none" d="M-0.3,0 L0.3,0 " class="primitive"/>
  </g>
  <g transform="translate(66.44,86.1)" stroke="#D8167F">
    <path fill="none" d="M0,2.59 L0,-2.59 " class="primitive"/>
  </g>
  <g transform="translate(64.84,83.49)" stroke="#D8167F">
    <path fill="none" d="M-1.01,0 L1.01,0 " class="primitive"/>
  </g>
  <g transform="translate(65.85,83.49)" stroke="#D8167F">
    <path fill="none" d="M0,2.61 L0,-2.61 " class="primitive"/>
  </g>
  <g stroke-opacity="1" stroke-width="0.3" id="img-29b4c979-2">
    <g transform="translate(13.88,17.86)" stroke="#7E0746">
      <path fill="none" d="M0,2.63 L0,-2.63 " class="primitive"/>
    </g>
    <g transform="translate(10.49,15.23)" stroke="#D8167F">
      <path fill="none" d="M-0.05,0 L0.05,0 " class="primitive"/>
    </g>
    <g transform="translate(10.54,15.23)" stroke="#D8167F">
      <path fill="none" d="M0,2.63 L0,-2.63 " class="primitive"/>
    </g>
    <g transform="translate(7.1,12.61)" stroke="#D8167F">
      <path fill="none" d="M-3.35,0 L3.35,0 " class="primitive"/>
    </g>
    <g transform="translate(10.44,12.61)" stroke="#D8167F">
      <path fill="none" d="M0,2.63 L0,-2.63 " class="primitive"/>
    </g>
    <g transform="translate(3.75,9.98)" stroke="#000000">
      <path fill="none" d="M0,0 L0,0 " class="primitive"/>
    </g>
    <g transform="translate(3.75,9.98)" stroke="#000000">
      <path fill="none" d="M0,2.63 L0,-2.63 " class="primitive"/>
    </g>
    <g transform="translate(3.75,7.35)" stroke="#000000">
      <path fill="none" d="M0,0 L0,0 " class="primitive"/>
    </g>
    <g transform="translate(3.75,7.35)" stroke="#000000">
      <path fill="none" d="M0,2.63 L0,-2.63 " class="primitive"/>
    </g>
  </g>
  <g stroke-opacity="1" stroke-width="0.3" id="img-29b4c979-3">
    <g transform="translate(65.85,83.49)" stroke="#D8167F">
      <path fill="none" d="M0,2.61 L0,-2.61 " class="primitive"/>
    </g>
    <g transform="translate(62.54,80.88)" stroke="#7E0746">
      <path fill="none" d="M-1.3,0 L1.3,0 " class="primitive"/>
    </g>
    <g transform="translate(63.83,80.88)" stroke="#7E0746">
      <path fill="none" d="M0,2.62 L0,-2.62 " class="primitive"/>
    </g>
    <g transform="translate(60.43,78.26)" stroke="#7E0746">
      <path fill="none" d="M-0.81,0 L0.81,0 " class="primitive"/>
    </g>
    <g transform="translate(61.24,78.26)" stroke="#7E0746">
      <path fill="none" d="M0,2.62 L0,-2.62 " class="primitive"/>
    </g>
    <g transform="translate(56.91,75.63)" stroke="#7E0746">
      <path fill="none" d="M-2.71,0 L2.71,0 " class="primitive"/>
    </g>
    <g transform="translate(59.62,75.63)" stroke="#7E0746">
      <path fill="none" d="M0,2.62 L0,-2.62 " class="primitive"/>
    </g>
    <g transform="translate(53.52,73.01)" stroke="#D8167F">
      <path fill="none" d="M-0.68,0 L0.68,0 " class="primitive"/>
    </g>
    <g transform="translate(54.2,73.01)" stroke="#D8167F">
      <path fill="none" d="M0,2.62 L0,-2.62 " class="primitive"/>
    </g>
    <g transform="translate(52.56,70.38)" stroke="#D8167F">
      <path fill="none" d="M-0.28,0 L0.28,0 " class="primitive"/>
    </g>
    <g transform="translate(52.84,70.38)" stroke="#D8167F">
      <path fill="none" d="M0,2.63 L0,-2.63 " class="primitive"/>
    </g>
    <g transform="translate(51.09,67.76)" stroke="#D8167F">
      <path fill="none" d="M-1.19,0 L1.19,0 " class="primitive"/>
    </g>
    <g transform="translate(52.28,67.76)" stroke="#D8167F">
      <path fill="none" d="M0,2.63 L0,-2.63 " class="primitive"/>
    </g>
    <g transform="translate(48.98,65.13)" stroke="#D8167F">
      <path fill="none" d="M-0.92,0 L0.92,0 " class="primitive"/>
    </g>
    <g transform="translate(49.9,65.13)" stroke="#D8167F">
      <path fill="none" d="M0,2.63 L0,-2.63 " class="primitive"/>
    </g>
    <g transform="translate(46.16,62.5)" stroke="#D8167F">
      <path fill="none" d="M-1.9,0 L1.9,0 " class="primitive"/>
    </g>
    <g transform="translate(48.06,62.5)" stroke="#D8167F">
      <path fill="none" d="M0,2.63 L0,-2.63 " class="primitive"/>
    </g>
    <g transform="translate(43.38,59.88)" stroke="#7E0746">
      <path fill="none" d="M-0.89,0 L0.89,0 " class="primitive"/>
    </g>
    <g transform="translate(44.27,59.88)" stroke="#7E0746">
      <path fill="none" d="M0,2.63 L0,-2.63 " class="primitive"/>
    </g>
    <g transform="translate(42.32,57.25)" stroke="#D8167F">
      <path fill="none" d="M-0.17,0 L0.17,0 " class="primitive"/>
    </g>
    <g transform="translate(42.49,57.25)" stroke="#D8167F">
      <path fill="none" d="M0,2.63 L0,-2.63 " class="primitive"/>
    </g>
    <g transform="translate(41.55,54.63)" stroke="#7E0746">
      <path fill="none" d="M-0.6,0 L0.6,0 " class="primitive"/>
    </g>
    <g transform="translate(42.15,54.63)" stroke="#7E0746">
      <path fill="none" d="M0,2.63 L0,-2.63 " class="primitive"/>
    </g>
    <g transform="translate(40.28,52)" stroke="#D8167F">
      <path fill="none" d="M-0.67,0 L0.67,0 " class="primitive"/>
    </g>
    <g transform="translate(40.95,52)" stroke="#D8167F">
      <path fill="none" d="M0,2.63 L0,-2.63 " class="primitive"/>
    </g>
    <g transform="translate(38.78,49.37)" stroke="#7E0746">
      <path fill="none" d="M-0.83,0 L0.83,0 " class="primitive"/>
    </g>
    <g transform="translate(39.61,49.37)" stroke="#7E0746">
      <path fill="none" d="M0,2.63 L0,-2.63 " class="primitive"/>
    </g>
    <g transform="translate(34.83,46.75)" stroke="#D8167F">
      <path fill="none" d="M-3.11,0 L3.11,0 " class="primitive"/>
    </g>
    <g transform="translate(37.95,46.75)" stroke="#D8167F">
      <path fill="none" d="M0,2.63 L0,-2.63 " class="primitive"/>
    </g>
    <g transform="translate(30.23,44.12)" stroke="#D8167F">
      <path fill="none" d="M-1.49,0 L1.49,0 " class="primitive"/>
    </g>
    <g transform="translate(31.72,44.12)" stroke="#D8167F">
      <path fill="none" d="M0,2.63 L0,-2.63 " class="primitive"/>
    </g>
    <g transform="translate(28,41.49)" stroke="#D8167F">
      <path fill="none" d="M-0.73,0 L0.73,0 " class="primitive"/>
    </g>
    <g transform="translate(28.74,41.49)" stroke="#D8167F">
      <path fill="none" d="M0,2.63 L0,-2.63 " class="primitive"/>
    </g>
    <g transform="translate(26.7,38.87)" stroke="#7E0746">
      <path fill="none" d="M-0.57,0 L0.57,0 " class="primitive"/>
    </g>
    <g transform="translate(27.27,38.87)" stroke="#7E0746">
      <path fill="none" d="M0,2.63 L0,-2.63 " class="primitive"/>
    </g>
    <g transform="translate(24.46,36.24)" stroke="#D8167F">
      <path fill="none" d="M-1.68,0 L1.68,0 " class="primitive"/>
    </g>
    <g transform="translate(26.14,36.24)" stroke="#D8167F">
      <path fill="none" d="M0,2.63 L0,-2.63 " class="primitive"/>
    </g>
    <g transform="translate(21.44,33.62)" stroke="#D8167F">
      <path fill="none" d="M-1.34,0 L1.34,0 " class="primitive"/>
    </g>
    <g transform="translate(22.77,33.62)" stroke="#D8167F">
      <path fill="none" d="M0,2.63 L0,-2.63 " class="primitive"/>
    </g>
    <g transform="translate(20.03,30.99)" stroke="#D8167F">
      <path fill="none" d="M-0.07,0 L0.07,0 " class="primitive"/>
    </g>
    <g transform="translate(20.1,30.99)" stroke="#D8167F">
      <path fill="none" d="M0,2.63 L0,-2.63 " class="primitive"/>
    </g>
    <g transform="translate(19.31,28.36)" stroke="#7E0746">
      <path fill="none" d="M-0.65,0 L0.65,0 " class="primitive"/>
    </g>
    <g transform="translate(19.96,28.36)" stroke="#7E0746">
      <path fill="none" d="M0,2.63 L0,-2.63 " class="primitive"/>
    </g>
    <g transform="translate(17.72,25.74)" stroke="#D8167F">
      <path fill="none" d="M-0.93,0 L0.93,0 " class="primitive"/>
    </g>
    <g transform="translate(18.65,25.74)" stroke="#D8167F">
      <path fill="none" d="M0,2.63 L0,-2.63 " class="primitive"/>
    </g>
    <g transform="translate(15.94,23.11)" stroke="#D8167F">
      <path fill="none" d="M-0.86,0 L0.86,0 " class="primitive"/>
    </g>
    <g transform="translate(16.79,23.11)" stroke="#D8167F">
      <path fill="none" d="M0,2.63 L0,-2.63 " class="primitive"/>
    </g>
    <g transform="translate(14.48,20.48)" stroke="#D8167F">
      <path fill="none" d="M-0.6,0 L0.6,0 " class="primitive"/>
    </g>
    <g transform="translate(15.08,20.48)" stroke="#D8167F">
      <path fill="none" d="M0,2.63 L0,-2.63 " class="primitive"/>
    </g>
    <g transform="translate(12.21,17.86)" stroke="#7E0746">
      <path fill="none" d="M-1.67,0 L1.67,0 " class="primitive"/>
    </g>
    <g transform="translate(13.88,17.86)" stroke="#7E0746">
      <path fill="none" d="M0,2.63 L0,-2.63 " class="primitive"/>
    </g>
  </g>
</g>
<g fill-opacity="1" id="img-29b4c979-4">
  <g transform="translate(4.36,4.73)" fill="#D8167F">
    <circle cx="0" cy="0" r="0.75" class="primitive"/>
  </g>
  <g transform="translate(9.07,7.35)" fill="#7E0746">
    <circle cx="0" cy="0" r="0.75" class="primitive"/>
  </g>
  <g transform="translate(14.41,9.98)" fill="#D8167F">
    <circle cx="0" cy="0" r="0.75" class="primitive"/>
  </g>
  <g transform="translate(11.33,12.61)" fill="#D8167F">
    <circle cx="0" cy="0" r="0.75" class="primitive"/>
  </g>
  <g transform="translate(17.72,15.23)" fill="#D8167F">
    <circle cx="0" cy="0" r="0.75" class="primitive"/>
  </g>
  <g transform="translate(18.75,17.86)" fill="#D8167F">
    <circle cx="0" cy="0" r="0.75" class="primitive"/>
  </g>
  <g transform="translate(17.63,20.48)" fill="#D8167F">
    <circle cx="0" cy="0" r="0.75" class="primitive"/>
  </g>
  <g transform="translate(18.71,23.11)" fill="#D8167F">
    <circle cx="0" cy="0" r="0.75" class="primitive"/>
  </g>
  <g transform="translate(21.16,25.74)" fill="#D8167F">
    <circle cx="0" cy="0" r="0.75" class="primitive"/>
  </g>
  <g transform="translate(20.29,28.36)" fill="#7E0746">
    <circle cx="0" cy="0" r="0.75" class="primitive"/>
  </g>
  <g transform="translate(24.03,30.99)" fill="#D8167F">
    <circle cx="0" cy="0" r="0.75" class="primitive"/>
  </g>
  <g transform="translate(27.01,33.62)" fill="#7E0746">
    <circle cx="0" cy="0" r="0.75" class="primitive"/>
  </g>
  <g transform="translate(27.94,36.24)" fill="#D8167F">
    <circle cx="0" cy="0" r="0.75" class="primitive"/>
  </g>
  <g transform="translate(29.14,38.87)" fill="#D8167F">
    <circle cx="0" cy="0" r="0.75" class="primitive"/>
  </g>
  <g transform="translate(32.01,41.49)" fill="#D8167F">
    <circle cx="0" cy="0" r="0.75" class="primitive"/>
  </g>
  <g transform="translate(38.4,44.12)" fill="#7E0746">
    <circle cx="0" cy="0" r="0.75" class="primitive"/>
  </g>
  <g transform="translate(40.5,46.75)" fill="#7E0746">
    <circle cx="0" cy="0" r="0.75" class="primitive"/>
  </g>
  <g transform="translate(46.05,49.37)" fill="#D8167F">
    <circle cx="0" cy="0" r="0.75" class="primitive"/>
  </g>
  <g transform="translate(43.28,52)" fill="#D8167F">
    <circle cx="0" cy="0" r="0.75" class="primitive"/>
  </g>
  <g transform="translate(43.09,54.63)" fill="#D8167F">
    <circle cx="0" cy="0" r="0.75" class="primitive"/>
  </g>
  <g transform="translate(49.61,57.25)" fill="#7E0746">
    <circle cx="0" cy="0" r="0.75" class="primitive"/>
  </g>
  <g transform="translate(49.52,59.88)" fill="#7E0746">
    <circle cx="0" cy="0" r="0.75" class="primitive"/>
  </g>
  <g transform="translate(52.68,62.51)" fill="#D8167F">
    <circle cx="0" cy="0" r="0.75" class="primitive"/>
  </g>
  <g transform="translate(54,65.13)" fill="#D8167F">
    <circle cx="0" cy="0" r="0.75" class="primitive"/>
  </g>
  <g transform="translate(53.87,67.76)" fill="#D8167F">
    <circle cx="0" cy="0" r="0.75" class="primitive"/>
  </g>
  <g transform="translate(55.59,70.38)" fill="#D8167F">
    <circle cx="0" cy="0" r="0.75" class="primitive"/>
  </g>
  <g transform="translate(63.31,73.01)" fill="#7E0746">
    <circle cx="0" cy="0" r="0.75" class="primitive"/>
  </g>
  <g transform="translate(61.86,75.64)" fill="#D8167F">
    <circle cx="0" cy="0" r="0.75" class="primitive"/>
  </g>
  <g transform="translate(65.47,78.26)" fill="#7E0746">
    <circle cx="0" cy="0" r="0.75" class="primitive"/>
  </g>
  <g transform="translate(70.41,80.89)" fill="#D8167F">
    <circle cx="0" cy="0" r="0.75" class="primitive"/>
  </g>
  <g transform="translate(67.68,83.52)" fill="#D8167F">
    <circle cx="0" cy="0" r="0.75" class="primitive"/>
  </g>
  <g transform="translate(69.64,86.14)" fill="#D8167F">
    <circle cx="0" cy="0" r="0.75" class="primitive"/>
  </g>
  <g transform="translate(74.84,88.77)" fill="#D8167F">
    <circle cx="0" cy="0" r="0.75" class="primitive"/>
  </g>
  <g transform="translate(72.14,91.39)" fill="#D8167F">
    <circle cx="0" cy="0" r="0.75" class="primitive"/>
  </g>
  <g transform="translate(77.63,94.02)" fill="#D8167F">
    <circle cx="0" cy="0" r="0.75" class="primitive"/>
  </g>
  <g transform="translate(78.75,96.65)" fill="#D8167F">
    <circle cx="0" cy="0" r="0.75" class="primitive"/>
  </g>
  <g transform="translate(78.64,99.27)" fill="#D8167F">
    <circle cx="0" cy="0" r="0.75" class="primitive"/>
  </g>
  <g transform="translate(78.27,97.96)" fill="#D8167F">
    <circle cx="0" cy="0" r="0.75" class="primitive"/>
  </g>
  <g transform="translate(76.57,95.99)" fill="#7E0746">
    <circle cx="0" cy="0" r="0.75" class="primitive"/>
  </g>
  <g transform="translate(71.94,93.69)" fill="#D8167F">
    <circle cx="0" cy="0" r="0.75" class="primitive"/>
  </g>
  <g transform="translate(69.11,91.23)" fill="#D8167F">
    <circle cx="0" cy="0" r="0.75" class="primitive"/>
  </g>
  <g transform="translate(67.86,88.69)" fill="#7E0746">
    <circle cx="0" cy="0" r="0.75" class="primitive"/>
  </g>
  <g transform="translate(66.44,86.1)" fill="#D8167F">
    <circle cx="0" cy="0" r="0.75" class="primitive"/>
  </g>
  <g transform="translate(65.85,83.49)" fill="#D8167F">
    <circle cx="0" cy="0" r="0.75" class="primitive"/>
  </g>
  <g transform="translate(63.83,80.88)" fill="#7E0746">
    <circle cx="0" cy="0" r="0.75" class="primitive"/>
  </g>
  <g transform="translate(61.24,78.26)" fill="#7E0746">
    <circle cx="0" cy="0" r="0.75" class="primitive"/>
  </g>
  <g transform="translate(59.62,75.63)" fill="#7E0746">
    <circle cx="0" cy="0" r="0.75" class="primitive"/>
  </g>
  <g transform="translate(54.2,73.01)" fill="#D8167F">
    <circle cx="0" cy="0" r="0.75" class="primitive"/>
  </g>
  <g transform="translate(52.84,70.38)" fill="#D8167F">
    <circle cx="0" cy="0" r="0.75" class="primitive"/>
  </g>
  <g transform="translate(52.28,67.76)" fill="#D8167F">
    <circle cx="0" cy="0" r="0.75" class="primitive"/>
  </g>
  <g transform="translate(49.9,65.13)" fill="#D8167F">
    <circle cx="0" cy="0" r="0.75" class="primitive"/>
  </g>
  <g fill-opacity="1" id="img-29b4c979-5">
    <g transform="translate(49.9,65.13)" fill="#D8167F">
      <circle cx="0" cy="0" r="0.75" class="primitive"/>
    </g>
    <g transform="translate(48.06,62.5)" fill="#D8167F">
      <circle cx="0" cy="0" r="0.75" class="primitive"/>
    </g>
    <g transform="translate(44.27,59.88)" fill="#7E0746">
      <circle cx="0" cy="0" r="0.75" class="primitive"/>
    </g>
    <g transform="translate(42.49,57.25)" fill="#D8167F">
      <circle cx="0" cy="0" r="0.75" class="primitive"/>
    </g>
    <g transform="translate(42.15,54.63)" fill="#7E0746">
      <circle cx="0" cy="0" r="0.75" class="primitive"/>
    </g>
    <g transform="translate(40.95,52)" fill="#D8167F">
      <circle cx="0" cy="0" r="0.75" class="primitive"/>
    </g>
    <g transform="translate(39.61,49.37)" fill="#7E0746">
      <circle cx="0" cy="0" r="0.75" class="primitive"/>
    </g>
    <g transform="translate(37.95,46.75)" fill="#D8167F">
      <circle cx="0" cy="0" r="0.75" class="primitive"/>
    </g>
    <g transform="translate(31.72,44.12)" fill="#D8167F">
      <circle cx="0" cy="0" r="0.75" class="primitive"/>
    </g>
    <g transform="translate(28.74,41.49)" fill="#D8167F">
      <circle cx="0" cy="0" r="0.75" class="primitive"/>
    </g>
    <g transform="translate(27.27,38.87)" fill="#7E0746">
      <circle cx="0" cy="0" r="0.75" class="primitive"/>
    </g>
    <g transform="translate(26.14,36.24)" fill="#D8167F">
      <circle cx="0" cy="0" r="0.75" class="primitive"/>
    </g>
    <g transform="translate(22.77,33.62)" fill="#D8167F">
      <circle cx="0" cy="0" r="0.75" class="primitive"/>
    </g>
    <g transform="translate(20.1,30.99)" fill="#D8167F">
      <circle cx="0" cy="0" r="0.75" class="primitive"/>
    </g>
    <g transform="translate(19.96,28.36)" fill="#7E0746">
      <circle cx="0" cy="0" r="0.75" class="primitive"/>
    </g>
    <g transform="translate(18.65,25.74)" fill="#D8167F">
      <circle cx="0" cy="0" r="0.75" class="primitive"/>
    </g>
    <g transform="translate(16.79,23.11)" fill="#D8167F">
      <circle cx="0" cy="0" r="0.75" class="primitive"/>
    </g>
    <g transform="translate(15.08,20.48)" fill="#D8167F">
      <circle cx="0" cy="0" r="0.75" class="primitive"/>
    </g>
    <g transform="translate(13.88,17.86)" fill="#7E0746">
      <circle cx="0" cy="0" r="0.75" class="primitive"/>
    </g>
    <g transform="translate(10.54,15.23)" fill="#D8167F">
      <circle cx="0" cy="0" r="0.75" class="primitive"/>
    </g>
    <g transform="translate(10.44,12.61)" fill="#D8167F">
      <circle cx="0" cy="0" r="0.75" class="primitive"/>
    </g>
    <g transform="translate(3.75,9.98)" fill="#000000">
      <circle cx="0" cy="0" r="0.75" class="primitive"/>
    </g>
    <g transform="translate(3.75,7.35)" fill="#000000">
      <circle cx="0" cy="0" r="0.75" class="primitive"/>
    </g>
  </g>
</g>
<g stroke-opacity="1" fill-opacity="1" font-size="1.41" stroke-width="0.1" id="img-29b4c979-6">
  <g transform="translate(6.24,4.73)" stroke="#000000">
    <g class="primitive">
      <text dy="0.35em">N36</text>
    </g>
  </g>
  <g transform="translate(10.95,7.35)" stroke="#000000">
    <g class="primitive">
      <text dy="0.35em">N35</text>
    </g>
  </g>
  <g transform="translate(16.28,9.98)" stroke="#000000">
    <g class="primitive">
      <text dy="0.35em">N34</text>
    </g>
  </g>
  <g transform="translate(13.2,12.61)" stroke="#000000">
    <g class="primitive">
      <text dy="0.35em">N33</text>
    </g>
  </g>
  <g transform="translate(19.59,15.23)" stroke="#000000">
    <g class="primitive">
      <text dy="0.35em">N32</text>
    </g>
  </g>
  <g transform="translate(20.62,17.86)" stroke="#000000">
    <g class="primitive">
      <text dy="0.35em">N31</text>
    </g>
  </g>
  <g transform="translate(19.5,20.48)" stroke="#000000">
    <g class="primitive">
      <text dy="0.35em">N30</text>
    </g>
  </g>
  <g transform="translate(20.59,23.11)" stroke="#000000">
    <g class="primitive">
      <text dy="0.35em">N29</text>
    </g>
  </g>
  <g transform="translate(23.03,25.74)" stroke="#000000">
    <g class="primitive">
      <text dy="0.35em">N28</text>
    </g>
  </g>
  <g transform="translate(22.17,28.36)" stroke="#000000">
    <g class="primitive">
      <text dy="0.35em">N27</text>
    </g>
  </g>
  <g transform="translate(25.91,30.99)" stroke="#000000">
    <g class="primitive">
      <text dy="0.35em">N26</text>
    </g>
  </g>
  <g transform="translate(28.89,33.62)" stroke="#000000">
    <g class="primitive">
      <text dy="0.35em">N25</text>
    </g>
  </g>
  <g transform="translate(29.82,36.24)" stroke="#000000">
    <g class="primitive">
      <text dy="0.35em">N24</text>
    </g>
  </g>
  <g transform="translate(31.02,38.87)" stroke="#000000">
    <g class="primitive">
      <text dy="0.35em">N23</text>
    </g>
  </g>
  <g transform="translate(33.89,41.49)" stroke="#000000">
    <g class="primitive">
      <text dy="0.35em">N22</text>
    </g>
  </g>
  <g transform="translate(40.28,44.12)" stroke="#000000">
    <g class="primitive">
      <text dy="0.35em">N21</text>
    </g>
  </g>
  <g transform="translate(42.37,46.75)" stroke="#000000">
    <g class="primitive">
      <text dy="0.35em">N20</text>
    </g>
  </g>
  <g transform="translate(47.92,49.37)" stroke="#000000">
    <g class="primitive">
      <text dy="0.35em">N19</text>
    </g>
  </g>
  <g transform="translate(45.15,52)" stroke="#000000">
    <g class="primitive">
      <text dy="0.35em">N18</text>
    </g>
  </g>
  <g transform="translate(44.96,54.63)" stroke="#000000">
    <g class="primitive">
      <text dy="0.35em">N17</text>
    </g>
  </g>
  <g transform="translate(51.49,57.25)" stroke="#000000">
    <g class="primitive">
      <text dy="0.35em">N16</text>
    </g>
  </g>
  <g transform="translate(51.39,59.88)" stroke="#000000">
    <g class="primitive">
      <text dy="0.35em">N15</text>
    </g>
  </g>
  <g transform="translate(54.56,62.51)" stroke="#000000">
    <g class="primitive">
      <text dy="0.35em">N14</text>
    </g>
  </g>
  <g transform="translate(55.87,65.13)" stroke="#000000">
    <g class="primitive">
      <text dy="0.35em">N13</text>
    </g>
  </g>
  <g transform="translate(55.75,67.76)" stroke="#000000">
    <g class="primitive">
      <text dy="0.35em">N12</text>
    </g>
  </g>
  <g transform="translate(57.47,70.38)" stroke="#000000">
    <g class="primitive">
      <text dy="0.35em">N11</text>
    </g>
  </g>
  <g transform="translate(65.18,73.01)" stroke="#000000">
    <g class="primitive">
      <text dy="0.35em">N10</text>
    </g>
  </g>
  <g transform="translate(63.73,75.64)" stroke="#000000">
    <g class="primitive">
      <text dy="0.35em">N9</text>
    </g>
  </g>
  <g transform="translate(67.34,78.26)" stroke="#000000">
    <g class="primitive">
      <text dy="0.35em">N8</text>
    </g>
  </g>
  <g transform="translate(72.29,80.89)" stroke="#000000">
    <g class="primitive">
      <text dy="0.35em">N7</text>
    </g>
  </g>
  <g transform="translate(69.55,83.52)" stroke="#000000">
    <g class="primitive">
      <text dy="0.35em">N6</text>
    </g>
  </g>
  <g transform="translate(71.51,86.14)" stroke="#000000">
    <g class="primitive">
      <text dy="0.35em">N5</text>
    </g>
  </g>
  <g transform="translate(76.72,88.77)" stroke="#000000">
    <g class="primitive">
      <text dy="0.35em">N4</text>
    </g>
  </g>
  <g transform="translate(74.01,91.39)" stroke="#000000">
    <g class="primitive">
      <text dy="0.35em">N3</text>
    </g>
  </g>
  <g transform="translate(79.51,94.02)" stroke="#000000">
    <g class="primitive">
      <text dy="0.35em">N2</text>
    </g>
  </g>
  <g transform="translate(80.62,96.65)" stroke="#000000">
    <g class="primitive">
      <text dy="0.35em">N0</text>
    </g>
  </g>
  <g transform="translate(80.52,99.27)" stroke="#000000">
    <g class="primitive">
      <text dy="0.35em">N1</text>
    </g>
  </g>
  <g transform="translate(80.14,97.96)" stroke="#000000">
    <g class="primitive">
      <text dy="0.35em">N37</text>
    </g>
  </g>
  <g transform="translate(78.44,95.99)" stroke="#000000">
    <g class="primitive">
      <text dy="0.35em">N38</text>
    </g>
  </g>
  <g transform="translate(73.81,93.69)" stroke="#000000">
    <g class="primitive">
      <text dy="0.35em">N39</text>
    </g>
  </g>
  <g transform="translate(70.99,91.23)" stroke="#000000">
    <g class="primitive">
      <text dy="0.35em">N40</text>
    </g>
  </g>
  <g transform="translate(69.74,88.69)" stroke="#000000">
    <g class="primitive">
      <text dy="0.35em">N41</text>
    </g>
  </g>
  <g transform="translate(68.32,86.1)" stroke="#000000">
    <g class="primitive">
      <text dy="0.35em">N42</text>
    </g>
  </g>
  <g transform="translate(67.73,83.49)" stroke="#000000">
    <g class="primitive">
      <text dy="0.35em">N43</text>
    </g>
  </g>
  <g transform="translate(65.71,80.88)" stroke="#000000">
    <g class="primitive">
      <text dy="0.35em">N44</text>
    </g>
  </g>
  <g transform="translate(63.11,78.26)" stroke="#000000">
    <g class="primitive">
      <text dy="0.35em">N45</text>
    </g>
  </g>
  <g transform="translate(61.49,75.63)" stroke="#000000">
    <g class="primitive">
      <text dy="0.35em">N46</text>
    </g>
  </g>
  <g transform="translate(56.08,73.01)" stroke="#000000">
    <g class="primitive">
      <text dy="0.35em">N47</text>
    </g>
  </g>
  <g transform="translate(54.71,70.38)" stroke="#000000">
    <g class="primitive">
      <text dy="0.35em">N48</text>
    </g>
  </g>
  <g transform="translate(54.15,67.76)" stroke="#000000">
    <g class="primitive">
      <text dy="0.35em">N49</text>
    </g>
  </g>
  <g transform="translate(51.77,65.13)" stroke="#000000">
    <g class="primitive">
      <text dy="0.35em">N50</text>
    </g>
  </g>
  <g stroke-opacity="1" fill-opacity="1" font-size="1.41" stroke-width="0.1" id="img-29b4c979-7">
    <g transform="translate(51.77,65.13)" stroke="#000000">
      <g class="primitive">
        <text dy="0.35em">N50</text>
      </g>
    </g>
    <g transform="translate(49.94,62.5)" stroke="#000000">
      <g class="primitive">
        <text dy="0.35em">N51</text>
      </g>
    </g>
    <g transform="translate(46.14,59.88)" stroke="#000000">
      <g class="primitive">
        <text dy="0.35em">N52</text>
      </g>
    </g>
    <g transform="translate(44.36,57.25)" stroke="#000000">
      <g class="primitive">
        <text dy="0.35em">N53</text>
      </g>
    </g>
    <g transform="translate(44.02,54.63)" stroke="#000000">
      <g class="primitive">
        <text dy="0.35em">N54</text>
      </g>
    </g>
    <g transform="translate(42.82,52)" stroke="#000000">
      <g class="primitive">
        <text dy="0.35em">N55</text>
      </g>
    </g>
    <g transform="translate(41.49,49.37)" stroke="#000000">
      <g class="primitive">
        <text dy="0.35em">N56</text>
      </g>
    </g>
    <g transform="translate(39.82,46.75)" stroke="#000000">
      <g class="primitive">
        <text dy="0.35em">N57</text>
      </g>
    </g>
    <g transform="translate(33.6,44.12)" stroke="#000000">
      <g class="primitive">
        <text dy="0.35em">N58</text>
      </g>
    </g>
    <g transform="translate(30.61,41.49)" stroke="#000000">
      <g class="primitive">
        <text dy="0.35em">N59</text>
      </g>
    </g>
    <g transform="translate(29.15,38.87)" stroke="#000000">
      <g class="primitive">
        <text dy="0.35em">N60</text>
      </g>
    </g>
    <g transform="translate(28.01,36.24)" stroke="#000000">
      <g class="primitive">
        <text dy="0.35em">N61</text>
      </g>
    </g>
    <g transform="translate(24.65,33.62)" stroke="#000000">
      <g class="primitive">
        <text dy="0.35em">N62</text>
      </g>
    </g>
    <g transform="translate(21.97,30.99)" stroke="#000000">
      <g class="primitive">
        <text dy="0.35em">N63</text>
      </g>
    </g>
    <g transform="translate(21.83,28.36)" stroke="#000000">
      <g class="primitive">
        <text dy="0.35em">N64</text>
      </g>
    </g>
    <g transform="translate(20.53,25.74)" stroke="#000000">
      <g class="primitive">
        <text dy="0.35em">N65</text>
      </g>
    </g>
    <g transform="translate(18.67,23.11)" stroke="#000000">
      <g class="primitive">
        <text dy="0.35em">N66</text>
      </g>
    </g>
    <g transform="translate(16.96,20.48)" stroke="#000000">
      <g class="primitive">
        <text dy="0.35em">N67</text>
      </g>
    </g>
    <g transform="translate(15.76,17.86)" stroke="#000000">
      <g class="primitive">
        <text dy="0.35em">N68</text>
      </g>
    </g>
    <g transform="translate(12.41,15.23)" stroke="#000000">
      <g class="primitive">
        <text dy="0.35em">N69</text>
      </g>
    </g>
    <g transform="translate(12.32,12.61)" stroke="#000000">
      <g class="primitive">
        <text dy="0.35em">N70</text>
      </g>
    </g>
    <g transform="translate(5.63,9.98)" stroke="#000000">
      <g class="primitive">
        <text dy="0.35em"></text>
      </g>
    </g>
    <g transform="translate(5.63,7.35)" stroke="#000000">
      <g class="primitive">
        <text dy="0.35em"></text>
      </g>
    </g>
  </g>
</g>
</svg>
