<?xml version="1.0" encoding="UTF-8"?>
<svg xmlns="http://www.w3.org/2000/svg"
     xmlns:xlink="http://www.w3.org/1999/xlink"
     version="1.2"
     width="150mm" height="46mm" viewBox="0 0 150 46"
     stroke="none"
     fill="#000000"
     stroke-width="0.3"
     font-size="3.88"
>
<defs>
  <marker id="arrow" markerWidth="15" markerHeight="7" refX="5" refY="3.5" orient="auto" markerUnits="strokeWidth">
    <path d="M0,0 L15,3.5 L0,7 z" stroke="context-stroke" fill="context-stroke"/>
  </marker>
</defs>
<g stroke-opacity="1" stroke-width="0.3" id="img-e0e9d0e6-1">
  <g transform="translate(34,2.09)" stroke="#000000">
    <path fill="none" d="M-20.59,0 L20.59,0 " class="primitive"/>
  </g>
  <g transform="translate(51.35,8.06)" stroke="#000000">
    <path fill="none" d="M-27.4,0 L27.4,0 " class="primitive"/>
  </g>
  <g transform="translate(49.91,14.04)" stroke="#0004FF">
    <path fill="none" d="M-16.31,0 L16.31,0 " class="primitive"/>
  </g>
  <g transform="translate(45.6,20.01)" stroke="#0004FF">
    <path fill="none" d="M-11.99,0 L11.99,0 " class="primitive"/>
  </g>
  <g transform="translate(28.78,17.03)" stroke="#000000">
    <path fill="none" d="M-4.82,0 L4.82,0 " class="primitive"/>
  </g>
  <g transform="translate(33.6,17.03)" stroke="#000000">
    <path fill="none" d="M0,2.99 L0,-2.99 " class="primitive"/>
  </g>
  <g transform="translate(18.68,12.55)" stroke="#0004FF">
    <path fill="none" d="M-5.27,0 L5.27,0 " class="primitive"/>
  </g>
  <g transform="translate(23.95,12.55)" stroke="#0004FF">
    <path fill="none" d="M0,4.48 L0,-4.48 " class="primitive"/>
  </g>
  <g transform="translate(8.58,7.32)" stroke="#000000">
    <path fill="none" d="M-4.83,0 L4.83,0 " class="primitive"/>
  </g>
  <g transform="translate(13.41,7.32)" stroke="#000000">
    <path fill="none" d="M0,5.23 L0,-5.23 " class="primitive"/>
  </g>
  <g transform="translate(41.86,25.99)" stroke="#000000">
    <path fill="none" d="M-36.89,0 L36.89,0 " class="primitive"/>
  </g>
  <g transform="translate(50.86,31.96)" stroke="#FF0011">
    <path fill="none" d="M-2.03,0 L2.03,0 " class="primitive"/>
  </g>
  <g transform="translate(53.35,37.94)" stroke="#FF0011">
    <path fill="none" d="M-0.76,0 L0.76,0 " class="primitive"/>
  </g>
  <g transform="translate(54.58,43.91)" stroke="#FF0011">
    <path fill="none" d="M-1.99,0 L1.99,0 " class="primitive"/>
  </g>
  <g transform="translate(50.72,40.92)" stroke="#FF0011">
    <path fill="none" d="M-1.88,0 L1.88,0 " class="primitive"/>
  </g>
  <g transform="translate(52.6,40.92)" stroke="#FF0011">
    <path fill="none" d="M0,2.99 L0,-2.99 " class="primitive"/>
  </g>
  <g transform="translate(26.9,36.44)" stroke="#000000">
    <path fill="none" d="M-21.93,0 L21.93,0 " class="primitive"/>
  </g>
  <g transform="translate(48.84,36.44)" stroke="#000000">
    <path fill="none" d="M0,4.48 L0,-4.48 " class="primitive"/>
  </g>
  <g transform="translate(4.36,31.21)" stroke="#000000">
    <path fill="none" d="M-0.61,0 L0.61,0 " class="primitive"/>
  </g>
  <g transform="translate(4.97,31.21)" stroke="#000000">
    <path fill="none" d="M0,5.23 L0,-5.23 " class="primitive"/>
  </g>
  <g transform="translate(3.75,19.27)" stroke="#000000">
    <path fill="none" d="M0,0 L0,0 " class="primitive"/>
  </g>
  <g transform="translate(3.75,19.27)" stroke="#000000">
    <path fill="none" d="M0,11.95 L0,-11.95 " class="primitive"/>
  </g>
</g>
<g fill-opacity="1" id="img-e0e9d0e6-2">
  <g transform="translate(54.6,2.09)" fill="#000000">
    <circle cx="0" cy="0" r="0.75" class="primitive"/>
  </g>
  <g transform="translate(78.75,8.06)" fill="#000000">
    <circle cx="0" cy="0" r="0.75" class="primitive"/>
  </g>
  <g transform="translate(66.23,14.04)" fill="#0004FF">
    <circle cx="0" cy="0" r="0.75" class="primitive"/>
  </g>
  <g transform="translate(57.59,20.01)" fill="#0004FF">
    <circle cx="0" cy="0" r="0.75" class="primitive"/>
  </g>
  <g transform="translate(33.6,17.03)" fill="#000000">
    <circle cx="0" cy="0" r="0.75" class="primitive"/>
  </g>
  <g transform="translate(23.95,12.55)" fill="#0004FF">
    <circle cx="0" cy="0" r="0.75" class="primitive"/>
  </g>
  <g transform="translate(13.41,7.32)" fill="#000000">
    <circle cx="0" cy="0" r="0.75" class="primitive"/>
  </g>
  <g transform="translate(78.75,25.99)" fill="#000000">
    <circle cx="0" cy="0" r="0.75" class="primitive"/>
  </g>
  <g transform="translate(52.89,31.96)" fill="#FF0011">
    <circle cx="0" cy="0" r="0.75" class="primitive"/>
  </g>
  <g transform="translate(54.11,37.94)" fill="#FF0011">
    <circle cx="0" cy="0" r="0.75" class="primitive"/>
  </g>
  <g transform="translate(56.57,43.91)" fill="#FF0011">
    <circle cx="0" cy="0" r="0.75" class="primitive"/>
  </g>
  <g transform="translate(52.6,40.92)" fill="#FF0011">
    <circle cx="0" cy="0" r="0.75" class="primitive"/>
  </g>
  <g transform="translate(48.84,36.44)" fill="#000000">
    <circle cx="0" cy="0" r="0.75" class="primitive"/>
  </g>
  <g transform="translate(4.97,31.21)" fill="#000000">
    <circle cx="0" cy="0" r="0.75" class="primitive"/>
  </g>
  <g transform="translate(3.75,19.27)" fill="#000000">
    <circle cx="0" cy="0" r="0.75" class="primitive"/>
  </g>
</g>
<g stroke-opacity="1" fill-opacity="1" font-size="1.41" stroke-width="0.1" id="img-e0e9d0e6-3">
  <g transform="translate(56.47,2.09)" stroke="#000000">
    <g class="primitive">
      <text dy="0.35em">bat_Rhinolophus_sinicus</text>
    </g>
  </g>
  <g transform="translate(80.62,8.06)" stroke="#000000">
    <g class="primitive">
      <text dy="0.35em">bat_Rousettus_aegyptiacus</text>
    </g>
  </g>
  <g transform="translate(68.1,14.04)" stroke="#000000">
    <g class="primitive">
      <text dy="0.35em">XM_008696415_Ursus_maritimus</text>
    </g>
  </g>
  <g transform="translate(59.47,20.01)" stroke="#000000">
    <g class="primitive">
      <text dy="0.35em">XM_042974087_Panthera_tigris</text>
    </g>
  </g>
  <g transform="translate(35.48,17.03)" stroke="#000000">
    <g class="primitive">
      <text dy="0.35em"></text>
    </g>
  </g>
  <g transform="translate(25.83,12.55)" stroke="#000000">
    <g class="primitive">
      <text dy="0.35em"></text>
    </g>
  </g>
  <g transform="translate(15.28,7.32)" stroke="#000000">
    <g class="primitive">
      <text dy="0.35em"></text>
    </g>
  </g>
  <g transform="translate(80.62,25.99)" stroke="#000000">
    <g class="primitive">
      <text dy="0.35em">bat_Molossus_molossus</text>
    </g>
  </g>
  <g transform="translate(54.76,31.96)" stroke="#000000">
    <g class="primitive">
      <text dy="0.35em">XM_024240245_Pongo_abelii</text>
    </g>
  </g>
  <g transform="translate(55.98,37.94)" stroke="#000000">
    <g class="primitive">
      <text dy="0.35em">NM_001135696_Macaca_mulatta</text>
    </g>
  </g>
  <g transform="translate(58.45,43.91)" stroke="#000000">
    <g class="primitive">
      <text dy="0.35em">XM_011995533_Mandrillus_leucophaeus</text>
    </g>
  </g>
  <g transform="translate(54.47,40.92)" stroke="#000000">
    <g class="primitive">
      <text dy="0.35em"></text>
    </g>
  </g>
  <g transform="translate(50.71,36.44)" stroke="#000000">
    <g class="primitive">
      <text dy="0.35em"></text>
    </g>
  </g>
  <g transform="translate(6.84,31.21)" stroke="#000000">
    <g class="primitive">
      <text dy="0.35em"></text>
    </g>
  </g>
  <g transform="translate(5.63,19.27)" stroke="#000000">
    <g class="primitive">
      <text dy="0.35em"></text>
    </g>
  </g>
</g>
</svg>
