<?xml version="1.0" encoding="UTF-8"?>
<svg xmlns="http://www.w3.org/2000/svg"
     xmlns:xlink="http://www.w3.org/1999/xlink"
     version="1.2"
     width="150mm" height="98mm" viewBox="0 0 150 98"
     stroke="none"
     fill="#000000"
     stroke-width="0.3"
     font-size="3.88"
>
<defs>
  <marker id="arrow" markerWidth="15" markerHeight="7" refX="5" refY="3.5" orient="auto" markerUnits="strokeWidth">
    <path d="M0,0 L15,3.5 L0,7 z" stroke="context-stroke" fill="context-stroke"/>
  </marker>
</defs>
<g stroke-opacity="1" stroke-width="0.3" id="img-300d6e6f-1">
  <g transform="translate(5.55,4.45)" stroke="#16F1EF">
    <path fill="none" d="M-1.8,0 L1.8,0 " class="primitive"/>
  </g>
  <g transform="translate(4.18,7.15)" stroke="#16F1EF">
    <path fill="none" d="M-0.43,0 L0.43,0 " class="primitive"/>
  </g>
  <g transform="translate(6.1,9.85)" stroke="#16F1EF">
    <path fill="none" d="M-0.31,0 L0.31,0 " class="primitive"/>
  </g>
  <g transform="translate(13.42,12.55)" stroke="#380DBA">
    <path fill="none" d="M-0.97,0 L0.97,0 " class="primitive"/>
  </g>
  <g transform="translate(13.69,15.25)" stroke="#16F1EF">
    <path fill="none" d="M-0.5,0 L0.5,0 " class="primitive"/>
  </g>
  <g transform="translate(18.12,17.95)" stroke="#380DBA">
    <path fill="none" d="M-2.83,0 L2.83,0 " class="primitive"/>
  </g>
  <g transform="translate(19.76,20.65)" stroke="#380DBA">
    <path fill="none" d="M-2.39,0 L2.39,0 " class="primitive"/>
  </g>
  <g transform="translate(19.01,23.35)" stroke="#16F1EF">
    <path fill="none" d="M-0.45,0 L0.45,0 " class="primitive"/>
  </g>
  <g transform="translate(22.57,26.05)" stroke="#380DBA">
    <path fill="none" d="M-0.93,0 L0.93,0 " class="primitive"/>
  </g>
  <g transform="translate(27.95,28.75)" stroke="#16F1EF">
    <path fill="none" d="M-0.35,0 L0.35,0 " class="primitive"/>
  </g>
  <g transform="translate(33.09,31.45)" stroke="#16F1EF">
    <path fill="none" d="M-0.26,0 L0.26,0 " class="primitive"/>
  </g>
  <g transform="translate(33.77,34.15)" stroke="#380DBA">
    <path fill="none" d="M-0.72,0 L0.72,0 " class="primitive"/>
  </g>
  <g transform="translate(33.98,36.85)" stroke="#380DBA">
    <path fill="none" d="M-0.21,0 L0.21,0 " class="primitive"/>
  </g>
  <g transform="translate(36.1,39.55)" stroke="#16F1EF">
    <path fill="none" d="M-0.25,0 L0.25,0 " class="primitive"/>
  </g>
  <g transform="translate(39.45,42.25)" stroke="#16F1EF">
    <path fill="none" d="M-0.89,0 L0.89,0 " class="primitive"/>
  </g>
  <g transform="translate(41.13,44.95)" stroke="#380DBA">
    <path fill="none" d="M-0.38,0 L0.38,0 " class="primitive"/>
  </g>
  <g transform="translate(43.89,47.65)" stroke="#16F1EF">
    <path fill="none" d="M-0.42,0 L0.42,0 " class="primitive"/>
  </g>
  <g transform="translate(54.23,50.35)" stroke="#16F1EF">
    <path fill="none" d="M-7.91,0 L7.91,0 " class="primitive"/>
  </g>
  <g transform="translate(47.93,53.05)" stroke="#380DBA">
    <path fill="none" d="M-0.28,0 L0.28,0 " class="primitive"/>
  </g>
  <g transform="translate(55.56,55.75)" stroke="#380DBA">
    <path fill="none" d="M-4.27,0 L4.27,0 " class="primitive"/>
  </g>
  <g transform="translate(52.71,58.45)" stroke="#16F1EF">
    <path fill="none" d="M-0.44,0 L0.44,0 " class="primitive"/>
  </g>
  <g transform="translate(55.26,61.15)" stroke="#16F1EF">
    <path fill="none" d="M-0.25,0 L0.25,0 " class="primitive"/>
  </g>
  <g transform="translate(55.56,63.85)" stroke="#16F1EF">
    <path fill="none" d="M-0.4,0 L0.4,0 " class="primitive"/>
  </g>
  <g transform="translate(63.55,66.55)" stroke="#16F1EF">
    <path fill="none" d="M-3.48,0 L3.48,0 " class="primitive"/>
  </g>
  <g transform="translate(63.98,69.25)" stroke="#380DBA">
    <path fill="none" d="M-2.08,0 L2.08,0 " class="primitive"/>
  </g>
  <g transform="translate(66.83,71.95)" stroke="#16F1EF">
    <path fill="none" d="M-1.39,0 L1.39,0 " class="primitive"/>
  </g>
  <g transform="translate(69.04,74.65)" stroke="#380DBA">
    <path fill="none" d="M-1.93,0 L1.93,0 " class="primitive"/>
  </g>
  <g transform="translate(69.09,77.35)" stroke="#380DBA">
    <path fill="none" d="M-0.22,0 L0.22,0 " class="primitive"/>
  </g>
  <g transform="translate(72.94,80.05)" stroke="#380DBA">
    <path fill="none" d="M-2.72,0 L2.72,0 " class="primitive"/>
  </g>
  <g transform="translate(73.17,82.75)" stroke="#380DBA">
    <path fill="none" d="M-0.2,0 L0.2,0 " class="primitive"/>
  </g>
  <g transform="translate(74.77,85.45)" stroke="#380DBA">
    <path fill="none" d="M-0.41,0 L0.41,0 " class="primitive"/>
  </g>
  <g transform="translate(75.38,88.15)" stroke="#380DBA">
    <path fill="none" d="M-0.41,0 L0.41,0 " class="primitive"/>
  </g>
  <g transform="translate(75.48,90.85)" stroke="#380DBA">
    <path fill="none" d="M-0.46,0 L0.46,0 " class="primitive"/>
  </g>
  <g transform="translate(76.88,93.55)" stroke="#16F1EF">
    <path fill="none" d="M-1.87,0 L1.87,0 " class="primitive"/>
  </g>
  <g transform="translate(74.99,92.2)" stroke="#16F1EF">
    <path fill="none" d="M-0.02,0 L0.02,0 " class="primitive"/>
  </g>
  <g transform="translate(75.02,92.2)" stroke="#16F1EF">
    <path fill="none" d="M0,1.35 L0,-1.35 " class="primitive"/>
  </g>
  <g transform="translate(74.67,90.17)" stroke="#380DBA">
    <path fill="none" d="M-0.3,0 L0.3,0 " class="primitive"/>
  </g>
  <g transform="translate(74.97,90.17)" stroke="#380DBA">
    <path fill="none" d="M0,2.02 L0,-2.02 " class="primitive"/>
  </g>
  <g transform="translate(73.67,87.81)" stroke="#380DBA">
    <path fill="none" d="M-0.7,0 L0.7,0 " class="primitive"/>
  </g>
  <g transform="translate(74.36,87.81)" stroke="#380DBA">
    <path fill="none" d="M0,2.36 L0,-2.36 " class="primitive"/>
  </g>
  <g transform="translate(71.6,85.28)" stroke="#16F1EF">
    <path fill="none" d="M-1.37,0 L1.37,0 " class="primitive"/>
  </g>
  <g transform="translate(72.97,85.28)" stroke="#16F1EF">
    <path fill="none" d="M0,2.53 L0,-2.53 " class="primitive"/>
  </g>
  <g transform="translate(69.55,82.66)" stroke="#16F1EF">
    <path fill="none" d="M-0.67,0 L0.67,0 " class="primitive"/>
  </g>
  <g transform="translate(70.22,82.66)" stroke="#16F1EF">
    <path fill="none" d="M0,2.62 L0,-2.62 " class="primitive"/>
  </g>
  <g transform="translate(67.99,80)" stroke="#380DBA">
    <path fill="none" d="M-0.89,0 L0.89,0 " class="primitive"/>
  </g>
  <g transform="translate(68.87,80)" stroke="#380DBA">
    <path fill="none" d="M0,2.66 L0,-2.66 " class="primitive"/>
  </g>
  <g transform="translate(66.27,77.33)" stroke="#16F1EF">
    <path fill="none" d="M-0.83,0 L0.83,0 " class="primitive"/>
  </g>
  <g transform="translate(67.1,77.33)" stroke="#16F1EF">
    <path fill="none" d="M0,2.68 L0,-2.68 " class="primitive"/>
  </g>
  <g transform="translate(63.67,74.64)" stroke="#16F1EF">
    <path fill="none" d="M-1.77,0 L1.77,0 " class="primitive"/>
  </g>
  <g transform="translate(65.43,74.64)" stroke="#16F1EF">
    <path fill="none" d="M0,2.69 L0,-2.69 " class="primitive"/>
  </g>
  <g transform="translate(60.99,71.94)" stroke="#380DBA">
    <path fill="none" d="M-0.91,0 L0.91,0 " class="primitive"/>
  </g>
  <g stroke-opacity="1" stroke-width="0.3" id="img-300d6e6f-2">
    <g transform="translate(60.99,71.94)" stroke="#380DBA">
      <path fill="none" d="M-0.91,0 L0.91,0 " class="primitive"/>
    </g>
    <g transform="translate(61.9,71.94)" stroke="#380DBA">
      <path fill="none" d="M0,2.69 L0,-2.69 " class="primitive"/>
    </g>
    <g transform="translate(57.61,69.25)" stroke="#380DBA">
      <path fill="none" d="M-2.46,0 L2.46,0 " class="primitive"/>
    </g>
    <g transform="translate(60.08,69.25)" stroke="#380DBA">
      <path fill="none" d="M0,2.7 L0,-2.7 " class="primitive"/>
    </g>
    <g transform="translate(55.08,66.55)" stroke="#380DBA">
      <path fill="none" d="M-0.07,0 L0.07,0 " class="primitive"/>
    </g>
    <g transform="translate(55.15,66.55)" stroke="#380DBA">
      <path fill="none" d="M0,2.7 L0,-2.7 " class="primitive"/>
    </g>
    <g transform="translate(53.64,63.85)" stroke="#16F1EF">
      <path fill="none" d="M-1.37,0 L1.37,0 " class="primitive"/>
    </g>
    <g transform="translate(55.01,63.85)" stroke="#16F1EF">
      <path fill="none" d="M0,2.7 L0,-2.7 " class="primitive"/>
    </g>
    <g transform="translate(51.78,61.15)" stroke="#16F1EF">
      <path fill="none" d="M-0.49,0 L0.49,0 " class="primitive"/>
    </g>
    <g transform="translate(52.27,61.15)" stroke="#16F1EF">
      <path fill="none" d="M0,2.7 L0,-2.7 " class="primitive"/>
    </g>
    <g transform="translate(49.47,58.45)" stroke="#380DBA">
      <path fill="none" d="M-1.82,0 L1.82,0 " class="primitive"/>
    </g>
    <g transform="translate(51.29,58.45)" stroke="#380DBA">
      <path fill="none" d="M0,2.7 L0,-2.7 " class="primitive"/>
    </g>
    <g transform="translate(46.99,55.75)" stroke="#16F1EF">
      <path fill="none" d="M-0.67,0 L0.67,0 " class="primitive"/>
    </g>
    <g transform="translate(47.65,55.75)" stroke="#16F1EF">
      <path fill="none" d="M0,2.7 L0,-2.7 " class="primitive"/>
    </g>
    <g transform="translate(44.89,53.05)" stroke="#16F1EF">
      <path fill="none" d="M-1.43,0 L1.43,0 " class="primitive"/>
    </g>
    <g transform="translate(46.32,53.05)" stroke="#16F1EF">
      <path fill="none" d="M0,2.7 L0,-2.7 " class="primitive"/>
    </g>
    <g transform="translate(42.11,50.35)" stroke="#16F1EF">
      <path fill="none" d="M-1.36,0 L1.36,0 " class="primitive"/>
    </g>
    <g transform="translate(43.46,50.35)" stroke="#16F1EF">
      <path fill="none" d="M0,2.7 L0,-2.7 " class="primitive"/>
    </g>
    <g transform="translate(39.66,47.65)" stroke="#380DBA">
      <path fill="none" d="M-1.09,0 L1.09,0 " class="primitive"/>
    </g>
    <g transform="translate(40.75,47.65)" stroke="#380DBA">
      <path fill="none" d="M0,2.7 L0,-2.7 " class="primitive"/>
    </g>
    <g transform="translate(37.21,44.95)" stroke="#380DBA">
      <path fill="none" d="M-1.36,0 L1.36,0 " class="primitive"/>
    </g>
    <g transform="translate(38.56,44.95)" stroke="#380DBA">
      <path fill="none" d="M0,2.7 L0,-2.7 " class="primitive"/>
    </g>
    <g transform="translate(34.81,42.25)" stroke="#16F1EF">
      <path fill="none" d="M-1.04,0 L1.04,0 " class="primitive"/>
    </g>
    <g transform="translate(35.85,42.25)" stroke="#16F1EF">
      <path fill="none" d="M0,2.7 L0,-2.7 " class="primitive"/>
    </g>
    <g transform="translate(33.41,39.55)" stroke="#380DBA">
      <path fill="none" d="M-0.36,0 L0.36,0 " class="primitive"/>
    </g>
    <g transform="translate(33.77,39.55)" stroke="#380DBA">
      <path fill="none" d="M0,2.7 L0,-2.7 " class="primitive"/>
    </g>
    <g transform="translate(32.94,36.85)" stroke="#380DBA">
      <path fill="none" d="M-0.11,0 L0.11,0 " class="primitive"/>
    </g>
    <g transform="translate(33.05,36.85)" stroke="#380DBA">
      <path fill="none" d="M0,2.7 L0,-2.7 " class="primitive"/>
    </g>
    <g transform="translate(30.21,34.15)" stroke="#380DBA">
      <path fill="none" d="M-2.62,0 L2.62,0 " class="primitive"/>
    </g>
    <g transform="translate(32.83,34.15)" stroke="#380DBA">
      <path fill="none" d="M0,2.7 L0,-2.7 " class="primitive"/>
    </g>
    <g transform="translate(24.62,31.45)" stroke="#16F1EF">
      <path fill="none" d="M-2.98,0 L2.98,0 " class="primitive"/>
    </g>
    <g transform="translate(27.6,31.45)" stroke="#16F1EF">
      <path fill="none" d="M0,2.7 L0,-2.7 " class="primitive"/>
    </g>
    <g transform="translate(20.1,28.75)" stroke="#16F1EF">
      <path fill="none" d="M-1.54,0 L1.54,0 " class="primitive"/>
    </g>
    <g transform="translate(21.65,28.75)" stroke="#16F1EF">
      <path fill="none" d="M0,2.7 L0,-2.7 " class="primitive"/>
    </g>
    <g transform="translate(17.96,26.05)" stroke="#380DBA">
      <path fill="none" d="M-0.6,0 L0.6,0 " class="primitive"/>
    </g>
    <g transform="translate(18.56,26.05)" stroke="#380DBA">
      <path fill="none" d="M0,2.7 L0,-2.7 " class="primitive"/>
    </g>
    <g transform="translate(16.33,23.35)" stroke="#380DBA">
      <path fill="none" d="M-1.03,0 L1.03,0 " class="primitive"/>
    </g>
    <g transform="translate(17.36,23.35)" stroke="#380DBA">
      <path fill="none" d="M0,2.7 L0,-2.7 " class="primitive"/>
    </g>
    <g transform="translate(14.24,20.65)" stroke="#16F1EF">
      <path fill="none" d="M-1.06,0 L1.06,0 " class="primitive"/>
    </g>
    <g transform="translate(15.29,20.65)" stroke="#16F1EF">
      <path fill="none" d="M0,2.7 L0,-2.7 " class="primitive"/>
    </g>
    <g transform="translate(12.82,17.95)" stroke="#380DBA">
      <path fill="none" d="M-0.37,0 L0.37,0 " class="primitive"/>
    </g>
    <g transform="translate(13.18,17.95)" stroke="#380DBA">
      <path fill="none" d="M0,2.7 L0,-2.7 " class="primitive"/>
    </g>
    <g transform="translate(9.12,15.25)" stroke="#380DBA">
      <path fill="none" d="M-3.33,0 L3.33,0 " class="primitive"/>
    </g>
    <g transform="translate(12.45,15.25)" stroke="#380DBA">
      <path fill="none" d="M0,2.7 L0,-2.7 " class="primitive"/>
    </g>
    <g transform="translate(4.77,12.55)" stroke="#16F1EF">
      <path fill="none" d="M-1.02,0 L1.02,0 " class="primitive"/>
    </g>
    <g transform="translate(5.8,12.55)" stroke="#16F1EF">
      <path fill="none" d="M0,2.7 L0,-2.7 " class="primitive"/>
    </g>
    <g transform="translate(3.75,9.85)" stroke="#000000">
      <path fill="none" d="M0,0 L0,0 " class="primitive"/>
    </g>
    <g transform="translate(3.75,9.85)" stroke="#000000">
      <path fill="none" d="M0,2.7 L0,-2.7 " class="primitive"/>
    </g>
    <g transform="translate(3.75,7.15)" stroke="#000000">
      <path fill="none" d="M0,0 L0,0 " class="primitive"/>
    </g>
    <g transform="translate(3.75,7.15)" stroke="#000000">
      <path fill="none" d="M0,2.7 L0,-2.7 " class="primitive"/>
    </g>
  </g>
</g>
<g fill-opacity="1" id="img-300d6e6f-3">
  <g transform="translate(7.35,4.45)" fill="#16F1EF">
    <circle cx="0" cy="0" r="0.75" class="primitive"/>
  </g>
  <g transform="translate(4.62,7.15)" fill="#16F1EF">
    <circle cx="0" cy="0" r="0.75" class="primitive"/>
  </g>
  <g transform="translate(6.41,9.85)" fill="#16F1EF">
    <circle cx="0" cy="0" r="0.75" class="primitive"/>
  </g>
  <g transform="translate(14.38,12.55)" fill="#380DBA">
    <circle cx="0" cy="0" r="0.75" class="primitive"/>
  </g>
  <g transform="translate(14.19,15.25)" fill="#16F1EF">
    <circle cx="0" cy="0" r="0.75" class="primitive"/>
  </g>
  <g transform="translate(20.95,17.95)" fill="#380DBA">
    <circle cx="0" cy="0" r="0.75" class="primitive"/>
  </g>
  <g transform="translate(22.15,20.65)" fill="#380DBA">
    <circle cx="0" cy="0" r="0.75" class="primitive"/>
  </g>
  <g transform="translate(19.46,23.35)" fill="#16F1EF">
    <circle cx="0" cy="0" r="0.75" class="primitive"/>
  </g>
  <g transform="translate(23.5,26.05)" fill="#380DBA">
    <circle cx="0" cy="0" r="0.75" class="primitive"/>
  </g>
  <g transform="translate(28.3,28.75)" fill="#16F1EF">
    <circle cx="0" cy="0" r="0.75" class="primitive"/>
  </g>
  <g transform="translate(33.36,31.45)" fill="#16F1EF">
    <circle cx="0" cy="0" r="0.75" class="primitive"/>
  </g>
  <g transform="translate(34.48,34.15)" fill="#380DBA">
    <circle cx="0" cy="0" r="0.75" class="primitive"/>
  </g>
  <g transform="translate(34.19,36.85)" fill="#380DBA">
    <circle cx="0" cy="0" r="0.75" class="primitive"/>
  </g>
  <g transform="translate(36.35,39.55)" fill="#16F1EF">
    <circle cx="0" cy="0" r="0.75" class="primitive"/>
  </g>
  <g transform="translate(40.33,42.25)" fill="#16F1EF">
    <circle cx="0" cy="0" r="0.75" class="primitive"/>
  </g>
  <g transform="translate(41.52,44.95)" fill="#380DBA">
    <circle cx="0" cy="0" r="0.75" class="primitive"/>
  </g>
  <g transform="translate(44.31,47.65)" fill="#16F1EF">
    <circle cx="0" cy="0" r="0.75" class="primitive"/>
  </g>
  <g transform="translate(62.14,50.35)" fill="#16F1EF">
    <circle cx="0" cy="0" r="0.75" class="primitive"/>
  </g>
  <g transform="translate(48.21,53.05)" fill="#380DBA">
    <circle cx="0" cy="0" r="0.75" class="primitive"/>
  </g>
  <g transform="translate(59.82,55.75)" fill="#380DBA">
    <circle cx="0" cy="0" r="0.75" class="primitive"/>
  </g>
  <g transform="translate(53.15,58.45)" fill="#16F1EF">
    <circle cx="0" cy="0" r="0.75" class="primitive"/>
  </g>
  <g transform="translate(55.51,61.15)" fill="#16F1EF">
    <circle cx="0" cy="0" r="0.75" class="primitive"/>
  </g>
  <g transform="translate(55.96,63.85)" fill="#16F1EF">
    <circle cx="0" cy="0" r="0.75" class="primitive"/>
  </g>
  <g transform="translate(67.03,66.55)" fill="#16F1EF">
    <circle cx="0" cy="0" r="0.75" class="primitive"/>
  </g>
  <g transform="translate(66.06,69.25)" fill="#380DBA">
    <circle cx="0" cy="0" r="0.75" class="primitive"/>
  </g>
  <g transform="translate(68.22,71.95)" fill="#16F1EF">
    <circle cx="0" cy="0" r="0.75" class="primitive"/>
  </g>
  <g transform="translate(70.97,74.65)" fill="#380DBA">
    <circle cx="0" cy="0" r="0.75" class="primitive"/>
  </g>
  <g transform="translate(69.32,77.35)" fill="#380DBA">
    <circle cx="0" cy="0" r="0.75" class="primitive"/>
  </g>
  <g transform="translate(75.67,80.05)" fill="#380DBA">
    <circle cx="0" cy="0" r="0.75" class="primitive"/>
  </g>
  <g transform="translate(73.37,82.75)" fill="#380DBA">
    <circle cx="0" cy="0" r="0.75" class="primitive"/>
  </g>
  <g transform="translate(75.18,85.45)" fill="#380DBA">
    <circle cx="0" cy="0" r="0.75" class="primitive"/>
  </g>
  <g transform="translate(75.79,88.15)" fill="#380DBA">
    <circle cx="0" cy="0" r="0.75" class="primitive"/>
  </g>
  <g transform="translate(75.94,90.85)" fill="#380DBA">
    <circle cx="0" cy="0" r="0.75" class="primitive"/>
  </g>
  <g transform="translate(78.75,93.55)" fill="#16F1EF">
    <circle cx="0" cy="0" r="0.75" class="primitive"/>
  </g>
  <g transform="translate(75.02,92.2)" fill="#16F1EF">
    <circle cx="0" cy="0" r="0.75" class="primitive"/>
  </g>
  <g transform="translate(74.97,90.17)" fill="#380DBA">
    <circle cx="0" cy="0" r="0.75" class="primitive"/>
  </g>
  <g transform="translate(74.36,87.81)" fill="#380DBA">
    <circle cx="0" cy="0" r="0.75" class="primitive"/>
  </g>
  <g transform="translate(72.97,85.28)" fill="#16F1EF">
    <circle cx="0" cy="0" r="0.75" class="primitive"/>
  </g>
  <g transform="translate(70.22,82.66)" fill="#16F1EF">
    <circle cx="0" cy="0" r="0.75" class="primitive"/>
  </g>
  <g transform="translate(68.87,80)" fill="#380DBA">
    <circle cx="0" cy="0" r="0.75" class="primitive"/>
  </g>
  <g transform="translate(67.1,77.33)" fill="#16F1EF">
    <circle cx="0" cy="0" r="0.75" class="primitive"/>
  </g>
  <g transform="translate(65.43,74.64)" fill="#16F1EF">
    <circle cx="0" cy="0" r="0.75" class="primitive"/>
  </g>
  <g transform="translate(61.9,71.94)" fill="#380DBA">
    <circle cx="0" cy="0" r="0.75" class="primitive"/>
  </g>
  <g transform="translate(60.08,69.25)" fill="#380DBA">
    <circle cx="0" cy="0" r="0.75" class="primitive"/>
  </g>
  <g transform="translate(55.15,66.55)" fill="#380DBA">
    <circle cx="0" cy="0" r="0.75" class="primitive"/>
  </g>
  <g transform="translate(55.01,63.85)" fill="#16F1EF">
    <circle cx="0" cy="0" r="0.75" class="primitive"/>
  </g>
  <g transform="translate(52.27,61.15)" fill="#16F1EF">
    <circle cx="0" cy="0" r="0.75" class="primitive"/>
  </g>
  <g transform="translate(51.29,58.45)" fill="#380DBA">
    <circle cx="0" cy="0" r="0.75" class="primitive"/>
  </g>
  <g transform="translate(47.65,55.75)" fill="#16F1EF">
    <circle cx="0" cy="0" r="0.75" class="primitive"/>
  </g>
  <g transform="translate(46.32,53.05)" fill="#16F1EF">
    <circle cx="0" cy="0" r="0.75" class="primitive"/>
  </g>
  <g transform="translate(43.46,50.35)" fill="#16F1EF">
    <circle cx="0" cy="0" r="0.75" class="primitive"/>
  </g>
  <g fill-opacity="1" id="img-300d6e6f-4">
    <g transform="translate(43.46,50.35)" fill="#16F1EF">
      <circle cx="0" cy="0" r="0.75" class="primitive"/>
    </g>
    <g transform="translate(40.75,47.65)" fill="#380DBA">
      <circle cx="0" cy="0" r="0.75" class="primitive"/>
    </g>
    <g transform="translate(38.56,44.95)" fill="#380DBA">
      <circle cx="0" cy="0" r="0.75" class="primitive"/>
    </g>
    <g transform="translate(35.85,42.25)" fill="#16F1EF">
      <circle cx="0" cy="0" r="0.75" class="primitive"/>
    </g>
    <g transform="translate(33.77,39.55)" fill="#380DBA">
      <circle cx="0" cy="0" r="0.75" class="primitive"/>
    </g>
    <g transform="translate(33.05,36.85)" fill="#380DBA">
      <circle cx="0" cy="0" r="0.75" class="primitive"/>
    </g>
    <g transform="translate(32.83,34.15)" fill="#380DBA">
      <circle cx="0" cy="0" r="0.75" class="primitive"/>
    </g>
    <g transform="translate(27.6,31.45)" fill="#16F1EF">
      <circle cx="0" cy="0" r="0.75" class="primitive"/>
    </g>
    <g transform="translate(21.65,28.75)" fill="#16F1EF">
      <circle cx="0" cy="0" r="0.75" class="primitive"/>
    </g>
    <g transform="translate(18.56,26.05)" fill="#380DBA">
      <circle cx="0" cy="0" r="0.75" class="primitive"/>
    </g>
    <g transform="translate(17.36,23.35)" fill="#380DBA">
      <circle cx="0" cy="0" r="0.75" class="primitive"/>
    </g>
    <g transform="translate(15.29,20.65)" fill="#16F1EF">
      <circle cx="0" cy="0" r="0.75" class="primitive"/>
    </g>
    <g transform="translate(13.18,17.95)" fill="#380DBA">
      <circle cx="0" cy="0" r="0.75" class="primitive"/>
    </g>
    <g transform="translate(12.45,15.25)" fill="#380DBA">
      <circle cx="0" cy="0" r="0.75" class="primitive"/>
    </g>
    <g transform="translate(5.8,12.55)" fill="#16F1EF">
      <circle cx="0" cy="0" r="0.75" class="primitive"/>
    </g>
    <g transform="translate(3.75,9.85)" fill="#000000">
      <circle cx="0" cy="0" r="0.75" class="primitive"/>
    </g>
    <g transform="translate(3.75,7.15)" fill="#000000">
      <circle cx="0" cy="0" r="0.75" class="primitive"/>
    </g>
  </g>
</g>
<g stroke-opacity="1" fill-opacity="1" font-size="1.41" stroke-width="0.1" id="img-300d6e6f-5">
  <g transform="translate(9.22,4.45)" stroke="#000000">
    <g class="primitive">
      <text dy="0.35em">N33</text>
    </g>
  </g>
  <g transform="translate(6.49,7.15)" stroke="#000000">
    <g class="primitive">
      <text dy="0.35em">N32</text>
    </g>
  </g>
  <g transform="translate(8.28,9.85)" stroke="#000000">
    <g class="primitive">
      <text dy="0.35em">N31</text>
    </g>
  </g>
  <g transform="translate(16.26,12.55)" stroke="#000000">
    <g class="primitive">
      <text dy="0.35em">N30</text>
    </g>
  </g>
  <g transform="translate(16.07,15.25)" stroke="#000000">
    <g class="primitive">
      <text dy="0.35em">N29</text>
    </g>
  </g>
  <g transform="translate(22.83,17.95)" stroke="#000000">
    <g class="primitive">
      <text dy="0.35em">N28</text>
    </g>
  </g>
  <g transform="translate(24.02,20.65)" stroke="#000000">
    <g class="primitive">
      <text dy="0.35em">N27</text>
    </g>
  </g>
  <g transform="translate(21.33,23.35)" stroke="#000000">
    <g class="primitive">
      <text dy="0.35em">N26</text>
    </g>
  </g>
  <g transform="translate(25.38,26.05)" stroke="#000000">
    <g class="primitive">
      <text dy="0.35em">N25</text>
    </g>
  </g>
  <g transform="translate(30.18,28.75)" stroke="#000000">
    <g class="primitive">
      <text dy="0.35em">N24</text>
    </g>
  </g>
  <g transform="translate(35.23,31.45)" stroke="#000000">
    <g class="primitive">
      <text dy="0.35em">N23</text>
    </g>
  </g>
  <g transform="translate(36.36,34.15)" stroke="#000000">
    <g class="primitive">
      <text dy="0.35em">N22</text>
    </g>
  </g>
  <g transform="translate(36.06,36.85)" stroke="#000000">
    <g class="primitive">
      <text dy="0.35em">N21</text>
    </g>
  </g>
  <g transform="translate(38.23,39.55)" stroke="#000000">
    <g class="primitive">
      <text dy="0.35em">N20</text>
    </g>
  </g>
  <g transform="translate(42.21,42.25)" stroke="#000000">
    <g class="primitive">
      <text dy="0.35em">N19</text>
    </g>
  </g>
  <g transform="translate(43.39,44.95)" stroke="#000000">
    <g class="primitive">
      <text dy="0.35em">N18</text>
    </g>
  </g>
  <g transform="translate(46.19,47.65)" stroke="#000000">
    <g class="primitive">
      <text dy="0.35em">N17</text>
    </g>
  </g>
  <g transform="translate(64.02,50.35)" stroke="#000000">
    <g class="primitive">
      <text dy="0.35em">N16</text>
    </g>
  </g>
  <g transform="translate(50.09,53.05)" stroke="#000000">
    <g class="primitive">
      <text dy="0.35em">N15</text>
    </g>
  </g>
  <g transform="translate(61.7,55.75)" stroke="#000000">
    <g class="primitive">
      <text dy="0.35em">N14</text>
    </g>
  </g>
  <g transform="translate(55.02,58.45)" stroke="#000000">
    <g class="primitive">
      <text dy="0.35em">N13</text>
    </g>
  </g>
  <g transform="translate(57.39,61.15)" stroke="#000000">
    <g class="primitive">
      <text dy="0.35em">N12</text>
    </g>
  </g>
  <g transform="translate(57.83,63.85)" stroke="#000000">
    <g class="primitive">
      <text dy="0.35em">N11</text>
    </g>
  </g>
  <g transform="translate(68.9,66.55)" stroke="#000000">
    <g class="primitive">
      <text dy="0.35em">N10</text>
    </g>
  </g>
  <g transform="translate(67.93,69.25)" stroke="#000000">
    <g class="primitive">
      <text dy="0.35em">N9</text>
    </g>
  </g>
  <g transform="translate(70.1,71.95)" stroke="#000000">
    <g class="primitive">
      <text dy="0.35em">N8</text>
    </g>
  </g>
  <g transform="translate(72.84,74.65)" stroke="#000000">
    <g class="primitive">
      <text dy="0.35em">N7</text>
    </g>
  </g>
  <g transform="translate(71.19,77.35)" stroke="#000000">
    <g class="primitive">
      <text dy="0.35em">N6</text>
    </g>
  </g>
  <g transform="translate(77.54,80.05)" stroke="#000000">
    <g class="primitive">
      <text dy="0.35em">N5</text>
    </g>
  </g>
  <g transform="translate(75.25,82.75)" stroke="#000000">
    <g class="primitive">
      <text dy="0.35em">N4</text>
    </g>
  </g>
  <g transform="translate(77.05,85.45)" stroke="#000000">
    <g class="primitive">
      <text dy="0.35em">N3</text>
    </g>
  </g>
  <g transform="translate(77.67,88.15)" stroke="#000000">
    <g class="primitive">
      <text dy="0.35em">N2</text>
    </g>
  </g>
  <g transform="translate(77.81,90.85)" stroke="#000000">
    <g class="primitive">
      <text dy="0.35em">N0</text>
    </g>
  </g>
  <g transform="translate(80.62,93.55)" stroke="#000000">
    <g class="primitive">
      <text dy="0.35em">N1</text>
    </g>
  </g>
  <g transform="translate(76.89,92.2)" stroke="#000000">
    <g class="primitive">
      <text dy="0.35em">N34</text>
    </g>
  </g>
  <g transform="translate(76.84,90.17)" stroke="#000000">
    <g class="primitive">
      <text dy="0.35em">N35</text>
    </g>
  </g>
  <g transform="translate(76.24,87.81)" stroke="#000000">
    <g class="primitive">
      <text dy="0.35em">N36</text>
    </g>
  </g>
  <g transform="translate(74.84,85.28)" stroke="#000000">
    <g class="primitive">
      <text dy="0.35em">N37</text>
    </g>
  </g>
  <g transform="translate(72.1,82.66)" stroke="#000000">
    <g class="primitive">
      <text dy="0.35em">N38</text>
    </g>
  </g>
  <g transform="translate(70.75,80)" stroke="#000000">
    <g class="primitive">
      <text dy="0.35em">N39</text>
    </g>
  </g>
  <g transform="translate(68.98,77.33)" stroke="#000000">
    <g class="primitive">
      <text dy="0.35em">N40</text>
    </g>
  </g>
  <g transform="translate(67.31,74.64)" stroke="#000000">
    <g class="primitive">
      <text dy="0.35em">N41</text>
    </g>
  </g>
  <g transform="translate(63.77,71.94)" stroke="#000000">
    <g class="primitive">
      <text dy="0.35em">N42</text>
    </g>
  </g>
  <g transform="translate(61.95,69.25)" stroke="#000000">
    <g class="primitive">
      <text dy="0.35em">N43</text>
    </g>
  </g>
  <g transform="translate(57.03,66.55)" stroke="#000000">
    <g class="primitive">
      <text dy="0.35em">N44</text>
    </g>
  </g>
  <g transform="translate(56.88,63.85)" stroke="#000000">
    <g class="primitive">
      <text dy="0.35em">N45</text>
    </g>
  </g>
  <g transform="translate(54.15,61.15)" stroke="#000000">
    <g class="primitive">
      <text dy="0.35em">N46</text>
    </g>
  </g>
  <g transform="translate(53.16,58.45)" stroke="#000000">
    <g class="primitive">
      <text dy="0.35em">N47</text>
    </g>
  </g>
  <g transform="translate(49.53,55.75)" stroke="#000000">
    <g class="primitive">
      <text dy="0.35em">N48</text>
    </g>
  </g>
  <g transform="translate(48.19,53.05)" stroke="#000000">
    <g class="primitive">
      <text dy="0.35em">N49</text>
    </g>
  </g>
  <g transform="translate(45.34,50.35)" stroke="#000000">
    <g class="primitive">
      <text dy="0.35em">N50</text>
    </g>
  </g>
  <g stroke-opacity="1" fill-opacity="1" font-size="1.41" stroke-width="0.1" id="img-300d6e6f-6">
    <g transform="translate(45.34,50.35)" stroke="#000000">
      <g class="primitive">
        <text dy="0.35em">N50</text>
      </g>
    </g>
    <g transform="translate(42.62,47.65)" stroke="#000000">
      <g class="primitive">
        <text dy="0.35em">N51</text>
      </g>
    </g>
    <g transform="translate(40.44,44.95)" stroke="#000000">
      <g class="primitive">
        <text dy="0.35em">N52</text>
      </g>
    </g>
    <g transform="translate(37.73,42.25)" stroke="#000000">
      <g class="primitive">
        <text dy="0.35em">N53</text>
      </g>
    </g>
    <g transform="translate(35.65,39.55)" stroke="#000000">
      <g class="primitive">
        <text dy="0.35em">N54</text>
      </g>
    </g>
    <g transform="translate(34.93,36.85)" stroke="#000000">
      <g class="primitive">
        <text dy="0.35em">N55</text>
      </g>
    </g>
    <g transform="translate(34.71,34.15)" stroke="#000000">
      <g class="primitive">
        <text dy="0.35em">N56</text>
      </g>
    </g>
    <g transform="translate(29.47,31.45)" stroke="#000000">
      <g class="primitive">
        <text dy="0.35em">N57</text>
      </g>
    </g>
    <g transform="translate(23.52,28.75)" stroke="#000000">
      <g class="primitive">
        <text dy="0.35em">N58</text>
      </g>
    </g>
    <g transform="translate(20.43,26.05)" stroke="#000000">
      <g class="primitive">
        <text dy="0.35em">N59</text>
      </g>
    </g>
    <g transform="translate(19.24,23.35)" stroke="#000000">
      <g class="primitive">
        <text dy="0.35em">N60</text>
      </g>
    </g>
    <g transform="translate(17.17,20.65)" stroke="#000000">
      <g class="primitive">
        <text dy="0.35em">N61</text>
      </g>
    </g>
    <g transform="translate(15.06,17.95)" stroke="#000000">
      <g class="primitive">
        <text dy="0.35em">N62</text>
      </g>
    </g>
    <g transform="translate(14.32,15.25)" stroke="#000000">
      <g class="primitive">
        <text dy="0.35em">N63</text>
      </g>
    </g>
    <g transform="translate(7.67,12.55)" stroke="#000000">
      <g class="primitive">
        <text dy="0.35em">N64</text>
      </g>
    </g>
    <g transform="translate(5.63,9.85)" stroke="#000000">
      <g class="primitive">
        <text dy="0.35em"></text>
      </g>
    </g>
    <g transform="translate(5.63,7.15)" stroke="#000000">
      <g class="primitive">
        <text dy="0.35em"></text>
      </g>
    </g>
  </g>
</g>
</svg>
