<?xml version="1.0" encoding="UTF-8"?>
<svg xmlns="http://www.w3.org/2000/svg"
     xmlns:xlink="http://www.w3.org/1999/xlink"
     version="1.2"
     width="150mm" height="146mm" viewBox="0 0 150 146"
     stroke="none"
     fill="#000000"
     stroke-width="0.3"
     font-size="3.88"
>
<defs>
  <marker id="arrow" markerWidth="15" markerHeight="7" refX="5" refY="3.5" orient="auto" markerUnits="strokeWidth">
    <path d="M0,0 L15,3.5 L0,7 z" stroke="context-stroke" fill="context-stroke"/>
  </marker>
</defs>
<g stroke-opacity="1" stroke-width="0.3" id="img-3c1e2fe8-1">
  <g transform="translate(8.47,6.64)" stroke="#FF0000">
    <path fill="none" d="M-1.99,0 L1.99,0 " class="primitive"/>
  </g>
  <g transform="translate(8.73,8.96)" stroke="#FF0000">
    <path fill="none" d="M-0.97,0 L0.97,0 " class="primitive"/>
  </g>
  <g transform="translate(10.77,11.29)" stroke="#FF0000">
    <path fill="none" d="M-2.17,0 L2.17,0 " class="primitive"/>
  </g>
  <g transform="translate(9.53,13.62)" stroke="#FF0000">
    <path fill="none" d="M-0.92,0 L0.92,0 " class="primitive"/>
  </g>
  <g transform="translate(8.18,12.46)" stroke="#FF0000">
    <path fill="none" d="M-0.42,0 L0.42,0 " class="primitive"/>
  </g>
  <g transform="translate(8.6,12.46)" stroke="#FF0000">
    <path fill="none" d="M0,1.16 L0,-1.16 " class="primitive"/>
  </g>
  <g transform="translate(7.23,10.71)" stroke="#FF0000">
    <path fill="none" d="M-0.52,0 L0.52,0 " class="primitive"/>
  </g>
  <g transform="translate(7.76,10.71)" stroke="#FF0000">
    <path fill="none" d="M0,1.75 L0,-1.75 " class="primitive"/>
  </g>
  <g transform="translate(8.28,15.95)" stroke="#FF0000">
    <path fill="none" d="M-1.57,0 L1.57,0 " class="primitive"/>
  </g>
  <g transform="translate(10.73,18.28)" stroke="#FF0000">
    <path fill="none" d="M-0,0 L0,0 " class="primitive"/>
  </g>
  <g transform="translate(10.73,20.61)" stroke="#FF0000">
    <path fill="none" d="M-0,0 L0,0 " class="primitive"/>
  </g>
  <g transform="translate(9.11,19.44)" stroke="#FF0000">
    <path fill="none" d="M-1.62,0 L1.62,0 " class="primitive"/>
  </g>
  <g transform="translate(10.73,19.44)" stroke="#FF0000">
    <path fill="none" d="M0,1.16 L0,-1.16 " class="primitive"/>
  </g>
  <g transform="translate(8.52,22.94)" stroke="#FF0000">
    <path fill="none" d="M-0.79,0 L0.79,0 " class="primitive"/>
  </g>
  <g transform="translate(9.26,25.26)" stroke="#FF0000">
    <path fill="none" d="M-1.27,0 L1.27,0 " class="primitive"/>
  </g>
  <g transform="translate(10.36,27.59)" stroke="#FF0000">
    <path fill="none" d="M-1.85,0 L1.85,0 " class="primitive"/>
  </g>
  <g transform="translate(9.22,29.92)" stroke="#FF0000">
    <path fill="none" d="M-0.72,0 L0.72,0 " class="primitive"/>
  </g>
  <g transform="translate(10.12,32.25)" stroke="#FF0000">
    <path fill="none" d="M-1.4,0 L1.4,0 " class="primitive"/>
  </g>
  <g transform="translate(15.95,34.58)" stroke="#FF0000">
    <path fill="none" d="M-1.05,0 L1.05,0 " class="primitive"/>
  </g>
  <g transform="translate(15.63,36.91)" stroke="#FF0000">
    <path fill="none" d="M-0.73,0 L0.73,0 " class="primitive"/>
  </g>
  <g transform="translate(13.03,35.74)" stroke="#FF0000">
    <path fill="none" d="M-1.88,0 L1.88,0 " class="primitive"/>
  </g>
  <g transform="translate(14.9,35.74)" stroke="#FF0000">
    <path fill="none" d="M0,1.16 L0,-1.16 " class="primitive"/>
  </g>
  <g transform="translate(13.8,39.24)" stroke="#FF0000">
    <path fill="none" d="M-0.32,0 L0.32,0 " class="primitive"/>
  </g>
  <g transform="translate(15,41.56)" stroke="#FF0000">
    <path fill="none" d="M-0.16,0 L0.16,0 " class="primitive"/>
  </g>
  <g transform="translate(14.84,43.89)" stroke="#FF0000">
    <path fill="none" d="M-0,0 L0,0 " class="primitive"/>
  </g>
  <g transform="translate(14.16,42.73)" stroke="#FF0000">
    <path fill="none" d="M-0.69,0 L0.69,0 " class="primitive"/>
  </g>
  <g transform="translate(14.84,42.73)" stroke="#FF0000">
    <path fill="none" d="M0,1.16 L0,-1.16 " class="primitive"/>
  </g>
  <g transform="translate(12.31,40.98)" stroke="#FF0000">
    <path fill="none" d="M-1.16,0 L1.16,0 " class="primitive"/>
  </g>
  <g transform="translate(13.47,40.98)" stroke="#FF0000">
    <path fill="none" d="M0,1.75 L0,-1.75 " class="primitive"/>
  </g>
  <g transform="translate(10.28,38.36)" stroke="#FF0000">
    <path fill="none" d="M-0.87,0 L0.87,0 " class="primitive"/>
  </g>
  <g transform="translate(11.15,38.36)" stroke="#FF0000">
    <path fill="none" d="M0,2.62 L0,-2.62 " class="primitive"/>
  </g>
  <g transform="translate(12.27,46.22)" stroke="#FF0000">
    <path fill="none" d="M-2.34,0 L2.34,0 " class="primitive"/>
  </g>
  <g transform="translate(13.51,48.55)" stroke="#FF0000">
    <path fill="none" d="M-3.28,0 L3.28,0 " class="primitive"/>
  </g>
  <g transform="translate(11.16,50.88)" stroke="#FF0000">
    <path fill="none" d="M-0.83,0 L0.83,0 " class="primitive"/>
  </g>
  <g transform="translate(14.05,53.21)" stroke="#FF0000">
    <path fill="none" d="M-0,0 L0,0 " class="primitive"/>
  </g>
  <g transform="translate(14.05,55.54)" stroke="#FF0000">
    <path fill="none" d="M-0,0 L0,0 " class="primitive"/>
  </g>
  <g transform="translate(12.65,54.37)" stroke="#FF0000">
    <path fill="none" d="M-1.4,0 L1.4,0 " class="primitive"/>
  </g>
  <g transform="translate(14.05,54.37)" stroke="#FF0000">
    <path fill="none" d="M0,1.16 L0,-1.16 " class="primitive"/>
  </g>
  <g transform="translate(12.56,57.86)" stroke="#FF0000">
    <path fill="none" d="M-0.87,0 L0.87,0 " class="primitive"/>
  </g>
  <g transform="translate(13.7,60.19)" stroke="#FF0000">
    <path fill="none" d="M-0.63,0 L0.63,0 " class="primitive"/>
  </g>
  <g transform="translate(13.63,62.52)" stroke="#FF0000">
    <path fill="none" d="M-0.57,0 L0.57,0 " class="primitive"/>
  </g>
  <g transform="translate(12.37,61.36)" stroke="#FF0000">
    <path fill="none" d="M-0.69,0 L0.69,0 " class="primitive"/>
  </g>
  <g transform="translate(13.06,61.36)" stroke="#FF0000">
    <path fill="none" d="M0,1.16 L0,-1.16 " class="primitive"/>
  </g>
  <g transform="translate(11.46,59.61)" stroke="#FF0000">
    <path fill="none" d="M-0.22,0 L0.22,0 " class="primitive"/>
  </g>
  <g transform="translate(11.69,59.61)" stroke="#FF0000">
    <path fill="none" d="M0,1.75 L0,-1.75 " class="primitive"/>
  </g>
  <g transform="translate(10.79,56.99)" stroke="#FF0000">
    <path fill="none" d="M-0.46,0 L0.46,0 " class="primitive"/>
  </g>
  <g transform="translate(11.24,56.99)" stroke="#FF0000">
    <path fill="none" d="M0,2.62 L0,-2.62 " class="primitive"/>
  </g>
  <g transform="translate(10.28,53.94)" stroke="#FF0000">
    <path fill="none" d="M-0.05,0 L0.05,0 " class="primitive"/>
  </g>
  <g transform="translate(10.33,53.94)" stroke="#FF0000">
    <path fill="none" d="M0,3.06 L0,-3.06 " class="primitive"/>
  </g>
  <g transform="translate(10.08,51.24)" stroke="#FF0000">
    <path fill="none" d="M-0.15,0 L0.15,0 " class="primitive"/>
  </g>
  <g transform="translate(10.23,51.24)" stroke="#FF0000">
    <path fill="none" d="M0,2.69 L0,-2.69 " class="primitive"/>
  </g>
  <g stroke-opacity="1" stroke-width="0.3" id="img-3c1e2fe8-2">
    <g transform="translate(22.16,130.34)" stroke="#0000FF">
      <path fill="none" d="M-0.74,0 L0.74,0 " class="primitive"/>
    </g>
    <g transform="translate(22.91,130.34)" stroke="#0000FF">
      <path fill="none" d="M0,2.62 L0,-2.62 " class="primitive"/>
    </g>
    <g transform="translate(20.55,127.87)" stroke="#0000FF">
      <path fill="none" d="M-0.87,0 L0.87,0 " class="primitive"/>
    </g>
    <g transform="translate(21.42,127.87)" stroke="#0000FF">
      <path fill="none" d="M0,2.47 L0,-2.47 " class="primitive"/>
    </g>
    <g transform="translate(18.47,123.72)" stroke="#0000FF">
      <path fill="none" d="M-1.22,0 L1.22,0 " class="primitive"/>
    </g>
    <g transform="translate(19.68,123.72)" stroke="#0000FF">
      <path fill="none" d="M0,4.15 L0,-4.15 " class="primitive"/>
    </g>
    <g transform="translate(16.8,118.73)" stroke="#0000FF">
      <path fill="none" d="M-0.44,0 L0.44,0 " class="primitive"/>
    </g>
    <g transform="translate(17.25,118.73)" stroke="#0000FF">
      <path fill="none" d="M0,4.98 L0,-4.98 " class="primitive"/>
    </g>
    <g transform="translate(15.93,115.08)" stroke="#0000FF">
      <path fill="none" d="M-0.43,0 L0.43,0 " class="primitive"/>
    </g>
    <g transform="translate(16.36,115.08)" stroke="#0000FF">
      <path fill="none" d="M0,3.66 L0,-3.66 " class="primitive"/>
    </g>
    <g transform="translate(13.06,110.63)" stroke="#0000FF">
      <path fill="none" d="M-2.45,0 L2.45,0 " class="primitive"/>
    </g>
    <g transform="translate(15.5,110.63)" stroke="#0000FF">
      <path fill="none" d="M0,4.45 L0,-4.45 " class="primitive"/>
    </g>
    <g transform="translate(10.43,104.91)" stroke="#0000FF">
      <path fill="none" d="M-0.18,0 L0.18,0 " class="primitive"/>
    </g>
    <g transform="translate(10.61,104.91)" stroke="#0000FF">
      <path fill="none" d="M0,5.72 L0,-5.72 " class="primitive"/>
    </g>
    <g transform="translate(8.64,98.56)" stroke="#0000FF">
      <path fill="none" d="M-1.61,0 L1.61,0 " class="primitive"/>
    </g>
    <g transform="translate(10.26,98.56)" stroke="#0000FF">
      <path fill="none" d="M0,6.35 L0,-6.35 " class="primitive"/>
    </g>
    <g transform="translate(6.77,91.89)" stroke="#0000FF">
      <path fill="none" d="M-0.27,0 L0.27,0 " class="primitive"/>
    </g>
    <g transform="translate(7.03,91.89)" stroke="#0000FF">
      <path fill="none" d="M0,6.67 L0,-6.67 " class="primitive"/>
    </g>
    <g transform="translate(5.12,80.81)" stroke="#0000FF">
      <path fill="none" d="M-1.37,0 L1.37,0 " class="primitive"/>
    </g>
    <g transform="translate(6.5,80.81)" stroke="#0000FF">
      <path fill="none" d="M0,11.08 L0,-11.08 " class="primitive"/>
    </g>
    <g transform="translate(3.75,45.8)" stroke="#000000">
      <path fill="none" d="M0,0 L0,0 " class="primitive"/>
    </g>
    <g transform="translate(3.75,45.8)" stroke="#000000">
      <path fill="none" d="M0,35.01 L0,-35.01 " class="primitive"/>
    </g>
  </g>
  <g stroke-opacity="1" stroke-width="0.3" id="img-3c1e2fe8-3">
    <g transform="translate(8.56,85.22)" stroke="#0000FF">
      <path fill="none" d="M-1.52,0 L1.52,0 " class="primitive"/>
    </g>
    <g transform="translate(10.08,85.22)" stroke="#0000FF">
      <path fill="none" d="M0,1.75 L0,-1.75 " class="primitive"/>
    </g>
    <g transform="translate(12.34,90.46)" stroke="#0000FF">
      <path fill="none" d="M-0.83,0 L0.83,0 " class="primitive"/>
    </g>
    <g transform="translate(13.64,92.79)" stroke="#0000FF">
      <path fill="none" d="M-0.97,0 L0.97,0 " class="primitive"/>
    </g>
    <g transform="translate(15.51,95.12)" stroke="#0000FF">
      <path fill="none" d="M-2.84,0 L2.84,0 " class="primitive"/>
    </g>
    <g transform="translate(12.09,93.96)" stroke="#0000FF">
      <path fill="none" d="M-0.58,0 L0.58,0 " class="primitive"/>
    </g>
    <g transform="translate(12.67,93.96)" stroke="#0000FF">
      <path fill="none" d="M0,1.16 L0,-1.16 " class="primitive"/>
    </g>
    <g transform="translate(10.88,92.21)" stroke="#0000FF">
      <path fill="none" d="M-0.62,0 L0.62,0 " class="primitive"/>
    </g>
    <g transform="translate(11.5,92.21)" stroke="#0000FF">
      <path fill="none" d="M0,1.75 L0,-1.75 " class="primitive"/>
    </g>
    <g transform="translate(15.01,97.45)" stroke="#0000FF">
      <path fill="none" d="M-3.6,0 L3.6,0 " class="primitive"/>
    </g>
    <g transform="translate(15.48,99.78)" stroke="#0000FF">
      <path fill="none" d="M-1.49,0 L1.49,0 " class="primitive"/>
    </g>
    <g transform="translate(14.42,102.11)" stroke="#0000FF">
      <path fill="none" d="M-0.43,0 L0.43,0 " class="primitive"/>
    </g>
    <g transform="translate(12.7,100.94)" stroke="#0000FF">
      <path fill="none" d="M-1.29,0 L1.29,0 " class="primitive"/>
    </g>
    <g transform="translate(13.99,100.94)" stroke="#0000FF">
      <path fill="none" d="M0,1.16 L0,-1.16 " class="primitive"/>
    </g>
    <g transform="translate(11.01,99.2)" stroke="#0000FF">
      <path fill="none" d="M-0.4,0 L0.4,0 " class="primitive"/>
    </g>
    <g transform="translate(11.41,99.2)" stroke="#0000FF">
      <path fill="none" d="M0,1.75 L0,-1.75 " class="primitive"/>
    </g>
    <g transform="translate(24.58,104.44)" stroke="#0000FF">
      <path fill="none" d="M-7.69,0 L7.69,0 " class="primitive"/>
    </g>
    <g transform="translate(54.52,106.76)" stroke="#0000FF">
      <path fill="none" d="M-24.23,0 L24.23,0 " class="primitive"/>
    </g>
    <g transform="translate(45.21,109.09)" stroke="#0000FF">
      <path fill="none" d="M-14.91,0 L14.91,0 " class="primitive"/>
    </g>
    <g transform="translate(23.59,107.93)" stroke="#0000FF">
      <path fill="none" d="M-6.7,0 L6.7,0 " class="primitive"/>
    </g>
    <g transform="translate(30.3,107.93)" stroke="#0000FF">
      <path fill="none" d="M0,1.16 L0,-1.16 " class="primitive"/>
    </g>
    <g transform="translate(16.2,106.18)" stroke="#0000FF">
      <path fill="none" d="M-0.69,0 L0.69,0 " class="primitive"/>
    </g>
    <g transform="translate(16.89,106.18)" stroke="#0000FF">
      <path fill="none" d="M0,1.75 L0,-1.75 " class="primitive"/>
    </g>
    <g transform="translate(23.67,111.42)" stroke="#0000FF">
      <path fill="none" d="M-7.31,0 L7.31,0 " class="primitive"/>
    </g>
    <g transform="translate(23.29,113.75)" stroke="#0000FF">
      <path fill="none" d="M-6.04,0 L6.04,0 " class="primitive"/>
    </g>
    <g transform="translate(27.73,116.08)" stroke="#0000FF">
      <path fill="none" d="M-5.22,0 L5.22,0 " class="primitive"/>
    </g>
    <g transform="translate(27.05,118.41)" stroke="#0000FF">
      <path fill="none" d="M-4.53,0 L4.53,0 " class="primitive"/>
    </g>
    <g transform="translate(21.52,117.24)" stroke="#0000FF">
      <path fill="none" d="M-0.99,0 L0.99,0 " class="primitive"/>
    </g>
    <g transform="translate(22.51,117.24)" stroke="#0000FF">
      <path fill="none" d="M0,1.16 L0,-1.16 " class="primitive"/>
    </g>
    <g transform="translate(31.64,120.74)" stroke="#0000FF">
      <path fill="none" d="M-10.03,0 L10.03,0 " class="primitive"/>
    </g>
    <g transform="translate(28.74,123.06)" stroke="#0000FF">
      <path fill="none" d="M-7.13,0 L7.13,0 " class="primitive"/>
    </g>
    <g transform="translate(21.07,121.9)" stroke="#0000FF">
      <path fill="none" d="M-0.54,0 L0.54,0 " class="primitive"/>
    </g>
    <g transform="translate(21.61,121.9)" stroke="#0000FF">
      <path fill="none" d="M0,1.16 L0,-1.16 " class="primitive"/>
    </g>
    <g transform="translate(20.11,119.57)" stroke="#0000FF">
      <path fill="none" d="M-0.42,0 L0.42,0 " class="primitive"/>
    </g>
    <g transform="translate(20.53,119.57)" stroke="#0000FF">
      <path fill="none" d="M0,2.33 L0,-2.33 " class="primitive"/>
    </g>
    <g transform="translate(25.06,125.39)" stroke="#0000FF">
      <path fill="none" d="M-3.64,0 L3.64,0 " class="primitive"/>
    </g>
    <g transform="translate(26.73,127.72)" stroke="#0000FF">
      <path fill="none" d="M-3.82,0 L3.82,0 " class="primitive"/>
    </g>
    <g transform="translate(29.66,130.05)" stroke="#0000FF">
      <path fill="none" d="M-3.94,0 L3.94,0 " class="primitive"/>
    </g>
    <g transform="translate(32.3,132.38)" stroke="#0000FF">
      <path fill="none" d="M-1.03,0 L1.03,0 " class="primitive"/>
    </g>
    <g transform="translate(33.07,134.71)" stroke="#0000FF">
      <path fill="none" d="M-1.8,0 L1.8,0 " class="primitive"/>
    </g>
    <g transform="translate(30.28,133.54)" stroke="#0000FF">
      <path fill="none" d="M-0.98,0 L0.98,0 " class="primitive"/>
    </g>
    <g transform="translate(31.26,133.54)" stroke="#0000FF">
      <path fill="none" d="M0,1.16 L0,-1.16 " class="primitive"/>
    </g>
    <g transform="translate(31.97,137.04)" stroke="#0000FF">
      <path fill="none" d="M-0.68,0 L0.68,0 " class="primitive"/>
    </g>
    <g transform="translate(31.9,139.36)" stroke="#0000FF">
      <path fill="none" d="M-0.6,0 L0.6,0 " class="primitive"/>
    </g>
    <g transform="translate(30.29,138.2)" stroke="#0000FF">
      <path fill="none" d="M-1,0 L1,0 " class="primitive"/>
    </g>
    <g transform="translate(31.29,138.2)" stroke="#0000FF">
      <path fill="none" d="M0,1.16 L0,-1.16 " class="primitive"/>
    </g>
    <g transform="translate(27.51,135.87)" stroke="#0000FF">
      <path fill="none" d="M-1.79,0 L1.79,0 " class="primitive"/>
    </g>
    <g transform="translate(29.3,135.87)" stroke="#0000FF">
      <path fill="none" d="M0,2.33 L0,-2.33 " class="primitive"/>
    </g>
    <g transform="translate(24.31,132.96)" stroke="#0000FF">
      <path fill="none" d="M-1.41,0 L1.41,0 " class="primitive"/>
    </g>
    <g transform="translate(25.72,132.96)" stroke="#0000FF">
      <path fill="none" d="M0,2.91 L0,-2.91 " class="primitive"/>
    </g>
    <g transform="translate(22.16,130.34)" stroke="#0000FF">
      <path fill="none" d="M-0.74,0 L0.74,0 " class="primitive"/>
    </g>
  </g>
  <g stroke-opacity="1" stroke-width="0.3" id="img-3c1e2fe8-4">
    <g transform="translate(10.23,51.24)" stroke="#FF0000">
      <path fill="none" d="M0,2.69 L0,-2.69 " class="primitive"/>
    </g>
    <g transform="translate(9.67,48.73)" stroke="#FF0000">
      <path fill="none" d="M-0.27,0 L0.27,0 " class="primitive"/>
    </g>
    <g transform="translate(9.94,48.73)" stroke="#FF0000">
      <path fill="none" d="M0,2.51 L0,-2.51 " class="primitive"/>
    </g>
    <g transform="translate(9.06,43.55)" stroke="#FF0000">
      <path fill="none" d="M-0.35,0 L0.35,0 " class="primitive"/>
    </g>
    <g transform="translate(9.41,43.55)" stroke="#FF0000">
      <path fill="none" d="M0,5.18 L0,-5.18 " class="primitive"/>
    </g>
    <g transform="translate(8.61,37.9)" stroke="#FF0000">
      <path fill="none" d="M-0.11,0 L0.11,0 " class="primitive"/>
    </g>
    <g transform="translate(8.72,37.9)" stroke="#FF0000">
      <path fill="none" d="M0,5.65 L0,-5.65 " class="primitive"/>
    </g>
    <g transform="translate(8.5,33.91)" stroke="#FF0000">
      <path fill="none" d="M-0,0 L0,0 " class="primitive"/>
    </g>
    <g transform="translate(8.5,33.91)" stroke="#FF0000">
      <path fill="none" d="M0,3.99 L0,-3.99 " class="primitive"/>
    </g>
    <g transform="translate(8.25,30.75)" stroke="#FF0000">
      <path fill="none" d="M-0.26,0 L0.26,0 " class="primitive"/>
    </g>
    <g transform="translate(8.5,30.75)" stroke="#FF0000">
      <path fill="none" d="M0,3.16 L0,-3.16 " class="primitive"/>
    </g>
    <g transform="translate(7.86,28.01)" stroke="#FF0000">
      <path fill="none" d="M-0.13,0 L0.13,0 " class="primitive"/>
    </g>
    <g transform="translate(7.99,28.01)" stroke="#FF0000">
      <path fill="none" d="M0,2.74 L0,-2.74 " class="primitive"/>
    </g>
    <g transform="translate(7.62,25.47)" stroke="#FF0000">
      <path fill="none" d="M-0.12,0 L0.12,0 " class="primitive"/>
    </g>
    <g transform="translate(7.73,25.47)" stroke="#FF0000">
      <path fill="none" d="M0,2.54 L0,-2.54 " class="primitive"/>
    </g>
    <g transform="translate(7.1,22.46)" stroke="#FF0000">
      <path fill="none" d="M-0.4,0 L0.4,0 " class="primitive"/>
    </g>
    <g transform="translate(7.5,22.46)" stroke="#FF0000">
      <path fill="none" d="M0,3.01 L0,-3.01 " class="primitive"/>
    </g>
    <g transform="translate(6.71,19.2)" stroke="#FF0000">
      <path fill="none" d="M-0,0 L0,0 " class="primitive"/>
    </g>
    <g transform="translate(6.71,19.2)" stroke="#FF0000">
      <path fill="none" d="M0,3.25 L0,-3.25 " class="primitive"/>
    </g>
    <g transform="translate(6.6,14.96)" stroke="#FF0000">
      <path fill="none" d="M-0.11,0 L0.11,0 " class="primitive"/>
    </g>
    <g transform="translate(6.71,14.96)" stroke="#FF0000">
      <path fill="none" d="M0,4.25 L0,-4.25 " class="primitive"/>
    </g>
    <g transform="translate(5.12,10.8)" stroke="#FF0000">
      <path fill="none" d="M-1.37,0 L1.37,0 " class="primitive"/>
    </g>
    <g transform="translate(6.49,10.8)" stroke="#FF0000">
      <path fill="none" d="M0,4.16 L0,-4.16 " class="primitive"/>
    </g>
    <g transform="translate(13.69,64.85)" stroke="#0000FF">
      <path fill="none" d="M-3.61,0 L3.61,0 " class="primitive"/>
    </g>
    <g transform="translate(11.85,67.18)" stroke="#0000FF">
      <path fill="none" d="M-1.77,0 L1.77,0 " class="primitive"/>
    </g>
    <g transform="translate(9.74,66.01)" stroke="#0000FF">
      <path fill="none" d="M-0.34,0 L0.34,0 " class="primitive"/>
    </g>
    <g transform="translate(10.09,66.01)" stroke="#0000FF">
      <path fill="none" d="M0,1.16 L0,-1.16 " class="primitive"/>
    </g>
    <g transform="translate(11.38,69.51)" stroke="#0000FF">
      <path fill="none" d="M-0.15,0 L0.15,0 " class="primitive"/>
    </g>
    <g transform="translate(11.23,71.84)" stroke="#0000FF">
      <path fill="none" d="M-0,0 L0,0 " class="primitive"/>
    </g>
    <g transform="translate(10.93,70.67)" stroke="#0000FF">
      <path fill="none" d="M-0.3,0 L0.3,0 " class="primitive"/>
    </g>
    <g transform="translate(11.23,70.67)" stroke="#0000FF">
      <path fill="none" d="M0,1.16 L0,-1.16 " class="primitive"/>
    </g>
    <g transform="translate(11.67,74.16)" stroke="#0000FF">
      <path fill="none" d="M-0,0 L0,0 " class="primitive"/>
    </g>
    <g transform="translate(11.67,76.49)" stroke="#0000FF">
      <path fill="none" d="M-0,0 L0,0 " class="primitive"/>
    </g>
    <g transform="translate(12.02,78.82)" stroke="#0000FF">
      <path fill="none" d="M-0,0 L0,0 " class="primitive"/>
    </g>
    <g transform="translate(12.19,81.15)" stroke="#0000FF">
      <path fill="none" d="M-0.17,0 L0.17,0 " class="primitive"/>
    </g>
    <g transform="translate(11.84,79.99)" stroke="#0000FF">
      <path fill="none" d="M-0.17,0 L0.17,0 " class="primitive"/>
    </g>
    <g transform="translate(12.02,79.99)" stroke="#0000FF">
      <path fill="none" d="M0,1.16 L0,-1.16 " class="primitive"/>
    </g>
    <g transform="translate(11.67,78.24)" stroke="#0000FF">
      <path fill="none" d="M-0,0 L0,0 " class="primitive"/>
    </g>
    <g transform="translate(11.67,78.24)" stroke="#0000FF">
      <path fill="none" d="M0,1.75 L0,-1.75 " class="primitive"/>
    </g>
    <g transform="translate(11.15,76.2)" stroke="#0000FF">
      <path fill="none" d="M-0.52,0 L0.52,0 " class="primitive"/>
    </g>
    <g transform="translate(11.67,76.2)" stroke="#0000FF">
      <path fill="none" d="M0,2.04 L0,-2.04 " class="primitive"/>
    </g>
    <g transform="translate(10.02,73.44)" stroke="#0000FF">
      <path fill="none" d="M-0.62,0 L0.62,0 " class="primitive"/>
    </g>
    <g transform="translate(10.64,73.44)" stroke="#0000FF">
      <path fill="none" d="M0,2.77 L0,-2.77 " class="primitive"/>
    </g>
    <g transform="translate(7.95,69.73)" stroke="#0000FF">
      <path fill="none" d="M-1.45,0 L1.45,0 " class="primitive"/>
    </g>
    <g transform="translate(9.4,69.73)" stroke="#0000FF">
      <path fill="none" d="M0,3.71 L0,-3.71 " class="primitive"/>
    </g>
    <g transform="translate(12.5,83.48)" stroke="#0000FF">
      <path fill="none" d="M-2.41,0 L2.41,0 " class="primitive"/>
    </g>
    <g transform="translate(12.69,85.81)" stroke="#0000FF">
      <path fill="none" d="M-1.58,0 L1.58,0 " class="primitive"/>
    </g>
    <g transform="translate(14.35,88.14)" stroke="#0000FF">
      <path fill="none" d="M-3.24,0 L3.24,0 " class="primitive"/>
    </g>
    <g transform="translate(10.6,86.97)" stroke="#0000FF">
      <path fill="none" d="M-0.52,0 L0.52,0 " class="primitive"/>
    </g>
    <g transform="translate(11.11,86.97)" stroke="#0000FF">
      <path fill="none" d="M0,1.16 L0,-1.16 " class="primitive"/>
    </g>
    <g transform="translate(8.56,85.22)" stroke="#0000FF">
      <path fill="none" d="M-1.52,0 L1.52,0 " class="primitive"/>
    </g>
  </g>
</g>
<g fill-opacity="1" id="img-3c1e2fe8-5">
  <g transform="translate(10.46,6.64)" fill="#FF0000">
    <circle cx="0" cy="0" r="0.75" class="primitive"/>
  </g>
  <g transform="translate(9.7,8.96)" fill="#FF0000">
    <circle cx="0" cy="0" r="0.75" class="primitive"/>
  </g>
  <g transform="translate(12.94,11.29)" fill="#FF0000">
    <circle cx="0" cy="0" r="0.75" class="primitive"/>
  </g>
  <g transform="translate(10.45,13.62)" fill="#FF0000">
    <circle cx="0" cy="0" r="0.75" class="primitive"/>
  </g>
  <g transform="translate(8.6,12.46)" fill="#FF0000">
    <circle cx="0" cy="0" r="0.75" class="primitive"/>
  </g>
  <g transform="translate(7.76,10.71)" fill="#FF0000">
    <circle cx="0" cy="0" r="0.75" class="primitive"/>
  </g>
  <g transform="translate(9.85,15.95)" fill="#FF0000">
    <circle cx="0" cy="0" r="0.75" class="primitive"/>
  </g>
  <g transform="translate(10.73,18.28)" fill="#FF0000">
    <circle cx="0" cy="0" r="0.75" class="primitive"/>
  </g>
  <g transform="translate(10.73,20.61)" fill="#FF0000">
    <circle cx="0" cy="0" r="0.75" class="primitive"/>
  </g>
  <g transform="translate(10.73,19.44)" fill="#FF0000">
    <circle cx="0" cy="0" r="0.75" class="primitive"/>
  </g>
  <g transform="translate(9.31,22.94)" fill="#FF0000">
    <circle cx="0" cy="0" r="0.75" class="primitive"/>
  </g>
  <g transform="translate(10.53,25.26)" fill="#FF0000">
    <circle cx="0" cy="0" r="0.75" class="primitive"/>
  </g>
  <g transform="translate(12.21,27.59)" fill="#FF0000">
    <circle cx="0" cy="0" r="0.75" class="primitive"/>
  </g>
  <g transform="translate(9.95,29.92)" fill="#FF0000">
    <circle cx="0" cy="0" r="0.75" class="primitive"/>
  </g>
  <g transform="translate(11.52,32.25)" fill="#FF0000">
    <circle cx="0" cy="0" r="0.75" class="primitive"/>
  </g>
  <g transform="translate(17,34.58)" fill="#FF0000">
    <circle cx="0" cy="0" r="0.75" class="primitive"/>
  </g>
  <g transform="translate(16.36,36.91)" fill="#FF0000">
    <circle cx="0" cy="0" r="0.75" class="primitive"/>
  </g>
  <g transform="translate(14.9,35.74)" fill="#FF0000">
    <circle cx="0" cy="0" r="0.75" class="primitive"/>
  </g>
  <g transform="translate(14.12,39.24)" fill="#FF0000">
    <circle cx="0" cy="0" r="0.75" class="primitive"/>
  </g>
  <g transform="translate(15.17,41.56)" fill="#FF0000">
    <circle cx="0" cy="0" r="0.75" class="primitive"/>
  </g>
  <g transform="translate(14.84,43.89)" fill="#FF0000">
    <circle cx="0" cy="0" r="0.75" class="primitive"/>
  </g>
  <g transform="translate(14.84,42.73)" fill="#FF0000">
    <circle cx="0" cy="0" r="0.75" class="primitive"/>
  </g>
  <g transform="translate(13.47,40.98)" fill="#FF0000">
    <circle cx="0" cy="0" r="0.75" class="primitive"/>
  </g>
  <g transform="translate(11.15,38.36)" fill="#FF0000">
    <circle cx="0" cy="0" r="0.75" class="primitive"/>
  </g>
  <g transform="translate(14.61,46.22)" fill="#FF0000">
    <circle cx="0" cy="0" r="0.75" class="primitive"/>
  </g>
  <g transform="translate(16.8,48.55)" fill="#FF0000">
    <circle cx="0" cy="0" r="0.75" class="primitive"/>
  </g>
  <g transform="translate(11.99,50.88)" fill="#FF0000">
    <circle cx="0" cy="0" r="0.75" class="primitive"/>
  </g>
  <g transform="translate(14.05,53.21)" fill="#FF0000">
    <circle cx="0" cy="0" r="0.75" class="primitive"/>
  </g>
  <g transform="translate(14.05,55.54)" fill="#FF0000">
    <circle cx="0" cy="0" r="0.75" class="primitive"/>
  </g>
  <g transform="translate(14.05,54.37)" fill="#FF0000">
    <circle cx="0" cy="0" r="0.75" class="primitive"/>
  </g>
  <g transform="translate(13.43,57.86)" fill="#FF0000">
    <circle cx="0" cy="0" r="0.75" class="primitive"/>
  </g>
  <g transform="translate(14.33,60.19)" fill="#FF0000">
    <circle cx="0" cy="0" r="0.75" class="primitive"/>
  </g>
  <g transform="translate(14.2,62.52)" fill="#FF0000">
    <circle cx="0" cy="0" r="0.75" class="primitive"/>
  </g>
  <g transform="translate(13.06,61.36)" fill="#FF0000">
    <circle cx="0" cy="0" r="0.75" class="primitive"/>
  </g>
  <g transform="translate(11.69,59.61)" fill="#FF0000">
    <circle cx="0" cy="0" r="0.75" class="primitive"/>
  </g>
  <g transform="translate(11.24,56.99)" fill="#FF0000">
    <circle cx="0" cy="0" r="0.75" class="primitive"/>
  </g>
  <g transform="translate(10.33,53.94)" fill="#FF0000">
    <circle cx="0" cy="0" r="0.75" class="primitive"/>
  </g>
  <g transform="translate(10.23,51.24)" fill="#FF0000">
    <circle cx="0" cy="0" r="0.75" class="primitive"/>
  </g>
  <g transform="translate(9.94,48.73)" fill="#FF0000">
    <circle cx="0" cy="0" r="0.75" class="primitive"/>
  </g>
  <g transform="translate(9.41,43.55)" fill="#FF0000">
    <circle cx="0" cy="0" r="0.75" class="primitive"/>
  </g>
  <g transform="translate(8.72,37.9)" fill="#FF0000">
    <circle cx="0" cy="0" r="0.75" class="primitive"/>
  </g>
  <g transform="translate(8.5,33.91)" fill="#FF0000">
    <circle cx="0" cy="0" r="0.75" class="primitive"/>
  </g>
  <g transform="translate(8.5,30.75)" fill="#FF0000">
    <circle cx="0" cy="0" r="0.75" class="primitive"/>
  </g>
  <g transform="translate(7.99,28.01)" fill="#FF0000">
    <circle cx="0" cy="0" r="0.75" class="primitive"/>
  </g>
  <g transform="translate(7.73,25.47)" fill="#FF0000">
    <circle cx="0" cy="0" r="0.75" class="primitive"/>
  </g>
  <g transform="translate(7.5,22.46)" fill="#FF0000">
    <circle cx="0" cy="0" r="0.75" class="primitive"/>
  </g>
  <g transform="translate(6.71,19.2)" fill="#FF0000">
    <circle cx="0" cy="0" r="0.75" class="primitive"/>
  </g>
  <g transform="translate(6.71,14.96)" fill="#FF0000">
    <circle cx="0" cy="0" r="0.75" class="primitive"/>
  </g>
  <g transform="translate(6.49,10.8)" fill="#FF0000">
    <circle cx="0" cy="0" r="0.75" class="primitive"/>
  </g>
  <g transform="translate(17.3,64.85)" fill="#0000FF">
    <circle cx="0" cy="0" r="0.75" class="primitive"/>
  </g>
  <g transform="translate(13.62,67.18)" fill="#0000FF">
    <circle cx="0" cy="0" r="0.75" class="primitive"/>
  </g>
  <g fill-opacity="1" id="img-3c1e2fe8-6">
    <g transform="translate(32.5,139.36)" fill="#0000FF">
      <circle cx="0" cy="0" r="0.75" class="primitive"/>
    </g>
    <g transform="translate(31.29,138.2)" fill="#0000FF">
      <circle cx="0" cy="0" r="0.75" class="primitive"/>
    </g>
    <g transform="translate(29.3,135.87)" fill="#0000FF">
      <circle cx="0" cy="0" r="0.75" class="primitive"/>
    </g>
    <g transform="translate(25.72,132.96)" fill="#0000FF">
      <circle cx="0" cy="0" r="0.75" class="primitive"/>
    </g>
    <g transform="translate(22.91,130.34)" fill="#0000FF">
      <circle cx="0" cy="0" r="0.75" class="primitive"/>
    </g>
    <g transform="translate(21.42,127.87)" fill="#0000FF">
      <circle cx="0" cy="0" r="0.75" class="primitive"/>
    </g>
    <g transform="translate(19.68,123.72)" fill="#0000FF">
      <circle cx="0" cy="0" r="0.75" class="primitive"/>
    </g>
    <g transform="translate(17.25,118.73)" fill="#0000FF">
      <circle cx="0" cy="0" r="0.75" class="primitive"/>
    </g>
    <g transform="translate(16.36,115.08)" fill="#0000FF">
      <circle cx="0" cy="0" r="0.75" class="primitive"/>
    </g>
    <g transform="translate(15.5,110.63)" fill="#0000FF">
      <circle cx="0" cy="0" r="0.75" class="primitive"/>
    </g>
    <g transform="translate(10.61,104.91)" fill="#0000FF">
      <circle cx="0" cy="0" r="0.75" class="primitive"/>
    </g>
    <g transform="translate(10.26,98.56)" fill="#0000FF">
      <circle cx="0" cy="0" r="0.75" class="primitive"/>
    </g>
    <g transform="translate(7.03,91.89)" fill="#0000FF">
      <circle cx="0" cy="0" r="0.75" class="primitive"/>
    </g>
    <g transform="translate(6.5,80.81)" fill="#0000FF">
      <circle cx="0" cy="0" r="0.75" class="primitive"/>
    </g>
    <g transform="translate(3.75,45.8)" fill="#000000">
      <circle cx="0" cy="0" r="0.75" class="primitive"/>
    </g>
  </g>
  <g fill-opacity="1" id="img-3c1e2fe8-7">
    <g transform="translate(13.62,67.18)" fill="#0000FF">
      <circle cx="0" cy="0" r="0.75" class="primitive"/>
    </g>
    <g transform="translate(10.09,66.01)" fill="#0000FF">
      <circle cx="0" cy="0" r="0.75" class="primitive"/>
    </g>
    <g transform="translate(11.52,69.51)" fill="#0000FF">
      <circle cx="0" cy="0" r="0.75" class="primitive"/>
    </g>
    <g transform="translate(11.23,71.84)" fill="#0000FF">
      <circle cx="0" cy="0" r="0.75" class="primitive"/>
    </g>
    <g transform="translate(11.23,70.67)" fill="#0000FF">
      <circle cx="0" cy="0" r="0.75" class="primitive"/>
    </g>
    <g transform="translate(11.67,74.16)" fill="#0000FF">
      <circle cx="0" cy="0" r="0.75" class="primitive"/>
    </g>
    <g transform="translate(11.67,76.49)" fill="#0000FF">
      <circle cx="0" cy="0" r="0.75" class="primitive"/>
    </g>
    <g transform="translate(12.02,78.82)" fill="#0000FF">
      <circle cx="0" cy="0" r="0.75" class="primitive"/>
    </g>
    <g transform="translate(12.36,81.15)" fill="#0000FF">
      <circle cx="0" cy="0" r="0.75" class="primitive"/>
    </g>
    <g transform="translate(12.02,79.99)" fill="#0000FF">
      <circle cx="0" cy="0" r="0.75" class="primitive"/>
    </g>
    <g transform="translate(11.67,78.24)" fill="#0000FF">
      <circle cx="0" cy="0" r="0.75" class="primitive"/>
    </g>
    <g transform="translate(11.67,76.2)" fill="#0000FF">
      <circle cx="0" cy="0" r="0.75" class="primitive"/>
    </g>
    <g transform="translate(10.64,73.44)" fill="#0000FF">
      <circle cx="0" cy="0" r="0.75" class="primitive"/>
    </g>
    <g transform="translate(9.4,69.73)" fill="#0000FF">
      <circle cx="0" cy="0" r="0.75" class="primitive"/>
    </g>
    <g transform="translate(14.91,83.48)" fill="#0000FF">
      <circle cx="0" cy="0" r="0.75" class="primitive"/>
    </g>
    <g transform="translate(14.27,85.81)" fill="#0000FF">
      <circle cx="0" cy="0" r="0.75" class="primitive"/>
    </g>
    <g transform="translate(17.59,88.14)" fill="#0000FF">
      <circle cx="0" cy="0" r="0.75" class="primitive"/>
    </g>
    <g transform="translate(11.11,86.97)" fill="#0000FF">
      <circle cx="0" cy="0" r="0.75" class="primitive"/>
    </g>
    <g transform="translate(10.08,85.22)" fill="#0000FF">
      <circle cx="0" cy="0" r="0.75" class="primitive"/>
    </g>
    <g transform="translate(13.17,90.46)" fill="#0000FF">
      <circle cx="0" cy="0" r="0.75" class="primitive"/>
    </g>
    <g transform="translate(14.62,92.79)" fill="#0000FF">
      <circle cx="0" cy="0" r="0.75" class="primitive"/>
    </g>
    <g transform="translate(18.35,95.12)" fill="#0000FF">
      <circle cx="0" cy="0" r="0.75" class="primitive"/>
    </g>
    <g transform="translate(12.67,93.96)" fill="#0000FF">
      <circle cx="0" cy="0" r="0.75" class="primitive"/>
    </g>
    <g transform="translate(11.5,92.21)" fill="#0000FF">
      <circle cx="0" cy="0" r="0.75" class="primitive"/>
    </g>
    <g transform="translate(18.61,97.45)" fill="#0000FF">
      <circle cx="0" cy="0" r="0.75" class="primitive"/>
    </g>
    <g transform="translate(16.97,99.78)" fill="#0000FF">
      <circle cx="0" cy="0" r="0.75" class="primitive"/>
    </g>
    <g transform="translate(14.86,102.11)" fill="#0000FF">
      <circle cx="0" cy="0" r="0.75" class="primitive"/>
    </g>
    <g transform="translate(13.99,100.94)" fill="#0000FF">
      <circle cx="0" cy="0" r="0.75" class="primitive"/>
    </g>
    <g transform="translate(11.41,99.2)" fill="#0000FF">
      <circle cx="0" cy="0" r="0.75" class="primitive"/>
    </g>
    <g transform="translate(32.28,104.44)" fill="#0000FF">
      <circle cx="0" cy="0" r="0.75" class="primitive"/>
    </g>
    <g transform="translate(78.75,106.76)" fill="#0000FF">
      <circle cx="0" cy="0" r="0.75" class="primitive"/>
    </g>
    <g transform="translate(60.12,109.09)" fill="#0000FF">
      <circle cx="0" cy="0" r="0.75" class="primitive"/>
    </g>
    <g transform="translate(30.3,107.93)" fill="#0000FF">
      <circle cx="0" cy="0" r="0.75" class="primitive"/>
    </g>
    <g transform="translate(16.89,106.18)" fill="#0000FF">
      <circle cx="0" cy="0" r="0.75" class="primitive"/>
    </g>
    <g transform="translate(30.99,111.42)" fill="#0000FF">
      <circle cx="0" cy="0" r="0.75" class="primitive"/>
    </g>
    <g transform="translate(29.33,113.75)" fill="#0000FF">
      <circle cx="0" cy="0" r="0.75" class="primitive"/>
    </g>
    <g transform="translate(32.95,116.08)" fill="#0000FF">
      <circle cx="0" cy="0" r="0.75" class="primitive"/>
    </g>
    <g transform="translate(31.58,118.41)" fill="#0000FF">
      <circle cx="0" cy="0" r="0.75" class="primitive"/>
    </g>
    <g transform="translate(22.51,117.24)" fill="#0000FF">
      <circle cx="0" cy="0" r="0.75" class="primitive"/>
    </g>
    <g transform="translate(41.68,120.74)" fill="#0000FF">
      <circle cx="0" cy="0" r="0.75" class="primitive"/>
    </g>
    <g transform="translate(35.88,123.06)" fill="#0000FF">
      <circle cx="0" cy="0" r="0.75" class="primitive"/>
    </g>
    <g transform="translate(21.61,121.9)" fill="#0000FF">
      <circle cx="0" cy="0" r="0.75" class="primitive"/>
    </g>
    <g transform="translate(20.53,119.57)" fill="#0000FF">
      <circle cx="0" cy="0" r="0.75" class="primitive"/>
    </g>
    <g transform="translate(28.7,125.39)" fill="#0000FF">
      <circle cx="0" cy="0" r="0.75" class="primitive"/>
    </g>
    <g transform="translate(30.55,127.72)" fill="#0000FF">
      <circle cx="0" cy="0" r="0.75" class="primitive"/>
    </g>
    <g transform="translate(33.6,130.05)" fill="#0000FF">
      <circle cx="0" cy="0" r="0.75" class="primitive"/>
    </g>
    <g transform="translate(33.33,132.38)" fill="#0000FF">
      <circle cx="0" cy="0" r="0.75" class="primitive"/>
    </g>
    <g transform="translate(34.87,134.71)" fill="#0000FF">
      <circle cx="0" cy="0" r="0.75" class="primitive"/>
    </g>
    <g transform="translate(31.26,133.54)" fill="#0000FF">
      <circle cx="0" cy="0" r="0.75" class="primitive"/>
    </g>
    <g transform="translate(32.65,137.04)" fill="#0000FF">
      <circle cx="0" cy="0" r="0.75" class="primitive"/>
    </g>
    <g transform="translate(32.5,139.36)" fill="#0000FF">
      <circle cx="0" cy="0" r="0.75" class="primitive"/>
    </g>
  </g>
</g>
</svg>
