<?xml version="1.0" encoding="UTF-8"?>
<svg xmlns="http://www.w3.org/2000/svg"
     xmlns:xlink="http://www.w3.org/1999/xlink"
     version="1.2"
     width="150mm" height="58mm" viewBox="0 0 150 58"
     stroke="none"
     fill="#000000"
     stroke-width="0.3"
     font-size="3.88"
>
<defs>
  <marker id="arrow" markerWidth="15" markerHeight="7" refX="5" refY="3.5" orient="auto" markerUnits="strokeWidth">
    <path d="M0,0 L15,3.5 L0,7 z" stroke="context-stroke" fill="context-stroke"/>
  </marker>
</defs>
<g stroke-opacity="1" stroke-width="0.3" id="img-29b4c979-1">
  <g transform="translate(4.59,2.64)" stroke="#050474">
    <path fill="none" d="M-0.84,0 L0.84,0 " class="primitive"/>
  </g>
  <g transform="translate(12.8,6.69)" stroke="#050474">
    <path fill="none" d="M-9.05,0 L9.05,0 " class="primitive"/>
  </g>
  <g transform="translate(12.5,10.75)" stroke="#050474">
    <path fill="none" d="M-6.73,0 L6.73,0 " class="primitive"/>
  </g>
  <g transform="translate(8.39,14.8)" stroke="#9A4BBF">
    <path fill="none" d="M-0.26,0 L0.26,0 " class="primitive"/>
  </g>
  <g transform="translate(18.28,18.86)" stroke="#9A4BBF">
    <path fill="none" d="M-0.33,0 L0.33,0 " class="primitive"/>
  </g>
  <g transform="translate(29.89,22.92)" stroke="#050474">
    <path fill="none" d="M-0.41,0 L0.41,0 " class="primitive"/>
  </g>
  <g transform="translate(41.66,26.97)" stroke="#050474">
    <path fill="none" d="M-2.58,0 L2.58,0 " class="primitive"/>
  </g>
  <g transform="translate(41.39,31.03)" stroke="#050474">
    <path fill="none" d="M-0.3,0 L0.3,0 " class="primitive"/>
  </g>
  <g transform="translate(45.85,35.08)" stroke="#050474">
    <path fill="none" d="M-0.27,0 L0.27,0 " class="primitive"/>
  </g>
  <g transform="translate(50.16,39.14)" stroke="#9A4BBF">
    <path fill="none" d="M-1.66,0 L1.66,0 " class="primitive"/>
  </g>
  <g transform="translate(57.95,43.2)" stroke="#050474">
    <path fill="none" d="M-0.01,0 L0.01,0 " class="primitive"/>
  </g>
  <g transform="translate(73.93,47.25)" stroke="#050474">
    <path fill="none" d="M-4.82,0 L4.82,0 " class="primitive"/>
  </g>
  <g transform="translate(71.16,51.31)" stroke="#050474">
    <path fill="none" d="M-0.91,0 L0.91,0 " class="primitive"/>
  </g>
  <g transform="translate(73.58,55.36)" stroke="#050474">
    <path fill="none" d="M-3.33,0 L3.33,0 " class="primitive"/>
  </g>
  <g transform="translate(69.68,53.34)" stroke="#050474">
    <path fill="none" d="M-0.57,0 L0.57,0 " class="primitive"/>
  </g>
  <g transform="translate(70.25,53.34)" stroke="#050474">
    <path fill="none" d="M0,2.03 L0,-2.03 " class="primitive"/>
  </g>
  <g transform="translate(63.52,50.29)" stroke="#050474">
    <path fill="none" d="M-5.58,0 L5.58,0 " class="primitive"/>
  </g>
  <g transform="translate(69.1,50.29)" stroke="#050474">
    <path fill="none" d="M0,3.04 L0,-3.04 " class="primitive"/>
  </g>
  <g transform="translate(53.22,46.74)" stroke="#9A4BBF">
    <path fill="none" d="M-4.72,0 L4.72,0 " class="primitive"/>
  </g>
  <g transform="translate(57.93,46.74)" stroke="#9A4BBF">
    <path fill="none" d="M0,3.55 L0,-3.55 " class="primitive"/>
  </g>
  <g transform="translate(47.04,42.94)" stroke="#050474">
    <path fill="none" d="M-1.46,0 L1.46,0 " class="primitive"/>
  </g>
  <g transform="translate(48.5,42.94)" stroke="#050474">
    <path fill="none" d="M0,3.8 L0,-3.8 " class="primitive"/>
  </g>
  <g transform="translate(43.34,39.01)" stroke="#050474">
    <path fill="none" d="M-2.24,0 L2.24,0 " class="primitive"/>
  </g>
  <g transform="translate(45.58,39.01)" stroke="#050474">
    <path fill="none" d="M0,3.93 L0,-3.93 " class="primitive"/>
  </g>
  <g transform="translate(40.09,35.02)" stroke="#9A4BBF">
    <path fill="none" d="M-1,0 L1,0 " class="primitive"/>
  </g>
  <g transform="translate(41.09,35.02)" stroke="#9A4BBF">
    <path fill="none" d="M0,3.99 L0,-3.99 " class="primitive"/>
  </g>
  <g transform="translate(34.29,31)" stroke="#9A4BBF">
    <path fill="none" d="M-4.8,0 L4.8,0 " class="primitive"/>
  </g>
  <g transform="translate(39.09,31)" stroke="#9A4BBF">
    <path fill="none" d="M0,4.02 L0,-4.02 " class="primitive"/>
  </g>
  <g transform="translate(23.72,26.96)" stroke="#9A4BBF">
    <path fill="none" d="M-5.77,0 L5.77,0 " class="primitive"/>
  </g>
  <g transform="translate(29.49,26.96)" stroke="#9A4BBF">
    <path fill="none" d="M0,4.04 L0,-4.04 " class="primitive"/>
  </g>
  <g transform="translate(13.04,22.91)" stroke="#050474">
    <path fill="none" d="M-4.91,0 L4.91,0 " class="primitive"/>
  </g>
  <g transform="translate(17.95,22.91)" stroke="#050474">
    <path fill="none" d="M0,4.05 L0,-4.05 " class="primitive"/>
  </g>
  <g transform="translate(6.95,18.86)" stroke="#9A4BBF">
    <path fill="none" d="M-1.18,0 L1.18,0 " class="primitive"/>
  </g>
  <g transform="translate(8.13,18.86)" stroke="#9A4BBF">
    <path fill="none" d="M0,4.05 L0,-4.05 " class="primitive"/>
  </g>
  <g transform="translate(4.76,14.8)" stroke="#050474">
    <path fill="none" d="M-1.01,0 L1.01,0 " class="primitive"/>
  </g>
  <g transform="translate(5.77,14.8)" stroke="#050474">
    <path fill="none" d="M0,4.05 L0,-4.05 " class="primitive"/>
  </g>
  <g transform="translate(3.75,10.75)" stroke="#000000">
    <path fill="none" d="M0,0 L0,0 " class="primitive"/>
  </g>
  <g transform="translate(3.75,10.75)" stroke="#000000">
    <path fill="none" d="M0,4.05 L0,-4.05 " class="primitive"/>
  </g>
  <g transform="translate(3.75,6.69)" stroke="#000000">
    <path fill="none" d="M0,0 L0,0 " class="primitive"/>
  </g>
  <g transform="translate(3.75,6.69)" stroke="#000000">
    <path fill="none" d="M0,4.06 L0,-4.06 " class="primitive"/>
  </g>
</g>
<g fill-opacity="1" id="img-29b4c979-2">
  <g transform="translate(5.42,2.64)" fill="#050474">
    <circle cx="0" cy="0" r="0.75" class="primitive"/>
  </g>
  <g transform="translate(21.85,6.69)" fill="#050474">
    <circle cx="0" cy="0" r="0.75" class="primitive"/>
  </g>
  <g transform="translate(19.23,10.75)" fill="#050474">
    <circle cx="0" cy="0" r="0.75" class="primitive"/>
  </g>
  <g transform="translate(8.64,14.8)" fill="#9A4BBF">
    <circle cx="0" cy="0" r="0.75" class="primitive"/>
  </g>
  <g transform="translate(18.61,18.86)" fill="#9A4BBF">
    <circle cx="0" cy="0" r="0.75" class="primitive"/>
  </g>
  <g transform="translate(30.3,22.92)" fill="#050474">
    <circle cx="0" cy="0" r="0.75" class="primitive"/>
  </g>
  <g transform="translate(44.24,26.97)" fill="#050474">
    <circle cx="0" cy="0" r="0.75" class="primitive"/>
  </g>
  <g transform="translate(41.69,31.03)" fill="#050474">
    <circle cx="0" cy="0" r="0.75" class="primitive"/>
  </g>
  <g transform="translate(46.12,35.08)" fill="#050474">
    <circle cx="0" cy="0" r="0.75" class="primitive"/>
  </g>
  <g transform="translate(51.83,39.14)" fill="#9A4BBF">
    <circle cx="0" cy="0" r="0.75" class="primitive"/>
  </g>
  <g transform="translate(57.96,43.2)" fill="#050474">
    <circle cx="0" cy="0" r="0.75" class="primitive"/>
  </g>
  <g transform="translate(78.75,47.25)" fill="#050474">
    <circle cx="0" cy="0" r="0.75" class="primitive"/>
  </g>
  <g transform="translate(72.06,51.31)" fill="#050474">
    <circle cx="0" cy="0" r="0.75" class="primitive"/>
  </g>
  <g transform="translate(76.92,55.36)" fill="#050474">
    <circle cx="0" cy="0" r="0.75" class="primitive"/>
  </g>
  <g transform="translate(70.25,53.34)" fill="#050474">
    <circle cx="0" cy="0" r="0.75" class="primitive"/>
  </g>
  <g transform="translate(69.1,50.29)" fill="#050474">
    <circle cx="0" cy="0" r="0.75" class="primitive"/>
  </g>
  <g transform="translate(57.93,46.74)" fill="#9A4BBF">
    <circle cx="0" cy="0" r="0.75" class="primitive"/>
  </g>
  <g transform="translate(48.5,42.94)" fill="#050474">
    <circle cx="0" cy="0" r="0.75" class="primitive"/>
  </g>
  <g transform="translate(45.58,39.01)" fill="#050474">
    <circle cx="0" cy="0" r="0.75" class="primitive"/>
  </g>
  <g transform="translate(41.09,35.02)" fill="#9A4BBF">
    <circle cx="0" cy="0" r="0.75" class="primitive"/>
  </g>
  <g transform="translate(39.09,31)" fill="#9A4BBF">
    <circle cx="0" cy="0" r="0.75" class="primitive"/>
  </g>
  <g transform="translate(29.49,26.96)" fill="#9A4BBF">
    <circle cx="0" cy="0" r="0.75" class="primitive"/>
  </g>
  <g transform="translate(17.95,22.91)" fill="#050474">
    <circle cx="0" cy="0" r="0.75" class="primitive"/>
  </g>
  <g transform="translate(8.13,18.86)" fill="#9A4BBF">
    <circle cx="0" cy="0" r="0.75" class="primitive"/>
  </g>
  <g transform="translate(5.77,14.8)" fill="#050474">
    <circle cx="0" cy="0" r="0.75" class="primitive"/>
  </g>
  <g transform="translate(3.75,10.75)" fill="#000000">
    <circle cx="0" cy="0" r="0.75" class="primitive"/>
  </g>
  <g transform="translate(3.75,6.69)" fill="#000000">
    <circle cx="0" cy="0" r="0.75" class="primitive"/>
  </g>
</g>
<g stroke-opacity="1" fill-opacity="1" font-size="1.41" stroke-width="0.1" id="img-29b4c979-3">
  <g transform="translate(7.3,2.64)" stroke="#000000">
    <g class="primitive">
      <text dy="0.35em">N13</text>
    </g>
  </g>
  <g transform="translate(23.73,6.69)" stroke="#000000">
    <g class="primitive">
      <text dy="0.35em">N12</text>
    </g>
  </g>
  <g transform="translate(21.1,10.75)" stroke="#000000">
    <g class="primitive">
      <text dy="0.35em">N11</text>
    </g>
  </g>
  <g transform="translate(10.52,14.8)" stroke="#000000">
    <g class="primitive">
      <text dy="0.35em">N10</text>
    </g>
  </g>
  <g transform="translate(20.49,18.86)" stroke="#000000">
    <g class="primitive">
      <text dy="0.35em">N9</text>
    </g>
  </g>
  <g transform="translate(32.17,22.92)" stroke="#000000">
    <g class="primitive">
      <text dy="0.35em">N8</text>
    </g>
  </g>
  <g transform="translate(46.12,26.97)" stroke="#000000">
    <g class="primitive">
      <text dy="0.35em">N7</text>
    </g>
  </g>
  <g transform="translate(43.57,31.03)" stroke="#000000">
    <g class="primitive">
      <text dy="0.35em">N6</text>
    </g>
  </g>
  <g transform="translate(47.99,35.08)" stroke="#000000">
    <g class="primitive">
      <text dy="0.35em">N5</text>
    </g>
  </g>
  <g transform="translate(53.7,39.14)" stroke="#000000">
    <g class="primitive">
      <text dy="0.35em">N4</text>
    </g>
  </g>
  <g transform="translate(59.84,43.2)" stroke="#000000">
    <g class="primitive">
      <text dy="0.35em">N3</text>
    </g>
  </g>
  <g transform="translate(80.62,47.25)" stroke="#000000">
    <g class="primitive">
      <text dy="0.35em">N2</text>
    </g>
  </g>
  <g transform="translate(73.94,51.31)" stroke="#000000">
    <g class="primitive">
      <text dy="0.35em">N0</text>
    </g>
  </g>
  <g transform="translate(78.79,55.36)" stroke="#000000">
    <g class="primitive">
      <text dy="0.35em">N1</text>
    </g>
  </g>
  <g transform="translate(72.12,53.34)" stroke="#000000">
    <g class="primitive">
      <text dy="0.35em">N14</text>
    </g>
  </g>
  <g transform="translate(70.98,50.29)" stroke="#000000">
    <g class="primitive">
      <text dy="0.35em">N15</text>
    </g>
  </g>
  <g transform="translate(59.81,46.74)" stroke="#000000">
    <g class="primitive">
      <text dy="0.35em">N16</text>
    </g>
  </g>
  <g transform="translate(50.38,42.94)" stroke="#000000">
    <g class="primitive">
      <text dy="0.35em">N17</text>
    </g>
  </g>
  <g transform="translate(47.46,39.01)" stroke="#000000">
    <g class="primitive">
      <text dy="0.35em">N18</text>
    </g>
  </g>
  <g transform="translate(42.97,35.02)" stroke="#000000">
    <g class="primitive">
      <text dy="0.35em">N19</text>
    </g>
  </g>
  <g transform="translate(40.96,31)" stroke="#000000">
    <g class="primitive">
      <text dy="0.35em">N20</text>
    </g>
  </g>
  <g transform="translate(31.36,26.96)" stroke="#000000">
    <g class="primitive">
      <text dy="0.35em">N21</text>
    </g>
  </g>
  <g transform="translate(19.82,22.91)" stroke="#000000">
    <g class="primitive">
      <text dy="0.35em">N22</text>
    </g>
  </g>
  <g transform="translate(10.01,18.86)" stroke="#000000">
    <g class="primitive">
      <text dy="0.35em">N23</text>
    </g>
  </g>
  <g transform="translate(7.65,14.8)" stroke="#000000">
    <g class="primitive">
      <text dy="0.35em">N24</text>
    </g>
  </g>
  <g transform="translate(5.63,10.75)" stroke="#000000">
    <g class="primitive">
      <text dy="0.35em"></text>
    </g>
  </g>
  <g transform="translate(5.63,6.69)" stroke="#000000">
    <g class="primitive">
      <text dy="0.35em"></text>
    </g>
  </g>
</g>
</svg>
