<?xml version="1.0" encoding="UTF-8"?>
<svg xmlns="http://www.w3.org/2000/svg"
     xmlns:xlink="http://www.w3.org/1999/xlink"
     version="1.2"
     width="150mm" height="62mm" viewBox="0 0 150 62"
     stroke="none"
     fill="#000000"
     stroke-width="0.3"
     font-size="3.88"
>
<defs>
  <marker id="arrow" markerWidth="15" markerHeight="7" refX="5" refY="3.5" orient="auto" markerUnits="strokeWidth">
    <path d="M0,0 L15,3.5 L0,7 z" stroke="context-stroke" fill="context-stroke"/>
  </marker>
</defs>
<g stroke-opacity="1" stroke-width="0.3" id="img-29b4c979-1">
  <g transform="translate(20.17,2.82)" stroke="#B28705">
    <path fill="none" d="M-1.21,0 L1.21,0 " class="primitive"/>
  </g>
  <g transform="translate(30.18,6.58)" stroke="#86AE2B">
    <path fill="none" d="M-5.42,0 L5.42,0 " class="primitive"/>
  </g>
  <g transform="translate(33.64,10.33)" stroke="#B28705">
    <path fill="none" d="M-8.88,0 L8.88,0 " class="primitive"/>
  </g>
  <g transform="translate(21.86,8.45)" stroke="#B28705">
    <path fill="none" d="M-2.9,0 L2.9,0 " class="primitive"/>
  </g>
  <g transform="translate(24.76,8.45)" stroke="#B28705">
    <path fill="none" d="M0,1.88 L0,-1.88 " class="primitive"/>
  </g>
  <g transform="translate(11.36,5.64)" stroke="#B28705">
    <path fill="none" d="M-7.61,0 L7.61,0 " class="primitive"/>
  </g>
  <g transform="translate(18.96,5.64)" stroke="#B28705">
    <path fill="none" d="M0,2.82 L0,-2.82 " class="primitive"/>
  </g>
  <g transform="translate(21.37,14.09)" stroke="#B28705">
    <path fill="none" d="M-2.88,0 L2.88,0 " class="primitive"/>
  </g>
  <g transform="translate(21.75,17.85)" stroke="#B28705">
    <path fill="none" d="M-3.26,0 L3.26,0 " class="primitive"/>
  </g>
  <g transform="translate(14.19,15.97)" stroke="#B28705">
    <path fill="none" d="M-4.3,0 L4.3,0 " class="primitive"/>
  </g>
  <g transform="translate(18.49,15.97)" stroke="#B28705">
    <path fill="none" d="M0,1.88 L0,-1.88 " class="primitive"/>
  </g>
  <g transform="translate(18.97,21.61)" stroke="#B28705">
    <path fill="none" d="M-0.62,0 L0.62,0 " class="primitive"/>
  </g>
  <g transform="translate(36.29,25.36)" stroke="#86AE2B">
    <path fill="none" d="M-2.4,0 L2.4,0 " class="primitive"/>
  </g>
  <g transform="translate(39.53,29.12)" stroke="#B28705">
    <path fill="none" d="M-5.64,0 L5.64,0 " class="primitive"/>
  </g>
  <g transform="translate(26.12,27.24)" stroke="#86AE2B">
    <path fill="none" d="M-7.77,0 L7.77,0 " class="primitive"/>
  </g>
  <g transform="translate(33.89,27.24)" stroke="#86AE2B">
    <path fill="none" d="M0,1.88 L0,-1.88 " class="primitive"/>
  </g>
  <g transform="translate(14.12,24.42)" stroke="#B28705">
    <path fill="none" d="M-4.23,0 L4.23,0 " class="primitive"/>
  </g>
  <g transform="translate(18.35,24.42)" stroke="#B28705">
    <path fill="none" d="M0,2.82 L0,-2.82 " class="primitive"/>
  </g>
  <g transform="translate(6.82,20.2)" stroke="#B28705">
    <path fill="none" d="M-3.07,0 L3.07,0 " class="primitive"/>
  </g>
  <g transform="translate(9.89,20.2)" stroke="#B28705">
    <path fill="none" d="M0,4.23 L0,-4.23 " class="primitive"/>
  </g>
  <g transform="translate(17.19,32.88)" stroke="#B28705">
    <path fill="none" d="M-3.33,0 L3.33,0 " class="primitive"/>
  </g>
  <g transform="translate(24.43,36.64)" stroke="#B28705">
    <path fill="none" d="M-4.25,0 L4.25,0 " class="primitive"/>
  </g>
  <g transform="translate(39.59,40.39)" stroke="#86AE2B">
    <path fill="none" d="M-19.4,0 L19.4,0 " class="primitive"/>
  </g>
  <g transform="translate(17.02,38.52)" stroke="#B28705">
    <path fill="none" d="M-3.16,0 L3.16,0 " class="primitive"/>
  </g>
  <g transform="translate(20.19,38.52)" stroke="#B28705">
    <path fill="none" d="M0,1.88 L0,-1.88 " class="primitive"/>
  </g>
  <g transform="translate(11.71,35.7)" stroke="#B28705">
    <path fill="none" d="M-2.15,0 L2.15,0 " class="primitive"/>
  </g>
  <g transform="translate(13.86,35.7)" stroke="#B28705">
    <path fill="none" d="M0,2.82 L0,-2.82 " class="primitive"/>
  </g>
  <g transform="translate(64.52,44.15)" stroke="#B28705">
    <path fill="none" d="M-14.23,0 L14.23,0 " class="primitive"/>
  </g>
  <g transform="translate(57.02,47.91)" stroke="#86AE2B">
    <path fill="none" d="M-6.73,0 L6.73,0 " class="primitive"/>
  </g>
  <g transform="translate(43.53,46.03)" stroke="#B28705">
    <path fill="none" d="M-6.76,0 L6.76,0 " class="primitive"/>
  </g>
  <g transform="translate(50.29,46.03)" stroke="#B28705">
    <path fill="none" d="M0,1.88 L0,-1.88 " class="primitive"/>
  </g>
  <g transform="translate(51.04,51.67)" stroke="#B28705">
    <path fill="none" d="M-2.82,0 L2.82,0 " class="primitive"/>
  </g>
  <g transform="translate(65.75,55.42)" stroke="#B28705">
    <path fill="none" d="M-11.44,0 L11.44,0 " class="primitive"/>
  </g>
  <g transform="translate(57.83,59.18)" stroke="#B28705">
    <path fill="none" d="M-3.52,0 L3.52,0 " class="primitive"/>
  </g>
  <g transform="translate(51.26,57.3)" stroke="#B28705">
    <path fill="none" d="M-3.05,0 L3.05,0 " class="primitive"/>
  </g>
  <g transform="translate(54.31,57.3)" stroke="#B28705">
    <path fill="none" d="M0,1.88 L0,-1.88 " class="primitive"/>
  </g>
  <g transform="translate(42.5,54.48)" stroke="#B28705">
    <path fill="none" d="M-5.72,0 L5.72,0 " class="primitive"/>
  </g>
  <g transform="translate(48.22,54.48)" stroke="#B28705">
    <path fill="none" d="M0,2.82 L0,-2.82 " class="primitive"/>
  </g>
  <g transform="translate(23.17,50.26)" stroke="#B28705">
    <path fill="none" d="M-13.61,0 L13.61,0 " class="primitive"/>
  </g>
  <g transform="translate(36.78,50.26)" stroke="#B28705">
    <path fill="none" d="M0,4.23 L0,-4.23 " class="primitive"/>
  </g>
  <g transform="translate(6.65,42.98)" stroke="#B28705">
    <path fill="none" d="M-2.9,0 L2.9,0 " class="primitive"/>
  </g>
  <g transform="translate(9.55,42.98)" stroke="#B28705">
    <path fill="none" d="M0,7.28 L0,-7.28 " class="primitive"/>
  </g>
  <g transform="translate(3.75,31.59)" stroke="#000000">
    <path fill="none" d="M0,0 L0,0 " class="primitive"/>
  </g>
  <g transform="translate(3.75,31.59)" stroke="#000000">
    <path fill="none" d="M0,11.39 L0,-11.39 " class="primitive"/>
  </g>
  <g transform="translate(3.75,18.61)" stroke="#000000">
    <path fill="none" d="M0,0 L0,0 " class="primitive"/>
  </g>
  <g transform="translate(3.75,18.61)" stroke="#000000">
    <path fill="none" d="M0,12.98 L0,-12.98 " class="primitive"/>
  </g>
</g>
<g fill-opacity="1" id="img-29b4c979-2">
  <g transform="translate(21.38,2.82)" fill="#B28705">
    <circle cx="0" cy="0" r="0.75" class="primitive"/>
  </g>
  <g transform="translate(35.6,6.58)" fill="#86AE2B">
    <circle cx="0" cy="0" r="0.75" class="primitive"/>
  </g>
  <g transform="translate(42.53,10.33)" fill="#B28705">
    <circle cx="0" cy="0" r="0.75" class="primitive"/>
  </g>
  <g transform="translate(24.76,8.45)" fill="#B28705">
    <circle cx="0" cy="0" r="0.75" class="primitive"/>
  </g>
  <g transform="translate(18.96,5.64)" fill="#B28705">
    <circle cx="0" cy="0" r="0.75" class="primitive"/>
  </g>
  <g transform="translate(24.24,14.09)" fill="#B28705">
    <circle cx="0" cy="0" r="0.75" class="primitive"/>
  </g>
  <g transform="translate(25.02,17.85)" fill="#B28705">
    <circle cx="0" cy="0" r="0.75" class="primitive"/>
  </g>
  <g transform="translate(18.49,15.97)" fill="#B28705">
    <circle cx="0" cy="0" r="0.75" class="primitive"/>
  </g>
  <g transform="translate(19.58,21.61)" fill="#B28705">
    <circle cx="0" cy="0" r="0.75" class="primitive"/>
  </g>
  <g transform="translate(38.69,25.36)" fill="#86AE2B">
    <circle cx="0" cy="0" r="0.75" class="primitive"/>
  </g>
  <g transform="translate(45.17,29.12)" fill="#B28705">
    <circle cx="0" cy="0" r="0.75" class="primitive"/>
  </g>
  <g transform="translate(33.89,27.24)" fill="#86AE2B">
    <circle cx="0" cy="0" r="0.75" class="primitive"/>
  </g>
  <g transform="translate(18.35,24.42)" fill="#B28705">
    <circle cx="0" cy="0" r="0.75" class="primitive"/>
  </g>
  <g transform="translate(9.89,20.2)" fill="#B28705">
    <circle cx="0" cy="0" r="0.75" class="primitive"/>
  </g>
  <g transform="translate(20.52,32.88)" fill="#B28705">
    <circle cx="0" cy="0" r="0.75" class="primitive"/>
  </g>
  <g transform="translate(28.68,36.64)" fill="#B28705">
    <circle cx="0" cy="0" r="0.75" class="primitive"/>
  </g>
  <g transform="translate(59,40.39)" fill="#86AE2B">
    <circle cx="0" cy="0" r="0.75" class="primitive"/>
  </g>
  <g transform="translate(20.19,38.52)" fill="#B28705">
    <circle cx="0" cy="0" r="0.75" class="primitive"/>
  </g>
  <g transform="translate(13.86,35.7)" fill="#B28705">
    <circle cx="0" cy="0" r="0.75" class="primitive"/>
  </g>
  <g transform="translate(78.75,44.15)" fill="#B28705">
    <circle cx="0" cy="0" r="0.75" class="primitive"/>
  </g>
  <g transform="translate(63.76,47.91)" fill="#86AE2B">
    <circle cx="0" cy="0" r="0.75" class="primitive"/>
  </g>
  <g transform="translate(50.29,46.03)" fill="#B28705">
    <circle cx="0" cy="0" r="0.75" class="primitive"/>
  </g>
  <g transform="translate(53.86,51.67)" fill="#B28705">
    <circle cx="0" cy="0" r="0.75" class="primitive"/>
  </g>
  <g transform="translate(77.19,55.42)" fill="#B28705">
    <circle cx="0" cy="0" r="0.75" class="primitive"/>
  </g>
  <g transform="translate(61.36,59.18)" fill="#B28705">
    <circle cx="0" cy="0" r="0.75" class="primitive"/>
  </g>
  <g transform="translate(54.31,57.3)" fill="#B28705">
    <circle cx="0" cy="0" r="0.75" class="primitive"/>
  </g>
  <g transform="translate(48.22,54.48)" fill="#B28705">
    <circle cx="0" cy="0" r="0.75" class="primitive"/>
  </g>
  <g transform="translate(36.78,50.26)" fill="#B28705">
    <circle cx="0" cy="0" r="0.75" class="primitive"/>
  </g>
  <g transform="translate(9.55,42.98)" fill="#B28705">
    <circle cx="0" cy="0" r="0.75" class="primitive"/>
  </g>
  <g transform="translate(3.75,31.59)" fill="#000000">
    <circle cx="0" cy="0" r="0.75" class="primitive"/>
  </g>
  <g transform="translate(3.75,18.61)" fill="#000000">
    <circle cx="0" cy="0" r="0.75" class="primitive"/>
  </g>
</g>
<g stroke-opacity="1" fill-opacity="1" font-size="1.41" stroke-width="0.1" id="img-29b4c979-3">
  <g transform="translate(23.26,2.82)" stroke="#000000">
    <g class="primitive">
      <text dy="0.35em">N7</text>
    </g>
  </g>
  <g transform="translate(37.48,6.58)" stroke="#000000">
    <g class="primitive">
      <text dy="0.35em">N2</text>
    </g>
  </g>
  <g transform="translate(44.4,10.33)" stroke="#000000">
    <g class="primitive">
      <text dy="0.35em">N15</text>
    </g>
  </g>
  <g transform="translate(26.64,8.45)" stroke="#000000">
    <g class="primitive">
      <text dy="0.35em">N24</text>
    </g>
  </g>
  <g transform="translate(20.84,5.64)" stroke="#000000">
    <g class="primitive">
      <text dy="0.35em">N28</text>
    </g>
  </g>
  <g transform="translate(26.12,14.09)" stroke="#000000">
    <g class="primitive">
      <text dy="0.35em">N8</text>
    </g>
  </g>
  <g transform="translate(26.89,17.85)" stroke="#000000">
    <g class="primitive">
      <text dy="0.35em">N1</text>
    </g>
  </g>
  <g transform="translate(20.37,15.97)" stroke="#000000">
    <g class="primitive">
      <text dy="0.35em">N22</text>
    </g>
  </g>
  <g transform="translate(21.46,21.61)" stroke="#000000">
    <g class="primitive">
      <text dy="0.35em">N0</text>
    </g>
  </g>
  <g transform="translate(40.56,25.36)" stroke="#000000">
    <g class="primitive">
      <text dy="0.35em">N10</text>
    </g>
  </g>
  <g transform="translate(47.05,29.12)" stroke="#000000">
    <g class="primitive">
      <text dy="0.35em">N14</text>
    </g>
  </g>
  <g transform="translate(35.76,27.24)" stroke="#000000">
    <g class="primitive">
      <text dy="0.35em">N16</text>
    </g>
  </g>
  <g transform="translate(20.22,24.42)" stroke="#000000">
    <g class="primitive">
      <text dy="0.35em">N17</text>
    </g>
  </g>
  <g transform="translate(11.77,20.2)" stroke="#000000">
    <g class="primitive">
      <text dy="0.35em">N25</text>
    </g>
  </g>
  <g transform="translate(22.4,32.88)" stroke="#000000">
    <g class="primitive">
      <text dy="0.35em">N9</text>
    </g>
  </g>
  <g transform="translate(30.56,36.64)" stroke="#000000">
    <g class="primitive">
      <text dy="0.35em">N11</text>
    </g>
  </g>
  <g transform="translate(60.87,40.39)" stroke="#000000">
    <g class="primitive">
      <text dy="0.35em">N12</text>
    </g>
  </g>
  <g transform="translate(22.06,38.52)" stroke="#000000">
    <g class="primitive">
      <text dy="0.35em">N18</text>
    </g>
  </g>
  <g transform="translate(15.73,35.7)" stroke="#000000">
    <g class="primitive">
      <text dy="0.35em">N23</text>
    </g>
  </g>
  <g transform="translate(80.62,44.15)" stroke="#000000">
    <g class="primitive">
      <text dy="0.35em">N4</text>
    </g>
  </g>
  <g transform="translate(65.63,47.91)" stroke="#000000">
    <g class="primitive">
      <text dy="0.35em">N13</text>
    </g>
  </g>
  <g transform="translate(52.17,46.03)" stroke="#000000">
    <g class="primitive">
      <text dy="0.35em">N21</text>
    </g>
  </g>
  <g transform="translate(55.73,51.67)" stroke="#000000">
    <g class="primitive">
      <text dy="0.35em">N6</text>
    </g>
  </g>
  <g transform="translate(79.07,55.42)" stroke="#000000">
    <g class="primitive">
      <text dy="0.35em">N3</text>
    </g>
  </g>
  <g transform="translate(63.23,59.18)" stroke="#000000">
    <g class="primitive">
      <text dy="0.35em">N5</text>
    </g>
  </g>
  <g transform="translate(56.18,57.3)" stroke="#000000">
    <g class="primitive">
      <text dy="0.35em">N19</text>
    </g>
  </g>
  <g transform="translate(50.09,54.48)" stroke="#000000">
    <g class="primitive">
      <text dy="0.35em">N20</text>
    </g>
  </g>
  <g transform="translate(38.65,50.26)" stroke="#000000">
    <g class="primitive">
      <text dy="0.35em">N26</text>
    </g>
  </g>
  <g transform="translate(11.43,42.98)" stroke="#000000">
    <g class="primitive">
      <text dy="0.35em">N27</text>
    </g>
  </g>
  <g transform="translate(5.63,31.59)" stroke="#000000">
    <g class="primitive">
      <text dy="0.35em"></text>
    </g>
  </g>
  <g transform="translate(5.63,18.61)" stroke="#000000">
    <g class="primitive">
      <text dy="0.35em"></text>
    </g>
  </g>
</g>
</svg>
