<?xml version="1.0" encoding="UTF-8"?>
<svg xmlns="http://www.w3.org/2000/svg"
     xmlns:xlink="http://www.w3.org/1999/xlink"
     version="1.2"
     width="150mm" height="68mm" viewBox="0 0 150 68"
     stroke="none"
     fill="#000000"
     stroke-width="0.3"
     font-size="3.88"
>
<defs>
  <marker id="arrow" markerWidth="15" markerHeight="7" refX="5" refY="3.5" orient="auto" markerUnits="strokeWidth">
    <path d="M0,0 L15,3.5 L0,7 z" stroke="context-stroke" fill="context-stroke"/>
  </marker>
</defs>
<g stroke-opacity="1" stroke-width="0.3" id="img-29b4c979-1">
  <g transform="translate(4.33,3.09)" stroke="#6E77E4">
    <path fill="none" d="M-0.58,0 L0.58,0 " class="primitive"/>
  </g>
  <g transform="translate(51.12,6.53)" stroke="#BE2D27">
    <path fill="none" d="M-1.39,0 L1.39,0 " class="primitive"/>
  </g>
  <g transform="translate(58.72,9.96)" stroke="#BE2D27">
    <path fill="none" d="M-8.98,0 L8.98,0 " class="primitive"/>
  </g>
  <g transform="translate(45.46,8.24)" stroke="#BE2D27">
    <path fill="none" d="M-4.28,0 L4.28,0 " class="primitive"/>
  </g>
  <g transform="translate(49.74,8.24)" stroke="#BE2D27">
    <path fill="none" d="M0,1.72 L0,-1.72 " class="primitive"/>
  </g>
  <g transform="translate(55.35,13.39)" stroke="#6E77E4">
    <path fill="none" d="M-8.68,0 L8.68,0 " class="primitive"/>
  </g>
  <g transform="translate(54.56,16.83)" stroke="#6E77E4">
    <path fill="none" d="M-7.89,0 L7.89,0 " class="primitive"/>
  </g>
  <g transform="translate(43.93,15.11)" stroke="#6E77E4">
    <path fill="none" d="M-2.75,0 L2.75,0 " class="primitive"/>
  </g>
  <g transform="translate(46.67,15.11)" stroke="#6E77E4">
    <path fill="none" d="M0,1.72 L0,-1.72 " class="primitive"/>
  </g>
  <g transform="translate(26.99,11.68)" stroke="#BE2D27">
    <path fill="none" d="M-14.19,0 L14.19,0 " class="primitive"/>
  </g>
  <g transform="translate(41.18,11.68)" stroke="#BE2D27">
    <path fill="none" d="M0,3.43 L0,-3.43 " class="primitive"/>
  </g>
  <g transform="translate(29.69,20.26)" stroke="#BE2D27">
    <path fill="none" d="M-6.9,0 L6.9,0 " class="primitive"/>
  </g>
  <g transform="translate(28.03,23.7)" stroke="#BE2D27">
    <path fill="none" d="M-5.24,0 L5.24,0 " class="primitive"/>
  </g>
  <g transform="translate(19.06,21.98)" stroke="#BE2D27">
    <path fill="none" d="M-3.73,0 L3.73,0 " class="primitive"/>
  </g>
  <g transform="translate(22.79,21.98)" stroke="#BE2D27">
    <path fill="none" d="M0,1.72 L0,-1.72 " class="primitive"/>
  </g>
  <g transform="translate(59.12,27.13)" stroke="#6E77E4">
    <path fill="none" d="M-5.14,0 L5.14,0 " class="primitive"/>
  </g>
  <g transform="translate(54.86,30.57)" stroke="#6E77E4">
    <path fill="none" d="M-0.88,0 L0.88,0 " class="primitive"/>
  </g>
  <g transform="translate(34.65,28.85)" stroke="#6E77E4">
    <path fill="none" d="M-19.33,0 L19.33,0 " class="primitive"/>
  </g>
  <g transform="translate(53.98,28.85)" stroke="#6E77E4">
    <path fill="none" d="M0,1.72 L0,-1.72 " class="primitive"/>
  </g>
  <g transform="translate(14.06,25.41)" stroke="#BE2D27">
    <path fill="none" d="M-1.26,0 L1.26,0 " class="primitive"/>
  </g>
  <g transform="translate(15.32,25.41)" stroke="#BE2D27">
    <path fill="none" d="M0,3.43 L0,-3.43 " class="primitive"/>
  </g>
  <g transform="translate(8.28,18.55)" stroke="#BE2D27">
    <path fill="none" d="M-4.53,0 L4.53,0 " class="primitive"/>
  </g>
  <g transform="translate(12.8,18.55)" stroke="#BE2D27">
    <path fill="none" d="M0,6.87 L0,-6.87 " class="primitive"/>
  </g>
  <g transform="translate(45.74,34)" stroke="#BE2D27">
    <path fill="none" d="M-4.05,0 L4.05,0 " class="primitive"/>
  </g>
  <g transform="translate(43.78,37.43)" stroke="#6E77E4">
    <path fill="none" d="M-2.09,0 L2.09,0 " class="primitive"/>
  </g>
  <g transform="translate(39.53,35.72)" stroke="#6E77E4">
    <path fill="none" d="M-2.17,0 L2.17,0 " class="primitive"/>
  </g>
  <g transform="translate(41.7,35.72)" stroke="#6E77E4">
    <path fill="none" d="M0,1.72 L0,-1.72 " class="primitive"/>
  </g>
  <g transform="translate(60.89,40.87)" stroke="#6E77E4">
    <path fill="none" d="M-17.86,0 L17.86,0 " class="primitive"/>
  </g>
  <g transform="translate(44.52,44.3)" stroke="#BE2D27">
    <path fill="none" d="M-1.5,0 L1.5,0 " class="primitive"/>
  </g>
  <g transform="translate(40.19,42.59)" stroke="#6E77E4">
    <path fill="none" d="M-2.83,0 L2.83,0 " class="primitive"/>
  </g>
  <g transform="translate(43.02,42.59)" stroke="#6E77E4">
    <path fill="none" d="M0,1.72 L0,-1.72 " class="primitive"/>
  </g>
  <g transform="translate(30.58,39.15)" stroke="#BE2D27">
    <path fill="none" d="M-6.78,0 L6.78,0 " class="primitive"/>
  </g>
  <g transform="translate(37.36,39.15)" stroke="#BE2D27">
    <path fill="none" d="M0,3.43 L0,-3.43 " class="primitive"/>
  </g>
  <g transform="translate(34.69,47.74)" stroke="#BE2D27">
    <path fill="none" d="M-0.12,0 L0.12,0 " class="primitive"/>
  </g>
  <g transform="translate(35.24,51.17)" stroke="#BE2D27">
    <path fill="none" d="M-0.67,0 L0.67,0 " class="primitive"/>
  </g>
  <g transform="translate(34.26,49.45)" stroke="#6E77E4">
    <path fill="none" d="M-0.32,0 L0.32,0 " class="primitive"/>
  </g>
  <g transform="translate(34.57,49.45)" stroke="#6E77E4">
    <path fill="none" d="M0,1.72 L0,-1.72 " class="primitive"/>
  </g>
  <g transform="translate(56.36,54.61)" stroke="#BE2D27">
    <path fill="none" d="M-14.06,0 L14.06,0 " class="primitive"/>
  </g>
  <g transform="translate(54.46,58.04)" stroke="#BE2D27">
    <path fill="none" d="M-12.16,0 L12.16,0 " class="primitive"/>
  </g>
  <g transform="translate(40.93,56.32)" stroke="#6E77E4">
    <path fill="none" d="M-1.37,0 L1.37,0 " class="primitive"/>
  </g>
  <g transform="translate(42.29,56.32)" stroke="#6E77E4">
    <path fill="none" d="M0,1.72 L0,-1.72 " class="primitive"/>
  </g>
  <g transform="translate(45.3,61.47)" stroke="#6E77E4">
    <path fill="none" d="M-0.74,0 L0.74,0 " class="primitive"/>
  </g>
  <g transform="translate(46.11,64.91)" stroke="#BE2D27">
    <path fill="none" d="M-1.56,0 L1.56,0 " class="primitive"/>
  </g>
  <g transform="translate(42.06,63.19)" stroke="#6E77E4">
    <path fill="none" d="M-2.49,0 L2.49,0 " class="primitive"/>
  </g>
  <g transform="translate(44.55,63.19)" stroke="#6E77E4">
    <path fill="none" d="M0,1.72 L0,-1.72 " class="primitive"/>
  </g>
  <g transform="translate(36.75,59.76)" stroke="#BE2D27">
    <path fill="none" d="M-2.81,0 L2.81,0 " class="primitive"/>
  </g>
  <g transform="translate(39.56,59.76)" stroke="#BE2D27">
    <path fill="none" d="M0,3.43 L0,-3.43 " class="primitive"/>
  </g>
  <g transform="translate(28.87,54.61)" stroke="#6E77E4">
    <path fill="none" d="M-5.07,0 L5.07,0 " class="primitive"/>
  </g>
  <g transform="translate(33.94,54.61)" stroke="#6E77E4">
    <path fill="none" d="M0,5.15 L0,-5.15 " class="primitive"/>
  </g>
  <g transform="translate(13.78,46.88)" stroke="#BE2D27">
    <path fill="none" d="M-10.03,0 L10.03,0 " class="primitive"/>
  </g>
  <g transform="translate(23.81,46.88)" stroke="#BE2D27">
    <path fill="none" d="M0,7.73 L0,-7.73 " class="primitive"/>
  </g>
  <g stroke-opacity="1" stroke-width="0.3" id="img-29b4c979-2">
    <g transform="translate(23.81,46.88)" stroke="#BE2D27">
      <path fill="none" d="M0,7.73 L0,-7.73 " class="primitive"/>
    </g>
    <g transform="translate(3.75,32.71)" stroke="#000000">
      <path fill="none" d="M0,0 L0,0 " class="primitive"/>
    </g>
    <g transform="translate(3.75,32.71)" stroke="#000000">
      <path fill="none" d="M0,14.17 L0,-14.17 " class="primitive"/>
    </g>
    <g transform="translate(3.75,17.9)" stroke="#000000">
      <path fill="none" d="M0,0 L0,0 " class="primitive"/>
    </g>
    <g transform="translate(3.75,17.9)" stroke="#000000">
      <path fill="none" d="M0,14.81 L0,-14.81 " class="primitive"/>
    </g>
  </g>
</g>
<g fill-opacity="1" id="img-29b4c979-3">
  <g transform="translate(4.91,3.09)" fill="#6E77E4">
    <circle cx="0" cy="0" r="0.75" class="primitive"/>
  </g>
  <g transform="translate(52.51,6.53)" fill="#BE2D27">
    <circle cx="0" cy="0" r="0.75" class="primitive"/>
  </g>
  <g transform="translate(67.7,9.96)" fill="#BE2D27">
    <circle cx="0" cy="0" r="0.75" class="primitive"/>
  </g>
  <g transform="translate(49.74,8.24)" fill="#BE2D27">
    <circle cx="0" cy="0" r="0.75" class="primitive"/>
  </g>
  <g transform="translate(64.03,13.39)" fill="#6E77E4">
    <circle cx="0" cy="0" r="0.75" class="primitive"/>
  </g>
  <g transform="translate(62.45,16.83)" fill="#6E77E4">
    <circle cx="0" cy="0" r="0.75" class="primitive"/>
  </g>
  <g transform="translate(46.67,15.11)" fill="#6E77E4">
    <circle cx="0" cy="0" r="0.75" class="primitive"/>
  </g>
  <g transform="translate(41.18,11.68)" fill="#BE2D27">
    <circle cx="0" cy="0" r="0.75" class="primitive"/>
  </g>
  <g transform="translate(36.59,20.26)" fill="#BE2D27">
    <circle cx="0" cy="0" r="0.75" class="primitive"/>
  </g>
  <g transform="translate(33.26,23.7)" fill="#BE2D27">
    <circle cx="0" cy="0" r="0.75" class="primitive"/>
  </g>
  <g transform="translate(22.79,21.98)" fill="#BE2D27">
    <circle cx="0" cy="0" r="0.75" class="primitive"/>
  </g>
  <g transform="translate(64.26,27.13)" fill="#6E77E4">
    <circle cx="0" cy="0" r="0.75" class="primitive"/>
  </g>
  <g transform="translate(55.74,30.57)" fill="#6E77E4">
    <circle cx="0" cy="0" r="0.75" class="primitive"/>
  </g>
  <g transform="translate(53.98,28.85)" fill="#6E77E4">
    <circle cx="0" cy="0" r="0.75" class="primitive"/>
  </g>
  <g transform="translate(15.32,25.41)" fill="#BE2D27">
    <circle cx="0" cy="0" r="0.75" class="primitive"/>
  </g>
  <g transform="translate(12.8,18.55)" fill="#BE2D27">
    <circle cx="0" cy="0" r="0.75" class="primitive"/>
  </g>
  <g transform="translate(49.79,34)" fill="#BE2D27">
    <circle cx="0" cy="0" r="0.75" class="primitive"/>
  </g>
  <g transform="translate(45.87,37.43)" fill="#6E77E4">
    <circle cx="0" cy="0" r="0.75" class="primitive"/>
  </g>
  <g transform="translate(41.7,35.72)" fill="#6E77E4">
    <circle cx="0" cy="0" r="0.75" class="primitive"/>
  </g>
  <g transform="translate(78.75,40.87)" fill="#6E77E4">
    <circle cx="0" cy="0" r="0.75" class="primitive"/>
  </g>
  <g transform="translate(46.01,44.3)" fill="#BE2D27">
    <circle cx="0" cy="0" r="0.75" class="primitive"/>
  </g>
  <g transform="translate(43.02,42.59)" fill="#6E77E4">
    <circle cx="0" cy="0" r="0.75" class="primitive"/>
  </g>
  <g transform="translate(37.36,39.15)" fill="#BE2D27">
    <circle cx="0" cy="0" r="0.75" class="primitive"/>
  </g>
  <g transform="translate(34.8,47.74)" fill="#BE2D27">
    <circle cx="0" cy="0" r="0.75" class="primitive"/>
  </g>
  <g transform="translate(35.91,51.17)" fill="#BE2D27">
    <circle cx="0" cy="0" r="0.75" class="primitive"/>
  </g>
  <g transform="translate(34.57,49.45)" fill="#6E77E4">
    <circle cx="0" cy="0" r="0.75" class="primitive"/>
  </g>
  <g transform="translate(70.42,54.61)" fill="#BE2D27">
    <circle cx="0" cy="0" r="0.75" class="primitive"/>
  </g>
  <g transform="translate(66.62,58.04)" fill="#BE2D27">
    <circle cx="0" cy="0" r="0.75" class="primitive"/>
  </g>
  <g transform="translate(42.29,56.32)" fill="#6E77E4">
    <circle cx="0" cy="0" r="0.75" class="primitive"/>
  </g>
  <g transform="translate(46.04,61.47)" fill="#6E77E4">
    <circle cx="0" cy="0" r="0.75" class="primitive"/>
  </g>
  <g transform="translate(47.68,64.91)" fill="#BE2D27">
    <circle cx="0" cy="0" r="0.75" class="primitive"/>
  </g>
  <g transform="translate(44.55,63.19)" fill="#6E77E4">
    <circle cx="0" cy="0" r="0.75" class="primitive"/>
  </g>
  <g transform="translate(39.56,59.76)" fill="#BE2D27">
    <circle cx="0" cy="0" r="0.75" class="primitive"/>
  </g>
  <g transform="translate(33.94,54.61)" fill="#6E77E4">
    <circle cx="0" cy="0" r="0.75" class="primitive"/>
  </g>
  <g transform="translate(23.81,46.88)" fill="#BE2D27">
    <circle cx="0" cy="0" r="0.75" class="primitive"/>
  </g>
  <g transform="translate(3.75,32.71)" fill="#000000">
    <circle cx="0" cy="0" r="0.75" class="primitive"/>
  </g>
  <g transform="translate(3.75,17.9)" fill="#000000">
    <circle cx="0" cy="0" r="0.75" class="primitive"/>
  </g>
</g>
<g stroke-opacity="1" fill-opacity="1" font-size="1.41" stroke-width="0.1" id="img-29b4c979-4">
  <g transform="translate(6.78,3.09)" stroke="#000000">
    <g class="primitive">
      <text dy="0.35em">N18</text>
    </g>
  </g>
  <g transform="translate(54.38,6.53)" stroke="#000000">
    <g class="primitive">
      <text dy="0.35em">N4</text>
    </g>
  </g>
  <g transform="translate(69.57,9.96)" stroke="#000000">
    <g class="primitive">
      <text dy="0.35em">N5</text>
    </g>
  </g>
  <g transform="translate(51.61,8.24)" stroke="#000000">
    <g class="primitive">
      <text dy="0.35em">N21</text>
    </g>
  </g>
  <g transform="translate(65.9,13.39)" stroke="#000000">
    <g class="primitive">
      <text dy="0.35em">N6</text>
    </g>
  </g>
  <g transform="translate(64.33,16.83)" stroke="#000000">
    <g class="primitive">
      <text dy="0.35em">N7</text>
    </g>
  </g>
  <g transform="translate(48.55,15.11)" stroke="#000000">
    <g class="primitive">
      <text dy="0.35em">N22</text>
    </g>
  </g>
  <g transform="translate(43.05,11.68)" stroke="#000000">
    <g class="primitive">
      <text dy="0.35em">N29</text>
    </g>
  </g>
  <g transform="translate(38.46,20.26)" stroke="#000000">
    <g class="primitive">
      <text dy="0.35em">N8</text>
    </g>
  </g>
  <g transform="translate(35.14,23.7)" stroke="#000000">
    <g class="primitive">
      <text dy="0.35em">N9</text>
    </g>
  </g>
  <g transform="translate(24.67,21.98)" stroke="#000000">
    <g class="primitive">
      <text dy="0.35em">N23</text>
    </g>
  </g>
  <g transform="translate(66.14,27.13)" stroke="#000000">
    <g class="primitive">
      <text dy="0.35em">N10</text>
    </g>
  </g>
  <g transform="translate(57.61,30.57)" stroke="#000000">
    <g class="primitive">
      <text dy="0.35em">N11</text>
    </g>
  </g>
  <g transform="translate(55.85,28.85)" stroke="#000000">
    <g class="primitive">
      <text dy="0.35em">N24</text>
    </g>
  </g>
  <g transform="translate(17.2,25.41)" stroke="#000000">
    <g class="primitive">
      <text dy="0.35em">N30</text>
    </g>
  </g>
  <g transform="translate(14.68,18.55)" stroke="#000000">
    <g class="primitive">
      <text dy="0.35em">N33</text>
    </g>
  </g>
  <g transform="translate(51.66,34)" stroke="#000000">
    <g class="primitive">
      <text dy="0.35em">N12</text>
    </g>
  </g>
  <g transform="translate(47.75,37.43)" stroke="#000000">
    <g class="primitive">
      <text dy="0.35em">N13</text>
    </g>
  </g>
  <g transform="translate(43.57,35.72)" stroke="#000000">
    <g class="primitive">
      <text dy="0.35em">N25</text>
    </g>
  </g>
  <g transform="translate(80.62,40.87)" stroke="#000000">
    <g class="primitive">
      <text dy="0.35em">N14</text>
    </g>
  </g>
  <g transform="translate(47.89,44.3)" stroke="#000000">
    <g class="primitive">
      <text dy="0.35em">N15</text>
    </g>
  </g>
  <g transform="translate(44.9,42.59)" stroke="#000000">
    <g class="primitive">
      <text dy="0.35em">N26</text>
    </g>
  </g>
  <g transform="translate(39.23,39.15)" stroke="#000000">
    <g class="primitive">
      <text dy="0.35em">N31</text>
    </g>
  </g>
  <g transform="translate(36.68,47.74)" stroke="#000000">
    <g class="primitive">
      <text dy="0.35em">N16</text>
    </g>
  </g>
  <g transform="translate(37.78,51.17)" stroke="#000000">
    <g class="primitive">
      <text dy="0.35em">N17</text>
    </g>
  </g>
  <g transform="translate(36.45,49.45)" stroke="#000000">
    <g class="primitive">
      <text dy="0.35em">N27</text>
    </g>
  </g>
  <g transform="translate(72.3,54.61)" stroke="#000000">
    <g class="primitive">
      <text dy="0.35em">N0</text>
    </g>
  </g>
  <g transform="translate(68.49,58.04)" stroke="#000000">
    <g class="primitive">
      <text dy="0.35em">N1</text>
    </g>
  </g>
  <g transform="translate(44.17,56.32)" stroke="#000000">
    <g class="primitive">
      <text dy="0.35em">N19</text>
    </g>
  </g>
  <g transform="translate(47.91,61.47)" stroke="#000000">
    <g class="primitive">
      <text dy="0.35em">N2</text>
    </g>
  </g>
  <g transform="translate(49.55,64.91)" stroke="#000000">
    <g class="primitive">
      <text dy="0.35em">N3</text>
    </g>
  </g>
  <g transform="translate(46.43,63.19)" stroke="#000000">
    <g class="primitive">
      <text dy="0.35em">N20</text>
    </g>
  </g>
  <g transform="translate(41.44,59.76)" stroke="#000000">
    <g class="primitive">
      <text dy="0.35em">N28</text>
    </g>
  </g>
  <g transform="translate(35.81,54.61)" stroke="#000000">
    <g class="primitive">
      <text dy="0.35em">N32</text>
    </g>
  </g>
  <g transform="translate(25.68,46.88)" stroke="#000000">
    <g class="primitive">
      <text dy="0.35em">N34</text>
    </g>
  </g>
  <g transform="translate(5.63,32.71)" stroke="#000000">
    <g class="primitive">
      <text dy="0.35em"></text>
    </g>
  </g>
  <g transform="translate(5.63,17.9)" stroke="#000000">
    <g class="primitive">
      <text dy="0.35em"></text>
    </g>
  </g>
</g>
</svg>
