<?xml version="1.0" encoding="UTF-8"?>
<svg xmlns="http://www.w3.org/2000/svg"
     xmlns:xlink="http://www.w3.org/1999/xlink"
     version="1.2"
     width="300mm" height="114mm" viewBox="0 0 300 114"
     stroke="none"
     fill="#000000"
     stroke-width="0.3"
     font-size="3.88"
>
<defs>
  <marker id="arrow" markerWidth="15" markerHeight="7" refX="5" refY="3.5" orient="auto" markerUnits="strokeWidth">
    <path d="M0,0 L15,3.5 L0,7 z" stroke="context-stroke" fill="context-stroke"/>
  </marker>
</defs>
<g stroke-opacity="1" stroke-width="0.3" id="img-ba1e65df-1">
  <g transform="translate(51.56,5.18)" stroke="#5443A0">
    <path fill="none" d="M-18.09,0 L18.09,0 " class="primitive"/>
  </g>
  <g transform="translate(82.29,7.71)" stroke="#5443A0">
    <path fill="none" d="M-23.48,0 L23.48,0 " class="primitive"/>
  </g>
  <g transform="translate(87.51,10.24)" stroke="#5443A0">
    <path fill="none" d="M-28.7,0 L28.7,0 " class="primitive"/>
  </g>
  <g transform="translate(53.84,8.97)" stroke="#5443A0">
    <path fill="none" d="M-4.97,0 L4.97,0 " class="primitive"/>
  </g>
  <g transform="translate(58.81,8.97)" stroke="#5443A0">
    <path fill="none" d="M0,1.26 L0,-1.26 " class="primitive"/>
  </g>
  <g transform="translate(66.95,12.76)" stroke="#5443A0">
    <path fill="none" d="M-18.07,0 L18.07,0 " class="primitive"/>
  </g>
  <g transform="translate(56.59,15.29)" stroke="#5443A0">
    <path fill="none" d="M-2.57,0 L2.57,0 " class="primitive"/>
  </g>
  <g transform="translate(87.43,17.82)" stroke="#5443A0">
    <path fill="none" d="M-23.35,0 L23.35,0 " class="primitive"/>
  </g>
  <g transform="translate(77.09,20.35)" stroke="#5443A0">
    <path fill="none" d="M-13.01,0 L13.01,0 " class="primitive"/>
  </g>
  <g transform="translate(61.63,19.08)" stroke="#5443A0">
    <path fill="none" d="M-2.45,0 L2.45,0 " class="primitive"/>
  </g>
  <g transform="translate(64.08,19.08)" stroke="#5443A0">
    <path fill="none" d="M0,1.26 L0,-1.26 " class="primitive"/>
  </g>
  <g transform="translate(90.09,22.88)" stroke="#5443A0">
    <path fill="none" d="M-20.61,0 L20.61,0 " class="primitive"/>
  </g>
  <g transform="translate(77.19,25.4)" stroke="#5443A0">
    <path fill="none" d="M-7.72,0 L7.72,0 " class="primitive"/>
  </g>
  <g transform="translate(72.04,27.93)" stroke="#5443A0">
    <path fill="none" d="M-2.57,0 L2.57,0 " class="primitive"/>
  </g>
  <g transform="translate(69.47,26.67)" stroke="#5443A0">
    <path fill="none" d="M0,0 L0,0 " class="primitive"/>
  </g>
  <g transform="translate(69.47,26.67)" stroke="#5443A0">
    <path fill="none" d="M0,1.26 L0,-1.26 " class="primitive"/>
  </g>
  <g transform="translate(66.9,24.77)" stroke="#5443A0">
    <path fill="none" d="M-2.57,0 L2.57,0 " class="primitive"/>
  </g>
  <g transform="translate(69.47,24.77)" stroke="#5443A0">
    <path fill="none" d="M0,1.9 L0,-1.9 " class="primitive"/>
  </g>
  <g transform="translate(72.06,30.46)" stroke="#5443A0">
    <path fill="none" d="M-7.72,0 L7.72,0 " class="primitive"/>
  </g>
  <g transform="translate(84.93,32.99)" stroke="#5443A0">
    <path fill="none" d="M0,0 L0,0 " class="primitive"/>
  </g>
  <g transform="translate(84.93,35.51)" stroke="#5443A0">
    <path fill="none" d="M0,0 L0,0 " class="primitive"/>
  </g>
  <g transform="translate(77.2,34.25)" stroke="#5443A0">
    <path fill="none" d="M-7.73,0 L7.73,0 " class="primitive"/>
  </g>
  <g transform="translate(84.93,34.25)" stroke="#5443A0">
    <path fill="none" d="M0,1.26 L0,-1.26 " class="primitive"/>
  </g>
  <g transform="translate(84.9,38.04)" stroke="#5443A0">
    <path fill="none" d="M-10.31,0 L10.31,0 " class="primitive"/>
  </g>
  <g transform="translate(87.5,40.57)" stroke="#5443A0">
    <path fill="none" d="M-12.91,0 L12.91,0 " class="primitive"/>
  </g>
  <g transform="translate(72.03,39.31)" stroke="#5443A0">
    <path fill="none" d="M-2.56,0 L2.56,0 " class="primitive"/>
  </g>
  <g transform="translate(74.59,39.31)" stroke="#5443A0">
    <path fill="none" d="M0,1.26 L0,-1.26 " class="primitive"/>
  </g>
  <g transform="translate(66.9,36.78)" stroke="#5443A0">
    <path fill="none" d="M-2.57,0 L2.57,0 " class="primitive"/>
  </g>
  <g transform="translate(69.47,36.78)" stroke="#5443A0">
    <path fill="none" d="M0,2.53 L0,-2.53 " class="primitive"/>
  </g>
  <g transform="translate(64.33,33.62)" stroke="#5443A0">
    <path fill="none" d="M0,0 L0,0 " class="primitive"/>
  </g>
  <g transform="translate(64.33,33.62)" stroke="#5443A0">
    <path fill="none" d="M0,3.16 L0,-3.16 " class="primitive"/>
  </g>
  <g transform="translate(61.76,29.2)" stroke="#5443A0">
    <path fill="none" d="M-2.57,0 L2.57,0 " class="primitive"/>
  </g>
  <g transform="translate(64.33,29.2)" stroke="#5443A0">
    <path fill="none" d="M0,4.42 L0,-4.42 " class="primitive"/>
  </g>
  <g transform="translate(56.6,24.14)" stroke="#5443A0">
    <path fill="none" d="M-2.58,0 L2.58,0 " class="primitive"/>
  </g>
  <g transform="translate(59.19,24.14)" stroke="#5443A0">
    <path fill="none" d="M0,5.06 L0,-5.06 " class="primitive"/>
  </g>
  <g transform="translate(51.45,19.72)" stroke="#5443A0">
    <path fill="none" d="M-2.57,0 L2.57,0 " class="primitive"/>
  </g>
  <g transform="translate(54.02,19.72)" stroke="#5443A0">
    <path fill="none" d="M0,4.42 L0,-4.42 " class="primitive"/>
  </g>
  <g transform="translate(48.88,16.24)" stroke="#5443A0">
    <path fill="none" d="M0,0 L0,0 " class="primitive"/>
  </g>
  <g transform="translate(48.88,16.24)" stroke="#5443A0">
    <path fill="none" d="M0,3.48 L0,-3.48 " class="primitive"/>
  </g>
  <g transform="translate(103.16,43.1)" stroke="#5443A0">
    <path fill="none" d="M-12.92,0 L12.92,0 " class="primitive"/>
  </g>
  <g transform="translate(100.56,45.63)" stroke="#5443A0">
    <path fill="none" d="M-10.32,0 L10.32,0 " class="primitive"/>
  </g>
  <g transform="translate(90.24,48.15)" stroke="#5443A0">
    <path fill="none" d="M0,0 L0,0 " class="primitive"/>
  </g>
  <g transform="translate(90.24,46.89)" stroke="#5443A0">
    <path fill="none" d="M0,0 L0,0 " class="primitive"/>
  </g>
  <g transform="translate(90.24,46.89)" stroke="#5443A0">
    <path fill="none" d="M0,1.26 L0,-1.26 " class="primitive"/>
  </g>
  <g transform="translate(72.11,44.99)" stroke="#5443A0">
    <path fill="none" d="M-18.13,0 L18.13,0 " class="primitive"/>
  </g>
  <g transform="translate(90.24,44.99)" stroke="#5443A0">
    <path fill="none" d="M0,1.9 L0,-1.9 " class="primitive"/>
  </g>
  <g transform="translate(66.89,50.68)" stroke="#5443A0">
    <path fill="none" d="M-2.57,0 L2.57,0 " class="primitive"/>
  </g>
  <g transform="translate(69.47,53.21)" stroke="#5443A0">
    <path fill="none" d="M-5.14,0 L5.14,0 " class="primitive"/>
  </g>
  <g transform="translate(82.38,55.74)" stroke="#5443A0">
    <path fill="none" d="M-2.58,0 L2.58,0 " class="primitive"/>
  </g>
  <g transform="translate(82.36,58.26)" stroke="#5443A0">
    <path fill="none" d="M-2.56,0 L2.56,0 " class="primitive"/>
  </g>
  <g transform="translate(72.06,57)" stroke="#5443A0">
    <path fill="none" d="M-7.74,0 L7.74,0 " class="primitive"/>
  </g>
  <g stroke-opacity="1" stroke-width="0.3" id="img-ba1e65df-2">
    <g transform="translate(103.02,101.08)" stroke="#5443A0">
      <path fill="none" d="M-12.91,0 L12.91,0 " class="primitive"/>
    </g>
    <g transform="translate(115.93,101.08)" stroke="#5443A0">
      <path fill="none" d="M0,2.37 L0,-2.37 " class="primitive"/>
    </g>
    <g transform="translate(90.11,98)" stroke="#5443A0">
      <path fill="none" d="M0,0 L0,0 " class="primitive"/>
    </g>
    <g transform="translate(90.11,98)" stroke="#5443A0">
      <path fill="none" d="M0,3.08 L0,-3.08 " class="primitive"/>
    </g>
    <g transform="translate(90.11,92.98)" stroke="#5443A0">
      <path fill="none" d="M0,0 L0,0 " class="primitive"/>
    </g>
    <g transform="translate(90.11,92.98)" stroke="#5443A0">
      <path fill="none" d="M0,5.02 L0,-5.02 " class="primitive"/>
    </g>
    <g transform="translate(87.51,87.63)" stroke="#5443A0">
      <path fill="none" d="M-2.6,0 L2.6,0 " class="primitive"/>
    </g>
    <g transform="translate(90.11,87.63)" stroke="#5443A0">
      <path fill="none" d="M0,5.35 L0,-5.35 " class="primitive"/>
    </g>
    <g transform="translate(84.91,83.06)" stroke="#5443A0">
      <path fill="none" d="M0,0 L0,0 " class="primitive"/>
    </g>
    <g transform="translate(84.91,83.06)" stroke="#5443A0">
      <path fill="none" d="M0,4.57 L0,-4.57 " class="primitive"/>
    </g>
    <g transform="translate(79.73,74.41)" stroke="#5443A0">
      <path fill="none" d="M-5.17,0 L5.17,0 " class="primitive"/>
    </g>
    <g transform="translate(84.91,74.41)" stroke="#5443A0">
      <path fill="none" d="M0,8.64 L0,-8.64 " class="primitive"/>
    </g>
    <g transform="translate(69.44,67.6)" stroke="#5443A0">
      <path fill="none" d="M-5.12,0 L5.12,0 " class="primitive"/>
    </g>
    <g transform="translate(74.56,67.6)" stroke="#5443A0">
      <path fill="none" d="M0,6.81 L0,-6.81 " class="primitive"/>
    </g>
    <g transform="translate(59.15,60.25)" stroke="#5443A0">
      <path fill="none" d="M-5.17,0 L5.17,0 " class="primitive"/>
    </g>
    <g transform="translate(64.32,60.25)" stroke="#5443A0">
      <path fill="none" d="M0,7.35 L0,-7.35 " class="primitive"/>
    </g>
    <g transform="translate(51.43,52.62)" stroke="#5443A0">
      <path fill="none" d="M-2.55,0 L2.55,0 " class="primitive"/>
    </g>
    <g transform="translate(53.98,52.62)" stroke="#5443A0">
      <path fill="none" d="M0,7.63 L0,-7.63 " class="primitive"/>
    </g>
    <g transform="translate(48.88,34.43)" stroke="#5443A0">
      <path fill="none" d="M0,0 L0,0 " class="primitive"/>
    </g>
    <g transform="translate(48.88,34.43)" stroke="#5443A0">
      <path fill="none" d="M0,18.19 L0,-18.19 " class="primitive"/>
    </g>
    <g transform="translate(41.18,21.7)" stroke="#5443A0">
      <path fill="none" d="M-7.7,0 L7.7,0 " class="primitive"/>
    </g>
    <g transform="translate(48.88,21.7)" stroke="#5443A0">
      <path fill="none" d="M0,12.73 L0,-12.73 " class="primitive"/>
    </g>
    <g transform="translate(20.49,13.44)" stroke="#000000">
      <path fill="none" d="M-12.99,0 L12.99,0 " class="primitive"/>
    </g>
    <g transform="translate(33.47,13.44)" stroke="#000000">
      <path fill="none" d="M0,8.26 L0,-8.26 " class="primitive"/>
    </g>
  </g>
  <g stroke-opacity="1" stroke-width="0.3" id="img-ba1e65df-3">
    <g transform="translate(72.06,57)" stroke="#5443A0">
      <path fill="none" d="M-7.74,0 L7.74,0 " class="primitive"/>
    </g>
    <g transform="translate(79.8,57)" stroke="#5443A0">
      <path fill="none" d="M0,1.26 L0,-1.26 " class="primitive"/>
    </g>
    <g transform="translate(64.32,55.1)" stroke="#5443A0">
      <path fill="none" d="M0,0 L0,0 " class="primitive"/>
    </g>
    <g transform="translate(64.32,55.1)" stroke="#5443A0">
      <path fill="none" d="M0,1.9 L0,-1.9 " class="primitive"/>
    </g>
    <g transform="translate(64.32,52.89)" stroke="#5443A0">
      <path fill="none" d="M0,0 L0,0 " class="primitive"/>
    </g>
    <g transform="translate(64.32,52.89)" stroke="#5443A0">
      <path fill="none" d="M0,2.21 L0,-2.21 " class="primitive"/>
    </g>
    <g transform="translate(92.71,60.79)" stroke="#5443A0">
      <path fill="none" d="M-18.15,0 L18.15,0 " class="primitive"/>
    </g>
    <g transform="translate(110.67,63.32)" stroke="#5443A0">
      <path fill="none" d="M-15.5,0 L15.5,0 " class="primitive"/>
    </g>
    <g transform="translate(134.3,65.85)" stroke="#5443A0">
      <path fill="none" d="M-7.77,0 L7.77,0 " class="primitive"/>
    </g>
    <g transform="translate(144.58,68.37)" stroke="#5443A0">
      <path fill="none" d="M-12.92,0 L12.92,0 " class="primitive"/>
    </g>
    <g transform="translate(131.66,70.9)" stroke="#5443A0">
      <path fill="none" d="M0,0 L0,0 " class="primitive"/>
    </g>
    <g transform="translate(131.66,73.43)" stroke="#5443A0">
      <path fill="none" d="M0,0 L0,0 " class="primitive"/>
    </g>
    <g transform="translate(131.66,75.96)" stroke="#5443A0">
      <path fill="none" d="M0,0 L0,0 " class="primitive"/>
    </g>
    <g transform="translate(131.66,74.69)" stroke="#5443A0">
      <path fill="none" d="M0,0 L0,0 " class="primitive"/>
    </g>
    <g transform="translate(131.66,74.69)" stroke="#5443A0">
      <path fill="none" d="M0,1.26 L0,-1.26 " class="primitive"/>
    </g>
    <g transform="translate(131.66,72.8)" stroke="#5443A0">
      <path fill="none" d="M0,0 L0,0 " class="primitive"/>
    </g>
    <g transform="translate(131.66,72.8)" stroke="#5443A0">
      <path fill="none" d="M0,1.9 L0,-1.9 " class="primitive"/>
    </g>
    <g transform="translate(129.09,70.59)" stroke="#5443A0">
      <path fill="none" d="M-2.56,0 L2.56,0 " class="primitive"/>
    </g>
    <g transform="translate(131.66,70.59)" stroke="#5443A0">
      <path fill="none" d="M0,2.21 L0,-2.21 " class="primitive"/>
    </g>
    <g transform="translate(110.85,68.22)" stroke="#5443A0">
      <path fill="none" d="M-15.68,0 L15.68,0 " class="primitive"/>
    </g>
    <g transform="translate(126.53,68.22)" stroke="#5443A0">
      <path fill="none" d="M0,2.37 L0,-2.37 " class="primitive"/>
    </g>
    <g transform="translate(90.04,65.77)" stroke="#5443A0">
      <path fill="none" d="M-5.13,0 L5.13,0 " class="primitive"/>
    </g>
    <g transform="translate(95.17,65.77)" stroke="#5443A0">
      <path fill="none" d="M0,2.45 L0,-2.45 " class="primitive"/>
    </g>
    <g transform="translate(115.98,78.49)" stroke="#5443A0">
      <path fill="none" d="M-31.08,0 L31.08,0 " class="primitive"/>
    </g>
    <g transform="translate(108.15,81.01)" stroke="#5443A0">
      <path fill="none" d="M-2.57,0 L2.57,0 " class="primitive"/>
    </g>
    <g transform="translate(105.58,83.54)" stroke="#5443A0">
      <path fill="none" d="M0,0 L0,0 " class="primitive"/>
    </g>
    <g transform="translate(97.84,82.28)" stroke="#5443A0">
      <path fill="none" d="M-7.74,0 L7.74,0 " class="primitive"/>
    </g>
    <g transform="translate(105.58,82.28)" stroke="#5443A0">
      <path fill="none" d="M0,1.26 L0,-1.26 " class="primitive"/>
    </g>
    <g transform="translate(113.3,86.07)" stroke="#5443A0">
      <path fill="none" d="M-12.89,0 L12.89,0 " class="primitive"/>
    </g>
    <g transform="translate(100.41,88.6)" stroke="#5443A0">
      <path fill="none" d="M0,0 L0,0 " class="primitive"/>
    </g>
    <g transform="translate(102.99,91.12)" stroke="#5443A0">
      <path fill="none" d="M-2.57,0 L2.57,0 " class="primitive"/>
    </g>
    <g transform="translate(100.41,89.86)" stroke="#5443A0">
      <path fill="none" d="M0,0 L0,0 " class="primitive"/>
    </g>
    <g transform="translate(100.41,89.86)" stroke="#5443A0">
      <path fill="none" d="M0,1.26 L0,-1.26 " class="primitive"/>
    </g>
    <g transform="translate(95.26,87.96)" stroke="#5443A0">
      <path fill="none" d="M-5.15,0 L5.15,0 " class="primitive"/>
    </g>
    <g transform="translate(100.41,87.96)" stroke="#5443A0">
      <path fill="none" d="M0,1.9 L0,-1.9 " class="primitive"/>
    </g>
    <g transform="translate(102.99,93.65)" stroke="#5443A0">
      <path fill="none" d="M-2.57,0 L2.57,0 " class="primitive"/>
    </g>
    <g transform="translate(100.41,96.18)" stroke="#5443A0">
      <path fill="none" d="M0,0 L0,0 " class="primitive"/>
    </g>
    <g transform="translate(95.26,94.92)" stroke="#5443A0">
      <path fill="none" d="M-5.15,0 L5.15,0 " class="primitive"/>
    </g>
    <g transform="translate(100.41,94.92)" stroke="#5443A0">
      <path fill="none" d="M0,1.26 L0,-1.26 " class="primitive"/>
    </g>
    <g transform="translate(126.26,98.71)" stroke="#5443A0">
      <path fill="none" d="M-10.33,0 L10.33,0 " class="primitive"/>
    </g>
    <g transform="translate(126.26,101.24)" stroke="#5443A0">
      <path fill="none" d="M-10.33,0 L10.33,0 " class="primitive"/>
    </g>
    <g transform="translate(115.93,103.76)" stroke="#5443A0">
      <path fill="none" d="M0,0 L0,0 " class="primitive"/>
    </g>
    <g transform="translate(115.93,106.29)" stroke="#5443A0">
      <path fill="none" d="M0,0 L0,0 " class="primitive"/>
    </g>
    <g transform="translate(115.93,108.82)" stroke="#5443A0">
      <path fill="none" d="M0,0 L0,0 " class="primitive"/>
    </g>
    <g transform="translate(115.93,107.55)" stroke="#5443A0">
      <path fill="none" d="M0,0 L0,0 " class="primitive"/>
    </g>
    <g transform="translate(115.93,107.55)" stroke="#5443A0">
      <path fill="none" d="M0,1.26 L0,-1.26 " class="primitive"/>
    </g>
    <g transform="translate(115.93,105.66)" stroke="#5443A0">
      <path fill="none" d="M0,0 L0,0 " class="primitive"/>
    </g>
    <g transform="translate(115.93,105.66)" stroke="#5443A0">
      <path fill="none" d="M0,1.9 L0,-1.9 " class="primitive"/>
    </g>
    <g transform="translate(115.93,103.45)" stroke="#5443A0">
      <path fill="none" d="M0,0 L0,0 " class="primitive"/>
    </g>
    <g transform="translate(115.93,103.45)" stroke="#5443A0">
      <path fill="none" d="M0,2.21 L0,-2.21 " class="primitive"/>
    </g>
    <g transform="translate(103.02,101.08)" stroke="#5443A0">
      <path fill="none" d="M-12.91,0 L12.91,0 " class="primitive"/>
    </g>
  </g>
</g>
<g fill-opacity="1" id="img-ba1e65df-4">
  <g transform="translate(69.65,5.18)" fill="#5443A0">
    <circle cx="0" cy="0" r="1.5" class="primitive"/>
  </g>
  <g transform="translate(105.76,7.71)" fill="#5443A0">
    <circle cx="0" cy="0" r="1.5" class="primitive"/>
  </g>
  <g transform="translate(116.21,10.24)" fill="#5443A0">
    <circle cx="0" cy="0" r="1.5" class="primitive"/>
  </g>
  <g transform="translate(58.81,8.97)" fill="#5443A0">
    <circle cx="0" cy="0" r="1.5" class="primitive"/>
  </g>
  <g transform="translate(85.03,12.76)" fill="#5443A0">
    <circle cx="0" cy="0" r="1.5" class="primitive"/>
  </g>
  <g transform="translate(59.17,15.29)" fill="#5443A0">
    <circle cx="0" cy="0" r="1.5" class="primitive"/>
  </g>
  <g transform="translate(110.78,17.82)" fill="#5443A0">
    <circle cx="0" cy="0" r="1.5" class="primitive"/>
  </g>
  <g transform="translate(90.11,20.35)" fill="#5443A0">
    <circle cx="0" cy="0" r="1.5" class="primitive"/>
  </g>
  <g transform="translate(64.08,19.08)" fill="#5443A0">
    <circle cx="0" cy="0" r="1.5" class="primitive"/>
  </g>
  <g transform="translate(110.7,22.88)" fill="#5443A0">
    <circle cx="0" cy="0" r="1.5" class="primitive"/>
  </g>
  <g transform="translate(84.91,25.4)" fill="#5443A0">
    <circle cx="0" cy="0" r="1.5" class="primitive"/>
  </g>
  <g transform="translate(74.61,27.93)" fill="#5443A0">
    <circle cx="0" cy="0" r="1.5" class="primitive"/>
  </g>
  <g transform="translate(69.47,26.67)" fill="#5443A0">
    <circle cx="0" cy="0" r="1.5" class="primitive"/>
  </g>
  <g transform="translate(69.47,24.77)" fill="#5443A0">
    <circle cx="0" cy="0" r="1.5" class="primitive"/>
  </g>
  <g transform="translate(79.78,30.46)" fill="#5443A0">
    <circle cx="0" cy="0" r="1.5" class="primitive"/>
  </g>
  <g transform="translate(84.93,32.99)" fill="#5443A0">
    <circle cx="0" cy="0" r="1.5" class="primitive"/>
  </g>
  <g transform="translate(84.93,35.51)" fill="#5443A0">
    <circle cx="0" cy="0" r="1.5" class="primitive"/>
  </g>
  <g transform="translate(84.93,34.25)" fill="#5443A0">
    <circle cx="0" cy="0" r="1.5" class="primitive"/>
  </g>
  <g transform="translate(95.2,38.04)" fill="#5443A0">
    <circle cx="0" cy="0" r="1.5" class="primitive"/>
  </g>
  <g transform="translate(100.4,40.57)" fill="#5443A0">
    <circle cx="0" cy="0" r="1.5" class="primitive"/>
  </g>
  <g transform="translate(74.59,39.31)" fill="#5443A0">
    <circle cx="0" cy="0" r="1.5" class="primitive"/>
  </g>
  <g transform="translate(69.47,36.78)" fill="#5443A0">
    <circle cx="0" cy="0" r="1.5" class="primitive"/>
  </g>
  <g transform="translate(64.33,33.62)" fill="#5443A0">
    <circle cx="0" cy="0" r="1.5" class="primitive"/>
  </g>
  <g transform="translate(64.33,29.2)" fill="#5443A0">
    <circle cx="0" cy="0" r="1.5" class="primitive"/>
  </g>
  <g transform="translate(59.19,24.14)" fill="#5443A0">
    <circle cx="0" cy="0" r="1.5" class="primitive"/>
  </g>
  <g transform="translate(54.02,19.72)" fill="#5443A0">
    <circle cx="0" cy="0" r="1.5" class="primitive"/>
  </g>
  <g transform="translate(48.88,16.24)" fill="#5443A0">
    <circle cx="0" cy="0" r="1.5" class="primitive"/>
  </g>
  <g transform="translate(116.08,43.1)" fill="#5443A0">
    <circle cx="0" cy="0" r="1.5" class="primitive"/>
  </g>
  <g transform="translate(110.88,45.63)" fill="#5443A0">
    <circle cx="0" cy="0" r="1.5" class="primitive"/>
  </g>
  <g transform="translate(90.24,48.15)" fill="#5443A0">
    <circle cx="0" cy="0" r="1.5" class="primitive"/>
  </g>
  <g transform="translate(90.24,46.89)" fill="#5443A0">
    <circle cx="0" cy="0" r="1.5" class="primitive"/>
  </g>
  <g transform="translate(90.24,44.99)" fill="#5443A0">
    <circle cx="0" cy="0" r="1.5" class="primitive"/>
  </g>
  <g transform="translate(69.46,50.68)" fill="#5443A0">
    <circle cx="0" cy="0" r="1.5" class="primitive"/>
  </g>
  <g transform="translate(74.61,53.21)" fill="#5443A0">
    <circle cx="0" cy="0" r="1.5" class="primitive"/>
  </g>
  <g transform="translate(84.96,55.74)" fill="#5443A0">
    <circle cx="0" cy="0" r="1.5" class="primitive"/>
  </g>
  <g transform="translate(84.93,58.26)" fill="#5443A0">
    <circle cx="0" cy="0" r="1.5" class="primitive"/>
  </g>
  <g transform="translate(79.8,57)" fill="#5443A0">
    <circle cx="0" cy="0" r="1.5" class="primitive"/>
  </g>
  <g transform="translate(64.32,55.1)" fill="#5443A0">
    <circle cx="0" cy="0" r="1.5" class="primitive"/>
  </g>
  <g transform="translate(64.32,52.89)" fill="#5443A0">
    <circle cx="0" cy="0" r="1.5" class="primitive"/>
  </g>
  <g transform="translate(110.85,60.79)" fill="#5443A0">
    <circle cx="0" cy="0" r="1.5" class="primitive"/>
  </g>
  <g transform="translate(126.16,63.32)" fill="#5443A0">
    <circle cx="0" cy="0" r="1.5" class="primitive"/>
  </g>
  <g transform="translate(142.07,65.85)" fill="#5443A0">
    <circle cx="0" cy="0" r="1.5" class="primitive"/>
  </g>
  <g transform="translate(157.5,68.37)" fill="#5443A0">
    <circle cx="0" cy="0" r="1.5" class="primitive"/>
  </g>
  <g transform="translate(131.66,70.9)" fill="#5443A0">
    <circle cx="0" cy="0" r="1.5" class="primitive"/>
  </g>
  <g transform="translate(131.66,73.43)" fill="#5443A0">
    <circle cx="0" cy="0" r="1.5" class="primitive"/>
  </g>
  <g transform="translate(131.66,75.96)" fill="#5443A0">
    <circle cx="0" cy="0" r="1.5" class="primitive"/>
  </g>
  <g transform="translate(131.66,74.69)" fill="#5443A0">
    <circle cx="0" cy="0" r="1.5" class="primitive"/>
  </g>
  <g transform="translate(131.66,72.8)" fill="#5443A0">
    <circle cx="0" cy="0" r="1.5" class="primitive"/>
  </g>
  <g transform="translate(131.66,70.59)" fill="#5443A0">
    <circle cx="0" cy="0" r="1.5" class="primitive"/>
  </g>
  <g transform="translate(126.53,68.22)" fill="#5443A0">
    <circle cx="0" cy="0" r="1.5" class="primitive"/>
  </g>
  <g transform="translate(95.17,65.77)" fill="#5443A0">
    <circle cx="0" cy="0" r="1.5" class="primitive"/>
  </g>
  <g fill-opacity="1" id="img-ba1e65df-5">
    <g transform="translate(95.17,65.77)" fill="#5443A0">
      <circle cx="0" cy="0" r="1.5" class="primitive"/>
    </g>
    <g transform="translate(147.06,78.49)" fill="#5443A0">
      <circle cx="0" cy="0" r="1.5" class="primitive"/>
    </g>
    <g transform="translate(110.73,81.01)" fill="#5443A0">
      <circle cx="0" cy="0" r="1.5" class="primitive"/>
    </g>
    <g transform="translate(105.58,83.54)" fill="#5443A0">
      <circle cx="0" cy="0" r="1.5" class="primitive"/>
    </g>
    <g transform="translate(105.58,82.28)" fill="#5443A0">
      <circle cx="0" cy="0" r="1.5" class="primitive"/>
    </g>
    <g transform="translate(126.19,86.07)" fill="#5443A0">
      <circle cx="0" cy="0" r="1.5" class="primitive"/>
    </g>
    <g transform="translate(100.41,88.6)" fill="#5443A0">
      <circle cx="0" cy="0" r="1.5" class="primitive"/>
    </g>
    <g transform="translate(105.56,91.12)" fill="#5443A0">
      <circle cx="0" cy="0" r="1.5" class="primitive"/>
    </g>
    <g transform="translate(100.41,89.86)" fill="#5443A0">
      <circle cx="0" cy="0" r="1.5" class="primitive"/>
    </g>
    <g transform="translate(100.41,87.96)" fill="#5443A0">
      <circle cx="0" cy="0" r="1.5" class="primitive"/>
    </g>
    <g transform="translate(105.56,93.65)" fill="#5443A0">
      <circle cx="0" cy="0" r="1.5" class="primitive"/>
    </g>
    <g transform="translate(100.41,96.18)" fill="#5443A0">
      <circle cx="0" cy="0" r="1.5" class="primitive"/>
    </g>
    <g transform="translate(100.41,94.92)" fill="#5443A0">
      <circle cx="0" cy="0" r="1.5" class="primitive"/>
    </g>
    <g transform="translate(136.59,98.71)" fill="#5443A0">
      <circle cx="0" cy="0" r="1.5" class="primitive"/>
    </g>
    <g transform="translate(136.58,101.24)" fill="#5443A0">
      <circle cx="0" cy="0" r="1.5" class="primitive"/>
    </g>
    <g transform="translate(115.93,103.76)" fill="#5443A0">
      <circle cx="0" cy="0" r="1.5" class="primitive"/>
    </g>
    <g transform="translate(115.93,106.29)" fill="#5443A0">
      <circle cx="0" cy="0" r="1.5" class="primitive"/>
    </g>
    <g transform="translate(115.93,108.82)" fill="#5443A0">
      <circle cx="0" cy="0" r="1.5" class="primitive"/>
    </g>
    <g transform="translate(115.93,107.55)" fill="#5443A0">
      <circle cx="0" cy="0" r="1.5" class="primitive"/>
    </g>
    <g transform="translate(115.93,105.66)" fill="#5443A0">
      <circle cx="0" cy="0" r="1.5" class="primitive"/>
    </g>
    <g transform="translate(115.93,103.45)" fill="#5443A0">
      <circle cx="0" cy="0" r="1.5" class="primitive"/>
    </g>
    <g transform="translate(115.93,101.08)" fill="#5443A0">
      <circle cx="0" cy="0" r="1.5" class="primitive"/>
    </g>
    <g transform="translate(90.11,98)" fill="#5443A0">
      <circle cx="0" cy="0" r="1.5" class="primitive"/>
    </g>
    <g transform="translate(90.11,92.98)" fill="#5443A0">
      <circle cx="0" cy="0" r="1.5" class="primitive"/>
    </g>
    <g transform="translate(90.11,87.63)" fill="#5443A0">
      <circle cx="0" cy="0" r="1.5" class="primitive"/>
    </g>
    <g transform="translate(84.91,83.06)" fill="#5443A0">
      <circle cx="0" cy="0" r="1.5" class="primitive"/>
    </g>
    <g transform="translate(84.91,74.41)" fill="#5443A0">
      <circle cx="0" cy="0" r="1.5" class="primitive"/>
    </g>
    <g transform="translate(74.56,67.6)" fill="#5443A0">
      <circle cx="0" cy="0" r="1.5" class="primitive"/>
    </g>
    <g transform="translate(64.32,60.25)" fill="#5443A0">
      <circle cx="0" cy="0" r="1.5" class="primitive"/>
    </g>
    <g transform="translate(53.98,52.62)" fill="#5443A0">
      <circle cx="0" cy="0" r="1.5" class="primitive"/>
    </g>
    <g transform="translate(48.88,34.43)" fill="#5443A0">
      <circle cx="0" cy="0" r="1.5" class="primitive"/>
    </g>
    <g transform="translate(48.88,21.7)" fill="#5443A0">
      <circle cx="0" cy="0" r="1.5" class="primitive"/>
    </g>
    <g transform="translate(33.47,13.44)" fill="#000000">
      <circle cx="0" cy="0" r="1.5" class="primitive"/>
    </g>
  </g>
</g>
<g stroke-opacity="1" fill-opacity="1" font-size="1.41" stroke-width="0.1" id="img-ba1e65df-6">
  <g transform="translate(73.4,5.18)" stroke="#000000">
    <g class="primitive">
      <text dy="0.35em">KP769859_1_Feline_panleukopenia_virus_isolate_MG13</text>
    </g>
  </g>
  <g transform="translate(109.51,7.71)" stroke="#000000">
    <g class="primitive">
      <text dy="0.35em">KX434462_1_Feline_panleukopenia_virus_strain_FPV_I</text>
    </g>
  </g>
  <g transform="translate(119.96,10.24)" stroke="#000000">
    <g class="primitive">
      <text dy="0.35em">MN127780_1_Feline_panleukopenia_virus_isolate_19R8</text>
    </g>
  </g>
  <g transform="translate(62.56,8.97)" stroke="#000000">
    <g class="primitive">
      <text dy="0.35em"></text>
    </g>
  </g>
  <g transform="translate(88.78,12.76)" stroke="#000000">
    <g class="primitive">
      <text dy="0.35em">MN451652_1_Feline_panleukopenia_virus_isolate_BFPV</text>
    </g>
  </g>
  <g transform="translate(62.92,15.29)" stroke="#000000">
    <g class="primitive">
      <text dy="0.35em">KX434461_1_Feline_panleukopenia_virus_strain_FPV_I</text>
    </g>
  </g>
  <g transform="translate(114.53,17.82)" stroke="#000000">
    <g class="primitive">
      <text dy="0.35em">MT178243_1_Feline_panleukopenia_virus_isolate_SY-0</text>
    </g>
  </g>
  <g transform="translate(93.86,20.35)" stroke="#000000">
    <g class="primitive">
      <text dy="0.35em">EF988660_1_Feline_panleukopenia_virus_strain_XJ-1</text>
    </g>
  </g>
  <g transform="translate(67.83,19.08)" stroke="#000000">
    <g class="primitive">
      <text dy="0.35em"></text>
    </g>
  </g>
  <g transform="translate(114.45,22.88)" stroke="#000000">
    <g class="primitive">
      <text dy="0.35em">KP280068_1_Feline_panleukopenia_virus_isolate_HRB-</text>
    </g>
  </g>
  <g transform="translate(88.66,25.4)" stroke="#000000">
    <g class="primitive">
      <text dy="0.35em">MG764510_1_Feline_panleukopenia_virus_isolate_FPV-</text>
    </g>
  </g>
  <g transform="translate(78.36,27.93)" stroke="#000000">
    <g class="primitive">
      <text dy="0.35em">MZ357122_1_MAG_Feline_panleukopenia_virus_isolate</text>
    </g>
  </g>
  <g transform="translate(73.22,26.67)" stroke="#000000">
    <g class="primitive">
      <text dy="0.35em"></text>
    </g>
  </g>
  <g transform="translate(73.22,24.77)" stroke="#000000">
    <g class="primitive">
      <text dy="0.35em"></text>
    </g>
  </g>
  <g transform="translate(83.53,30.46)" stroke="#000000">
    <g class="primitive">
      <text dy="0.35em">KX900570_1_Feline_panleukopenia_virus_isolate_HH-1</text>
    </g>
  </g>
  <g transform="translate(88.68,32.99)" stroke="#000000">
    <g class="primitive">
      <text dy="0.35em">MW091487_1_Feline_panleukopenia_virus_isolate_Gian</text>
    </g>
  </g>
  <g transform="translate(88.68,35.51)" stroke="#000000">
    <g class="primitive">
      <text dy="0.35em">MZ357119_1_MAG_Feline_panleukopenia_virus_isolate</text>
    </g>
  </g>
  <g transform="translate(88.68,34.25)" stroke="#000000">
    <g class="primitive">
      <text dy="0.35em"></text>
    </g>
  </g>
  <g transform="translate(98.95,38.04)" stroke="#000000">
    <g class="primitive">
      <text dy="0.35em">MG764511_1_Feline_panleukopenia_virus_isolate_FPV-</text>
    </g>
  </g>
  <g transform="translate(104.15,40.57)" stroke="#000000">
    <g class="primitive">
      <text dy="0.35em">KX685354_1_Feline_panleukopenia_virus_strain_HN-ZZ</text>
    </g>
  </g>
  <g transform="translate(78.34,39.31)" stroke="#000000">
    <g class="primitive">
      <text dy="0.35em"></text>
    </g>
  </g>
  <g transform="translate(73.22,36.78)" stroke="#000000">
    <g class="primitive">
      <text dy="0.35em"></text>
    </g>
  </g>
  <g transform="translate(68.08,33.62)" stroke="#000000">
    <g class="primitive">
      <text dy="0.35em"></text>
    </g>
  </g>
  <g transform="translate(68.08,29.2)" stroke="#000000">
    <g class="primitive">
      <text dy="0.35em"></text>
    </g>
  </g>
  <g transform="translate(62.94,24.14)" stroke="#000000">
    <g class="primitive">
      <text dy="0.35em"></text>
    </g>
  </g>
  <g transform="translate(57.77,19.72)" stroke="#000000">
    <g class="primitive">
      <text dy="0.35em"></text>
    </g>
  </g>
  <g transform="translate(52.63,16.24)" stroke="#000000">
    <g class="primitive">
      <text dy="0.35em"></text>
    </g>
  </g>
  <g transform="translate(119.83,43.1)" stroke="#000000">
    <g class="primitive">
      <text dy="0.35em">MH165481_1_Feline_panleukopenia_virus_strain_FPV-B</text>
    </g>
  </g>
  <g transform="translate(114.63,45.63)" stroke="#000000">
    <g class="primitive">
      <text dy="0.35em">MN127781_1_Feline_panleukopenia_virus_isolate_19R1</text>
    </g>
  </g>
  <g transform="translate(93.99,48.15)" stroke="#000000">
    <g class="primitive">
      <text dy="0.35em">MH165482_1_Feline_panleukopenia_virus_strain_FPV-B</text>
    </g>
  </g>
  <g transform="translate(93.99,46.89)" stroke="#000000">
    <g class="primitive">
      <text dy="0.35em"></text>
    </g>
  </g>
  <g transform="translate(93.99,44.99)" stroke="#000000">
    <g class="primitive">
      <text dy="0.35em"></text>
    </g>
  </g>
  <g transform="translate(73.21,50.68)" stroke="#000000">
    <g class="primitive">
      <text dy="0.35em">EU659112_1_Feline_panleukopenia_virus_isolate_FPV-</text>
    </g>
  </g>
  <g transform="translate(78.36,53.21)" stroke="#000000">
    <g class="primitive">
      <text dy="0.35em">X55115_1_Feline_panleukopenia_virus_FPV_NS1_VP1</text>
    </g>
  </g>
  <g transform="translate(88.71,55.74)" stroke="#000000">
    <g class="primitive">
      <text dy="0.35em">OM640096_1_Feline_panleukopenia_virus_strain_K1830</text>
    </g>
  </g>
  <g transform="translate(88.68,58.26)" stroke="#000000">
    <g class="primitive">
      <text dy="0.35em">MN862745_1_Feline_panleukopenia_virus_isolate_FPV_</text>
    </g>
  </g>
  <g transform="translate(83.55,57)" stroke="#000000">
    <g class="primitive">
      <text dy="0.35em"></text>
    </g>
  </g>
  <g transform="translate(68.07,55.1)" stroke="#000000">
    <g class="primitive">
      <text dy="0.35em"></text>
    </g>
  </g>
  <g transform="translate(68.07,52.89)" stroke="#000000">
    <g class="primitive">
      <text dy="0.35em"></text>
    </g>
  </g>
  <g transform="translate(114.6,60.79)" stroke="#000000">
    <g class="primitive">
      <text dy="0.35em">MF069446_1_Feline_panleukopenia_virus_strain_FPV_R</text>
    </g>
  </g>
  <g transform="translate(129.91,63.32)" stroke="#000000">
    <g class="primitive">
      <text dy="0.35em">EU659115_1_Feline_panleukopenia_virus_isolate_FPV-</text>
    </g>
  </g>
  <g transform="translate(145.82,65.85)" stroke="#000000">
    <g class="primitive">
      <text dy="0.35em">MZ357120_1_MAG_Feline_panleukopenia_virus_isolate</text>
    </g>
  </g>
  <g transform="translate(161.25,68.37)" stroke="#000000">
    <g class="primitive">
      <text dy="0.35em">MN908257_1_Feline_panleukopenia_virus_isolate_MHS2</text>
    </g>
  </g>
  <g transform="translate(135.41,70.9)" stroke="#000000">
    <g class="primitive">
      <text dy="0.35em">MW650831_1_Feline_panleukopenia_virus_isolate_FPV-</text>
    </g>
  </g>
  <g transform="translate(135.41,73.43)" stroke="#000000">
    <g class="primitive">
      <text dy="0.35em">MW659466_1_Feline_panleukopenia_virus_strain_FPV-S</text>
    </g>
  </g>
  <g transform="translate(135.41,75.96)" stroke="#000000">
    <g class="primitive">
      <text dy="0.35em">MW811187_1_Feline_panleukopenia_virus_strain_FPV-S</text>
    </g>
  </g>
  <g transform="translate(135.41,74.69)" stroke="#000000">
    <g class="primitive">
      <text dy="0.35em"></text>
    </g>
  </g>
  <g transform="translate(135.41,72.8)" stroke="#000000">
    <g class="primitive">
      <text dy="0.35em"></text>
    </g>
  </g>
  <g transform="translate(135.41,70.59)" stroke="#000000">
    <g class="primitive">
      <text dy="0.35em"></text>
    </g>
  </g>
  <g transform="translate(130.28,68.22)" stroke="#000000">
    <g class="primitive">
      <text dy="0.35em"></text>
    </g>
  </g>
  <g transform="translate(98.92,65.77)" stroke="#000000">
    <g class="primitive">
      <text dy="0.35em"></text>
    </g>
  </g>
  <g stroke-opacity="1" fill-opacity="1" font-size="1.41" stroke-width="0.1" id="img-ba1e65df-7">
    <g transform="translate(98.92,65.77)" stroke="#000000">
      <g class="primitive">
        <text dy="0.35em"></text>
      </g>
    </g>
    <g transform="translate(150.81,78.49)" stroke="#000000">
      <g class="primitive">
        <text dy="0.35em">MZ362883_1_Feline_parvovirus_isolate_AP__Roseworth</text>
      </g>
    </g>
    <g transform="translate(114.48,81.01)" stroke="#000000">
      <g class="primitive">
        <text dy="0.35em">EU659114_1_Feline_panleukopenia_virus_isolate_FPV-</text>
      </g>
    </g>
    <g transform="translate(109.33,83.54)" stroke="#000000">
      <g class="primitive">
        <text dy="0.35em">EU659113_1_Feline_panleukopenia_virus_isolate_FPV-</text>
      </g>
    </g>
    <g transform="translate(109.33,82.28)" stroke="#000000">
      <g class="primitive">
        <text dy="0.35em"></text>
      </g>
    </g>
    <g transform="translate(129.94,86.07)" stroke="#000000">
      <g class="primitive">
        <text dy="0.35em">MF069447_1_Feline_panleukopenia_virus_strain_FPV_R</text>
      </g>
    </g>
    <g transform="translate(104.16,88.6)" stroke="#000000">
      <g class="primitive">
        <text dy="0.35em">EU659111_1_Feline_panleukopenia_virus_isolate_FVP-</text>
      </g>
    </g>
    <g transform="translate(109.31,91.12)" stroke="#000000">
      <g class="primitive">
        <text dy="0.35em">M38246_1_Feline_panleukopenia_virus_NS-1_protein_a</text>
      </g>
    </g>
    <g transform="translate(104.16,89.86)" stroke="#000000">
      <g class="primitive">
        <text dy="0.35em"></text>
      </g>
    </g>
    <g transform="translate(104.16,87.96)" stroke="#000000">
      <g class="primitive">
        <text dy="0.35em"></text>
      </g>
    </g>
    <g transform="translate(109.31,93.65)" stroke="#000000">
      <g class="primitive">
        <text dy="0.35em">MN862743_1_Feline_panleukopenia_virus_isolate_FPV_</text>
      </g>
    </g>
    <g transform="translate(104.16,96.18)" stroke="#000000">
      <g class="primitive">
        <text dy="0.35em">MF069445_1_Feline_panleukopenia_virus_strain_FPV_R</text>
      </g>
    </g>
    <g transform="translate(104.16,94.92)" stroke="#000000">
      <g class="primitive">
        <text dy="0.35em"></text>
      </g>
    </g>
    <g transform="translate(140.34,98.71)" stroke="#000000">
      <g class="primitive">
        <text dy="0.35em">MN862744_1_Feline_panleukopenia_virus_isolate_FPV_</text>
      </g>
    </g>
    <g transform="translate(140.33,101.24)" stroke="#000000">
      <g class="primitive">
        <text dy="0.35em">MN862747_1_Feline_panleukopenia_virus_isolate_FPV_</text>
      </g>
    </g>
    <g transform="translate(119.68,103.76)" stroke="#000000">
      <g class="primitive">
        <text dy="0.35em">MN862746_1_Feline_panleukopenia_virus_isolate_FPV_</text>
      </g>
    </g>
    <g transform="translate(119.68,106.29)" stroke="#000000">
      <g class="primitive">
        <text dy="0.35em">MN862748_1_Feline_panleukopenia_virus_isolate_FPV_</text>
      </g>
    </g>
    <g transform="translate(119.68,108.82)" stroke="#000000">
      <g class="primitive">
        <text dy="0.35em">MN862749_1_Feline_panleukopenia_virus_isolate_FPV_</text>
      </g>
    </g>
    <g transform="translate(119.68,107.55)" stroke="#000000">
      <g class="primitive">
        <text dy="0.35em"></text>
      </g>
    </g>
    <g transform="translate(119.68,105.66)" stroke="#000000">
      <g class="primitive">
        <text dy="0.35em"></text>
      </g>
    </g>
    <g transform="translate(119.68,103.45)" stroke="#000000">
      <g class="primitive">
        <text dy="0.35em"></text>
      </g>
    </g>
    <g transform="translate(119.68,101.08)" stroke="#000000">
      <g class="primitive">
        <text dy="0.35em"></text>
      </g>
    </g>
    <g transform="translate(93.86,98)" stroke="#000000">
      <g class="primitive">
        <text dy="0.35em"></text>
      </g>
    </g>
    <g transform="translate(93.86,92.98)" stroke="#000000">
      <g class="primitive">
        <text dy="0.35em"></text>
      </g>
    </g>
    <g transform="translate(93.86,87.63)" stroke="#000000">
      <g class="primitive">
        <text dy="0.35em"></text>
      </g>
    </g>
    <g transform="translate(88.66,83.06)" stroke="#000000">
      <g class="primitive">
        <text dy="0.35em"></text>
      </g>
    </g>
    <g transform="translate(88.66,74.41)" stroke="#000000">
      <g class="primitive">
        <text dy="0.35em"></text>
      </g>
    </g>
    <g transform="translate(78.31,67.6)" stroke="#000000">
      <g class="primitive">
        <text dy="0.35em"></text>
      </g>
    </g>
    <g transform="translate(68.07,60.25)" stroke="#000000">
      <g class="primitive">
        <text dy="0.35em"></text>
      </g>
    </g>
    <g transform="translate(57.73,52.62)" stroke="#000000">
      <g class="primitive">
        <text dy="0.35em"></text>
      </g>
    </g>
    <g transform="translate(52.63,34.43)" stroke="#000000">
      <g class="primitive">
        <text dy="0.35em"></text>
      </g>
    </g>
    <g transform="translate(52.63,21.7)" stroke="#000000">
      <g class="primitive">
        <text dy="0.35em"></text>
      </g>
    </g>
    <g transform="translate(37.22,13.44)" stroke="#000000">
      <g class="primitive">
        <text dy="0.35em"></text>
      </g>
    </g>
  </g>
</g>
</svg>
