<?xml version="1.0" encoding="UTF-8"?>
<svg xmlns="http://www.w3.org/2000/svg"
     xmlns:xlink="http://www.w3.org/1999/xlink"
     version="1.2"
     width="150mm" height="94mm" viewBox="0 0 150 94"
     stroke="none"
     fill="#000000"
     stroke-width="0.3"
     font-size="3.88"
>
<defs>
  <marker id="arrow" markerWidth="15" markerHeight="7" refX="5" refY="3.5" orient="auto" markerUnits="strokeWidth">
    <path d="M0,0 L15,3.5 L0,7 z" stroke="context-stroke" fill="context-stroke"/>
  </marker>
</defs>
<g stroke-opacity="1" stroke-width="0.3" id="img-29b4c979-1">
  <g transform="translate(29.88,4.27)" stroke="#F9A044">
    <path fill="none" d="M-19.95,0 L19.95,0 " class="primitive"/>
  </g>
  <g transform="translate(12.14,7.03)" stroke="#6A6618">
    <path fill="none" d="M-2.21,0 L2.21,0 " class="primitive"/>
  </g>
  <g transform="translate(7.85,5.65)" stroke="#6A6618">
    <path fill="none" d="M-2.08,0 L2.08,0 " class="primitive"/>
  </g>
  <g transform="translate(9.93,5.65)" stroke="#6A6618">
    <path fill="none" d="M0,1.38 L0,-1.38 " class="primitive"/>
  </g>
  <g transform="translate(40.62,9.79)" stroke="#F9A044">
    <path fill="none" d="M-24.12,0 L24.12,0 " class="primitive"/>
  </g>
  <g transform="translate(18.36,12.54)" stroke="#F9A044">
    <path fill="none" d="M-1.86,0 L1.86,0 " class="primitive"/>
  </g>
  <g transform="translate(11.13,11.16)" stroke="#6A6618">
    <path fill="none" d="M-5.37,0 L5.37,0 " class="primitive"/>
  </g>
  <g transform="translate(16.5,11.16)" stroke="#6A6618">
    <path fill="none" d="M0,1.38 L0,-1.38 " class="primitive"/>
  </g>
  <g transform="translate(4.98,8.41)" stroke="#F9A044">
    <path fill="none" d="M-0.78,0 L0.78,0 " class="primitive"/>
  </g>
  <g transform="translate(5.76,8.41)" stroke="#F9A044">
    <path fill="none" d="M0,2.76 L0,-2.76 " class="primitive"/>
  </g>
  <g transform="translate(22.25,15.3)" stroke="#6A6618">
    <path fill="none" d="M-9.69,0 L9.69,0 " class="primitive"/>
  </g>
  <g transform="translate(18.63,18.06)" stroke="#6A6618">
    <path fill="none" d="M-6.06,0 L6.06,0 " class="primitive"/>
  </g>
  <g transform="translate(8.53,16.68)" stroke="#F9A044">
    <path fill="none" d="M-4.03,0 L4.03,0 " class="primitive"/>
  </g>
  <g transform="translate(12.56,16.68)" stroke="#F9A044">
    <path fill="none" d="M0,1.38 L0,-1.38 " class="primitive"/>
  </g>
  <g transform="translate(21.38,20.81)" stroke="#6A6618">
    <path fill="none" d="M-3.26,0 L3.26,0 " class="primitive"/>
  </g>
  <g transform="translate(18.2,23.57)" stroke="#F9A044">
    <path fill="none" d="M-0.08,0 L0.08,0 " class="primitive"/>
  </g>
  <g transform="translate(11.31,22.19)" stroke="#6A6618">
    <path fill="none" d="M-6.81,0 L6.81,0 " class="primitive"/>
  </g>
  <g transform="translate(18.12,22.19)" stroke="#6A6618">
    <path fill="none" d="M0,1.38 L0,-1.38 " class="primitive"/>
  </g>
  <g transform="translate(4.35,19.43)" stroke="#6A6618">
    <path fill="none" d="M-0.15,0 L0.15,0 " class="primitive"/>
  </g>
  <g transform="translate(4.5,19.43)" stroke="#6A6618">
    <path fill="none" d="M0,2.76 L0,-2.76 " class="primitive"/>
  </g>
  <g transform="translate(3.98,13.92)" stroke="#6A6618">
    <path fill="none" d="M-0.23,0 L0.23,0 " class="primitive"/>
  </g>
  <g transform="translate(4.2,13.92)" stroke="#6A6618">
    <path fill="none" d="M0,5.51 L0,-5.51 " class="primitive"/>
  </g>
  <g transform="translate(69.98,26.33)" stroke="#F9A044">
    <path fill="none" d="M-8.77,0 L8.77,0 " class="primitive"/>
  </g>
  <g transform="translate(69.08,29.08)" stroke="#6A6618">
    <path fill="none" d="M-7.86,0 L7.86,0 " class="primitive"/>
  </g>
  <g transform="translate(44.42,27.7)" stroke="#F9A044">
    <path fill="none" d="M-16.79,0 L16.79,0 " class="primitive"/>
  </g>
  <g transform="translate(61.21,27.7)" stroke="#F9A044">
    <path fill="none" d="M0,1.38 L0,-1.38 " class="primitive"/>
  </g>
  <g transform="translate(37.15,31.84)" stroke="#F9A044">
    <path fill="none" d="M-0.75,0 L0.75,0 " class="primitive"/>
  </g>
  <g transform="translate(44.14,34.6)" stroke="#F9A044">
    <path fill="none" d="M-7.73,0 L7.73,0 " class="primitive"/>
  </g>
  <g transform="translate(32.02,33.22)" stroke="#F9A044">
    <path fill="none" d="M-4.38,0 L4.38,0 " class="primitive"/>
  </g>
  <g transform="translate(36.41,33.22)" stroke="#F9A044">
    <path fill="none" d="M0,1.38 L0,-1.38 " class="primitive"/>
  </g>
  <g transform="translate(25.32,30.46)" stroke="#6A6618">
    <path fill="none" d="M-2.32,0 L2.32,0 " class="primitive"/>
  </g>
  <g transform="translate(27.64,30.46)" stroke="#6A6618">
    <path fill="none" d="M0,2.76 L0,-2.76 " class="primitive"/>
  </g>
  <g transform="translate(39.88,37.35)" stroke="#F9A044">
    <path fill="none" d="M-6.37,0 L6.37,0 " class="primitive"/>
  </g>
  <g transform="translate(41.42,40.11)" stroke="#F9A044">
    <path fill="none" d="M-7.9,0 L7.9,0 " class="primitive"/>
  </g>
  <g transform="translate(30.59,38.73)" stroke="#F9A044">
    <path fill="none" d="M-2.92,0 L2.92,0 " class="primitive"/>
  </g>
  <g transform="translate(33.51,38.73)" stroke="#F9A044">
    <path fill="none" d="M0,1.38 L0,-1.38 " class="primitive"/>
  </g>
  <g transform="translate(47.53,42.87)" stroke="#F9A044">
    <path fill="none" d="M-5.99,0 L5.99,0 " class="primitive"/>
  </g>
  <g transform="translate(43.94,45.62)" stroke="#F9A044">
    <path fill="none" d="M-2.41,0 L2.41,0 " class="primitive"/>
  </g>
  <g transform="translate(34.6,44.24)" stroke="#6A6618">
    <path fill="none" d="M-6.94,0 L6.94,0 " class="primitive"/>
  </g>
  <g transform="translate(41.54,44.24)" stroke="#6A6618">
    <path fill="none" d="M0,1.38 L0,-1.38 " class="primitive"/>
  </g>
  <g transform="translate(25.33,41.49)" stroke="#6A6618">
    <path fill="none" d="M-2.33,0 L2.33,0 " class="primitive"/>
  </g>
  <g transform="translate(27.67,41.49)" stroke="#6A6618">
    <path fill="none" d="M0,2.76 L0,-2.76 " class="primitive"/>
  </g>
  <g transform="translate(13.37,35.97)" stroke="#F9A044">
    <path fill="none" d="M-9.62,0 L9.62,0 " class="primitive"/>
  </g>
  <g transform="translate(23,35.97)" stroke="#F9A044">
    <path fill="none" d="M0,5.51 L0,-5.51 " class="primitive"/>
  </g>
  <g transform="translate(3.75,24.95)" stroke="#000000">
    <path fill="none" d="M0,0 L0,0 " class="primitive"/>
  </g>
  <g transform="translate(3.75,24.95)" stroke="#000000">
    <path fill="none" d="M0,11.03 L0,-11.03 " class="primitive"/>
  </g>
  <g transform="translate(25.39,48.38)" stroke="#6A6618">
    <path fill="none" d="M-1.79,0 L1.79,0 " class="primitive"/>
  </g>
  <g transform="translate(25.15,51.13)" stroke="#F9A044">
    <path fill="none" d="M-1.55,0 L1.55,0 " class="primitive"/>
  </g>
  <g transform="translate(19.91,49.76)" stroke="#6A6618">
    <path fill="none" d="M-3.68,0 L3.68,0 " class="primitive"/>
  </g>
  <g transform="translate(23.6,49.76)" stroke="#6A6618">
    <path fill="none" d="M0,1.38 L0,-1.38 " class="primitive"/>
  </g>
  <g transform="translate(25.24,53.89)" stroke="#6A6618">
    <path fill="none" d="M-3.12,0 L3.12,0 " class="primitive"/>
  </g>
  <g stroke-opacity="1" stroke-width="0.3" id="img-29b4c979-2">
    <g transform="translate(25.24,53.89)" stroke="#6A6618">
      <path fill="none" d="M-3.12,0 L3.12,0 " class="primitive"/>
    </g>
    <g transform="translate(26.9,56.65)" stroke="#6A6618">
      <path fill="none" d="M-4.78,0 L4.78,0 " class="primitive"/>
    </g>
    <g transform="translate(19.18,55.27)" stroke="#F9A044">
      <path fill="none" d="M-2.95,0 L2.95,0 " class="primitive"/>
    </g>
    <g transform="translate(22.12,55.27)" stroke="#F9A044">
      <path fill="none" d="M0,1.38 L0,-1.38 " class="primitive"/>
    </g>
    <g transform="translate(15.97,52.51)" stroke="#F9A044">
      <path fill="none" d="M-0.26,0 L0.26,0 " class="primitive"/>
    </g>
    <g transform="translate(16.23,52.51)" stroke="#F9A044">
      <path fill="none" d="M0,2.76 L0,-2.76 " class="primitive"/>
    </g>
    <g transform="translate(28.79,59.4)" stroke="#6A6618">
      <path fill="none" d="M-6.69,0 L6.69,0 " class="primitive"/>
    </g>
    <g transform="translate(24.95,62.16)" stroke="#F9A044">
      <path fill="none" d="M-2.85,0 L2.85,0 " class="primitive"/>
    </g>
    <g transform="translate(21.12,60.78)" stroke="#F9A044">
      <path fill="none" d="M-0.98,0 L0.98,0 " class="primitive"/>
    </g>
    <g transform="translate(22.1,60.78)" stroke="#F9A044">
      <path fill="none" d="M0,1.38 L0,-1.38 " class="primitive"/>
    </g>
    <g transform="translate(29.31,64.92)" stroke="#F9A044">
      <path fill="none" d="M-3.42,0 L3.42,0 " class="primitive"/>
    </g>
    <g transform="translate(26.52,67.67)" stroke="#6A6618">
      <path fill="none" d="M-0.63,0 L0.63,0 " class="primitive"/>
    </g>
    <g transform="translate(23.02,66.3)" stroke="#F9A044">
      <path fill="none" d="M-2.87,0 L2.87,0 " class="primitive"/>
    </g>
    <g transform="translate(25.89,66.3)" stroke="#F9A044">
      <path fill="none" d="M0,1.38 L0,-1.38 " class="primitive"/>
    </g>
    <g transform="translate(17.92,63.54)" stroke="#F9A044">
      <path fill="none" d="M-2.22,0 L2.22,0 " class="primitive"/>
    </g>
    <g transform="translate(20.14,63.54)" stroke="#F9A044">
      <path fill="none" d="M0,2.76 L0,-2.76 " class="primitive"/>
    </g>
    <g transform="translate(12.84,58.03)" stroke="#F9A044">
      <path fill="none" d="M-2.87,0 L2.87,0 " class="primitive"/>
    </g>
    <g transform="translate(15.71,58.03)" stroke="#F9A044">
      <path fill="none" d="M0,5.51 L0,-5.51 " class="primitive"/>
    </g>
    <g transform="translate(35.78,70.43)" stroke="#F9A044">
      <path fill="none" d="M-4.04,0 L4.04,0 " class="primitive"/>
    </g>
    <g transform="translate(32.7,73.19)" stroke="#F9A044">
      <path fill="none" d="M-0.95,0 L0.95,0 " class="primitive"/>
    </g>
    <g transform="translate(27.83,71.81)" stroke="#F9A044">
      <path fill="none" d="M-3.91,0 L3.91,0 " class="primitive"/>
    </g>
    <g transform="translate(31.74,71.81)" stroke="#F9A044">
      <path fill="none" d="M0,1.38 L0,-1.38 " class="primitive"/>
    </g>
    <g transform="translate(41.4,75.94)" stroke="#F9A044">
      <path fill="none" d="M-9.66,0 L9.66,0 " class="primitive"/>
    </g>
    <g transform="translate(31.97,78.7)" stroke="#F9A044">
      <path fill="none" d="M-0.23,0 L0.23,0 " class="primitive"/>
    </g>
    <g transform="translate(27.83,77.32)" stroke="#F9A044">
      <path fill="none" d="M-3.91,0 L3.91,0 " class="primitive"/>
    </g>
    <g transform="translate(31.74,77.32)" stroke="#F9A044">
      <path fill="none" d="M0,1.38 L0,-1.38 " class="primitive"/>
    </g>
    <g transform="translate(17.49,74.57)" stroke="#F9A044">
      <path fill="none" d="M-6.42,0 L6.42,0 " class="primitive"/>
    </g>
    <g transform="translate(23.91,74.57)" stroke="#F9A044">
      <path fill="none" d="M0,2.76 L0,-2.76 " class="primitive"/>
    </g>
    <g transform="translate(21.61,81.46)" stroke="#F9A044">
      <path fill="none" d="M-7.24,0 L7.24,0 " class="primitive"/>
    </g>
    <g transform="translate(18.81,84.21)" stroke="#6A6618">
      <path fill="none" d="M-4.44,0 L4.44,0 " class="primitive"/>
    </g>
    <g transform="translate(13.28,82.84)" stroke="#6A6618">
      <path fill="none" d="M-1.09,0 L1.09,0 " class="primitive"/>
    </g>
    <g transform="translate(14.37,82.84)" stroke="#6A6618">
      <path fill="none" d="M0,1.38 L0,-1.38 " class="primitive"/>
    </g>
    <g transform="translate(21.12,86.97)" stroke="#F9A044">
      <path fill="none" d="M-5.53,0 L5.53,0 " class="primitive"/>
    </g>
    <g transform="translate(18.4,89.73)" stroke="#F9A044">
      <path fill="none" d="M-2.81,0 L2.81,0 " class="primitive"/>
    </g>
    <g transform="translate(13.89,88.35)" stroke="#6A6618">
      <path fill="none" d="M-1.7,0 L1.7,0 " class="primitive"/>
    </g>
    <g transform="translate(15.58,88.35)" stroke="#6A6618">
      <path fill="none" d="M0,1.38 L0,-1.38 " class="primitive"/>
    </g>
    <g transform="translate(11.63,85.59)" stroke="#F9A044">
      <path fill="none" d="M-0.56,0 L0.56,0 " class="primitive"/>
    </g>
    <g transform="translate(12.19,85.59)" stroke="#F9A044">
      <path fill="none" d="M0,2.76 L0,-2.76 " class="primitive"/>
    </g>
    <g transform="translate(10.52,80.08)" stroke="#F9A044">
      <path fill="none" d="M-0.55,0 L0.55,0 " class="primitive"/>
    </g>
    <g transform="translate(11.07,80.08)" stroke="#F9A044">
      <path fill="none" d="M0,5.51 L0,-5.51 " class="primitive"/>
    </g>
    <g transform="translate(6.86,69.05)" stroke="#6A6618">
      <path fill="none" d="M-3.11,0 L3.11,0 " class="primitive"/>
    </g>
    <g transform="translate(9.97,69.05)" stroke="#6A6618">
      <path fill="none" d="M0,11.03 L0,-11.03 " class="primitive"/>
    </g>
    <g transform="translate(3.75,47)" stroke="#000000">
      <path fill="none" d="M0,0 L0,0 " class="primitive"/>
    </g>
    <g transform="translate(3.75,47)" stroke="#000000">
      <path fill="none" d="M0,22.05 L0,-22.05 " class="primitive"/>
    </g>
  </g>
</g>
<g fill-opacity="1" id="img-29b4c979-3">
  <g transform="translate(49.83,4.27)" fill="#F9A044">
    <circle cx="0" cy="0" r="0.75" class="primitive"/>
  </g>
  <g transform="translate(14.34,7.03)" fill="#6A6618">
    <circle cx="0" cy="0" r="0.75" class="primitive"/>
  </g>
  <g transform="translate(9.93,5.65)" fill="#6A6618">
    <circle cx="0" cy="0" r="0.75" class="primitive"/>
  </g>
  <g transform="translate(64.74,9.79)" fill="#F9A044">
    <circle cx="0" cy="0" r="0.75" class="primitive"/>
  </g>
  <g transform="translate(20.22,12.54)" fill="#F9A044">
    <circle cx="0" cy="0" r="0.75" class="primitive"/>
  </g>
  <g transform="translate(16.5,11.16)" fill="#6A6618">
    <circle cx="0" cy="0" r="0.75" class="primitive"/>
  </g>
  <g transform="translate(5.76,8.41)" fill="#F9A044">
    <circle cx="0" cy="0" r="0.75" class="primitive"/>
  </g>
  <g transform="translate(31.93,15.3)" fill="#6A6618">
    <circle cx="0" cy="0" r="0.75" class="primitive"/>
  </g>
  <g transform="translate(24.69,18.06)" fill="#6A6618">
    <circle cx="0" cy="0" r="0.75" class="primitive"/>
  </g>
  <g transform="translate(12.56,16.68)" fill="#F9A044">
    <circle cx="0" cy="0" r="0.75" class="primitive"/>
  </g>
  <g transform="translate(24.65,20.81)" fill="#6A6618">
    <circle cx="0" cy="0" r="0.75" class="primitive"/>
  </g>
  <g transform="translate(18.28,23.57)" fill="#F9A044">
    <circle cx="0" cy="0" r="0.75" class="primitive"/>
  </g>
  <g transform="translate(18.12,22.19)" fill="#6A6618">
    <circle cx="0" cy="0" r="0.75" class="primitive"/>
  </g>
  <g transform="translate(4.5,19.43)" fill="#6A6618">
    <circle cx="0" cy="0" r="0.75" class="primitive"/>
  </g>
  <g transform="translate(4.2,13.92)" fill="#6A6618">
    <circle cx="0" cy="0" r="0.75" class="primitive"/>
  </g>
  <g transform="translate(78.75,26.33)" fill="#F9A044">
    <circle cx="0" cy="0" r="0.75" class="primitive"/>
  </g>
  <g transform="translate(76.94,29.08)" fill="#6A6618">
    <circle cx="0" cy="0" r="0.75" class="primitive"/>
  </g>
  <g transform="translate(61.21,27.7)" fill="#F9A044">
    <circle cx="0" cy="0" r="0.75" class="primitive"/>
  </g>
  <g transform="translate(37.9,31.84)" fill="#F9A044">
    <circle cx="0" cy="0" r="0.75" class="primitive"/>
  </g>
  <g transform="translate(51.87,34.6)" fill="#F9A044">
    <circle cx="0" cy="0" r="0.75" class="primitive"/>
  </g>
  <g transform="translate(36.41,33.22)" fill="#F9A044">
    <circle cx="0" cy="0" r="0.75" class="primitive"/>
  </g>
  <g transform="translate(27.64,30.46)" fill="#6A6618">
    <circle cx="0" cy="0" r="0.75" class="primitive"/>
  </g>
  <g transform="translate(46.26,37.35)" fill="#F9A044">
    <circle cx="0" cy="0" r="0.75" class="primitive"/>
  </g>
  <g transform="translate(49.32,40.11)" fill="#F9A044">
    <circle cx="0" cy="0" r="0.75" class="primitive"/>
  </g>
  <g transform="translate(33.51,38.73)" fill="#F9A044">
    <circle cx="0" cy="0" r="0.75" class="primitive"/>
  </g>
  <g transform="translate(53.52,42.87)" fill="#F9A044">
    <circle cx="0" cy="0" r="0.75" class="primitive"/>
  </g>
  <g transform="translate(46.35,45.62)" fill="#F9A044">
    <circle cx="0" cy="0" r="0.75" class="primitive"/>
  </g>
  <g transform="translate(41.54,44.24)" fill="#6A6618">
    <circle cx="0" cy="0" r="0.75" class="primitive"/>
  </g>
  <g transform="translate(27.67,41.49)" fill="#6A6618">
    <circle cx="0" cy="0" r="0.75" class="primitive"/>
  </g>
  <g transform="translate(23,35.97)" fill="#F9A044">
    <circle cx="0" cy="0" r="0.75" class="primitive"/>
  </g>
  <g transform="translate(3.75,24.95)" fill="#000000">
    <circle cx="0" cy="0" r="0.75" class="primitive"/>
  </g>
  <g transform="translate(27.18,48.38)" fill="#6A6618">
    <circle cx="0" cy="0" r="0.75" class="primitive"/>
  </g>
  <g transform="translate(26.7,51.13)" fill="#F9A044">
    <circle cx="0" cy="0" r="0.75" class="primitive"/>
  </g>
  <g transform="translate(23.6,49.76)" fill="#6A6618">
    <circle cx="0" cy="0" r="0.75" class="primitive"/>
  </g>
  <g transform="translate(28.36,53.89)" fill="#6A6618">
    <circle cx="0" cy="0" r="0.75" class="primitive"/>
  </g>
  <g transform="translate(31.68,56.65)" fill="#6A6618">
    <circle cx="0" cy="0" r="0.75" class="primitive"/>
  </g>
  <g transform="translate(22.12,55.27)" fill="#F9A044">
    <circle cx="0" cy="0" r="0.75" class="primitive"/>
  </g>
  <g transform="translate(16.23,52.51)" fill="#F9A044">
    <circle cx="0" cy="0" r="0.75" class="primitive"/>
  </g>
  <g transform="translate(35.48,59.4)" fill="#6A6618">
    <circle cx="0" cy="0" r="0.75" class="primitive"/>
  </g>
  <g transform="translate(27.8,62.16)" fill="#F9A044">
    <circle cx="0" cy="0" r="0.75" class="primitive"/>
  </g>
  <g transform="translate(22.1,60.78)" fill="#F9A044">
    <circle cx="0" cy="0" r="0.75" class="primitive"/>
  </g>
  <g transform="translate(32.73,64.92)" fill="#F9A044">
    <circle cx="0" cy="0" r="0.75" class="primitive"/>
  </g>
  <g transform="translate(27.16,67.67)" fill="#6A6618">
    <circle cx="0" cy="0" r="0.75" class="primitive"/>
  </g>
  <g transform="translate(25.89,66.3)" fill="#F9A044">
    <circle cx="0" cy="0" r="0.75" class="primitive"/>
  </g>
  <g transform="translate(20.14,63.54)" fill="#F9A044">
    <circle cx="0" cy="0" r="0.75" class="primitive"/>
  </g>
  <g transform="translate(15.71,58.03)" fill="#F9A044">
    <circle cx="0" cy="0" r="0.75" class="primitive"/>
  </g>
  <g transform="translate(39.82,70.43)" fill="#F9A044">
    <circle cx="0" cy="0" r="0.75" class="primitive"/>
  </g>
  <g transform="translate(33.65,73.19)" fill="#F9A044">
    <circle cx="0" cy="0" r="0.75" class="primitive"/>
  </g>
  <g transform="translate(31.74,71.81)" fill="#F9A044">
    <circle cx="0" cy="0" r="0.75" class="primitive"/>
  </g>
  <g transform="translate(51.07,75.94)" fill="#F9A044">
    <circle cx="0" cy="0" r="0.75" class="primitive"/>
  </g>
  <g transform="translate(32.2,78.7)" fill="#F9A044">
    <circle cx="0" cy="0" r="0.75" class="primitive"/>
  </g>
  <g fill-opacity="1" id="img-29b4c979-4">
    <g transform="translate(32.2,78.7)" fill="#F9A044">
      <circle cx="0" cy="0" r="0.75" class="primitive"/>
    </g>
    <g transform="translate(31.74,77.32)" fill="#F9A044">
      <circle cx="0" cy="0" r="0.75" class="primitive"/>
    </g>
    <g transform="translate(23.91,74.57)" fill="#F9A044">
      <circle cx="0" cy="0" r="0.75" class="primitive"/>
    </g>
    <g transform="translate(28.84,81.46)" fill="#F9A044">
      <circle cx="0" cy="0" r="0.75" class="primitive"/>
    </g>
    <g transform="translate(23.25,84.21)" fill="#6A6618">
      <circle cx="0" cy="0" r="0.75" class="primitive"/>
    </g>
    <g transform="translate(14.37,82.84)" fill="#6A6618">
      <circle cx="0" cy="0" r="0.75" class="primitive"/>
    </g>
    <g transform="translate(26.65,86.97)" fill="#F9A044">
      <circle cx="0" cy="0" r="0.75" class="primitive"/>
    </g>
    <g transform="translate(21.21,89.73)" fill="#F9A044">
      <circle cx="0" cy="0" r="0.75" class="primitive"/>
    </g>
    <g transform="translate(15.58,88.35)" fill="#6A6618">
      <circle cx="0" cy="0" r="0.75" class="primitive"/>
    </g>
    <g transform="translate(12.19,85.59)" fill="#F9A044">
      <circle cx="0" cy="0" r="0.75" class="primitive"/>
    </g>
    <g transform="translate(11.07,80.08)" fill="#F9A044">
      <circle cx="0" cy="0" r="0.75" class="primitive"/>
    </g>
    <g transform="translate(9.97,69.05)" fill="#6A6618">
      <circle cx="0" cy="0" r="0.75" class="primitive"/>
    </g>
    <g transform="translate(3.75,47)" fill="#000000">
      <circle cx="0" cy="0" r="0.75" class="primitive"/>
    </g>
  </g>
</g>
<g stroke-opacity="1" fill-opacity="1" font-size="1.41" stroke-width="0.1" id="img-29b4c979-5">
  <g transform="translate(51.71,4.27)" stroke="#000000">
    <g class="primitive">
      <text dy="0.35em">N16</text>
    </g>
  </g>
  <g transform="translate(16.22,7.03)" stroke="#000000">
    <g class="primitive">
      <text dy="0.35em">N17</text>
    </g>
  </g>
  <g transform="translate(11.81,5.65)" stroke="#000000">
    <g class="primitive">
      <text dy="0.35em">N40</text>
    </g>
  </g>
  <g transform="translate(66.62,9.79)" stroke="#000000">
    <g class="primitive">
      <text dy="0.35em">N18</text>
    </g>
  </g>
  <g transform="translate(22.09,12.54)" stroke="#000000">
    <g class="primitive">
      <text dy="0.35em">N19</text>
    </g>
  </g>
  <g transform="translate(18.37,11.16)" stroke="#000000">
    <g class="primitive">
      <text dy="0.35em">N41</text>
    </g>
  </g>
  <g transform="translate(7.64,8.41)" stroke="#000000">
    <g class="primitive">
      <text dy="0.35em">N52</text>
    </g>
  </g>
  <g transform="translate(33.81,15.3)" stroke="#000000">
    <g class="primitive">
      <text dy="0.35em">N20</text>
    </g>
  </g>
  <g transform="translate(26.57,18.06)" stroke="#000000">
    <g class="primitive">
      <text dy="0.35em">N21</text>
    </g>
  </g>
  <g transform="translate(14.44,16.68)" stroke="#000000">
    <g class="primitive">
      <text dy="0.35em">N42</text>
    </g>
  </g>
  <g transform="translate(26.52,20.81)" stroke="#000000">
    <g class="primitive">
      <text dy="0.35em">N22</text>
    </g>
  </g>
  <g transform="translate(20.15,23.57)" stroke="#000000">
    <g class="primitive">
      <text dy="0.35em">N23</text>
    </g>
  </g>
  <g transform="translate(20,22.19)" stroke="#000000">
    <g class="primitive">
      <text dy="0.35em">N43</text>
    </g>
  </g>
  <g transform="translate(6.38,19.43)" stroke="#000000">
    <g class="primitive">
      <text dy="0.35em">N53</text>
    </g>
  </g>
  <g transform="translate(6.08,13.92)" stroke="#000000">
    <g class="primitive">
      <text dy="0.35em">N58</text>
    </g>
  </g>
  <g transform="translate(80.62,26.33)" stroke="#000000">
    <g class="primitive">
      <text dy="0.35em">N24</text>
    </g>
  </g>
  <g transform="translate(78.82,29.08)" stroke="#000000">
    <g class="primitive">
      <text dy="0.35em">N25</text>
    </g>
  </g>
  <g transform="translate(63.09,27.7)" stroke="#000000">
    <g class="primitive">
      <text dy="0.35em">N44</text>
    </g>
  </g>
  <g transform="translate(39.77,31.84)" stroke="#000000">
    <g class="primitive">
      <text dy="0.35em">N26</text>
    </g>
  </g>
  <g transform="translate(53.75,34.6)" stroke="#000000">
    <g class="primitive">
      <text dy="0.35em">N27</text>
    </g>
  </g>
  <g transform="translate(38.28,33.22)" stroke="#000000">
    <g class="primitive">
      <text dy="0.35em">N45</text>
    </g>
  </g>
  <g transform="translate(29.51,30.46)" stroke="#000000">
    <g class="primitive">
      <text dy="0.35em">N54</text>
    </g>
  </g>
  <g transform="translate(48.13,37.35)" stroke="#000000">
    <g class="primitive">
      <text dy="0.35em">N28</text>
    </g>
  </g>
  <g transform="translate(51.19,40.11)" stroke="#000000">
    <g class="primitive">
      <text dy="0.35em">N29</text>
    </g>
  </g>
  <g transform="translate(35.39,38.73)" stroke="#000000">
    <g class="primitive">
      <text dy="0.35em">N46</text>
    </g>
  </g>
  <g transform="translate(55.4,42.87)" stroke="#000000">
    <g class="primitive">
      <text dy="0.35em">N30</text>
    </g>
  </g>
  <g transform="translate(48.22,45.62)" stroke="#000000">
    <g class="primitive">
      <text dy="0.35em">N31</text>
    </g>
  </g>
  <g transform="translate(43.41,44.24)" stroke="#000000">
    <g class="primitive">
      <text dy="0.35em">N47</text>
    </g>
  </g>
  <g transform="translate(29.54,41.49)" stroke="#000000">
    <g class="primitive">
      <text dy="0.35em">N55</text>
    </g>
  </g>
  <g transform="translate(24.87,35.97)" stroke="#000000">
    <g class="primitive">
      <text dy="0.35em">N59</text>
    </g>
  </g>
  <g transform="translate(5.63,24.95)" stroke="#000000">
    <g class="primitive">
      <text dy="0.35em"></text>
    </g>
  </g>
  <g transform="translate(29.05,48.38)" stroke="#000000">
    <g class="primitive">
      <text dy="0.35em">N0</text>
    </g>
  </g>
  <g transform="translate(28.57,51.13)" stroke="#000000">
    <g class="primitive">
      <text dy="0.35em">N1</text>
    </g>
  </g>
  <g transform="translate(25.47,49.76)" stroke="#000000">
    <g class="primitive">
      <text dy="0.35em">N32</text>
    </g>
  </g>
  <g transform="translate(30.23,53.89)" stroke="#000000">
    <g class="primitive">
      <text dy="0.35em">N2</text>
    </g>
  </g>
  <g transform="translate(33.55,56.65)" stroke="#000000">
    <g class="primitive">
      <text dy="0.35em">N3</text>
    </g>
  </g>
  <g transform="translate(24,55.27)" stroke="#000000">
    <g class="primitive">
      <text dy="0.35em">N33</text>
    </g>
  </g>
  <g transform="translate(18.1,52.51)" stroke="#000000">
    <g class="primitive">
      <text dy="0.35em">N48</text>
    </g>
  </g>
  <g transform="translate(37.36,59.4)" stroke="#000000">
    <g class="primitive">
      <text dy="0.35em">N4</text>
    </g>
  </g>
  <g transform="translate(29.67,62.16)" stroke="#000000">
    <g class="primitive">
      <text dy="0.35em">N5</text>
    </g>
  </g>
  <g transform="translate(23.98,60.78)" stroke="#000000">
    <g class="primitive">
      <text dy="0.35em">N34</text>
    </g>
  </g>
  <g transform="translate(34.61,64.92)" stroke="#000000">
    <g class="primitive">
      <text dy="0.35em">N6</text>
    </g>
  </g>
  <g transform="translate(29.03,67.67)" stroke="#000000">
    <g class="primitive">
      <text dy="0.35em">N7</text>
    </g>
  </g>
  <g transform="translate(27.76,66.3)" stroke="#000000">
    <g class="primitive">
      <text dy="0.35em">N35</text>
    </g>
  </g>
  <g transform="translate(22.02,63.54)" stroke="#000000">
    <g class="primitive">
      <text dy="0.35em">N49</text>
    </g>
  </g>
  <g transform="translate(17.58,58.03)" stroke="#000000">
    <g class="primitive">
      <text dy="0.35em">N56</text>
    </g>
  </g>
  <g transform="translate(41.69,70.43)" stroke="#000000">
    <g class="primitive">
      <text dy="0.35em">N8</text>
    </g>
  </g>
  <g transform="translate(35.52,73.19)" stroke="#000000">
    <g class="primitive">
      <text dy="0.35em">N9</text>
    </g>
  </g>
  <g transform="translate(33.62,71.81)" stroke="#000000">
    <g class="primitive">
      <text dy="0.35em">N36</text>
    </g>
  </g>
  <g transform="translate(52.94,75.94)" stroke="#000000">
    <g class="primitive">
      <text dy="0.35em">N10</text>
    </g>
  </g>
  <g transform="translate(34.08,78.7)" stroke="#000000">
    <g class="primitive">
      <text dy="0.35em">N11</text>
    </g>
  </g>
  <g stroke-opacity="1" fill-opacity="1" font-size="1.41" stroke-width="0.1" id="img-29b4c979-6">
    <g transform="translate(34.08,78.7)" stroke="#000000">
      <g class="primitive">
        <text dy="0.35em">N11</text>
      </g>
    </g>
    <g transform="translate(33.61,77.32)" stroke="#000000">
      <g class="primitive">
        <text dy="0.35em">N37</text>
      </g>
    </g>
    <g transform="translate(25.79,74.57)" stroke="#000000">
      <g class="primitive">
        <text dy="0.35em">N50</text>
      </g>
    </g>
    <g transform="translate(30.72,81.46)" stroke="#000000">
      <g class="primitive">
        <text dy="0.35em">N12</text>
      </g>
    </g>
    <g transform="translate(25.13,84.21)" stroke="#000000">
      <g class="primitive">
        <text dy="0.35em">N13</text>
      </g>
    </g>
    <g transform="translate(16.25,82.84)" stroke="#000000">
      <g class="primitive">
        <text dy="0.35em">N38</text>
      </g>
    </g>
    <g transform="translate(28.53,86.97)" stroke="#000000">
      <g class="primitive">
        <text dy="0.35em">N14</text>
      </g>
    </g>
    <g transform="translate(23.08,89.73)" stroke="#000000">
      <g class="primitive">
        <text dy="0.35em">N15</text>
      </g>
    </g>
    <g transform="translate(17.46,88.35)" stroke="#000000">
      <g class="primitive">
        <text dy="0.35em">N39</text>
      </g>
    </g>
    <g transform="translate(14.07,85.59)" stroke="#000000">
      <g class="primitive">
        <text dy="0.35em">N51</text>
      </g>
    </g>
    <g transform="translate(12.95,80.08)" stroke="#000000">
      <g class="primitive">
        <text dy="0.35em">N57</text>
      </g>
    </g>
    <g transform="translate(11.84,69.05)" stroke="#000000">
      <g class="primitive">
        <text dy="0.35em">N60</text>
      </g>
    </g>
    <g transform="translate(5.63,47)" stroke="#000000">
      <g class="primitive">
        <text dy="0.35em"></text>
      </g>
    </g>
  </g>
</g>
</svg>
