<?xml version="1.0" encoding="UTF-8"?>
<svg xmlns="http://www.w3.org/2000/svg"
     xmlns:xlink="http://www.w3.org/1999/xlink"
     version="1.2"
     width="150mm" height="48mm" viewBox="0 0 150 48"
     stroke="none"
     fill="#000000"
     stroke-width="0.3"
     font-size="3.88"
>
<defs>
  <marker id="arrow" markerWidth="15" markerHeight="7" refX="5" refY="3.5" orient="auto" markerUnits="strokeWidth">
    <path d="M0,0 L15,3.5 L0,7 z" stroke="context-stroke" fill="context-stroke"/>
  </marker>
</defs>
<g stroke-opacity="1" stroke-width="0.3" id="img-29b4c979-1">
  <g transform="translate(12.95,2.18)" stroke="#1442A9">
    <path fill="none" d="M-9.2,0 L9.2,0 " class="primitive"/>
  </g>
  <g transform="translate(5.92,7.64)" stroke="#1442A9">
    <path fill="none" d="M-2.17,0 L2.17,0 " class="primitive"/>
  </g>
  <g transform="translate(11.34,13.09)" stroke="#CA7C55">
    <path fill="none" d="M-1.16,0 L1.16,0 " class="primitive"/>
  </g>
  <g transform="translate(29.37,18.55)" stroke="#1442A9">
    <path fill="none" d="M-1.99,0 L1.99,0 " class="primitive"/>
  </g>
  <g transform="translate(44.5,24)" stroke="#1442A9">
    <path fill="none" d="M-0.85,0 L0.85,0 " class="primitive"/>
  </g>
  <g transform="translate(46.49,29.45)" stroke="#1442A9">
    <path fill="none" d="M-0.54,0 L0.54,0 " class="primitive"/>
  </g>
  <g transform="translate(49.15,34.91)" stroke="#1442A9">
    <path fill="none" d="M-1.2,0 L1.2,0 " class="primitive"/>
  </g>
  <g transform="translate(67.56,40.36)" stroke="#1442A9">
    <path fill="none" d="M-11.19,0 L11.19,0 " class="primitive"/>
  </g>
  <g transform="translate(63.53,45.82)" stroke="#1442A9">
    <path fill="none" d="M-7.16,0 L7.16,0 " class="primitive"/>
  </g>
  <g transform="translate(52.16,43.09)" stroke="#1442A9">
    <path fill="none" d="M-4.21,0 L4.21,0 " class="primitive"/>
  </g>
  <g transform="translate(56.37,43.09)" stroke="#1442A9">
    <path fill="none" d="M0,2.73 L0,-2.73 " class="primitive"/>
  </g>
  <g transform="translate(46.95,39)" stroke="#CA7C55">
    <path fill="none" d="M-1,0 L1,0 " class="primitive"/>
  </g>
  <g transform="translate(47.95,39)" stroke="#CA7C55">
    <path fill="none" d="M0,4.09 L0,-4.09 " class="primitive"/>
  </g>
  <g transform="translate(44.8,34.23)" stroke="#1442A9">
    <path fill="none" d="M-1.16,0 L1.16,0 " class="primitive"/>
  </g>
  <g transform="translate(45.95,34.23)" stroke="#1442A9">
    <path fill="none" d="M0,4.77 L0,-4.77 " class="primitive"/>
  </g>
  <g transform="translate(35.51,29.11)" stroke="#1442A9">
    <path fill="none" d="M-8.13,0 L8.13,0 " class="primitive"/>
  </g>
  <g transform="translate(43.64,29.11)" stroke="#1442A9">
    <path fill="none" d="M0,5.11 L0,-5.11 " class="primitive"/>
  </g>
  <g transform="translate(18.78,23.83)" stroke="#1442A9">
    <path fill="none" d="M-8.6,0 L8.6,0 " class="primitive"/>
  </g>
  <g transform="translate(27.38,23.83)" stroke="#1442A9">
    <path fill="none" d="M0,5.28 L0,-5.28 " class="primitive"/>
  </g>
  <g transform="translate(6.97,18.46)" stroke="#1442A9">
    <path fill="none" d="M-3.22,0 L3.22,0 " class="primitive"/>
  </g>
  <g transform="translate(10.19,18.46)" stroke="#1442A9">
    <path fill="none" d="M0,5.37 L0,-5.37 " class="primitive"/>
  </g>
  <g transform="translate(3.75,13.05)" stroke="#000000">
    <path fill="none" d="M0,0 L0,0 " class="primitive"/>
  </g>
  <g transform="translate(3.75,13.05)" stroke="#000000">
    <path fill="none" d="M0,5.41 L0,-5.41 " class="primitive"/>
  </g>
  <g transform="translate(3.75,7.62)" stroke="#000000">
    <path fill="none" d="M0,0 L0,0 " class="primitive"/>
  </g>
  <g transform="translate(3.75,7.62)" stroke="#000000">
    <path fill="none" d="M0,5.43 L0,-5.43 " class="primitive"/>
  </g>
</g>
<g fill-opacity="1" id="img-29b4c979-2">
  <g transform="translate(22.16,2.18)" fill="#1442A9">
    <circle cx="0" cy="0" r="0.75" class="primitive"/>
  </g>
  <g transform="translate(8.09,7.64)" fill="#1442A9">
    <circle cx="0" cy="0" r="0.75" class="primitive"/>
  </g>
  <g transform="translate(12.5,13.09)" fill="#CA7C55">
    <circle cx="0" cy="0" r="0.75" class="primitive"/>
  </g>
  <g transform="translate(31.36,18.55)" fill="#1442A9">
    <circle cx="0" cy="0" r="0.75" class="primitive"/>
  </g>
  <g transform="translate(45.35,24)" fill="#1442A9">
    <circle cx="0" cy="0" r="0.75" class="primitive"/>
  </g>
  <g transform="translate(47.03,29.45)" fill="#1442A9">
    <circle cx="0" cy="0" r="0.75" class="primitive"/>
  </g>
  <g transform="translate(50.34,34.91)" fill="#1442A9">
    <circle cx="0" cy="0" r="0.75" class="primitive"/>
  </g>
  <g transform="translate(78.75,40.36)" fill="#1442A9">
    <circle cx="0" cy="0" r="0.75" class="primitive"/>
  </g>
  <g transform="translate(70.69,45.82)" fill="#1442A9">
    <circle cx="0" cy="0" r="0.75" class="primitive"/>
  </g>
  <g transform="translate(56.37,43.09)" fill="#1442A9">
    <circle cx="0" cy="0" r="0.75" class="primitive"/>
  </g>
  <g transform="translate(47.95,39)" fill="#CA7C55">
    <circle cx="0" cy="0" r="0.75" class="primitive"/>
  </g>
  <g transform="translate(45.95,34.23)" fill="#1442A9">
    <circle cx="0" cy="0" r="0.75" class="primitive"/>
  </g>
  <g transform="translate(43.64,29.11)" fill="#1442A9">
    <circle cx="0" cy="0" r="0.75" class="primitive"/>
  </g>
  <g transform="translate(27.38,23.83)" fill="#1442A9">
    <circle cx="0" cy="0" r="0.75" class="primitive"/>
  </g>
  <g transform="translate(10.19,18.46)" fill="#1442A9">
    <circle cx="0" cy="0" r="0.75" class="primitive"/>
  </g>
  <g transform="translate(3.75,13.05)" fill="#000000">
    <circle cx="0" cy="0" r="0.75" class="primitive"/>
  </g>
  <g transform="translate(3.75,7.62)" fill="#000000">
    <circle cx="0" cy="0" r="0.75" class="primitive"/>
  </g>
</g>
<g stroke-opacity="1" fill-opacity="1" font-size="1.41" stroke-width="0.1" id="img-29b4c979-3">
  <g transform="translate(24.03,2.18)" stroke="#000000">
    <g class="primitive">
      <text dy="0.35em">N8</text>
    </g>
  </g>
  <g transform="translate(9.97,7.64)" stroke="#000000">
    <g class="primitive">
      <text dy="0.35em">N7</text>
    </g>
  </g>
  <g transform="translate(14.38,13.09)" stroke="#000000">
    <g class="primitive">
      <text dy="0.35em">N6</text>
    </g>
  </g>
  <g transform="translate(33.23,18.55)" stroke="#000000">
    <g class="primitive">
      <text dy="0.35em">N5</text>
    </g>
  </g>
  <g transform="translate(47.22,24)" stroke="#000000">
    <g class="primitive">
      <text dy="0.35em">N4</text>
    </g>
  </g>
  <g transform="translate(48.91,29.45)" stroke="#000000">
    <g class="primitive">
      <text dy="0.35em">N3</text>
    </g>
  </g>
  <g transform="translate(52.22,34.91)" stroke="#000000">
    <g class="primitive">
      <text dy="0.35em">N2</text>
    </g>
  </g>
  <g transform="translate(80.62,40.36)" stroke="#000000">
    <g class="primitive">
      <text dy="0.35em">N0</text>
    </g>
  </g>
  <g transform="translate(72.56,45.82)" stroke="#000000">
    <g class="primitive">
      <text dy="0.35em">N1</text>
    </g>
  </g>
  <g transform="translate(58.24,43.09)" stroke="#000000">
    <g class="primitive">
      <text dy="0.35em">N9</text>
    </g>
  </g>
  <g transform="translate(49.83,39)" stroke="#000000">
    <g class="primitive">
      <text dy="0.35em">N10</text>
    </g>
  </g>
  <g transform="translate(47.83,34.23)" stroke="#000000">
    <g class="primitive">
      <text dy="0.35em">N11</text>
    </g>
  </g>
  <g transform="translate(45.52,29.11)" stroke="#000000">
    <g class="primitive">
      <text dy="0.35em">N12</text>
    </g>
  </g>
  <g transform="translate(29.25,23.83)" stroke="#000000">
    <g class="primitive">
      <text dy="0.35em">N13</text>
    </g>
  </g>
  <g transform="translate(12.06,18.46)" stroke="#000000">
    <g class="primitive">
      <text dy="0.35em">N14</text>
    </g>
  </g>
  <g transform="translate(5.63,13.05)" stroke="#000000">
    <g class="primitive">
      <text dy="0.35em"></text>
    </g>
  </g>
  <g transform="translate(5.63,7.62)" stroke="#000000">
    <g class="primitive">
      <text dy="0.35em"></text>
    </g>
  </g>
</g>
</svg>
