<?xml version="1.0" encoding="UTF-8"?>
<svg xmlns="http://www.w3.org/2000/svg"
     xmlns:xlink="http://www.w3.org/1999/xlink"
     version="1.2"
     width="150mm" height="96mm" viewBox="0 0 150 96"
     stroke="none"
     fill="#000000"
     stroke-width="0.3"
     font-size="3.88"
>
<defs>
  <marker id="arrow" markerWidth="15" markerHeight="7" refX="5" refY="3.5" orient="auto" markerUnits="strokeWidth">
    <path d="M0,0 L15,3.5 L0,7 z" stroke="context-stroke" fill="context-stroke"/>
  </marker>
</defs>
<g stroke-opacity="1" stroke-width="0.3" id="img-29b4c979-1">
  <g transform="translate(4.38,4.36)" stroke="#05299A">
    <path fill="none" d="M-0.63,0 L0.63,0 " class="primitive"/>
  </g>
  <g transform="translate(7.99,7.09)" stroke="#05299A">
    <path fill="none" d="M-4.24,0 L4.24,0 " class="primitive"/>
  </g>
  <g transform="translate(8.88,9.82)" stroke="#05299A">
    <path fill="none" d="M-4.92,0 L4.92,0 " class="primitive"/>
  </g>
  <g transform="translate(12.01,12.55)" stroke="#05299A">
    <path fill="none" d="M-0.57,0 L0.57,0 " class="primitive"/>
  </g>
  <g transform="translate(14.81,15.27)" stroke="#05299A">
    <path fill="none" d="M-1.66,0 L1.66,0 " class="primitive"/>
  </g>
  <g transform="translate(18.17,18)" stroke="#05299A">
    <path fill="none" d="M-0.01,0 L0.01,0 " class="primitive"/>
  </g>
  <g transform="translate(34.49,20.73)" stroke="#05299A">
    <path fill="none" d="M-1.11,0 L1.11,0 " class="primitive"/>
  </g>
  <g transform="translate(36.67,23.45)" stroke="#05299A">
    <path fill="none" d="M-2.36,0 L2.36,0 " class="primitive"/>
  </g>
  <g transform="translate(39.46,26.18)" stroke="#05299A">
    <path fill="none" d="M-1.4,0 L1.4,0 " class="primitive"/>
  </g>
  <g transform="translate(41.98,28.91)" stroke="#05299A">
    <path fill="none" d="M-3.05,0 L3.05,0 " class="primitive"/>
  </g>
  <g transform="translate(41.12,31.64)" stroke="#05299A">
    <path fill="none" d="M-2.18,0 L2.18,0 " class="primitive"/>
  </g>
  <g transform="translate(39.82,34.36)" stroke="#05299A">
    <path fill="none" d="M-0.4,0 L0.4,0 " class="primitive"/>
  </g>
  <g transform="translate(42.99,37.09)" stroke="#2E7B89">
    <path fill="none" d="M-1.83,0 L1.83,0 " class="primitive"/>
  </g>
  <g transform="translate(42.94,39.82)" stroke="#05299A">
    <path fill="none" d="M-0.9,0 L0.9,0 " class="primitive"/>
  </g>
  <g transform="translate(43.46,42.55)" stroke="#05299A">
    <path fill="none" d="M-1.32,0 L1.32,0 " class="primitive"/>
  </g>
  <g transform="translate(46.44,45.27)" stroke="#05299A">
    <path fill="none" d="M-3.45,0 L3.45,0 " class="primitive"/>
  </g>
  <g transform="translate(43.97,48)" stroke="#05299A">
    <path fill="none" d="M-0.18,0 L0.18,0 " class="primitive"/>
  </g>
  <g transform="translate(44.73,50.73)" stroke="#05299A">
    <path fill="none" d="M-0.35,0 L0.35,0 " class="primitive"/>
  </g>
  <g transform="translate(54.32,53.45)" stroke="#05299A">
    <path fill="none" d="M-5.84,0 L5.84,0 " class="primitive"/>
  </g>
  <g transform="translate(53.88,56.18)" stroke="#2E7B89">
    <path fill="none" d="M-1.08,0 L1.08,0 " class="primitive"/>
  </g>
  <g transform="translate(53.28,58.91)" stroke="#05299A">
    <path fill="none" d="M-0.11,0 L0.11,0 " class="primitive"/>
  </g>
  <g transform="translate(55.18,61.64)" stroke="#05299A">
    <path fill="none" d="M-0.7,0 L0.7,0 " class="primitive"/>
  </g>
  <g transform="translate(56.52,64.36)" stroke="#05299A">
    <path fill="none" d="M-0.55,0 L0.55,0 " class="primitive"/>
  </g>
  <g transform="translate(57.35,67.09)" stroke="#05299A">
    <path fill="none" d="M-0.42,0 L0.42,0 " class="primitive"/>
  </g>
  <g transform="translate(59.93,69.82)" stroke="#05299A">
    <path fill="none" d="M-2.77,0 L2.77,0 " class="primitive"/>
  </g>
  <g transform="translate(58.03,72.55)" stroke="#05299A">
    <path fill="none" d="M-0.59,0 L0.59,0 " class="primitive"/>
  </g>
  <g transform="translate(59.73,75.27)" stroke="#05299A">
    <path fill="none" d="M-1.03,0 L1.03,0 " class="primitive"/>
  </g>
  <g transform="translate(65.69,78)" stroke="#05299A">
    <path fill="none" d="M-3.68,0 L3.68,0 " class="primitive"/>
  </g>
  <g transform="translate(71.88,80.73)" stroke="#05299A">
    <path fill="none" d="M-2.08,0 L2.08,0 " class="primitive"/>
  </g>
  <g transform="translate(73.83,83.45)" stroke="#05299A">
    <path fill="none" d="M-2.59,0 L2.59,0 " class="primitive"/>
  </g>
  <g transform="translate(74.26,86.18)" stroke="#05299A">
    <path fill="none" d="M-1.42,0 L1.42,0 " class="primitive"/>
  </g>
  <g transform="translate(77.01,88.91)" stroke="#05299A">
    <path fill="none" d="M-1.74,0 L1.74,0 " class="primitive"/>
  </g>
  <g transform="translate(76.67,91.64)" stroke="#05299A">
    <path fill="none" d="M-1.39,0 L1.39,0 " class="primitive"/>
  </g>
  <g transform="translate(74.06,90.27)" stroke="#05299A">
    <path fill="none" d="M-1.22,0 L1.22,0 " class="primitive"/>
  </g>
  <g transform="translate(75.27,90.27)" stroke="#05299A">
    <path fill="none" d="M0,1.36 L0,-1.36 " class="primitive"/>
  </g>
  <g transform="translate(72.04,88.23)" stroke="#05299A">
    <path fill="none" d="M-0.8,0 L0.8,0 " class="primitive"/>
  </g>
  <g transform="translate(72.84,88.23)" stroke="#05299A">
    <path fill="none" d="M0,2.05 L0,-2.05 " class="primitive"/>
  </g>
  <g transform="translate(70.52,85.84)" stroke="#05299A">
    <path fill="none" d="M-0.72,0 L0.72,0 " class="primitive"/>
  </g>
  <g transform="translate(71.24,85.84)" stroke="#05299A">
    <path fill="none" d="M0,2.39 L0,-2.39 " class="primitive"/>
  </g>
  <g transform="translate(65.9,83.28)" stroke="#05299A">
    <path fill="none" d="M-3.9,0 L3.9,0 " class="primitive"/>
  </g>
  <g transform="translate(69.8,83.28)" stroke="#05299A">
    <path fill="none" d="M0,2.56 L0,-2.56 " class="primitive"/>
  </g>
  <g transform="translate(60.35,80.64)" stroke="#05299A">
    <path fill="none" d="M-1.65,0 L1.65,0 " class="primitive"/>
  </g>
  <g transform="translate(62,80.64)" stroke="#05299A">
    <path fill="none" d="M0,2.64 L0,-2.64 " class="primitive"/>
  </g>
  <g transform="translate(58.07,77.96)" stroke="#05299A">
    <path fill="none" d="M-0.64,0 L0.64,0 " class="primitive"/>
  </g>
  <g transform="translate(58.71,77.96)" stroke="#05299A">
    <path fill="none" d="M0,2.68 L0,-2.68 " class="primitive"/>
  </g>
  <g transform="translate(57.3,75.25)" stroke="#05299A">
    <path fill="none" d="M-0.14,0 L0.14,0 " class="primitive"/>
  </g>
  <g transform="translate(57.43,75.25)" stroke="#05299A">
    <path fill="none" d="M0,2.71 L0,-2.71 " class="primitive"/>
  </g>
  <g transform="translate(57.05,72.53)" stroke="#05299A">
    <path fill="none" d="M-0.11,0 L0.11,0 " class="primitive"/>
  </g>
  <g transform="translate(57.16,72.53)" stroke="#05299A">
    <path fill="none" d="M0,2.72 L0,-2.72 " class="primitive"/>
  </g>
  <g transform="translate(56.46,69.81)" stroke="#05299A">
    <path fill="none" d="M-0.48,0 L0.48,0 " class="primitive"/>
  </g>
  <g transform="translate(56.94,69.81)" stroke="#05299A">
    <path fill="none" d="M0,2.72 L0,-2.72 " class="primitive"/>
  </g>
  <g stroke-opacity="1" stroke-width="0.3" id="img-29b4c979-2">
    <g transform="translate(56.94,69.81)" stroke="#05299A">
      <path fill="none" d="M0,2.72 L0,-2.72 " class="primitive"/>
    </g>
    <g transform="translate(55.23,67.09)" stroke="#05299A">
      <path fill="none" d="M-0.74,0 L0.74,0 " class="primitive"/>
    </g>
    <g transform="translate(55.97,67.09)" stroke="#05299A">
      <path fill="none" d="M0,2.72 L0,-2.72 " class="primitive"/>
    </g>
    <g transform="translate(53.83,64.36)" stroke="#05299A">
      <path fill="none" d="M-0.66,0 L0.66,0 " class="primitive"/>
    </g>
    <g transform="translate(54.49,64.36)" stroke="#05299A">
      <path fill="none" d="M0,2.73 L0,-2.73 " class="primitive"/>
    </g>
    <g transform="translate(52.98,61.64)" stroke="#05299A">
      <path fill="none" d="M-0.19,0 L0.19,0 " class="primitive"/>
    </g>
    <g transform="translate(53.17,61.64)" stroke="#05299A">
      <path fill="none" d="M0,2.73 L0,-2.73 " class="primitive"/>
    </g>
    <g transform="translate(50.64,58.91)" stroke="#05299A">
      <path fill="none" d="M-2.15,0 L2.15,0 " class="primitive"/>
    </g>
    <g transform="translate(52.79,58.91)" stroke="#05299A">
      <path fill="none" d="M0,2.73 L0,-2.73 " class="primitive"/>
    </g>
    <g transform="translate(46.43,56.18)" stroke="#2E7B89">
      <path fill="none" d="M-2.05,0 L2.05,0 " class="primitive"/>
    </g>
    <g transform="translate(48.48,56.18)" stroke="#2E7B89">
      <path fill="none" d="M0,2.73 L0,-2.73 " class="primitive"/>
    </g>
    <g transform="translate(44.08,53.45)" stroke="#05299A">
      <path fill="none" d="M-0.29,0 L0.29,0 " class="primitive"/>
    </g>
    <g transform="translate(44.38,53.45)" stroke="#05299A">
      <path fill="none" d="M0,2.73 L0,-2.73 " class="primitive"/>
    </g>
    <g transform="translate(43.39,50.73)" stroke="#05299A">
      <path fill="none" d="M-0.4,0 L0.4,0 " class="primitive"/>
    </g>
    <g transform="translate(43.79,50.73)" stroke="#05299A">
      <path fill="none" d="M0,2.73 L0,-2.73 " class="primitive"/>
    </g>
    <g transform="translate(42.56,48)" stroke="#05299A">
      <path fill="none" d="M-0.43,0 L0.43,0 " class="primitive"/>
    </g>
    <g transform="translate(42.99,48)" stroke="#05299A">
      <path fill="none" d="M0,2.73 L0,-2.73 " class="primitive"/>
    </g>
    <g transform="translate(42.09,45.27)" stroke="#05299A">
      <path fill="none" d="M-0.05,0 L0.05,0 " class="primitive"/>
    </g>
    <g transform="translate(42.14,45.27)" stroke="#05299A">
      <path fill="none" d="M0,2.73 L0,-2.73 " class="primitive"/>
    </g>
    <g transform="translate(41.6,42.55)" stroke="#05299A">
      <path fill="none" d="M-0.44,0 L0.44,0 " class="primitive"/>
    </g>
    <g transform="translate(42.04,42.55)" stroke="#05299A">
      <path fill="none" d="M0,2.73 L0,-2.73 " class="primitive"/>
    </g>
    <g transform="translate(40.29,39.82)" stroke="#05299A">
      <path fill="none" d="M-0.87,0 L0.87,0 " class="primitive"/>
    </g>
    <g transform="translate(41.16,39.82)" stroke="#05299A">
      <path fill="none" d="M0,2.73 L0,-2.73 " class="primitive"/>
    </g>
    <g transform="translate(39.18,37.09)" stroke="#05299A">
      <path fill="none" d="M-0.24,0 L0.24,0 " class="primitive"/>
    </g>
    <g transform="translate(39.42,37.09)" stroke="#05299A">
      <path fill="none" d="M0,2.73 L0,-2.73 " class="primitive"/>
    </g>
    <g transform="translate(38.93,34.36)" stroke="#2E7B89">
      <path fill="none" d="M-0.01,0 L0.01,0 " class="primitive"/>
    </g>
    <g transform="translate(38.94,34.36)" stroke="#2E7B89">
      <path fill="none" d="M0,2.73 L0,-2.73 " class="primitive"/>
    </g>
    <g transform="translate(38.49,31.64)" stroke="#05299A">
      <path fill="none" d="M-0.43,0 L0.43,0 " class="primitive"/>
    </g>
    <g transform="translate(38.92,31.64)" stroke="#05299A">
      <path fill="none" d="M0,2.73 L0,-2.73 " class="primitive"/>
    </g>
    <g transform="translate(36.18,28.91)" stroke="#05299A">
      <path fill="none" d="M-1.88,0 L1.88,0 " class="primitive"/>
    </g>
    <g transform="translate(38.06,28.91)" stroke="#05299A">
      <path fill="none" d="M0,2.73 L0,-2.73 " class="primitive"/>
    </g>
    <g transform="translate(33.84,26.18)" stroke="#05299A">
      <path fill="none" d="M-0.46,0 L0.46,0 " class="primitive"/>
    </g>
    <g transform="translate(34.3,26.18)" stroke="#05299A">
      <path fill="none" d="M0,2.73 L0,-2.73 " class="primitive"/>
    </g>
    <g transform="translate(25.77,23.45)" stroke="#05299A">
      <path fill="none" d="M-7.61,0 L7.61,0 " class="primitive"/>
    </g>
    <g transform="translate(33.38,23.45)" stroke="#05299A">
      <path fill="none" d="M0,2.73 L0,-2.73 " class="primitive"/>
    </g>
    <g transform="translate(15.66,20.73)" stroke="#05299A">
      <path fill="none" d="M-2.5,0 L2.5,0 " class="primitive"/>
    </g>
    <g transform="translate(18.16,20.73)" stroke="#05299A">
      <path fill="none" d="M0,2.73 L0,-2.73 " class="primitive"/>
    </g>
    <g transform="translate(12.29,18)" stroke="#2E7B89">
      <path fill="none" d="M-0.86,0 L0.86,0 " class="primitive"/>
    </g>
    <g transform="translate(13.15,18)" stroke="#2E7B89">
      <path fill="none" d="M0,2.73 L0,-2.73 " class="primitive"/>
    </g>
    <g transform="translate(7.7,15.27)" stroke="#2E7B89">
      <path fill="none" d="M-3.74,0 L3.74,0 " class="primitive"/>
    </g>
    <g transform="translate(11.44,15.27)" stroke="#2E7B89">
      <path fill="none" d="M0,2.73 L0,-2.73 " class="primitive"/>
    </g>
    <g transform="translate(3.86,12.55)" stroke="#05299A">
      <path fill="none" d="M-0.11,0 L0.11,0 " class="primitive"/>
    </g>
    <g transform="translate(3.96,12.55)" stroke="#05299A">
      <path fill="none" d="M0,2.73 L0,-2.73 " class="primitive"/>
    </g>
    <g transform="translate(3.75,9.82)" stroke="#000000">
      <path fill="none" d="M0,0 L0,0 " class="primitive"/>
    </g>
    <g transform="translate(3.75,9.82)" stroke="#000000">
      <path fill="none" d="M0,2.73 L0,-2.73 " class="primitive"/>
    </g>
    <g transform="translate(3.75,7.09)" stroke="#000000">
      <path fill="none" d="M0,0 L0,0 " class="primitive"/>
    </g>
    <g transform="translate(3.75,7.09)" stroke="#000000">
      <path fill="none" d="M0,2.73 L0,-2.73 " class="primitive"/>
    </g>
  </g>
</g>
<g fill-opacity="1" id="img-29b4c979-3">
  <g transform="translate(5.01,4.36)" fill="#05299A">
    <circle cx="0" cy="0" r="0.75" class="primitive"/>
  </g>
  <g transform="translate(12.24,7.09)" fill="#05299A">
    <circle cx="0" cy="0" r="0.75" class="primitive"/>
  </g>
  <g transform="translate(13.8,9.82)" fill="#05299A">
    <circle cx="0" cy="0" r="0.75" class="primitive"/>
  </g>
  <g transform="translate(12.59,12.55)" fill="#05299A">
    <circle cx="0" cy="0" r="0.75" class="primitive"/>
  </g>
  <g transform="translate(16.46,15.27)" fill="#05299A">
    <circle cx="0" cy="0" r="0.75" class="primitive"/>
  </g>
  <g transform="translate(18.18,18)" fill="#05299A">
    <circle cx="0" cy="0" r="0.75" class="primitive"/>
  </g>
  <g transform="translate(35.59,20.73)" fill="#05299A">
    <circle cx="0" cy="0" r="0.75" class="primitive"/>
  </g>
  <g transform="translate(39.03,23.45)" fill="#05299A">
    <circle cx="0" cy="0" r="0.75" class="primitive"/>
  </g>
  <g transform="translate(40.86,26.18)" fill="#05299A">
    <circle cx="0" cy="0" r="0.75" class="primitive"/>
  </g>
  <g transform="translate(45.03,28.91)" fill="#05299A">
    <circle cx="0" cy="0" r="0.75" class="primitive"/>
  </g>
  <g transform="translate(43.31,31.64)" fill="#05299A">
    <circle cx="0" cy="0" r="0.75" class="primitive"/>
  </g>
  <g transform="translate(40.22,34.36)" fill="#05299A">
    <circle cx="0" cy="0" r="0.75" class="primitive"/>
  </g>
  <g transform="translate(44.82,37.09)" fill="#2E7B89">
    <circle cx="0" cy="0" r="0.75" class="primitive"/>
  </g>
  <g transform="translate(43.85,39.82)" fill="#05299A">
    <circle cx="0" cy="0" r="0.75" class="primitive"/>
  </g>
  <g transform="translate(44.78,42.55)" fill="#05299A">
    <circle cx="0" cy="0" r="0.75" class="primitive"/>
  </g>
  <g transform="translate(49.89,45.27)" fill="#05299A">
    <circle cx="0" cy="0" r="0.75" class="primitive"/>
  </g>
  <g transform="translate(44.14,48)" fill="#05299A">
    <circle cx="0" cy="0" r="0.75" class="primitive"/>
  </g>
  <g transform="translate(45.08,50.73)" fill="#05299A">
    <circle cx="0" cy="0" r="0.75" class="primitive"/>
  </g>
  <g transform="translate(60.16,53.45)" fill="#05299A">
    <circle cx="0" cy="0" r="0.75" class="primitive"/>
  </g>
  <g transform="translate(54.96,56.18)" fill="#2E7B89">
    <circle cx="0" cy="0" r="0.75" class="primitive"/>
  </g>
  <g transform="translate(53.39,58.91)" fill="#05299A">
    <circle cx="0" cy="0" r="0.75" class="primitive"/>
  </g>
  <g transform="translate(55.88,61.64)" fill="#05299A">
    <circle cx="0" cy="0" r="0.75" class="primitive"/>
  </g>
  <g transform="translate(57.07,64.36)" fill="#05299A">
    <circle cx="0" cy="0" r="0.75" class="primitive"/>
  </g>
  <g transform="translate(57.77,67.09)" fill="#05299A">
    <circle cx="0" cy="0" r="0.75" class="primitive"/>
  </g>
  <g transform="translate(62.69,69.82)" fill="#05299A">
    <circle cx="0" cy="0" r="0.75" class="primitive"/>
  </g>
  <g transform="translate(58.62,72.55)" fill="#05299A">
    <circle cx="0" cy="0" r="0.75" class="primitive"/>
  </g>
  <g transform="translate(60.76,75.27)" fill="#05299A">
    <circle cx="0" cy="0" r="0.75" class="primitive"/>
  </g>
  <g transform="translate(69.37,78)" fill="#05299A">
    <circle cx="0" cy="0" r="0.75" class="primitive"/>
  </g>
  <g transform="translate(73.95,80.73)" fill="#05299A">
    <circle cx="0" cy="0" r="0.75" class="primitive"/>
  </g>
  <g transform="translate(76.41,83.45)" fill="#05299A">
    <circle cx="0" cy="0" r="0.75" class="primitive"/>
  </g>
  <g transform="translate(75.69,86.18)" fill="#05299A">
    <circle cx="0" cy="0" r="0.75" class="primitive"/>
  </g>
  <g transform="translate(78.75,88.91)" fill="#05299A">
    <circle cx="0" cy="0" r="0.75" class="primitive"/>
  </g>
  <g transform="translate(78.06,91.64)" fill="#05299A">
    <circle cx="0" cy="0" r="0.75" class="primitive"/>
  </g>
  <g transform="translate(75.27,90.27)" fill="#05299A">
    <circle cx="0" cy="0" r="0.75" class="primitive"/>
  </g>
  <g transform="translate(72.84,88.23)" fill="#05299A">
    <circle cx="0" cy="0" r="0.75" class="primitive"/>
  </g>
  <g transform="translate(71.24,85.84)" fill="#05299A">
    <circle cx="0" cy="0" r="0.75" class="primitive"/>
  </g>
  <g transform="translate(69.8,83.28)" fill="#05299A">
    <circle cx="0" cy="0" r="0.75" class="primitive"/>
  </g>
  <g transform="translate(62,80.64)" fill="#05299A">
    <circle cx="0" cy="0" r="0.75" class="primitive"/>
  </g>
  <g transform="translate(58.71,77.96)" fill="#05299A">
    <circle cx="0" cy="0" r="0.75" class="primitive"/>
  </g>
  <g transform="translate(57.43,75.25)" fill="#05299A">
    <circle cx="0" cy="0" r="0.75" class="primitive"/>
  </g>
  <g transform="translate(57.16,72.53)" fill="#05299A">
    <circle cx="0" cy="0" r="0.75" class="primitive"/>
  </g>
  <g transform="translate(56.94,69.81)" fill="#05299A">
    <circle cx="0" cy="0" r="0.75" class="primitive"/>
  </g>
  <g transform="translate(55.97,67.09)" fill="#05299A">
    <circle cx="0" cy="0" r="0.75" class="primitive"/>
  </g>
  <g transform="translate(54.49,64.36)" fill="#05299A">
    <circle cx="0" cy="0" r="0.75" class="primitive"/>
  </g>
  <g transform="translate(53.17,61.64)" fill="#05299A">
    <circle cx="0" cy="0" r="0.75" class="primitive"/>
  </g>
  <g transform="translate(52.79,58.91)" fill="#05299A">
    <circle cx="0" cy="0" r="0.75" class="primitive"/>
  </g>
  <g transform="translate(48.48,56.18)" fill="#2E7B89">
    <circle cx="0" cy="0" r="0.75" class="primitive"/>
  </g>
  <g transform="translate(44.38,53.45)" fill="#05299A">
    <circle cx="0" cy="0" r="0.75" class="primitive"/>
  </g>
  <g transform="translate(43.79,50.73)" fill="#05299A">
    <circle cx="0" cy="0" r="0.75" class="primitive"/>
  </g>
  <g transform="translate(42.99,48)" fill="#05299A">
    <circle cx="0" cy="0" r="0.75" class="primitive"/>
  </g>
  <g transform="translate(42.14,45.27)" fill="#05299A">
    <circle cx="0" cy="0" r="0.75" class="primitive"/>
  </g>
  <g fill-opacity="1" id="img-29b4c979-4">
    <g transform="translate(42.14,45.27)" fill="#05299A">
      <circle cx="0" cy="0" r="0.75" class="primitive"/>
    </g>
    <g transform="translate(42.04,42.55)" fill="#05299A">
      <circle cx="0" cy="0" r="0.75" class="primitive"/>
    </g>
    <g transform="translate(41.16,39.82)" fill="#05299A">
      <circle cx="0" cy="0" r="0.75" class="primitive"/>
    </g>
    <g transform="translate(39.42,37.09)" fill="#05299A">
      <circle cx="0" cy="0" r="0.75" class="primitive"/>
    </g>
    <g transform="translate(38.94,34.36)" fill="#2E7B89">
      <circle cx="0" cy="0" r="0.75" class="primitive"/>
    </g>
    <g transform="translate(38.92,31.64)" fill="#05299A">
      <circle cx="0" cy="0" r="0.75" class="primitive"/>
    </g>
    <g transform="translate(38.06,28.91)" fill="#05299A">
      <circle cx="0" cy="0" r="0.75" class="primitive"/>
    </g>
    <g transform="translate(34.3,26.18)" fill="#05299A">
      <circle cx="0" cy="0" r="0.75" class="primitive"/>
    </g>
    <g transform="translate(33.38,23.45)" fill="#05299A">
      <circle cx="0" cy="0" r="0.75" class="primitive"/>
    </g>
    <g transform="translate(18.16,20.73)" fill="#05299A">
      <circle cx="0" cy="0" r="0.75" class="primitive"/>
    </g>
    <g transform="translate(13.15,18)" fill="#2E7B89">
      <circle cx="0" cy="0" r="0.75" class="primitive"/>
    </g>
    <g transform="translate(11.44,15.27)" fill="#2E7B89">
      <circle cx="0" cy="0" r="0.75" class="primitive"/>
    </g>
    <g transform="translate(3.96,12.55)" fill="#05299A">
      <circle cx="0" cy="0" r="0.75" class="primitive"/>
    </g>
    <g transform="translate(3.75,9.82)" fill="#000000">
      <circle cx="0" cy="0" r="0.75" class="primitive"/>
    </g>
    <g transform="translate(3.75,7.09)" fill="#000000">
      <circle cx="0" cy="0" r="0.75" class="primitive"/>
    </g>
  </g>
</g>
<g stroke-opacity="1" fill-opacity="1" font-size="1.41" stroke-width="0.1" id="img-29b4c979-5">
  <g transform="translate(6.88,4.36)" stroke="#000000">
    <g class="primitive">
      <text dy="0.35em">N32</text>
    </g>
  </g>
  <g transform="translate(14.11,7.09)" stroke="#000000">
    <g class="primitive">
      <text dy="0.35em">N31</text>
    </g>
  </g>
  <g transform="translate(15.67,9.82)" stroke="#000000">
    <g class="primitive">
      <text dy="0.35em">N30</text>
    </g>
  </g>
  <g transform="translate(14.46,12.55)" stroke="#000000">
    <g class="primitive">
      <text dy="0.35em">N29</text>
    </g>
  </g>
  <g transform="translate(18.34,15.27)" stroke="#000000">
    <g class="primitive">
      <text dy="0.35em">N28</text>
    </g>
  </g>
  <g transform="translate(20.05,18)" stroke="#000000">
    <g class="primitive">
      <text dy="0.35em">N27</text>
    </g>
  </g>
  <g transform="translate(37.47,20.73)" stroke="#000000">
    <g class="primitive">
      <text dy="0.35em">N26</text>
    </g>
  </g>
  <g transform="translate(40.9,23.45)" stroke="#000000">
    <g class="primitive">
      <text dy="0.35em">N25</text>
    </g>
  </g>
  <g transform="translate(42.73,26.18)" stroke="#000000">
    <g class="primitive">
      <text dy="0.35em">N24</text>
    </g>
  </g>
  <g transform="translate(46.91,28.91)" stroke="#000000">
    <g class="primitive">
      <text dy="0.35em">N23</text>
    </g>
  </g>
  <g transform="translate(45.18,31.64)" stroke="#000000">
    <g class="primitive">
      <text dy="0.35em">N22</text>
    </g>
  </g>
  <g transform="translate(42.09,34.36)" stroke="#000000">
    <g class="primitive">
      <text dy="0.35em">N21</text>
    </g>
  </g>
  <g transform="translate(46.69,37.09)" stroke="#000000">
    <g class="primitive">
      <text dy="0.35em">N20</text>
    </g>
  </g>
  <g transform="translate(45.72,39.82)" stroke="#000000">
    <g class="primitive">
      <text dy="0.35em">N19</text>
    </g>
  </g>
  <g transform="translate(46.66,42.55)" stroke="#000000">
    <g class="primitive">
      <text dy="0.35em">N18</text>
    </g>
  </g>
  <g transform="translate(51.77,45.27)" stroke="#000000">
    <g class="primitive">
      <text dy="0.35em">N17</text>
    </g>
  </g>
  <g transform="translate(46.02,48)" stroke="#000000">
    <g class="primitive">
      <text dy="0.35em">N16</text>
    </g>
  </g>
  <g transform="translate(46.96,50.73)" stroke="#000000">
    <g class="primitive">
      <text dy="0.35em">N15</text>
    </g>
  </g>
  <g transform="translate(62.03,53.45)" stroke="#000000">
    <g class="primitive">
      <text dy="0.35em">N14</text>
    </g>
  </g>
  <g transform="translate(56.83,56.18)" stroke="#000000">
    <g class="primitive">
      <text dy="0.35em">N13</text>
    </g>
  </g>
  <g transform="translate(55.26,58.91)" stroke="#000000">
    <g class="primitive">
      <text dy="0.35em">N12</text>
    </g>
  </g>
  <g transform="translate(57.75,61.64)" stroke="#000000">
    <g class="primitive">
      <text dy="0.35em">N11</text>
    </g>
  </g>
  <g transform="translate(58.94,64.36)" stroke="#000000">
    <g class="primitive">
      <text dy="0.35em">N10</text>
    </g>
  </g>
  <g transform="translate(59.65,67.09)" stroke="#000000">
    <g class="primitive">
      <text dy="0.35em">N9</text>
    </g>
  </g>
  <g transform="translate(64.57,69.82)" stroke="#000000">
    <g class="primitive">
      <text dy="0.35em">N8</text>
    </g>
  </g>
  <g transform="translate(60.49,72.55)" stroke="#000000">
    <g class="primitive">
      <text dy="0.35em">N7</text>
    </g>
  </g>
  <g transform="translate(62.64,75.27)" stroke="#000000">
    <g class="primitive">
      <text dy="0.35em">N6</text>
    </g>
  </g>
  <g transform="translate(71.25,78)" stroke="#000000">
    <g class="primitive">
      <text dy="0.35em">N5</text>
    </g>
  </g>
  <g transform="translate(75.83,80.73)" stroke="#000000">
    <g class="primitive">
      <text dy="0.35em">N4</text>
    </g>
  </g>
  <g transform="translate(78.29,83.45)" stroke="#000000">
    <g class="primitive">
      <text dy="0.35em">N3</text>
    </g>
  </g>
  <g transform="translate(77.56,86.18)" stroke="#000000">
    <g class="primitive">
      <text dy="0.35em">N2</text>
    </g>
  </g>
  <g transform="translate(80.62,88.91)" stroke="#000000">
    <g class="primitive">
      <text dy="0.35em">N0</text>
    </g>
  </g>
  <g transform="translate(79.93,91.64)" stroke="#000000">
    <g class="primitive">
      <text dy="0.35em">N1</text>
    </g>
  </g>
  <g transform="translate(77.15,90.27)" stroke="#000000">
    <g class="primitive">
      <text dy="0.35em">N33</text>
    </g>
  </g>
  <g transform="translate(74.71,88.23)" stroke="#000000">
    <g class="primitive">
      <text dy="0.35em">N34</text>
    </g>
  </g>
  <g transform="translate(73.12,85.84)" stroke="#000000">
    <g class="primitive">
      <text dy="0.35em">N35</text>
    </g>
  </g>
  <g transform="translate(71.67,83.28)" stroke="#000000">
    <g class="primitive">
      <text dy="0.35em">N36</text>
    </g>
  </g>
  <g transform="translate(63.88,80.64)" stroke="#000000">
    <g class="primitive">
      <text dy="0.35em">N37</text>
    </g>
  </g>
  <g transform="translate(60.58,77.96)" stroke="#000000">
    <g class="primitive">
      <text dy="0.35em">N38</text>
    </g>
  </g>
  <g transform="translate(59.31,75.25)" stroke="#000000">
    <g class="primitive">
      <text dy="0.35em">N39</text>
    </g>
  </g>
  <g transform="translate(59.03,72.53)" stroke="#000000">
    <g class="primitive">
      <text dy="0.35em">N40</text>
    </g>
  </g>
  <g transform="translate(58.81,69.81)" stroke="#000000">
    <g class="primitive">
      <text dy="0.35em">N41</text>
    </g>
  </g>
  <g transform="translate(57.85,67.09)" stroke="#000000">
    <g class="primitive">
      <text dy="0.35em">N42</text>
    </g>
  </g>
  <g transform="translate(56.36,64.36)" stroke="#000000">
    <g class="primitive">
      <text dy="0.35em">N43</text>
    </g>
  </g>
  <g transform="translate(55.05,61.64)" stroke="#000000">
    <g class="primitive">
      <text dy="0.35em">N44</text>
    </g>
  </g>
  <g transform="translate(54.67,58.91)" stroke="#000000">
    <g class="primitive">
      <text dy="0.35em">N45</text>
    </g>
  </g>
  <g transform="translate(50.36,56.18)" stroke="#000000">
    <g class="primitive">
      <text dy="0.35em">N46</text>
    </g>
  </g>
  <g transform="translate(46.25,53.45)" stroke="#000000">
    <g class="primitive">
      <text dy="0.35em">N47</text>
    </g>
  </g>
  <g transform="translate(45.66,50.73)" stroke="#000000">
    <g class="primitive">
      <text dy="0.35em">N48</text>
    </g>
  </g>
  <g transform="translate(44.87,48)" stroke="#000000">
    <g class="primitive">
      <text dy="0.35em">N49</text>
    </g>
  </g>
  <g transform="translate(44.01,45.27)" stroke="#000000">
    <g class="primitive">
      <text dy="0.35em">N50</text>
    </g>
  </g>
  <g stroke-opacity="1" fill-opacity="1" font-size="1.41" stroke-width="0.1" id="img-29b4c979-6">
    <g transform="translate(44.01,45.27)" stroke="#000000">
      <g class="primitive">
        <text dy="0.35em">N50</text>
      </g>
    </g>
    <g transform="translate(43.91,42.55)" stroke="#000000">
      <g class="primitive">
        <text dy="0.35em">N51</text>
      </g>
    </g>
    <g transform="translate(43.04,39.82)" stroke="#000000">
      <g class="primitive">
        <text dy="0.35em">N52</text>
      </g>
    </g>
    <g transform="translate(41.29,37.09)" stroke="#000000">
      <g class="primitive">
        <text dy="0.35em">N53</text>
      </g>
    </g>
    <g transform="translate(40.81,34.36)" stroke="#000000">
      <g class="primitive">
        <text dy="0.35em">N54</text>
      </g>
    </g>
    <g transform="translate(40.8,31.64)" stroke="#000000">
      <g class="primitive">
        <text dy="0.35em">N55</text>
      </g>
    </g>
    <g transform="translate(39.94,28.91)" stroke="#000000">
      <g class="primitive">
        <text dy="0.35em">N56</text>
      </g>
    </g>
    <g transform="translate(36.18,26.18)" stroke="#000000">
      <g class="primitive">
        <text dy="0.35em">N57</text>
      </g>
    </g>
    <g transform="translate(35.26,23.45)" stroke="#000000">
      <g class="primitive">
        <text dy="0.35em">N58</text>
      </g>
    </g>
    <g transform="translate(20.03,20.73)" stroke="#000000">
      <g class="primitive">
        <text dy="0.35em">N59</text>
      </g>
    </g>
    <g transform="translate(15.03,18)" stroke="#000000">
      <g class="primitive">
        <text dy="0.35em">N60</text>
      </g>
    </g>
    <g transform="translate(13.31,15.27)" stroke="#000000">
      <g class="primitive">
        <text dy="0.35em">N61</text>
      </g>
    </g>
    <g transform="translate(5.84,12.55)" stroke="#000000">
      <g class="primitive">
        <text dy="0.35em">N62</text>
      </g>
    </g>
    <g transform="translate(5.63,9.82)" stroke="#000000">
      <g class="primitive">
        <text dy="0.35em"></text>
      </g>
    </g>
    <g transform="translate(5.63,7.09)" stroke="#000000">
      <g class="primitive">
        <text dy="0.35em"></text>
      </g>
    </g>
  </g>
</g>
</svg>
