<?xml version="1.0" encoding="UTF-8"?>
<svg xmlns="http://www.w3.org/2000/svg"
     xmlns:xlink="http://www.w3.org/1999/xlink"
     version="1.2"
     width="150mm" height="116mm" viewBox="0 0 150 116"
     stroke="none"
     fill="#000000"
     stroke-width="0.3"
     font-size="3.88"
>
<defs>
  <marker id="arrow" markerWidth="15" markerHeight="7" refX="5" refY="3.5" orient="auto" markerUnits="strokeWidth">
    <path d="M0,0 L15,3.5 L0,7 z" stroke="context-stroke" fill="context-stroke"/>
  </marker>
</defs>
<g stroke-opacity="1" stroke-width="0.3" id="img-307640c7-1">
  <g transform="translate(77.83,5.27)" stroke="#847A4E">
    <path fill="none" d="M-0.92,0 L0.92,0 " class="primitive"/>
  </g>
  <g transform="translate(77.83,7.78)" stroke="#847A4E">
    <path fill="none" d="M-0.92,0 L0.92,0 " class="primitive"/>
  </g>
  <g transform="translate(74.11,6.53)" stroke="#847A4E">
    <path fill="none" d="M-2.8,0 L2.8,0 " class="primitive"/>
  </g>
  <g transform="translate(76.91,6.53)" stroke="#847A4E">
    <path fill="none" d="M0,1.26 L0,-1.26 " class="primitive"/>
  </g>
  <g transform="translate(77.61,10.29)" stroke="#847A4E">
    <path fill="none" d="M-1.14,0 L1.14,0 " class="primitive"/>
  </g>
  <g transform="translate(77.88,12.81)" stroke="#847A4E">
    <path fill="none" d="M-0.87,0 L0.87,0 " class="primitive"/>
  </g>
  <g transform="translate(78.62,15.32)" stroke="#847A4E">
    <path fill="none" d="M-0.13,0 L0.13,0 " class="primitive"/>
  </g>
  <g transform="translate(78.62,17.83)" stroke="#847A4E">
    <path fill="none" d="M-0.13,0 L0.13,0 " class="primitive"/>
  </g>
  <g transform="translate(77.75,16.57)" stroke="#847A4E">
    <path fill="none" d="M-0.74,0 L0.74,0 " class="primitive"/>
  </g>
  <g transform="translate(78.49,16.57)" stroke="#847A4E">
    <path fill="none" d="M0,1.26 L0,-1.26 " class="primitive"/>
  </g>
  <g transform="translate(76.74,14.69)" stroke="#847A4E">
    <path fill="none" d="M-0.26,0 L0.26,0 " class="primitive"/>
  </g>
  <g transform="translate(77,14.69)" stroke="#847A4E">
    <path fill="none" d="M0,1.88 L0,-1.88 " class="primitive"/>
  </g>
  <g transform="translate(75.48,12.49)" stroke="#847A4E">
    <path fill="none" d="M-0.99,0 L0.99,0 " class="primitive"/>
  </g>
  <g transform="translate(76.48,12.49)" stroke="#847A4E">
    <path fill="none" d="M0,2.2 L0,-2.2 " class="primitive"/>
  </g>
  <g transform="translate(78.05,20.34)" stroke="#847A4E">
    <path fill="none" d="M-0.7,0 L0.7,0 " class="primitive"/>
  </g>
  <g transform="translate(78.1,22.85)" stroke="#847A4E">
    <path fill="none" d="M-0.65,0 L0.65,0 " class="primitive"/>
  </g>
  <g transform="translate(78.57,25.36)" stroke="#847A4E">
    <path fill="none" d="M-0.18,0 L0.18,0 " class="primitive"/>
  </g>
  <g transform="translate(78.57,27.87)" stroke="#847A4E">
    <path fill="none" d="M-0.18,0 L0.18,0 " class="primitive"/>
  </g>
  <g transform="translate(77.92,26.61)" stroke="#847A4E">
    <path fill="none" d="M-0.47,0 L0.47,0 " class="primitive"/>
  </g>
  <g transform="translate(78.39,26.61)" stroke="#847A4E">
    <path fill="none" d="M0,1.26 L0,-1.26 " class="primitive"/>
  </g>
  <g transform="translate(77.4,24.73)" stroke="#847A4E">
    <path fill="none" d="M-0.06,0 L0.06,0 " class="primitive"/>
  </g>
  <g transform="translate(77.46,24.73)" stroke="#847A4E">
    <path fill="none" d="M0,1.88 L0,-1.88 " class="primitive"/>
  </g>
  <g transform="translate(75.92,22.53)" stroke="#847A4E">
    <path fill="none" d="M-1.43,0 L1.43,0 " class="primitive"/>
  </g>
  <g transform="translate(77.35,22.53)" stroke="#847A4E">
    <path fill="none" d="M0,2.2 L0,-2.2 " class="primitive"/>
  </g>
  <g transform="translate(72.9,17.51)" stroke="#847A4E">
    <path fill="none" d="M-1.59,0 L1.59,0 " class="primitive"/>
  </g>
  <g transform="translate(74.49,17.51)" stroke="#847A4E">
    <path fill="none" d="M0,5.02 L0,-5.02 " class="primitive"/>
  </g>
  <g transform="translate(42.76,12.02)" stroke="#847A4E">
    <path fill="none" d="M-28.55,0 L28.55,0 " class="primitive"/>
  </g>
  <g transform="translate(71.3,12.02)" stroke="#847A4E">
    <path fill="none" d="M0,5.49 L0,-5.49 " class="primitive"/>
  </g>
  <g transform="translate(78.66,30.38)" stroke="#847A4E">
    <path fill="none" d="M-0.09,0 L0.09,0 " class="primitive"/>
  </g>
  <g transform="translate(78.66,32.89)" stroke="#847A4E">
    <path fill="none" d="M-0.09,0 L0.09,0 " class="primitive"/>
  </g>
  <g transform="translate(74.06,31.64)" stroke="#847A4E">
    <path fill="none" d="M-4.5,0 L4.5,0 " class="primitive"/>
  </g>
  <g transform="translate(78.56,31.64)" stroke="#847A4E">
    <path fill="none" d="M0,1.26 L0,-1.26 " class="primitive"/>
  </g>
  <g transform="translate(77.68,35.4)" stroke="#847A4E">
    <path fill="none" d="M-1.07,0 L1.07,0 " class="primitive"/>
  </g>
  <g transform="translate(77.68,37.91)" stroke="#847A4E">
    <path fill="none" d="M-1.07,0 L1.07,0 " class="primitive"/>
  </g>
  <g transform="translate(73.16,36.66)" stroke="#847A4E">
    <path fill="none" d="M-3.45,0 L3.45,0 " class="primitive"/>
  </g>
  <g transform="translate(76.61,36.66)" stroke="#847A4E">
    <path fill="none" d="M0,1.26 L0,-1.26 " class="primitive"/>
  </g>
  <g transform="translate(78.34,40.42)" stroke="#847A4E">
    <path fill="none" d="M-0.41,0 L0.41,0 " class="primitive"/>
  </g>
  <g transform="translate(78.71,42.94)" stroke="#847A4E">
    <path fill="none" d="M-0.04,0 L0.04,0 " class="primitive"/>
  </g>
  <g transform="translate(78.71,45.45)" stroke="#847A4E">
    <path fill="none" d="M-0.04,0 L0.04,0 " class="primitive"/>
  </g>
  <g transform="translate(78.29,44.19)" stroke="#847A4E">
    <path fill="none" d="M-0.37,0 L0.37,0 " class="primitive"/>
  </g>
  <g transform="translate(78.66,44.19)" stroke="#847A4E">
    <path fill="none" d="M0,1.26 L0,-1.26 " class="primitive"/>
  </g>
  <g transform="translate(77.55,42.31)" stroke="#847A4E">
    <path fill="none" d="M-0.38,0 L0.38,0 " class="primitive"/>
  </g>
  <g transform="translate(77.93,42.31)" stroke="#847A4E">
    <path fill="none" d="M0,1.88 L0,-1.88 " class="primitive"/>
  </g>
  <g transform="translate(78.66,47.96)" stroke="#847A4E">
    <path fill="none" d="M-0.09,0 L0.09,0 " class="primitive"/>
  </g>
  <g transform="translate(78.66,50.47)" stroke="#847A4E">
    <path fill="none" d="M-0.09,0 L0.09,0 " class="primitive"/>
  </g>
  <g transform="translate(78.14,49.21)" stroke="#847A4E">
    <path fill="none" d="M-0.43,0 L0.43,0 " class="primitive"/>
  </g>
  <g transform="translate(78.57,49.21)" stroke="#847A4E">
    <path fill="none" d="M0,1.26 L0,-1.26 " class="primitive"/>
  </g>
  <g transform="translate(78.69,52.98)" stroke="#847A4E">
    <path fill="none" d="M-0.06,0 L0.06,0 " class="primitive"/>
  </g>
  <g transform="translate(78.69,55.49)" stroke="#847A4E">
    <path fill="none" d="M-0.06,0 L0.06,0 " class="primitive"/>
  </g>
  <g transform="translate(78.47,54.23)" stroke="#847A4E">
    <path fill="none" d="M-0.16,0 L0.16,0 " class="primitive"/>
  </g>
  <g transform="translate(78.64,54.23)" stroke="#847A4E">
    <path fill="none" d="M0,1.26 L0,-1.26 " class="primitive"/>
  </g>
  <g stroke-opacity="1" stroke-width="0.3" id="img-307640c7-2">
    <g transform="translate(78.4,101.94)" stroke="#847A4E">
      <path fill="none" d="M-0.21,0 L0.21,0 " class="primitive"/>
    </g>
    <g transform="translate(78.61,101.94)" stroke="#847A4E">
      <path fill="none" d="M0,1.26 L0,-1.26 " class="primitive"/>
    </g>
    <g transform="translate(78.6,105.71)" stroke="#847A4E">
      <path fill="none" d="M-0.15,0 L0.15,0 " class="primitive"/>
    </g>
    <g transform="translate(78.73,108.22)" stroke="#847A4E">
      <path fill="none" d="M-0.02,0 L0.02,0 " class="primitive"/>
    </g>
    <g transform="translate(78.73,110.73)" stroke="#847A4E">
      <path fill="none" d="M-0.02,0 L0.02,0 " class="primitive"/>
    </g>
    <g transform="translate(78.58,109.47)" stroke="#847A4E">
      <path fill="none" d="M-0.13,0 L0.13,0 " class="primitive"/>
    </g>
    <g transform="translate(78.71,109.47)" stroke="#847A4E">
      <path fill="none" d="M0,1.26 L0,-1.26 " class="primitive"/>
    </g>
    <g transform="translate(78.32,107.59)" stroke="#847A4E">
      <path fill="none" d="M-0.13,0 L0.13,0 " class="primitive"/>
    </g>
    <g transform="translate(78.45,107.59)" stroke="#847A4E">
      <path fill="none" d="M0,1.88 L0,-1.88 " class="primitive"/>
    </g>
    <g transform="translate(78.11,104.76)" stroke="#847A4E">
      <path fill="none" d="M-0.08,0 L0.08,0 " class="primitive"/>
    </g>
    <g transform="translate(78.19,104.76)" stroke="#847A4E">
      <path fill="none" d="M0,2.82 L0,-2.82 " class="primitive"/>
    </g>
    <g transform="translate(77.88,101.47)" stroke="#847A4E">
      <path fill="none" d="M-0.14,0 L0.14,0 " class="primitive"/>
    </g>
    <g transform="translate(78.02,101.47)" stroke="#847A4E">
      <path fill="none" d="M0,3.3 L0,-3.3 " class="primitive"/>
    </g>
    <g transform="translate(76.73,98.57)" stroke="#847A4E">
      <path fill="none" d="M-1.01,0 L1.01,0 " class="primitive"/>
    </g>
    <g transform="translate(77.74,98.57)" stroke="#847A4E">
      <path fill="none" d="M0,2.9 L0,-2.9 " class="primitive"/>
    </g>
    <g transform="translate(75.72,95.86)" stroke="#847A4E">
      <path fill="none" d="M-0.01,0 L0.01,0 " class="primitive"/>
    </g>
    <g transform="translate(75.72,95.86)" stroke="#847A4E">
      <path fill="none" d="M0,2.71 L0,-2.71 " class="primitive"/>
    </g>
    <g transform="translate(74.14,91.37)" stroke="#847A4E">
      <path fill="none" d="M-1.57,0 L1.57,0 " class="primitive"/>
    </g>
    <g transform="translate(75.71,91.37)" stroke="#847A4E">
      <path fill="none" d="M0,4.49 L0,-4.49 " class="primitive"/>
    </g>
    <g transform="translate(71.44,85.98)" stroke="#847A4E">
      <path fill="none" d="M-1.13,0 L1.13,0 " class="primitive"/>
    </g>
    <g transform="translate(72.57,85.98)" stroke="#847A4E">
      <path fill="none" d="M0,5.38 L0,-5.38 " class="primitive"/>
    </g>
    <g transform="translate(66.51,76.86)" stroke="#847A4E">
      <path fill="none" d="M-3.8,0 L3.8,0 " class="primitive"/>
    </g>
    <g transform="translate(70.31,76.86)" stroke="#847A4E">
      <path fill="none" d="M0,9.13 L0,-9.13 " class="primitive"/>
    </g>
    <g transform="translate(38.46,56.87)" stroke="#847A4E">
      <path fill="none" d="M-24.25,0 L24.25,0 " class="primitive"/>
    </g>
    <g transform="translate(62.71,56.87)" stroke="#847A4E">
      <path fill="none" d="M0,19.98 L0,-19.98 " class="primitive"/>
    </g>
    <g transform="translate(8.98,34.45)" stroke="#847A4E">
      <path fill="none" d="M-5.23,0 L5.23,0 " class="primitive"/>
    </g>
    <g transform="translate(14.21,34.45)" stroke="#847A4E">
      <path fill="none" d="M0,22.43 L0,-22.43 " class="primitive"/>
    </g>
  </g>
  <g stroke-opacity="1" stroke-width="0.3" id="img-307640c7-3">
    <g transform="translate(78.64,54.23)" stroke="#847A4E">
      <path fill="none" d="M0,1.26 L0,-1.26 " class="primitive"/>
    </g>
    <g transform="translate(78.62,58)" stroke="#847A4E">
      <path fill="none" d="M-0.13,0 L0.13,0 " class="primitive"/>
    </g>
    <g transform="translate(78.62,60.51)" stroke="#847A4E">
      <path fill="none" d="M-0.13,0 L0.13,0 " class="primitive"/>
    </g>
    <g transform="translate(78.4,59.26)" stroke="#847A4E">
      <path fill="none" d="M-0.09,0 L0.09,0 " class="primitive"/>
    </g>
    <g transform="translate(78.5,59.26)" stroke="#847A4E">
      <path fill="none" d="M0,1.26 L0,-1.26 " class="primitive"/>
    </g>
    <g transform="translate(78.01,56.74)" stroke="#847A4E">
      <path fill="none" d="M-0.3,0 L0.3,0 " class="primitive"/>
    </g>
    <g transform="translate(78.31,56.74)" stroke="#847A4E">
      <path fill="none" d="M0,2.51 L0,-2.51 " class="primitive"/>
    </g>
    <g transform="translate(77.43,52.98)" stroke="#847A4E">
      <path fill="none" d="M-0.27,0 L0.27,0 " class="primitive"/>
    </g>
    <g transform="translate(77.7,52.98)" stroke="#847A4E">
      <path fill="none" d="M0,3.77 L0,-3.77 " class="primitive"/>
    </g>
    <g transform="translate(73.44,47.64)" stroke="#847A4E">
      <path fill="none" d="M-3.73,0 L3.73,0 " class="primitive"/>
    </g>
    <g transform="translate(77.16,47.64)" stroke="#847A4E">
      <path fill="none" d="M0,5.34 L0,-5.34 " class="primitive"/>
    </g>
    <g transform="translate(69.64,42.15)" stroke="#847A4E">
      <path fill="none" d="M-0.08,0 L0.08,0 " class="primitive"/>
    </g>
    <g transform="translate(69.71,42.15)" stroke="#847A4E">
      <path fill="none" d="M0,5.49 L0,-5.49 " class="primitive"/>
    </g>
    <g transform="translate(66.13,36.89)" stroke="#847A4E">
      <path fill="none" d="M-3.43,0 L3.43,0 " class="primitive"/>
    </g>
    <g transform="translate(69.56,36.89)" stroke="#847A4E">
      <path fill="none" d="M0,5.26 L0,-5.26 " class="primitive"/>
    </g>
    <g transform="translate(78.06,63.02)" stroke="#847A4E">
      <path fill="none" d="M-0.69,0 L0.69,0 " class="primitive"/>
    </g>
    <g transform="translate(78.06,65.53)" stroke="#847A4E">
      <path fill="none" d="M-0.69,0 L0.69,0 " class="primitive"/>
    </g>
    <g transform="translate(76.84,64.28)" stroke="#847A4E">
      <path fill="none" d="M-0.53,0 L0.53,0 " class="primitive"/>
    </g>
    <g transform="translate(77.37,64.28)" stroke="#847A4E">
      <path fill="none" d="M0,1.26 L0,-1.26 " class="primitive"/>
    </g>
    <g transform="translate(77.66,68.04)" stroke="#847A4E">
      <path fill="none" d="M-1.09,0 L1.09,0 " class="primitive"/>
    </g>
    <g transform="translate(78.36,70.55)" stroke="#847A4E">
      <path fill="none" d="M-0.39,0 L0.39,0 " class="primitive"/>
    </g>
    <g transform="translate(78.36,73.06)" stroke="#847A4E">
      <path fill="none" d="M-0.39,0 L0.39,0 " class="primitive"/>
    </g>
    <g transform="translate(77.91,71.81)" stroke="#847A4E">
      <path fill="none" d="M-0.06,0 L0.06,0 " class="primitive"/>
    </g>
    <g transform="translate(77.97,71.81)" stroke="#847A4E">
      <path fill="none" d="M0,1.26 L0,-1.26 " class="primitive"/>
    </g>
    <g transform="translate(78.64,75.58)" stroke="#847A4E">
      <path fill="none" d="M-0.11,0 L0.11,0 " class="primitive"/>
    </g>
    <g transform="translate(78.64,78.09)" stroke="#847A4E">
      <path fill="none" d="M-0.11,0 L0.11,0 " class="primitive"/>
    </g>
    <g transform="translate(78.19,76.83)" stroke="#847A4E">
      <path fill="none" d="M-0.34,0 L0.34,0 " class="primitive"/>
    </g>
    <g transform="translate(78.54,76.83)" stroke="#847A4E">
      <path fill="none" d="M0,1.26 L0,-1.26 " class="primitive"/>
    </g>
    <g transform="translate(77.21,74.32)" stroke="#847A4E">
      <path fill="none" d="M-0.64,0 L0.64,0 " class="primitive"/>
    </g>
    <g transform="translate(77.85,74.32)" stroke="#847A4E">
      <path fill="none" d="M0,2.51 L0,-2.51 " class="primitive"/>
    </g>
    <g transform="translate(76.44,71.18)" stroke="#847A4E">
      <path fill="none" d="M-0.13,0 L0.13,0 " class="primitive"/>
    </g>
    <g transform="translate(76.58,71.18)" stroke="#847A4E">
      <path fill="none" d="M0,3.14 L0,-3.14 " class="primitive"/>
    </g>
    <g transform="translate(73.31,67.73)" stroke="#847A4E">
      <path fill="none" d="M-3,0 L3,0 " class="primitive"/>
    </g>
    <g transform="translate(76.31,67.73)" stroke="#847A4E">
      <path fill="none" d="M0,3.45 L0,-3.45 " class="primitive"/>
    </g>
    <g transform="translate(75.66,80.6)" stroke="#847A4E">
      <path fill="none" d="M-3.09,0 L3.09,0 " class="primitive"/>
    </g>
    <g transform="translate(78.5,83.11)" stroke="#847A4E">
      <path fill="none" d="M-0.25,0 L0.25,0 " class="primitive"/>
    </g>
    <g transform="translate(78.5,85.62)" stroke="#847A4E">
      <path fill="none" d="M-0.25,0 L0.25,0 " class="primitive"/>
    </g>
    <g transform="translate(77.95,84.36)" stroke="#847A4E">
      <path fill="none" d="M-0.3,0 L0.3,0 " class="primitive"/>
    </g>
    <g transform="translate(78.25,84.36)" stroke="#847A4E">
      <path fill="none" d="M0,1.26 L0,-1.26 " class="primitive"/>
    </g>
    <g transform="translate(78.51,88.13)" stroke="#847A4E">
      <path fill="none" d="M-0.24,0 L0.24,0 " class="primitive"/>
    </g>
    <g transform="translate(78.51,90.64)" stroke="#847A4E">
      <path fill="none" d="M-0.24,0 L0.24,0 " class="primitive"/>
    </g>
    <g transform="translate(77.96,89.39)" stroke="#847A4E">
      <path fill="none" d="M-0.31,0 L0.31,0 " class="primitive"/>
    </g>
    <g transform="translate(78.27,89.39)" stroke="#847A4E">
      <path fill="none" d="M0,1.26 L0,-1.26 " class="primitive"/>
    </g>
    <g transform="translate(76.68,86.87)" stroke="#847A4E">
      <path fill="none" d="M-0.97,0 L0.97,0 " class="primitive"/>
    </g>
    <g transform="translate(77.65,86.87)" stroke="#847A4E">
      <path fill="none" d="M0,2.51 L0,-2.51 " class="primitive"/>
    </g>
    <g transform="translate(77.24,93.15)" stroke="#847A4E">
      <path fill="none" d="M-1.51,0 L1.51,0 " class="primitive"/>
    </g>
    <g transform="translate(78.24,95.66)" stroke="#847A4E">
      <path fill="none" d="M-0.51,0 L0.51,0 " class="primitive"/>
    </g>
    <g transform="translate(78.39,98.17)" stroke="#847A4E">
      <path fill="none" d="M-0.36,0 L0.36,0 " class="primitive"/>
    </g>
    <g transform="translate(78.68,100.68)" stroke="#847A4E">
      <path fill="none" d="M-0.07,0 L0.07,0 " class="primitive"/>
    </g>
    <g transform="translate(78.68,103.19)" stroke="#847A4E">
      <path fill="none" d="M-0.07,0 L0.07,0 " class="primitive"/>
    </g>
    <g transform="translate(78.4,101.94)" stroke="#847A4E">
      <path fill="none" d="M-0.21,0 L0.21,0 " class="primitive"/>
    </g>
  </g>
</g>
<g fill-opacity="1" id="img-307640c7-4">
  <g transform="translate(78.75,5.27)" fill="#847A4E">
    <circle cx="0" cy="0" r="0.75" class="primitive"/>
  </g>
  <g transform="translate(78.75,7.78)" fill="#847A4E">
    <circle cx="0" cy="0" r="0.75" class="primitive"/>
  </g>
  <g transform="translate(76.91,6.53)" fill="#847A4E">
    <circle cx="0" cy="0" r="0.75" class="primitive"/>
  </g>
  <g transform="translate(78.75,10.29)" fill="#847A4E">
    <circle cx="0" cy="0" r="0.75" class="primitive"/>
  </g>
  <g transform="translate(78.75,12.81)" fill="#847A4E">
    <circle cx="0" cy="0" r="0.75" class="primitive"/>
  </g>
  <g transform="translate(78.75,15.32)" fill="#847A4E">
    <circle cx="0" cy="0" r="0.75" class="primitive"/>
  </g>
  <g transform="translate(78.75,17.83)" fill="#847A4E">
    <circle cx="0" cy="0" r="0.75" class="primitive"/>
  </g>
  <g transform="translate(78.49,16.57)" fill="#847A4E">
    <circle cx="0" cy="0" r="0.75" class="primitive"/>
  </g>
  <g transform="translate(77,14.69)" fill="#847A4E">
    <circle cx="0" cy="0" r="0.75" class="primitive"/>
  </g>
  <g transform="translate(76.48,12.49)" fill="#847A4E">
    <circle cx="0" cy="0" r="0.75" class="primitive"/>
  </g>
  <g transform="translate(78.75,20.34)" fill="#847A4E">
    <circle cx="0" cy="0" r="0.75" class="primitive"/>
  </g>
  <g transform="translate(78.75,22.85)" fill="#847A4E">
    <circle cx="0" cy="0" r="0.75" class="primitive"/>
  </g>
  <g transform="translate(78.75,25.36)" fill="#847A4E">
    <circle cx="0" cy="0" r="0.75" class="primitive"/>
  </g>
  <g transform="translate(78.75,27.87)" fill="#847A4E">
    <circle cx="0" cy="0" r="0.75" class="primitive"/>
  </g>
  <g transform="translate(78.39,26.61)" fill="#847A4E">
    <circle cx="0" cy="0" r="0.75" class="primitive"/>
  </g>
  <g transform="translate(77.46,24.73)" fill="#847A4E">
    <circle cx="0" cy="0" r="0.75" class="primitive"/>
  </g>
  <g transform="translate(77.35,22.53)" fill="#847A4E">
    <circle cx="0" cy="0" r="0.75" class="primitive"/>
  </g>
  <g transform="translate(74.49,17.51)" fill="#847A4E">
    <circle cx="0" cy="0" r="0.75" class="primitive"/>
  </g>
  <g transform="translate(71.3,12.02)" fill="#847A4E">
    <circle cx="0" cy="0" r="0.75" class="primitive"/>
  </g>
  <g transform="translate(78.75,30.38)" fill="#847A4E">
    <circle cx="0" cy="0" r="0.75" class="primitive"/>
  </g>
  <g transform="translate(78.75,32.89)" fill="#847A4E">
    <circle cx="0" cy="0" r="0.75" class="primitive"/>
  </g>
  <g transform="translate(78.56,31.64)" fill="#847A4E">
    <circle cx="0" cy="0" r="0.75" class="primitive"/>
  </g>
  <g transform="translate(78.75,35.4)" fill="#847A4E">
    <circle cx="0" cy="0" r="0.75" class="primitive"/>
  </g>
  <g transform="translate(78.75,37.91)" fill="#847A4E">
    <circle cx="0" cy="0" r="0.75" class="primitive"/>
  </g>
  <g transform="translate(76.61,36.66)" fill="#847A4E">
    <circle cx="0" cy="0" r="0.75" class="primitive"/>
  </g>
  <g transform="translate(78.75,40.42)" fill="#847A4E">
    <circle cx="0" cy="0" r="0.75" class="primitive"/>
  </g>
  <g transform="translate(78.75,42.94)" fill="#847A4E">
    <circle cx="0" cy="0" r="0.75" class="primitive"/>
  </g>
  <g transform="translate(78.75,45.45)" fill="#847A4E">
    <circle cx="0" cy="0" r="0.75" class="primitive"/>
  </g>
  <g transform="translate(78.66,44.19)" fill="#847A4E">
    <circle cx="0" cy="0" r="0.75" class="primitive"/>
  </g>
  <g transform="translate(77.93,42.31)" fill="#847A4E">
    <circle cx="0" cy="0" r="0.75" class="primitive"/>
  </g>
  <g transform="translate(78.75,47.96)" fill="#847A4E">
    <circle cx="0" cy="0" r="0.75" class="primitive"/>
  </g>
  <g transform="translate(78.75,50.47)" fill="#847A4E">
    <circle cx="0" cy="0" r="0.75" class="primitive"/>
  </g>
  <g transform="translate(78.57,49.21)" fill="#847A4E">
    <circle cx="0" cy="0" r="0.75" class="primitive"/>
  </g>
  <g transform="translate(78.75,52.98)" fill="#847A4E">
    <circle cx="0" cy="0" r="0.75" class="primitive"/>
  </g>
  <g transform="translate(78.75,55.49)" fill="#847A4E">
    <circle cx="0" cy="0" r="0.75" class="primitive"/>
  </g>
  <g transform="translate(78.64,54.23)" fill="#847A4E">
    <circle cx="0" cy="0" r="0.75" class="primitive"/>
  </g>
  <g transform="translate(78.75,58)" fill="#847A4E">
    <circle cx="0" cy="0" r="0.75" class="primitive"/>
  </g>
  <g transform="translate(78.75,60.51)" fill="#847A4E">
    <circle cx="0" cy="0" r="0.75" class="primitive"/>
  </g>
  <g transform="translate(78.5,59.26)" fill="#847A4E">
    <circle cx="0" cy="0" r="0.75" class="primitive"/>
  </g>
  <g transform="translate(78.31,56.74)" fill="#847A4E">
    <circle cx="0" cy="0" r="0.75" class="primitive"/>
  </g>
  <g transform="translate(77.7,52.98)" fill="#847A4E">
    <circle cx="0" cy="0" r="0.75" class="primitive"/>
  </g>
  <g transform="translate(77.16,47.64)" fill="#847A4E">
    <circle cx="0" cy="0" r="0.75" class="primitive"/>
  </g>
  <g transform="translate(69.71,42.15)" fill="#847A4E">
    <circle cx="0" cy="0" r="0.75" class="primitive"/>
  </g>
  <g transform="translate(69.56,36.89)" fill="#847A4E">
    <circle cx="0" cy="0" r="0.75" class="primitive"/>
  </g>
  <g transform="translate(78.75,63.02)" fill="#847A4E">
    <circle cx="0" cy="0" r="0.75" class="primitive"/>
  </g>
  <g transform="translate(78.75,65.53)" fill="#847A4E">
    <circle cx="0" cy="0" r="0.75" class="primitive"/>
  </g>
  <g transform="translate(77.37,64.28)" fill="#847A4E">
    <circle cx="0" cy="0" r="0.75" class="primitive"/>
  </g>
  <g transform="translate(78.75,68.04)" fill="#847A4E">
    <circle cx="0" cy="0" r="0.75" class="primitive"/>
  </g>
  <g transform="translate(78.75,70.55)" fill="#847A4E">
    <circle cx="0" cy="0" r="0.75" class="primitive"/>
  </g>
  <g transform="translate(78.75,73.06)" fill="#847A4E">
    <circle cx="0" cy="0" r="0.75" class="primitive"/>
  </g>
  <g transform="translate(77.97,71.81)" fill="#847A4E">
    <circle cx="0" cy="0" r="0.75" class="primitive"/>
  </g>
  <g fill-opacity="1" id="img-307640c7-5">
    <g transform="translate(77.97,71.81)" fill="#847A4E">
      <circle cx="0" cy="0" r="0.75" class="primitive"/>
    </g>
    <g transform="translate(78.75,75.58)" fill="#847A4E">
      <circle cx="0" cy="0" r="0.75" class="primitive"/>
    </g>
    <g transform="translate(78.75,78.09)" fill="#847A4E">
      <circle cx="0" cy="0" r="0.75" class="primitive"/>
    </g>
    <g transform="translate(78.54,76.83)" fill="#847A4E">
      <circle cx="0" cy="0" r="0.75" class="primitive"/>
    </g>
    <g transform="translate(77.85,74.32)" fill="#847A4E">
      <circle cx="0" cy="0" r="0.75" class="primitive"/>
    </g>
    <g transform="translate(76.58,71.18)" fill="#847A4E">
      <circle cx="0" cy="0" r="0.75" class="primitive"/>
    </g>
    <g transform="translate(76.31,67.73)" fill="#847A4E">
      <circle cx="0" cy="0" r="0.75" class="primitive"/>
    </g>
    <g transform="translate(78.75,80.6)" fill="#847A4E">
      <circle cx="0" cy="0" r="0.75" class="primitive"/>
    </g>
    <g transform="translate(78.75,83.11)" fill="#847A4E">
      <circle cx="0" cy="0" r="0.75" class="primitive"/>
    </g>
    <g transform="translate(78.75,85.62)" fill="#847A4E">
      <circle cx="0" cy="0" r="0.75" class="primitive"/>
    </g>
    <g transform="translate(78.25,84.36)" fill="#847A4E">
      <circle cx="0" cy="0" r="0.75" class="primitive"/>
    </g>
    <g transform="translate(78.75,88.13)" fill="#847A4E">
      <circle cx="0" cy="0" r="0.75" class="primitive"/>
    </g>
    <g transform="translate(78.75,90.64)" fill="#847A4E">
      <circle cx="0" cy="0" r="0.75" class="primitive"/>
    </g>
    <g transform="translate(78.27,89.39)" fill="#847A4E">
      <circle cx="0" cy="0" r="0.75" class="primitive"/>
    </g>
    <g transform="translate(77.65,86.87)" fill="#847A4E">
      <circle cx="0" cy="0" r="0.75" class="primitive"/>
    </g>
    <g transform="translate(78.75,93.15)" fill="#847A4E">
      <circle cx="0" cy="0" r="0.75" class="primitive"/>
    </g>
    <g transform="translate(78.75,95.66)" fill="#847A4E">
      <circle cx="0" cy="0" r="0.75" class="primitive"/>
    </g>
    <g transform="translate(78.75,98.17)" fill="#847A4E">
      <circle cx="0" cy="0" r="0.75" class="primitive"/>
    </g>
    <g transform="translate(78.75,100.68)" fill="#847A4E">
      <circle cx="0" cy="0" r="0.75" class="primitive"/>
    </g>
    <g transform="translate(78.75,103.19)" fill="#847A4E">
      <circle cx="0" cy="0" r="0.75" class="primitive"/>
    </g>
    <g transform="translate(78.61,101.94)" fill="#847A4E">
      <circle cx="0" cy="0" r="0.75" class="primitive"/>
    </g>
    <g transform="translate(78.75,105.71)" fill="#847A4E">
      <circle cx="0" cy="0" r="0.75" class="primitive"/>
    </g>
    <g transform="translate(78.75,108.22)" fill="#847A4E">
      <circle cx="0" cy="0" r="0.75" class="primitive"/>
    </g>
    <g transform="translate(78.75,110.73)" fill="#847A4E">
      <circle cx="0" cy="0" r="0.75" class="primitive"/>
    </g>
    <g transform="translate(78.71,109.47)" fill="#847A4E">
      <circle cx="0" cy="0" r="0.75" class="primitive"/>
    </g>
    <g transform="translate(78.45,107.59)" fill="#847A4E">
      <circle cx="0" cy="0" r="0.75" class="primitive"/>
    </g>
    <g transform="translate(78.19,104.76)" fill="#847A4E">
      <circle cx="0" cy="0" r="0.75" class="primitive"/>
    </g>
    <g transform="translate(78.02,101.47)" fill="#847A4E">
      <circle cx="0" cy="0" r="0.75" class="primitive"/>
    </g>
    <g transform="translate(77.74,98.57)" fill="#847A4E">
      <circle cx="0" cy="0" r="0.75" class="primitive"/>
    </g>
    <g transform="translate(75.72,95.86)" fill="#847A4E">
      <circle cx="0" cy="0" r="0.75" class="primitive"/>
    </g>
    <g transform="translate(75.71,91.37)" fill="#847A4E">
      <circle cx="0" cy="0" r="0.75" class="primitive"/>
    </g>
    <g transform="translate(72.57,85.98)" fill="#847A4E">
      <circle cx="0" cy="0" r="0.75" class="primitive"/>
    </g>
    <g transform="translate(70.31,76.86)" fill="#847A4E">
      <circle cx="0" cy="0" r="0.75" class="primitive"/>
    </g>
    <g transform="translate(62.71,56.87)" fill="#847A4E">
      <circle cx="0" cy="0" r="0.75" class="primitive"/>
    </g>
    <g transform="translate(14.21,34.45)" fill="#847A4E">
      <circle cx="0" cy="0" r="0.75" class="primitive"/>
    </g>
  </g>
</g>
<g stroke-opacity="1" fill-opacity="1" font-size="1.41" stroke-width="0.1" id="img-307640c7-6">
  <g transform="translate(80.62,5.27)" stroke="#000000">
    <g class="primitive">
      <text dy="0.35em">tax70</text>
    </g>
  </g>
  <g transform="translate(80.62,7.78)" stroke="#000000">
    <g class="primitive">
      <text dy="0.35em">tax66</text>
    </g>
  </g>
  <g transform="translate(78.78,6.53)" stroke="#000000">
    <g class="primitive">
      <text dy="0.35em"></text>
    </g>
  </g>
  <g transform="translate(80.62,10.29)" stroke="#000000">
    <g class="primitive">
      <text dy="0.35em">tax34</text>
    </g>
  </g>
  <g transform="translate(80.62,12.81)" stroke="#000000">
    <g class="primitive">
      <text dy="0.35em">tax69</text>
    </g>
  </g>
  <g transform="translate(80.62,15.32)" stroke="#000000">
    <g class="primitive">
      <text dy="0.35em">tax31</text>
    </g>
  </g>
  <g transform="translate(80.62,17.83)" stroke="#000000">
    <g class="primitive">
      <text dy="0.35em">tax5</text>
    </g>
  </g>
  <g transform="translate(80.37,16.57)" stroke="#000000">
    <g class="primitive">
      <text dy="0.35em"></text>
    </g>
  </g>
  <g transform="translate(78.88,14.69)" stroke="#000000">
    <g class="primitive">
      <text dy="0.35em"></text>
    </g>
  </g>
  <g transform="translate(78.35,12.49)" stroke="#000000">
    <g class="primitive">
      <text dy="0.35em"></text>
    </g>
  </g>
  <g transform="translate(80.62,20.34)" stroke="#000000">
    <g class="primitive">
      <text dy="0.35em">tax64</text>
    </g>
  </g>
  <g transform="translate(80.62,22.85)" stroke="#000000">
    <g class="primitive">
      <text dy="0.35em">tax95</text>
    </g>
  </g>
  <g transform="translate(80.62,25.36)" stroke="#000000">
    <g class="primitive">
      <text dy="0.35em">tax63</text>
    </g>
  </g>
  <g transform="translate(80.62,27.87)" stroke="#000000">
    <g class="primitive">
      <text dy="0.35em">tax79</text>
    </g>
  </g>
  <g transform="translate(80.26,26.61)" stroke="#000000">
    <g class="primitive">
      <text dy="0.35em"></text>
    </g>
  </g>
  <g transform="translate(79.33,24.73)" stroke="#000000">
    <g class="primitive">
      <text dy="0.35em"></text>
    </g>
  </g>
  <g transform="translate(79.22,22.53)" stroke="#000000">
    <g class="primitive">
      <text dy="0.35em"></text>
    </g>
  </g>
  <g transform="translate(76.36,17.51)" stroke="#000000">
    <g class="primitive">
      <text dy="0.35em"></text>
    </g>
  </g>
  <g transform="translate(73.18,12.02)" stroke="#000000">
    <g class="primitive">
      <text dy="0.35em"></text>
    </g>
  </g>
  <g transform="translate(80.62,30.38)" stroke="#000000">
    <g class="primitive">
      <text dy="0.35em">tax92</text>
    </g>
  </g>
  <g transform="translate(80.62,32.89)" stroke="#000000">
    <g class="primitive">
      <text dy="0.35em">tax50</text>
    </g>
  </g>
  <g transform="translate(80.44,31.64)" stroke="#000000">
    <g class="primitive">
      <text dy="0.35em"></text>
    </g>
  </g>
  <g transform="translate(80.62,35.4)" stroke="#000000">
    <g class="primitive">
      <text dy="0.35em">tax76</text>
    </g>
  </g>
  <g transform="translate(80.62,37.91)" stroke="#000000">
    <g class="primitive">
      <text dy="0.35em">tax65</text>
    </g>
  </g>
  <g transform="translate(78.49,36.66)" stroke="#000000">
    <g class="primitive">
      <text dy="0.35em"></text>
    </g>
  </g>
  <g transform="translate(80.62,40.42)" stroke="#000000">
    <g class="primitive">
      <text dy="0.35em">tax12</text>
    </g>
  </g>
  <g transform="translate(80.62,42.94)" stroke="#000000">
    <g class="primitive">
      <text dy="0.35em">tax94</text>
    </g>
  </g>
  <g transform="translate(80.62,45.45)" stroke="#000000">
    <g class="primitive">
      <text dy="0.35em">tax18</text>
    </g>
  </g>
  <g transform="translate(80.54,44.19)" stroke="#000000">
    <g class="primitive">
      <text dy="0.35em"></text>
    </g>
  </g>
  <g transform="translate(79.8,42.31)" stroke="#000000">
    <g class="primitive">
      <text dy="0.35em"></text>
    </g>
  </g>
  <g transform="translate(80.62,47.96)" stroke="#000000">
    <g class="primitive">
      <text dy="0.35em">tax10</text>
    </g>
  </g>
  <g transform="translate(80.62,50.47)" stroke="#000000">
    <g class="primitive">
      <text dy="0.35em">tax74</text>
    </g>
  </g>
  <g transform="translate(80.45,49.21)" stroke="#000000">
    <g class="primitive">
      <text dy="0.35em"></text>
    </g>
  </g>
  <g transform="translate(80.62,52.98)" stroke="#000000">
    <g class="primitive">
      <text dy="0.35em">tax56</text>
    </g>
  </g>
  <g transform="translate(80.62,55.49)" stroke="#000000">
    <g class="primitive">
      <text dy="0.35em">tax51</text>
    </g>
  </g>
  <g transform="translate(80.51,54.23)" stroke="#000000">
    <g class="primitive">
      <text dy="0.35em"></text>
    </g>
  </g>
  <g transform="translate(80.62,58)" stroke="#000000">
    <g class="primitive">
      <text dy="0.35em">tax24</text>
    </g>
  </g>
  <g transform="translate(80.62,60.51)" stroke="#000000">
    <g class="primitive">
      <text dy="0.35em">tax48</text>
    </g>
  </g>
  <g transform="translate(80.37,59.26)" stroke="#000000">
    <g class="primitive">
      <text dy="0.35em"></text>
    </g>
  </g>
  <g transform="translate(80.18,56.74)" stroke="#000000">
    <g class="primitive">
      <text dy="0.35em"></text>
    </g>
  </g>
  <g transform="translate(79.58,52.98)" stroke="#000000">
    <g class="primitive">
      <text dy="0.35em"></text>
    </g>
  </g>
  <g transform="translate(79.04,47.64)" stroke="#000000">
    <g class="primitive">
      <text dy="0.35em"></text>
    </g>
  </g>
  <g transform="translate(71.59,42.15)" stroke="#000000">
    <g class="primitive">
      <text dy="0.35em"></text>
    </g>
  </g>
  <g transform="translate(71.44,36.89)" stroke="#000000">
    <g class="primitive">
      <text dy="0.35em"></text>
    </g>
  </g>
  <g transform="translate(80.62,63.02)" stroke="#000000">
    <g class="primitive">
      <text dy="0.35em">tax84</text>
    </g>
  </g>
  <g transform="translate(80.62,65.53)" stroke="#000000">
    <g class="primitive">
      <text dy="0.35em">tax47</text>
    </g>
  </g>
  <g transform="translate(79.24,64.28)" stroke="#000000">
    <g class="primitive">
      <text dy="0.35em"></text>
    </g>
  </g>
  <g transform="translate(80.62,68.04)" stroke="#000000">
    <g class="primitive">
      <text dy="0.35em">tax85</text>
    </g>
  </g>
  <g transform="translate(80.62,70.55)" stroke="#000000">
    <g class="primitive">
      <text dy="0.35em">tax87</text>
    </g>
  </g>
  <g transform="translate(80.62,73.06)" stroke="#000000">
    <g class="primitive">
      <text dy="0.35em">tax1</text>
    </g>
  </g>
  <g transform="translate(79.85,71.81)" stroke="#000000">
    <g class="primitive">
      <text dy="0.35em"></text>
    </g>
  </g>
  <g stroke-opacity="1" fill-opacity="1" font-size="1.41" stroke-width="0.1" id="img-307640c7-7">
    <g transform="translate(79.85,71.81)" stroke="#000000">
      <g class="primitive">
        <text dy="0.35em"></text>
      </g>
    </g>
    <g transform="translate(80.62,75.58)" stroke="#000000">
      <g class="primitive">
        <text dy="0.35em">tax52</text>
      </g>
    </g>
    <g transform="translate(80.62,78.09)" stroke="#000000">
      <g class="primitive">
        <text dy="0.35em">tax29</text>
      </g>
    </g>
    <g transform="translate(80.41,76.83)" stroke="#000000">
      <g class="primitive">
        <text dy="0.35em"></text>
      </g>
    </g>
    <g transform="translate(79.73,74.32)" stroke="#000000">
      <g class="primitive">
        <text dy="0.35em"></text>
      </g>
    </g>
    <g transform="translate(78.45,71.18)" stroke="#000000">
      <g class="primitive">
        <text dy="0.35em"></text>
      </g>
    </g>
    <g transform="translate(78.18,67.73)" stroke="#000000">
      <g class="primitive">
        <text dy="0.35em"></text>
      </g>
    </g>
    <g transform="translate(80.62,80.6)" stroke="#000000">
      <g class="primitive">
        <text dy="0.35em">tax99</text>
      </g>
    </g>
    <g transform="translate(80.62,83.11)" stroke="#000000">
      <g class="primitive">
        <text dy="0.35em">tax58</text>
      </g>
    </g>
    <g transform="translate(80.62,85.62)" stroke="#000000">
      <g class="primitive">
        <text dy="0.35em">tax78</text>
      </g>
    </g>
    <g transform="translate(80.13,84.36)" stroke="#000000">
      <g class="primitive">
        <text dy="0.35em"></text>
      </g>
    </g>
    <g transform="translate(80.62,88.13)" stroke="#000000">
      <g class="primitive">
        <text dy="0.35em">tax3</text>
      </g>
    </g>
    <g transform="translate(80.62,90.64)" stroke="#000000">
      <g class="primitive">
        <text dy="0.35em">tax54</text>
      </g>
    </g>
    <g transform="translate(80.15,89.39)" stroke="#000000">
      <g class="primitive">
        <text dy="0.35em"></text>
      </g>
    </g>
    <g transform="translate(79.52,86.87)" stroke="#000000">
      <g class="primitive">
        <text dy="0.35em"></text>
      </g>
    </g>
    <g transform="translate(80.62,93.15)" stroke="#000000">
      <g class="primitive">
        <text dy="0.35em">tax82</text>
      </g>
    </g>
    <g transform="translate(80.62,95.66)" stroke="#000000">
      <g class="primitive">
        <text dy="0.35em">tax7</text>
      </g>
    </g>
    <g transform="translate(80.62,98.17)" stroke="#000000">
      <g class="primitive">
        <text dy="0.35em">tax13</text>
      </g>
    </g>
    <g transform="translate(80.62,100.68)" stroke="#000000">
      <g class="primitive">
        <text dy="0.35em">tax60</text>
      </g>
    </g>
    <g transform="translate(80.62,103.19)" stroke="#000000">
      <g class="primitive">
        <text dy="0.35em">tax30</text>
      </g>
    </g>
    <g transform="translate(80.48,101.94)" stroke="#000000">
      <g class="primitive">
        <text dy="0.35em"></text>
      </g>
    </g>
    <g transform="translate(80.62,105.71)" stroke="#000000">
      <g class="primitive">
        <text dy="0.35em">tax88</text>
      </g>
    </g>
    <g transform="translate(80.62,108.22)" stroke="#000000">
      <g class="primitive">
        <text dy="0.35em">tax2</text>
      </g>
    </g>
    <g transform="translate(80.62,110.73)" stroke="#000000">
      <g class="primitive">
        <text dy="0.35em">tax86</text>
      </g>
    </g>
    <g transform="translate(80.59,109.47)" stroke="#000000">
      <g class="primitive">
        <text dy="0.35em"></text>
      </g>
    </g>
    <g transform="translate(80.33,107.59)" stroke="#000000">
      <g class="primitive">
        <text dy="0.35em"></text>
      </g>
    </g>
    <g transform="translate(80.07,104.76)" stroke="#000000">
      <g class="primitive">
        <text dy="0.35em"></text>
      </g>
    </g>
    <g transform="translate(79.9,101.47)" stroke="#000000">
      <g class="primitive">
        <text dy="0.35em"></text>
      </g>
    </g>
    <g transform="translate(79.61,98.57)" stroke="#000000">
      <g class="primitive">
        <text dy="0.35em"></text>
      </g>
    </g>
    <g transform="translate(77.6,95.86)" stroke="#000000">
      <g class="primitive">
        <text dy="0.35em"></text>
      </g>
    </g>
    <g transform="translate(77.58,91.37)" stroke="#000000">
      <g class="primitive">
        <text dy="0.35em"></text>
      </g>
    </g>
    <g transform="translate(74.45,85.98)" stroke="#000000">
      <g class="primitive">
        <text dy="0.35em"></text>
      </g>
    </g>
    <g transform="translate(72.18,76.86)" stroke="#000000">
      <g class="primitive">
        <text dy="0.35em"></text>
      </g>
    </g>
    <g transform="translate(64.58,56.87)" stroke="#000000">
      <g class="primitive">
        <text dy="0.35em"></text>
      </g>
    </g>
    <g transform="translate(16.09,34.45)" stroke="#000000">
      <g class="primitive">
        <text dy="0.35em"></text>
      </g>
    </g>
  </g>
</g>
</svg>
