<?xml version="1.0" encoding="UTF-8"?>
<svg xmlns="http://www.w3.org/2000/svg"
     xmlns:xlink="http://www.w3.org/1999/xlink"
     version="1.2"
     width="150mm" height="56mm" viewBox="0 0 150 56"
     stroke="none"
     fill="#000000"
     stroke-width="0.3"
     font-size="3.88"
>
<defs>
  <marker id="arrow" markerWidth="15" markerHeight="7" refX="5" refY="3.5" orient="auto" markerUnits="strokeWidth">
    <path d="M0,0 L15,3.5 L0,7 z" stroke="context-stroke" fill="context-stroke"/>
  </marker>
</defs>
<g stroke-opacity="1" stroke-width="0.3" id="img-29b4c979-1">
  <g transform="translate(10.45,2.55)" stroke="#109A62">
    <path fill="none" d="M-6.7,0 L6.7,0 " class="primitive"/>
  </g>
  <g transform="translate(14.04,6.79)" stroke="#109A62">
    <path fill="none" d="M-0.76,0 L0.76,0 " class="primitive"/>
  </g>
  <g transform="translate(64.32,11.03)" stroke="#4F296C">
    <path fill="none" d="M-1.64,0 L1.64,0 " class="primitive"/>
  </g>
  <g transform="translate(70.32,15.27)" stroke="#109A62">
    <path fill="none" d="M-1.81,0 L1.81,0 " class="primitive"/>
  </g>
  <g transform="translate(73.73,19.52)" stroke="#109A62">
    <path fill="none" d="M-5.02,0 L5.02,0 " class="primitive"/>
  </g>
  <g transform="translate(73.52,23.76)" stroke="#109A62">
    <path fill="none" d="M-4.8,0 L4.8,0 " class="primitive"/>
  </g>
  <g transform="translate(68.61,21.64)" stroke="#109A62">
    <path fill="none" d="M-0.11,0 L0.11,0 " class="primitive"/>
  </g>
  <g transform="translate(68.72,21.64)" stroke="#109A62">
    <path fill="none" d="M0,2.12 L0,-2.12 " class="primitive"/>
  </g>
  <g transform="translate(65.6,18.45)" stroke="#4F296C">
    <path fill="none" d="M-2.91,0 L2.91,0 " class="primitive"/>
  </g>
  <g transform="translate(68.51,18.45)" stroke="#4F296C">
    <path fill="none" d="M0,3.18 L0,-3.18 " class="primitive"/>
  </g>
  <g transform="translate(37.98,14.74)" stroke="#109A62">
    <path fill="none" d="M-24.7,0 L24.7,0 " class="primitive"/>
  </g>
  <g transform="translate(62.68,14.74)" stroke="#109A62">
    <path fill="none" d="M0,3.71 L0,-3.71 " class="primitive"/>
  </g>
  <g transform="translate(8.52,10.77)" stroke="#109A62">
    <path fill="none" d="M-4.77,0 L4.77,0 " class="primitive"/>
  </g>
  <g transform="translate(13.28,10.77)" stroke="#109A62">
    <path fill="none" d="M0,3.98 L0,-3.98 " class="primitive"/>
  </g>
  <g transform="translate(3.75,6.66)" stroke="#000000">
    <path fill="none" d="M0,0 L0,0 " class="primitive"/>
  </g>
  <g transform="translate(3.75,6.66)" stroke="#000000">
    <path fill="none" d="M0,4.11 L0,-4.11 " class="primitive"/>
  </g>
  <g transform="translate(22.64,28)" stroke="#109A62">
    <path fill="none" d="M-5.92,0 L5.92,0 " class="primitive"/>
  </g>
  <g transform="translate(22.74,32.24)" stroke="#109A62">
    <path fill="none" d="M-4.74,0 L4.74,0 " class="primitive"/>
  </g>
  <g transform="translate(18.97,36.48)" stroke="#109A62">
    <path fill="none" d="M-0.97,0 L0.97,0 " class="primitive"/>
  </g>
  <g transform="translate(17.36,34.36)" stroke="#109A62">
    <path fill="none" d="M-0.64,0 L0.64,0 " class="primitive"/>
  </g>
  <g transform="translate(18,34.36)" stroke="#109A62">
    <path fill="none" d="M0,2.12 L0,-2.12 " class="primitive"/>
  </g>
  <g transform="translate(12.84,31.18)" stroke="#109A62">
    <path fill="none" d="M-3.88,0 L3.88,0 " class="primitive"/>
  </g>
  <g transform="translate(16.72,31.18)" stroke="#109A62">
    <path fill="none" d="M0,3.18 L0,-3.18 " class="primitive"/>
  </g>
  <g transform="translate(12.24,40.73)" stroke="#109A62">
    <path fill="none" d="M-0.19,0 L0.19,0 " class="primitive"/>
  </g>
  <g transform="translate(26.73,44.97)" stroke="#109A62">
    <path fill="none" d="M-0.46,0 L0.46,0 " class="primitive"/>
  </g>
  <g transform="translate(38.01,49.21)" stroke="#109A62">
    <path fill="none" d="M-0.34,0 L0.34,0 " class="primitive"/>
  </g>
  <g transform="translate(46.02,53.45)" stroke="#109A62">
    <path fill="none" d="M-8.35,0 L8.35,0 " class="primitive"/>
  </g>
  <g transform="translate(31.97,51.33)" stroke="#109A62">
    <path fill="none" d="M-5.69,0 L5.69,0 " class="primitive"/>
  </g>
  <g transform="translate(37.66,51.33)" stroke="#109A62">
    <path fill="none" d="M0,2.12 L0,-2.12 " class="primitive"/>
  </g>
  <g transform="translate(19.16,48.15)" stroke="#109A62">
    <path fill="none" d="M-7.12,0 L7.12,0 " class="primitive"/>
  </g>
  <g transform="translate(26.27,48.15)" stroke="#109A62">
    <path fill="none" d="M0,3.18 L0,-3.18 " class="primitive"/>
  </g>
  <g transform="translate(10.5,44.44)" stroke="#109A62">
    <path fill="none" d="M-1.54,0 L1.54,0 " class="primitive"/>
  </g>
  <g transform="translate(12.04,44.44)" stroke="#109A62">
    <path fill="none" d="M0,3.71 L0,-3.71 " class="primitive"/>
  </g>
  <g transform="translate(6.35,37.81)" stroke="#109A62">
    <path fill="none" d="M-2.6,0 L2.6,0 " class="primitive"/>
  </g>
  <g transform="translate(8.96,37.81)" stroke="#109A62">
    <path fill="none" d="M0,6.63 L0,-6.63 " class="primitive"/>
  </g>
  <g transform="translate(3.75,22.23)" stroke="#000000">
    <path fill="none" d="M0,0 L0,0 " class="primitive"/>
  </g>
  <g transform="translate(3.75,22.23)" stroke="#000000">
    <path fill="none" d="M0,15.58 L0,-15.58 " class="primitive"/>
  </g>
</g>
<g fill-opacity="1" id="img-29b4c979-2">
  <g transform="translate(17.16,2.55)" fill="#109A62">
    <circle cx="0" cy="0" r="0.75" class="primitive"/>
  </g>
  <g transform="translate(14.8,6.79)" fill="#109A62">
    <circle cx="0" cy="0" r="0.75" class="primitive"/>
  </g>
  <g transform="translate(65.96,11.03)" fill="#4F296C">
    <circle cx="0" cy="0" r="0.75" class="primitive"/>
  </g>
  <g transform="translate(72.13,15.27)" fill="#109A62">
    <circle cx="0" cy="0" r="0.75" class="primitive"/>
  </g>
  <g transform="translate(78.75,19.52)" fill="#109A62">
    <circle cx="0" cy="0" r="0.75" class="primitive"/>
  </g>
  <g transform="translate(78.32,23.76)" fill="#109A62">
    <circle cx="0" cy="0" r="0.75" class="primitive"/>
  </g>
  <g transform="translate(68.72,21.64)" fill="#109A62">
    <circle cx="0" cy="0" r="0.75" class="primitive"/>
  </g>
  <g transform="translate(68.51,18.45)" fill="#4F296C">
    <circle cx="0" cy="0" r="0.75" class="primitive"/>
  </g>
  <g transform="translate(62.68,14.74)" fill="#109A62">
    <circle cx="0" cy="0" r="0.75" class="primitive"/>
  </g>
  <g transform="translate(13.28,10.77)" fill="#109A62">
    <circle cx="0" cy="0" r="0.75" class="primitive"/>
  </g>
  <g transform="translate(3.75,6.66)" fill="#000000">
    <circle cx="0" cy="0" r="0.75" class="primitive"/>
  </g>
  <g transform="translate(28.55,28)" fill="#109A62">
    <circle cx="0" cy="0" r="0.75" class="primitive"/>
  </g>
  <g transform="translate(27.48,32.24)" fill="#109A62">
    <circle cx="0" cy="0" r="0.75" class="primitive"/>
  </g>
  <g transform="translate(19.94,36.48)" fill="#109A62">
    <circle cx="0" cy="0" r="0.75" class="primitive"/>
  </g>
  <g transform="translate(18,34.36)" fill="#109A62">
    <circle cx="0" cy="0" r="0.75" class="primitive"/>
  </g>
  <g transform="translate(16.72,31.18)" fill="#109A62">
    <circle cx="0" cy="0" r="0.75" class="primitive"/>
  </g>
  <g transform="translate(12.43,40.73)" fill="#109A62">
    <circle cx="0" cy="0" r="0.75" class="primitive"/>
  </g>
  <g transform="translate(27.19,44.97)" fill="#109A62">
    <circle cx="0" cy="0" r="0.75" class="primitive"/>
  </g>
  <g transform="translate(38.35,49.21)" fill="#109A62">
    <circle cx="0" cy="0" r="0.75" class="primitive"/>
  </g>
  <g transform="translate(54.37,53.45)" fill="#109A62">
    <circle cx="0" cy="0" r="0.75" class="primitive"/>
  </g>
  <g transform="translate(37.66,51.33)" fill="#109A62">
    <circle cx="0" cy="0" r="0.75" class="primitive"/>
  </g>
  <g transform="translate(26.27,48.15)" fill="#109A62">
    <circle cx="0" cy="0" r="0.75" class="primitive"/>
  </g>
  <g transform="translate(12.04,44.44)" fill="#109A62">
    <circle cx="0" cy="0" r="0.75" class="primitive"/>
  </g>
  <g transform="translate(8.96,37.81)" fill="#109A62">
    <circle cx="0" cy="0" r="0.75" class="primitive"/>
  </g>
  <g transform="translate(3.75,22.23)" fill="#000000">
    <circle cx="0" cy="0" r="0.75" class="primitive"/>
  </g>
</g>
<g stroke-opacity="1" fill-opacity="1" font-size="1.41" stroke-width="0.1" id="img-29b4c979-3">
  <g transform="translate(19.03,2.55)" stroke="#000000">
    <g class="primitive">
      <text dy="0.35em">N10</text>
    </g>
  </g>
  <g transform="translate(16.67,6.79)" stroke="#000000">
    <g class="primitive">
      <text dy="0.35em">N1</text>
    </g>
  </g>
  <g transform="translate(67.84,11.03)" stroke="#000000">
    <g class="primitive">
      <text dy="0.35em">N5</text>
    </g>
  </g>
  <g transform="translate(74.01,15.27)" stroke="#000000">
    <g class="primitive">
      <text dy="0.35em">N6</text>
    </g>
  </g>
  <g transform="translate(80.62,19.52)" stroke="#000000">
    <g class="primitive">
      <text dy="0.35em">N2</text>
    </g>
  </g>
  <g transform="translate(80.19,23.76)" stroke="#000000">
    <g class="primitive">
      <text dy="0.35em">N12</text>
    </g>
  </g>
  <g transform="translate(70.59,21.64)" stroke="#000000">
    <g class="primitive">
      <text dy="0.35em">N15</text>
    </g>
  </g>
  <g transform="translate(70.38,18.45)" stroke="#000000">
    <g class="primitive">
      <text dy="0.35em">N16</text>
    </g>
  </g>
  <g transform="translate(64.56,14.74)" stroke="#000000">
    <g class="primitive">
      <text dy="0.35em">N17</text>
    </g>
  </g>
  <g transform="translate(15.16,10.77)" stroke="#000000">
    <g class="primitive">
      <text dy="0.35em">N19</text>
    </g>
  </g>
  <g transform="translate(5.63,6.66)" stroke="#000000">
    <g class="primitive">
      <text dy="0.35em"></text>
    </g>
  </g>
  <g transform="translate(30.43,28)" stroke="#000000">
    <g class="primitive">
      <text dy="0.35em">N8</text>
    </g>
  </g>
  <g transform="translate(29.36,32.24)" stroke="#000000">
    <g class="primitive">
      <text dy="0.35em">N7</text>
    </g>
  </g>
  <g transform="translate(21.81,36.48)" stroke="#000000">
    <g class="primitive">
      <text dy="0.35em">N4</text>
    </g>
  </g>
  <g transform="translate(19.88,34.36)" stroke="#000000">
    <g class="primitive">
      <text dy="0.35em">N13</text>
    </g>
  </g>
  <g transform="translate(18.59,31.18)" stroke="#000000">
    <g class="primitive">
      <text dy="0.35em">N18</text>
    </g>
  </g>
  <g transform="translate(14.31,40.73)" stroke="#000000">
    <g class="primitive">
      <text dy="0.35em">N11</text>
    </g>
  </g>
  <g transform="translate(29.06,44.97)" stroke="#000000">
    <g class="primitive">
      <text dy="0.35em">N0</text>
    </g>
  </g>
  <g transform="translate(40.23,49.21)" stroke="#000000">
    <g class="primitive">
      <text dy="0.35em">N9</text>
    </g>
  </g>
  <g transform="translate(56.25,53.45)" stroke="#000000">
    <g class="primitive">
      <text dy="0.35em">N3</text>
    </g>
  </g>
  <g transform="translate(39.54,51.33)" stroke="#000000">
    <g class="primitive">
      <text dy="0.35em">N14</text>
    </g>
  </g>
  <g transform="translate(28.15,48.15)" stroke="#000000">
    <g class="primitive">
      <text dy="0.35em">N20</text>
    </g>
  </g>
  <g transform="translate(13.92,44.44)" stroke="#000000">
    <g class="primitive">
      <text dy="0.35em">N21</text>
    </g>
  </g>
  <g transform="translate(10.83,37.81)" stroke="#000000">
    <g class="primitive">
      <text dy="0.35em">N22</text>
    </g>
  </g>
  <g transform="translate(5.63,22.23)" stroke="#000000">
    <g class="primitive">
      <text dy="0.35em"></text>
    </g>
  </g>
</g>
</svg>
