<?xml version="1.0" encoding="UTF-8"?>
<svg xmlns="http://www.w3.org/2000/svg"
     xmlns:xlink="http://www.w3.org/1999/xlink"
     version="1.2"
     width="150mm" height="64mm" viewBox="0 0 150 64"
     stroke="none"
     fill="#000000"
     stroke-width="0.3"
     font-size="3.88"
>
<defs>
  <marker id="arrow" markerWidth="15" markerHeight="7" refX="5" refY="3.5" orient="auto" markerUnits="strokeWidth">
    <path d="M0,0 L15,3.5 L0,7 z" stroke="context-stroke" fill="context-stroke"/>
  </marker>
</defs>
<g stroke-opacity="1" stroke-width="0.3" id="img-cd032720-1">
  <g transform="translate(7.73,2.91)" stroke="#E9EA71">
    <path fill="none" d="M-3.98,0 L3.98,0 " class="primitive"/>
  </g>
  <g transform="translate(25.19,6.55)" stroke="#F216F4">
    <path fill="none" d="M-3.96,0 L3.96,0 " class="primitive"/>
  </g>
  <g transform="translate(26.31,10.18)" stroke="#F216F4">
    <path fill="none" d="M-4.33,0 L4.33,0 " class="primitive"/>
  </g>
  <g transform="translate(36.91,13.82)" stroke="#E9EA71">
    <path fill="none" d="M-14.93,0 L14.93,0 " class="primitive"/>
  </g>
  <g transform="translate(21.6,12)" stroke="#F216F4">
    <path fill="none" d="M-0.38,0 L0.38,0 " class="primitive"/>
  </g>
  <g transform="translate(21.98,12)" stroke="#F216F4">
    <path fill="none" d="M0,1.82 L0,-1.82 " class="primitive"/>
  </g>
  <g transform="translate(12.49,9.27)" stroke="#E9EA71">
    <path fill="none" d="M-8.74,0 L8.74,0 " class="primitive"/>
  </g>
  <g transform="translate(21.23,9.27)" stroke="#E9EA71">
    <path fill="none" d="M0,2.73 L0,-2.73 " class="primitive"/>
  </g>
  <g transform="translate(3.75,6.09)" stroke="#000000">
    <path fill="none" d="M0,0 L0,0 " class="primitive"/>
  </g>
  <g transform="translate(3.75,6.09)" stroke="#000000">
    <path fill="none" d="M0,3.18 L0,-3.18 " class="primitive"/>
  </g>
  <g transform="translate(35.39,17.45)" stroke="#F216F4">
    <path fill="none" d="M-6.76,0 L6.76,0 " class="primitive"/>
  </g>
  <g transform="translate(33.61,21.09)" stroke="#F216F4">
    <path fill="none" d="M-4.98,0 L4.98,0 " class="primitive"/>
  </g>
  <g transform="translate(22.25,19.27)" stroke="#F216F4">
    <path fill="none" d="M-6.38,0 L6.38,0 " class="primitive"/>
  </g>
  <g transform="translate(28.63,19.27)" stroke="#F216F4">
    <path fill="none" d="M0,1.82 L0,-1.82 " class="primitive"/>
  </g>
  <g transform="translate(30.42,24.73)" stroke="#F216F4">
    <path fill="none" d="M-0.15,0 L0.15,0 " class="primitive"/>
  </g>
  <g transform="translate(45.71,28.36)" stroke="#F216F4">
    <path fill="none" d="M-15.44,0 L15.44,0 " class="primitive"/>
  </g>
  <g transform="translate(27.71,26.55)" stroke="#F216F4">
    <path fill="none" d="M-2.56,0 L2.56,0 " class="primitive"/>
  </g>
  <g transform="translate(30.27,26.55)" stroke="#F216F4">
    <path fill="none" d="M0,1.82 L0,-1.82 " class="primitive"/>
  </g>
  <g transform="translate(38.02,32)" stroke="#F216F4">
    <path fill="none" d="M-1.9,0 L1.9,0 " class="primitive"/>
  </g>
  <g transform="translate(42.9,35.64)" stroke="#E9EA71">
    <path fill="none" d="M-6.78,0 L6.78,0 " class="primitive"/>
  </g>
  <g transform="translate(30.64,33.82)" stroke="#E9EA71">
    <path fill="none" d="M-5.48,0 L5.48,0 " class="primitive"/>
  </g>
  <g transform="translate(36.12,33.82)" stroke="#E9EA71">
    <path fill="none" d="M0,1.82 L0,-1.82 " class="primitive"/>
  </g>
  <g transform="translate(22.05,30.18)" stroke="#F216F4">
    <path fill="none" d="M-3.1,0 L3.1,0 " class="primitive"/>
  </g>
  <g transform="translate(25.15,30.18)" stroke="#F216F4">
    <path fill="none" d="M0,3.64 L0,-3.64 " class="primitive"/>
  </g>
  <g transform="translate(37.24,39.27)" stroke="#F216F4">
    <path fill="none" d="M-9.86,0 L9.86,0 " class="primitive"/>
  </g>
  <g transform="translate(59.89,42.91)" stroke="#E9EA71">
    <path fill="none" d="M-2.45,0 L2.45,0 " class="primitive"/>
  </g>
  <g transform="translate(66.08,46.55)" stroke="#F216F4">
    <path fill="none" d="M-8.64,0 L8.64,0 " class="primitive"/>
  </g>
  <g transform="translate(52.23,44.73)" stroke="#E9EA71">
    <path fill="none" d="M-5.21,0 L5.21,0 " class="primitive"/>
  </g>
  <g transform="translate(57.44,44.73)" stroke="#E9EA71">
    <path fill="none" d="M0,1.82 L0,-1.82 " class="primitive"/>
  </g>
  <g transform="translate(50.8,50.18)" stroke="#F216F4">
    <path fill="none" d="M-0.8,0 L0.8,0 " class="primitive"/>
  </g>
  <g transform="translate(73.22,53.82)" stroke="#E9EA71">
    <path fill="none" d="M-0.73,0 L0.73,0 " class="primitive"/>
  </g>
  <g transform="translate(77.38,57.45)" stroke="#F216F4">
    <path fill="none" d="M-1.37,0 L1.37,0 " class="primitive"/>
  </g>
  <g transform="translate(77.19,61.09)" stroke="#F216F4">
    <path fill="none" d="M-1.18,0 L1.18,0 " class="primitive"/>
  </g>
  <g transform="translate(74.25,59.27)" stroke="#F216F4">
    <path fill="none" d="M-1.76,0 L1.76,0 " class="primitive"/>
  </g>
  <g transform="translate(76.01,59.27)" stroke="#F216F4">
    <path fill="none" d="M0,1.82 L0,-1.82 " class="primitive"/>
  </g>
  <g transform="translate(61.25,56.55)" stroke="#F216F4">
    <path fill="none" d="M-11.25,0 L11.25,0 " class="primitive"/>
  </g>
  <g transform="translate(72.49,56.55)" stroke="#F216F4">
    <path fill="none" d="M0,2.73 L0,-2.73 " class="primitive"/>
  </g>
  <g transform="translate(48.51,53.36)" stroke="#F216F4">
    <path fill="none" d="M-1.49,0 L1.49,0 " class="primitive"/>
  </g>
  <g transform="translate(50,53.36)" stroke="#F216F4">
    <path fill="none" d="M0,3.18 L0,-3.18 " class="primitive"/>
  </g>
  <g transform="translate(37.2,49.05)" stroke="#F216F4">
    <path fill="none" d="M-9.83,0 L9.83,0 " class="primitive"/>
  </g>
  <g transform="translate(47.03,49.05)" stroke="#F216F4">
    <path fill="none" d="M0,4.32 L0,-4.32 " class="primitive"/>
  </g>
  <g transform="translate(23.16,44.16)" stroke="#F216F4">
    <path fill="none" d="M-4.21,0 L4.21,0 " class="primitive"/>
  </g>
  <g transform="translate(27.38,44.16)" stroke="#F216F4">
    <path fill="none" d="M0,4.89 L0,-4.89 " class="primitive"/>
  </g>
  <g transform="translate(17.41,37.17)" stroke="#F216F4">
    <path fill="none" d="M-1.54,0 L1.54,0 " class="primitive"/>
  </g>
  <g transform="translate(18.95,37.17)" stroke="#F216F4">
    <path fill="none" d="M0,6.99 L0,-6.99 " class="primitive"/>
  </g>
  <g transform="translate(9.81,28.22)" stroke="#E9EA71">
    <path fill="none" d="M-6.06,0 L6.06,0 " class="primitive"/>
  </g>
  <g transform="translate(15.88,28.22)" stroke="#E9EA71">
    <path fill="none" d="M0,8.95 L0,-8.95 " class="primitive"/>
  </g>
  <g transform="translate(3.75,17.16)" stroke="#000000">
    <path fill="none" d="M0,0 L0,0 " class="primitive"/>
  </g>
  <g transform="translate(3.75,17.16)" stroke="#000000">
    <path fill="none" d="M0,11.07 L0,-11.07 " class="primitive"/>
  </g>
</g>
<g fill-opacity="1" id="img-cd032720-2">
  <g transform="translate(11.71,2.91)" fill="#E9EA71">
    <circle cx="0" cy="0" r="0.75" class="primitive"/>
  </g>
  <g transform="translate(29.15,6.55)" fill="#F216F4">
    <circle cx="0" cy="0" r="0.75" class="primitive"/>
  </g>
  <g transform="translate(30.65,10.18)" fill="#F216F4">
    <circle cx="0" cy="0" r="0.75" class="primitive"/>
  </g>
  <g transform="translate(51.84,13.82)" fill="#E9EA71">
    <circle cx="0" cy="0" r="0.75" class="primitive"/>
  </g>
  <g transform="translate(21.98,12)" fill="#F216F4">
    <circle cx="0" cy="0" r="0.75" class="primitive"/>
  </g>
  <g transform="translate(21.23,9.27)" fill="#E9EA71">
    <circle cx="0" cy="0" r="0.75" class="primitive"/>
  </g>
  <g transform="translate(3.75,6.09)" fill="#000000">
    <circle cx="0" cy="0" r="0.75" class="primitive"/>
  </g>
  <g transform="translate(42.16,17.45)" fill="#F216F4">
    <circle cx="0" cy="0" r="0.75" class="primitive"/>
  </g>
  <g transform="translate(38.59,21.09)" fill="#F216F4">
    <circle cx="0" cy="0" r="0.75" class="primitive"/>
  </g>
  <g transform="translate(28.63,19.27)" fill="#F216F4">
    <circle cx="0" cy="0" r="0.75" class="primitive"/>
  </g>
  <g transform="translate(30.57,24.73)" fill="#F216F4">
    <circle cx="0" cy="0" r="0.75" class="primitive"/>
  </g>
  <g transform="translate(61.15,28.36)" fill="#F216F4">
    <circle cx="0" cy="0" r="0.75" class="primitive"/>
  </g>
  <g transform="translate(30.27,26.55)" fill="#F216F4">
    <circle cx="0" cy="0" r="0.75" class="primitive"/>
  </g>
  <g transform="translate(39.92,32)" fill="#F216F4">
    <circle cx="0" cy="0" r="0.75" class="primitive"/>
  </g>
  <g transform="translate(49.69,35.64)" fill="#E9EA71">
    <circle cx="0" cy="0" r="0.75" class="primitive"/>
  </g>
  <g transform="translate(36.12,33.82)" fill="#E9EA71">
    <circle cx="0" cy="0" r="0.75" class="primitive"/>
  </g>
  <g transform="translate(25.15,30.18)" fill="#F216F4">
    <circle cx="0" cy="0" r="0.75" class="primitive"/>
  </g>
  <g transform="translate(47.1,39.27)" fill="#F216F4">
    <circle cx="0" cy="0" r="0.75" class="primitive"/>
  </g>
  <g transform="translate(62.34,42.91)" fill="#E9EA71">
    <circle cx="0" cy="0" r="0.75" class="primitive"/>
  </g>
  <g transform="translate(74.72,46.55)" fill="#F216F4">
    <circle cx="0" cy="0" r="0.75" class="primitive"/>
  </g>
  <g transform="translate(57.44,44.73)" fill="#E9EA71">
    <circle cx="0" cy="0" r="0.75" class="primitive"/>
  </g>
  <g transform="translate(51.6,50.18)" fill="#F216F4">
    <circle cx="0" cy="0" r="0.75" class="primitive"/>
  </g>
  <g transform="translate(73.96,53.82)" fill="#E9EA71">
    <circle cx="0" cy="0" r="0.75" class="primitive"/>
  </g>
  <g transform="translate(78.75,57.45)" fill="#F216F4">
    <circle cx="0" cy="0" r="0.75" class="primitive"/>
  </g>
  <g transform="translate(78.37,61.09)" fill="#F216F4">
    <circle cx="0" cy="0" r="0.75" class="primitive"/>
  </g>
  <g transform="translate(76.01,59.27)" fill="#F216F4">
    <circle cx="0" cy="0" r="0.75" class="primitive"/>
  </g>
  <g transform="translate(72.49,56.55)" fill="#F216F4">
    <circle cx="0" cy="0" r="0.75" class="primitive"/>
  </g>
  <g transform="translate(50,53.36)" fill="#F216F4">
    <circle cx="0" cy="0" r="0.75" class="primitive"/>
  </g>
  <g transform="translate(47.03,49.05)" fill="#F216F4">
    <circle cx="0" cy="0" r="0.75" class="primitive"/>
  </g>
  <g transform="translate(27.38,44.16)" fill="#F216F4">
    <circle cx="0" cy="0" r="0.75" class="primitive"/>
  </g>
  <g transform="translate(18.95,37.17)" fill="#F216F4">
    <circle cx="0" cy="0" r="0.75" class="primitive"/>
  </g>
  <g transform="translate(15.88,28.22)" fill="#E9EA71">
    <circle cx="0" cy="0" r="0.75" class="primitive"/>
  </g>
  <g transform="translate(3.75,17.16)" fill="#000000">
    <circle cx="0" cy="0" r="0.75" class="primitive"/>
  </g>
</g>
<g stroke-opacity="1" fill-opacity="1" font-size="1.41" stroke-width="0.1" id="img-cd032720-3">
  <g transform="translate(13.58,2.91)" stroke="#000000">
    <g class="primitive">
      <text dy="0.35em">N3</text>
    </g>
  </g>
  <g transform="translate(31.02,6.55)" stroke="#000000">
    <g class="primitive">
      <text dy="0.35em">N9</text>
    </g>
  </g>
  <g transform="translate(32.52,10.18)" stroke="#000000">
    <g class="primitive">
      <text dy="0.35em">N1</text>
    </g>
  </g>
  <g transform="translate(53.71,13.82)" stroke="#000000">
    <g class="primitive">
      <text dy="0.35em">N7</text>
    </g>
  </g>
  <g transform="translate(23.86,12)" stroke="#000000">
    <g class="primitive">
      <text dy="0.35em">N24</text>
    </g>
  </g>
  <g transform="translate(23.1,9.27)" stroke="#000000">
    <g class="primitive">
      <text dy="0.35em">N25</text>
    </g>
  </g>
  <g transform="translate(5.63,6.09)" stroke="#000000">
    <g class="primitive">
      <text dy="0.35em"></text>
    </g>
  </g>
  <g transform="translate(44.03,17.45)" stroke="#000000">
    <g class="primitive">
      <text dy="0.35em">N4</text>
    </g>
  </g>
  <g transform="translate(40.47,21.09)" stroke="#000000">
    <g class="primitive">
      <text dy="0.35em">N15</text>
    </g>
  </g>
  <g transform="translate(30.51,19.27)" stroke="#000000">
    <g class="primitive">
      <text dy="0.35em">N19</text>
    </g>
  </g>
  <g transform="translate(32.45,24.73)" stroke="#000000">
    <g class="primitive">
      <text dy="0.35em">N16</text>
    </g>
  </g>
  <g transform="translate(63.02,28.36)" stroke="#000000">
    <g class="primitive">
      <text dy="0.35em">N12</text>
    </g>
  </g>
  <g transform="translate(32.14,26.55)" stroke="#000000">
    <g class="primitive">
      <text dy="0.35em">N20</text>
    </g>
  </g>
  <g transform="translate(41.8,32)" stroke="#000000">
    <g class="primitive">
      <text dy="0.35em">N0</text>
    </g>
  </g>
  <g transform="translate(51.56,35.64)" stroke="#000000">
    <g class="primitive">
      <text dy="0.35em">N10</text>
    </g>
  </g>
  <g transform="translate(37.99,33.82)" stroke="#000000">
    <g class="primitive">
      <text dy="0.35em">N26</text>
    </g>
  </g>
  <g transform="translate(27.03,30.18)" stroke="#000000">
    <g class="primitive">
      <text dy="0.35em">N28</text>
    </g>
  </g>
  <g transform="translate(48.97,39.27)" stroke="#000000">
    <g class="primitive">
      <text dy="0.35em">N11</text>
    </g>
  </g>
  <g transform="translate(64.22,42.91)" stroke="#000000">
    <g class="primitive">
      <text dy="0.35em">N14</text>
    </g>
  </g>
  <g transform="translate(76.6,46.55)" stroke="#000000">
    <g class="primitive">
      <text dy="0.35em">N2</text>
    </g>
  </g>
  <g transform="translate(59.32,44.73)" stroke="#000000">
    <g class="primitive">
      <text dy="0.35em">N22</text>
    </g>
  </g>
  <g transform="translate(53.47,50.18)" stroke="#000000">
    <g class="primitive">
      <text dy="0.35em">N13</text>
    </g>
  </g>
  <g transform="translate(75.83,53.82)" stroke="#000000">
    <g class="primitive">
      <text dy="0.35em">N8</text>
    </g>
  </g>
  <g transform="translate(80.62,57.45)" stroke="#000000">
    <g class="primitive">
      <text dy="0.35em">N5</text>
    </g>
  </g>
  <g transform="translate(80.24,61.09)" stroke="#000000">
    <g class="primitive">
      <text dy="0.35em">N6</text>
    </g>
  </g>
  <g transform="translate(77.89,59.27)" stroke="#000000">
    <g class="primitive">
      <text dy="0.35em">N17</text>
    </g>
  </g>
  <g transform="translate(74.37,56.55)" stroke="#000000">
    <g class="primitive">
      <text dy="0.35em">N18</text>
    </g>
  </g>
  <g transform="translate(51.87,53.36)" stroke="#000000">
    <g class="primitive">
      <text dy="0.35em">N21</text>
    </g>
  </g>
  <g transform="translate(48.9,49.05)" stroke="#000000">
    <g class="primitive">
      <text dy="0.35em">N23</text>
    </g>
  </g>
  <g transform="translate(29.25,44.16)" stroke="#000000">
    <g class="primitive">
      <text dy="0.35em">N27</text>
    </g>
  </g>
  <g transform="translate(20.83,37.17)" stroke="#000000">
    <g class="primitive">
      <text dy="0.35em">N29</text>
    </g>
  </g>
  <g transform="translate(17.75,28.22)" stroke="#000000">
    <g class="primitive">
      <text dy="0.35em">N30</text>
    </g>
  </g>
  <g transform="translate(5.63,17.16)" stroke="#000000">
    <g class="primitive">
      <text dy="0.35em"></text>
    </g>
  </g>
</g>
</svg>
