<?xml version="1.0" encoding="UTF-8"?>
<svg xmlns="http://www.w3.org/2000/svg"
     xmlns:xlink="http://www.w3.org/1999/xlink"
     version="1.2"
     width="150mm" height="72mm" viewBox="0 0 150 72"
     stroke="none"
     fill="#000000"
     stroke-width="0.3"
     font-size="3.88"
>
<defs>
  <marker id="arrow" markerWidth="15" markerHeight="7" refX="5" refY="3.5" orient="auto" markerUnits="strokeWidth">
    <path d="M0,0 L15,3.5 L0,7 z" stroke="context-stroke" fill="context-stroke"/>
  </marker>
</defs>
<g stroke-opacity="1" stroke-width="0.3" id="img-29b4c979-1">
  <g transform="translate(10.22,3.27)" stroke="#8EE645">
    <path fill="none" d="M-6.47,0 L6.47,0 " class="primitive"/>
  </g>
  <g transform="translate(10.66,6.55)" stroke="#B2D8BD">
    <path fill="none" d="M-6.91,0 L6.91,0 " class="primitive"/>
  </g>
  <g transform="translate(6.86,9.82)" stroke="#B2D8BD">
    <path fill="none" d="M-0.58,0 L0.58,0 " class="primitive"/>
  </g>
  <g transform="translate(10.98,13.09)" stroke="#8EE645">
    <path fill="none" d="M-0.76,0 L0.76,0 " class="primitive"/>
  </g>
  <g transform="translate(17.56,16.36)" stroke="#8EE645">
    <path fill="none" d="M-2.6,0 L2.6,0 " class="primitive"/>
  </g>
  <g transform="translate(18.25,19.64)" stroke="#8EE645">
    <path fill="none" d="M-2.33,0 L2.33,0 " class="primitive"/>
  </g>
  <g transform="translate(20.56,22.91)" stroke="#B2D8BD">
    <path fill="none" d="M-3.78,0 L3.78,0 " class="primitive"/>
  </g>
  <g transform="translate(29.07,26.18)" stroke="#B2D8BD">
    <path fill="none" d="M-1.58,0 L1.58,0 " class="primitive"/>
  </g>
  <g transform="translate(34.04,29.45)" stroke="#B2D8BD">
    <path fill="none" d="M-1.52,0 L1.52,0 " class="primitive"/>
  </g>
  <g transform="translate(36.24,32.73)" stroke="#B2D8BD">
    <path fill="none" d="M-1.46,0 L1.46,0 " class="primitive"/>
  </g>
  <g transform="translate(36.84,36)" stroke="#8EE645">
    <path fill="none" d="M-1.16,0 L1.16,0 " class="primitive"/>
  </g>
  <g transform="translate(40.96,39.27)" stroke="#B2D8BD">
    <path fill="none" d="M-2.8,0 L2.8,0 " class="primitive"/>
  </g>
  <g transform="translate(51.77,42.55)" stroke="#B2D8BD">
    <path fill="none" d="M-0.17,0 L0.17,0 " class="primitive"/>
  </g>
  <g transform="translate(59.59,45.82)" stroke="#8EE645">
    <path fill="none" d="M-3.49,0 L3.49,0 " class="primitive"/>
  </g>
  <g transform="translate(57.84,49.09)" stroke="#8EE645">
    <path fill="none" d="M-0.45,0 L0.45,0 " class="primitive"/>
  </g>
  <g transform="translate(59.81,52.36)" stroke="#8EE645">
    <path fill="none" d="M-0.19,0 L0.19,0 " class="primitive"/>
  </g>
  <g transform="translate(61.2,55.64)" stroke="#B2D8BD">
    <path fill="none" d="M-0.81,0 L0.81,0 " class="primitive"/>
  </g>
  <g transform="translate(65.42,58.91)" stroke="#B2D8BD">
    <path fill="none" d="M-1.49,0 L1.49,0 " class="primitive"/>
  </g>
  <g transform="translate(70.05,62.18)" stroke="#8EE645">
    <path fill="none" d="M-3.77,0 L3.77,0 " class="primitive"/>
  </g>
  <g transform="translate(68.78,65.45)" stroke="#B2D8BD">
    <path fill="none" d="M-1.45,0 L1.45,0 " class="primitive"/>
  </g>
  <g transform="translate(73.04,68.73)" stroke="#B2D8BD">
    <path fill="none" d="M-5.71,0 L5.71,0 " class="primitive"/>
  </g>
  <g transform="translate(66.8,67.09)" stroke="#8EE645">
    <path fill="none" d="M-0.52,0 L0.52,0 " class="primitive"/>
  </g>
  <g transform="translate(67.32,67.09)" stroke="#8EE645">
    <path fill="none" d="M0,1.64 L0,-1.64 " class="primitive"/>
  </g>
  <g transform="translate(65.11,64.64)" stroke="#B2D8BD">
    <path fill="none" d="M-1.18,0 L1.18,0 " class="primitive"/>
  </g>
  <g transform="translate(66.29,64.64)" stroke="#B2D8BD">
    <path fill="none" d="M0,2.45 L0,-2.45 " class="primitive"/>
  </g>
  <g transform="translate(62.16,61.77)" stroke="#B2D8BD">
    <path fill="none" d="M-1.77,0 L1.77,0 " class="primitive"/>
  </g>
  <g transform="translate(63.93,61.77)" stroke="#B2D8BD">
    <path fill="none" d="M0,2.86 L0,-2.86 " class="primitive"/>
  </g>
  <g transform="translate(60,58.7)" stroke="#8EE645">
    <path fill="none" d="M-0.39,0 L0.39,0 " class="primitive"/>
  </g>
  <g transform="translate(60.39,58.7)" stroke="#8EE645">
    <path fill="none" d="M0,3.07 L0,-3.07 " class="primitive"/>
  </g>
  <g transform="translate(58.5,55.53)" stroke="#8EE645">
    <path fill="none" d="M-1.11,0 L1.11,0 " class="primitive"/>
  </g>
  <g transform="translate(59.61,55.53)" stroke="#8EE645">
    <path fill="none" d="M0,3.17 L0,-3.17 " class="primitive"/>
  </g>
  <g transform="translate(56.74,52.31)" stroke="#8EE645">
    <path fill="none" d="M-0.65,0 L0.65,0 " class="primitive"/>
  </g>
  <g transform="translate(57.39,52.31)" stroke="#8EE645">
    <path fill="none" d="M0,3.22 L0,-3.22 " class="primitive"/>
  </g>
  <g transform="translate(53.85,49.07)" stroke="#B2D8BD">
    <path fill="none" d="M-2.25,0 L2.25,0 " class="primitive"/>
  </g>
  <g transform="translate(56.09,49.07)" stroke="#B2D8BD">
    <path fill="none" d="M0,3.25 L0,-3.25 " class="primitive"/>
  </g>
  <g transform="translate(44.88,45.81)" stroke="#8EE645">
    <path fill="none" d="M-6.72,0 L6.72,0 " class="primitive"/>
  </g>
  <g transform="translate(51.6,45.81)" stroke="#8EE645">
    <path fill="none" d="M0,3.26 L0,-3.26 " class="primitive"/>
  </g>
  <g transform="translate(36.92,42.54)" stroke="#B2D8BD">
    <path fill="none" d="M-1.24,0 L1.24,0 " class="primitive"/>
  </g>
  <g transform="translate(38.16,42.54)" stroke="#B2D8BD">
    <path fill="none" d="M0,3.27 L0,-3.27 " class="primitive"/>
  </g>
  <g transform="translate(35.23,39.27)" stroke="#8EE645">
    <path fill="none" d="M-0.45,0 L0.45,0 " class="primitive"/>
  </g>
  <g transform="translate(35.68,39.27)" stroke="#8EE645">
    <path fill="none" d="M0,3.27 L0,-3.27 " class="primitive"/>
  </g>
  <g transform="translate(33.64,36)" stroke="#8EE645">
    <path fill="none" d="M-1.13,0 L1.13,0 " class="primitive"/>
  </g>
  <g transform="translate(34.77,36)" stroke="#8EE645">
    <path fill="none" d="M0,3.27 L0,-3.27 " class="primitive"/>
  </g>
  <g transform="translate(30,32.73)" stroke="#8EE645">
    <path fill="none" d="M-2.51,0 L2.51,0 " class="primitive"/>
  </g>
  <g transform="translate(32.51,32.73)" stroke="#8EE645">
    <path fill="none" d="M0,3.27 L0,-3.27 " class="primitive"/>
  </g>
  <g transform="translate(22.14,29.45)" stroke="#8EE645">
    <path fill="none" d="M-5.36,0 L5.36,0 " class="primitive"/>
  </g>
  <g transform="translate(27.5,29.45)" stroke="#8EE645">
    <path fill="none" d="M0,3.27 L0,-3.27 " class="primitive"/>
  </g>
  <g transform="translate(16.35,26.18)" stroke="#8EE645">
    <path fill="none" d="M-0.43,0 L0.43,0 " class="primitive"/>
  </g>
  <g transform="translate(16.78,26.18)" stroke="#8EE645">
    <path fill="none" d="M0,3.27 L0,-3.27 " class="primitive"/>
  </g>
  <g transform="translate(15.44,22.91)" stroke="#B2D8BD">
    <path fill="none" d="M-0.48,0 L0.48,0 " class="primitive"/>
  </g>
  <g transform="translate(15.92,22.91)" stroke="#B2D8BD">
    <path fill="none" d="M0,3.27 L0,-3.27 " class="primitive"/>
  </g>
  <g stroke-opacity="1" stroke-width="0.3" id="img-29b4c979-2">
    <g transform="translate(15.92,22.91)" stroke="#B2D8BD">
      <path fill="none" d="M0,3.27 L0,-3.27 " class="primitive"/>
    </g>
    <g transform="translate(12.59,19.64)" stroke="#8EE645">
      <path fill="none" d="M-2.37,0 L2.37,0 " class="primitive"/>
    </g>
    <g transform="translate(14.96,19.64)" stroke="#8EE645">
      <path fill="none" d="M0,3.27 L0,-3.27 " class="primitive"/>
    </g>
    <g transform="translate(8.25,16.36)" stroke="#8EE645">
      <path fill="none" d="M-1.97,0 L1.97,0 " class="primitive"/>
    </g>
    <g transform="translate(10.21,16.36)" stroke="#8EE645">
      <path fill="none" d="M0,3.27 L0,-3.27 " class="primitive"/>
    </g>
    <g transform="translate(5.01,13.09)" stroke="#8EE645">
      <path fill="none" d="M-1.26,0 L1.26,0 " class="primitive"/>
    </g>
    <g transform="translate(6.28,13.09)" stroke="#8EE645">
      <path fill="none" d="M0,3.27 L0,-3.27 " class="primitive"/>
    </g>
    <g transform="translate(3.75,9.82)" stroke="#000000">
      <path fill="none" d="M0,0 L0,0 " class="primitive"/>
    </g>
    <g transform="translate(3.75,9.82)" stroke="#000000">
      <path fill="none" d="M0,3.27 L0,-3.27 " class="primitive"/>
    </g>
    <g transform="translate(3.75,6.55)" stroke="#000000">
      <path fill="none" d="M0,0 L0,0 " class="primitive"/>
    </g>
    <g transform="translate(3.75,6.55)" stroke="#000000">
      <path fill="none" d="M0,3.27 L0,-3.27 " class="primitive"/>
    </g>
  </g>
</g>
<g fill-opacity="1" id="img-29b4c979-3">
  <g transform="translate(16.69,3.27)" fill="#8EE645">
    <circle cx="0" cy="0" r="0.75" class="primitive"/>
  </g>
  <g transform="translate(17.57,6.55)" fill="#B2D8BD">
    <circle cx="0" cy="0" r="0.75" class="primitive"/>
  </g>
  <g transform="translate(7.44,9.82)" fill="#B2D8BD">
    <circle cx="0" cy="0" r="0.75" class="primitive"/>
  </g>
  <g transform="translate(11.74,13.09)" fill="#8EE645">
    <circle cx="0" cy="0" r="0.75" class="primitive"/>
  </g>
  <g transform="translate(20.16,16.36)" fill="#8EE645">
    <circle cx="0" cy="0" r="0.75" class="primitive"/>
  </g>
  <g transform="translate(20.57,19.64)" fill="#8EE645">
    <circle cx="0" cy="0" r="0.75" class="primitive"/>
  </g>
  <g transform="translate(24.33,22.91)" fill="#B2D8BD">
    <circle cx="0" cy="0" r="0.75" class="primitive"/>
  </g>
  <g transform="translate(30.65,26.18)" fill="#B2D8BD">
    <circle cx="0" cy="0" r="0.75" class="primitive"/>
  </g>
  <g transform="translate(35.56,29.45)" fill="#B2D8BD">
    <circle cx="0" cy="0" r="0.75" class="primitive"/>
  </g>
  <g transform="translate(37.7,32.73)" fill="#B2D8BD">
    <circle cx="0" cy="0" r="0.75" class="primitive"/>
  </g>
  <g transform="translate(37.99,36)" fill="#8EE645">
    <circle cx="0" cy="0" r="0.75" class="primitive"/>
  </g>
  <g transform="translate(43.76,39.27)" fill="#B2D8BD">
    <circle cx="0" cy="0" r="0.75" class="primitive"/>
  </g>
  <g transform="translate(51.94,42.55)" fill="#B2D8BD">
    <circle cx="0" cy="0" r="0.75" class="primitive"/>
  </g>
  <g transform="translate(63.08,45.82)" fill="#8EE645">
    <circle cx="0" cy="0" r="0.75" class="primitive"/>
  </g>
  <g transform="translate(58.28,49.09)" fill="#8EE645">
    <circle cx="0" cy="0" r="0.75" class="primitive"/>
  </g>
  <g transform="translate(60,52.36)" fill="#8EE645">
    <circle cx="0" cy="0" r="0.75" class="primitive"/>
  </g>
  <g transform="translate(62,55.64)" fill="#B2D8BD">
    <circle cx="0" cy="0" r="0.75" class="primitive"/>
  </g>
  <g transform="translate(66.92,58.91)" fill="#B2D8BD">
    <circle cx="0" cy="0" r="0.75" class="primitive"/>
  </g>
  <g transform="translate(73.82,62.18)" fill="#8EE645">
    <circle cx="0" cy="0" r="0.75" class="primitive"/>
  </g>
  <g transform="translate(70.23,65.45)" fill="#B2D8BD">
    <circle cx="0" cy="0" r="0.75" class="primitive"/>
  </g>
  <g transform="translate(78.75,68.73)" fill="#B2D8BD">
    <circle cx="0" cy="0" r="0.75" class="primitive"/>
  </g>
  <g transform="translate(67.32,67.09)" fill="#8EE645">
    <circle cx="0" cy="0" r="0.75" class="primitive"/>
  </g>
  <g transform="translate(66.29,64.64)" fill="#B2D8BD">
    <circle cx="0" cy="0" r="0.75" class="primitive"/>
  </g>
  <g transform="translate(63.93,61.77)" fill="#B2D8BD">
    <circle cx="0" cy="0" r="0.75" class="primitive"/>
  </g>
  <g transform="translate(60.39,58.7)" fill="#8EE645">
    <circle cx="0" cy="0" r="0.75" class="primitive"/>
  </g>
  <g transform="translate(59.61,55.53)" fill="#8EE645">
    <circle cx="0" cy="0" r="0.75" class="primitive"/>
  </g>
  <g transform="translate(57.39,52.31)" fill="#8EE645">
    <circle cx="0" cy="0" r="0.75" class="primitive"/>
  </g>
  <g transform="translate(56.09,49.07)" fill="#B2D8BD">
    <circle cx="0" cy="0" r="0.75" class="primitive"/>
  </g>
  <g transform="translate(51.6,45.81)" fill="#8EE645">
    <circle cx="0" cy="0" r="0.75" class="primitive"/>
  </g>
  <g transform="translate(38.16,42.54)" fill="#B2D8BD">
    <circle cx="0" cy="0" r="0.75" class="primitive"/>
  </g>
  <g transform="translate(35.68,39.27)" fill="#8EE645">
    <circle cx="0" cy="0" r="0.75" class="primitive"/>
  </g>
  <g transform="translate(34.77,36)" fill="#8EE645">
    <circle cx="0" cy="0" r="0.75" class="primitive"/>
  </g>
  <g transform="translate(32.51,32.73)" fill="#8EE645">
    <circle cx="0" cy="0" r="0.75" class="primitive"/>
  </g>
  <g transform="translate(27.5,29.45)" fill="#8EE645">
    <circle cx="0" cy="0" r="0.75" class="primitive"/>
  </g>
  <g transform="translate(16.78,26.18)" fill="#8EE645">
    <circle cx="0" cy="0" r="0.75" class="primitive"/>
  </g>
  <g transform="translate(15.92,22.91)" fill="#B2D8BD">
    <circle cx="0" cy="0" r="0.75" class="primitive"/>
  </g>
  <g transform="translate(14.96,19.64)" fill="#8EE645">
    <circle cx="0" cy="0" r="0.75" class="primitive"/>
  </g>
  <g transform="translate(10.21,16.36)" fill="#8EE645">
    <circle cx="0" cy="0" r="0.75" class="primitive"/>
  </g>
  <g transform="translate(6.28,13.09)" fill="#8EE645">
    <circle cx="0" cy="0" r="0.75" class="primitive"/>
  </g>
  <g transform="translate(3.75,9.82)" fill="#000000">
    <circle cx="0" cy="0" r="0.75" class="primitive"/>
  </g>
  <g transform="translate(3.75,6.55)" fill="#000000">
    <circle cx="0" cy="0" r="0.75" class="primitive"/>
  </g>
</g>
<g stroke-opacity="1" fill-opacity="1" font-size="1.41" stroke-width="0.1" id="img-29b4c979-4">
  <g transform="translate(18.56,3.27)" stroke="#000000">
    <g class="primitive">
      <text dy="0.35em">N20</text>
    </g>
  </g>
  <g transform="translate(19.45,6.55)" stroke="#000000">
    <g class="primitive">
      <text dy="0.35em">N19</text>
    </g>
  </g>
  <g transform="translate(9.32,9.82)" stroke="#000000">
    <g class="primitive">
      <text dy="0.35em">N18</text>
    </g>
  </g>
  <g transform="translate(13.62,13.09)" stroke="#000000">
    <g class="primitive">
      <text dy="0.35em">N17</text>
    </g>
  </g>
  <g transform="translate(22.04,16.36)" stroke="#000000">
    <g class="primitive">
      <text dy="0.35em">N16</text>
    </g>
  </g>
  <g transform="translate(22.45,19.64)" stroke="#000000">
    <g class="primitive">
      <text dy="0.35em">N15</text>
    </g>
  </g>
  <g transform="translate(26.21,22.91)" stroke="#000000">
    <g class="primitive">
      <text dy="0.35em">N14</text>
    </g>
  </g>
  <g transform="translate(32.53,26.18)" stroke="#000000">
    <g class="primitive">
      <text dy="0.35em">N13</text>
    </g>
  </g>
  <g transform="translate(37.44,29.45)" stroke="#000000">
    <g class="primitive">
      <text dy="0.35em">N12</text>
    </g>
  </g>
  <g transform="translate(39.58,32.73)" stroke="#000000">
    <g class="primitive">
      <text dy="0.35em">N11</text>
    </g>
  </g>
  <g transform="translate(39.87,36)" stroke="#000000">
    <g class="primitive">
      <text dy="0.35em">N10</text>
    </g>
  </g>
  <g transform="translate(45.63,39.27)" stroke="#000000">
    <g class="primitive">
      <text dy="0.35em">N9</text>
    </g>
  </g>
  <g transform="translate(53.82,42.55)" stroke="#000000">
    <g class="primitive">
      <text dy="0.35em">N8</text>
    </g>
  </g>
  <g transform="translate(64.96,45.82)" stroke="#000000">
    <g class="primitive">
      <text dy="0.35em">N7</text>
    </g>
  </g>
  <g transform="translate(60.16,49.09)" stroke="#000000">
    <g class="primitive">
      <text dy="0.35em">N6</text>
    </g>
  </g>
  <g transform="translate(61.88,52.36)" stroke="#000000">
    <g class="primitive">
      <text dy="0.35em">N5</text>
    </g>
  </g>
  <g transform="translate(63.88,55.64)" stroke="#000000">
    <g class="primitive">
      <text dy="0.35em">N4</text>
    </g>
  </g>
  <g transform="translate(68.79,58.91)" stroke="#000000">
    <g class="primitive">
      <text dy="0.35em">N3</text>
    </g>
  </g>
  <g transform="translate(75.69,62.18)" stroke="#000000">
    <g class="primitive">
      <text dy="0.35em">N2</text>
    </g>
  </g>
  <g transform="translate(72.11,65.45)" stroke="#000000">
    <g class="primitive">
      <text dy="0.35em">N0</text>
    </g>
  </g>
  <g transform="translate(80.62,68.73)" stroke="#000000">
    <g class="primitive">
      <text dy="0.35em">N1</text>
    </g>
  </g>
  <g transform="translate(69.2,67.09)" stroke="#000000">
    <g class="primitive">
      <text dy="0.35em">N21</text>
    </g>
  </g>
  <g transform="translate(68.16,64.64)" stroke="#000000">
    <g class="primitive">
      <text dy="0.35em">N22</text>
    </g>
  </g>
  <g transform="translate(65.8,61.77)" stroke="#000000">
    <g class="primitive">
      <text dy="0.35em">N23</text>
    </g>
  </g>
  <g transform="translate(62.27,58.7)" stroke="#000000">
    <g class="primitive">
      <text dy="0.35em">N24</text>
    </g>
  </g>
  <g transform="translate(61.49,55.53)" stroke="#000000">
    <g class="primitive">
      <text dy="0.35em">N25</text>
    </g>
  </g>
  <g transform="translate(59.26,52.31)" stroke="#000000">
    <g class="primitive">
      <text dy="0.35em">N26</text>
    </g>
  </g>
  <g transform="translate(57.97,49.07)" stroke="#000000">
    <g class="primitive">
      <text dy="0.35em">N27</text>
    </g>
  </g>
  <g transform="translate(53.47,45.81)" stroke="#000000">
    <g class="primitive">
      <text dy="0.35em">N28</text>
    </g>
  </g>
  <g transform="translate(40.03,42.54)" stroke="#000000">
    <g class="primitive">
      <text dy="0.35em">N29</text>
    </g>
  </g>
  <g transform="translate(37.55,39.27)" stroke="#000000">
    <g class="primitive">
      <text dy="0.35em">N30</text>
    </g>
  </g>
  <g transform="translate(36.65,36)" stroke="#000000">
    <g class="primitive">
      <text dy="0.35em">N31</text>
    </g>
  </g>
  <g transform="translate(34.39,32.73)" stroke="#000000">
    <g class="primitive">
      <text dy="0.35em">N32</text>
    </g>
  </g>
  <g transform="translate(29.37,29.45)" stroke="#000000">
    <g class="primitive">
      <text dy="0.35em">N33</text>
    </g>
  </g>
  <g transform="translate(18.66,26.18)" stroke="#000000">
    <g class="primitive">
      <text dy="0.35em">N34</text>
    </g>
  </g>
  <g transform="translate(17.8,22.91)" stroke="#000000">
    <g class="primitive">
      <text dy="0.35em">N35</text>
    </g>
  </g>
  <g transform="translate(16.84,19.64)" stroke="#000000">
    <g class="primitive">
      <text dy="0.35em">N36</text>
    </g>
  </g>
  <g transform="translate(12.09,16.36)" stroke="#000000">
    <g class="primitive">
      <text dy="0.35em">N37</text>
    </g>
  </g>
  <g transform="translate(8.15,13.09)" stroke="#000000">
    <g class="primitive">
      <text dy="0.35em">N38</text>
    </g>
  </g>
  <g transform="translate(5.63,9.82)" stroke="#000000">
    <g class="primitive">
      <text dy="0.35em"></text>
    </g>
  </g>
  <g transform="translate(5.63,6.55)" stroke="#000000">
    <g class="primitive">
      <text dy="0.35em"></text>
    </g>
  </g>
</g>
</svg>
