<?xml version="1.0" encoding="UTF-8"?>
<svg xmlns="http://www.w3.org/2000/svg"
     xmlns:xlink="http://www.w3.org/1999/xlink"
     version="1.2"
     width="150mm" height="116mm" viewBox="0 0 150 116"
     stroke="none"
     fill="#000000"
     stroke-width="0.3"
     font-size="3.88"
>
<defs>
  <marker id="arrow" markerWidth="15" markerHeight="7" refX="5" refY="3.5" orient="auto" markerUnits="strokeWidth">
    <path d="M0,0 L15,3.5 L0,7 z" stroke="context-stroke" fill="context-stroke"/>
  </marker>
</defs>
<g stroke-opacity="1" stroke-width="0.3" id="img-29b4c979-1">
  <g transform="translate(10.74,5.27)" stroke="#949401">
    <path fill="none" d="M-5.57,0 L5.57,0 " class="primitive"/>
  </g>
  <g transform="translate(6.94,7.78)" stroke="#949401">
    <path fill="none" d="M-0.38,0 L0.38,0 " class="primitive"/>
  </g>
  <g transform="translate(8.88,10.29)" stroke="#E3F8A6">
    <path fill="none" d="M-2.33,0 L2.33,0 " class="primitive"/>
  </g>
  <g transform="translate(5.86,9.04)" stroke="#949401">
    <path fill="none" d="M-0.69,0 L0.69,0 " class="primitive"/>
  </g>
  <g transform="translate(6.55,9.04)" stroke="#949401">
    <path fill="none" d="M0,1.26 L0,-1.26 " class="primitive"/>
  </g>
  <g transform="translate(4.46,7.16)" stroke="#949401">
    <path fill="none" d="M-0.71,0 L0.71,0 " class="primitive"/>
  </g>
  <g transform="translate(5.16,7.16)" stroke="#949401">
    <path fill="none" d="M0,1.88 L0,-1.88 " class="primitive"/>
  </g>
  <g transform="translate(14.1,12.81)" stroke="#949401">
    <path fill="none" d="M-10.04,0 L10.04,0 " class="primitive"/>
  </g>
  <g transform="translate(35.63,15.32)" stroke="#E3F8A6">
    <path fill="none" d="M-3.57,0 L3.57,0 " class="primitive"/>
  </g>
  <g transform="translate(37.25,17.83)" stroke="#E3F8A6">
    <path fill="none" d="M-2.14,0 L2.14,0 " class="primitive"/>
  </g>
  <g transform="translate(41.8,20.34)" stroke="#949401">
    <path fill="none" d="M-3.62,0 L3.62,0 " class="primitive"/>
  </g>
  <g transform="translate(38.96,22.85)" stroke="#949401">
    <path fill="none" d="M-0.77,0 L0.77,0 " class="primitive"/>
  </g>
  <g transform="translate(36.65,21.59)" stroke="#949401">
    <path fill="none" d="M-1.54,0 L1.54,0 " class="primitive"/>
  </g>
  <g transform="translate(38.18,21.59)" stroke="#949401">
    <path fill="none" d="M0,1.26 L0,-1.26 " class="primitive"/>
  </g>
  <g transform="translate(33.59,19.71)" stroke="#949401">
    <path fill="none" d="M-1.53,0 L1.53,0 " class="primitive"/>
  </g>
  <g transform="translate(35.11,19.71)" stroke="#949401">
    <path fill="none" d="M0,1.88 L0,-1.88 " class="primitive"/>
  </g>
  <g transform="translate(29.44,17.51)" stroke="#949401">
    <path fill="none" d="M-2.62,0 L2.62,0 " class="primitive"/>
  </g>
  <g transform="translate(32.06,17.51)" stroke="#949401">
    <path fill="none" d="M0,2.2 L0,-2.2 " class="primitive"/>
  </g>
  <g transform="translate(63.19,25.36)" stroke="#E3F8A6">
    <path fill="none" d="M-0.01,0 L0.01,0 " class="primitive"/>
  </g>
  <g transform="translate(65.99,27.87)" stroke="#949401">
    <path fill="none" d="M-2.81,0 L2.81,0 " class="primitive"/>
  </g>
  <g transform="translate(50.56,26.61)" stroke="#E3F8A6">
    <path fill="none" d="M-12.61,0 L12.61,0 " class="primitive"/>
  </g>
  <g transform="translate(63.18,26.61)" stroke="#E3F8A6">
    <path fill="none" d="M0,1.26 L0,-1.26 " class="primitive"/>
  </g>
  <g transform="translate(54.99,30.38)" stroke="#949401">
    <path fill="none" d="M-4.35,0 L4.35,0 " class="primitive"/>
  </g>
  <g transform="translate(52.62,32.89)" stroke="#E3F8A6">
    <path fill="none" d="M-1.98,0 L1.98,0 " class="primitive"/>
  </g>
  <g transform="translate(44.95,31.64)" stroke="#E3F8A6">
    <path fill="none" d="M-5.69,0 L5.69,0 " class="primitive"/>
  </g>
  <g transform="translate(50.64,31.64)" stroke="#E3F8A6">
    <path fill="none" d="M0,1.26 L0,-1.26 " class="primitive"/>
  </g>
  <g transform="translate(56.65,35.4)" stroke="#E3F8A6">
    <path fill="none" d="M-11.35,0 L11.35,0 " class="primitive"/>
  </g>
  <g transform="translate(51.35,37.91)" stroke="#E3F8A6">
    <path fill="none" d="M-3.27,0 L3.27,0 " class="primitive"/>
  </g>
  <g transform="translate(50.73,40.42)" stroke="#E3F8A6">
    <path fill="none" d="M-2.66,0 L2.66,0 " class="primitive"/>
  </g>
  <g transform="translate(46.68,39.17)" stroke="#E3F8A6">
    <path fill="none" d="M-1.39,0 L1.39,0 " class="primitive"/>
  </g>
  <g transform="translate(48.07,39.17)" stroke="#E3F8A6">
    <path fill="none" d="M0,1.26 L0,-1.26 " class="primitive"/>
  </g>
  <g transform="translate(44.24,37.29)" stroke="#E3F8A6">
    <path fill="none" d="M-1.06,0 L1.06,0 " class="primitive"/>
  </g>
  <g transform="translate(45.3,37.29)" stroke="#E3F8A6">
    <path fill="none" d="M0,1.88 L0,-1.88 " class="primitive"/>
  </g>
  <g transform="translate(50.42,42.94)" stroke="#949401">
    <path fill="none" d="M-2.18,0 L2.18,0 " class="primitive"/>
  </g>
  <g transform="translate(49.68,45.45)" stroke="#E3F8A6">
    <path fill="none" d="M-0.43,0 L0.43,0 " class="primitive"/>
  </g>
  <g transform="translate(65.83,47.96)" stroke="#E3F8A6">
    <path fill="none" d="M-12.92,0 L12.92,0 " class="primitive"/>
  </g>
  <g transform="translate(54.03,50.47)" stroke="#E3F8A6">
    <path fill="none" d="M-1.11,0 L1.11,0 " class="primitive"/>
  </g>
  <g transform="translate(51.08,49.21)" stroke="#949401">
    <path fill="none" d="M-1.84,0 L1.84,0 " class="primitive"/>
  </g>
  <g transform="translate(52.92,49.21)" stroke="#949401">
    <path fill="none" d="M0,1.26 L0,-1.26 " class="primitive"/>
  </g>
  <g transform="translate(48.74,47.33)" stroke="#949401">
    <path fill="none" d="M-0.5,0 L0.5,0 " class="primitive"/>
  </g>
  <g transform="translate(49.24,47.33)" stroke="#949401">
    <path fill="none" d="M0,1.88 L0,-1.88 " class="primitive"/>
  </g>
  <g transform="translate(45.71,45.13)" stroke="#E3F8A6">
    <path fill="none" d="M-2.53,0 L2.53,0 " class="primitive"/>
  </g>
  <g transform="translate(48.24,45.13)" stroke="#E3F8A6">
    <path fill="none" d="M0,2.2 L0,-2.2 " class="primitive"/>
  </g>
  <g transform="translate(41.22,41.21)" stroke="#E3F8A6">
    <path fill="none" d="M-1.96,0 L1.96,0 " class="primitive"/>
  </g>
  <g transform="translate(43.18,41.21)" stroke="#E3F8A6">
    <path fill="none" d="M0,3.92 L0,-3.92 " class="primitive"/>
  </g>
  <g transform="translate(38.61,36.42)" stroke="#949401">
    <path fill="none" d="M-0.65,0 L0.65,0 " class="primitive"/>
  </g>
  <g transform="translate(39.26,36.42)" stroke="#949401">
    <path fill="none" d="M0,4.79 L0,-4.79 " class="primitive"/>
  </g>
  <g transform="translate(32.39,31.52)" stroke="#E3F8A6">
    <path fill="none" d="M-5.56,0 L5.56,0 " class="primitive"/>
  </g>
  <g transform="translate(37.95,31.52)" stroke="#E3F8A6">
    <path fill="none" d="M0,4.9 L0,-4.9 " class="primitive"/>
  </g>
  <g transform="translate(15.44,24.52)" stroke="#E3F8A6">
    <path fill="none" d="M-11.38,0 L11.38,0 " class="primitive"/>
  </g>
  <g transform="translate(26.82,24.52)" stroke="#E3F8A6">
    <path fill="none" d="M0,7 L0,-7 " class="primitive"/>
  </g>
  <g stroke-opacity="1" stroke-width="0.3" id="img-29b4c979-2">
    <g transform="translate(61.27,100.68)" stroke="#949401">
      <path fill="none" d="M-2.54,0 L2.54,0 " class="primitive"/>
    </g>
    <g transform="translate(68.63,103.19)" stroke="#E3F8A6">
      <path fill="none" d="M-5.94,0 L5.94,0 " class="primitive"/>
    </g>
    <g transform="translate(68.86,105.71)" stroke="#E3F8A6">
      <path fill="none" d="M-1.37,0 L1.37,0 " class="primitive"/>
    </g>
    <g transform="translate(73.95,108.22)" stroke="#E3F8A6">
      <path fill="none" d="M-4.24,0 L4.24,0 " class="primitive"/>
    </g>
    <g transform="translate(73.2,110.73)" stroke="#949401">
      <path fill="none" d="M-3.49,0 L3.49,0 " class="primitive"/>
    </g>
    <g transform="translate(68.6,109.47)" stroke="#E3F8A6">
      <path fill="none" d="M-1.11,0 L1.11,0 " class="primitive"/>
    </g>
    <g transform="translate(69.71,109.47)" stroke="#E3F8A6">
      <path fill="none" d="M0,1.26 L0,-1.26 " class="primitive"/>
    </g>
    <g transform="translate(65.09,107.59)" stroke="#E3F8A6">
      <path fill="none" d="M-2.41,0 L2.41,0 " class="primitive"/>
    </g>
    <g transform="translate(67.49,107.59)" stroke="#E3F8A6">
      <path fill="none" d="M0,1.88 L0,-1.88 " class="primitive"/>
    </g>
    <g transform="translate(60.71,105.39)" stroke="#E3F8A6">
      <path fill="none" d="M-1.98,0 L1.98,0 " class="primitive"/>
    </g>
    <g transform="translate(62.68,105.39)" stroke="#E3F8A6">
      <path fill="none" d="M0,2.2 L0,-2.2 " class="primitive"/>
    </g>
    <g transform="translate(54.62,103.04)" stroke="#949401">
      <path fill="none" d="M-4.1,0 L4.1,0 " class="primitive"/>
    </g>
    <g transform="translate(58.73,103.04)" stroke="#949401">
      <path fill="none" d="M0,2.35 L0,-2.35 " class="primitive"/>
    </g>
    <g transform="translate(48.6,99.04)" stroke="#E3F8A6">
      <path fill="none" d="M-1.92,0 L1.92,0 " class="primitive"/>
    </g>
    <g transform="translate(50.52,99.04)" stroke="#E3F8A6">
      <path fill="none" d="M0,4 L0,-4 " class="primitive"/>
    </g>
    <g transform="translate(44.25,94.84)" stroke="#E3F8A6">
      <path fill="none" d="M-2.43,0 L2.43,0 " class="primitive"/>
    </g>
    <g transform="translate(46.68,94.84)" stroke="#E3F8A6">
      <path fill="none" d="M0,4.2 L0,-4.2 " class="primitive"/>
    </g>
    <g transform="translate(38.37,91.48)" stroke="#E3F8A6">
      <path fill="none" d="M-3.46,0 L3.46,0 " class="primitive"/>
    </g>
    <g transform="translate(41.83,91.48)" stroke="#E3F8A6">
      <path fill="none" d="M0,3.35 L0,-3.35 " class="primitive"/>
    </g>
    <g transform="translate(28.51,87.92)" stroke="#E3F8A6">
      <path fill="none" d="M-6.4,0 L6.4,0 " class="primitive"/>
    </g>
    <g transform="translate(34.91,87.92)" stroke="#E3F8A6">
      <path fill="none" d="M0,3.56 L0,-3.56 " class="primitive"/>
    </g>
    <g transform="translate(16.61,81.59)" stroke="#949401">
      <path fill="none" d="M-5.5,0 L5.5,0 " class="primitive"/>
    </g>
    <g transform="translate(22.11,81.59)" stroke="#949401">
      <path fill="none" d="M0,6.33 L0,-6.33 " class="primitive"/>
    </g>
    <g transform="translate(7.43,69.36)" stroke="#E3F8A6">
      <path fill="none" d="M-3.68,0 L3.68,0 " class="primitive"/>
    </g>
    <g transform="translate(11.1,69.36)" stroke="#E3F8A6">
      <path fill="none" d="M0,12.23 L0,-12.23 " class="primitive"/>
    </g>
    <g transform="translate(3.75,41.14)" stroke="#000000">
      <path fill="none" d="M0,0 L0,0 " class="primitive"/>
    </g>
    <g transform="translate(3.75,41.14)" stroke="#000000">
      <path fill="none" d="M0,28.23 L0,-28.23 " class="primitive"/>
    </g>
  </g>
  <g stroke-opacity="1" stroke-width="0.3" id="img-29b4c979-3">
    <g transform="translate(26.82,24.52)" stroke="#E3F8A6">
      <path fill="none" d="M0,7 L0,-7 " class="primitive"/>
    </g>
    <g transform="translate(3.91,18.66)" stroke="#949401">
      <path fill="none" d="M-0.16,0 L0.16,0 " class="primitive"/>
    </g>
    <g transform="translate(4.06,18.66)" stroke="#949401">
      <path fill="none" d="M0,5.86 L0,-5.86 " class="primitive"/>
    </g>
    <g transform="translate(3.75,12.91)" stroke="#000000">
      <path fill="none" d="M0,0 L0,0 " class="primitive"/>
    </g>
    <g transform="translate(3.75,12.91)" stroke="#000000">
      <path fill="none" d="M0,5.75 L0,-5.75 " class="primitive"/>
    </g>
    <g transform="translate(16.17,52.98)" stroke="#949401">
      <path fill="none" d="M-2.09,0 L2.09,0 " class="primitive"/>
    </g>
    <g transform="translate(21.91,55.49)" stroke="#949401">
      <path fill="none" d="M-0.26,0 L0.26,0 " class="primitive"/>
    </g>
    <g transform="translate(26.06,58)" stroke="#949401">
      <path fill="none" d="M-0.59,0 L0.59,0 " class="primitive"/>
    </g>
    <g transform="translate(28.05,60.51)" stroke="#E3F8A6">
      <path fill="none" d="M-2.58,0 L2.58,0 " class="primitive"/>
    </g>
    <g transform="translate(23.56,59.26)" stroke="#E3F8A6">
      <path fill="none" d="M-1.91,0 L1.91,0 " class="primitive"/>
    </g>
    <g transform="translate(25.47,59.26)" stroke="#E3F8A6">
      <path fill="none" d="M0,1.26 L0,-1.26 " class="primitive"/>
    </g>
    <g transform="translate(19.53,57.37)" stroke="#E3F8A6">
      <path fill="none" d="M-2.12,0 L2.12,0 " class="primitive"/>
    </g>
    <g transform="translate(21.65,57.37)" stroke="#E3F8A6">
      <path fill="none" d="M0,1.88 L0,-1.88 " class="primitive"/>
    </g>
    <g transform="translate(32.62,63.02)" stroke="#949401">
      <path fill="none" d="M-3.29,0 L3.29,0 " class="primitive"/>
    </g>
    <g transform="translate(32.81,65.53)" stroke="#E3F8A6">
      <path fill="none" d="M-1.5,0 L1.5,0 " class="primitive"/>
    </g>
    <g transform="translate(37.15,68.04)" stroke="#949401">
      <path fill="none" d="M-1.2,0 L1.2,0 " class="primitive"/>
    </g>
    <g transform="translate(40.21,70.55)" stroke="#E3F8A6">
      <path fill="none" d="M-4.27,0 L4.27,0 " class="primitive"/>
    </g>
    <g transform="translate(33.63,69.3)" stroke="#949401">
      <path fill="none" d="M-2.32,0 L2.32,0 " class="primitive"/>
    </g>
    <g transform="translate(35.94,69.3)" stroke="#949401">
      <path fill="none" d="M0,1.26 L0,-1.26 " class="primitive"/>
    </g>
    <g transform="translate(30.32,67.42)" stroke="#E3F8A6">
      <path fill="none" d="M-0.99,0 L0.99,0 " class="primitive"/>
    </g>
    <g transform="translate(31.31,67.42)" stroke="#E3F8A6">
      <path fill="none" d="M0,1.88 L0,-1.88 " class="primitive"/>
    </g>
    <g transform="translate(23.37,65.22)" stroke="#E3F8A6">
      <path fill="none" d="M-5.96,0 L5.96,0 " class="primitive"/>
    </g>
    <g transform="translate(29.33,65.22)" stroke="#E3F8A6">
      <path fill="none" d="M0,2.2 L0,-2.2 " class="primitive"/>
    </g>
    <g transform="translate(15.74,61.3)" stroke="#E3F8A6">
      <path fill="none" d="M-1.66,0 L1.66,0 " class="primitive"/>
    </g>
    <g transform="translate(17.41,61.3)" stroke="#E3F8A6">
      <path fill="none" d="M0,3.92 L0,-3.92 " class="primitive"/>
    </g>
    <g transform="translate(12.59,57.14)" stroke="#E3F8A6">
      <path fill="none" d="M-1.49,0 L1.49,0 " class="primitive"/>
    </g>
    <g transform="translate(14.08,57.14)" stroke="#E3F8A6">
      <path fill="none" d="M0,4.16 L0,-4.16 " class="primitive"/>
    </g>
    <g transform="translate(30.1,73.06)" stroke="#E3F8A6">
      <path fill="none" d="M-1.71,0 L1.71,0 " class="primitive"/>
    </g>
    <g transform="translate(30.7,75.58)" stroke="#E3F8A6">
      <path fill="none" d="M-1.39,0 L1.39,0 " class="primitive"/>
    </g>
    <g transform="translate(31.92,78.09)" stroke="#949401">
      <path fill="none" d="M-2.28,0 L2.28,0 " class="primitive"/>
    </g>
    <g transform="translate(29.74,80.6)" stroke="#949401">
      <path fill="none" d="M-0.1,0 L0.1,0 " class="primitive"/>
    </g>
    <g transform="translate(29.47,79.34)" stroke="#E3F8A6">
      <path fill="none" d="M-0.17,0 L0.17,0 " class="primitive"/>
    </g>
    <g transform="translate(29.64,79.34)" stroke="#E3F8A6">
      <path fill="none" d="M0,1.26 L0,-1.26 " class="primitive"/>
    </g>
    <g transform="translate(28.85,77.46)" stroke="#949401">
      <path fill="none" d="M-0.46,0 L0.46,0 " class="primitive"/>
    </g>
    <g transform="translate(29.31,77.46)" stroke="#949401">
      <path fill="none" d="M0,1.88 L0,-1.88 " class="primitive"/>
    </g>
    <g transform="translate(25.25,75.26)" stroke="#E3F8A6">
      <path fill="none" d="M-3.14,0 L3.14,0 " class="primitive"/>
    </g>
    <g transform="translate(28.39,75.26)" stroke="#E3F8A6">
      <path fill="none" d="M0,2.2 L0,-2.2 " class="primitive"/>
    </g>
    <g transform="translate(41.04,83.11)" stroke="#949401">
      <path fill="none" d="M-1.61,0 L1.61,0 " class="primitive"/>
    </g>
    <g transform="translate(39.49,85.62)" stroke="#E3F8A6">
      <path fill="none" d="M-0.06,0 L0.06,0 " class="primitive"/>
    </g>
    <g transform="translate(37.17,84.36)" stroke="#949401">
      <path fill="none" d="M-2.26,0 L2.26,0 " class="primitive"/>
    </g>
    <g transform="translate(39.43,84.36)" stroke="#949401">
      <path fill="none" d="M0,1.26 L0,-1.26 " class="primitive"/>
    </g>
    <g transform="translate(42.85,88.13)" stroke="#949401">
      <path fill="none" d="M-1.02,0 L1.02,0 " class="primitive"/>
    </g>
    <g transform="translate(52.78,90.64)" stroke="#949401">
      <path fill="none" d="M-6.1,0 L6.1,0 " class="primitive"/>
    </g>
    <g transform="translate(51.61,93.15)" stroke="#949401">
      <path fill="none" d="M-0.4,0 L0.4,0 " class="primitive"/>
    </g>
    <g transform="translate(61.64,95.66)" stroke="#E3F8A6">
      <path fill="none" d="M-4.98,0 L4.98,0 " class="primitive"/>
    </g>
    <g transform="translate(59.2,98.17)" stroke="#E3F8A6">
      <path fill="none" d="M-2.54,0 L2.54,0 " class="primitive"/>
    </g>
    <g transform="translate(53.94,96.92)" stroke="#949401">
      <path fill="none" d="M-2.73,0 L2.73,0 " class="primitive"/>
    </g>
    <g transform="translate(56.66,96.92)" stroke="#949401">
      <path fill="none" d="M0,1.26 L0,-1.26 " class="primitive"/>
    </g>
    <g transform="translate(50.87,95.03)" stroke="#949401">
      <path fill="none" d="M-0.34,0 L0.34,0 " class="primitive"/>
    </g>
    <g transform="translate(51.21,95.03)" stroke="#949401">
      <path fill="none" d="M0,1.88 L0,-1.88 " class="primitive"/>
    </g>
    <g transform="translate(61.27,100.68)" stroke="#949401">
      <path fill="none" d="M-2.54,0 L2.54,0 " class="primitive"/>
    </g>
  </g>
</g>
<g fill-opacity="1" id="img-29b4c979-4">
  <g transform="translate(16.31,5.27)" fill="#949401">
    <circle cx="0" cy="0" r="0.75" class="primitive"/>
  </g>
  <g transform="translate(7.32,7.78)" fill="#949401">
    <circle cx="0" cy="0" r="0.75" class="primitive"/>
  </g>
  <g transform="translate(11.22,10.29)" fill="#E3F8A6">
    <circle cx="0" cy="0" r="0.75" class="primitive"/>
  </g>
  <g transform="translate(6.55,9.04)" fill="#949401">
    <circle cx="0" cy="0" r="0.75" class="primitive"/>
  </g>
  <g transform="translate(5.16,7.16)" fill="#949401">
    <circle cx="0" cy="0" r="0.75" class="primitive"/>
  </g>
  <g transform="translate(24.14,12.81)" fill="#949401">
    <circle cx="0" cy="0" r="0.75" class="primitive"/>
  </g>
  <g transform="translate(39.19,15.32)" fill="#E3F8A6">
    <circle cx="0" cy="0" r="0.75" class="primitive"/>
  </g>
  <g transform="translate(39.39,17.83)" fill="#E3F8A6">
    <circle cx="0" cy="0" r="0.75" class="primitive"/>
  </g>
  <g transform="translate(45.42,20.34)" fill="#949401">
    <circle cx="0" cy="0" r="0.75" class="primitive"/>
  </g>
  <g transform="translate(39.73,22.85)" fill="#949401">
    <circle cx="0" cy="0" r="0.75" class="primitive"/>
  </g>
  <g transform="translate(38.18,21.59)" fill="#949401">
    <circle cx="0" cy="0" r="0.75" class="primitive"/>
  </g>
  <g transform="translate(35.11,19.71)" fill="#949401">
    <circle cx="0" cy="0" r="0.75" class="primitive"/>
  </g>
  <g transform="translate(32.06,17.51)" fill="#949401">
    <circle cx="0" cy="0" r="0.75" class="primitive"/>
  </g>
  <g transform="translate(63.2,25.36)" fill="#E3F8A6">
    <circle cx="0" cy="0" r="0.75" class="primitive"/>
  </g>
  <g transform="translate(68.8,27.87)" fill="#949401">
    <circle cx="0" cy="0" r="0.75" class="primitive"/>
  </g>
  <g transform="translate(63.18,26.61)" fill="#E3F8A6">
    <circle cx="0" cy="0" r="0.75" class="primitive"/>
  </g>
  <g transform="translate(59.35,30.38)" fill="#949401">
    <circle cx="0" cy="0" r="0.75" class="primitive"/>
  </g>
  <g transform="translate(54.6,32.89)" fill="#E3F8A6">
    <circle cx="0" cy="0" r="0.75" class="primitive"/>
  </g>
  <g transform="translate(50.64,31.64)" fill="#E3F8A6">
    <circle cx="0" cy="0" r="0.75" class="primitive"/>
  </g>
  <g transform="translate(68,35.4)" fill="#E3F8A6">
    <circle cx="0" cy="0" r="0.75" class="primitive"/>
  </g>
  <g transform="translate(54.62,37.91)" fill="#E3F8A6">
    <circle cx="0" cy="0" r="0.75" class="primitive"/>
  </g>
  <g transform="translate(53.39,40.42)" fill="#E3F8A6">
    <circle cx="0" cy="0" r="0.75" class="primitive"/>
  </g>
  <g transform="translate(48.07,39.17)" fill="#E3F8A6">
    <circle cx="0" cy="0" r="0.75" class="primitive"/>
  </g>
  <g transform="translate(45.3,37.29)" fill="#E3F8A6">
    <circle cx="0" cy="0" r="0.75" class="primitive"/>
  </g>
  <g transform="translate(52.6,42.94)" fill="#949401">
    <circle cx="0" cy="0" r="0.75" class="primitive"/>
  </g>
  <g transform="translate(50.11,45.45)" fill="#E3F8A6">
    <circle cx="0" cy="0" r="0.75" class="primitive"/>
  </g>
  <g transform="translate(78.75,47.96)" fill="#E3F8A6">
    <circle cx="0" cy="0" r="0.75" class="primitive"/>
  </g>
  <g transform="translate(55.15,50.47)" fill="#E3F8A6">
    <circle cx="0" cy="0" r="0.75" class="primitive"/>
  </g>
  <g transform="translate(52.92,49.21)" fill="#949401">
    <circle cx="0" cy="0" r="0.75" class="primitive"/>
  </g>
  <g transform="translate(49.24,47.33)" fill="#949401">
    <circle cx="0" cy="0" r="0.75" class="primitive"/>
  </g>
  <g transform="translate(48.24,45.13)" fill="#E3F8A6">
    <circle cx="0" cy="0" r="0.75" class="primitive"/>
  </g>
  <g transform="translate(43.18,41.21)" fill="#E3F8A6">
    <circle cx="0" cy="0" r="0.75" class="primitive"/>
  </g>
  <g transform="translate(39.26,36.42)" fill="#949401">
    <circle cx="0" cy="0" r="0.75" class="primitive"/>
  </g>
  <g transform="translate(37.95,31.52)" fill="#E3F8A6">
    <circle cx="0" cy="0" r="0.75" class="primitive"/>
  </g>
  <g transform="translate(26.82,24.52)" fill="#E3F8A6">
    <circle cx="0" cy="0" r="0.75" class="primitive"/>
  </g>
  <g transform="translate(4.06,18.66)" fill="#949401">
    <circle cx="0" cy="0" r="0.75" class="primitive"/>
  </g>
  <g transform="translate(3.75,12.91)" fill="#000000">
    <circle cx="0" cy="0" r="0.75" class="primitive"/>
  </g>
  <g transform="translate(18.26,52.98)" fill="#949401">
    <circle cx="0" cy="0" r="0.75" class="primitive"/>
  </g>
  <g transform="translate(22.17,55.49)" fill="#949401">
    <circle cx="0" cy="0" r="0.75" class="primitive"/>
  </g>
  <g transform="translate(26.65,58)" fill="#949401">
    <circle cx="0" cy="0" r="0.75" class="primitive"/>
  </g>
  <g transform="translate(30.63,60.51)" fill="#E3F8A6">
    <circle cx="0" cy="0" r="0.75" class="primitive"/>
  </g>
  <g transform="translate(25.47,59.26)" fill="#E3F8A6">
    <circle cx="0" cy="0" r="0.75" class="primitive"/>
  </g>
  <g transform="translate(21.65,57.37)" fill="#E3F8A6">
    <circle cx="0" cy="0" r="0.75" class="primitive"/>
  </g>
  <g transform="translate(35.91,63.02)" fill="#949401">
    <circle cx="0" cy="0" r="0.75" class="primitive"/>
  </g>
  <g transform="translate(34.32,65.53)" fill="#E3F8A6">
    <circle cx="0" cy="0" r="0.75" class="primitive"/>
  </g>
  <g transform="translate(38.35,68.04)" fill="#949401">
    <circle cx="0" cy="0" r="0.75" class="primitive"/>
  </g>
  <g transform="translate(44.48,70.55)" fill="#E3F8A6">
    <circle cx="0" cy="0" r="0.75" class="primitive"/>
  </g>
  <g transform="translate(35.94,69.3)" fill="#949401">
    <circle cx="0" cy="0" r="0.75" class="primitive"/>
  </g>
  <g transform="translate(31.31,67.42)" fill="#E3F8A6">
    <circle cx="0" cy="0" r="0.75" class="primitive"/>
  </g>
  <g transform="translate(29.33,65.22)" fill="#E3F8A6">
    <circle cx="0" cy="0" r="0.75" class="primitive"/>
  </g>
  <g transform="translate(17.41,61.3)" fill="#E3F8A6">
    <circle cx="0" cy="0" r="0.75" class="primitive"/>
  </g>
  <g fill-opacity="1" id="img-29b4c979-5">
    <g transform="translate(17.41,61.3)" fill="#E3F8A6">
      <circle cx="0" cy="0" r="0.75" class="primitive"/>
    </g>
    <g transform="translate(14.08,57.14)" fill="#E3F8A6">
      <circle cx="0" cy="0" r="0.75" class="primitive"/>
    </g>
    <g transform="translate(31.81,73.06)" fill="#E3F8A6">
      <circle cx="0" cy="0" r="0.75" class="primitive"/>
    </g>
    <g transform="translate(32.09,75.58)" fill="#E3F8A6">
      <circle cx="0" cy="0" r="0.75" class="primitive"/>
    </g>
    <g transform="translate(34.2,78.09)" fill="#949401">
      <circle cx="0" cy="0" r="0.75" class="primitive"/>
    </g>
    <g transform="translate(29.84,80.6)" fill="#949401">
      <circle cx="0" cy="0" r="0.75" class="primitive"/>
    </g>
    <g transform="translate(29.64,79.34)" fill="#E3F8A6">
      <circle cx="0" cy="0" r="0.75" class="primitive"/>
    </g>
    <g transform="translate(29.31,77.46)" fill="#949401">
      <circle cx="0" cy="0" r="0.75" class="primitive"/>
    </g>
    <g transform="translate(28.39,75.26)" fill="#E3F8A6">
      <circle cx="0" cy="0" r="0.75" class="primitive"/>
    </g>
    <g transform="translate(42.66,83.11)" fill="#949401">
      <circle cx="0" cy="0" r="0.75" class="primitive"/>
    </g>
    <g transform="translate(39.54,85.62)" fill="#E3F8A6">
      <circle cx="0" cy="0" r="0.75" class="primitive"/>
    </g>
    <g transform="translate(39.43,84.36)" fill="#949401">
      <circle cx="0" cy="0" r="0.75" class="primitive"/>
    </g>
    <g transform="translate(43.87,88.13)" fill="#949401">
      <circle cx="0" cy="0" r="0.75" class="primitive"/>
    </g>
    <g transform="translate(58.89,90.64)" fill="#949401">
      <circle cx="0" cy="0" r="0.75" class="primitive"/>
    </g>
    <g transform="translate(52.01,93.15)" fill="#949401">
      <circle cx="0" cy="0" r="0.75" class="primitive"/>
    </g>
    <g transform="translate(66.62,95.66)" fill="#E3F8A6">
      <circle cx="0" cy="0" r="0.75" class="primitive"/>
    </g>
    <g transform="translate(61.74,98.17)" fill="#E3F8A6">
      <circle cx="0" cy="0" r="0.75" class="primitive"/>
    </g>
    <g transform="translate(56.66,96.92)" fill="#949401">
      <circle cx="0" cy="0" r="0.75" class="primitive"/>
    </g>
    <g transform="translate(51.21,95.03)" fill="#949401">
      <circle cx="0" cy="0" r="0.75" class="primitive"/>
    </g>
    <g transform="translate(63.81,100.68)" fill="#949401">
      <circle cx="0" cy="0" r="0.75" class="primitive"/>
    </g>
    <g transform="translate(74.57,103.19)" fill="#E3F8A6">
      <circle cx="0" cy="0" r="0.75" class="primitive"/>
    </g>
    <g transform="translate(70.22,105.71)" fill="#E3F8A6">
      <circle cx="0" cy="0" r="0.75" class="primitive"/>
    </g>
    <g transform="translate(78.19,108.22)" fill="#E3F8A6">
      <circle cx="0" cy="0" r="0.75" class="primitive"/>
    </g>
    <g transform="translate(76.68,110.73)" fill="#949401">
      <circle cx="0" cy="0" r="0.75" class="primitive"/>
    </g>
    <g transform="translate(69.71,109.47)" fill="#E3F8A6">
      <circle cx="0" cy="0" r="0.75" class="primitive"/>
    </g>
    <g transform="translate(67.49,107.59)" fill="#E3F8A6">
      <circle cx="0" cy="0" r="0.75" class="primitive"/>
    </g>
    <g transform="translate(62.68,105.39)" fill="#E3F8A6">
      <circle cx="0" cy="0" r="0.75" class="primitive"/>
    </g>
    <g transform="translate(58.73,103.04)" fill="#949401">
      <circle cx="0" cy="0" r="0.75" class="primitive"/>
    </g>
    <g transform="translate(50.52,99.04)" fill="#E3F8A6">
      <circle cx="0" cy="0" r="0.75" class="primitive"/>
    </g>
    <g transform="translate(46.68,94.84)" fill="#E3F8A6">
      <circle cx="0" cy="0" r="0.75" class="primitive"/>
    </g>
    <g transform="translate(41.83,91.48)" fill="#E3F8A6">
      <circle cx="0" cy="0" r="0.75" class="primitive"/>
    </g>
    <g transform="translate(34.91,87.92)" fill="#E3F8A6">
      <circle cx="0" cy="0" r="0.75" class="primitive"/>
    </g>
    <g transform="translate(22.11,81.59)" fill="#949401">
      <circle cx="0" cy="0" r="0.75" class="primitive"/>
    </g>
    <g transform="translate(11.1,69.36)" fill="#E3F8A6">
      <circle cx="0" cy="0" r="0.75" class="primitive"/>
    </g>
    <g transform="translate(3.75,41.14)" fill="#000000">
      <circle cx="0" cy="0" r="0.75" class="primitive"/>
    </g>
  </g>
</g>
<g stroke-opacity="1" fill-opacity="1" font-size="1.41" stroke-width="0.1" id="img-29b4c979-6">
  <g transform="translate(18.19,5.27)" stroke="#000000">
    <g class="primitive">
      <text dy="0.35em">N33</text>
    </g>
  </g>
  <g transform="translate(9.2,7.78)" stroke="#000000">
    <g class="primitive">
      <text dy="0.35em">N25</text>
    </g>
  </g>
  <g transform="translate(13.09,10.29)" stroke="#000000">
    <g class="primitive">
      <text dy="0.35em">N30</text>
    </g>
  </g>
  <g transform="translate(8.43,9.04)" stroke="#000000">
    <g class="primitive">
      <text dy="0.35em">N43</text>
    </g>
  </g>
  <g transform="translate(7.04,7.16)" stroke="#000000">
    <g class="primitive">
      <text dy="0.35em">N57</text>
    </g>
  </g>
  <g transform="translate(26.01,12.81)" stroke="#000000">
    <g class="primitive">
      <text dy="0.35em">N15</text>
    </g>
  </g>
  <g transform="translate(41.07,15.32)" stroke="#000000">
    <g class="primitive">
      <text dy="0.35em">N40</text>
    </g>
  </g>
  <g transform="translate(41.27,17.83)" stroke="#000000">
    <g class="primitive">
      <text dy="0.35em">N38</text>
    </g>
  </g>
  <g transform="translate(47.3,20.34)" stroke="#000000">
    <g class="primitive">
      <text dy="0.35em">N0</text>
    </g>
  </g>
  <g transform="translate(41.61,22.85)" stroke="#000000">
    <g class="primitive">
      <text dy="0.35em">N39</text>
    </g>
  </g>
  <g transform="translate(40.06,21.59)" stroke="#000000">
    <g class="primitive">
      <text dy="0.35em">N49</text>
    </g>
  </g>
  <g transform="translate(36.99,19.71)" stroke="#000000">
    <g class="primitive">
      <text dy="0.35em">N53</text>
    </g>
  </g>
  <g transform="translate(33.94,17.51)" stroke="#000000">
    <g class="primitive">
      <text dy="0.35em">N61</text>
    </g>
  </g>
  <g transform="translate(65.08,25.36)" stroke="#000000">
    <g class="primitive">
      <text dy="0.35em">N10</text>
    </g>
  </g>
  <g transform="translate(70.67,27.87)" stroke="#000000">
    <g class="primitive">
      <text dy="0.35em">N4</text>
    </g>
  </g>
  <g transform="translate(65.05,26.61)" stroke="#000000">
    <g class="primitive">
      <text dy="0.35em">N47</text>
    </g>
  </g>
  <g transform="translate(61.22,30.38)" stroke="#000000">
    <g class="primitive">
      <text dy="0.35em">N23</text>
    </g>
  </g>
  <g transform="translate(56.47,32.89)" stroke="#000000">
    <g class="primitive">
      <text dy="0.35em">N41</text>
    </g>
  </g>
  <g transform="translate(52.51,31.64)" stroke="#000000">
    <g class="primitive">
      <text dy="0.35em">N44</text>
    </g>
  </g>
  <g transform="translate(69.88,35.4)" stroke="#000000">
    <g class="primitive">
      <text dy="0.35em">N18</text>
    </g>
  </g>
  <g transform="translate(56.49,37.91)" stroke="#000000">
    <g class="primitive">
      <text dy="0.35em">N21</text>
    </g>
  </g>
  <g transform="translate(55.26,40.42)" stroke="#000000">
    <g class="primitive">
      <text dy="0.35em">N3</text>
    </g>
  </g>
  <g transform="translate(49.95,39.17)" stroke="#000000">
    <g class="primitive">
      <text dy="0.35em">N65</text>
    </g>
  </g>
  <g transform="translate(47.17,37.29)" stroke="#000000">
    <g class="primitive">
      <text dy="0.35em">N67</text>
    </g>
  </g>
  <g transform="translate(54.47,42.94)" stroke="#000000">
    <g class="primitive">
      <text dy="0.35em">N29</text>
    </g>
  </g>
  <g transform="translate(51.98,45.45)" stroke="#000000">
    <g class="primitive">
      <text dy="0.35em">N35</text>
    </g>
  </g>
  <g transform="translate(80.62,47.96)" stroke="#000000">
    <g class="primitive">
      <text dy="0.35em">N1</text>
    </g>
  </g>
  <g transform="translate(57.02,50.47)" stroke="#000000">
    <g class="primitive">
      <text dy="0.35em">N34</text>
    </g>
  </g>
  <g transform="translate(54.79,49.21)" stroke="#000000">
    <g class="primitive">
      <text dy="0.35em">N54</text>
    </g>
  </g>
  <g transform="translate(51.12,47.33)" stroke="#000000">
    <g class="primitive">
      <text dy="0.35em">N55</text>
    </g>
  </g>
  <g transform="translate(50.11,45.13)" stroke="#000000">
    <g class="primitive">
      <text dy="0.35em">N60</text>
    </g>
  </g>
  <g transform="translate(45.06,41.21)" stroke="#000000">
    <g class="primitive">
      <text dy="0.35em">N69</text>
    </g>
  </g>
  <g transform="translate(41.13,36.42)" stroke="#000000">
    <g class="primitive">
      <text dy="0.35em">N70</text>
    </g>
  </g>
  <g transform="translate(39.83,31.52)" stroke="#000000">
    <g class="primitive">
      <text dy="0.35em">N71</text>
    </g>
  </g>
  <g transform="translate(28.7,24.52)" stroke="#000000">
    <g class="primitive">
      <text dy="0.35em">N78</text>
    </g>
  </g>
  <g transform="translate(5.94,18.66)" stroke="#000000">
    <g class="primitive">
      <text dy="0.35em">N81</text>
    </g>
  </g>
  <g transform="translate(5.63,12.91)" stroke="#000000">
    <g class="primitive">
      <text dy="0.35em"></text>
    </g>
  </g>
  <g transform="translate(20.13,52.98)" stroke="#000000">
    <g class="primitive">
      <text dy="0.35em">N5</text>
    </g>
  </g>
  <g transform="translate(24.04,55.49)" stroke="#000000">
    <g class="primitive">
      <text dy="0.35em">N37</text>
    </g>
  </g>
  <g transform="translate(28.52,58)" stroke="#000000">
    <g class="primitive">
      <text dy="0.35em">N12</text>
    </g>
  </g>
  <g transform="translate(32.5,60.51)" stroke="#000000">
    <g class="primitive">
      <text dy="0.35em">N16</text>
    </g>
  </g>
  <g transform="translate(27.35,59.26)" stroke="#000000">
    <g class="primitive">
      <text dy="0.35em">N45</text>
    </g>
  </g>
  <g transform="translate(23.53,57.37)" stroke="#000000">
    <g class="primitive">
      <text dy="0.35em">N58</text>
    </g>
  </g>
  <g transform="translate(37.79,63.02)" stroke="#000000">
    <g class="primitive">
      <text dy="0.35em">N36</text>
    </g>
  </g>
  <g transform="translate(36.19,65.53)" stroke="#000000">
    <g class="primitive">
      <text dy="0.35em">N22</text>
    </g>
  </g>
  <g transform="translate(40.22,68.04)" stroke="#000000">
    <g class="primitive">
      <text dy="0.35em">N9</text>
    </g>
  </g>
  <g transform="translate(46.35,70.55)" stroke="#000000">
    <g class="primitive">
      <text dy="0.35em">N20</text>
    </g>
  </g>
  <g transform="translate(37.82,69.3)" stroke="#000000">
    <g class="primitive">
      <text dy="0.35em">N50</text>
    </g>
  </g>
  <g transform="translate(33.19,67.42)" stroke="#000000">
    <g class="primitive">
      <text dy="0.35em">N51</text>
    </g>
  </g>
  <g transform="translate(31.2,65.22)" stroke="#000000">
    <g class="primitive">
      <text dy="0.35em">N52</text>
    </g>
  </g>
  <g transform="translate(19.28,61.3)" stroke="#000000">
    <g class="primitive">
      <text dy="0.35em">N63</text>
    </g>
  </g>
  <g stroke-opacity="1" fill-opacity="1" font-size="1.41" stroke-width="0.1" id="img-29b4c979-7">
    <g transform="translate(19.28,61.3)" stroke="#000000">
      <g class="primitive">
        <text dy="0.35em">N63</text>
      </g>
    </g>
    <g transform="translate(15.96,57.14)" stroke="#000000">
      <g class="primitive">
        <text dy="0.35em">N64</text>
      </g>
    </g>
    <g transform="translate(33.68,73.06)" stroke="#000000">
      <g class="primitive">
        <text dy="0.35em">N14</text>
      </g>
    </g>
    <g transform="translate(33.97,75.58)" stroke="#000000">
      <g class="primitive">
        <text dy="0.35em">N13</text>
      </g>
    </g>
    <g transform="translate(36.07,78.09)" stroke="#000000">
      <g class="primitive">
        <text dy="0.35em">N32</text>
      </g>
    </g>
    <g transform="translate(31.71,80.6)" stroke="#000000">
      <g class="primitive">
        <text dy="0.35em">N2</text>
      </g>
    </g>
    <g transform="translate(31.52,79.34)" stroke="#000000">
      <g class="primitive">
        <text dy="0.35em">N62</text>
      </g>
    </g>
    <g transform="translate(31.18,77.46)" stroke="#000000">
      <g class="primitive">
        <text dy="0.35em">N74</text>
      </g>
    </g>
    <g transform="translate(30.26,75.26)" stroke="#000000">
      <g class="primitive">
        <text dy="0.35em">N79</text>
      </g>
    </g>
    <g transform="translate(44.53,83.11)" stroke="#000000">
      <g class="primitive">
        <text dy="0.35em">N17</text>
      </g>
    </g>
    <g transform="translate(41.42,85.62)" stroke="#000000">
      <g class="primitive">
        <text dy="0.35em">N6</text>
      </g>
    </g>
    <g transform="translate(41.3,84.36)" stroke="#000000">
      <g class="primitive">
        <text dy="0.35em">N59</text>
      </g>
    </g>
    <g transform="translate(45.75,88.13)" stroke="#000000">
      <g class="primitive">
        <text dy="0.35em">N27</text>
      </g>
    </g>
    <g transform="translate(60.76,90.64)" stroke="#000000">
      <g class="primitive">
        <text dy="0.35em">N11</text>
      </g>
    </g>
    <g transform="translate(53.88,93.15)" stroke="#000000">
      <g class="primitive">
        <text dy="0.35em">N7</text>
      </g>
    </g>
    <g transform="translate(68.5,95.66)" stroke="#000000">
      <g class="primitive">
        <text dy="0.35em">N31</text>
      </g>
    </g>
    <g transform="translate(63.62,98.17)" stroke="#000000">
      <g class="primitive">
        <text dy="0.35em">N28</text>
      </g>
    </g>
    <g transform="translate(58.54,96.92)" stroke="#000000">
      <g class="primitive">
        <text dy="0.35em">N46</text>
      </g>
    </g>
    <g transform="translate(53.09,95.03)" stroke="#000000">
      <g class="primitive">
        <text dy="0.35em">N72</text>
      </g>
    </g>
    <g transform="translate(65.68,100.68)" stroke="#000000">
      <g class="primitive">
        <text dy="0.35em">N19</text>
      </g>
    </g>
    <g transform="translate(76.44,103.19)" stroke="#000000">
      <g class="primitive">
        <text dy="0.35em">N8</text>
      </g>
    </g>
    <g transform="translate(72.1,105.71)" stroke="#000000">
      <g class="primitive">
        <text dy="0.35em">N24</text>
      </g>
    </g>
    <g transform="translate(80.07,108.22)" stroke="#000000">
      <g class="primitive">
        <text dy="0.35em">N42</text>
      </g>
    </g>
    <g transform="translate(78.56,110.73)" stroke="#000000">
      <g class="primitive">
        <text dy="0.35em">N26</text>
      </g>
    </g>
    <g transform="translate(71.58,109.47)" stroke="#000000">
      <g class="primitive">
        <text dy="0.35em">N48</text>
      </g>
    </g>
    <g transform="translate(69.37,107.59)" stroke="#000000">
      <g class="primitive">
        <text dy="0.35em">N56</text>
      </g>
    </g>
    <g transform="translate(64.56,105.39)" stroke="#000000">
      <g class="primitive">
        <text dy="0.35em">N66</text>
      </g>
    </g>
    <g transform="translate(60.6,103.04)" stroke="#000000">
      <g class="primitive">
        <text dy="0.35em">N68</text>
      </g>
    </g>
    <g transform="translate(52.4,99.04)" stroke="#000000">
      <g class="primitive">
        <text dy="0.35em">N73</text>
      </g>
    </g>
    <g transform="translate(48.56,94.84)" stroke="#000000">
      <g class="primitive">
        <text dy="0.35em">N75</text>
      </g>
    </g>
    <g transform="translate(43.7,91.48)" stroke="#000000">
      <g class="primitive">
        <text dy="0.35em">N76</text>
      </g>
    </g>
    <g transform="translate(36.78,87.92)" stroke="#000000">
      <g class="primitive">
        <text dy="0.35em">N77</text>
      </g>
    </g>
    <g transform="translate(23.99,81.59)" stroke="#000000">
      <g class="primitive">
        <text dy="0.35em">N80</text>
      </g>
    </g>
    <g transform="translate(12.98,69.36)" stroke="#000000">
      <g class="primitive">
        <text dy="0.35em">N82</text>
      </g>
    </g>
    <g transform="translate(5.63,41.14)" stroke="#000000">
      <g class="primitive">
        <text dy="0.35em"></text>
      </g>
    </g>
  </g>
</g>
</svg>
