<?xml version="1.0" encoding="UTF-8"?>
<svg xmlns="http://www.w3.org/2000/svg"
     xmlns:xlink="http://www.w3.org/1999/xlink"
     version="1.2"
     width="150mm" height="66mm" viewBox="0 0 150 66"
     stroke="none"
     fill="#000000"
     stroke-width="0.3"
     font-size="3.88"
>
<defs>
  <marker id="arrow" markerWidth="15" markerHeight="7" refX="5" refY="3.5" orient="auto" markerUnits="strokeWidth">
    <path d="M0,0 L15,3.5 L0,7 z" stroke="context-stroke" fill="context-stroke"/>
  </marker>
</defs>
<g stroke-opacity="1" stroke-width="0.3" id="img-29b4c979-1">
  <g transform="translate(13.05,3)" stroke="#7F9F2D">
    <path fill="none" d="M-2.94,0 L2.94,0 " class="primitive"/>
  </g>
  <g transform="translate(16.28,6.53)" stroke="#7F9F2D">
    <path fill="none" d="M-0.03,0 L0.03,0 " class="primitive"/>
  </g>
  <g transform="translate(19.79,10.06)" stroke="#7F9F2D">
    <path fill="none" d="M-0.11,0 L0.11,0 " class="primitive"/>
  </g>
  <g transform="translate(21.02,13.59)" stroke="#7F9F2D">
    <path fill="none" d="M-1.34,0 L1.34,0 " class="primitive"/>
  </g>
  <g transform="translate(17.97,11.82)" stroke="#7F9F2D">
    <path fill="none" d="M-1.72,0 L1.72,0 " class="primitive"/>
  </g>
  <g transform="translate(19.68,11.82)" stroke="#7F9F2D">
    <path fill="none" d="M0,1.76 L0,-1.76 " class="primitive"/>
  </g>
  <g transform="translate(13.18,9.18)" stroke="#7F9F2D">
    <path fill="none" d="M-3.07,0 L3.07,0 " class="primitive"/>
  </g>
  <g transform="translate(16.25,9.18)" stroke="#7F9F2D">
    <path fill="none" d="M0,2.65 L0,-2.65 " class="primitive"/>
  </g>
  <g transform="translate(6.93,6.09)" stroke="#7F9F2D">
    <path fill="none" d="M-3.18,0 L3.18,0 " class="primitive"/>
  </g>
  <g transform="translate(10.11,6.09)" stroke="#7F9F2D">
    <path fill="none" d="M0,3.09 L0,-3.09 " class="primitive"/>
  </g>
  <g transform="translate(20.1,17.12)" stroke="#7F9F2D">
    <path fill="none" d="M-7.35,0 L7.35,0 " class="primitive"/>
  </g>
  <g transform="translate(13.84,20.65)" stroke="#7F9F2D">
    <path fill="none" d="M-1.1,0 L1.1,0 " class="primitive"/>
  </g>
  <g transform="translate(8.25,18.88)" stroke="#7F9F2D">
    <path fill="none" d="M-4.5,0 L4.5,0 " class="primitive"/>
  </g>
  <g transform="translate(12.75,18.88)" stroke="#7F9F2D">
    <path fill="none" d="M0,1.76 L0,-1.76 " class="primitive"/>
  </g>
  <g transform="translate(41.68,24.18)" stroke="#700305">
    <path fill="none" d="M-7.4,0 L7.4,0 " class="primitive"/>
  </g>
  <g transform="translate(40.27,27.71)" stroke="#7F9F2D">
    <path fill="none" d="M-6,0 L6,0 " class="primitive"/>
  </g>
  <g transform="translate(26.57,25.94)" stroke="#7F9F2D">
    <path fill="none" d="M-7.7,0 L7.7,0 " class="primitive"/>
  </g>
  <g transform="translate(34.27,25.94)" stroke="#7F9F2D">
    <path fill="none" d="M0,1.76 L0,-1.76 " class="primitive"/>
  </g>
  <g transform="translate(56.64,31.24)" stroke="#7F9F2D">
    <path fill="none" d="M-2.54,0 L2.54,0 " class="primitive"/>
  </g>
  <g transform="translate(55.96,34.76)" stroke="#7F9F2D">
    <path fill="none" d="M-0.56,0 L0.56,0 " class="primitive"/>
  </g>
  <g transform="translate(66.01,38.29)" stroke="#7F9F2D">
    <path fill="none" d="M-5.46,0 L5.46,0 " class="primitive"/>
  </g>
  <g transform="translate(65.47,41.82)" stroke="#7F9F2D">
    <path fill="none" d="M-4.92,0 L4.92,0 " class="primitive"/>
  </g>
  <g transform="translate(57.98,40.06)" stroke="#7F9F2D">
    <path fill="none" d="M-2.57,0 L2.57,0 " class="primitive"/>
  </g>
  <g transform="translate(60.55,40.06)" stroke="#7F9F2D">
    <path fill="none" d="M0,1.76 L0,-1.76 " class="primitive"/>
  </g>
  <g transform="translate(54.75,37.41)" stroke="#7F9F2D">
    <path fill="none" d="M-0.65,0 L0.65,0 " class="primitive"/>
  </g>
  <g transform="translate(55.4,37.41)" stroke="#7F9F2D">
    <path fill="none" d="M0,2.65 L0,-2.65 " class="primitive"/>
  </g>
  <g transform="translate(38.38,34.32)" stroke="#7F9F2D">
    <path fill="none" d="M-15.73,0 L15.73,0 " class="primitive"/>
  </g>
  <g transform="translate(54.1,34.32)" stroke="#7F9F2D">
    <path fill="none" d="M0,3.09 L0,-3.09 " class="primitive"/>
  </g>
  <g transform="translate(28.85,45.35)" stroke="#7F9F2D">
    <path fill="none" d="M-3.35,0 L3.35,0 " class="primitive"/>
  </g>
  <g transform="translate(26.87,48.88)" stroke="#700305">
    <path fill="none" d="M-1.37,0 L1.37,0 " class="primitive"/>
  </g>
  <g transform="translate(24.22,47.12)" stroke="#7F9F2D">
    <path fill="none" d="M-1.27,0 L1.27,0 " class="primitive"/>
  </g>
  <g transform="translate(25.5,47.12)" stroke="#7F9F2D">
    <path fill="none" d="M0,1.76 L0,-1.76 " class="primitive"/>
  </g>
  <g transform="translate(61.62,52.41)" stroke="#7F9F2D">
    <path fill="none" d="M-17.13,0 L17.13,0 " class="primitive"/>
  </g>
  <g transform="translate(46.44,55.94)" stroke="#7F9F2D">
    <path fill="none" d="M-1.96,0 L1.96,0 " class="primitive"/>
  </g>
  <g transform="translate(39.47,54.18)" stroke="#7F9F2D">
    <path fill="none" d="M-5.01,0 L5.01,0 " class="primitive"/>
  </g>
  <g transform="translate(44.48,54.18)" stroke="#7F9F2D">
    <path fill="none" d="M0,1.76 L0,-1.76 " class="primitive"/>
  </g>
  <g transform="translate(54.6,59.47)" stroke="#7F9F2D">
    <path fill="none" d="M-2.03,0 L2.03,0 " class="primitive"/>
  </g>
  <g transform="translate(58.45,63)" stroke="#7F9F2D">
    <path fill="none" d="M-5.88,0 L5.88,0 " class="primitive"/>
  </g>
  <g transform="translate(43.52,61.24)" stroke="#7F9F2D">
    <path fill="none" d="M-9.06,0 L9.06,0 " class="primitive"/>
  </g>
  <g transform="translate(52.57,61.24)" stroke="#7F9F2D">
    <path fill="none" d="M0,1.76 L0,-1.76 " class="primitive"/>
  </g>
  <g transform="translate(28.71,57.71)" stroke="#7F9F2D">
    <path fill="none" d="M-5.75,0 L5.75,0 " class="primitive"/>
  </g>
  <g transform="translate(34.46,57.71)" stroke="#7F9F2D">
    <path fill="none" d="M0,3.53 L0,-3.53 " class="primitive"/>
  </g>
  <g transform="translate(22.8,52.41)" stroke="#7F9F2D">
    <path fill="none" d="M-0.15,0 L0.15,0 " class="primitive"/>
  </g>
  <g transform="translate(22.95,52.41)" stroke="#7F9F2D">
    <path fill="none" d="M0,5.29 L0,-5.29 " class="primitive"/>
  </g>
  <g transform="translate(20.76,43.37)" stroke="#7F9F2D">
    <path fill="none" d="M-1.89,0 L1.89,0 " class="primitive"/>
  </g>
  <g transform="translate(22.65,43.37)" stroke="#7F9F2D">
    <path fill="none" d="M0,9.04 L0,-9.04 " class="primitive"/>
  </g>
  <g transform="translate(11.31,34.65)" stroke="#7F9F2D">
    <path fill="none" d="M-7.56,0 L7.56,0 " class="primitive"/>
  </g>
  <g transform="translate(18.87,34.65)" stroke="#7F9F2D">
    <path fill="none" d="M0,8.71 L0,-8.71 " class="primitive"/>
  </g>
  <g transform="translate(3.75,26.77)" stroke="#000000">
    <path fill="none" d="M0,0 L0,0 " class="primitive"/>
  </g>
  <g transform="translate(3.75,26.77)" stroke="#000000">
    <path fill="none" d="M0,7.89 L0,-7.89 " class="primitive"/>
  </g>
  <g transform="translate(3.75,16.43)" stroke="#000000">
    <path fill="none" d="M0,0 L0,0 " class="primitive"/>
  </g>
  <g stroke-opacity="1" stroke-width="0.3" id="img-29b4c979-2">
    <g transform="translate(3.75,16.43)" stroke="#000000">
      <path fill="none" d="M0,0 L0,0 " class="primitive"/>
    </g>
    <g transform="translate(3.75,16.43)" stroke="#000000">
      <path fill="none" d="M0,10.34 L0,-10.34 " class="primitive"/>
    </g>
  </g>
</g>
<g fill-opacity="1" id="img-29b4c979-3">
  <g transform="translate(15.99,3)" fill="#7F9F2D">
    <circle cx="0" cy="0" r="0.75" class="primitive"/>
  </g>
  <g transform="translate(16.31,6.53)" fill="#7F9F2D">
    <circle cx="0" cy="0" r="0.75" class="primitive"/>
  </g>
  <g transform="translate(19.9,10.06)" fill="#7F9F2D">
    <circle cx="0" cy="0" r="0.75" class="primitive"/>
  </g>
  <g transform="translate(22.37,13.59)" fill="#7F9F2D">
    <circle cx="0" cy="0" r="0.75" class="primitive"/>
  </g>
  <g transform="translate(19.68,11.82)" fill="#7F9F2D">
    <circle cx="0" cy="0" r="0.75" class="primitive"/>
  </g>
  <g transform="translate(16.25,9.18)" fill="#7F9F2D">
    <circle cx="0" cy="0" r="0.75" class="primitive"/>
  </g>
  <g transform="translate(10.11,6.09)" fill="#7F9F2D">
    <circle cx="0" cy="0" r="0.75" class="primitive"/>
  </g>
  <g transform="translate(27.45,17.12)" fill="#7F9F2D">
    <circle cx="0" cy="0" r="0.75" class="primitive"/>
  </g>
  <g transform="translate(14.94,20.65)" fill="#7F9F2D">
    <circle cx="0" cy="0" r="0.75" class="primitive"/>
  </g>
  <g transform="translate(12.75,18.88)" fill="#7F9F2D">
    <circle cx="0" cy="0" r="0.75" class="primitive"/>
  </g>
  <g transform="translate(49.08,24.18)" fill="#700305">
    <circle cx="0" cy="0" r="0.75" class="primitive"/>
  </g>
  <g transform="translate(46.27,27.71)" fill="#7F9F2D">
    <circle cx="0" cy="0" r="0.75" class="primitive"/>
  </g>
  <g transform="translate(34.27,25.94)" fill="#7F9F2D">
    <circle cx="0" cy="0" r="0.75" class="primitive"/>
  </g>
  <g transform="translate(59.19,31.24)" fill="#7F9F2D">
    <circle cx="0" cy="0" r="0.75" class="primitive"/>
  </g>
  <g transform="translate(56.52,34.76)" fill="#7F9F2D">
    <circle cx="0" cy="0" r="0.75" class="primitive"/>
  </g>
  <g transform="translate(71.47,38.29)" fill="#7F9F2D">
    <circle cx="0" cy="0" r="0.75" class="primitive"/>
  </g>
  <g transform="translate(70.39,41.82)" fill="#7F9F2D">
    <circle cx="0" cy="0" r="0.75" class="primitive"/>
  </g>
  <g transform="translate(60.55,40.06)" fill="#7F9F2D">
    <circle cx="0" cy="0" r="0.75" class="primitive"/>
  </g>
  <g transform="translate(55.4,37.41)" fill="#7F9F2D">
    <circle cx="0" cy="0" r="0.75" class="primitive"/>
  </g>
  <g transform="translate(54.1,34.32)" fill="#7F9F2D">
    <circle cx="0" cy="0" r="0.75" class="primitive"/>
  </g>
  <g transform="translate(32.2,45.35)" fill="#7F9F2D">
    <circle cx="0" cy="0" r="0.75" class="primitive"/>
  </g>
  <g transform="translate(28.23,48.88)" fill="#700305">
    <circle cx="0" cy="0" r="0.75" class="primitive"/>
  </g>
  <g transform="translate(25.5,47.12)" fill="#7F9F2D">
    <circle cx="0" cy="0" r="0.75" class="primitive"/>
  </g>
  <g transform="translate(78.75,52.41)" fill="#7F9F2D">
    <circle cx="0" cy="0" r="0.75" class="primitive"/>
  </g>
  <g transform="translate(48.4,55.94)" fill="#7F9F2D">
    <circle cx="0" cy="0" r="0.75" class="primitive"/>
  </g>
  <g transform="translate(44.48,54.18)" fill="#7F9F2D">
    <circle cx="0" cy="0" r="0.75" class="primitive"/>
  </g>
  <g transform="translate(56.64,59.47)" fill="#7F9F2D">
    <circle cx="0" cy="0" r="0.75" class="primitive"/>
  </g>
  <g transform="translate(64.33,63)" fill="#7F9F2D">
    <circle cx="0" cy="0" r="0.75" class="primitive"/>
  </g>
  <g transform="translate(52.57,61.24)" fill="#7F9F2D">
    <circle cx="0" cy="0" r="0.75" class="primitive"/>
  </g>
  <g transform="translate(34.46,57.71)" fill="#7F9F2D">
    <circle cx="0" cy="0" r="0.75" class="primitive"/>
  </g>
  <g transform="translate(22.95,52.41)" fill="#7F9F2D">
    <circle cx="0" cy="0" r="0.75" class="primitive"/>
  </g>
  <g transform="translate(22.65,43.37)" fill="#7F9F2D">
    <circle cx="0" cy="0" r="0.75" class="primitive"/>
  </g>
  <g transform="translate(18.87,34.65)" fill="#7F9F2D">
    <circle cx="0" cy="0" r="0.75" class="primitive"/>
  </g>
  <g transform="translate(3.75,26.77)" fill="#000000">
    <circle cx="0" cy="0" r="0.75" class="primitive"/>
  </g>
  <g transform="translate(3.75,16.43)" fill="#000000">
    <circle cx="0" cy="0" r="0.75" class="primitive"/>
  </g>
</g>
<g stroke-opacity="1" fill-opacity="1" font-size="1.41" stroke-width="0.1" id="img-29b4c979-4">
  <g transform="translate(17.87,3)" stroke="#000000">
    <g class="primitive">
      <text dy="0.35em">N1</text>
    </g>
  </g>
  <g transform="translate(18.19,6.53)" stroke="#000000">
    <g class="primitive">
      <text dy="0.35em">N13</text>
    </g>
  </g>
  <g transform="translate(21.78,10.06)" stroke="#000000">
    <g class="primitive">
      <text dy="0.35em">N6</text>
    </g>
  </g>
  <g transform="translate(24.24,13.59)" stroke="#000000">
    <g class="primitive">
      <text dy="0.35em">N3</text>
    </g>
  </g>
  <g transform="translate(21.56,11.82)" stroke="#000000">
    <g class="primitive">
      <text dy="0.35em">N19</text>
    </g>
  </g>
  <g transform="translate(18.12,9.18)" stroke="#000000">
    <g class="primitive">
      <text dy="0.35em">N20</text>
    </g>
  </g>
  <g transform="translate(11.98,6.09)" stroke="#000000">
    <g class="primitive">
      <text dy="0.35em">N26</text>
    </g>
  </g>
  <g transform="translate(29.33,17.12)" stroke="#000000">
    <g class="primitive">
      <text dy="0.35em">N7</text>
    </g>
  </g>
  <g transform="translate(16.81,20.65)" stroke="#000000">
    <g class="primitive">
      <text dy="0.35em">N10</text>
    </g>
  </g>
  <g transform="translate(14.62,18.88)" stroke="#000000">
    <g class="primitive">
      <text dy="0.35em">N31</text>
    </g>
  </g>
  <g transform="translate(50.96,24.18)" stroke="#000000">
    <g class="primitive">
      <text dy="0.35em">N2</text>
    </g>
  </g>
  <g transform="translate(48.15,27.71)" stroke="#000000">
    <g class="primitive">
      <text dy="0.35em">N16</text>
    </g>
  </g>
  <g transform="translate(36.15,25.94)" stroke="#000000">
    <g class="primitive">
      <text dy="0.35em">N23</text>
    </g>
  </g>
  <g transform="translate(61.06,31.24)" stroke="#000000">
    <g class="primitive">
      <text dy="0.35em">N17</text>
    </g>
  </g>
  <g transform="translate(58.4,34.76)" stroke="#000000">
    <g class="primitive">
      <text dy="0.35em">N5</text>
    </g>
  </g>
  <g transform="translate(73.35,38.29)" stroke="#000000">
    <g class="primitive">
      <text dy="0.35em">N8</text>
    </g>
  </g>
  <g transform="translate(72.26,41.82)" stroke="#000000">
    <g class="primitive">
      <text dy="0.35em">N11</text>
    </g>
  </g>
  <g transform="translate(62.43,40.06)" stroke="#000000">
    <g class="primitive">
      <text dy="0.35em">N18</text>
    </g>
  </g>
  <g transform="translate(57.28,37.41)" stroke="#000000">
    <g class="primitive">
      <text dy="0.35em">N24</text>
    </g>
  </g>
  <g transform="translate(55.98,34.32)" stroke="#000000">
    <g class="primitive">
      <text dy="0.35em">N25</text>
    </g>
  </g>
  <g transform="translate(34.07,45.35)" stroke="#000000">
    <g class="primitive">
      <text dy="0.35em">N14</text>
    </g>
  </g>
  <g transform="translate(30.11,48.88)" stroke="#000000">
    <g class="primitive">
      <text dy="0.35em">N12</text>
    </g>
  </g>
  <g transform="translate(27.37,47.12)" stroke="#000000">
    <g class="primitive">
      <text dy="0.35em">N21</text>
    </g>
  </g>
  <g transform="translate(80.62,52.41)" stroke="#000000">
    <g class="primitive">
      <text dy="0.35em">N4</text>
    </g>
  </g>
  <g transform="translate(50.27,55.94)" stroke="#000000">
    <g class="primitive">
      <text dy="0.35em">N9</text>
    </g>
  </g>
  <g transform="translate(46.36,54.18)" stroke="#000000">
    <g class="primitive">
      <text dy="0.35em">N22</text>
    </g>
  </g>
  <g transform="translate(58.51,59.47)" stroke="#000000">
    <g class="primitive">
      <text dy="0.35em">N15</text>
    </g>
  </g>
  <g transform="translate(66.21,63)" stroke="#000000">
    <g class="primitive">
      <text dy="0.35em">N0</text>
    </g>
  </g>
  <g transform="translate(54.45,61.24)" stroke="#000000">
    <g class="primitive">
      <text dy="0.35em">N27</text>
    </g>
  </g>
  <g transform="translate(36.34,57.71)" stroke="#000000">
    <g class="primitive">
      <text dy="0.35em">N28</text>
    </g>
  </g>
  <g transform="translate(24.83,52.41)" stroke="#000000">
    <g class="primitive">
      <text dy="0.35em">N29</text>
    </g>
  </g>
  <g transform="translate(24.53,43.37)" stroke="#000000">
    <g class="primitive">
      <text dy="0.35em">N30</text>
    </g>
  </g>
  <g transform="translate(20.75,34.65)" stroke="#000000">
    <g class="primitive">
      <text dy="0.35em">N32</text>
    </g>
  </g>
  <g transform="translate(5.63,26.77)" stroke="#000000">
    <g class="primitive">
      <text dy="0.35em"></text>
    </g>
  </g>
  <g transform="translate(5.63,16.43)" stroke="#000000">
    <g class="primitive">
      <text dy="0.35em"></text>
    </g>
  </g>
</g>
</svg>
