<?xml version="1.0" encoding="UTF-8"?>
<svg xmlns="http://www.w3.org/2000/svg"
     xmlns:xlink="http://www.w3.org/1999/xlink"
     version="1.2"
     width="300mm" height="46mm" viewBox="0 0 300 46"
     stroke="none"
     fill="#000000"
     stroke-width="0.3"
     font-size="3.88"
>
<defs>
  <marker id="arrow" markerWidth="15" markerHeight="7" refX="5" refY="3.5" orient="auto" markerUnits="strokeWidth">
    <path d="M0,0 L15,3.5 L0,7 z" stroke="context-stroke" fill="context-stroke"/>
  </marker>
</defs>
<g stroke-opacity="1" stroke-width="0.3" id="img-769df1e9-1">
  <g transform="translate(16.97,2.09)" stroke="#72EC95">
    <path fill="none" d="M-9.47,0 L9.47,0 " class="primitive"/>
  </g>
  <g transform="translate(20.9,8.06)" stroke="#72EC95">
    <path fill="none" d="M-13.4,0 L13.4,0 " class="primitive"/>
  </g>
  <g transform="translate(120.48,14.04)" stroke="#F7D627">
    <path fill="none" d="M-22.06,0 L22.06,0 " class="primitive"/>
  </g>
  <g transform="translate(116.3,20.01)" stroke="#72EC95">
    <path fill="none" d="M-17.88,0 L17.88,0 " class="primitive"/>
  </g>
  <g transform="translate(75.49,17.03)" stroke="#72EC95">
    <path fill="none" d="M-22.93,0 L22.93,0 " class="primitive"/>
  </g>
  <g transform="translate(98.42,17.03)" stroke="#72EC95">
    <path fill="none" d="M0,2.99 L0,-2.99 " class="primitive"/>
  </g>
  <g transform="translate(110.65,25.99)" stroke="#72EC95">
    <path fill="none" d="M-46.85,0 L46.85,0 " class="primitive"/>
  </g>
  <g transform="translate(82.26,31.96)" stroke="#72EC95">
    <path fill="none" d="M-9.98,0 L9.98,0 " class="primitive"/>
  </g>
  <g transform="translate(76.36,37.94)" stroke="#F7D627">
    <path fill="none" d="M-4.08,0 L4.08,0 " class="primitive"/>
  </g>
  <g transform="translate(68.49,34.95)" stroke="#72EC95">
    <path fill="none" d="M-3.79,0 L3.79,0 " class="primitive"/>
  </g>
  <g transform="translate(72.28,34.95)" stroke="#72EC95">
    <path fill="none" d="M0,2.99 L0,-2.99 " class="primitive"/>
  </g>
  <g transform="translate(81.85,43.91)" stroke="#72EC95">
    <path fill="none" d="M-17.14,0 L17.14,0 " class="primitive"/>
  </g>
  <g transform="translate(64.26,39.43)" stroke="#72EC95">
    <path fill="none" d="M-0.45,0 L0.45,0 " class="primitive"/>
  </g>
  <g transform="translate(64.7,39.43)" stroke="#72EC95">
    <path fill="none" d="M0,4.48 L0,-4.48 " class="primitive"/>
  </g>
  <g transform="translate(58.18,32.71)" stroke="#72EC95">
    <path fill="none" d="M-5.63,0 L5.63,0 " class="primitive"/>
  </g>
  <g transform="translate(63.81,32.71)" stroke="#72EC95">
    <path fill="none" d="M0,6.72 L0,-6.72 " class="primitive"/>
  </g>
  <g transform="translate(30.03,24.87)" stroke="#72EC95">
    <path fill="none" d="M-22.53,0 L22.53,0 " class="primitive"/>
  </g>
  <g transform="translate(52.55,24.87)" stroke="#72EC95">
    <path fill="none" d="M0,7.84 L0,-7.84 " class="primitive"/>
  </g>
  <g transform="translate(7.5,16.47)" stroke="#000000">
    <path fill="none" d="M0,0 L0,0 " class="primitive"/>
  </g>
  <g transform="translate(7.5,16.47)" stroke="#000000">
    <path fill="none" d="M0,8.4 L0,-8.4 " class="primitive"/>
  </g>
  <g transform="translate(7.5,9.28)" stroke="#000000">
    <path fill="none" d="M0,0 L0,0 " class="primitive"/>
  </g>
  <g transform="translate(7.5,9.28)" stroke="#000000">
    <path fill="none" d="M0,7.19 L0,-7.19 " class="primitive"/>
  </g>
</g>
<g fill-opacity="1" id="img-769df1e9-2">
  <g transform="translate(26.44,2.09)" fill="#72EC95">
    <circle cx="0" cy="0" r="1.5" class="primitive"/>
  </g>
  <g transform="translate(34.31,8.06)" fill="#72EC95">
    <circle cx="0" cy="0" r="1.5" class="primitive"/>
  </g>
  <g transform="translate(142.54,14.04)" fill="#F7D627">
    <circle cx="0" cy="0" r="1.5" class="primitive"/>
  </g>
  <g transform="translate(134.17,20.01)" fill="#72EC95">
    <circle cx="0" cy="0" r="1.5" class="primitive"/>
  </g>
  <g transform="translate(98.42,17.03)" fill="#72EC95">
    <circle cx="0" cy="0" r="1.5" class="primitive"/>
  </g>
  <g transform="translate(157.5,25.99)" fill="#72EC95">
    <circle cx="0" cy="0" r="1.5" class="primitive"/>
  </g>
  <g transform="translate(92.24,31.96)" fill="#72EC95">
    <circle cx="0" cy="0" r="1.5" class="primitive"/>
  </g>
  <g transform="translate(80.43,37.94)" fill="#F7D627">
    <circle cx="0" cy="0" r="1.5" class="primitive"/>
  </g>
  <g transform="translate(72.28,34.95)" fill="#72EC95">
    <circle cx="0" cy="0" r="1.5" class="primitive"/>
  </g>
  <g transform="translate(98.99,43.91)" fill="#72EC95">
    <circle cx="0" cy="0" r="1.5" class="primitive"/>
  </g>
  <g transform="translate(64.7,39.43)" fill="#72EC95">
    <circle cx="0" cy="0" r="1.5" class="primitive"/>
  </g>
  <g transform="translate(63.81,32.71)" fill="#72EC95">
    <circle cx="0" cy="0" r="1.5" class="primitive"/>
  </g>
  <g transform="translate(52.55,24.87)" fill="#72EC95">
    <circle cx="0" cy="0" r="1.5" class="primitive"/>
  </g>
  <g transform="translate(7.5,16.47)" fill="#000000">
    <circle cx="0" cy="0" r="1.5" class="primitive"/>
  </g>
  <g transform="translate(7.5,9.28)" fill="#000000">
    <circle cx="0" cy="0" r="1.5" class="primitive"/>
  </g>
</g>
<g stroke-opacity="1" fill-opacity="1" font-size="1.41" stroke-width="0.1" id="img-769df1e9-3">
  <g transform="translate(30.19,2.09)" stroke="#000000">
    <g class="primitive">
      <text dy="0.35em">N26</text>
    </g>
  </g>
  <g transform="translate(38.06,8.06)" stroke="#000000">
    <g class="primitive">
      <text dy="0.35em">N31</text>
    </g>
  </g>
  <g transform="translate(146.29,14.04)" stroke="#000000">
    <g class="primitive">
      <text dy="0.35em">N2</text>
    </g>
  </g>
  <g transform="translate(137.92,20.01)" stroke="#000000">
    <g class="primitive">
      <text dy="0.35em">N16</text>
    </g>
  </g>
  <g transform="translate(102.17,17.03)" stroke="#000000">
    <g class="primitive">
      <text dy="0.35em">N23</text>
    </g>
  </g>
  <g transform="translate(161.25,25.99)" stroke="#000000">
    <g class="primitive">
      <text dy="0.35em">N25</text>
    </g>
  </g>
  <g transform="translate(95.99,31.96)" stroke="#000000">
    <g class="primitive">
      <text dy="0.35em">N14</text>
    </g>
  </g>
  <g transform="translate(84.18,37.94)" stroke="#000000">
    <g class="primitive">
      <text dy="0.35em">N12</text>
    </g>
  </g>
  <g transform="translate(76.03,34.95)" stroke="#000000">
    <g class="primitive">
      <text dy="0.35em">N21</text>
    </g>
  </g>
  <g transform="translate(102.74,43.91)" stroke="#000000">
    <g class="primitive">
      <text dy="0.35em">N28</text>
    </g>
  </g>
  <g transform="translate(68.45,39.43)" stroke="#000000">
    <g class="primitive">
      <text dy="0.35em">N29</text>
    </g>
  </g>
  <g transform="translate(67.56,32.71)" stroke="#000000">
    <g class="primitive">
      <text dy="0.35em">N30</text>
    </g>
  </g>
  <g transform="translate(56.3,24.87)" stroke="#000000">
    <g class="primitive">
      <text dy="0.35em">N32</text>
    </g>
  </g>
  <g transform="translate(11.25,16.47)" stroke="#000000">
    <g class="primitive">
      <text dy="0.35em"></text>
    </g>
  </g>
  <g transform="translate(11.25,9.28)" stroke="#000000">
    <g class="primitive">
      <text dy="0.35em"></text>
    </g>
  </g>
</g>
</svg>
