<?xml version="1.0" encoding="UTF-8"?>
<svg xmlns="http://www.w3.org/2000/svg"
     xmlns:xlink="http://www.w3.org/1999/xlink"
     version="1.2"
     width="300mm" height="66mm" viewBox="0 0 300 66"
     stroke="none"
     fill="#000000"
     stroke-width="0.3"
     font-size="3.88"
>
<defs>
  <marker id="arrow" markerWidth="15" markerHeight="7" refX="5" refY="3.5" orient="auto" markerUnits="strokeWidth">
    <path d="M0,0 L15,3.5 L0,7 z" stroke="context-stroke" fill="context-stroke"/>
  </marker>
</defs>
<g stroke-opacity="1" stroke-width="0.3" id="img-9094a605-1">
  <g transform="translate(26.1,3)" stroke="#72EC95">
    <path fill="none" d="M-5.88,0 L5.88,0 " class="primitive"/>
  </g>
  <g transform="translate(32.56,6.53)" stroke="#72EC95">
    <path fill="none" d="M-0.06,0 L0.06,0 " class="primitive"/>
  </g>
  <g transform="translate(39.59,10.06)" stroke="#72EC95">
    <path fill="none" d="M-0.22,0 L0.22,0 " class="primitive"/>
  </g>
  <g transform="translate(42.05,13.59)" stroke="#72EC95">
    <path fill="none" d="M-2.68,0 L2.68,0 " class="primitive"/>
  </g>
  <g transform="translate(35.93,11.82)" stroke="#72EC95">
    <path fill="none" d="M-3.43,0 L3.43,0 " class="primitive"/>
  </g>
  <g transform="translate(39.37,11.82)" stroke="#72EC95">
    <path fill="none" d="M0,1.76 L0,-1.76 " class="primitive"/>
  </g>
  <g transform="translate(26.36,9.18)" stroke="#72EC95">
    <path fill="none" d="M-6.14,0 L6.14,0 " class="primitive"/>
  </g>
  <g transform="translate(32.5,9.18)" stroke="#72EC95">
    <path fill="none" d="M0,2.65 L0,-2.65 " class="primitive"/>
  </g>
  <g transform="translate(13.86,6.09)" stroke="#72EC95">
    <path fill="none" d="M-6.36,0 L6.36,0 " class="primitive"/>
  </g>
  <g transform="translate(20.21,6.09)" stroke="#72EC95">
    <path fill="none" d="M0,3.09 L0,-3.09 " class="primitive"/>
  </g>
  <g transform="translate(40.2,17.12)" stroke="#72EC95">
    <path fill="none" d="M-14.7,0 L14.7,0 " class="primitive"/>
  </g>
  <g transform="translate(27.69,20.65)" stroke="#72EC95">
    <path fill="none" d="M-2.19,0 L2.19,0 " class="primitive"/>
  </g>
  <g transform="translate(16.5,18.88)" stroke="#72EC95">
    <path fill="none" d="M-9,0 L9,0 " class="primitive"/>
  </g>
  <g transform="translate(25.5,18.88)" stroke="#72EC95">
    <path fill="none" d="M0,1.76 L0,-1.76 " class="primitive"/>
  </g>
  <g transform="translate(83.35,24.18)" stroke="#F7D627">
    <path fill="none" d="M-14.81,0 L14.81,0 " class="primitive"/>
  </g>
  <g transform="translate(80.54,27.71)" stroke="#72EC95">
    <path fill="none" d="M-12,0 L12,0 " class="primitive"/>
  </g>
  <g transform="translate(53.15,25.94)" stroke="#72EC95">
    <path fill="none" d="M-15.4,0 L15.4,0 " class="primitive"/>
  </g>
  <g transform="translate(68.54,25.94)" stroke="#72EC95">
    <path fill="none" d="M0,1.76 L0,-1.76 " class="primitive"/>
  </g>
  <g transform="translate(113.29,31.24)" stroke="#72EC95">
    <path fill="none" d="M-5.08,0 L5.08,0 " class="primitive"/>
  </g>
  <g transform="translate(111.92,34.76)" stroke="#72EC95">
    <path fill="none" d="M-1.12,0 L1.12,0 " class="primitive"/>
  </g>
  <g transform="translate(132.02,38.29)" stroke="#72EC95">
    <path fill="none" d="M-10.92,0 L10.92,0 " class="primitive"/>
  </g>
  <g transform="translate(130.94,41.82)" stroke="#72EC95">
    <path fill="none" d="M-9.84,0 L9.84,0 " class="primitive"/>
  </g>
  <g transform="translate(115.95,40.06)" stroke="#72EC95">
    <path fill="none" d="M-5.15,0 L5.15,0 " class="primitive"/>
  </g>
  <g transform="translate(121.1,40.06)" stroke="#72EC95">
    <path fill="none" d="M0,1.76 L0,-1.76 " class="primitive"/>
  </g>
  <g transform="translate(109.51,37.41)" stroke="#72EC95">
    <path fill="none" d="M-1.3,0 L1.3,0 " class="primitive"/>
  </g>
  <g transform="translate(110.8,37.41)" stroke="#72EC95">
    <path fill="none" d="M0,2.65 L0,-2.65 " class="primitive"/>
  </g>
  <g transform="translate(76.75,34.32)" stroke="#72EC95">
    <path fill="none" d="M-31.45,0 L31.45,0 " class="primitive"/>
  </g>
  <g transform="translate(108.21,34.32)" stroke="#72EC95">
    <path fill="none" d="M0,3.09 L0,-3.09 " class="primitive"/>
  </g>
  <g transform="translate(57.69,45.35)" stroke="#72EC95">
    <path fill="none" d="M-6.7,0 L6.7,0 " class="primitive"/>
  </g>
  <g transform="translate(53.73,48.88)" stroke="#F7D627">
    <path fill="none" d="M-2.74,0 L2.74,0 " class="primitive"/>
  </g>
  <g transform="translate(48.45,47.12)" stroke="#72EC95">
    <path fill="none" d="M-2.54,0 L2.54,0 " class="primitive"/>
  </g>
  <g transform="translate(50.99,47.12)" stroke="#72EC95">
    <path fill="none" d="M0,1.76 L0,-1.76 " class="primitive"/>
  </g>
  <g transform="translate(123.23,52.41)" stroke="#72EC95">
    <path fill="none" d="M-34.27,0 L34.27,0 " class="primitive"/>
  </g>
  <g transform="translate(92.88,55.94)" stroke="#72EC95">
    <path fill="none" d="M-3.92,0 L3.92,0 " class="primitive"/>
  </g>
  <g transform="translate(78.94,54.18)" stroke="#72EC95">
    <path fill="none" d="M-10.02,0 L10.02,0 " class="primitive"/>
  </g>
  <g transform="translate(88.96,54.18)" stroke="#72EC95">
    <path fill="none" d="M0,1.76 L0,-1.76 " class="primitive"/>
  </g>
  <g transform="translate(109.21,59.47)" stroke="#72EC95">
    <path fill="none" d="M-4.06,0 L4.06,0 " class="primitive"/>
  </g>
  <g transform="translate(116.91,63)" stroke="#72EC95">
    <path fill="none" d="M-11.76,0 L11.76,0 " class="primitive"/>
  </g>
  <g transform="translate(87.04,61.24)" stroke="#72EC95">
    <path fill="none" d="M-18.11,0 L18.11,0 " class="primitive"/>
  </g>
  <g transform="translate(105.15,61.24)" stroke="#72EC95">
    <path fill="none" d="M0,1.76 L0,-1.76 " class="primitive"/>
  </g>
  <g transform="translate(57.41,57.71)" stroke="#72EC95">
    <path fill="none" d="M-11.51,0 L11.51,0 " class="primitive"/>
  </g>
  <g transform="translate(68.92,57.71)" stroke="#72EC95">
    <path fill="none" d="M0,3.53 L0,-3.53 " class="primitive"/>
  </g>
  <g transform="translate(45.6,52.41)" stroke="#72EC95">
    <path fill="none" d="M-0.3,0 L0.3,0 " class="primitive"/>
  </g>
  <g transform="translate(45.91,52.41)" stroke="#72EC95">
    <path fill="none" d="M0,5.29 L0,-5.29 " class="primitive"/>
  </g>
  <g transform="translate(41.53,43.37)" stroke="#72EC95">
    <path fill="none" d="M-3.78,0 L3.78,0 " class="primitive"/>
  </g>
  <g transform="translate(45.3,43.37)" stroke="#72EC95">
    <path fill="none" d="M0,9.04 L0,-9.04 " class="primitive"/>
  </g>
  <g transform="translate(22.62,34.65)" stroke="#72EC95">
    <path fill="none" d="M-15.12,0 L15.12,0 " class="primitive"/>
  </g>
  <g transform="translate(37.75,34.65)" stroke="#72EC95">
    <path fill="none" d="M0,8.71 L0,-8.71 " class="primitive"/>
  </g>
  <g transform="translate(7.5,26.77)" stroke="#000000">
    <path fill="none" d="M0,0 L0,0 " class="primitive"/>
  </g>
  <g transform="translate(7.5,26.77)" stroke="#000000">
    <path fill="none" d="M0,7.89 L0,-7.89 " class="primitive"/>
  </g>
  <g transform="translate(7.5,16.43)" stroke="#000000">
    <path fill="none" d="M0,0 L0,0 " class="primitive"/>
  </g>
  <g stroke-opacity="1" stroke-width="0.3" id="img-9094a605-2">
    <g transform="translate(7.5,16.43)" stroke="#000000">
      <path fill="none" d="M0,0 L0,0 " class="primitive"/>
    </g>
    <g transform="translate(7.5,16.43)" stroke="#000000">
      <path fill="none" d="M0,10.34 L0,-10.34 " class="primitive"/>
    </g>
  </g>
</g>
<g fill-opacity="1" id="img-9094a605-3">
  <g transform="translate(31.98,3)" fill="#72EC95">
    <circle cx="0" cy="0" r="1.5" class="primitive"/>
  </g>
  <g transform="translate(32.62,6.53)" fill="#72EC95">
    <circle cx="0" cy="0" r="1.5" class="primitive"/>
  </g>
  <g transform="translate(39.81,10.06)" fill="#72EC95">
    <circle cx="0" cy="0" r="1.5" class="primitive"/>
  </g>
  <g transform="translate(44.73,13.59)" fill="#72EC95">
    <circle cx="0" cy="0" r="1.5" class="primitive"/>
  </g>
  <g transform="translate(39.37,11.82)" fill="#72EC95">
    <circle cx="0" cy="0" r="1.5" class="primitive"/>
  </g>
  <g transform="translate(32.5,9.18)" fill="#72EC95">
    <circle cx="0" cy="0" r="1.5" class="primitive"/>
  </g>
  <g transform="translate(20.21,6.09)" fill="#72EC95">
    <circle cx="0" cy="0" r="1.5" class="primitive"/>
  </g>
  <g transform="translate(54.9,17.12)" fill="#72EC95">
    <circle cx="0" cy="0" r="1.5" class="primitive"/>
  </g>
  <g transform="translate(29.88,20.65)" fill="#72EC95">
    <circle cx="0" cy="0" r="1.5" class="primitive"/>
  </g>
  <g transform="translate(25.5,18.88)" fill="#72EC95">
    <circle cx="0" cy="0" r="1.5" class="primitive"/>
  </g>
  <g transform="translate(98.16,24.18)" fill="#F7D627">
    <circle cx="0" cy="0" r="1.5" class="primitive"/>
  </g>
  <g transform="translate(92.55,27.71)" fill="#72EC95">
    <circle cx="0" cy="0" r="1.5" class="primitive"/>
  </g>
  <g transform="translate(68.54,25.94)" fill="#72EC95">
    <circle cx="0" cy="0" r="1.5" class="primitive"/>
  </g>
  <g transform="translate(118.37,31.24)" fill="#72EC95">
    <circle cx="0" cy="0" r="1.5" class="primitive"/>
  </g>
  <g transform="translate(113.04,34.76)" fill="#72EC95">
    <circle cx="0" cy="0" r="1.5" class="primitive"/>
  </g>
  <g transform="translate(142.94,38.29)" fill="#72EC95">
    <circle cx="0" cy="0" r="1.5" class="primitive"/>
  </g>
  <g transform="translate(140.78,41.82)" fill="#72EC95">
    <circle cx="0" cy="0" r="1.5" class="primitive"/>
  </g>
  <g transform="translate(121.1,40.06)" fill="#72EC95">
    <circle cx="0" cy="0" r="1.5" class="primitive"/>
  </g>
  <g transform="translate(110.8,37.41)" fill="#72EC95">
    <circle cx="0" cy="0" r="1.5" class="primitive"/>
  </g>
  <g transform="translate(108.21,34.32)" fill="#72EC95">
    <circle cx="0" cy="0" r="1.5" class="primitive"/>
  </g>
  <g transform="translate(64.39,45.35)" fill="#72EC95">
    <circle cx="0" cy="0" r="1.5" class="primitive"/>
  </g>
  <g transform="translate(56.47,48.88)" fill="#F7D627">
    <circle cx="0" cy="0" r="1.5" class="primitive"/>
  </g>
  <g transform="translate(50.99,47.12)" fill="#72EC95">
    <circle cx="0" cy="0" r="1.5" class="primitive"/>
  </g>
  <g transform="translate(157.5,52.41)" fill="#72EC95">
    <circle cx="0" cy="0" r="1.5" class="primitive"/>
  </g>
  <g transform="translate(96.79,55.94)" fill="#72EC95">
    <circle cx="0" cy="0" r="1.5" class="primitive"/>
  </g>
  <g transform="translate(88.96,54.18)" fill="#72EC95">
    <circle cx="0" cy="0" r="1.5" class="primitive"/>
  </g>
  <g transform="translate(113.27,59.47)" fill="#72EC95">
    <circle cx="0" cy="0" r="1.5" class="primitive"/>
  </g>
  <g transform="translate(128.67,63)" fill="#72EC95">
    <circle cx="0" cy="0" r="1.5" class="primitive"/>
  </g>
  <g transform="translate(105.15,61.24)" fill="#72EC95">
    <circle cx="0" cy="0" r="1.5" class="primitive"/>
  </g>
  <g transform="translate(68.92,57.71)" fill="#72EC95">
    <circle cx="0" cy="0" r="1.5" class="primitive"/>
  </g>
  <g transform="translate(45.91,52.41)" fill="#72EC95">
    <circle cx="0" cy="0" r="1.5" class="primitive"/>
  </g>
  <g transform="translate(45.3,43.37)" fill="#72EC95">
    <circle cx="0" cy="0" r="1.5" class="primitive"/>
  </g>
  <g transform="translate(37.75,34.65)" fill="#72EC95">
    <circle cx="0" cy="0" r="1.5" class="primitive"/>
  </g>
  <g transform="translate(7.5,26.77)" fill="#000000">
    <circle cx="0" cy="0" r="1.5" class="primitive"/>
  </g>
  <g transform="translate(7.5,16.43)" fill="#000000">
    <circle cx="0" cy="0" r="1.5" class="primitive"/>
  </g>
</g>
<g stroke-opacity="1" fill-opacity="1" font-size="1.41" stroke-width="0.1" id="img-9094a605-4">
  <g transform="translate(35.73,3)" stroke="#000000">
    <g class="primitive">
      <text dy="0.35em">N1</text>
    </g>
  </g>
  <g transform="translate(36.37,6.53)" stroke="#000000">
    <g class="primitive">
      <text dy="0.35em">N13</text>
    </g>
  </g>
  <g transform="translate(43.56,10.06)" stroke="#000000">
    <g class="primitive">
      <text dy="0.35em">N6</text>
    </g>
  </g>
  <g transform="translate(48.48,13.59)" stroke="#000000">
    <g class="primitive">
      <text dy="0.35em">N3</text>
    </g>
  </g>
  <g transform="translate(43.12,11.82)" stroke="#000000">
    <g class="primitive">
      <text dy="0.35em">N19</text>
    </g>
  </g>
  <g transform="translate(36.25,9.18)" stroke="#000000">
    <g class="primitive">
      <text dy="0.35em">N20</text>
    </g>
  </g>
  <g transform="translate(23.96,6.09)" stroke="#000000">
    <g class="primitive">
      <text dy="0.35em">N26</text>
    </g>
  </g>
  <g transform="translate(58.65,17.12)" stroke="#000000">
    <g class="primitive">
      <text dy="0.35em">N7</text>
    </g>
  </g>
  <g transform="translate(33.63,20.65)" stroke="#000000">
    <g class="primitive">
      <text dy="0.35em">N10</text>
    </g>
  </g>
  <g transform="translate(29.25,18.88)" stroke="#000000">
    <g class="primitive">
      <text dy="0.35em">N31</text>
    </g>
  </g>
  <g transform="translate(101.91,24.18)" stroke="#000000">
    <g class="primitive">
      <text dy="0.35em">N2</text>
    </g>
  </g>
  <g transform="translate(96.3,27.71)" stroke="#000000">
    <g class="primitive">
      <text dy="0.35em">N16</text>
    </g>
  </g>
  <g transform="translate(72.29,25.94)" stroke="#000000">
    <g class="primitive">
      <text dy="0.35em">N23</text>
    </g>
  </g>
  <g transform="translate(122.12,31.24)" stroke="#000000">
    <g class="primitive">
      <text dy="0.35em">N17</text>
    </g>
  </g>
  <g transform="translate(116.79,34.76)" stroke="#000000">
    <g class="primitive">
      <text dy="0.35em">N5</text>
    </g>
  </g>
  <g transform="translate(146.69,38.29)" stroke="#000000">
    <g class="primitive">
      <text dy="0.35em">N8</text>
    </g>
  </g>
  <g transform="translate(144.53,41.82)" stroke="#000000">
    <g class="primitive">
      <text dy="0.35em">N11</text>
    </g>
  </g>
  <g transform="translate(124.85,40.06)" stroke="#000000">
    <g class="primitive">
      <text dy="0.35em">N18</text>
    </g>
  </g>
  <g transform="translate(114.55,37.41)" stroke="#000000">
    <g class="primitive">
      <text dy="0.35em">N24</text>
    </g>
  </g>
  <g transform="translate(111.96,34.32)" stroke="#000000">
    <g class="primitive">
      <text dy="0.35em">N25</text>
    </g>
  </g>
  <g transform="translate(68.14,45.35)" stroke="#000000">
    <g class="primitive">
      <text dy="0.35em">N14</text>
    </g>
  </g>
  <g transform="translate(60.22,48.88)" stroke="#000000">
    <g class="primitive">
      <text dy="0.35em">N12</text>
    </g>
  </g>
  <g transform="translate(54.74,47.12)" stroke="#000000">
    <g class="primitive">
      <text dy="0.35em">N21</text>
    </g>
  </g>
  <g transform="translate(161.25,52.41)" stroke="#000000">
    <g class="primitive">
      <text dy="0.35em">N4</text>
    </g>
  </g>
  <g transform="translate(100.54,55.94)" stroke="#000000">
    <g class="primitive">
      <text dy="0.35em">N9</text>
    </g>
  </g>
  <g transform="translate(92.71,54.18)" stroke="#000000">
    <g class="primitive">
      <text dy="0.35em">N22</text>
    </g>
  </g>
  <g transform="translate(117.02,59.47)" stroke="#000000">
    <g class="primitive">
      <text dy="0.35em">N15</text>
    </g>
  </g>
  <g transform="translate(132.42,63)" stroke="#000000">
    <g class="primitive">
      <text dy="0.35em">N0</text>
    </g>
  </g>
  <g transform="translate(108.9,61.24)" stroke="#000000">
    <g class="primitive">
      <text dy="0.35em">N27</text>
    </g>
  </g>
  <g transform="translate(72.67,57.71)" stroke="#000000">
    <g class="primitive">
      <text dy="0.35em">N28</text>
    </g>
  </g>
  <g transform="translate(49.66,52.41)" stroke="#000000">
    <g class="primitive">
      <text dy="0.35em">N29</text>
    </g>
  </g>
  <g transform="translate(49.05,43.37)" stroke="#000000">
    <g class="primitive">
      <text dy="0.35em">N30</text>
    </g>
  </g>
  <g transform="translate(41.5,34.65)" stroke="#000000">
    <g class="primitive">
      <text dy="0.35em">N32</text>
    </g>
  </g>
  <g transform="translate(11.25,26.77)" stroke="#000000">
    <g class="primitive">
      <text dy="0.35em"></text>
    </g>
  </g>
  <g transform="translate(11.25,16.43)" stroke="#000000">
    <g class="primitive">
      <text dy="0.35em"></text>
    </g>
  </g>
</g>
</svg>
