<?xml version="1.0" encoding="UTF-8"?>
<svg xmlns="http://www.w3.org/2000/svg"
     xmlns:xlink="http://www.w3.org/1999/xlink"
     version="1.2"
     width="150mm" height="110mm" viewBox="0 0 150 110"
     stroke="none"
     fill="#000000"
     stroke-width="0.3"
     font-size="3.88"
>
<defs>
  <marker id="arrow" markerWidth="15" markerHeight="7" refX="5" refY="3.5" orient="auto" markerUnits="strokeWidth">
    <path d="M0,0 L15,3.5 L0,7 z" stroke="context-stroke" fill="context-stroke"/>
  </marker>
</defs>
<g stroke-opacity="1" stroke-width="0.3" id="img-29b4c979-1">
  <g transform="translate(19.6,5)" stroke="#0F70DC">
    <path fill="none" d="M-7.38,0 L7.38,0 " class="primitive"/>
  </g>
  <g transform="translate(18.72,7.56)" stroke="#0F70DC">
    <path fill="none" d="M-6.5,0 L6.5,0 " class="primitive"/>
  </g>
  <g transform="translate(12.15,6.28)" stroke="#0F70DC">
    <path fill="none" d="M-0.07,0 L0.07,0 " class="primitive"/>
  </g>
  <g transform="translate(12.22,6.28)" stroke="#0F70DC">
    <path fill="none" d="M0,1.28 L0,-1.28 " class="primitive"/>
  </g>
  <g transform="translate(15.57,10.13)" stroke="#0F70DC">
    <path fill="none" d="M-1.77,0 L1.77,0 " class="primitive"/>
  </g>
  <g transform="translate(17.26,12.69)" stroke="#0F70DC">
    <path fill="none" d="M-1.35,0 L1.35,0 " class="primitive"/>
  </g>
  <g transform="translate(27.72,15.26)" stroke="#0F70DC">
    <path fill="none" d="M-2.09,0 L2.09,0 " class="primitive"/>
  </g>
  <g transform="translate(35.08,17.82)" stroke="#0F70DC">
    <path fill="none" d="M-0.27,0 L0.27,0 " class="primitive"/>
  </g>
  <g transform="translate(40.59,20.38)" stroke="#0F70DC">
    <path fill="none" d="M-4.37,0 L4.37,0 " class="primitive"/>
  </g>
  <g transform="translate(41.22,22.95)" stroke="#0F70DC">
    <path fill="none" d="M-5,0 L5,0 " class="primitive"/>
  </g>
  <g transform="translate(35.52,21.67)" stroke="#0F70DC">
    <path fill="none" d="M-0.7,0 L0.7,0 " class="primitive"/>
  </g>
  <g transform="translate(36.22,21.67)" stroke="#0F70DC">
    <path fill="none" d="M0,1.28 L0,-1.28 " class="primitive"/>
  </g>
  <g transform="translate(30.22,19.74)" stroke="#0F70DC">
    <path fill="none" d="M-4.59,0 L4.59,0 " class="primitive"/>
  </g>
  <g transform="translate(34.81,19.74)" stroke="#0F70DC">
    <path fill="none" d="M0,1.92 L0,-1.92 " class="primitive"/>
  </g>
  <g transform="translate(24.45,17.5)" stroke="#0F70DC">
    <path fill="none" d="M-1.18,0 L1.18,0 " class="primitive"/>
  </g>
  <g transform="translate(25.63,17.5)" stroke="#0F70DC">
    <path fill="none" d="M0,2.24 L0,-2.24 " class="primitive"/>
  </g>
  <g transform="translate(25.12,25.51)" stroke="#0F70DC">
    <path fill="none" d="M-0,0 L0,0 " class="primitive"/>
  </g>
  <g transform="translate(45.84,28.08)" stroke="#0F70DC">
    <path fill="none" d="M-2.53,0 L2.53,0 " class="primitive"/>
  </g>
  <g transform="translate(44.85,30.64)" stroke="#0F70DC">
    <path fill="none" d="M-1.54,0 L1.54,0 " class="primitive"/>
  </g>
  <g transform="translate(34.22,29.36)" stroke="#0F70DC">
    <path fill="none" d="M-9.1,0 L9.1,0 " class="primitive"/>
  </g>
  <g transform="translate(43.31,29.36)" stroke="#0F70DC">
    <path fill="none" d="M0,1.28 L0,-1.28 " class="primitive"/>
  </g>
  <g transform="translate(24.52,27.44)" stroke="#0F70DC">
    <path fill="none" d="M-0.6,0 L0.6,0 " class="primitive"/>
  </g>
  <g transform="translate(25.12,27.44)" stroke="#0F70DC">
    <path fill="none" d="M0,1.92 L0,-1.92 " class="primitive"/>
  </g>
  <g transform="translate(40.08,33.21)" stroke="#0F70DC">
    <path fill="none" d="M-5.69,0 L5.69,0 " class="primitive"/>
  </g>
  <g transform="translate(35.32,35.77)" stroke="#0F70DC">
    <path fill="none" d="M-0.93,0 L0.93,0 " class="primitive"/>
  </g>
  <g transform="translate(31.01,34.49)" stroke="#0F70DC">
    <path fill="none" d="M-3.38,0 L3.38,0 " class="primitive"/>
  </g>
  <g transform="translate(34.39,34.49)" stroke="#0F70DC">
    <path fill="none" d="M0,1.28 L0,-1.28 " class="primitive"/>
  </g>
  <g transform="translate(35.41,38.33)" stroke="#0F70DC">
    <path fill="none" d="M-1.89,0 L1.89,0 " class="primitive"/>
  </g>
  <g transform="translate(34.43,40.9)" stroke="#0F70DC">
    <path fill="none" d="M-0.7,0 L0.7,0 " class="primitive"/>
  </g>
  <g transform="translate(43.05,43.46)" stroke="#0F70DC">
    <path fill="none" d="M-9.31,0 L9.31,0 " class="primitive"/>
  </g>
  <g transform="translate(33.62,42.18)" stroke="#9D7521">
    <path fill="none" d="M-0.11,0 L0.11,0 " class="primitive"/>
  </g>
  <g transform="translate(33.73,42.18)" stroke="#9D7521">
    <path fill="none" d="M0,1.28 L0,-1.28 " class="primitive"/>
  </g>
  <g transform="translate(30.57,40.26)" stroke="#0F70DC">
    <path fill="none" d="M-2.94,0 L2.94,0 " class="primitive"/>
  </g>
  <g transform="translate(33.51,40.26)" stroke="#0F70DC">
    <path fill="none" d="M0,1.92 L0,-1.92 " class="primitive"/>
  </g>
  <g transform="translate(25.77,37.37)" stroke="#0F70DC">
    <path fill="none" d="M-1.85,0 L1.85,0 " class="primitive"/>
  </g>
  <g transform="translate(27.62,37.37)" stroke="#0F70DC">
    <path fill="none" d="M0,2.88 L0,-2.88 " class="primitive"/>
  </g>
  <g transform="translate(23.6,32.4)" stroke="#0F70DC">
    <path fill="none" d="M-0.32,0 L0.32,0 " class="primitive"/>
  </g>
  <g transform="translate(23.92,32.4)" stroke="#0F70DC">
    <path fill="none" d="M0,4.97 L0,-4.97 " class="primitive"/>
  </g>
  <g transform="translate(19.6,24.95)" stroke="#0F70DC">
    <path fill="none" d="M-3.68,0 L3.68,0 " class="primitive"/>
  </g>
  <g transform="translate(23.28,24.95)" stroke="#0F70DC">
    <path fill="none" d="M0,7.45 L0,-7.45 " class="primitive"/>
  </g>
  <g transform="translate(14.86,18.82)" stroke="#0F70DC">
    <path fill="none" d="M-1.06,0 L1.06,0 " class="primitive"/>
  </g>
  <g transform="translate(15.91,18.82)" stroke="#0F70DC">
    <path fill="none" d="M0,6.13 L0,-6.13 " class="primitive"/>
  </g>
  <g transform="translate(12.94,14.48)" stroke="#0F70DC">
    <path fill="none" d="M-0.86,0 L0.86,0 " class="primitive"/>
  </g>
  <g transform="translate(13.8,14.48)" stroke="#0F70DC">
    <path fill="none" d="M0,4.35 L0,-4.35 " class="primitive"/>
  </g>
  <g transform="translate(7.91,10.38)" stroke="#0F70DC">
    <path fill="none" d="M-4.16,0 L4.16,0 " class="primitive"/>
  </g>
  <g transform="translate(12.08,10.38)" stroke="#0F70DC">
    <path fill="none" d="M0,4.1 L0,-4.1 " class="primitive"/>
  </g>
  <g transform="translate(5.92,46.03)" stroke="#0F70DC">
    <path fill="none" d="M-2.17,0 L2.17,0 " class="primitive"/>
  </g>
  <g transform="translate(27.23,48.59)" stroke="#0F70DC">
    <path fill="none" d="M-3.06,0 L3.06,0 " class="primitive"/>
  </g>
  <g transform="translate(24.68,51.15)" stroke="#0F70DC">
    <path fill="none" d="M-0.51,0 L0.51,0 " class="primitive"/>
  </g>
  <g transform="translate(17.26,49.87)" stroke="#0F70DC">
    <path fill="none" d="M-6.91,0 L6.91,0 " class="primitive"/>
  </g>
  <g transform="translate(24.18,49.87)" stroke="#0F70DC">
    <path fill="none" d="M0,1.28 L0,-1.28 " class="primitive"/>
  </g>
  <g stroke-opacity="1" stroke-width="0.3" id="img-29b4c979-2">
    <g transform="translate(55.34,101.79)" stroke="#0F70DC">
      <path fill="none" d="M-1.22,0 L1.22,0 " class="primitive"/>
    </g>
    <g transform="translate(56.56,101.79)" stroke="#0F70DC">
      <path fill="none" d="M0,1.92 L0,-1.92 " class="primitive"/>
    </g>
    <g transform="translate(50.93,99.55)" stroke="#0F70DC">
      <path fill="none" d="M-3.19,0 L3.19,0 " class="primitive"/>
    </g>
    <g transform="translate(54.12,99.55)" stroke="#0F70DC">
      <path fill="none" d="M0,2.24 L0,-2.24 " class="primitive"/>
    </g>
    <g transform="translate(40.76,95.54)" stroke="#0F70DC">
      <path fill="none" d="M-6.98,0 L6.98,0 " class="primitive"/>
    </g>
    <g transform="translate(47.74,95.54)" stroke="#0F70DC">
      <path fill="none" d="M0,4.01 L0,-4.01 " class="primitive"/>
    </g>
    <g transform="translate(27.55,91.3)" stroke="#0F70DC">
      <path fill="none" d="M-6.24,0 L6.24,0 " class="primitive"/>
    </g>
    <g transform="translate(33.78,91.3)" stroke="#0F70DC">
      <path fill="none" d="M0,4.25 L0,-4.25 " class="primitive"/>
    </g>
    <g transform="translate(16.21,84.37)" stroke="#0F70DC">
      <path fill="none" d="M-5.1,0 L5.1,0 " class="primitive"/>
    </g>
    <g transform="translate(21.31,84.37)" stroke="#0F70DC">
      <path fill="none" d="M0,6.93 L0,-6.93 " class="primitive"/>
    </g>
    <g transform="translate(9.84,76.41)" stroke="#0F70DC">
      <path fill="none" d="M-1.26,0 L1.26,0 " class="primitive"/>
    </g>
    <g transform="translate(11.1,76.41)" stroke="#0F70DC">
      <path fill="none" d="M0,7.95 L0,-7.95 " class="primitive"/>
    </g>
    <g transform="translate(6.16,64.91)" stroke="#0F70DC">
      <path fill="none" d="M-2.41,0 L2.41,0 " class="primitive"/>
    </g>
    <g transform="translate(8.58,64.91)" stroke="#0F70DC">
      <path fill="none" d="M0,11.51 L0,-11.51 " class="primitive"/>
    </g>
    <g transform="translate(3.75,55.47)" stroke="#000000">
      <path fill="none" d="M0,0 L0,0 " class="primitive"/>
    </g>
    <g transform="translate(3.75,55.47)" stroke="#000000">
      <path fill="none" d="M0,9.44 L0,-9.44 " class="primitive"/>
    </g>
    <g transform="translate(3.75,32.92)" stroke="#000000">
      <path fill="none" d="M0,0 L0,0 " class="primitive"/>
    </g>
    <g transform="translate(3.75,32.92)" stroke="#000000">
      <path fill="none" d="M0,22.54 L0,-22.54 " class="primitive"/>
    </g>
  </g>
  <g stroke-opacity="1" stroke-width="0.3" id="img-29b4c979-3">
    <g transform="translate(24.18,49.87)" stroke="#0F70DC">
      <path fill="none" d="M0,1.28 L0,-1.28 " class="primitive"/>
    </g>
    <g transform="translate(15.33,53.72)" stroke="#0F70DC">
      <path fill="none" d="M-4.33,0 L4.33,0 " class="primitive"/>
    </g>
    <g transform="translate(48.82,56.28)" stroke="#0F70DC">
      <path fill="none" d="M-1.15,0 L1.15,0 " class="primitive"/>
    </g>
    <g transform="translate(50.62,58.85)" stroke="#0F70DC">
      <path fill="none" d="M-2.95,0 L2.95,0 " class="primitive"/>
    </g>
    <g transform="translate(46.09,57.56)" stroke="#0F70DC">
      <path fill="none" d="M-1.58,0 L1.58,0 " class="primitive"/>
    </g>
    <g transform="translate(47.67,57.56)" stroke="#0F70DC">
      <path fill="none" d="M0,1.28 L0,-1.28 " class="primitive"/>
    </g>
    <g transform="translate(58.29,61.41)" stroke="#0F70DC">
      <path fill="none" d="M-2.36,0 L2.36,0 " class="primitive"/>
    </g>
    <g transform="translate(57.54,63.97)" stroke="#0F70DC">
      <path fill="none" d="M-1.61,0 L1.61,0 " class="primitive"/>
    </g>
    <g transform="translate(50.21,62.69)" stroke="#0F70DC">
      <path fill="none" d="M-5.71,0 L5.71,0 " class="primitive"/>
    </g>
    <g transform="translate(55.92,62.69)" stroke="#0F70DC">
      <path fill="none" d="M0,1.28 L0,-1.28 " class="primitive"/>
    </g>
    <g transform="translate(27.75,60.13)" stroke="#0F70DC">
      <path fill="none" d="M-16.75,0 L16.75,0 " class="primitive"/>
    </g>
    <g transform="translate(44.5,60.13)" stroke="#0F70DC">
      <path fill="none" d="M0,2.56 L0,-2.56 " class="primitive"/>
    </g>
    <g transform="translate(10.68,56.92)" stroke="#0F70DC">
      <path fill="none" d="M-0.32,0 L0.32,0 " class="primitive"/>
    </g>
    <g transform="translate(11,56.92)" stroke="#0F70DC">
      <path fill="none" d="M0,3.21 L0,-3.21 " class="primitive"/>
    </g>
    <g transform="translate(9.47,53.4)" stroke="#0F70DC">
      <path fill="none" d="M-0.89,0 L0.89,0 " class="primitive"/>
    </g>
    <g transform="translate(10.35,53.4)" stroke="#0F70DC">
      <path fill="none" d="M0,3.53 L0,-3.53 " class="primitive"/>
    </g>
    <g transform="translate(14.7,66.54)" stroke="#0F70DC">
      <path fill="none" d="M-3.03,0 L3.03,0 " class="primitive"/>
    </g>
    <g transform="translate(25.59,69.1)" stroke="#0F70DC">
      <path fill="none" d="M-5.92,0 L5.92,0 " class="primitive"/>
    </g>
    <g transform="translate(20.3,71.67)" stroke="#0F70DC">
      <path fill="none" d="M-0.63,0 L0.63,0 " class="primitive"/>
    </g>
    <g transform="translate(15.67,70.38)" stroke="#0F70DC">
      <path fill="none" d="M-4,0 L4,0 " class="primitive"/>
    </g>
    <g transform="translate(19.67,70.38)" stroke="#0F70DC">
      <path fill="none" d="M0,1.28 L0,-1.28 " class="primitive"/>
    </g>
    <g transform="translate(11.39,68.46)" stroke="#0F70DC">
      <path fill="none" d="M-0.29,0 L0.29,0 " class="primitive"/>
    </g>
    <g transform="translate(11.68,68.46)" stroke="#0F70DC">
      <path fill="none" d="M0,1.92 L0,-1.92 " class="primitive"/>
    </g>
    <g transform="translate(35.04,74.23)" stroke="#0F70DC">
      <path fill="none" d="M-7.84,0 L7.84,0 " class="primitive"/>
    </g>
    <g transform="translate(35.62,76.79)" stroke="#0F70DC">
      <path fill="none" d="M-0.91,0 L0.91,0 " class="primitive"/>
    </g>
    <g transform="translate(35.16,79.36)" stroke="#0F70DC">
      <path fill="none" d="M-0.45,0 L0.45,0 " class="primitive"/>
    </g>
    <g transform="translate(33.85,78.08)" stroke="#0F70DC">
      <path fill="none" d="M-0.86,0 L0.86,0 " class="primitive"/>
    </g>
    <g transform="translate(34.71,78.08)" stroke="#0F70DC">
      <path fill="none" d="M0,1.28 L0,-1.28 " class="primitive"/>
    </g>
    <g transform="translate(48.53,81.92)" stroke="#0F70DC">
      <path fill="none" d="M-8.63,0 L8.63,0 " class="primitive"/>
    </g>
    <g transform="translate(42.56,84.49)" stroke="#0F70DC">
      <path fill="none" d="M-2.66,0 L2.66,0 " class="primitive"/>
    </g>
    <g transform="translate(36.44,83.21)" stroke="#0F70DC">
      <path fill="none" d="M-3.46,0 L3.46,0 " class="primitive"/>
    </g>
    <g transform="translate(39.9,83.21)" stroke="#0F70DC">
      <path fill="none" d="M0,1.28 L0,-1.28 " class="primitive"/>
    </g>
    <g transform="translate(30.09,80.64)" stroke="#0F70DC">
      <path fill="none" d="M-2.9,0 L2.9,0 " class="primitive"/>
    </g>
    <g transform="translate(32.99,80.64)" stroke="#0F70DC">
      <path fill="none" d="M0,2.56 L0,-2.56 " class="primitive"/>
    </g>
    <g transform="translate(24.25,77.44)" stroke="#0F70DC">
      <path fill="none" d="M-2.94,0 L2.94,0 " class="primitive"/>
    </g>
    <g transform="translate(27.19,77.44)" stroke="#0F70DC">
      <path fill="none" d="M0,3.21 L0,-3.21 " class="primitive"/>
    </g>
    <g transform="translate(36.35,87.05)" stroke="#0F70DC">
      <path fill="none" d="M-2.57,0 L2.57,0 " class="primitive"/>
    </g>
    <g transform="translate(52.93,89.62)" stroke="#0F70DC">
      <path fill="none" d="M-2.98,0 L2.98,0 " class="primitive"/>
    </g>
    <g transform="translate(68.31,92.18)" stroke="#0F70DC">
      <path fill="none" d="M-2.2,0 L2.2,0 " class="primitive"/>
    </g>
    <g transform="translate(67.31,94.74)" stroke="#0F70DC">
      <path fill="none" d="M-1.2,0 L1.2,0 " class="primitive"/>
    </g>
    <g transform="translate(58.03,93.46)" stroke="#0F70DC">
      <path fill="none" d="M-8.08,0 L8.08,0 " class="primitive"/>
    </g>
    <g transform="translate(66.11,93.46)" stroke="#0F70DC">
      <path fill="none" d="M0,1.28 L0,-1.28 " class="primitive"/>
    </g>
    <g transform="translate(48.85,91.54)" stroke="#0F70DC">
      <path fill="none" d="M-1.1,0 L1.1,0 " class="primitive"/>
    </g>
    <g transform="translate(49.95,91.54)" stroke="#0F70DC">
      <path fill="none" d="M0,1.92 L0,-1.92 " class="primitive"/>
    </g>
    <g transform="translate(58.43,97.31)" stroke="#0F70DC">
      <path fill="none" d="M-4.31,0 L4.31,0 " class="primitive"/>
    </g>
    <g transform="translate(60.29,99.87)" stroke="#0F70DC">
      <path fill="none" d="M-3.72,0 L3.72,0 " class="primitive"/>
    </g>
    <g transform="translate(70.13,102.44)" stroke="#0F70DC">
      <path fill="none" d="M-0.47,0 L0.47,0 " class="primitive"/>
    </g>
    <g transform="translate(74.21,105)" stroke="#0F70DC">
      <path fill="none" d="M-4.54,0 L4.54,0 " class="primitive"/>
    </g>
    <g transform="translate(63.11,103.72)" stroke="#0F70DC">
      <path fill="none" d="M-6.55,0 L6.55,0 " class="primitive"/>
    </g>
    <g transform="translate(69.66,103.72)" stroke="#0F70DC">
      <path fill="none" d="M0,1.28 L0,-1.28 " class="primitive"/>
    </g>
    <g transform="translate(55.34,101.79)" stroke="#0F70DC">
      <path fill="none" d="M-1.22,0 L1.22,0 " class="primitive"/>
    </g>
  </g>
</g>
<g fill-opacity="1" id="img-29b4c979-4">
  <g transform="translate(26.98,5)" fill="#0F70DC">
    <circle cx="0" cy="0" r="0.75" class="primitive"/>
  </g>
  <g transform="translate(25.22,7.56)" fill="#0F70DC">
    <circle cx="0" cy="0" r="0.75" class="primitive"/>
  </g>
  <g transform="translate(12.22,6.28)" fill="#0F70DC">
    <circle cx="0" cy="0" r="0.75" class="primitive"/>
  </g>
  <g transform="translate(17.33,10.13)" fill="#0F70DC">
    <circle cx="0" cy="0" r="0.75" class="primitive"/>
  </g>
  <g transform="translate(18.61,12.69)" fill="#0F70DC">
    <circle cx="0" cy="0" r="0.75" class="primitive"/>
  </g>
  <g transform="translate(29.81,15.26)" fill="#0F70DC">
    <circle cx="0" cy="0" r="0.75" class="primitive"/>
  </g>
  <g transform="translate(35.35,17.82)" fill="#0F70DC">
    <circle cx="0" cy="0" r="0.75" class="primitive"/>
  </g>
  <g transform="translate(44.97,20.38)" fill="#0F70DC">
    <circle cx="0" cy="0" r="0.75" class="primitive"/>
  </g>
  <g transform="translate(46.22,22.95)" fill="#0F70DC">
    <circle cx="0" cy="0" r="0.75" class="primitive"/>
  </g>
  <g transform="translate(36.22,21.67)" fill="#0F70DC">
    <circle cx="0" cy="0" r="0.75" class="primitive"/>
  </g>
  <g transform="translate(34.81,19.74)" fill="#0F70DC">
    <circle cx="0" cy="0" r="0.75" class="primitive"/>
  </g>
  <g transform="translate(25.63,17.5)" fill="#0F70DC">
    <circle cx="0" cy="0" r="0.75" class="primitive"/>
  </g>
  <g transform="translate(25.12,25.51)" fill="#0F70DC">
    <circle cx="0" cy="0" r="0.75" class="primitive"/>
  </g>
  <g transform="translate(48.37,28.08)" fill="#0F70DC">
    <circle cx="0" cy="0" r="0.75" class="primitive"/>
  </g>
  <g transform="translate(46.4,30.64)" fill="#0F70DC">
    <circle cx="0" cy="0" r="0.75" class="primitive"/>
  </g>
  <g transform="translate(43.31,29.36)" fill="#0F70DC">
    <circle cx="0" cy="0" r="0.75" class="primitive"/>
  </g>
  <g transform="translate(25.12,27.44)" fill="#0F70DC">
    <circle cx="0" cy="0" r="0.75" class="primitive"/>
  </g>
  <g transform="translate(45.77,33.21)" fill="#0F70DC">
    <circle cx="0" cy="0" r="0.75" class="primitive"/>
  </g>
  <g transform="translate(36.25,35.77)" fill="#0F70DC">
    <circle cx="0" cy="0" r="0.75" class="primitive"/>
  </g>
  <g transform="translate(34.39,34.49)" fill="#0F70DC">
    <circle cx="0" cy="0" r="0.75" class="primitive"/>
  </g>
  <g transform="translate(37.3,38.33)" fill="#0F70DC">
    <circle cx="0" cy="0" r="0.75" class="primitive"/>
  </g>
  <g transform="translate(35.13,40.9)" fill="#0F70DC">
    <circle cx="0" cy="0" r="0.75" class="primitive"/>
  </g>
  <g transform="translate(52.36,43.46)" fill="#0F70DC">
    <circle cx="0" cy="0" r="0.75" class="primitive"/>
  </g>
  <g transform="translate(33.73,42.18)" fill="#9D7521">
    <circle cx="0" cy="0" r="0.75" class="primitive"/>
  </g>
  <g transform="translate(33.51,40.26)" fill="#0F70DC">
    <circle cx="0" cy="0" r="0.75" class="primitive"/>
  </g>
  <g transform="translate(27.62,37.37)" fill="#0F70DC">
    <circle cx="0" cy="0" r="0.75" class="primitive"/>
  </g>
  <g transform="translate(23.92,32.4)" fill="#0F70DC">
    <circle cx="0" cy="0" r="0.75" class="primitive"/>
  </g>
  <g transform="translate(23.28,24.95)" fill="#0F70DC">
    <circle cx="0" cy="0" r="0.75" class="primitive"/>
  </g>
  <g transform="translate(15.91,18.82)" fill="#0F70DC">
    <circle cx="0" cy="0" r="0.75" class="primitive"/>
  </g>
  <g transform="translate(13.8,14.48)" fill="#0F70DC">
    <circle cx="0" cy="0" r="0.75" class="primitive"/>
  </g>
  <g transform="translate(12.08,10.38)" fill="#0F70DC">
    <circle cx="0" cy="0" r="0.75" class="primitive"/>
  </g>
  <g transform="translate(8.1,46.03)" fill="#0F70DC">
    <circle cx="0" cy="0" r="0.75" class="primitive"/>
  </g>
  <g transform="translate(30.29,48.59)" fill="#0F70DC">
    <circle cx="0" cy="0" r="0.75" class="primitive"/>
  </g>
  <g transform="translate(25.19,51.15)" fill="#0F70DC">
    <circle cx="0" cy="0" r="0.75" class="primitive"/>
  </g>
  <g transform="translate(24.18,49.87)" fill="#0F70DC">
    <circle cx="0" cy="0" r="0.75" class="primitive"/>
  </g>
  <g transform="translate(19.67,53.72)" fill="#0F70DC">
    <circle cx="0" cy="0" r="0.75" class="primitive"/>
  </g>
  <g transform="translate(49.98,56.28)" fill="#0F70DC">
    <circle cx="0" cy="0" r="0.75" class="primitive"/>
  </g>
  <g transform="translate(53.57,58.85)" fill="#0F70DC">
    <circle cx="0" cy="0" r="0.75" class="primitive"/>
  </g>
  <g transform="translate(47.67,57.56)" fill="#0F70DC">
    <circle cx="0" cy="0" r="0.75" class="primitive"/>
  </g>
  <g transform="translate(60.65,61.41)" fill="#0F70DC">
    <circle cx="0" cy="0" r="0.75" class="primitive"/>
  </g>
  <g transform="translate(59.15,63.97)" fill="#0F70DC">
    <circle cx="0" cy="0" r="0.75" class="primitive"/>
  </g>
  <g transform="translate(55.92,62.69)" fill="#0F70DC">
    <circle cx="0" cy="0" r="0.75" class="primitive"/>
  </g>
  <g transform="translate(44.5,60.13)" fill="#0F70DC">
    <circle cx="0" cy="0" r="0.75" class="primitive"/>
  </g>
  <g transform="translate(11,56.92)" fill="#0F70DC">
    <circle cx="0" cy="0" r="0.75" class="primitive"/>
  </g>
  <g transform="translate(10.35,53.4)" fill="#0F70DC">
    <circle cx="0" cy="0" r="0.75" class="primitive"/>
  </g>
  <g transform="translate(17.73,66.54)" fill="#0F70DC">
    <circle cx="0" cy="0" r="0.75" class="primitive"/>
  </g>
  <g transform="translate(31.51,69.1)" fill="#0F70DC">
    <circle cx="0" cy="0" r="0.75" class="primitive"/>
  </g>
  <g transform="translate(20.93,71.67)" fill="#0F70DC">
    <circle cx="0" cy="0" r="0.75" class="primitive"/>
  </g>
  <g transform="translate(19.67,70.38)" fill="#0F70DC">
    <circle cx="0" cy="0" r="0.75" class="primitive"/>
  </g>
  <g transform="translate(11.68,68.46)" fill="#0F70DC">
    <circle cx="0" cy="0" r="0.75" class="primitive"/>
  </g>
  <g transform="translate(42.88,74.23)" fill="#0F70DC">
    <circle cx="0" cy="0" r="0.75" class="primitive"/>
  </g>
  <g fill-opacity="1" id="img-29b4c979-5">
    <g transform="translate(42.88,74.23)" fill="#0F70DC">
      <circle cx="0" cy="0" r="0.75" class="primitive"/>
    </g>
    <g transform="translate(36.53,76.79)" fill="#0F70DC">
      <circle cx="0" cy="0" r="0.75" class="primitive"/>
    </g>
    <g transform="translate(35.61,79.36)" fill="#0F70DC">
      <circle cx="0" cy="0" r="0.75" class="primitive"/>
    </g>
    <g transform="translate(34.71,78.08)" fill="#0F70DC">
      <circle cx="0" cy="0" r="0.75" class="primitive"/>
    </g>
    <g transform="translate(57.16,81.92)" fill="#0F70DC">
      <circle cx="0" cy="0" r="0.75" class="primitive"/>
    </g>
    <g transform="translate(45.21,84.49)" fill="#0F70DC">
      <circle cx="0" cy="0" r="0.75" class="primitive"/>
    </g>
    <g transform="translate(39.9,83.21)" fill="#0F70DC">
      <circle cx="0" cy="0" r="0.75" class="primitive"/>
    </g>
    <g transform="translate(32.99,80.64)" fill="#0F70DC">
      <circle cx="0" cy="0" r="0.75" class="primitive"/>
    </g>
    <g transform="translate(27.19,77.44)" fill="#0F70DC">
      <circle cx="0" cy="0" r="0.75" class="primitive"/>
    </g>
    <g transform="translate(38.93,87.05)" fill="#0F70DC">
      <circle cx="0" cy="0" r="0.75" class="primitive"/>
    </g>
    <g transform="translate(55.91,89.62)" fill="#0F70DC">
      <circle cx="0" cy="0" r="0.75" class="primitive"/>
    </g>
    <g transform="translate(70.51,92.18)" fill="#0F70DC">
      <circle cx="0" cy="0" r="0.75" class="primitive"/>
    </g>
    <g transform="translate(68.51,94.74)" fill="#0F70DC">
      <circle cx="0" cy="0" r="0.75" class="primitive"/>
    </g>
    <g transform="translate(66.11,93.46)" fill="#0F70DC">
      <circle cx="0" cy="0" r="0.75" class="primitive"/>
    </g>
    <g transform="translate(49.95,91.54)" fill="#0F70DC">
      <circle cx="0" cy="0" r="0.75" class="primitive"/>
    </g>
    <g transform="translate(62.74,97.31)" fill="#0F70DC">
      <circle cx="0" cy="0" r="0.75" class="primitive"/>
    </g>
    <g transform="translate(64.01,99.87)" fill="#0F70DC">
      <circle cx="0" cy="0" r="0.75" class="primitive"/>
    </g>
    <g transform="translate(70.61,102.44)" fill="#0F70DC">
      <circle cx="0" cy="0" r="0.75" class="primitive"/>
    </g>
    <g transform="translate(78.75,105)" fill="#0F70DC">
      <circle cx="0" cy="0" r="0.75" class="primitive"/>
    </g>
    <g transform="translate(69.66,103.72)" fill="#0F70DC">
      <circle cx="0" cy="0" r="0.75" class="primitive"/>
    </g>
    <g transform="translate(56.56,101.79)" fill="#0F70DC">
      <circle cx="0" cy="0" r="0.75" class="primitive"/>
    </g>
    <g transform="translate(54.12,99.55)" fill="#0F70DC">
      <circle cx="0" cy="0" r="0.75" class="primitive"/>
    </g>
    <g transform="translate(47.74,95.54)" fill="#0F70DC">
      <circle cx="0" cy="0" r="0.75" class="primitive"/>
    </g>
    <g transform="translate(33.78,91.3)" fill="#0F70DC">
      <circle cx="0" cy="0" r="0.75" class="primitive"/>
    </g>
    <g transform="translate(21.31,84.37)" fill="#0F70DC">
      <circle cx="0" cy="0" r="0.75" class="primitive"/>
    </g>
    <g transform="translate(11.1,76.41)" fill="#0F70DC">
      <circle cx="0" cy="0" r="0.75" class="primitive"/>
    </g>
    <g transform="translate(8.58,64.91)" fill="#0F70DC">
      <circle cx="0" cy="0" r="0.75" class="primitive"/>
    </g>
    <g transform="translate(3.75,55.47)" fill="#000000">
      <circle cx="0" cy="0" r="0.75" class="primitive"/>
    </g>
    <g transform="translate(3.75,32.92)" fill="#000000">
      <circle cx="0" cy="0" r="0.75" class="primitive"/>
    </g>
  </g>
</g>
<g stroke-opacity="1" fill-opacity="1" font-size="1.41" stroke-width="0.1" id="img-29b4c979-6">
  <g transform="translate(28.85,5)" stroke="#000000">
    <g class="primitive">
      <text dy="0.35em">N3</text>
    </g>
  </g>
  <g transform="translate(27.1,7.56)" stroke="#000000">
    <g class="primitive">
      <text dy="0.35em">N28</text>
    </g>
  </g>
  <g transform="translate(14.09,6.28)" stroke="#000000">
    <g class="primitive">
      <text dy="0.35em">N59</text>
    </g>
  </g>
  <g transform="translate(19.21,10.13)" stroke="#000000">
    <g class="primitive">
      <text dy="0.35em">N5</text>
    </g>
  </g>
  <g transform="translate(20.48,12.69)" stroke="#000000">
    <g class="primitive">
      <text dy="0.35em">N31</text>
    </g>
  </g>
  <g transform="translate(31.69,15.26)" stroke="#000000">
    <g class="primitive">
      <text dy="0.35em">N14</text>
    </g>
  </g>
  <g transform="translate(37.22,17.82)" stroke="#000000">
    <g class="primitive">
      <text dy="0.35em">N0</text>
    </g>
  </g>
  <g transform="translate(46.84,20.38)" stroke="#000000">
    <g class="primitive">
      <text dy="0.35em">N29</text>
    </g>
  </g>
  <g transform="translate(48.09,22.95)" stroke="#000000">
    <g class="primitive">
      <text dy="0.35em">N38</text>
    </g>
  </g>
  <g transform="translate(38.09,21.67)" stroke="#000000">
    <g class="primitive">
      <text dy="0.35em">N41</text>
    </g>
  </g>
  <g transform="translate(36.69,19.74)" stroke="#000000">
    <g class="primitive">
      <text dy="0.35em">N45</text>
    </g>
  </g>
  <g transform="translate(27.5,17.5)" stroke="#000000">
    <g class="primitive">
      <text dy="0.35em">N56</text>
    </g>
  </g>
  <g transform="translate(27,25.51)" stroke="#000000">
    <g class="primitive">
      <text dy="0.35em">N17</text>
    </g>
  </g>
  <g transform="translate(50.24,28.08)" stroke="#000000">
    <g class="primitive">
      <text dy="0.35em">N37</text>
    </g>
  </g>
  <g transform="translate(48.27,30.64)" stroke="#000000">
    <g class="primitive">
      <text dy="0.35em">N25</text>
    </g>
  </g>
  <g transform="translate(45.19,29.36)" stroke="#000000">
    <g class="primitive">
      <text dy="0.35em">N51</text>
    </g>
  </g>
  <g transform="translate(26.99,27.44)" stroke="#000000">
    <g class="primitive">
      <text dy="0.35em">N54</text>
    </g>
  </g>
  <g transform="translate(47.64,33.21)" stroke="#000000">
    <g class="primitive">
      <text dy="0.35em">N1</text>
    </g>
  </g>
  <g transform="translate(38.12,35.77)" stroke="#000000">
    <g class="primitive">
      <text dy="0.35em">N23</text>
    </g>
  </g>
  <g transform="translate(36.26,34.49)" stroke="#000000">
    <g class="primitive">
      <text dy="0.35em">N47</text>
    </g>
  </g>
  <g transform="translate(39.17,38.33)" stroke="#000000">
    <g class="primitive">
      <text dy="0.35em">N9</text>
    </g>
  </g>
  <g transform="translate(37,40.9)" stroke="#000000">
    <g class="primitive">
      <text dy="0.35em">N26</text>
    </g>
  </g>
  <g transform="translate(54.24,43.46)" stroke="#000000">
    <g class="primitive">
      <text dy="0.35em">N13</text>
    </g>
  </g>
  <g transform="translate(35.61,42.18)" stroke="#000000">
    <g class="primitive">
      <text dy="0.35em">N40</text>
    </g>
  </g>
  <g transform="translate(35.39,40.26)" stroke="#000000">
    <g class="primitive">
      <text dy="0.35em">N50</text>
    </g>
  </g>
  <g transform="translate(29.5,37.37)" stroke="#000000">
    <g class="primitive">
      <text dy="0.35em">N60</text>
    </g>
  </g>
  <g transform="translate(25.8,32.4)" stroke="#000000">
    <g class="primitive">
      <text dy="0.35em">N61</text>
    </g>
  </g>
  <g transform="translate(25.15,24.95)" stroke="#000000">
    <g class="primitive">
      <text dy="0.35em">N62</text>
    </g>
  </g>
  <g transform="translate(17.79,18.82)" stroke="#000000">
    <g class="primitive">
      <text dy="0.35em">N66</text>
    </g>
  </g>
  <g transform="translate(15.67,14.48)" stroke="#000000">
    <g class="primitive">
      <text dy="0.35em">N69</text>
    </g>
  </g>
  <g transform="translate(13.95,10.38)" stroke="#000000">
    <g class="primitive">
      <text dy="0.35em">N76</text>
    </g>
  </g>
  <g transform="translate(9.97,46.03)" stroke="#000000">
    <g class="primitive">
      <text dy="0.35em">N24</text>
    </g>
  </g>
  <g transform="translate(32.16,48.59)" stroke="#000000">
    <g class="primitive">
      <text dy="0.35em">N16</text>
    </g>
  </g>
  <g transform="translate(27.06,51.15)" stroke="#000000">
    <g class="primitive">
      <text dy="0.35em">N15</text>
    </g>
  </g>
  <g transform="translate(26.05,49.87)" stroke="#000000">
    <g class="primitive">
      <text dy="0.35em">N64</text>
    </g>
  </g>
  <g transform="translate(21.54,53.72)" stroke="#000000">
    <g class="primitive">
      <text dy="0.35em">N2</text>
    </g>
  </g>
  <g transform="translate(51.85,56.28)" stroke="#000000">
    <g class="primitive">
      <text dy="0.35em">N6</text>
    </g>
  </g>
  <g transform="translate(55.45,58.85)" stroke="#000000">
    <g class="primitive">
      <text dy="0.35em">N35</text>
    </g>
  </g>
  <g transform="translate(49.54,57.56)" stroke="#000000">
    <g class="primitive">
      <text dy="0.35em">N46</text>
    </g>
  </g>
  <g transform="translate(62.52,61.41)" stroke="#000000">
    <g class="primitive">
      <text dy="0.35em">N19</text>
    </g>
  </g>
  <g transform="translate(61.02,63.97)" stroke="#000000">
    <g class="primitive">
      <text dy="0.35em">N32</text>
    </g>
  </g>
  <g transform="translate(57.8,62.69)" stroke="#000000">
    <g class="primitive">
      <text dy="0.35em">N43</text>
    </g>
  </g>
  <g transform="translate(46.38,60.13)" stroke="#000000">
    <g class="primitive">
      <text dy="0.35em">N49</text>
    </g>
  </g>
  <g transform="translate(12.88,56.92)" stroke="#000000">
    <g class="primitive">
      <text dy="0.35em">N70</text>
    </g>
  </g>
  <g transform="translate(12.23,53.4)" stroke="#000000">
    <g class="primitive">
      <text dy="0.35em">N72</text>
    </g>
  </g>
  <g transform="translate(19.61,66.54)" stroke="#000000">
    <g class="primitive">
      <text dy="0.35em">N20</text>
    </g>
  </g>
  <g transform="translate(33.39,69.1)" stroke="#000000">
    <g class="primitive">
      <text dy="0.35em">N27</text>
    </g>
  </g>
  <g transform="translate(22.8,71.67)" stroke="#000000">
    <g class="primitive">
      <text dy="0.35em">N10</text>
    </g>
  </g>
  <g transform="translate(21.55,70.38)" stroke="#000000">
    <g class="primitive">
      <text dy="0.35em">N55</text>
    </g>
  </g>
  <g transform="translate(13.55,68.46)" stroke="#000000">
    <g class="primitive">
      <text dy="0.35em">N73</text>
    </g>
  </g>
  <g transform="translate(44.75,74.23)" stroke="#000000">
    <g class="primitive">
      <text dy="0.35em">N7</text>
    </g>
  </g>
  <g stroke-opacity="1" fill-opacity="1" font-size="1.41" stroke-width="0.1" id="img-29b4c979-7">
    <g transform="translate(44.75,74.23)" stroke="#000000">
      <g class="primitive">
        <text dy="0.35em">N7</text>
      </g>
    </g>
    <g transform="translate(38.4,76.79)" stroke="#000000">
      <g class="primitive">
        <text dy="0.35em">N22</text>
      </g>
    </g>
    <g transform="translate(37.49,79.36)" stroke="#000000">
      <g class="primitive">
        <text dy="0.35em">N21</text>
      </g>
    </g>
    <g transform="translate(36.59,78.08)" stroke="#000000">
      <g class="primitive">
        <text dy="0.35em">N48</text>
      </g>
    </g>
    <g transform="translate(59.03,81.92)" stroke="#000000">
      <g class="primitive">
        <text dy="0.35em">N30</text>
      </g>
    </g>
    <g transform="translate(47.09,84.49)" stroke="#000000">
      <g class="primitive">
        <text dy="0.35em">N8</text>
      </g>
    </g>
    <g transform="translate(41.78,83.21)" stroke="#000000">
      <g class="primitive">
        <text dy="0.35em">N44</text>
      </g>
    </g>
    <g transform="translate(34.86,80.64)" stroke="#000000">
      <g class="primitive">
        <text dy="0.35em">N53</text>
      </g>
    </g>
    <g transform="translate(29.07,77.44)" stroke="#000000">
      <g class="primitive">
        <text dy="0.35em">N63</text>
      </g>
    </g>
    <g transform="translate(40.8,87.05)" stroke="#000000">
      <g class="primitive">
        <text dy="0.35em">N4</text>
      </g>
    </g>
    <g transform="translate(57.78,89.62)" stroke="#000000">
      <g class="primitive">
        <text dy="0.35em">N18</text>
      </g>
    </g>
    <g transform="translate(72.39,92.18)" stroke="#000000">
      <g class="primitive">
        <text dy="0.35em">N11</text>
      </g>
    </g>
    <g transform="translate(70.38,94.74)" stroke="#000000">
      <g class="primitive">
        <text dy="0.35em">N39</text>
      </g>
    </g>
    <g transform="translate(67.99,93.46)" stroke="#000000">
      <g class="primitive">
        <text dy="0.35em">N52</text>
      </g>
    </g>
    <g transform="translate(51.83,91.54)" stroke="#000000">
      <g class="primitive">
        <text dy="0.35em">N65</text>
      </g>
    </g>
    <g transform="translate(64.61,97.31)" stroke="#000000">
      <g class="primitive">
        <text dy="0.35em">N33</text>
      </g>
    </g>
    <g transform="translate(65.88,99.87)" stroke="#000000">
      <g class="primitive">
        <text dy="0.35em">N12</text>
      </g>
    </g>
    <g transform="translate(72.48,102.44)" stroke="#000000">
      <g class="primitive">
        <text dy="0.35em">N36</text>
      </g>
    </g>
    <g transform="translate(80.62,105)" stroke="#000000">
      <g class="primitive">
        <text dy="0.35em">N34</text>
      </g>
    </g>
    <g transform="translate(71.54,103.72)" stroke="#000000">
      <g class="primitive">
        <text dy="0.35em">N42</text>
      </g>
    </g>
    <g transform="translate(58.44,101.79)" stroke="#000000">
      <g class="primitive">
        <text dy="0.35em">N57</text>
      </g>
    </g>
    <g transform="translate(55.99,99.55)" stroke="#000000">
      <g class="primitive">
        <text dy="0.35em">N58</text>
      </g>
    </g>
    <g transform="translate(49.62,95.54)" stroke="#000000">
      <g class="primitive">
        <text dy="0.35em">N67</text>
      </g>
    </g>
    <g transform="translate(35.66,91.3)" stroke="#000000">
      <g class="primitive">
        <text dy="0.35em">N68</text>
      </g>
    </g>
    <g transform="translate(23.19,84.37)" stroke="#000000">
      <g class="primitive">
        <text dy="0.35em">N71</text>
      </g>
    </g>
    <g transform="translate(12.98,76.41)" stroke="#000000">
      <g class="primitive">
        <text dy="0.35em">N74</text>
      </g>
    </g>
    <g transform="translate(10.45,64.91)" stroke="#000000">
      <g class="primitive">
        <text dy="0.35em">N75</text>
      </g>
    </g>
    <g transform="translate(5.63,55.47)" stroke="#000000">
      <g class="primitive">
        <text dy="0.35em"></text>
      </g>
    </g>
    <g transform="translate(5.63,32.92)" stroke="#000000">
      <g class="primitive">
        <text dy="0.35em"></text>
      </g>
    </g>
  </g>
</g>
</svg>
