<?xml version="1.0" encoding="UTF-8"?>
<svg xmlns="http://www.w3.org/2000/svg"
     xmlns:xlink="http://www.w3.org/1999/xlink"
     version="1.2"
     width="150mm" height="70mm" viewBox="0 0 150 70"
     stroke="none"
     fill="#000000"
     stroke-width="0.3"
     font-size="3.88"
>
<defs>
  <marker id="arrow" markerWidth="15" markerHeight="7" refX="5" refY="3.5" orient="auto" markerUnits="strokeWidth">
    <path d="M0,0 L15,3.5 L0,7 z" stroke="context-stroke" fill="context-stroke"/>
  </marker>
</defs>
<g stroke-opacity="1" stroke-width="0.3" id="img-29b4c979-1">
  <g transform="translate(35.05,3.18)" stroke="#60D6C6">
    <path fill="none" d="M-8.64,0 L8.64,0 " class="primitive"/>
  </g>
  <g transform="translate(27.18,6.53)" stroke="#60D6C6">
    <path fill="none" d="M-0.76,0 L0.76,0 " class="primitive"/>
  </g>
  <g transform="translate(21.22,4.86)" stroke="#373835">
    <path fill="none" d="M-5.19,0 L5.19,0 " class="primitive"/>
  </g>
  <g transform="translate(26.41,4.86)" stroke="#373835">
    <path fill="none" d="M0,1.67 L0,-1.67 " class="primitive"/>
  </g>
  <g transform="translate(23.45,9.88)" stroke="#373835">
    <path fill="none" d="M-2.82,0 L2.82,0 " class="primitive"/>
  </g>
  <g transform="translate(22.62,13.23)" stroke="#373835">
    <path fill="none" d="M-1.99,0 L1.99,0 " class="primitive"/>
  </g>
  <g transform="translate(18.33,11.56)" stroke="#60D6C6">
    <path fill="none" d="M-2.3,0 L2.3,0 " class="primitive"/>
  </g>
  <g transform="translate(20.63,11.56)" stroke="#60D6C6">
    <path fill="none" d="M0,1.67 L0,-1.67 " class="primitive"/>
  </g>
  <g transform="translate(14.63,8.21)" stroke="#60D6C6">
    <path fill="none" d="M-1.4,0 L1.4,0 " class="primitive"/>
  </g>
  <g transform="translate(16.03,8.21)" stroke="#60D6C6">
    <path fill="none" d="M0,3.35 L0,-3.35 " class="primitive"/>
  </g>
  <g transform="translate(74.76,16.58)" stroke="#373835">
    <path fill="none" d="M-3.99,0 L3.99,0 " class="primitive"/>
  </g>
  <g transform="translate(71.05,19.93)" stroke="#60D6C6">
    <path fill="none" d="M-0.28,0 L0.28,0 " class="primitive"/>
  </g>
  <g transform="translate(45.07,18.25)" stroke="#373835">
    <path fill="none" d="M-25.71,0 L25.71,0 " class="primitive"/>
  </g>
  <g transform="translate(70.77,18.25)" stroke="#373835">
    <path fill="none" d="M0,1.67 L0,-1.67 " class="primitive"/>
  </g>
  <g transform="translate(29.56,23.28)" stroke="#373835">
    <path fill="none" d="M-6.18,0 L6.18,0 " class="primitive"/>
  </g>
  <g transform="translate(35.53,26.63)" stroke="#60D6C6">
    <path fill="none" d="M-12.16,0 L12.16,0 " class="primitive"/>
  </g>
  <g transform="translate(21.37,24.95)" stroke="#60D6C6">
    <path fill="none" d="M-2.01,0 L2.01,0 " class="primitive"/>
  </g>
  <g transform="translate(23.38,24.95)" stroke="#60D6C6">
    <path fill="none" d="M0,1.67 L0,-1.67 " class="primitive"/>
  </g>
  <g transform="translate(16.29,21.6)" stroke="#373835">
    <path fill="none" d="M-3.07,0 L3.07,0 " class="primitive"/>
  </g>
  <g transform="translate(19.36,21.6)" stroke="#373835">
    <path fill="none" d="M0,3.35 L0,-3.35 " class="primitive"/>
  </g>
  <g transform="translate(8.49,14.9)" stroke="#373835">
    <path fill="none" d="M-4.74,0 L4.74,0 " class="primitive"/>
  </g>
  <g transform="translate(13.22,14.9)" stroke="#373835">
    <path fill="none" d="M0,6.7 L0,-6.7 " class="primitive"/>
  </g>
  <g transform="translate(42.62,29.98)" stroke="#60D6C6">
    <path fill="none" d="M-1.99,0 L1.99,0 " class="primitive"/>
  </g>
  <g transform="translate(49.63,33.33)" stroke="#373835">
    <path fill="none" d="M-9,0 L9,0 " class="primitive"/>
  </g>
  <g transform="translate(22.36,31.65)" stroke="#373835">
    <path fill="none" d="M-18.27,0 L18.27,0 " class="primitive"/>
  </g>
  <g transform="translate(40.63,31.65)" stroke="#373835">
    <path fill="none" d="M0,1.67 L0,-1.67 " class="primitive"/>
  </g>
  <g transform="translate(12.99,36.67)" stroke="#60D6C6">
    <path fill="none" d="M-7.71,0 L7.71,0 " class="primitive"/>
  </g>
  <g transform="translate(6.5,40.02)" stroke="#60D6C6">
    <path fill="none" d="M-1.23,0 L1.23,0 " class="primitive"/>
  </g>
  <g transform="translate(4.68,38.35)" stroke="#60D6C6">
    <path fill="none" d="M-0.59,0 L0.59,0 " class="primitive"/>
  </g>
  <g transform="translate(5.27,38.35)" stroke="#60D6C6">
    <path fill="none" d="M0,1.67 L0,-1.67 " class="primitive"/>
  </g>
  <g transform="translate(3.92,35)" stroke="#373835">
    <path fill="none" d="M-0.17,0 L0.17,0 " class="primitive"/>
  </g>
  <g transform="translate(4.09,35)" stroke="#373835">
    <path fill="none" d="M0,3.35 L0,-3.35 " class="primitive"/>
  </g>
  <g transform="translate(19.24,43.37)" stroke="#60D6C6">
    <path fill="none" d="M-2.97,0 L2.97,0 " class="primitive"/>
  </g>
  <g transform="translate(20.68,46.72)" stroke="#373835">
    <path fill="none" d="M-4.41,0 L4.41,0 " class="primitive"/>
  </g>
  <g transform="translate(13.93,45.05)" stroke="#60D6C6">
    <path fill="none" d="M-2.34,0 L2.34,0 " class="primitive"/>
  </g>
  <g transform="translate(16.27,45.05)" stroke="#60D6C6">
    <path fill="none" d="M0,1.67 L0,-1.67 " class="primitive"/>
  </g>
  <g transform="translate(20.16,50.07)" stroke="#60D6C6">
    <path fill="none" d="M-4.56,0 L4.56,0 " class="primitive"/>
  </g>
  <g transform="translate(16.05,53.42)" stroke="#60D6C6">
    <path fill="none" d="M-0.45,0 L0.45,0 " class="primitive"/>
  </g>
  <g transform="translate(13.59,51.75)" stroke="#373835">
    <path fill="none" d="M-2.01,0 L2.01,0 " class="primitive"/>
  </g>
  <g transform="translate(15.61,51.75)" stroke="#373835">
    <path fill="none" d="M0,1.67 L0,-1.67 " class="primitive"/>
  </g>
  <g transform="translate(9.18,48.4)" stroke="#373835">
    <path fill="none" d="M-2.4,0 L2.4,0 " class="primitive"/>
  </g>
  <g transform="translate(11.58,48.4)" stroke="#373835">
    <path fill="none" d="M0,3.35 L0,-3.35 " class="primitive"/>
  </g>
  <g transform="translate(39.72,56.77)" stroke="#373835">
    <path fill="none" d="M-11.06,0 L11.06,0 " class="primitive"/>
  </g>
  <g transform="translate(32.58,60.12)" stroke="#60D6C6">
    <path fill="none" d="M-3.92,0 L3.92,0 " class="primitive"/>
  </g>
  <g transform="translate(21.26,58.44)" stroke="#373835">
    <path fill="none" d="M-7.41,0 L7.41,0 " class="primitive"/>
  </g>
  <g transform="translate(28.66,58.44)" stroke="#373835">
    <path fill="none" d="M0,1.67 L0,-1.67 " class="primitive"/>
  </g>
  <g transform="translate(24.58,63.47)" stroke="#60D6C6">
    <path fill="none" d="M-3.74,0 L3.74,0 " class="primitive"/>
  </g>
  <g transform="translate(28.3,66.82)" stroke="#60D6C6">
    <path fill="none" d="M-7.45,0 L7.45,0 " class="primitive"/>
  </g>
  <g transform="translate(17.35,65.14)" stroke="#373835">
    <path fill="none" d="M-3.5,0 L3.5,0 " class="primitive"/>
  </g>
  <g transform="translate(20.84,65.14)" stroke="#373835">
    <path fill="none" d="M0,1.67 L0,-1.67 " class="primitive"/>
  </g>
  <g transform="translate(10.31,61.79)" stroke="#373835">
    <path fill="none" d="M-3.54,0 L3.54,0 " class="primitive"/>
  </g>
  <g stroke-opacity="1" stroke-width="0.3" id="img-29b4c979-2">
    <g transform="translate(10.31,61.79)" stroke="#373835">
      <path fill="none" d="M-3.54,0 L3.54,0 " class="primitive"/>
    </g>
    <g transform="translate(13.85,61.79)" stroke="#373835">
      <path fill="none" d="M0,3.35 L0,-3.35 " class="primitive"/>
    </g>
    <g transform="translate(5.26,55.1)" stroke="#60D6C6">
      <path fill="none" d="M-1.51,0 L1.51,0 " class="primitive"/>
    </g>
    <g transform="translate(6.77,55.1)" stroke="#60D6C6">
      <path fill="none" d="M0,6.7 L0,-6.7 " class="primitive"/>
    </g>
    <g transform="translate(3.75,45.05)" stroke="#000000">
      <path fill="none" d="M0,0 L0,0 " class="primitive"/>
    </g>
    <g transform="translate(3.75,45.05)" stroke="#000000">
      <path fill="none" d="M0,10.05 L0,-10.05 " class="primitive"/>
    </g>
    <g transform="translate(3.75,29.98)" stroke="#000000">
      <path fill="none" d="M0,0 L0,0 " class="primitive"/>
    </g>
    <g transform="translate(3.75,29.98)" stroke="#000000">
      <path fill="none" d="M0,15.07 L0,-15.07 " class="primitive"/>
    </g>
  </g>
</g>
<g fill-opacity="1" id="img-29b4c979-3">
  <g transform="translate(43.69,3.18)" fill="#60D6C6">
    <circle cx="0" cy="0" r="0.75" class="primitive"/>
  </g>
  <g transform="translate(27.94,6.53)" fill="#60D6C6">
    <circle cx="0" cy="0" r="0.75" class="primitive"/>
  </g>
  <g transform="translate(26.41,4.86)" fill="#373835">
    <circle cx="0" cy="0" r="0.75" class="primitive"/>
  </g>
  <g transform="translate(26.27,9.88)" fill="#373835">
    <circle cx="0" cy="0" r="0.75" class="primitive"/>
  </g>
  <g transform="translate(24.61,13.23)" fill="#373835">
    <circle cx="0" cy="0" r="0.75" class="primitive"/>
  </g>
  <g transform="translate(20.63,11.56)" fill="#60D6C6">
    <circle cx="0" cy="0" r="0.75" class="primitive"/>
  </g>
  <g transform="translate(16.03,8.21)" fill="#60D6C6">
    <circle cx="0" cy="0" r="0.75" class="primitive"/>
  </g>
  <g transform="translate(78.75,16.58)" fill="#373835">
    <circle cx="0" cy="0" r="0.75" class="primitive"/>
  </g>
  <g transform="translate(71.32,19.93)" fill="#60D6C6">
    <circle cx="0" cy="0" r="0.75" class="primitive"/>
  </g>
  <g transform="translate(70.77,18.25)" fill="#373835">
    <circle cx="0" cy="0" r="0.75" class="primitive"/>
  </g>
  <g transform="translate(35.74,23.28)" fill="#373835">
    <circle cx="0" cy="0" r="0.75" class="primitive"/>
  </g>
  <g transform="translate(47.69,26.63)" fill="#60D6C6">
    <circle cx="0" cy="0" r="0.75" class="primitive"/>
  </g>
  <g transform="translate(23.38,24.95)" fill="#60D6C6">
    <circle cx="0" cy="0" r="0.75" class="primitive"/>
  </g>
  <g transform="translate(19.36,21.6)" fill="#373835">
    <circle cx="0" cy="0" r="0.75" class="primitive"/>
  </g>
  <g transform="translate(13.22,14.9)" fill="#373835">
    <circle cx="0" cy="0" r="0.75" class="primitive"/>
  </g>
  <g transform="translate(44.61,29.98)" fill="#60D6C6">
    <circle cx="0" cy="0" r="0.75" class="primitive"/>
  </g>
  <g transform="translate(58.63,33.33)" fill="#373835">
    <circle cx="0" cy="0" r="0.75" class="primitive"/>
  </g>
  <g transform="translate(40.63,31.65)" fill="#373835">
    <circle cx="0" cy="0" r="0.75" class="primitive"/>
  </g>
  <g transform="translate(20.7,36.67)" fill="#60D6C6">
    <circle cx="0" cy="0" r="0.75" class="primitive"/>
  </g>
  <g transform="translate(7.73,40.02)" fill="#60D6C6">
    <circle cx="0" cy="0" r="0.75" class="primitive"/>
  </g>
  <g transform="translate(5.27,38.35)" fill="#60D6C6">
    <circle cx="0" cy="0" r="0.75" class="primitive"/>
  </g>
  <g transform="translate(4.09,35)" fill="#373835">
    <circle cx="0" cy="0" r="0.75" class="primitive"/>
  </g>
  <g transform="translate(22.22,43.37)" fill="#60D6C6">
    <circle cx="0" cy="0" r="0.75" class="primitive"/>
  </g>
  <g transform="translate(25.09,46.72)" fill="#373835">
    <circle cx="0" cy="0" r="0.75" class="primitive"/>
  </g>
  <g transform="translate(16.27,45.05)" fill="#60D6C6">
    <circle cx="0" cy="0" r="0.75" class="primitive"/>
  </g>
  <g transform="translate(24.72,50.07)" fill="#60D6C6">
    <circle cx="0" cy="0" r="0.75" class="primitive"/>
  </g>
  <g transform="translate(16.5,53.42)" fill="#60D6C6">
    <circle cx="0" cy="0" r="0.75" class="primitive"/>
  </g>
  <g transform="translate(15.61,51.75)" fill="#373835">
    <circle cx="0" cy="0" r="0.75" class="primitive"/>
  </g>
  <g transform="translate(11.58,48.4)" fill="#373835">
    <circle cx="0" cy="0" r="0.75" class="primitive"/>
  </g>
  <g transform="translate(50.78,56.77)" fill="#373835">
    <circle cx="0" cy="0" r="0.75" class="primitive"/>
  </g>
  <g transform="translate(36.5,60.12)" fill="#60D6C6">
    <circle cx="0" cy="0" r="0.75" class="primitive"/>
  </g>
  <g transform="translate(28.66,58.44)" fill="#373835">
    <circle cx="0" cy="0" r="0.75" class="primitive"/>
  </g>
  <g transform="translate(28.32,63.47)" fill="#60D6C6">
    <circle cx="0" cy="0" r="0.75" class="primitive"/>
  </g>
  <g transform="translate(35.75,66.82)" fill="#60D6C6">
    <circle cx="0" cy="0" r="0.75" class="primitive"/>
  </g>
  <g transform="translate(20.84,65.14)" fill="#373835">
    <circle cx="0" cy="0" r="0.75" class="primitive"/>
  </g>
  <g transform="translate(13.85,61.79)" fill="#373835">
    <circle cx="0" cy="0" r="0.75" class="primitive"/>
  </g>
  <g transform="translate(6.77,55.1)" fill="#60D6C6">
    <circle cx="0" cy="0" r="0.75" class="primitive"/>
  </g>
  <g transform="translate(3.75,45.05)" fill="#000000">
    <circle cx="0" cy="0" r="0.75" class="primitive"/>
  </g>
  <g transform="translate(3.75,29.98)" fill="#000000">
    <circle cx="0" cy="0" r="0.75" class="primitive"/>
  </g>
</g>
<g stroke-opacity="1" fill-opacity="1" font-size="1.41" stroke-width="0.1" id="img-29b4c979-4">
  <g transform="translate(45.56,3.18)" stroke="#000000">
    <g class="primitive">
      <text dy="0.35em">N8</text>
    </g>
  </g>
  <g transform="translate(29.82,6.53)" stroke="#000000">
    <g class="primitive">
      <text dy="0.35em">N9</text>
    </g>
  </g>
  <g transform="translate(28.29,4.86)" stroke="#000000">
    <g class="primitive">
      <text dy="0.35em">N24</text>
    </g>
  </g>
  <g transform="translate(28.14,9.88)" stroke="#000000">
    <g class="primitive">
      <text dy="0.35em">N10</text>
    </g>
  </g>
  <g transform="translate(26.49,13.23)" stroke="#000000">
    <g class="primitive">
      <text dy="0.35em">N11</text>
    </g>
  </g>
  <g transform="translate(22.51,11.56)" stroke="#000000">
    <g class="primitive">
      <text dy="0.35em">N25</text>
    </g>
  </g>
  <g transform="translate(17.91,8.21)" stroke="#000000">
    <g class="primitive">
      <text dy="0.35em">N32</text>
    </g>
  </g>
  <g transform="translate(80.62,16.58)" stroke="#000000">
    <g class="primitive">
      <text dy="0.35em">N12</text>
    </g>
  </g>
  <g transform="translate(73.2,19.93)" stroke="#000000">
    <g class="primitive">
      <text dy="0.35em">N13</text>
    </g>
  </g>
  <g transform="translate(72.65,18.25)" stroke="#000000">
    <g class="primitive">
      <text dy="0.35em">N26</text>
    </g>
  </g>
  <g transform="translate(37.61,23.28)" stroke="#000000">
    <g class="primitive">
      <text dy="0.35em">N14</text>
    </g>
  </g>
  <g transform="translate(49.56,26.63)" stroke="#000000">
    <g class="primitive">
      <text dy="0.35em">N15</text>
    </g>
  </g>
  <g transform="translate(25.25,24.95)" stroke="#000000">
    <g class="primitive">
      <text dy="0.35em">N27</text>
    </g>
  </g>
  <g transform="translate(21.23,21.6)" stroke="#000000">
    <g class="primitive">
      <text dy="0.35em">N33</text>
    </g>
  </g>
  <g transform="translate(15.1,14.9)" stroke="#000000">
    <g class="primitive">
      <text dy="0.35em">N36</text>
    </g>
  </g>
  <g transform="translate(46.48,29.98)" stroke="#000000">
    <g class="primitive">
      <text dy="0.35em">N16</text>
    </g>
  </g>
  <g transform="translate(60.51,33.33)" stroke="#000000">
    <g class="primitive">
      <text dy="0.35em">N17</text>
    </g>
  </g>
  <g transform="translate(42.51,31.65)" stroke="#000000">
    <g class="primitive">
      <text dy="0.35em">N28</text>
    </g>
  </g>
  <g transform="translate(22.57,36.67)" stroke="#000000">
    <g class="primitive">
      <text dy="0.35em">N18</text>
    </g>
  </g>
  <g transform="translate(9.6,40.02)" stroke="#000000">
    <g class="primitive">
      <text dy="0.35em">N19</text>
    </g>
  </g>
  <g transform="translate(7.15,38.35)" stroke="#000000">
    <g class="primitive">
      <text dy="0.35em">N29</text>
    </g>
  </g>
  <g transform="translate(5.96,35)" stroke="#000000">
    <g class="primitive">
      <text dy="0.35em">N34</text>
    </g>
  </g>
  <g transform="translate(24.09,43.37)" stroke="#000000">
    <g class="primitive">
      <text dy="0.35em">N0</text>
    </g>
  </g>
  <g transform="translate(26.96,46.72)" stroke="#000000">
    <g class="primitive">
      <text dy="0.35em">N1</text>
    </g>
  </g>
  <g transform="translate(18.14,45.05)" stroke="#000000">
    <g class="primitive">
      <text dy="0.35em">N20</text>
    </g>
  </g>
  <g transform="translate(26.59,50.07)" stroke="#000000">
    <g class="primitive">
      <text dy="0.35em">N2</text>
    </g>
  </g>
  <g transform="translate(18.37,53.42)" stroke="#000000">
    <g class="primitive">
      <text dy="0.35em">N3</text>
    </g>
  </g>
  <g transform="translate(17.48,51.75)" stroke="#000000">
    <g class="primitive">
      <text dy="0.35em">N21</text>
    </g>
  </g>
  <g transform="translate(13.46,48.4)" stroke="#000000">
    <g class="primitive">
      <text dy="0.35em">N30</text>
    </g>
  </g>
  <g transform="translate(52.66,56.77)" stroke="#000000">
    <g class="primitive">
      <text dy="0.35em">N4</text>
    </g>
  </g>
  <g transform="translate(38.37,60.12)" stroke="#000000">
    <g class="primitive">
      <text dy="0.35em">N5</text>
    </g>
  </g>
  <g transform="translate(30.54,58.44)" stroke="#000000">
    <g class="primitive">
      <text dy="0.35em">N22</text>
    </g>
  </g>
  <g transform="translate(30.19,63.47)" stroke="#000000">
    <g class="primitive">
      <text dy="0.35em">N6</text>
    </g>
  </g>
  <g transform="translate(37.63,66.82)" stroke="#000000">
    <g class="primitive">
      <text dy="0.35em">N7</text>
    </g>
  </g>
  <g transform="translate(22.72,65.14)" stroke="#000000">
    <g class="primitive">
      <text dy="0.35em">N23</text>
    </g>
  </g>
  <g transform="translate(15.73,61.79)" stroke="#000000">
    <g class="primitive">
      <text dy="0.35em">N31</text>
    </g>
  </g>
  <g transform="translate(8.65,55.1)" stroke="#000000">
    <g class="primitive">
      <text dy="0.35em">N35</text>
    </g>
  </g>
  <g transform="translate(5.63,45.05)" stroke="#000000">
    <g class="primitive">
      <text dy="0.35em"></text>
    </g>
  </g>
  <g transform="translate(5.63,29.98)" stroke="#000000">
    <g class="primitive">
      <text dy="0.35em"></text>
    </g>
  </g>
</g>
</svg>
