<?xml version="1.0" encoding="utf-8"?>
<svg xmlns="http://www.w3.org/2000/svg" xmlns:xlink="http://www.w3.org/1999/xlink" width="600" height="400" viewBox="0 0 2400 1600">
<defs>
  <clipPath id="clip050">
    <rect x="0" y="0" width="2400" height="1600"/>
  </clipPath>
</defs>
<path clip-path="url(#clip050)" d="M0 1600 L2400 1600 L2400 0 L0 0  Z" fill="#ffffff" fill-rule="evenodd" fill-opacity="1"/>
<defs>
  <clipPath id="clip051">
    <rect x="480" y="0" width="1681" height="1600"/>
  </clipPath>
</defs>
<path clip-path="url(#clip050)" d="M219.866 1423.18 L2352.76 1423.18 L2352.76 123.472 L219.866 123.472  Z" fill="#ffffff" fill-rule="evenodd" fill-opacity="1"/>
<defs>
  <clipPath id="clip052">
    <rect x="219" y="123" width="2134" height="1301"/>
  </clipPath>
</defs>
<polyline clip-path="url(#clip052)" style="stroke:#000000; stroke-linecap:round; stroke-linejoin:round; stroke-width:2; stroke-opacity:0.1; fill:none" points="280.231,1423.18 280.231,123.472 "/>
<polyline clip-path="url(#clip052)" style="stroke:#000000; stroke-linecap:round; stroke-linejoin:round; stroke-width:2; stroke-opacity:0.1; fill:none" points="838.389,1423.18 838.389,123.472 "/>
<polyline clip-path="url(#clip052)" style="stroke:#000000; stroke-linecap:round; stroke-linejoin:round; stroke-width:2; stroke-opacity:0.1; fill:none" points="1396.55,1423.18 1396.55,123.472 "/>
<polyline clip-path="url(#clip052)" style="stroke:#000000; stroke-linecap:round; stroke-linejoin:round; stroke-width:2; stroke-opacity:0.1; fill:none" points="1954.71,1423.18 1954.71,123.472 "/>
<polyline clip-path="url(#clip050)" style="stroke:#000000; stroke-linecap:round; stroke-linejoin:round; stroke-width:4; stroke-opacity:1; fill:none" points="219.866,1423.18 2352.76,1423.18 "/>
<polyline clip-path="url(#clip050)" style="stroke:#000000; stroke-linecap:round; stroke-linejoin:round; stroke-width:4; stroke-opacity:1; fill:none" points="280.231,1423.18 280.231,1404.28 "/>
<polyline clip-path="url(#clip050)" style="stroke:#000000; stroke-linecap:round; stroke-linejoin:round; stroke-width:4; stroke-opacity:1; fill:none" points="838.389,1423.18 838.389,1404.28 "/>
<polyline clip-path="url(#clip050)" style="stroke:#000000; stroke-linecap:round; stroke-linejoin:round; stroke-width:4; stroke-opacity:1; fill:none" points="1396.55,1423.18 1396.55,1404.28 "/>
<polyline clip-path="url(#clip050)" style="stroke:#000000; stroke-linecap:round; stroke-linejoin:round; stroke-width:4; stroke-opacity:1; fill:none" points="1954.71,1423.18 1954.71,1404.28 "/>
<path clip-path="url(#clip050)" d="M280.231 1454.1 Q276.62 1454.1 274.791 1457.66 Q272.986 1461.2 272.986 1468.33 Q272.986 1475.44 274.791 1479.01 Q276.62 1482.55 280.231 1482.55 Q283.865 1482.55 285.671 1479.01 Q287.5 1475.44 287.5 1468.33 Q287.5 1461.2 285.671 1457.66 Q283.865 1454.1 280.231 1454.1 M280.231 1450.39 Q286.041 1450.39 289.097 1455 Q292.175 1459.58 292.175 1468.33 Q292.175 1477.06 289.097 1481.67 Q286.041 1486.25 280.231 1486.25 Q274.421 1486.25 271.342 1481.67 Q268.287 1477.06 268.287 1468.33 Q268.287 1459.58 271.342 1455 Q274.421 1450.39 280.231 1450.39 Z" fill="#000000" fill-rule="nonzero" fill-opacity="1" /><path clip-path="url(#clip050)" d="M833.042 1481.64 L849.361 1481.64 L849.361 1485.58 L827.417 1485.58 L827.417 1481.64 Q830.079 1478.89 834.662 1474.26 Q839.269 1469.61 840.449 1468.27 Q842.695 1465.74 843.574 1464.01 Q844.477 1462.25 844.477 1460.56 Q844.477 1457.8 842.533 1456.07 Q840.611 1454.33 837.51 1454.33 Q835.311 1454.33 832.857 1455.09 Q830.426 1455.86 827.649 1457.41 L827.649 1452.69 Q830.473 1451.55 832.926 1450.97 Q835.38 1450.39 837.417 1450.39 Q842.787 1450.39 845.982 1453.08 Q849.176 1455.77 849.176 1460.26 Q849.176 1462.39 848.366 1464.31 Q847.579 1466.2 845.472 1468.8 Q844.894 1469.47 841.792 1472.69 Q838.69 1475.88 833.042 1481.64 Z" fill="#000000" fill-rule="nonzero" fill-opacity="1" /><path clip-path="url(#clip050)" d="M1399.56 1455.09 L1387.75 1473.54 L1399.56 1473.54 L1399.56 1455.09 M1398.33 1451.02 L1404.21 1451.02 L1404.21 1473.54 L1409.14 1473.54 L1409.14 1477.43 L1404.21 1477.43 L1404.21 1485.58 L1399.56 1485.58 L1399.56 1477.43 L1383.95 1477.43 L1383.95 1472.92 L1398.33 1451.02 Z" fill="#000000" fill-rule="nonzero" fill-opacity="1" /><path clip-path="url(#clip050)" d="M1955.11 1466.44 Q1951.96 1466.44 1950.11 1468.59 Q1948.28 1470.74 1948.28 1474.49 Q1948.28 1478.22 1950.11 1480.39 Q1951.96 1482.55 1955.11 1482.55 Q1958.26 1482.55 1960.09 1480.39 Q1961.94 1478.22 1961.94 1474.49 Q1961.94 1470.74 1960.09 1468.59 Q1958.26 1466.44 1955.11 1466.44 M1964.39 1451.78 L1964.39 1456.04 Q1962.63 1455.21 1960.83 1454.77 Q1959.05 1454.33 1957.29 1454.33 Q1952.66 1454.33 1950.2 1457.45 Q1947.77 1460.58 1947.43 1466.9 Q1948.79 1464.89 1950.85 1463.82 Q1952.91 1462.73 1955.39 1462.73 Q1960.6 1462.73 1963.61 1465.9 Q1966.64 1469.05 1966.64 1474.49 Q1966.64 1479.82 1963.49 1483.03 Q1960.34 1486.25 1955.11 1486.25 Q1949.12 1486.25 1945.94 1481.67 Q1942.77 1477.06 1942.77 1468.33 Q1942.77 1460.14 1946.66 1455.28 Q1950.55 1450.39 1957.1 1450.39 Q1958.86 1450.39 1960.64 1450.74 Q1962.45 1451.09 1964.39 1451.78 Z" fill="#000000" fill-rule="nonzero" fill-opacity="1" /><path clip-path="url(#clip050)" d="M1119.69 1520.52 L1149.73 1520.52 L1149.73 1525.93 L1126.12 1525.93 L1126.12 1540 L1148.75 1540 L1148.75 1545.41 L1126.12 1545.41 L1126.12 1562.63 L1150.31 1562.63 L1150.31 1568.04 L1119.69 1568.04 L1119.69 1520.52 Z" fill="#000000" fill-rule="nonzero" fill-opacity="1" /><path clip-path="url(#clip050)" d="M1178.67 1518.52 L1178.67 1523.39 L1173.07 1523.39 Q1169.91 1523.39 1168.67 1524.66 Q1167.46 1525.93 1167.46 1529.24 L1167.46 1532.4 L1177.11 1532.4 L1177.11 1536.95 L1167.46 1536.95 L1167.46 1568.04 L1161.58 1568.04 L1161.58 1536.95 L1155.97 1536.95 L1155.97 1532.4 L1161.58 1532.4 L1161.58 1529.91 Q1161.58 1523.96 1164.34 1521.26 Q1167.11 1518.52 1173.13 1518.52 L1178.67 1518.52 Z" fill="#000000" fill-rule="nonzero" fill-opacity="1" /><path clip-path="url(#clip050)" d="M1201.62 1518.52 L1201.62 1523.39 L1196.01 1523.39 Q1192.86 1523.39 1191.62 1524.66 Q1190.41 1525.93 1190.41 1529.24 L1190.41 1532.4 L1200.06 1532.4 L1200.06 1536.95 L1190.41 1536.95 L1190.41 1568.04 L1184.52 1568.04 L1184.52 1536.95 L1178.92 1536.95 L1178.92 1532.4 L1184.52 1532.4 L1184.52 1529.91 Q1184.52 1523.96 1187.29 1521.26 Q1190.06 1518.52 1196.08 1518.52 L1201.62 1518.52 Z" fill="#000000" fill-rule="nonzero" fill-opacity="1" /><path clip-path="url(#clip050)" d="M1237.01 1548.76 L1237.01 1551.62 L1210.08 1551.62 Q1210.46 1557.67 1213.71 1560.85 Q1216.99 1564 1222.81 1564 Q1226.19 1564 1229.34 1563.17 Q1232.52 1562.35 1235.64 1560.69 L1235.64 1566.23 Q1232.49 1567.57 1229.18 1568.27 Q1225.87 1568.97 1222.46 1568.97 Q1213.93 1568.97 1208.94 1564 Q1203.97 1559.04 1203.97 1550.57 Q1203.97 1541.82 1208.68 1536.69 Q1213.42 1531.54 1221.44 1531.54 Q1228.64 1531.54 1232.81 1536.18 Q1237.01 1540.8 1237.01 1548.76 M1231.15 1547.04 Q1231.09 1542.23 1228.45 1539.37 Q1225.84 1536.5 1221.51 1536.5 Q1216.61 1536.5 1213.65 1539.27 Q1210.72 1542.04 1210.27 1547.07 L1231.15 1547.04 Z" fill="#000000" fill-rule="nonzero" fill-opacity="1" /><path clip-path="url(#clip050)" d="M1272.27 1533.76 L1272.27 1539.24 Q1269.79 1537.87 1267.28 1537.2 Q1264.79 1536.5 1262.25 1536.5 Q1256.55 1536.5 1253.4 1540.13 Q1250.25 1543.73 1250.25 1550.25 Q1250.25 1556.78 1253.4 1560.4 Q1256.55 1564 1262.25 1564 Q1264.79 1564 1267.28 1563.33 Q1269.79 1562.63 1272.27 1561.26 L1272.27 1566.68 Q1269.82 1567.82 1267.18 1568.39 Q1264.57 1568.97 1261.61 1568.97 Q1253.56 1568.97 1248.82 1563.91 Q1244.07 1558.85 1244.07 1550.25 Q1244.07 1541.53 1248.85 1536.53 Q1253.66 1531.54 1261.99 1531.54 Q1264.7 1531.54 1267.28 1532.11 Q1269.86 1532.65 1272.27 1533.76 Z" fill="#000000" fill-rule="nonzero" fill-opacity="1" /><path clip-path="url(#clip050)" d="M1288.25 1522.27 L1288.25 1532.4 L1300.32 1532.4 L1300.32 1536.95 L1288.25 1536.95 L1288.25 1556.3 Q1288.25 1560.66 1289.43 1561.9 Q1290.64 1563.14 1294.3 1563.14 L1300.32 1563.14 L1300.32 1568.04 L1294.3 1568.04 Q1287.52 1568.04 1284.94 1565.53 Q1282.36 1562.98 1282.36 1556.3 L1282.36 1536.95 L1278.07 1536.95 L1278.07 1532.4 L1282.36 1532.4 L1282.36 1522.27 L1288.25 1522.27 Z" fill="#000000" fill-rule="nonzero" fill-opacity="1" /><path clip-path="url(#clip050)" d="M1357.48 1522.08 L1357.48 1528.35 Q1353.82 1526.6 1350.57 1525.74 Q1347.33 1524.88 1344.3 1524.88 Q1339.05 1524.88 1336.19 1526.92 Q1333.35 1528.96 1333.35 1532.71 Q1333.35 1535.87 1335.23 1537.49 Q1337.14 1539.08 1342.42 1540.07 L1346.31 1540.86 Q1353.5 1542.23 1356.91 1545.7 Q1360.34 1549.14 1360.34 1554.93 Q1360.34 1561.84 1355.7 1565.4 Q1351.08 1568.97 1342.14 1568.97 Q1338.76 1568.97 1334.95 1568.2 Q1331.16 1567.44 1327.08 1565.94 L1327.08 1559.32 Q1331 1561.52 1334.75 1562.63 Q1338.51 1563.75 1342.14 1563.75 Q1347.64 1563.75 1350.64 1561.58 Q1353.63 1559.42 1353.63 1555.41 Q1353.63 1551.91 1351.46 1549.93 Q1349.33 1547.96 1344.43 1546.97 L1340.52 1546.21 Q1333.32 1544.78 1330.11 1541.72 Q1326.89 1538.67 1326.89 1533.22 Q1326.89 1526.92 1331.32 1523.29 Q1335.77 1519.66 1343.57 1519.66 Q1346.91 1519.66 1350.38 1520.27 Q1353.85 1520.87 1357.48 1522.08 Z" fill="#000000" fill-rule="nonzero" fill-opacity="1" /><path clip-path="url(#clip050)" d="M1370.12 1532.4 L1375.97 1532.4 L1375.97 1568.04 L1370.12 1568.04 L1370.12 1532.4 M1370.12 1518.52 L1375.97 1518.52 L1375.97 1525.93 L1370.12 1525.93 L1370.12 1518.52 Z" fill="#000000" fill-rule="nonzero" fill-opacity="1" /><path clip-path="url(#clip050)" d="M1385.68 1532.4 L1413.5 1532.4 L1413.5 1537.74 L1391.47 1563.37 L1413.5 1563.37 L1413.5 1568.04 L1384.88 1568.04 L1384.88 1562.7 L1406.91 1537.07 L1385.68 1537.07 L1385.68 1532.4 Z" fill="#000000" fill-rule="nonzero" fill-opacity="1" /><path clip-path="url(#clip050)" d="M1452.93 1548.76 L1452.93 1551.62 L1426.01 1551.62 Q1426.39 1557.67 1429.63 1560.85 Q1432.91 1564 1438.74 1564 Q1442.11 1564 1445.26 1563.17 Q1448.45 1562.35 1451.56 1560.69 L1451.56 1566.23 Q1448.41 1567.57 1445.1 1568.27 Q1441.79 1568.97 1438.39 1568.97 Q1429.86 1568.97 1424.86 1564 Q1419.9 1559.04 1419.9 1550.57 Q1419.9 1541.82 1424.61 1536.69 Q1429.35 1531.54 1437.37 1531.54 Q1444.56 1531.54 1448.73 1536.18 Q1452.93 1540.8 1452.93 1548.76 M1447.08 1547.04 Q1447.01 1542.23 1444.37 1539.37 Q1441.76 1536.5 1437.43 1536.5 Q1432.53 1536.5 1429.57 1539.27 Q1426.64 1542.04 1426.2 1547.07 L1447.08 1547.04 Z" fill="#000000" fill-rule="nonzero" fill-opacity="1" /><polyline clip-path="url(#clip052)" style="stroke:#000000; stroke-linecap:round; stroke-linejoin:round; stroke-width:2; stroke-opacity:0.1; fill:none" points="219.866,1423.18 2352.76,1423.18 "/>
<polyline clip-path="url(#clip052)" style="stroke:#000000; stroke-linecap:round; stroke-linejoin:round; stroke-width:2; stroke-opacity:0.1; fill:none" points="219.866,1163.24 2352.76,1163.24 "/>
<polyline clip-path="url(#clip052)" style="stroke:#000000; stroke-linecap:round; stroke-linejoin:round; stroke-width:2; stroke-opacity:0.1; fill:none" points="219.866,903.297 2352.76,903.297 "/>
<polyline clip-path="url(#clip052)" style="stroke:#000000; stroke-linecap:round; stroke-linejoin:round; stroke-width:2; stroke-opacity:0.1; fill:none" points="219.866,643.355 2352.76,643.355 "/>
<polyline clip-path="url(#clip052)" style="stroke:#000000; stroke-linecap:round; stroke-linejoin:round; stroke-width:2; stroke-opacity:0.1; fill:none" points="219.866,383.414 2352.76,383.414 "/>
<polyline clip-path="url(#clip052)" style="stroke:#000000; stroke-linecap:round; stroke-linejoin:round; stroke-width:2; stroke-opacity:0.1; fill:none" points="219.866,123.472 2352.76,123.472 "/>
<polyline clip-path="url(#clip050)" style="stroke:#000000; stroke-linecap:round; stroke-linejoin:round; stroke-width:4; stroke-opacity:1; fill:none" points="219.866,1423.18 219.866,123.472 "/>
<polyline clip-path="url(#clip050)" style="stroke:#000000; stroke-linecap:round; stroke-linejoin:round; stroke-width:4; stroke-opacity:1; fill:none" points="219.866,1423.18 238.764,1423.18 "/>
<polyline clip-path="url(#clip050)" style="stroke:#000000; stroke-linecap:round; stroke-linejoin:round; stroke-width:4; stroke-opacity:1; fill:none" points="219.866,1163.24 238.764,1163.24 "/>
<polyline clip-path="url(#clip050)" style="stroke:#000000; stroke-linecap:round; stroke-linejoin:round; stroke-width:4; stroke-opacity:1; fill:none" points="219.866,903.297 238.764,903.297 "/>
<polyline clip-path="url(#clip050)" style="stroke:#000000; stroke-linecap:round; stroke-linejoin:round; stroke-width:4; stroke-opacity:1; fill:none" points="219.866,643.355 238.764,643.355 "/>
<polyline clip-path="url(#clip050)" style="stroke:#000000; stroke-linecap:round; stroke-linejoin:round; stroke-width:4; stroke-opacity:1; fill:none" points="219.866,383.414 238.764,383.414 "/>
<polyline clip-path="url(#clip050)" style="stroke:#000000; stroke-linecap:round; stroke-linejoin:round; stroke-width:4; stroke-opacity:1; fill:none" points="219.866,123.472 238.764,123.472 "/>
<path clip-path="url(#clip050)" d="M126.691 1408.98 Q123.08 1408.98 121.251 1412.54 Q119.445 1416.08 119.445 1423.21 Q119.445 1430.32 121.251 1433.89 Q123.08 1437.43 126.691 1437.43 Q130.325 1437.43 132.13 1433.89 Q133.959 1430.32 133.959 1423.21 Q133.959 1416.08 132.13 1412.54 Q130.325 1408.98 126.691 1408.98 M126.691 1405.27 Q132.501 1405.27 135.556 1409.88 Q138.635 1414.46 138.635 1423.21 Q138.635 1431.94 135.556 1436.55 Q132.501 1441.13 126.691 1441.13 Q120.88 1441.13 117.802 1436.55 Q114.746 1431.94 114.746 1423.21 Q114.746 1414.46 117.802 1409.88 Q120.88 1405.27 126.691 1405.27 Z" fill="#000000" fill-rule="nonzero" fill-opacity="1" /><path clip-path="url(#clip050)" d="M146.853 1434.58 L151.737 1434.58 L151.737 1440.46 L146.853 1440.46 L146.853 1434.58 Z" fill="#000000" fill-rule="nonzero" fill-opacity="1" /><path clip-path="url(#clip050)" d="M171.922 1408.98 Q168.311 1408.98 166.482 1412.54 Q164.677 1416.08 164.677 1423.21 Q164.677 1430.32 166.482 1433.89 Q168.311 1437.43 171.922 1437.43 Q175.556 1437.43 177.362 1433.89 Q179.19 1430.32 179.19 1423.21 Q179.19 1416.08 177.362 1412.54 Q175.556 1408.98 171.922 1408.98 M171.922 1405.27 Q177.732 1405.27 180.788 1409.88 Q183.866 1414.46 183.866 1423.21 Q183.866 1431.94 180.788 1436.55 Q177.732 1441.13 171.922 1441.13 Q166.112 1441.13 163.033 1436.55 Q159.978 1431.94 159.978 1423.21 Q159.978 1414.46 163.033 1409.88 Q166.112 1405.27 171.922 1405.27 Z" fill="#000000" fill-rule="nonzero" fill-opacity="1" /><path clip-path="url(#clip050)" d="M128.288 1149.04 Q124.677 1149.04 122.848 1152.6 Q121.043 1156.14 121.043 1163.27 Q121.043 1170.38 122.848 1173.94 Q124.677 1177.49 128.288 1177.49 Q131.922 1177.49 133.728 1173.94 Q135.556 1170.38 135.556 1163.27 Q135.556 1156.14 133.728 1152.6 Q131.922 1149.04 128.288 1149.04 M128.288 1145.33 Q134.098 1145.33 137.154 1149.94 Q140.232 1154.52 140.232 1163.27 Q140.232 1172 137.154 1176.61 Q134.098 1181.19 128.288 1181.19 Q122.478 1181.19 119.399 1176.61 Q116.343 1172 116.343 1163.27 Q116.343 1154.52 119.399 1149.94 Q122.478 1145.33 128.288 1145.33 Z" fill="#000000" fill-rule="nonzero" fill-opacity="1" /><path clip-path="url(#clip050)" d="M148.45 1174.64 L153.334 1174.64 L153.334 1180.52 L148.45 1180.52 L148.45 1174.64 Z" fill="#000000" fill-rule="nonzero" fill-opacity="1" /><path clip-path="url(#clip050)" d="M167.547 1176.58 L183.866 1176.58 L183.866 1180.52 L161.922 1180.52 L161.922 1176.58 Q164.584 1173.83 169.167 1169.2 Q173.774 1164.55 174.954 1163.2 Q177.2 1160.68 178.079 1158.94 Q178.982 1157.19 178.982 1155.5 Q178.982 1152.74 177.038 1151 Q175.116 1149.27 172.014 1149.27 Q169.815 1149.27 167.362 1150.03 Q164.931 1150.8 162.153 1152.35 L162.153 1147.62 Q164.977 1146.49 167.431 1145.91 Q169.885 1145.33 171.922 1145.33 Q177.292 1145.33 180.487 1148.02 Q183.681 1150.7 183.681 1155.19 Q183.681 1157.32 182.871 1159.25 Q182.084 1161.14 179.977 1163.74 Q179.399 1164.41 176.297 1167.62 Q173.195 1170.82 167.547 1176.58 Z" fill="#000000" fill-rule="nonzero" fill-opacity="1" /><path clip-path="url(#clip050)" d="M126.205 889.095 Q122.593 889.095 120.765 892.66 Q118.959 896.202 118.959 903.331 Q118.959 910.438 120.765 914.003 Q122.593 917.544 126.205 917.544 Q129.839 917.544 131.644 914.003 Q133.473 910.438 133.473 903.331 Q133.473 896.202 131.644 892.66 Q129.839 889.095 126.205 889.095 M126.205 885.392 Q132.015 885.392 135.07 889.998 Q138.149 894.582 138.149 903.331 Q138.149 912.058 135.07 916.665 Q132.015 921.248 126.205 921.248 Q120.394 921.248 117.316 916.665 Q114.26 912.058 114.26 903.331 Q114.26 894.582 117.316 889.998 Q120.394 885.392 126.205 885.392 Z" fill="#000000" fill-rule="nonzero" fill-opacity="1" /><path clip-path="url(#clip050)" d="M146.366 914.697 L151.251 914.697 L151.251 920.577 L146.366 920.577 L146.366 914.697 Z" fill="#000000" fill-rule="nonzero" fill-opacity="1" /><path clip-path="url(#clip050)" d="M174.283 890.091 L162.477 908.54 L174.283 908.54 L174.283 890.091 M173.056 886.017 L178.936 886.017 L178.936 908.54 L183.866 908.54 L183.866 912.429 L178.936 912.429 L178.936 920.577 L174.283 920.577 L174.283 912.429 L158.681 912.429 L158.681 907.915 L173.056 886.017 Z" fill="#000000" fill-rule="nonzero" fill-opacity="1" /><path clip-path="url(#clip050)" d="M126.529 629.154 Q122.918 629.154 121.089 632.719 Q119.283 636.26 119.283 643.39 Q119.283 650.496 121.089 654.061 Q122.918 657.603 126.529 657.603 Q130.163 657.603 131.968 654.061 Q133.797 650.496 133.797 643.39 Q133.797 636.26 131.968 632.719 Q130.163 629.154 126.529 629.154 M126.529 625.45 Q132.339 625.45 135.394 630.057 Q138.473 634.64 138.473 643.39 Q138.473 652.117 135.394 656.723 Q132.339 661.307 126.529 661.307 Q120.718 661.307 117.64 656.723 Q114.584 652.117 114.584 643.39 Q114.584 634.64 117.64 630.057 Q120.718 625.45 126.529 625.45 Z" fill="#000000" fill-rule="nonzero" fill-opacity="1" /><path clip-path="url(#clip050)" d="M146.691 654.756 L151.575 654.756 L151.575 660.635 L146.691 660.635 L146.691 654.756 Z" fill="#000000" fill-rule="nonzero" fill-opacity="1" /><path clip-path="url(#clip050)" d="M172.339 641.492 Q169.19 641.492 167.339 643.645 Q165.51 645.797 165.51 649.547 Q165.51 653.274 167.339 655.45 Q169.19 657.603 172.339 657.603 Q175.487 657.603 177.315 655.45 Q179.167 653.274 179.167 649.547 Q179.167 645.797 177.315 643.645 Q175.487 641.492 172.339 641.492 M181.621 626.839 L181.621 631.098 Q179.862 630.265 178.056 629.825 Q176.274 629.385 174.514 629.385 Q169.885 629.385 167.431 632.51 Q165.001 635.635 164.653 641.955 Q166.019 639.941 168.079 638.876 Q170.139 637.788 172.616 637.788 Q177.825 637.788 180.834 640.959 Q183.866 644.108 183.866 649.547 Q183.866 654.871 180.718 658.089 Q177.57 661.307 172.339 661.307 Q166.343 661.307 163.172 656.723 Q160.001 652.117 160.001 643.39 Q160.001 635.196 163.89 630.334 Q167.778 625.45 174.329 625.45 Q176.089 625.45 177.871 625.797 Q179.676 626.145 181.621 626.839 Z" fill="#000000" fill-rule="nonzero" fill-opacity="1" /><path clip-path="url(#clip050)" d="M126.783 369.212 Q123.172 369.212 121.343 372.777 Q119.538 376.319 119.538 383.448 Q119.538 390.555 121.343 394.12 Q123.172 397.661 126.783 397.661 Q130.417 397.661 132.223 394.12 Q134.052 390.555 134.052 383.448 Q134.052 376.319 132.223 372.777 Q130.417 369.212 126.783 369.212 M126.783 365.509 Q132.593 365.509 135.649 370.115 Q138.728 374.698 138.728 383.448 Q138.728 392.175 135.649 396.782 Q132.593 401.365 126.783 401.365 Q120.973 401.365 117.894 396.782 Q114.839 392.175 114.839 383.448 Q114.839 374.698 117.894 370.115 Q120.973 365.509 126.783 365.509 Z" fill="#000000" fill-rule="nonzero" fill-opacity="1" /><path clip-path="url(#clip050)" d="M146.945 394.814 L151.829 394.814 L151.829 400.694 L146.945 400.694 L146.945 394.814 Z" fill="#000000" fill-rule="nonzero" fill-opacity="1" /><path clip-path="url(#clip050)" d="M172.014 384.282 Q168.681 384.282 166.76 386.064 Q164.862 387.847 164.862 390.971 Q164.862 394.096 166.76 395.879 Q168.681 397.661 172.014 397.661 Q175.348 397.661 177.269 395.879 Q179.19 394.073 179.19 390.971 Q179.19 387.847 177.269 386.064 Q175.371 384.282 172.014 384.282 M167.339 382.291 Q164.329 381.55 162.64 379.49 Q160.973 377.43 160.973 374.467 Q160.973 370.323 163.913 367.916 Q166.876 365.509 172.014 365.509 Q177.176 365.509 180.116 367.916 Q183.056 370.323 183.056 374.467 Q183.056 377.43 181.366 379.49 Q179.7 381.55 176.714 382.291 Q180.093 383.078 181.968 385.37 Q183.866 387.661 183.866 390.971 Q183.866 395.995 180.788 398.68 Q177.732 401.365 172.014 401.365 Q166.297 401.365 163.218 398.68 Q160.163 395.995 160.163 390.971 Q160.163 387.661 162.061 385.37 Q163.959 383.078 167.339 382.291 M165.626 374.907 Q165.626 377.592 167.292 379.097 Q168.982 380.601 172.014 380.601 Q175.024 380.601 176.714 379.097 Q178.426 377.592 178.426 374.907 Q178.426 372.222 176.714 370.717 Q175.024 369.212 172.014 369.212 Q168.982 369.212 167.292 370.717 Q165.626 372.222 165.626 374.907 Z" fill="#000000" fill-rule="nonzero" fill-opacity="1" /><path clip-path="url(#clip050)" d="M117.501 136.817 L125.14 136.817 L125.14 110.451 L116.83 112.118 L116.83 107.859 L125.093 106.192 L129.769 106.192 L129.769 136.817 L137.408 136.817 L137.408 140.752 L117.501 140.752 L117.501 136.817 Z" fill="#000000" fill-rule="nonzero" fill-opacity="1" /><path clip-path="url(#clip050)" d="M146.853 134.873 L151.737 134.873 L151.737 140.752 L146.853 140.752 L146.853 134.873 Z" fill="#000000" fill-rule="nonzero" fill-opacity="1" /><path clip-path="url(#clip050)" d="M171.922 109.271 Q168.311 109.271 166.482 112.836 Q164.677 116.377 164.677 123.507 Q164.677 130.613 166.482 134.178 Q168.311 137.72 171.922 137.72 Q175.556 137.72 177.362 134.178 Q179.19 130.613 179.19 123.507 Q179.19 116.377 177.362 112.836 Q175.556 109.271 171.922 109.271 M171.922 105.567 Q177.732 105.567 180.788 110.174 Q183.866 114.757 183.866 123.507 Q183.866 132.234 180.788 136.84 Q177.732 141.423 171.922 141.423 Q166.112 141.423 163.033 136.84 Q159.978 132.234 159.978 123.507 Q159.978 114.757 163.033 110.174 Q166.112 105.567 171.922 105.567 Z" fill="#000000" fill-rule="nonzero" fill-opacity="1" /><path clip-path="url(#clip050)" d="M21.7677 1282.47 L39.6235 1282.47 L39.6235 1274.39 Q39.6235 1269.9 37.3 1267.45 Q34.9765 1265 30.6797 1265 Q26.4147 1265 24.0912 1267.45 Q21.7677 1269.9 21.7677 1274.39 L21.7677 1282.47 M16.4842 1288.9 L16.4842 1274.39 Q16.4842 1266.4 20.1126 1262.32 Q23.7092 1258.22 30.6797 1258.22 Q37.7138 1258.22 41.3104 1262.32 Q44.907 1266.4 44.907 1274.39 L44.907 1282.47 L64.0042 1282.47 L64.0042 1288.9 L16.4842 1288.9 Z" fill="#000000" fill-rule="nonzero" fill-opacity="1" /><path clip-path="url(#clip050)" d="M33.8307 1230.34 Q33.2578 1231.32 33.0032 1232.5 Q32.7167 1233.65 32.7167 1235.05 Q32.7167 1240.01 35.9632 1242.69 Q39.1779 1245.33 45.2253 1245.33 L64.0042 1245.33 L64.0042 1251.22 L28.3562 1251.22 L28.3562 1245.33 L33.8944 1245.33 Q30.6479 1243.48 29.0883 1240.52 Q27.4968 1237.56 27.4968 1233.33 Q27.4968 1232.72 27.5923 1231.99 Q27.656 1231.26 27.8151 1230.37 L33.8307 1230.34 Z" fill="#000000" fill-rule="nonzero" fill-opacity="1" /><path clip-path="url(#clip050)" d="M32.4621 1211.81 Q32.4621 1216.52 36.1542 1219.26 Q39.8145 1222 46.212 1222 Q52.6095 1222 56.3017 1219.29 Q59.9619 1216.55 59.9619 1211.81 Q59.9619 1207.13 56.2698 1204.4 Q52.5777 1201.66 46.212 1201.66 Q39.8781 1201.66 36.186 1204.4 Q32.4621 1207.13 32.4621 1211.81 M27.4968 1211.81 Q27.4968 1204.17 32.4621 1199.81 Q37.4273 1195.45 46.212 1195.45 Q54.9649 1195.45 59.9619 1199.81 Q64.9272 1204.17 64.9272 1211.81 Q64.9272 1219.48 59.9619 1223.84 Q54.9649 1228.17 46.212 1228.17 Q37.4273 1228.17 32.4621 1223.84 Q27.4968 1219.48 27.4968 1211.81 Z" fill="#000000" fill-rule="nonzero" fill-opacity="1" /><path clip-path="url(#clip050)" d="M58.657 1180.08 L77.5631 1180.08 L77.5631 1185.97 L28.3562 1185.97 L28.3562 1180.08 L33.7671 1180.08 Q30.5842 1178.23 29.0564 1175.43 Q27.4968 1172.6 27.4968 1168.68 Q27.4968 1162.19 32.6531 1158.15 Q37.8093 1154.07 46.212 1154.07 Q54.6147 1154.07 59.771 1158.15 Q64.9272 1162.19 64.9272 1168.68 Q64.9272 1172.6 63.3994 1175.43 Q61.8398 1178.23 58.657 1180.08 M46.212 1160.15 Q39.7508 1160.15 36.0905 1162.83 Q32.3984 1165.47 32.3984 1170.12 Q32.3984 1174.76 36.0905 1177.44 Q39.7508 1180.08 46.212 1180.08 Q52.6732 1180.08 56.3653 1177.44 Q60.0256 1174.76 60.0256 1170.12 Q60.0256 1165.47 56.3653 1162.83 Q52.6732 1160.15 46.212 1160.15 Z" fill="#000000" fill-rule="nonzero" fill-opacity="1" /><path clip-path="url(#clip050)" d="M32.4621 1130.55 Q32.4621 1135.26 36.1542 1138 Q39.8145 1140.74 46.212 1140.74 Q52.6095 1140.74 56.3017 1138.03 Q59.9619 1135.3 59.9619 1130.55 Q59.9619 1125.87 56.2698 1123.14 Q52.5777 1120.4 46.212 1120.4 Q39.8781 1120.4 36.186 1123.14 Q32.4621 1125.87 32.4621 1130.55 M27.4968 1130.55 Q27.4968 1122.91 32.4621 1118.55 Q37.4273 1114.19 46.212 1114.19 Q54.9649 1114.19 59.9619 1118.55 Q64.9272 1122.91 64.9272 1130.55 Q64.9272 1138.22 59.9619 1142.58 Q54.9649 1146.91 46.212 1146.91 Q37.4273 1146.91 32.4621 1142.58 Q27.4968 1138.22 27.4968 1130.55 Z" fill="#000000" fill-rule="nonzero" fill-opacity="1" /><path clip-path="url(#clip050)" d="M33.8307 1083.83 Q33.2578 1084.82 33.0032 1085.99 Q32.7167 1087.14 32.7167 1088.54 Q32.7167 1093.51 35.9632 1096.18 Q39.1779 1098.82 45.2253 1098.82 L64.0042 1098.82 L64.0042 1104.71 L28.3562 1104.71 L28.3562 1098.82 L33.8944 1098.82 Q30.6479 1096.97 29.0883 1094.01 Q27.4968 1091.05 27.4968 1086.82 Q27.4968 1086.22 27.5923 1085.48 Q27.656 1084.75 27.8151 1083.86 L33.8307 1083.83 Z" fill="#000000" fill-rule="nonzero" fill-opacity="1" /><path clip-path="url(#clip050)" d="M18.2347 1071.89 L28.3562 1071.89 L28.3562 1059.83 L32.9077 1059.83 L32.9077 1071.89 L52.2594 1071.89 Q56.6199 1071.89 57.8613 1070.72 Q59.1026 1069.51 59.1026 1065.85 L59.1026 1059.83 L64.0042 1059.83 L64.0042 1065.85 Q64.0042 1072.63 61.4897 1075.2 Q58.9434 1077.78 52.2594 1077.78 L32.9077 1077.78 L32.9077 1082.08 L28.3562 1082.08 L28.3562 1077.78 L18.2347 1077.78 L18.2347 1071.89 Z" fill="#000000" fill-rule="nonzero" fill-opacity="1" /><path clip-path="url(#clip050)" d="M28.3562 1052.13 L28.3562 1046.27 L64.0042 1046.27 L64.0042 1052.13 L28.3562 1052.13 M14.479 1052.13 L14.479 1046.27 L21.895 1046.27 L21.895 1052.13 L14.479 1052.13 Z" fill="#000000" fill-rule="nonzero" fill-opacity="1" /><path clip-path="url(#clip050)" d="M32.4621 1020.2 Q32.4621 1024.91 36.1542 1027.65 Q39.8145 1030.39 46.212 1030.39 Q52.6095 1030.39 56.3017 1027.68 Q59.9619 1024.95 59.9619 1020.2 Q59.9619 1015.53 56.2698 1012.79 Q52.5777 1010.05 46.212 1010.05 Q39.8781 1010.05 36.186 1012.79 Q32.4621 1015.53 32.4621 1020.2 M27.4968 1020.2 Q27.4968 1012.57 32.4621 1008.2 Q37.4273 1003.84 46.212 1003.84 Q54.9649 1003.84 59.9619 1008.2 Q64.9272 1012.57 64.9272 1020.2 Q64.9272 1027.87 59.9619 1032.24 Q54.9649 1036.56 46.212 1036.56 Q37.4273 1036.56 32.4621 1032.24 Q27.4968 1027.87 27.4968 1020.2 Z" fill="#000000" fill-rule="nonzero" fill-opacity="1" /><path clip-path="url(#clip050)" d="M42.4881 964.504 L64.0042 964.504 L64.0042 970.361 L42.679 970.361 Q37.6183 970.361 35.1038 972.334 Q32.5894 974.307 32.5894 978.254 Q32.5894 982.996 35.6131 985.734 Q38.6368 988.471 43.8567 988.471 L64.0042 988.471 L64.0042 994.359 L28.3562 994.359 L28.3562 988.471 L33.8944 988.471 Q30.6797 986.37 29.0883 983.538 Q27.4968 980.673 27.4968 976.949 Q27.4968 970.806 31.3163 967.655 Q35.1038 964.504 42.4881 964.504 Z" fill="#000000" fill-rule="nonzero" fill-opacity="1" /><path clip-path="url(#clip050)" d="M32.4621 918.289 Q32.4621 923 36.1542 925.737 Q39.8145 928.474 46.212 928.474 Q52.6095 928.474 56.3017 925.769 Q59.9619 923.031 59.9619 918.289 Q59.9619 913.61 56.2698 910.873 Q52.5777 908.136 46.212 908.136 Q39.8781 908.136 36.186 910.873 Q32.4621 913.61 32.4621 918.289 M27.4968 918.289 Q27.4968 910.65 32.4621 906.29 Q37.4273 901.929 46.212 901.929 Q54.9649 901.929 59.9619 906.29 Q64.9272 910.65 64.9272 918.289 Q64.9272 925.96 59.9619 930.32 Q54.9649 934.649 46.212 934.649 Q37.4273 934.649 32.4621 930.32 Q27.4968 925.96 27.4968 918.289 Z" fill="#000000" fill-rule="nonzero" fill-opacity="1" /><path clip-path="url(#clip050)" d="M14.479 874.175 L19.3487 874.175 L19.3487 879.777 Q19.3487 882.928 20.6219 884.169 Q21.895 885.378 25.2052 885.378 L28.3562 885.378 L28.3562 875.734 L32.9077 875.734 L32.9077 885.378 L64.0042 885.378 L64.0042 891.267 L32.9077 891.267 L32.9077 896.868 L28.3562 896.868 L28.3562 891.267 L25.8736 891.267 Q19.9216 891.267 17.2162 888.498 Q14.479 885.728 14.479 879.713 L14.479 874.175 Z" fill="#000000" fill-rule="nonzero" fill-opacity="1" /><path clip-path="url(#clip050)" d="M18.0438 819.812 L24.314 819.812 Q22.5634 823.472 21.704 826.718 Q20.8447 829.965 20.8447 832.989 Q20.8447 838.24 22.8817 841.105 Q24.9187 843.938 28.6745 843.938 Q31.8255 843.938 33.4488 842.06 Q35.0402 840.15 36.0269 834.866 L36.8226 830.983 Q38.1912 823.79 41.6605 820.384 Q45.098 816.947 50.8908 816.947 Q57.7976 816.947 61.3624 821.594 Q64.9272 826.209 64.9272 835.153 Q64.9272 838.527 64.1633 842.346 Q63.3994 846.134 61.9035 850.208 L55.2831 850.208 Q57.4793 846.293 58.5933 842.537 Q59.7073 838.781 59.7073 835.153 Q59.7073 829.647 57.543 826.655 Q55.3786 823.663 51.3682 823.663 Q47.8671 823.663 45.8937 825.827 Q43.9204 827.96 42.9337 832.861 L42.1698 836.776 Q40.7375 843.969 37.682 847.184 Q34.6264 850.399 29.1837 850.399 Q22.8817 850.399 19.2532 845.975 Q15.6248 841.519 15.6248 833.721 Q15.6248 830.379 16.2295 826.909 Q16.8343 823.44 18.0438 819.812 Z" fill="#000000" fill-rule="nonzero" fill-opacity="1" /><path clip-path="url(#clip050)" d="M49.9359 807.78 L28.3562 807.78 L28.3562 801.924 L49.7131 801.924 Q54.7739 801.924 57.3202 799.951 Q59.8346 797.977 59.8346 794.03 Q59.8346 789.288 56.8109 786.551 Q53.7872 783.782 48.5673 783.782 L28.3562 783.782 L28.3562 777.925 L64.0042 777.925 L64.0042 783.782 L58.5296 783.782 Q61.7762 785.914 63.3676 788.747 Q64.9272 791.548 64.9272 795.272 Q64.9272 801.415 61.1078 804.598 Q57.2883 807.78 49.9359 807.78 M27.4968 793.044 L27.4968 793.044 Z" fill="#000000" fill-rule="nonzero" fill-opacity="1" /><path clip-path="url(#clip050)" d="M29.7248 740.208 L35.1993 740.208 Q33.8307 742.691 33.1623 745.205 Q32.4621 747.688 32.4621 750.234 Q32.4621 755.932 36.0905 759.083 Q39.6872 762.234 46.212 762.234 Q52.7369 762.234 56.3653 759.083 Q59.9619 755.932 59.9619 750.234 Q59.9619 747.688 59.2935 745.205 Q58.5933 742.691 57.2247 740.208 L62.6355 740.208 Q63.7814 742.659 64.3543 745.301 Q64.9272 747.911 64.9272 750.871 Q64.9272 758.924 59.8664 763.666 Q54.8057 768.408 46.212 768.408 Q37.491 768.408 32.4939 763.634 Q27.4968 758.828 27.4968 750.489 Q27.4968 747.784 28.0697 745.205 Q28.6108 742.627 29.7248 740.208 Z" fill="#000000" fill-rule="nonzero" fill-opacity="1" /><path clip-path="url(#clip050)" d="M29.7248 704.369 L35.1993 704.369 Q33.8307 706.852 33.1623 709.367 Q32.4621 711.849 32.4621 714.395 Q32.4621 720.093 36.0905 723.244 Q39.6872 726.395 46.212 726.395 Q52.7369 726.395 56.3653 723.244 Q59.9619 720.093 59.9619 714.395 Q59.9619 711.849 59.2935 709.367 Q58.5933 706.852 57.2247 704.369 L62.6355 704.369 Q63.7814 706.82 64.3543 709.462 Q64.9272 712.072 64.9272 715.032 Q64.9272 723.085 59.8664 727.827 Q54.8057 732.57 46.212 732.57 Q37.491 732.57 32.4939 727.795 Q27.4968 722.989 27.4968 714.65 Q27.4968 711.945 28.0697 709.367 Q28.6108 706.788 29.7248 704.369 Z" fill="#000000" fill-rule="nonzero" fill-opacity="1" /><path clip-path="url(#clip050)" d="M44.7161 663.693 L47.5806 663.693 L47.5806 690.62 Q53.6281 690.238 56.8109 686.991 Q59.9619 683.713 59.9619 677.888 Q59.9619 674.514 59.1344 671.363 Q58.3069 668.18 56.6518 665.061 L62.1899 665.061 Q63.5267 668.212 64.227 671.522 Q64.9272 674.833 64.9272 678.238 Q64.9272 686.768 59.9619 691.765 Q54.9967 696.731 46.5303 696.731 Q37.7774 696.731 32.6531 692.02 Q27.4968 687.278 27.4968 679.257 Q27.4968 672.064 32.1438 667.894 Q36.7589 663.693 44.7161 663.693 M42.9973 669.549 Q38.1912 669.613 35.3266 672.254 Q32.4621 674.864 32.4621 679.193 Q32.4621 684.095 35.2312 687.055 Q38.0002 689.983 43.0292 690.429 L42.9973 669.549 Z" fill="#000000" fill-rule="nonzero" fill-opacity="1" /><path clip-path="url(#clip050)" d="M29.4065 631.355 L34.9447 631.355 Q33.6716 633.837 33.035 636.511 Q32.3984 639.185 32.3984 642.049 Q32.3984 646.41 33.7352 648.606 Q35.072 650.77 37.7456 650.77 Q39.7826 650.77 40.9603 649.211 Q42.1061 647.651 43.1565 642.94 L43.6021 640.935 Q44.9389 634.697 47.3897 632.087 Q49.8086 629.445 54.1691 629.445 Q59.1344 629.445 62.0308 633.392 Q64.9272 637.307 64.9272 644.182 Q64.9272 647.046 64.3543 650.165 Q63.8132 653.253 62.6992 656.69 L56.6518 656.69 Q58.3387 653.444 59.198 650.293 Q60.0256 647.142 60.0256 644.054 Q60.0256 639.917 58.6251 637.689 Q57.1929 635.461 54.6147 635.461 Q52.2276 635.461 50.9545 637.084 Q49.6813 638.675 48.5037 644.118 L48.0262 646.155 Q46.8804 651.598 44.5251 654.017 Q42.138 656.436 38.0002 656.436 Q32.9713 656.436 30.2341 652.871 Q27.4968 649.306 27.4968 642.749 Q27.4968 639.503 27.9743 636.638 Q28.4517 633.774 29.4065 631.355 Z" fill="#000000" fill-rule="nonzero" fill-opacity="1" /><path clip-path="url(#clip050)" d="M29.4065 597.394 L34.9447 597.394 Q33.6716 599.876 33.035 602.55 Q32.3984 605.224 32.3984 608.088 Q32.3984 612.449 33.7352 614.645 Q35.072 616.809 37.7456 616.809 Q39.7826 616.809 40.9603 615.25 Q42.1061 613.69 43.1565 608.979 L43.6021 606.974 Q44.9389 600.736 47.3897 598.126 Q49.8086 595.484 54.1691 595.484 Q59.1344 595.484 62.0308 599.431 Q64.9272 603.346 64.9272 610.221 Q64.9272 613.085 64.3543 616.204 Q63.8132 619.292 62.6992 622.729 L56.6518 622.729 Q58.3387 619.483 59.198 616.332 Q60.0256 613.181 60.0256 610.093 Q60.0256 605.956 58.6251 603.728 Q57.1929 601.5 54.6147 601.5 Q52.2276 601.5 50.9545 603.123 Q49.6813 604.714 48.5037 610.157 L48.0262 612.194 Q46.8804 617.637 44.5251 620.056 Q42.138 622.475 38.0002 622.475 Q32.9713 622.475 30.2341 618.91 Q27.4968 615.345 27.4968 608.788 Q27.4968 605.542 27.9743 602.677 Q28.4517 599.813 29.4065 597.394 Z" fill="#000000" fill-rule="nonzero" fill-opacity="1" /><path clip-path="url(#clip050)" d="M44.7161 555.667 L47.5806 555.667 L47.5806 582.593 Q53.6281 582.212 56.8109 578.965 Q59.9619 575.687 59.9619 569.862 Q59.9619 566.488 59.1344 563.337 Q58.3069 560.154 56.6518 557.035 L62.1899 557.035 Q63.5267 560.186 64.227 563.496 Q64.9272 566.807 64.9272 570.212 Q64.9272 578.742 59.9619 583.739 Q54.9967 588.705 46.5303 588.705 Q37.7774 588.705 32.6531 583.994 Q27.4968 579.252 27.4968 571.231 Q27.4968 564.037 32.1438 559.868 Q36.7589 555.667 44.7161 555.667 M42.9973 561.523 Q38.1912 561.587 35.3266 564.228 Q32.4621 566.838 32.4621 571.167 Q32.4621 576.069 35.2312 579.029 Q38.0002 581.957 43.0292 582.403 L42.9973 561.523 Z" fill="#000000" fill-rule="nonzero" fill-opacity="1" /><path clip-path="url(#clip050)" d="M29.4065 523.329 L34.9447 523.329 Q33.6716 525.811 33.035 528.485 Q32.3984 531.159 32.3984 534.023 Q32.3984 538.384 33.7352 540.58 Q35.072 542.744 37.7456 542.744 Q39.7826 542.744 40.9603 541.185 Q42.1061 539.625 43.1565 534.914 L43.6021 532.909 Q44.9389 526.671 47.3897 524.061 Q49.8086 521.419 54.1691 521.419 Q59.1344 521.419 62.0308 525.366 Q64.9272 529.281 64.9272 536.156 Q64.9272 539.02 64.3543 542.139 Q63.8132 545.227 62.6992 548.664 L56.6518 548.664 Q58.3387 545.418 59.198 542.267 Q60.0256 539.116 60.0256 536.028 Q60.0256 531.891 58.6251 529.663 Q57.1929 527.435 54.6147 527.435 Q52.2276 527.435 50.9545 529.058 Q49.6813 530.649 48.5037 536.092 L48.0262 538.129 Q46.8804 543.572 44.5251 545.991 Q42.138 548.41 38.0002 548.41 Q32.9713 548.41 30.2341 544.845 Q27.4968 541.28 27.4968 534.723 Q27.4968 531.477 27.9743 528.612 Q28.4517 525.748 29.4065 523.329 Z" fill="#000000" fill-rule="nonzero" fill-opacity="1" /><path clip-path="url(#clip050)" d="M16.4842 480.965 L16.4842 475.554 L70.0516 492.105 L70.0516 497.516 L16.4842 480.965 Z" fill="#000000" fill-rule="nonzero" fill-opacity="1" /><path clip-path="url(#clip050)" d="M21.7677 442.007 L39.6235 442.007 L39.6235 433.922 Q39.6235 429.435 37.3 426.984 Q34.9765 424.533 30.6797 424.533 Q26.4147 424.533 24.0912 426.984 Q21.7677 429.435 21.7677 433.922 L21.7677 442.007 M16.4842 448.436 L16.4842 433.922 Q16.4842 425.933 20.1126 421.859 Q23.7092 417.754 30.6797 417.754 Q37.7138 417.754 41.3104 421.859 Q44.907 425.933 44.907 433.922 L44.907 442.007 L64.0042 442.007 L64.0042 448.436 L16.4842 448.436 Z" fill="#000000" fill-rule="nonzero" fill-opacity="1" /><path clip-path="url(#clip050)" d="M32.4621 397.893 Q32.4621 402.603 36.1542 405.34 Q39.8145 408.078 46.212 408.078 Q52.6095 408.078 56.3017 405.372 Q59.9619 402.635 59.9619 397.893 Q59.9619 393.214 56.2698 390.476 Q52.5777 387.739 46.212 387.739 Q39.8781 387.739 36.186 390.476 Q32.4621 393.214 32.4621 397.893 M27.4968 397.893 Q27.4968 390.254 32.4621 385.893 Q37.4273 381.533 46.212 381.533 Q54.9649 381.533 59.9619 385.893 Q64.9272 390.254 64.9272 397.893 Q64.9272 405.563 59.9619 409.924 Q54.9649 414.252 46.212 414.252 Q37.4273 414.252 32.4621 409.924 Q27.4968 405.563 27.4968 397.893 Z" fill="#000000" fill-rule="nonzero" fill-opacity="1" /><path clip-path="url(#clip050)" d="M28.3562 375.231 L28.3562 369.374 L56.1743 362.054 L28.3562 354.765 L28.3562 347.858 L56.1743 340.538 L28.3562 333.249 L28.3562 327.392 L64.0042 336.718 L64.0042 343.625 L34.7856 351.296 L64.0042 358.998 L64.0042 365.905 L28.3562 375.231 Z" fill="#000000" fill-rule="nonzero" fill-opacity="1" /><path clip-path="url(#clip050)" d="M44.7161 288.02 L47.5806 288.02 L47.5806 314.947 Q53.6281 314.565 56.8109 311.319 Q59.9619 308.041 59.9619 302.216 Q59.9619 298.842 59.1344 295.691 Q58.3069 292.508 56.6518 289.389 L62.1899 289.389 Q63.5267 292.54 64.227 295.85 Q64.9272 299.16 64.9272 302.566 Q64.9272 311.096 59.9619 316.093 Q54.9967 321.058 46.5303 321.058 Q37.7774 321.058 32.6531 316.348 Q27.4968 311.605 27.4968 303.585 Q27.4968 296.391 32.1438 292.222 Q36.7589 288.02 44.7161 288.02 M42.9973 293.877 Q38.1912 293.941 35.3266 296.582 Q32.4621 299.192 32.4621 303.521 Q32.4621 308.423 35.2312 311.383 Q38.0002 314.311 43.0292 314.756 L42.9973 293.877 Z" fill="#000000" fill-rule="nonzero" fill-opacity="1" /><path clip-path="url(#clip050)" d="M33.8307 257.751 Q33.2578 258.738 33.0032 259.916 Q32.7167 261.062 32.7167 262.462 Q32.7167 267.427 35.9632 270.101 Q39.1779 272.743 45.2253 272.743 L64.0042 272.743 L64.0042 278.631 L28.3562 278.631 L28.3562 272.743 L33.8944 272.743 Q30.6479 270.897 29.0883 267.937 Q27.4968 264.977 27.4968 260.743 Q27.4968 260.139 27.5923 259.407 Q27.656 258.675 27.8151 257.783 L33.8307 257.751 Z" fill="#000000" fill-rule="nonzero" fill-opacity="1" /><path clip-path="url(#clip050)" d="M807.555 16.7545 L807.555 25.383 Q803.423 21.5346 798.724 19.6307 Q794.065 17.7268 788.799 17.7268 Q778.429 17.7268 772.92 24.0867 Q767.411 30.4061 767.411 42.3968 Q767.411 54.3469 772.92 60.7069 Q778.429 67.0263 788.799 67.0263 Q794.065 67.0263 798.724 65.1223 Q803.423 63.2184 807.555 59.3701 L807.555 67.9175 Q803.261 70.8341 798.44 72.2924 Q793.66 73.7508 788.313 73.7508 Q774.581 73.7508 766.681 65.3654 Q758.782 56.9395 758.782 42.3968 Q758.782 27.8135 766.681 19.4281 Q774.581 11.0023 788.313 11.0023 Q793.741 11.0023 798.521 12.4606 Q803.342 13.8784 807.555 16.7545 Z" fill="#000000" fill-rule="nonzero" fill-opacity="1" /><path clip-path="url(#clip050)" d="M819.87 9.54393 L827.323 9.54393 L827.323 72.576 L819.87 72.576 L819.87 9.54393 Z" fill="#000000" fill-rule="nonzero" fill-opacity="1" /><path clip-path="url(#clip050)" d="M860.5 32.4315 Q854.505 32.4315 851.021 37.1306 Q847.537 41.7891 847.537 49.9314 Q847.537 58.0738 850.981 62.7728 Q854.464 67.4314 860.5 67.4314 Q866.455 67.4314 869.939 62.7323 Q873.423 58.0333 873.423 49.9314 Q873.423 41.8701 869.939 37.1711 Q866.455 32.4315 860.5 32.4315 M860.5 26.1121 Q870.222 26.1121 875.772 32.4315 Q881.322 38.7509 881.322 49.9314 Q881.322 61.0714 875.772 67.4314 Q870.222 73.7508 860.5 73.7508 Q850.738 73.7508 845.188 67.4314 Q839.679 61.0714 839.679 49.9314 Q839.679 38.7509 845.188 32.4315 Q850.738 26.1121 860.5 26.1121 Z" fill="#000000" fill-rule="nonzero" fill-opacity="1" /><path clip-path="url(#clip050)" d="M900.888 65.7705 L900.888 89.8329 L893.394 89.8329 L893.394 27.2059 L900.888 27.2059 L900.888 34.0924 Q903.237 30.0415 906.802 28.0971 Q910.407 26.1121 915.39 26.1121 Q923.654 26.1121 928.799 32.6746 Q933.984 39.2371 933.984 49.9314 Q933.984 60.6258 928.799 67.1883 Q923.654 73.7508 915.39 73.7508 Q910.407 73.7508 906.802 71.8063 Q903.237 69.8214 900.888 65.7705 M926.246 49.9314 Q926.246 41.7081 922.844 37.0496 Q919.481 32.3505 913.567 32.3505 Q907.653 32.3505 904.25 37.0496 Q900.888 41.7081 900.888 49.9314 Q900.888 58.1548 904.25 62.8538 Q907.653 67.5124 913.567 67.5124 Q919.481 67.5124 922.844 62.8538 Q926.246 58.1548 926.246 49.9314 Z" fill="#000000" fill-rule="nonzero" fill-opacity="1" /><path clip-path="url(#clip050)" d="M953.55 65.7705 L953.55 89.8329 L946.055 89.8329 L946.055 27.2059 L953.55 27.2059 L953.55 34.0924 Q955.899 30.0415 959.464 28.0971 Q963.069 26.1121 968.052 26.1121 Q976.316 26.1121 981.46 32.6746 Q986.645 39.2371 986.645 49.9314 Q986.645 60.6258 981.46 67.1883 Q976.316 73.7508 968.052 73.7508 Q963.069 73.7508 959.464 71.8063 Q955.899 69.8214 953.55 65.7705 M978.908 49.9314 Q978.908 41.7081 975.505 37.0496 Q972.143 32.3505 966.229 32.3505 Q960.315 32.3505 956.912 37.0496 Q953.55 41.7081 953.55 49.9314 Q953.55 58.1548 956.912 62.8538 Q960.315 67.5124 966.229 67.5124 Q972.143 67.5124 975.505 62.8538 Q978.908 58.1548 978.908 49.9314 Z" fill="#000000" fill-rule="nonzero" fill-opacity="1" /><path clip-path="url(#clip050)" d="M1037.81 48.0275 L1037.81 51.6733 L1003.54 51.6733 Q1004.02 59.3701 1008.16 63.421 Q1012.33 67.4314 1019.74 67.4314 Q1024.04 67.4314 1028.05 66.3781 Q1032.1 65.3249 1036.07 63.2184 L1036.07 70.267 Q1032.06 71.9684 1027.84 72.8596 Q1023.63 73.7508 1019.3 73.7508 Q1008.44 73.7508 1002.08 67.4314 Q995.76 61.1119 995.76 50.3365 Q995.76 39.1965 1001.76 32.6746 Q1007.79 26.1121 1018 26.1121 Q1027.15 26.1121 1032.46 32.0264 Q1037.81 37.9003 1037.81 48.0275 M1030.35 45.84 Q1030.27 39.7232 1026.91 36.0774 Q1023.59 32.4315 1018.08 32.4315 Q1011.84 32.4315 1008.07 35.9558 Q1004.35 39.4801 1003.78 45.8805 L1030.35 45.84 Z" fill="#000000" fill-rule="nonzero" fill-opacity="1" /><path clip-path="url(#clip050)" d="M1076.33 34.1734 Q1075.08 33.4443 1073.58 33.1202 Q1072.12 32.7556 1070.34 32.7556 Q1064.02 32.7556 1060.61 36.8875 Q1057.25 40.9789 1057.25 48.6757 L1057.25 72.576 L1049.76 72.576 L1049.76 27.2059 L1057.25 27.2059 L1057.25 34.2544 Q1059.6 30.1225 1063.37 28.1376 Q1067.14 26.1121 1072.52 26.1121 Q1073.29 26.1121 1074.23 26.2337 Q1075.16 26.3147 1076.29 26.5172 L1076.33 34.1734 Z" fill="#000000" fill-rule="nonzero" fill-opacity="1" /><path clip-path="url(#clip050)" d="M1075.08 46.5287 L1096.91 46.5287 L1096.91 53.1722 L1075.08 53.1722 L1075.08 46.5287 Z" fill="#000000" fill-rule="nonzero" fill-opacity="1" /><path clip-path="url(#clip050)" d="M1117.29 18.8205 L1117.29 41.5461 L1127.58 41.5461 Q1133.29 41.5461 1136.41 38.5889 Q1139.53 35.6318 1139.53 30.163 Q1139.53 24.7348 1136.41 21.7777 Q1133.29 18.8205 1127.58 18.8205 L1117.29 18.8205 M1109.1 12.096 L1127.58 12.096 Q1137.74 12.096 1142.93 16.714 Q1148.15 21.2916 1148.15 30.163 Q1148.15 39.1155 1142.93 43.6931 Q1137.74 48.2706 1127.58 48.2706 L1117.29 48.2706 L1117.29 72.576 L1109.1 72.576 L1109.1 12.096 Z" fill="#000000" fill-rule="nonzero" fill-opacity="1" /><path clip-path="url(#clip050)" d="M1194.66 48.0275 L1194.66 51.6733 L1160.39 51.6733 Q1160.87 59.3701 1165.01 63.421 Q1169.18 67.4314 1176.59 67.4314 Q1180.89 67.4314 1184.9 66.3781 Q1188.95 65.3249 1192.92 63.2184 L1192.92 70.267 Q1188.91 71.9684 1184.69 72.8596 Q1180.48 73.7508 1176.15 73.7508 Q1165.29 73.7508 1158.93 67.4314 Q1152.61 61.1119 1152.61 50.3365 Q1152.61 39.1965 1158.61 32.6746 Q1164.64 26.1121 1174.85 26.1121 Q1184.01 26.1121 1189.31 32.0264 Q1194.66 37.9003 1194.66 48.0275 M1187.21 45.84 Q1187.12 39.7232 1183.76 36.0774 Q1180.44 32.4315 1174.93 32.4315 Q1168.69 32.4315 1164.93 35.9558 Q1161.2 39.4801 1160.63 45.8805 L1187.21 45.84 Z" fill="#000000" fill-rule="nonzero" fill-opacity="1" /><path clip-path="url(#clip050)" d="M1227.51 49.7694 Q1218.48 49.7694 1214.99 51.8354 Q1211.51 53.9013 1211.51 58.8839 Q1211.51 62.8538 1214.1 65.2034 Q1216.74 67.5124 1221.23 67.5124 Q1227.43 67.5124 1231.16 63.1374 Q1234.93 58.7219 1234.93 51.4303 L1234.93 49.7694 L1227.51 49.7694 M1242.38 46.6907 L1242.38 72.576 L1234.93 72.576 L1234.93 65.6895 Q1232.37 69.8214 1228.57 71.8063 Q1224.76 73.7508 1219.25 73.7508 Q1212.28 73.7508 1208.15 69.8619 Q1204.06 65.9325 1204.06 59.3701 Q1204.06 51.7138 1209.16 47.825 Q1214.31 43.9361 1224.47 43.9361 L1234.93 43.9361 L1234.93 43.2069 Q1234.93 38.0623 1231.52 35.2672 Q1228.16 32.4315 1222.04 32.4315 Q1218.15 32.4315 1214.47 33.3632 Q1210.78 34.295 1207.38 36.1584 L1207.38 29.2718 Q1211.47 27.692 1215.32 26.9223 Q1219.17 26.1121 1222.81 26.1121 Q1232.66 26.1121 1237.52 31.2163 Q1242.38 36.3204 1242.38 46.6907 Z" fill="#000000" fill-rule="nonzero" fill-opacity="1" /><path clip-path="url(#clip050)" d="M1284.02 34.1734 Q1282.77 33.4443 1281.27 33.1202 Q1279.81 32.7556 1278.03 32.7556 Q1271.71 32.7556 1268.3 36.8875 Q1264.94 40.9789 1264.94 48.6757 L1264.94 72.576 L1257.45 72.576 L1257.45 27.2059 L1264.94 27.2059 L1264.94 34.2544 Q1267.29 30.1225 1271.06 28.1376 Q1274.83 26.1121 1280.21 26.1121 Q1280.98 26.1121 1281.92 26.2337 Q1282.85 26.3147 1283.98 26.5172 L1284.02 34.1734 Z" fill="#000000" fill-rule="nonzero" fill-opacity="1" /><path clip-path="url(#clip050)" d="M1320.76 28.5427 L1320.76 35.5912 Q1317.6 33.9709 1314.2 33.1607 Q1310.8 32.3505 1307.15 32.3505 Q1301.6 32.3505 1298.81 34.0519 Q1296.05 35.7533 1296.05 39.156 Q1296.05 41.7486 1298.04 43.2475 Q1300.02 44.7058 1306.02 46.0426 L1308.57 46.6097 Q1316.51 48.3111 1319.83 51.4303 Q1323.19 54.509 1323.19 60.0587 Q1323.19 66.3781 1318.17 70.0644 Q1313.19 73.7508 1304.44 73.7508 Q1300.79 73.7508 1296.82 73.0216 Q1292.89 72.3329 1288.52 70.9151 L1288.52 63.2184 Q1292.65 65.3654 1296.66 66.4591 Q1300.67 67.5124 1304.6 67.5124 Q1309.87 67.5124 1312.7 65.73 Q1315.54 63.9071 1315.54 60.6258 Q1315.54 57.5877 1313.47 55.9673 Q1311.45 54.3469 1304.52 52.8481 L1301.93 52.2405 Q1295 50.7821 1291.92 47.7845 Q1288.84 44.7463 1288.84 39.4801 Q1288.84 33.0797 1293.38 29.5959 Q1297.92 26.1121 1306.26 26.1121 Q1310.39 26.1121 1314.04 26.7198 Q1317.69 27.3274 1320.76 28.5427 Z" fill="#000000" fill-rule="nonzero" fill-opacity="1" /><path clip-path="url(#clip050)" d="M1352.64 32.4315 Q1346.65 32.4315 1343.17 37.1306 Q1339.68 41.7891 1339.68 49.9314 Q1339.68 58.0738 1343.13 62.7728 Q1346.61 67.4314 1352.64 67.4314 Q1358.6 67.4314 1362.08 62.7323 Q1365.57 58.0333 1365.57 49.9314 Q1365.57 41.8701 1362.08 37.1711 Q1358.6 32.4315 1352.64 32.4315 M1352.64 26.1121 Q1362.37 26.1121 1367.92 32.4315 Q1373.47 38.7509 1373.47 49.9314 Q1373.47 61.0714 1367.92 67.4314 Q1362.37 73.7508 1352.64 73.7508 Q1342.88 73.7508 1337.33 67.4314 Q1331.82 61.0714 1331.82 49.9314 Q1331.82 38.7509 1337.33 32.4315 Q1342.88 26.1121 1352.64 26.1121 Z" fill="#000000" fill-rule="nonzero" fill-opacity="1" /><path clip-path="url(#clip050)" d="M1423.54 45.1919 L1423.54 72.576 L1416.08 72.576 L1416.08 45.4349 Q1416.08 38.994 1413.57 35.7938 Q1411.06 32.5936 1406.04 32.5936 Q1400 32.5936 1396.52 36.4419 Q1393.03 40.2903 1393.03 46.9338 L1393.03 72.576 L1385.54 72.576 L1385.54 27.2059 L1393.03 27.2059 L1393.03 34.2544 Q1395.71 30.163 1399.31 28.1376 Q1402.96 26.1121 1407.7 26.1121 Q1415.51 26.1121 1419.53 30.9732 Q1423.54 35.7938 1423.54 45.1919 Z" fill="#000000" fill-rule="nonzero" fill-opacity="1" /><path clip-path="url(#clip050)" d="M1465.1 12.096 L1473.28 12.096 L1473.28 72.576 L1465.1 72.576 L1465.1 12.096 Z" fill="#000000" fill-rule="nonzero" fill-opacity="1" /><path clip-path="url(#clip050)" d="M1526.96 45.1919 L1526.96 72.576 L1519.5 72.576 L1519.5 45.4349 Q1519.5 38.994 1516.99 35.7938 Q1514.48 32.5936 1509.46 32.5936 Q1503.42 32.5936 1499.94 36.4419 Q1496.45 40.2903 1496.45 46.9338 L1496.45 72.576 L1488.96 72.576 L1488.96 27.2059 L1496.45 27.2059 L1496.45 34.2544 Q1499.13 30.163 1502.73 28.1376 Q1506.38 26.1121 1511.12 26.1121 Q1518.93 26.1121 1522.94 30.9732 Q1526.96 35.7938 1526.96 45.1919 Z" fill="#000000" fill-rule="nonzero" fill-opacity="1" /><path clip-path="url(#clip050)" d="M1549.19 14.324 L1549.19 27.2059 L1564.55 27.2059 L1564.55 32.9987 L1549.19 32.9987 L1549.19 57.6282 Q1549.19 63.1779 1550.69 64.7578 Q1552.23 66.3376 1556.89 66.3376 L1564.55 66.3376 L1564.55 72.576 L1556.89 72.576 Q1548.26 72.576 1544.98 69.3758 Q1541.7 66.1351 1541.7 57.6282 L1541.7 32.9987 L1536.23 32.9987 L1536.23 27.2059 L1541.7 27.2059 L1541.7 14.324 L1549.19 14.324 Z" fill="#000000" fill-rule="nonzero" fill-opacity="1" /><path clip-path="url(#clip050)" d="M1613.16 48.0275 L1613.16 51.6733 L1578.89 51.6733 Q1579.37 59.3701 1583.51 63.421 Q1587.68 67.4314 1595.09 67.4314 Q1599.39 67.4314 1603.4 66.3781 Q1607.45 65.3249 1611.42 63.2184 L1611.42 70.267 Q1607.41 71.9684 1603.19 72.8596 Q1598.98 73.7508 1594.65 73.7508 Q1583.79 73.7508 1577.43 67.4314 Q1571.11 61.1119 1571.11 50.3365 Q1571.11 39.1965 1577.11 32.6746 Q1583.14 26.1121 1593.35 26.1121 Q1602.5 26.1121 1607.81 32.0264 Q1613.16 37.9003 1613.16 48.0275 M1605.7 45.84 Q1605.62 39.7232 1602.26 36.0774 Q1598.94 32.4315 1593.43 32.4315 Q1587.19 32.4315 1583.42 35.9558 Q1579.7 39.4801 1579.13 45.8805 L1605.7 45.84 Z" fill="#000000" fill-rule="nonzero" fill-opacity="1" /><path clip-path="url(#clip050)" d="M1651.68 34.1734 Q1650.43 33.4443 1648.93 33.1202 Q1647.47 32.7556 1645.69 32.7556 Q1639.37 32.7556 1635.96 36.8875 Q1632.6 40.9789 1632.6 48.6757 L1632.6 72.576 L1625.11 72.576 L1625.11 27.2059 L1632.6 27.2059 L1632.6 34.2544 Q1634.95 30.1225 1638.72 28.1376 Q1642.49 26.1121 1647.87 26.1121 Q1648.64 26.1121 1649.58 26.2337 Q1650.51 26.3147 1651.64 26.5172 L1651.68 34.1734 Z" fill="#000000" fill-rule="nonzero" fill-opacity="1" /><path clip-path="url(#clip050)" d="M1654.15 27.2059 L1662.05 27.2059 L1676.23 65.2844 L1690.41 27.2059 L1698.31 27.2059 L1681.29 72.576 L1671.17 72.576 L1654.15 27.2059 Z" fill="#000000" fill-rule="nonzero" fill-opacity="1" /><path clip-path="url(#clip050)" d="M1729.22 49.7694 Q1720.18 49.7694 1716.7 51.8354 Q1713.22 53.9013 1713.22 58.8839 Q1713.22 62.8538 1715.81 65.2034 Q1718.44 67.5124 1722.94 67.5124 Q1729.14 67.5124 1732.86 63.1374 Q1736.63 58.7219 1736.63 51.4303 L1736.63 49.7694 L1729.22 49.7694 M1744.08 46.6907 L1744.08 72.576 L1736.63 72.576 L1736.63 65.6895 Q1734.08 69.8214 1730.27 71.8063 Q1726.46 73.7508 1720.95 73.7508 Q1713.99 73.7508 1709.85 69.8619 Q1705.76 65.9325 1705.76 59.3701 Q1705.76 51.7138 1710.87 47.825 Q1716.01 43.9361 1726.18 43.9361 L1736.63 43.9361 L1736.63 43.2069 Q1736.63 38.0623 1733.23 35.2672 Q1729.86 32.4315 1723.75 32.4315 Q1719.86 32.4315 1716.17 33.3632 Q1712.49 34.295 1709.08 36.1584 L1709.08 29.2718 Q1713.18 27.692 1717.02 26.9223 Q1720.87 26.1121 1724.52 26.1121 Q1734.36 26.1121 1739.22 31.2163 Q1744.08 36.3204 1744.08 46.6907 Z" fill="#000000" fill-rule="nonzero" fill-opacity="1" /><path clip-path="url(#clip050)" d="M1759.44 9.54393 L1766.89 9.54393 L1766.89 72.576 L1759.44 72.576 L1759.44 9.54393 Z" fill="#000000" fill-rule="nonzero" fill-opacity="1" /><path clip-path="url(#clip050)" d="M1811.41 28.5427 L1811.41 35.5912 Q1808.25 33.9709 1804.85 33.1607 Q1801.44 32.3505 1797.8 32.3505 Q1792.25 32.3505 1789.45 34.0519 Q1786.7 35.7533 1786.7 39.156 Q1786.7 41.7486 1788.68 43.2475 Q1790.67 44.7058 1796.66 46.0426 L1799.22 46.6097 Q1807.16 48.3111 1810.48 51.4303 Q1813.84 54.509 1813.84 60.0587 Q1813.84 66.3781 1808.82 70.0644 Q1803.83 73.7508 1795.08 73.7508 Q1791.44 73.7508 1787.47 73.0216 Q1783.54 72.3329 1779.16 70.9151 L1779.16 63.2184 Q1783.3 65.3654 1787.31 66.4591 Q1791.32 67.5124 1795.25 67.5124 Q1800.51 67.5124 1803.35 65.73 Q1806.18 63.9071 1806.18 60.6258 Q1806.18 57.5877 1804.12 55.9673 Q1802.09 54.3469 1795.17 52.8481 L1792.57 52.2405 Q1785.65 50.7821 1782.57 47.7845 Q1779.49 44.7463 1779.49 39.4801 Q1779.49 33.0797 1784.03 29.5959 Q1788.56 26.1121 1796.91 26.1121 Q1801.04 26.1121 1804.69 26.7198 Q1808.33 27.3274 1811.41 28.5427 Z" fill="#000000" fill-rule="nonzero" fill-opacity="1" /><polyline clip-path="url(#clip052)" style="stroke:#009af9; stroke-linecap:round; stroke-linejoin:round; stroke-width:4; stroke-opacity:1; fill:none" points="280.231,1127.71 419.771,701.383 559.31,521.949 698.85,420.884 838.389,385.06 977.929,312.109 1117.47,338.52 1257.01,354.065 1396.55,242.141 1536.09,257.925 1675.63,123.472 1815.17,453.906 1954.71,123.472 2094.24,123.472 2292.39,383.414 "/>
<polyline clip-path="url(#clip052)" style="stroke:#ff0000; stroke-linecap:round; stroke-linejoin:round; stroke-width:4; stroke-opacity:1; fill:none" points="280.231,298.158 280.231,296.433 "/>
<polyline clip-path="url(#clip052)" style="stroke:#ff0000; stroke-linecap:round; stroke-linejoin:round; stroke-width:4; stroke-opacity:1; fill:none" points="419.771,710.969 419.771,692.376 "/>
<polyline clip-path="url(#clip052)" style="stroke:#ff0000; stroke-linecap:round; stroke-linejoin:round; stroke-width:4; stroke-opacity:1; fill:none" points="559.31,535.039 559.31,509.629 "/>
<polyline clip-path="url(#clip052)" style="stroke:#ff0000; stroke-linecap:round; stroke-linejoin:round; stroke-width:4; stroke-opacity:1; fill:none" points="698.85,438.729 698.85,405.383 "/>
<polyline clip-path="url(#clip052)" style="stroke:#ff0000; stroke-linecap:round; stroke-linejoin:round; stroke-width:4; stroke-opacity:1; fill:none" points="838.389,407.583 838.389,363.57 "/>
<polyline clip-path="url(#clip052)" style="stroke:#ff0000; stroke-linecap:round; stroke-linejoin:round; stroke-width:4; stroke-opacity:1; fill:none" points="977.929,337.734 977.929,288.469 "/>
<polyline clip-path="url(#clip052)" style="stroke:#ff0000; stroke-linecap:round; stroke-linejoin:round; stroke-width:4; stroke-opacity:1; fill:none" points="1117.47,373.736 1117.47,306.434 "/>
<polyline clip-path="url(#clip052)" style="stroke:#ff0000; stroke-linecap:round; stroke-linejoin:round; stroke-width:4; stroke-opacity:1; fill:none" points="1257.01,405.088 1257.01,308.848 "/>
<polyline clip-path="url(#clip052)" style="stroke:#ff0000; stroke-linecap:round; stroke-linejoin:round; stroke-width:4; stroke-opacity:1; fill:none" points="1396.55,300.467 1396.55,198.088 "/>
<polyline clip-path="url(#clip052)" style="stroke:#ff0000; stroke-linecap:round; stroke-linejoin:round; stroke-width:4; stroke-opacity:1; fill:none" points="1536.09,337.766 1536.09,200.24 "/>
<polyline clip-path="url(#clip052)" style="stroke:#ff0000; stroke-linecap:round; stroke-linejoin:round; stroke-width:4; stroke-opacity:1; fill:none" points="1675.63,185.852 1675.63,123.472 "/>
<polyline clip-path="url(#clip052)" style="stroke:#ff0000; stroke-linecap:round; stroke-linejoin:round; stroke-width:4; stroke-opacity:1; fill:none" points="1815.17,623.111 1815.17,318.195 "/>
<polyline clip-path="url(#clip052)" style="stroke:#ff0000; stroke-linecap:round; stroke-linejoin:round; stroke-width:4; stroke-opacity:1; fill:none" points="1954.71,524.428 1954.71,123.472 "/>
<polyline clip-path="url(#clip052)" style="stroke:#ff0000; stroke-linecap:round; stroke-linejoin:round; stroke-width:4; stroke-opacity:1; fill:none" points="2094.24,253.485 2094.24,123.472 "/>
<polyline clip-path="url(#clip052)" style="stroke:#ff0000; stroke-linecap:round; stroke-linejoin:round; stroke-width:4; stroke-opacity:1; fill:none" points="2292.39,652.502 2292.39,212.257 "/>
<path clip-path="url(#clip050)" d="M1733.37 1379.86 L2281.66 1379.86 L2281.66 1276.18 L1733.37 1276.18  Z" fill="#ffffff" fill-rule="evenodd" fill-opacity="1"/>
<polyline clip-path="url(#clip050)" style="stroke:#000000; stroke-linecap:round; stroke-linejoin:round; stroke-width:4; stroke-opacity:1; fill:none" points="1733.37,1379.86 2281.66,1379.86 2281.66,1276.18 1733.37,1276.18 1733.37,1379.86 "/>
<polyline clip-path="url(#clip050)" style="stroke:#009af9; stroke-linecap:round; stroke-linejoin:round; stroke-width:4; stroke-opacity:1; fill:none" points="1757.07,1328.02 1899.26,1328.02 "/>
<path clip-path="url(#clip050)" d="M1927.64 1314.58 L1927.64 1327.56 L1933.52 1327.56 Q1936.78 1327.56 1938.56 1325.88 Q1940.35 1324.19 1940.35 1321.06 Q1940.35 1317.96 1938.56 1316.27 Q1936.78 1314.58 1933.52 1314.58 L1927.64 1314.58 M1922.96 1310.74 L1933.52 1310.74 Q1939.33 1310.74 1942.29 1313.38 Q1945.28 1315.99 1945.28 1321.06 Q1945.28 1326.18 1942.29 1328.79 Q1939.33 1331.41 1933.52 1331.41 L1927.64 1331.41 L1927.64 1345.3 L1922.96 1345.3 L1922.96 1310.74 Z" fill="#000000" fill-rule="nonzero" fill-opacity="1" /><path clip-path="url(#clip050)" d="M1959.72 1322.36 Q1956.3 1322.36 1954.31 1325.04 Q1952.31 1327.7 1952.31 1332.36 Q1952.31 1337.01 1954.28 1339.69 Q1956.27 1342.36 1959.72 1342.36 Q1963.12 1342.36 1965.12 1339.67 Q1967.11 1336.99 1967.11 1332.36 Q1967.11 1327.75 1965.12 1325.06 Q1963.12 1322.36 1959.72 1322.36 M1959.72 1318.75 Q1965.28 1318.75 1968.45 1322.36 Q1971.62 1325.97 1971.62 1332.36 Q1971.62 1338.72 1968.45 1342.36 Q1965.28 1345.97 1959.72 1345.97 Q1954.14 1345.97 1950.97 1342.36 Q1947.82 1338.72 1947.82 1332.36 Q1947.82 1325.97 1950.97 1322.36 Q1954.14 1318.75 1959.72 1318.75 Z" fill="#000000" fill-rule="nonzero" fill-opacity="1" /><path clip-path="url(#clip050)" d="M1978.68 1319.37 L1982.94 1319.37 L1982.94 1345.3 L1978.68 1345.3 L1978.68 1319.37 M1978.68 1309.28 L1982.94 1309.28 L1982.94 1314.67 L1978.68 1314.67 L1978.68 1309.28 Z" fill="#000000" fill-rule="nonzero" fill-opacity="1" /><path clip-path="url(#clip050)" d="M2013.4 1329.65 L2013.4 1345.3 L2009.14 1345.3 L2009.14 1329.79 Q2009.14 1326.11 2007.71 1324.28 Q2006.27 1322.45 2003.4 1322.45 Q1999.95 1322.45 1997.96 1324.65 Q1995.97 1326.85 1995.97 1330.64 L1995.97 1345.3 L1991.69 1345.3 L1991.69 1319.37 L1995.97 1319.37 L1995.97 1323.4 Q1997.5 1321.06 1999.56 1319.9 Q2001.64 1318.75 2004.35 1318.75 Q2008.82 1318.75 2011.11 1321.52 Q2013.4 1324.28 2013.4 1329.65 Z" fill="#000000" fill-rule="nonzero" fill-opacity="1" /><path clip-path="url(#clip050)" d="M2026.11 1312.01 L2026.11 1319.37 L2034.88 1319.37 L2034.88 1322.68 L2026.11 1322.68 L2026.11 1336.75 Q2026.11 1339.93 2026.97 1340.83 Q2027.85 1341.73 2030.51 1341.73 L2034.88 1341.73 L2034.88 1345.3 L2030.51 1345.3 Q2025.58 1345.3 2023.7 1343.47 Q2021.83 1341.62 2021.83 1336.75 L2021.83 1322.68 L2018.7 1322.68 L2018.7 1319.37 L2021.83 1319.37 L2021.83 1312.01 L2026.11 1312.01 Z" fill="#000000" fill-rule="nonzero" fill-opacity="1" /><path clip-path="url(#clip050)" d="M2055.74 1310.74 L2077.59 1310.74 L2077.59 1314.67 L2060.42 1314.67 L2060.42 1324.9 L2076.87 1324.9 L2076.87 1328.84 L2060.42 1328.84 L2060.42 1341.36 L2078.01 1341.36 L2078.01 1345.3 L2055.74 1345.3 L2055.74 1310.74 Z" fill="#000000" fill-rule="nonzero" fill-opacity="1" /><path clip-path="url(#clip050)" d="M2102.04 1320.13 L2102.04 1324.16 Q2100.23 1323.24 2098.29 1322.77 Q2096.34 1322.31 2094.26 1322.31 Q2091.09 1322.31 2089.49 1323.28 Q2087.92 1324.25 2087.92 1326.2 Q2087.92 1327.68 2089.05 1328.54 Q2090.18 1329.37 2093.61 1330.13 L2095.07 1330.46 Q2099.61 1331.43 2101.5 1333.21 Q2103.42 1334.97 2103.42 1338.14 Q2103.42 1341.75 2100.55 1343.86 Q2097.71 1345.97 2092.71 1345.97 Q2090.62 1345.97 2088.36 1345.55 Q2086.11 1345.16 2083.61 1344.35 L2083.61 1339.95 Q2085.97 1341.18 2088.26 1341.8 Q2090.55 1342.4 2092.8 1342.4 Q2095.81 1342.4 2097.43 1341.38 Q2099.05 1340.34 2099.05 1338.47 Q2099.05 1336.73 2097.87 1335.81 Q2096.71 1334.88 2092.75 1334.02 L2091.27 1333.68 Q2087.31 1332.84 2085.55 1331.13 Q2083.8 1329.39 2083.8 1326.38 Q2083.8 1322.73 2086.39 1320.74 Q2088.98 1318.75 2093.75 1318.75 Q2096.11 1318.75 2098.19 1319.09 Q2100.28 1319.44 2102.04 1320.13 Z" fill="#000000" fill-rule="nonzero" fill-opacity="1" /><path clip-path="url(#clip050)" d="M2114.42 1312.01 L2114.42 1319.37 L2123.19 1319.37 L2123.19 1322.68 L2114.42 1322.68 L2114.42 1336.75 Q2114.42 1339.93 2115.28 1340.83 Q2116.16 1341.73 2118.82 1341.73 L2123.19 1341.73 L2123.19 1345.3 L2118.82 1345.3 Q2113.89 1345.3 2112.01 1343.47 Q2110.14 1341.62 2110.14 1336.75 L2110.14 1322.68 L2107.01 1322.68 L2107.01 1319.37 L2110.14 1319.37 L2110.14 1312.01 L2114.42 1312.01 Z" fill="#000000" fill-rule="nonzero" fill-opacity="1" /><path clip-path="url(#clip050)" d="M2128.79 1319.37 L2133.05 1319.37 L2133.05 1345.3 L2128.79 1345.3 L2128.79 1319.37 M2128.79 1309.28 L2133.05 1309.28 L2133.05 1314.67 L2128.79 1314.67 L2128.79 1309.28 Z" fill="#000000" fill-rule="nonzero" fill-opacity="1" /><path clip-path="url(#clip050)" d="M2162.15 1324.35 Q2163.75 1321.48 2165.97 1320.11 Q2168.19 1318.75 2171.2 1318.75 Q2175.25 1318.75 2177.45 1321.59 Q2179.65 1324.42 2179.65 1329.65 L2179.65 1345.3 L2175.37 1345.3 L2175.37 1329.79 Q2175.37 1326.06 2174.05 1324.25 Q2172.73 1322.45 2170.02 1322.45 Q2166.71 1322.45 2164.79 1324.65 Q2162.87 1326.85 2162.87 1330.64 L2162.87 1345.3 L2158.59 1345.3 L2158.59 1329.79 Q2158.59 1326.04 2157.27 1324.25 Q2155.95 1322.45 2153.19 1322.45 Q2149.93 1322.45 2148.01 1324.67 Q2146.09 1326.87 2146.09 1330.64 L2146.09 1345.3 L2141.8 1345.3 L2141.8 1319.37 L2146.09 1319.37 L2146.09 1323.4 Q2147.54 1321.01 2149.58 1319.88 Q2151.62 1318.75 2154.42 1318.75 Q2157.24 1318.75 2159.21 1320.18 Q2161.2 1321.62 2162.15 1324.35 Z" fill="#000000" fill-rule="nonzero" fill-opacity="1" /><path clip-path="url(#clip050)" d="M2199.93 1332.26 Q2194.77 1332.26 2192.78 1333.44 Q2190.79 1334.63 2190.79 1337.47 Q2190.79 1339.74 2192.27 1341.08 Q2193.77 1342.4 2196.34 1342.4 Q2199.88 1342.4 2202.01 1339.9 Q2204.16 1337.38 2204.16 1333.21 L2204.16 1332.26 L2199.93 1332.26 M2208.42 1330.5 L2208.42 1345.3 L2204.16 1345.3 L2204.16 1341.36 Q2202.71 1343.72 2200.53 1344.86 Q2198.35 1345.97 2195.21 1345.97 Q2191.23 1345.97 2188.86 1343.75 Q2186.53 1341.5 2186.53 1337.75 Q2186.53 1333.38 2189.44 1331.15 Q2192.38 1328.93 2198.19 1328.93 L2204.16 1328.93 L2204.16 1328.51 Q2204.16 1325.57 2202.22 1323.98 Q2200.3 1322.36 2196.8 1322.36 Q2194.58 1322.36 2192.48 1322.89 Q2190.37 1323.42 2188.42 1324.49 L2188.42 1320.55 Q2190.76 1319.65 2192.96 1319.21 Q2195.16 1318.75 2197.24 1318.75 Q2202.87 1318.75 2205.65 1321.66 Q2208.42 1324.58 2208.42 1330.5 Z" fill="#000000" fill-rule="nonzero" fill-opacity="1" /><path clip-path="url(#clip050)" d="M2221.41 1312.01 L2221.41 1319.37 L2230.18 1319.37 L2230.18 1322.68 L2221.41 1322.68 L2221.41 1336.75 Q2221.41 1339.93 2222.27 1340.83 Q2223.15 1341.73 2225.81 1341.73 L2230.18 1341.73 L2230.18 1345.3 L2225.81 1345.3 Q2220.88 1345.3 2219 1343.47 Q2217.13 1341.62 2217.13 1336.75 L2217.13 1322.68 L2214 1322.68 L2214 1319.37 L2217.13 1319.37 L2217.13 1312.01 L2221.41 1312.01 Z" fill="#000000" fill-rule="nonzero" fill-opacity="1" /><path clip-path="url(#clip050)" d="M2257.96 1331.27 L2257.96 1333.35 L2238.38 1333.35 Q2238.66 1337.75 2241.02 1340.06 Q2243.4 1342.36 2247.64 1342.36 Q2250.09 1342.36 2252.38 1341.75 Q2254.7 1341.15 2256.97 1339.95 L2256.97 1343.98 Q2254.67 1344.95 2252.27 1345.46 Q2249.86 1345.97 2247.38 1345.97 Q2241.18 1345.97 2237.54 1342.36 Q2233.93 1338.75 2233.93 1332.59 Q2233.93 1326.22 2237.36 1322.5 Q2240.81 1318.75 2246.64 1318.75 Q2251.87 1318.75 2254.91 1322.13 Q2257.96 1325.48 2257.96 1331.27 M2253.7 1330.02 Q2253.66 1326.52 2251.73 1324.44 Q2249.84 1322.36 2246.69 1322.36 Q2243.12 1322.36 2240.97 1324.37 Q2238.84 1326.38 2238.52 1330.04 L2253.7 1330.02 Z" fill="#000000" fill-rule="nonzero" fill-opacity="1" /></svg>
