<?xml version="1.0" encoding="utf-8"?>
<svg xmlns="http://www.w3.org/2000/svg" xmlns:xlink="http://www.w3.org/1999/xlink" width="600" height="400" viewBox="0 0 2400 1600">
<defs>
  <clipPath id="clip970">
    <rect x="0" y="0" width="2400" height="1600"/>
  </clipPath>
</defs>
<path clip-path="url(#clip970)" d="M0 1600 L2400 1600 L2400 0 L0 0  Z" fill="#ffffff" fill-rule="evenodd" fill-opacity="1"/>
<defs>
  <clipPath id="clip971">
    <rect x="480" y="0" width="1681" height="1600"/>
  </clipPath>
</defs>
<path clip-path="url(#clip970)" d="M219.866 1423.18 L2352.76 1423.18 L2352.76 47.2441 L219.866 47.2441  Z" fill="#ffffff" fill-rule="evenodd" fill-opacity="1"/>
<defs>
  <clipPath id="clip972">
    <rect x="219" y="47" width="2134" height="1377"/>
  </clipPath>
</defs>
<polyline clip-path="url(#clip972)" style="stroke:#000000; stroke-linecap:round; stroke-linejoin:round; stroke-width:2; stroke-opacity:0.1; fill:none" points="280.231,1423.18 280.231,47.2441 "/>
<polyline clip-path="url(#clip972)" style="stroke:#000000; stroke-linecap:round; stroke-linejoin:round; stroke-width:2; stroke-opacity:0.1; fill:none" points="805.257,1423.18 805.257,47.2441 "/>
<polyline clip-path="url(#clip972)" style="stroke:#000000; stroke-linecap:round; stroke-linejoin:round; stroke-width:2; stroke-opacity:0.1; fill:none" points="1330.28,1423.18 1330.28,47.2441 "/>
<polyline clip-path="url(#clip972)" style="stroke:#000000; stroke-linecap:round; stroke-linejoin:round; stroke-width:2; stroke-opacity:0.1; fill:none" points="1855.31,1423.18 1855.31,47.2441 "/>
<polyline clip-path="url(#clip970)" style="stroke:#000000; stroke-linecap:round; stroke-linejoin:round; stroke-width:4; stroke-opacity:1; fill:none" points="219.866,1423.18 2352.76,1423.18 "/>
<polyline clip-path="url(#clip970)" style="stroke:#000000; stroke-linecap:round; stroke-linejoin:round; stroke-width:4; stroke-opacity:1; fill:none" points="280.231,1423.18 280.231,1404.28 "/>
<polyline clip-path="url(#clip970)" style="stroke:#000000; stroke-linecap:round; stroke-linejoin:round; stroke-width:4; stroke-opacity:1; fill:none" points="805.257,1423.18 805.257,1404.28 "/>
<polyline clip-path="url(#clip970)" style="stroke:#000000; stroke-linecap:round; stroke-linejoin:round; stroke-width:4; stroke-opacity:1; fill:none" points="1330.28,1423.18 1330.28,1404.28 "/>
<polyline clip-path="url(#clip970)" style="stroke:#000000; stroke-linecap:round; stroke-linejoin:round; stroke-width:4; stroke-opacity:1; fill:none" points="1855.31,1423.18 1855.31,1404.28 "/>
<path clip-path="url(#clip970)" d="M280.231 1454.1 Q276.62 1454.1 274.791 1457.66 Q272.986 1461.2 272.986 1468.33 Q272.986 1475.44 274.791 1479.01 Q276.62 1482.55 280.231 1482.55 Q283.865 1482.55 285.671 1479.01 Q287.5 1475.44 287.5 1468.33 Q287.5 1461.2 285.671 1457.66 Q283.865 1454.1 280.231 1454.1 M280.231 1450.39 Q286.041 1450.39 289.097 1455 Q292.175 1459.58 292.175 1468.33 Q292.175 1477.06 289.097 1481.67 Q286.041 1486.25 280.231 1486.25 Q274.421 1486.25 271.342 1481.67 Q268.287 1477.06 268.287 1468.33 Q268.287 1459.58 271.342 1455 Q274.421 1450.39 280.231 1450.39 Z" fill="#000000" fill-rule="nonzero" fill-opacity="1" /><path clip-path="url(#clip970)" d="M799.909 1481.64 L816.229 1481.64 L816.229 1485.58 L794.284 1485.58 L794.284 1481.64 Q796.946 1478.89 801.53 1474.26 Q806.136 1469.61 807.317 1468.27 Q809.562 1465.74 810.442 1464.01 Q811.344 1462.25 811.344 1460.56 Q811.344 1457.8 809.4 1456.07 Q807.479 1454.33 804.377 1454.33 Q802.178 1454.33 799.724 1455.09 Q797.294 1455.86 794.516 1457.41 L794.516 1452.69 Q797.34 1451.55 799.794 1450.97 Q802.247 1450.39 804.284 1450.39 Q809.655 1450.39 812.849 1453.08 Q816.043 1455.77 816.043 1460.26 Q816.043 1462.39 815.233 1464.31 Q814.446 1466.2 812.34 1468.8 Q811.761 1469.47 808.659 1472.69 Q805.557 1475.88 799.909 1481.64 Z" fill="#000000" fill-rule="nonzero" fill-opacity="1" /><path clip-path="url(#clip970)" d="M1333.29 1455.09 L1321.49 1473.54 L1333.29 1473.54 L1333.29 1455.09 M1332.06 1451.02 L1337.94 1451.02 L1337.94 1473.54 L1342.87 1473.54 L1342.87 1477.43 L1337.94 1477.43 L1337.94 1485.58 L1333.29 1485.58 L1333.29 1477.43 L1317.69 1477.43 L1317.69 1472.92 L1332.06 1451.02 Z" fill="#000000" fill-rule="nonzero" fill-opacity="1" /><path clip-path="url(#clip970)" d="M1855.71 1466.44 Q1852.56 1466.44 1850.71 1468.59 Q1848.88 1470.74 1848.88 1474.49 Q1848.88 1478.22 1850.71 1480.39 Q1852.56 1482.55 1855.71 1482.55 Q1858.86 1482.55 1860.69 1480.39 Q1862.54 1478.22 1862.54 1474.49 Q1862.54 1470.74 1860.69 1468.59 Q1858.86 1466.44 1855.71 1466.44 M1864.99 1451.78 L1864.99 1456.04 Q1863.24 1455.21 1861.43 1454.77 Q1859.65 1454.33 1857.89 1454.33 Q1853.26 1454.33 1850.81 1457.45 Q1848.37 1460.58 1848.03 1466.9 Q1849.39 1464.89 1851.45 1463.82 Q1853.51 1462.73 1855.99 1462.73 Q1861.2 1462.73 1864.21 1465.9 Q1867.24 1469.05 1867.24 1474.49 Q1867.24 1479.82 1864.09 1483.03 Q1860.94 1486.25 1855.71 1486.25 Q1849.72 1486.25 1846.55 1481.67 Q1843.37 1477.06 1843.37 1468.33 Q1843.37 1460.14 1847.26 1455.28 Q1851.15 1450.39 1857.7 1450.39 Q1859.46 1450.39 1861.24 1450.74 Q1863.05 1451.09 1864.99 1451.78 Z" fill="#000000" fill-rule="nonzero" fill-opacity="1" /><path clip-path="url(#clip970)" d="M1119.69 1520.52 L1149.73 1520.52 L1149.73 1525.93 L1126.12 1525.93 L1126.12 1540 L1148.75 1540 L1148.75 1545.41 L1126.12 1545.41 L1126.12 1562.63 L1150.31 1562.63 L1150.31 1568.04 L1119.69 1568.04 L1119.69 1520.52 Z" fill="#000000" fill-rule="nonzero" fill-opacity="1" /><path clip-path="url(#clip970)" d="M1178.67 1518.52 L1178.67 1523.39 L1173.07 1523.39 Q1169.91 1523.39 1168.67 1524.66 Q1167.46 1525.93 1167.46 1529.24 L1167.46 1532.4 L1177.11 1532.4 L1177.11 1536.95 L1167.46 1536.95 L1167.46 1568.04 L1161.58 1568.04 L1161.58 1536.95 L1155.97 1536.95 L1155.97 1532.4 L1161.58 1532.4 L1161.58 1529.91 Q1161.58 1523.96 1164.34 1521.26 Q1167.11 1518.52 1173.13 1518.52 L1178.67 1518.52 Z" fill="#000000" fill-rule="nonzero" fill-opacity="1" /><path clip-path="url(#clip970)" d="M1201.62 1518.52 L1201.62 1523.39 L1196.01 1523.39 Q1192.86 1523.39 1191.62 1524.66 Q1190.41 1525.93 1190.41 1529.24 L1190.41 1532.4 L1200.06 1532.4 L1200.06 1536.95 L1190.41 1536.95 L1190.41 1568.04 L1184.52 1568.04 L1184.52 1536.95 L1178.92 1536.95 L1178.92 1532.4 L1184.52 1532.4 L1184.52 1529.91 Q1184.52 1523.96 1187.29 1521.26 Q1190.06 1518.52 1196.08 1518.52 L1201.62 1518.52 Z" fill="#000000" fill-rule="nonzero" fill-opacity="1" /><path clip-path="url(#clip970)" d="M1237.01 1548.76 L1237.01 1551.62 L1210.08 1551.62 Q1210.46 1557.67 1213.71 1560.85 Q1216.99 1564 1222.81 1564 Q1226.19 1564 1229.34 1563.17 Q1232.52 1562.35 1235.64 1560.69 L1235.64 1566.23 Q1232.49 1567.57 1229.18 1568.27 Q1225.87 1568.97 1222.46 1568.97 Q1213.93 1568.97 1208.94 1564 Q1203.97 1559.04 1203.97 1550.57 Q1203.97 1541.82 1208.68 1536.69 Q1213.42 1531.54 1221.44 1531.54 Q1228.64 1531.54 1232.81 1536.18 Q1237.01 1540.8 1237.01 1548.76 M1231.15 1547.04 Q1231.09 1542.23 1228.45 1539.37 Q1225.84 1536.5 1221.51 1536.5 Q1216.61 1536.5 1213.65 1539.27 Q1210.72 1542.04 1210.27 1547.07 L1231.15 1547.04 Z" fill="#000000" fill-rule="nonzero" fill-opacity="1" /><path clip-path="url(#clip970)" d="M1272.27 1533.76 L1272.27 1539.24 Q1269.79 1537.87 1267.28 1537.2 Q1264.79 1536.5 1262.25 1536.5 Q1256.55 1536.5 1253.4 1540.13 Q1250.25 1543.73 1250.25 1550.25 Q1250.25 1556.78 1253.4 1560.4 Q1256.55 1564 1262.25 1564 Q1264.79 1564 1267.28 1563.33 Q1269.79 1562.63 1272.27 1561.26 L1272.27 1566.68 Q1269.82 1567.82 1267.18 1568.39 Q1264.57 1568.97 1261.61 1568.97 Q1253.56 1568.97 1248.82 1563.91 Q1244.07 1558.85 1244.07 1550.25 Q1244.07 1541.53 1248.85 1536.53 Q1253.66 1531.54 1261.99 1531.54 Q1264.7 1531.54 1267.28 1532.11 Q1269.86 1532.65 1272.27 1533.76 Z" fill="#000000" fill-rule="nonzero" fill-opacity="1" /><path clip-path="url(#clip970)" d="M1288.25 1522.27 L1288.25 1532.4 L1300.32 1532.4 L1300.32 1536.95 L1288.25 1536.95 L1288.25 1556.3 Q1288.25 1560.66 1289.43 1561.9 Q1290.64 1563.14 1294.3 1563.14 L1300.32 1563.14 L1300.32 1568.04 L1294.3 1568.04 Q1287.52 1568.04 1284.94 1565.53 Q1282.36 1562.98 1282.36 1556.3 L1282.36 1536.95 L1278.07 1536.95 L1278.07 1532.4 L1282.36 1532.4 L1282.36 1522.27 L1288.25 1522.27 Z" fill="#000000" fill-rule="nonzero" fill-opacity="1" /><path clip-path="url(#clip970)" d="M1357.48 1522.08 L1357.48 1528.35 Q1353.82 1526.6 1350.57 1525.74 Q1347.33 1524.88 1344.3 1524.88 Q1339.05 1524.88 1336.19 1526.92 Q1333.35 1528.96 1333.35 1532.71 Q1333.35 1535.87 1335.23 1537.49 Q1337.14 1539.08 1342.42 1540.07 L1346.31 1540.86 Q1353.5 1542.23 1356.91 1545.7 Q1360.34 1549.14 1360.34 1554.93 Q1360.34 1561.84 1355.7 1565.4 Q1351.08 1568.97 1342.14 1568.97 Q1338.76 1568.97 1334.95 1568.2 Q1331.16 1567.44 1327.08 1565.94 L1327.08 1559.32 Q1331 1561.52 1334.75 1562.63 Q1338.51 1563.75 1342.14 1563.75 Q1347.64 1563.75 1350.64 1561.58 Q1353.63 1559.42 1353.63 1555.41 Q1353.63 1551.91 1351.46 1549.93 Q1349.33 1547.96 1344.43 1546.97 L1340.52 1546.21 Q1333.32 1544.78 1330.11 1541.72 Q1326.89 1538.67 1326.89 1533.22 Q1326.89 1526.92 1331.32 1523.29 Q1335.77 1519.66 1343.57 1519.66 Q1346.91 1519.66 1350.38 1520.27 Q1353.85 1520.87 1357.48 1522.08 Z" fill="#000000" fill-rule="nonzero" fill-opacity="1" /><path clip-path="url(#clip970)" d="M1370.12 1532.4 L1375.97 1532.4 L1375.97 1568.04 L1370.12 1568.04 L1370.12 1532.4 M1370.12 1518.52 L1375.97 1518.52 L1375.97 1525.93 L1370.12 1525.93 L1370.12 1518.52 Z" fill="#000000" fill-rule="nonzero" fill-opacity="1" /><path clip-path="url(#clip970)" d="M1385.68 1532.4 L1413.5 1532.4 L1413.5 1537.74 L1391.47 1563.37 L1413.5 1563.37 L1413.5 1568.04 L1384.88 1568.04 L1384.88 1562.7 L1406.91 1537.07 L1385.68 1537.07 L1385.68 1532.4 Z" fill="#000000" fill-rule="nonzero" fill-opacity="1" /><path clip-path="url(#clip970)" d="M1452.93 1548.76 L1452.93 1551.62 L1426.01 1551.62 Q1426.39 1557.67 1429.63 1560.85 Q1432.91 1564 1438.74 1564 Q1442.11 1564 1445.26 1563.17 Q1448.45 1562.35 1451.56 1560.69 L1451.56 1566.23 Q1448.41 1567.57 1445.1 1568.27 Q1441.79 1568.97 1438.39 1568.97 Q1429.86 1568.97 1424.86 1564 Q1419.9 1559.04 1419.9 1550.57 Q1419.9 1541.82 1424.61 1536.69 Q1429.35 1531.54 1437.37 1531.54 Q1444.56 1531.54 1448.73 1536.18 Q1452.93 1540.8 1452.93 1548.76 M1447.08 1547.04 Q1447.01 1542.23 1444.37 1539.37 Q1441.76 1536.5 1437.43 1536.5 Q1432.53 1536.5 1429.57 1539.27 Q1426.64 1542.04 1426.2 1547.07 L1447.08 1547.04 Z" fill="#000000" fill-rule="nonzero" fill-opacity="1" /><polyline clip-path="url(#clip972)" style="stroke:#000000; stroke-linecap:round; stroke-linejoin:round; stroke-width:2; stroke-opacity:0.1; fill:none" points="219.866,1423.18 2352.76,1423.18 "/>
<polyline clip-path="url(#clip972)" style="stroke:#000000; stroke-linecap:round; stroke-linejoin:round; stroke-width:2; stroke-opacity:0.1; fill:none" points="219.866,1147.99 2352.76,1147.99 "/>
<polyline clip-path="url(#clip972)" style="stroke:#000000; stroke-linecap:round; stroke-linejoin:round; stroke-width:2; stroke-opacity:0.1; fill:none" points="219.866,872.806 2352.76,872.806 "/>
<polyline clip-path="url(#clip972)" style="stroke:#000000; stroke-linecap:round; stroke-linejoin:round; stroke-width:2; stroke-opacity:0.1; fill:none" points="219.866,597.618 2352.76,597.618 "/>
<polyline clip-path="url(#clip972)" style="stroke:#000000; stroke-linecap:round; stroke-linejoin:round; stroke-width:2; stroke-opacity:0.1; fill:none" points="219.866,322.431 2352.76,322.431 "/>
<polyline clip-path="url(#clip972)" style="stroke:#000000; stroke-linecap:round; stroke-linejoin:round; stroke-width:2; stroke-opacity:0.1; fill:none" points="219.866,47.2441 2352.76,47.2441 "/>
<polyline clip-path="url(#clip970)" style="stroke:#000000; stroke-linecap:round; stroke-linejoin:round; stroke-width:4; stroke-opacity:1; fill:none" points="219.866,1423.18 219.866,47.2441 "/>
<polyline clip-path="url(#clip970)" style="stroke:#000000; stroke-linecap:round; stroke-linejoin:round; stroke-width:4; stroke-opacity:1; fill:none" points="219.866,1423.18 238.764,1423.18 "/>
<polyline clip-path="url(#clip970)" style="stroke:#000000; stroke-linecap:round; stroke-linejoin:round; stroke-width:4; stroke-opacity:1; fill:none" points="219.866,1147.99 238.764,1147.99 "/>
<polyline clip-path="url(#clip970)" style="stroke:#000000; stroke-linecap:round; stroke-linejoin:round; stroke-width:4; stroke-opacity:1; fill:none" points="219.866,872.806 238.764,872.806 "/>
<polyline clip-path="url(#clip970)" style="stroke:#000000; stroke-linecap:round; stroke-linejoin:round; stroke-width:4; stroke-opacity:1; fill:none" points="219.866,597.618 238.764,597.618 "/>
<polyline clip-path="url(#clip970)" style="stroke:#000000; stroke-linecap:round; stroke-linejoin:round; stroke-width:4; stroke-opacity:1; fill:none" points="219.866,322.431 238.764,322.431 "/>
<polyline clip-path="url(#clip970)" style="stroke:#000000; stroke-linecap:round; stroke-linejoin:round; stroke-width:4; stroke-opacity:1; fill:none" points="219.866,47.2441 238.764,47.2441 "/>
<path clip-path="url(#clip970)" d="M126.691 1408.98 Q123.08 1408.98 121.251 1412.54 Q119.445 1416.08 119.445 1423.21 Q119.445 1430.32 121.251 1433.89 Q123.08 1437.43 126.691 1437.43 Q130.325 1437.43 132.13 1433.89 Q133.959 1430.32 133.959 1423.21 Q133.959 1416.08 132.13 1412.54 Q130.325 1408.98 126.691 1408.98 M126.691 1405.27 Q132.501 1405.27 135.556 1409.88 Q138.635 1414.46 138.635 1423.21 Q138.635 1431.94 135.556 1436.55 Q132.501 1441.13 126.691 1441.13 Q120.88 1441.13 117.802 1436.55 Q114.746 1431.94 114.746 1423.21 Q114.746 1414.46 117.802 1409.88 Q120.88 1405.27 126.691 1405.27 Z" fill="#000000" fill-rule="nonzero" fill-opacity="1" /><path clip-path="url(#clip970)" d="M146.853 1434.58 L151.737 1434.58 L151.737 1440.46 L146.853 1440.46 L146.853 1434.58 Z" fill="#000000" fill-rule="nonzero" fill-opacity="1" /><path clip-path="url(#clip970)" d="M171.922 1408.98 Q168.311 1408.98 166.482 1412.54 Q164.677 1416.08 164.677 1423.21 Q164.677 1430.32 166.482 1433.89 Q168.311 1437.43 171.922 1437.43 Q175.556 1437.43 177.362 1433.89 Q179.19 1430.32 179.19 1423.21 Q179.19 1416.08 177.362 1412.54 Q175.556 1408.98 171.922 1408.98 M171.922 1405.27 Q177.732 1405.27 180.788 1409.88 Q183.866 1414.46 183.866 1423.21 Q183.866 1431.94 180.788 1436.55 Q177.732 1441.13 171.922 1441.13 Q166.112 1441.13 163.033 1436.55 Q159.978 1431.94 159.978 1423.21 Q159.978 1414.46 163.033 1409.88 Q166.112 1405.27 171.922 1405.27 Z" fill="#000000" fill-rule="nonzero" fill-opacity="1" /><path clip-path="url(#clip970)" d="M128.288 1133.79 Q124.677 1133.79 122.848 1137.36 Q121.043 1140.9 121.043 1148.03 Q121.043 1155.13 122.848 1158.7 Q124.677 1162.24 128.288 1162.24 Q131.922 1162.24 133.728 1158.7 Q135.556 1155.13 135.556 1148.03 Q135.556 1140.9 133.728 1137.36 Q131.922 1133.79 128.288 1133.79 M128.288 1130.09 Q134.098 1130.09 137.154 1134.69 Q140.232 1139.28 140.232 1148.03 Q140.232 1156.75 137.154 1161.36 Q134.098 1165.94 128.288 1165.94 Q122.478 1165.94 119.399 1161.36 Q116.343 1156.75 116.343 1148.03 Q116.343 1139.28 119.399 1134.69 Q122.478 1130.09 128.288 1130.09 Z" fill="#000000" fill-rule="nonzero" fill-opacity="1" /><path clip-path="url(#clip970)" d="M148.45 1159.39 L153.334 1159.39 L153.334 1165.27 L148.45 1165.27 L148.45 1159.39 Z" fill="#000000" fill-rule="nonzero" fill-opacity="1" /><path clip-path="url(#clip970)" d="M167.547 1161.34 L183.866 1161.34 L183.866 1165.27 L161.922 1165.27 L161.922 1161.34 Q164.584 1158.58 169.167 1153.95 Q173.774 1149.3 174.954 1147.96 Q177.2 1145.43 178.079 1143.7 Q178.982 1141.94 178.982 1140.25 Q178.982 1137.5 177.038 1135.76 Q175.116 1134.02 172.014 1134.02 Q169.815 1134.02 167.362 1134.79 Q164.931 1135.55 162.153 1137.1 L162.153 1132.38 Q164.977 1131.25 167.431 1130.67 Q169.885 1130.09 171.922 1130.09 Q177.292 1130.09 180.487 1132.77 Q183.681 1135.46 183.681 1139.95 Q183.681 1142.08 182.871 1144 Q182.084 1145.9 179.977 1148.49 Q179.399 1149.16 176.297 1152.38 Q173.195 1155.57 167.547 1161.34 Z" fill="#000000" fill-rule="nonzero" fill-opacity="1" /><path clip-path="url(#clip970)" d="M126.205 858.604 Q122.593 858.604 120.765 862.169 Q118.959 865.711 118.959 872.84 Q118.959 879.947 120.765 883.512 Q122.593 887.053 126.205 887.053 Q129.839 887.053 131.644 883.512 Q133.473 879.947 133.473 872.84 Q133.473 865.711 131.644 862.169 Q129.839 858.604 126.205 858.604 M126.205 854.901 Q132.015 854.901 135.07 859.507 Q138.149 864.09 138.149 872.84 Q138.149 881.567 135.07 886.174 Q132.015 890.757 126.205 890.757 Q120.394 890.757 117.316 886.174 Q114.26 881.567 114.26 872.84 Q114.26 864.09 117.316 859.507 Q120.394 854.901 126.205 854.901 Z" fill="#000000" fill-rule="nonzero" fill-opacity="1" /><path clip-path="url(#clip970)" d="M146.366 884.206 L151.251 884.206 L151.251 890.086 L146.366 890.086 L146.366 884.206 Z" fill="#000000" fill-rule="nonzero" fill-opacity="1" /><path clip-path="url(#clip970)" d="M174.283 859.6 L162.477 878.049 L174.283 878.049 L174.283 859.6 M173.056 855.526 L178.936 855.526 L178.936 878.049 L183.866 878.049 L183.866 881.937 L178.936 881.937 L178.936 890.086 L174.283 890.086 L174.283 881.937 L158.681 881.937 L158.681 877.424 L173.056 855.526 Z" fill="#000000" fill-rule="nonzero" fill-opacity="1" /><path clip-path="url(#clip970)" d="M126.529 583.417 Q122.918 583.417 121.089 586.982 Q119.283 590.524 119.283 597.653 Q119.283 604.76 121.089 608.324 Q122.918 611.866 126.529 611.866 Q130.163 611.866 131.968 608.324 Q133.797 604.76 133.797 597.653 Q133.797 590.524 131.968 586.982 Q130.163 583.417 126.529 583.417 M126.529 579.713 Q132.339 579.713 135.394 584.32 Q138.473 588.903 138.473 597.653 Q138.473 606.38 135.394 610.986 Q132.339 615.57 126.529 615.57 Q120.718 615.57 117.64 610.986 Q114.584 606.38 114.584 597.653 Q114.584 588.903 117.64 584.32 Q120.718 579.713 126.529 579.713 Z" fill="#000000" fill-rule="nonzero" fill-opacity="1" /><path clip-path="url(#clip970)" d="M146.691 609.019 L151.575 609.019 L151.575 614.898 L146.691 614.898 L146.691 609.019 Z" fill="#000000" fill-rule="nonzero" fill-opacity="1" /><path clip-path="url(#clip970)" d="M172.339 595.755 Q169.19 595.755 167.339 597.908 Q165.51 600.061 165.51 603.81 Q165.51 607.537 167.339 609.713 Q169.19 611.866 172.339 611.866 Q175.487 611.866 177.315 609.713 Q179.167 607.537 179.167 603.81 Q179.167 600.061 177.315 597.908 Q175.487 595.755 172.339 595.755 M181.621 581.102 L181.621 585.362 Q179.862 584.528 178.056 584.088 Q176.274 583.649 174.514 583.649 Q169.885 583.649 167.431 586.774 Q165.001 589.899 164.653 596.218 Q166.019 594.204 168.079 593.139 Q170.139 592.051 172.616 592.051 Q177.825 592.051 180.834 595.223 Q183.866 598.371 183.866 603.81 Q183.866 609.135 180.718 612.352 Q177.57 615.57 172.339 615.57 Q166.343 615.57 163.172 610.986 Q160.001 606.38 160.001 597.653 Q160.001 589.459 163.89 584.598 Q167.778 579.713 174.329 579.713 Q176.089 579.713 177.871 580.061 Q179.676 580.408 181.621 581.102 Z" fill="#000000" fill-rule="nonzero" fill-opacity="1" /><path clip-path="url(#clip970)" d="M126.783 308.23 Q123.172 308.23 121.343 311.795 Q119.538 315.336 119.538 322.466 Q119.538 329.572 121.343 333.137 Q123.172 336.679 126.783 336.679 Q130.417 336.679 132.223 333.137 Q134.052 329.572 134.052 322.466 Q134.052 315.336 132.223 311.795 Q130.417 308.23 126.783 308.23 M126.783 304.526 Q132.593 304.526 135.649 309.133 Q138.728 313.716 138.728 322.466 Q138.728 331.193 135.649 335.799 Q132.593 340.383 126.783 340.383 Q120.973 340.383 117.894 335.799 Q114.839 331.193 114.839 322.466 Q114.839 313.716 117.894 309.133 Q120.973 304.526 126.783 304.526 Z" fill="#000000" fill-rule="nonzero" fill-opacity="1" /><path clip-path="url(#clip970)" d="M146.945 333.832 L151.829 333.832 L151.829 339.711 L146.945 339.711 L146.945 333.832 Z" fill="#000000" fill-rule="nonzero" fill-opacity="1" /><path clip-path="url(#clip970)" d="M172.014 323.299 Q168.681 323.299 166.76 325.082 Q164.862 326.864 164.862 329.989 Q164.862 333.114 166.76 334.896 Q168.681 336.679 172.014 336.679 Q175.348 336.679 177.269 334.896 Q179.19 333.091 179.19 329.989 Q179.19 326.864 177.269 325.082 Q175.371 323.299 172.014 323.299 M167.339 321.309 Q164.329 320.568 162.64 318.508 Q160.973 316.447 160.973 313.485 Q160.973 309.341 163.913 306.934 Q166.876 304.526 172.014 304.526 Q177.176 304.526 180.116 306.934 Q183.056 309.341 183.056 313.485 Q183.056 316.447 181.366 318.508 Q179.7 320.568 176.714 321.309 Q180.093 322.096 181.968 324.387 Q183.866 326.679 183.866 329.989 Q183.866 335.012 180.788 337.697 Q177.732 340.383 172.014 340.383 Q166.297 340.383 163.218 337.697 Q160.163 335.012 160.163 329.989 Q160.163 326.679 162.061 324.387 Q163.959 322.096 167.339 321.309 M165.626 313.924 Q165.626 316.61 167.292 318.114 Q168.982 319.619 172.014 319.619 Q175.024 319.619 176.714 318.114 Q178.426 316.61 178.426 313.924 Q178.426 311.239 176.714 309.735 Q175.024 308.23 172.014 308.23 Q168.982 308.23 167.292 309.735 Q165.626 311.239 165.626 313.924 Z" fill="#000000" fill-rule="nonzero" fill-opacity="1" /><path clip-path="url(#clip970)" d="M117.501 60.5889 L125.14 60.5889 L125.14 34.2233 L116.83 35.89 L116.83 31.6308 L125.093 29.9641 L129.769 29.9641 L129.769 60.5889 L137.408 60.5889 L137.408 64.5241 L117.501 64.5241 L117.501 60.5889 Z" fill="#000000" fill-rule="nonzero" fill-opacity="1" /><path clip-path="url(#clip970)" d="M146.853 58.6445 L151.737 58.6445 L151.737 64.5241 L146.853 64.5241 L146.853 58.6445 Z" fill="#000000" fill-rule="nonzero" fill-opacity="1" /><path clip-path="url(#clip970)" d="M171.922 33.0428 Q168.311 33.0428 166.482 36.6076 Q164.677 40.1492 164.677 47.2788 Q164.677 54.3853 166.482 57.9501 Q168.311 61.4917 171.922 61.4917 Q175.556 61.4917 177.362 57.9501 Q179.19 54.3853 179.19 47.2788 Q179.19 40.1492 177.362 36.6076 Q175.556 33.0428 171.922 33.0428 M171.922 29.3391 Q177.732 29.3391 180.788 33.9456 Q183.866 38.5289 183.866 47.2788 Q183.866 56.0056 180.788 60.6121 Q177.732 65.1954 171.922 65.1954 Q166.112 65.1954 163.033 60.6121 Q159.978 56.0056 159.978 47.2788 Q159.978 38.5289 163.033 33.9456 Q166.112 29.3391 171.922 29.3391 Z" fill="#000000" fill-rule="nonzero" fill-opacity="1" /><path clip-path="url(#clip970)" d="M21.7677 1244.36 L39.6235 1244.36 L39.6235 1236.27 Q39.6235 1231.78 37.3 1229.33 Q34.9765 1226.88 30.6797 1226.88 Q26.4147 1226.88 24.0912 1229.33 Q21.7677 1231.78 21.7677 1236.27 L21.7677 1244.36 M16.4842 1250.79 L16.4842 1236.27 Q16.4842 1228.28 20.1126 1224.21 Q23.7092 1220.1 30.6797 1220.1 Q37.7138 1220.1 41.3104 1224.21 Q44.907 1228.28 44.907 1236.27 L44.907 1244.36 L64.0042 1244.36 L64.0042 1250.79 L16.4842 1250.79 Z" fill="#000000" fill-rule="nonzero" fill-opacity="1" /><path clip-path="url(#clip970)" d="M33.8307 1192.22 Q33.2578 1193.21 33.0032 1194.39 Q32.7167 1195.53 32.7167 1196.93 Q32.7167 1201.9 35.9632 1204.57 Q39.1779 1207.21 45.2253 1207.21 L64.0042 1207.21 L64.0042 1213.1 L28.3562 1213.1 L28.3562 1207.21 L33.8944 1207.21 Q30.6479 1205.37 29.0883 1202.41 Q27.4968 1199.45 27.4968 1195.21 Q27.4968 1194.61 27.5923 1193.88 Q27.656 1193.14 27.8151 1192.25 L33.8307 1192.22 Z" fill="#000000" fill-rule="nonzero" fill-opacity="1" /><path clip-path="url(#clip970)" d="M32.4621 1173.7 Q32.4621 1178.41 36.1542 1181.15 Q39.8145 1183.88 46.212 1183.88 Q52.6095 1183.88 56.3017 1181.18 Q59.9619 1178.44 59.9619 1173.7 Q59.9619 1169.02 56.2698 1166.28 Q52.5777 1163.54 46.212 1163.54 Q39.8781 1163.54 36.186 1166.28 Q32.4621 1169.02 32.4621 1173.7 M27.4968 1173.7 Q27.4968 1166.06 32.4621 1161.7 Q37.4273 1157.34 46.212 1157.34 Q54.9649 1157.34 59.9619 1161.7 Q64.9272 1166.06 64.9272 1173.7 Q64.9272 1181.37 59.9619 1185.73 Q54.9649 1190.06 46.212 1190.06 Q37.4273 1190.06 32.4621 1185.73 Q27.4968 1181.37 27.4968 1173.7 Z" fill="#000000" fill-rule="nonzero" fill-opacity="1" /><path clip-path="url(#clip970)" d="M58.657 1141.96 L77.5631 1141.96 L77.5631 1147.85 L28.3562 1147.85 L28.3562 1141.96 L33.7671 1141.96 Q30.5842 1140.12 29.0564 1137.32 Q27.4968 1134.49 27.4968 1130.57 Q27.4968 1124.08 32.6531 1120.03 Q37.8093 1115.96 46.212 1115.96 Q54.6147 1115.96 59.771 1120.03 Q64.9272 1124.08 64.9272 1130.57 Q64.9272 1134.49 63.3994 1137.32 Q61.8398 1140.12 58.657 1141.96 M46.212 1122.04 Q39.7508 1122.04 36.0905 1124.71 Q32.3984 1127.36 32.3984 1132 Q32.3984 1136.65 36.0905 1139.32 Q39.7508 1141.96 46.212 1141.96 Q52.6732 1141.96 56.3653 1139.32 Q60.0256 1136.65 60.0256 1132 Q60.0256 1127.36 56.3653 1124.71 Q52.6732 1122.04 46.212 1122.04 Z" fill="#000000" fill-rule="nonzero" fill-opacity="1" /><path clip-path="url(#clip970)" d="M32.4621 1092.44 Q32.4621 1097.15 36.1542 1099.89 Q39.8145 1102.62 46.212 1102.62 Q52.6095 1102.62 56.3017 1099.92 Q59.9619 1097.18 59.9619 1092.44 Q59.9619 1087.76 56.2698 1085.02 Q52.5777 1082.29 46.212 1082.29 Q39.8781 1082.29 36.186 1085.02 Q32.4621 1087.76 32.4621 1092.44 M27.4968 1092.44 Q27.4968 1084.8 32.4621 1080.44 Q37.4273 1076.08 46.212 1076.08 Q54.9649 1076.08 59.9619 1080.44 Q64.9272 1084.8 64.9272 1092.44 Q64.9272 1100.11 59.9619 1104.47 Q54.9649 1108.8 46.212 1108.8 Q37.4273 1108.8 32.4621 1104.47 Q27.4968 1100.11 27.4968 1092.44 Z" fill="#000000" fill-rule="nonzero" fill-opacity="1" /><path clip-path="url(#clip970)" d="M33.8307 1045.72 Q33.2578 1046.7 33.0032 1047.88 Q32.7167 1049.03 32.7167 1050.43 Q32.7167 1055.39 35.9632 1058.06 Q39.1779 1060.71 45.2253 1060.71 L64.0042 1060.71 L64.0042 1066.59 L28.3562 1066.59 L28.3562 1060.71 L33.8944 1060.71 Q30.6479 1058.86 29.0883 1055.9 Q27.4968 1052.94 27.4968 1048.71 Q27.4968 1048.1 27.5923 1047.37 Q27.656 1046.64 27.8151 1045.75 L33.8307 1045.72 Z" fill="#000000" fill-rule="nonzero" fill-opacity="1" /><path clip-path="url(#clip970)" d="M18.2347 1033.78 L28.3562 1033.78 L28.3562 1021.72 L32.9077 1021.72 L32.9077 1033.78 L52.2594 1033.78 Q56.6199 1033.78 57.8613 1032.6 Q59.1026 1031.39 59.1026 1027.73 L59.1026 1021.72 L64.0042 1021.72 L64.0042 1027.73 Q64.0042 1034.51 61.4897 1037.09 Q58.9434 1039.67 52.2594 1039.67 L32.9077 1039.67 L32.9077 1043.96 L28.3562 1043.96 L28.3562 1039.67 L18.2347 1039.67 L18.2347 1033.78 Z" fill="#000000" fill-rule="nonzero" fill-opacity="1" /><path clip-path="url(#clip970)" d="M28.3562 1014.01 L28.3562 1008.16 L64.0042 1008.16 L64.0042 1014.01 L28.3562 1014.01 M14.479 1014.01 L14.479 1008.16 L21.895 1008.16 L21.895 1014.01 L14.479 1014.01 Z" fill="#000000" fill-rule="nonzero" fill-opacity="1" /><path clip-path="url(#clip970)" d="M32.4621 982.09 Q32.4621 986.801 36.1542 989.538 Q39.8145 992.275 46.212 992.275 Q52.6095 992.275 56.3017 989.57 Q59.9619 986.832 59.9619 982.09 Q59.9619 977.411 56.2698 974.674 Q52.5777 971.937 46.212 971.937 Q39.8781 971.937 36.186 974.674 Q32.4621 977.411 32.4621 982.09 M27.4968 982.09 Q27.4968 974.451 32.4621 970.091 Q37.4273 965.73 46.212 965.73 Q54.9649 965.73 59.9619 970.091 Q64.9272 974.451 64.9272 982.09 Q64.9272 989.761 59.9619 994.121 Q54.9649 998.45 46.212 998.45 Q37.4273 998.45 32.4621 994.121 Q27.4968 989.761 27.4968 982.09 Z" fill="#000000" fill-rule="nonzero" fill-opacity="1" /><path clip-path="url(#clip970)" d="M42.4881 926.39 L64.0042 926.39 L64.0042 932.247 L42.679 932.247 Q37.6183 932.247 35.1038 934.22 Q32.5894 936.193 32.5894 940.14 Q32.5894 944.882 35.6131 947.62 Q38.6368 950.357 43.8567 950.357 L64.0042 950.357 L64.0042 956.245 L28.3562 956.245 L28.3562 950.357 L33.8944 950.357 Q30.6797 948.256 29.0883 945.424 Q27.4968 942.559 27.4968 938.835 Q27.4968 932.692 31.3163 929.541 Q35.1038 926.39 42.4881 926.39 Z" fill="#000000" fill-rule="nonzero" fill-opacity="1" /><path clip-path="url(#clip970)" d="M32.4621 880.175 Q32.4621 884.886 36.1542 887.623 Q39.8145 890.36 46.212 890.36 Q52.6095 890.36 56.3017 887.655 Q59.9619 884.917 59.9619 880.175 Q59.9619 875.496 56.2698 872.759 Q52.5777 870.022 46.212 870.022 Q39.8781 870.022 36.186 872.759 Q32.4621 875.496 32.4621 880.175 M27.4968 880.175 Q27.4968 872.536 32.4621 868.176 Q37.4273 863.815 46.212 863.815 Q54.9649 863.815 59.9619 868.176 Q64.9272 872.536 64.9272 880.175 Q64.9272 887.846 59.9619 892.206 Q54.9649 896.535 46.212 896.535 Q37.4273 896.535 32.4621 892.206 Q27.4968 887.846 27.4968 880.175 Z" fill="#000000" fill-rule="nonzero" fill-opacity="1" /><path clip-path="url(#clip970)" d="M14.479 836.061 L19.3487 836.061 L19.3487 841.662 Q19.3487 844.814 20.6219 846.055 Q21.895 847.264 25.2052 847.264 L28.3562 847.264 L28.3562 837.62 L32.9077 837.62 L32.9077 847.264 L64.0042 847.264 L64.0042 853.153 L32.9077 853.153 L32.9077 858.754 L28.3562 858.754 L28.3562 853.153 L25.8736 853.153 Q19.9216 853.153 17.2162 850.384 Q14.479 847.614 14.479 841.599 L14.479 836.061 Z" fill="#000000" fill-rule="nonzero" fill-opacity="1" /><path clip-path="url(#clip970)" d="M18.0438 781.698 L24.314 781.698 Q22.5634 785.358 21.704 788.604 Q20.8447 791.851 20.8447 794.875 Q20.8447 800.126 22.8817 802.991 Q24.9187 805.824 28.6745 805.824 Q31.8255 805.824 33.4488 803.946 Q35.0402 802.036 36.0269 796.752 L36.8226 792.869 Q38.1912 785.676 41.6605 782.27 Q45.098 778.833 50.8908 778.833 Q57.7976 778.833 61.3624 783.48 Q64.9272 788.095 64.9272 797.039 Q64.9272 800.413 64.1633 804.232 Q63.3994 808.02 61.9035 812.094 L55.2831 812.094 Q57.4793 808.179 58.5933 804.423 Q59.7073 800.667 59.7073 797.039 Q59.7073 791.533 57.543 788.541 Q55.3786 785.549 51.3682 785.549 Q47.8671 785.549 45.8937 787.713 Q43.9204 789.846 42.9337 794.747 L42.1698 798.662 Q40.7375 805.855 37.682 809.07 Q34.6264 812.285 29.1837 812.285 Q22.8817 812.285 19.2532 807.861 Q15.6248 803.405 15.6248 795.607 Q15.6248 792.265 16.2295 788.795 Q16.8343 785.326 18.0438 781.698 Z" fill="#000000" fill-rule="nonzero" fill-opacity="1" /><path clip-path="url(#clip970)" d="M49.9359 769.666 L28.3562 769.666 L28.3562 763.81 L49.7131 763.81 Q54.7739 763.81 57.3202 761.837 Q59.8346 759.863 59.8346 755.916 Q59.8346 751.174 56.8109 748.437 Q53.7872 745.668 48.5673 745.668 L28.3562 745.668 L28.3562 739.811 L64.0042 739.811 L64.0042 745.668 L58.5296 745.668 Q61.7762 747.8 63.3676 750.633 Q64.9272 753.434 64.9272 757.158 Q64.9272 763.301 61.1078 766.484 Q57.2883 769.666 49.9359 769.666 M27.4968 754.93 L27.4968 754.93 Z" fill="#000000" fill-rule="nonzero" fill-opacity="1" /><path clip-path="url(#clip970)" d="M29.7248 702.094 L35.1993 702.094 Q33.8307 704.577 33.1623 707.091 Q32.4621 709.574 32.4621 712.12 Q32.4621 717.818 36.0905 720.969 Q39.6872 724.12 46.212 724.12 Q52.7369 724.12 56.3653 720.969 Q59.9619 717.818 59.9619 712.12 Q59.9619 709.574 59.2935 707.091 Q58.5933 704.577 57.2247 702.094 L62.6355 702.094 Q63.7814 704.545 64.3543 707.187 Q64.9272 709.797 64.9272 712.757 Q64.9272 720.81 59.8664 725.552 Q54.8057 730.294 46.212 730.294 Q37.491 730.294 32.4939 725.52 Q27.4968 720.714 27.4968 712.375 Q27.4968 709.67 28.0697 707.091 Q28.6108 704.513 29.7248 702.094 Z" fill="#000000" fill-rule="nonzero" fill-opacity="1" /><path clip-path="url(#clip970)" d="M29.7248 666.255 L35.1993 666.255 Q33.8307 668.738 33.1623 671.253 Q32.4621 673.735 32.4621 676.281 Q32.4621 681.979 36.0905 685.13 Q39.6872 688.281 46.212 688.281 Q52.7369 688.281 56.3653 685.13 Q59.9619 681.979 59.9619 676.281 Q59.9619 673.735 59.2935 671.253 Q58.5933 668.738 57.2247 666.255 L62.6355 666.255 Q63.7814 668.706 64.3543 671.348 Q64.9272 673.958 64.9272 676.918 Q64.9272 684.971 59.8664 689.713 Q54.8057 694.456 46.212 694.456 Q37.491 694.456 32.4939 689.681 Q27.4968 684.875 27.4968 676.536 Q27.4968 673.831 28.0697 671.253 Q28.6108 668.674 29.7248 666.255 Z" fill="#000000" fill-rule="nonzero" fill-opacity="1" /><path clip-path="url(#clip970)" d="M44.7161 625.579 L47.5806 625.579 L47.5806 652.506 Q53.6281 652.124 56.8109 648.877 Q59.9619 645.599 59.9619 639.774 Q59.9619 636.4 59.1344 633.249 Q58.3069 630.066 56.6518 626.947 L62.1899 626.947 Q63.5267 630.098 64.227 633.408 Q64.9272 636.719 64.9272 640.124 Q64.9272 648.654 59.9619 653.651 Q54.9967 658.617 46.5303 658.617 Q37.7774 658.617 32.6531 653.906 Q27.4968 649.164 27.4968 641.143 Q27.4968 633.949 32.1438 629.78 Q36.7589 625.579 44.7161 625.579 M42.9973 631.435 Q38.1912 631.499 35.3266 634.14 Q32.4621 636.75 32.4621 641.079 Q32.4621 645.981 35.2312 648.941 Q38.0002 651.869 43.0292 652.315 L42.9973 631.435 Z" fill="#000000" fill-rule="nonzero" fill-opacity="1" /><path clip-path="url(#clip970)" d="M29.4065 593.241 L34.9447 593.241 Q33.6716 595.723 33.035 598.397 Q32.3984 601.071 32.3984 603.935 Q32.3984 608.296 33.7352 610.492 Q35.072 612.656 37.7456 612.656 Q39.7826 612.656 40.9603 611.097 Q42.1061 609.537 43.1565 604.826 L43.6021 602.821 Q44.9389 596.583 47.3897 593.973 Q49.8086 591.331 54.1691 591.331 Q59.1344 591.331 62.0308 595.278 Q64.9272 599.193 64.9272 606.068 Q64.9272 608.932 64.3543 612.051 Q63.8132 615.139 62.6992 618.576 L56.6518 618.576 Q58.3387 615.33 59.198 612.179 Q60.0256 609.028 60.0256 605.94 Q60.0256 601.803 58.6251 599.575 Q57.1929 597.347 54.6147 597.347 Q52.2276 597.347 50.9545 598.97 Q49.6813 600.561 48.5037 606.004 L48.0262 608.041 Q46.8804 613.484 44.5251 615.903 Q42.138 618.322 38.0002 618.322 Q32.9713 618.322 30.2341 614.757 Q27.4968 611.192 27.4968 604.635 Q27.4968 601.389 27.9743 598.524 Q28.4517 595.66 29.4065 593.241 Z" fill="#000000" fill-rule="nonzero" fill-opacity="1" /><path clip-path="url(#clip970)" d="M29.4065 559.28 L34.9447 559.28 Q33.6716 561.762 33.035 564.436 Q32.3984 567.11 32.3984 569.974 Q32.3984 574.335 33.7352 576.531 Q35.072 578.695 37.7456 578.695 Q39.7826 578.695 40.9603 577.136 Q42.1061 575.576 43.1565 570.865 L43.6021 568.86 Q44.9389 562.622 47.3897 560.012 Q49.8086 557.37 54.1691 557.37 Q59.1344 557.37 62.0308 561.317 Q64.9272 565.232 64.9272 572.107 Q64.9272 574.971 64.3543 578.09 Q63.8132 581.178 62.6992 584.615 L56.6518 584.615 Q58.3387 581.369 59.198 578.218 Q60.0256 575.067 60.0256 571.979 Q60.0256 567.842 58.6251 565.614 Q57.1929 563.386 54.6147 563.386 Q52.2276 563.386 50.9545 565.009 Q49.6813 566.6 48.5037 572.043 L48.0262 574.08 Q46.8804 579.523 44.5251 581.942 Q42.138 584.361 38.0002 584.361 Q32.9713 584.361 30.2341 580.796 Q27.4968 577.231 27.4968 570.674 Q27.4968 567.428 27.9743 564.563 Q28.4517 561.699 29.4065 559.28 Z" fill="#000000" fill-rule="nonzero" fill-opacity="1" /><path clip-path="url(#clip970)" d="M44.7161 517.553 L47.5806 517.553 L47.5806 544.479 Q53.6281 544.098 56.8109 540.851 Q59.9619 537.573 59.9619 531.748 Q59.9619 528.374 59.1344 525.223 Q58.3069 522.04 56.6518 518.921 L62.1899 518.921 Q63.5267 522.072 64.227 525.382 Q64.9272 528.693 64.9272 532.098 Q64.9272 540.628 59.9619 545.625 Q54.9967 550.591 46.5303 550.591 Q37.7774 550.591 32.6531 545.88 Q27.4968 541.137 27.4968 533.117 Q27.4968 525.923 32.1438 521.754 Q36.7589 517.553 44.7161 517.553 M42.9973 523.409 Q38.1912 523.473 35.3266 526.114 Q32.4621 528.724 32.4621 533.053 Q32.4621 537.955 35.2312 540.915 Q38.0002 543.843 43.0292 544.289 L42.9973 523.409 Z" fill="#000000" fill-rule="nonzero" fill-opacity="1" /><path clip-path="url(#clip970)" d="M29.4065 485.215 L34.9447 485.215 Q33.6716 487.697 33.035 490.371 Q32.3984 493.045 32.3984 495.909 Q32.3984 500.27 33.7352 502.466 Q35.072 504.63 37.7456 504.63 Q39.7826 504.63 40.9603 503.071 Q42.1061 501.511 43.1565 496.8 L43.6021 494.795 Q44.9389 488.557 47.3897 485.947 Q49.8086 483.305 54.1691 483.305 Q59.1344 483.305 62.0308 487.252 Q64.9272 491.167 64.9272 498.042 Q64.9272 500.906 64.3543 504.025 Q63.8132 507.113 62.6992 510.55 L56.6518 510.55 Q58.3387 507.304 59.198 504.153 Q60.0256 501.002 60.0256 497.914 Q60.0256 493.777 58.6251 491.549 Q57.1929 489.321 54.6147 489.321 Q52.2276 489.321 50.9545 490.944 Q49.6813 492.535 48.5037 497.978 L48.0262 500.015 Q46.8804 505.458 44.5251 507.877 Q42.138 510.296 38.0002 510.296 Q32.9713 510.296 30.2341 506.731 Q27.4968 503.166 27.4968 496.609 Q27.4968 493.363 27.9743 490.498 Q28.4517 487.634 29.4065 485.215 Z" fill="#000000" fill-rule="nonzero" fill-opacity="1" /><path clip-path="url(#clip970)" d="M16.4842 442.851 L16.4842 437.44 L70.0516 453.991 L70.0516 459.402 L16.4842 442.851 Z" fill="#000000" fill-rule="nonzero" fill-opacity="1" /><path clip-path="url(#clip970)" d="M21.7677 403.893 L39.6235 403.893 L39.6235 395.808 Q39.6235 391.321 37.3 388.87 Q34.9765 386.419 30.6797 386.419 Q26.4147 386.419 24.0912 388.87 Q21.7677 391.321 21.7677 395.808 L21.7677 403.893 M16.4842 410.322 L16.4842 395.808 Q16.4842 387.819 20.1126 383.745 Q23.7092 379.64 30.6797 379.64 Q37.7138 379.64 41.3104 383.745 Q44.907 387.819 44.907 395.808 L44.907 403.893 L64.0042 403.893 L64.0042 410.322 L16.4842 410.322 Z" fill="#000000" fill-rule="nonzero" fill-opacity="1" /><path clip-path="url(#clip970)" d="M32.4621 359.779 Q32.4621 364.489 36.1542 367.226 Q39.8145 369.964 46.212 369.964 Q52.6095 369.964 56.3017 367.258 Q59.9619 364.521 59.9619 359.779 Q59.9619 355.1 56.2698 352.362 Q52.5777 349.625 46.212 349.625 Q39.8781 349.625 36.186 352.362 Q32.4621 355.1 32.4621 359.779 M27.4968 359.779 Q27.4968 352.14 32.4621 347.779 Q37.4273 343.419 46.212 343.419 Q54.9649 343.419 59.9619 347.779 Q64.9272 352.14 64.9272 359.779 Q64.9272 367.449 59.9619 371.81 Q54.9649 376.138 46.212 376.138 Q37.4273 376.138 32.4621 371.81 Q27.4968 367.449 27.4968 359.779 Z" fill="#000000" fill-rule="nonzero" fill-opacity="1" /><path clip-path="url(#clip970)" d="M28.3562 337.117 L28.3562 331.26 L56.1743 323.94 L28.3562 316.651 L28.3562 309.744 L56.1743 302.423 L28.3562 295.135 L28.3562 289.278 L64.0042 298.604 L64.0042 305.511 L34.7856 313.182 L64.0042 320.884 L64.0042 327.791 L28.3562 337.117 Z" fill="#000000" fill-rule="nonzero" fill-opacity="1" /><path clip-path="url(#clip970)" d="M44.7161 249.906 L47.5806 249.906 L47.5806 276.833 Q53.6281 276.451 56.8109 273.205 Q59.9619 269.927 59.9619 264.102 Q59.9619 260.728 59.1344 257.577 Q58.3069 254.394 56.6518 251.275 L62.1899 251.275 Q63.5267 254.426 64.227 257.736 Q64.9272 261.046 64.9272 264.452 Q64.9272 272.982 59.9619 277.979 Q54.9967 282.944 46.5303 282.944 Q37.7774 282.944 32.6531 278.234 Q27.4968 273.491 27.4968 265.471 Q27.4968 258.277 32.1438 254.108 Q36.7589 249.906 44.7161 249.906 M42.9973 255.763 Q38.1912 255.827 35.3266 258.468 Q32.4621 261.078 32.4621 265.407 Q32.4621 270.308 35.2312 273.269 Q38.0002 276.197 43.0292 276.642 L42.9973 255.763 Z" fill="#000000" fill-rule="nonzero" fill-opacity="1" /><path clip-path="url(#clip970)" d="M33.8307 219.637 Q33.2578 220.624 33.0032 221.802 Q32.7167 222.948 32.7167 224.348 Q32.7167 229.313 35.9632 231.987 Q39.1779 234.629 45.2253 234.629 L64.0042 234.629 L64.0042 240.517 L28.3562 240.517 L28.3562 234.629 L33.8944 234.629 Q30.6479 232.783 29.0883 229.823 Q27.4968 226.863 27.4968 222.629 Q27.4968 222.025 27.5923 221.293 Q27.656 220.561 27.8151 219.669 L33.8307 219.637 Z" fill="#000000" fill-rule="nonzero" fill-opacity="1" /><polyline clip-path="url(#clip972)" style="stroke:#009af9; stroke-linecap:round; stroke-linejoin:round; stroke-width:4; stroke-opacity:1; fill:none" points="280.231,252.176 411.487,653.793 542.744,469.241 674,379.806 805.257,324.124 936.513,265.906 1067.77,278.754 1199.03,262.594 1330.28,219.558 1461.54,311.7 1592.79,233.661 1724.05,354.634 1855.31,47.2441 1986.56,129.8 2292.39,251.775 "/>
<polyline clip-path="url(#clip972)" style="stroke:#ff0000; stroke-linecap:round; stroke-linejoin:round; stroke-width:4; stroke-opacity:1; fill:none" points="280.231,253.12 280.231,251.234 "/>
<polyline clip-path="url(#clip972)" style="stroke:#ff0000; stroke-linecap:round; stroke-linejoin:round; stroke-width:4; stroke-opacity:1; fill:none" points="411.487,660.732 411.487,646.867 "/>
<polyline clip-path="url(#clip972)" style="stroke:#ff0000; stroke-linecap:round; stroke-linejoin:round; stroke-width:4; stroke-opacity:1; fill:none" points="542.744,478.749 542.744,459.821 "/>
<polyline clip-path="url(#clip972)" style="stroke:#ff0000; stroke-linecap:round; stroke-linejoin:round; stroke-width:4; stroke-opacity:1; fill:none" points="674,392.422 674,367.429 "/>
<polyline clip-path="url(#clip972)" style="stroke:#ff0000; stroke-linecap:round; stroke-linejoin:round; stroke-width:4; stroke-opacity:1; fill:none" points="805.257,340.562 805.257,308.215 "/>
<polyline clip-path="url(#clip972)" style="stroke:#ff0000; stroke-linecap:round; stroke-linejoin:round; stroke-width:4; stroke-opacity:1; fill:none" points="936.513,285.364 936.513,247.444 "/>
<polyline clip-path="url(#clip972)" style="stroke:#ff0000; stroke-linecap:round; stroke-linejoin:round; stroke-width:4; stroke-opacity:1; fill:none" points="1067.77,306.46 1067.77,252.888 "/>
<polyline clip-path="url(#clip972)" style="stroke:#ff0000; stroke-linecap:round; stroke-linejoin:round; stroke-width:4; stroke-opacity:1; fill:none" points="1199.03,298.939 1199.03,229.615 "/>
<polyline clip-path="url(#clip972)" style="stroke:#ff0000; stroke-linecap:round; stroke-linejoin:round; stroke-width:4; stroke-opacity:1; fill:none" points="1330.28,262.302 1330.28,182.619 "/>
<polyline clip-path="url(#clip972)" style="stroke:#ff0000; stroke-linecap:round; stroke-linejoin:round; stroke-width:4; stroke-opacity:1; fill:none" points="1461.54,373.108 1461.54,257.395 "/>
<polyline clip-path="url(#clip972)" style="stroke:#ff0000; stroke-linecap:round; stroke-linejoin:round; stroke-width:4; stroke-opacity:1; fill:none" points="1592.79,321.905 1592.79,165.387 "/>
<polyline clip-path="url(#clip972)" style="stroke:#ff0000; stroke-linecap:round; stroke-linejoin:round; stroke-width:4; stroke-opacity:1; fill:none" points="1724.05,488.915 1724.05,245.277 "/>
<polyline clip-path="url(#clip972)" style="stroke:#ff0000; stroke-linecap:round; stroke-linejoin:round; stroke-width:4; stroke-opacity:1; fill:none" points="1855.31,236.002 1855.31,47.2441 "/>
<polyline clip-path="url(#clip972)" style="stroke:#ff0000; stroke-linecap:round; stroke-linejoin:round; stroke-width:4; stroke-opacity:1; fill:none" points="1986.56,274.937 1986.56,64.5101 "/>
<polyline clip-path="url(#clip972)" style="stroke:#ff0000; stroke-linecap:round; stroke-linejoin:round; stroke-width:4; stroke-opacity:1; fill:none" points="2292.39,391.815 2292.39,152.655 "/>
<path clip-path="url(#clip970)" d="M1733.37 1377.32 L2281.66 1377.32 L2281.66 1273.64 L1733.37 1273.64  Z" fill="#ffffff" fill-rule="evenodd" fill-opacity="1"/>
<polyline clip-path="url(#clip970)" style="stroke:#000000; stroke-linecap:round; stroke-linejoin:round; stroke-width:4; stroke-opacity:1; fill:none" points="1733.37,1377.32 2281.66,1377.32 2281.66,1273.64 1733.37,1273.64 1733.37,1377.32 "/>
<polyline clip-path="url(#clip970)" style="stroke:#009af9; stroke-linecap:round; stroke-linejoin:round; stroke-width:4; stroke-opacity:1; fill:none" points="1757.07,1325.48 1899.26,1325.48 "/>
<path clip-path="url(#clip970)" d="M1927.64 1312.04 L1927.64 1325.02 L1933.52 1325.02 Q1936.78 1325.02 1938.56 1323.33 Q1940.35 1321.64 1940.35 1318.52 Q1940.35 1315.42 1938.56 1313.73 Q1936.78 1312.04 1933.52 1312.04 L1927.64 1312.04 M1922.96 1308.2 L1933.52 1308.2 Q1939.33 1308.2 1942.29 1310.83 Q1945.28 1313.45 1945.28 1318.52 Q1945.28 1323.64 1942.29 1326.25 Q1939.33 1328.87 1933.52 1328.87 L1927.64 1328.87 L1927.64 1342.76 L1922.96 1342.76 L1922.96 1308.2 Z" fill="#000000" fill-rule="nonzero" fill-opacity="1" /><path clip-path="url(#clip970)" d="M1959.72 1319.82 Q1956.3 1319.82 1954.31 1322.5 Q1952.31 1325.16 1952.31 1329.82 Q1952.31 1334.47 1954.28 1337.15 Q1956.27 1339.82 1959.72 1339.82 Q1963.12 1339.82 1965.12 1337.13 Q1967.11 1334.45 1967.11 1329.82 Q1967.11 1325.21 1965.12 1322.52 Q1963.12 1319.82 1959.72 1319.82 M1959.72 1316.2 Q1965.28 1316.2 1968.45 1319.82 Q1971.62 1323.43 1971.62 1329.82 Q1971.62 1336.18 1968.45 1339.82 Q1965.28 1343.43 1959.72 1343.43 Q1954.14 1343.43 1950.97 1339.82 Q1947.82 1336.18 1947.82 1329.82 Q1947.82 1323.43 1950.97 1319.82 Q1954.14 1316.2 1959.72 1316.2 Z" fill="#000000" fill-rule="nonzero" fill-opacity="1" /><path clip-path="url(#clip970)" d="M1978.68 1316.83 L1982.94 1316.83 L1982.94 1342.76 L1978.68 1342.76 L1978.68 1316.83 M1978.68 1306.74 L1982.94 1306.74 L1982.94 1312.13 L1978.68 1312.13 L1978.68 1306.74 Z" fill="#000000" fill-rule="nonzero" fill-opacity="1" /><path clip-path="url(#clip970)" d="M2013.4 1327.11 L2013.4 1342.76 L2009.14 1342.76 L2009.14 1327.25 Q2009.14 1323.57 2007.71 1321.74 Q2006.27 1319.91 2003.4 1319.91 Q1999.95 1319.91 1997.96 1322.11 Q1995.97 1324.31 1995.97 1328.1 L1995.97 1342.76 L1991.69 1342.76 L1991.69 1316.83 L1995.97 1316.83 L1995.97 1320.86 Q1997.5 1318.52 1999.56 1317.36 Q2001.64 1316.2 2004.35 1316.2 Q2008.82 1316.2 2011.11 1318.98 Q2013.4 1321.74 2013.4 1327.11 Z" fill="#000000" fill-rule="nonzero" fill-opacity="1" /><path clip-path="url(#clip970)" d="M2026.11 1309.47 L2026.11 1316.83 L2034.88 1316.83 L2034.88 1320.14 L2026.11 1320.14 L2026.11 1334.21 Q2026.11 1337.38 2026.97 1338.29 Q2027.85 1339.19 2030.51 1339.19 L2034.88 1339.19 L2034.88 1342.76 L2030.51 1342.76 Q2025.58 1342.76 2023.7 1340.93 Q2021.83 1339.07 2021.83 1334.21 L2021.83 1320.14 L2018.7 1320.14 L2018.7 1316.83 L2021.83 1316.83 L2021.83 1309.47 L2026.11 1309.47 Z" fill="#000000" fill-rule="nonzero" fill-opacity="1" /><path clip-path="url(#clip970)" d="M2055.74 1308.2 L2077.59 1308.2 L2077.59 1312.13 L2060.42 1312.13 L2060.42 1322.36 L2076.87 1322.36 L2076.87 1326.3 L2060.42 1326.3 L2060.42 1338.82 L2078.01 1338.82 L2078.01 1342.76 L2055.74 1342.76 L2055.74 1308.2 Z" fill="#000000" fill-rule="nonzero" fill-opacity="1" /><path clip-path="url(#clip970)" d="M2102.04 1317.59 L2102.04 1321.62 Q2100.23 1320.7 2098.29 1320.23 Q2096.34 1319.77 2094.26 1319.77 Q2091.09 1319.77 2089.49 1320.74 Q2087.92 1321.71 2087.92 1323.66 Q2087.92 1325.14 2089.05 1326 Q2090.18 1326.83 2093.61 1327.59 L2095.07 1327.92 Q2099.61 1328.89 2101.5 1330.67 Q2103.42 1332.43 2103.42 1335.6 Q2103.42 1339.21 2100.55 1341.32 Q2097.71 1343.43 2092.71 1343.43 Q2090.62 1343.43 2088.36 1343.01 Q2086.11 1342.62 2083.61 1341.81 L2083.61 1337.41 Q2085.97 1338.63 2088.26 1339.26 Q2090.55 1339.86 2092.8 1339.86 Q2095.81 1339.86 2097.43 1338.84 Q2099.05 1337.8 2099.05 1335.93 Q2099.05 1334.19 2097.87 1333.26 Q2096.71 1332.34 2092.75 1331.48 L2091.27 1331.14 Q2087.31 1330.3 2085.55 1328.59 Q2083.8 1326.85 2083.8 1323.84 Q2083.8 1320.19 2086.39 1318.2 Q2088.98 1316.2 2093.75 1316.2 Q2096.11 1316.2 2098.19 1316.55 Q2100.28 1316.9 2102.04 1317.59 Z" fill="#000000" fill-rule="nonzero" fill-opacity="1" /><path clip-path="url(#clip970)" d="M2114.42 1309.47 L2114.42 1316.83 L2123.19 1316.83 L2123.19 1320.14 L2114.42 1320.14 L2114.42 1334.21 Q2114.42 1337.38 2115.28 1338.29 Q2116.16 1339.19 2118.82 1339.19 L2123.19 1339.19 L2123.19 1342.76 L2118.82 1342.76 Q2113.89 1342.76 2112.01 1340.93 Q2110.14 1339.07 2110.14 1334.21 L2110.14 1320.14 L2107.01 1320.14 L2107.01 1316.83 L2110.14 1316.83 L2110.14 1309.47 L2114.42 1309.47 Z" fill="#000000" fill-rule="nonzero" fill-opacity="1" /><path clip-path="url(#clip970)" d="M2128.79 1316.83 L2133.05 1316.83 L2133.05 1342.76 L2128.79 1342.76 L2128.79 1316.83 M2128.79 1306.74 L2133.05 1306.74 L2133.05 1312.13 L2128.79 1312.13 L2128.79 1306.74 Z" fill="#000000" fill-rule="nonzero" fill-opacity="1" /><path clip-path="url(#clip970)" d="M2162.15 1321.81 Q2163.75 1318.94 2165.97 1317.57 Q2168.19 1316.2 2171.2 1316.2 Q2175.25 1316.2 2177.45 1319.05 Q2179.65 1321.88 2179.65 1327.11 L2179.65 1342.76 L2175.37 1342.76 L2175.37 1327.25 Q2175.37 1323.52 2174.05 1321.71 Q2172.73 1319.91 2170.02 1319.91 Q2166.71 1319.91 2164.79 1322.11 Q2162.87 1324.31 2162.87 1328.1 L2162.87 1342.76 L2158.59 1342.76 L2158.59 1327.25 Q2158.59 1323.5 2157.27 1321.71 Q2155.95 1319.91 2153.19 1319.91 Q2149.93 1319.91 2148.01 1322.13 Q2146.09 1324.33 2146.09 1328.1 L2146.09 1342.76 L2141.8 1342.76 L2141.8 1316.83 L2146.09 1316.83 L2146.09 1320.86 Q2147.54 1318.47 2149.58 1317.34 Q2151.62 1316.2 2154.42 1316.2 Q2157.24 1316.2 2159.21 1317.64 Q2161.2 1319.07 2162.15 1321.81 Z" fill="#000000" fill-rule="nonzero" fill-opacity="1" /><path clip-path="url(#clip970)" d="M2199.93 1329.72 Q2194.77 1329.72 2192.78 1330.9 Q2190.79 1332.08 2190.79 1334.93 Q2190.79 1337.2 2192.27 1338.54 Q2193.77 1339.86 2196.34 1339.86 Q2199.88 1339.86 2202.01 1337.36 Q2204.16 1334.84 2204.16 1330.67 L2204.16 1329.72 L2199.93 1329.72 M2208.42 1327.96 L2208.42 1342.76 L2204.16 1342.76 L2204.16 1338.82 Q2202.71 1341.18 2200.53 1342.32 Q2198.35 1343.43 2195.21 1343.43 Q2191.23 1343.43 2188.86 1341.2 Q2186.53 1338.96 2186.53 1335.21 Q2186.53 1330.83 2189.44 1328.61 Q2192.38 1326.39 2198.19 1326.39 L2204.16 1326.39 L2204.16 1325.97 Q2204.16 1323.03 2202.22 1321.44 Q2200.3 1319.82 2196.8 1319.82 Q2194.58 1319.82 2192.48 1320.35 Q2190.37 1320.88 2188.42 1321.95 L2188.42 1318.01 Q2190.76 1317.11 2192.96 1316.67 Q2195.16 1316.2 2197.24 1316.2 Q2202.87 1316.2 2205.65 1319.12 Q2208.42 1322.04 2208.42 1327.96 Z" fill="#000000" fill-rule="nonzero" fill-opacity="1" /><path clip-path="url(#clip970)" d="M2221.41 1309.47 L2221.41 1316.83 L2230.18 1316.83 L2230.18 1320.14 L2221.41 1320.14 L2221.41 1334.21 Q2221.41 1337.38 2222.27 1338.29 Q2223.15 1339.19 2225.81 1339.19 L2230.18 1339.19 L2230.18 1342.76 L2225.81 1342.76 Q2220.88 1342.76 2219 1340.93 Q2217.13 1339.07 2217.13 1334.21 L2217.13 1320.14 L2214 1320.14 L2214 1316.83 L2217.13 1316.83 L2217.13 1309.47 L2221.41 1309.47 Z" fill="#000000" fill-rule="nonzero" fill-opacity="1" /><path clip-path="url(#clip970)" d="M2257.96 1328.73 L2257.96 1330.81 L2238.38 1330.81 Q2238.66 1335.21 2241.02 1337.52 Q2243.4 1339.82 2247.64 1339.82 Q2250.09 1339.82 2252.38 1339.21 Q2254.7 1338.61 2256.97 1337.41 L2256.97 1341.44 Q2254.67 1342.41 2252.27 1342.92 Q2249.86 1343.43 2247.38 1343.43 Q2241.18 1343.43 2237.54 1339.82 Q2233.93 1336.2 2233.93 1330.05 Q2233.93 1323.68 2237.36 1319.95 Q2240.81 1316.2 2246.64 1316.2 Q2251.87 1316.2 2254.91 1319.58 Q2257.96 1322.94 2257.96 1328.73 M2253.7 1327.48 Q2253.66 1323.98 2251.73 1321.9 Q2249.84 1319.82 2246.69 1319.82 Q2243.12 1319.82 2240.97 1321.83 Q2238.84 1323.84 2238.52 1327.5 L2253.7 1327.48 Z" fill="#000000" fill-rule="nonzero" fill-opacity="1" /></svg>
