<?xml version="1.0" encoding="utf-8"?>
<svg xmlns="http://www.w3.org/2000/svg" xmlns:xlink="http://www.w3.org/1999/xlink" width="550" height="300" viewBox="0 0 2200 1200">
<defs>
  <clipPath id="clip190">
    <rect x="0" y="0" width="2200" height="1200"/>
  </clipPath>
</defs>
<path clip-path="url(#clip190)" d="M0 1200 L2200 1200 L2200 0 L0 0  Z" fill="#ffffff" fill-rule="evenodd" fill-opacity="1"/>
<defs>
  <clipPath id="clip191">
    <rect x="440" y="0" width="1541" height="1200"/>
  </clipPath>
</defs>
<path clip-path="url(#clip190)" d="M209.226 1042.1 L2152.76 1042.1 L2152.76 47.2441 L209.226 47.2441  Z" fill="#ffffff" fill-rule="evenodd" fill-opacity="1"/>
<defs>
  <clipPath id="clip192">
    <rect x="209" y="47" width="1945" height="996"/>
  </clipPath>
</defs>
<polyline clip-path="url(#clip192)" style="stroke:#000000; stroke-linecap:round; stroke-linejoin:round; stroke-width:2; stroke-opacity:0.1; fill:none" points="264.232,1042.1 264.232,47.2441 "/>
<polyline clip-path="url(#clip192)" style="stroke:#000000; stroke-linecap:round; stroke-linejoin:round; stroke-width:2; stroke-opacity:0.1; fill:none" points="742.645,1042.1 742.645,47.2441 "/>
<polyline clip-path="url(#clip192)" style="stroke:#000000; stroke-linecap:round; stroke-linejoin:round; stroke-width:2; stroke-opacity:0.1; fill:none" points="1221.06,1042.1 1221.06,47.2441 "/>
<polyline clip-path="url(#clip192)" style="stroke:#000000; stroke-linecap:round; stroke-linejoin:round; stroke-width:2; stroke-opacity:0.1; fill:none" points="1699.47,1042.1 1699.47,47.2441 "/>
<polyline clip-path="url(#clip190)" style="stroke:#000000; stroke-linecap:round; stroke-linejoin:round; stroke-width:4; stroke-opacity:1; fill:none" points="209.226,1042.1 2152.76,1042.1 "/>
<polyline clip-path="url(#clip190)" style="stroke:#000000; stroke-linecap:round; stroke-linejoin:round; stroke-width:4; stroke-opacity:1; fill:none" points="264.232,1042.1 264.232,1023.21 "/>
<polyline clip-path="url(#clip190)" style="stroke:#000000; stroke-linecap:round; stroke-linejoin:round; stroke-width:4; stroke-opacity:1; fill:none" points="742.645,1042.1 742.645,1023.21 "/>
<polyline clip-path="url(#clip190)" style="stroke:#000000; stroke-linecap:round; stroke-linejoin:round; stroke-width:4; stroke-opacity:1; fill:none" points="1221.06,1042.1 1221.06,1023.21 "/>
<polyline clip-path="url(#clip190)" style="stroke:#000000; stroke-linecap:round; stroke-linejoin:round; stroke-width:4; stroke-opacity:1; fill:none" points="1699.47,1042.1 1699.47,1023.21 "/>
<path clip-path="url(#clip190)" d="M264.232 1071.42 Q260.621 1071.42 258.792 1074.99 Q256.986 1078.53 256.986 1085.66 Q256.986 1092.76 258.792 1096.33 Q260.621 1099.87 264.232 1099.87 Q267.866 1099.87 269.672 1096.33 Q271.5 1092.76 271.5 1085.66 Q271.5 1078.53 269.672 1074.99 Q267.866 1071.42 264.232 1071.42 M264.232 1067.72 Q270.042 1067.72 273.098 1072.32 Q276.176 1076.91 276.176 1085.66 Q276.176 1094.39 273.098 1098.99 Q270.042 1103.57 264.232 1103.57 Q258.422 1103.57 255.343 1098.99 Q252.287 1094.39 252.287 1085.66 Q252.287 1076.91 255.343 1072.32 Q258.422 1067.72 264.232 1067.72 Z" fill="#000000" fill-rule="nonzero" fill-opacity="1" /><path clip-path="url(#clip190)" d="M737.298 1098.97 L753.617 1098.97 L753.617 1102.9 L731.673 1102.9 L731.673 1098.97 Q734.335 1096.21 738.918 1091.58 Q743.525 1086.93 744.705 1085.59 Q746.951 1083.07 747.83 1081.33 Q748.733 1079.57 748.733 1077.88 Q748.733 1075.13 746.789 1073.39 Q744.867 1071.65 741.765 1071.65 Q739.566 1071.65 737.113 1072.42 Q734.682 1073.18 731.904 1074.73 L731.904 1070.01 Q734.728 1068.88 737.182 1068.3 Q739.636 1067.72 741.673 1067.72 Q747.043 1067.72 750.238 1070.4 Q753.432 1073.09 753.432 1077.58 Q753.432 1079.71 752.622 1081.63 Q751.835 1083.53 749.728 1086.12 Q749.15 1086.79 746.048 1090.01 Q742.946 1093.2 737.298 1098.97 Z" fill="#000000" fill-rule="nonzero" fill-opacity="1" /><path clip-path="url(#clip190)" d="M1224.07 1072.42 L1212.26 1090.87 L1224.07 1090.87 L1224.07 1072.42 M1222.84 1068.34 L1228.72 1068.34 L1228.72 1090.87 L1233.65 1090.87 L1233.65 1094.76 L1228.72 1094.76 L1228.72 1102.9 L1224.07 1102.9 L1224.07 1094.76 L1208.47 1094.76 L1208.47 1090.24 L1222.84 1068.34 Z" fill="#000000" fill-rule="nonzero" fill-opacity="1" /><path clip-path="url(#clip190)" d="M1699.88 1083.76 Q1696.73 1083.76 1694.88 1085.91 Q1693.05 1088.07 1693.05 1091.82 Q1693.05 1095.54 1694.88 1097.72 Q1696.73 1099.87 1699.88 1099.87 Q1703.02 1099.87 1704.85 1097.72 Q1706.71 1095.54 1706.71 1091.82 Q1706.71 1088.07 1704.85 1085.91 Q1703.02 1083.76 1699.88 1083.76 M1709.16 1069.11 L1709.16 1073.37 Q1707.4 1072.53 1705.59 1072.09 Q1703.81 1071.65 1702.05 1071.65 Q1697.42 1071.65 1694.97 1074.78 Q1692.54 1077.9 1692.19 1084.22 Q1693.56 1082.21 1695.62 1081.14 Q1697.68 1080.06 1700.15 1080.06 Q1705.36 1080.06 1708.37 1083.23 Q1711.4 1086.38 1711.4 1091.82 Q1711.4 1097.14 1708.26 1100.36 Q1705.11 1103.57 1699.88 1103.57 Q1693.88 1103.57 1690.71 1098.99 Q1687.54 1094.39 1687.54 1085.66 Q1687.54 1077.46 1691.43 1072.6 Q1695.32 1067.72 1701.87 1067.72 Q1703.63 1067.72 1705.41 1068.07 Q1707.21 1068.41 1709.16 1069.11 Z" fill="#000000" fill-rule="nonzero" fill-opacity="1" /><path clip-path="url(#clip190)" d="M1014.37 1136.45 L1044.41 1136.45 L1044.41 1141.86 L1020.8 1141.86 L1020.8 1155.93 L1043.43 1155.93 L1043.43 1161.34 L1020.8 1161.34 L1020.8 1178.56 L1044.99 1178.56 L1044.99 1183.97 L1014.37 1183.97 L1014.37 1136.45 Z" fill="#000000" fill-rule="nonzero" fill-opacity="1" /><path clip-path="url(#clip190)" d="M1073.35 1134.44 L1073.35 1139.31 L1067.75 1139.31 Q1064.59 1139.31 1063.35 1140.59 Q1062.14 1141.86 1062.14 1145.17 L1062.14 1148.32 L1071.79 1148.32 L1071.79 1152.87 L1062.14 1152.87 L1062.14 1183.97 L1056.26 1183.97 L1056.26 1152.87 L1050.65 1152.87 L1050.65 1148.32 L1056.26 1148.32 L1056.26 1145.84 Q1056.26 1139.88 1059.02 1137.18 Q1061.79 1134.44 1067.81 1134.44 L1073.35 1134.44 Z" fill="#000000" fill-rule="nonzero" fill-opacity="1" /><path clip-path="url(#clip190)" d="M1096.3 1134.44 L1096.3 1139.31 L1090.69 1139.31 Q1087.54 1139.31 1086.3 1140.59 Q1085.09 1141.86 1085.09 1145.17 L1085.09 1148.32 L1094.74 1148.32 L1094.74 1152.87 L1085.09 1152.87 L1085.09 1183.97 L1079.2 1183.97 L1079.2 1152.87 L1073.6 1152.87 L1073.6 1148.32 L1079.2 1148.32 L1079.2 1145.84 Q1079.2 1139.88 1081.97 1137.18 Q1084.74 1134.44 1090.76 1134.44 L1096.3 1134.44 Z" fill="#000000" fill-rule="nonzero" fill-opacity="1" /><path clip-path="url(#clip190)" d="M1131.69 1164.68 L1131.69 1167.54 L1104.76 1167.54 Q1105.14 1173.59 1108.39 1176.77 Q1111.67 1179.93 1117.49 1179.93 Q1120.87 1179.93 1124.02 1179.1 Q1127.2 1178.27 1130.32 1176.62 L1130.32 1182.15 Q1127.17 1183.49 1123.86 1184.19 Q1120.55 1184.89 1117.14 1184.89 Q1108.61 1184.89 1103.62 1179.93 Q1098.65 1174.96 1098.65 1166.49 Q1098.65 1157.74 1103.36 1152.62 Q1108.1 1147.46 1116.12 1147.46 Q1123.32 1147.46 1127.49 1152.11 Q1131.69 1156.72 1131.69 1164.68 M1125.83 1162.96 Q1125.77 1158.15 1123.13 1155.29 Q1120.52 1152.43 1116.19 1152.43 Q1111.29 1152.43 1108.33 1155.19 Q1105.4 1157.96 1104.95 1162.99 L1125.83 1162.96 Z" fill="#000000" fill-rule="nonzero" fill-opacity="1" /><path clip-path="url(#clip190)" d="M1166.95 1149.69 L1166.95 1155.16 Q1164.47 1153.79 1161.96 1153.13 Q1159.47 1152.43 1156.93 1152.43 Q1151.23 1152.43 1148.08 1156.05 Q1144.93 1159.65 1144.93 1166.18 Q1144.93 1172.7 1148.08 1176.33 Q1151.23 1179.93 1156.93 1179.93 Q1159.47 1179.93 1161.96 1179.26 Q1164.47 1178.56 1166.95 1177.19 L1166.95 1182.6 Q1164.5 1183.74 1161.86 1184.32 Q1159.25 1184.89 1156.29 1184.89 Q1148.24 1184.89 1143.5 1179.83 Q1138.75 1174.77 1138.75 1166.18 Q1138.75 1157.45 1143.53 1152.46 Q1148.34 1147.46 1156.67 1147.46 Q1159.38 1147.46 1161.96 1148.03 Q1164.54 1148.57 1166.95 1149.69 Z" fill="#000000" fill-rule="nonzero" fill-opacity="1" /><path clip-path="url(#clip190)" d="M1182.93 1138.2 L1182.93 1148.32 L1195 1148.32 L1195 1152.87 L1182.93 1152.87 L1182.93 1172.22 Q1182.93 1176.58 1184.11 1177.82 Q1185.32 1179.07 1188.98 1179.07 L1195 1179.07 L1195 1183.97 L1188.98 1183.97 Q1182.2 1183.97 1179.62 1181.45 Q1177.04 1178.91 1177.04 1172.22 L1177.04 1152.87 L1172.75 1152.87 L1172.75 1148.32 L1177.04 1148.32 L1177.04 1138.2 L1182.93 1138.2 Z" fill="#000000" fill-rule="nonzero" fill-opacity="1" /><path clip-path="url(#clip190)" d="M1252.16 1138.01 L1252.16 1144.28 Q1248.5 1142.53 1245.25 1141.67 Q1242.01 1140.81 1238.98 1140.81 Q1233.73 1140.81 1230.87 1142.85 Q1228.03 1144.88 1228.03 1148.64 Q1228.03 1151.79 1229.91 1153.41 Q1231.82 1155 1237.1 1155.99 L1240.99 1156.79 Q1248.18 1158.15 1251.59 1161.62 Q1255.02 1165.06 1255.02 1170.85 Q1255.02 1177.76 1250.38 1181.33 Q1245.76 1184.89 1236.82 1184.89 Q1233.44 1184.89 1229.63 1184.13 Q1225.84 1183.36 1221.76 1181.87 L1221.76 1175.25 Q1225.68 1177.44 1229.43 1178.56 Q1233.19 1179.67 1236.82 1179.67 Q1242.32 1179.67 1245.32 1177.51 Q1248.31 1175.34 1248.31 1171.33 Q1248.31 1167.83 1246.14 1165.86 Q1244.01 1163.88 1239.11 1162.9 L1235.2 1162.13 Q1228 1160.7 1224.79 1157.65 Q1221.57 1154.59 1221.57 1149.15 Q1221.57 1142.85 1226 1139.22 Q1230.45 1135.59 1238.25 1135.59 Q1241.59 1135.59 1245.06 1136.19 Q1248.53 1136.8 1252.16 1138.01 Z" fill="#000000" fill-rule="nonzero" fill-opacity="1" /><path clip-path="url(#clip190)" d="M1264.8 1148.32 L1270.65 1148.32 L1270.65 1183.97 L1264.8 1183.97 L1264.8 1148.32 M1264.8 1134.44 L1270.65 1134.44 L1270.65 1141.86 L1264.8 1141.86 L1264.8 1134.44 Z" fill="#000000" fill-rule="nonzero" fill-opacity="1" /><path clip-path="url(#clip190)" d="M1280.36 1148.32 L1308.18 1148.32 L1308.18 1153.67 L1286.15 1179.29 L1308.18 1179.29 L1308.18 1183.97 L1279.56 1183.97 L1279.56 1178.62 L1301.59 1153 L1280.36 1153 L1280.36 1148.32 Z" fill="#000000" fill-rule="nonzero" fill-opacity="1" /><path clip-path="url(#clip190)" d="M1347.61 1164.68 L1347.61 1167.54 L1320.69 1167.54 Q1321.07 1173.59 1324.31 1176.77 Q1327.59 1179.93 1333.42 1179.93 Q1336.79 1179.93 1339.94 1179.1 Q1343.13 1178.27 1346.24 1176.62 L1346.24 1182.15 Q1343.09 1183.49 1339.78 1184.19 Q1336.47 1184.89 1333.07 1184.89 Q1324.54 1184.89 1319.54 1179.93 Q1314.58 1174.96 1314.58 1166.49 Q1314.58 1157.74 1319.29 1152.62 Q1324.03 1147.46 1332.05 1147.46 Q1339.24 1147.46 1343.41 1152.11 Q1347.61 1156.72 1347.61 1164.68 M1341.76 1162.96 Q1341.69 1158.15 1339.05 1155.29 Q1336.44 1152.43 1332.11 1152.43 Q1327.21 1152.43 1324.25 1155.19 Q1321.32 1157.96 1320.88 1162.99 L1341.76 1162.96 Z" fill="#000000" fill-rule="nonzero" fill-opacity="1" /><polyline clip-path="url(#clip192)" style="stroke:#000000; stroke-linecap:round; stroke-linejoin:round; stroke-width:2; stroke-opacity:0.1; fill:none" points="209.226,1042.1 2152.76,1042.1 "/>
<polyline clip-path="url(#clip192)" style="stroke:#000000; stroke-linecap:round; stroke-linejoin:round; stroke-width:2; stroke-opacity:0.1; fill:none" points="209.226,843.132 2152.76,843.132 "/>
<polyline clip-path="url(#clip192)" style="stroke:#000000; stroke-linecap:round; stroke-linejoin:round; stroke-width:2; stroke-opacity:0.1; fill:none" points="209.226,644.16 2152.76,644.16 "/>
<polyline clip-path="url(#clip192)" style="stroke:#000000; stroke-linecap:round; stroke-linejoin:round; stroke-width:2; stroke-opacity:0.1; fill:none" points="209.226,445.188 2152.76,445.188 "/>
<polyline clip-path="url(#clip192)" style="stroke:#000000; stroke-linecap:round; stroke-linejoin:round; stroke-width:2; stroke-opacity:0.1; fill:none" points="209.226,246.216 2152.76,246.216 "/>
<polyline clip-path="url(#clip192)" style="stroke:#000000; stroke-linecap:round; stroke-linejoin:round; stroke-width:2; stroke-opacity:0.1; fill:none" points="209.226,47.2441 2152.76,47.2441 "/>
<polyline clip-path="url(#clip190)" style="stroke:#000000; stroke-linecap:round; stroke-linejoin:round; stroke-width:4; stroke-opacity:1; fill:none" points="209.226,1042.1 209.226,47.2441 "/>
<polyline clip-path="url(#clip190)" style="stroke:#000000; stroke-linecap:round; stroke-linejoin:round; stroke-width:4; stroke-opacity:1; fill:none" points="209.226,1042.1 228.124,1042.1 "/>
<polyline clip-path="url(#clip190)" style="stroke:#000000; stroke-linecap:round; stroke-linejoin:round; stroke-width:4; stroke-opacity:1; fill:none" points="209.226,843.132 228.124,843.132 "/>
<polyline clip-path="url(#clip190)" style="stroke:#000000; stroke-linecap:round; stroke-linejoin:round; stroke-width:4; stroke-opacity:1; fill:none" points="209.226,644.16 228.124,644.16 "/>
<polyline clip-path="url(#clip190)" style="stroke:#000000; stroke-linecap:round; stroke-linejoin:round; stroke-width:4; stroke-opacity:1; fill:none" points="209.226,445.188 228.124,445.188 "/>
<polyline clip-path="url(#clip190)" style="stroke:#000000; stroke-linecap:round; stroke-linejoin:round; stroke-width:4; stroke-opacity:1; fill:none" points="209.226,246.216 228.124,246.216 "/>
<polyline clip-path="url(#clip190)" style="stroke:#000000; stroke-linecap:round; stroke-linejoin:round; stroke-width:4; stroke-opacity:1; fill:none" points="209.226,47.2441 228.124,47.2441 "/>
<path clip-path="url(#clip190)" d="M119.051 1027.9 Q115.44 1027.9 113.611 1031.47 Q111.805 1035.01 111.805 1042.14 Q111.805 1049.24 113.611 1052.81 Q115.44 1056.35 119.051 1056.35 Q122.685 1056.35 124.49 1052.81 Q126.319 1049.24 126.319 1042.14 Q126.319 1035.01 124.49 1031.47 Q122.685 1027.9 119.051 1027.9 M119.051 1024.2 Q124.861 1024.2 127.916 1028.8 Q130.995 1033.39 130.995 1042.14 Q130.995 1050.87 127.916 1055.47 Q124.861 1060.05 119.051 1060.05 Q113.24 1060.05 110.162 1055.47 Q107.106 1050.87 107.106 1042.14 Q107.106 1033.39 110.162 1028.8 Q113.24 1024.2 119.051 1024.2 Z" fill="#000000" fill-rule="nonzero" fill-opacity="1" /><path clip-path="url(#clip190)" d="M139.213 1053.5 L144.097 1053.5 L144.097 1059.38 L139.213 1059.38 L139.213 1053.5 Z" fill="#000000" fill-rule="nonzero" fill-opacity="1" /><path clip-path="url(#clip190)" d="M164.282 1027.9 Q160.671 1027.9 158.842 1031.47 Q157.037 1035.01 157.037 1042.14 Q157.037 1049.24 158.842 1052.81 Q160.671 1056.35 164.282 1056.35 Q167.916 1056.35 169.722 1052.81 Q171.55 1049.24 171.55 1042.14 Q171.55 1035.01 169.722 1031.47 Q167.916 1027.9 164.282 1027.9 M164.282 1024.2 Q170.092 1024.2 173.148 1028.8 Q176.226 1033.39 176.226 1042.14 Q176.226 1050.87 173.148 1055.47 Q170.092 1060.05 164.282 1060.05 Q158.472 1060.05 155.393 1055.47 Q152.338 1050.87 152.338 1042.14 Q152.338 1033.39 155.393 1028.8 Q158.472 1024.2 164.282 1024.2 Z" fill="#000000" fill-rule="nonzero" fill-opacity="1" /><path clip-path="url(#clip190)" d="M120.648 828.93 Q117.037 828.93 115.208 832.495 Q113.403 836.037 113.403 843.166 Q113.403 850.273 115.208 853.838 Q117.037 857.379 120.648 857.379 Q124.282 857.379 126.088 853.838 Q127.916 850.273 127.916 843.166 Q127.916 836.037 126.088 832.495 Q124.282 828.93 120.648 828.93 M120.648 825.227 Q126.458 825.227 129.514 829.833 Q132.592 834.416 132.592 843.166 Q132.592 851.893 129.514 856.5 Q126.458 861.083 120.648 861.083 Q114.838 861.083 111.759 856.5 Q108.703 851.893 108.703 843.166 Q108.703 834.416 111.759 829.833 Q114.838 825.227 120.648 825.227 Z" fill="#000000" fill-rule="nonzero" fill-opacity="1" /><path clip-path="url(#clip190)" d="M140.81 854.532 L145.694 854.532 L145.694 860.412 L140.81 860.412 L140.81 854.532 Z" fill="#000000" fill-rule="nonzero" fill-opacity="1" /><path clip-path="url(#clip190)" d="M159.907 856.476 L176.226 856.476 L176.226 860.412 L154.282 860.412 L154.282 856.476 Q156.944 853.722 161.527 849.092 Q166.134 844.439 167.314 843.097 Q169.56 840.574 170.439 838.838 Q171.342 837.078 171.342 835.389 Q171.342 832.634 169.398 830.898 Q167.476 829.162 164.374 829.162 Q162.175 829.162 159.722 829.926 Q157.291 830.69 154.513 832.24 L154.513 827.518 Q157.337 826.384 159.791 825.805 Q162.245 825.227 164.282 825.227 Q169.652 825.227 172.847 827.912 Q176.041 830.597 176.041 835.088 Q176.041 837.217 175.231 839.139 Q174.444 841.037 172.337 843.629 Q171.759 844.301 168.657 847.518 Q165.555 850.713 159.907 856.476 Z" fill="#000000" fill-rule="nonzero" fill-opacity="1" /><path clip-path="url(#clip190)" d="M118.565 629.958 Q114.953 629.958 113.125 633.523 Q111.319 637.065 111.319 644.194 Q111.319 651.301 113.125 654.866 Q114.953 658.407 118.565 658.407 Q122.199 658.407 124.004 654.866 Q125.833 651.301 125.833 644.194 Q125.833 637.065 124.004 633.523 Q122.199 629.958 118.565 629.958 M118.565 626.255 Q124.375 626.255 127.43 630.861 Q130.509 635.444 130.509 644.194 Q130.509 652.921 127.43 657.528 Q124.375 662.111 118.565 662.111 Q112.754 662.111 109.676 657.528 Q106.62 652.921 106.62 644.194 Q106.62 635.444 109.676 630.861 Q112.754 626.255 118.565 626.255 Z" fill="#000000" fill-rule="nonzero" fill-opacity="1" /><path clip-path="url(#clip190)" d="M138.726 655.56 L143.611 655.56 L143.611 661.44 L138.726 661.44 L138.726 655.56 Z" fill="#000000" fill-rule="nonzero" fill-opacity="1" /><path clip-path="url(#clip190)" d="M166.643 630.954 L154.837 649.403 L166.643 649.403 L166.643 630.954 M165.416 626.88 L171.296 626.88 L171.296 649.403 L176.226 649.403 L176.226 653.292 L171.296 653.292 L171.296 661.44 L166.643 661.44 L166.643 653.292 L151.041 653.292 L151.041 648.778 L165.416 626.88 Z" fill="#000000" fill-rule="nonzero" fill-opacity="1" /><path clip-path="url(#clip190)" d="M118.889 430.987 Q115.278 430.987 113.449 434.551 Q111.643 438.093 111.643 445.223 Q111.643 452.329 113.449 455.894 Q115.278 459.435 118.889 459.435 Q122.523 459.435 124.328 455.894 Q126.157 452.329 126.157 445.223 Q126.157 438.093 124.328 434.551 Q122.523 430.987 118.889 430.987 M118.889 427.283 Q124.699 427.283 127.754 431.889 Q130.833 436.473 130.833 445.223 Q130.833 453.949 127.754 458.556 Q124.699 463.139 118.889 463.139 Q113.078 463.139 110 458.556 Q106.944 453.949 106.944 445.223 Q106.944 436.473 110 431.889 Q113.078 427.283 118.889 427.283 Z" fill="#000000" fill-rule="nonzero" fill-opacity="1" /><path clip-path="url(#clip190)" d="M139.051 456.588 L143.935 456.588 L143.935 462.468 L139.051 462.468 L139.051 456.588 Z" fill="#000000" fill-rule="nonzero" fill-opacity="1" /><path clip-path="url(#clip190)" d="M164.699 443.324 Q161.55 443.324 159.699 445.477 Q157.87 447.63 157.87 451.38 Q157.87 455.107 159.699 457.283 Q161.55 459.435 164.699 459.435 Q167.847 459.435 169.675 457.283 Q171.527 455.107 171.527 451.38 Q171.527 447.63 169.675 445.477 Q167.847 443.324 164.699 443.324 M173.981 428.672 L173.981 432.931 Q172.222 432.098 170.416 431.658 Q168.634 431.218 166.874 431.218 Q162.245 431.218 159.791 434.343 Q157.361 437.468 157.013 443.787 Q158.379 441.774 160.439 440.709 Q162.499 439.621 164.976 439.621 Q170.185 439.621 173.194 442.792 Q176.226 445.94 176.226 451.38 Q176.226 456.704 173.078 459.922 Q169.93 463.139 164.699 463.139 Q158.703 463.139 155.532 458.556 Q152.361 453.949 152.361 445.223 Q152.361 437.028 156.25 432.167 Q160.138 427.283 166.689 427.283 Q168.449 427.283 170.231 427.63 Q172.036 427.977 173.981 428.672 Z" fill="#000000" fill-rule="nonzero" fill-opacity="1" /><path clip-path="url(#clip190)" d="M119.143 232.015 Q115.532 232.015 113.703 235.579 Q111.898 239.121 111.898 246.251 Q111.898 253.357 113.703 256.922 Q115.532 260.464 119.143 260.464 Q122.777 260.464 124.583 256.922 Q126.412 253.357 126.412 246.251 Q126.412 239.121 124.583 235.579 Q122.777 232.015 119.143 232.015 M119.143 228.311 Q124.953 228.311 128.009 232.917 Q131.088 237.501 131.088 246.251 Q131.088 254.977 128.009 259.584 Q124.953 264.167 119.143 264.167 Q113.333 264.167 110.254 259.584 Q107.199 254.977 107.199 246.251 Q107.199 237.501 110.254 232.917 Q113.333 228.311 119.143 228.311 Z" fill="#000000" fill-rule="nonzero" fill-opacity="1" /><path clip-path="url(#clip190)" d="M139.305 257.616 L144.189 257.616 L144.189 263.496 L139.305 263.496 L139.305 257.616 Z" fill="#000000" fill-rule="nonzero" fill-opacity="1" /><path clip-path="url(#clip190)" d="M164.374 247.084 Q161.041 247.084 159.12 248.866 Q157.222 250.649 157.222 253.774 Q157.222 256.899 159.12 258.681 Q161.041 260.464 164.374 260.464 Q167.708 260.464 169.629 258.681 Q171.55 256.876 171.55 253.774 Q171.55 250.649 169.629 248.866 Q167.731 247.084 164.374 247.084 M159.699 245.093 Q156.689 244.353 155 242.292 Q153.333 240.232 153.333 237.269 Q153.333 233.126 156.273 230.718 Q159.236 228.311 164.374 228.311 Q169.536 228.311 172.476 230.718 Q175.416 233.126 175.416 237.269 Q175.416 240.232 173.726 242.292 Q172.06 244.353 169.074 245.093 Q172.453 245.88 174.328 248.172 Q176.226 250.464 176.226 253.774 Q176.226 258.797 173.148 261.482 Q170.092 264.167 164.374 264.167 Q158.657 264.167 155.578 261.482 Q152.523 258.797 152.523 253.774 Q152.523 250.464 154.421 248.172 Q156.319 245.88 159.699 245.093 M157.986 237.709 Q157.986 240.394 159.652 241.899 Q161.342 243.403 164.374 243.403 Q167.384 243.403 169.074 241.899 Q170.786 240.394 170.786 237.709 Q170.786 235.024 169.074 233.519 Q167.384 232.015 164.374 232.015 Q161.342 232.015 159.652 233.519 Q157.986 235.024 157.986 237.709 Z" fill="#000000" fill-rule="nonzero" fill-opacity="1" /><path clip-path="url(#clip190)" d="M109.861 60.5889 L117.5 60.5889 L117.5 34.2233 L109.19 35.89 L109.19 31.6308 L117.453 29.9641 L122.129 29.9641 L122.129 60.5889 L129.768 60.5889 L129.768 64.5241 L109.861 64.5241 L109.861 60.5889 Z" fill="#000000" fill-rule="nonzero" fill-opacity="1" /><path clip-path="url(#clip190)" d="M139.213 58.6445 L144.097 58.6445 L144.097 64.5241 L139.213 64.5241 L139.213 58.6445 Z" fill="#000000" fill-rule="nonzero" fill-opacity="1" /><path clip-path="url(#clip190)" d="M164.282 33.0428 Q160.671 33.0428 158.842 36.6076 Q157.037 40.1492 157.037 47.2788 Q157.037 54.3853 158.842 57.9501 Q160.671 61.4917 164.282 61.4917 Q167.916 61.4917 169.722 57.9501 Q171.55 54.3853 171.55 47.2788 Q171.55 40.1492 169.722 36.6076 Q167.916 33.0428 164.282 33.0428 M164.282 29.3391 Q170.092 29.3391 173.148 33.9456 Q176.226 38.5289 176.226 47.2788 Q176.226 56.0056 173.148 60.6121 Q170.092 65.1954 164.282 65.1954 Q158.472 65.1954 155.393 60.6121 Q152.338 56.0056 152.338 47.2788 Q152.338 38.5289 155.393 33.9456 Q158.472 29.3391 164.282 29.3391 Z" fill="#000000" fill-rule="nonzero" fill-opacity="1" /><path clip-path="url(#clip190)" d="M17.1277 633.587 L34.9835 633.587 L34.9835 625.502 Q34.9835 621.015 32.66 618.564 Q30.3365 616.113 26.0397 616.113 Q21.7747 616.113 19.4512 618.564 Q17.1277 621.015 17.1277 625.502 L17.1277 633.587 M11.8442 640.016 L11.8442 625.502 Q11.8442 617.513 15.4726 613.439 Q19.0692 609.333 26.0397 609.333 Q33.0738 609.333 36.6704 613.439 Q40.267 617.513 40.267 625.502 L40.267 633.587 L59.3642 633.587 L59.3642 640.016 L11.8442 640.016 Z" fill="#000000" fill-rule="nonzero" fill-opacity="1" /><path clip-path="url(#clip190)" d="M27.8221 589.472 Q27.8221 594.183 31.5142 596.92 Q35.1745 599.658 41.572 599.658 Q47.9695 599.658 51.6617 596.952 Q55.3219 594.215 55.3219 589.472 Q55.3219 584.794 51.6298 582.056 Q47.9377 579.319 41.572 579.319 Q35.2381 579.319 31.546 582.056 Q27.8221 584.794 27.8221 589.472 M22.8568 589.472 Q22.8568 581.834 27.8221 577.473 Q32.7873 573.113 41.572 573.113 Q50.3249 573.113 55.3219 577.473 Q60.2872 581.834 60.2872 589.472 Q60.2872 597.143 55.3219 601.504 Q50.3249 605.832 41.572 605.832 Q32.7873 605.832 27.8221 601.504 Q22.8568 597.143 22.8568 589.472 Z" fill="#000000" fill-rule="nonzero" fill-opacity="1" /><path clip-path="url(#clip190)" d="M23.7162 566.811 L23.7162 560.954 L51.5343 553.634 L23.7162 546.345 L23.7162 539.438 L51.5343 532.117 L23.7162 524.829 L23.7162 518.972 L59.3642 528.298 L59.3642 535.205 L30.1456 542.875 L59.3642 550.578 L59.3642 557.485 L23.7162 566.811 Z" fill="#000000" fill-rule="nonzero" fill-opacity="1" /><path clip-path="url(#clip190)" d="M40.0761 479.6 L42.9406 479.6 L42.9406 506.527 Q48.9881 506.145 52.1709 502.899 Q55.3219 499.62 55.3219 493.796 Q55.3219 490.422 54.4944 487.271 Q53.6669 484.088 52.0118 480.969 L57.5499 480.969 Q58.8867 484.12 59.587 487.43 Q60.2872 490.74 60.2872 494.146 Q60.2872 502.676 55.3219 507.673 Q50.3567 512.638 41.8903 512.638 Q33.1374 512.638 28.0131 507.928 Q22.8568 503.185 22.8568 495.165 Q22.8568 487.971 27.5038 483.802 Q32.1189 479.6 40.0761 479.6 M38.3573 485.457 Q33.5512 485.52 30.6866 488.162 Q27.8221 490.772 27.8221 495.101 Q27.8221 500.002 30.5912 502.962 Q33.3602 505.891 38.3892 506.336 L38.3573 485.457 Z" fill="#000000" fill-rule="nonzero" fill-opacity="1" /><path clip-path="url(#clip190)" d="M29.1907 449.331 Q28.6178 450.318 28.3632 451.496 Q28.0767 452.642 28.0767 454.042 Q28.0767 459.007 31.3232 461.681 Q34.5379 464.323 40.5853 464.323 L59.3642 464.323 L59.3642 470.211 L23.7162 470.211 L23.7162 464.323 L29.2544 464.323 Q26.0079 462.477 24.4483 459.517 Q22.8568 456.556 22.8568 452.323 Q22.8568 451.719 22.9523 450.986 Q23.016 450.254 23.1751 449.363 L29.1907 449.331 Z" fill="#000000" fill-rule="nonzero" fill-opacity="1" /><polyline clip-path="url(#clip192)" style="stroke:#ff0000; stroke-linecap:round; stroke-linejoin:round; stroke-width:8; stroke-opacity:1; fill:none" points="264.232,810.117 383.835,485.486 503.438,352.194 623.042,287.355 742.645,247.003 862.248,205.346 981.852,214.635 1101.45,202.951 1221.06,171.834 1340.66,238.457 1460.26,182.031 1579.87,269.5 1699.47,47.2441 1819.07,106.936 2097.75,195.129 "/>
<polyline clip-path="url(#clip192)" style="stroke:#ff0000; stroke-linecap:round; stroke-linejoin:round; stroke-width:8; stroke-opacity:1; fill:none" points="383.835,490.822 383.835,480.797 "/>
<polyline clip-path="url(#clip192)" style="stroke:#ff0000; stroke-linecap:round; stroke-linejoin:round; stroke-width:8; stroke-opacity:1; fill:none" points="503.438,359.241 503.438,345.555 "/>
<polyline clip-path="url(#clip192)" style="stroke:#ff0000; stroke-linecap:round; stroke-linejoin:round; stroke-width:8; stroke-opacity:1; fill:none" points="623.042,296.823 623.042,278.751 "/>
<polyline clip-path="url(#clip192)" style="stroke:#ff0000; stroke-linecap:round; stroke-linejoin:round; stroke-width:8; stroke-opacity:1; fill:none" points="742.645,259.325 742.645,235.937 "/>
<polyline clip-path="url(#clip192)" style="stroke:#ff0000; stroke-linecap:round; stroke-linejoin:round; stroke-width:8; stroke-opacity:1; fill:none" points="862.248,219.415 862.248,191.997 "/>
<polyline clip-path="url(#clip192)" style="stroke:#ff0000; stroke-linecap:round; stroke-linejoin:round; stroke-width:8; stroke-opacity:1; fill:none" points="981.852,234.668 981.852,195.933 "/>
<polyline clip-path="url(#clip192)" style="stroke:#ff0000; stroke-linecap:round; stroke-linejoin:round; stroke-width:8; stroke-opacity:1; fill:none" points="1101.45,229.23 1101.45,179.106 "/>
<polyline clip-path="url(#clip192)" style="stroke:#ff0000; stroke-linecap:round; stroke-linejoin:round; stroke-width:8; stroke-opacity:1; fill:none" points="1221.06,202.74 1221.06,145.126 "/>
<polyline clip-path="url(#clip192)" style="stroke:#ff0000; stroke-linecap:round; stroke-linejoin:round; stroke-width:8; stroke-opacity:1; fill:none" points="1340.66,282.857 1340.66,199.192 "/>
<polyline clip-path="url(#clip192)" style="stroke:#ff0000; stroke-linecap:round; stroke-linejoin:round; stroke-width:8; stroke-opacity:1; fill:none" points="1460.26,245.835 1460.26,132.666 "/>
<polyline clip-path="url(#clip192)" style="stroke:#ff0000; stroke-linecap:round; stroke-linejoin:round; stroke-width:8; stroke-opacity:1; fill:none" points="1579.87,366.591 1579.87,190.43 "/>
<polyline clip-path="url(#clip192)" style="stroke:#ff0000; stroke-linecap:round; stroke-linejoin:round; stroke-width:8; stroke-opacity:1; fill:none" points="1699.47,183.724 1699.47,47.2441 "/>
<polyline clip-path="url(#clip192)" style="stroke:#ff0000; stroke-linecap:round; stroke-linejoin:round; stroke-width:8; stroke-opacity:1; fill:none" points="1819.07,211.875 1819.07,59.7282 "/>
<polyline clip-path="url(#clip192)" style="stroke:#ff0000; stroke-linecap:round; stroke-linejoin:round; stroke-width:8; stroke-opacity:1; fill:none" points="2097.75,296.383 2097.75,123.461 "/>
</svg>
