<?xml version="1.0" encoding="utf-8"?>
<svg xmlns="http://www.w3.org/2000/svg" xmlns:xlink="http://www.w3.org/1999/xlink" width="550" height="250" viewBox="0 0 2200 1000">
<defs>
  <clipPath id="clip600">
    <rect x="0" y="0" width="2200" height="1000"/>
  </clipPath>
</defs>
<path clip-path="url(#clip600)" d="M0 1000 L2200 1000 L2200 0 L0 0  Z" fill="#ffffff" fill-rule="evenodd" fill-opacity="1"/>
<defs>
  <clipPath id="clip601">
    <rect x="440" y="0" width="1541" height="1000"/>
  </clipPath>
</defs>
<path clip-path="url(#clip600)" d="M202.746 855.296 L2152.76 855.296 L2152.76 47.2441 L202.746 47.2441  Z" fill="#ffffff" fill-rule="evenodd" fill-opacity="1"/>
<defs>
  <clipPath id="clip602">
    <rect x="202" y="47" width="1951" height="809"/>
  </clipPath>
</defs>
<polyline clip-path="url(#clip602)" style="stroke:#000000; stroke-linecap:round; stroke-linejoin:round; stroke-width:2; stroke-opacity:0.1; fill:none" points="202.746,855.296 202.746,47.2441 "/>
<polyline clip-path="url(#clip602)" style="stroke:#000000; stroke-linecap:round; stroke-linejoin:round; stroke-width:2; stroke-opacity:0.1; fill:none" points="502.748,855.296 502.748,47.2441 "/>
<polyline clip-path="url(#clip602)" style="stroke:#000000; stroke-linecap:round; stroke-linejoin:round; stroke-width:2; stroke-opacity:0.1; fill:none" points="802.749,855.296 802.749,47.2441 "/>
<polyline clip-path="url(#clip602)" style="stroke:#000000; stroke-linecap:round; stroke-linejoin:round; stroke-width:2; stroke-opacity:0.1; fill:none" points="1102.75,855.296 1102.75,47.2441 "/>
<polyline clip-path="url(#clip602)" style="stroke:#000000; stroke-linecap:round; stroke-linejoin:round; stroke-width:2; stroke-opacity:0.1; fill:none" points="1402.75,855.296 1402.75,47.2441 "/>
<polyline clip-path="url(#clip602)" style="stroke:#000000; stroke-linecap:round; stroke-linejoin:round; stroke-width:2; stroke-opacity:0.1; fill:none" points="1702.75,855.296 1702.75,47.2441 "/>
<polyline clip-path="url(#clip602)" style="stroke:#000000; stroke-linecap:round; stroke-linejoin:round; stroke-width:2; stroke-opacity:0.1; fill:none" points="2002.76,855.296 2002.76,47.2441 "/>
<polyline clip-path="url(#clip600)" style="stroke:#000000; stroke-linecap:round; stroke-linejoin:round; stroke-width:4; stroke-opacity:1; fill:none" points="202.746,855.296 2152.76,855.296 "/>
<polyline clip-path="url(#clip600)" style="stroke:#000000; stroke-linecap:round; stroke-linejoin:round; stroke-width:4; stroke-opacity:1; fill:none" points="202.746,855.296 202.746,836.399 "/>
<polyline clip-path="url(#clip600)" style="stroke:#000000; stroke-linecap:round; stroke-linejoin:round; stroke-width:4; stroke-opacity:1; fill:none" points="502.748,855.296 502.748,836.399 "/>
<polyline clip-path="url(#clip600)" style="stroke:#000000; stroke-linecap:round; stroke-linejoin:round; stroke-width:4; stroke-opacity:1; fill:none" points="802.749,855.296 802.749,836.399 "/>
<polyline clip-path="url(#clip600)" style="stroke:#000000; stroke-linecap:round; stroke-linejoin:round; stroke-width:4; stroke-opacity:1; fill:none" points="1102.75,855.296 1102.75,836.399 "/>
<polyline clip-path="url(#clip600)" style="stroke:#000000; stroke-linecap:round; stroke-linejoin:round; stroke-width:4; stroke-opacity:1; fill:none" points="1402.75,855.296 1402.75,836.399 "/>
<polyline clip-path="url(#clip600)" style="stroke:#000000; stroke-linecap:round; stroke-linejoin:round; stroke-width:4; stroke-opacity:1; fill:none" points="1702.75,855.296 1702.75,836.399 "/>
<polyline clip-path="url(#clip600)" style="stroke:#000000; stroke-linecap:round; stroke-linejoin:round; stroke-width:4; stroke-opacity:1; fill:none" points="2002.76,855.296 2002.76,836.399 "/>
<path clip-path="url(#clip600)" d="M202.746 884.615 Q199.135 884.615 197.306 888.18 Q195.501 891.721 195.501 898.851 Q195.501 905.957 197.306 909.522 Q199.135 913.064 202.746 913.064 Q206.381 913.064 208.186 909.522 Q210.015 905.957 210.015 898.851 Q210.015 891.721 208.186 888.18 Q206.381 884.615 202.746 884.615 M202.746 880.911 Q208.556 880.911 211.612 885.518 Q214.691 890.101 214.691 898.851 Q214.691 907.578 211.612 912.184 Q208.556 916.767 202.746 916.767 Q196.936 916.767 193.857 912.184 Q190.802 907.578 190.802 898.851 Q190.802 890.101 193.857 885.518 Q196.936 880.911 202.746 880.911 Z" fill="#000000" fill-rule="nonzero" fill-opacity="1" /><path clip-path="url(#clip600)" d="M493.13 912.161 L500.769 912.161 L500.769 885.795 L492.458 887.462 L492.458 883.203 L500.722 881.536 L505.398 881.536 L505.398 912.161 L513.037 912.161 L513.037 916.096 L493.13 916.096 L493.13 912.161 Z" fill="#000000" fill-rule="nonzero" fill-opacity="1" /><path clip-path="url(#clip600)" d="M797.402 912.161 L813.721 912.161 L813.721 916.096 L791.777 916.096 L791.777 912.161 Q794.439 909.406 799.022 904.777 Q803.629 900.124 804.809 898.781 Q807.055 896.258 807.934 894.522 Q808.837 892.763 808.837 891.073 Q808.837 888.319 806.893 886.582 Q804.971 884.846 801.87 884.846 Q799.671 884.846 797.217 885.61 Q794.786 886.374 792.009 887.925 L792.009 883.203 Q794.833 882.069 797.286 881.49 Q799.74 880.911 801.777 880.911 Q807.147 880.911 810.342 883.596 Q813.536 886.282 813.536 890.772 Q813.536 892.902 812.726 894.823 Q811.939 896.721 809.833 899.314 Q809.254 899.985 806.152 903.203 Q803.05 906.397 797.402 912.161 Z" fill="#000000" fill-rule="nonzero" fill-opacity="1" /><path clip-path="url(#clip600)" d="M1107 897.462 Q1110.35 898.18 1112.23 900.448 Q1114.13 902.717 1114.13 906.05 Q1114.13 911.166 1110.61 913.967 Q1107.09 916.767 1100.61 916.767 Q1098.43 916.767 1096.12 916.328 Q1093.83 915.911 1091.37 915.055 L1091.37 910.541 Q1093.32 911.675 1095.63 912.254 Q1097.95 912.832 1100.47 912.832 Q1104.87 912.832 1107.16 911.096 Q1109.48 909.36 1109.48 906.05 Q1109.48 902.994 1107.32 901.281 Q1105.19 899.545 1101.37 899.545 L1097.35 899.545 L1097.35 895.703 L1101.56 895.703 Q1105.01 895.703 1106.84 894.337 Q1108.67 892.948 1108.67 890.356 Q1108.67 887.694 1106.77 886.282 Q1104.89 884.846 1101.37 884.846 Q1099.45 884.846 1097.25 885.263 Q1095.05 885.68 1092.42 886.559 L1092.42 882.393 Q1095.08 881.652 1097.39 881.282 Q1099.73 880.911 1101.79 880.911 Q1107.11 880.911 1110.22 883.342 Q1113.32 885.749 1113.32 889.869 Q1113.32 892.74 1111.67 894.731 Q1110.03 896.698 1107 897.462 Z" fill="#000000" fill-rule="nonzero" fill-opacity="1" /><path clip-path="url(#clip600)" d="M1405.76 885.61 L1393.96 904.059 L1405.76 904.059 L1405.76 885.61 M1404.53 881.536 L1410.41 881.536 L1410.41 904.059 L1415.34 904.059 L1415.34 907.948 L1410.41 907.948 L1410.41 916.096 L1405.76 916.096 L1405.76 907.948 L1390.16 907.948 L1390.16 903.434 L1404.53 881.536 Z" fill="#000000" fill-rule="nonzero" fill-opacity="1" /><path clip-path="url(#clip600)" d="M1693.03 881.536 L1711.39 881.536 L1711.39 885.471 L1697.31 885.471 L1697.31 893.944 Q1698.33 893.596 1699.35 893.434 Q1700.37 893.249 1701.39 893.249 Q1707.17 893.249 1710.55 896.42 Q1713.93 899.592 1713.93 905.008 Q1713.93 910.587 1710.46 913.689 Q1706.99 916.767 1700.67 916.767 Q1698.49 916.767 1696.23 916.397 Q1693.98 916.027 1691.57 915.286 L1691.57 910.587 Q1693.66 911.721 1695.88 912.277 Q1698.1 912.832 1700.58 912.832 Q1704.58 912.832 1706.92 910.726 Q1709.26 908.619 1709.26 905.008 Q1709.26 901.397 1706.92 899.291 Q1704.58 897.184 1700.58 897.184 Q1698.7 897.184 1696.83 897.601 Q1694.98 898.018 1693.03 898.897 L1693.03 881.536 Z" fill="#000000" fill-rule="nonzero" fill-opacity="1" /><path clip-path="url(#clip600)" d="M2003.16 896.953 Q2000.01 896.953 1998.16 899.106 Q1996.33 901.258 1996.33 905.008 Q1996.33 908.735 1998.16 910.911 Q2000.01 913.064 2003.16 913.064 Q2006.31 913.064 2008.14 910.911 Q2009.99 908.735 2009.99 905.008 Q2009.99 901.258 2008.14 899.106 Q2006.31 896.953 2003.16 896.953 M2012.44 882.3 L2012.44 886.559 Q2010.68 885.726 2008.88 885.286 Q2007.1 884.846 2005.34 884.846 Q2000.71 884.846 1998.25 887.971 Q1995.82 891.096 1995.48 897.416 Q1996.84 895.402 1998.9 894.337 Q2000.96 893.249 2003.44 893.249 Q2008.65 893.249 2011.66 896.42 Q2014.69 899.569 2014.69 905.008 Q2014.69 910.332 2011.54 913.55 Q2008.39 916.767 2003.16 916.767 Q1997.16 916.767 1993.99 912.184 Q1990.82 907.578 1990.82 898.851 Q1990.82 890.657 1994.71 885.795 Q1998.6 880.911 2005.15 880.911 Q2006.91 880.911 2008.69 881.258 Q2010.5 881.606 2012.44 882.3 Z" fill="#000000" fill-rule="nonzero" fill-opacity="1" /><path clip-path="url(#clip600)" d="M1011.13 949.64 L1041.17 949.64 L1041.17 955.051 L1017.56 955.051 L1017.56 969.119 L1040.19 969.119 L1040.19 974.53 L1017.56 974.53 L1017.56 991.749 L1041.75 991.749 L1041.75 997.16 L1011.13 997.16 L1011.13 949.64 Z" fill="#000000" fill-rule="nonzero" fill-opacity="1" /><path clip-path="url(#clip600)" d="M1070.11 947.635 L1070.11 952.505 L1064.51 952.505 Q1061.35 952.505 1060.11 953.778 Q1058.9 955.051 1058.9 958.361 L1058.9 961.512 L1068.55 961.512 L1068.55 966.064 L1058.9 966.064 L1058.9 997.16 L1053.02 997.16 L1053.02 966.064 L1047.41 966.064 L1047.41 961.512 L1053.02 961.512 L1053.02 959.03 Q1053.02 953.078 1055.78 950.372 Q1058.55 947.635 1064.57 947.635 L1070.11 947.635 Z" fill="#000000" fill-rule="nonzero" fill-opacity="1" /><path clip-path="url(#clip600)" d="M1093.06 947.635 L1093.06 952.505 L1087.45 952.505 Q1084.3 952.505 1083.06 953.778 Q1081.85 955.051 1081.85 958.361 L1081.85 961.512 L1091.5 961.512 L1091.5 966.064 L1081.85 966.064 L1081.85 997.16 L1075.96 997.16 L1075.96 966.064 L1070.36 966.064 L1070.36 961.512 L1075.96 961.512 L1075.96 959.03 Q1075.96 953.078 1078.73 950.372 Q1081.5 947.635 1087.52 947.635 L1093.06 947.635 Z" fill="#000000" fill-rule="nonzero" fill-opacity="1" /><path clip-path="url(#clip600)" d="M1128.45 977.872 L1128.45 980.737 L1101.52 980.737 Q1101.9 986.784 1105.15 989.967 Q1108.43 993.118 1114.25 993.118 Q1117.63 993.118 1120.78 992.29 Q1123.96 991.463 1127.08 989.808 L1127.08 995.346 Q1123.93 996.683 1120.62 997.383 Q1117.31 998.083 1113.9 998.083 Q1105.37 998.083 1100.38 993.118 Q1095.41 988.153 1095.41 979.686 Q1095.41 970.933 1100.12 965.809 Q1104.86 960.653 1112.88 960.653 Q1120.08 960.653 1124.25 965.3 Q1128.45 969.915 1128.45 977.872 M1122.59 976.153 Q1122.53 971.347 1119.89 968.483 Q1117.28 965.618 1112.95 965.618 Q1108.05 965.618 1105.09 968.387 Q1102.16 971.156 1101.71 976.185 L1122.59 976.153 Z" fill="#000000" fill-rule="nonzero" fill-opacity="1" /><path clip-path="url(#clip600)" d="M1163.71 962.881 L1163.71 968.355 Q1161.23 966.987 1158.72 966.318 Q1156.23 965.618 1153.69 965.618 Q1147.99 965.618 1144.84 969.247 Q1141.69 972.843 1141.69 979.368 Q1141.69 985.893 1144.84 989.521 Q1147.99 993.118 1153.69 993.118 Q1156.23 993.118 1158.72 992.45 Q1161.23 991.749 1163.71 990.381 L1163.71 995.792 Q1161.26 996.937 1158.62 997.51 Q1156.01 998.083 1153.05 998.083 Q1145 998.083 1140.26 993.022 Q1135.51 987.962 1135.51 979.368 Q1135.51 970.647 1140.29 965.65 Q1145.1 960.653 1153.43 960.653 Q1156.14 960.653 1158.72 961.226 Q1161.3 961.767 1163.71 962.881 Z" fill="#000000" fill-rule="nonzero" fill-opacity="1" /><path clip-path="url(#clip600)" d="M1179.69 951.391 L1179.69 961.512 L1191.76 961.512 L1191.76 966.064 L1179.69 966.064 L1179.69 985.415 Q1179.69 989.776 1180.87 991.017 Q1182.08 992.259 1185.74 992.259 L1191.76 992.259 L1191.76 997.16 L1185.74 997.16 Q1178.96 997.16 1176.38 994.646 Q1173.8 992.099 1173.8 985.415 L1173.8 966.064 L1169.51 966.064 L1169.51 961.512 L1173.8 961.512 L1173.8 951.391 L1179.69 951.391 Z" fill="#000000" fill-rule="nonzero" fill-opacity="1" /><path clip-path="url(#clip600)" d="M1248.92 951.2 L1248.92 957.47 Q1245.26 955.719 1242.01 954.86 Q1238.77 954.001 1235.74 954.001 Q1230.49 954.001 1227.63 956.038 Q1224.79 958.075 1224.79 961.831 Q1224.79 964.982 1226.67 966.605 Q1228.58 968.196 1233.86 969.183 L1237.75 969.979 Q1244.94 971.347 1248.35 974.817 Q1251.78 978.254 1251.78 984.047 Q1251.78 990.954 1247.14 994.518 Q1242.52 998.083 1233.58 998.083 Q1230.2 998.083 1226.39 997.319 Q1222.6 996.555 1218.52 995.06 L1218.52 988.439 Q1222.44 990.635 1226.19 991.749 Q1229.95 992.863 1233.58 992.863 Q1239.08 992.863 1242.08 990.699 Q1245.07 988.535 1245.07 984.524 Q1245.07 981.023 1242.9 979.05 Q1240.77 977.076 1235.87 976.09 L1231.96 975.326 Q1224.76 973.894 1221.55 970.838 Q1218.33 967.782 1218.33 962.34 Q1218.33 956.038 1222.76 952.409 Q1227.21 948.781 1235.01 948.781 Q1238.35 948.781 1241.82 949.386 Q1245.29 949.99 1248.92 951.2 Z" fill="#000000" fill-rule="nonzero" fill-opacity="1" /><path clip-path="url(#clip600)" d="M1261.56 961.512 L1267.41 961.512 L1267.41 997.16 L1261.56 997.16 L1261.56 961.512 M1261.56 947.635 L1267.41 947.635 L1267.41 955.051 L1261.56 955.051 L1261.56 947.635 Z" fill="#000000" fill-rule="nonzero" fill-opacity="1" /><path clip-path="url(#clip600)" d="M1277.12 961.512 L1304.94 961.512 L1304.94 966.859 L1282.91 992.481 L1304.94 992.481 L1304.94 997.16 L1276.32 997.16 L1276.32 991.813 L1298.35 966.191 L1277.12 966.191 L1277.12 961.512 Z" fill="#000000" fill-rule="nonzero" fill-opacity="1" /><path clip-path="url(#clip600)" d="M1344.37 977.872 L1344.37 980.737 L1317.45 980.737 Q1317.83 986.784 1321.07 989.967 Q1324.35 993.118 1330.18 993.118 Q1333.55 993.118 1336.7 992.29 Q1339.89 991.463 1343 989.808 L1343 995.346 Q1339.85 996.683 1336.54 997.383 Q1333.23 998.083 1329.83 998.083 Q1321.3 998.083 1316.3 993.118 Q1311.34 988.153 1311.34 979.686 Q1311.34 970.933 1316.05 965.809 Q1320.79 960.653 1328.81 960.653 Q1336 960.653 1340.17 965.3 Q1344.37 969.915 1344.37 977.872 M1338.52 976.153 Q1338.45 971.347 1335.81 968.483 Q1333.2 965.618 1328.87 965.618 Q1323.97 965.618 1321.01 968.387 Q1318.08 971.156 1317.64 976.185 L1338.52 976.153 Z" fill="#000000" fill-rule="nonzero" fill-opacity="1" /><polyline clip-path="url(#clip602)" style="stroke:#000000; stroke-linecap:round; stroke-linejoin:round; stroke-width:2; stroke-opacity:0.1; fill:none" points="202.746,855.296 2152.76,855.296 "/>
<polyline clip-path="url(#clip602)" style="stroke:#000000; stroke-linecap:round; stroke-linejoin:round; stroke-width:2; stroke-opacity:0.1; fill:none" points="202.746,693.686 2152.76,693.686 "/>
<polyline clip-path="url(#clip602)" style="stroke:#000000; stroke-linecap:round; stroke-linejoin:round; stroke-width:2; stroke-opacity:0.1; fill:none" points="202.746,532.075 2152.76,532.075 "/>
<polyline clip-path="url(#clip602)" style="stroke:#000000; stroke-linecap:round; stroke-linejoin:round; stroke-width:2; stroke-opacity:0.1; fill:none" points="202.746,370.465 2152.76,370.465 "/>
<polyline clip-path="url(#clip602)" style="stroke:#000000; stroke-linecap:round; stroke-linejoin:round; stroke-width:2; stroke-opacity:0.1; fill:none" points="202.746,208.855 2152.76,208.855 "/>
<polyline clip-path="url(#clip602)" style="stroke:#000000; stroke-linecap:round; stroke-linejoin:round; stroke-width:2; stroke-opacity:0.1; fill:none" points="202.746,47.2441 2152.76,47.2441 "/>
<polyline clip-path="url(#clip600)" style="stroke:#000000; stroke-linecap:round; stroke-linejoin:round; stroke-width:4; stroke-opacity:1; fill:none" points="202.746,855.296 202.746,47.2441 "/>
<polyline clip-path="url(#clip600)" style="stroke:#000000; stroke-linecap:round; stroke-linejoin:round; stroke-width:4; stroke-opacity:1; fill:none" points="202.746,855.296 221.644,855.296 "/>
<polyline clip-path="url(#clip600)" style="stroke:#000000; stroke-linecap:round; stroke-linejoin:round; stroke-width:4; stroke-opacity:1; fill:none" points="202.746,693.686 221.644,693.686 "/>
<polyline clip-path="url(#clip600)" style="stroke:#000000; stroke-linecap:round; stroke-linejoin:round; stroke-width:4; stroke-opacity:1; fill:none" points="202.746,532.075 221.644,532.075 "/>
<polyline clip-path="url(#clip600)" style="stroke:#000000; stroke-linecap:round; stroke-linejoin:round; stroke-width:4; stroke-opacity:1; fill:none" points="202.746,370.465 221.644,370.465 "/>
<polyline clip-path="url(#clip600)" style="stroke:#000000; stroke-linecap:round; stroke-linejoin:round; stroke-width:4; stroke-opacity:1; fill:none" points="202.746,208.855 221.644,208.855 "/>
<polyline clip-path="url(#clip600)" style="stroke:#000000; stroke-linecap:round; stroke-linejoin:round; stroke-width:4; stroke-opacity:1; fill:none" points="202.746,47.2441 221.644,47.2441 "/>
<path clip-path="url(#clip600)" d="M112.571 841.095 Q108.96 841.095 107.131 844.66 Q105.325 848.201 105.325 855.331 Q105.325 862.437 107.131 866.002 Q108.96 869.544 112.571 869.544 Q116.205 869.544 118.01 866.002 Q119.839 862.437 119.839 855.331 Q119.839 848.201 118.01 844.66 Q116.205 841.095 112.571 841.095 M112.571 837.391 Q118.381 837.391 121.436 841.998 Q124.515 846.581 124.515 855.331 Q124.515 864.058 121.436 868.664 Q118.381 873.247 112.571 873.247 Q106.76 873.247 103.682 868.664 Q100.626 864.058 100.626 855.331 Q100.626 846.581 103.682 841.998 Q106.76 837.391 112.571 837.391 Z" fill="#000000" fill-rule="nonzero" fill-opacity="1" /><path clip-path="url(#clip600)" d="M132.733 866.697 L137.617 866.697 L137.617 872.576 L132.733 872.576 L132.733 866.697 Z" fill="#000000" fill-rule="nonzero" fill-opacity="1" /><path clip-path="url(#clip600)" d="M157.802 841.095 Q154.191 841.095 152.362 844.66 Q150.557 848.201 150.557 855.331 Q150.557 862.437 152.362 866.002 Q154.191 869.544 157.802 869.544 Q161.436 869.544 163.242 866.002 Q165.07 862.437 165.07 855.331 Q165.07 848.201 163.242 844.66 Q161.436 841.095 157.802 841.095 M157.802 837.391 Q163.612 837.391 166.668 841.998 Q169.746 846.581 169.746 855.331 Q169.746 864.058 166.668 868.664 Q163.612 873.247 157.802 873.247 Q151.992 873.247 148.913 868.664 Q145.858 864.058 145.858 855.331 Q145.858 846.581 148.913 841.998 Q151.992 837.391 157.802 837.391 Z" fill="#000000" fill-rule="nonzero" fill-opacity="1" /><path clip-path="url(#clip600)" d="M114.168 679.484 Q110.557 679.484 108.728 683.049 Q106.923 686.591 106.923 693.721 Q106.923 700.827 108.728 704.392 Q110.557 707.933 114.168 707.933 Q117.802 707.933 119.608 704.392 Q121.436 700.827 121.436 693.721 Q121.436 686.591 119.608 683.049 Q117.802 679.484 114.168 679.484 M114.168 675.781 Q119.978 675.781 123.034 680.387 Q126.112 684.971 126.112 693.721 Q126.112 702.447 123.034 707.054 Q119.978 711.637 114.168 711.637 Q108.358 711.637 105.279 707.054 Q102.223 702.447 102.223 693.721 Q102.223 684.971 105.279 680.387 Q108.358 675.781 114.168 675.781 Z" fill="#000000" fill-rule="nonzero" fill-opacity="1" /><path clip-path="url(#clip600)" d="M134.33 705.086 L139.214 705.086 L139.214 710.966 L134.33 710.966 L134.33 705.086 Z" fill="#000000" fill-rule="nonzero" fill-opacity="1" /><path clip-path="url(#clip600)" d="M153.427 707.031 L169.746 707.031 L169.746 710.966 L147.802 710.966 L147.802 707.031 Q150.464 704.276 155.047 699.646 Q159.654 694.994 160.834 693.651 Q163.08 691.128 163.959 689.392 Q164.862 687.633 164.862 685.943 Q164.862 683.188 162.918 681.452 Q160.996 679.716 157.894 679.716 Q155.695 679.716 153.242 680.48 Q150.811 681.244 148.033 682.795 L148.033 678.072 Q150.857 676.938 153.311 676.359 Q155.765 675.781 157.802 675.781 Q163.172 675.781 166.367 678.466 Q169.561 681.151 169.561 685.642 Q169.561 687.771 168.751 689.693 Q167.964 691.591 165.857 694.183 Q165.279 694.855 162.177 698.072 Q159.075 701.267 153.427 707.031 Z" fill="#000000" fill-rule="nonzero" fill-opacity="1" /><path clip-path="url(#clip600)" d="M112.085 517.874 Q108.473 517.874 106.645 521.439 Q104.839 524.98 104.839 532.11 Q104.839 539.217 106.645 542.781 Q108.473 546.323 112.085 546.323 Q115.719 546.323 117.524 542.781 Q119.353 539.217 119.353 532.11 Q119.353 524.98 117.524 521.439 Q115.719 517.874 112.085 517.874 M112.085 514.17 Q117.895 514.17 120.95 518.777 Q124.029 523.36 124.029 532.11 Q124.029 540.837 120.95 545.443 Q117.895 550.027 112.085 550.027 Q106.274 550.027 103.196 545.443 Q100.14 540.837 100.14 532.11 Q100.14 523.36 103.196 518.777 Q106.274 514.17 112.085 514.17 Z" fill="#000000" fill-rule="nonzero" fill-opacity="1" /><path clip-path="url(#clip600)" d="M132.246 543.476 L137.131 543.476 L137.131 549.355 L132.246 549.355 L132.246 543.476 Z" fill="#000000" fill-rule="nonzero" fill-opacity="1" /><path clip-path="url(#clip600)" d="M160.163 518.869 L148.357 537.318 L160.163 537.318 L160.163 518.869 M158.936 514.795 L164.816 514.795 L164.816 537.318 L169.746 537.318 L169.746 541.207 L164.816 541.207 L164.816 549.355 L160.163 549.355 L160.163 541.207 L144.561 541.207 L144.561 536.693 L158.936 514.795 Z" fill="#000000" fill-rule="nonzero" fill-opacity="1" /><path clip-path="url(#clip600)" d="M112.409 356.264 Q108.798 356.264 106.969 359.828 Q105.163 363.37 105.163 370.5 Q105.163 377.606 106.969 381.171 Q108.798 384.713 112.409 384.713 Q116.043 384.713 117.848 381.171 Q119.677 377.606 119.677 370.5 Q119.677 363.37 117.848 359.828 Q116.043 356.264 112.409 356.264 M112.409 352.56 Q118.219 352.56 121.274 357.166 Q124.353 361.75 124.353 370.5 Q124.353 379.226 121.274 383.833 Q118.219 388.416 112.409 388.416 Q106.598 388.416 103.52 383.833 Q100.464 379.226 100.464 370.5 Q100.464 361.75 103.52 357.166 Q106.598 352.56 112.409 352.56 Z" fill="#000000" fill-rule="nonzero" fill-opacity="1" /><path clip-path="url(#clip600)" d="M132.571 381.865 L137.455 381.865 L137.455 387.745 L132.571 387.745 L132.571 381.865 Z" fill="#000000" fill-rule="nonzero" fill-opacity="1" /><path clip-path="url(#clip600)" d="M158.219 368.602 Q155.07 368.602 153.219 370.754 Q151.39 372.907 151.39 376.657 Q151.39 380.384 153.219 382.56 Q155.07 384.713 158.219 384.713 Q161.367 384.713 163.195 382.56 Q165.047 380.384 165.047 376.657 Q165.047 372.907 163.195 370.754 Q161.367 368.602 158.219 368.602 M167.501 353.949 L167.501 358.208 Q165.742 357.375 163.936 356.935 Q162.154 356.495 160.394 356.495 Q155.765 356.495 153.311 359.62 Q150.881 362.745 150.533 369.064 Q151.899 367.051 153.959 365.986 Q156.019 364.898 158.496 364.898 Q163.705 364.898 166.714 368.069 Q169.746 371.217 169.746 376.657 Q169.746 381.981 166.598 385.199 Q163.45 388.416 158.219 388.416 Q152.223 388.416 149.052 383.833 Q145.881 379.226 145.881 370.5 Q145.881 362.305 149.77 357.444 Q153.658 352.56 160.209 352.56 Q161.969 352.56 163.751 352.907 Q165.556 353.254 167.501 353.949 Z" fill="#000000" fill-rule="nonzero" fill-opacity="1" /><path clip-path="url(#clip600)" d="M112.663 194.653 Q109.052 194.653 107.223 198.218 Q105.418 201.76 105.418 208.889 Q105.418 215.996 107.223 219.56 Q109.052 223.102 112.663 223.102 Q116.297 223.102 118.103 219.56 Q119.932 215.996 119.932 208.889 Q119.932 201.76 118.103 198.218 Q116.297 194.653 112.663 194.653 M112.663 190.95 Q118.473 190.95 121.529 195.556 Q124.608 200.139 124.608 208.889 Q124.608 217.616 121.529 222.223 Q118.473 226.806 112.663 226.806 Q106.853 226.806 103.774 222.223 Q100.719 217.616 100.719 208.889 Q100.719 200.139 103.774 195.556 Q106.853 190.95 112.663 190.95 Z" fill="#000000" fill-rule="nonzero" fill-opacity="1" /><path clip-path="url(#clip600)" d="M132.825 220.255 L137.709 220.255 L137.709 226.135 L132.825 226.135 L132.825 220.255 Z" fill="#000000" fill-rule="nonzero" fill-opacity="1" /><path clip-path="url(#clip600)" d="M157.894 209.723 Q154.561 209.723 152.64 211.505 Q150.742 213.287 150.742 216.412 Q150.742 219.537 152.64 221.32 Q154.561 223.102 157.894 223.102 Q161.228 223.102 163.149 221.32 Q165.07 219.514 165.07 216.412 Q165.07 213.287 163.149 211.505 Q161.251 209.723 157.894 209.723 M153.219 207.732 Q150.209 206.991 148.52 204.931 Q146.853 202.871 146.853 199.908 Q146.853 195.764 149.793 193.357 Q152.756 190.95 157.894 190.95 Q163.056 190.95 165.996 193.357 Q168.936 195.764 168.936 199.908 Q168.936 202.871 167.246 204.931 Q165.58 206.991 162.594 207.732 Q165.973 208.519 167.848 210.811 Q169.746 213.102 169.746 216.412 Q169.746 221.435 166.668 224.121 Q163.612 226.806 157.894 226.806 Q152.177 226.806 149.098 224.121 Q146.043 221.435 146.043 216.412 Q146.043 213.102 147.941 210.811 Q149.839 208.519 153.219 207.732 M151.506 200.348 Q151.506 203.033 153.172 204.537 Q154.862 206.042 157.894 206.042 Q160.904 206.042 162.594 204.537 Q164.306 203.033 164.306 200.348 Q164.306 197.662 162.594 196.158 Q160.904 194.653 157.894 194.653 Q154.862 194.653 153.172 196.158 Q151.506 197.662 151.506 200.348 Z" fill="#000000" fill-rule="nonzero" fill-opacity="1" /><path clip-path="url(#clip600)" d="M103.381 60.5889 L111.02 60.5889 L111.02 34.2233 L102.71 35.89 L102.71 31.6308 L110.973 29.9641 L115.649 29.9641 L115.649 60.5889 L123.288 60.5889 L123.288 64.5241 L103.381 64.5241 L103.381 60.5889 Z" fill="#000000" fill-rule="nonzero" fill-opacity="1" /><path clip-path="url(#clip600)" d="M132.733 58.6445 L137.617 58.6445 L137.617 64.5241 L132.733 64.5241 L132.733 58.6445 Z" fill="#000000" fill-rule="nonzero" fill-opacity="1" /><path clip-path="url(#clip600)" d="M157.802 33.0428 Q154.191 33.0428 152.362 36.6076 Q150.557 40.1492 150.557 47.2788 Q150.557 54.3853 152.362 57.9501 Q154.191 61.4917 157.802 61.4917 Q161.436 61.4917 163.242 57.9501 Q165.07 54.3853 165.07 47.2788 Q165.07 40.1492 163.242 36.6076 Q161.436 33.0428 157.802 33.0428 M157.802 29.3391 Q163.612 29.3391 166.668 33.9456 Q169.746 38.5289 169.746 47.2788 Q169.746 56.0056 166.668 60.6121 Q163.612 65.1954 157.802 65.1954 Q151.992 65.1954 148.913 60.6121 Q145.858 56.0056 145.858 47.2788 Q145.858 38.5289 148.913 33.9456 Q151.992 29.3391 157.802 29.3391 Z" fill="#000000" fill-rule="nonzero" fill-opacity="1" /><path clip-path="url(#clip600)" d="M10.6477 540.183 L28.5035 540.183 L28.5035 532.099 Q28.5035 527.611 26.18 525.16 Q23.8565 522.709 19.5597 522.709 Q15.2947 522.709 12.9712 525.16 Q10.6477 527.611 10.6477 532.099 L10.6477 540.183 M5.36416 546.613 L5.36416 532.099 Q5.36416 524.11 8.99261 520.036 Q12.5892 515.93 19.5597 515.93 Q26.5938 515.93 30.1904 520.036 Q33.787 524.11 33.787 532.099 L33.787 540.183 L52.8842 540.183 L52.8842 546.613 L5.36416 546.613 Z" fill="#000000" fill-rule="nonzero" fill-opacity="1" /><path clip-path="url(#clip600)" d="M21.3421 496.069 Q21.3421 500.779 25.0342 503.517 Q28.6945 506.254 35.092 506.254 Q41.4895 506.254 45.1817 503.549 Q48.8419 500.811 48.8419 496.069 Q48.8419 491.39 45.1498 488.653 Q41.4577 485.916 35.092 485.916 Q28.7581 485.916 25.066 488.653 Q21.3421 491.39 21.3421 496.069 M16.3768 496.069 Q16.3768 488.43 21.3421 484.069 Q26.3073 479.709 35.092 479.709 Q43.8449 479.709 48.8419 484.069 Q53.8072 488.43 53.8072 496.069 Q53.8072 503.739 48.8419 508.1 Q43.8449 512.429 35.092 512.429 Q26.3073 512.429 21.3421 508.1 Q16.3768 503.739 16.3768 496.069 Z" fill="#000000" fill-rule="nonzero" fill-opacity="1" /><path clip-path="url(#clip600)" d="M17.2362 473.407 L17.2362 467.55 L45.0543 460.23 L17.2362 452.941 L17.2362 446.034 L45.0543 438.714 L17.2362 431.425 L17.2362 425.569 L52.8842 434.894 L52.8842 441.801 L23.6656 449.472 L52.8842 457.174 L52.8842 464.081 L17.2362 473.407 Z" fill="#000000" fill-rule="nonzero" fill-opacity="1" /><path clip-path="url(#clip600)" d="M33.5961 386.197 L36.4606 386.197 L36.4606 413.124 Q42.5081 412.742 45.6909 409.495 Q48.8419 406.217 48.8419 400.392 Q48.8419 397.018 48.0144 393.867 Q47.1869 390.685 45.5318 387.565 L51.0699 387.565 Q52.4067 390.716 53.107 394.027 Q53.8072 397.337 53.8072 400.742 Q53.8072 409.272 48.8419 414.269 Q43.8767 419.235 35.4103 419.235 Q26.6574 419.235 21.5331 414.524 Q16.3768 409.782 16.3768 401.761 Q16.3768 394.568 21.0238 390.398 Q25.6389 386.197 33.5961 386.197 M31.8773 392.053 Q27.0712 392.117 24.2066 394.759 Q21.3421 397.369 21.3421 401.697 Q21.3421 406.599 24.1112 409.559 Q26.8802 412.487 31.9092 412.933 L31.8773 392.053 Z" fill="#000000" fill-rule="nonzero" fill-opacity="1" /><path clip-path="url(#clip600)" d="M22.7107 355.928 Q22.1378 356.914 21.8832 358.092 Q21.5967 359.238 21.5967 360.638 Q21.5967 365.604 24.8432 368.277 Q28.0579 370.919 34.1053 370.919 L52.8842 370.919 L52.8842 376.807 L17.2362 376.807 L17.2362 370.919 L22.7744 370.919 Q19.5279 369.073 17.9683 366.113 Q16.3768 363.153 16.3768 358.92 Q16.3768 358.315 16.4723 357.583 Q16.536 356.851 16.6951 355.96 L22.7107 355.928 Z" fill="#000000" fill-rule="nonzero" fill-opacity="1" /><polyline clip-path="url(#clip602)" style="stroke:#ff0000; stroke-linecap:round; stroke-linejoin:round; stroke-width:8; stroke-opacity:1; fill:none" points="15.2453,847.451 202.746,793.44 352.747,647.16 502.748,471.712 652.748,361.853 802.749,290.905 952.75,257.491 1102.75,231.367 1252.75,191.039 1402.75,186.055 1552.75,163.87 1702.75,180.215 1852.75,173.245 2002.76,156.908 2152.76,162.68 2500.76,301.203 "/>
<polyline clip-path="url(#clip602)" style="stroke:#ff0000; stroke-linecap:round; stroke-linejoin:round; stroke-width:8; stroke-opacity:1; fill:none" points="15.2453,847.766 15.2453,847.136 "/>
<polyline clip-path="url(#clip602)" style="stroke:#ff0000; stroke-linecap:round; stroke-linejoin:round; stroke-width:8; stroke-opacity:1; fill:none" points="202.746,794.516 202.746,792.363 "/>
<polyline clip-path="url(#clip602)" style="stroke:#ff0000; stroke-linecap:round; stroke-linejoin:round; stroke-width:8; stroke-opacity:1; fill:none" points="352.747,648.985 352.747,645.334 "/>
<polyline clip-path="url(#clip602)" style="stroke:#ff0000; stroke-linecap:round; stroke-linejoin:round; stroke-width:8; stroke-opacity:1; fill:none" points="502.748,474.373 502.748,469.051 "/>
<polyline clip-path="url(#clip602)" style="stroke:#ff0000; stroke-linecap:round; stroke-linejoin:round; stroke-width:8; stroke-opacity:1; fill:none" points="652.748,365.349 652.748,358.357 "/>
<polyline clip-path="url(#clip602)" style="stroke:#ff0000; stroke-linecap:round; stroke-linejoin:round; stroke-width:8; stroke-opacity:1; fill:none" points="802.749,295.386 802.749,286.425 "/>
<polyline clip-path="url(#clip602)" style="stroke:#ff0000; stroke-linecap:round; stroke-linejoin:round; stroke-width:8; stroke-opacity:1; fill:none" points="952.75,263.263 952.75,251.718 "/>
<polyline clip-path="url(#clip602)" style="stroke:#ff0000; stroke-linecap:round; stroke-linejoin:round; stroke-width:8; stroke-opacity:1; fill:none" points="1102.75,238.645 1102.75,224.088 "/>
<polyline clip-path="url(#clip602)" style="stroke:#ff0000; stroke-linecap:round; stroke-linejoin:round; stroke-width:8; stroke-opacity:1; fill:none" points="1252.75,200.406 1252.75,181.672 "/>
<polyline clip-path="url(#clip602)" style="stroke:#ff0000; stroke-linecap:round; stroke-linejoin:round; stroke-width:8; stroke-opacity:1; fill:none" points="1402.75,198.494 1402.75,173.617 "/>
<polyline clip-path="url(#clip602)" style="stroke:#ff0000; stroke-linecap:round; stroke-linejoin:round; stroke-width:8; stroke-opacity:1; fill:none" points="1552.75,179.712 1552.75,148.028 "/>
<polyline clip-path="url(#clip602)" style="stroke:#ff0000; stroke-linecap:round; stroke-linejoin:round; stroke-width:8; stroke-opacity:1; fill:none" points="1702.75,199.417 1702.75,161.012 "/>
<polyline clip-path="url(#clip602)" style="stroke:#ff0000; stroke-linecap:round; stroke-linejoin:round; stroke-width:8; stroke-opacity:1; fill:none" points="1852.75,195.92 1852.75,150.571 "/>
<polyline clip-path="url(#clip602)" style="stroke:#ff0000; stroke-linecap:round; stroke-linejoin:round; stroke-width:8; stroke-opacity:1; fill:none" points="2002.76,193.149 2002.76,120.668 "/>
<polyline clip-path="url(#clip602)" style="stroke:#ff0000; stroke-linecap:round; stroke-linejoin:round; stroke-width:8; stroke-opacity:1; fill:none" points="2152.76,233.66 2152.76,91.6999 "/>
<polyline clip-path="url(#clip602)" style="stroke:#ff0000; stroke-linecap:round; stroke-linejoin:round; stroke-width:8; stroke-opacity:1; fill:none" points="2500.76,348.845 2500.76,253.562 "/>
<polyline clip-path="url(#clip602)" style="stroke:#0000ff; stroke-linecap:round; stroke-linejoin:round; stroke-width:8; stroke-opacity:1; fill:none" stroke-dasharray="32, 20" points="15.2453,846.522 202.746,798.341 352.747,670.328 502.748,510.134 652.748,412.767 802.749,348.996 952.75,302.545 1102.75,272.962 1252.75,244.888 1402.75,243.444 1552.75,222.17 1702.75,233.096 1852.75,255.029 2002.76,261.883 2152.76,187.775 2500.76,225.866 "/>
<polyline clip-path="url(#clip602)" style="stroke:#0000ff; stroke-linecap:round; stroke-linejoin:round; stroke-width:8; stroke-opacity:1; fill:none" points="15.2453,846.837 15.2453,846.207 "/>
<polyline clip-path="url(#clip602)" style="stroke:#0000ff; stroke-linecap:round; stroke-linejoin:round; stroke-width:8; stroke-opacity:1; fill:none" points="202.746,799.408 202.746,797.274 "/>
<polyline clip-path="url(#clip602)" style="stroke:#0000ff; stroke-linecap:round; stroke-linejoin:round; stroke-width:8; stroke-opacity:1; fill:none" points="352.747,672.119 352.747,668.538 "/>
<polyline clip-path="url(#clip602)" style="stroke:#0000ff; stroke-linecap:round; stroke-linejoin:round; stroke-width:8; stroke-opacity:1; fill:none" points="502.748,512.774 502.748,507.495 "/>
<polyline clip-path="url(#clip602)" style="stroke:#0000ff; stroke-linecap:round; stroke-linejoin:round; stroke-width:8; stroke-opacity:1; fill:none" points="652.748,416.303 652.748,409.23 "/>
<polyline clip-path="url(#clip602)" style="stroke:#0000ff; stroke-linecap:round; stroke-linejoin:round; stroke-width:8; stroke-opacity:1; fill:none" points="802.749,353.613 802.749,344.378 "/>
<polyline clip-path="url(#clip602)" style="stroke:#0000ff; stroke-linecap:round; stroke-linejoin:round; stroke-width:8; stroke-opacity:1; fill:none" points="952.75,308.547 952.75,296.543 "/>
<polyline clip-path="url(#clip602)" style="stroke:#0000ff; stroke-linecap:round; stroke-linejoin:round; stroke-width:8; stroke-opacity:1; fill:none" points="1102.75,280.612 1102.75,265.312 "/>
<polyline clip-path="url(#clip602)" style="stroke:#0000ff; stroke-linecap:round; stroke-linejoin:round; stroke-width:8; stroke-opacity:1; fill:none" points="1252.75,254.709 1252.75,235.067 "/>
<polyline clip-path="url(#clip602)" style="stroke:#0000ff; stroke-linecap:round; stroke-linejoin:round; stroke-width:8; stroke-opacity:1; fill:none" points="1402.75,256.31 1402.75,230.577 "/>
<polyline clip-path="url(#clip602)" style="stroke:#0000ff; stroke-linecap:round; stroke-linejoin:round; stroke-width:8; stroke-opacity:1; fill:none" points="1552.75,238.449 1552.75,205.89 "/>
<polyline clip-path="url(#clip602)" style="stroke:#0000ff; stroke-linecap:round; stroke-linejoin:round; stroke-width:8; stroke-opacity:1; fill:none" points="1702.75,253.08 1702.75,213.112 "/>
<polyline clip-path="url(#clip602)" style="stroke:#0000ff; stroke-linecap:round; stroke-linejoin:round; stroke-width:8; stroke-opacity:1; fill:none" points="1852.75,279.524 1852.75,230.534 "/>
<polyline clip-path="url(#clip602)" style="stroke:#0000ff; stroke-linecap:round; stroke-linejoin:round; stroke-width:8; stroke-opacity:1; fill:none" points="2002.76,301.659 2002.76,222.107 "/>
<polyline clip-path="url(#clip602)" style="stroke:#0000ff; stroke-linecap:round; stroke-linejoin:round; stroke-width:8; stroke-opacity:1; fill:none" points="2152.76,256.237 2152.76,119.313 "/>
<polyline clip-path="url(#clip602)" style="stroke:#0000ff; stroke-linecap:round; stroke-linejoin:round; stroke-width:8; stroke-opacity:1; fill:none" points="2500.76,272.781 2500.76,178.951 "/>
<path clip-path="url(#clip600)" d="M267.747 229.699 L525.108 229.699 L525.108 74.1792 L267.747 74.1792  Z" fill="#ffffff" fill-rule="evenodd" fill-opacity="1"/>
<polyline clip-path="url(#clip600)" style="stroke:#000000; stroke-linecap:round; stroke-linejoin:round; stroke-width:4; stroke-opacity:1; fill:none" points="267.747,229.699 525.108,229.699 525.108,74.1792 267.747,74.1792 267.747,229.699 "/>
<polyline clip-path="url(#clip600)" style="stroke:#ff0000; stroke-linecap:round; stroke-linejoin:round; stroke-width:8; stroke-opacity:1; fill:none" points="289.413,126.019 419.414,126.019 "/>
<path clip-path="url(#clip600)" d="M450.687 143.97 Q441.081 143.97 441.081 130.221 Q441.081 124.781 444.669 117.373 L449.252 117.373 Q445.942 124.781 445.942 130.336 Q445.942 140.359 451.081 140.359 Q455.78 140.359 455.78 127.906 L459.715 127.906 Q459.715 140.359 464.414 140.359 Q469.553 140.359 469.553 130.336 Q469.553 124.781 466.243 117.373 L470.826 117.373 Q474.414 124.781 474.414 130.221 Q474.414 143.97 464.808 143.97 Q458.511 143.97 457.747 137.049 Q456.798 143.97 450.687 143.97 Z" fill="#000000" fill-rule="nonzero" fill-opacity="1" /><path clip-path="url(#clip600)" d="M483.534 139.364 L491.173 139.364 L491.173 112.998 L482.863 114.665 L482.863 110.406 L491.127 108.739 L495.803 108.739 L495.803 139.364 L503.442 139.364 L503.442 143.299 L483.534 143.299 L483.534 139.364 Z" fill="#000000" fill-rule="nonzero" fill-opacity="1" /><polyline clip-path="url(#clip600)" style="stroke:#0000ff; stroke-linecap:round; stroke-linejoin:round; stroke-width:8; stroke-opacity:1; fill:none" stroke-dasharray="32, 20" points="289.413,177.859 419.414,177.859 "/>
<path clip-path="url(#clip600)" d="M450.687 195.81 Q441.081 195.81 441.081 182.061 Q441.081 176.621 444.669 169.213 L449.252 169.213 Q445.942 176.621 445.942 182.176 Q445.942 192.199 451.081 192.199 Q455.78 192.199 455.78 179.746 L459.715 179.746 Q459.715 192.199 464.414 192.199 Q469.553 192.199 469.553 182.176 Q469.553 176.621 466.243 169.213 L470.826 169.213 Q474.414 176.621 474.414 182.061 Q474.414 195.81 464.808 195.81 Q458.511 195.81 457.747 188.889 Q456.798 195.81 450.687 195.81 Z" fill="#000000" fill-rule="nonzero" fill-opacity="1" /><path clip-path="url(#clip600)" d="M486.752 191.204 L503.071 191.204 L503.071 195.139 L481.127 195.139 L481.127 191.204 Q483.789 188.449 488.372 183.82 Q492.979 179.167 494.159 177.824 Q496.405 175.301 497.284 173.565 Q498.187 171.806 498.187 170.116 Q498.187 167.362 496.243 165.625 Q494.321 163.889 491.219 163.889 Q489.02 163.889 486.567 164.653 Q484.136 165.417 481.358 166.968 L481.358 162.246 Q484.182 161.112 486.636 160.533 Q489.09 159.954 491.127 159.954 Q496.497 159.954 499.692 162.639 Q502.886 165.325 502.886 169.815 Q502.886 171.945 502.076 173.866 Q501.289 175.764 499.182 178.357 Q498.604 179.028 495.502 182.246 Q492.4 185.44 486.752 191.204 Z" fill="#000000" fill-rule="nonzero" fill-opacity="1" /></svg>
