<?xml version="1.0" encoding="utf-8"?>
<svg xmlns="http://www.w3.org/2000/svg" xmlns:xlink="http://www.w3.org/1999/xlink" width="600" height="400" viewBox="0 0 2400 1600">
<defs>
  <clipPath id="clip810">
    <rect x="0" y="0" width="2400" height="1600"/>
  </clipPath>
</defs>
<path clip-path="url(#clip810)" d="M0 1600 L2400 1600 L2400 0 L0 0  Z" fill="#ffffff" fill-rule="evenodd" fill-opacity="1"/>
<defs>
  <clipPath id="clip811">
    <rect x="480" y="0" width="1681" height="1600"/>
  </clipPath>
</defs>
<path clip-path="url(#clip810)" d="M249.542 1423.18 L2352.76 1423.18 L2352.76 47.2441 L249.542 47.2441  Z" fill="#ffffff" fill-rule="evenodd" fill-opacity="1"/>
<defs>
  <clipPath id="clip812">
    <rect x="249" y="47" width="2104" height="1377"/>
  </clipPath>
</defs>
<polyline clip-path="url(#clip812)" style="stroke:#000000; stroke-linecap:round; stroke-linejoin:round; stroke-width:2; stroke-opacity:0.1; fill:none" points="309.067,1423.18 309.067,47.2441 "/>
<polyline clip-path="url(#clip812)" style="stroke:#000000; stroke-linecap:round; stroke-linejoin:round; stroke-width:2; stroke-opacity:0.1; fill:none" points="805.108,1423.18 805.108,47.2441 "/>
<polyline clip-path="url(#clip812)" style="stroke:#000000; stroke-linecap:round; stroke-linejoin:round; stroke-width:2; stroke-opacity:0.1; fill:none" points="1301.15,1423.18 1301.15,47.2441 "/>
<polyline clip-path="url(#clip812)" style="stroke:#000000; stroke-linecap:round; stroke-linejoin:round; stroke-width:2; stroke-opacity:0.1; fill:none" points="1797.19,1423.18 1797.19,47.2441 "/>
<polyline clip-path="url(#clip812)" style="stroke:#000000; stroke-linecap:round; stroke-linejoin:round; stroke-width:2; stroke-opacity:0.1; fill:none" points="2293.23,1423.18 2293.23,47.2441 "/>
<polyline clip-path="url(#clip810)" style="stroke:#000000; stroke-linecap:round; stroke-linejoin:round; stroke-width:4; stroke-opacity:1; fill:none" points="249.542,1423.18 2352.76,1423.18 "/>
<polyline clip-path="url(#clip810)" style="stroke:#000000; stroke-linecap:round; stroke-linejoin:round; stroke-width:4; stroke-opacity:1; fill:none" points="309.067,1423.18 309.067,1404.28 "/>
<polyline clip-path="url(#clip810)" style="stroke:#000000; stroke-linecap:round; stroke-linejoin:round; stroke-width:4; stroke-opacity:1; fill:none" points="805.108,1423.18 805.108,1404.28 "/>
<polyline clip-path="url(#clip810)" style="stroke:#000000; stroke-linecap:round; stroke-linejoin:round; stroke-width:4; stroke-opacity:1; fill:none" points="1301.15,1423.18 1301.15,1404.28 "/>
<polyline clip-path="url(#clip810)" style="stroke:#000000; stroke-linecap:round; stroke-linejoin:round; stroke-width:4; stroke-opacity:1; fill:none" points="1797.19,1423.18 1797.19,1404.28 "/>
<polyline clip-path="url(#clip810)" style="stroke:#000000; stroke-linecap:round; stroke-linejoin:round; stroke-width:4; stroke-opacity:1; fill:none" points="2293.23,1423.18 2293.23,1404.28 "/>
<path clip-path="url(#clip810)" d="M271.37 1454.1 Q267.759 1454.1 265.931 1457.66 Q264.125 1461.2 264.125 1468.33 Q264.125 1475.44 265.931 1479.01 Q267.759 1482.55 271.37 1482.55 Q275.005 1482.55 276.81 1479.01 Q278.639 1475.44 278.639 1468.33 Q278.639 1461.2 276.81 1457.66 Q275.005 1454.1 271.37 1454.1 M271.37 1450.39 Q277.181 1450.39 280.236 1455 Q283.315 1459.58 283.315 1468.33 Q283.315 1477.06 280.236 1481.67 Q277.181 1486.25 271.37 1486.25 Q265.56 1486.25 262.482 1481.67 Q259.426 1477.06 259.426 1468.33 Q259.426 1459.58 262.482 1455 Q265.56 1450.39 271.37 1450.39 Z" fill="#000000" fill-rule="nonzero" fill-opacity="1" /><path clip-path="url(#clip810)" d="M291.532 1479.7 L296.417 1479.7 L296.417 1485.58 L291.532 1485.58 L291.532 1479.7 Z" fill="#000000" fill-rule="nonzero" fill-opacity="1" /><path clip-path="url(#clip810)" d="M316.602 1454.1 Q312.991 1454.1 311.162 1457.66 Q309.356 1461.2 309.356 1468.33 Q309.356 1475.44 311.162 1479.01 Q312.991 1482.55 316.602 1482.55 Q320.236 1482.55 322.041 1479.01 Q323.87 1475.44 323.87 1468.33 Q323.87 1461.2 322.041 1457.66 Q320.236 1454.1 316.602 1454.1 M316.602 1450.39 Q322.412 1450.39 325.467 1455 Q328.546 1459.58 328.546 1468.33 Q328.546 1477.06 325.467 1481.67 Q322.412 1486.25 316.602 1486.25 Q310.791 1486.25 307.713 1481.67 Q304.657 1477.06 304.657 1468.33 Q304.657 1459.58 307.713 1455 Q310.791 1450.39 316.602 1450.39 Z" fill="#000000" fill-rule="nonzero" fill-opacity="1" /><path clip-path="url(#clip810)" d="M346.764 1454.1 Q343.152 1454.1 341.324 1457.66 Q339.518 1461.2 339.518 1468.33 Q339.518 1475.44 341.324 1479.01 Q343.152 1482.55 346.764 1482.55 Q350.398 1482.55 352.203 1479.01 Q354.032 1475.44 354.032 1468.33 Q354.032 1461.2 352.203 1457.66 Q350.398 1454.1 346.764 1454.1 M346.764 1450.39 Q352.574 1450.39 355.629 1455 Q358.708 1459.58 358.708 1468.33 Q358.708 1477.06 355.629 1481.67 Q352.574 1486.25 346.764 1486.25 Q340.953 1486.25 337.875 1481.67 Q334.819 1477.06 334.819 1468.33 Q334.819 1459.58 337.875 1455 Q340.953 1450.39 346.764 1450.39 Z" fill="#000000" fill-rule="nonzero" fill-opacity="1" /><path clip-path="url(#clip810)" d="M767.909 1454.1 Q764.298 1454.1 762.469 1457.66 Q760.664 1461.2 760.664 1468.33 Q760.664 1475.44 762.469 1479.01 Q764.298 1482.55 767.909 1482.55 Q771.543 1482.55 773.349 1479.01 Q775.178 1475.44 775.178 1468.33 Q775.178 1461.2 773.349 1457.66 Q771.543 1454.1 767.909 1454.1 M767.909 1450.39 Q773.719 1450.39 776.775 1455 Q779.853 1459.58 779.853 1468.33 Q779.853 1477.06 776.775 1481.67 Q773.719 1486.25 767.909 1486.25 Q762.099 1486.25 759.02 1481.67 Q755.965 1477.06 755.965 1468.33 Q755.965 1459.58 759.02 1455 Q762.099 1450.39 767.909 1450.39 Z" fill="#000000" fill-rule="nonzero" fill-opacity="1" /><path clip-path="url(#clip810)" d="M788.071 1479.7 L792.955 1479.7 L792.955 1485.58 L788.071 1485.58 L788.071 1479.7 Z" fill="#000000" fill-rule="nonzero" fill-opacity="1" /><path clip-path="url(#clip810)" d="M807.168 1481.64 L823.487 1481.64 L823.487 1485.58 L801.543 1485.58 L801.543 1481.64 Q804.205 1478.89 808.788 1474.26 Q813.395 1469.61 814.575 1468.27 Q816.821 1465.74 817.7 1464.01 Q818.603 1462.25 818.603 1460.56 Q818.603 1457.8 816.659 1456.07 Q814.738 1454.33 811.636 1454.33 Q809.437 1454.33 806.983 1455.09 Q804.552 1455.86 801.775 1457.41 L801.775 1452.69 Q804.599 1451.55 807.052 1450.97 Q809.506 1450.39 811.543 1450.39 Q816.913 1450.39 820.108 1453.08 Q823.302 1455.77 823.302 1460.26 Q823.302 1462.39 822.492 1464.31 Q821.705 1466.2 819.599 1468.8 Q819.02 1469.47 815.918 1472.69 Q812.816 1475.88 807.168 1481.64 Z" fill="#000000" fill-rule="nonzero" fill-opacity="1" /><path clip-path="url(#clip810)" d="M833.349 1451.02 L851.705 1451.02 L851.705 1454.96 L837.631 1454.96 L837.631 1463.43 Q838.649 1463.08 839.668 1462.92 Q840.686 1462.73 841.705 1462.73 Q847.492 1462.73 850.872 1465.9 Q854.251 1469.08 854.251 1474.49 Q854.251 1480.07 850.779 1483.17 Q847.307 1486.25 840.987 1486.25 Q838.811 1486.25 836.543 1485.88 Q834.298 1485.51 831.89 1484.77 L831.89 1480.07 Q833.974 1481.2 836.196 1481.76 Q838.418 1482.32 840.895 1482.32 Q844.899 1482.32 847.237 1480.21 Q849.575 1478.1 849.575 1474.49 Q849.575 1470.88 847.237 1468.77 Q844.899 1466.67 840.895 1466.67 Q839.02 1466.67 837.145 1467.08 Q835.293 1467.5 833.349 1468.38 L833.349 1451.02 Z" fill="#000000" fill-rule="nonzero" fill-opacity="1" /><path clip-path="url(#clip810)" d="M1263.45 1454.1 Q1259.84 1454.1 1258.01 1457.66 Q1256.21 1461.2 1256.21 1468.33 Q1256.21 1475.44 1258.01 1479.01 Q1259.84 1482.55 1263.45 1482.55 Q1267.09 1482.55 1268.89 1479.01 Q1270.72 1475.44 1270.72 1468.33 Q1270.72 1461.2 1268.89 1457.66 Q1267.09 1454.1 1263.45 1454.1 M1263.45 1450.39 Q1269.26 1450.39 1272.32 1455 Q1275.4 1459.58 1275.4 1468.33 Q1275.4 1477.06 1272.32 1481.67 Q1269.26 1486.25 1263.45 1486.25 Q1257.64 1486.25 1254.56 1481.67 Q1251.51 1477.06 1251.51 1468.33 Q1251.51 1459.58 1254.56 1455 Q1257.64 1450.39 1263.45 1450.39 Z" fill="#000000" fill-rule="nonzero" fill-opacity="1" /><path clip-path="url(#clip810)" d="M1283.61 1479.7 L1288.5 1479.7 L1288.5 1485.58 L1283.61 1485.58 L1283.61 1479.7 Z" fill="#000000" fill-rule="nonzero" fill-opacity="1" /><path clip-path="url(#clip810)" d="M1298.73 1451.02 L1317.09 1451.02 L1317.09 1454.96 L1303.01 1454.96 L1303.01 1463.43 Q1304.03 1463.08 1305.05 1462.92 Q1306.07 1462.73 1307.09 1462.73 Q1312.87 1462.73 1316.25 1465.9 Q1319.63 1469.08 1319.63 1474.49 Q1319.63 1480.07 1316.16 1483.17 Q1312.69 1486.25 1306.37 1486.25 Q1304.19 1486.25 1301.92 1485.88 Q1299.68 1485.51 1297.27 1484.77 L1297.27 1480.07 Q1299.35 1481.2 1301.58 1481.76 Q1303.8 1482.32 1306.28 1482.32 Q1310.28 1482.32 1312.62 1480.21 Q1314.96 1478.1 1314.96 1474.49 Q1314.96 1470.88 1312.62 1468.77 Q1310.28 1466.67 1306.28 1466.67 Q1304.4 1466.67 1302.53 1467.08 Q1300.67 1467.5 1298.73 1468.38 L1298.73 1451.02 Z" fill="#000000" fill-rule="nonzero" fill-opacity="1" /><path clip-path="url(#clip810)" d="M1338.85 1454.1 Q1335.23 1454.1 1333.41 1457.66 Q1331.6 1461.2 1331.6 1468.33 Q1331.6 1475.44 1333.41 1479.01 Q1335.23 1482.55 1338.85 1482.55 Q1342.48 1482.55 1344.29 1479.01 Q1346.11 1475.44 1346.11 1468.33 Q1346.11 1461.2 1344.29 1457.66 Q1342.48 1454.1 1338.85 1454.1 M1338.85 1450.39 Q1344.66 1450.39 1347.71 1455 Q1350.79 1459.58 1350.79 1468.33 Q1350.79 1477.06 1347.71 1481.67 Q1344.66 1486.25 1338.85 1486.25 Q1333.04 1486.25 1329.96 1481.67 Q1326.9 1477.06 1326.9 1468.33 Q1326.9 1459.58 1329.96 1455 Q1333.04 1450.39 1338.85 1450.39 Z" fill="#000000" fill-rule="nonzero" fill-opacity="1" /><path clip-path="url(#clip810)" d="M1759.99 1454.1 Q1756.38 1454.1 1754.55 1457.66 Q1752.75 1461.2 1752.75 1468.33 Q1752.75 1475.44 1754.55 1479.01 Q1756.38 1482.55 1759.99 1482.55 Q1763.63 1482.55 1765.43 1479.01 Q1767.26 1475.44 1767.26 1468.33 Q1767.26 1461.2 1765.43 1457.66 Q1763.63 1454.1 1759.99 1454.1 M1759.99 1450.39 Q1765.8 1450.39 1768.86 1455 Q1771.94 1459.58 1771.94 1468.33 Q1771.94 1477.06 1768.86 1481.67 Q1765.8 1486.25 1759.99 1486.25 Q1754.18 1486.25 1751.1 1481.67 Q1748.05 1477.06 1748.05 1468.33 Q1748.05 1459.58 1751.1 1455 Q1754.18 1450.39 1759.99 1450.39 Z" fill="#000000" fill-rule="nonzero" fill-opacity="1" /><path clip-path="url(#clip810)" d="M1780.15 1479.7 L1785.04 1479.7 L1785.04 1485.58 L1780.15 1485.58 L1780.15 1479.7 Z" fill="#000000" fill-rule="nonzero" fill-opacity="1" /><path clip-path="url(#clip810)" d="M1794.04 1451.02 L1816.26 1451.02 L1816.26 1453.01 L1803.72 1485.58 L1798.83 1485.58 L1810.64 1454.96 L1794.04 1454.96 L1794.04 1451.02 Z" fill="#000000" fill-rule="nonzero" fill-opacity="1" /><path clip-path="url(#clip810)" d="M1825.43 1451.02 L1843.79 1451.02 L1843.79 1454.96 L1829.71 1454.96 L1829.71 1463.43 Q1830.73 1463.08 1831.75 1462.92 Q1832.77 1462.73 1833.79 1462.73 Q1839.57 1462.73 1842.95 1465.9 Q1846.33 1469.08 1846.33 1474.49 Q1846.33 1480.07 1842.86 1483.17 Q1839.39 1486.25 1833.07 1486.25 Q1830.89 1486.25 1828.62 1485.88 Q1826.38 1485.51 1823.97 1484.77 L1823.97 1480.07 Q1826.06 1481.2 1828.28 1481.76 Q1830.5 1482.32 1832.98 1482.32 Q1836.98 1482.32 1839.32 1480.21 Q1841.66 1478.1 1841.66 1474.49 Q1841.66 1470.88 1839.32 1468.77 Q1836.98 1466.67 1832.98 1466.67 Q1831.1 1466.67 1829.23 1467.08 Q1827.37 1467.5 1825.43 1468.38 L1825.43 1451.02 Z" fill="#000000" fill-rule="nonzero" fill-opacity="1" /><path clip-path="url(#clip810)" d="M2245.3 1481.64 L2252.94 1481.64 L2252.94 1455.28 L2244.63 1456.95 L2244.63 1452.69 L2252.9 1451.02 L2257.57 1451.02 L2257.57 1481.64 L2265.21 1481.64 L2265.21 1485.58 L2245.3 1485.58 L2245.3 1481.64 Z" fill="#000000" fill-rule="nonzero" fill-opacity="1" /><path clip-path="url(#clip810)" d="M2274.65 1479.7 L2279.54 1479.7 L2279.54 1485.58 L2274.65 1485.58 L2274.65 1479.7 Z" fill="#000000" fill-rule="nonzero" fill-opacity="1" /><path clip-path="url(#clip810)" d="M2299.72 1454.1 Q2296.11 1454.1 2294.28 1457.66 Q2292.48 1461.2 2292.48 1468.33 Q2292.48 1475.44 2294.28 1479.01 Q2296.11 1482.55 2299.72 1482.55 Q2303.36 1482.55 2305.16 1479.01 Q2306.99 1475.44 2306.99 1468.33 Q2306.99 1461.2 2305.16 1457.66 Q2303.36 1454.1 2299.72 1454.1 M2299.72 1450.39 Q2305.53 1450.39 2308.59 1455 Q2311.67 1459.58 2311.67 1468.33 Q2311.67 1477.06 2308.59 1481.67 Q2305.53 1486.25 2299.72 1486.25 Q2293.91 1486.25 2290.84 1481.67 Q2287.78 1477.06 2287.78 1468.33 Q2287.78 1459.58 2290.84 1455 Q2293.91 1450.39 2299.72 1450.39 Z" fill="#000000" fill-rule="nonzero" fill-opacity="1" /><path clip-path="url(#clip810)" d="M2329.89 1454.1 Q2326.27 1454.1 2324.45 1457.66 Q2322.64 1461.2 2322.64 1468.33 Q2322.64 1475.44 2324.45 1479.01 Q2326.27 1482.55 2329.89 1482.55 Q2333.52 1482.55 2335.33 1479.01 Q2337.15 1475.44 2337.15 1468.33 Q2337.15 1461.2 2335.33 1457.66 Q2333.52 1454.1 2329.89 1454.1 M2329.89 1450.39 Q2335.7 1450.39 2338.75 1455 Q2341.83 1459.58 2341.83 1468.33 Q2341.83 1477.06 2338.75 1481.67 Q2335.7 1486.25 2329.89 1486.25 Q2324.08 1486.25 2321 1481.67 Q2317.94 1477.06 2317.94 1468.33 Q2317.94 1459.58 2321 1455 Q2324.08 1450.39 2329.89 1450.39 Z" fill="#000000" fill-rule="nonzero" fill-opacity="1" /><path clip-path="url(#clip810)" d="M816.066 1525.81 L816.066 1543.66 L824.151 1543.66 Q828.638 1543.66 831.089 1541.34 Q833.54 1539.02 833.54 1534.72 Q833.54 1530.45 831.089 1528.13 Q828.638 1525.81 824.151 1525.81 L816.066 1525.81 M809.637 1520.52 L824.151 1520.52 Q832.14 1520.52 836.214 1524.15 Q840.32 1527.75 840.32 1534.72 Q840.32 1541.75 836.214 1545.35 Q832.14 1548.95 824.151 1548.95 L816.066 1548.95 L816.066 1568.04 L809.637 1568.04 L809.637 1520.52 Z" fill="#000000" fill-rule="nonzero" fill-opacity="1" /><path clip-path="url(#clip810)" d="M860.181 1536.5 Q855.47 1536.5 852.733 1540.19 Q849.995 1543.85 849.995 1550.25 Q849.995 1556.65 852.701 1560.34 Q855.438 1564 860.181 1564 Q864.859 1564 867.597 1560.31 Q870.334 1556.62 870.334 1550.25 Q870.334 1543.92 867.597 1540.23 Q864.859 1536.5 860.181 1536.5 M860.181 1531.54 Q867.819 1531.54 872.18 1536.5 Q876.54 1541.47 876.54 1550.25 Q876.54 1559 872.18 1564 Q867.819 1568.97 860.181 1568.97 Q852.51 1568.97 848.149 1564 Q843.821 1559 843.821 1550.25 Q843.821 1541.47 848.149 1536.5 Q852.51 1531.54 860.181 1531.54 Z" fill="#000000" fill-rule="nonzero" fill-opacity="1" /><path clip-path="url(#clip810)" d="M908.974 1533.45 L908.974 1538.98 Q906.491 1537.71 903.817 1537.07 Q901.144 1536.44 898.279 1536.44 Q893.919 1536.44 891.723 1537.77 Q889.558 1539.11 889.558 1541.79 Q889.558 1543.82 891.118 1545 Q892.677 1546.15 897.388 1547.2 L899.393 1547.64 Q905.632 1548.98 908.242 1551.43 Q910.883 1553.85 910.883 1558.21 Q910.883 1563.17 906.937 1566.07 Q903.022 1568.97 896.147 1568.97 Q893.282 1568.97 890.163 1568.39 Q887.076 1567.85 883.638 1566.74 L883.638 1560.69 Q886.885 1562.38 890.036 1563.24 Q893.187 1564.07 896.274 1564.07 Q900.412 1564.07 902.64 1562.66 Q904.868 1561.23 904.868 1558.65 Q904.868 1556.27 903.245 1554.99 Q901.653 1553.72 896.21 1552.54 L894.173 1552.07 Q888.731 1550.92 886.312 1548.56 Q883.893 1546.18 883.893 1542.04 Q883.893 1537.01 887.458 1534.27 Q891.022 1531.54 897.579 1531.54 Q900.826 1531.54 903.69 1532.01 Q906.555 1532.49 908.974 1533.45 Z" fill="#000000" fill-rule="nonzero" fill-opacity="1" /><path clip-path="url(#clip810)" d="M926.002 1522.27 L926.002 1532.4 L938.065 1532.4 L938.065 1536.95 L926.002 1536.95 L926.002 1556.3 Q926.002 1560.66 927.18 1561.9 Q928.389 1563.14 932.049 1563.14 L938.065 1563.14 L938.065 1568.04 L932.049 1568.04 Q925.27 1568.04 922.692 1565.53 Q920.114 1562.98 920.114 1556.3 L920.114 1536.95 L915.817 1536.95 L915.817 1532.4 L920.114 1532.4 L920.114 1522.27 L926.002 1522.27 Z" fill="#000000" fill-rule="nonzero" fill-opacity="1" /><path clip-path="url(#clip810)" d="M976.259 1548.76 L976.259 1551.62 L949.332 1551.62 Q949.714 1557.67 952.961 1560.85 Q956.239 1564 962.064 1564 Q965.438 1564 968.589 1563.17 Q971.771 1562.35 974.891 1560.69 L974.891 1566.23 Q971.74 1567.57 968.429 1568.27 Q965.119 1568.97 961.714 1568.97 Q953.184 1568.97 948.186 1564 Q943.221 1559.04 943.221 1550.57 Q943.221 1541.82 947.932 1536.69 Q952.674 1531.54 960.695 1531.54 Q967.888 1531.54 972.058 1536.18 Q976.259 1540.8 976.259 1548.76 M970.403 1547.04 Q970.339 1542.23 967.697 1539.37 Q965.087 1536.5 960.759 1536.5 Q955.857 1536.5 952.897 1539.27 Q949.969 1542.04 949.523 1547.07 L970.403 1547.04 Z" fill="#000000" fill-rule="nonzero" fill-opacity="1" /><path clip-path="url(#clip810)" d="M1006.53 1537.87 Q1005.54 1537.3 1004.36 1537.04 Q1003.22 1536.76 1001.82 1536.76 Q996.852 1536.76 994.179 1540 Q991.537 1543.22 991.537 1549.27 L991.537 1568.04 L985.649 1568.04 L985.649 1532.4 L991.537 1532.4 L991.537 1537.93 Q993.383 1534.69 996.343 1533.13 Q999.303 1531.54 1003.54 1531.54 Q1004.14 1531.54 1004.87 1531.63 Q1005.61 1531.7 1006.5 1531.85 L1006.53 1537.87 Z" fill="#000000" fill-rule="nonzero" fill-opacity="1" /><path clip-path="url(#clip810)" d="M1012.67 1532.4 L1018.53 1532.4 L1018.53 1568.04 L1012.67 1568.04 L1012.67 1532.4 M1012.67 1518.52 L1018.53 1518.52 L1018.53 1525.93 L1012.67 1525.93 L1012.67 1518.52 Z" fill="#000000" fill-rule="nonzero" fill-opacity="1" /><path clip-path="url(#clip810)" d="M1044.6 1536.5 Q1039.88 1536.5 1037.15 1540.19 Q1034.41 1543.85 1034.41 1550.25 Q1034.41 1556.65 1037.12 1560.34 Q1039.85 1564 1044.6 1564 Q1049.27 1564 1052.01 1560.31 Q1054.75 1556.62 1054.75 1550.25 Q1054.75 1543.92 1052.01 1540.23 Q1049.27 1536.5 1044.6 1536.5 M1044.6 1531.54 Q1052.23 1531.54 1056.59 1536.5 Q1060.95 1541.47 1060.95 1550.25 Q1060.95 1559 1056.59 1564 Q1052.23 1568.97 1044.6 1568.97 Q1036.92 1568.97 1032.56 1564 Q1028.24 1559 1028.24 1550.25 Q1028.24 1541.47 1032.56 1536.5 Q1036.92 1531.54 1044.6 1531.54 Z" fill="#000000" fill-rule="nonzero" fill-opacity="1" /><path clip-path="url(#clip810)" d="M1091.32 1537.87 Q1090.33 1537.3 1089.16 1537.04 Q1088.01 1536.76 1086.61 1536.76 Q1081.64 1536.76 1078.97 1540 Q1076.33 1543.22 1076.33 1549.27 L1076.33 1568.04 L1070.44 1568.04 L1070.44 1532.4 L1076.33 1532.4 L1076.33 1537.93 Q1078.17 1534.69 1081.13 1533.13 Q1084.09 1531.54 1088.33 1531.54 Q1088.93 1531.54 1089.66 1531.63 Q1090.4 1531.7 1091.29 1531.85 L1091.32 1537.87 Z" fill="#000000" fill-rule="nonzero" fill-opacity="1" /><path clip-path="url(#clip810)" d="M1124.87 1525.81 L1124.87 1543.66 L1132.95 1543.66 Q1137.44 1543.66 1139.89 1541.34 Q1142.34 1539.02 1142.34 1534.72 Q1142.34 1530.45 1139.89 1528.13 Q1137.44 1525.81 1132.95 1525.81 L1124.87 1525.81 M1118.44 1520.52 L1132.95 1520.52 Q1140.94 1520.52 1145.01 1524.15 Q1149.12 1527.75 1149.12 1534.72 Q1149.12 1541.75 1145.01 1545.35 Q1140.94 1548.95 1132.95 1548.95 L1124.87 1548.95 L1124.87 1568.04 L1118.44 1568.04 L1118.44 1520.52 Z" fill="#000000" fill-rule="nonzero" fill-opacity="1" /><path clip-path="url(#clip810)" d="M1177 1537.87 Q1176.02 1537.3 1174.84 1537.04 Q1173.69 1536.76 1172.29 1536.76 Q1167.33 1536.76 1164.65 1540 Q1162.01 1543.22 1162.01 1549.27 L1162.01 1568.04 L1156.12 1568.04 L1156.12 1532.4 L1162.01 1532.4 L1162.01 1537.93 Q1163.86 1534.69 1166.82 1533.13 Q1169.78 1531.54 1174.01 1531.54 Q1174.61 1531.54 1175.35 1531.63 Q1176.08 1531.7 1176.97 1531.85 L1177 1537.87 Z" fill="#000000" fill-rule="nonzero" fill-opacity="1" /><path clip-path="url(#clip810)" d="M1195.53 1536.5 Q1190.82 1536.5 1188.08 1540.19 Q1185.34 1543.85 1185.34 1550.25 Q1185.34 1556.65 1188.05 1560.34 Q1190.78 1564 1195.53 1564 Q1200.2 1564 1202.94 1560.31 Q1205.68 1556.62 1205.68 1550.25 Q1205.68 1543.92 1202.94 1540.23 Q1200.2 1536.5 1195.53 1536.5 M1195.53 1531.54 Q1203.16 1531.54 1207.53 1536.5 Q1211.89 1541.47 1211.89 1550.25 Q1211.89 1559 1207.53 1564 Q1203.16 1568.97 1195.53 1568.97 Q1187.86 1568.97 1183.49 1564 Q1179.17 1559 1179.17 1550.25 Q1179.17 1541.47 1183.49 1536.5 Q1187.86 1531.54 1195.53 1531.54 Z" fill="#000000" fill-rule="nonzero" fill-opacity="1" /><path clip-path="url(#clip810)" d="M1247.18 1550.25 Q1247.18 1543.79 1244.51 1540.13 Q1241.87 1536.44 1237.22 1536.44 Q1232.57 1536.44 1229.9 1540.13 Q1227.26 1543.79 1227.26 1550.25 Q1227.26 1556.71 1229.9 1560.4 Q1232.57 1564.07 1237.22 1564.07 Q1241.87 1564.07 1244.51 1560.4 Q1247.18 1556.71 1247.18 1550.25 M1227.26 1537.81 Q1229.11 1534.62 1231.91 1533.1 Q1234.74 1531.54 1238.65 1531.54 Q1245.15 1531.54 1249.19 1536.69 Q1253.26 1541.85 1253.26 1550.25 Q1253.26 1558.65 1249.19 1563.81 Q1245.15 1568.97 1238.65 1568.97 Q1234.74 1568.97 1231.91 1567.44 Q1229.11 1565.88 1227.26 1562.7 L1227.26 1568.04 L1221.37 1568.04 L1221.37 1518.52 L1227.26 1518.52 L1227.26 1537.81 Z" fill="#000000" fill-rule="nonzero" fill-opacity="1" /><path clip-path="url(#clip810)" d="M1279.17 1550.12 Q1272.07 1550.12 1269.34 1551.75 Q1266.6 1553.37 1266.6 1557.29 Q1266.6 1560.4 1268.64 1562.25 Q1270.7 1564.07 1274.24 1564.07 Q1279.11 1564.07 1282.04 1560.63 Q1285 1557.16 1285 1551.43 L1285 1550.12 L1279.17 1550.12 M1290.85 1547.71 L1290.85 1568.04 L1285 1568.04 L1285 1562.63 Q1282.99 1565.88 1280 1567.44 Q1277.01 1568.97 1272.68 1568.97 Q1267.2 1568.97 1263.96 1565.91 Q1260.74 1562.82 1260.74 1557.67 Q1260.74 1551.65 1264.75 1548.6 Q1268.8 1545.54 1276.78 1545.54 L1285 1545.54 L1285 1544.97 Q1285 1540.93 1282.32 1538.73 Q1279.68 1536.5 1274.87 1536.5 Q1271.82 1536.5 1268.92 1537.23 Q1266.03 1537.97 1263.35 1539.43 L1263.35 1534.02 Q1266.57 1532.78 1269.59 1532.17 Q1272.61 1531.54 1275.48 1531.54 Q1283.21 1531.54 1287.03 1535.55 Q1290.85 1539.56 1290.85 1547.71 Z" fill="#000000" fill-rule="nonzero" fill-opacity="1" /><path clip-path="url(#clip810)" d="M1328.51 1550.25 Q1328.51 1543.79 1325.83 1540.13 Q1323.19 1536.44 1318.54 1536.44 Q1313.9 1536.44 1311.22 1540.13 Q1308.58 1543.79 1308.58 1550.25 Q1308.58 1556.71 1311.22 1560.4 Q1313.9 1564.07 1318.54 1564.07 Q1323.19 1564.07 1325.83 1560.4 Q1328.51 1556.71 1328.51 1550.25 M1308.58 1537.81 Q1310.43 1534.62 1313.23 1533.1 Q1316.06 1531.54 1319.98 1531.54 Q1326.47 1531.54 1330.51 1536.69 Q1334.58 1541.85 1334.58 1550.25 Q1334.58 1558.65 1330.51 1563.81 Q1326.47 1568.97 1319.98 1568.97 Q1316.06 1568.97 1313.23 1567.44 Q1310.43 1565.88 1308.58 1562.7 L1308.58 1568.04 L1302.69 1568.04 L1302.69 1518.52 L1308.58 1518.52 L1308.58 1537.81 Z" fill="#000000" fill-rule="nonzero" fill-opacity="1" /><path clip-path="url(#clip810)" d="M1344.29 1532.4 L1350.15 1532.4 L1350.15 1568.04 L1344.29 1568.04 L1344.29 1532.4 M1344.29 1518.52 L1350.15 1518.52 L1350.15 1525.93 L1344.29 1525.93 L1344.29 1518.52 Z" fill="#000000" fill-rule="nonzero" fill-opacity="1" /><path clip-path="url(#clip810)" d="M1362.4 1518.52 L1368.26 1518.52 L1368.26 1568.04 L1362.4 1568.04 L1362.4 1518.52 Z" fill="#000000" fill-rule="nonzero" fill-opacity="1" /><path clip-path="url(#clip810)" d="M1380.51 1532.4 L1386.37 1532.4 L1386.37 1568.04 L1380.51 1568.04 L1380.51 1532.4 M1380.51 1518.52 L1386.37 1518.52 L1386.37 1525.93 L1380.51 1525.93 L1380.51 1518.52 Z" fill="#000000" fill-rule="nonzero" fill-opacity="1" /><path clip-path="url(#clip810)" d="M1404.42 1522.27 L1404.42 1532.4 L1416.48 1532.4 L1416.48 1536.95 L1404.42 1536.95 L1404.42 1556.3 Q1404.42 1560.66 1405.59 1561.9 Q1406.8 1563.14 1410.46 1563.14 L1416.48 1563.14 L1416.48 1568.04 L1410.46 1568.04 Q1403.68 1568.04 1401.11 1565.53 Q1398.53 1562.98 1398.53 1556.3 L1398.53 1536.95 L1394.23 1536.95 L1394.23 1532.4 L1398.53 1532.4 L1398.53 1522.27 L1404.42 1522.27 Z" fill="#000000" fill-rule="nonzero" fill-opacity="1" /><path clip-path="url(#clip810)" d="M1439.01 1571.35 Q1436.53 1577.72 1434.18 1579.66 Q1431.82 1581.6 1427.87 1581.6 L1423.2 1581.6 L1423.2 1576.7 L1426.63 1576.7 Q1429.05 1576.7 1430.39 1575.56 Q1431.73 1574.41 1433.35 1570.14 L1434.4 1567.47 L1419.98 1532.4 L1426.19 1532.4 L1437.33 1560.28 L1448.47 1532.4 L1454.67 1532.4 L1439.01 1571.35 Z" fill="#000000" fill-rule="nonzero" fill-opacity="1" /><path clip-path="url(#clip810)" d="M1477.14 1520.52 L1517.34 1520.52 L1517.34 1525.93 L1500.48 1525.93 L1500.48 1568.04 L1494.01 1568.04 L1494.01 1525.93 L1477.14 1525.93 L1477.14 1520.52 Z" fill="#000000" fill-rule="nonzero" fill-opacity="1" /><path clip-path="url(#clip810)" d="M1552.93 1546.53 L1552.93 1568.04 L1547.07 1568.04 L1547.07 1546.72 Q1547.07 1541.66 1545.1 1539.14 Q1543.13 1536.63 1539.18 1536.63 Q1534.44 1536.63 1531.7 1539.65 Q1528.96 1542.68 1528.96 1547.9 L1528.96 1568.04 L1523.07 1568.04 L1523.07 1518.52 L1528.96 1518.52 L1528.96 1537.93 Q1531.06 1534.72 1533.9 1533.13 Q1536.76 1531.54 1540.48 1531.54 Q1546.63 1531.54 1549.78 1535.36 Q1552.93 1539.14 1552.93 1546.53 Z" fill="#000000" fill-rule="nonzero" fill-opacity="1" /><path clip-path="url(#clip810)" d="M1585.27 1537.87 Q1584.28 1537.3 1583.1 1537.04 Q1581.96 1536.76 1580.56 1536.76 Q1575.59 1536.76 1572.92 1540 Q1570.28 1543.22 1570.28 1549.27 L1570.28 1568.04 L1564.39 1568.04 L1564.39 1532.4 L1570.28 1532.4 L1570.28 1537.93 Q1572.12 1534.69 1575.08 1533.13 Q1578.04 1531.54 1582.27 1531.54 Q1582.88 1531.54 1583.61 1531.63 Q1584.34 1531.7 1585.23 1531.85 L1585.27 1537.87 Z" fill="#000000" fill-rule="nonzero" fill-opacity="1" /><path clip-path="url(#clip810)" d="M1620.47 1548.76 L1620.47 1551.62 L1593.54 1551.62 Q1593.92 1557.67 1597.17 1560.85 Q1600.45 1564 1606.27 1564 Q1609.65 1564 1612.8 1563.17 Q1615.98 1562.35 1619.1 1560.69 L1619.1 1566.23 Q1615.95 1567.57 1612.64 1568.27 Q1609.33 1568.97 1605.92 1568.97 Q1597.39 1568.97 1592.4 1564 Q1587.43 1559.04 1587.43 1550.57 Q1587.43 1541.82 1592.14 1536.69 Q1596.88 1531.54 1604.9 1531.54 Q1612.1 1531.54 1616.27 1536.18 Q1620.47 1540.8 1620.47 1548.76 M1614.61 1547.04 Q1614.55 1542.23 1611.91 1539.37 Q1609.3 1536.5 1604.97 1536.5 Q1600.07 1536.5 1597.11 1539.27 Q1594.18 1542.04 1593.73 1547.07 L1614.61 1547.04 Z" fill="#000000" fill-rule="nonzero" fill-opacity="1" /><path clip-path="url(#clip810)" d="M1652.81 1533.45 L1652.81 1538.98 Q1650.32 1537.71 1647.65 1537.07 Q1644.98 1536.44 1642.11 1536.44 Q1637.75 1536.44 1635.56 1537.77 Q1633.39 1539.11 1633.39 1541.79 Q1633.39 1543.82 1634.95 1545 Q1636.51 1546.15 1641.22 1547.2 L1643.23 1547.64 Q1649.46 1548.98 1652.07 1551.43 Q1654.72 1553.85 1654.72 1558.21 Q1654.72 1563.17 1650.77 1566.07 Q1646.85 1568.97 1639.98 1568.97 Q1637.12 1568.97 1634 1568.39 Q1630.91 1567.85 1627.47 1566.74 L1627.47 1560.69 Q1630.72 1562.38 1633.87 1563.24 Q1637.02 1564.07 1640.11 1564.07 Q1644.24 1564.07 1646.47 1562.66 Q1648.7 1561.23 1648.7 1558.65 Q1648.7 1556.27 1647.08 1554.99 Q1645.49 1553.72 1640.04 1552.54 L1638.01 1552.07 Q1632.56 1550.92 1630.14 1548.56 Q1627.73 1546.18 1627.73 1542.04 Q1627.73 1537.01 1631.29 1534.27 Q1634.86 1531.54 1641.41 1531.54 Q1644.66 1531.54 1647.52 1532.01 Q1650.39 1532.49 1652.81 1533.45 Z" fill="#000000" fill-rule="nonzero" fill-opacity="1" /><path clip-path="url(#clip810)" d="M1693.67 1546.53 L1693.67 1568.04 L1687.82 1568.04 L1687.82 1546.72 Q1687.82 1541.66 1685.84 1539.14 Q1683.87 1536.63 1679.92 1536.63 Q1675.18 1536.63 1672.44 1539.65 Q1669.71 1542.68 1669.71 1547.9 L1669.71 1568.04 L1663.82 1568.04 L1663.82 1518.52 L1669.71 1518.52 L1669.71 1537.93 Q1671.81 1534.72 1674.64 1533.13 Q1677.51 1531.54 1681.23 1531.54 Q1687.37 1531.54 1690.52 1535.36 Q1693.67 1539.14 1693.67 1546.53 Z" fill="#000000" fill-rule="nonzero" fill-opacity="1" /><path clip-path="url(#clip810)" d="M1719.17 1536.5 Q1714.46 1536.5 1711.72 1540.19 Q1708.98 1543.85 1708.98 1550.25 Q1708.98 1556.65 1711.69 1560.34 Q1714.43 1564 1719.17 1564 Q1723.85 1564 1726.59 1560.31 Q1729.32 1556.62 1729.32 1550.25 Q1729.32 1543.92 1726.59 1540.23 Q1723.85 1536.5 1719.17 1536.5 M1719.17 1531.54 Q1726.81 1531.54 1731.17 1536.5 Q1735.53 1541.47 1735.53 1550.25 Q1735.53 1559 1731.17 1564 Q1726.81 1568.97 1719.17 1568.97 Q1711.5 1568.97 1707.14 1564 Q1702.81 1559 1702.81 1550.25 Q1702.81 1541.47 1707.14 1536.5 Q1711.5 1531.54 1719.17 1531.54 Z" fill="#000000" fill-rule="nonzero" fill-opacity="1" /><path clip-path="url(#clip810)" d="M1745.24 1518.52 L1751.09 1518.52 L1751.09 1568.04 L1745.24 1568.04 L1745.24 1518.52 Z" fill="#000000" fill-rule="nonzero" fill-opacity="1" /><path clip-path="url(#clip810)" d="M1786.8 1537.81 L1786.8 1518.52 L1792.66 1518.52 L1792.66 1568.04 L1786.8 1568.04 L1786.8 1562.7 Q1784.96 1565.88 1782.13 1567.44 Q1779.32 1568.97 1775.38 1568.97 Q1768.92 1568.97 1764.84 1563.81 Q1760.8 1558.65 1760.8 1550.25 Q1760.8 1541.85 1764.84 1536.69 Q1768.92 1531.54 1775.38 1531.54 Q1779.32 1531.54 1782.13 1533.1 Q1784.96 1534.62 1786.8 1537.81 M1766.85 1550.25 Q1766.85 1556.71 1769.49 1560.4 Q1772.16 1564.07 1776.81 1564.07 Q1781.46 1564.07 1784.13 1560.4 Q1786.8 1556.71 1786.8 1550.25 Q1786.8 1543.79 1784.13 1540.13 Q1781.46 1536.44 1776.81 1536.44 Q1772.16 1536.44 1769.49 1540.13 Q1766.85 1543.79 1766.85 1550.25 Z" fill="#000000" fill-rule="nonzero" fill-opacity="1" /><polyline clip-path="url(#clip812)" style="stroke:#000000; stroke-linecap:round; stroke-linejoin:round; stroke-width:2; stroke-opacity:0.1; fill:none" points="249.542,1384.24 2352.76,1384.24 "/>
<polyline clip-path="url(#clip812)" style="stroke:#000000; stroke-linecap:round; stroke-linejoin:round; stroke-width:2; stroke-opacity:0.1; fill:none" points="249.542,1059.73 2352.76,1059.73 "/>
<polyline clip-path="url(#clip812)" style="stroke:#000000; stroke-linecap:round; stroke-linejoin:round; stroke-width:2; stroke-opacity:0.1; fill:none" points="249.542,735.212 2352.76,735.212 "/>
<polyline clip-path="url(#clip812)" style="stroke:#000000; stroke-linecap:round; stroke-linejoin:round; stroke-width:2; stroke-opacity:0.1; fill:none" points="249.542,410.699 2352.76,410.699 "/>
<polyline clip-path="url(#clip812)" style="stroke:#000000; stroke-linecap:round; stroke-linejoin:round; stroke-width:2; stroke-opacity:0.1; fill:none" points="249.542,86.1857 2352.76,86.1857 "/>
<polyline clip-path="url(#clip810)" style="stroke:#000000; stroke-linecap:round; stroke-linejoin:round; stroke-width:4; stroke-opacity:1; fill:none" points="249.542,1423.18 249.542,47.2441 "/>
<polyline clip-path="url(#clip810)" style="stroke:#000000; stroke-linecap:round; stroke-linejoin:round; stroke-width:4; stroke-opacity:1; fill:none" points="249.542,1384.24 268.44,1384.24 "/>
<polyline clip-path="url(#clip810)" style="stroke:#000000; stroke-linecap:round; stroke-linejoin:round; stroke-width:4; stroke-opacity:1; fill:none" points="249.542,1059.73 268.44,1059.73 "/>
<polyline clip-path="url(#clip810)" style="stroke:#000000; stroke-linecap:round; stroke-linejoin:round; stroke-width:4; stroke-opacity:1; fill:none" points="249.542,735.212 268.44,735.212 "/>
<polyline clip-path="url(#clip810)" style="stroke:#000000; stroke-linecap:round; stroke-linejoin:round; stroke-width:4; stroke-opacity:1; fill:none" points="249.542,410.699 268.44,410.699 "/>
<polyline clip-path="url(#clip810)" style="stroke:#000000; stroke-linecap:round; stroke-linejoin:round; stroke-width:4; stroke-opacity:1; fill:none" points="249.542,86.1857 268.44,86.1857 "/>
<path clip-path="url(#clip810)" d="M126.205 1370.04 Q122.593 1370.04 120.765 1373.6 Q118.959 1377.14 118.959 1384.27 Q118.959 1391.38 120.765 1394.94 Q122.593 1398.49 126.205 1398.49 Q129.839 1398.49 131.644 1394.94 Q133.473 1391.38 133.473 1384.27 Q133.473 1377.14 131.644 1373.6 Q129.839 1370.04 126.205 1370.04 M126.205 1366.33 Q132.015 1366.33 135.07 1370.94 Q138.149 1375.52 138.149 1384.27 Q138.149 1393 135.07 1397.61 Q132.015 1402.19 126.205 1402.19 Q120.394 1402.19 117.316 1397.61 Q114.26 1393 114.26 1384.27 Q114.26 1375.52 117.316 1370.94 Q120.394 1366.33 126.205 1366.33 Z" fill="#000000" fill-rule="nonzero" fill-opacity="1" /><path clip-path="url(#clip810)" d="M146.366 1395.64 L151.251 1395.64 L151.251 1401.52 L146.366 1401.52 L146.366 1395.64 Z" fill="#000000" fill-rule="nonzero" fill-opacity="1" /><path clip-path="url(#clip810)" d="M171.436 1370.04 Q167.825 1370.04 165.996 1373.6 Q164.19 1377.14 164.19 1384.27 Q164.19 1391.38 165.996 1394.94 Q167.825 1398.49 171.436 1398.49 Q175.07 1398.49 176.876 1394.94 Q178.704 1391.38 178.704 1384.27 Q178.704 1377.14 176.876 1373.6 Q175.07 1370.04 171.436 1370.04 M171.436 1366.33 Q177.246 1366.33 180.301 1370.94 Q183.38 1375.52 183.38 1384.27 Q183.38 1393 180.301 1397.61 Q177.246 1402.19 171.436 1402.19 Q165.626 1402.19 162.547 1397.61 Q159.491 1393 159.491 1384.27 Q159.491 1375.52 162.547 1370.94 Q165.626 1366.33 171.436 1366.33 Z" fill="#000000" fill-rule="nonzero" fill-opacity="1" /><path clip-path="url(#clip810)" d="M201.598 1370.04 Q197.987 1370.04 196.158 1373.6 Q194.352 1377.14 194.352 1384.27 Q194.352 1391.38 196.158 1394.94 Q197.987 1398.49 201.598 1398.49 Q205.232 1398.49 207.037 1394.94 Q208.866 1391.38 208.866 1384.27 Q208.866 1377.14 207.037 1373.6 Q205.232 1370.04 201.598 1370.04 M201.598 1366.33 Q207.408 1366.33 210.463 1370.94 Q213.542 1375.52 213.542 1384.27 Q213.542 1393 210.463 1397.61 Q207.408 1402.19 201.598 1402.19 Q195.787 1402.19 192.709 1397.61 Q189.653 1393 189.653 1384.27 Q189.653 1375.52 192.709 1370.94 Q195.787 1366.33 201.598 1366.33 Z" fill="#000000" fill-rule="nonzero" fill-opacity="1" /><path clip-path="url(#clip810)" d="M127.2 1045.52 Q123.589 1045.52 121.76 1049.09 Q119.955 1052.63 119.955 1059.76 Q119.955 1066.87 121.76 1070.43 Q123.589 1073.97 127.2 1073.97 Q130.834 1073.97 132.64 1070.43 Q134.468 1066.87 134.468 1059.76 Q134.468 1052.63 132.64 1049.09 Q130.834 1045.52 127.2 1045.52 M127.2 1041.82 Q133.01 1041.82 136.066 1046.43 Q139.144 1051.01 139.144 1059.76 Q139.144 1068.49 136.066 1073.09 Q133.01 1077.68 127.2 1077.68 Q121.39 1077.68 118.311 1073.09 Q115.256 1068.49 115.256 1059.76 Q115.256 1051.01 118.311 1046.43 Q121.39 1041.82 127.2 1041.82 Z" fill="#000000" fill-rule="nonzero" fill-opacity="1" /><path clip-path="url(#clip810)" d="M147.362 1071.13 L152.246 1071.13 L152.246 1077.01 L147.362 1077.01 L147.362 1071.13 Z" fill="#000000" fill-rule="nonzero" fill-opacity="1" /><path clip-path="url(#clip810)" d="M166.459 1073.07 L182.778 1073.07 L182.778 1077.01 L160.834 1077.01 L160.834 1073.07 Q163.496 1070.32 168.079 1065.69 Q172.686 1061.03 173.866 1059.69 Q176.112 1057.17 176.991 1055.43 Q177.894 1053.67 177.894 1051.98 Q177.894 1049.23 175.95 1047.49 Q174.028 1045.76 170.927 1045.76 Q168.727 1045.76 166.274 1046.52 Q163.843 1047.28 161.065 1048.83 L161.065 1044.11 Q163.89 1042.98 166.343 1042.4 Q168.797 1041.82 170.834 1041.82 Q176.204 1041.82 179.399 1044.51 Q182.593 1047.19 182.593 1051.68 Q182.593 1053.81 181.783 1055.73 Q180.996 1057.63 178.889 1060.22 Q178.311 1060.89 175.209 1064.11 Q172.107 1067.31 166.459 1073.07 Z" fill="#000000" fill-rule="nonzero" fill-opacity="1" /><path clip-path="url(#clip810)" d="M192.639 1042.45 L210.996 1042.45 L210.996 1046.38 L196.922 1046.38 L196.922 1054.85 Q197.94 1054.51 198.959 1054.34 Q199.977 1054.16 200.996 1054.16 Q206.783 1054.16 210.162 1057.33 Q213.542 1060.5 213.542 1065.92 Q213.542 1071.5 210.07 1074.6 Q206.598 1077.68 200.278 1077.68 Q198.102 1077.68 195.834 1077.31 Q193.588 1076.94 191.181 1076.19 L191.181 1071.5 Q193.264 1072.63 195.487 1073.19 Q197.709 1073.74 200.186 1073.74 Q204.19 1073.74 206.528 1071.63 Q208.866 1069.53 208.866 1065.92 Q208.866 1062.31 206.528 1060.2 Q204.19 1058.09 200.186 1058.09 Q198.311 1058.09 196.436 1058.51 Q194.584 1058.93 192.639 1059.81 L192.639 1042.45 Z" fill="#000000" fill-rule="nonzero" fill-opacity="1" /><path clip-path="url(#clip810)" d="M126.205 721.011 Q122.593 721.011 120.765 724.575 Q118.959 728.117 118.959 735.247 Q118.959 742.353 120.765 745.918 Q122.593 749.46 126.205 749.46 Q129.839 749.46 131.644 745.918 Q133.473 742.353 133.473 735.247 Q133.473 728.117 131.644 724.575 Q129.839 721.011 126.205 721.011 M126.205 717.307 Q132.015 717.307 135.07 721.913 Q138.149 726.497 138.149 735.247 Q138.149 743.973 135.07 748.58 Q132.015 753.163 126.205 753.163 Q120.394 753.163 117.316 748.58 Q114.26 743.973 114.26 735.247 Q114.26 726.497 117.316 721.913 Q120.394 717.307 126.205 717.307 Z" fill="#000000" fill-rule="nonzero" fill-opacity="1" /><path clip-path="url(#clip810)" d="M146.366 746.612 L151.251 746.612 L151.251 752.492 L146.366 752.492 L146.366 746.612 Z" fill="#000000" fill-rule="nonzero" fill-opacity="1" /><path clip-path="url(#clip810)" d="M161.482 717.932 L179.839 717.932 L179.839 721.867 L165.765 721.867 L165.765 730.339 Q166.783 729.992 167.802 729.83 Q168.82 729.645 169.839 729.645 Q175.626 729.645 179.005 732.816 Q182.385 735.987 182.385 741.404 Q182.385 746.983 178.913 750.085 Q175.44 753.163 169.121 753.163 Q166.945 753.163 164.677 752.793 Q162.431 752.423 160.024 751.682 L160.024 746.983 Q162.107 748.117 164.329 748.673 Q166.552 749.228 169.028 749.228 Q173.033 749.228 175.371 747.122 Q177.709 745.015 177.709 741.404 Q177.709 737.793 175.371 735.686 Q173.033 733.58 169.028 733.58 Q167.153 733.58 165.278 733.997 Q163.427 734.413 161.482 735.293 L161.482 717.932 Z" fill="#000000" fill-rule="nonzero" fill-opacity="1" /><path clip-path="url(#clip810)" d="M201.598 721.011 Q197.987 721.011 196.158 724.575 Q194.352 728.117 194.352 735.247 Q194.352 742.353 196.158 745.918 Q197.987 749.46 201.598 749.46 Q205.232 749.46 207.037 745.918 Q208.866 742.353 208.866 735.247 Q208.866 728.117 207.037 724.575 Q205.232 721.011 201.598 721.011 M201.598 717.307 Q207.408 717.307 210.463 721.913 Q213.542 726.497 213.542 735.247 Q213.542 743.973 210.463 748.58 Q207.408 753.163 201.598 753.163 Q195.787 753.163 192.709 748.58 Q189.653 743.973 189.653 735.247 Q189.653 726.497 192.709 721.913 Q195.787 717.307 201.598 717.307 Z" fill="#000000" fill-rule="nonzero" fill-opacity="1" /><path clip-path="url(#clip810)" d="M127.2 396.498 Q123.589 396.498 121.76 400.062 Q119.955 403.604 119.955 410.734 Q119.955 417.84 121.76 421.405 Q123.589 424.946 127.2 424.946 Q130.834 424.946 132.64 421.405 Q134.468 417.84 134.468 410.734 Q134.468 403.604 132.64 400.062 Q130.834 396.498 127.2 396.498 M127.2 392.794 Q133.01 392.794 136.066 397.4 Q139.144 401.984 139.144 410.734 Q139.144 419.46 136.066 424.067 Q133.01 428.65 127.2 428.65 Q121.39 428.65 118.311 424.067 Q115.256 419.46 115.256 410.734 Q115.256 401.984 118.311 397.4 Q121.39 392.794 127.2 392.794 Z" fill="#000000" fill-rule="nonzero" fill-opacity="1" /><path clip-path="url(#clip810)" d="M147.362 422.099 L152.246 422.099 L152.246 427.979 L147.362 427.979 L147.362 422.099 Z" fill="#000000" fill-rule="nonzero" fill-opacity="1" /><path clip-path="url(#clip810)" d="M161.251 393.419 L183.473 393.419 L183.473 395.41 L170.927 427.979 L166.042 427.979 L177.848 397.354 L161.251 397.354 L161.251 393.419 Z" fill="#000000" fill-rule="nonzero" fill-opacity="1" /><path clip-path="url(#clip810)" d="M192.639 393.419 L210.996 393.419 L210.996 397.354 L196.922 397.354 L196.922 405.826 Q197.94 405.479 198.959 405.317 Q199.977 405.132 200.996 405.132 Q206.783 405.132 210.162 408.303 Q213.542 411.474 213.542 416.891 Q213.542 422.47 210.07 425.571 Q206.598 428.65 200.278 428.65 Q198.102 428.65 195.834 428.28 Q193.588 427.909 191.181 427.169 L191.181 422.47 Q193.264 423.604 195.487 424.159 Q197.709 424.715 200.186 424.715 Q204.19 424.715 206.528 422.608 Q208.866 420.502 208.866 416.891 Q208.866 413.28 206.528 411.173 Q204.19 409.067 200.186 409.067 Q198.311 409.067 196.436 409.484 Q194.584 409.9 192.639 410.78 L192.639 393.419 Z" fill="#000000" fill-rule="nonzero" fill-opacity="1" /><path clip-path="url(#clip810)" d="M117.015 99.5305 L124.654 99.5305 L124.654 73.1649 L116.343 74.8316 L116.343 70.5723 L124.607 68.9057 L129.283 68.9057 L129.283 99.5305 L136.922 99.5305 L136.922 103.466 L117.015 103.466 L117.015 99.5305 Z" fill="#000000" fill-rule="nonzero" fill-opacity="1" /><path clip-path="url(#clip810)" d="M146.366 97.5861 L151.251 97.5861 L151.251 103.466 L146.366 103.466 L146.366 97.5861 Z" fill="#000000" fill-rule="nonzero" fill-opacity="1" /><path clip-path="url(#clip810)" d="M171.436 71.9844 Q167.825 71.9844 165.996 75.5492 Q164.19 79.0908 164.19 86.2204 Q164.19 93.3268 165.996 96.8916 Q167.825 100.433 171.436 100.433 Q175.07 100.433 176.876 96.8916 Q178.704 93.3268 178.704 86.2204 Q178.704 79.0908 176.876 75.5492 Q175.07 71.9844 171.436 71.9844 M171.436 68.2807 Q177.246 68.2807 180.301 72.8871 Q183.38 77.4704 183.38 86.2204 Q183.38 94.9472 180.301 99.5537 Q177.246 104.137 171.436 104.137 Q165.626 104.137 162.547 99.5537 Q159.491 94.9472 159.491 86.2204 Q159.491 77.4704 162.547 72.8871 Q165.626 68.2807 171.436 68.2807 Z" fill="#000000" fill-rule="nonzero" fill-opacity="1" /><path clip-path="url(#clip810)" d="M201.598 71.9844 Q197.987 71.9844 196.158 75.5492 Q194.352 79.0908 194.352 86.2204 Q194.352 93.3268 196.158 96.8916 Q197.987 100.433 201.598 100.433 Q205.232 100.433 207.037 96.8916 Q208.866 93.3268 208.866 86.2204 Q208.866 79.0908 207.037 75.5492 Q205.232 71.9844 201.598 71.9844 M201.598 68.2807 Q207.408 68.2807 210.463 72.8871 Q213.542 77.4704 213.542 86.2204 Q213.542 94.9472 210.463 99.5537 Q207.408 104.137 201.598 104.137 Q195.787 104.137 192.709 99.5537 Q189.653 94.9472 189.653 86.2204 Q189.653 77.4704 192.709 72.8871 Q195.787 68.2807 201.598 68.2807 Z" fill="#000000" fill-rule="nonzero" fill-opacity="1" /><path clip-path="url(#clip810)" d="M16.4842 792.121 L16.4842 764.813 L21.895 764.813 L21.895 785.692 L35.8996 785.692 L35.8996 766.85 L41.3104 766.85 L41.3104 785.692 L64.0042 785.692 L64.0042 792.121 L16.4842 792.121 Z" fill="#000000" fill-rule="nonzero" fill-opacity="1" /><path clip-path="url(#clip810)" d="M21.7677 748.198 L39.6235 748.198 L39.6235 740.114 Q39.6235 735.626 37.3 733.175 Q34.9765 730.724 30.6797 730.724 Q26.4147 730.724 24.0912 733.175 Q21.7677 735.626 21.7677 740.114 L21.7677 748.198 M16.4842 754.627 L16.4842 740.114 Q16.4842 732.125 20.1126 728.051 Q23.7092 723.945 30.6797 723.945 Q37.7138 723.945 41.3104 728.051 Q44.907 732.125 44.907 740.114 L44.907 748.198 L64.0042 748.198 L64.0042 754.627 L16.4842 754.627 Z" fill="#000000" fill-rule="nonzero" fill-opacity="1" /><path clip-path="url(#clip810)" d="M41.7242 692.785 Q42.4244 690.716 44.7161 688.774 Q47.0077 686.801 51.0181 684.827 L64.0042 678.303 L64.0042 685.209 L51.8138 691.289 Q47.0395 693.644 45.48 695.872 Q43.9204 698.068 43.9204 701.887 L43.9204 708.89 L64.0042 708.89 L64.0042 715.319 L16.4842 715.319 L16.4842 700.805 Q16.4842 692.657 19.8898 688.647 Q23.2955 684.636 30.1704 684.636 Q34.6582 684.636 37.6183 686.737 Q40.5784 688.806 41.7242 692.785 M21.7677 708.89 L38.6368 708.89 L38.6368 700.805 Q38.6368 696.158 36.5043 693.803 Q34.34 691.416 30.1704 691.416 Q26.0009 691.416 23.9002 693.803 Q21.7677 696.158 21.7677 700.805 L21.7677 708.89 Z" fill="#000000" fill-rule="nonzero" fill-opacity="1" /><polyline clip-path="url(#clip812)" style="stroke:#ff0000; stroke-linecap:round; stroke-linejoin:round; stroke-width:6; stroke-opacity:1; fill:none" points="309.067,86.1857 309.067,558.131 311.051,611.891 313.035,636.559 315.019,653.588 317.004,666.932 318.988,677.788 320.972,687.301 322.956,695.519 324.94,702.922 326.924,709.453 328.909,715.449 330.893,720.94 332.877,726.104 334.861,730.887 336.845,735.542 338.829,740.037 340.814,744.457 342.798,748.716 344.782,753.003 346.766,756.833 348.75,760.637 350.734,764.465 352.719,768.233 354.703,771.793 356.687,775.32 358.671,778.816 360.655,782.352 362.639,785.747 364.624,788.947 366.608,792.182 368.592,795.33 370.576,798.504 372.56,801.55 374.544,804.495 376.529,807.38 378.513,810.294 380.497,813.149 382.481,815.914 384.465,818.682 386.449,821.429 388.434,824.226 390.418,826.833 392.402,829.487 394.386,831.968 396.37,834.544 398.354,837.019 400.339,839.537 402.323,841.926 404.307,844.367 406.291,846.799 408.275,849.151 410.259,851.595 412.243,854.037 414.228,856.346 416.212,858.734 418.196,860.873 420.18,863.267 422.164,865.616 424.148,867.928 426.133,870.223 428.117,872.424 430.101,874.618 432.085,876.898 434.069,879.189 436.053,881.344 438.038,883.58 440.022,885.758 442.006,887.882 443.99,890.039 445.974,892.092 447.958,894.22 449.943,896.325 451.927,898.374 453.911,900.359 455.895,902.4 457.879,904.408 459.863,906.477 461.848,908.327 463.832,910.2 465.816,912.07 467.8,913.882 469.784,915.649 471.768,917.458 473.753,919.272 475.737,921.051 477.721,922.776 479.705,924.583 481.689,926.302 483.673,927.983 485.658,929.67 487.642,931.428 489.626,933.091 491.61,934.723 493.594,936.327 495.578,938.016 497.563,939.586 499.547,941.13 501.531,942.71 503.515,944.208 505.499,945.722 507.483,947.15 509.468,948.584 511.452,949.971 513.436,951.42 515.42,952.814 517.404,954.212 519.388,955.652 521.373,956.997 523.357,958.237 525.341,959.608 527.325,960.967 529.309,962.245 531.293,963.517 533.277,964.89 535.262,966.217 537.246,967.452 539.23,968.792 541.214,970.042 543.198,971.324 545.182,972.6 547.167,973.807 549.151,975.043 551.135,976.289 553.119,977.528 555.103,978.777 557.087,980.067 559.072,981.255 561.056,982.509 563.04,983.74 565.024,984.923 567.008,986.134 568.992,987.301 570.977,988.555 572.961,989.739 574.945,990.876 576.929,992.106 578.913,993.39 580.897,994.573 582.882,995.697 584.866,996.872 586.85,997.99 588.834,999.224 590.818,1000.47 592.802,1001.66 594.787,1002.83 596.771,1003.99 598.755,1005.13 600.739,1006.29 602.723,1007.5 604.707,1008.67 606.692,1009.86 608.676,1010.98 610.66,1012.14 612.644,1013.25 614.628,1014.55 616.612,1015.71 618.597,1016.92 620.581,1018.07 622.565,1019.3 624.549,1020.52 626.533,1021.74 628.517,1023 630.502,1024.23 632.486,1025.34 634.47,1026.48 636.454,1027.71 638.438,1028.91 640.422,1030.03 642.407,1031.19 644.391,1032.38 646.375,1033.57 648.359,1034.81 650.343,1035.97 652.327,1037.1 654.312,1038.21 656.296,1039.34 658.28,1040.53 660.264,1041.7 662.248,1042.79 664.232,1043.93 666.216,1044.99 668.201,1046.05 670.185,1047.15 672.169,1048.23 674.153,1049.37 676.137,1050.48 678.121,1051.47 680.106,1052.52 682.09,1053.6 684.074,1054.7 686.058,1055.78 688.042,1056.82 690.026,1057.82 692.011,1058.89 693.995,1060.03 695.979,1061.14 697.963,1062.24 699.947,1063.27 701.931,1064.43 703.916,1065.56 705.9,1066.66 707.884,1067.79 709.868,1068.91 711.852,1070.05 713.836,1071.18 715.821,1072.33 717.805,1073.59 719.789,1074.75 721.773,1075.98 723.757,1077.12 725.741,1078.37 727.726,1079.53 729.71,1080.82 731.694,1082.17 733.678,1083.39 735.662,1084.68 737.646,1085.96 739.631,1087.27 741.615,1088.57 743.599,1089.86 745.583,1091.11 747.567,1092.34 749.551,1093.6 751.536,1094.89 753.52,1096.21 755.504,1097.54 757.488,1098.76 759.472,1100.08 761.456,1101.29 763.441,1102.55 765.425,1103.77 767.409,1104.97 769.393,1106.19 771.377,1107.47 773.361,1108.71 775.345,1109.93 777.33,1111.12 779.314,1112.31 781.298,1113.5 783.282,1114.66 785.266,1115.91 787.25,1117.13 789.235,1118.41 791.219,1119.6 793.203,1120.79 795.187,1122.04 797.171,1123.3 799.155,1124.49 801.14,1125.64 803.124,1126.8 805.108,1127.93 807.092,1129.09 809.076,1130.25 811.06,1131.33 813.045,1132.56 815.029,1133.78 817.013,1134.91 818.997,1136.06 820.981,1137.25 822.965,1138.36 824.95,1139.37 826.934,1140.49 828.918,1141.47 830.902,1142.5 832.886,1143.53 834.87,1144.51 836.855,1145.53 838.839,1146.54 840.823,1147.5 842.807,1148.43 844.791,1149.47 846.775,1150.4 848.76,1151.31 850.744,1152.29 852.728,1153.2 854.712,1154.08 856.696,1154.96 858.68,1155.87 860.665,1156.7 862.649,1157.57 864.633,1158.4 866.617,1159.27 868.601,1160.1 870.585,1160.95 872.57,1161.78 874.554,1162.59 876.538,1163.37 878.522,1164.18 880.506,1165.05 882.49,1165.83 884.475,1166.63 886.459,1167.49 888.443,1168.31 890.427,1169.1 892.411,1169.9 894.395,1170.65 896.38,1171.46 898.364,1172.22 900.348,1172.97 902.332,1173.69 904.316,1174.5 906.3,1175.22 908.285,1175.95 910.269,1176.64 912.253,1177.33 914.237,1178.08 916.221,1178.76 918.205,1179.48 920.189,1180.17 922.174,1180.86 924.158,1181.53 926.142,1182.28 928.126,1182.93 930.11,1183.63 932.094,1184.26 934.079,1184.96 936.063,1185.6 938.047,1186.24 940.031,1186.91 942.015,1187.5 943.999,1188.14 945.984,1188.73 947.968,1189.37 949.952,1190 951.936,1190.58 953.92,1191.21 955.904,1191.88 957.889,1192.46 959.873,1193.06 961.857,1193.59 963.841,1194.1 965.825,1194.65 967.809,1195.19 969.794,1195.7 971.778,1196.19 973.762,1196.67 975.746,1197.14 977.73,1197.6 979.714,1198.06 981.699,1198.53 983.683,1198.98 985.667,1199.41 987.651,1199.84 989.635,1200.25 991.619,1200.62 993.604,1201.01 995.588,1201.41 997.572,1201.78 999.556,1202.12 1001.54,1202.47 1003.52,1202.8 1005.51,1203.17 1007.49,1203.45 1009.48,1203.75 1011.46,1204.1 1013.45,1204.42 1015.43,1204.77 1017.41,1205.07 1019.4,1205.38 1021.38,1205.69 1023.37,1206 1025.35,1206.28 1027.33,1206.58 1029.32,1206.87 1031.3,1207.16 1033.29,1207.46 1035.27,1207.72 1037.26,1208.03 1039.24,1208.3 1041.22,1208.54 1043.21,1208.8 1045.19,1209.11 1047.18,1209.39 1049.16,1209.71 1051.14,1209.98 1053.13,1210.27 1055.11,1210.56 1057.1,1210.83 1059.08,1211.08 1061.07,1211.37 1063.05,1211.66 1065.03,1211.89 1067.02,1212.16 1069,1212.48 1070.99,1212.78 1072.97,1213.07 1074.95,1213.33 1076.94,1213.63 1078.92,1213.94 1080.91,1214.22 1082.89,1214.52 1084.88,1214.81 1086.86,1215.12 1088.84,1215.41 1090.83,1215.67 1092.81,1215.96 1094.8,1216.29 1096.78,1216.52 1098.76,1216.83 1100.75,1217.08 1102.73,1217.36 1104.72,1217.68 1106.7,1217.99 1108.69,1218.28 1110.67,1218.55 1112.65,1218.84 1114.64,1219.13 1116.62,1219.4 1118.61,1219.65 1120.59,1219.95 1122.57,1220.23 1124.56,1220.46 1126.54,1220.74 1128.53,1221 1130.51,1221.26 1132.5,1221.53 1134.48,1221.78 1136.46,1222.03 1138.45,1222.29 1140.43,1222.55 1142.42,1222.83 1144.4,1223.08 1146.38,1223.33 1148.37,1223.64 1150.35,1223.9 1152.34,1224.17 1154.32,1224.4 1156.3,1224.66 1158.29,1224.91 1160.27,1225.15 1162.26,1225.44 1164.24,1225.72 1166.23,1225.96 1168.21,1226.2 1170.19,1226.42 1172.18,1226.67 1174.16,1226.94 1176.15,1227.21 1178.13,1227.45 1180.11,1227.71 1182.1,1227.95 1184.08,1228.23 1186.07,1228.51 1188.05,1228.76 1190.04,1229.03 1192.02,1229.28 1194,1229.5 1195.99,1229.74 1197.97,1229.97 1199.96,1230.25 1201.94,1230.46 1203.92,1230.73 1205.91,1230.98 1207.89,1231.22 1209.88,1231.48 1211.86,1231.69 1213.85,1231.96 1215.83,1232.23 1217.81,1232.46 1219.8,1232.71 1221.78,1232.95 1223.77,1233.19 1225.75,1233.43 1227.73,1233.7 1229.72,1233.92 1231.7,1234.18 1233.69,1234.42 1235.67,1234.65 1237.66,1234.9 1239.64,1235.14 1241.62,1235.37 1243.61,1235.63 1245.59,1235.89 1247.58,1236.16 1249.56,1236.4 1251.54,1236.64 1253.53,1236.9 1255.51,1237.14 1257.5,1237.34 1259.48,1237.57 1261.47,1237.78 1263.45,1238.03 1265.43,1238.27 1267.42,1238.5 1269.4,1238.75 1271.39,1238.98 1273.37,1239.2 1275.35,1239.47 1277.34,1239.74 1279.32,1239.99 1281.31,1240.22 1283.29,1240.45 1285.28,1240.7 1287.26,1240.93 1289.24,1241.17 1291.23,1241.46 1293.21,1241.76 1295.2,1241.98 1297.18,1242.22 1299.16,1242.45 1301.15,1242.69 1303.13,1242.91 1305.12,1243.13 1307.1,1243.39 1309.09,1243.64 1311.07,1243.87 1313.05,1244.15 1315.04,1244.39 1317.02,1244.65 1319.01,1244.91 1320.99,1245.16 1322.97,1245.41 1324.96,1245.67 1326.94,1245.96 1328.93,1246.22 1330.91,1246.52 1332.9,1246.82 1334.88,1247.03 1336.86,1247.26 1338.85,1247.51 1340.83,1247.79 1342.82,1248 1344.8,1248.23 1346.78,1248.48 1348.77,1248.74 1350.75,1248.99 1352.74,1249.22 1354.72,1249.48 1356.71,1249.75 1358.69,1249.97 1360.67,1250.24 1362.66,1250.5 1364.64,1250.75 1366.63,1251.02 1368.61,1251.3 1370.59,1251.54 1372.58,1251.76 1374.56,1252.03 1376.55,1252.29 1378.53,1252.52 1380.52,1252.76 1382.5,1253 1384.48,1253.25 1386.47,1253.5 1388.45,1253.77 1390.44,1254.04 1392.42,1254.26 1394.4,1254.51 1396.39,1254.78 1398.37,1255.03 1400.36,1255.31 1402.34,1255.57 1404.33,1255.83 1406.31,1256.08 1408.29,1256.31 1410.28,1256.57 1412.26,1256.84 1414.25,1257.07 1416.23,1257.29 1418.21,1257.54 1420.2,1257.78 1422.18,1258.02 1424.17,1258.27 1426.15,1258.51 1428.14,1258.75 1430.12,1258.99 1432.1,1259.26 1434.09,1259.5 1436.07,1259.75 1438.06,1259.98 1440.04,1260.23 1442.02,1260.5 1444.01,1260.75 1445.99,1260.97 1447.98,1261.23 1449.96,1261.49 1451.95,1261.74 1453.93,1261.95 1455.91,1262.17 1457.9,1262.42 1459.88,1262.69 1461.87,1262.94 1463.85,1263.17 1465.83,1263.44 1467.82,1263.68 1469.8,1263.91 1471.79,1264.16 1473.77,1264.4 1475.76,1264.63 1477.74,1264.87 1479.72,1265.11 1481.71,1265.36 1483.69,1265.63 1485.68,1265.89 1487.66,1266.15 1489.64,1266.4 1491.63,1266.65 1493.61,1266.87 1495.6,1267.12 1497.58,1267.37 1499.57,1267.6 1501.55,1267.84 1503.53,1268.1 1505.52,1268.34 1507.5,1268.61 1509.49,1268.88 1511.47,1269.12 1513.45,1269.35 1515.44,1269.6 1517.42,1269.84 1519.41,1270.02 1521.39,1270.26 1523.38,1270.5 1525.36,1270.74 1527.34,1270.93 1529.33,1271.19 1531.31,1271.41 1533.3,1271.68 1535.28,1271.89 1537.26,1272.12 1539.25,1272.35 1541.23,1272.56 1543.22,1272.79 1545.2,1273.03 1547.19,1273.28 1549.17,1273.52 1551.15,1273.75 1553.14,1273.98 1555.12,1274.21 1557.11,1274.4 1559.09,1274.63 1561.07,1274.86 1563.06,1275.09 1565.04,1275.32 1567.03,1275.56 1569.01,1275.79 1571,1276.03 1572.98,1276.26 1574.96,1276.46 1576.95,1276.68 1578.93,1276.89 1580.92,1277.15 1582.9,1277.37 1584.88,1277.58 1586.87,1277.79 1588.85,1278.01 1590.84,1278.23 1592.82,1278.47 1594.81,1278.7 1596.79,1278.93 1598.77,1279.16 1600.76,1279.4 1602.74,1279.64 1604.73,1279.86 1606.71,1280.08 1608.69,1280.3 1610.68,1280.54 1612.66,1280.77 1614.65,1281.01 1616.63,1281.24 1618.62,1281.49 1620.6,1281.72 1622.58,1281.97 1624.57,1282.21 1626.55,1282.45 1628.54,1282.7 1630.52,1282.95 1632.5,1283.16 1634.49,1283.38 1636.47,1283.61 1638.46,1283.84 1640.44,1284.07 1642.43,1284.31 1644.41,1284.54 1646.39,1284.77 1648.38,1285.01 1650.36,1285.25 1652.35,1285.48 1654.33,1285.68 1656.31,1285.93 1658.3,1286.16 1660.28,1286.4 1662.27,1286.61 1664.25,1286.83 1666.24,1287.09 1668.22,1287.33 1670.2,1287.54 1672.19,1287.76 1674.17,1287.98 1676.16,1288.18 1678.14,1288.4 1680.12,1288.63 1682.11,1288.85 1684.09,1289.09 1686.08,1289.28 1688.06,1289.49 1690.05,1289.69 1692.03,1289.92 1694.01,1290.13 1696,1290.35 1697.98,1290.61 1699.97,1290.82 1701.95,1291.04 1703.93,1291.24 1705.92,1291.44 1707.9,1291.65 1709.89,1291.83 1711.87,1292.04 1713.86,1292.27 1715.84,1292.49 1717.82,1292.7 1719.81,1292.89 1721.79,1293.1 1723.78,1293.31 1725.76,1293.56 1727.74,1293.76 1729.73,1293.95 1731.71,1294.18 1733.7,1294.38 1735.68,1294.58 1737.67,1294.78 1739.65,1294.97 1741.63,1295.18 1743.62,1295.41 1745.6,1295.61 1747.59,1295.82 1749.57,1296.06 1751.55,1296.27 1753.54,1296.49 1755.52,1296.71 1757.51,1296.94 1759.49,1297.16 1761.48,1297.38 1763.46,1297.58 1765.44,1297.78 1767.43,1298 1769.41,1298.2 1771.4,1298.42 1773.38,1298.6 1775.36,1298.8 1777.35,1298.99 1779.33,1299.22 1781.32,1299.43 1783.3,1299.64 1785.28,1299.84 1787.27,1300.07 1789.25,1300.29 1791.24,1300.51 1793.22,1300.76 1795.21,1300.99 1797.19,1301.19 1799.17,1301.38 1801.16,1301.58 1803.14,1301.81 1805.13,1302.03 1807.11,1302.22 1809.09,1302.4 1811.08,1302.61 1813.06,1302.81 1815.05,1303.04 1817.03,1303.27 1819.02,1303.46 1821,1303.69 1822.98,1303.89 1824.97,1304.11 1826.95,1304.3 1828.94,1304.49 1830.92,1304.67 1832.9,1304.87 1834.89,1305.09 1836.87,1305.31 1838.86,1305.52 1840.84,1305.7 1842.83,1305.92 1844.81,1306.13 1846.79,1306.35 1848.78,1306.54 1850.76,1306.78 1852.75,1307 1854.73,1307.22 1856.71,1307.43 1858.7,1307.63 1860.68,1307.83 1862.67,1308.04 1864.65,1308.25 1866.64,1308.48 1868.62,1308.67 1870.6,1308.88 1872.59,1309.09 1874.57,1309.31 1876.56,1309.53 1878.54,1309.77 1880.52,1309.97 1882.51,1310.18 1884.49,1310.4 1886.48,1310.62 1888.46,1310.82 1890.45,1311.06 1892.43,1311.27 1894.41,1311.49 1896.4,1311.69 1898.38,1311.88 1900.37,1312.13 1902.35,1312.32 1904.33,1312.5 1906.32,1312.69 1908.3,1312.92 1910.29,1313.11 1912.27,1313.32 1914.26,1313.53 1916.24,1313.76 1918.22,1313.93 1920.21,1314.16 1922.19,1314.35 1924.18,1314.55 1926.16,1314.76 1928.14,1314.98 1930.13,1315.19 1932.11,1315.38 1934.1,1315.58 1936.08,1315.78 1938.07,1315.99 1940.05,1316.21 1942.03,1316.42 1944.02,1316.61 1946,1316.83 1947.99,1317.02 1949.97,1317.24 1951.95,1317.46 1953.94,1317.65 1955.92,1317.84 1957.91,1318.04 1959.89,1318.27 1961.88,1318.49 1963.86,1318.68 1965.84,1318.89 1967.83,1319.14 1969.81,1319.35 1971.8,1319.57 1973.78,1319.77 1975.76,1320.01 1977.75,1320.21 1979.73,1320.39 1981.72,1320.58 1983.7,1320.79 1985.69,1321 1987.67,1321.23 1989.65,1321.42 1991.64,1321.63 1993.62,1321.85 1995.61,1322.08 1997.59,1322.27 1999.57,1322.5 2001.56,1322.71 2003.54,1322.9 2005.53,1323.16 2007.51,1323.37 2009.5,1323.59 2011.48,1323.79 2013.46,1324.02 2015.45,1324.23 2017.43,1324.44 2019.42,1324.66 2021.4,1324.85 2023.38,1325.09 2025.37,1325.3 2027.35,1325.51 2029.34,1325.71 2031.32,1325.94 2033.31,1326.16 2035.29,1326.36 2037.27,1326.6 2039.26,1326.82 2041.24,1327.04 2043.23,1327.23 2045.21,1327.48 2047.19,1327.72 2049.18,1327.93 2051.16,1328.14 2053.15,1328.35 2055.13,1328.58 2057.12,1328.82 2059.1,1329.05 2061.08,1329.26 2063.07,1329.46 2065.05,1329.68 2067.04,1329.9 2069.02,1330.14 2071,1330.33 2072.99,1330.57 2074.97,1330.8 2076.96,1331.04 2078.94,1331.26 2080.93,1331.52 2082.91,1331.73 2084.89,1331.96 2086.88,1332.19 2088.86,1332.44 2090.85,1332.64 2092.83,1332.86 2094.81,1333.11 2096.8,1333.33 2098.78,1333.56 2100.77,1333.81 2102.75,1334.05 2104.74,1334.24 2106.72,1334.48 2108.7,1334.72 2110.69,1334.95 2112.67,1335.2 2114.66,1335.4 2116.64,1335.64 2118.62,1335.87 2120.61,1336.12 2122.59,1336.36 2124.58,1336.63 2126.56,1336.85 2128.55,1337.09 2130.53,1337.3 2132.51,1337.58 2134.5,1337.8 2136.48,1338.04 2138.47,1338.32 2140.45,1338.57 2142.43,1338.82 2144.42,1339.11 2146.4,1339.35 2148.39,1339.63 2150.37,1339.89 2152.36,1340.15 2154.34,1340.41 2156.32,1340.67 2158.31,1340.94 2160.29,1341.22 2162.28,1341.49 2164.26,1341.78 2166.24,1342.03 2168.23,1342.31 2170.21,1342.58 2172.2,1342.86 2174.18,1343.15 2176.17,1343.41 2178.15,1343.7 2180.13,1343.96 2182.12,1344.22 2184.1,1344.54 2186.09,1344.8 2188.07,1345.1 2190.05,1345.39 2192.04,1345.7 2194.02,1345.98 2196.01,1346.27 2197.99,1346.57 2199.98,1346.87 2201.96,1347.24 2203.94,1347.55 2205.93,1347.87 2207.91,1348.15 2209.9,1348.48 2211.88,1348.81 2213.86,1349.14 2215.85,1349.47 2217.83,1349.82 2219.82,1350.13 2221.8,1350.49 2223.79,1350.82 2225.77,1351.19 2227.75,1351.54 2229.74,1351.94 2231.72,1352.28 2233.71,1352.66 2235.69,1353.07 2237.67,1353.43 2239.66,1353.83 2241.64,1354.24 2243.63,1354.67 2245.61,1355.1 2247.6,1355.5 2249.58,1356 2251.56,1356.44 2253.55,1356.89 2255.53,1357.35 2257.52,1357.86 2259.5,1358.4 2261.48,1358.97 2263.47,1359.52 2265.45,1360.07 2267.44,1360.68 2269.42,1361.34 2271.41,1362 2273.39,1362.65 2275.37,1363.36 2277.36,1364.1 2279.34,1364.93 2281.33,1365.86 2283.31,1366.84 2285.29,1367.95 2287.28,1369.4 2289.26,1371.26 2291.25,1373.85 2293.23,1384.24 "/>
<polyline clip-path="url(#clip812)" style="stroke:#0000ff; stroke-linecap:round; stroke-linejoin:round; stroke-width:6; stroke-opacity:1; fill:none" points="309.067,86.1857 309.067,498.956 311.051,552.596 313.035,577.502 315.019,594.774 317.004,608.291 318.988,619.75 320.972,629.632 322.956,638.33 324.94,645.907 326.924,652.759 328.909,659.066 330.893,664.832 332.877,670.191 334.861,675.25 336.845,679.907 338.829,684.317 340.814,688.697 342.798,692.904 344.782,696.848 346.766,700.866 348.75,704.669 350.734,708.44 352.719,711.882 354.703,715.447 356.687,718.841 358.671,722.214 360.655,725.373 362.639,728.423 364.624,731.488 366.608,734.443 368.592,737.34 370.576,740.309 372.56,743.239 374.544,745.983 376.529,748.681 378.513,751.346 380.497,754.061 382.481,756.743 384.465,759.216 386.449,761.894 388.434,764.389 390.418,766.932 392.402,769.401 394.386,771.846 396.37,774.175 398.354,776.491 400.339,778.829 402.323,781.153 404.307,783.519 406.291,785.775 408.275,787.944 410.259,790.129 412.243,792.268 414.228,794.441 416.212,796.606 418.196,798.707 420.18,800.892 422.164,802.96 424.148,804.981 426.133,807.025 428.117,809.033 430.101,811.015 432.085,812.967 434.069,814.925 436.053,816.928 438.038,818.798 440.022,820.647 442.006,822.482 443.99,824.298 445.974,826.138 447.958,828.039 449.943,829.916 451.927,831.766 453.911,833.716 455.895,835.602 457.879,837.497 459.863,839.239 461.848,841.155 463.832,843.044 465.816,844.906 467.8,846.846 469.784,848.684 471.768,850.586 473.753,852.512 475.737,854.341 477.721,856.141 479.705,858.02 481.689,859.906 483.673,861.838 485.658,863.712 487.642,865.571 489.626,867.417 491.61,869.316 493.594,871.123 495.578,873.011 497.563,874.782 499.547,876.553 501.531,878.28 503.515,880.049 505.499,881.796 507.483,883.562 509.468,885.24 511.452,886.94 513.436,888.673 515.42,890.376 517.404,891.996 519.388,893.595 521.373,895.241 523.357,896.776 525.341,898.328 527.325,899.904 529.309,901.395 531.293,902.827 533.277,904.316 535.262,905.772 537.246,907.359 539.23,908.86 541.214,910.294 543.198,911.748 545.182,913.101 547.167,914.517 549.151,915.977 551.135,917.327 553.119,918.75 555.103,920.104 557.087,921.473 559.072,922.833 561.056,924.292 563.04,925.702 565.024,927.06 567.008,928.423 568.992,929.911 570.977,931.229 572.961,932.661 574.945,934.062 576.929,935.504 578.913,936.886 580.897,938.287 582.882,939.668 584.866,941.082 586.85,942.465 588.834,943.811 590.818,945.254 592.802,946.591 594.787,947.955 596.771,949.239 598.755,950.601 600.739,951.893 602.723,953.17 604.707,954.516 606.692,955.835 608.676,957.154 610.66,958.442 612.644,959.763 614.628,961.125 616.612,962.44 618.597,963.756 620.581,965.159 622.565,966.438 624.549,967.705 626.533,969.082 628.517,970.36 630.502,971.692 632.486,973.02 634.47,974.275 636.454,975.512 638.438,976.848 640.422,978.103 642.407,979.399 644.391,980.606 646.375,981.781 648.359,982.981 650.343,984.189 652.327,985.467 654.312,986.697 656.296,987.892 658.28,989.122 660.264,990.281 662.248,991.423 664.232,992.599 666.216,993.836 668.201,995.011 670.185,996.253 672.169,997.423 674.153,998.687 676.137,999.984 678.121,1001.18 680.106,1002.49 682.09,1003.82 684.074,1005.21 686.058,1006.52 688.042,1007.88 690.026,1009.21 692.011,1010.58 693.995,1011.9 695.979,1013.3 697.963,1014.61 699.947,1015.97 701.931,1017.37 703.916,1018.7 705.9,1020.11 707.884,1021.47 709.868,1022.84 711.852,1024.26 713.836,1025.7 715.821,1027.18 717.805,1028.6 719.789,1030.08 721.773,1031.51 723.757,1032.88 725.741,1034.29 727.726,1035.67 729.71,1037.08 731.694,1038.47 733.678,1039.83 735.662,1041.2 737.646,1042.55 739.631,1043.85 741.615,1045.2 743.599,1046.57 745.583,1047.94 747.567,1049.31 749.551,1050.64 751.536,1051.97 753.52,1053.29 755.504,1054.63 757.488,1055.92 759.472,1057.2 761.456,1058.51 763.441,1059.84 765.425,1061.11 767.409,1062.43 769.393,1063.73 771.377,1064.97 773.361,1066.32 775.346,1067.67 777.33,1069.01 779.314,1070.29 781.298,1071.52 783.282,1072.84 785.266,1074.15 787.25,1075.48 789.235,1076.75 791.219,1078.09 793.203,1079.46 795.187,1080.8 797.171,1082.09 799.155,1083.34 801.14,1084.61 803.124,1085.97 805.108,1087.24 807.092,1088.49 809.076,1089.87 811.06,1091.2 813.045,1092.55 815.029,1093.83 817.013,1095.15 818.997,1096.46 820.981,1097.8 822.965,1099.19 824.95,1100.48 826.934,1101.85 828.918,1103.13 830.902,1104.47 832.886,1105.85 834.87,1107.15 836.855,1108.47 838.839,1109.84 840.823,1111.08 842.807,1112.34 844.791,1113.58 846.775,1114.92 848.76,1116.2 850.744,1117.47 852.728,1118.76 854.712,1120.08 856.696,1121.39 858.68,1122.67 860.665,1123.99 862.649,1125.3 864.633,1126.61 866.617,1127.9 868.601,1129.17 870.585,1130.42 872.57,1131.68 874.554,1132.91 876.538,1134.16 878.522,1135.34 880.506,1136.57 882.49,1137.84 884.475,1139 886.459,1140.13 888.443,1141.34 890.427,1142.49 892.411,1143.68 894.395,1144.82 896.38,1145.97 898.364,1147.11 900.348,1148.21 902.332,1149.33 904.316,1150.52 906.3,1151.65 908.284,1152.74 910.269,1153.78 912.253,1154.82 914.237,1155.84 916.221,1156.87 918.205,1157.89 920.189,1158.87 922.174,1159.93 924.158,1160.98 926.142,1161.97 928.126,1162.95 930.11,1163.93 932.094,1164.94 934.079,1165.9 936.063,1166.94 938.047,1167.87 940.031,1168.78 942.015,1169.74 943.999,1170.66 945.984,1171.57 947.968,1172.45 949.952,1173.32 951.936,1174.25 953.92,1175.23 955.904,1176.09 957.889,1176.99 959.873,1177.86 961.857,1178.72 963.841,1179.59 965.825,1180.44 967.809,1181.2 969.794,1182 971.778,1182.75 973.762,1183.57 975.746,1184.31 977.73,1185.06 979.714,1185.78 981.699,1186.51 983.683,1187.23 985.667,1187.94 987.651,1188.68 989.635,1189.39 991.619,1190.07 993.604,1190.73 995.588,1191.37 997.572,1192.07 999.556,1192.69 1001.54,1193.3 1003.52,1193.91 1005.51,1194.51 1007.49,1195.12 1009.48,1195.72 1011.46,1196.3 1013.45,1196.92 1015.43,1197.54 1017.41,1198.07 1019.4,1198.64 1021.38,1199.17 1023.37,1199.71 1025.35,1200.25 1027.33,1200.8 1029.32,1201.36 1031.3,1201.95 1033.29,1202.48 1035.27,1203.01 1037.26,1203.52 1039.24,1204.03 1041.22,1204.53 1043.21,1205.06 1045.19,1205.57 1047.18,1206.12 1049.16,1206.64 1051.14,1207.19 1053.13,1207.72 1055.11,1208.27 1057.1,1208.81 1059.08,1209.37 1061.07,1209.84 1063.05,1210.38 1065.03,1210.94 1067.02,1211.45 1069,1212.01 1070.99,1212.52 1072.97,1213.06 1074.95,1213.61 1076.94,1214.11 1078.92,1214.68 1080.91,1215.2 1082.89,1215.76 1084.88,1216.3 1086.86,1216.85 1088.84,1217.37 1090.83,1217.89 1092.81,1218.4 1094.8,1218.93 1096.78,1219.45 1098.76,1219.95 1100.75,1220.39 1102.73,1220.86 1104.72,1221.32 1106.7,1221.75 1108.69,1222.2 1110.67,1222.64 1112.65,1223.06 1114.64,1223.43 1116.62,1223.85 1118.61,1224.27 1120.59,1224.64 1122.57,1225.01 1124.56,1225.39 1126.54,1225.76 1128.53,1226.12 1130.51,1226.48 1132.5,1226.81 1134.48,1227.13 1136.46,1227.43 1138.45,1227.73 1140.43,1228.06 1142.42,1228.39 1144.4,1228.71 1146.38,1228.98 1148.37,1229.27 1150.35,1229.56 1152.34,1229.85 1154.32,1230.13 1156.3,1230.44 1158.29,1230.7 1160.27,1230.99 1162.26,1231.23 1164.24,1231.52 1166.23,1231.79 1168.21,1232.09 1170.19,1232.35 1172.18,1232.63 1174.16,1232.93 1176.15,1233.23 1178.13,1233.51 1180.11,1233.78 1182.1,1234.03 1184.08,1234.31 1186.07,1234.56 1188.05,1234.82 1190.04,1235.07 1192.02,1235.3 1194,1235.56 1195.99,1235.83 1197.97,1236.08 1199.96,1236.34 1201.94,1236.59 1203.92,1236.84 1205.91,1237.11 1207.89,1237.36 1209.88,1237.64 1211.86,1237.89 1213.85,1238.14 1215.83,1238.41 1217.81,1238.67 1219.8,1238.93 1221.78,1239.21 1223.77,1239.46 1225.75,1239.7 1227.73,1239.94 1229.72,1240.22 1231.7,1240.44 1233.69,1240.67 1235.67,1240.93 1237.66,1241.21 1239.64,1241.44 1241.62,1241.72 1243.61,1241.96 1245.59,1242.21 1247.58,1242.46 1249.56,1242.72 1251.54,1243 1253.53,1243.26 1255.51,1243.52 1257.5,1243.78 1259.48,1244.05 1261.47,1244.29 1263.45,1244.54 1265.43,1244.79 1267.42,1245.04 1269.4,1245.29 1271.39,1245.51 1273.37,1245.78 1275.35,1246.03 1277.34,1246.31 1279.32,1246.58 1281.31,1246.81 1283.29,1247.1 1285.28,1247.34 1287.26,1247.6 1289.24,1247.87 1291.23,1248.14 1293.21,1248.39 1295.2,1248.6 1297.18,1248.85 1299.16,1249.09 1301.15,1249.34 1303.13,1249.58 1305.12,1249.82 1307.1,1250.07 1309.09,1250.28 1311.07,1250.51 1313.05,1250.78 1315.04,1251.05 1317.02,1251.3 1319.01,1251.55 1320.99,1251.82 1322.97,1252.07 1324.96,1252.32 1326.94,1252.58 1328.93,1252.84 1330.91,1253.08 1332.9,1253.32 1334.88,1253.54 1336.86,1253.79 1338.85,1254.04 1340.83,1254.27 1342.82,1254.52 1344.8,1254.75 1346.78,1255 1348.77,1255.23 1350.75,1255.46 1352.74,1255.68 1354.72,1255.93 1356.71,1256.19 1358.69,1256.43 1360.67,1256.7 1362.66,1256.97 1364.64,1257.22 1366.63,1257.46 1368.61,1257.7 1370.59,1257.94 1372.58,1258.19 1374.56,1258.42 1376.55,1258.64 1378.53,1258.85 1380.52,1259.09 1382.5,1259.33 1384.48,1259.61 1386.47,1259.85 1388.45,1260.08 1390.44,1260.32 1392.42,1260.59 1394.4,1260.84 1396.39,1261.07 1398.37,1261.35 1400.36,1261.61 1402.34,1261.87 1404.33,1262.09 1406.31,1262.34 1408.29,1262.61 1410.28,1262.88 1412.26,1263.1 1414.25,1263.34 1416.23,1263.62 1418.21,1263.82 1420.2,1264.1 1422.18,1264.35 1424.17,1264.61 1426.15,1264.85 1428.14,1265.07 1430.12,1265.31 1432.1,1265.52 1434.09,1265.77 1436.07,1266.01 1438.06,1266.23 1440.04,1266.49 1442.02,1266.76 1444.01,1267 1445.99,1267.22 1447.98,1267.45 1449.96,1267.68 1451.95,1267.9 1453.93,1268.14 1455.91,1268.38 1457.9,1268.6 1459.88,1268.88 1461.87,1269.13 1463.85,1269.39 1465.83,1269.63 1467.82,1269.83 1469.8,1270.07 1471.79,1270.3 1473.77,1270.53 1475.76,1270.78 1477.74,1271.03 1479.72,1271.24 1481.71,1271.5 1483.69,1271.74 1485.68,1272 1487.66,1272.22 1489.64,1272.45 1491.63,1272.67 1493.61,1272.88 1495.6,1273.13 1497.58,1273.37 1499.57,1273.6 1501.55,1273.84 1503.53,1274.05 1505.52,1274.28 1507.5,1274.59 1509.49,1274.81 1511.47,1275.06 1513.45,1275.25 1515.44,1275.51 1517.42,1275.71 1519.41,1275.94 1521.39,1276.21 1523.38,1276.44 1525.36,1276.71 1527.34,1276.97 1529.33,1277.23 1531.31,1277.46 1533.3,1277.7 1535.28,1277.97 1537.26,1278.2 1539.25,1278.44 1541.23,1278.67 1543.22,1278.92 1545.2,1279.13 1547.19,1279.34 1549.17,1279.56 1551.15,1279.78 1553.14,1279.99 1555.12,1280.21 1557.11,1280.4 1559.09,1280.63 1561.07,1280.89 1563.06,1281.11 1565.04,1281.35 1567.03,1281.59 1569.01,1281.83 1571,1282.08 1572.98,1282.33 1574.96,1282.59 1576.95,1282.84 1578.93,1283.1 1580.92,1283.33 1582.9,1283.56 1584.88,1283.84 1586.87,1284.07 1588.85,1284.31 1590.84,1284.54 1592.82,1284.79 1594.81,1285.03 1596.79,1285.29 1598.77,1285.54 1600.76,1285.75 1602.74,1285.97 1604.73,1286.2 1606.71,1286.43 1608.69,1286.65 1610.68,1286.92 1612.66,1287.17 1614.65,1287.39 1616.63,1287.61 1618.62,1287.85 1620.6,1288.08 1622.58,1288.29 1624.57,1288.52 1626.55,1288.75 1628.54,1288.99 1630.52,1289.2 1632.5,1289.47 1634.49,1289.7 1636.47,1289.9 1638.46,1290.17 1640.44,1290.4 1642.43,1290.65 1644.41,1290.89 1646.39,1291.13 1648.38,1291.35 1650.36,1291.57 1652.35,1291.79 1654.33,1292.02 1656.31,1292.25 1658.3,1292.48 1660.28,1292.7 1662.27,1292.91 1664.25,1293.12 1666.24,1293.35 1668.22,1293.58 1670.2,1293.83 1672.19,1294.06 1674.17,1294.29 1676.16,1294.51 1678.14,1294.75 1680.12,1295 1682.11,1295.24 1684.09,1295.47 1686.08,1295.71 1688.06,1295.96 1690.05,1296.17 1692.03,1296.39 1694.01,1296.61 1696,1296.82 1697.98,1297.06 1699.97,1297.29 1701.95,1297.5 1703.93,1297.73 1705.92,1297.94 1707.9,1298.16 1709.89,1298.44 1711.87,1298.65 1713.86,1298.87 1715.84,1299.07 1717.82,1299.3 1719.81,1299.56 1721.79,1299.77 1723.78,1300 1725.76,1300.24 1727.74,1300.46 1729.73,1300.7 1731.71,1300.93 1733.7,1301.16 1735.68,1301.37 1737.67,1301.61 1739.65,1301.84 1741.63,1302.08 1743.62,1302.3 1745.6,1302.55 1747.59,1302.79 1749.57,1303.05 1751.55,1303.26 1753.54,1303.48 1755.52,1303.69 1757.51,1303.92 1759.49,1304.16 1761.48,1304.4 1763.46,1304.66 1765.44,1304.92 1767.43,1305.15 1769.41,1305.35 1771.4,1305.61 1773.38,1305.88 1775.36,1306.11 1777.35,1306.3 1779.33,1306.52 1781.32,1306.75 1783.3,1306.96 1785.28,1307.2 1787.27,1307.41 1789.25,1307.63 1791.24,1307.84 1793.22,1308.04 1795.21,1308.26 1797.19,1308.46 1799.17,1308.67 1801.16,1308.9 1803.14,1309.15 1805.13,1309.36 1807.11,1309.58 1809.09,1309.81 1811.08,1310.02 1813.06,1310.23 1815.05,1310.47 1817.03,1310.68 1819.02,1310.9 1821,1311.12 1822.98,1311.33 1824.97,1311.52 1826.95,1311.71 1828.94,1311.95 1830.92,1312.17 1832.9,1312.37 1834.89,1312.57 1836.87,1312.79 1838.86,1312.98 1840.84,1313.19 1842.83,1313.4 1844.81,1313.61 1846.79,1313.83 1848.78,1314.03 1850.76,1314.21 1852.75,1314.41 1854.73,1314.62 1856.71,1314.8 1858.7,1315 1860.68,1315.2 1862.67,1315.39 1864.65,1315.57 1866.64,1315.77 1868.62,1315.97 1870.6,1316.18 1872.59,1316.4 1874.57,1316.62 1876.56,1316.82 1878.54,1317.02 1880.52,1317.21 1882.51,1317.43 1884.49,1317.67 1886.48,1317.89 1888.46,1318.08 1890.45,1318.27 1892.43,1318.48 1894.41,1318.69 1896.4,1318.9 1898.38,1319.11 1900.37,1319.3 1902.35,1319.49 1904.33,1319.71 1906.32,1319.94 1908.3,1320.16 1910.29,1320.36 1912.27,1320.57 1914.26,1320.78 1916.24,1320.96 1918.22,1321.16 1920.21,1321.35 1922.19,1321.54 1924.18,1321.75 1926.16,1321.96 1928.14,1322.17 1930.13,1322.4 1932.11,1322.61 1934.1,1322.81 1936.08,1323.01 1938.07,1323.22 1940.05,1323.43 1942.03,1323.61 1944.02,1323.83 1946,1324.01 1947.99,1324.23 1949.97,1324.44 1951.95,1324.65 1953.94,1324.87 1955.92,1325.06 1957.91,1325.27 1959.89,1325.48 1961.88,1325.71 1963.86,1325.93 1965.84,1326.15 1967.83,1326.35 1969.81,1326.57 1971.8,1326.76 1973.78,1327.01 1975.76,1327.21 1977.75,1327.43 1979.73,1327.61 1981.72,1327.83 1983.7,1328.04 1985.69,1328.26 1987.67,1328.47 1989.65,1328.67 1991.64,1328.86 1993.62,1329.09 1995.61,1329.28 1997.59,1329.49 1999.57,1329.71 2001.56,1329.91 2003.54,1330.1 2005.53,1330.32 2007.51,1330.5 2009.5,1330.72 2011.48,1330.92 2013.46,1331.14 2015.45,1331.34 2017.43,1331.54 2019.42,1331.78 2021.4,1331.98 2023.38,1332.2 2025.37,1332.4 2027.35,1332.6 2029.34,1332.83 2031.32,1333.06 2033.31,1333.28 2035.29,1333.51 2037.27,1333.71 2039.26,1333.93 2041.24,1334.14 2043.23,1334.37 2045.21,1334.57 2047.19,1334.78 2049.18,1334.98 2051.16,1335.18 2053.15,1335.44 2055.13,1335.65 2057.12,1335.87 2059.1,1336.09 2061.08,1336.3 2063.07,1336.47 2065.05,1336.7 2067.04,1336.9 2069.02,1337.12 2071,1337.35 2072.99,1337.57 2074.97,1337.79 2076.96,1338.02 2078.94,1338.26 2080.93,1338.48 2082.91,1338.7 2084.89,1338.91 2086.88,1339.11 2088.86,1339.36 2090.85,1339.61 2092.83,1339.83 2094.81,1340.06 2096.8,1340.29 2098.78,1340.54 2100.77,1340.78 2102.75,1341 2104.74,1341.24 2106.72,1341.49 2108.7,1341.74 2110.69,1341.99 2112.67,1342.22 2114.66,1342.44 2116.64,1342.67 2118.62,1342.9 2120.61,1343.17 2122.59,1343.39 2124.58,1343.69 2126.56,1343.93 2128.55,1344.15 2130.53,1344.38 2132.51,1344.62 2134.5,1344.88 2136.48,1345.11 2138.47,1345.38 2140.45,1345.62 2142.43,1345.88 2144.42,1346.13 2146.4,1346.35 2148.39,1346.6 2150.37,1346.84 2152.36,1347.09 2154.34,1347.34 2156.32,1347.62 2158.31,1347.89 2160.29,1348.13 2162.28,1348.43 2164.26,1348.66 2166.24,1348.89 2168.23,1349.13 2170.21,1349.41 2172.2,1349.7 2174.18,1349.93 2176.17,1350.2 2178.15,1350.47 2180.13,1350.71 2182.12,1350.96 2184.1,1351.24 2186.09,1351.51 2188.07,1351.78 2190.05,1352.02 2192.04,1352.31 2194.02,1352.59 2196.01,1352.88 2197.99,1353.16 2199.98,1353.44 2201.96,1353.71 2203.94,1353.97 2205.93,1354.27 2207.91,1354.6 2209.9,1354.9 2211.88,1355.17 2213.86,1355.47 2215.85,1355.77 2217.83,1356.1 2219.82,1356.44 2221.8,1356.79 2223.79,1357.1 2225.77,1357.42 2227.75,1357.74 2229.74,1358.07 2231.72,1358.42 2233.71,1358.76 2235.69,1359.12 2237.67,1359.51 2239.66,1359.92 2241.64,1360.31 2243.63,1360.68 2245.61,1361.07 2247.6,1361.45 2249.58,1361.89 2251.56,1362.29 2253.55,1362.75 2255.53,1363.17 2257.52,1363.64 2259.5,1364.07 2261.48,1364.51 2263.47,1365 2265.45,1365.49 2267.44,1366.01 2269.42,1366.59 2271.41,1367.12 2273.39,1367.67 2275.37,1368.28 2277.36,1368.96 2279.34,1369.67 2281.33,1370.47 2283.31,1371.27 2285.29,1372.16 2287.28,1373.3 2289.26,1374.74 2291.25,1376.87 2293.23,1384.24 "/>
<polyline clip-path="url(#clip812)" style="stroke:#808080; stroke-linecap:round; stroke-linejoin:round; stroke-width:4; stroke-opacity:1; fill:none" stroke-dasharray="16, 10" points="309.067,86.1857 321.985,94.6367 441.43,172.779 513.212,219.739 573.903,259.443 639.83,302.573 700.609,342.335 765.77,384.964 841.266,434.353 908.357,478.245 967.191,516.734 1031.34,558.698 1095.86,600.911 1167.2,647.583 1235.08,691.99 1305.66,738.163 1365.07,777.031 1437.61,824.484 1504.05,867.954 1565.42,908.102 1627.59,948.771 1697.26,994.349 1760.39,1035.65 1832.67,1082.94 1899.6,1126.72 1965.58,1169.89 2029.64,1211.8 2095.31,1254.76 2167.27,1301.83 2271.79,1370.21 2293.23,1384.24 "/>
<path clip-path="url(#clip810)" d="M2009.97 248.629 L2282.65 248.629 L2282.65 93.1086 L2009.97 93.1086  Z" fill="#ffffff" fill-rule="evenodd" fill-opacity="1"/>
<polyline clip-path="url(#clip810)" style="stroke:#000000; stroke-linecap:round; stroke-linejoin:round; stroke-width:4; stroke-opacity:1; fill:none" points="2009.97,248.629 2282.65,248.629 2282.65,93.1086 2009.97,93.1086 2009.97,248.629 "/>
<polyline clip-path="url(#clip810)" style="stroke:#ff0000; stroke-linecap:round; stroke-linejoin:round; stroke-width:6; stroke-opacity:1; fill:none" points="2033.34,144.949 2173.55,144.949 "/>
<path clip-path="url(#clip810)" d="M2206.53 162.9 Q2196.92 162.9 2196.92 149.15 Q2196.92 143.71 2200.51 136.303 L2205.09 136.303 Q2201.78 143.71 2201.78 149.266 Q2201.78 159.289 2206.92 159.289 Q2211.62 159.289 2211.62 146.835 L2215.55 146.835 Q2215.55 159.289 2220.25 159.289 Q2225.39 159.289 2225.39 149.266 Q2225.39 143.71 2222.08 136.303 L2226.66 136.303 Q2230.25 143.71 2230.25 149.15 Q2230.25 162.9 2220.65 162.9 Q2214.35 162.9 2213.59 155.979 Q2212.64 162.9 2206.53 162.9 Z" fill="#000000" fill-rule="nonzero" fill-opacity="1" /><path clip-path="url(#clip810)" d="M2239.37 158.293 L2247.01 158.293 L2247.01 131.928 L2238.7 133.595 L2238.7 129.335 L2246.96 127.669 L2251.64 127.669 L2251.64 158.293 L2259.28 158.293 L2259.28 162.229 L2239.37 162.229 L2239.37 158.293 Z" fill="#000000" fill-rule="nonzero" fill-opacity="1" /><polyline clip-path="url(#clip810)" style="stroke:#0000ff; stroke-linecap:round; stroke-linejoin:round; stroke-width:6; stroke-opacity:1; fill:none" points="2033.34,196.789 2173.55,196.789 "/>
<path clip-path="url(#clip810)" d="M2206.53 214.74 Q2196.92 214.74 2196.92 200.99 Q2196.92 195.55 2200.51 188.143 L2205.09 188.143 Q2201.78 195.55 2201.78 201.106 Q2201.78 211.129 2206.92 211.129 Q2211.62 211.129 2211.62 198.675 L2215.55 198.675 Q2215.55 211.129 2220.25 211.129 Q2225.39 211.129 2225.39 201.106 Q2225.39 195.55 2222.08 188.143 L2226.66 188.143 Q2230.25 195.55 2230.25 200.99 Q2230.25 214.74 2220.65 214.74 Q2214.35 214.74 2213.59 207.819 Q2212.64 214.74 2206.53 214.74 Z" fill="#000000" fill-rule="nonzero" fill-opacity="1" /><path clip-path="url(#clip810)" d="M2242.59 210.133 L2258.91 210.133 L2258.91 214.069 L2236.97 214.069 L2236.97 210.133 Q2239.63 207.379 2244.21 202.749 Q2248.82 198.096 2250 196.754 Q2252.24 194.231 2253.12 192.495 Q2254.03 190.735 2254.03 189.046 Q2254.03 186.291 2252.08 184.555 Q2250.16 182.819 2247.06 182.819 Q2244.86 182.819 2242.4 183.583 Q2239.97 184.347 2237.2 185.897 L2237.2 181.175 Q2240.02 180.041 2242.47 179.462 Q2244.93 178.884 2246.96 178.884 Q2252.34 178.884 2255.53 181.569 Q2258.72 184.254 2258.72 188.745 Q2258.72 190.874 2257.91 192.796 Q2257.13 194.694 2255.02 197.286 Q2254.44 197.958 2251.34 201.175 Q2248.24 204.37 2242.59 210.133 Z" fill="#000000" fill-rule="nonzero" fill-opacity="1" /></svg>
