<?xml version="1.0" encoding="utf-8"?>
<svg xmlns="http://www.w3.org/2000/svg" xmlns:xlink="http://www.w3.org/1999/xlink" width="550" height="300" viewBox="0 0 2200 1200">
<defs>
  <clipPath id="clip360">
    <rect x="0" y="0" width="2200" height="1200"/>
  </clipPath>
</defs>
<path clip-path="url(#clip360)" d="M0 1200 L2200 1200 L2200 0 L0 0  Z" fill="#ffffff" fill-rule="evenodd" fill-opacity="1"/>
<defs>
  <clipPath id="clip361">
    <rect x="440" y="0" width="1541" height="1200"/>
  </clipPath>
</defs>
<path clip-path="url(#clip360)" d="M238.902 1042.1 L2152.76 1042.1 L2152.76 47.2441 L238.902 47.2441  Z" fill="#ffffff" fill-rule="evenodd" fill-opacity="1"/>
<defs>
  <clipPath id="clip362">
    <rect x="238" y="47" width="1915" height="996"/>
  </clipPath>
</defs>
<polyline clip-path="url(#clip362)" style="stroke:#000000; stroke-linecap:round; stroke-linejoin:round; stroke-width:2; stroke-opacity:0.1; fill:none" points="293.068,1042.1 293.068,47.2441 "/>
<polyline clip-path="url(#clip362)" style="stroke:#000000; stroke-linecap:round; stroke-linejoin:round; stroke-width:2; stroke-opacity:0.1; fill:none" points="744.448,1042.1 744.448,47.2441 "/>
<polyline clip-path="url(#clip362)" style="stroke:#000000; stroke-linecap:round; stroke-linejoin:round; stroke-width:2; stroke-opacity:0.1; fill:none" points="1195.83,1042.1 1195.83,47.2441 "/>
<polyline clip-path="url(#clip362)" style="stroke:#000000; stroke-linecap:round; stroke-linejoin:round; stroke-width:2; stroke-opacity:0.1; fill:none" points="1647.21,1042.1 1647.21,47.2441 "/>
<polyline clip-path="url(#clip362)" style="stroke:#000000; stroke-linecap:round; stroke-linejoin:round; stroke-width:2; stroke-opacity:0.1; fill:none" points="2098.59,1042.1 2098.59,47.2441 "/>
<polyline clip-path="url(#clip360)" style="stroke:#000000; stroke-linecap:round; stroke-linejoin:round; stroke-width:4; stroke-opacity:1; fill:none" points="238.902,1042.1 2152.76,1042.1 "/>
<polyline clip-path="url(#clip360)" style="stroke:#000000; stroke-linecap:round; stroke-linejoin:round; stroke-width:4; stroke-opacity:1; fill:none" points="293.068,1042.1 293.068,1023.21 "/>
<polyline clip-path="url(#clip360)" style="stroke:#000000; stroke-linecap:round; stroke-linejoin:round; stroke-width:4; stroke-opacity:1; fill:none" points="744.448,1042.1 744.448,1023.21 "/>
<polyline clip-path="url(#clip360)" style="stroke:#000000; stroke-linecap:round; stroke-linejoin:round; stroke-width:4; stroke-opacity:1; fill:none" points="1195.83,1042.1 1195.83,1023.21 "/>
<polyline clip-path="url(#clip360)" style="stroke:#000000; stroke-linecap:round; stroke-linejoin:round; stroke-width:4; stroke-opacity:1; fill:none" points="1647.21,1042.1 1647.21,1023.21 "/>
<polyline clip-path="url(#clip360)" style="stroke:#000000; stroke-linecap:round; stroke-linejoin:round; stroke-width:4; stroke-opacity:1; fill:none" points="2098.59,1042.1 2098.59,1023.21 "/>
<path clip-path="url(#clip360)" d="M255.371 1071.42 Q251.76 1071.42 249.931 1074.99 Q248.126 1078.53 248.126 1085.66 Q248.126 1092.76 249.931 1096.33 Q251.76 1099.87 255.371 1099.87 Q259.005 1099.87 260.811 1096.33 Q262.64 1092.76 262.64 1085.66 Q262.64 1078.53 260.811 1074.99 Q259.005 1071.42 255.371 1071.42 M255.371 1067.72 Q261.181 1067.72 264.237 1072.32 Q267.316 1076.91 267.316 1085.66 Q267.316 1094.39 264.237 1098.99 Q261.181 1103.57 255.371 1103.57 Q249.561 1103.57 246.482 1098.99 Q243.427 1094.39 243.427 1085.66 Q243.427 1076.91 246.482 1072.32 Q249.561 1067.72 255.371 1067.72 Z" fill="#000000" fill-rule="nonzero" fill-opacity="1" /><path clip-path="url(#clip360)" d="M275.533 1097.02 L280.417 1097.02 L280.417 1102.9 L275.533 1102.9 L275.533 1097.02 Z" fill="#000000" fill-rule="nonzero" fill-opacity="1" /><path clip-path="url(#clip360)" d="M300.602 1071.42 Q296.991 1071.42 295.163 1074.99 Q293.357 1078.53 293.357 1085.66 Q293.357 1092.76 295.163 1096.33 Q296.991 1099.87 300.602 1099.87 Q304.237 1099.87 306.042 1096.33 Q307.871 1092.76 307.871 1085.66 Q307.871 1078.53 306.042 1074.99 Q304.237 1071.42 300.602 1071.42 M300.602 1067.72 Q306.413 1067.72 309.468 1072.32 Q312.547 1076.91 312.547 1085.66 Q312.547 1094.39 309.468 1098.99 Q306.413 1103.57 300.602 1103.57 Q294.792 1103.57 291.714 1098.99 Q288.658 1094.39 288.658 1085.66 Q288.658 1076.91 291.714 1072.32 Q294.792 1067.72 300.602 1067.72 Z" fill="#000000" fill-rule="nonzero" fill-opacity="1" /><path clip-path="url(#clip360)" d="M330.764 1071.42 Q327.153 1071.42 325.324 1074.99 Q323.519 1078.53 323.519 1085.66 Q323.519 1092.76 325.324 1096.33 Q327.153 1099.87 330.764 1099.87 Q334.398 1099.87 336.204 1096.33 Q338.033 1092.76 338.033 1085.66 Q338.033 1078.53 336.204 1074.99 Q334.398 1071.42 330.764 1071.42 M330.764 1067.72 Q336.574 1067.72 339.63 1072.32 Q342.709 1076.91 342.709 1085.66 Q342.709 1094.39 339.63 1098.99 Q336.574 1103.57 330.764 1103.57 Q324.954 1103.57 321.875 1098.99 Q318.82 1094.39 318.82 1085.66 Q318.82 1076.91 321.875 1072.32 Q324.954 1067.72 330.764 1067.72 Z" fill="#000000" fill-rule="nonzero" fill-opacity="1" /><path clip-path="url(#clip360)" d="M707.249 1071.42 Q703.638 1071.42 701.81 1074.99 Q700.004 1078.53 700.004 1085.66 Q700.004 1092.76 701.81 1096.33 Q703.638 1099.87 707.249 1099.87 Q710.884 1099.87 712.689 1096.33 Q714.518 1092.76 714.518 1085.66 Q714.518 1078.53 712.689 1074.99 Q710.884 1071.42 707.249 1071.42 M707.249 1067.72 Q713.06 1067.72 716.115 1072.32 Q719.194 1076.91 719.194 1085.66 Q719.194 1094.39 716.115 1098.99 Q713.06 1103.57 707.249 1103.57 Q701.439 1103.57 698.361 1098.99 Q695.305 1094.39 695.305 1085.66 Q695.305 1076.91 698.361 1072.32 Q701.439 1067.72 707.249 1067.72 Z" fill="#000000" fill-rule="nonzero" fill-opacity="1" /><path clip-path="url(#clip360)" d="M727.411 1097.02 L732.296 1097.02 L732.296 1102.9 L727.411 1102.9 L727.411 1097.02 Z" fill="#000000" fill-rule="nonzero" fill-opacity="1" /><path clip-path="url(#clip360)" d="M746.509 1098.97 L762.828 1098.97 L762.828 1102.9 L740.884 1102.9 L740.884 1098.97 Q743.546 1096.21 748.129 1091.58 Q752.735 1086.93 753.916 1085.59 Q756.161 1083.07 757.041 1081.33 Q757.944 1079.57 757.944 1077.88 Q757.944 1075.13 755.999 1073.39 Q754.078 1071.65 750.976 1071.65 Q748.777 1071.65 746.323 1072.42 Q743.893 1073.18 741.115 1074.73 L741.115 1070.01 Q743.939 1068.88 746.393 1068.3 Q748.846 1067.72 750.883 1067.72 Q756.254 1067.72 759.448 1070.4 Q762.643 1073.09 762.643 1077.58 Q762.643 1079.71 761.832 1081.63 Q761.045 1083.53 758.939 1086.12 Q758.36 1086.79 755.258 1090.01 Q752.157 1093.2 746.509 1098.97 Z" fill="#000000" fill-rule="nonzero" fill-opacity="1" /><path clip-path="url(#clip360)" d="M772.689 1068.34 L791.045 1068.34 L791.045 1072.28 L776.971 1072.28 L776.971 1080.75 Q777.99 1080.4 779.008 1080.24 Q780.027 1080.06 781.045 1080.06 Q786.832 1080.06 790.212 1083.23 Q793.592 1086.4 793.592 1091.82 Q793.592 1097.39 790.119 1100.5 Q786.647 1103.57 780.328 1103.57 Q778.152 1103.57 775.883 1103.2 Q773.638 1102.83 771.231 1102.09 L771.231 1097.39 Q773.314 1098.53 775.536 1099.08 Q777.758 1099.64 780.235 1099.64 Q784.24 1099.64 786.578 1097.53 Q788.916 1095.43 788.916 1091.82 Q788.916 1088.2 786.578 1086.1 Q784.24 1083.99 780.235 1083.99 Q778.36 1083.99 776.485 1084.41 Q774.633 1084.82 772.689 1085.7 L772.689 1068.34 Z" fill="#000000" fill-rule="nonzero" fill-opacity="1" /><path clip-path="url(#clip360)" d="M1158.13 1071.42 Q1154.52 1071.42 1152.69 1074.99 Q1150.89 1078.53 1150.89 1085.66 Q1150.89 1092.76 1152.69 1096.33 Q1154.52 1099.87 1158.13 1099.87 Q1161.77 1099.87 1163.57 1096.33 Q1165.4 1092.76 1165.4 1085.66 Q1165.4 1078.53 1163.57 1074.99 Q1161.77 1071.42 1158.13 1071.42 M1158.13 1067.72 Q1163.94 1067.72 1167 1072.32 Q1170.08 1076.91 1170.08 1085.66 Q1170.08 1094.39 1167 1098.99 Q1163.94 1103.57 1158.13 1103.57 Q1152.32 1103.57 1149.24 1098.99 Q1146.19 1094.39 1146.19 1085.66 Q1146.19 1076.91 1149.24 1072.32 Q1152.32 1067.72 1158.13 1067.72 Z" fill="#000000" fill-rule="nonzero" fill-opacity="1" /><path clip-path="url(#clip360)" d="M1178.29 1097.02 L1183.18 1097.02 L1183.18 1102.9 L1178.29 1102.9 L1178.29 1097.02 Z" fill="#000000" fill-rule="nonzero" fill-opacity="1" /><path clip-path="url(#clip360)" d="M1193.41 1068.34 L1211.77 1068.34 L1211.77 1072.28 L1197.69 1072.28 L1197.69 1080.75 Q1198.71 1080.4 1199.73 1080.24 Q1200.75 1080.06 1201.77 1080.06 Q1207.55 1080.06 1210.93 1083.23 Q1214.31 1086.4 1214.31 1091.82 Q1214.31 1097.39 1210.84 1100.5 Q1207.37 1103.57 1201.05 1103.57 Q1198.87 1103.57 1196.6 1103.2 Q1194.36 1102.83 1191.95 1102.09 L1191.95 1097.39 Q1194.03 1098.53 1196.26 1099.08 Q1198.48 1099.64 1200.96 1099.64 Q1204.96 1099.64 1207.3 1097.53 Q1209.64 1095.43 1209.64 1091.82 Q1209.64 1088.2 1207.3 1086.1 Q1204.96 1083.99 1200.96 1083.99 Q1199.08 1083.99 1197.21 1084.41 Q1195.35 1084.82 1193.41 1085.7 L1193.41 1068.34 Z" fill="#000000" fill-rule="nonzero" fill-opacity="1" /><path clip-path="url(#clip360)" d="M1233.53 1071.42 Q1229.91 1071.42 1228.09 1074.99 Q1226.28 1078.53 1226.28 1085.66 Q1226.28 1092.76 1228.09 1096.33 Q1229.91 1099.87 1233.53 1099.87 Q1237.16 1099.87 1238.97 1096.33 Q1240.79 1092.76 1240.79 1085.66 Q1240.79 1078.53 1238.97 1074.99 Q1237.16 1071.42 1233.53 1071.42 M1233.53 1067.72 Q1239.34 1067.72 1242.39 1072.32 Q1245.47 1076.91 1245.47 1085.66 Q1245.47 1094.39 1242.39 1098.99 Q1239.34 1103.57 1233.53 1103.57 Q1227.72 1103.57 1224.64 1098.99 Q1221.58 1094.39 1221.58 1085.66 Q1221.58 1076.91 1224.64 1072.32 Q1227.72 1067.72 1233.53 1067.72 Z" fill="#000000" fill-rule="nonzero" fill-opacity="1" /><path clip-path="url(#clip360)" d="M1610.01 1071.42 Q1606.4 1071.42 1604.57 1074.99 Q1602.77 1078.53 1602.77 1085.66 Q1602.77 1092.76 1604.57 1096.33 Q1606.4 1099.87 1610.01 1099.87 Q1613.64 1099.87 1615.45 1096.33 Q1617.28 1092.76 1617.28 1085.66 Q1617.28 1078.53 1615.45 1074.99 Q1613.64 1071.42 1610.01 1071.42 M1610.01 1067.72 Q1615.82 1067.72 1618.88 1072.32 Q1621.96 1076.91 1621.96 1085.66 Q1621.96 1094.39 1618.88 1098.99 Q1615.82 1103.57 1610.01 1103.57 Q1604.2 1103.57 1601.12 1098.99 Q1598.07 1094.39 1598.07 1085.66 Q1598.07 1076.91 1601.12 1072.32 Q1604.2 1067.72 1610.01 1067.72 Z" fill="#000000" fill-rule="nonzero" fill-opacity="1" /><path clip-path="url(#clip360)" d="M1630.17 1097.02 L1635.06 1097.02 L1635.06 1102.9 L1630.17 1102.9 L1630.17 1097.02 Z" fill="#000000" fill-rule="nonzero" fill-opacity="1" /><path clip-path="url(#clip360)" d="M1644.06 1068.34 L1666.28 1068.34 L1666.28 1070.33 L1653.74 1102.9 L1648.85 1102.9 L1660.66 1072.28 L1644.06 1072.28 L1644.06 1068.34 Z" fill="#000000" fill-rule="nonzero" fill-opacity="1" /><path clip-path="url(#clip360)" d="M1675.45 1068.34 L1693.81 1068.34 L1693.81 1072.28 L1679.73 1072.28 L1679.73 1080.75 Q1680.75 1080.4 1681.77 1080.24 Q1682.79 1080.06 1683.81 1080.06 Q1689.59 1080.06 1692.97 1083.23 Q1696.35 1086.4 1696.35 1091.82 Q1696.35 1097.39 1692.88 1100.5 Q1689.41 1103.57 1683.09 1103.57 Q1680.91 1103.57 1678.64 1103.2 Q1676.4 1102.83 1673.99 1102.09 L1673.99 1097.39 Q1676.08 1098.53 1678.3 1099.08 Q1680.52 1099.64 1683 1099.64 Q1687 1099.64 1689.34 1097.53 Q1691.68 1095.43 1691.68 1091.82 Q1691.68 1088.2 1689.34 1086.1 Q1687 1083.99 1683 1083.99 Q1681.12 1083.99 1679.25 1084.41 Q1677.39 1084.82 1675.45 1085.7 L1675.45 1068.34 Z" fill="#000000" fill-rule="nonzero" fill-opacity="1" /><path clip-path="url(#clip360)" d="M2050.66 1098.97 L2058.3 1098.97 L2058.3 1072.6 L2049.99 1074.27 L2049.99 1070.01 L2058.25 1068.34 L2062.93 1068.34 L2062.93 1098.97 L2070.57 1098.97 L2070.57 1102.9 L2050.66 1102.9 L2050.66 1098.97 Z" fill="#000000" fill-rule="nonzero" fill-opacity="1" /><path clip-path="url(#clip360)" d="M2080.01 1097.02 L2084.9 1097.02 L2084.9 1102.9 L2080.01 1102.9 L2080.01 1097.02 Z" fill="#000000" fill-rule="nonzero" fill-opacity="1" /><path clip-path="url(#clip360)" d="M2105.08 1071.42 Q2101.47 1071.42 2099.64 1074.99 Q2097.84 1078.53 2097.84 1085.66 Q2097.84 1092.76 2099.64 1096.33 Q2101.47 1099.87 2105.08 1099.87 Q2108.72 1099.87 2110.52 1096.33 Q2112.35 1092.76 2112.35 1085.66 Q2112.35 1078.53 2110.52 1074.99 Q2108.72 1071.42 2105.08 1071.42 M2105.08 1067.72 Q2110.89 1067.72 2113.95 1072.32 Q2117.03 1076.91 2117.03 1085.66 Q2117.03 1094.39 2113.95 1098.99 Q2110.89 1103.57 2105.08 1103.57 Q2099.27 1103.57 2096.19 1098.99 Q2093.14 1094.39 2093.14 1085.66 Q2093.14 1076.91 2096.19 1072.32 Q2099.27 1067.72 2105.08 1067.72 Z" fill="#000000" fill-rule="nonzero" fill-opacity="1" /><path clip-path="url(#clip360)" d="M2135.25 1071.42 Q2131.63 1071.42 2129.81 1074.99 Q2128 1078.53 2128 1085.66 Q2128 1092.76 2129.81 1096.33 Q2131.63 1099.87 2135.25 1099.87 Q2138.88 1099.87 2140.68 1096.33 Q2142.51 1092.76 2142.51 1085.66 Q2142.51 1078.53 2140.68 1074.99 Q2138.88 1071.42 2135.25 1071.42 M2135.25 1067.72 Q2141.06 1067.72 2144.11 1072.32 Q2147.19 1076.91 2147.19 1085.66 Q2147.19 1094.39 2144.11 1098.99 Q2141.06 1103.57 2135.25 1103.57 Q2129.43 1103.57 2126.36 1098.99 Q2123.3 1094.39 2123.3 1085.66 Q2123.3 1076.91 2126.36 1072.32 Q2129.43 1067.72 2135.25 1067.72 Z" fill="#000000" fill-rule="nonzero" fill-opacity="1" /><path clip-path="url(#clip360)" d="M710.746 1141.73 L710.746 1159.59 L718.831 1159.59 Q723.318 1159.59 725.769 1157.26 Q728.22 1154.94 728.22 1150.64 Q728.22 1146.38 725.769 1144.05 Q723.318 1141.73 718.831 1141.73 L710.746 1141.73 M704.317 1136.45 L718.831 1136.45 Q726.82 1136.45 730.894 1140.08 Q735 1143.67 735 1150.64 Q735 1157.68 730.894 1161.27 Q726.82 1164.87 718.831 1164.87 L710.746 1164.87 L710.746 1183.97 L704.317 1183.97 L704.317 1136.45 Z" fill="#000000" fill-rule="nonzero" fill-opacity="1" /><path clip-path="url(#clip360)" d="M754.861 1152.43 Q750.15 1152.43 747.413 1156.12 Q744.675 1159.78 744.675 1166.18 Q744.675 1172.57 747.381 1176.26 Q750.118 1179.93 754.861 1179.93 Q759.539 1179.93 762.277 1176.23 Q765.014 1172.54 765.014 1166.18 Q765.014 1159.84 762.277 1156.15 Q759.539 1152.43 754.861 1152.43 M754.861 1147.46 Q762.499 1147.46 766.86 1152.43 Q771.22 1157.39 771.22 1166.18 Q771.22 1174.93 766.86 1179.93 Q762.499 1184.89 754.861 1184.89 Q747.19 1184.89 742.829 1179.93 Q738.501 1174.93 738.501 1166.18 Q738.501 1157.39 742.829 1152.43 Q747.19 1147.46 754.861 1147.46 Z" fill="#000000" fill-rule="nonzero" fill-opacity="1" /><path clip-path="url(#clip360)" d="M803.654 1149.37 L803.654 1154.91 Q801.171 1153.63 798.497 1153 Q795.824 1152.36 792.959 1152.36 Q788.599 1152.36 786.403 1153.7 Q784.238 1155.04 784.238 1157.71 Q784.238 1159.75 785.798 1160.92 Q787.357 1162.07 792.068 1163.12 L794.073 1163.57 Q800.312 1164.9 802.922 1167.35 Q805.563 1169.77 805.563 1174.13 Q805.563 1179.1 801.617 1181.99 Q797.702 1184.89 790.827 1184.89 Q787.962 1184.89 784.843 1184.32 Q781.756 1183.78 778.318 1182.66 L778.318 1176.62 Q781.565 1178.3 784.716 1179.16 Q787.867 1179.99 790.954 1179.99 Q795.092 1179.99 797.32 1178.59 Q799.548 1177.16 799.548 1174.58 Q799.548 1172.19 797.925 1170.92 Q796.333 1169.64 790.89 1168.47 L788.853 1167.99 Q783.411 1166.84 780.992 1164.49 Q778.573 1162.1 778.573 1157.96 Q778.573 1152.93 782.138 1150.2 Q785.702 1147.46 792.259 1147.46 Q795.506 1147.46 798.37 1147.94 Q801.235 1148.42 803.654 1149.37 Z" fill="#000000" fill-rule="nonzero" fill-opacity="1" /><path clip-path="url(#clip360)" d="M820.682 1138.2 L820.682 1148.32 L832.745 1148.32 L832.745 1152.87 L820.682 1152.87 L820.682 1172.22 Q820.682 1176.58 821.86 1177.82 Q823.069 1179.07 826.729 1179.07 L832.745 1179.07 L832.745 1183.97 L826.729 1183.97 Q819.95 1183.97 817.372 1181.45 Q814.794 1178.91 814.794 1172.22 L814.794 1152.87 L810.497 1152.87 L810.497 1148.32 L814.794 1148.32 L814.794 1138.2 L820.682 1138.2 Z" fill="#000000" fill-rule="nonzero" fill-opacity="1" /><path clip-path="url(#clip360)" d="M870.939 1164.68 L870.939 1167.54 L844.012 1167.54 Q844.394 1173.59 847.641 1176.77 Q850.919 1179.93 856.744 1179.93 Q860.118 1179.93 863.269 1179.1 Q866.451 1178.27 869.571 1176.62 L869.571 1182.15 Q866.42 1183.49 863.109 1184.19 Q859.799 1184.89 856.394 1184.89 Q847.864 1184.89 842.866 1179.93 Q837.901 1174.96 837.901 1166.49 Q837.901 1157.74 842.612 1152.62 Q847.354 1147.46 855.375 1147.46 Q862.568 1147.46 866.738 1152.11 Q870.939 1156.72 870.939 1164.68 M865.083 1162.96 Q865.019 1158.15 862.377 1155.29 Q859.767 1152.43 855.439 1152.43 Q850.537 1152.43 847.577 1155.19 Q844.649 1157.96 844.203 1162.99 L865.083 1162.96 Z" fill="#000000" fill-rule="nonzero" fill-opacity="1" /><path clip-path="url(#clip360)" d="M901.208 1153.79 Q900.221 1153.22 899.044 1152.97 Q897.898 1152.68 896.498 1152.68 Q891.532 1152.68 888.859 1155.93 Q886.217 1159.14 886.217 1165.19 L886.217 1183.97 L880.329 1183.97 L880.329 1148.32 L886.217 1148.32 L886.217 1153.86 Q888.063 1150.61 891.023 1149.05 Q893.983 1147.46 898.216 1147.46 Q898.821 1147.46 899.553 1147.56 Q900.285 1147.62 901.176 1147.78 L901.208 1153.79 Z" fill="#000000" fill-rule="nonzero" fill-opacity="1" /><path clip-path="url(#clip360)" d="M907.351 1148.32 L913.208 1148.32 L913.208 1183.97 L907.351 1183.97 L907.351 1148.32 M907.351 1134.44 L913.208 1134.44 L913.208 1141.86 L907.351 1141.86 L907.351 1134.44 Z" fill="#000000" fill-rule="nonzero" fill-opacity="1" /><path clip-path="url(#clip360)" d="M939.275 1152.43 Q934.564 1152.43 931.827 1156.12 Q929.09 1159.78 929.09 1166.18 Q929.09 1172.57 931.795 1176.26 Q934.533 1179.93 939.275 1179.93 Q943.954 1179.93 946.691 1176.23 Q949.428 1172.54 949.428 1166.18 Q949.428 1159.84 946.691 1156.15 Q943.954 1152.43 939.275 1152.43 M939.275 1147.46 Q946.914 1147.46 951.274 1152.43 Q955.635 1157.39 955.635 1166.18 Q955.635 1174.93 951.274 1179.93 Q946.914 1184.89 939.275 1184.89 Q931.604 1184.89 927.244 1179.93 Q922.915 1174.93 922.915 1166.18 Q922.915 1157.39 927.244 1152.43 Q931.604 1147.46 939.275 1147.46 Z" fill="#000000" fill-rule="nonzero" fill-opacity="1" /><path clip-path="url(#clip360)" d="M985.999 1153.79 Q985.013 1153.22 983.835 1152.97 Q982.689 1152.68 981.289 1152.68 Q976.323 1152.68 973.65 1155.93 Q971.008 1159.14 971.008 1165.19 L971.008 1183.97 L965.12 1183.97 L965.12 1148.32 L971.008 1148.32 L971.008 1153.86 Q972.854 1150.61 975.814 1149.05 Q978.774 1147.46 983.007 1147.46 Q983.612 1147.46 984.344 1147.56 Q985.076 1147.62 985.968 1147.78 L985.999 1153.79 Z" fill="#000000" fill-rule="nonzero" fill-opacity="1" /><path clip-path="url(#clip360)" d="M1019.55 1141.73 L1019.55 1159.59 L1027.63 1159.59 Q1032.12 1159.59 1034.57 1157.26 Q1037.02 1154.94 1037.02 1150.64 Q1037.02 1146.38 1034.57 1144.05 Q1032.12 1141.73 1027.63 1141.73 L1019.55 1141.73 M1013.12 1136.45 L1027.63 1136.45 Q1035.62 1136.45 1039.69 1140.08 Q1043.8 1143.67 1043.8 1150.64 Q1043.8 1157.68 1039.69 1161.27 Q1035.62 1164.87 1027.63 1164.87 L1019.55 1164.87 L1019.55 1183.97 L1013.12 1183.97 L1013.12 1136.45 Z" fill="#000000" fill-rule="nonzero" fill-opacity="1" /><path clip-path="url(#clip360)" d="M1071.68 1153.79 Q1070.7 1153.22 1069.52 1152.97 Q1068.37 1152.68 1066.97 1152.68 Q1062.01 1152.68 1059.33 1155.93 Q1056.69 1159.14 1056.69 1165.19 L1056.69 1183.97 L1050.8 1183.97 L1050.8 1148.32 L1056.69 1148.32 L1056.69 1153.86 Q1058.54 1150.61 1061.5 1149.05 Q1064.46 1147.46 1068.69 1147.46 Q1069.29 1147.46 1070.03 1147.56 Q1070.76 1147.62 1071.65 1147.78 L1071.68 1153.79 Z" fill="#000000" fill-rule="nonzero" fill-opacity="1" /><path clip-path="url(#clip360)" d="M1090.21 1152.43 Q1085.5 1152.43 1082.76 1156.12 Q1080.02 1159.78 1080.02 1166.18 Q1080.02 1172.57 1082.73 1176.26 Q1085.46 1179.93 1090.21 1179.93 Q1094.88 1179.93 1097.62 1176.23 Q1100.36 1172.54 1100.36 1166.18 Q1100.36 1159.84 1097.62 1156.15 Q1094.88 1152.43 1090.21 1152.43 M1090.21 1147.46 Q1097.84 1147.46 1102.21 1152.43 Q1106.57 1157.39 1106.57 1166.18 Q1106.57 1174.93 1102.21 1179.93 Q1097.84 1184.89 1090.21 1184.89 Q1082.54 1184.89 1078.17 1179.93 Q1073.85 1174.93 1073.85 1166.18 Q1073.85 1157.39 1078.17 1152.43 Q1082.54 1147.46 1090.21 1147.46 Z" fill="#000000" fill-rule="nonzero" fill-opacity="1" /><path clip-path="url(#clip360)" d="M1141.86 1166.18 Q1141.86 1159.71 1139.19 1156.05 Q1136.55 1152.36 1131.9 1152.36 Q1127.25 1152.36 1124.58 1156.05 Q1121.94 1159.71 1121.94 1166.18 Q1121.94 1172.64 1124.58 1176.33 Q1127.25 1179.99 1131.9 1179.99 Q1136.55 1179.99 1139.19 1176.33 Q1141.86 1172.64 1141.86 1166.18 M1121.94 1153.73 Q1123.79 1150.55 1126.59 1149.02 Q1129.42 1147.46 1133.33 1147.46 Q1139.83 1147.46 1143.87 1152.62 Q1147.94 1157.77 1147.94 1166.18 Q1147.94 1174.58 1143.87 1179.73 Q1139.83 1184.89 1133.33 1184.89 Q1129.42 1184.89 1126.59 1183.36 Q1123.79 1181.8 1121.94 1178.62 L1121.94 1183.97 L1116.05 1183.97 L1116.05 1134.44 L1121.94 1134.44 L1121.94 1153.73 Z" fill="#000000" fill-rule="nonzero" fill-opacity="1" /><path clip-path="url(#clip360)" d="M1173.85 1166.05 Q1166.75 1166.05 1164.02 1167.67 Q1161.28 1169.29 1161.28 1173.21 Q1161.28 1176.33 1163.32 1178.17 Q1165.38 1179.99 1168.92 1179.99 Q1173.79 1179.99 1176.72 1176.55 Q1179.68 1173.08 1179.68 1167.35 L1179.68 1166.05 L1173.85 1166.05 M1185.53 1163.63 L1185.53 1183.97 L1179.68 1183.97 L1179.68 1178.56 Q1177.67 1181.8 1174.68 1183.36 Q1171.69 1184.89 1167.36 1184.89 Q1161.88 1184.89 1158.64 1181.83 Q1155.42 1178.75 1155.42 1173.59 Q1155.42 1167.58 1159.43 1164.52 Q1163.48 1161.46 1171.46 1161.46 L1179.68 1161.46 L1179.68 1160.89 Q1179.68 1156.85 1177 1154.65 Q1174.36 1152.43 1169.55 1152.43 Q1166.5 1152.43 1163.6 1153.16 Q1160.71 1153.89 1158.03 1155.35 L1158.03 1149.94 Q1161.25 1148.7 1164.27 1148.1 Q1167.29 1147.46 1170.16 1147.46 Q1177.89 1147.46 1181.71 1151.47 Q1185.53 1155.48 1185.53 1163.63 Z" fill="#000000" fill-rule="nonzero" fill-opacity="1" /><path clip-path="url(#clip360)" d="M1223.19 1166.18 Q1223.19 1159.71 1220.51 1156.05 Q1217.87 1152.36 1213.22 1152.36 Q1208.58 1152.36 1205.9 1156.05 Q1203.26 1159.71 1203.26 1166.18 Q1203.26 1172.64 1205.9 1176.33 Q1208.58 1179.99 1213.22 1179.99 Q1217.87 1179.99 1220.51 1176.33 Q1223.19 1172.64 1223.19 1166.18 M1203.26 1153.73 Q1205.11 1150.55 1207.91 1149.02 Q1210.74 1147.46 1214.66 1147.46 Q1221.15 1147.46 1225.19 1152.62 Q1229.26 1157.77 1229.26 1166.18 Q1229.26 1174.58 1225.19 1179.73 Q1221.15 1184.89 1214.66 1184.89 Q1210.74 1184.89 1207.91 1183.36 Q1205.11 1181.8 1203.26 1178.62 L1203.26 1183.97 L1197.37 1183.97 L1197.37 1134.44 L1203.26 1134.44 L1203.26 1153.73 Z" fill="#000000" fill-rule="nonzero" fill-opacity="1" /><path clip-path="url(#clip360)" d="M1238.97 1148.32 L1244.83 1148.32 L1244.83 1183.97 L1238.97 1183.97 L1238.97 1148.32 M1238.97 1134.44 L1244.83 1134.44 L1244.83 1141.86 L1238.97 1141.86 L1238.97 1134.44 Z" fill="#000000" fill-rule="nonzero" fill-opacity="1" /><path clip-path="url(#clip360)" d="M1257.08 1134.44 L1262.94 1134.44 L1262.94 1183.97 L1257.08 1183.97 L1257.08 1134.44 Z" fill="#000000" fill-rule="nonzero" fill-opacity="1" /><path clip-path="url(#clip360)" d="M1275.19 1148.32 L1281.05 1148.32 L1281.05 1183.97 L1275.19 1183.97 L1275.19 1148.32 M1275.19 1134.44 L1281.05 1134.44 L1281.05 1141.86 L1275.19 1141.86 L1275.19 1134.44 Z" fill="#000000" fill-rule="nonzero" fill-opacity="1" /><path clip-path="url(#clip360)" d="M1299.1 1138.2 L1299.1 1148.32 L1311.16 1148.32 L1311.16 1152.87 L1299.1 1152.87 L1299.1 1172.22 Q1299.1 1176.58 1300.27 1177.82 Q1301.48 1179.07 1305.14 1179.07 L1311.16 1179.07 L1311.16 1183.97 L1305.14 1183.97 Q1298.36 1183.97 1295.79 1181.45 Q1293.21 1178.91 1293.21 1172.22 L1293.21 1152.87 L1288.91 1152.87 L1288.91 1148.32 L1293.21 1148.32 L1293.21 1138.2 L1299.1 1138.2 Z" fill="#000000" fill-rule="nonzero" fill-opacity="1" /><path clip-path="url(#clip360)" d="M1333.69 1187.28 Q1331.21 1193.64 1328.86 1195.58 Q1326.5 1197.53 1322.55 1197.53 L1317.88 1197.53 L1317.88 1192.62 L1321.31 1192.62 Q1323.73 1192.62 1325.07 1191.48 Q1326.41 1190.33 1328.03 1186.07 L1329.08 1183.39 L1314.66 1148.32 L1320.87 1148.32 L1332.01 1176.2 L1343.15 1148.32 L1349.35 1148.32 L1333.69 1187.28 Z" fill="#000000" fill-rule="nonzero" fill-opacity="1" /><path clip-path="url(#clip360)" d="M1371.82 1136.45 L1412.02 1136.45 L1412.02 1141.86 L1395.16 1141.86 L1395.16 1183.97 L1388.69 1183.97 L1388.69 1141.86 L1371.82 1141.86 L1371.82 1136.45 Z" fill="#000000" fill-rule="nonzero" fill-opacity="1" /><path clip-path="url(#clip360)" d="M1447.61 1162.45 L1447.61 1183.97 L1441.75 1183.97 L1441.75 1162.64 Q1441.75 1157.58 1439.78 1155.07 Q1437.81 1152.55 1433.86 1152.55 Q1429.12 1152.55 1426.38 1155.58 Q1423.64 1158.6 1423.64 1163.82 L1423.64 1183.97 L1417.75 1183.97 L1417.75 1134.44 L1423.64 1134.44 L1423.64 1153.86 Q1425.74 1150.64 1428.58 1149.05 Q1431.44 1147.46 1435.16 1147.46 Q1441.31 1147.46 1444.46 1151.28 Q1447.61 1155.07 1447.61 1162.45 Z" fill="#000000" fill-rule="nonzero" fill-opacity="1" /><path clip-path="url(#clip360)" d="M1479.95 1153.79 Q1478.96 1153.22 1477.78 1152.97 Q1476.64 1152.68 1475.24 1152.68 Q1470.27 1152.68 1467.6 1155.93 Q1464.96 1159.14 1464.96 1165.19 L1464.96 1183.97 L1459.07 1183.97 L1459.07 1148.32 L1464.96 1148.32 L1464.96 1153.86 Q1466.8 1150.61 1469.76 1149.05 Q1472.72 1147.46 1476.95 1147.46 Q1477.56 1147.46 1478.29 1147.56 Q1479.02 1147.62 1479.91 1147.78 L1479.95 1153.79 Z" fill="#000000" fill-rule="nonzero" fill-opacity="1" /><path clip-path="url(#clip360)" d="M1515.15 1164.68 L1515.15 1167.54 L1488.22 1167.54 Q1488.6 1173.59 1491.85 1176.77 Q1495.13 1179.93 1500.95 1179.93 Q1504.33 1179.93 1507.48 1179.1 Q1510.66 1178.27 1513.78 1176.62 L1513.78 1182.15 Q1510.63 1183.49 1507.32 1184.19 Q1504.01 1184.89 1500.6 1184.89 Q1492.07 1184.89 1487.08 1179.93 Q1482.11 1174.96 1482.11 1166.49 Q1482.11 1157.74 1486.82 1152.62 Q1491.56 1147.46 1499.58 1147.46 Q1506.78 1147.46 1510.95 1152.11 Q1515.15 1156.72 1515.15 1164.68 M1509.29 1162.96 Q1509.23 1158.15 1506.59 1155.29 Q1503.98 1152.43 1499.65 1152.43 Q1494.75 1152.43 1491.79 1155.19 Q1488.86 1157.96 1488.41 1162.99 L1509.29 1162.96 Z" fill="#000000" fill-rule="nonzero" fill-opacity="1" /><path clip-path="url(#clip360)" d="M1547.49 1149.37 L1547.49 1154.91 Q1545 1153.63 1542.33 1153 Q1539.66 1152.36 1536.79 1152.36 Q1532.43 1152.36 1530.24 1153.7 Q1528.07 1155.04 1528.07 1157.71 Q1528.07 1159.75 1529.63 1160.92 Q1531.19 1162.07 1535.9 1163.12 L1537.91 1163.57 Q1544.14 1164.9 1546.75 1167.35 Q1549.4 1169.77 1549.4 1174.13 Q1549.4 1179.1 1545.45 1181.99 Q1541.53 1184.89 1534.66 1184.89 Q1531.8 1184.89 1528.68 1184.32 Q1525.59 1183.78 1522.15 1182.66 L1522.15 1176.62 Q1525.4 1178.3 1528.55 1179.16 Q1531.7 1179.99 1534.79 1179.99 Q1538.92 1179.99 1541.15 1178.59 Q1543.38 1177.16 1543.38 1174.58 Q1543.38 1172.19 1541.76 1170.92 Q1540.17 1169.64 1534.72 1168.47 L1532.69 1167.99 Q1527.24 1166.84 1524.82 1164.49 Q1522.41 1162.1 1522.41 1157.96 Q1522.41 1152.93 1525.97 1150.2 Q1529.54 1147.46 1536.09 1147.46 Q1539.34 1147.46 1542.2 1147.94 Q1545.07 1148.42 1547.49 1149.37 Z" fill="#000000" fill-rule="nonzero" fill-opacity="1" /><path clip-path="url(#clip360)" d="M1588.35 1162.45 L1588.35 1183.97 L1582.5 1183.97 L1582.5 1162.64 Q1582.5 1157.58 1580.52 1155.07 Q1578.55 1152.55 1574.6 1152.55 Q1569.86 1152.55 1567.12 1155.58 Q1564.39 1158.6 1564.39 1163.82 L1564.39 1183.97 L1558.5 1183.97 L1558.5 1134.44 L1564.39 1134.44 L1564.39 1153.86 Q1566.49 1150.64 1569.32 1149.05 Q1572.19 1147.46 1575.91 1147.46 Q1582.05 1147.46 1585.2 1151.28 Q1588.35 1155.07 1588.35 1162.45 Z" fill="#000000" fill-rule="nonzero" fill-opacity="1" /><path clip-path="url(#clip360)" d="M1613.85 1152.43 Q1609.14 1152.43 1606.4 1156.12 Q1603.66 1159.78 1603.66 1166.18 Q1603.66 1172.57 1606.37 1176.26 Q1609.11 1179.93 1613.85 1179.93 Q1618.53 1179.93 1621.27 1176.23 Q1624 1172.54 1624 1166.18 Q1624 1159.84 1621.27 1156.15 Q1618.53 1152.43 1613.85 1152.43 M1613.85 1147.46 Q1621.49 1147.46 1625.85 1152.43 Q1630.21 1157.39 1630.21 1166.18 Q1630.21 1174.93 1625.85 1179.93 Q1621.49 1184.89 1613.85 1184.89 Q1606.18 1184.89 1601.82 1179.93 Q1597.49 1174.93 1597.49 1166.18 Q1597.49 1157.39 1601.82 1152.43 Q1606.18 1147.46 1613.85 1147.46 Z" fill="#000000" fill-rule="nonzero" fill-opacity="1" /><path clip-path="url(#clip360)" d="M1639.92 1134.44 L1645.77 1134.44 L1645.77 1183.97 L1639.92 1183.97 L1639.92 1134.44 Z" fill="#000000" fill-rule="nonzero" fill-opacity="1" /><path clip-path="url(#clip360)" d="M1681.48 1153.73 L1681.48 1134.44 L1687.34 1134.44 L1687.34 1183.97 L1681.48 1183.97 L1681.48 1178.62 Q1679.64 1181.8 1676.81 1183.36 Q1674 1184.89 1670.06 1184.89 Q1663.6 1184.89 1659.52 1179.73 Q1655.48 1174.58 1655.48 1166.18 Q1655.48 1157.77 1659.52 1152.62 Q1663.6 1147.46 1670.06 1147.46 Q1674 1147.46 1676.81 1149.02 Q1679.64 1150.55 1681.48 1153.73 M1661.53 1166.18 Q1661.53 1172.64 1664.17 1176.33 Q1666.84 1179.99 1671.49 1179.99 Q1676.14 1179.99 1678.81 1176.33 Q1681.48 1172.64 1681.48 1166.18 Q1681.48 1159.71 1678.81 1156.05 Q1676.14 1152.36 1671.49 1152.36 Q1666.84 1152.36 1664.17 1156.05 Q1661.53 1159.71 1661.53 1166.18 Z" fill="#000000" fill-rule="nonzero" fill-opacity="1" /><polyline clip-path="url(#clip362)" style="stroke:#000000; stroke-linecap:round; stroke-linejoin:round; stroke-width:2; stroke-opacity:0.1; fill:none" points="238.902,1013.95 2152.76,1013.95 "/>
<polyline clip-path="url(#clip362)" style="stroke:#000000; stroke-linecap:round; stroke-linejoin:round; stroke-width:2; stroke-opacity:0.1; fill:none" points="238.902,779.31 2152.76,779.31 "/>
<polyline clip-path="url(#clip362)" style="stroke:#000000; stroke-linecap:round; stroke-linejoin:round; stroke-width:2; stroke-opacity:0.1; fill:none" points="238.902,544.674 2152.76,544.674 "/>
<polyline clip-path="url(#clip362)" style="stroke:#000000; stroke-linecap:round; stroke-linejoin:round; stroke-width:2; stroke-opacity:0.1; fill:none" points="238.902,310.037 2152.76,310.037 "/>
<polyline clip-path="url(#clip362)" style="stroke:#000000; stroke-linecap:round; stroke-linejoin:round; stroke-width:2; stroke-opacity:0.1; fill:none" points="238.902,75.4005 2152.76,75.4005 "/>
<polyline clip-path="url(#clip360)" style="stroke:#000000; stroke-linecap:round; stroke-linejoin:round; stroke-width:4; stroke-opacity:1; fill:none" points="238.902,1042.1 238.902,47.2441 "/>
<polyline clip-path="url(#clip360)" style="stroke:#000000; stroke-linecap:round; stroke-linejoin:round; stroke-width:4; stroke-opacity:1; fill:none" points="238.902,1013.95 257.8,1013.95 "/>
<polyline clip-path="url(#clip360)" style="stroke:#000000; stroke-linecap:round; stroke-linejoin:round; stroke-width:4; stroke-opacity:1; fill:none" points="238.902,779.31 257.8,779.31 "/>
<polyline clip-path="url(#clip360)" style="stroke:#000000; stroke-linecap:round; stroke-linejoin:round; stroke-width:4; stroke-opacity:1; fill:none" points="238.902,544.674 257.8,544.674 "/>
<polyline clip-path="url(#clip360)" style="stroke:#000000; stroke-linecap:round; stroke-linejoin:round; stroke-width:4; stroke-opacity:1; fill:none" points="238.902,310.037 257.8,310.037 "/>
<polyline clip-path="url(#clip360)" style="stroke:#000000; stroke-linecap:round; stroke-linejoin:round; stroke-width:4; stroke-opacity:1; fill:none" points="238.902,75.4005 257.8,75.4005 "/>
<path clip-path="url(#clip360)" d="M118.565 999.746 Q114.953 999.746 113.125 1003.31 Q111.319 1006.85 111.319 1013.98 Q111.319 1021.09 113.125 1024.65 Q114.953 1028.19 118.565 1028.19 Q122.199 1028.19 124.004 1024.65 Q125.833 1021.09 125.833 1013.98 Q125.833 1006.85 124.004 1003.31 Q122.199 999.746 118.565 999.746 M118.565 996.042 Q124.375 996.042 127.43 1000.65 Q130.509 1005.23 130.509 1013.98 Q130.509 1022.71 127.43 1027.32 Q124.375 1031.9 118.565 1031.9 Q112.754 1031.9 109.676 1027.32 Q106.62 1022.71 106.62 1013.98 Q106.62 1005.23 109.676 1000.65 Q112.754 996.042 118.565 996.042 Z" fill="#000000" fill-rule="nonzero" fill-opacity="1" /><path clip-path="url(#clip360)" d="M138.726 1025.35 L143.611 1025.35 L143.611 1031.23 L138.726 1031.23 L138.726 1025.35 Z" fill="#000000" fill-rule="nonzero" fill-opacity="1" /><path clip-path="url(#clip360)" d="M163.796 999.746 Q160.185 999.746 158.356 1003.31 Q156.55 1006.85 156.55 1013.98 Q156.55 1021.09 158.356 1024.65 Q160.185 1028.19 163.796 1028.19 Q167.43 1028.19 169.236 1024.65 Q171.064 1021.09 171.064 1013.98 Q171.064 1006.85 169.236 1003.31 Q167.43 999.746 163.796 999.746 M163.796 996.042 Q169.606 996.042 172.661 1000.65 Q175.74 1005.23 175.74 1013.98 Q175.74 1022.71 172.661 1027.32 Q169.606 1031.9 163.796 1031.9 Q157.986 1031.9 154.907 1027.32 Q151.851 1022.71 151.851 1013.98 Q151.851 1005.23 154.907 1000.65 Q157.986 996.042 163.796 996.042 Z" fill="#000000" fill-rule="nonzero" fill-opacity="1" /><path clip-path="url(#clip360)" d="M193.958 999.746 Q190.347 999.746 188.518 1003.31 Q186.712 1006.85 186.712 1013.98 Q186.712 1021.09 188.518 1024.65 Q190.347 1028.19 193.958 1028.19 Q197.592 1028.19 199.397 1024.65 Q201.226 1021.09 201.226 1013.98 Q201.226 1006.85 199.397 1003.31 Q197.592 999.746 193.958 999.746 M193.958 996.042 Q199.768 996.042 202.823 1000.65 Q205.902 1005.23 205.902 1013.98 Q205.902 1022.71 202.823 1027.32 Q199.768 1031.9 193.958 1031.9 Q188.147 1031.9 185.069 1027.32 Q182.013 1022.71 182.013 1013.98 Q182.013 1005.23 185.069 1000.65 Q188.147 996.042 193.958 996.042 Z" fill="#000000" fill-rule="nonzero" fill-opacity="1" /><path clip-path="url(#clip360)" d="M119.56 765.109 Q115.949 765.109 114.12 768.674 Q112.315 772.216 112.315 779.345 Q112.315 786.452 114.12 790.016 Q115.949 793.558 119.56 793.558 Q123.194 793.558 125 790.016 Q126.828 786.452 126.828 779.345 Q126.828 772.216 125 768.674 Q123.194 765.109 119.56 765.109 M119.56 761.405 Q125.37 761.405 128.426 766.012 Q131.504 770.595 131.504 779.345 Q131.504 788.072 128.426 792.678 Q125.37 797.262 119.56 797.262 Q113.75 797.262 110.671 792.678 Q107.616 788.072 107.616 779.345 Q107.616 770.595 110.671 766.012 Q113.75 761.405 119.56 761.405 Z" fill="#000000" fill-rule="nonzero" fill-opacity="1" /><path clip-path="url(#clip360)" d="M139.722 790.711 L144.606 790.711 L144.606 796.59 L139.722 796.59 L139.722 790.711 Z" fill="#000000" fill-rule="nonzero" fill-opacity="1" /><path clip-path="url(#clip360)" d="M158.819 792.655 L175.138 792.655 L175.138 796.59 L153.194 796.59 L153.194 792.655 Q155.856 789.901 160.439 785.271 Q165.046 780.618 166.226 779.276 Q168.472 776.753 169.351 775.016 Q170.254 773.257 170.254 771.567 Q170.254 768.813 168.31 767.077 Q166.388 765.341 163.287 765.341 Q161.087 765.341 158.634 766.104 Q156.203 766.868 153.425 768.419 L153.425 763.697 Q156.25 762.563 158.703 761.984 Q161.157 761.405 163.194 761.405 Q168.564 761.405 171.759 764.091 Q174.953 766.776 174.953 771.266 Q174.953 773.396 174.143 775.317 Q173.356 777.216 171.249 779.808 Q170.671 780.479 167.569 783.697 Q164.467 786.891 158.819 792.655 Z" fill="#000000" fill-rule="nonzero" fill-opacity="1" /><path clip-path="url(#clip360)" d="M184.999 762.03 L203.356 762.03 L203.356 765.966 L189.282 765.966 L189.282 774.438 Q190.3 774.091 191.319 773.929 Q192.337 773.743 193.356 773.743 Q199.143 773.743 202.522 776.915 Q205.902 780.086 205.902 785.503 Q205.902 791.081 202.43 794.183 Q198.958 797.262 192.638 797.262 Q190.462 797.262 188.194 796.891 Q185.948 796.521 183.541 795.78 L183.541 791.081 Q185.624 792.215 187.847 792.771 Q190.069 793.327 192.546 793.327 Q196.55 793.327 198.888 791.22 Q201.226 789.114 201.226 785.503 Q201.226 781.891 198.888 779.785 Q196.55 777.678 192.546 777.678 Q190.671 777.678 188.796 778.095 Q186.944 778.512 184.999 779.391 L184.999 762.03 Z" fill="#000000" fill-rule="nonzero" fill-opacity="1" /><path clip-path="url(#clip360)" d="M118.565 530.472 Q114.953 530.472 113.125 534.037 Q111.319 537.579 111.319 544.709 Q111.319 551.815 113.125 555.38 Q114.953 558.921 118.565 558.921 Q122.199 558.921 124.004 555.38 Q125.833 551.815 125.833 544.709 Q125.833 537.579 124.004 534.037 Q122.199 530.472 118.565 530.472 M118.565 526.769 Q124.375 526.769 127.43 531.375 Q130.509 535.959 130.509 544.709 Q130.509 553.435 127.43 558.042 Q124.375 562.625 118.565 562.625 Q112.754 562.625 109.676 558.042 Q106.62 553.435 106.62 544.709 Q106.62 535.959 109.676 531.375 Q112.754 526.769 118.565 526.769 Z" fill="#000000" fill-rule="nonzero" fill-opacity="1" /><path clip-path="url(#clip360)" d="M138.726 556.074 L143.611 556.074 L143.611 561.954 L138.726 561.954 L138.726 556.074 Z" fill="#000000" fill-rule="nonzero" fill-opacity="1" /><path clip-path="url(#clip360)" d="M153.842 527.394 L172.199 527.394 L172.199 531.329 L158.125 531.329 L158.125 539.801 Q159.143 539.454 160.162 539.292 Q161.18 539.107 162.199 539.107 Q167.986 539.107 171.365 542.278 Q174.745 545.449 174.745 550.866 Q174.745 556.445 171.273 559.546 Q167.8 562.625 161.481 562.625 Q159.305 562.625 157.037 562.255 Q154.791 561.884 152.384 561.144 L152.384 556.445 Q154.467 557.579 156.689 558.134 Q158.912 558.69 161.388 558.69 Q165.393 558.69 167.731 556.583 Q170.069 554.477 170.069 550.866 Q170.069 547.255 167.731 545.148 Q165.393 543.042 161.388 543.042 Q159.513 543.042 157.638 543.459 Q155.787 543.875 153.842 544.755 L153.842 527.394 Z" fill="#000000" fill-rule="nonzero" fill-opacity="1" /><path clip-path="url(#clip360)" d="M193.958 530.472 Q190.347 530.472 188.518 534.037 Q186.712 537.579 186.712 544.709 Q186.712 551.815 188.518 555.38 Q190.347 558.921 193.958 558.921 Q197.592 558.921 199.397 555.38 Q201.226 551.815 201.226 544.709 Q201.226 537.579 199.397 534.037 Q197.592 530.472 193.958 530.472 M193.958 526.769 Q199.768 526.769 202.823 531.375 Q205.902 535.959 205.902 544.709 Q205.902 553.435 202.823 558.042 Q199.768 562.625 193.958 562.625 Q188.147 562.625 185.069 558.042 Q182.013 553.435 182.013 544.709 Q182.013 535.959 185.069 531.375 Q188.147 526.769 193.958 526.769 Z" fill="#000000" fill-rule="nonzero" fill-opacity="1" /><path clip-path="url(#clip360)" d="M119.56 295.836 Q115.949 295.836 114.12 299.401 Q112.315 302.942 112.315 310.072 Q112.315 317.178 114.12 320.743 Q115.949 324.285 119.56 324.285 Q123.194 324.285 125 320.743 Q126.828 317.178 126.828 310.072 Q126.828 302.942 125 299.401 Q123.194 295.836 119.56 295.836 M119.56 292.132 Q125.37 292.132 128.426 296.739 Q131.504 301.322 131.504 310.072 Q131.504 318.799 128.426 323.405 Q125.37 327.988 119.56 327.988 Q113.75 327.988 110.671 323.405 Q107.616 318.799 107.616 310.072 Q107.616 301.322 110.671 296.739 Q113.75 292.132 119.56 292.132 Z" fill="#000000" fill-rule="nonzero" fill-opacity="1" /><path clip-path="url(#clip360)" d="M139.722 321.438 L144.606 321.438 L144.606 327.317 L139.722 327.317 L139.722 321.438 Z" fill="#000000" fill-rule="nonzero" fill-opacity="1" /><path clip-path="url(#clip360)" d="M153.611 292.757 L175.833 292.757 L175.833 294.748 L163.287 327.317 L158.402 327.317 L170.208 296.692 L153.611 296.692 L153.611 292.757 Z" fill="#000000" fill-rule="nonzero" fill-opacity="1" /><path clip-path="url(#clip360)" d="M184.999 292.757 L203.356 292.757 L203.356 296.692 L189.282 296.692 L189.282 305.164 Q190.3 304.817 191.319 304.655 Q192.337 304.47 193.356 304.47 Q199.143 304.47 202.522 307.641 Q205.902 310.813 205.902 316.229 Q205.902 321.808 202.43 324.91 Q198.958 327.988 192.638 327.988 Q190.462 327.988 188.194 327.618 Q185.948 327.248 183.541 326.507 L183.541 321.808 Q185.624 322.942 187.847 323.498 Q190.069 324.053 192.546 324.053 Q196.55 324.053 198.888 321.947 Q201.226 319.84 201.226 316.229 Q201.226 312.618 198.888 310.512 Q196.55 308.405 192.546 308.405 Q190.671 308.405 188.796 308.822 Q186.944 309.239 184.999 310.118 L184.999 292.757 Z" fill="#000000" fill-rule="nonzero" fill-opacity="1" /><path clip-path="url(#clip360)" d="M109.375 88.7453 L117.014 88.7453 L117.014 62.3797 L108.703 64.0464 L108.703 59.7871 L116.967 58.1205 L121.643 58.1205 L121.643 88.7453 L129.282 88.7453 L129.282 92.6805 L109.375 92.6805 L109.375 88.7453 Z" fill="#000000" fill-rule="nonzero" fill-opacity="1" /><path clip-path="url(#clip360)" d="M138.726 86.8009 L143.611 86.8009 L143.611 92.6805 L138.726 92.6805 L138.726 86.8009 Z" fill="#000000" fill-rule="nonzero" fill-opacity="1" /><path clip-path="url(#clip360)" d="M163.796 61.1992 Q160.185 61.1992 158.356 64.764 Q156.55 68.3056 156.55 75.4352 Q156.55 82.5417 158.356 86.1065 Q160.185 89.6481 163.796 89.6481 Q167.43 89.6481 169.236 86.1065 Q171.064 82.5417 171.064 75.4352 Q171.064 68.3056 169.236 64.764 Q167.43 61.1992 163.796 61.1992 M163.796 57.4955 Q169.606 57.4955 172.661 62.102 Q175.74 66.6853 175.74 75.4352 Q175.74 84.162 172.661 88.7685 Q169.606 93.3518 163.796 93.3518 Q157.986 93.3518 154.907 88.7685 Q151.851 84.162 151.851 75.4352 Q151.851 66.6853 154.907 62.102 Q157.986 57.4955 163.796 57.4955 Z" fill="#000000" fill-rule="nonzero" fill-opacity="1" /><path clip-path="url(#clip360)" d="M193.958 61.1992 Q190.347 61.1992 188.518 64.764 Q186.712 68.3056 186.712 75.4352 Q186.712 82.5417 188.518 86.1065 Q190.347 89.6481 193.958 89.6481 Q197.592 89.6481 199.397 86.1065 Q201.226 82.5417 201.226 75.4352 Q201.226 68.3056 199.397 64.764 Q197.592 61.1992 193.958 61.1992 M193.958 57.4955 Q199.768 57.4955 202.823 62.102 Q205.902 66.6853 205.902 75.4352 Q205.902 84.162 202.823 88.7685 Q199.768 93.3518 193.958 93.3518 Q188.147 93.3518 185.069 88.7685 Q182.013 84.162 182.013 75.4352 Q182.013 66.6853 185.069 62.102 Q188.147 57.4955 193.958 57.4955 Z" fill="#000000" fill-rule="nonzero" fill-opacity="1" /><path clip-path="url(#clip360)" d="M11.8442 601.583 L11.8442 574.274 L17.255 574.274 L17.255 595.154 L31.2596 595.154 L31.2596 576.311 L36.6704 576.311 L36.6704 595.154 L59.3642 595.154 L59.3642 601.583 L11.8442 601.583 Z" fill="#000000" fill-rule="nonzero" fill-opacity="1" /><path clip-path="url(#clip360)" d="M17.1277 557.66 L34.9835 557.66 L34.9835 549.575 Q34.9835 545.088 32.66 542.637 Q30.3365 540.186 26.0397 540.186 Q21.7747 540.186 19.4512 542.637 Q17.1277 545.088 17.1277 549.575 L17.1277 557.66 M11.8442 564.089 L11.8442 549.575 Q11.8442 541.586 15.4726 537.512 Q19.0692 533.406 26.0397 533.406 Q33.0738 533.406 36.6704 537.512 Q40.267 541.586 40.267 549.575 L40.267 557.66 L59.3642 557.66 L59.3642 564.089 L11.8442 564.089 Z" fill="#000000" fill-rule="nonzero" fill-opacity="1" /><path clip-path="url(#clip360)" d="M37.0842 502.246 Q37.7844 500.177 40.0761 498.236 Q42.3677 496.263 46.3781 494.289 L59.3642 487.764 L59.3642 494.671 L47.1738 500.75 Q42.3995 503.106 40.84 505.334 Q39.2804 507.53 39.2804 511.349 L39.2804 518.352 L59.3642 518.352 L59.3642 524.781 L11.8442 524.781 L11.8442 510.267 Q11.8442 502.119 15.2498 498.109 Q18.6555 494.098 25.5304 494.098 Q30.0182 494.098 32.9783 496.199 Q35.9384 498.268 37.0842 502.246 M17.1277 518.352 L33.9968 518.352 L33.9968 510.267 Q33.9968 505.62 31.8643 503.265 Q29.7 500.878 25.5304 500.878 Q21.3609 500.878 19.2602 503.265 Q17.1277 505.62 17.1277 510.267 L17.1277 518.352 Z" fill="#000000" fill-rule="nonzero" fill-opacity="1" /><polyline clip-path="url(#clip362)" style="stroke:#000000; stroke-linecap:round; stroke-linejoin:round; stroke-width:8; stroke-opacity:1; fill:none" points="293.068,77.3712 294.873,80.4998 296.679,82.941 298.484,85.0838 300.29,87.0193 302.095,88.837 303.901,90.5795 305.706,92.342 307.512,93.9961 309.317,95.6864 311.123,97.2968 312.928,98.9072 314.734,100.525 316.539,102.075 318.345,103.684 320.151,105.058 321.956,106.399 323.762,107.796 325.567,109.198 327.373,110.561 329.178,111.894 330.984,113.159 332.789,114.399 334.595,115.659 336.4,116.906 338.206,118.125 340.011,119.285 341.817,120.503 343.622,121.674 345.428,122.8 347.233,123.94 349.039,125.073 350.844,126.213 352.65,127.304 354.455,128.363 356.261,129.465 358.067,130.574 359.872,131.69 361.678,132.749 363.483,133.792 365.289,134.875 367.094,135.918 368.9,136.911 370.705,137.932 372.511,138.917 374.316,139.869 376.122,140.831 377.927,141.781 379.733,142.724 381.538,143.673 383.344,144.559 385.149,145.434 386.955,146.361 388.76,147.221 390.566,148.086 392.371,148.975 394.177,149.852 395.982,150.732 397.788,151.538 399.594,152.366 401.399,153.227 403.205,154.074 405.01,154.942 406.816,155.743 408.621,156.56 410.427,157.376 412.232,158.174 414.038,159.01 415.843,159.828 417.649,160.67 419.454,161.44 421.26,162.262 423.065,163.073 424.871,163.877 426.676,164.66 428.482,165.428 430.287,166.154 432.093,166.944 433.898,167.651 435.704,168.443 437.51,169.25 439.315,170.023 441.121,170.746 442.926,171.454 444.732,172.163 446.537,172.867 448.343,173.595 450.148,174.282 451.954,174.987 453.759,175.737 455.565,176.425 457.37,177.125 459.176,177.855 460.981,178.514 462.787,179.248 464.592,179.966 466.398,180.69 468.203,181.403 470.009,182.146 471.814,182.879 473.62,183.575 475.425,184.257 477.231,184.91 479.037,185.648 480.842,186.332 482.648,187.005 484.453,187.736 486.259,188.453 488.064,189.175 489.87,189.869 491.675,190.58 493.481,191.276 495.286,191.995 497.092,192.657 498.897,193.352 500.703,194.059 502.508,194.759 504.314,195.475 506.119,196.182 507.925,196.871 509.73,197.616 511.536,198.313 513.341,199.021 515.147,199.712 516.953,200.393 518.758,201.038 520.564,201.676 522.369,202.346 524.175,203.021 525.98,203.684 527.786,204.355 529.591,205.034 531.397,205.744 533.202,206.432 535.008,207.088 536.813,207.731 538.619,208.391 540.424,209.098 542.23,209.694 544.035,210.351 545.841,211 547.646,211.659 549.452,212.323 551.257,212.99 553.063,213.63 554.868,214.283 556.674,214.962 558.48,215.657 560.285,216.393 562.091,217.002 563.896,217.649 565.702,218.27 567.507,218.916 569.313,219.573 571.118,220.25 572.924,220.873 574.729,221.563 576.535,222.242 578.34,222.914 580.146,223.611 581.951,224.274 583.757,224.946 585.562,225.615 587.368,226.315 589.173,226.948 590.979,227.627 592.784,228.259 594.59,228.944 596.396,229.6 598.201,230.253 600.007,230.943 601.812,231.577 603.618,232.244 605.423,232.924 607.229,233.588 609.034,234.278 610.84,234.964 612.645,235.607 614.451,236.324 616.256,236.991 618.062,237.675 619.867,238.396 621.673,239.098 623.478,239.824 625.284,240.498 627.089,241.161 628.895,241.812 630.7,242.484 632.506,243.16 634.311,243.853 636.117,244.491 637.923,245.177 639.728,245.858 641.534,246.511 643.339,247.218 645.145,247.937 646.95,248.638 648.756,249.33 650.561,250.008 652.367,250.685 654.172,251.365 655.978,252.128 657.783,252.845 659.589,253.554 661.394,254.255 663.2,254.918 665.005,255.638 666.811,256.324 668.616,256.986 670.422,257.685 672.227,258.346 674.033,259.074 675.838,259.768 677.644,260.466 679.45,261.217 681.255,261.939 683.061,262.676 684.866,263.414 686.672,264.108 688.477,264.832 690.283,265.541 692.088,266.246 693.894,266.991 695.699,267.696 697.505,268.4 699.31,269.145 701.116,269.876 702.921,270.64 704.727,271.373 706.532,272.087 708.338,272.824 710.143,273.576 711.949,274.298 713.754,275.022 715.56,275.733 717.365,276.472 719.171,277.211 720.977,277.926 722.782,278.673 724.588,279.388 726.393,280.099 728.199,280.808 730.004,281.559 731.81,282.244 733.615,283.034 735.421,283.738 737.226,284.482 739.032,285.245 740.837,286.001 742.643,286.727 744.448,287.464 746.254,288.247 748.059,289.013 749.865,289.818 751.67,290.53 753.476,291.289 755.281,292.081 757.087,292.809 758.893,293.566 760.698,294.312 762.504,295.064 764.309,295.796 766.115,296.544 767.92,297.303 769.726,298.068 771.531,298.804 773.337,299.557 775.142,300.259 776.948,301.001 778.753,301.745 780.559,302.484 782.364,303.228 784.17,304.026 785.975,304.822 787.781,305.598 789.586,306.375 791.392,307.12 793.197,307.94 795.003,308.76 796.808,309.516 798.614,310.33 800.42,311.127 802.225,311.953 804.031,312.767 805.836,313.531 807.642,314.297 809.447,315.124 811.253,315.953 813.058,316.717 814.864,317.518 816.669,318.317 818.475,319.094 820.28,319.9 822.086,320.726 823.891,321.525 825.697,322.366 827.502,323.187 829.308,324.002 831.113,324.762 832.919,325.539 834.724,326.391 836.53,327.23 838.336,328.032 840.141,328.852 841.947,329.683 843.752,330.507 845.558,331.344 847.363,332.239 849.169,333.095 850.974,333.907 852.78,334.784 854.585,335.61 856.391,336.482 858.196,337.348 860.002,338.183 861.807,339.056 863.613,339.977 865.418,340.829 867.224,341.655 869.029,342.561 870.835,343.42 872.64,344.28 874.446,345.133 876.251,346.035 878.057,346.939 879.863,347.869 881.668,348.74 883.474,349.615 885.279,350.465 887.085,351.356 888.89,352.187 890.696,353.088 892.501,353.987 894.307,354.874 896.112,355.755 897.918,356.67 899.723,357.541 901.529,358.479 903.334,359.433 905.14,360.292 906.945,361.207 908.751,362.128 910.556,363.063 912.362,364.016 914.167,364.905 915.973,365.844 917.778,366.749 919.584,367.68 921.39,368.593 923.195,369.516 925.001,370.461 926.806,371.448 928.612,372.362 930.417,373.338 932.223,374.303 934.028,375.246 935.834,376.219 937.639,377.166 939.445,378.107 941.25,379.074 943.056,380.046 944.861,380.998 946.667,382.009 948.472,382.999 950.278,384.037 952.083,385.028 953.889,386.035 955.694,387.004 957.5,387.958 959.306,388.963 961.111,389.973 962.917,391.019 964.722,392.056 966.528,393.073 968.333,394.073 970.139,395.131 971.944,396.155 973.75,397.18 975.555,398.231 977.361,399.297 979.166,400.347 980.972,401.445 982.777,402.565 984.583,403.634 986.388,404.738 988.194,405.839 989.999,406.916 991.805,408.038 993.61,409.131 995.416,410.184 997.221,411.388 999.027,412.445 1000.83,413.527 1002.64,414.656 1004.44,415.867 1006.25,417.009 1008.05,418.147 1009.86,419.319 1011.67,420.479 1013.47,421.67 1015.28,422.853 1017.08,424.053 1018.89,425.268 1020.69,426.435 1022.5,427.613 1024.3,428.814 1026.11,429.987 1027.92,431.276 1029.72,432.54 1031.53,433.789 1033.33,435.045 1035.14,436.303 1036.94,437.56 1038.75,438.841 1040.55,440.14 1042.36,441.447 1044.17,442.781 1045.97,444.167 1047.78,445.597 1049.58,446.98 1051.39,448.269 1053.19,449.612 1055,451.021 1056.8,452.402 1058.61,453.797 1060.41,455.31 1062.22,456.759 1064.03,458.213 1065.83,459.692 1067.64,461.205 1069.44,462.819 1071.25,464.396 1073.05,466.032 1074.86,467.605 1076.66,469.275 1078.47,471.038 1080.28,472.675 1082.08,474.385 1083.89,476.167 1085.69,477.997 1087.5,479.812 1089.3,481.673 1091.11,483.653 1092.91,485.629 1094.72,487.739 1096.53,489.773 1098.33,491.939 1100.14,494.275 1101.94,496.634 1103.75,499.075 1105.55,501.594 1107.36,504.177 1109.16,506.833 1110.97,509.571 1112.77,512.274 1114.58,514.997 1116.39,517.744 1118.19,520.522 1120,523.262 1121.8,526.024 1123.61,528.672 1125.41,531.316 1127.22,533.969 1129.02,536.654 1130.83,539.212 1132.64,541.815 1134.44,544.3 1136.25,546.77 1138.05,549.119 1139.86,551.589 1141.66,554.012 1143.47,556.356 1145.27,558.714 1147.08,561.039 1148.89,563.355 1150.69,565.62 1152.5,567.851 1154.3,570.164 1156.11,572.416 1157.91,574.813 1159.72,577.055 1161.52,579.33 1163.33,581.566 1165.14,583.747 1166.94,586.05 1168.75,588.25 1170.55,590.412 1172.36,592.576 1174.16,594.798 1175.97,597.023 1177.77,599.172 1179.58,601.356 1181.38,603.439 1183.19,605.627 1185,607.673 1186.8,609.803 1188.61,611.945 1190.41,614.091 1192.22,616.14 1194.02,618.186 1195.83,620.255 1197.63,622.341 1199.44,624.383 1201.25,626.481 1203.05,628.458 1204.86,630.538 1206.66,632.614 1208.47,634.697 1210.27,636.692 1212.08,638.745 1213.88,640.776 1215.69,642.718 1217.5,644.648 1219.3,646.565 1221.11,648.434 1222.91,650.278 1224.72,652.15 1226.52,653.961 1228.33,655.609 1230.13,657.348 1231.94,659.023 1233.74,660.728 1235.55,662.386 1237.36,664.042 1239.16,665.605 1240.97,667.221 1242.77,668.779 1244.58,670.25 1246.38,671.765 1248.19,673.308 1249.99,674.841 1251.8,676.391 1253.61,677.839 1255.41,679.33 1257.22,680.829 1259.02,682.333 1260.83,683.814 1262.63,685.312 1264.44,686.815 1266.24,688.293 1268.05,689.826 1269.86,691.321 1271.66,692.758 1273.47,694.254 1275.27,695.729 1277.08,697.221 1278.88,698.669 1280.69,700.147 1282.49,701.601 1284.3,703.057 1286.11,704.569 1287.91,706.062 1289.72,707.609 1291.52,709.087 1293.33,710.554 1295.13,712.015 1296.94,713.498 1298.74,714.992 1300.55,716.454 1302.35,717.905 1304.16,719.342 1305.97,720.723 1307.77,722.154 1309.58,723.547 1311.38,724.919 1313.19,726.258 1314.99,727.656 1316.8,729.028 1318.6,730.401 1320.41,731.775 1322.22,733.025 1324.02,734.326 1325.83,735.564 1327.63,736.855 1329.44,738.116 1331.24,739.383 1333.05,740.634 1334.85,741.849 1336.66,743.038 1338.47,744.249 1340.27,745.447 1342.08,746.647 1343.88,747.813 1345.69,749.014 1347.49,750.179 1349.3,751.277 1351.1,752.456 1352.91,753.56 1354.71,754.7 1356.52,755.793 1358.33,756.893 1360.13,757.997 1361.94,759.087 1363.74,760.17 1365.55,761.274 1367.35,762.349 1369.16,763.454 1370.96,764.583 1372.77,765.684 1374.58,766.79 1376.38,767.939 1378.19,769.039 1379.99,770.166 1381.8,771.279 1383.6,772.393 1385.41,773.523 1387.21,774.596 1389.02,775.686 1390.83,776.797 1392.63,777.885 1394.44,778.991 1396.24,780.1 1398.05,781.161 1399.85,782.31 1401.66,783.423 1403.46,784.512 1405.27,785.629 1407.08,786.738 1408.88,787.867 1410.69,788.957 1412.49,790.048 1414.3,791.071 1416.1,792.179 1417.91,793.33 1419.71,794.453 1421.52,795.525 1423.32,796.584 1425.13,797.619 1426.94,798.748 1428.74,799.873 1430.55,800.9 1432.35,802.054 1434.16,803.121 1435.96,804.248 1437.77,805.379 1439.57,806.454 1441.38,807.535 1443.19,808.579 1444.99,809.659 1446.8,810.762 1448.6,811.787 1450.41,812.85 1452.21,813.9 1454.02,814.978 1455.82,815.987 1457.63,816.985 1459.44,818.077 1461.24,819.128 1463.05,820.19 1464.85,821.222 1466.66,822.266 1468.46,823.247 1470.27,824.159 1472.07,825.073 1473.88,826.03 1475.68,827.039 1477.49,827.965 1479.3,828.905 1481.1,829.848 1482.91,830.772 1484.71,831.717 1486.52,832.649 1488.32,833.596 1490.13,834.545 1491.93,835.509 1493.74,836.45 1495.55,837.366 1497.35,838.299 1499.16,839.234 1500.96,840.099 1502.77,840.989 1504.57,841.906 1506.38,842.789 1508.18,843.674 1509.99,844.528 1511.8,845.448 1513.6,846.298 1515.41,847.162 1517.21,848.042 1519.02,848.871 1520.82,849.757 1522.63,850.629 1524.43,851.457 1526.24,852.299 1528.05,853.183 1529.85,854.004 1531.66,854.8 1533.46,855.644 1535.27,856.445 1537.07,857.333 1538.88,858.121 1540.68,858.93 1542.49,859.722 1544.29,860.487 1546.1,861.31 1547.91,862.123 1549.71,862.937 1551.52,863.789 1553.32,864.6 1555.13,865.341 1556.93,866.134 1558.74,866.883 1560.54,867.588 1562.35,868.444 1564.16,869.209 1565.96,869.981 1567.77,870.75 1569.57,871.526 1571.38,872.255 1573.18,873.04 1574.99,873.824 1576.79,874.585 1578.6,875.372 1580.41,876.106 1582.21,876.875 1584.02,877.656 1585.82,878.452 1587.63,879.179 1589.43,879.889 1591.24,880.675 1593.04,881.426 1594.85,882.207 1596.65,882.987 1598.46,883.762 1600.27,884.505 1602.07,885.259 1603.88,886.037 1605.68,886.787 1607.49,887.554 1609.29,888.317 1611.1,889.117 1612.9,889.866 1614.71,890.606 1616.52,891.354 1618.32,892.129 1620.13,892.914 1621.93,893.684 1623.74,894.383 1625.54,895.126 1627.35,895.901 1629.15,896.618 1630.96,897.362 1632.77,898.097 1634.57,898.873 1636.38,899.589 1638.18,900.279 1639.99,901.05 1641.79,901.76 1643.6,902.469 1645.4,903.188 1647.21,903.923 1649.02,904.635 1650.82,905.335 1652.63,906.023 1654.43,906.703 1656.24,907.41 1658.04,908.132 1659.85,908.803 1661.65,909.487 1663.46,910.183 1665.26,910.858 1667.07,911.526 1668.88,912.174 1670.68,912.888 1672.49,913.559 1674.29,914.229 1676.1,914.866 1677.9,915.522 1679.71,916.134 1681.51,916.784 1683.32,917.473 1685.13,918.174 1686.93,918.81 1688.74,919.471 1690.54,920.153 1692.35,920.802 1694.15,921.412 1695.96,922.034 1697.76,922.642 1699.57,923.299 1701.38,923.968 1703.18,924.653 1704.99,925.303 1706.79,925.988 1708.6,926.618 1710.4,927.249 1712.21,927.876 1714.01,928.517 1715.82,929.183 1717.62,929.848 1719.43,930.502 1721.24,931.182 1723.04,931.809 1724.85,932.458 1726.65,933.084 1728.46,933.7 1730.26,934.369 1732.07,935 1733.87,935.624 1735.68,936.193 1737.49,936.805 1739.29,937.381 1741.1,937.993 1742.9,938.583 1744.71,939.214 1746.51,939.843 1748.32,940.397 1750.12,940.998 1751.93,941.607 1753.74,942.239 1755.54,942.851 1757.35,943.446 1759.15,944.04 1760.96,944.617 1762.76,945.19 1764.57,945.768 1766.37,946.307 1768.18,946.876 1769.99,947.434 1771.79,947.963 1773.6,948.499 1775.4,949.059 1777.21,949.631 1779.01,950.182 1780.82,950.699 1782.62,951.266 1784.43,951.78 1786.23,952.307 1788.04,952.816 1789.85,953.358 1791.65,953.874 1793.46,954.442 1795.26,954.971 1797.07,955.48 1798.87,956.008 1800.68,956.524 1802.48,957.079 1804.29,957.6 1806.1,958.128 1807.9,958.666 1809.71,959.141 1811.51,959.614 1813.32,960.104 1815.12,960.567 1816.93,961.047 1818.73,961.533 1820.54,962.011 1822.35,962.53 1824.15,963.03 1825.96,963.556 1827.76,964.044 1829.57,964.511 1831.37,965.03 1833.18,965.529 1834.98,966.019 1836.79,966.498 1838.59,967.015 1840.4,967.513 1842.21,967.998 1844.01,968.505 1845.82,969.005 1847.62,969.472 1849.43,969.928 1851.23,970.383 1853.04,970.89 1854.84,971.338 1856.65,971.821 1858.46,972.316 1860.26,972.774 1862.07,973.251 1863.87,973.727 1865.68,974.189 1867.48,974.653 1869.29,975.113 1871.09,975.551 1872.9,976.007 1874.71,976.46 1876.51,976.896 1878.32,977.366 1880.12,977.802 1881.93,978.249 1883.73,978.664 1885.54,979.104 1887.34,979.532 1889.15,979.951 1890.96,980.395 1892.76,980.821 1894.57,981.196 1896.37,981.575 1898.18,982.012 1899.98,982.401 1901.79,982.854 1903.59,983.279 1905.4,983.707 1907.2,984.116 1909.01,984.523 1910.82,984.948 1912.62,985.343 1914.43,985.773 1916.23,986.162 1918.04,986.562 1919.84,986.983 1921.65,987.374 1923.45,987.778 1925.26,988.166 1927.07,988.564 1928.87,988.952 1930.68,989.362 1932.48,989.782 1934.29,990.161 1936.09,990.507 1937.9,990.891 1939.7,991.255 1941.51,991.628 1943.32,992.014 1945.12,992.384 1946.93,992.758 1948.73,993.119 1950.54,993.459 1952.34,993.832 1954.15,994.175 1955.95,994.543 1957.76,994.895 1959.56,995.245 1961.37,995.591 1963.18,995.922 1964.98,996.275 1966.79,996.596 1968.59,996.921 1970.4,997.235 1972.2,997.553 1974.01,997.894 1975.81,998.211 1977.62,998.514 1979.43,998.816 1981.23,999.113 1983.04,999.417 1984.84,999.723 1986.65,1000.07 1988.45,1000.35 1990.26,1000.63 1992.06,1000.91 1993.87,1001.17 1995.68,1001.49 1997.48,1001.79 1999.29,1002.09 2001.09,1002.38 2002.9,1002.67 2004.7,1002.98 2006.51,1003.28 2008.31,1003.57 2010.12,1003.86 2011.93,1004.15 2013.73,1004.46 2015.54,1004.74 2017.34,1005.01 2019.15,1005.29 2020.95,1005.57 2022.76,1005.84 2024.56,1006.1 2026.37,1006.36 2028.17,1006.59 2029.98,1006.84 2031.79,1007.05 2033.59,1007.32 2035.4,1007.57 2037.2,1007.8 2039.01,1008.03 2040.81,1008.25 2042.62,1008.48 2044.42,1008.71 2046.23,1008.93 2048.04,1009.15 2049.84,1009.41 2051.65,1009.65 2053.45,1009.88 2055.26,1010.1 2057.06,1010.31 2058.87,1010.49 2060.67,1010.69 2062.48,1010.89 2064.29,1011.08 2066.09,1011.27 2067.9,1011.48 2069.7,1011.65 2071.51,1011.82 2073.31,1012 2075.12,1012.18 2076.92,1012.35 2078.73,1012.53 2080.53,1012.7 2082.34,1012.86 2084.15,1013.01 2085.95,1013.19 2087.76,1013.31 2089.56,1013.44 2091.37,1013.57 2093.17,1013.67 2094.98,1013.77 2096.78,1013.87 2098.59,1013.95 "/>
<polyline clip-path="url(#clip362)" style="stroke:#808080; stroke-linecap:round; stroke-linejoin:round; stroke-width:4; stroke-opacity:1; fill:none" stroke-dasharray="16, 10" points="293.068,75.4005 304.823,81.5109 413.514,138.011 478.833,171.965 534.059,200.673 594.051,231.857 649.357,260.607 708.652,291.429 777.351,327.14 838.402,358.876 891.938,386.705 950.307,417.047 1009.02,447.568 1073.94,481.314 1135.71,513.422 1199.93,546.807 1254,574.91 1320,609.221 1380.47,640.652 1436.31,669.681 1492.88,699.086 1556.28,732.041 1613.72,761.903 1679.5,796.094 1740.4,827.751 1800.44,858.962 1858.73,889.265 1918.49,920.329 1983.97,954.363 2079.08,1003.8 2098.59,1013.95 "/>
<polyline clip-path="url(#clip362)" style="stroke:#808080; stroke-linecap:round; stroke-linejoin:round; stroke-width:8; stroke-opacity:1; fill:none" stroke-dasharray="32, 20" points="293.068,75.4005 304.823,81.5109 413.514,138.011 478.833,171.965 534.059,200.673 594.051,231.857 649.357,260.607 708.652,291.429 777.351,327.14 838.402,358.876 891.938,386.705 950.307,417.047 1009.02,447.568 1073.94,481.314 1135.71,513.422 1199.93,546.807 1254,574.91 1320,609.221 1380.47,640.652 1436.31,669.681 1492.88,699.086 1556.28,732.041 1613.72,761.903 1679.5,796.094 1740.4,827.751 1800.44,858.962 1858.73,889.265 1918.49,920.329 1983.97,954.363 2079.08,1003.8 2098.59,1013.95 "/>
<path clip-path="url(#clip360)" d="M1587.92 184.086 L2088.96 184.086 L2088.96 80.4061 L1587.92 80.4061  Z" fill="#ffffff" fill-rule="evenodd" fill-opacity="1"/>
<polyline clip-path="url(#clip360)" style="stroke:#000000; stroke-linecap:round; stroke-linejoin:round; stroke-width:4; stroke-opacity:1; fill:none" points="1587.92,184.086 2088.96,184.086 2088.96,80.4061 1587.92,80.4061 1587.92,184.086 "/>
<polyline clip-path="url(#clip360)" style="stroke:#000000; stroke-linecap:round; stroke-linejoin:round; stroke-width:8; stroke-opacity:1; fill:none" points="1609.19,132.246 1736.78,132.246 "/>
<path clip-path="url(#clip360)" d="M1758.04 114.966 L1777.91 114.966 L1777.91 118.901 L1762.72 118.901 L1762.72 129.086 L1776.42 129.086 L1776.42 133.022 L1762.72 133.022 L1762.72 149.526 L1758.04 149.526 L1758.04 114.966 Z" fill="#000000" fill-rule="nonzero" fill-opacity="1" /><path clip-path="url(#clip360)" d="M1792.56 136.494 Q1787.4 136.494 1785.41 137.674 Q1783.41 138.855 1783.41 141.702 Q1783.41 143.971 1784.9 145.313 Q1786.4 146.633 1788.97 146.633 Q1792.51 146.633 1794.64 144.133 Q1796.79 141.609 1796.79 137.443 L1796.79 136.494 L1792.56 136.494 M1801.05 134.734 L1801.05 149.526 L1796.79 149.526 L1796.79 145.591 Q1795.34 147.952 1793.16 149.086 Q1790.98 150.197 1787.84 150.197 Q1783.85 150.197 1781.49 147.975 Q1779.16 145.73 1779.16 141.98 Q1779.16 137.605 1782.07 135.383 Q1785.01 133.16 1790.82 133.16 L1796.79 133.16 L1796.79 132.744 Q1796.79 129.804 1794.85 128.207 Q1792.93 126.586 1789.43 126.586 Q1787.21 126.586 1785.1 127.119 Q1783 127.651 1781.05 128.716 L1781.05 124.781 Q1783.39 123.878 1785.59 123.438 Q1787.79 122.975 1789.87 122.975 Q1795.5 122.975 1798.28 125.892 Q1801.05 128.809 1801.05 134.734 Z" fill="#000000" fill-rule="nonzero" fill-opacity="1" /><path clip-path="url(#clip360)" d="M1809.83 113.508 L1814.09 113.508 L1814.09 149.526 L1809.83 149.526 L1809.83 113.508 Z" fill="#000000" fill-rule="nonzero" fill-opacity="1" /><path clip-path="url(#clip360)" d="M1839.53 124.364 L1839.53 128.392 Q1837.72 127.466 1835.78 127.003 Q1833.83 126.54 1831.75 126.54 Q1828.58 126.54 1826.98 127.512 Q1825.41 128.485 1825.41 130.429 Q1825.41 131.91 1826.54 132.767 Q1827.67 133.6 1831.1 134.364 L1832.56 134.688 Q1837.1 135.66 1838.99 137.443 Q1840.91 139.202 1840.91 142.373 Q1840.91 145.984 1838.04 148.091 Q1835.2 150.197 1830.2 150.197 Q1828.11 150.197 1825.85 149.781 Q1823.6 149.387 1821.1 148.577 L1821.1 144.179 Q1823.46 145.406 1825.75 146.031 Q1828.04 146.633 1830.29 146.633 Q1833.3 146.633 1834.92 145.614 Q1836.54 144.572 1836.54 142.697 Q1836.54 140.961 1835.36 140.035 Q1834.2 139.109 1830.24 138.253 L1828.76 137.906 Q1824.8 137.072 1823.04 135.359 Q1821.29 133.623 1821.29 130.614 Q1821.29 126.957 1823.88 124.966 Q1826.47 122.975 1831.24 122.975 Q1833.6 122.975 1835.68 123.323 Q1837.77 123.67 1839.53 124.364 Z" fill="#000000" fill-rule="nonzero" fill-opacity="1" /><path clip-path="url(#clip360)" d="M1869.87 135.498 L1869.87 137.582 L1850.29 137.582 Q1850.57 141.98 1852.93 144.295 Q1855.31 146.586 1859.55 146.586 Q1862 146.586 1864.29 145.984 Q1866.61 145.383 1868.88 144.179 L1868.88 148.207 Q1866.59 149.179 1864.18 149.688 Q1861.77 150.197 1859.29 150.197 Q1853.09 150.197 1849.46 146.586 Q1845.85 142.975 1845.85 136.818 Q1845.85 130.452 1849.27 126.725 Q1852.72 122.975 1858.55 122.975 Q1863.78 122.975 1866.82 126.355 Q1869.87 129.711 1869.87 135.498 M1865.61 134.248 Q1865.57 130.753 1863.65 128.67 Q1861.75 126.586 1858.6 126.586 Q1855.03 126.586 1852.88 128.6 Q1850.75 130.614 1850.43 134.272 L1865.61 134.248 Z" fill="#000000" fill-rule="nonzero" fill-opacity="1" /><path clip-path="url(#clip360)" d="M1896.79 118.809 L1896.79 131.795 L1902.67 131.795 Q1905.94 131.795 1907.72 130.105 Q1909.5 128.415 1909.5 125.29 Q1909.5 122.188 1907.72 120.498 Q1905.94 118.809 1902.67 118.809 L1896.79 118.809 M1892.12 114.966 L1902.67 114.966 Q1908.48 114.966 1911.45 117.605 Q1914.43 120.221 1914.43 125.29 Q1914.43 130.406 1911.45 133.022 Q1908.48 135.637 1902.67 135.637 L1896.79 135.637 L1896.79 149.526 L1892.12 149.526 L1892.12 114.966 Z" fill="#000000" fill-rule="nonzero" fill-opacity="1" /><path clip-path="url(#clip360)" d="M1928.88 126.586 Q1925.45 126.586 1923.46 129.272 Q1921.47 131.934 1921.47 136.586 Q1921.47 141.239 1923.44 143.924 Q1925.43 146.586 1928.88 146.586 Q1932.28 146.586 1934.27 143.901 Q1936.26 141.216 1936.26 136.586 Q1936.26 131.98 1934.27 129.295 Q1932.28 126.586 1928.88 126.586 M1928.88 122.975 Q1934.43 122.975 1937.6 126.586 Q1940.78 130.197 1940.78 136.586 Q1940.78 142.952 1937.6 146.586 Q1934.43 150.197 1928.88 150.197 Q1923.3 150.197 1920.13 146.586 Q1916.98 142.952 1916.98 136.586 Q1916.98 130.197 1920.13 126.586 Q1923.3 122.975 1928.88 122.975 Z" fill="#000000" fill-rule="nonzero" fill-opacity="1" /><path clip-path="url(#clip360)" d="M1964.36 124.364 L1964.36 128.392 Q1962.56 127.466 1960.61 127.003 Q1958.67 126.54 1956.59 126.54 Q1953.41 126.54 1951.82 127.512 Q1950.24 128.485 1950.24 130.429 Q1950.24 131.91 1951.38 132.767 Q1952.51 133.6 1955.94 134.364 L1957.4 134.688 Q1961.93 135.66 1963.83 137.443 Q1965.75 139.202 1965.75 142.373 Q1965.75 145.984 1962.88 148.091 Q1960.03 150.197 1955.03 150.197 Q1952.95 150.197 1950.68 149.781 Q1948.44 149.387 1945.94 148.577 L1945.94 144.179 Q1948.3 145.406 1950.59 146.031 Q1952.88 146.633 1955.13 146.633 Q1958.14 146.633 1959.76 145.614 Q1961.38 144.572 1961.38 142.697 Q1961.38 140.961 1960.2 140.035 Q1959.04 139.109 1955.08 138.253 L1953.6 137.906 Q1949.64 137.072 1947.88 135.359 Q1946.12 133.623 1946.12 130.614 Q1946.12 126.957 1948.71 124.966 Q1951.31 122.975 1956.08 122.975 Q1958.44 122.975 1960.52 123.323 Q1962.6 123.67 1964.36 124.364 Z" fill="#000000" fill-rule="nonzero" fill-opacity="1" /><path clip-path="url(#clip360)" d="M1972.53 123.6 L1976.79 123.6 L1976.79 149.526 L1972.53 149.526 L1972.53 123.6 M1972.53 113.508 L1976.79 113.508 L1976.79 118.901 L1972.53 118.901 L1972.53 113.508 Z" fill="#000000" fill-rule="nonzero" fill-opacity="1" /><path clip-path="url(#clip360)" d="M1989.92 116.239 L1989.92 123.6 L1998.69 123.6 L1998.69 126.91 L1989.92 126.91 L1989.92 140.984 Q1989.92 144.156 1990.77 145.059 Q1991.65 145.961 1994.32 145.961 L1998.69 145.961 L1998.69 149.526 L1994.32 149.526 Q1989.39 149.526 1987.51 147.697 Q1985.64 145.846 1985.64 140.984 L1985.64 126.91 L1982.51 126.91 L1982.51 123.6 L1985.64 123.6 L1985.64 116.239 L1989.92 116.239 Z" fill="#000000" fill-rule="nonzero" fill-opacity="1" /><path clip-path="url(#clip360)" d="M2004.29 123.6 L2008.55 123.6 L2008.55 149.526 L2004.29 149.526 L2004.29 123.6 M2004.29 113.508 L2008.55 113.508 L2008.55 118.901 L2004.29 118.901 L2004.29 113.508 Z" fill="#000000" fill-rule="nonzero" fill-opacity="1" /><path clip-path="url(#clip360)" d="M2014.41 123.6 L2018.92 123.6 L2027.02 145.359 L2035.13 123.6 L2039.64 123.6 L2029.92 149.526 L2024.13 149.526 L2014.41 123.6 Z" fill="#000000" fill-rule="nonzero" fill-opacity="1" /><path clip-path="url(#clip360)" d="M2067.7 135.498 L2067.7 137.582 L2048.11 137.582 Q2048.39 141.98 2050.75 144.295 Q2053.14 146.586 2057.37 146.586 Q2059.83 146.586 2062.12 145.984 Q2064.43 145.383 2066.7 144.179 L2066.7 148.207 Q2064.41 149.179 2062 149.688 Q2059.59 150.197 2057.12 150.197 Q2050.91 150.197 2047.28 146.586 Q2043.67 142.975 2043.67 136.818 Q2043.67 130.452 2047.09 126.725 Q2050.54 122.975 2056.38 122.975 Q2061.61 122.975 2064.64 126.355 Q2067.7 129.711 2067.7 135.498 M2063.44 134.248 Q2063.39 130.753 2061.47 128.67 Q2059.57 126.586 2056.42 126.586 Q2052.86 126.586 2050.71 128.6 Q2048.58 130.614 2048.25 134.272 L2063.44 134.248 Z" fill="#000000" fill-rule="nonzero" fill-opacity="1" /></svg>
