<?xml version="1.0" encoding="utf-8"?>
<svg xmlns="http://www.w3.org/2000/svg" xmlns:xlink="http://www.w3.org/1999/xlink" width="550" height="250" viewBox="0 0 2200 1000">
<defs>
  <clipPath id="clip480">
    <rect x="0" y="0" width="2200" height="1000"/>
  </clipPath>
</defs>
<path clip-path="url(#clip480)" d="M0 1000 L2200 1000 L2200 0 L0 0  Z" fill="#ffffff" fill-rule="evenodd" fill-opacity="1"/>
<defs>
  <clipPath id="clip481">
    <rect x="440" y="0" width="1541" height="1000"/>
  </clipPath>
</defs>
<path clip-path="url(#clip480)" d="M232.422 855.296 L2152.76 855.296 L2152.76 47.2441 L232.422 47.2441  Z" fill="#ffffff" fill-rule="evenodd" fill-opacity="1"/>
<defs>
  <clipPath id="clip482">
    <rect x="232" y="47" width="1921" height="809"/>
  </clipPath>
</defs>
<polyline clip-path="url(#clip482)" style="stroke:#000000; stroke-linecap:round; stroke-linejoin:round; stroke-width:2; stroke-opacity:0.1; fill:none" points="286.771,855.296 286.771,47.2441 "/>
<polyline clip-path="url(#clip482)" style="stroke:#000000; stroke-linecap:round; stroke-linejoin:round; stroke-width:2; stroke-opacity:0.1; fill:none" points="739.68,855.296 739.68,47.2441 "/>
<polyline clip-path="url(#clip482)" style="stroke:#000000; stroke-linecap:round; stroke-linejoin:round; stroke-width:2; stroke-opacity:0.1; fill:none" points="1192.59,855.296 1192.59,47.2441 "/>
<polyline clip-path="url(#clip482)" style="stroke:#000000; stroke-linecap:round; stroke-linejoin:round; stroke-width:2; stroke-opacity:0.1; fill:none" points="1645.5,855.296 1645.5,47.2441 "/>
<polyline clip-path="url(#clip482)" style="stroke:#000000; stroke-linecap:round; stroke-linejoin:round; stroke-width:2; stroke-opacity:0.1; fill:none" points="2098.41,855.296 2098.41,47.2441 "/>
<polyline clip-path="url(#clip480)" style="stroke:#000000; stroke-linecap:round; stroke-linejoin:round; stroke-width:4; stroke-opacity:1; fill:none" points="232.422,855.296 2152.76,855.296 "/>
<polyline clip-path="url(#clip480)" style="stroke:#000000; stroke-linecap:round; stroke-linejoin:round; stroke-width:4; stroke-opacity:1; fill:none" points="286.771,855.296 286.771,836.399 "/>
<polyline clip-path="url(#clip480)" style="stroke:#000000; stroke-linecap:round; stroke-linejoin:round; stroke-width:4; stroke-opacity:1; fill:none" points="739.68,855.296 739.68,836.399 "/>
<polyline clip-path="url(#clip480)" style="stroke:#000000; stroke-linecap:round; stroke-linejoin:round; stroke-width:4; stroke-opacity:1; fill:none" points="1192.59,855.296 1192.59,836.399 "/>
<polyline clip-path="url(#clip480)" style="stroke:#000000; stroke-linecap:round; stroke-linejoin:round; stroke-width:4; stroke-opacity:1; fill:none" points="1645.5,855.296 1645.5,836.399 "/>
<polyline clip-path="url(#clip480)" style="stroke:#000000; stroke-linecap:round; stroke-linejoin:round; stroke-width:4; stroke-opacity:1; fill:none" points="2098.41,855.296 2098.41,836.399 "/>
<path clip-path="url(#clip480)" d="M249.075 884.615 Q245.463 884.615 243.635 888.18 Q241.829 891.721 241.829 898.851 Q241.829 905.957 243.635 909.522 Q245.463 913.064 249.075 913.064 Q252.709 913.064 254.514 909.522 Q256.343 905.957 256.343 898.851 Q256.343 891.721 254.514 888.18 Q252.709 884.615 249.075 884.615 M249.075 880.911 Q254.885 880.911 257.94 885.518 Q261.019 890.101 261.019 898.851 Q261.019 907.578 257.94 912.184 Q254.885 916.767 249.075 916.767 Q243.264 916.767 240.186 912.184 Q237.13 907.578 237.13 898.851 Q237.13 890.101 240.186 885.518 Q243.264 880.911 249.075 880.911 Z" fill="#000000" fill-rule="nonzero" fill-opacity="1" /><path clip-path="url(#clip480)" d="M269.236 910.217 L274.121 910.217 L274.121 916.096 L269.236 916.096 L269.236 910.217 Z" fill="#000000" fill-rule="nonzero" fill-opacity="1" /><path clip-path="url(#clip480)" d="M294.306 884.615 Q290.695 884.615 288.866 888.18 Q287.06 891.721 287.06 898.851 Q287.06 905.957 288.866 909.522 Q290.695 913.064 294.306 913.064 Q297.94 913.064 299.746 909.522 Q301.574 905.957 301.574 898.851 Q301.574 891.721 299.746 888.18 Q297.94 884.615 294.306 884.615 M294.306 880.911 Q300.116 880.911 303.171 885.518 Q306.25 890.101 306.25 898.851 Q306.25 907.578 303.171 912.184 Q300.116 916.767 294.306 916.767 Q288.496 916.767 285.417 912.184 Q282.361 907.578 282.361 898.851 Q282.361 890.101 285.417 885.518 Q288.496 880.911 294.306 880.911 Z" fill="#000000" fill-rule="nonzero" fill-opacity="1" /><path clip-path="url(#clip480)" d="M324.468 884.615 Q320.857 884.615 319.028 888.18 Q317.222 891.721 317.222 898.851 Q317.222 905.957 319.028 909.522 Q320.857 913.064 324.468 913.064 Q328.102 913.064 329.907 909.522 Q331.736 905.957 331.736 898.851 Q331.736 891.721 329.907 888.18 Q328.102 884.615 324.468 884.615 M324.468 880.911 Q330.278 880.911 333.333 885.518 Q336.412 890.101 336.412 898.851 Q336.412 907.578 333.333 912.184 Q330.278 916.767 324.468 916.767 Q318.658 916.767 315.579 912.184 Q312.523 907.578 312.523 898.851 Q312.523 890.101 315.579 885.518 Q318.658 880.911 324.468 880.911 Z" fill="#000000" fill-rule="nonzero" fill-opacity="1" /><path clip-path="url(#clip480)" d="M702.481 884.615 Q698.87 884.615 697.041 888.18 Q695.236 891.721 695.236 898.851 Q695.236 905.957 697.041 909.522 Q698.87 913.064 702.481 913.064 Q706.115 913.064 707.921 909.522 Q709.75 905.957 709.75 898.851 Q709.75 891.721 707.921 888.18 Q706.115 884.615 702.481 884.615 M702.481 880.911 Q708.291 880.911 711.347 885.518 Q714.426 890.101 714.426 898.851 Q714.426 907.578 711.347 912.184 Q708.291 916.767 702.481 916.767 Q696.671 916.767 693.592 912.184 Q690.537 907.578 690.537 898.851 Q690.537 890.101 693.592 885.518 Q696.671 880.911 702.481 880.911 Z" fill="#000000" fill-rule="nonzero" fill-opacity="1" /><path clip-path="url(#clip480)" d="M722.643 910.217 L727.527 910.217 L727.527 916.096 L722.643 916.096 L722.643 910.217 Z" fill="#000000" fill-rule="nonzero" fill-opacity="1" /><path clip-path="url(#clip480)" d="M741.74 912.161 L758.06 912.161 L758.06 916.096 L736.115 916.096 L736.115 912.161 Q738.777 909.406 743.361 904.777 Q747.967 900.124 749.148 898.781 Q751.393 896.258 752.273 894.522 Q753.175 892.763 753.175 891.073 Q753.175 888.319 751.231 886.582 Q749.31 884.846 746.208 884.846 Q744.009 884.846 741.555 885.61 Q739.124 886.374 736.347 887.925 L736.347 883.203 Q739.171 882.069 741.624 881.49 Q744.078 880.911 746.115 880.911 Q751.486 880.911 754.68 883.596 Q757.874 886.282 757.874 890.772 Q757.874 892.902 757.064 894.823 Q756.277 896.721 754.171 899.314 Q753.592 899.985 750.49 903.203 Q747.388 906.397 741.74 912.161 Z" fill="#000000" fill-rule="nonzero" fill-opacity="1" /><path clip-path="url(#clip480)" d="M767.921 881.536 L786.277 881.536 L786.277 885.471 L772.203 885.471 L772.203 893.944 Q773.222 893.596 774.24 893.434 Q775.259 893.249 776.277 893.249 Q782.064 893.249 785.444 896.42 Q788.823 899.592 788.823 905.008 Q788.823 910.587 785.351 913.689 Q781.879 916.767 775.559 916.767 Q773.384 916.767 771.115 916.397 Q768.87 916.027 766.462 915.286 L766.462 910.587 Q768.546 911.721 770.768 912.277 Q772.99 912.832 775.467 912.832 Q779.471 912.832 781.809 910.726 Q784.147 908.619 784.147 905.008 Q784.147 901.397 781.809 899.291 Q779.471 897.184 775.467 897.184 Q773.592 897.184 771.717 897.601 Q769.865 898.018 767.921 898.897 L767.921 881.536 Z" fill="#000000" fill-rule="nonzero" fill-opacity="1" /><path clip-path="url(#clip480)" d="M1154.89 884.615 Q1151.28 884.615 1149.45 888.18 Q1147.65 891.721 1147.65 898.851 Q1147.65 905.957 1149.45 909.522 Q1151.28 913.064 1154.89 913.064 Q1158.53 913.064 1160.33 909.522 Q1162.16 905.957 1162.16 898.851 Q1162.16 891.721 1160.33 888.18 Q1158.53 884.615 1154.89 884.615 M1154.89 880.911 Q1160.7 880.911 1163.76 885.518 Q1166.84 890.101 1166.84 898.851 Q1166.84 907.578 1163.76 912.184 Q1160.7 916.767 1154.89 916.767 Q1149.08 916.767 1146 912.184 Q1142.95 907.578 1142.95 898.851 Q1142.95 890.101 1146 885.518 Q1149.08 880.911 1154.89 880.911 Z" fill="#000000" fill-rule="nonzero" fill-opacity="1" /><path clip-path="url(#clip480)" d="M1175.05 910.217 L1179.94 910.217 L1179.94 916.096 L1175.05 916.096 L1175.05 910.217 Z" fill="#000000" fill-rule="nonzero" fill-opacity="1" /><path clip-path="url(#clip480)" d="M1190.17 881.536 L1208.53 881.536 L1208.53 885.471 L1194.45 885.471 L1194.45 893.944 Q1195.47 893.596 1196.49 893.434 Q1197.51 893.249 1198.53 893.249 Q1204.31 893.249 1207.69 896.42 Q1211.07 899.592 1211.07 905.008 Q1211.07 910.587 1207.6 913.689 Q1204.13 916.767 1197.81 916.767 Q1195.63 916.767 1193.36 916.397 Q1191.12 916.027 1188.71 915.286 L1188.71 910.587 Q1190.79 911.721 1193.02 912.277 Q1195.24 912.832 1197.72 912.832 Q1201.72 912.832 1204.06 910.726 Q1206.4 908.619 1206.4 905.008 Q1206.4 901.397 1204.06 899.291 Q1201.72 897.184 1197.72 897.184 Q1195.84 897.184 1193.97 897.601 Q1192.11 898.018 1190.17 898.897 L1190.17 881.536 Z" fill="#000000" fill-rule="nonzero" fill-opacity="1" /><path clip-path="url(#clip480)" d="M1230.29 884.615 Q1226.67 884.615 1224.85 888.18 Q1223.04 891.721 1223.04 898.851 Q1223.04 905.957 1224.85 909.522 Q1226.67 913.064 1230.29 913.064 Q1233.92 913.064 1235.73 909.522 Q1237.55 905.957 1237.55 898.851 Q1237.55 891.721 1235.73 888.18 Q1233.92 884.615 1230.29 884.615 M1230.29 880.911 Q1236.1 880.911 1239.15 885.518 Q1242.23 890.101 1242.23 898.851 Q1242.23 907.578 1239.15 912.184 Q1236.1 916.767 1230.29 916.767 Q1224.48 916.767 1221.4 912.184 Q1218.34 907.578 1218.34 898.851 Q1218.34 890.101 1221.4 885.518 Q1224.48 880.911 1230.29 880.911 Z" fill="#000000" fill-rule="nonzero" fill-opacity="1" /><path clip-path="url(#clip480)" d="M1608.3 884.615 Q1604.69 884.615 1602.86 888.18 Q1601.05 891.721 1601.05 898.851 Q1601.05 905.957 1602.86 909.522 Q1604.69 913.064 1608.3 913.064 Q1611.93 913.064 1613.74 909.522 Q1615.57 905.957 1615.57 898.851 Q1615.57 891.721 1613.74 888.18 Q1611.93 884.615 1608.3 884.615 M1608.3 880.911 Q1614.11 880.911 1617.16 885.518 Q1620.24 890.101 1620.24 898.851 Q1620.24 907.578 1617.16 912.184 Q1614.11 916.767 1608.3 916.767 Q1602.49 916.767 1599.41 912.184 Q1596.35 907.578 1596.35 898.851 Q1596.35 890.101 1599.41 885.518 Q1602.49 880.911 1608.3 880.911 Z" fill="#000000" fill-rule="nonzero" fill-opacity="1" /><path clip-path="url(#clip480)" d="M1628.46 910.217 L1633.35 910.217 L1633.35 916.096 L1628.46 916.096 L1628.46 910.217 Z" fill="#000000" fill-rule="nonzero" fill-opacity="1" /><path clip-path="url(#clip480)" d="M1642.35 881.536 L1664.57 881.536 L1664.57 883.527 L1652.03 916.096 L1647.14 916.096 L1658.95 885.471 L1642.35 885.471 L1642.35 881.536 Z" fill="#000000" fill-rule="nonzero" fill-opacity="1" /><path clip-path="url(#clip480)" d="M1673.74 881.536 L1692.09 881.536 L1692.09 885.471 L1678.02 885.471 L1678.02 893.944 Q1679.04 893.596 1680.06 893.434 Q1681.08 893.249 1682.09 893.249 Q1687.88 893.249 1691.26 896.42 Q1694.64 899.592 1694.64 905.008 Q1694.64 910.587 1691.17 913.689 Q1687.7 916.767 1681.38 916.767 Q1679.2 916.767 1676.93 916.397 Q1674.69 916.027 1672.28 915.286 L1672.28 910.587 Q1674.36 911.721 1676.59 912.277 Q1678.81 912.832 1681.28 912.832 Q1685.29 912.832 1687.63 910.726 Q1689.97 908.619 1689.97 905.008 Q1689.97 901.397 1687.63 899.291 Q1685.29 897.184 1681.28 897.184 Q1679.41 897.184 1677.53 897.601 Q1675.68 898.018 1673.74 898.897 L1673.74 881.536 Z" fill="#000000" fill-rule="nonzero" fill-opacity="1" /><path clip-path="url(#clip480)" d="M2050.48 912.161 L2058.12 912.161 L2058.12 885.795 L2049.81 887.462 L2049.81 883.203 L2058.07 881.536 L2062.75 881.536 L2062.75 912.161 L2070.39 912.161 L2070.39 916.096 L2050.48 916.096 L2050.48 912.161 Z" fill="#000000" fill-rule="nonzero" fill-opacity="1" /><path clip-path="url(#clip480)" d="M2079.83 910.217 L2084.71 910.217 L2084.71 916.096 L2079.83 916.096 L2079.83 910.217 Z" fill="#000000" fill-rule="nonzero" fill-opacity="1" /><path clip-path="url(#clip480)" d="M2104.9 884.615 Q2101.29 884.615 2099.46 888.18 Q2097.65 891.721 2097.65 898.851 Q2097.65 905.957 2099.46 909.522 Q2101.29 913.064 2104.9 913.064 Q2108.53 913.064 2110.34 909.522 Q2112.17 905.957 2112.17 898.851 Q2112.17 891.721 2110.34 888.18 Q2108.53 884.615 2104.9 884.615 M2104.9 880.911 Q2110.71 880.911 2113.77 885.518 Q2116.84 890.101 2116.84 898.851 Q2116.84 907.578 2113.77 912.184 Q2110.71 916.767 2104.9 916.767 Q2099.09 916.767 2096.01 912.184 Q2092.96 907.578 2092.96 898.851 Q2092.96 890.101 2096.01 885.518 Q2099.09 880.911 2104.9 880.911 Z" fill="#000000" fill-rule="nonzero" fill-opacity="1" /><path clip-path="url(#clip480)" d="M2135.06 884.615 Q2131.45 884.615 2129.62 888.18 Q2127.82 891.721 2127.82 898.851 Q2127.82 905.957 2129.62 909.522 Q2131.45 913.064 2135.06 913.064 Q2138.7 913.064 2140.5 909.522 Q2142.33 905.957 2142.33 898.851 Q2142.33 891.721 2140.5 888.18 Q2138.7 884.615 2135.06 884.615 M2135.06 880.911 Q2140.87 880.911 2143.93 885.518 Q2147.01 890.101 2147.01 898.851 Q2147.01 907.578 2143.93 912.184 Q2140.87 916.767 2135.06 916.767 Q2129.25 916.767 2126.17 912.184 Q2123.12 907.578 2123.12 898.851 Q2123.12 890.101 2126.17 885.518 Q2129.25 880.911 2135.06 880.911 Z" fill="#000000" fill-rule="nonzero" fill-opacity="1" /><path clip-path="url(#clip480)" d="M707.506 954.924 L707.506 972.78 L715.591 972.78 Q720.078 972.78 722.529 970.456 Q724.98 968.133 724.98 963.836 Q724.98 959.571 722.529 957.247 Q720.078 954.924 715.591 954.924 L707.506 954.924 M701.077 949.64 L715.591 949.64 Q723.58 949.64 727.654 953.269 Q731.76 956.865 731.76 963.836 Q731.76 970.87 727.654 974.466 Q723.58 978.063 715.591 978.063 L707.506 978.063 L707.506 997.16 L701.077 997.16 L701.077 949.64 Z" fill="#000000" fill-rule="nonzero" fill-opacity="1" /><path clip-path="url(#clip480)" d="M751.621 965.618 Q746.91 965.618 744.173 969.31 Q741.435 972.971 741.435 979.368 Q741.435 985.766 744.141 989.458 Q746.878 993.118 751.621 993.118 Q756.299 993.118 759.037 989.426 Q761.774 985.734 761.774 979.368 Q761.774 973.034 759.037 969.342 Q756.299 965.618 751.621 965.618 M751.621 960.653 Q759.259 960.653 763.62 965.618 Q767.98 970.583 767.98 979.368 Q767.98 988.121 763.62 993.118 Q759.259 998.083 751.621 998.083 Q743.95 998.083 739.589 993.118 Q735.261 988.121 735.261 979.368 Q735.261 970.583 739.589 965.618 Q743.95 960.653 751.621 960.653 Z" fill="#000000" fill-rule="nonzero" fill-opacity="1" /><path clip-path="url(#clip480)" d="M800.414 962.563 L800.414 968.101 Q797.931 966.828 795.257 966.191 Q792.584 965.554 789.719 965.554 Q785.359 965.554 783.163 966.891 Q780.998 968.228 780.998 970.902 Q780.998 972.939 782.558 974.116 Q784.117 975.262 788.828 976.313 L790.833 976.758 Q797.072 978.095 799.682 980.546 Q802.323 982.965 802.323 987.325 Q802.323 992.29 798.377 995.187 Q794.462 998.083 787.587 998.083 Q784.722 998.083 781.603 997.51 Q778.516 996.969 775.078 995.855 L775.078 989.808 Q778.325 991.495 781.476 992.354 Q784.627 993.182 787.714 993.182 Q791.852 993.182 794.08 991.781 Q796.308 990.349 796.308 987.771 Q796.308 985.384 794.685 984.111 Q793.093 982.837 787.65 981.66 L785.613 981.182 Q780.171 980.036 777.752 977.681 Q775.333 975.294 775.333 971.156 Q775.333 966.127 778.898 963.39 Q782.462 960.653 789.019 960.653 Q792.266 960.653 795.13 961.13 Q797.995 961.608 800.414 962.563 Z" fill="#000000" fill-rule="nonzero" fill-opacity="1" /><path clip-path="url(#clip480)" d="M817.442 951.391 L817.442 961.512 L829.505 961.512 L829.505 966.064 L817.442 966.064 L817.442 985.415 Q817.442 989.776 818.62 991.017 Q819.829 992.259 823.489 992.259 L829.505 992.259 L829.505 997.16 L823.489 997.16 Q816.71 997.16 814.132 994.646 Q811.554 992.099 811.554 985.415 L811.554 966.064 L807.257 966.064 L807.257 961.512 L811.554 961.512 L811.554 951.391 L817.442 951.391 Z" fill="#000000" fill-rule="nonzero" fill-opacity="1" /><path clip-path="url(#clip480)" d="M867.699 977.872 L867.699 980.737 L840.772 980.737 Q841.154 986.784 844.401 989.967 Q847.679 993.118 853.504 993.118 Q856.878 993.118 860.029 992.29 Q863.211 991.463 866.331 989.808 L866.331 995.346 Q863.18 996.683 859.869 997.383 Q856.559 998.083 853.154 998.083 Q844.624 998.083 839.626 993.118 Q834.661 988.153 834.661 979.686 Q834.661 970.933 839.372 965.809 Q844.114 960.653 852.135 960.653 Q859.328 960.653 863.498 965.3 Q867.699 969.915 867.699 977.872 M861.843 976.153 Q861.779 971.347 859.137 968.483 Q856.527 965.618 852.199 965.618 Q847.297 965.618 844.337 968.387 Q841.409 971.156 840.963 976.185 L861.843 976.153 Z" fill="#000000" fill-rule="nonzero" fill-opacity="1" /><path clip-path="url(#clip480)" d="M897.968 966.987 Q896.981 966.414 895.804 966.159 Q894.658 965.873 893.258 965.873 Q888.292 965.873 885.619 969.119 Q882.977 972.334 882.977 978.381 L882.977 997.16 L877.089 997.16 L877.089 961.512 L882.977 961.512 L882.977 967.05 Q884.823 963.804 887.783 962.244 Q890.743 960.653 894.976 960.653 Q895.581 960.653 896.313 960.748 Q897.045 960.812 897.936 960.971 L897.968 966.987 Z" fill="#000000" fill-rule="nonzero" fill-opacity="1" /><path clip-path="url(#clip480)" d="M904.111 961.512 L909.968 961.512 L909.968 997.16 L904.111 997.16 L904.111 961.512 M904.111 947.635 L909.968 947.635 L909.968 955.051 L904.111 955.051 L904.111 947.635 Z" fill="#000000" fill-rule="nonzero" fill-opacity="1" /><path clip-path="url(#clip480)" d="M936.035 965.618 Q931.324 965.618 928.587 969.31 Q925.85 972.971 925.85 979.368 Q925.85 985.766 928.555 989.458 Q931.293 993.118 936.035 993.118 Q940.714 993.118 943.451 989.426 Q946.188 985.734 946.188 979.368 Q946.188 973.034 943.451 969.342 Q940.714 965.618 936.035 965.618 M936.035 960.653 Q943.674 960.653 948.034 965.618 Q952.395 970.583 952.395 979.368 Q952.395 988.121 948.034 993.118 Q943.674 998.083 936.035 998.083 Q928.364 998.083 924.004 993.118 Q919.675 988.121 919.675 979.368 Q919.675 970.583 924.004 965.618 Q928.364 960.653 936.035 960.653 Z" fill="#000000" fill-rule="nonzero" fill-opacity="1" /><path clip-path="url(#clip480)" d="M982.759 966.987 Q981.773 966.414 980.595 966.159 Q979.449 965.873 978.049 965.873 Q973.083 965.873 970.41 969.119 Q967.768 972.334 967.768 978.381 L967.768 997.16 L961.88 997.16 L961.88 961.512 L967.768 961.512 L967.768 967.05 Q969.614 963.804 972.574 962.244 Q975.534 960.653 979.767 960.653 Q980.372 960.653 981.104 960.748 Q981.836 960.812 982.728 960.971 L982.759 966.987 Z" fill="#000000" fill-rule="nonzero" fill-opacity="1" /><path clip-path="url(#clip480)" d="M1016.31 954.924 L1016.31 972.78 L1024.39 972.78 Q1028.88 972.78 1031.33 970.456 Q1033.78 968.133 1033.78 963.836 Q1033.78 959.571 1031.33 957.247 Q1028.88 954.924 1024.39 954.924 L1016.31 954.924 M1009.88 949.64 L1024.39 949.64 Q1032.38 949.64 1036.45 953.269 Q1040.56 956.865 1040.56 963.836 Q1040.56 970.87 1036.45 974.466 Q1032.38 978.063 1024.39 978.063 L1016.31 978.063 L1016.31 997.16 L1009.88 997.16 L1009.88 949.64 Z" fill="#000000" fill-rule="nonzero" fill-opacity="1" /><path clip-path="url(#clip480)" d="M1068.44 966.987 Q1067.46 966.414 1066.28 966.159 Q1065.13 965.873 1063.73 965.873 Q1058.77 965.873 1056.09 969.119 Q1053.45 972.334 1053.45 978.381 L1053.45 997.16 L1047.56 997.16 L1047.56 961.512 L1053.45 961.512 L1053.45 967.05 Q1055.3 963.804 1058.26 962.244 Q1061.22 960.653 1065.45 960.653 Q1066.05 960.653 1066.79 960.748 Q1067.52 960.812 1068.41 960.971 L1068.44 966.987 Z" fill="#000000" fill-rule="nonzero" fill-opacity="1" /><path clip-path="url(#clip480)" d="M1086.97 965.618 Q1082.26 965.618 1079.52 969.31 Q1076.78 972.971 1076.78 979.368 Q1076.78 985.766 1079.49 989.458 Q1082.22 993.118 1086.97 993.118 Q1091.64 993.118 1094.38 989.426 Q1097.12 985.734 1097.12 979.368 Q1097.12 973.034 1094.38 969.342 Q1091.64 965.618 1086.97 965.618 M1086.97 960.653 Q1094.6 960.653 1098.97 965.618 Q1103.33 970.583 1103.33 979.368 Q1103.33 988.121 1098.97 993.118 Q1094.6 998.083 1086.97 998.083 Q1079.3 998.083 1074.93 993.118 Q1070.61 988.121 1070.61 979.368 Q1070.61 970.583 1074.93 965.618 Q1079.3 960.653 1086.97 960.653 Z" fill="#000000" fill-rule="nonzero" fill-opacity="1" /><path clip-path="url(#clip480)" d="M1138.62 979.368 Q1138.62 972.907 1135.95 969.247 Q1133.31 965.554 1128.66 965.554 Q1124.01 965.554 1121.34 969.247 Q1118.7 972.907 1118.7 979.368 Q1118.7 985.829 1121.34 989.521 Q1124.01 993.182 1128.66 993.182 Q1133.31 993.182 1135.95 989.521 Q1138.62 985.829 1138.62 979.368 M1118.7 966.923 Q1120.55 963.74 1123.35 962.212 Q1126.18 960.653 1130.09 960.653 Q1136.59 960.653 1140.63 965.809 Q1144.7 970.965 1144.7 979.368 Q1144.7 987.771 1140.63 992.927 Q1136.59 998.083 1130.09 998.083 Q1126.18 998.083 1123.35 996.555 Q1120.55 994.996 1118.7 991.813 L1118.7 997.16 L1112.81 997.16 L1112.81 947.635 L1118.7 947.635 L1118.7 966.923 Z" fill="#000000" fill-rule="nonzero" fill-opacity="1" /><path clip-path="url(#clip480)" d="M1170.61 979.241 Q1163.51 979.241 1160.78 980.864 Q1158.04 982.487 1158.04 986.402 Q1158.04 989.521 1160.08 991.367 Q1162.14 993.182 1165.68 993.182 Q1170.55 993.182 1173.48 989.744 Q1176.44 986.275 1176.44 980.546 L1176.44 979.241 L1170.61 979.241 M1182.29 976.822 L1182.29 997.16 L1176.44 997.16 L1176.44 991.749 Q1174.43 994.996 1171.44 996.555 Q1168.45 998.083 1164.12 998.083 Q1158.64 998.083 1155.4 995.028 Q1152.18 991.94 1152.18 986.784 Q1152.18 980.769 1156.19 977.713 Q1160.24 974.657 1168.22 974.657 L1176.44 974.657 L1176.44 974.085 Q1176.44 970.042 1173.76 967.846 Q1171.12 965.618 1166.31 965.618 Q1163.26 965.618 1160.36 966.35 Q1157.47 967.082 1154.79 968.546 L1154.79 963.136 Q1158.01 961.894 1161.03 961.289 Q1164.05 960.653 1166.92 960.653 Q1174.65 960.653 1178.47 964.663 Q1182.29 968.674 1182.29 976.822 Z" fill="#000000" fill-rule="nonzero" fill-opacity="1" /><path clip-path="url(#clip480)" d="M1219.95 979.368 Q1219.95 972.907 1217.27 969.247 Q1214.63 965.554 1209.98 965.554 Q1205.34 965.554 1202.66 969.247 Q1200.02 972.907 1200.02 979.368 Q1200.02 985.829 1202.66 989.521 Q1205.34 993.182 1209.98 993.182 Q1214.63 993.182 1217.27 989.521 Q1219.95 985.829 1219.95 979.368 M1200.02 966.923 Q1201.87 963.74 1204.67 962.212 Q1207.5 960.653 1211.42 960.653 Q1217.91 960.653 1221.95 965.809 Q1226.02 970.965 1226.02 979.368 Q1226.02 987.771 1221.95 992.927 Q1217.91 998.083 1211.42 998.083 Q1207.5 998.083 1204.67 996.555 Q1201.87 994.996 1200.02 991.813 L1200.02 997.16 L1194.13 997.16 L1194.13 947.635 L1200.02 947.635 L1200.02 966.923 Z" fill="#000000" fill-rule="nonzero" fill-opacity="1" /><path clip-path="url(#clip480)" d="M1235.73 961.512 L1241.59 961.512 L1241.59 997.16 L1235.73 997.16 L1235.73 961.512 M1235.73 947.635 L1241.59 947.635 L1241.59 955.051 L1235.73 955.051 L1235.73 947.635 Z" fill="#000000" fill-rule="nonzero" fill-opacity="1" /><path clip-path="url(#clip480)" d="M1253.84 947.635 L1259.7 947.635 L1259.7 997.16 L1253.84 997.16 L1253.84 947.635 Z" fill="#000000" fill-rule="nonzero" fill-opacity="1" /><path clip-path="url(#clip480)" d="M1271.95 961.512 L1277.81 961.512 L1277.81 997.16 L1271.95 997.16 L1271.95 961.512 M1271.95 947.635 L1277.81 947.635 L1277.81 955.051 L1271.95 955.051 L1271.95 947.635 Z" fill="#000000" fill-rule="nonzero" fill-opacity="1" /><path clip-path="url(#clip480)" d="M1295.86 951.391 L1295.86 961.512 L1307.92 961.512 L1307.92 966.064 L1295.86 966.064 L1295.86 985.415 Q1295.86 989.776 1297.03 991.017 Q1298.24 992.259 1301.9 992.259 L1307.92 992.259 L1307.92 997.16 L1301.9 997.16 Q1295.12 997.16 1292.55 994.646 Q1289.97 992.099 1289.97 985.415 L1289.97 966.064 L1285.67 966.064 L1285.67 961.512 L1289.97 961.512 L1289.97 951.391 L1295.86 951.391 Z" fill="#000000" fill-rule="nonzero" fill-opacity="1" /><path clip-path="url(#clip480)" d="M1330.45 1000.47 Q1327.97 1006.84 1325.62 1008.78 Q1323.26 1010.72 1319.31 1010.72 L1314.64 1010.72 L1314.64 1005.82 L1318.07 1005.82 Q1320.49 1005.82 1321.83 1004.67 Q1323.17 1003.53 1324.79 999.261 L1325.84 996.587 L1311.42 961.512 L1317.63 961.512 L1328.77 989.394 L1339.91 961.512 L1346.11 961.512 L1330.45 1000.47 Z" fill="#000000" fill-rule="nonzero" fill-opacity="1" /><path clip-path="url(#clip480)" d="M1368.58 949.64 L1408.78 949.64 L1408.78 955.051 L1391.92 955.051 L1391.92 997.16 L1385.45 997.16 L1385.45 955.051 L1368.58 955.051 L1368.58 949.64 Z" fill="#000000" fill-rule="nonzero" fill-opacity="1" /><path clip-path="url(#clip480)" d="M1444.37 975.644 L1444.37 997.16 L1438.51 997.16 L1438.51 975.835 Q1438.51 970.774 1436.54 968.26 Q1434.57 965.745 1430.62 965.745 Q1425.88 965.745 1423.14 968.769 Q1420.4 971.793 1420.4 977.013 L1420.4 997.16 L1414.51 997.16 L1414.51 947.635 L1420.4 947.635 L1420.4 967.05 Q1422.5 963.836 1425.34 962.244 Q1428.2 960.653 1431.92 960.653 Q1438.07 960.653 1441.22 964.472 Q1444.37 968.26 1444.37 975.644 Z" fill="#000000" fill-rule="nonzero" fill-opacity="1" /><path clip-path="url(#clip480)" d="M1476.71 966.987 Q1475.72 966.414 1474.54 966.159 Q1473.4 965.873 1472 965.873 Q1467.03 965.873 1464.36 969.119 Q1461.72 972.334 1461.72 978.381 L1461.72 997.16 L1455.83 997.16 L1455.83 961.512 L1461.72 961.512 L1461.72 967.05 Q1463.56 963.804 1466.52 962.244 Q1469.48 960.653 1473.71 960.653 Q1474.32 960.653 1475.05 960.748 Q1475.78 960.812 1476.67 960.971 L1476.71 966.987 Z" fill="#000000" fill-rule="nonzero" fill-opacity="1" /><path clip-path="url(#clip480)" d="M1511.91 977.872 L1511.91 980.737 L1484.98 980.737 Q1485.36 986.784 1488.61 989.967 Q1491.89 993.118 1497.71 993.118 Q1501.09 993.118 1504.24 992.29 Q1507.42 991.463 1510.54 989.808 L1510.54 995.346 Q1507.39 996.683 1504.08 997.383 Q1500.77 998.083 1497.36 998.083 Q1488.83 998.083 1483.84 993.118 Q1478.87 988.153 1478.87 979.686 Q1478.87 970.933 1483.58 965.809 Q1488.32 960.653 1496.34 960.653 Q1503.54 960.653 1507.71 965.3 Q1511.91 969.915 1511.91 977.872 M1506.05 976.153 Q1505.99 971.347 1503.35 968.483 Q1500.74 965.618 1496.41 965.618 Q1491.51 965.618 1488.55 968.387 Q1485.62 971.156 1485.17 976.185 L1506.05 976.153 Z" fill="#000000" fill-rule="nonzero" fill-opacity="1" /><path clip-path="url(#clip480)" d="M1544.25 962.563 L1544.25 968.101 Q1541.76 966.828 1539.09 966.191 Q1536.42 965.554 1533.55 965.554 Q1529.19 965.554 1527 966.891 Q1524.83 968.228 1524.83 970.902 Q1524.83 972.939 1526.39 974.116 Q1527.95 975.262 1532.66 976.313 L1534.67 976.758 Q1540.9 978.095 1543.51 980.546 Q1546.16 982.965 1546.16 987.325 Q1546.16 992.29 1542.21 995.187 Q1538.29 998.083 1531.42 998.083 Q1528.56 998.083 1525.44 997.51 Q1522.35 996.969 1518.91 995.855 L1518.91 989.808 Q1522.16 991.495 1525.31 992.354 Q1528.46 993.182 1531.55 993.182 Q1535.68 993.182 1537.91 991.781 Q1540.14 990.349 1540.14 987.771 Q1540.14 985.384 1538.52 984.111 Q1536.93 982.837 1531.48 981.66 L1529.45 981.182 Q1524 980.036 1521.58 977.681 Q1519.17 975.294 1519.17 971.156 Q1519.17 966.127 1522.73 963.39 Q1526.3 960.653 1532.85 960.653 Q1536.1 960.653 1538.96 961.13 Q1541.83 961.608 1544.25 962.563 Z" fill="#000000" fill-rule="nonzero" fill-opacity="1" /><path clip-path="url(#clip480)" d="M1585.11 975.644 L1585.11 997.16 L1579.26 997.16 L1579.26 975.835 Q1579.26 970.774 1577.28 968.26 Q1575.31 965.745 1571.36 965.745 Q1566.62 965.745 1563.88 968.769 Q1561.15 971.793 1561.15 977.013 L1561.15 997.16 L1555.26 997.16 L1555.26 947.635 L1561.15 947.635 L1561.15 967.05 Q1563.25 963.836 1566.08 962.244 Q1568.95 960.653 1572.67 960.653 Q1578.81 960.653 1581.96 964.472 Q1585.11 968.26 1585.11 975.644 Z" fill="#000000" fill-rule="nonzero" fill-opacity="1" /><path clip-path="url(#clip480)" d="M1610.61 965.618 Q1605.9 965.618 1603.16 969.31 Q1600.42 972.971 1600.42 979.368 Q1600.42 985.766 1603.13 989.458 Q1605.87 993.118 1610.61 993.118 Q1615.29 993.118 1618.03 989.426 Q1620.76 985.734 1620.76 979.368 Q1620.76 973.034 1618.03 969.342 Q1615.29 965.618 1610.61 965.618 M1610.61 960.653 Q1618.25 960.653 1622.61 965.618 Q1626.97 970.583 1626.97 979.368 Q1626.97 988.121 1622.61 993.118 Q1618.25 998.083 1610.61 998.083 Q1602.94 998.083 1598.58 993.118 Q1594.25 988.121 1594.25 979.368 Q1594.25 970.583 1598.58 965.618 Q1602.94 960.653 1610.61 960.653 Z" fill="#000000" fill-rule="nonzero" fill-opacity="1" /><path clip-path="url(#clip480)" d="M1636.68 947.635 L1642.53 947.635 L1642.53 997.16 L1636.68 997.16 L1636.68 947.635 Z" fill="#000000" fill-rule="nonzero" fill-opacity="1" /><path clip-path="url(#clip480)" d="M1678.24 966.923 L1678.24 947.635 L1684.1 947.635 L1684.1 997.16 L1678.24 997.16 L1678.24 991.813 Q1676.4 994.996 1673.57 996.555 Q1670.76 998.083 1666.82 998.083 Q1660.36 998.083 1656.28 992.927 Q1652.24 987.771 1652.24 979.368 Q1652.24 970.965 1656.28 965.809 Q1660.36 960.653 1666.82 960.653 Q1670.76 960.653 1673.57 962.212 Q1676.4 963.74 1678.24 966.923 M1658.29 979.368 Q1658.29 985.829 1660.93 989.521 Q1663.6 993.182 1668.25 993.182 Q1672.9 993.182 1675.57 989.521 Q1678.24 985.829 1678.24 979.368 Q1678.24 972.907 1675.57 969.247 Q1672.9 965.554 1668.25 965.554 Q1663.6 965.554 1660.93 969.247 Q1658.29 972.907 1658.29 979.368 Z" fill="#000000" fill-rule="nonzero" fill-opacity="1" /><polyline clip-path="url(#clip482)" style="stroke:#000000; stroke-linecap:round; stroke-linejoin:round; stroke-width:2; stroke-opacity:0.1; fill:none" points="232.422,832.427 2152.76,832.427 "/>
<polyline clip-path="url(#clip482)" style="stroke:#000000; stroke-linecap:round; stroke-linejoin:round; stroke-width:2; stroke-opacity:0.1; fill:none" points="232.422,641.848 2152.76,641.848 "/>
<polyline clip-path="url(#clip482)" style="stroke:#000000; stroke-linecap:round; stroke-linejoin:round; stroke-width:2; stroke-opacity:0.1; fill:none" points="232.422,451.27 2152.76,451.27 "/>
<polyline clip-path="url(#clip482)" style="stroke:#000000; stroke-linecap:round; stroke-linejoin:round; stroke-width:2; stroke-opacity:0.1; fill:none" points="232.422,260.692 2152.76,260.692 "/>
<polyline clip-path="url(#clip482)" style="stroke:#000000; stroke-linecap:round; stroke-linejoin:round; stroke-width:2; stroke-opacity:0.1; fill:none" points="232.422,70.1135 2152.76,70.1135 "/>
<polyline clip-path="url(#clip480)" style="stroke:#000000; stroke-linecap:round; stroke-linejoin:round; stroke-width:4; stroke-opacity:1; fill:none" points="232.422,855.296 232.422,47.2441 "/>
<polyline clip-path="url(#clip480)" style="stroke:#000000; stroke-linecap:round; stroke-linejoin:round; stroke-width:4; stroke-opacity:1; fill:none" points="232.422,832.427 251.32,832.427 "/>
<polyline clip-path="url(#clip480)" style="stroke:#000000; stroke-linecap:round; stroke-linejoin:round; stroke-width:4; stroke-opacity:1; fill:none" points="232.422,641.848 251.32,641.848 "/>
<polyline clip-path="url(#clip480)" style="stroke:#000000; stroke-linecap:round; stroke-linejoin:round; stroke-width:4; stroke-opacity:1; fill:none" points="232.422,451.27 251.32,451.27 "/>
<polyline clip-path="url(#clip480)" style="stroke:#000000; stroke-linecap:round; stroke-linejoin:round; stroke-width:4; stroke-opacity:1; fill:none" points="232.422,260.692 251.32,260.692 "/>
<polyline clip-path="url(#clip480)" style="stroke:#000000; stroke-linecap:round; stroke-linejoin:round; stroke-width:4; stroke-opacity:1; fill:none" points="232.422,70.1135 251.32,70.1135 "/>
<path clip-path="url(#clip480)" d="M112.085 818.225 Q108.473 818.225 106.645 821.79 Q104.839 825.332 104.839 832.462 Q104.839 839.568 106.645 843.133 Q108.473 846.674 112.085 846.674 Q115.719 846.674 117.524 843.133 Q119.353 839.568 119.353 832.462 Q119.353 825.332 117.524 821.79 Q115.719 818.225 112.085 818.225 M112.085 814.522 Q117.895 814.522 120.95 819.128 Q124.029 823.712 124.029 832.462 Q124.029 841.188 120.95 845.795 Q117.895 850.378 112.085 850.378 Q106.274 850.378 103.196 845.795 Q100.14 841.188 100.14 832.462 Q100.14 823.712 103.196 819.128 Q106.274 814.522 112.085 814.522 Z" fill="#000000" fill-rule="nonzero" fill-opacity="1" /><path clip-path="url(#clip480)" d="M132.246 843.827 L137.131 843.827 L137.131 849.707 L132.246 849.707 L132.246 843.827 Z" fill="#000000" fill-rule="nonzero" fill-opacity="1" /><path clip-path="url(#clip480)" d="M157.316 818.225 Q153.705 818.225 151.876 821.79 Q150.07 825.332 150.07 832.462 Q150.07 839.568 151.876 843.133 Q153.705 846.674 157.316 846.674 Q160.95 846.674 162.756 843.133 Q164.584 839.568 164.584 832.462 Q164.584 825.332 162.756 821.79 Q160.95 818.225 157.316 818.225 M157.316 814.522 Q163.126 814.522 166.181 819.128 Q169.26 823.712 169.26 832.462 Q169.26 841.188 166.181 845.795 Q163.126 850.378 157.316 850.378 Q151.506 850.378 148.427 845.795 Q145.371 841.188 145.371 832.462 Q145.371 823.712 148.427 819.128 Q151.506 814.522 157.316 814.522 Z" fill="#000000" fill-rule="nonzero" fill-opacity="1" /><path clip-path="url(#clip480)" d="M187.478 818.225 Q183.867 818.225 182.038 821.79 Q180.232 825.332 180.232 832.462 Q180.232 839.568 182.038 843.133 Q183.867 846.674 187.478 846.674 Q191.112 846.674 192.917 843.133 Q194.746 839.568 194.746 832.462 Q194.746 825.332 192.917 821.79 Q191.112 818.225 187.478 818.225 M187.478 814.522 Q193.288 814.522 196.343 819.128 Q199.422 823.712 199.422 832.462 Q199.422 841.188 196.343 845.795 Q193.288 850.378 187.478 850.378 Q181.667 850.378 178.589 845.795 Q175.533 841.188 175.533 832.462 Q175.533 823.712 178.589 819.128 Q181.667 814.522 187.478 814.522 Z" fill="#000000" fill-rule="nonzero" fill-opacity="1" /><path clip-path="url(#clip480)" d="M113.08 627.647 Q109.469 627.647 107.64 631.212 Q105.835 634.754 105.835 641.883 Q105.835 648.99 107.64 652.554 Q109.469 656.096 113.08 656.096 Q116.714 656.096 118.52 652.554 Q120.348 648.99 120.348 641.883 Q120.348 634.754 118.52 631.212 Q116.714 627.647 113.08 627.647 M113.08 623.943 Q118.89 623.943 121.946 628.55 Q125.024 633.133 125.024 641.883 Q125.024 650.61 121.946 655.216 Q118.89 659.8 113.08 659.8 Q107.27 659.8 104.191 655.216 Q101.136 650.61 101.136 641.883 Q101.136 633.133 104.191 628.55 Q107.27 623.943 113.08 623.943 Z" fill="#000000" fill-rule="nonzero" fill-opacity="1" /><path clip-path="url(#clip480)" d="M133.242 653.249 L138.126 653.249 L138.126 659.128 L133.242 659.128 L133.242 653.249 Z" fill="#000000" fill-rule="nonzero" fill-opacity="1" /><path clip-path="url(#clip480)" d="M152.339 655.193 L168.658 655.193 L168.658 659.128 L146.714 659.128 L146.714 655.193 Q149.376 652.439 153.959 647.809 Q158.566 643.156 159.746 641.814 Q161.992 639.291 162.871 637.555 Q163.774 635.795 163.774 634.105 Q163.774 631.351 161.83 629.615 Q159.908 627.879 156.807 627.879 Q154.607 627.879 152.154 628.643 Q149.723 629.406 146.945 630.957 L146.945 626.235 Q149.77 625.101 152.223 624.522 Q154.677 623.943 156.714 623.943 Q162.084 623.943 165.279 626.629 Q168.473 629.314 168.473 633.805 Q168.473 635.934 167.663 637.855 Q166.876 639.754 164.769 642.346 Q164.191 643.017 161.089 646.235 Q157.987 649.429 152.339 655.193 Z" fill="#000000" fill-rule="nonzero" fill-opacity="1" /><path clip-path="url(#clip480)" d="M178.519 624.568 L196.876 624.568 L196.876 628.504 L182.802 628.504 L182.802 636.976 Q183.82 636.629 184.839 636.467 Q185.857 636.281 186.876 636.281 Q192.663 636.281 196.042 639.453 Q199.422 642.624 199.422 648.041 Q199.422 653.619 195.95 656.721 Q192.478 659.8 186.158 659.8 Q183.982 659.8 181.714 659.429 Q179.468 659.059 177.061 658.318 L177.061 653.619 Q179.144 654.753 181.367 655.309 Q183.589 655.865 186.066 655.865 Q190.07 655.865 192.408 653.758 Q194.746 651.652 194.746 648.041 Q194.746 644.429 192.408 642.323 Q190.07 640.217 186.066 640.217 Q184.191 640.217 182.316 640.633 Q180.464 641.05 178.519 641.929 L178.519 624.568 Z" fill="#000000" fill-rule="nonzero" fill-opacity="1" /><path clip-path="url(#clip480)" d="M112.085 437.069 Q108.473 437.069 106.645 440.634 Q104.839 444.175 104.839 451.305 Q104.839 458.411 106.645 461.976 Q108.473 465.518 112.085 465.518 Q115.719 465.518 117.524 461.976 Q119.353 458.411 119.353 451.305 Q119.353 444.175 117.524 440.634 Q115.719 437.069 112.085 437.069 M112.085 433.365 Q117.895 433.365 120.95 437.972 Q124.029 442.555 124.029 451.305 Q124.029 460.032 120.95 464.638 Q117.895 469.221 112.085 469.221 Q106.274 469.221 103.196 464.638 Q100.14 460.032 100.14 451.305 Q100.14 442.555 103.196 437.972 Q106.274 433.365 112.085 433.365 Z" fill="#000000" fill-rule="nonzero" fill-opacity="1" /><path clip-path="url(#clip480)" d="M132.246 462.671 L137.131 462.671 L137.131 468.55 L132.246 468.55 L132.246 462.671 Z" fill="#000000" fill-rule="nonzero" fill-opacity="1" /><path clip-path="url(#clip480)" d="M147.362 433.99 L165.719 433.99 L165.719 437.925 L151.645 437.925 L151.645 446.397 Q152.663 446.05 153.682 445.888 Q154.7 445.703 155.719 445.703 Q161.506 445.703 164.885 448.874 Q168.265 452.046 168.265 457.462 Q168.265 463.041 164.793 466.143 Q161.32 469.221 155.001 469.221 Q152.825 469.221 150.557 468.851 Q148.311 468.481 145.904 467.74 L145.904 463.041 Q147.987 464.175 150.209 464.731 Q152.432 465.286 154.908 465.286 Q158.913 465.286 161.251 463.18 Q163.589 461.073 163.589 457.462 Q163.589 453.851 161.251 451.745 Q158.913 449.638 154.908 449.638 Q153.033 449.638 151.158 450.055 Q149.307 450.472 147.362 451.351 L147.362 433.99 Z" fill="#000000" fill-rule="nonzero" fill-opacity="1" /><path clip-path="url(#clip480)" d="M187.478 437.069 Q183.867 437.069 182.038 440.634 Q180.232 444.175 180.232 451.305 Q180.232 458.411 182.038 461.976 Q183.867 465.518 187.478 465.518 Q191.112 465.518 192.917 461.976 Q194.746 458.411 194.746 451.305 Q194.746 444.175 192.917 440.634 Q191.112 437.069 187.478 437.069 M187.478 433.365 Q193.288 433.365 196.343 437.972 Q199.422 442.555 199.422 451.305 Q199.422 460.032 196.343 464.638 Q193.288 469.221 187.478 469.221 Q181.667 469.221 178.589 464.638 Q175.533 460.032 175.533 451.305 Q175.533 442.555 178.589 437.972 Q181.667 433.365 187.478 433.365 Z" fill="#000000" fill-rule="nonzero" fill-opacity="1" /><path clip-path="url(#clip480)" d="M113.08 246.491 Q109.469 246.491 107.64 250.055 Q105.835 253.597 105.835 260.727 Q105.835 267.833 107.64 271.398 Q109.469 274.939 113.08 274.939 Q116.714 274.939 118.52 271.398 Q120.348 267.833 120.348 260.727 Q120.348 253.597 118.52 250.055 Q116.714 246.491 113.08 246.491 M113.08 242.787 Q118.89 242.787 121.946 247.393 Q125.024 251.977 125.024 260.727 Q125.024 269.453 121.946 274.06 Q118.89 278.643 113.08 278.643 Q107.27 278.643 104.191 274.06 Q101.136 269.453 101.136 260.727 Q101.136 251.977 104.191 247.393 Q107.27 242.787 113.08 242.787 Z" fill="#000000" fill-rule="nonzero" fill-opacity="1" /><path clip-path="url(#clip480)" d="M133.242 272.092 L138.126 272.092 L138.126 277.972 L133.242 277.972 L133.242 272.092 Z" fill="#000000" fill-rule="nonzero" fill-opacity="1" /><path clip-path="url(#clip480)" d="M147.131 243.412 L169.353 243.412 L169.353 245.403 L156.807 277.972 L151.922 277.972 L163.728 247.347 L147.131 247.347 L147.131 243.412 Z" fill="#000000" fill-rule="nonzero" fill-opacity="1" /><path clip-path="url(#clip480)" d="M178.519 243.412 L196.876 243.412 L196.876 247.347 L182.802 247.347 L182.802 255.819 Q183.82 255.472 184.839 255.31 Q185.857 255.125 186.876 255.125 Q192.663 255.125 196.042 258.296 Q199.422 261.467 199.422 266.884 Q199.422 272.463 195.95 275.564 Q192.478 278.643 186.158 278.643 Q183.982 278.643 181.714 278.273 Q179.468 277.902 177.061 277.162 L177.061 272.463 Q179.144 273.597 181.367 274.152 Q183.589 274.708 186.066 274.708 Q190.07 274.708 192.408 272.601 Q194.746 270.495 194.746 266.884 Q194.746 263.273 192.408 261.166 Q190.07 259.06 186.066 259.06 Q184.191 259.06 182.316 259.477 Q180.464 259.893 178.519 260.773 L178.519 243.412 Z" fill="#000000" fill-rule="nonzero" fill-opacity="1" /><path clip-path="url(#clip480)" d="M102.895 83.4583 L110.534 83.4583 L110.534 57.0927 L102.223 58.7594 L102.223 54.5002 L110.487 52.8335 L115.163 52.8335 L115.163 83.4583 L122.802 83.4583 L122.802 87.3935 L102.895 87.3935 L102.895 83.4583 Z" fill="#000000" fill-rule="nonzero" fill-opacity="1" /><path clip-path="url(#clip480)" d="M132.246 81.5139 L137.131 81.5139 L137.131 87.3935 L132.246 87.3935 L132.246 81.5139 Z" fill="#000000" fill-rule="nonzero" fill-opacity="1" /><path clip-path="url(#clip480)" d="M157.316 55.9122 Q153.705 55.9122 151.876 59.477 Q150.07 63.0186 150.07 70.1482 Q150.07 77.2547 151.876 80.8195 Q153.705 84.3611 157.316 84.3611 Q160.95 84.3611 162.756 80.8195 Q164.584 77.2547 164.584 70.1482 Q164.584 63.0186 162.756 59.477 Q160.95 55.9122 157.316 55.9122 M157.316 52.2085 Q163.126 52.2085 166.181 56.815 Q169.26 61.3983 169.26 70.1482 Q169.26 78.875 166.181 83.4815 Q163.126 88.0648 157.316 88.0648 Q151.506 88.0648 148.427 83.4815 Q145.371 78.875 145.371 70.1482 Q145.371 61.3983 148.427 56.815 Q151.506 52.2085 157.316 52.2085 Z" fill="#000000" fill-rule="nonzero" fill-opacity="1" /><path clip-path="url(#clip480)" d="M187.478 55.9122 Q183.867 55.9122 182.038 59.477 Q180.232 63.0186 180.232 70.1482 Q180.232 77.2547 182.038 80.8195 Q183.867 84.3611 187.478 84.3611 Q191.112 84.3611 192.917 80.8195 Q194.746 77.2547 194.746 70.1482 Q194.746 63.0186 192.917 59.477 Q191.112 55.9122 187.478 55.9122 M187.478 52.2085 Q193.288 52.2085 196.343 56.815 Q199.422 61.3983 199.422 70.1482 Q199.422 78.875 196.343 83.4815 Q193.288 88.0648 187.478 88.0648 Q181.667 88.0648 178.589 83.4815 Q175.533 78.875 175.533 70.1482 Q175.533 61.3983 178.589 56.815 Q181.667 52.2085 187.478 52.2085 Z" fill="#000000" fill-rule="nonzero" fill-opacity="1" /><path clip-path="url(#clip480)" d="M5.36416 508.18 L5.36416 480.871 L10.775 480.871 L10.775 501.75 L24.7796 501.75 L24.7796 482.908 L30.1904 482.908 L30.1904 501.75 L52.8842 501.75 L52.8842 508.18 L5.36416 508.18 Z" fill="#000000" fill-rule="nonzero" fill-opacity="1" /><path clip-path="url(#clip480)" d="M10.6477 464.256 L28.5035 464.256 L28.5035 456.172 Q28.5035 451.684 26.18 449.233 Q23.8565 446.782 19.5597 446.782 Q15.2947 446.782 12.9712 449.233 Q10.6477 451.684 10.6477 456.172 L10.6477 464.256 M5.36416 470.686 L5.36416 456.172 Q5.36416 448.183 8.99261 444.109 Q12.5892 440.003 19.5597 440.003 Q26.5938 440.003 30.1904 444.109 Q33.787 448.183 33.787 456.172 L33.787 464.256 L52.8842 464.256 L52.8842 470.686 L5.36416 470.686 Z" fill="#000000" fill-rule="nonzero" fill-opacity="1" /><path clip-path="url(#clip480)" d="M30.6042 408.843 Q31.3044 406.774 33.5961 404.832 Q35.8877 402.859 39.8981 400.886 L52.8842 394.361 L52.8842 401.268 L40.6938 407.347 Q35.9195 409.702 34.36 411.93 Q32.8004 414.126 32.8004 417.946 L32.8004 424.948 L52.8842 424.948 L52.8842 431.377 L5.36416 431.377 L5.36416 416.864 Q5.36416 408.715 8.76981 404.705 Q12.1755 400.695 19.0504 400.695 Q23.5382 400.695 26.4983 402.795 Q29.4584 404.864 30.6042 408.843 M10.6477 424.948 L27.5168 424.948 L27.5168 416.864 Q27.5168 412.217 25.3843 409.861 Q23.22 407.474 19.0504 407.474 Q14.8809 407.474 12.7802 409.861 Q10.6477 412.217 10.6477 416.864 L10.6477 424.948 Z" fill="#000000" fill-rule="nonzero" fill-opacity="1" /><polyline clip-path="url(#clip482)" style="stroke:#ff0000; stroke-linecap:round; stroke-linejoin:round; stroke-width:8; stroke-opacity:1; fill:none" points="286.771,70.1135 286.771,347.449 288.583,379.042 290.394,393.538 292.206,403.548 294.018,411.392 295.829,417.779 297.641,423.376 299.453,428.202 301.264,432.558 303.076,436.392 304.887,439.915 306.699,443.141 308.511,446.172 310.322,448.978 312.134,451.708 313.946,454.344 315.757,456.935 317.569,459.433 319.381,461.946 321.192,464.197 323.004,466.427 324.815,468.671 326.627,470.882 328.439,472.97 330.25,475.044 332.062,477.099 333.874,479.178 335.685,481.171 337.497,483.051 339.309,484.95 341.12,486.799 342.932,488.663 344.743,490.451 346.555,492.183 348.367,493.875 350.178,495.587 351.99,497.264 353.802,498.891 355.613,500.517 357.425,502.131 359.237,503.777 361.048,505.306 362.86,506.866 364.671,508.324 366.483,509.836 368.295,511.288 370.106,512.766 371.918,514.168 373.73,515.6 375.541,517.026 377.353,518.41 379.165,519.843 380.976,521.278 382.788,522.634 384.599,524.036 386.411,525.292 388.223,526.696 390.034,528.074 391.846,529.43 393.658,530.775 395.469,532.067 397.281,533.355 399.093,534.692 400.904,536.036 402.716,537.3 404.527,538.614 406.339,539.894 408.151,541.141 409.962,542.408 411.774,543.615 413.586,544.865 415.397,546.103 417.209,547.308 419.021,548.473 420.832,549.668 422.644,550.847 424.455,552.06 426.267,553.149 428.079,554.248 429.89,555.346 431.702,556.408 433.514,557.447 435.325,558.512 437.137,559.577 438.949,560.623 440.76,561.638 442.572,562.703 444.383,563.715 446.195,564.699 448.007,565.69 449.818,566.722 451.63,567.698 453.442,568.656 455.253,569.598 457.065,570.589 458.877,571.511 460.688,572.417 462.5,573.343 464.311,574.223 466.123,575.113 467.935,575.955 469.746,576.796 471.558,577.608 473.37,578.46 475.181,579.278 476.993,580.096 478.805,580.939 480.616,581.728 482.428,582.456 484.239,583.259 486.051,584.058 487.863,584.809 489.674,585.557 491.486,586.364 493.298,587.143 495.109,587.866 496.921,588.651 498.732,589.386 500.544,590.14 502.356,590.891 504.167,591.6 505.979,592.328 507.791,593.06 509.602,593.79 511.414,594.523 513.226,595.282 515.037,595.98 516.849,596.716 518.66,597.439 520.472,598.135 522.284,598.846 524.095,599.533 525.907,600.273 527.719,600.972 529.53,601.64 531.342,602.368 533.154,603.127 534.965,603.82 536.777,604.482 538.588,605.173 540.4,605.831 542.212,606.559 544.023,607.292 545.835,607.995 547.647,608.684 549.458,609.363 551.27,610.039 553.082,610.722 554.893,611.43 556.705,612.121 558.516,612.819 560.328,613.478 562.14,614.161 563.951,614.812 565.763,615.577 567.575,616.259 569.386,616.973 571.198,617.653 573.01,618.373 574.821,619.09 576.633,619.805 578.444,620.547 580.256,621.266 582.068,621.92 583.879,622.59 585.691,623.31 587.503,624.018 589.314,624.678 591.126,625.359 592.938,626.054 594.749,626.753 596.561,627.483 598.372,628.163 600.184,628.828 601.996,629.479 603.807,630.149 605.619,630.844 607.431,631.53 609.242,632.172 611.054,632.84 612.866,633.467 614.677,634.088 616.489,634.734 618.3,635.368 620.112,636.04 621.924,636.696 623.735,637.276 625.547,637.892 627.359,638.524 629.17,639.167 630.982,639.803 632.794,640.414 634.605,641 636.417,641.626 638.228,642.294 640.04,642.948 641.852,643.591 643.663,644.198 645.475,644.88 647.287,645.537 649.098,646.185 650.91,646.848 652.722,647.503 654.533,648.17 656.345,648.834 658.156,649.51 659.968,650.247 661.78,650.925 663.591,651.648 665.403,652.318 667.215,653.052 669.026,653.729 670.838,654.486 672.65,655.277 674.461,655.992 676.273,656.749 678.084,657.5 679.896,658.268 681.708,659.025 683.519,659.78 685.331,660.513 687.143,661.236 688.954,661.975 690.766,662.736 692.578,663.509 694.389,664.288 696.201,665.002 698.012,665.78 699.824,666.49 701.636,667.225 703.447,667.937 705.259,668.643 707.071,669.36 708.882,670.107 710.694,670.837 712.506,671.55 714.317,672.248 716.129,672.947 717.94,673.643 719.752,674.321 721.564,675.056 723.375,675.768 725.187,676.521 726.999,677.215 728.81,677.913 730.622,678.646 732.433,679.387 734.245,680.083 736.057,680.757 737.868,681.441 739.68,682.101 741.492,682.781 743.303,683.459 745.115,684.092 746.927,684.811 748.738,685.529 750.55,686.195 752.361,686.869 754.173,687.564 755.985,688.213 757.796,688.807 759.608,689.461 761.42,690.035 763.231,690.637 765.043,691.244 766.855,691.816 768.666,692.416 770.478,693.006 772.289,693.566 774.101,694.114 775.913,694.721 777.724,695.266 779.536,695.802 781.348,696.375 783.159,696.906 784.971,697.424 786.783,697.938 788.594,698.471 790.406,698.957 792.217,699.465 794.029,699.956 795.841,700.465 797.652,700.951 799.464,701.448 801.276,701.932 803.087,702.409 804.899,702.867 806.711,703.337 808.522,703.851 810.334,704.309 812.145,704.772 813.957,705.277 815.769,705.759 817.58,706.224 819.392,706.691 821.204,707.134 823.015,707.605 824.827,708.055 826.639,708.493 828.45,708.913 830.262,709.389 832.073,709.81 833.885,710.237 835.697,710.644 837.508,711.049 839.32,711.485 841.132,711.888 842.943,712.308 844.755,712.715 846.567,713.118 848.378,713.514 850.19,713.952 852.001,714.331 853.813,714.738 855.625,715.11 857.436,715.521 859.248,715.897 861.06,716.276 862.871,716.663 864.683,717.011 866.495,717.384 868.306,717.73 870.118,718.104 871.929,718.477 873.741,718.816 875.553,719.186 877.364,719.575 879.176,719.918 880.988,720.265 882.799,720.576 884.611,720.877 886.423,721.198 888.234,721.515 890.046,721.814 891.857,722.105 893.669,722.386 895.481,722.657 897.292,722.927 899.104,723.196 900.916,723.474 902.727,723.74 904.539,723.99 906.351,724.241 908.162,724.486 909.974,724.703 911.785,724.929 913.597,725.161 915.409,725.38 917.22,725.582 919.032,725.789 920.844,725.982 922.655,726.197 924.467,726.363 926.279,726.543 928.09,726.747 929.902,726.934 931.713,727.138 933.525,727.314 935.337,727.495 937.148,727.679 938.96,727.859 940.772,728.025 942.583,728.201 944.395,728.371 946.207,728.538 948.018,728.714 949.83,728.867 951.641,729.05 953.453,729.208 955.265,729.35 957.076,729.499 958.888,729.682 960.7,729.845 962.511,730.037 964.323,730.191 966.135,730.367 967.946,730.533 969.758,730.696 971.569,730.841 973.381,731.01 975.193,731.182 977.004,731.316 978.816,731.477 980.628,731.662 982.439,731.841 984.251,732.008 986.063,732.165 987.874,732.339 989.686,732.522 991.497,732.687 993.309,732.861 995.121,733.033 996.932,733.214 998.744,733.386 1000.56,733.534 1002.37,733.708 1004.18,733.899 1005.99,734.037 1007.8,734.218 1009.61,734.363 1011.43,734.53 1013.24,734.713 1015.05,734.895 1016.86,735.065 1018.67,735.227 1020.48,735.395 1022.3,735.562 1024.11,735.724 1025.92,735.868 1027.73,736.046 1029.54,736.207 1031.35,736.347 1033.17,736.507 1034.98,736.659 1036.79,736.815 1038.6,736.974 1040.41,737.118 1042.22,737.266 1044.03,737.414 1045.85,737.572 1047.66,737.733 1049.47,737.882 1051.28,738.03 1053.09,738.208 1054.9,738.364 1056.72,738.519 1058.53,738.656 1060.34,738.804 1062.15,738.952 1063.96,739.096 1065.77,739.262 1067.59,739.427 1069.4,739.566 1071.21,739.708 1073.02,739.84 1074.83,739.987 1076.64,740.146 1078.46,740.303 1080.27,740.445 1082.08,740.598 1083.89,740.741 1085.7,740.902 1087.51,741.072 1089.33,741.217 1091.14,741.374 1092.95,741.521 1094.76,741.654 1096.57,741.793 1098.38,741.924 1100.2,742.092 1102.01,742.217 1103.82,742.371 1105.63,742.519 1107.44,742.658 1109.25,742.809 1111.07,742.935 1112.88,743.091 1114.69,743.25 1116.5,743.385 1118.31,743.535 1120.12,743.674 1121.94,743.816 1123.75,743.957 1125.56,744.116 1127.37,744.245 1129.18,744.396 1130.99,744.542 1132.8,744.672 1134.62,744.823 1136.43,744.962 1138.24,745.098 1140.05,745.25 1141.86,745.403 1143.67,745.563 1145.49,745.7 1147.3,745.844 1149.11,745.997 1150.92,746.138 1152.73,746.256 1154.54,746.389 1156.36,746.511 1158.17,746.66 1159.98,746.797 1161.79,746.933 1163.6,747.083 1165.41,747.218 1167.23,747.346 1169.04,747.504 1170.85,747.663 1172.66,747.808 1174.47,747.943 1176.28,748.079 1178.1,748.229 1179.91,748.361 1181.72,748.504 1183.53,748.672 1185.34,748.848 1187.15,748.98 1188.97,749.121 1190.78,749.255 1192.59,749.396 1194.4,749.528 1196.21,749.655 1198.02,749.805 1199.84,749.953 1201.65,750.09 1203.46,750.255 1205.27,750.397 1207.08,750.544 1208.89,750.699 1210.71,750.847 1212.52,750.995 1214.33,751.143 1216.14,751.314 1217.95,751.47 1219.76,751.645 1221.58,751.816 1223.39,751.943 1225.2,752.079 1227.01,752.226 1228.82,752.386 1230.63,752.515 1232.44,752.646 1234.26,752.796 1236.07,752.948 1237.88,753.092 1239.69,753.227 1241.5,753.378 1243.31,753.539 1245.13,753.67 1246.94,753.825 1248.75,753.98 1250.56,754.128 1252.37,754.284 1254.18,754.45 1256,754.586 1257.81,754.72 1259.62,754.874 1261.43,755.03 1263.24,755.167 1265.05,755.306 1266.87,755.446 1268.68,755.592 1270.49,755.741 1272.3,755.899 1274.11,756.054 1275.92,756.182 1277.74,756.333 1279.55,756.487 1281.36,756.639 1283.17,756.801 1284.98,756.957 1286.79,757.105 1288.61,757.255 1290.42,757.387 1292.23,757.54 1294.04,757.698 1295.85,757.833 1297.66,757.968 1299.48,758.113 1301.29,758.254 1303.1,758.391 1304.91,758.54 1306.72,758.678 1308.53,758.819 1310.35,758.962 1312.16,759.119 1313.97,759.262 1315.78,759.409 1317.59,759.543 1319.4,759.691 1321.22,759.849 1323.03,759.991 1324.84,760.119 1326.65,760.275 1328.46,760.424 1330.27,760.571 1332.08,760.699 1333.9,760.823 1335.71,760.974 1337.52,761.129 1339.33,761.278 1341.14,761.414 1342.95,761.573 1344.77,761.71 1346.58,761.848 1348.39,761.991 1350.2,762.136 1352.01,762.267 1353.82,762.409 1355.64,762.552 1357.45,762.7 1359.26,762.857 1361.07,763.01 1362.88,763.162 1364.69,763.309 1366.51,763.454 1368.32,763.586 1370.13,763.735 1371.94,763.878 1373.75,764.017 1375.56,764.154 1377.38,764.306 1379.19,764.45 1381,764.606 1382.81,764.769 1384.62,764.909 1386.43,765.043 1388.25,765.189 1390.06,765.328 1391.87,765.436 1393.68,765.579 1395.49,765.718 1397.3,765.861 1399.12,765.971 1400.93,766.12 1402.74,766.253 1404.55,766.407 1406.36,766.533 1408.17,766.67 1409.99,766.801 1411.8,766.928 1413.61,767.063 1415.42,767.201 1417.23,767.345 1419.04,767.488 1420.86,767.622 1422.67,767.759 1424.48,767.895 1426.29,768.003 1428.1,768.137 1429.91,768.277 1431.72,768.407 1433.54,768.547 1435.35,768.683 1437.16,768.822 1438.97,768.965 1440.78,769.096 1442.59,769.214 1444.41,769.343 1446.22,769.465 1448.03,769.621 1449.84,769.745 1451.65,769.869 1453.46,769.994 1455.28,770.121 1457.09,770.256 1458.9,770.394 1460.71,770.531 1462.52,770.663 1464.33,770.801 1466.15,770.938 1467.96,771.077 1469.77,771.207 1471.58,771.336 1473.39,771.47 1475.2,771.607 1477.02,771.743 1478.83,771.887 1480.64,772.022 1482.45,772.166 1484.26,772.3 1486.07,772.448 1487.89,772.592 1489.7,772.73 1491.51,772.876 1493.32,773.024 1495.13,773.147 1496.94,773.276 1498.76,773.412 1500.57,773.546 1502.38,773.678 1504.19,773.82 1506,773.959 1507.81,774.091 1509.63,774.23 1511.44,774.37 1513.25,774.506 1515.06,774.626 1516.87,774.77 1518.68,774.906 1520.5,775.044 1522.31,775.167 1524.12,775.301 1525.93,775.45 1527.74,775.592 1529.55,775.717 1531.36,775.842 1533.18,775.972 1534.99,776.087 1536.8,776.216 1538.61,776.355 1540.42,776.484 1542.23,776.62 1544.05,776.736 1545.86,776.857 1547.67,776.976 1549.48,777.11 1551.29,777.233 1553.1,777.361 1554.92,777.516 1556.73,777.639 1558.54,777.767 1560.35,777.883 1562.16,778.001 1563.97,778.126 1565.79,778.228 1567.6,778.354 1569.41,778.483 1571.22,778.613 1573.03,778.737 1574.84,778.849 1576.66,778.973 1578.47,779.098 1580.28,779.241 1582.09,779.359 1583.9,779.473 1585.71,779.605 1587.53,779.722 1589.34,779.838 1591.15,779.959 1592.96,780.069 1594.77,780.195 1596.58,780.328 1598.4,780.443 1600.21,780.568 1602.02,780.71 1603.83,780.831 1605.64,780.96 1607.45,781.09 1609.27,781.222 1611.08,781.355 1612.89,781.48 1614.7,781.6 1616.51,781.715 1618.32,781.847 1620.13,781.963 1621.95,782.089 1623.76,782.197 1625.57,782.312 1627.38,782.427 1629.19,782.56 1631,782.683 1632.82,782.808 1634.63,782.926 1636.44,783.06 1638.25,783.186 1640.06,783.315 1641.87,783.464 1643.69,783.596 1645.5,783.715 1647.31,783.826 1649.12,783.946 1650.93,784.079 1652.74,784.206 1654.56,784.321 1656.37,784.427 1658.18,784.55 1659.99,784.667 1661.8,784.797 1663.61,784.932 1665.43,785.045 1667.24,785.179 1669.05,785.298 1670.86,785.423 1672.67,785.538 1674.48,785.648 1676.3,785.755 1678.11,785.874 1679.92,786 1681.73,786.129 1683.54,786.251 1685.35,786.358 1687.17,786.487 1688.98,786.613 1690.79,786.738 1692.6,786.851 1694.41,786.99 1696.22,787.124 1698.04,787.252 1699.85,787.372 1701.66,787.49 1703.47,787.606 1705.28,787.733 1707.09,787.855 1708.91,787.987 1710.72,788.1 1712.53,788.223 1714.34,788.343 1716.15,788.476 1717.96,788.601 1719.77,788.742 1721.59,788.863 1723.4,788.985 1725.21,789.113 1727.02,789.242 1728.83,789.357 1730.64,789.497 1732.46,789.624 1734.27,789.75 1736.08,789.866 1737.89,789.982 1739.7,790.123 1741.51,790.236 1743.33,790.343 1745.14,790.454 1746.95,790.587 1748.76,790.699 1750.57,790.823 1752.38,790.95 1754.2,791.083 1756.01,791.183 1757.82,791.318 1759.63,791.429 1761.44,791.543 1763.25,791.671 1765.07,791.798 1766.88,791.92 1768.69,792.036 1770.5,792.153 1772.31,792.266 1774.12,792.39 1775.94,792.519 1777.75,792.642 1779.56,792.753 1781.37,792.882 1783.18,792.998 1784.99,793.126 1786.81,793.252 1788.62,793.363 1790.43,793.478 1792.24,793.592 1794.05,793.73 1795.86,793.858 1797.68,793.969 1799.49,794.09 1801.3,794.239 1803.11,794.365 1804.92,794.489 1806.73,794.61 1808.55,794.751 1810.36,794.87 1812.17,794.976 1813.98,795.083 1815.79,795.211 1817.6,795.33 1819.41,795.464 1821.23,795.579 1823.04,795.702 1824.85,795.833 1826.66,795.963 1828.47,796.073 1830.28,796.213 1832.1,796.335 1833.91,796.443 1835.72,796.599 1837.53,796.72 1839.34,796.85 1841.15,796.968 1842.97,797.1 1844.78,797.225 1846.59,797.351 1848.4,797.48 1850.21,797.592 1852.02,797.73 1853.84,797.853 1855.65,797.976 1857.46,798.092 1859.27,798.228 1861.08,798.358 1862.89,798.473 1864.71,798.613 1866.52,798.747 1868.33,798.871 1870.14,798.986 1871.95,799.128 1873.76,799.268 1875.58,799.392 1877.39,799.514 1879.2,799.637 1881.01,799.776 1882.82,799.914 1884.63,800.052 1886.45,800.171 1888.26,800.288 1890.07,800.419 1891.88,800.549 1893.69,800.689 1895.5,800.799 1897.32,800.942 1899.13,801.073 1900.94,801.218 1902.75,801.346 1904.56,801.495 1906.37,801.621 1908.19,801.755 1910,801.892 1911.81,802.039 1913.62,802.153 1915.43,802.281 1917.24,802.43 1919.05,802.56 1920.87,802.696 1922.68,802.839 1924.49,802.979 1926.3,803.093 1928.11,803.231 1929.92,803.375 1931.74,803.512 1933.55,803.658 1935.36,803.775 1937.17,803.914 1938.98,804.051 1940.79,804.195 1942.61,804.339 1944.42,804.494 1946.23,804.626 1948.04,804.766 1949.85,804.885 1951.66,805.05 1953.48,805.179 1955.29,805.32 1957.1,805.484 1958.91,805.633 1960.72,805.779 1962.53,805.949 1964.35,806.089 1966.16,806.252 1967.97,806.406 1969.78,806.559 1971.59,806.713 1973.4,806.861 1975.22,807.019 1977.03,807.183 1978.84,807.345 1980.65,807.516 1982.46,807.663 1984.27,807.824 1986.09,807.982 1987.9,808.148 1989.71,808.315 1991.52,808.471 1993.33,808.637 1995.14,808.79 1996.96,808.942 1998.77,809.133 2000.58,809.283 2002.39,809.459 2004.2,809.629 2006.01,809.808 2007.83,809.974 2009.64,810.147 2011.45,810.32 2013.26,810.498 2015.07,810.715 2016.88,810.893 2018.69,811.085 2020.51,811.245 2022.32,811.441 2024.13,811.632 2025.94,811.828 2027.75,812.021 2029.56,812.228 2031.38,812.41 2033.19,812.617 2035,812.813 2036.81,813.03 2038.62,813.234 2040.43,813.469 2042.25,813.667 2044.06,813.891 2045.87,814.134 2047.68,814.342 2049.49,814.576 2051.3,814.82 2053.12,815.07 2054.93,815.322 2056.74,815.554 2058.55,815.848 2060.36,816.108 2062.17,816.371 2063.99,816.64 2065.8,816.935 2067.61,817.255 2069.42,817.588 2071.23,817.914 2073.04,818.237 2074.86,818.595 2076.67,818.985 2078.48,819.368 2080.29,819.752 2082.1,820.164 2083.91,820.601 2085.73,821.086 2087.54,821.634 2089.35,822.21 2091.16,822.858 2092.97,823.713 2094.78,824.8 2096.6,826.325 2098.41,832.427 "/>
<polyline clip-path="url(#clip482)" style="stroke:#0000ff; stroke-linecap:round; stroke-linejoin:round; stroke-width:8; stroke-opacity:1; fill:none" points="286.771,70.1135 286.771,312.719 288.583,344.26 290.394,358.914 292.206,369.064 294.018,377.002 295.829,383.735 297.641,389.539 299.453,394.646 301.264,399.101 303.076,403.132 304.887,406.843 306.699,410.229 308.511,413.384 310.322,416.359 312.134,419.099 313.946,421.691 315.757,424.264 317.569,426.734 319.381,429.05 321.192,431.407 323.004,433.641 324.815,435.853 326.627,437.87 328.439,439.961 330.25,441.95 332.062,443.928 333.874,445.782 335.685,447.569 337.497,449.366 339.309,451.103 341.12,452.805 342.932,454.547 344.743,456.267 346.555,457.879 348.367,459.463 350.178,461.027 351.99,462.621 353.802,464.194 355.613,465.647 357.425,467.222 359.237,468.689 361.048,470.185 362.86,471.637 364.671,473.073 366.483,474.442 368.295,475.801 370.106,477.178 371.918,478.542 373.73,479.933 375.541,481.259 377.353,482.538 379.165,483.822 380.976,485.078 382.788,486.352 384.599,487.623 386.411,488.86 388.223,490.142 390.034,491.357 391.846,492.542 393.658,493.744 395.469,494.922 397.281,496.09 399.093,497.236 400.904,498.382 402.716,499.56 404.527,500.659 406.339,501.746 408.151,502.823 409.962,503.888 411.774,504.968 413.586,506.084 415.397,507.188 417.209,508.274 419.021,509.419 420.832,510.532 422.644,511.646 424.455,512.67 426.267,513.795 428.079,514.907 429.89,515.999 431.702,517.139 433.514,518.217 435.325,519.335 437.137,520.464 438.949,521.537 440.76,522.591 442.572,523.695 444.383,524.804 446.195,525.936 448.007,527.035 449.818,528.124 451.63,529.206 453.442,530.32 455.253,531.379 457.065,532.486 458.876,533.528 460.688,534.567 462.5,535.582 464.311,536.622 466.123,537.647 467.935,538.686 469.746,539.673 471.558,540.673 473.37,541.69 475.181,542.69 476.993,543.641 478.804,544.58 480.616,545.546 482.428,546.451 484.239,547.363 486.051,548.289 487.863,549.165 489.674,550.004 491.486,550.878 493.298,551.734 495.109,552.666 496.921,553.547 498.732,554.388 500.544,555.24 502.356,556.034 504.167,556.864 505.979,557.72 507.791,558.512 509.602,559.347 511.414,560.141 513.226,560.944 515.037,561.741 516.849,562.597 518.66,563.424 520.472,564.221 522.284,565.02 524.095,565.892 525.907,566.667 527.719,567.506 529.53,568.329 531.342,569.175 533.154,569.984 534.965,570.806 536.777,571.616 538.588,572.447 540.4,573.26 542.212,574.052 544.023,574.897 545.835,575.682 547.647,576.485 549.458,577.238 551.27,578.039 553.082,578.798 554.893,579.548 556.705,580.339 558.516,581.117 560.328,581.89 562.14,582.647 563.951,583.423 565.763,584.225 567.575,584.998 569.386,585.771 571.198,586.596 573.01,587.349 574.821,588.097 576.633,588.909 578.444,589.664 580.256,590.446 582.068,591.226 583.879,591.966 585.691,592.696 587.503,593.483 589.314,594.22 591.126,594.983 592.938,595.689 594.749,596.38 596.561,597.085 598.372,597.794 600.184,598.549 601.996,599.272 603.807,599.973 605.619,600.697 607.431,601.379 609.242,602.05 611.054,602.741 612.866,603.466 614.677,604.16 616.489,604.89 618.3,605.576 620.112,606.321 621.924,607.085 623.735,607.789 625.547,608.553 627.359,609.336 629.17,610.151 630.982,610.925 632.794,611.719 634.605,612.503 636.417,613.308 638.228,614.084 640.04,614.906 641.852,615.677 643.663,616.47 645.475,617.295 647.287,618.082 649.098,618.909 650.91,619.705 652.722,620.509 654.533,621.342 656.345,622.188 658.156,623.058 659.968,623.887 661.78,624.758 663.591,625.594 665.403,626.402 667.215,627.235 669.026,628.041 670.838,628.871 672.65,629.686 674.461,630.483 676.273,631.287 678.084,632.077 679.896,632.838 681.708,633.631 683.519,634.435 685.331,635.238 687.143,636.038 688.954,636.817 690.766,637.6 692.578,638.371 694.389,639.159 696.201,639.918 698.012,640.664 699.824,641.437 701.636,642.215 703.447,642.961 705.259,643.734 707.071,644.493 708.882,645.22 710.694,646.015 712.506,646.804 714.317,647.589 716.129,648.342 717.94,649.061 719.752,649.838 721.564,650.607 723.375,651.386 725.187,652.131 726.999,652.911 728.81,653.717 730.622,654.5 732.433,655.256 734.245,655.994 736.057,656.735 737.868,657.53 739.68,658.277 741.492,659.011 743.303,659.816 745.115,660.6 746.927,661.386 748.738,662.135 750.55,662.909 752.361,663.681 754.173,664.464 755.985,665.28 757.796,666.037 759.608,666.837 761.42,667.591 763.231,668.376 765.043,669.183 766.855,669.942 768.666,670.718 770.478,671.52 772.289,672.247 774.101,672.982 775.913,673.714 777.724,674.496 779.536,675.246 781.348,675.991 783.159,676.747 784.971,677.523 786.783,678.289 788.594,679.038 790.406,679.81 792.217,680.579 794.029,681.346 795.841,682.103 797.652,682.844 799.464,683.578 801.276,684.314 803.087,685.036 804.899,685.767 806.711,686.462 808.522,687.182 810.334,687.926 812.145,688.604 813.957,689.265 815.769,689.973 817.58,690.648 819.392,691.344 821.204,692.015 823.015,692.688 824.827,693.355 826.639,694.003 828.45,694.654 830.262,695.353 832.073,696.016 833.885,696.655 835.697,697.266 837.508,697.872 839.32,698.467 841.132,699.075 842.943,699.672 844.755,700.248 846.567,700.866 848.378,701.483 850.19,702.059 852.001,702.636 853.813,703.21 855.625,703.799 857.436,704.367 859.248,704.972 861.06,705.518 862.871,706.052 864.683,706.614 866.495,707.154 868.306,707.683 870.118,708.198 871.929,708.709 873.741,709.259 875.553,709.831 877.364,710.333 879.176,710.861 880.988,711.369 882.799,711.878 884.611,712.382 886.423,712.88 888.234,713.329 890.046,713.796 891.857,714.233 893.669,714.718 895.481,715.151 897.292,715.591 899.104,716.007 900.916,716.435 902.727,716.859 904.539,717.276 906.351,717.71 908.162,718.124 909.974,718.527 911.785,718.913 913.597,719.29 915.409,719.696 917.22,720.059 919.032,720.417 920.844,720.777 922.655,721.127 924.467,721.489 926.279,721.837 928.09,722.179 929.902,722.545 931.713,722.907 933.525,723.218 935.337,723.552 937.148,723.858 938.96,724.179 940.772,724.496 942.583,724.816 944.395,725.145 946.207,725.492 948.018,725.802 949.83,726.11 951.641,726.409 953.453,726.712 955.265,727.002 957.076,727.316 958.888,727.615 960.7,727.935 962.511,728.244 964.323,728.561 966.135,728.873 967.946,729.194 969.758,729.511 971.569,729.841 973.381,730.117 975.193,730.434 977.004,730.761 978.816,731.061 980.628,731.39 982.439,731.686 984.251,732.004 986.063,732.322 987.874,732.62 989.686,732.949 991.497,733.257 993.309,733.582 995.121,733.901 996.932,734.225 998.744,734.529 1000.56,734.834 1002.37,735.131 1004.18,735.445 1005.99,735.749 1007.8,736.038 1009.61,736.299 1011.43,736.571 1013.24,736.841 1015.05,737.093 1016.86,737.358 1018.67,737.616 1020.48,737.861 1022.3,738.077 1024.11,738.326 1025.92,738.569 1027.73,738.788 1029.54,739.001 1031.35,739.227 1033.17,739.445 1034.98,739.654 1036.79,739.865 1038.6,740.061 1040.41,740.245 1042.22,740.425 1044.03,740.6 1045.85,740.795 1047.66,740.983 1049.47,741.171 1051.28,741.331 1053.09,741.501 1054.9,741.674 1056.72,741.844 1058.53,742.005 1060.34,742.189 1062.15,742.342 1063.96,742.509 1065.77,742.654 1067.59,742.824 1069.4,742.979 1071.21,743.161 1073.02,743.312 1074.83,743.478 1076.64,743.653 1078.46,743.829 1080.27,743.992 1082.08,744.152 1083.89,744.298 1085.7,744.463 1087.51,744.609 1089.33,744.76 1091.14,744.908 1092.95,745.046 1094.76,745.199 1096.57,745.355 1098.38,745.502 1100.2,745.653 1102.01,745.802 1103.82,745.951 1105.63,746.107 1107.44,746.256 1109.25,746.416 1111.07,746.563 1112.88,746.71 1114.69,746.868 1116.5,747.025 1118.31,747.172 1120.12,747.337 1121.94,747.486 1123.75,747.628 1125.56,747.768 1127.37,747.936 1129.18,748.064 1130.99,748.195 1132.8,748.35 1134.62,748.513 1136.43,748.65 1138.24,748.812 1140.05,748.954 1141.86,749.099 1143.67,749.246 1145.49,749.401 1147.3,749.567 1149.11,749.723 1150.92,749.871 1152.73,750.027 1154.54,750.184 1156.36,750.323 1158.17,750.473 1159.98,750.619 1161.79,750.765 1163.6,750.909 1165.41,751.039 1167.23,751.196 1169.04,751.344 1170.85,751.509 1172.66,751.665 1174.47,751.804 1176.28,751.971 1178.1,752.113 1179.91,752.268 1181.72,752.424 1183.53,752.58 1185.34,752.73 1187.15,752.854 1188.97,753 1190.78,753.139 1192.59,753.284 1194.4,753.426 1196.21,753.569 1198.02,753.717 1199.84,753.842 1201.65,753.975 1203.46,754.132 1205.27,754.29 1207.08,754.437 1208.89,754.583 1210.71,754.74 1212.52,754.891 1214.33,755.037 1216.14,755.189 1217.95,755.339 1219.76,755.484 1221.58,755.62 1223.39,755.752 1225.2,755.897 1227.01,756.043 1228.82,756.182 1230.63,756.326 1232.44,756.46 1234.26,756.605 1236.07,756.742 1237.88,756.879 1239.69,757.007 1241.5,757.153 1243.31,757.308 1245.13,757.449 1246.94,757.606 1248.75,757.763 1250.56,757.912 1252.37,758.048 1254.18,758.188 1256,758.332 1257.81,758.476 1259.62,758.613 1261.43,758.74 1263.24,758.863 1265.05,759.006 1266.87,759.149 1268.68,759.312 1270.49,759.452 1272.3,759.585 1274.11,759.73 1275.92,759.884 1277.74,760.03 1279.55,760.168 1281.36,760.329 1283.17,760.486 1284.98,760.636 1286.79,760.766 1288.61,760.915 1290.42,761.071 1292.23,761.228 1294.04,761.356 1295.85,761.496 1297.66,761.665 1299.48,761.782 1301.29,761.946 1303.1,762.091 1304.91,762.245 1306.72,762.385 1308.53,762.516 1310.35,762.654 1312.16,762.78 1313.97,762.925 1315.78,763.071 1317.59,763.2 1319.4,763.351 1321.22,763.507 1323.03,763.649 1324.84,763.779 1326.65,763.913 1328.46,764.044 1330.27,764.176 1332.08,764.314 1333.9,764.458 1335.71,764.586 1337.52,764.748 1339.33,764.899 1341.14,765.048 1342.95,765.189 1344.77,765.304 1346.58,765.448 1348.39,765.579 1350.2,765.719 1352.01,765.863 1353.82,766.009 1355.64,766.134 1357.45,766.287 1359.26,766.429 1361.07,766.579 1362.88,766.707 1364.69,766.846 1366.51,766.972 1368.32,767.095 1370.13,767.242 1371.94,767.382 1373.75,767.517 1375.56,767.662 1377.38,767.783 1379.19,767.919 1381,768.1 1382.81,768.229 1384.62,768.378 1386.43,768.489 1388.25,768.637 1390.06,768.757 1391.87,768.895 1393.68,769.052 1395.49,769.188 1397.3,769.344 1399.12,769.499 1400.93,769.652 1402.74,769.786 1404.55,769.927 1406.36,770.083 1408.17,770.221 1409.99,770.363 1411.8,770.496 1413.61,770.641 1415.42,770.765 1417.23,770.889 1419.04,771.02 1420.86,771.148 1422.67,771.271 1424.48,771.399 1426.29,771.515 1428.1,771.649 1429.91,771.801 1431.72,771.926 1433.54,772.069 1435.35,772.212 1437.16,772.348 1438.97,772.496 1440.78,772.644 1442.59,772.799 1444.41,772.946 1446.22,773.095 1448.03,773.233 1449.84,773.364 1451.65,773.529 1453.46,773.666 1455.28,773.806 1457.09,773.942 1458.9,774.085 1460.71,774.23 1462.52,774.379 1464.33,774.527 1466.15,774.65 1467.96,774.778 1469.77,774.913 1471.58,775.049 1473.39,775.181 1475.2,775.338 1477.02,775.485 1478.83,775.609 1480.64,775.74 1482.45,775.88 1484.26,776.015 1486.07,776.139 1487.89,776.271 1489.7,776.406 1491.51,776.546 1493.32,776.673 1495.13,776.828 1496.94,776.964 1498.76,777.081 1500.57,777.237 1502.38,777.371 1504.19,777.523 1506,777.662 1507.81,777.802 1509.63,777.934 1511.44,778.06 1513.25,778.188 1515.06,778.324 1516.87,778.458 1518.68,778.593 1520.5,778.721 1522.31,778.847 1524.12,778.968 1525.93,779.104 1527.74,779.242 1529.55,779.387 1531.36,779.521 1533.18,779.658 1534.99,779.787 1536.8,779.929 1538.61,780.073 1540.42,780.212 1542.23,780.352 1544.05,780.491 1545.86,780.638 1547.67,780.761 1549.48,780.892 1551.29,781.023 1553.1,781.141 1554.92,781.285 1556.73,781.417 1558.54,781.541 1560.35,781.68 1562.16,781.8 1563.97,781.929 1565.79,782.092 1567.6,782.216 1569.41,782.346 1571.22,782.461 1573.03,782.597 1574.84,782.746 1576.66,782.874 1578.47,783.005 1580.28,783.146 1582.09,783.281 1583.9,783.418 1585.71,783.555 1587.53,783.687 1589.34,783.814 1591.15,783.955 1592.96,784.085 1594.77,784.226 1596.58,784.355 1598.4,784.505 1600.21,784.645 1602.02,784.793 1603.83,784.917 1605.64,785.048 1607.45,785.169 1609.27,785.307 1611.08,785.447 1612.89,785.586 1614.7,785.737 1616.51,785.89 1618.32,786.025 1620.14,786.145 1621.95,786.293 1623.76,786.453 1625.57,786.586 1627.38,786.698 1629.19,786.829 1631,786.963 1632.82,787.089 1634.63,787.228 1636.44,787.351 1638.25,787.48 1640.06,787.605 1641.87,787.72 1643.69,787.848 1645.5,787.968 1647.31,788.093 1649.12,788.225 1650.93,788.371 1652.74,788.497 1654.56,788.621 1656.37,788.76 1658.18,788.883 1659.99,789.008 1661.8,789.143 1663.61,789.268 1665.43,789.397 1667.24,789.525 1669.05,789.648 1670.86,789.761 1672.67,789.876 1674.48,790.013 1676.3,790.147 1678.11,790.26 1679.92,790.381 1681.73,790.506 1683.54,790.621 1685.35,790.74 1687.17,790.865 1688.98,790.991 1690.79,791.119 1692.6,791.235 1694.41,791.343 1696.22,791.459 1698.04,791.581 1699.85,791.687 1701.66,791.801 1703.47,791.919 1705.28,792.034 1707.09,792.139 1708.91,792.255 1710.72,792.37 1712.53,792.494 1714.34,792.621 1716.15,792.75 1717.96,792.869 1719.77,792.986 1721.59,793.098 1723.4,793.227 1725.21,793.365 1727.02,793.496 1728.83,793.608 1730.64,793.721 1732.46,793.844 1734.27,793.963 1736.08,794.087 1737.89,794.209 1739.7,794.321 1741.51,794.436 1743.33,794.563 1745.14,794.701 1746.95,794.83 1748.76,794.947 1750.57,795.066 1752.38,795.189 1754.2,795.298 1756.01,795.413 1757.82,795.523 1759.63,795.639 1761.44,795.758 1763.25,795.884 1765.07,796.007 1766.88,796.138 1768.69,796.262 1770.5,796.38 1772.31,796.496 1774.12,796.62 1775.94,796.742 1777.75,796.853 1779.56,796.978 1781.37,797.084 1783.18,797.214 1784.99,797.341 1786.81,797.46 1788.62,797.592 1790.43,797.703 1792.24,797.825 1794.05,797.947 1795.86,798.084 1797.68,798.215 1799.49,798.342 1801.3,798.46 1803.11,798.587 1804.92,798.702 1806.73,798.846 1808.55,798.963 1810.36,799.094 1812.17,799.197 1813.98,799.329 1815.79,799.449 1817.6,799.581 1819.41,799.7 1821.23,799.817 1823.04,799.933 1824.85,800.063 1826.66,800.177 1828.47,800.299 1830.28,800.426 1832.1,800.547 1833.91,800.66 1835.72,800.784 1837.53,800.895 1839.34,801.023 1841.15,801.136 1842.97,801.265 1844.78,801.387 1846.59,801.504 1848.4,801.641 1850.21,801.763 1852.02,801.892 1853.84,802.008 1855.65,802.127 1857.46,802.259 1859.27,802.393 1861.08,802.521 1862.89,802.658 1864.71,802.775 1866.52,802.906 1868.33,803.03 1870.14,803.163 1871.95,803.276 1873.76,803.4 1875.58,803.522 1877.39,803.64 1879.2,803.789 1881.01,803.912 1882.82,804.04 1884.63,804.173 1886.45,804.292 1888.26,804.395 1890.07,804.529 1891.88,804.645 1893.69,804.776 1895.5,804.906 1897.32,805.038 1899.13,805.168 1900.94,805.301 1902.75,805.439 1904.56,805.573 1906.37,805.699 1908.19,805.822 1910,805.94 1911.81,806.085 1913.62,806.234 1915.43,806.362 1917.24,806.497 1919.05,806.631 1920.87,806.782 1922.68,806.917 1924.49,807.051 1926.3,807.189 1928.11,807.334 1929.92,807.485 1931.74,807.629 1933.55,807.761 1935.36,807.89 1937.17,808.029 1938.98,808.162 1940.79,808.321 1942.61,808.449 1944.42,808.625 1946.23,808.769 1948.04,808.895 1949.85,809.033 1951.66,809.171 1953.48,809.323 1955.29,809.459 1957.1,809.618 1958.91,809.758 1960.72,809.909 1962.53,810.056 1964.35,810.187 1966.16,810.333 1967.97,810.472 1969.78,810.618 1971.59,810.77 1973.4,810.933 1975.22,811.089 1977.03,811.232 1978.84,811.406 1980.65,811.54 1982.46,811.676 1984.27,811.815 1986.09,811.979 1987.9,812.151 1989.71,812.287 1991.52,812.447 1993.33,812.603 1995.14,812.741 1996.96,812.891 1998.77,813.051 2000.58,813.21 2002.39,813.371 2004.2,813.512 2006.01,813.679 2007.83,813.841 2009.64,814.015 2011.45,814.177 2013.26,814.346 2015.07,814.5 2016.88,814.655 2018.69,814.831 2020.51,815.024 2022.32,815.2 2024.13,815.356 2025.94,815.532 2027.75,815.716 2029.56,815.904 2031.38,816.108 2033.19,816.308 2035,816.495 2036.81,816.679 2038.62,816.868 2040.43,817.063 2042.25,817.265 2044.06,817.464 2045.87,817.677 2047.68,817.907 2049.49,818.145 2051.3,818.371 2053.12,818.591 2054.93,818.821 2056.74,819.045 2058.55,819.3 2060.36,819.534 2062.17,819.801 2063.99,820.05 2065.8,820.326 2067.61,820.581 2069.42,820.838 2071.23,821.122 2073.04,821.408 2074.86,821.718 2076.67,822.056 2078.48,822.363 2080.29,822.691 2082.1,823.05 2083.91,823.446 2085.73,823.862 2087.54,824.332 2089.35,824.801 2091.16,825.323 2092.97,825.993 2094.78,826.84 2096.6,828.092 2098.41,832.427 "/>
<polyline clip-path="url(#clip482)" style="stroke:#808080; stroke-linecap:round; stroke-linejoin:round; stroke-width:8; stroke-opacity:1; fill:none" stroke-dasharray="32, 20" points="286.771,70.1135 298.566,75.0766 407.625,120.967 473.165,148.546 528.579,171.863 588.773,197.192 644.267,220.543 703.762,245.578 772.694,274.584 833.952,300.36 887.669,322.964 946.236,347.608 1005.15,372.399 1070.29,399.808 1132.27,425.887 1196.71,453.003 1250.95,475.829 1317.18,503.697 1377.85,529.226 1433.88,552.804 1490.64,576.688 1554.26,603.455 1611.9,627.71 1677.89,655.481 1739,681.194 1799.25,706.544 1857.74,731.156 1917.7,756.388 1983.4,784.031 2078.83,824.188 2098.41,832.427 "/>
<path clip-path="url(#clip480)" d="M1834.35 229.699 L2088.74 229.699 L2088.74 74.1792 L1834.35 74.1792  Z" fill="#ffffff" fill-rule="evenodd" fill-opacity="1"/>
<polyline clip-path="url(#clip480)" style="stroke:#000000; stroke-linecap:round; stroke-linejoin:round; stroke-width:4; stroke-opacity:1; fill:none" points="1834.35,229.699 2088.74,229.699 2088.74,74.1792 1834.35,74.1792 1834.35,229.699 "/>
<polyline clip-path="url(#clip480)" style="stroke:#ff0000; stroke-linecap:round; stroke-linejoin:round; stroke-width:8; stroke-opacity:1; fill:none" points="1855.69,126.019 1983.71,126.019 "/>
<path clip-path="url(#clip480)" d="M2014.65 143.97 Q2005.05 143.97 2005.05 130.221 Q2005.05 124.781 2008.63 117.373 L2013.22 117.373 Q2009.91 124.781 2009.91 130.336 Q2009.91 140.359 2015.05 140.359 Q2019.75 140.359 2019.75 127.906 L2023.68 127.906 Q2023.68 140.359 2028.38 140.359 Q2033.52 140.359 2033.52 130.336 Q2033.52 124.781 2030.21 117.373 L2034.79 117.373 Q2038.38 124.781 2038.38 130.221 Q2038.38 143.97 2028.77 143.97 Q2022.48 143.97 2021.71 137.049 Q2020.76 143.97 2014.65 143.97 Z" fill="#000000" fill-rule="nonzero" fill-opacity="1" /><path clip-path="url(#clip480)" d="M2047.5 139.364 L2055.14 139.364 L2055.14 112.998 L2046.83 114.665 L2046.83 110.406 L2055.09 108.739 L2059.77 108.739 L2059.77 139.364 L2067.41 139.364 L2067.41 143.299 L2047.5 143.299 L2047.5 139.364 Z" fill="#000000" fill-rule="nonzero" fill-opacity="1" /><polyline clip-path="url(#clip480)" style="stroke:#0000ff; stroke-linecap:round; stroke-linejoin:round; stroke-width:8; stroke-opacity:1; fill:none" points="1855.69,177.859 1983.71,177.859 "/>
<path clip-path="url(#clip480)" d="M2014.65 195.81 Q2005.05 195.81 2005.05 182.061 Q2005.05 176.621 2008.63 169.213 L2013.22 169.213 Q2009.91 176.621 2009.91 182.176 Q2009.91 192.199 2015.05 192.199 Q2019.75 192.199 2019.75 179.746 L2023.68 179.746 Q2023.68 192.199 2028.38 192.199 Q2033.52 192.199 2033.52 182.176 Q2033.52 176.621 2030.21 169.213 L2034.79 169.213 Q2038.38 176.621 2038.38 182.061 Q2038.38 195.81 2028.77 195.81 Q2022.48 195.81 2021.71 188.889 Q2020.76 195.81 2014.65 195.81 Z" fill="#000000" fill-rule="nonzero" fill-opacity="1" /><path clip-path="url(#clip480)" d="M2050.72 191.204 L2067.04 191.204 L2067.04 195.139 L2045.09 195.139 L2045.09 191.204 Q2047.76 188.449 2052.34 183.82 Q2056.94 179.167 2058.13 177.824 Q2060.37 175.301 2061.25 173.565 Q2062.15 171.806 2062.15 170.116 Q2062.15 167.362 2060.21 165.625 Q2058.29 163.889 2055.19 163.889 Q2052.99 163.889 2050.53 164.653 Q2048.1 165.417 2045.32 166.968 L2045.32 162.246 Q2048.15 161.112 2050.6 160.533 Q2053.06 159.954 2055.09 159.954 Q2060.46 159.954 2063.66 162.639 Q2066.85 165.325 2066.85 169.815 Q2066.85 171.945 2066.04 173.866 Q2065.25 175.764 2063.15 178.357 Q2062.57 179.028 2059.47 182.246 Q2056.37 185.44 2050.72 191.204 Z" fill="#000000" fill-rule="nonzero" fill-opacity="1" /></svg>
