<?xml version="1.0" encoding="utf-8"?>
<svg xmlns="http://www.w3.org/2000/svg" xmlns:xlink="http://www.w3.org/1999/xlink" width="600" height="400" viewBox="0 0 2400 1600">
<defs>
  <clipPath id="clip580">
    <rect x="0" y="0" width="2400" height="1600"/>
  </clipPath>
</defs>
<path clip-path="url(#clip580)" d="M0 1600 L2400 1600 L2400 0 L0 0  Z" fill="#ffffff" fill-rule="evenodd" fill-opacity="1"/>
<defs>
  <clipPath id="clip581">
    <rect x="480" y="0" width="1681" height="1600"/>
  </clipPath>
</defs>
<path clip-path="url(#clip580)" d="M249.542 1423.18 L2352.76 1423.18 L2352.76 47.2441 L249.542 47.2441  Z" fill="#ffffff" fill-rule="evenodd" fill-opacity="1"/>
<defs>
  <clipPath id="clip582">
    <rect x="249" y="47" width="2104" height="1377"/>
  </clipPath>
</defs>
<polyline clip-path="url(#clip582)" style="stroke:#000000; stroke-linecap:round; stroke-linejoin:round; stroke-width:2; stroke-opacity:0.1; fill:none" points="309.067,1423.18 309.067,47.2441 "/>
<polyline clip-path="url(#clip582)" style="stroke:#000000; stroke-linecap:round; stroke-linejoin:round; stroke-width:2; stroke-opacity:0.1; fill:none" points="805.108,1423.18 805.108,47.2441 "/>
<polyline clip-path="url(#clip582)" style="stroke:#000000; stroke-linecap:round; stroke-linejoin:round; stroke-width:2; stroke-opacity:0.1; fill:none" points="1301.15,1423.18 1301.15,47.2441 "/>
<polyline clip-path="url(#clip582)" style="stroke:#000000; stroke-linecap:round; stroke-linejoin:round; stroke-width:2; stroke-opacity:0.1; fill:none" points="1797.19,1423.18 1797.19,47.2441 "/>
<polyline clip-path="url(#clip582)" style="stroke:#000000; stroke-linecap:round; stroke-linejoin:round; stroke-width:2; stroke-opacity:0.1; fill:none" points="2293.23,1423.18 2293.23,47.2441 "/>
<polyline clip-path="url(#clip580)" style="stroke:#000000; stroke-linecap:round; stroke-linejoin:round; stroke-width:4; stroke-opacity:1; fill:none" points="249.542,1423.18 2352.76,1423.18 "/>
<polyline clip-path="url(#clip580)" style="stroke:#000000; stroke-linecap:round; stroke-linejoin:round; stroke-width:4; stroke-opacity:1; fill:none" points="309.067,1423.18 309.067,1404.28 "/>
<polyline clip-path="url(#clip580)" style="stroke:#000000; stroke-linecap:round; stroke-linejoin:round; stroke-width:4; stroke-opacity:1; fill:none" points="805.108,1423.18 805.108,1404.28 "/>
<polyline clip-path="url(#clip580)" style="stroke:#000000; stroke-linecap:round; stroke-linejoin:round; stroke-width:4; stroke-opacity:1; fill:none" points="1301.15,1423.18 1301.15,1404.28 "/>
<polyline clip-path="url(#clip580)" style="stroke:#000000; stroke-linecap:round; stroke-linejoin:round; stroke-width:4; stroke-opacity:1; fill:none" points="1797.19,1423.18 1797.19,1404.28 "/>
<polyline clip-path="url(#clip580)" style="stroke:#000000; stroke-linecap:round; stroke-linejoin:round; stroke-width:4; stroke-opacity:1; fill:none" points="2293.23,1423.18 2293.23,1404.28 "/>
<path clip-path="url(#clip580)" d="M271.37 1454.1 Q267.759 1454.1 265.931 1457.66 Q264.125 1461.2 264.125 1468.33 Q264.125 1475.44 265.931 1479.01 Q267.759 1482.55 271.37 1482.55 Q275.005 1482.55 276.81 1479.01 Q278.639 1475.44 278.639 1468.33 Q278.639 1461.2 276.81 1457.66 Q275.005 1454.1 271.37 1454.1 M271.37 1450.39 Q277.181 1450.39 280.236 1455 Q283.315 1459.58 283.315 1468.33 Q283.315 1477.06 280.236 1481.67 Q277.181 1486.25 271.37 1486.25 Q265.56 1486.25 262.482 1481.67 Q259.426 1477.06 259.426 1468.33 Q259.426 1459.58 262.482 1455 Q265.56 1450.39 271.37 1450.39 Z" fill="#000000" fill-rule="nonzero" fill-opacity="1" /><path clip-path="url(#clip580)" d="M291.532 1479.7 L296.417 1479.7 L296.417 1485.58 L291.532 1485.58 L291.532 1479.7 Z" fill="#000000" fill-rule="nonzero" fill-opacity="1" /><path clip-path="url(#clip580)" d="M316.602 1454.1 Q312.991 1454.1 311.162 1457.66 Q309.356 1461.2 309.356 1468.33 Q309.356 1475.44 311.162 1479.01 Q312.991 1482.55 316.602 1482.55 Q320.236 1482.55 322.041 1479.01 Q323.87 1475.44 323.87 1468.33 Q323.87 1461.2 322.041 1457.66 Q320.236 1454.1 316.602 1454.1 M316.602 1450.39 Q322.412 1450.39 325.467 1455 Q328.546 1459.58 328.546 1468.33 Q328.546 1477.06 325.467 1481.67 Q322.412 1486.25 316.602 1486.25 Q310.791 1486.25 307.713 1481.67 Q304.657 1477.06 304.657 1468.33 Q304.657 1459.58 307.713 1455 Q310.791 1450.39 316.602 1450.39 Z" fill="#000000" fill-rule="nonzero" fill-opacity="1" /><path clip-path="url(#clip580)" d="M346.764 1454.1 Q343.152 1454.1 341.324 1457.66 Q339.518 1461.2 339.518 1468.33 Q339.518 1475.44 341.324 1479.01 Q343.152 1482.55 346.764 1482.55 Q350.398 1482.55 352.203 1479.01 Q354.032 1475.44 354.032 1468.33 Q354.032 1461.2 352.203 1457.66 Q350.398 1454.1 346.764 1454.1 M346.764 1450.39 Q352.574 1450.39 355.629 1455 Q358.708 1459.58 358.708 1468.33 Q358.708 1477.06 355.629 1481.67 Q352.574 1486.25 346.764 1486.25 Q340.953 1486.25 337.875 1481.67 Q334.819 1477.06 334.819 1468.33 Q334.819 1459.58 337.875 1455 Q340.953 1450.39 346.764 1450.39 Z" fill="#000000" fill-rule="nonzero" fill-opacity="1" /><path clip-path="url(#clip580)" d="M767.909 1454.1 Q764.298 1454.1 762.469 1457.66 Q760.664 1461.2 760.664 1468.33 Q760.664 1475.44 762.469 1479.01 Q764.298 1482.55 767.909 1482.55 Q771.543 1482.55 773.349 1479.01 Q775.178 1475.44 775.178 1468.33 Q775.178 1461.2 773.349 1457.66 Q771.543 1454.1 767.909 1454.1 M767.909 1450.39 Q773.719 1450.39 776.775 1455 Q779.853 1459.58 779.853 1468.33 Q779.853 1477.06 776.775 1481.67 Q773.719 1486.25 767.909 1486.25 Q762.099 1486.25 759.02 1481.67 Q755.965 1477.06 755.965 1468.33 Q755.965 1459.58 759.02 1455 Q762.099 1450.39 767.909 1450.39 Z" fill="#000000" fill-rule="nonzero" fill-opacity="1" /><path clip-path="url(#clip580)" d="M788.071 1479.7 L792.955 1479.7 L792.955 1485.58 L788.071 1485.58 L788.071 1479.7 Z" fill="#000000" fill-rule="nonzero" fill-opacity="1" /><path clip-path="url(#clip580)" d="M807.168 1481.64 L823.487 1481.64 L823.487 1485.58 L801.543 1485.58 L801.543 1481.64 Q804.205 1478.89 808.788 1474.26 Q813.395 1469.61 814.576 1468.27 Q816.821 1465.74 817.7 1464.01 Q818.603 1462.25 818.603 1460.56 Q818.603 1457.8 816.659 1456.07 Q814.738 1454.33 811.636 1454.33 Q809.437 1454.33 806.983 1455.09 Q804.552 1455.86 801.775 1457.41 L801.775 1452.69 Q804.599 1451.55 807.052 1450.97 Q809.506 1450.39 811.543 1450.39 Q816.913 1450.39 820.108 1453.08 Q823.302 1455.77 823.302 1460.26 Q823.302 1462.39 822.492 1464.31 Q821.705 1466.2 819.599 1468.8 Q819.02 1469.47 815.918 1472.69 Q812.816 1475.88 807.168 1481.64 Z" fill="#000000" fill-rule="nonzero" fill-opacity="1" /><path clip-path="url(#clip580)" d="M833.349 1451.02 L851.705 1451.02 L851.705 1454.96 L837.631 1454.96 L837.631 1463.43 Q838.649 1463.08 839.668 1462.92 Q840.686 1462.73 841.705 1462.73 Q847.492 1462.73 850.872 1465.9 Q854.251 1469.08 854.251 1474.49 Q854.251 1480.07 850.779 1483.17 Q847.307 1486.25 840.987 1486.25 Q838.811 1486.25 836.543 1485.88 Q834.298 1485.51 831.89 1484.77 L831.89 1480.07 Q833.974 1481.2 836.196 1481.76 Q838.418 1482.32 840.895 1482.32 Q844.899 1482.32 847.237 1480.21 Q849.575 1478.1 849.575 1474.49 Q849.575 1470.88 847.237 1468.77 Q844.899 1466.67 840.895 1466.67 Q839.02 1466.67 837.145 1467.08 Q835.293 1467.5 833.349 1468.38 L833.349 1451.02 Z" fill="#000000" fill-rule="nonzero" fill-opacity="1" /><path clip-path="url(#clip580)" d="M1263.45 1454.1 Q1259.84 1454.1 1258.01 1457.66 Q1256.21 1461.2 1256.21 1468.33 Q1256.21 1475.44 1258.01 1479.01 Q1259.84 1482.55 1263.45 1482.55 Q1267.09 1482.55 1268.89 1479.01 Q1270.72 1475.44 1270.72 1468.33 Q1270.72 1461.2 1268.89 1457.66 Q1267.09 1454.1 1263.45 1454.1 M1263.45 1450.39 Q1269.26 1450.39 1272.32 1455 Q1275.4 1459.58 1275.4 1468.33 Q1275.4 1477.06 1272.32 1481.67 Q1269.26 1486.25 1263.45 1486.25 Q1257.64 1486.25 1254.56 1481.67 Q1251.51 1477.06 1251.51 1468.33 Q1251.51 1459.58 1254.56 1455 Q1257.64 1450.39 1263.45 1450.39 Z" fill="#000000" fill-rule="nonzero" fill-opacity="1" /><path clip-path="url(#clip580)" d="M1283.61 1479.7 L1288.5 1479.7 L1288.5 1485.58 L1283.61 1485.58 L1283.61 1479.7 Z" fill="#000000" fill-rule="nonzero" fill-opacity="1" /><path clip-path="url(#clip580)" d="M1298.73 1451.02 L1317.09 1451.02 L1317.09 1454.96 L1303.01 1454.96 L1303.01 1463.43 Q1304.03 1463.08 1305.05 1462.92 Q1306.07 1462.73 1307.09 1462.73 Q1312.87 1462.73 1316.25 1465.9 Q1319.63 1469.08 1319.63 1474.49 Q1319.63 1480.07 1316.16 1483.17 Q1312.69 1486.25 1306.37 1486.25 Q1304.19 1486.25 1301.92 1485.88 Q1299.68 1485.51 1297.27 1484.77 L1297.27 1480.07 Q1299.35 1481.2 1301.58 1481.76 Q1303.8 1482.32 1306.28 1482.32 Q1310.28 1482.32 1312.62 1480.21 Q1314.96 1478.1 1314.96 1474.49 Q1314.96 1470.88 1312.62 1468.77 Q1310.28 1466.67 1306.28 1466.67 Q1304.4 1466.67 1302.53 1467.08 Q1300.67 1467.5 1298.73 1468.38 L1298.73 1451.02 Z" fill="#000000" fill-rule="nonzero" fill-opacity="1" /><path clip-path="url(#clip580)" d="M1338.85 1454.1 Q1335.23 1454.1 1333.41 1457.66 Q1331.6 1461.2 1331.6 1468.33 Q1331.6 1475.44 1333.41 1479.01 Q1335.23 1482.55 1338.85 1482.55 Q1342.48 1482.55 1344.29 1479.01 Q1346.11 1475.44 1346.11 1468.33 Q1346.11 1461.2 1344.29 1457.66 Q1342.48 1454.1 1338.85 1454.1 M1338.85 1450.39 Q1344.66 1450.39 1347.71 1455 Q1350.79 1459.58 1350.79 1468.33 Q1350.79 1477.06 1347.71 1481.67 Q1344.66 1486.25 1338.85 1486.25 Q1333.04 1486.25 1329.96 1481.67 Q1326.9 1477.06 1326.9 1468.33 Q1326.9 1459.58 1329.96 1455 Q1333.04 1450.39 1338.85 1450.39 Z" fill="#000000" fill-rule="nonzero" fill-opacity="1" /><path clip-path="url(#clip580)" d="M1759.99 1454.1 Q1756.38 1454.1 1754.55 1457.66 Q1752.75 1461.2 1752.75 1468.33 Q1752.75 1475.44 1754.55 1479.01 Q1756.38 1482.55 1759.99 1482.55 Q1763.63 1482.55 1765.43 1479.01 Q1767.26 1475.44 1767.26 1468.33 Q1767.26 1461.2 1765.43 1457.66 Q1763.63 1454.1 1759.99 1454.1 M1759.99 1450.39 Q1765.8 1450.39 1768.86 1455 Q1771.94 1459.58 1771.94 1468.33 Q1771.94 1477.06 1768.86 1481.67 Q1765.8 1486.25 1759.99 1486.25 Q1754.18 1486.25 1751.1 1481.67 Q1748.05 1477.06 1748.05 1468.33 Q1748.05 1459.58 1751.1 1455 Q1754.18 1450.39 1759.99 1450.39 Z" fill="#000000" fill-rule="nonzero" fill-opacity="1" /><path clip-path="url(#clip580)" d="M1780.15 1479.7 L1785.04 1479.7 L1785.04 1485.58 L1780.15 1485.58 L1780.15 1479.7 Z" fill="#000000" fill-rule="nonzero" fill-opacity="1" /><path clip-path="url(#clip580)" d="M1794.04 1451.02 L1816.26 1451.02 L1816.26 1453.01 L1803.72 1485.58 L1798.83 1485.58 L1810.64 1454.96 L1794.04 1454.96 L1794.04 1451.02 Z" fill="#000000" fill-rule="nonzero" fill-opacity="1" /><path clip-path="url(#clip580)" d="M1825.43 1451.02 L1843.79 1451.02 L1843.79 1454.96 L1829.71 1454.96 L1829.71 1463.43 Q1830.73 1463.08 1831.75 1462.92 Q1832.77 1462.73 1833.79 1462.73 Q1839.57 1462.73 1842.95 1465.9 Q1846.33 1469.08 1846.33 1474.49 Q1846.33 1480.07 1842.86 1483.17 Q1839.39 1486.25 1833.07 1486.25 Q1830.89 1486.25 1828.62 1485.88 Q1826.38 1485.51 1823.97 1484.77 L1823.97 1480.07 Q1826.06 1481.2 1828.28 1481.76 Q1830.5 1482.32 1832.98 1482.32 Q1836.98 1482.32 1839.32 1480.21 Q1841.66 1478.1 1841.66 1474.49 Q1841.66 1470.88 1839.32 1468.77 Q1836.98 1466.67 1832.98 1466.67 Q1831.1 1466.67 1829.23 1467.08 Q1827.37 1467.5 1825.43 1468.38 L1825.43 1451.02 Z" fill="#000000" fill-rule="nonzero" fill-opacity="1" /><path clip-path="url(#clip580)" d="M2245.3 1481.64 L2252.94 1481.64 L2252.94 1455.28 L2244.63 1456.95 L2244.63 1452.69 L2252.9 1451.02 L2257.57 1451.02 L2257.57 1481.64 L2265.21 1481.64 L2265.21 1485.58 L2245.3 1485.58 L2245.3 1481.64 Z" fill="#000000" fill-rule="nonzero" fill-opacity="1" /><path clip-path="url(#clip580)" d="M2274.65 1479.7 L2279.54 1479.7 L2279.54 1485.58 L2274.65 1485.58 L2274.65 1479.7 Z" fill="#000000" fill-rule="nonzero" fill-opacity="1" /><path clip-path="url(#clip580)" d="M2299.72 1454.1 Q2296.11 1454.1 2294.28 1457.66 Q2292.48 1461.2 2292.48 1468.33 Q2292.48 1475.44 2294.28 1479.01 Q2296.11 1482.55 2299.72 1482.55 Q2303.36 1482.55 2305.16 1479.01 Q2306.99 1475.44 2306.99 1468.33 Q2306.99 1461.2 2305.16 1457.66 Q2303.36 1454.1 2299.72 1454.1 M2299.72 1450.39 Q2305.53 1450.39 2308.59 1455 Q2311.67 1459.58 2311.67 1468.33 Q2311.67 1477.06 2308.59 1481.67 Q2305.53 1486.25 2299.72 1486.25 Q2293.91 1486.25 2290.84 1481.67 Q2287.78 1477.06 2287.78 1468.33 Q2287.78 1459.58 2290.84 1455 Q2293.91 1450.39 2299.72 1450.39 Z" fill="#000000" fill-rule="nonzero" fill-opacity="1" /><path clip-path="url(#clip580)" d="M2329.89 1454.1 Q2326.27 1454.1 2324.45 1457.66 Q2322.64 1461.2 2322.64 1468.33 Q2322.64 1475.44 2324.45 1479.01 Q2326.27 1482.55 2329.89 1482.55 Q2333.52 1482.55 2335.33 1479.01 Q2337.15 1475.44 2337.15 1468.33 Q2337.15 1461.2 2335.33 1457.66 Q2333.52 1454.1 2329.89 1454.1 M2329.89 1450.39 Q2335.7 1450.39 2338.75 1455 Q2341.83 1459.58 2341.83 1468.33 Q2341.83 1477.06 2338.75 1481.67 Q2335.7 1486.25 2329.89 1486.25 Q2324.08 1486.25 2321 1481.67 Q2317.94 1477.06 2317.94 1468.33 Q2317.94 1459.58 2321 1455 Q2324.08 1450.39 2329.89 1450.39 Z" fill="#000000" fill-rule="nonzero" fill-opacity="1" /><path clip-path="url(#clip580)" d="M816.066 1525.81 L816.066 1543.66 L824.151 1543.66 Q828.638 1543.66 831.089 1541.34 Q833.54 1539.02 833.54 1534.72 Q833.54 1530.45 831.089 1528.13 Q828.638 1525.81 824.151 1525.81 L816.066 1525.81 M809.637 1520.52 L824.151 1520.52 Q832.14 1520.52 836.214 1524.15 Q840.32 1527.75 840.32 1534.72 Q840.32 1541.75 836.214 1545.35 Q832.14 1548.95 824.151 1548.95 L816.066 1548.95 L816.066 1568.04 L809.637 1568.04 L809.637 1520.52 Z" fill="#000000" fill-rule="nonzero" fill-opacity="1" /><path clip-path="url(#clip580)" d="M860.181 1536.5 Q855.47 1536.5 852.733 1540.19 Q849.995 1543.85 849.995 1550.25 Q849.995 1556.65 852.701 1560.34 Q855.438 1564 860.181 1564 Q864.859 1564 867.597 1560.31 Q870.334 1556.62 870.334 1550.25 Q870.334 1543.92 867.597 1540.23 Q864.859 1536.5 860.181 1536.5 M860.181 1531.54 Q867.819 1531.54 872.18 1536.5 Q876.54 1541.47 876.54 1550.25 Q876.54 1559 872.18 1564 Q867.819 1568.97 860.181 1568.97 Q852.51 1568.97 848.149 1564 Q843.821 1559 843.821 1550.25 Q843.821 1541.47 848.149 1536.5 Q852.51 1531.54 860.181 1531.54 Z" fill="#000000" fill-rule="nonzero" fill-opacity="1" /><path clip-path="url(#clip580)" d="M908.974 1533.45 L908.974 1538.98 Q906.491 1537.71 903.817 1537.07 Q901.144 1536.44 898.279 1536.44 Q893.919 1536.44 891.723 1537.77 Q889.558 1539.11 889.558 1541.79 Q889.558 1543.82 891.118 1545 Q892.677 1546.15 897.388 1547.2 L899.393 1547.64 Q905.632 1548.98 908.242 1551.43 Q910.883 1553.85 910.883 1558.21 Q910.883 1563.17 906.937 1566.07 Q903.022 1568.97 896.147 1568.97 Q893.282 1568.97 890.163 1568.39 Q887.076 1567.85 883.638 1566.74 L883.638 1560.69 Q886.885 1562.38 890.036 1563.24 Q893.187 1564.07 896.274 1564.07 Q900.412 1564.07 902.64 1562.66 Q904.868 1561.23 904.868 1558.65 Q904.868 1556.27 903.245 1554.99 Q901.653 1553.72 896.21 1552.54 L894.173 1552.07 Q888.731 1550.92 886.312 1548.56 Q883.893 1546.18 883.893 1542.04 Q883.893 1537.01 887.458 1534.27 Q891.022 1531.54 897.579 1531.54 Q900.826 1531.54 903.69 1532.01 Q906.555 1532.49 908.974 1533.45 Z" fill="#000000" fill-rule="nonzero" fill-opacity="1" /><path clip-path="url(#clip580)" d="M926.002 1522.27 L926.002 1532.4 L938.065 1532.4 L938.065 1536.95 L926.002 1536.95 L926.002 1556.3 Q926.002 1560.66 927.18 1561.9 Q928.389 1563.14 932.049 1563.14 L938.065 1563.14 L938.065 1568.04 L932.049 1568.04 Q925.27 1568.04 922.692 1565.53 Q920.114 1562.98 920.114 1556.3 L920.114 1536.95 L915.817 1536.95 L915.817 1532.4 L920.114 1532.4 L920.114 1522.27 L926.002 1522.27 Z" fill="#000000" fill-rule="nonzero" fill-opacity="1" /><path clip-path="url(#clip580)" d="M976.259 1548.76 L976.259 1551.62 L949.332 1551.62 Q949.714 1557.67 952.961 1560.85 Q956.239 1564 962.064 1564 Q965.438 1564 968.589 1563.17 Q971.771 1562.35 974.891 1560.69 L974.891 1566.23 Q971.74 1567.57 968.429 1568.27 Q965.119 1568.97 961.714 1568.97 Q953.184 1568.97 948.186 1564 Q943.221 1559.04 943.221 1550.57 Q943.221 1541.82 947.932 1536.69 Q952.674 1531.54 960.695 1531.54 Q967.888 1531.54 972.058 1536.18 Q976.259 1540.8 976.259 1548.76 M970.403 1547.04 Q970.339 1542.23 967.697 1539.37 Q965.087 1536.5 960.759 1536.5 Q955.857 1536.5 952.897 1539.27 Q949.969 1542.04 949.523 1547.07 L970.403 1547.04 Z" fill="#000000" fill-rule="nonzero" fill-opacity="1" /><path clip-path="url(#clip580)" d="M1006.53 1537.87 Q1005.54 1537.3 1004.36 1537.04 Q1003.22 1536.76 1001.82 1536.76 Q996.852 1536.76 994.179 1540 Q991.537 1543.22 991.537 1549.27 L991.537 1568.04 L985.649 1568.04 L985.649 1532.4 L991.537 1532.4 L991.537 1537.93 Q993.383 1534.69 996.343 1533.13 Q999.303 1531.54 1003.54 1531.54 Q1004.14 1531.54 1004.87 1531.63 Q1005.61 1531.7 1006.5 1531.85 L1006.53 1537.87 Z" fill="#000000" fill-rule="nonzero" fill-opacity="1" /><path clip-path="url(#clip580)" d="M1012.67 1532.4 L1018.53 1532.4 L1018.53 1568.04 L1012.67 1568.04 L1012.67 1532.4 M1012.67 1518.52 L1018.53 1518.52 L1018.53 1525.93 L1012.67 1525.93 L1012.67 1518.52 Z" fill="#000000" fill-rule="nonzero" fill-opacity="1" /><path clip-path="url(#clip580)" d="M1044.6 1536.5 Q1039.88 1536.5 1037.15 1540.19 Q1034.41 1543.85 1034.41 1550.25 Q1034.41 1556.65 1037.12 1560.34 Q1039.85 1564 1044.6 1564 Q1049.27 1564 1052.01 1560.31 Q1054.75 1556.62 1054.75 1550.25 Q1054.75 1543.92 1052.01 1540.23 Q1049.27 1536.5 1044.6 1536.5 M1044.6 1531.54 Q1052.23 1531.54 1056.59 1536.5 Q1060.95 1541.47 1060.95 1550.25 Q1060.95 1559 1056.59 1564 Q1052.23 1568.97 1044.6 1568.97 Q1036.92 1568.97 1032.56 1564 Q1028.24 1559 1028.24 1550.25 Q1028.24 1541.47 1032.56 1536.5 Q1036.92 1531.54 1044.6 1531.54 Z" fill="#000000" fill-rule="nonzero" fill-opacity="1" /><path clip-path="url(#clip580)" d="M1091.32 1537.87 Q1090.33 1537.3 1089.16 1537.04 Q1088.01 1536.76 1086.61 1536.76 Q1081.64 1536.76 1078.97 1540 Q1076.33 1543.22 1076.33 1549.27 L1076.33 1568.04 L1070.44 1568.04 L1070.44 1532.4 L1076.33 1532.4 L1076.33 1537.93 Q1078.17 1534.69 1081.13 1533.13 Q1084.09 1531.54 1088.33 1531.54 Q1088.93 1531.54 1089.66 1531.63 Q1090.4 1531.7 1091.29 1531.85 L1091.32 1537.87 Z" fill="#000000" fill-rule="nonzero" fill-opacity="1" /><path clip-path="url(#clip580)" d="M1124.87 1525.81 L1124.87 1543.66 L1132.95 1543.66 Q1137.44 1543.66 1139.89 1541.34 Q1142.34 1539.02 1142.34 1534.72 Q1142.34 1530.45 1139.89 1528.13 Q1137.44 1525.81 1132.95 1525.81 L1124.87 1525.81 M1118.44 1520.52 L1132.95 1520.52 Q1140.94 1520.52 1145.01 1524.15 Q1149.12 1527.75 1149.12 1534.72 Q1149.12 1541.75 1145.01 1545.35 Q1140.94 1548.95 1132.95 1548.95 L1124.87 1548.95 L1124.87 1568.04 L1118.44 1568.04 L1118.44 1520.52 Z" fill="#000000" fill-rule="nonzero" fill-opacity="1" /><path clip-path="url(#clip580)" d="M1177 1537.87 Q1176.02 1537.3 1174.84 1537.04 Q1173.69 1536.76 1172.29 1536.76 Q1167.33 1536.76 1164.65 1540 Q1162.01 1543.22 1162.01 1549.27 L1162.01 1568.04 L1156.12 1568.04 L1156.12 1532.4 L1162.01 1532.4 L1162.01 1537.93 Q1163.86 1534.69 1166.82 1533.13 Q1169.78 1531.54 1174.01 1531.54 Q1174.61 1531.54 1175.35 1531.63 Q1176.08 1531.7 1176.97 1531.85 L1177 1537.87 Z" fill="#000000" fill-rule="nonzero" fill-opacity="1" /><path clip-path="url(#clip580)" d="M1195.53 1536.5 Q1190.82 1536.5 1188.08 1540.19 Q1185.34 1543.85 1185.34 1550.25 Q1185.34 1556.65 1188.05 1560.34 Q1190.78 1564 1195.53 1564 Q1200.2 1564 1202.94 1560.31 Q1205.68 1556.62 1205.68 1550.25 Q1205.68 1543.92 1202.94 1540.23 Q1200.2 1536.5 1195.53 1536.5 M1195.53 1531.54 Q1203.16 1531.54 1207.53 1536.5 Q1211.89 1541.47 1211.89 1550.25 Q1211.89 1559 1207.53 1564 Q1203.16 1568.97 1195.53 1568.97 Q1187.86 1568.97 1183.49 1564 Q1179.17 1559 1179.17 1550.25 Q1179.17 1541.47 1183.49 1536.5 Q1187.86 1531.54 1195.53 1531.54 Z" fill="#000000" fill-rule="nonzero" fill-opacity="1" /><path clip-path="url(#clip580)" d="M1247.18 1550.25 Q1247.18 1543.79 1244.51 1540.13 Q1241.87 1536.44 1237.22 1536.44 Q1232.57 1536.44 1229.9 1540.13 Q1227.26 1543.79 1227.26 1550.25 Q1227.26 1556.71 1229.9 1560.4 Q1232.57 1564.07 1237.22 1564.07 Q1241.87 1564.07 1244.51 1560.4 Q1247.18 1556.71 1247.18 1550.25 M1227.26 1537.81 Q1229.11 1534.62 1231.91 1533.1 Q1234.74 1531.54 1238.65 1531.54 Q1245.15 1531.54 1249.19 1536.69 Q1253.26 1541.85 1253.26 1550.25 Q1253.26 1558.65 1249.19 1563.81 Q1245.15 1568.97 1238.65 1568.97 Q1234.74 1568.97 1231.91 1567.44 Q1229.11 1565.88 1227.26 1562.7 L1227.26 1568.04 L1221.37 1568.04 L1221.37 1518.52 L1227.26 1518.52 L1227.26 1537.81 Z" fill="#000000" fill-rule="nonzero" fill-opacity="1" /><path clip-path="url(#clip580)" d="M1279.17 1550.12 Q1272.07 1550.12 1269.34 1551.75 Q1266.6 1553.37 1266.6 1557.29 Q1266.6 1560.4 1268.64 1562.25 Q1270.7 1564.07 1274.24 1564.07 Q1279.11 1564.07 1282.04 1560.63 Q1285 1557.16 1285 1551.43 L1285 1550.12 L1279.17 1550.12 M1290.85 1547.71 L1290.85 1568.04 L1285 1568.04 L1285 1562.63 Q1282.99 1565.88 1280 1567.44 Q1277.01 1568.97 1272.68 1568.97 Q1267.2 1568.97 1263.96 1565.91 Q1260.74 1562.82 1260.74 1557.67 Q1260.74 1551.65 1264.75 1548.6 Q1268.8 1545.54 1276.78 1545.54 L1285 1545.54 L1285 1544.97 Q1285 1540.93 1282.32 1538.73 Q1279.68 1536.5 1274.87 1536.5 Q1271.82 1536.5 1268.92 1537.23 Q1266.03 1537.97 1263.35 1539.43 L1263.35 1534.02 Q1266.57 1532.78 1269.59 1532.17 Q1272.61 1531.54 1275.48 1531.54 Q1283.21 1531.54 1287.03 1535.55 Q1290.85 1539.56 1290.85 1547.71 Z" fill="#000000" fill-rule="nonzero" fill-opacity="1" /><path clip-path="url(#clip580)" d="M1328.51 1550.25 Q1328.51 1543.79 1325.83 1540.13 Q1323.19 1536.44 1318.54 1536.44 Q1313.9 1536.44 1311.22 1540.13 Q1308.58 1543.79 1308.58 1550.25 Q1308.58 1556.71 1311.22 1560.4 Q1313.9 1564.07 1318.54 1564.07 Q1323.19 1564.07 1325.83 1560.4 Q1328.51 1556.71 1328.51 1550.25 M1308.58 1537.81 Q1310.43 1534.62 1313.23 1533.1 Q1316.06 1531.54 1319.98 1531.54 Q1326.47 1531.54 1330.51 1536.69 Q1334.58 1541.85 1334.58 1550.25 Q1334.58 1558.65 1330.51 1563.81 Q1326.47 1568.97 1319.98 1568.97 Q1316.06 1568.97 1313.23 1567.44 Q1310.43 1565.88 1308.58 1562.7 L1308.58 1568.04 L1302.69 1568.04 L1302.69 1518.52 L1308.58 1518.52 L1308.58 1537.81 Z" fill="#000000" fill-rule="nonzero" fill-opacity="1" /><path clip-path="url(#clip580)" d="M1344.29 1532.4 L1350.15 1532.4 L1350.15 1568.04 L1344.29 1568.04 L1344.29 1532.4 M1344.29 1518.52 L1350.15 1518.52 L1350.15 1525.93 L1344.29 1525.93 L1344.29 1518.52 Z" fill="#000000" fill-rule="nonzero" fill-opacity="1" /><path clip-path="url(#clip580)" d="M1362.4 1518.52 L1368.26 1518.52 L1368.26 1568.04 L1362.4 1568.04 L1362.4 1518.52 Z" fill="#000000" fill-rule="nonzero" fill-opacity="1" /><path clip-path="url(#clip580)" d="M1380.51 1532.4 L1386.37 1532.4 L1386.37 1568.04 L1380.51 1568.04 L1380.51 1532.4 M1380.51 1518.52 L1386.37 1518.52 L1386.37 1525.93 L1380.51 1525.93 L1380.51 1518.52 Z" fill="#000000" fill-rule="nonzero" fill-opacity="1" /><path clip-path="url(#clip580)" d="M1404.42 1522.27 L1404.42 1532.4 L1416.48 1532.4 L1416.48 1536.95 L1404.42 1536.95 L1404.42 1556.3 Q1404.42 1560.66 1405.59 1561.9 Q1406.8 1563.14 1410.46 1563.14 L1416.48 1563.14 L1416.48 1568.04 L1410.46 1568.04 Q1403.68 1568.04 1401.11 1565.53 Q1398.53 1562.98 1398.53 1556.3 L1398.53 1536.95 L1394.23 1536.95 L1394.23 1532.4 L1398.53 1532.4 L1398.53 1522.27 L1404.42 1522.27 Z" fill="#000000" fill-rule="nonzero" fill-opacity="1" /><path clip-path="url(#clip580)" d="M1439.01 1571.35 Q1436.53 1577.72 1434.18 1579.66 Q1431.82 1581.6 1427.87 1581.6 L1423.2 1581.6 L1423.2 1576.7 L1426.63 1576.7 Q1429.05 1576.7 1430.39 1575.56 Q1431.73 1574.41 1433.35 1570.14 L1434.4 1567.47 L1419.98 1532.4 L1426.19 1532.4 L1437.33 1560.28 L1448.47 1532.4 L1454.67 1532.4 L1439.01 1571.35 Z" fill="#000000" fill-rule="nonzero" fill-opacity="1" /><path clip-path="url(#clip580)" d="M1477.14 1520.52 L1517.34 1520.52 L1517.34 1525.93 L1500.48 1525.93 L1500.48 1568.04 L1494.01 1568.04 L1494.01 1525.93 L1477.14 1525.93 L1477.14 1520.52 Z" fill="#000000" fill-rule="nonzero" fill-opacity="1" /><path clip-path="url(#clip580)" d="M1552.93 1546.53 L1552.93 1568.04 L1547.07 1568.04 L1547.07 1546.72 Q1547.07 1541.66 1545.1 1539.14 Q1543.13 1536.63 1539.18 1536.63 Q1534.44 1536.63 1531.7 1539.65 Q1528.96 1542.68 1528.96 1547.9 L1528.96 1568.04 L1523.07 1568.04 L1523.07 1518.52 L1528.96 1518.52 L1528.96 1537.93 Q1531.06 1534.72 1533.9 1533.13 Q1536.76 1531.54 1540.48 1531.54 Q1546.63 1531.54 1549.78 1535.36 Q1552.93 1539.14 1552.93 1546.53 Z" fill="#000000" fill-rule="nonzero" fill-opacity="1" /><path clip-path="url(#clip580)" d="M1585.27 1537.87 Q1584.28 1537.3 1583.1 1537.04 Q1581.96 1536.76 1580.56 1536.76 Q1575.59 1536.76 1572.92 1540 Q1570.28 1543.22 1570.28 1549.27 L1570.28 1568.04 L1564.39 1568.04 L1564.39 1532.4 L1570.28 1532.4 L1570.28 1537.93 Q1572.12 1534.69 1575.08 1533.13 Q1578.04 1531.54 1582.27 1531.54 Q1582.88 1531.54 1583.61 1531.63 Q1584.34 1531.7 1585.23 1531.85 L1585.27 1537.87 Z" fill="#000000" fill-rule="nonzero" fill-opacity="1" /><path clip-path="url(#clip580)" d="M1620.47 1548.76 L1620.47 1551.62 L1593.54 1551.62 Q1593.92 1557.67 1597.17 1560.85 Q1600.45 1564 1606.27 1564 Q1609.65 1564 1612.8 1563.17 Q1615.98 1562.35 1619.1 1560.69 L1619.1 1566.23 Q1615.95 1567.57 1612.64 1568.27 Q1609.33 1568.97 1605.92 1568.97 Q1597.39 1568.97 1592.4 1564 Q1587.43 1559.04 1587.43 1550.57 Q1587.43 1541.82 1592.14 1536.69 Q1596.88 1531.54 1604.9 1531.54 Q1612.1 1531.54 1616.27 1536.18 Q1620.47 1540.8 1620.47 1548.76 M1614.61 1547.04 Q1614.55 1542.23 1611.91 1539.37 Q1609.3 1536.5 1604.97 1536.5 Q1600.07 1536.5 1597.11 1539.27 Q1594.18 1542.04 1593.73 1547.07 L1614.61 1547.04 Z" fill="#000000" fill-rule="nonzero" fill-opacity="1" /><path clip-path="url(#clip580)" d="M1652.81 1533.45 L1652.81 1538.98 Q1650.32 1537.71 1647.65 1537.07 Q1644.98 1536.44 1642.11 1536.44 Q1637.75 1536.44 1635.56 1537.77 Q1633.39 1539.11 1633.39 1541.79 Q1633.39 1543.82 1634.95 1545 Q1636.51 1546.15 1641.22 1547.2 L1643.23 1547.64 Q1649.46 1548.98 1652.07 1551.43 Q1654.72 1553.85 1654.72 1558.21 Q1654.72 1563.17 1650.77 1566.07 Q1646.85 1568.97 1639.98 1568.97 Q1637.12 1568.97 1634 1568.39 Q1630.91 1567.85 1627.47 1566.74 L1627.47 1560.69 Q1630.72 1562.38 1633.87 1563.24 Q1637.02 1564.07 1640.11 1564.07 Q1644.24 1564.07 1646.47 1562.66 Q1648.7 1561.23 1648.7 1558.65 Q1648.7 1556.27 1647.08 1554.99 Q1645.49 1553.72 1640.04 1552.54 L1638.01 1552.07 Q1632.56 1550.92 1630.14 1548.56 Q1627.73 1546.18 1627.73 1542.04 Q1627.73 1537.01 1631.29 1534.27 Q1634.86 1531.54 1641.41 1531.54 Q1644.66 1531.54 1647.52 1532.01 Q1650.39 1532.49 1652.81 1533.45 Z" fill="#000000" fill-rule="nonzero" fill-opacity="1" /><path clip-path="url(#clip580)" d="M1693.67 1546.53 L1693.67 1568.04 L1687.82 1568.04 L1687.82 1546.72 Q1687.82 1541.66 1685.84 1539.14 Q1683.87 1536.63 1679.92 1536.63 Q1675.18 1536.63 1672.44 1539.65 Q1669.71 1542.68 1669.71 1547.9 L1669.71 1568.04 L1663.82 1568.04 L1663.82 1518.52 L1669.71 1518.52 L1669.71 1537.93 Q1671.81 1534.72 1674.64 1533.13 Q1677.51 1531.54 1681.23 1531.54 Q1687.37 1531.54 1690.52 1535.36 Q1693.67 1539.14 1693.67 1546.53 Z" fill="#000000" fill-rule="nonzero" fill-opacity="1" /><path clip-path="url(#clip580)" d="M1719.17 1536.5 Q1714.46 1536.5 1711.72 1540.19 Q1708.98 1543.85 1708.98 1550.25 Q1708.98 1556.65 1711.69 1560.34 Q1714.43 1564 1719.17 1564 Q1723.85 1564 1726.59 1560.31 Q1729.32 1556.62 1729.32 1550.25 Q1729.32 1543.92 1726.59 1540.23 Q1723.85 1536.5 1719.17 1536.5 M1719.17 1531.54 Q1726.81 1531.54 1731.17 1536.5 Q1735.53 1541.47 1735.53 1550.25 Q1735.53 1559 1731.17 1564 Q1726.81 1568.97 1719.17 1568.97 Q1711.5 1568.97 1707.14 1564 Q1702.81 1559 1702.81 1550.25 Q1702.81 1541.47 1707.14 1536.5 Q1711.5 1531.54 1719.17 1531.54 Z" fill="#000000" fill-rule="nonzero" fill-opacity="1" /><path clip-path="url(#clip580)" d="M1745.24 1518.52 L1751.09 1518.52 L1751.09 1568.04 L1745.24 1568.04 L1745.24 1518.52 Z" fill="#000000" fill-rule="nonzero" fill-opacity="1" /><path clip-path="url(#clip580)" d="M1786.8 1537.81 L1786.8 1518.52 L1792.66 1518.52 L1792.66 1568.04 L1786.8 1568.04 L1786.8 1562.7 Q1784.96 1565.88 1782.13 1567.44 Q1779.32 1568.97 1775.38 1568.97 Q1768.92 1568.97 1764.84 1563.81 Q1760.8 1558.65 1760.8 1550.25 Q1760.8 1541.85 1764.84 1536.69 Q1768.92 1531.54 1775.38 1531.54 Q1779.32 1531.54 1782.13 1533.1 Q1784.96 1534.62 1786.8 1537.81 M1766.85 1550.25 Q1766.85 1556.71 1769.49 1560.4 Q1772.16 1564.07 1776.81 1564.07 Q1781.46 1564.07 1784.13 1560.4 Q1786.8 1556.71 1786.8 1550.25 Q1786.8 1543.79 1784.13 1540.13 Q1781.46 1536.44 1776.81 1536.44 Q1772.16 1536.44 1769.49 1540.13 Q1766.85 1543.79 1766.85 1550.25 Z" fill="#000000" fill-rule="nonzero" fill-opacity="1" /><polyline clip-path="url(#clip582)" style="stroke:#000000; stroke-linecap:round; stroke-linejoin:round; stroke-width:2; stroke-opacity:0.1; fill:none" points="249.542,1384.24 2352.76,1384.24 "/>
<polyline clip-path="url(#clip582)" style="stroke:#000000; stroke-linecap:round; stroke-linejoin:round; stroke-width:2; stroke-opacity:0.1; fill:none" points="249.542,1059.73 2352.76,1059.73 "/>
<polyline clip-path="url(#clip582)" style="stroke:#000000; stroke-linecap:round; stroke-linejoin:round; stroke-width:2; stroke-opacity:0.1; fill:none" points="249.542,735.212 2352.76,735.212 "/>
<polyline clip-path="url(#clip582)" style="stroke:#000000; stroke-linecap:round; stroke-linejoin:round; stroke-width:2; stroke-opacity:0.1; fill:none" points="249.542,410.699 2352.76,410.699 "/>
<polyline clip-path="url(#clip582)" style="stroke:#000000; stroke-linecap:round; stroke-linejoin:round; stroke-width:2; stroke-opacity:0.1; fill:none" points="249.542,86.1857 2352.76,86.1857 "/>
<polyline clip-path="url(#clip580)" style="stroke:#000000; stroke-linecap:round; stroke-linejoin:round; stroke-width:4; stroke-opacity:1; fill:none" points="249.542,1423.18 249.542,47.2441 "/>
<polyline clip-path="url(#clip580)" style="stroke:#000000; stroke-linecap:round; stroke-linejoin:round; stroke-width:4; stroke-opacity:1; fill:none" points="249.542,1384.24 268.44,1384.24 "/>
<polyline clip-path="url(#clip580)" style="stroke:#000000; stroke-linecap:round; stroke-linejoin:round; stroke-width:4; stroke-opacity:1; fill:none" points="249.542,1059.73 268.44,1059.73 "/>
<polyline clip-path="url(#clip580)" style="stroke:#000000; stroke-linecap:round; stroke-linejoin:round; stroke-width:4; stroke-opacity:1; fill:none" points="249.542,735.212 268.44,735.212 "/>
<polyline clip-path="url(#clip580)" style="stroke:#000000; stroke-linecap:round; stroke-linejoin:round; stroke-width:4; stroke-opacity:1; fill:none" points="249.542,410.699 268.44,410.699 "/>
<polyline clip-path="url(#clip580)" style="stroke:#000000; stroke-linecap:round; stroke-linejoin:round; stroke-width:4; stroke-opacity:1; fill:none" points="249.542,86.1857 268.44,86.1857 "/>
<path clip-path="url(#clip580)" d="M126.205 1370.04 Q122.593 1370.04 120.765 1373.6 Q118.959 1377.14 118.959 1384.27 Q118.959 1391.38 120.765 1394.94 Q122.593 1398.49 126.205 1398.49 Q129.839 1398.49 131.644 1394.94 Q133.473 1391.38 133.473 1384.27 Q133.473 1377.14 131.644 1373.6 Q129.839 1370.04 126.205 1370.04 M126.205 1366.33 Q132.015 1366.33 135.07 1370.94 Q138.149 1375.52 138.149 1384.27 Q138.149 1393 135.07 1397.61 Q132.015 1402.19 126.205 1402.19 Q120.394 1402.19 117.316 1397.61 Q114.26 1393 114.26 1384.27 Q114.26 1375.52 117.316 1370.94 Q120.394 1366.33 126.205 1366.33 Z" fill="#000000" fill-rule="nonzero" fill-opacity="1" /><path clip-path="url(#clip580)" d="M146.366 1395.64 L151.251 1395.64 L151.251 1401.52 L146.366 1401.52 L146.366 1395.64 Z" fill="#000000" fill-rule="nonzero" fill-opacity="1" /><path clip-path="url(#clip580)" d="M171.436 1370.04 Q167.825 1370.04 165.996 1373.6 Q164.19 1377.14 164.19 1384.27 Q164.19 1391.38 165.996 1394.94 Q167.825 1398.49 171.436 1398.49 Q175.07 1398.49 176.876 1394.94 Q178.704 1391.38 178.704 1384.27 Q178.704 1377.14 176.876 1373.6 Q175.07 1370.04 171.436 1370.04 M171.436 1366.33 Q177.246 1366.33 180.301 1370.94 Q183.38 1375.52 183.38 1384.27 Q183.38 1393 180.301 1397.61 Q177.246 1402.19 171.436 1402.19 Q165.626 1402.19 162.547 1397.61 Q159.491 1393 159.491 1384.27 Q159.491 1375.52 162.547 1370.94 Q165.626 1366.33 171.436 1366.33 Z" fill="#000000" fill-rule="nonzero" fill-opacity="1" /><path clip-path="url(#clip580)" d="M201.598 1370.04 Q197.987 1370.04 196.158 1373.6 Q194.352 1377.14 194.352 1384.27 Q194.352 1391.38 196.158 1394.94 Q197.987 1398.49 201.598 1398.49 Q205.232 1398.49 207.037 1394.94 Q208.866 1391.38 208.866 1384.27 Q208.866 1377.14 207.037 1373.6 Q205.232 1370.04 201.598 1370.04 M201.598 1366.33 Q207.408 1366.33 210.463 1370.94 Q213.542 1375.52 213.542 1384.27 Q213.542 1393 210.463 1397.61 Q207.408 1402.19 201.598 1402.19 Q195.787 1402.19 192.709 1397.61 Q189.653 1393 189.653 1384.27 Q189.653 1375.52 192.709 1370.94 Q195.787 1366.33 201.598 1366.33 Z" fill="#000000" fill-rule="nonzero" fill-opacity="1" /><path clip-path="url(#clip580)" d="M127.2 1045.52 Q123.589 1045.52 121.76 1049.09 Q119.955 1052.63 119.955 1059.76 Q119.955 1066.87 121.76 1070.43 Q123.589 1073.97 127.2 1073.97 Q130.834 1073.97 132.64 1070.43 Q134.468 1066.87 134.468 1059.76 Q134.468 1052.63 132.64 1049.09 Q130.834 1045.52 127.2 1045.52 M127.2 1041.82 Q133.01 1041.82 136.066 1046.43 Q139.144 1051.01 139.144 1059.76 Q139.144 1068.49 136.066 1073.09 Q133.01 1077.68 127.2 1077.68 Q121.39 1077.68 118.311 1073.09 Q115.256 1068.49 115.256 1059.76 Q115.256 1051.01 118.311 1046.43 Q121.39 1041.82 127.2 1041.82 Z" fill="#000000" fill-rule="nonzero" fill-opacity="1" /><path clip-path="url(#clip580)" d="M147.362 1071.13 L152.246 1071.13 L152.246 1077.01 L147.362 1077.01 L147.362 1071.13 Z" fill="#000000" fill-rule="nonzero" fill-opacity="1" /><path clip-path="url(#clip580)" d="M166.459 1073.07 L182.778 1073.07 L182.778 1077.01 L160.834 1077.01 L160.834 1073.07 Q163.496 1070.32 168.079 1065.69 Q172.686 1061.03 173.866 1059.69 Q176.112 1057.17 176.991 1055.43 Q177.894 1053.67 177.894 1051.98 Q177.894 1049.23 175.95 1047.49 Q174.028 1045.76 170.927 1045.76 Q168.727 1045.76 166.274 1046.52 Q163.843 1047.28 161.065 1048.83 L161.065 1044.11 Q163.89 1042.98 166.343 1042.4 Q168.797 1041.82 170.834 1041.82 Q176.204 1041.82 179.399 1044.51 Q182.593 1047.19 182.593 1051.68 Q182.593 1053.81 181.783 1055.73 Q180.996 1057.63 178.889 1060.22 Q178.311 1060.89 175.209 1064.11 Q172.107 1067.31 166.459 1073.07 Z" fill="#000000" fill-rule="nonzero" fill-opacity="1" /><path clip-path="url(#clip580)" d="M192.639 1042.45 L210.996 1042.45 L210.996 1046.38 L196.922 1046.38 L196.922 1054.85 Q197.94 1054.51 198.959 1054.34 Q199.977 1054.16 200.996 1054.16 Q206.783 1054.16 210.162 1057.33 Q213.542 1060.5 213.542 1065.92 Q213.542 1071.5 210.07 1074.6 Q206.598 1077.68 200.278 1077.68 Q198.102 1077.68 195.834 1077.31 Q193.588 1076.94 191.181 1076.19 L191.181 1071.5 Q193.264 1072.63 195.487 1073.19 Q197.709 1073.74 200.186 1073.74 Q204.19 1073.74 206.528 1071.63 Q208.866 1069.53 208.866 1065.92 Q208.866 1062.31 206.528 1060.2 Q204.19 1058.09 200.186 1058.09 Q198.311 1058.09 196.436 1058.51 Q194.584 1058.93 192.639 1059.81 L192.639 1042.45 Z" fill="#000000" fill-rule="nonzero" fill-opacity="1" /><path clip-path="url(#clip580)" d="M126.205 721.011 Q122.593 721.011 120.765 724.575 Q118.959 728.117 118.959 735.247 Q118.959 742.353 120.765 745.918 Q122.593 749.46 126.205 749.46 Q129.839 749.46 131.644 745.918 Q133.473 742.353 133.473 735.247 Q133.473 728.117 131.644 724.575 Q129.839 721.011 126.205 721.011 M126.205 717.307 Q132.015 717.307 135.07 721.913 Q138.149 726.497 138.149 735.247 Q138.149 743.973 135.07 748.58 Q132.015 753.163 126.205 753.163 Q120.394 753.163 117.316 748.58 Q114.26 743.973 114.26 735.247 Q114.26 726.497 117.316 721.913 Q120.394 717.307 126.205 717.307 Z" fill="#000000" fill-rule="nonzero" fill-opacity="1" /><path clip-path="url(#clip580)" d="M146.366 746.612 L151.251 746.612 L151.251 752.492 L146.366 752.492 L146.366 746.612 Z" fill="#000000" fill-rule="nonzero" fill-opacity="1" /><path clip-path="url(#clip580)" d="M161.482 717.932 L179.839 717.932 L179.839 721.867 L165.765 721.867 L165.765 730.339 Q166.783 729.992 167.802 729.83 Q168.82 729.645 169.839 729.645 Q175.626 729.645 179.005 732.816 Q182.385 735.987 182.385 741.404 Q182.385 746.983 178.913 750.085 Q175.44 753.163 169.121 753.163 Q166.945 753.163 164.677 752.793 Q162.431 752.423 160.024 751.682 L160.024 746.983 Q162.107 748.117 164.329 748.673 Q166.552 749.228 169.028 749.228 Q173.033 749.228 175.371 747.122 Q177.709 745.015 177.709 741.404 Q177.709 737.793 175.371 735.687 Q173.033 733.58 169.028 733.58 Q167.153 733.58 165.278 733.997 Q163.427 734.413 161.482 735.293 L161.482 717.932 Z" fill="#000000" fill-rule="nonzero" fill-opacity="1" /><path clip-path="url(#clip580)" d="M201.598 721.011 Q197.987 721.011 196.158 724.575 Q194.352 728.117 194.352 735.247 Q194.352 742.353 196.158 745.918 Q197.987 749.46 201.598 749.46 Q205.232 749.46 207.037 745.918 Q208.866 742.353 208.866 735.247 Q208.866 728.117 207.037 724.575 Q205.232 721.011 201.598 721.011 M201.598 717.307 Q207.408 717.307 210.463 721.913 Q213.542 726.497 213.542 735.247 Q213.542 743.973 210.463 748.58 Q207.408 753.163 201.598 753.163 Q195.787 753.163 192.709 748.58 Q189.653 743.973 189.653 735.247 Q189.653 726.497 192.709 721.913 Q195.787 717.307 201.598 717.307 Z" fill="#000000" fill-rule="nonzero" fill-opacity="1" /><path clip-path="url(#clip580)" d="M127.2 396.498 Q123.589 396.498 121.76 400.062 Q119.955 403.604 119.955 410.734 Q119.955 417.84 121.76 421.405 Q123.589 424.946 127.2 424.946 Q130.834 424.946 132.64 421.405 Q134.468 417.84 134.468 410.734 Q134.468 403.604 132.64 400.062 Q130.834 396.498 127.2 396.498 M127.2 392.794 Q133.01 392.794 136.066 397.4 Q139.144 401.984 139.144 410.734 Q139.144 419.46 136.066 424.067 Q133.01 428.65 127.2 428.65 Q121.39 428.65 118.311 424.067 Q115.256 419.46 115.256 410.734 Q115.256 401.984 118.311 397.4 Q121.39 392.794 127.2 392.794 Z" fill="#000000" fill-rule="nonzero" fill-opacity="1" /><path clip-path="url(#clip580)" d="M147.362 422.099 L152.246 422.099 L152.246 427.979 L147.362 427.979 L147.362 422.099 Z" fill="#000000" fill-rule="nonzero" fill-opacity="1" /><path clip-path="url(#clip580)" d="M161.251 393.419 L183.473 393.419 L183.473 395.41 L170.927 427.979 L166.042 427.979 L177.848 397.354 L161.251 397.354 L161.251 393.419 Z" fill="#000000" fill-rule="nonzero" fill-opacity="1" /><path clip-path="url(#clip580)" d="M192.639 393.419 L210.996 393.419 L210.996 397.354 L196.922 397.354 L196.922 405.826 Q197.94 405.479 198.959 405.317 Q199.977 405.132 200.996 405.132 Q206.783 405.132 210.162 408.303 Q213.542 411.474 213.542 416.891 Q213.542 422.47 210.07 425.571 Q206.598 428.65 200.278 428.65 Q198.102 428.65 195.834 428.28 Q193.588 427.909 191.181 427.169 L191.181 422.47 Q193.264 423.604 195.487 424.159 Q197.709 424.715 200.186 424.715 Q204.19 424.715 206.528 422.608 Q208.866 420.502 208.866 416.891 Q208.866 413.28 206.528 411.173 Q204.19 409.067 200.186 409.067 Q198.311 409.067 196.436 409.484 Q194.584 409.9 192.639 410.78 L192.639 393.419 Z" fill="#000000" fill-rule="nonzero" fill-opacity="1" /><path clip-path="url(#clip580)" d="M117.015 99.5305 L124.654 99.5305 L124.654 73.1649 L116.343 74.8316 L116.343 70.5723 L124.607 68.9057 L129.283 68.9057 L129.283 99.5305 L136.922 99.5305 L136.922 103.466 L117.015 103.466 L117.015 99.5305 Z" fill="#000000" fill-rule="nonzero" fill-opacity="1" /><path clip-path="url(#clip580)" d="M146.366 97.5861 L151.251 97.5861 L151.251 103.466 L146.366 103.466 L146.366 97.5861 Z" fill="#000000" fill-rule="nonzero" fill-opacity="1" /><path clip-path="url(#clip580)" d="M171.436 71.9844 Q167.825 71.9844 165.996 75.5492 Q164.19 79.0908 164.19 86.2204 Q164.19 93.3268 165.996 96.8916 Q167.825 100.433 171.436 100.433 Q175.07 100.433 176.876 96.8916 Q178.704 93.3268 178.704 86.2204 Q178.704 79.0908 176.876 75.5492 Q175.07 71.9844 171.436 71.9844 M171.436 68.2807 Q177.246 68.2807 180.301 72.8871 Q183.38 77.4704 183.38 86.2204 Q183.38 94.9472 180.301 99.5537 Q177.246 104.137 171.436 104.137 Q165.626 104.137 162.547 99.5537 Q159.491 94.9472 159.491 86.2204 Q159.491 77.4704 162.547 72.8871 Q165.626 68.2807 171.436 68.2807 Z" fill="#000000" fill-rule="nonzero" fill-opacity="1" /><path clip-path="url(#clip580)" d="M201.598 71.9844 Q197.987 71.9844 196.158 75.5492 Q194.352 79.0908 194.352 86.2204 Q194.352 93.3268 196.158 96.8916 Q197.987 100.433 201.598 100.433 Q205.232 100.433 207.037 96.8916 Q208.866 93.3268 208.866 86.2204 Q208.866 79.0908 207.037 75.5492 Q205.232 71.9844 201.598 71.9844 M201.598 68.2807 Q207.408 68.2807 210.463 72.8871 Q213.542 77.4704 213.542 86.2204 Q213.542 94.9472 210.463 99.5537 Q207.408 104.137 201.598 104.137 Q195.787 104.137 192.709 99.5537 Q189.653 94.9472 189.653 86.2204 Q189.653 77.4704 192.709 72.8871 Q195.787 68.2807 201.598 68.2807 Z" fill="#000000" fill-rule="nonzero" fill-opacity="1" /><path clip-path="url(#clip580)" d="M16.4842 792.121 L16.4842 764.813 L21.895 764.813 L21.895 785.692 L35.8996 785.692 L35.8996 766.85 L41.3104 766.85 L41.3104 785.692 L64.0042 785.692 L64.0042 792.121 L16.4842 792.121 Z" fill="#000000" fill-rule="nonzero" fill-opacity="1" /><path clip-path="url(#clip580)" d="M21.7677 748.198 L39.6235 748.198 L39.6235 740.114 Q39.6235 735.626 37.3 733.175 Q34.9765 730.724 30.6797 730.724 Q26.4147 730.724 24.0912 733.175 Q21.7677 735.626 21.7677 740.114 L21.7677 748.198 M16.4842 754.627 L16.4842 740.114 Q16.4842 732.125 20.1126 728.051 Q23.7092 723.945 30.6797 723.945 Q37.7138 723.945 41.3104 728.051 Q44.907 732.125 44.907 740.114 L44.907 748.198 L64.0042 748.198 L64.0042 754.627 L16.4842 754.627 Z" fill="#000000" fill-rule="nonzero" fill-opacity="1" /><path clip-path="url(#clip580)" d="M41.7242 692.785 Q42.4244 690.716 44.7161 688.774 Q47.0077 686.801 51.0181 684.827 L64.0042 678.303 L64.0042 685.209 L51.8138 691.289 Q47.0395 693.644 45.48 695.872 Q43.9204 698.068 43.9204 701.887 L43.9204 708.89 L64.0042 708.89 L64.0042 715.319 L16.4842 715.319 L16.4842 700.805 Q16.4842 692.657 19.8898 688.647 Q23.2955 684.636 30.1704 684.636 Q34.6582 684.636 37.6183 686.737 Q40.5784 688.806 41.7242 692.785 M21.7677 708.89 L38.6368 708.89 L38.6368 700.805 Q38.6368 696.158 36.5043 693.803 Q34.34 691.416 30.1704 691.416 Q26.0009 691.416 23.9002 693.803 Q21.7677 696.158 21.7677 700.805 L21.7677 708.89 Z" fill="#000000" fill-rule="nonzero" fill-opacity="1" /><polyline clip-path="url(#clip582)" style="stroke:#ff0000; stroke-linecap:round; stroke-linejoin:round; stroke-width:6; stroke-opacity:1; fill:none" points="309.067,86.1857 309.067,558.428 311.051,612.224 313.035,636.906 315.019,653.951 317.004,667.308 318.988,678.184 320.972,687.714 322.956,695.933 324.94,703.349 326.924,709.877 328.909,715.877 330.893,721.37 332.877,726.53 334.861,731.31 336.845,735.957 338.829,740.446 340.814,744.857 342.798,749.112 344.782,753.39 346.766,757.223 348.75,761.021 350.734,764.842 352.719,768.606 354.703,772.163 356.687,775.693 358.671,779.193 360.655,782.732 362.639,786.127 364.624,789.327 366.608,792.562 368.592,795.709 370.576,798.885 372.56,801.928 374.544,804.877 376.529,807.758 378.513,810.673 380.497,813.53 382.481,816.299 384.465,819.068 386.449,821.817 388.434,824.619 390.418,827.224 392.402,829.879 394.386,832.362 396.37,834.937 398.354,837.409 400.339,839.926 402.323,842.313 404.307,844.751 406.291,847.179 408.275,849.537 410.259,851.977 412.243,854.42 414.228,856.729 416.212,859.116 418.196,861.256 420.18,863.646 422.164,865.991 424.148,868.3 426.133,870.592 428.117,872.792 430.101,874.985 432.085,877.262 434.069,879.55 436.053,881.702 438.038,883.94 440.022,886.118 442.006,888.242 443.99,890.401 445.974,892.456 447.958,894.583 449.943,896.692 451.927,898.743 453.911,900.727 455.895,902.762 457.879,904.77 459.863,906.835 461.848,908.689 463.832,910.56 465.816,912.43 467.8,914.239 469.784,916.007 471.768,917.822 473.753,919.635 475.737,921.416 477.721,923.144 479.705,924.957 481.689,926.681 483.673,928.357 485.658,930.044 487.642,931.802 489.626,933.463 491.61,935.094 493.594,936.698 495.578,938.385 497.563,939.956 499.547,941.499 501.531,943.075 503.515,944.574 505.499,946.09 507.483,947.523 509.468,948.955 511.452,950.338 513.436,951.788 515.42,953.18 517.404,954.574 519.388,956.01 521.373,957.354 523.357,958.592 525.341,959.961 527.325,961.32 529.309,962.6 531.293,963.874 533.277,965.248 535.262,966.573 537.246,967.805 539.23,969.141 541.214,970.394 543.198,971.677 545.182,972.955 547.167,974.163 549.151,975.403 551.135,976.649 553.119,977.892 555.103,979.14 557.087,980.432 559.072,981.621 561.056,982.874 563.04,984.106 565.024,985.29 567.008,986.501 568.992,987.671 570.977,988.931 572.961,990.121 574.945,991.258 576.929,992.499 578.913,993.79 580.897,994.971 582.882,996.098 584.866,997.275 586.85,998.396 588.834,999.635 590.818,1000.88 592.802,1002.08 594.787,1003.25 596.771,1004.41 598.755,1005.56 600.739,1006.72 602.723,1007.93 604.707,1009.11 606.692,1010.29 608.676,1011.42 610.66,1012.58 612.644,1013.69 614.628,1014.99 616.612,1016.15 618.597,1017.37 620.581,1018.53 622.565,1019.75 624.549,1020.97 626.533,1022.19 628.517,1023.45 630.502,1024.68 632.486,1025.79 634.47,1026.93 636.454,1028.16 638.438,1029.36 640.422,1030.49 642.407,1031.65 644.391,1032.83 646.375,1034.02 648.359,1035.26 650.343,1036.42 652.327,1037.55 654.312,1038.66 656.296,1039.8 658.28,1040.99 660.264,1042.15 662.248,1043.25 664.232,1044.39 666.216,1045.45 668.201,1046.51 670.185,1047.61 672.169,1048.69 674.153,1049.83 676.137,1050.95 678.121,1051.94 680.106,1052.99 682.09,1054.06 684.074,1055.16 686.058,1056.24 688.042,1057.28 690.026,1058.28 692.011,1059.35 693.995,1060.48 695.979,1061.6 697.963,1062.69 699.947,1063.73 701.931,1064.89 703.916,1066.01 705.9,1067.11 707.884,1068.24 709.868,1069.35 711.852,1070.49 713.836,1071.62 715.821,1072.77 717.805,1074.03 719.789,1075.18 721.773,1076.41 723.757,1077.55 725.741,1078.8 727.726,1079.96 729.71,1081.24 731.694,1082.59 733.678,1083.81 735.662,1085.1 737.646,1086.38 739.631,1087.68 741.615,1088.97 743.599,1090.26 745.583,1091.51 747.567,1092.74 749.551,1094 751.536,1095.29 753.52,1096.61 755.504,1097.93 757.488,1099.15 759.472,1100.48 761.456,1101.68 763.441,1102.94 765.425,1104.15 767.409,1105.35 769.393,1106.57 771.377,1107.84 773.361,1109.09 775.346,1110.3 777.33,1111.49 779.314,1112.68 781.298,1113.86 783.282,1115.02 785.266,1116.27 787.25,1117.48 789.235,1118.77 791.219,1119.95 793.203,1121.14 795.187,1122.38 797.171,1123.64 799.155,1124.83 801.14,1125.98 803.124,1127.14 805.108,1128.27 807.092,1129.42 809.076,1130.58 811.06,1131.66 813.045,1132.88 815.029,1134.1 817.013,1135.24 818.997,1136.38 820.981,1137.57 822.965,1138.67 824.95,1139.68 826.934,1140.8 828.918,1141.78 830.902,1142.8 832.886,1143.83 834.87,1144.81 836.855,1145.83 838.839,1146.84 840.823,1147.79 842.807,1148.72 844.791,1149.75 846.775,1150.68 848.76,1151.6 850.744,1152.57 852.728,1153.48 854.712,1154.36 856.696,1155.23 858.68,1156.14 860.665,1156.97 862.649,1157.83 864.633,1158.67 866.617,1159.54 868.601,1160.36 870.585,1161.21 872.57,1162.03 874.554,1162.85 876.538,1163.63 878.522,1164.43 880.506,1165.3 882.49,1166.08 884.475,1166.87 886.459,1167.73 888.443,1168.55 890.427,1169.34 892.411,1170.14 894.395,1170.89 896.38,1171.69 898.364,1172.46 900.348,1173.21 902.332,1173.92 904.316,1174.73 906.3,1175.45 908.285,1176.18 910.269,1176.87 912.253,1177.56 914.237,1178.3 916.221,1178.99 918.205,1179.7 920.189,1180.39 922.174,1181.08 924.158,1181.76 926.142,1182.5 928.126,1183.15 930.11,1183.84 932.094,1184.47 934.079,1185.17 936.063,1185.81 938.047,1186.46 940.031,1187.12 942.015,1187.71 943.999,1188.35 945.984,1188.93 947.968,1189.57 949.952,1190.21 951.936,1190.78 953.92,1191.41 955.904,1192.08 957.889,1192.66 959.873,1193.25 961.857,1193.78 963.841,1194.29 965.825,1194.84 967.809,1195.38 969.794,1195.89 971.778,1196.39 973.762,1196.86 975.746,1197.33 977.73,1197.78 979.714,1198.24 981.699,1198.72 983.683,1199.17 985.667,1199.59 987.651,1200.02 989.635,1200.44 991.619,1200.81 993.604,1201.19 995.588,1201.59 997.572,1201.96 999.556,1202.3 1001.54,1202.66 1003.52,1202.99 1005.51,1203.35 1007.49,1203.63 1009.48,1203.94 1011.46,1204.29 1013.45,1204.61 1015.43,1204.95 1017.41,1205.25 1019.4,1205.56 1021.38,1205.88 1023.37,1206.18 1025.35,1206.46 1027.33,1206.76 1029.32,1207.05 1031.3,1207.34 1033.29,1207.64 1035.27,1207.9 1037.26,1208.21 1039.24,1208.48 1041.22,1208.72 1043.21,1208.97 1045.19,1209.29 1047.18,1209.56 1049.16,1209.89 1051.14,1210.15 1053.13,1210.45 1055.11,1210.74 1057.1,1211.01 1059.08,1211.26 1061.07,1211.55 1063.05,1211.84 1065.03,1212.07 1067.02,1212.34 1069,1212.66 1070.99,1212.96 1072.97,1213.25 1074.95,1213.51 1076.94,1213.81 1078.92,1214.12 1080.91,1214.4 1082.89,1214.7 1084.88,1214.99 1086.86,1215.3 1088.84,1215.59 1090.83,1215.85 1092.81,1216.14 1094.8,1216.47 1096.78,1216.7 1098.76,1217.01 1100.75,1217.26 1102.73,1217.54 1104.72,1217.85 1106.7,1218.16 1108.69,1218.45 1110.67,1218.73 1112.65,1219.01 1114.64,1219.3 1116.62,1219.57 1118.61,1219.82 1120.59,1220.12 1122.57,1220.4 1124.56,1220.64 1126.54,1220.91 1128.53,1221.17 1130.51,1221.43 1132.5,1221.7 1134.48,1221.95 1136.46,1222.2 1138.45,1222.45 1140.43,1222.72 1142.42,1223 1144.4,1223.25 1146.38,1223.5 1148.37,1223.8 1150.35,1224.07 1152.34,1224.33 1154.32,1224.57 1156.3,1224.82 1158.29,1225.07 1160.27,1225.32 1162.26,1225.6 1164.24,1225.88 1166.23,1226.12 1168.21,1226.36 1170.19,1226.58 1172.18,1226.83 1174.16,1227.1 1176.15,1227.37 1178.13,1227.61 1180.11,1227.87 1182.1,1228.12 1184.08,1228.39 1186.07,1228.68 1188.05,1228.93 1190.04,1229.2 1192.02,1229.45 1194,1229.67 1195.99,1229.91 1197.97,1230.13 1199.96,1230.42 1201.94,1230.63 1203.92,1230.89 1205.91,1231.14 1207.89,1231.38 1209.88,1231.64 1211.86,1231.85 1213.85,1232.12 1215.83,1232.39 1217.81,1232.62 1219.8,1232.87 1221.78,1233.11 1223.77,1233.35 1225.75,1233.59 1227.73,1233.86 1229.72,1234.08 1231.7,1234.34 1233.69,1234.59 1235.67,1234.81 1237.66,1235.07 1239.64,1235.31 1241.62,1235.54 1243.61,1235.79 1245.59,1236.06 1247.58,1236.33 1249.56,1236.56 1251.54,1236.81 1253.53,1237.07 1255.51,1237.31 1257.5,1237.51 1259.48,1237.74 1261.47,1237.94 1263.45,1238.2 1265.43,1238.43 1267.42,1238.66 1269.4,1238.92 1271.39,1239.15 1273.37,1239.36 1275.35,1239.63 1277.34,1239.9 1279.32,1240.15 1281.31,1240.38 1283.29,1240.61 1285.28,1240.87 1287.26,1241.09 1289.24,1241.34 1291.23,1241.62 1293.21,1241.92 1295.2,1242.15 1297.18,1242.39 1299.16,1242.61 1301.15,1242.85 1303.13,1243.08 1305.12,1243.3 1307.1,1243.55 1309.09,1243.8 1311.07,1244.04 1313.05,1244.32 1315.04,1244.56 1317.02,1244.81 1319.01,1245.07 1320.99,1245.33 1322.97,1245.58 1324.96,1245.83 1326.94,1246.12 1328.93,1246.39 1330.91,1246.68 1332.9,1246.98 1334.88,1247.19 1336.86,1247.42 1338.85,1247.67 1340.83,1247.95 1342.82,1248.17 1344.8,1248.39 1346.78,1248.64 1348.77,1248.9 1350.75,1249.15 1352.74,1249.38 1354.72,1249.64 1356.71,1249.91 1358.69,1250.13 1360.67,1250.4 1362.66,1250.66 1364.64,1250.91 1366.63,1251.18 1368.61,1251.46 1370.59,1251.69 1372.58,1251.92 1374.56,1252.18 1376.55,1252.45 1378.53,1252.68 1380.52,1252.92 1382.5,1253.16 1384.48,1253.4 1386.47,1253.66 1388.45,1253.93 1390.44,1254.19 1392.42,1254.41 1394.4,1254.67 1396.39,1254.93 1398.37,1255.19 1400.36,1255.46 1402.34,1255.73 1404.33,1255.98 1406.31,1256.24 1408.29,1256.46 1410.28,1256.72 1412.26,1256.99 1414.25,1257.22 1416.23,1257.45 1418.21,1257.7 1420.2,1257.94 1422.18,1258.17 1424.17,1258.43 1426.15,1258.66 1428.14,1258.9 1430.12,1259.14 1432.1,1259.41 1434.09,1259.65 1436.07,1259.91 1438.06,1260.13 1440.04,1260.39 1442.02,1260.65 1444.01,1260.9 1445.99,1261.11 1447.98,1261.38 1449.96,1261.63 1451.95,1261.88 1453.93,1262.1 1455.91,1262.31 1457.9,1262.57 1459.88,1262.83 1461.87,1263.09 1463.85,1263.32 1465.83,1263.59 1467.82,1263.82 1469.8,1264.06 1471.79,1264.3 1473.77,1264.55 1475.76,1264.77 1477.74,1265.01 1479.72,1265.26 1481.71,1265.51 1483.69,1265.78 1485.68,1266.04 1487.66,1266.3 1489.64,1266.55 1491.63,1266.79 1493.61,1267.02 1495.6,1267.27 1497.58,1267.52 1499.57,1267.75 1501.55,1267.98 1503.53,1268.24 1505.52,1268.49 1507.5,1268.76 1509.49,1269.03 1511.47,1269.27 1513.45,1269.5 1515.44,1269.75 1517.42,1269.98 1519.41,1270.17 1521.39,1270.41 1523.38,1270.65 1525.36,1270.89 1527.34,1271.08 1529.33,1271.33 1531.31,1271.56 1533.3,1271.82 1535.28,1272.04 1537.26,1272.27 1539.25,1272.49 1541.23,1272.71 1543.22,1272.94 1545.2,1273.17 1547.19,1273.42 1549.17,1273.66 1551.15,1273.89 1553.14,1274.12 1555.12,1274.35 1557.11,1274.54 1559.09,1274.77 1561.07,1275.01 1563.06,1275.23 1565.04,1275.47 1567.03,1275.7 1569.01,1275.93 1571,1276.18 1572.98,1276.4 1574.96,1276.6 1576.95,1276.82 1578.93,1277.03 1580.92,1277.29 1582.9,1277.5 1584.88,1277.72 1586.87,1277.93 1588.85,1278.15 1590.84,1278.38 1592.82,1278.61 1594.81,1278.84 1596.79,1279.07 1598.77,1279.3 1600.76,1279.54 1602.74,1279.77 1604.73,1280 1606.71,1280.21 1608.69,1280.44 1610.68,1280.67 1612.66,1280.91 1614.65,1281.15 1616.63,1281.38 1618.62,1281.63 1620.6,1281.86 1622.58,1282.11 1624.57,1282.35 1626.55,1282.59 1628.54,1282.84 1630.52,1283.09 1632.5,1283.3 1634.49,1283.52 1636.47,1283.75 1638.46,1283.98 1640.44,1284.2 1642.43,1284.44 1644.41,1284.68 1646.39,1284.91 1648.38,1285.14 1650.36,1285.38 1652.35,1285.61 1654.33,1285.82 1656.31,1286.06 1658.3,1286.29 1660.28,1286.53 1662.27,1286.74 1664.25,1286.96 1666.24,1287.22 1668.22,1287.46 1670.2,1287.67 1672.19,1287.89 1674.17,1288.11 1676.16,1288.3 1678.14,1288.52 1680.12,1288.76 1682.11,1288.98 1684.09,1289.21 1686.08,1289.41 1688.06,1289.62 1690.05,1289.82 1692.03,1290.05 1694.01,1290.26 1696,1290.47 1697.98,1290.74 1699.97,1290.95 1701.95,1291.16 1703.93,1291.36 1705.92,1291.56 1707.9,1291.78 1709.89,1291.95 1711.87,1292.16 1713.86,1292.38 1715.84,1292.61 1717.82,1292.82 1719.81,1293.01 1721.79,1293.22 1723.78,1293.43 1725.76,1293.67 1727.74,1293.88 1729.73,1294.07 1731.71,1294.29 1733.7,1294.49 1735.68,1294.69 1737.67,1294.9 1739.65,1295.08 1741.63,1295.3 1743.62,1295.53 1745.6,1295.72 1747.59,1295.93 1749.57,1296.18 1751.55,1296.38 1753.54,1296.6 1755.52,1296.82 1757.51,1297.05 1759.49,1297.27 1761.48,1297.49 1763.46,1297.69 1765.44,1297.89 1767.43,1298.11 1769.41,1298.31 1771.4,1298.52 1773.38,1298.71 1775.36,1298.9 1777.35,1299.1 1779.33,1299.33 1781.32,1299.54 1783.3,1299.75 1785.29,1299.95 1787.27,1300.18 1789.25,1300.39 1791.24,1300.61 1793.22,1300.86 1795.21,1301.09 1797.19,1301.29 1799.17,1301.48 1801.16,1301.69 1803.14,1301.91 1805.13,1302.13 1807.11,1302.32 1809.09,1302.5 1811.08,1302.71 1813.06,1302.91 1815.05,1303.14 1817.03,1303.37 1819.02,1303.56 1821,1303.78 1822.98,1303.99 1824.97,1304.2 1826.95,1304.4 1828.94,1304.58 1830.92,1304.77 1832.9,1304.97 1834.89,1305.18 1836.87,1305.4 1838.86,1305.61 1840.84,1305.79 1842.83,1306.01 1844.81,1306.23 1846.79,1306.44 1848.78,1306.63 1850.76,1306.87 1852.75,1307.1 1854.73,1307.32 1856.71,1307.52 1858.7,1307.72 1860.68,1307.92 1862.67,1308.13 1864.65,1308.34 1866.64,1308.57 1868.62,1308.76 1870.6,1308.97 1872.59,1309.17 1874.57,1309.4 1876.56,1309.61 1878.54,1309.85 1880.52,1310.06 1882.51,1310.27 1884.49,1310.48 1886.48,1310.7 1888.46,1310.9 1890.45,1311.14 1892.43,1311.35 1894.41,1311.57 1896.4,1311.77 1898.38,1311.96 1900.37,1312.2 1902.35,1312.4 1904.33,1312.58 1906.32,1312.77 1908.3,1313 1910.29,1313.19 1912.27,1313.4 1914.26,1313.61 1916.24,1313.84 1918.22,1314.01 1920.21,1314.24 1922.19,1314.43 1924.18,1314.62 1926.16,1314.84 1928.14,1315.06 1930.13,1315.26 1932.11,1315.46 1934.1,1315.66 1936.08,1315.85 1938.07,1316.06 1940.05,1316.28 1942.03,1316.49 1944.02,1316.68 1946,1316.9 1947.99,1317.1 1949.97,1317.32 1951.95,1317.53 1953.94,1317.72 1955.92,1317.92 1957.91,1318.11 1959.89,1318.35 1961.88,1318.56 1963.86,1318.75 1965.84,1318.96 1967.83,1319.21 1969.81,1319.43 1971.8,1319.64 1973.78,1319.85 1975.76,1320.08 1977.75,1320.29 1979.73,1320.47 1981.72,1320.65 1983.7,1320.87 1985.69,1321.07 1987.67,1321.3 1989.65,1321.5 1991.64,1321.7 1993.62,1321.93 1995.61,1322.15 1997.59,1322.34 1999.57,1322.57 2001.56,1322.78 2003.54,1322.97 2005.53,1323.23 2007.51,1323.44 2009.5,1323.66 2011.48,1323.86 2013.46,1324.09 2015.45,1324.3 2017.43,1324.51 2019.42,1324.73 2021.4,1324.92 2023.38,1325.16 2025.37,1325.37 2027.35,1325.58 2029.34,1325.77 2031.32,1326 2033.31,1326.23 2035.29,1326.42 2037.27,1326.66 2039.26,1326.89 2041.24,1327.1 2043.23,1327.3 2045.21,1327.54 2047.19,1327.78 2049.18,1327.99 2051.16,1328.2 2053.15,1328.4 2055.13,1328.64 2057.12,1328.88 2059.1,1329.11 2061.08,1329.31 2063.07,1329.51 2065.05,1329.74 2067.04,1329.96 2069.02,1330.2 2071,1330.38 2072.99,1330.63 2074.97,1330.85 2076.96,1331.1 2078.94,1331.31 2080.93,1331.57 2082.91,1331.78 2084.89,1332.01 2086.88,1332.24 2088.86,1332.49 2090.85,1332.69 2092.83,1332.91 2094.81,1333.16 2096.8,1333.38 2098.78,1333.61 2100.77,1333.86 2102.75,1334.09 2104.74,1334.29 2106.72,1334.52 2108.7,1334.77 2110.69,1335 2112.67,1335.25 2114.66,1335.45 2116.64,1335.69 2118.62,1335.92 2120.61,1336.17 2122.59,1336.41 2124.58,1336.67 2126.56,1336.9 2128.55,1337.14 2130.53,1337.34 2132.51,1337.62 2134.5,1337.84 2136.48,1338.08 2138.47,1338.36 2140.45,1338.62 2142.43,1338.86 2144.42,1339.15 2146.4,1339.39 2148.39,1339.67 2150.37,1339.93 2152.36,1340.19 2154.34,1340.45 2156.32,1340.71 2158.31,1340.98 2160.29,1341.25 2162.28,1341.53 2164.26,1341.82 2166.24,1342.07 2168.23,1342.35 2170.21,1342.61 2172.2,1342.9 2174.18,1343.18 2176.17,1343.45 2178.15,1343.73 2180.13,1343.99 2182.12,1344.25 2184.1,1344.57 2186.09,1344.83 2188.07,1345.13 2190.05,1345.42 2192.04,1345.72 2194.02,1346.01 2196.01,1346.3 2197.99,1346.59 2199.98,1346.9 2201.96,1347.27 2203.94,1347.57 2205.93,1347.9 2207.91,1348.17 2209.9,1348.5 2211.88,1348.83 2213.86,1349.16 2215.85,1349.49 2217.83,1349.84 2219.82,1350.15 2221.8,1350.51 2223.79,1350.84 2225.77,1351.21 2227.75,1351.56 2229.74,1351.96 2231.72,1352.29 2233.71,1352.68 2235.69,1353.09 2237.67,1353.44 2239.66,1353.84 2241.64,1354.26 2243.63,1354.68 2245.61,1355.11 2247.6,1355.51 2249.58,1356.01 2251.56,1356.45 2253.55,1356.9 2255.53,1357.36 2257.52,1357.86 2259.5,1358.4 2261.48,1358.97 2263.47,1359.53 2265.45,1360.08 2267.44,1360.69 2269.42,1361.35 2271.41,1362 2273.39,1362.66 2275.37,1363.36 2277.36,1364.1 2279.34,1364.93 2281.33,1365.86 2283.31,1366.84 2285.29,1367.94 2287.28,1369.4 2289.26,1371.25 2291.25,1373.85 2293.23,1384.24 "/>
<polyline clip-path="url(#clip582)" style="stroke:#0000ff; stroke-linecap:round; stroke-linejoin:round; stroke-width:6; stroke-opacity:1; fill:none" points="309.067,86.1857 309.067,499.29 311.051,552.997 313.035,577.95 315.019,595.233 317.004,608.749 318.988,620.215 320.972,630.097 322.956,638.793 324.94,646.38 326.924,653.243 328.909,659.562 330.893,665.328 332.877,670.7 334.861,675.766 336.845,680.431 338.829,684.845 340.814,689.227 342.798,693.432 344.782,697.376 346.766,701.389 348.75,705.193 350.734,708.96 352.719,712.395 354.703,715.954 356.687,719.342 358.671,722.71 360.655,725.866 362.639,728.91 364.624,731.97 366.608,734.928 368.592,737.826 370.576,740.792 372.56,743.721 374.544,746.465 376.529,749.163 378.513,751.826 380.497,754.541 382.481,757.219 384.465,759.692 386.449,762.374 388.434,764.872 390.418,767.419 392.402,769.892 394.386,772.338 396.37,774.669 398.354,776.983 400.339,779.327 402.323,781.65 404.307,784.018 406.291,786.277 408.275,788.454 410.259,790.641 412.243,792.779 414.228,794.949 416.212,797.114 418.196,799.219 420.18,801.402 422.164,803.471 424.148,805.489 426.133,807.536 428.117,809.542 430.101,811.53 432.085,813.481 434.069,815.434 436.053,817.439 438.038,819.31 440.022,821.161 442.006,822.995 443.99,824.808 445.974,826.648 447.958,828.548 449.943,830.428 451.927,832.278 453.911,834.227 455.895,836.122 457.879,838.019 459.863,839.763 461.848,841.678 463.832,843.572 465.816,845.431 467.8,847.373 469.784,849.208 471.768,851.111 473.753,853.034 475.737,854.86 477.721,856.656 479.705,858.535 481.689,860.425 483.673,862.351 485.658,864.223 487.642,866.077 489.626,867.92 491.61,869.816 493.594,871.62 495.578,873.504 497.563,875.279 499.547,877.049 501.531,878.777 503.515,880.548 505.499,882.294 507.483,884.062 509.468,885.742 511.452,887.445 513.436,889.178 515.42,890.88 517.404,892.499 519.388,894.098 521.373,895.743 523.357,897.283 525.341,898.838 527.325,900.414 529.309,901.905 531.293,903.334 533.278,904.822 535.262,906.281 537.246,907.868 539.23,909.368 541.214,910.8 543.198,912.25 545.182,913.601 547.167,915.015 549.151,916.473 551.135,917.822 553.119,919.243 555.103,920.595 557.087,921.962 559.072,923.319 561.056,924.777 563.04,926.185 565.024,927.542 567.008,928.903 568.992,930.389 570.977,931.707 572.961,933.136 574.945,934.537 576.929,935.978 578.913,937.356 580.897,938.756 582.882,940.135 584.866,941.55 586.85,942.934 588.834,944.282 590.818,945.722 592.802,947.059 594.787,948.426 596.771,949.708 598.755,951.072 600.739,952.364 602.723,953.641 604.707,954.988 606.692,956.312 608.676,957.628 610.66,958.918 612.644,960.24 614.628,961.604 616.612,962.92 618.597,964.238 620.581,965.642 622.565,966.925 624.549,968.198 626.533,969.581 628.517,970.867 630.502,972.198 632.486,973.527 634.47,974.786 636.454,976.029 638.438,977.369 640.422,978.624 642.407,979.923 644.391,981.126 646.375,982.303 648.359,983.502 650.343,984.71 652.327,985.996 654.311,987.227 656.296,988.421 658.28,989.653 660.264,990.815 662.248,991.958 664.232,993.133 666.216,994.369 668.201,995.55 670.185,996.793 672.169,997.961 674.153,999.23 676.137,1000.53 678.121,1001.73 680.106,1003.03 682.09,1004.36 684.074,1005.75 686.058,1007.07 688.042,1008.42 690.026,1009.76 692.011,1011.13 693.995,1012.45 695.979,1013.85 697.963,1015.16 699.947,1016.51 701.931,1017.92 703.916,1019.26 705.9,1020.66 707.884,1022.02 709.868,1023.39 711.852,1024.81 713.836,1026.25 715.821,1027.73 717.805,1029.14 719.789,1030.62 721.773,1032.05 723.757,1033.42 725.741,1034.84 727.726,1036.21 729.71,1037.63 731.694,1039.02 733.678,1040.37 735.662,1041.74 737.646,1043.09 739.631,1044.38 741.615,1045.73 743.599,1047.1 745.583,1048.47 747.567,1049.83 749.551,1051.16 751.536,1052.49 753.52,1053.8 755.504,1055.15 757.488,1056.44 759.472,1057.71 761.456,1059.02 763.441,1060.35 765.425,1061.62 767.409,1062.94 769.393,1064.23 771.377,1065.47 773.361,1066.82 775.346,1068.16 777.33,1069.5 779.314,1070.78 781.298,1072.01 783.282,1073.33 785.266,1074.64 787.25,1075.96 789.235,1077.23 791.219,1078.56 793.203,1079.94 795.187,1081.27 797.171,1082.56 799.155,1083.81 801.14,1085.07 803.124,1086.43 805.108,1087.7 807.092,1088.95 809.076,1090.32 811.06,1091.65 813.045,1092.99 815.029,1094.27 817.013,1095.59 818.997,1096.9 820.981,1098.23 822.965,1099.62 824.95,1100.91 826.934,1102.28 828.918,1103.56 830.902,1104.9 832.886,1106.27 834.87,1107.56 836.855,1108.88 838.839,1110.25 840.823,1111.49 842.807,1112.74 844.791,1113.98 846.775,1115.32 848.76,1116.59 850.744,1117.86 852.728,1119.15 854.712,1120.47 856.696,1121.78 858.68,1123.05 860.665,1124.36 862.649,1125.67 864.633,1126.98 866.617,1128.27 868.601,1129.53 870.585,1130.78 872.57,1132.04 874.554,1133.26 876.538,1134.51 878.522,1135.69 880.506,1136.92 882.49,1138.19 884.475,1139.34 886.459,1140.47 888.443,1141.67 890.427,1142.82 892.411,1144.01 894.395,1145.15 896.38,1146.29 898.364,1147.43 900.348,1148.53 902.332,1149.64 904.316,1150.83 906.3,1151.96 908.285,1153.05 910.269,1154.09 912.253,1155.12 914.237,1156.13 916.221,1157.17 918.205,1158.19 920.189,1159.17 922.174,1160.22 924.158,1161.27 926.142,1162.25 928.126,1163.23 930.11,1164.21 932.094,1165.21 934.079,1166.18 936.063,1167.21 938.047,1168.14 940.031,1169.05 942.015,1170.01 943.999,1170.93 945.984,1171.83 947.968,1172.7 949.952,1173.57 951.936,1174.51 953.92,1175.48 955.904,1176.34 957.889,1177.24 959.873,1178.1 961.857,1178.97 963.841,1179.83 965.825,1180.68 967.809,1181.44 969.794,1182.24 971.778,1182.98 973.762,1183.81 975.746,1184.54 977.73,1185.29 979.714,1186 981.699,1186.73 983.683,1187.45 985.667,1188.16 987.651,1188.9 989.635,1189.61 991.619,1190.29 993.604,1190.95 995.588,1191.59 997.572,1192.28 999.556,1192.9 1001.54,1193.51 1003.52,1194.12 1005.51,1194.72 1007.49,1195.34 1009.48,1195.93 1011.46,1196.51 1013.45,1197.13 1015.43,1197.75 1017.41,1198.28 1019.4,1198.85 1021.38,1199.37 1023.37,1199.92 1025.35,1200.46 1027.33,1201 1029.32,1201.56 1031.3,1202.15 1033.29,1202.68 1035.27,1203.2 1037.26,1203.71 1039.24,1204.23 1041.22,1204.72 1043.21,1205.26 1045.19,1205.77 1047.18,1206.31 1049.16,1206.84 1051.14,1207.38 1053.13,1207.91 1055.11,1208.45 1057.1,1209 1059.08,1209.56 1061.07,1210.03 1063.05,1210.57 1065.03,1211.12 1067.02,1211.64 1069,1212.19 1070.99,1212.7 1072.97,1213.24 1074.95,1213.78 1076.94,1214.29 1078.92,1214.85 1080.91,1215.37 1082.89,1215.93 1084.88,1216.47 1086.86,1217.02 1088.84,1217.54 1090.83,1218.06 1092.81,1218.57 1094.8,1219.1 1096.78,1219.62 1098.76,1220.11 1100.75,1220.55 1102.73,1221.02 1104.72,1221.48 1106.7,1221.91 1108.69,1222.36 1110.67,1222.8 1112.65,1223.21 1114.64,1223.58 1116.62,1224 1118.61,1224.42 1120.59,1224.79 1122.57,1225.16 1124.56,1225.54 1126.54,1225.91 1128.53,1226.27 1130.51,1226.63 1132.5,1226.96 1134.48,1227.27 1136.46,1227.58 1138.45,1227.88 1140.43,1228.21 1142.42,1228.53 1144.4,1228.85 1146.38,1229.12 1148.37,1229.41 1150.35,1229.71 1152.34,1230 1154.32,1230.27 1156.31,1230.58 1158.29,1230.84 1160.27,1231.13 1162.26,1231.38 1164.24,1231.66 1166.23,1231.93 1168.21,1232.24 1170.19,1232.5 1172.18,1232.78 1174.16,1233.08 1176.15,1233.38 1178.13,1233.65 1180.11,1233.92 1182.1,1234.17 1184.08,1234.45 1186.07,1234.7 1188.05,1234.96 1190.04,1235.21 1192.02,1235.45 1194,1235.71 1195.99,1235.97 1197.97,1236.22 1199.96,1236.48 1201.94,1236.74 1203.92,1236.99 1205.91,1237.25 1207.89,1237.51 1209.88,1237.78 1211.86,1238.03 1213.85,1238.28 1215.83,1238.55 1217.81,1238.82 1219.8,1239.07 1221.78,1239.35 1223.77,1239.6 1225.75,1239.84 1227.73,1240.08 1229.72,1240.37 1231.7,1240.59 1233.69,1240.81 1235.67,1241.07 1237.66,1241.35 1239.64,1241.58 1241.62,1241.86 1243.61,1242.1 1245.59,1242.35 1247.58,1242.6 1249.56,1242.86 1251.54,1243.15 1253.53,1243.41 1255.51,1243.66 1257.5,1243.93 1259.48,1244.2 1261.47,1244.43 1263.45,1244.69 1265.43,1244.94 1267.42,1245.19 1269.4,1245.43 1271.39,1245.65 1273.37,1245.92 1275.35,1246.17 1277.34,1246.45 1279.32,1246.72 1281.31,1246.96 1283.29,1247.24 1285.28,1247.48 1287.26,1247.74 1289.24,1248.01 1291.23,1248.28 1293.21,1248.53 1295.2,1248.74 1297.18,1248.99 1299.16,1249.23 1301.15,1249.48 1303.13,1249.72 1305.12,1249.96 1307.1,1250.21 1309.09,1250.43 1311.07,1250.65 1313.05,1250.92 1315.04,1251.19 1317.02,1251.44 1319.01,1251.69 1320.99,1251.95 1322.97,1252.21 1324.96,1252.46 1326.94,1252.72 1328.93,1252.97 1330.91,1253.22 1332.9,1253.45 1334.88,1253.68 1336.86,1253.92 1338.85,1254.17 1340.83,1254.41 1342.82,1254.66 1344.8,1254.88 1346.78,1255.13 1348.77,1255.36 1350.75,1255.6 1352.74,1255.81 1354.72,1256.06 1356.71,1256.33 1358.69,1256.57 1360.67,1256.84 1362.66,1257.1 1364.64,1257.36 1366.63,1257.59 1368.61,1257.83 1370.59,1258.07 1372.58,1258.32 1374.56,1258.55 1376.55,1258.77 1378.53,1258.98 1380.52,1259.22 1382.5,1259.46 1384.48,1259.74 1386.47,1259.98 1388.45,1260.2 1390.44,1260.45 1392.42,1260.71 1394.4,1260.96 1396.39,1261.2 1398.37,1261.47 1400.36,1261.74 1402.34,1261.99 1404.33,1262.22 1406.31,1262.47 1408.29,1262.73 1410.28,1263 1412.26,1263.22 1414.25,1263.46 1416.23,1263.75 1418.21,1263.95 1420.2,1264.22 1422.18,1264.47 1424.17,1264.73 1426.15,1264.97 1428.14,1265.2 1430.12,1265.43 1432.1,1265.65 1434.09,1265.89 1436.07,1266.14 1438.06,1266.36 1440.04,1266.62 1442.02,1266.88 1444.01,1267.12 1445.99,1267.35 1447.98,1267.57 1449.96,1267.8 1451.95,1268.02 1453.93,1268.26 1455.91,1268.5 1457.9,1268.72 1459.88,1269 1461.87,1269.25 1463.85,1269.51 1465.83,1269.75 1467.82,1269.94 1469.8,1270.19 1471.79,1270.41 1473.77,1270.65 1475.76,1270.9 1477.74,1271.14 1479.72,1271.36 1481.71,1271.62 1483.69,1271.86 1485.68,1272.11 1487.66,1272.33 1489.64,1272.57 1491.63,1272.78 1493.61,1272.99 1495.6,1273.24 1497.58,1273.48 1499.57,1273.71 1501.55,1273.96 1503.53,1274.16 1505.52,1274.4 1507.5,1274.7 1509.49,1274.92 1511.47,1275.18 1513.45,1275.37 1515.44,1275.62 1517.42,1275.82 1519.41,1276.06 1521.39,1276.32 1523.38,1276.56 1525.36,1276.82 1527.34,1277.09 1529.33,1277.35 1531.31,1277.57 1533.3,1277.82 1535.28,1278.08 1537.26,1278.31 1539.25,1278.56 1541.23,1278.78 1543.22,1279.03 1545.2,1279.24 1547.19,1279.45 1549.17,1279.68 1551.15,1279.89 1553.14,1280.1 1555.12,1280.32 1557.11,1280.52 1559.09,1280.75 1561.07,1281.01 1563.06,1281.22 1565.04,1281.46 1567.03,1281.71 1569.01,1281.94 1571,1282.19 1572.98,1282.44 1574.96,1282.7 1576.95,1282.96 1578.93,1283.21 1580.92,1283.44 1582.9,1283.67 1584.88,1283.95 1586.87,1284.18 1588.85,1284.42 1590.84,1284.65 1592.82,1284.9 1594.81,1285.14 1596.79,1285.39 1598.77,1285.65 1600.76,1285.86 1602.74,1286.07 1604.73,1286.3 1606.71,1286.54 1608.69,1286.76 1610.68,1287.03 1612.66,1287.28 1614.65,1287.49 1616.63,1287.71 1618.62,1287.95 1620.6,1288.18 1622.58,1288.39 1624.57,1288.62 1626.55,1288.85 1628.54,1289.09 1630.52,1289.3 1632.5,1289.57 1634.49,1289.8 1636.47,1290 1638.46,1290.26 1640.44,1290.49 1642.43,1290.75 1644.41,1290.99 1646.39,1291.22 1648.38,1291.45 1650.36,1291.66 1652.35,1291.88 1654.33,1292.11 1656.31,1292.34 1658.3,1292.57 1660.28,1292.79 1662.27,1293 1664.25,1293.21 1666.24,1293.44 1668.22,1293.68 1670.2,1293.92 1672.19,1294.15 1674.17,1294.38 1676.16,1294.6 1678.14,1294.85 1680.12,1295.09 1682.11,1295.33 1684.09,1295.57 1686.08,1295.8 1688.06,1296.05 1690.05,1296.26 1692.03,1296.49 1694.01,1296.71 1696,1296.91 1697.98,1297.15 1699.97,1297.38 1701.95,1297.59 1703.93,1297.83 1705.92,1298.03 1707.9,1298.25 1709.89,1298.53 1711.87,1298.74 1713.86,1298.96 1715.84,1299.16 1717.82,1299.39 1719.81,1299.64 1721.79,1299.86 1723.78,1300.08 1725.76,1300.32 1727.74,1300.55 1729.73,1300.79 1731.71,1301.02 1733.7,1301.24 1735.68,1301.46 1737.67,1301.7 1739.65,1301.92 1741.63,1302.16 1743.62,1302.38 1745.6,1302.64 1747.59,1302.88 1749.57,1303.13 1751.55,1303.34 1753.54,1303.56 1755.52,1303.77 1757.51,1304 1759.49,1304.24 1761.48,1304.48 1763.46,1304.74 1765.44,1305 1767.43,1305.23 1769.41,1305.43 1771.4,1305.68 1773.38,1305.95 1775.36,1306.18 1777.35,1306.37 1779.33,1306.59 1781.32,1306.82 1783.3,1307.04 1785.29,1307.27 1787.27,1307.48 1789.25,1307.7 1791.24,1307.92 1793.22,1308.11 1795.21,1308.33 1797.19,1308.54 1799.17,1308.75 1801.16,1308.97 1803.14,1309.22 1805.13,1309.44 1807.11,1309.65 1809.09,1309.88 1811.08,1310.09 1813.06,1310.3 1815.05,1310.54 1817.03,1310.75 1819.02,1310.97 1821,1311.19 1822.98,1311.39 1824.97,1311.59 1826.95,1311.78 1828.94,1312.02 1830.92,1312.24 1832.9,1312.44 1834.89,1312.64 1836.87,1312.86 1838.86,1313.05 1840.84,1313.26 1842.83,1313.47 1844.81,1313.68 1846.79,1313.9 1848.78,1314.1 1850.76,1314.28 1852.75,1314.48 1854.73,1314.69 1856.71,1314.87 1858.7,1315.06 1860.68,1315.26 1862.67,1315.46 1864.65,1315.64 1866.64,1315.83 1868.62,1316.03 1870.6,1316.24 1872.59,1316.46 1874.57,1316.68 1876.56,1316.88 1878.54,1317.08 1880.52,1317.27 1882.51,1317.49 1884.49,1317.72 1886.48,1317.95 1888.46,1318.14 1890.45,1318.33 1892.43,1318.54 1894.41,1318.74 1896.4,1318.95 1898.38,1319.16 1900.37,1319.35 1902.35,1319.55 1904.33,1319.76 1906.32,1320 1908.3,1320.22 1910.29,1320.42 1912.27,1320.62 1914.26,1320.83 1916.24,1321.02 1918.22,1321.21 1920.21,1321.4 1922.19,1321.6 1924.18,1321.8 1926.16,1322.01 1928.14,1322.22 1930.13,1322.45 1932.11,1322.66 1934.1,1322.86 1936.08,1323.06 1938.07,1323.27 1940.05,1323.48 1942.03,1323.66 1944.02,1323.88 1946,1324.06 1947.99,1324.28 1949.97,1324.49 1951.95,1324.7 1953.94,1324.92 1955.92,1325.11 1957.91,1325.32 1959.89,1325.53 1961.88,1325.76 1963.86,1325.98 1965.84,1326.2 1967.83,1326.4 1969.81,1326.62 1971.8,1326.81 1973.78,1327.06 1975.76,1327.26 1977.75,1327.48 1979.73,1327.65 1981.72,1327.88 1983.7,1328.08 1985.69,1328.31 1987.67,1328.51 1989.65,1328.71 1991.64,1328.91 1993.62,1329.13 1995.61,1329.32 1997.59,1329.53 1999.57,1329.75 2001.56,1329.95 2003.54,1330.15 2005.53,1330.36 2007.51,1330.55 2009.5,1330.76 2011.48,1330.96 2013.46,1331.18 2015.45,1331.38 2017.43,1331.58 2019.42,1331.82 2021.4,1332.02 2023.38,1332.24 2025.37,1332.44 2027.35,1332.64 2029.34,1332.87 2031.32,1333.1 2033.31,1333.32 2035.29,1333.55 2037.27,1333.75 2039.26,1333.97 2041.24,1334.18 2043.23,1334.41 2045.21,1334.6 2047.19,1334.81 2049.18,1335.02 2051.16,1335.22 2053.15,1335.47 2055.13,1335.68 2057.12,1335.9 2059.1,1336.13 2061.08,1336.33 2063.07,1336.51 2065.05,1336.73 2067.04,1336.93 2069.02,1337.15 2071,1337.38 2072.99,1337.6 2074.97,1337.82 2076.96,1338.05 2078.94,1338.28 2080.93,1338.51 2082.91,1338.73 2084.89,1338.94 2086.88,1339.14 2088.86,1339.38 2090.85,1339.64 2092.83,1339.85 2094.81,1340.09 2096.8,1340.31 2098.78,1340.57 2100.77,1340.8 2102.75,1341.03 2104.74,1341.26 2106.72,1341.51 2108.7,1341.77 2110.69,1342.01 2112.67,1342.24 2114.66,1342.46 2116.64,1342.69 2118.62,1342.92 2120.61,1343.19 2122.59,1343.41 2124.58,1343.71 2126.56,1343.95 2128.55,1344.17 2130.53,1344.4 2132.51,1344.64 2134.5,1344.9 2136.48,1345.13 2138.47,1345.4 2140.45,1345.64 2142.43,1345.9 2144.42,1346.14 2146.4,1346.37 2148.39,1346.62 2150.37,1346.85 2152.36,1347.1 2154.34,1347.36 2156.32,1347.64 2158.31,1347.91 2160.29,1348.15 2162.28,1348.44 2164.26,1348.67 2166.24,1348.9 2168.23,1349.14 2170.21,1349.42 2172.2,1349.71 2174.18,1349.94 2176.17,1350.22 2178.15,1350.48 2180.13,1350.72 2182.12,1350.97 2184.1,1351.24 2186.09,1351.52 2188.07,1351.79 2190.05,1352.03 2192.04,1352.32 2194.02,1352.59 2196.01,1352.89 2197.99,1353.16 2199.98,1353.45 2201.96,1353.71 2203.94,1353.98 2205.93,1354.28 2207.91,1354.61 2209.9,1354.9 2211.88,1355.17 2213.86,1355.47 2215.85,1355.78 2217.83,1356.1 2219.82,1356.45 2221.8,1356.79 2223.79,1357.11 2225.77,1357.42 2227.75,1357.75 2229.74,1358.08 2231.72,1358.42 2233.71,1358.76 2235.69,1359.12 2237.67,1359.51 2239.66,1359.92 2241.64,1360.31 2243.63,1360.68 2245.61,1361.07 2247.6,1361.45 2249.58,1361.89 2251.56,1362.28 2253.55,1362.74 2255.53,1363.16 2257.52,1363.63 2259.5,1364.07 2261.48,1364.5 2263.47,1364.99 2265.45,1365.48 2267.44,1366 2269.42,1366.58 2271.41,1367.1 2273.39,1367.66 2275.37,1368.27 2277.36,1368.95 2279.34,1369.65 2281.33,1370.45 2283.31,1371.25 2285.29,1372.14 2287.28,1373.28 2289.26,1374.72 2291.25,1376.86 2293.23,1384.24 "/>
<polyline clip-path="url(#clip582)" style="stroke:#808080; stroke-linecap:round; stroke-linejoin:round; stroke-width:4; stroke-opacity:1; fill:none" stroke-dasharray="16, 10" points="309.067,86.1857 321.985,94.6367 441.43,172.779 513.212,219.739 573.903,259.443 639.83,302.573 700.609,342.335 765.77,384.964 841.266,434.353 908.357,478.245 967.191,516.734 1031.34,558.698 1095.86,600.911 1167.2,647.583 1235.08,691.99 1305.66,738.163 1365.07,777.031 1437.61,824.484 1504.05,867.954 1565.42,908.102 1627.59,948.771 1697.26,994.349 1760.39,1035.65 1832.67,1082.94 1899.6,1126.72 1965.58,1169.89 2029.64,1211.8 2095.31,1254.76 2167.27,1301.83 2271.79,1370.21 2293.23,1384.24 "/>
<path clip-path="url(#clip580)" d="M2009.97 248.629 L2282.65 248.629 L2282.65 93.1086 L2009.97 93.1086  Z" fill="#ffffff" fill-rule="evenodd" fill-opacity="1"/>
<polyline clip-path="url(#clip580)" style="stroke:#000000; stroke-linecap:round; stroke-linejoin:round; stroke-width:4; stroke-opacity:1; fill:none" points="2009.97,248.629 2282.65,248.629 2282.65,93.1086 2009.97,93.1086 2009.97,248.629 "/>
<polyline clip-path="url(#clip580)" style="stroke:#ff0000; stroke-linecap:round; stroke-linejoin:round; stroke-width:6; stroke-opacity:1; fill:none" points="2033.34,144.949 2173.55,144.949 "/>
<path clip-path="url(#clip580)" d="M2206.53 162.9 Q2196.92 162.9 2196.92 149.15 Q2196.92 143.71 2200.51 136.303 L2205.09 136.303 Q2201.78 143.71 2201.78 149.266 Q2201.78 159.289 2206.92 159.289 Q2211.62 159.289 2211.62 146.835 L2215.55 146.835 Q2215.55 159.289 2220.25 159.289 Q2225.39 159.289 2225.39 149.266 Q2225.39 143.71 2222.08 136.303 L2226.66 136.303 Q2230.25 143.71 2230.25 149.15 Q2230.25 162.9 2220.65 162.9 Q2214.35 162.9 2213.59 155.979 Q2212.64 162.9 2206.53 162.9 Z" fill="#000000" fill-rule="nonzero" fill-opacity="1" /><path clip-path="url(#clip580)" d="M2239.37 158.293 L2247.01 158.293 L2247.01 131.928 L2238.7 133.595 L2238.7 129.335 L2246.96 127.669 L2251.64 127.669 L2251.64 158.293 L2259.28 158.293 L2259.28 162.229 L2239.37 162.229 L2239.37 158.293 Z" fill="#000000" fill-rule="nonzero" fill-opacity="1" /><polyline clip-path="url(#clip580)" style="stroke:#0000ff; stroke-linecap:round; stroke-linejoin:round; stroke-width:6; stroke-opacity:1; fill:none" points="2033.34,196.789 2173.55,196.789 "/>
<path clip-path="url(#clip580)" d="M2206.53 214.74 Q2196.92 214.74 2196.92 200.99 Q2196.92 195.55 2200.51 188.143 L2205.09 188.143 Q2201.78 195.55 2201.78 201.106 Q2201.78 211.129 2206.92 211.129 Q2211.62 211.129 2211.62 198.675 L2215.55 198.675 Q2215.55 211.129 2220.25 211.129 Q2225.39 211.129 2225.39 201.106 Q2225.39 195.55 2222.08 188.143 L2226.66 188.143 Q2230.25 195.55 2230.25 200.99 Q2230.25 214.74 2220.65 214.74 Q2214.35 214.74 2213.59 207.819 Q2212.64 214.74 2206.53 214.74 Z" fill="#000000" fill-rule="nonzero" fill-opacity="1" /><path clip-path="url(#clip580)" d="M2242.59 210.133 L2258.91 210.133 L2258.91 214.069 L2236.97 214.069 L2236.97 210.133 Q2239.63 207.379 2244.21 202.749 Q2248.82 198.096 2250 196.754 Q2252.24 194.231 2253.12 192.495 Q2254.03 190.735 2254.03 189.046 Q2254.03 186.291 2252.08 184.555 Q2250.16 182.819 2247.06 182.819 Q2244.86 182.819 2242.4 183.583 Q2239.97 184.347 2237.2 185.897 L2237.2 181.175 Q2240.02 180.041 2242.47 179.462 Q2244.93 178.884 2246.96 178.884 Q2252.34 178.884 2255.53 181.569 Q2258.72 184.254 2258.72 188.745 Q2258.72 190.874 2257.91 192.796 Q2257.13 194.694 2255.02 197.286 Q2254.44 197.958 2251.34 201.175 Q2248.24 204.37 2242.59 210.133 Z" fill="#000000" fill-rule="nonzero" fill-opacity="1" /></svg>
