<?xml version="1.0" encoding="utf-8"?>
<svg xmlns="http://www.w3.org/2000/svg" xmlns:xlink="http://www.w3.org/1999/xlink" width="600" height="400" viewBox="0 0 2400 1600">
<defs>
  <clipPath id="clip970">
    <rect x="0" y="0" width="2400" height="1600"/>
  </clipPath>
</defs>
<path clip-path="url(#clip970)" d="M0 1600 L2400 1600 L2400 0 L0 0  Z" fill="#ffffff" fill-rule="evenodd" fill-opacity="1"/>
<defs>
  <clipPath id="clip971">
    <rect x="480" y="0" width="1681" height="1600"/>
  </clipPath>
</defs>
<path clip-path="url(#clip970)" d="M249.542 1423.18 L2352.76 1423.18 L2352.76 47.2441 L249.542 47.2441  Z" fill="#ffffff" fill-rule="evenodd" fill-opacity="1"/>
<defs>
  <clipPath id="clip972">
    <rect x="249" y="47" width="2104" height="1377"/>
  </clipPath>
</defs>
<polyline clip-path="url(#clip972)" style="stroke:#000000; stroke-linecap:round; stroke-linejoin:round; stroke-width:2; stroke-opacity:0.1; fill:none" points="309.067,1423.18 309.067,47.2441 "/>
<polyline clip-path="url(#clip972)" style="stroke:#000000; stroke-linecap:round; stroke-linejoin:round; stroke-width:2; stroke-opacity:0.1; fill:none" points="805.108,1423.18 805.108,47.2441 "/>
<polyline clip-path="url(#clip972)" style="stroke:#000000; stroke-linecap:round; stroke-linejoin:round; stroke-width:2; stroke-opacity:0.1; fill:none" points="1301.15,1423.18 1301.15,47.2441 "/>
<polyline clip-path="url(#clip972)" style="stroke:#000000; stroke-linecap:round; stroke-linejoin:round; stroke-width:2; stroke-opacity:0.1; fill:none" points="1797.19,1423.18 1797.19,47.2441 "/>
<polyline clip-path="url(#clip972)" style="stroke:#000000; stroke-linecap:round; stroke-linejoin:round; stroke-width:2; stroke-opacity:0.1; fill:none" points="2293.23,1423.18 2293.23,47.2441 "/>
<polyline clip-path="url(#clip970)" style="stroke:#000000; stroke-linecap:round; stroke-linejoin:round; stroke-width:4; stroke-opacity:1; fill:none" points="249.542,1423.18 2352.76,1423.18 "/>
<polyline clip-path="url(#clip970)" style="stroke:#000000; stroke-linecap:round; stroke-linejoin:round; stroke-width:4; stroke-opacity:1; fill:none" points="309.067,1423.18 309.067,1404.28 "/>
<polyline clip-path="url(#clip970)" style="stroke:#000000; stroke-linecap:round; stroke-linejoin:round; stroke-width:4; stroke-opacity:1; fill:none" points="805.108,1423.18 805.108,1404.28 "/>
<polyline clip-path="url(#clip970)" style="stroke:#000000; stroke-linecap:round; stroke-linejoin:round; stroke-width:4; stroke-opacity:1; fill:none" points="1301.15,1423.18 1301.15,1404.28 "/>
<polyline clip-path="url(#clip970)" style="stroke:#000000; stroke-linecap:round; stroke-linejoin:round; stroke-width:4; stroke-opacity:1; fill:none" points="1797.19,1423.18 1797.19,1404.28 "/>
<polyline clip-path="url(#clip970)" style="stroke:#000000; stroke-linecap:round; stroke-linejoin:round; stroke-width:4; stroke-opacity:1; fill:none" points="2293.23,1423.18 2293.23,1404.28 "/>
<path clip-path="url(#clip970)" d="M271.37 1454.1 Q267.759 1454.1 265.931 1457.66 Q264.125 1461.2 264.125 1468.33 Q264.125 1475.44 265.931 1479.01 Q267.759 1482.55 271.37 1482.55 Q275.005 1482.55 276.81 1479.01 Q278.639 1475.44 278.639 1468.33 Q278.639 1461.2 276.81 1457.66 Q275.005 1454.1 271.37 1454.1 M271.37 1450.39 Q277.181 1450.39 280.236 1455 Q283.315 1459.58 283.315 1468.33 Q283.315 1477.06 280.236 1481.67 Q277.181 1486.25 271.37 1486.25 Q265.56 1486.25 262.482 1481.67 Q259.426 1477.06 259.426 1468.33 Q259.426 1459.58 262.482 1455 Q265.56 1450.39 271.37 1450.39 Z" fill="#000000" fill-rule="nonzero" fill-opacity="1" /><path clip-path="url(#clip970)" d="M291.532 1479.7 L296.417 1479.7 L296.417 1485.58 L291.532 1485.58 L291.532 1479.7 Z" fill="#000000" fill-rule="nonzero" fill-opacity="1" /><path clip-path="url(#clip970)" d="M316.602 1454.1 Q312.991 1454.1 311.162 1457.66 Q309.356 1461.2 309.356 1468.33 Q309.356 1475.44 311.162 1479.01 Q312.991 1482.55 316.602 1482.55 Q320.236 1482.55 322.041 1479.01 Q323.87 1475.44 323.87 1468.33 Q323.87 1461.2 322.041 1457.66 Q320.236 1454.1 316.602 1454.1 M316.602 1450.39 Q322.412 1450.39 325.467 1455 Q328.546 1459.58 328.546 1468.33 Q328.546 1477.06 325.467 1481.67 Q322.412 1486.25 316.602 1486.25 Q310.791 1486.25 307.713 1481.67 Q304.657 1477.06 304.657 1468.33 Q304.657 1459.58 307.713 1455 Q310.791 1450.39 316.602 1450.39 Z" fill="#000000" fill-rule="nonzero" fill-opacity="1" /><path clip-path="url(#clip970)" d="M346.764 1454.1 Q343.152 1454.1 341.324 1457.66 Q339.518 1461.2 339.518 1468.33 Q339.518 1475.44 341.324 1479.01 Q343.152 1482.55 346.764 1482.55 Q350.398 1482.55 352.203 1479.01 Q354.032 1475.44 354.032 1468.33 Q354.032 1461.2 352.203 1457.66 Q350.398 1454.1 346.764 1454.1 M346.764 1450.39 Q352.574 1450.39 355.629 1455 Q358.708 1459.58 358.708 1468.33 Q358.708 1477.06 355.629 1481.67 Q352.574 1486.25 346.764 1486.25 Q340.953 1486.25 337.875 1481.67 Q334.819 1477.06 334.819 1468.33 Q334.819 1459.58 337.875 1455 Q340.953 1450.39 346.764 1450.39 Z" fill="#000000" fill-rule="nonzero" fill-opacity="1" /><path clip-path="url(#clip970)" d="M767.909 1454.1 Q764.298 1454.1 762.469 1457.66 Q760.664 1461.2 760.664 1468.33 Q760.664 1475.44 762.469 1479.01 Q764.298 1482.55 767.909 1482.55 Q771.543 1482.55 773.349 1479.01 Q775.178 1475.44 775.178 1468.33 Q775.178 1461.2 773.349 1457.66 Q771.543 1454.1 767.909 1454.1 M767.909 1450.39 Q773.719 1450.39 776.775 1455 Q779.853 1459.58 779.853 1468.33 Q779.853 1477.06 776.775 1481.67 Q773.719 1486.25 767.909 1486.25 Q762.099 1486.25 759.02 1481.67 Q755.965 1477.06 755.965 1468.33 Q755.965 1459.58 759.02 1455 Q762.099 1450.39 767.909 1450.39 Z" fill="#000000" fill-rule="nonzero" fill-opacity="1" /><path clip-path="url(#clip970)" d="M788.071 1479.7 L792.955 1479.7 L792.955 1485.58 L788.071 1485.58 L788.071 1479.7 Z" fill="#000000" fill-rule="nonzero" fill-opacity="1" /><path clip-path="url(#clip970)" d="M807.168 1481.64 L823.487 1481.64 L823.487 1485.58 L801.543 1485.58 L801.543 1481.64 Q804.205 1478.89 808.788 1474.26 Q813.395 1469.61 814.575 1468.27 Q816.821 1465.74 817.7 1464.01 Q818.603 1462.25 818.603 1460.56 Q818.603 1457.8 816.659 1456.07 Q814.738 1454.33 811.636 1454.33 Q809.437 1454.33 806.983 1455.09 Q804.552 1455.86 801.775 1457.41 L801.775 1452.69 Q804.599 1451.55 807.052 1450.97 Q809.506 1450.39 811.543 1450.39 Q816.913 1450.39 820.108 1453.08 Q823.302 1455.77 823.302 1460.26 Q823.302 1462.39 822.492 1464.31 Q821.705 1466.2 819.599 1468.8 Q819.02 1469.47 815.918 1472.69 Q812.816 1475.88 807.168 1481.64 Z" fill="#000000" fill-rule="nonzero" fill-opacity="1" /><path clip-path="url(#clip970)" d="M833.349 1451.02 L851.705 1451.02 L851.705 1454.96 L837.631 1454.96 L837.631 1463.43 Q838.649 1463.08 839.668 1462.92 Q840.686 1462.73 841.705 1462.73 Q847.492 1462.73 850.872 1465.9 Q854.251 1469.08 854.251 1474.49 Q854.251 1480.07 850.779 1483.17 Q847.307 1486.25 840.987 1486.25 Q838.811 1486.25 836.543 1485.88 Q834.298 1485.51 831.89 1484.77 L831.89 1480.07 Q833.974 1481.2 836.196 1481.76 Q838.418 1482.32 840.895 1482.32 Q844.899 1482.32 847.237 1480.21 Q849.575 1478.1 849.575 1474.49 Q849.575 1470.88 847.237 1468.77 Q844.899 1466.67 840.895 1466.67 Q839.02 1466.67 837.145 1467.08 Q835.293 1467.5 833.349 1468.38 L833.349 1451.02 Z" fill="#000000" fill-rule="nonzero" fill-opacity="1" /><path clip-path="url(#clip970)" d="M1263.45 1454.1 Q1259.84 1454.1 1258.01 1457.66 Q1256.21 1461.2 1256.21 1468.33 Q1256.21 1475.44 1258.01 1479.01 Q1259.84 1482.55 1263.45 1482.55 Q1267.09 1482.55 1268.89 1479.01 Q1270.72 1475.44 1270.72 1468.33 Q1270.72 1461.2 1268.89 1457.66 Q1267.09 1454.1 1263.45 1454.1 M1263.45 1450.39 Q1269.26 1450.39 1272.32 1455 Q1275.4 1459.58 1275.4 1468.33 Q1275.4 1477.06 1272.32 1481.67 Q1269.26 1486.25 1263.45 1486.25 Q1257.64 1486.25 1254.56 1481.67 Q1251.51 1477.06 1251.51 1468.33 Q1251.51 1459.58 1254.56 1455 Q1257.64 1450.39 1263.45 1450.39 Z" fill="#000000" fill-rule="nonzero" fill-opacity="1" /><path clip-path="url(#clip970)" d="M1283.61 1479.7 L1288.5 1479.7 L1288.5 1485.58 L1283.61 1485.58 L1283.61 1479.7 Z" fill="#000000" fill-rule="nonzero" fill-opacity="1" /><path clip-path="url(#clip970)" d="M1298.73 1451.02 L1317.09 1451.02 L1317.09 1454.96 L1303.01 1454.96 L1303.01 1463.43 Q1304.03 1463.08 1305.05 1462.92 Q1306.07 1462.73 1307.09 1462.73 Q1312.87 1462.73 1316.25 1465.9 Q1319.63 1469.08 1319.63 1474.49 Q1319.63 1480.07 1316.16 1483.17 Q1312.69 1486.25 1306.37 1486.25 Q1304.19 1486.25 1301.92 1485.88 Q1299.68 1485.51 1297.27 1484.77 L1297.27 1480.07 Q1299.35 1481.2 1301.58 1481.76 Q1303.8 1482.32 1306.28 1482.32 Q1310.28 1482.32 1312.62 1480.21 Q1314.96 1478.1 1314.96 1474.49 Q1314.96 1470.88 1312.62 1468.77 Q1310.28 1466.67 1306.28 1466.67 Q1304.4 1466.67 1302.53 1467.08 Q1300.67 1467.5 1298.73 1468.38 L1298.73 1451.02 Z" fill="#000000" fill-rule="nonzero" fill-opacity="1" /><path clip-path="url(#clip970)" d="M1338.85 1454.1 Q1335.23 1454.1 1333.41 1457.66 Q1331.6 1461.2 1331.6 1468.33 Q1331.6 1475.44 1333.41 1479.01 Q1335.23 1482.55 1338.85 1482.55 Q1342.48 1482.55 1344.29 1479.01 Q1346.11 1475.44 1346.11 1468.33 Q1346.11 1461.2 1344.29 1457.66 Q1342.48 1454.1 1338.85 1454.1 M1338.85 1450.39 Q1344.66 1450.39 1347.71 1455 Q1350.79 1459.58 1350.79 1468.33 Q1350.79 1477.06 1347.71 1481.67 Q1344.66 1486.25 1338.85 1486.25 Q1333.04 1486.25 1329.96 1481.67 Q1326.9 1477.06 1326.9 1468.33 Q1326.9 1459.58 1329.96 1455 Q1333.04 1450.39 1338.85 1450.39 Z" fill="#000000" fill-rule="nonzero" fill-opacity="1" /><path clip-path="url(#clip970)" d="M1759.99 1454.1 Q1756.38 1454.1 1754.55 1457.66 Q1752.75 1461.2 1752.75 1468.33 Q1752.75 1475.44 1754.55 1479.01 Q1756.38 1482.55 1759.99 1482.55 Q1763.63 1482.55 1765.43 1479.01 Q1767.26 1475.44 1767.26 1468.33 Q1767.26 1461.2 1765.43 1457.66 Q1763.63 1454.1 1759.99 1454.1 M1759.99 1450.39 Q1765.8 1450.39 1768.86 1455 Q1771.94 1459.58 1771.94 1468.33 Q1771.94 1477.06 1768.86 1481.67 Q1765.8 1486.25 1759.99 1486.25 Q1754.18 1486.25 1751.1 1481.67 Q1748.05 1477.06 1748.05 1468.33 Q1748.05 1459.58 1751.1 1455 Q1754.18 1450.39 1759.99 1450.39 Z" fill="#000000" fill-rule="nonzero" fill-opacity="1" /><path clip-path="url(#clip970)" d="M1780.15 1479.7 L1785.04 1479.7 L1785.04 1485.58 L1780.15 1485.58 L1780.15 1479.7 Z" fill="#000000" fill-rule="nonzero" fill-opacity="1" /><path clip-path="url(#clip970)" d="M1794.04 1451.02 L1816.26 1451.02 L1816.26 1453.01 L1803.72 1485.58 L1798.83 1485.58 L1810.64 1454.96 L1794.04 1454.96 L1794.04 1451.02 Z" fill="#000000" fill-rule="nonzero" fill-opacity="1" /><path clip-path="url(#clip970)" d="M1825.43 1451.02 L1843.79 1451.02 L1843.79 1454.96 L1829.71 1454.96 L1829.71 1463.43 Q1830.73 1463.08 1831.75 1462.92 Q1832.77 1462.73 1833.79 1462.73 Q1839.57 1462.73 1842.95 1465.9 Q1846.33 1469.08 1846.33 1474.49 Q1846.33 1480.07 1842.86 1483.17 Q1839.39 1486.25 1833.07 1486.25 Q1830.89 1486.25 1828.62 1485.88 Q1826.38 1485.51 1823.97 1484.77 L1823.97 1480.07 Q1826.06 1481.2 1828.28 1481.76 Q1830.5 1482.32 1832.98 1482.32 Q1836.98 1482.32 1839.32 1480.21 Q1841.66 1478.1 1841.66 1474.49 Q1841.66 1470.88 1839.32 1468.77 Q1836.98 1466.67 1832.98 1466.67 Q1831.1 1466.67 1829.23 1467.08 Q1827.37 1467.5 1825.43 1468.38 L1825.43 1451.02 Z" fill="#000000" fill-rule="nonzero" fill-opacity="1" /><path clip-path="url(#clip970)" d="M2245.3 1481.64 L2252.94 1481.64 L2252.94 1455.28 L2244.63 1456.95 L2244.63 1452.69 L2252.9 1451.02 L2257.57 1451.02 L2257.57 1481.64 L2265.21 1481.64 L2265.21 1485.58 L2245.3 1485.58 L2245.3 1481.64 Z" fill="#000000" fill-rule="nonzero" fill-opacity="1" /><path clip-path="url(#clip970)" d="M2274.65 1479.7 L2279.54 1479.7 L2279.54 1485.58 L2274.65 1485.58 L2274.65 1479.7 Z" fill="#000000" fill-rule="nonzero" fill-opacity="1" /><path clip-path="url(#clip970)" d="M2299.72 1454.1 Q2296.11 1454.1 2294.28 1457.66 Q2292.48 1461.2 2292.48 1468.33 Q2292.48 1475.44 2294.28 1479.01 Q2296.11 1482.55 2299.72 1482.55 Q2303.36 1482.55 2305.16 1479.01 Q2306.99 1475.44 2306.99 1468.33 Q2306.99 1461.2 2305.16 1457.66 Q2303.36 1454.1 2299.72 1454.1 M2299.72 1450.39 Q2305.53 1450.39 2308.59 1455 Q2311.67 1459.58 2311.67 1468.33 Q2311.67 1477.06 2308.59 1481.67 Q2305.53 1486.25 2299.72 1486.25 Q2293.91 1486.25 2290.84 1481.67 Q2287.78 1477.06 2287.78 1468.33 Q2287.78 1459.58 2290.84 1455 Q2293.91 1450.39 2299.72 1450.39 Z" fill="#000000" fill-rule="nonzero" fill-opacity="1" /><path clip-path="url(#clip970)" d="M2329.89 1454.1 Q2326.27 1454.1 2324.45 1457.66 Q2322.64 1461.2 2322.64 1468.33 Q2322.64 1475.44 2324.45 1479.01 Q2326.27 1482.55 2329.89 1482.55 Q2333.52 1482.55 2335.33 1479.01 Q2337.15 1475.44 2337.15 1468.33 Q2337.15 1461.2 2335.33 1457.66 Q2333.52 1454.1 2329.89 1454.1 M2329.89 1450.39 Q2335.7 1450.39 2338.75 1455 Q2341.83 1459.58 2341.83 1468.33 Q2341.83 1477.06 2338.75 1481.67 Q2335.7 1486.25 2329.89 1486.25 Q2324.08 1486.25 2321 1481.67 Q2317.94 1477.06 2317.94 1468.33 Q2317.94 1459.58 2321 1455 Q2324.08 1450.39 2329.89 1450.39 Z" fill="#000000" fill-rule="nonzero" fill-opacity="1" /><path clip-path="url(#clip970)" d="M816.066 1525.81 L816.066 1543.66 L824.151 1543.66 Q828.638 1543.66 831.089 1541.34 Q833.54 1539.02 833.54 1534.72 Q833.54 1530.45 831.089 1528.13 Q828.638 1525.81 824.151 1525.81 L816.066 1525.81 M809.637 1520.52 L824.151 1520.52 Q832.14 1520.52 836.214 1524.15 Q840.32 1527.75 840.32 1534.72 Q840.32 1541.75 836.214 1545.35 Q832.14 1548.95 824.151 1548.95 L816.066 1548.95 L816.066 1568.04 L809.637 1568.04 L809.637 1520.52 Z" fill="#000000" fill-rule="nonzero" fill-opacity="1" /><path clip-path="url(#clip970)" d="M860.181 1536.5 Q855.47 1536.5 852.733 1540.19 Q849.995 1543.85 849.995 1550.25 Q849.995 1556.65 852.701 1560.34 Q855.438 1564 860.181 1564 Q864.859 1564 867.597 1560.31 Q870.334 1556.62 870.334 1550.25 Q870.334 1543.92 867.597 1540.23 Q864.859 1536.5 860.181 1536.5 M860.181 1531.54 Q867.819 1531.54 872.18 1536.5 Q876.54 1541.47 876.54 1550.25 Q876.54 1559 872.18 1564 Q867.819 1568.97 860.181 1568.97 Q852.51 1568.97 848.149 1564 Q843.821 1559 843.821 1550.25 Q843.821 1541.47 848.149 1536.5 Q852.51 1531.54 860.181 1531.54 Z" fill="#000000" fill-rule="nonzero" fill-opacity="1" /><path clip-path="url(#clip970)" d="M908.974 1533.45 L908.974 1538.98 Q906.491 1537.71 903.817 1537.07 Q901.144 1536.44 898.279 1536.44 Q893.919 1536.44 891.723 1537.77 Q889.558 1539.11 889.558 1541.79 Q889.558 1543.82 891.118 1545 Q892.677 1546.15 897.388 1547.2 L899.393 1547.64 Q905.632 1548.98 908.242 1551.43 Q910.883 1553.85 910.883 1558.21 Q910.883 1563.17 906.937 1566.07 Q903.022 1568.97 896.147 1568.97 Q893.282 1568.97 890.163 1568.39 Q887.076 1567.85 883.638 1566.74 L883.638 1560.69 Q886.885 1562.38 890.036 1563.24 Q893.187 1564.07 896.274 1564.07 Q900.412 1564.07 902.64 1562.66 Q904.868 1561.23 904.868 1558.65 Q904.868 1556.27 903.245 1554.99 Q901.653 1553.72 896.21 1552.54 L894.173 1552.07 Q888.731 1550.92 886.312 1548.56 Q883.893 1546.18 883.893 1542.04 Q883.893 1537.01 887.458 1534.27 Q891.022 1531.54 897.579 1531.54 Q900.826 1531.54 903.69 1532.01 Q906.555 1532.49 908.974 1533.45 Z" fill="#000000" fill-rule="nonzero" fill-opacity="1" /><path clip-path="url(#clip970)" d="M926.002 1522.27 L926.002 1532.4 L938.065 1532.4 L938.065 1536.95 L926.002 1536.95 L926.002 1556.3 Q926.002 1560.66 927.18 1561.9 Q928.389 1563.14 932.049 1563.14 L938.065 1563.14 L938.065 1568.04 L932.049 1568.04 Q925.27 1568.04 922.692 1565.53 Q920.114 1562.98 920.114 1556.3 L920.114 1536.95 L915.817 1536.95 L915.817 1532.4 L920.114 1532.4 L920.114 1522.27 L926.002 1522.27 Z" fill="#000000" fill-rule="nonzero" fill-opacity="1" /><path clip-path="url(#clip970)" d="M976.259 1548.76 L976.259 1551.62 L949.332 1551.62 Q949.714 1557.67 952.961 1560.85 Q956.239 1564 962.064 1564 Q965.438 1564 968.589 1563.17 Q971.771 1562.35 974.891 1560.69 L974.891 1566.23 Q971.74 1567.57 968.429 1568.27 Q965.119 1568.97 961.714 1568.97 Q953.184 1568.97 948.186 1564 Q943.221 1559.04 943.221 1550.57 Q943.221 1541.82 947.932 1536.69 Q952.674 1531.54 960.695 1531.54 Q967.888 1531.54 972.058 1536.18 Q976.259 1540.8 976.259 1548.76 M970.403 1547.04 Q970.339 1542.23 967.697 1539.37 Q965.087 1536.5 960.759 1536.5 Q955.857 1536.5 952.897 1539.27 Q949.969 1542.04 949.523 1547.07 L970.403 1547.04 Z" fill="#000000" fill-rule="nonzero" fill-opacity="1" /><path clip-path="url(#clip970)" d="M1006.53 1537.87 Q1005.54 1537.3 1004.36 1537.04 Q1003.22 1536.76 1001.82 1536.76 Q996.852 1536.76 994.179 1540 Q991.537 1543.22 991.537 1549.27 L991.537 1568.04 L985.649 1568.04 L985.649 1532.4 L991.537 1532.4 L991.537 1537.93 Q993.383 1534.69 996.343 1533.13 Q999.303 1531.54 1003.54 1531.54 Q1004.14 1531.54 1004.87 1531.63 Q1005.61 1531.7 1006.5 1531.85 L1006.53 1537.87 Z" fill="#000000" fill-rule="nonzero" fill-opacity="1" /><path clip-path="url(#clip970)" d="M1012.67 1532.4 L1018.53 1532.4 L1018.53 1568.04 L1012.67 1568.04 L1012.67 1532.4 M1012.67 1518.52 L1018.53 1518.52 L1018.53 1525.93 L1012.67 1525.93 L1012.67 1518.52 Z" fill="#000000" fill-rule="nonzero" fill-opacity="1" /><path clip-path="url(#clip970)" d="M1044.6 1536.5 Q1039.88 1536.5 1037.15 1540.19 Q1034.41 1543.85 1034.41 1550.25 Q1034.41 1556.65 1037.12 1560.34 Q1039.85 1564 1044.6 1564 Q1049.27 1564 1052.01 1560.31 Q1054.75 1556.62 1054.75 1550.25 Q1054.75 1543.92 1052.01 1540.23 Q1049.27 1536.5 1044.6 1536.5 M1044.6 1531.54 Q1052.23 1531.54 1056.59 1536.5 Q1060.95 1541.47 1060.95 1550.25 Q1060.95 1559 1056.59 1564 Q1052.23 1568.97 1044.6 1568.97 Q1036.92 1568.97 1032.56 1564 Q1028.24 1559 1028.24 1550.25 Q1028.24 1541.47 1032.56 1536.5 Q1036.92 1531.54 1044.6 1531.54 Z" fill="#000000" fill-rule="nonzero" fill-opacity="1" /><path clip-path="url(#clip970)" d="M1091.32 1537.87 Q1090.33 1537.3 1089.16 1537.04 Q1088.01 1536.76 1086.61 1536.76 Q1081.64 1536.76 1078.97 1540 Q1076.33 1543.22 1076.33 1549.27 L1076.33 1568.04 L1070.44 1568.04 L1070.44 1532.4 L1076.33 1532.4 L1076.33 1537.93 Q1078.17 1534.69 1081.13 1533.13 Q1084.09 1531.54 1088.33 1531.54 Q1088.93 1531.54 1089.66 1531.63 Q1090.4 1531.7 1091.29 1531.85 L1091.32 1537.87 Z" fill="#000000" fill-rule="nonzero" fill-opacity="1" /><path clip-path="url(#clip970)" d="M1124.87 1525.81 L1124.87 1543.66 L1132.95 1543.66 Q1137.44 1543.66 1139.89 1541.34 Q1142.34 1539.02 1142.34 1534.72 Q1142.34 1530.45 1139.89 1528.13 Q1137.44 1525.81 1132.95 1525.81 L1124.87 1525.81 M1118.44 1520.52 L1132.95 1520.52 Q1140.94 1520.52 1145.01 1524.15 Q1149.12 1527.75 1149.12 1534.72 Q1149.12 1541.75 1145.01 1545.35 Q1140.94 1548.95 1132.95 1548.95 L1124.87 1548.95 L1124.87 1568.04 L1118.44 1568.04 L1118.44 1520.52 Z" fill="#000000" fill-rule="nonzero" fill-opacity="1" /><path clip-path="url(#clip970)" d="M1177 1537.87 Q1176.02 1537.3 1174.84 1537.04 Q1173.69 1536.76 1172.29 1536.76 Q1167.33 1536.76 1164.65 1540 Q1162.01 1543.22 1162.01 1549.27 L1162.01 1568.04 L1156.12 1568.04 L1156.12 1532.4 L1162.01 1532.4 L1162.01 1537.93 Q1163.86 1534.69 1166.82 1533.13 Q1169.78 1531.54 1174.01 1531.54 Q1174.61 1531.54 1175.35 1531.63 Q1176.08 1531.7 1176.97 1531.85 L1177 1537.87 Z" fill="#000000" fill-rule="nonzero" fill-opacity="1" /><path clip-path="url(#clip970)" d="M1195.53 1536.5 Q1190.82 1536.5 1188.08 1540.19 Q1185.34 1543.85 1185.34 1550.25 Q1185.34 1556.65 1188.05 1560.34 Q1190.78 1564 1195.53 1564 Q1200.2 1564 1202.94 1560.31 Q1205.68 1556.62 1205.68 1550.25 Q1205.68 1543.92 1202.94 1540.23 Q1200.2 1536.5 1195.53 1536.5 M1195.53 1531.54 Q1203.16 1531.54 1207.53 1536.5 Q1211.89 1541.47 1211.89 1550.25 Q1211.89 1559 1207.53 1564 Q1203.16 1568.97 1195.53 1568.97 Q1187.86 1568.97 1183.49 1564 Q1179.17 1559 1179.17 1550.25 Q1179.17 1541.47 1183.49 1536.5 Q1187.86 1531.54 1195.53 1531.54 Z" fill="#000000" fill-rule="nonzero" fill-opacity="1" /><path clip-path="url(#clip970)" d="M1247.18 1550.25 Q1247.18 1543.79 1244.51 1540.13 Q1241.87 1536.44 1237.22 1536.44 Q1232.57 1536.44 1229.9 1540.13 Q1227.26 1543.79 1227.26 1550.25 Q1227.26 1556.71 1229.9 1560.4 Q1232.57 1564.07 1237.22 1564.07 Q1241.87 1564.07 1244.51 1560.4 Q1247.18 1556.71 1247.18 1550.25 M1227.26 1537.81 Q1229.11 1534.62 1231.91 1533.1 Q1234.74 1531.54 1238.65 1531.54 Q1245.15 1531.54 1249.19 1536.69 Q1253.26 1541.85 1253.26 1550.25 Q1253.26 1558.65 1249.19 1563.81 Q1245.15 1568.97 1238.65 1568.97 Q1234.74 1568.97 1231.91 1567.44 Q1229.11 1565.88 1227.26 1562.7 L1227.26 1568.04 L1221.37 1568.04 L1221.37 1518.52 L1227.26 1518.52 L1227.26 1537.81 Z" fill="#000000" fill-rule="nonzero" fill-opacity="1" /><path clip-path="url(#clip970)" d="M1279.17 1550.12 Q1272.07 1550.12 1269.34 1551.75 Q1266.6 1553.37 1266.6 1557.29 Q1266.6 1560.4 1268.64 1562.25 Q1270.7 1564.07 1274.24 1564.07 Q1279.11 1564.07 1282.04 1560.63 Q1285 1557.16 1285 1551.43 L1285 1550.12 L1279.17 1550.12 M1290.85 1547.71 L1290.85 1568.04 L1285 1568.04 L1285 1562.63 Q1282.99 1565.88 1280 1567.44 Q1277.01 1568.97 1272.68 1568.97 Q1267.2 1568.97 1263.96 1565.91 Q1260.74 1562.82 1260.74 1557.67 Q1260.74 1551.65 1264.75 1548.6 Q1268.8 1545.54 1276.78 1545.54 L1285 1545.54 L1285 1544.97 Q1285 1540.93 1282.32 1538.73 Q1279.68 1536.5 1274.87 1536.5 Q1271.82 1536.5 1268.92 1537.23 Q1266.03 1537.97 1263.35 1539.43 L1263.35 1534.02 Q1266.57 1532.78 1269.59 1532.17 Q1272.61 1531.54 1275.48 1531.54 Q1283.21 1531.54 1287.03 1535.55 Q1290.85 1539.56 1290.85 1547.71 Z" fill="#000000" fill-rule="nonzero" fill-opacity="1" /><path clip-path="url(#clip970)" d="M1328.51 1550.25 Q1328.51 1543.79 1325.83 1540.13 Q1323.19 1536.44 1318.54 1536.44 Q1313.9 1536.44 1311.22 1540.13 Q1308.58 1543.79 1308.58 1550.25 Q1308.58 1556.71 1311.22 1560.4 Q1313.9 1564.07 1318.54 1564.07 Q1323.19 1564.07 1325.83 1560.4 Q1328.51 1556.71 1328.51 1550.25 M1308.58 1537.81 Q1310.43 1534.62 1313.23 1533.1 Q1316.06 1531.54 1319.98 1531.54 Q1326.47 1531.54 1330.51 1536.69 Q1334.58 1541.85 1334.58 1550.25 Q1334.58 1558.65 1330.51 1563.81 Q1326.47 1568.97 1319.98 1568.97 Q1316.06 1568.97 1313.23 1567.44 Q1310.43 1565.88 1308.58 1562.7 L1308.58 1568.04 L1302.69 1568.04 L1302.69 1518.52 L1308.58 1518.52 L1308.58 1537.81 Z" fill="#000000" fill-rule="nonzero" fill-opacity="1" /><path clip-path="url(#clip970)" d="M1344.29 1532.4 L1350.15 1532.4 L1350.15 1568.04 L1344.29 1568.04 L1344.29 1532.4 M1344.29 1518.52 L1350.15 1518.52 L1350.15 1525.93 L1344.29 1525.93 L1344.29 1518.52 Z" fill="#000000" fill-rule="nonzero" fill-opacity="1" /><path clip-path="url(#clip970)" d="M1362.4 1518.52 L1368.26 1518.52 L1368.26 1568.04 L1362.4 1568.04 L1362.4 1518.52 Z" fill="#000000" fill-rule="nonzero" fill-opacity="1" /><path clip-path="url(#clip970)" d="M1380.51 1532.4 L1386.37 1532.4 L1386.37 1568.04 L1380.51 1568.04 L1380.51 1532.4 M1380.51 1518.52 L1386.37 1518.52 L1386.37 1525.93 L1380.51 1525.93 L1380.51 1518.52 Z" fill="#000000" fill-rule="nonzero" fill-opacity="1" /><path clip-path="url(#clip970)" d="M1404.42 1522.27 L1404.42 1532.4 L1416.48 1532.4 L1416.48 1536.95 L1404.42 1536.95 L1404.42 1556.3 Q1404.42 1560.66 1405.59 1561.9 Q1406.8 1563.14 1410.46 1563.14 L1416.48 1563.14 L1416.48 1568.04 L1410.46 1568.04 Q1403.68 1568.04 1401.11 1565.53 Q1398.53 1562.98 1398.53 1556.3 L1398.53 1536.95 L1394.23 1536.95 L1394.23 1532.4 L1398.53 1532.4 L1398.53 1522.27 L1404.42 1522.27 Z" fill="#000000" fill-rule="nonzero" fill-opacity="1" /><path clip-path="url(#clip970)" d="M1439.01 1571.35 Q1436.53 1577.72 1434.18 1579.66 Q1431.82 1581.6 1427.87 1581.6 L1423.2 1581.6 L1423.2 1576.7 L1426.63 1576.7 Q1429.05 1576.7 1430.39 1575.56 Q1431.73 1574.41 1433.35 1570.14 L1434.4 1567.47 L1419.98 1532.4 L1426.19 1532.4 L1437.33 1560.28 L1448.47 1532.4 L1454.67 1532.4 L1439.01 1571.35 Z" fill="#000000" fill-rule="nonzero" fill-opacity="1" /><path clip-path="url(#clip970)" d="M1477.14 1520.52 L1517.34 1520.52 L1517.34 1525.93 L1500.48 1525.93 L1500.48 1568.04 L1494.01 1568.04 L1494.01 1525.93 L1477.14 1525.93 L1477.14 1520.52 Z" fill="#000000" fill-rule="nonzero" fill-opacity="1" /><path clip-path="url(#clip970)" d="M1552.93 1546.53 L1552.93 1568.04 L1547.07 1568.04 L1547.07 1546.72 Q1547.07 1541.66 1545.1 1539.14 Q1543.13 1536.63 1539.18 1536.63 Q1534.44 1536.63 1531.7 1539.65 Q1528.96 1542.68 1528.96 1547.9 L1528.96 1568.04 L1523.07 1568.04 L1523.07 1518.52 L1528.96 1518.52 L1528.96 1537.93 Q1531.06 1534.72 1533.9 1533.13 Q1536.76 1531.54 1540.48 1531.54 Q1546.63 1531.54 1549.78 1535.36 Q1552.93 1539.14 1552.93 1546.53 Z" fill="#000000" fill-rule="nonzero" fill-opacity="1" /><path clip-path="url(#clip970)" d="M1585.27 1537.87 Q1584.28 1537.3 1583.1 1537.04 Q1581.96 1536.76 1580.56 1536.76 Q1575.59 1536.76 1572.92 1540 Q1570.28 1543.22 1570.28 1549.27 L1570.28 1568.04 L1564.39 1568.04 L1564.39 1532.4 L1570.28 1532.4 L1570.28 1537.93 Q1572.12 1534.69 1575.08 1533.13 Q1578.04 1531.54 1582.27 1531.54 Q1582.88 1531.54 1583.61 1531.63 Q1584.34 1531.7 1585.23 1531.85 L1585.27 1537.87 Z" fill="#000000" fill-rule="nonzero" fill-opacity="1" /><path clip-path="url(#clip970)" d="M1620.47 1548.76 L1620.47 1551.62 L1593.54 1551.62 Q1593.92 1557.67 1597.17 1560.85 Q1600.45 1564 1606.27 1564 Q1609.65 1564 1612.8 1563.17 Q1615.98 1562.35 1619.1 1560.69 L1619.1 1566.23 Q1615.95 1567.57 1612.64 1568.27 Q1609.33 1568.97 1605.92 1568.97 Q1597.39 1568.97 1592.4 1564 Q1587.43 1559.04 1587.43 1550.57 Q1587.43 1541.82 1592.14 1536.69 Q1596.88 1531.54 1604.9 1531.54 Q1612.1 1531.54 1616.27 1536.18 Q1620.47 1540.8 1620.47 1548.76 M1614.61 1547.04 Q1614.55 1542.23 1611.91 1539.37 Q1609.3 1536.5 1604.97 1536.5 Q1600.07 1536.5 1597.11 1539.27 Q1594.18 1542.04 1593.73 1547.07 L1614.61 1547.04 Z" fill="#000000" fill-rule="nonzero" fill-opacity="1" /><path clip-path="url(#clip970)" d="M1652.81 1533.45 L1652.81 1538.98 Q1650.32 1537.71 1647.65 1537.07 Q1644.98 1536.44 1642.11 1536.44 Q1637.75 1536.44 1635.56 1537.77 Q1633.39 1539.11 1633.39 1541.79 Q1633.39 1543.82 1634.95 1545 Q1636.51 1546.15 1641.22 1547.2 L1643.23 1547.64 Q1649.46 1548.98 1652.07 1551.43 Q1654.72 1553.85 1654.72 1558.21 Q1654.72 1563.17 1650.77 1566.07 Q1646.85 1568.97 1639.98 1568.97 Q1637.12 1568.97 1634 1568.39 Q1630.91 1567.85 1627.47 1566.74 L1627.47 1560.69 Q1630.72 1562.38 1633.87 1563.24 Q1637.02 1564.07 1640.11 1564.07 Q1644.24 1564.07 1646.47 1562.66 Q1648.7 1561.23 1648.7 1558.65 Q1648.7 1556.27 1647.08 1554.99 Q1645.49 1553.72 1640.04 1552.54 L1638.01 1552.07 Q1632.56 1550.92 1630.14 1548.56 Q1627.73 1546.18 1627.73 1542.04 Q1627.73 1537.01 1631.29 1534.27 Q1634.86 1531.54 1641.41 1531.54 Q1644.66 1531.54 1647.52 1532.01 Q1650.39 1532.49 1652.81 1533.45 Z" fill="#000000" fill-rule="nonzero" fill-opacity="1" /><path clip-path="url(#clip970)" d="M1693.67 1546.53 L1693.67 1568.04 L1687.82 1568.04 L1687.82 1546.72 Q1687.82 1541.66 1685.84 1539.14 Q1683.87 1536.63 1679.92 1536.63 Q1675.18 1536.63 1672.44 1539.65 Q1669.71 1542.68 1669.71 1547.9 L1669.71 1568.04 L1663.82 1568.04 L1663.82 1518.52 L1669.71 1518.52 L1669.71 1537.93 Q1671.81 1534.72 1674.64 1533.13 Q1677.51 1531.54 1681.23 1531.54 Q1687.37 1531.54 1690.52 1535.36 Q1693.67 1539.14 1693.67 1546.53 Z" fill="#000000" fill-rule="nonzero" fill-opacity="1" /><path clip-path="url(#clip970)" d="M1719.17 1536.5 Q1714.46 1536.5 1711.72 1540.19 Q1708.98 1543.85 1708.98 1550.25 Q1708.98 1556.65 1711.69 1560.34 Q1714.43 1564 1719.17 1564 Q1723.85 1564 1726.59 1560.31 Q1729.32 1556.62 1729.32 1550.25 Q1729.32 1543.92 1726.59 1540.23 Q1723.85 1536.5 1719.17 1536.5 M1719.17 1531.54 Q1726.81 1531.54 1731.17 1536.5 Q1735.53 1541.47 1735.53 1550.25 Q1735.53 1559 1731.17 1564 Q1726.81 1568.97 1719.17 1568.97 Q1711.5 1568.97 1707.14 1564 Q1702.81 1559 1702.81 1550.25 Q1702.81 1541.47 1707.14 1536.5 Q1711.5 1531.54 1719.17 1531.54 Z" fill="#000000" fill-rule="nonzero" fill-opacity="1" /><path clip-path="url(#clip970)" d="M1745.24 1518.52 L1751.09 1518.52 L1751.09 1568.04 L1745.24 1568.04 L1745.24 1518.52 Z" fill="#000000" fill-rule="nonzero" fill-opacity="1" /><path clip-path="url(#clip970)" d="M1786.8 1537.81 L1786.8 1518.52 L1792.66 1518.52 L1792.66 1568.04 L1786.8 1568.04 L1786.8 1562.7 Q1784.96 1565.88 1782.13 1567.44 Q1779.32 1568.97 1775.38 1568.97 Q1768.92 1568.97 1764.84 1563.81 Q1760.8 1558.65 1760.8 1550.25 Q1760.8 1541.85 1764.84 1536.69 Q1768.92 1531.54 1775.38 1531.54 Q1779.32 1531.54 1782.13 1533.1 Q1784.96 1534.62 1786.8 1537.81 M1766.85 1550.25 Q1766.85 1556.71 1769.49 1560.4 Q1772.16 1564.07 1776.81 1564.07 Q1781.46 1564.07 1784.13 1560.4 Q1786.8 1556.71 1786.8 1550.25 Q1786.8 1543.79 1784.13 1540.13 Q1781.46 1536.44 1776.81 1536.44 Q1772.16 1536.44 1769.49 1540.13 Q1766.85 1543.79 1766.85 1550.25 Z" fill="#000000" fill-rule="nonzero" fill-opacity="1" /><polyline clip-path="url(#clip972)" style="stroke:#000000; stroke-linecap:round; stroke-linejoin:round; stroke-width:2; stroke-opacity:0.1; fill:none" points="249.542,1384.24 2352.76,1384.24 "/>
<polyline clip-path="url(#clip972)" style="stroke:#000000; stroke-linecap:round; stroke-linejoin:round; stroke-width:2; stroke-opacity:0.1; fill:none" points="249.542,1059.73 2352.76,1059.73 "/>
<polyline clip-path="url(#clip972)" style="stroke:#000000; stroke-linecap:round; stroke-linejoin:round; stroke-width:2; stroke-opacity:0.1; fill:none" points="249.542,735.212 2352.76,735.212 "/>
<polyline clip-path="url(#clip972)" style="stroke:#000000; stroke-linecap:round; stroke-linejoin:round; stroke-width:2; stroke-opacity:0.1; fill:none" points="249.542,410.699 2352.76,410.699 "/>
<polyline clip-path="url(#clip972)" style="stroke:#000000; stroke-linecap:round; stroke-linejoin:round; stroke-width:2; stroke-opacity:0.1; fill:none" points="249.542,86.1857 2352.76,86.1857 "/>
<polyline clip-path="url(#clip970)" style="stroke:#000000; stroke-linecap:round; stroke-linejoin:round; stroke-width:4; stroke-opacity:1; fill:none" points="249.542,1423.18 249.542,47.2441 "/>
<polyline clip-path="url(#clip970)" style="stroke:#000000; stroke-linecap:round; stroke-linejoin:round; stroke-width:4; stroke-opacity:1; fill:none" points="249.542,1384.24 268.44,1384.24 "/>
<polyline clip-path="url(#clip970)" style="stroke:#000000; stroke-linecap:round; stroke-linejoin:round; stroke-width:4; stroke-opacity:1; fill:none" points="249.542,1059.73 268.44,1059.73 "/>
<polyline clip-path="url(#clip970)" style="stroke:#000000; stroke-linecap:round; stroke-linejoin:round; stroke-width:4; stroke-opacity:1; fill:none" points="249.542,735.212 268.44,735.212 "/>
<polyline clip-path="url(#clip970)" style="stroke:#000000; stroke-linecap:round; stroke-linejoin:round; stroke-width:4; stroke-opacity:1; fill:none" points="249.542,410.699 268.44,410.699 "/>
<polyline clip-path="url(#clip970)" style="stroke:#000000; stroke-linecap:round; stroke-linejoin:round; stroke-width:4; stroke-opacity:1; fill:none" points="249.542,86.1857 268.44,86.1857 "/>
<path clip-path="url(#clip970)" d="M126.205 1370.04 Q122.593 1370.04 120.765 1373.6 Q118.959 1377.14 118.959 1384.27 Q118.959 1391.38 120.765 1394.94 Q122.593 1398.49 126.205 1398.49 Q129.839 1398.49 131.644 1394.94 Q133.473 1391.38 133.473 1384.27 Q133.473 1377.14 131.644 1373.6 Q129.839 1370.04 126.205 1370.04 M126.205 1366.33 Q132.015 1366.33 135.07 1370.94 Q138.149 1375.52 138.149 1384.27 Q138.149 1393 135.07 1397.61 Q132.015 1402.19 126.205 1402.19 Q120.394 1402.19 117.316 1397.61 Q114.26 1393 114.26 1384.27 Q114.26 1375.52 117.316 1370.94 Q120.394 1366.33 126.205 1366.33 Z" fill="#000000" fill-rule="nonzero" fill-opacity="1" /><path clip-path="url(#clip970)" d="M146.366 1395.64 L151.251 1395.64 L151.251 1401.52 L146.366 1401.52 L146.366 1395.64 Z" fill="#000000" fill-rule="nonzero" fill-opacity="1" /><path clip-path="url(#clip970)" d="M171.436 1370.04 Q167.825 1370.04 165.996 1373.6 Q164.19 1377.14 164.19 1384.27 Q164.19 1391.38 165.996 1394.94 Q167.825 1398.49 171.436 1398.49 Q175.07 1398.49 176.876 1394.94 Q178.704 1391.38 178.704 1384.27 Q178.704 1377.14 176.876 1373.6 Q175.07 1370.04 171.436 1370.04 M171.436 1366.33 Q177.246 1366.33 180.301 1370.94 Q183.38 1375.52 183.38 1384.27 Q183.38 1393 180.301 1397.61 Q177.246 1402.19 171.436 1402.19 Q165.626 1402.19 162.547 1397.61 Q159.491 1393 159.491 1384.27 Q159.491 1375.52 162.547 1370.94 Q165.626 1366.33 171.436 1366.33 Z" fill="#000000" fill-rule="nonzero" fill-opacity="1" /><path clip-path="url(#clip970)" d="M201.598 1370.04 Q197.987 1370.04 196.158 1373.6 Q194.352 1377.14 194.352 1384.27 Q194.352 1391.38 196.158 1394.94 Q197.987 1398.49 201.598 1398.49 Q205.232 1398.49 207.037 1394.94 Q208.866 1391.38 208.866 1384.27 Q208.866 1377.14 207.037 1373.6 Q205.232 1370.04 201.598 1370.04 M201.598 1366.33 Q207.408 1366.33 210.463 1370.94 Q213.542 1375.52 213.542 1384.27 Q213.542 1393 210.463 1397.61 Q207.408 1402.19 201.598 1402.19 Q195.787 1402.19 192.709 1397.61 Q189.653 1393 189.653 1384.27 Q189.653 1375.52 192.709 1370.94 Q195.787 1366.33 201.598 1366.33 Z" fill="#000000" fill-rule="nonzero" fill-opacity="1" /><path clip-path="url(#clip970)" d="M127.2 1045.52 Q123.589 1045.52 121.76 1049.09 Q119.955 1052.63 119.955 1059.76 Q119.955 1066.87 121.76 1070.43 Q123.589 1073.97 127.2 1073.97 Q130.834 1073.97 132.64 1070.43 Q134.468 1066.87 134.468 1059.76 Q134.468 1052.63 132.64 1049.09 Q130.834 1045.52 127.2 1045.52 M127.2 1041.82 Q133.01 1041.82 136.066 1046.43 Q139.144 1051.01 139.144 1059.76 Q139.144 1068.49 136.066 1073.09 Q133.01 1077.68 127.2 1077.68 Q121.39 1077.68 118.311 1073.09 Q115.256 1068.49 115.256 1059.76 Q115.256 1051.01 118.311 1046.43 Q121.39 1041.82 127.2 1041.82 Z" fill="#000000" fill-rule="nonzero" fill-opacity="1" /><path clip-path="url(#clip970)" d="M147.362 1071.13 L152.246 1071.13 L152.246 1077.01 L147.362 1077.01 L147.362 1071.13 Z" fill="#000000" fill-rule="nonzero" fill-opacity="1" /><path clip-path="url(#clip970)" d="M166.459 1073.07 L182.778 1073.07 L182.778 1077.01 L160.834 1077.01 L160.834 1073.07 Q163.496 1070.32 168.079 1065.69 Q172.686 1061.03 173.866 1059.69 Q176.112 1057.17 176.991 1055.43 Q177.894 1053.67 177.894 1051.98 Q177.894 1049.23 175.95 1047.49 Q174.028 1045.76 170.927 1045.76 Q168.727 1045.76 166.274 1046.52 Q163.843 1047.28 161.065 1048.83 L161.065 1044.11 Q163.89 1042.98 166.343 1042.4 Q168.797 1041.82 170.834 1041.82 Q176.204 1041.82 179.399 1044.51 Q182.593 1047.19 182.593 1051.68 Q182.593 1053.81 181.783 1055.73 Q180.996 1057.63 178.889 1060.22 Q178.311 1060.89 175.209 1064.11 Q172.107 1067.31 166.459 1073.07 Z" fill="#000000" fill-rule="nonzero" fill-opacity="1" /><path clip-path="url(#clip970)" d="M192.639 1042.45 L210.996 1042.45 L210.996 1046.38 L196.922 1046.38 L196.922 1054.85 Q197.94 1054.51 198.959 1054.34 Q199.977 1054.16 200.996 1054.16 Q206.783 1054.16 210.162 1057.33 Q213.542 1060.5 213.542 1065.92 Q213.542 1071.5 210.07 1074.6 Q206.598 1077.68 200.278 1077.68 Q198.102 1077.68 195.834 1077.31 Q193.588 1076.94 191.181 1076.19 L191.181 1071.5 Q193.264 1072.63 195.487 1073.19 Q197.709 1073.74 200.186 1073.74 Q204.19 1073.74 206.528 1071.63 Q208.866 1069.53 208.866 1065.92 Q208.866 1062.31 206.528 1060.2 Q204.19 1058.09 200.186 1058.09 Q198.311 1058.09 196.436 1058.51 Q194.584 1058.93 192.639 1059.81 L192.639 1042.45 Z" fill="#000000" fill-rule="nonzero" fill-opacity="1" /><path clip-path="url(#clip970)" d="M126.205 721.011 Q122.593 721.011 120.765 724.575 Q118.959 728.117 118.959 735.247 Q118.959 742.353 120.765 745.918 Q122.593 749.46 126.205 749.46 Q129.839 749.46 131.644 745.918 Q133.473 742.353 133.473 735.247 Q133.473 728.117 131.644 724.575 Q129.839 721.011 126.205 721.011 M126.205 717.307 Q132.015 717.307 135.07 721.913 Q138.149 726.497 138.149 735.247 Q138.149 743.973 135.07 748.58 Q132.015 753.163 126.205 753.163 Q120.394 753.163 117.316 748.58 Q114.26 743.973 114.26 735.247 Q114.26 726.497 117.316 721.913 Q120.394 717.307 126.205 717.307 Z" fill="#000000" fill-rule="nonzero" fill-opacity="1" /><path clip-path="url(#clip970)" d="M146.366 746.612 L151.251 746.612 L151.251 752.492 L146.366 752.492 L146.366 746.612 Z" fill="#000000" fill-rule="nonzero" fill-opacity="1" /><path clip-path="url(#clip970)" d="M161.482 717.932 L179.839 717.932 L179.839 721.867 L165.765 721.867 L165.765 730.339 Q166.783 729.992 167.802 729.83 Q168.82 729.645 169.839 729.645 Q175.626 729.645 179.005 732.816 Q182.385 735.987 182.385 741.404 Q182.385 746.983 178.913 750.085 Q175.44 753.163 169.121 753.163 Q166.945 753.163 164.677 752.793 Q162.431 752.423 160.024 751.682 L160.024 746.983 Q162.107 748.117 164.329 748.673 Q166.552 749.228 169.028 749.228 Q173.033 749.228 175.371 747.122 Q177.709 745.015 177.709 741.404 Q177.709 737.793 175.371 735.686 Q173.033 733.58 169.028 733.58 Q167.153 733.58 165.278 733.997 Q163.427 734.413 161.482 735.293 L161.482 717.932 Z" fill="#000000" fill-rule="nonzero" fill-opacity="1" /><path clip-path="url(#clip970)" d="M201.598 721.011 Q197.987 721.011 196.158 724.575 Q194.352 728.117 194.352 735.247 Q194.352 742.353 196.158 745.918 Q197.987 749.46 201.598 749.46 Q205.232 749.46 207.037 745.918 Q208.866 742.353 208.866 735.247 Q208.866 728.117 207.037 724.575 Q205.232 721.011 201.598 721.011 M201.598 717.307 Q207.408 717.307 210.463 721.913 Q213.542 726.497 213.542 735.247 Q213.542 743.973 210.463 748.58 Q207.408 753.163 201.598 753.163 Q195.787 753.163 192.709 748.58 Q189.653 743.973 189.653 735.247 Q189.653 726.497 192.709 721.913 Q195.787 717.307 201.598 717.307 Z" fill="#000000" fill-rule="nonzero" fill-opacity="1" /><path clip-path="url(#clip970)" d="M127.2 396.498 Q123.589 396.498 121.76 400.062 Q119.955 403.604 119.955 410.734 Q119.955 417.84 121.76 421.405 Q123.589 424.946 127.2 424.946 Q130.834 424.946 132.64 421.405 Q134.468 417.84 134.468 410.734 Q134.468 403.604 132.64 400.062 Q130.834 396.498 127.2 396.498 M127.2 392.794 Q133.01 392.794 136.066 397.4 Q139.144 401.984 139.144 410.734 Q139.144 419.46 136.066 424.067 Q133.01 428.65 127.2 428.65 Q121.39 428.65 118.311 424.067 Q115.256 419.46 115.256 410.734 Q115.256 401.984 118.311 397.4 Q121.39 392.794 127.2 392.794 Z" fill="#000000" fill-rule="nonzero" fill-opacity="1" /><path clip-path="url(#clip970)" d="M147.362 422.099 L152.246 422.099 L152.246 427.979 L147.362 427.979 L147.362 422.099 Z" fill="#000000" fill-rule="nonzero" fill-opacity="1" /><path clip-path="url(#clip970)" d="M161.251 393.419 L183.473 393.419 L183.473 395.41 L170.927 427.979 L166.042 427.979 L177.848 397.354 L161.251 397.354 L161.251 393.419 Z" fill="#000000" fill-rule="nonzero" fill-opacity="1" /><path clip-path="url(#clip970)" d="M192.639 393.419 L210.996 393.419 L210.996 397.354 L196.922 397.354 L196.922 405.826 Q197.94 405.479 198.959 405.317 Q199.977 405.132 200.996 405.132 Q206.783 405.132 210.162 408.303 Q213.542 411.474 213.542 416.891 Q213.542 422.47 210.07 425.571 Q206.598 428.65 200.278 428.65 Q198.102 428.65 195.834 428.28 Q193.588 427.909 191.181 427.169 L191.181 422.47 Q193.264 423.604 195.487 424.159 Q197.709 424.715 200.186 424.715 Q204.19 424.715 206.528 422.608 Q208.866 420.502 208.866 416.891 Q208.866 413.28 206.528 411.173 Q204.19 409.067 200.186 409.067 Q198.311 409.067 196.436 409.484 Q194.584 409.9 192.639 410.78 L192.639 393.419 Z" fill="#000000" fill-rule="nonzero" fill-opacity="1" /><path clip-path="url(#clip970)" d="M117.015 99.5305 L124.654 99.5305 L124.654 73.1649 L116.343 74.8316 L116.343 70.5723 L124.607 68.9057 L129.283 68.9057 L129.283 99.5305 L136.922 99.5305 L136.922 103.466 L117.015 103.466 L117.015 99.5305 Z" fill="#000000" fill-rule="nonzero" fill-opacity="1" /><path clip-path="url(#clip970)" d="M146.366 97.5861 L151.251 97.5861 L151.251 103.466 L146.366 103.466 L146.366 97.5861 Z" fill="#000000" fill-rule="nonzero" fill-opacity="1" /><path clip-path="url(#clip970)" d="M171.436 71.9844 Q167.825 71.9844 165.996 75.5492 Q164.19 79.0908 164.19 86.2204 Q164.19 93.3268 165.996 96.8916 Q167.825 100.433 171.436 100.433 Q175.07 100.433 176.876 96.8916 Q178.704 93.3268 178.704 86.2204 Q178.704 79.0908 176.876 75.5492 Q175.07 71.9844 171.436 71.9844 M171.436 68.2807 Q177.246 68.2807 180.301 72.8871 Q183.38 77.4704 183.38 86.2204 Q183.38 94.9472 180.301 99.5537 Q177.246 104.137 171.436 104.137 Q165.626 104.137 162.547 99.5537 Q159.491 94.9472 159.491 86.2204 Q159.491 77.4704 162.547 72.8871 Q165.626 68.2807 171.436 68.2807 Z" fill="#000000" fill-rule="nonzero" fill-opacity="1" /><path clip-path="url(#clip970)" d="M201.598 71.9844 Q197.987 71.9844 196.158 75.5492 Q194.352 79.0908 194.352 86.2204 Q194.352 93.3268 196.158 96.8916 Q197.987 100.433 201.598 100.433 Q205.232 100.433 207.037 96.8916 Q208.866 93.3268 208.866 86.2204 Q208.866 79.0908 207.037 75.5492 Q205.232 71.9844 201.598 71.9844 M201.598 68.2807 Q207.408 68.2807 210.463 72.8871 Q213.542 77.4704 213.542 86.2204 Q213.542 94.9472 210.463 99.5537 Q207.408 104.137 201.598 104.137 Q195.787 104.137 192.709 99.5537 Q189.653 94.9472 189.653 86.2204 Q189.653 77.4704 192.709 72.8871 Q195.787 68.2807 201.598 68.2807 Z" fill="#000000" fill-rule="nonzero" fill-opacity="1" /><path clip-path="url(#clip970)" d="M16.4842 792.121 L16.4842 764.813 L21.895 764.813 L21.895 785.692 L35.8996 785.692 L35.8996 766.85 L41.3104 766.85 L41.3104 785.692 L64.0042 785.692 L64.0042 792.121 L16.4842 792.121 Z" fill="#000000" fill-rule="nonzero" fill-opacity="1" /><path clip-path="url(#clip970)" d="M21.7677 748.198 L39.6235 748.198 L39.6235 740.114 Q39.6235 735.626 37.3 733.175 Q34.9765 730.724 30.6797 730.724 Q26.4147 730.724 24.0912 733.175 Q21.7677 735.626 21.7677 740.114 L21.7677 748.198 M16.4842 754.627 L16.4842 740.114 Q16.4842 732.125 20.1126 728.051 Q23.7092 723.945 30.6797 723.945 Q37.7138 723.945 41.3104 728.051 Q44.907 732.125 44.907 740.114 L44.907 748.198 L64.0042 748.198 L64.0042 754.627 L16.4842 754.627 Z" fill="#000000" fill-rule="nonzero" fill-opacity="1" /><path clip-path="url(#clip970)" d="M41.7242 692.785 Q42.4244 690.716 44.7161 688.774 Q47.0077 686.801 51.0181 684.827 L64.0042 678.303 L64.0042 685.209 L51.8138 691.289 Q47.0395 693.644 45.48 695.872 Q43.9204 698.068 43.9204 701.887 L43.9204 708.89 L64.0042 708.89 L64.0042 715.319 L16.4842 715.319 L16.4842 700.805 Q16.4842 692.657 19.8898 688.647 Q23.2955 684.636 30.1704 684.636 Q34.6582 684.636 37.6183 686.737 Q40.5784 688.806 41.7242 692.785 M21.7677 708.89 L38.6368 708.89 L38.6368 700.805 Q38.6368 696.158 36.5043 693.803 Q34.34 691.416 30.1704 691.416 Q26.0009 691.416 23.9002 693.803 Q21.7677 696.158 21.7677 700.805 L21.7677 708.89 Z" fill="#000000" fill-rule="nonzero" fill-opacity="1" /><polyline clip-path="url(#clip972)" style="stroke:#000000; stroke-linecap:round; stroke-linejoin:round; stroke-width:6; stroke-opacity:1; fill:none" points="309.067,88.9112 311.051,93.2382 313.035,96.6146 315.019,99.5781 317.004,102.255 318.988,104.769 320.972,107.179 322.956,109.617 324.94,111.904 326.924,114.242 328.909,116.469 330.893,118.696 332.877,120.934 334.861,123.077 336.845,125.303 338.829,127.203 340.814,129.058 342.798,130.99 344.782,132.929 346.766,134.814 348.75,136.658 350.734,138.408 352.719,140.122 354.703,141.864 356.687,143.589 358.671,145.275 360.655,146.88 362.639,148.565 364.624,150.184 366.608,151.741 368.592,153.318 370.576,154.885 372.56,156.461 374.544,157.971 376.529,159.435 378.513,160.959 380.497,162.493 382.481,164.037 384.465,165.502 386.449,166.944 388.434,168.442 390.418,169.884 392.402,171.258 394.386,172.67 396.37,174.032 398.354,175.348 400.339,176.679 402.323,177.994 404.307,179.298 406.291,180.61 408.275,181.835 410.259,183.045 412.243,184.327 414.228,185.517 416.212,186.713 418.196,187.943 420.18,189.156 422.164,190.372 424.148,191.487 426.133,192.632 428.117,193.824 430.101,194.995 432.085,196.195 434.069,197.303 436.053,198.433 438.038,199.561 440.022,200.666 442.006,201.821 443.99,202.952 445.974,204.117 447.958,205.182 449.943,206.319 451.927,207.441 453.911,208.553 455.895,209.635 457.879,210.698 459.863,211.702 461.848,212.795 463.832,213.773 465.816,214.868 467.8,215.984 469.784,217.053 471.768,218.053 473.753,219.032 475.737,220.013 477.721,220.986 479.705,221.993 481.689,222.944 483.673,223.918 485.658,224.955 487.642,225.907 489.626,226.875 491.61,227.885 493.594,228.797 495.578,229.812 497.563,230.805 499.547,231.807 501.531,232.793 503.515,233.819 505.499,234.833 507.483,235.796 509.468,236.74 511.452,237.643 513.436,238.663 515.42,239.609 517.404,240.539 519.388,241.55 521.373,242.543 523.357,243.541 525.341,244.501 527.325,245.484 529.309,246.447 531.293,247.441 533.277,248.357 535.262,249.318 537.246,250.296 539.23,251.264 541.214,252.254 543.198,253.232 545.182,254.186 547.167,255.215 549.151,256.179 551.135,257.158 553.119,258.114 555.103,259.056 557.087,259.948 559.072,260.831 561.056,261.757 563.04,262.691 565.024,263.607 567.008,264.536 568.992,265.474 570.977,266.457 572.961,267.408 574.945,268.316 576.929,269.204 578.913,270.118 580.897,271.095 582.882,271.919 584.866,272.828 586.85,273.726 588.834,274.637 590.818,275.556 592.802,276.478 594.787,277.363 596.771,278.266 598.755,279.206 600.739,280.167 602.723,281.185 604.707,282.028 606.692,282.922 608.676,283.78 610.66,284.674 612.644,285.583 614.628,286.519 616.612,287.381 618.597,288.335 620.581,289.275 622.565,290.204 624.549,291.168 626.533,292.084 628.517,293.014 630.502,293.94 632.486,294.907 634.47,295.783 636.454,296.722 638.438,297.596 640.422,298.543 642.407,299.451 644.391,300.353 646.375,301.308 648.359,302.185 650.343,303.108 652.327,304.048 654.311,304.967 656.296,305.92 658.28,306.869 660.264,307.758 662.248,308.751 664.232,309.672 666.216,310.619 668.201,311.616 670.185,312.587 672.169,313.59 674.153,314.523 676.137,315.44 678.121,316.341 680.106,317.269 682.09,318.204 684.074,319.162 686.058,320.046 688.042,320.994 690.026,321.937 692.011,322.839 693.995,323.817 695.979,324.811 697.963,325.781 699.947,326.738 701.931,327.676 703.916,328.612 705.9,329.552 707.884,330.608 709.868,331.599 711.852,332.58 713.836,333.549 715.821,334.467 717.805,335.462 719.789,336.411 721.773,337.326 723.757,338.294 725.741,339.208 727.726,340.215 729.71,341.175 731.694,342.14 733.678,343.178 735.662,344.176 737.646,345.197 739.631,346.217 741.615,347.177 743.599,348.179 745.583,349.158 747.567,350.134 749.551,351.164 751.536,352.139 753.52,353.113 755.504,354.142 757.488,355.154 759.472,356.211 761.456,357.224 763.441,358.212 765.425,359.231 767.409,360.272 769.393,361.27 771.377,362.272 773.361,363.255 775.346,364.277 777.33,365.298 779.314,366.287 781.298,367.321 783.282,368.309 785.266,369.293 787.25,370.274 789.235,371.312 791.219,372.259 793.203,373.353 795.187,374.326 797.171,375.355 799.155,376.41 801.14,377.456 803.124,378.46 805.108,379.48 807.092,380.562 809.076,381.622 811.06,382.735 813.045,383.72 815.029,384.769 817.013,385.864 818.997,386.872 820.981,387.918 822.965,388.95 824.95,389.99 826.934,391.003 828.918,392.037 830.902,393.087 832.886,394.145 834.87,395.163 836.855,396.204 838.839,397.176 840.823,398.201 842.807,399.231 844.791,400.252 846.775,401.282 848.76,402.385 850.744,403.487 852.728,404.559 854.712,405.634 856.696,406.664 858.68,407.798 860.665,408.932 862.649,409.978 864.633,411.104 866.617,412.206 868.601,413.349 870.585,414.474 872.57,415.531 874.554,416.59 876.538,417.734 878.522,418.88 880.506,419.937 882.49,421.046 884.475,422.15 886.459,423.225 888.443,424.339 890.427,425.482 892.411,426.587 894.395,427.75 896.38,428.886 898.364,430.012 900.348,431.064 902.332,432.138 904.316,433.316 906.3,434.477 908.284,435.587 910.269,436.72 912.253,437.87 914.237,439.01 916.221,440.167 918.205,441.405 920.189,442.588 922.174,443.713 924.158,444.925 926.142,446.067 928.126,447.273 930.11,448.471 932.094,449.626 934.079,450.833 936.063,452.107 938.047,453.286 940.031,454.428 942.015,455.681 943.999,456.868 945.984,458.058 947.968,459.238 949.952,460.485 951.936,461.736 953.92,463.022 955.904,464.227 957.889,465.437 959.873,466.612 961.857,467.844 963.841,468.995 965.825,470.24 967.809,471.484 969.794,472.71 971.778,473.929 973.762,475.194 975.746,476.398 977.73,477.696 979.714,479.016 981.699,480.203 983.683,481.469 985.667,482.743 987.651,484.036 989.635,485.355 991.619,486.584 993.604,487.882 995.588,489.135 997.572,490.422 999.556,491.684 1001.54,492.961 1003.52,494.268 1005.51,495.632 1007.49,496.897 1009.48,498.247 1011.46,499.582 1013.45,500.886 1015.43,502.231 1017.41,503.541 1019.4,504.842 1021.38,506.18 1023.37,507.525 1025.35,508.841 1027.33,510.24 1029.32,511.608 1031.3,513.044 1033.29,514.414 1035.27,515.808 1037.26,517.147 1039.24,518.466 1041.22,519.857 1043.21,521.254 1045.19,522.7 1047.18,524.134 1049.16,525.541 1051.14,526.924 1053.13,528.388 1055.11,529.804 1057.1,531.221 1059.08,532.675 1061.07,534.149 1063.05,535.602 1065.03,537.12 1067.02,538.669 1069,540.147 1070.99,541.675 1072.97,543.197 1074.95,544.687 1076.94,546.239 1078.92,547.751 1080.91,549.206 1082.89,550.872 1084.88,552.334 1086.86,553.83 1088.84,555.391 1090.83,557.066 1092.81,558.646 1094.8,560.22 1096.78,561.841 1098.76,563.445 1100.75,565.093 1102.73,566.728 1104.72,568.387 1106.7,570.068 1108.69,571.682 1110.67,573.311 1112.65,574.973 1114.64,576.594 1116.62,578.377 1118.61,580.126 1120.59,581.854 1122.57,583.59 1124.56,585.33 1126.54,587.069 1128.53,588.84 1130.51,590.638 1132.5,592.444 1134.48,594.29 1136.46,596.207 1138.45,598.185 1140.43,600.098 1142.42,601.88 1144.4,603.737 1146.38,605.685 1148.37,607.596 1150.35,609.525 1152.34,611.618 1154.32,613.622 1156.31,615.633 1158.29,617.678 1160.27,619.771 1162.26,622.003 1164.24,624.185 1166.23,626.447 1168.21,628.622 1170.19,630.932 1172.18,633.371 1174.16,635.634 1176.15,637.999 1178.13,640.464 1180.11,642.995 1182.1,645.505 1184.08,648.08 1186.07,650.817 1188.05,653.55 1190.04,656.468 1192.02,659.282 1194,662.278 1195.99,665.508 1197.97,668.77 1199.96,672.147 1201.94,675.631 1203.92,679.203 1205.91,682.877 1207.89,686.663 1209.88,690.401 1211.86,694.168 1213.85,697.967 1215.83,701.808 1217.81,705.599 1219.8,709.418 1221.78,713.081 1223.77,716.738 1225.75,720.407 1227.73,724.12 1229.72,727.658 1231.7,731.258 1233.69,734.695 1235.67,738.111 1237.66,741.36 1239.64,744.776 1241.62,748.127 1243.61,751.369 1245.59,754.63 1247.58,757.846 1249.56,761.049 1251.54,764.182 1253.53,767.267 1255.51,770.465 1257.5,773.58 1259.48,776.896 1261.47,779.996 1263.45,783.143 1265.43,786.235 1267.42,789.252 1269.4,792.437 1271.39,795.479 1273.37,798.47 1275.35,801.463 1277.34,804.536 1279.32,807.613 1281.31,810.585 1283.29,813.606 1285.28,816.487 1287.26,819.514 1289.24,822.343 1291.23,825.288 1293.21,828.252 1295.2,831.219 1297.18,834.053 1299.16,836.883 1301.15,839.744 1303.13,842.629 1305.12,845.453 1307.1,848.355 1309.09,851.09 1311.07,853.966 1313.05,856.837 1315.04,859.719 1317.02,862.477 1319.01,865.317 1320.99,868.125 1322.97,870.812 1324.96,873.481 1326.94,876.132 1328.93,878.717 1330.91,881.267 1332.9,883.857 1334.88,886.362 1336.86,888.64 1338.85,891.046 1340.83,893.363 1342.82,895.72 1344.8,898.013 1346.78,900.304 1348.77,902.465 1350.75,904.7 1352.74,906.855 1354.72,908.889 1356.71,910.985 1358.69,913.119 1360.67,915.24 1362.66,917.383 1364.64,919.385 1366.63,921.448 1368.61,923.521 1370.59,925.601 1372.58,927.649 1374.56,929.721 1376.55,931.799 1378.53,933.844 1380.52,935.965 1382.5,938.031 1384.48,940.019 1386.47,942.088 1388.45,944.128 1390.44,946.192 1392.42,948.195 1394.4,950.238 1396.39,952.25 1398.37,954.263 1400.36,956.354 1402.34,958.419 1404.33,960.559 1406.31,962.604 1408.29,964.632 1410.28,966.653 1412.26,968.703 1414.25,970.77 1416.23,972.792 1418.21,974.798 1420.2,976.786 1422.18,978.697 1424.17,980.675 1426.15,982.602 1428.14,984.499 1430.12,986.351 1432.1,988.285 1434.09,990.183 1436.07,992.081 1438.06,993.981 1440.04,995.71 1442.02,997.51 1444.01,999.222 1445.99,1001.01 1447.98,1002.75 1449.96,1004.5 1451.95,1006.23 1453.93,1007.91 1455.91,1009.56 1457.9,1011.23 1459.88,1012.89 1461.87,1014.55 1463.85,1016.16 1465.83,1017.82 1467.82,1019.44 1469.8,1020.95 1471.79,1022.58 1473.77,1024.11 1475.76,1025.69 1477.74,1027.2 1479.72,1028.72 1481.71,1030.25 1483.69,1031.75 1485.68,1033.25 1487.66,1034.78 1489.64,1036.27 1491.63,1037.8 1493.61,1039.36 1495.6,1040.88 1497.58,1042.41 1499.57,1044 1501.55,1045.52 1503.53,1047.08 1505.52,1048.62 1507.5,1050.16 1509.49,1051.72 1511.47,1053.2 1513.45,1054.71 1515.44,1056.25 1517.42,1057.75 1519.41,1059.28 1521.39,1060.82 1523.38,1062.28 1525.36,1063.87 1527.34,1065.41 1529.33,1066.92 1531.31,1068.46 1533.3,1070 1535.28,1071.56 1537.26,1073.07 1539.25,1074.58 1541.23,1075.99 1543.22,1077.52 1545.2,1079.11 1547.19,1080.67 1549.17,1082.15 1551.15,1083.62 1553.14,1085.05 1555.12,1086.61 1557.11,1088.16 1559.09,1089.58 1561.07,1091.18 1563.06,1092.66 1565.04,1094.22 1567.03,1095.78 1569.01,1097.27 1571,1098.76 1572.98,1100.21 1574.96,1101.7 1576.95,1103.22 1578.93,1104.64 1580.92,1106.11 1582.9,1107.56 1584.88,1109.06 1586.87,1110.45 1588.85,1111.83 1590.84,1113.34 1592.82,1114.79 1594.81,1116.26 1596.79,1117.69 1598.77,1119.13 1600.76,1120.49 1602.74,1121.75 1604.73,1123.02 1606.71,1124.34 1608.69,1125.74 1610.68,1127.02 1612.66,1128.32 1614.65,1129.62 1616.63,1130.9 1618.62,1132.21 1620.6,1133.49 1622.58,1134.8 1624.57,1136.12 1626.55,1137.45 1628.54,1138.75 1630.52,1140.02 1632.5,1141.31 1634.49,1142.6 1636.47,1143.8 1638.46,1145.03 1640.44,1146.3 1642.43,1147.52 1644.41,1148.74 1646.39,1149.92 1648.38,1151.2 1650.36,1152.37 1652.35,1153.57 1654.33,1154.78 1656.31,1155.93 1658.3,1157.16 1660.28,1158.36 1662.27,1159.51 1664.25,1160.67 1666.24,1161.89 1668.22,1163.03 1670.2,1164.13 1672.19,1165.3 1674.17,1166.41 1676.16,1167.63 1678.14,1168.72 1680.12,1169.84 1682.11,1170.94 1684.09,1172 1686.08,1173.13 1688.06,1174.26 1690.05,1175.38 1692.03,1176.56 1694.01,1177.68 1696,1178.71 1697.98,1179.81 1699.97,1180.84 1701.95,1181.82 1703.93,1183 1705.92,1184.06 1707.9,1185.13 1709.89,1186.19 1711.87,1187.26 1713.86,1188.27 1715.84,1189.36 1717.82,1190.44 1719.81,1191.49 1721.79,1192.58 1723.78,1193.6 1725.76,1194.66 1727.74,1195.74 1729.73,1196.84 1731.71,1197.85 1733.7,1198.83 1735.68,1199.92 1737.67,1200.96 1739.65,1202.04 1741.63,1203.11 1743.62,1204.19 1745.6,1205.21 1747.59,1206.26 1749.57,1207.33 1751.55,1208.37 1753.54,1209.43 1755.52,1210.49 1757.51,1211.59 1759.49,1212.63 1761.48,1213.65 1763.46,1214.69 1765.44,1215.76 1767.43,1216.84 1769.41,1217.91 1771.4,1218.88 1773.38,1219.9 1775.36,1220.98 1777.35,1221.97 1779.33,1223 1781.32,1224.01 1783.3,1225.09 1785.28,1226.08 1787.27,1227.03 1789.25,1228.1 1791.24,1229.08 1793.22,1230.06 1795.21,1231.05 1797.19,1232.07 1799.17,1233.05 1801.16,1234.02 1803.14,1234.97 1805.13,1235.92 1807.11,1236.89 1809.09,1237.89 1811.08,1238.82 1813.06,1239.77 1815.05,1240.73 1817.03,1241.66 1819.02,1242.59 1821,1243.48 1822.98,1244.47 1824.97,1245.4 1826.95,1246.32 1828.94,1247.2 1830.92,1248.11 1832.9,1248.96 1834.89,1249.86 1836.87,1250.81 1838.86,1251.78 1840.84,1252.66 1842.83,1253.57 1844.81,1254.52 1846.79,1255.41 1848.78,1256.26 1850.76,1257.12 1852.75,1257.96 1854.73,1258.87 1856.71,1259.79 1858.7,1260.74 1860.68,1261.64 1862.67,1262.59 1864.65,1263.46 1866.64,1264.33 1868.62,1265.2 1870.6,1266.08 1872.59,1267.01 1874.57,1267.93 1876.56,1268.83 1878.54,1269.77 1880.52,1270.64 1882.51,1271.53 1884.49,1272.4 1886.48,1273.25 1888.46,1274.18 1890.45,1275.05 1892.43,1275.91 1894.41,1276.7 1896.4,1277.55 1898.38,1278.34 1900.37,1279.19 1902.35,1280.01 1904.33,1280.88 1906.32,1281.75 1908.3,1282.52 1910.29,1283.35 1912.27,1284.19 1914.26,1285.06 1916.24,1285.91 1918.22,1286.73 1920.21,1287.55 1922.19,1288.35 1924.18,1289.14 1926.16,1289.94 1928.14,1290.69 1930.13,1291.48 1932.11,1292.25 1934.1,1292.98 1936.08,1293.72 1938.07,1294.49 1940.05,1295.29 1942.03,1296.05 1944.02,1296.76 1946,1297.55 1947.99,1298.26 1949.97,1298.99 1951.95,1299.69 1953.94,1300.44 1955.92,1301.15 1957.91,1301.94 1959.89,1302.67 1961.88,1303.38 1963.86,1304.11 1965.84,1304.82 1967.83,1305.59 1969.81,1306.31 1971.8,1307.04 1973.78,1307.78 1975.76,1308.44 1977.75,1309.09 1979.73,1309.77 1981.72,1310.41 1983.7,1311.08 1985.69,1311.75 1987.67,1312.41 1989.65,1313.13 1991.64,1313.82 1993.62,1314.55 1995.61,1315.22 1997.59,1315.87 1999.57,1316.58 2001.56,1317.27 2003.54,1317.95 2005.53,1318.61 2007.51,1319.33 2009.5,1320.02 2011.48,1320.69 2013.46,1321.39 2015.45,1322.08 2017.43,1322.73 2019.42,1323.36 2021.4,1323.99 2023.38,1324.69 2025.37,1325.31 2027.35,1325.98 2029.34,1326.66 2031.32,1327.29 2033.31,1327.95 2035.29,1328.61 2037.27,1329.25 2039.26,1329.89 2041.24,1330.53 2043.23,1331.14 2045.21,1331.76 2047.19,1332.39 2049.18,1332.99 2051.16,1333.65 2053.15,1334.25 2055.13,1334.87 2057.12,1335.44 2059.1,1336.05 2061.08,1336.64 2063.07,1337.22 2065.05,1337.83 2067.04,1338.42 2069.02,1338.94 2071,1339.47 2072.99,1340.07 2074.97,1340.61 2076.96,1341.24 2078.94,1341.82 2080.93,1342.41 2082.91,1342.98 2084.89,1343.54 2086.88,1344.13 2088.86,1344.68 2090.85,1345.27 2092.83,1345.81 2094.81,1346.36 2096.8,1346.95 2098.78,1347.49 2100.77,1348.04 2102.75,1348.58 2104.74,1349.13 2106.72,1349.67 2108.7,1350.24 2110.69,1350.82 2112.67,1351.34 2114.66,1351.82 2116.64,1352.35 2118.62,1352.85 2120.61,1353.37 2122.59,1353.9 2124.58,1354.41 2126.56,1354.93 2128.55,1355.43 2130.53,1355.9 2132.51,1356.42 2134.5,1356.89 2136.48,1357.4 2138.47,1357.89 2140.45,1358.37 2142.43,1358.85 2144.42,1359.31 2146.4,1359.8 2148.39,1360.24 2150.37,1360.69 2152.36,1361.12 2154.34,1361.56 2156.32,1362.04 2158.31,1362.47 2160.29,1362.89 2162.28,1363.31 2164.26,1363.72 2166.24,1364.14 2168.23,1364.57 2170.21,1365.04 2172.2,1365.43 2174.18,1365.81 2176.17,1366.21 2178.15,1366.57 2180.13,1367 2182.12,1367.42 2184.1,1367.84 2186.09,1368.24 2188.07,1368.64 2190.05,1369.08 2192.04,1369.49 2194.02,1369.89 2196.01,1370.29 2197.99,1370.69 2199.98,1371.12 2201.96,1371.51 2203.94,1371.88 2205.93,1372.26 2207.91,1372.65 2209.9,1373.03 2211.88,1373.39 2213.86,1373.74 2215.85,1374.07 2217.83,1374.4 2219.82,1374.71 2221.8,1375.07 2223.79,1375.41 2225.77,1375.74 2227.75,1376.05 2229.74,1376.36 2231.72,1376.68 2233.71,1376.99 2235.69,1377.3 2237.67,1377.61 2239.66,1377.97 2241.64,1378.29 2243.63,1378.61 2245.61,1378.92 2247.6,1379.21 2249.58,1379.46 2251.56,1379.73 2253.55,1380.01 2255.53,1380.27 2257.52,1380.54 2259.5,1380.82 2261.48,1381.06 2263.47,1381.29 2265.45,1381.54 2267.44,1381.8 2269.42,1382.03 2271.41,1382.28 2273.39,1382.51 2275.37,1382.73 2277.36,1382.95 2279.34,1383.19 2281.33,1383.35 2283.31,1383.54 2285.29,1383.72 2287.28,1383.85 2289.26,1383.99 2291.25,1384.13 2293.23,1384.24 "/>
<polyline clip-path="url(#clip972)" style="stroke:#808080; stroke-linecap:round; stroke-linejoin:round; stroke-width:4; stroke-opacity:1; fill:none" stroke-dasharray="16, 10" points="309.067,86.1857 321.985,94.6367 441.43,172.779 513.212,219.739 573.903,259.443 639.83,302.573 700.609,342.335 765.77,384.964 841.266,434.353 908.357,478.245 967.191,516.734 1031.34,558.698 1095.86,600.911 1167.2,647.583 1235.08,691.99 1305.66,738.163 1365.07,777.031 1437.61,824.484 1504.05,867.954 1565.42,908.102 1627.59,948.771 1697.26,994.349 1760.39,1035.65 1832.67,1082.94 1899.6,1126.72 1965.58,1169.89 2029.64,1211.8 2095.31,1254.76 2167.27,1301.83 2271.79,1370.21 2293.23,1384.24 "/>
<path clip-path="url(#clip970)" d="M1525.76 1377.32 L2282.65 1377.32 L2282.65 1221.8 L1525.76 1221.8  Z" fill="#ffffff" fill-rule="evenodd" fill-opacity="1"/>
<polyline clip-path="url(#clip970)" style="stroke:#000000; stroke-linecap:round; stroke-linejoin:round; stroke-width:4; stroke-opacity:1; fill:none" points="1525.76,1377.32 2282.65,1377.32 2282.65,1221.8 1525.76,1221.8 1525.76,1377.32 "/>
<polyline clip-path="url(#clip970)" style="stroke:#000000; stroke-linecap:round; stroke-linejoin:round; stroke-width:6; stroke-opacity:1; fill:none" points="1549.13,1273.64 1689.34,1273.64 "/>
<path clip-path="url(#clip970)" d="M1731.62 1268.92 L1731.62 1254.9 L1735.88 1254.9 L1735.88 1290.92 L1731.62 1290.92 L1731.62 1287.03 Q1730.28 1289.34 1728.22 1290.48 Q1726.18 1291.59 1723.31 1291.59 Q1718.61 1291.59 1715.65 1287.84 Q1712.71 1284.09 1712.71 1277.98 Q1712.71 1271.86 1715.65 1268.11 Q1718.61 1264.36 1723.31 1264.36 Q1726.18 1264.36 1728.22 1265.5 Q1730.28 1266.61 1731.62 1268.92 M1717.11 1277.98 Q1717.11 1282.67 1719.03 1285.36 Q1720.97 1288.02 1724.35 1288.02 Q1727.73 1288.02 1729.68 1285.36 Q1731.62 1282.67 1731.62 1277.98 Q1731.62 1273.28 1729.68 1270.61 Q1727.73 1267.93 1724.35 1267.93 Q1720.97 1267.93 1719.03 1270.61 Q1717.11 1273.28 1717.11 1277.98 Z" fill="#000000" fill-rule="nonzero" fill-opacity="1" /><path clip-path="url(#clip970)" d="M1744.65 1264.99 L1748.91 1264.99 L1748.91 1290.92 L1744.65 1290.92 L1744.65 1264.99 M1744.65 1254.9 L1748.91 1254.9 L1748.91 1260.29 L1744.65 1260.29 L1744.65 1254.9 Z" fill="#000000" fill-rule="nonzero" fill-opacity="1" /><path clip-path="url(#clip970)" d="M1770.95 1254.9 L1770.95 1258.44 L1766.87 1258.44 Q1764.58 1258.44 1763.68 1259.36 Q1762.8 1260.29 1762.8 1262.7 L1762.8 1264.99 L1769.81 1264.99 L1769.81 1268.3 L1762.8 1268.3 L1762.8 1290.92 L1758.52 1290.92 L1758.52 1268.3 L1754.44 1268.3 L1754.44 1264.99 L1758.52 1264.99 L1758.52 1263.18 Q1758.52 1258.86 1760.53 1256.89 Q1762.55 1254.9 1766.92 1254.9 L1770.95 1254.9 Z" fill="#000000" fill-rule="nonzero" fill-opacity="1" /><path clip-path="url(#clip970)" d="M1774.7 1256.36 L1794.56 1256.36 L1794.56 1260.29 L1779.37 1260.29 L1779.37 1270.48 L1793.08 1270.48 L1793.08 1274.41 L1779.37 1274.41 L1779.37 1290.92 L1774.7 1290.92 L1774.7 1256.36 Z" fill="#000000" fill-rule="nonzero" fill-opacity="1" /><path clip-path="url(#clip970)" d="M1801.43 1256.36 L1806.13 1256.36 L1806.13 1277.35 Q1806.13 1282.91 1808.15 1285.36 Q1810.16 1287.79 1814.68 1287.79 Q1819.17 1287.79 1821.18 1285.36 Q1823.19 1282.91 1823.19 1277.35 L1823.19 1256.36 L1827.89 1256.36 L1827.89 1277.93 Q1827.89 1284.69 1824.54 1288.14 Q1821.2 1291.59 1814.68 1291.59 Q1808.12 1291.59 1804.77 1288.14 Q1801.43 1284.69 1801.43 1277.93 L1801.43 1256.36 Z" fill="#000000" fill-rule="nonzero" fill-opacity="1" /><path clip-path="url(#clip970)" d="M1841.34 1274.41 L1841.34 1287.07 L1848.84 1287.07 Q1852.62 1287.07 1854.42 1285.52 Q1856.25 1283.95 1856.25 1280.73 Q1856.25 1277.49 1854.42 1275.96 Q1852.62 1274.41 1848.84 1274.41 L1841.34 1274.41 M1841.34 1260.2 L1841.34 1270.61 L1848.26 1270.61 Q1851.69 1270.61 1853.36 1269.34 Q1855.05 1268.05 1855.05 1265.41 Q1855.05 1262.79 1853.36 1261.49 Q1851.69 1260.2 1848.26 1260.2 L1841.34 1260.2 M1836.67 1256.36 L1848.61 1256.36 Q1853.96 1256.36 1856.85 1258.58 Q1859.74 1260.8 1859.74 1264.9 Q1859.74 1268.07 1858.26 1269.94 Q1856.78 1271.82 1853.91 1272.28 Q1857.36 1273.02 1859.26 1275.38 Q1861.18 1277.72 1861.18 1281.24 Q1861.18 1285.87 1858.03 1288.39 Q1854.88 1290.92 1849.07 1290.92 L1836.67 1290.92 L1836.67 1256.36 Z" fill="#000000" fill-rule="nonzero" fill-opacity="1" /><path clip-path="url(#clip970)" d="M1880.74 1260.96 L1874.4 1278.16 L1887.11 1278.16 L1880.74 1260.96 M1878.1 1256.36 L1883.4 1256.36 L1896.57 1290.92 L1891.71 1290.92 L1888.56 1282.05 L1872.99 1282.05 L1869.84 1290.92 L1864.91 1290.92 L1878.1 1256.36 Z" fill="#000000" fill-rule="nonzero" fill-opacity="1" /><path clip-path="url(#clip970)" d="M1918.01 1274.71 Q1919.51 1275.22 1920.93 1276.89 Q1922.36 1278.55 1923.8 1281.47 L1928.54 1290.92 L1923.52 1290.92 L1919.1 1282.05 Q1917.38 1278.58 1915.76 1277.44 Q1914.17 1276.31 1911.39 1276.31 L1906.3 1276.31 L1906.3 1290.92 L1901.62 1290.92 L1901.62 1256.36 L1912.18 1256.36 Q1918.1 1256.36 1921.02 1258.83 Q1923.93 1261.31 1923.93 1266.31 Q1923.93 1269.57 1922.41 1271.73 Q1920.9 1273.88 1918.01 1274.71 M1906.3 1260.2 L1906.3 1272.47 L1912.18 1272.47 Q1915.55 1272.47 1917.27 1270.92 Q1919 1269.34 1919 1266.31 Q1919 1263.28 1917.27 1261.75 Q1915.55 1260.2 1912.18 1260.2 L1906.3 1260.2 Z" fill="#000000" fill-rule="nonzero" fill-opacity="1" /><path clip-path="url(#clip970)" d="M1949.63 1256.36 L1969.49 1256.36 L1969.49 1260.29 L1954.3 1260.29 L1954.3 1270.48 L1968.01 1270.48 L1968.01 1274.41 L1954.3 1274.41 L1954.3 1290.92 L1949.63 1290.92 L1949.63 1256.36 Z" fill="#000000" fill-rule="nonzero" fill-opacity="1" /><path clip-path="url(#clip970)" d="M1984.14 1277.88 Q1978.98 1277.88 1976.99 1279.06 Q1975 1280.24 1975 1283.09 Q1975 1285.36 1976.48 1286.7 Q1977.98 1288.02 1980.55 1288.02 Q1984.1 1288.02 1986.23 1285.52 Q1988.38 1283 1988.38 1278.83 L1988.38 1277.88 L1984.14 1277.88 M1992.64 1276.12 L1992.64 1290.92 L1988.38 1290.92 L1988.38 1286.98 Q1986.92 1289.34 1984.74 1290.48 Q1982.57 1291.59 1979.42 1291.59 Q1975.44 1291.59 1973.08 1289.36 Q1970.74 1287.12 1970.74 1283.37 Q1970.74 1278.99 1973.66 1276.77 Q1976.6 1274.55 1982.41 1274.55 L1988.38 1274.55 L1988.38 1274.13 Q1988.38 1271.19 1986.43 1269.6 Q1984.51 1267.98 1981.02 1267.98 Q1978.8 1267.98 1976.69 1268.51 Q1974.58 1269.04 1972.64 1270.11 L1972.64 1266.17 Q1974.98 1265.27 1977.17 1264.83 Q1979.37 1264.36 1981.46 1264.36 Q1987.08 1264.36 1989.86 1267.28 Q1992.64 1270.2 1992.64 1276.12 Z" fill="#000000" fill-rule="nonzero" fill-opacity="1" /><path clip-path="url(#clip970)" d="M2001.41 1254.9 L2005.67 1254.9 L2005.67 1290.92 L2001.41 1290.92 L2001.41 1254.9 Z" fill="#000000" fill-rule="nonzero" fill-opacity="1" /><path clip-path="url(#clip970)" d="M2031.11 1265.75 L2031.11 1269.78 Q2029.3 1268.86 2027.36 1268.39 Q2025.42 1267.93 2023.33 1267.93 Q2020.16 1267.93 2018.56 1268.9 Q2016.99 1269.87 2016.99 1271.82 Q2016.99 1273.3 2018.12 1274.16 Q2019.26 1274.99 2022.68 1275.75 L2024.14 1276.08 Q2028.68 1277.05 2030.58 1278.83 Q2032.5 1280.59 2032.5 1283.76 Q2032.5 1287.37 2029.63 1289.48 Q2026.78 1291.59 2021.78 1291.59 Q2019.7 1291.59 2017.43 1291.17 Q2015.18 1290.78 2012.68 1289.97 L2012.68 1285.57 Q2015.04 1286.79 2017.34 1287.42 Q2019.63 1288.02 2021.87 1288.02 Q2024.88 1288.02 2026.5 1287 Q2028.12 1285.96 2028.12 1284.09 Q2028.12 1282.35 2026.94 1281.42 Q2025.79 1280.5 2021.83 1279.64 L2020.35 1279.3 Q2016.39 1278.46 2014.63 1276.75 Q2012.87 1275.01 2012.87 1272 Q2012.87 1268.35 2015.46 1266.36 Q2018.05 1264.36 2022.82 1264.36 Q2025.18 1264.36 2027.27 1264.71 Q2029.35 1265.06 2031.11 1265.75 Z" fill="#000000" fill-rule="nonzero" fill-opacity="1" /><path clip-path="url(#clip970)" d="M2061.46 1276.89 L2061.46 1278.97 L2041.87 1278.97 Q2042.15 1283.37 2044.51 1285.68 Q2046.9 1287.98 2051.13 1287.98 Q2053.59 1287.98 2055.88 1287.37 Q2058.19 1286.77 2060.46 1285.57 L2060.46 1289.6 Q2058.17 1290.57 2055.76 1291.08 Q2053.35 1291.59 2050.88 1291.59 Q2044.67 1291.59 2041.04 1287.98 Q2037.43 1284.36 2037.43 1278.21 Q2037.43 1271.84 2040.85 1268.11 Q2044.3 1264.36 2050.14 1264.36 Q2055.37 1264.36 2058.4 1267.74 Q2061.46 1271.1 2061.46 1276.89 M2057.2 1275.64 Q2057.15 1272.14 2055.23 1270.06 Q2053.33 1267.98 2050.18 1267.98 Q2046.62 1267.98 2044.47 1269.99 Q2042.34 1272 2042.01 1275.66 L2057.2 1275.64 Z" fill="#000000" fill-rule="nonzero" fill-opacity="1" /><path clip-path="url(#clip970)" d="M2088.38 1260.2 L2088.38 1273.18 L2094.26 1273.18 Q2097.52 1273.18 2099.3 1271.49 Q2101.09 1269.8 2101.09 1266.68 Q2101.09 1263.58 2099.3 1261.89 Q2097.52 1260.2 2094.26 1260.2 L2088.38 1260.2 M2083.7 1256.36 L2094.26 1256.36 Q2100.07 1256.36 2103.03 1258.99 Q2106.02 1261.61 2106.02 1266.68 Q2106.02 1271.8 2103.03 1274.41 Q2100.07 1277.03 2094.26 1277.03 L2088.38 1277.03 L2088.38 1290.92 L2083.7 1290.92 L2083.7 1256.36 Z" fill="#000000" fill-rule="nonzero" fill-opacity="1" /><path clip-path="url(#clip970)" d="M2120.46 1267.98 Q2117.04 1267.98 2115.04 1270.66 Q2113.05 1273.32 2113.05 1277.98 Q2113.05 1282.63 2115.02 1285.31 Q2117.01 1287.98 2120.46 1287.98 Q2123.86 1287.98 2125.85 1285.29 Q2127.85 1282.61 2127.85 1277.98 Q2127.85 1273.37 2125.85 1270.68 Q2123.86 1267.98 2120.46 1267.98 M2120.46 1264.36 Q2126.02 1264.36 2129.19 1267.98 Q2132.36 1271.59 2132.36 1277.98 Q2132.36 1284.34 2129.19 1287.98 Q2126.02 1291.59 2120.46 1291.59 Q2114.88 1291.59 2111.71 1287.98 Q2108.56 1284.34 2108.56 1277.98 Q2108.56 1271.59 2111.71 1267.98 Q2114.88 1264.36 2120.46 1264.36 Z" fill="#000000" fill-rule="nonzero" fill-opacity="1" /><path clip-path="url(#clip970)" d="M2155.95 1265.75 L2155.95 1269.78 Q2154.14 1268.86 2152.2 1268.39 Q2150.25 1267.93 2148.17 1267.93 Q2145 1267.93 2143.4 1268.9 Q2141.83 1269.87 2141.83 1271.82 Q2141.83 1273.3 2142.96 1274.16 Q2144.1 1274.99 2147.52 1275.75 L2148.98 1276.08 Q2153.52 1277.05 2155.41 1278.83 Q2157.34 1280.59 2157.34 1283.76 Q2157.34 1287.37 2154.47 1289.48 Q2151.62 1291.59 2146.62 1291.59 Q2144.53 1291.59 2142.27 1291.17 Q2140.02 1290.78 2137.52 1289.97 L2137.52 1285.57 Q2139.88 1286.79 2142.17 1287.42 Q2144.47 1288.02 2146.71 1288.02 Q2149.72 1288.02 2151.34 1287 Q2152.96 1285.96 2152.96 1284.09 Q2152.96 1282.35 2151.78 1281.42 Q2150.62 1280.5 2146.66 1279.64 L2145.18 1279.3 Q2141.22 1278.46 2139.47 1276.75 Q2137.71 1275.01 2137.71 1272 Q2137.71 1268.35 2140.3 1266.36 Q2142.89 1264.36 2147.66 1264.36 Q2150.02 1264.36 2152.1 1264.71 Q2154.19 1265.06 2155.95 1265.75 Z" fill="#000000" fill-rule="nonzero" fill-opacity="1" /><path clip-path="url(#clip970)" d="M2164.12 1264.99 L2168.38 1264.99 L2168.38 1290.92 L2164.12 1290.92 L2164.12 1264.99 M2164.12 1254.9 L2168.38 1254.9 L2168.38 1260.29 L2164.12 1260.29 L2164.12 1254.9 Z" fill="#000000" fill-rule="nonzero" fill-opacity="1" /><path clip-path="url(#clip970)" d="M2181.5 1257.63 L2181.5 1264.99 L2190.28 1264.99 L2190.28 1268.3 L2181.5 1268.3 L2181.5 1282.37 Q2181.5 1285.54 2182.36 1286.45 Q2183.24 1287.35 2185.9 1287.35 L2190.28 1287.35 L2190.28 1290.92 L2185.9 1290.92 Q2180.97 1290.92 2179.09 1289.09 Q2177.22 1287.23 2177.22 1282.37 L2177.22 1268.3 L2174.1 1268.3 L2174.1 1264.99 L2177.22 1264.99 L2177.22 1257.63 L2181.5 1257.63 Z" fill="#000000" fill-rule="nonzero" fill-opacity="1" /><path clip-path="url(#clip970)" d="M2195.88 1264.99 L2200.14 1264.99 L2200.14 1290.92 L2195.88 1290.92 L2195.88 1264.99 M2195.88 1254.9 L2200.14 1254.9 L2200.14 1260.29 L2195.88 1260.29 L2195.88 1254.9 Z" fill="#000000" fill-rule="nonzero" fill-opacity="1" /><path clip-path="url(#clip970)" d="M2205.99 1264.99 L2210.51 1264.99 L2218.61 1286.75 L2226.71 1264.99 L2231.22 1264.99 L2221.5 1290.92 L2215.72 1290.92 L2205.99 1264.99 Z" fill="#000000" fill-rule="nonzero" fill-opacity="1" /><path clip-path="url(#clip970)" d="M2259.28 1276.89 L2259.28 1278.97 L2239.7 1278.97 Q2239.97 1283.37 2242.34 1285.68 Q2244.72 1287.98 2248.96 1287.98 Q2251.41 1287.98 2253.7 1287.37 Q2256.02 1286.77 2258.28 1285.57 L2258.28 1289.6 Q2255.99 1290.57 2253.59 1291.08 Q2251.18 1291.59 2248.7 1291.59 Q2242.5 1291.59 2238.86 1287.98 Q2235.25 1284.36 2235.25 1278.21 Q2235.25 1271.84 2238.68 1268.11 Q2242.13 1264.36 2247.96 1264.36 Q2253.19 1264.36 2256.22 1267.74 Q2259.28 1271.1 2259.28 1276.89 M2255.02 1275.64 Q2254.97 1272.14 2253.05 1270.06 Q2251.15 1267.98 2248.01 1267.98 Q2244.44 1267.98 2242.29 1269.99 Q2240.16 1272 2239.84 1275.66 L2255.02 1275.64 Z" fill="#000000" fill-rule="nonzero" fill-opacity="1" /><polyline clip-path="url(#clip970)" style="stroke:#808080; stroke-linecap:round; stroke-linejoin:round; stroke-width:4; stroke-opacity:1; fill:none" stroke-dasharray="16, 10" points="1549.13,1325.48 1689.34,1325.48 "/>
<path clip-path="url(#clip970)" d="M1731.62 1320.76 L1731.62 1306.74 L1735.88 1306.74 L1735.88 1342.76 L1731.62 1342.76 L1731.62 1338.87 Q1730.28 1341.18 1728.22 1342.32 Q1726.18 1343.43 1723.31 1343.43 Q1718.61 1343.43 1715.65 1339.68 Q1712.71 1335.93 1712.71 1329.82 Q1712.71 1323.7 1715.65 1319.95 Q1718.61 1316.2 1723.31 1316.2 Q1726.18 1316.2 1728.22 1317.34 Q1730.28 1318.45 1731.62 1320.76 M1717.11 1329.82 Q1717.11 1334.51 1719.03 1337.2 Q1720.97 1339.86 1724.35 1339.86 Q1727.73 1339.86 1729.68 1337.2 Q1731.62 1334.51 1731.62 1329.82 Q1731.62 1325.12 1729.68 1322.45 Q1727.73 1319.77 1724.35 1319.77 Q1720.97 1319.77 1719.03 1322.45 Q1717.11 1325.12 1717.11 1329.82 Z" fill="#000000" fill-rule="nonzero" fill-opacity="1" /><path clip-path="url(#clip970)" d="M1744.65 1316.83 L1748.91 1316.83 L1748.91 1342.76 L1744.65 1342.76 L1744.65 1316.83 M1744.65 1306.74 L1748.91 1306.74 L1748.91 1312.13 L1744.65 1312.13 L1744.65 1306.74 Z" fill="#000000" fill-rule="nonzero" fill-opacity="1" /><path clip-path="url(#clip970)" d="M1769.61 1329.72 Q1764.44 1329.72 1762.45 1330.9 Q1760.46 1332.08 1760.46 1334.93 Q1760.46 1337.2 1761.94 1338.54 Q1763.45 1339.86 1766.02 1339.86 Q1769.56 1339.86 1771.69 1337.36 Q1773.84 1334.84 1773.84 1330.67 L1773.84 1329.72 L1769.61 1329.72 M1778.1 1327.96 L1778.1 1342.76 L1773.84 1342.76 L1773.84 1338.82 Q1772.38 1341.18 1770.21 1342.32 Q1768.03 1343.43 1764.88 1343.43 Q1760.9 1343.43 1758.54 1341.2 Q1756.2 1338.96 1756.2 1335.21 Q1756.2 1330.83 1759.12 1328.61 Q1762.06 1326.39 1767.87 1326.39 L1773.84 1326.39 L1773.84 1325.97 Q1773.84 1323.03 1771.9 1321.44 Q1769.98 1319.82 1766.48 1319.82 Q1764.26 1319.82 1762.15 1320.35 Q1760.05 1320.88 1758.1 1321.95 L1758.1 1318.01 Q1760.44 1317.11 1762.64 1316.67 Q1764.84 1316.2 1766.92 1316.2 Q1772.55 1316.2 1775.32 1319.12 Q1778.1 1322.04 1778.1 1327.96 Z" fill="#000000" fill-rule="nonzero" fill-opacity="1" /><path clip-path="url(#clip970)" d="M1803.93 1329.49 Q1803.93 1324.86 1802.01 1322.32 Q1800.12 1319.77 1796.67 1319.77 Q1793.24 1319.77 1791.32 1322.32 Q1789.42 1324.86 1789.42 1329.49 Q1789.42 1334.1 1791.32 1336.64 Q1793.24 1339.19 1796.67 1339.19 Q1800.12 1339.19 1802.01 1336.64 Q1803.93 1334.1 1803.93 1329.49 M1808.19 1339.54 Q1808.19 1346.16 1805.25 1349.38 Q1802.31 1352.62 1796.25 1352.62 Q1794 1352.62 1792.01 1352.27 Q1790.02 1351.95 1788.15 1351.25 L1788.15 1347.11 Q1790.02 1348.13 1791.85 1348.61 Q1793.68 1349.1 1795.58 1349.1 Q1799.77 1349.1 1801.85 1346.9 Q1803.93 1344.72 1803.93 1340.3 L1803.93 1338.2 Q1802.62 1340.49 1800.56 1341.62 Q1798.5 1342.76 1795.62 1342.76 Q1790.86 1342.76 1787.94 1339.12 Q1785.02 1335.49 1785.02 1329.49 Q1785.02 1323.47 1787.94 1319.84 Q1790.86 1316.2 1795.62 1316.2 Q1798.5 1316.2 1800.56 1317.34 Q1802.62 1318.47 1803.93 1320.76 L1803.93 1316.83 L1808.19 1316.83 L1808.19 1339.54 Z" fill="#000000" fill-rule="nonzero" fill-opacity="1" /><path clip-path="url(#clip970)" d="M1827.01 1319.82 Q1823.59 1319.82 1821.6 1322.5 Q1819.61 1325.16 1819.61 1329.82 Q1819.61 1334.47 1821.57 1337.15 Q1823.56 1339.82 1827.01 1339.82 Q1830.42 1339.82 1832.41 1337.13 Q1834.4 1334.45 1834.4 1329.82 Q1834.4 1325.21 1832.41 1322.52 Q1830.42 1319.82 1827.01 1319.82 M1827.01 1316.2 Q1832.57 1316.2 1835.74 1319.82 Q1838.91 1323.43 1838.91 1329.82 Q1838.91 1336.18 1835.74 1339.82 Q1832.57 1343.43 1827.01 1343.43 Q1821.43 1343.43 1818.26 1339.82 Q1815.12 1336.18 1815.12 1329.82 Q1815.12 1323.43 1818.26 1319.82 Q1821.43 1316.2 1827.01 1316.2 Z" fill="#000000" fill-rule="nonzero" fill-opacity="1" /><path clip-path="url(#clip970)" d="M1867.52 1327.11 L1867.52 1342.76 L1863.26 1342.76 L1863.26 1327.25 Q1863.26 1323.57 1861.83 1321.74 Q1860.39 1319.91 1857.52 1319.91 Q1854.07 1319.91 1852.08 1322.11 Q1850.09 1324.31 1850.09 1328.1 L1850.09 1342.76 L1845.81 1342.76 L1845.81 1316.83 L1850.09 1316.83 L1850.09 1320.86 Q1851.62 1318.52 1853.68 1317.36 Q1855.76 1316.2 1858.47 1316.2 Q1862.94 1316.2 1865.23 1318.98 Q1867.52 1321.74 1867.52 1327.11 Z" fill="#000000" fill-rule="nonzero" fill-opacity="1" /><path clip-path="url(#clip970)" d="M1887.8 1329.72 Q1882.64 1329.72 1880.65 1330.9 Q1878.66 1332.08 1878.66 1334.93 Q1878.66 1337.2 1880.14 1338.54 Q1881.64 1339.86 1884.21 1339.86 Q1887.75 1339.86 1889.88 1337.36 Q1892.04 1334.84 1892.04 1330.67 L1892.04 1329.72 L1887.8 1329.72 M1896.3 1327.96 L1896.3 1342.76 L1892.04 1342.76 L1892.04 1338.82 Q1890.58 1341.18 1888.4 1342.32 Q1886.23 1343.43 1883.08 1343.43 Q1879.1 1343.43 1876.74 1341.2 Q1874.4 1338.96 1874.4 1335.21 Q1874.4 1330.83 1877.31 1328.61 Q1880.25 1326.39 1886.06 1326.39 L1892.04 1326.39 L1892.04 1325.97 Q1892.04 1323.03 1890.09 1321.44 Q1888.17 1319.82 1884.68 1319.82 Q1882.45 1319.82 1880.35 1320.35 Q1878.24 1320.88 1876.3 1321.95 L1876.3 1318.01 Q1878.63 1317.11 1880.83 1316.67 Q1883.03 1316.2 1885.12 1316.2 Q1890.74 1316.2 1893.52 1319.12 Q1896.3 1322.04 1896.3 1327.96 Z" fill="#000000" fill-rule="nonzero" fill-opacity="1" /><path clip-path="url(#clip970)" d="M1905.07 1306.74 L1909.33 1306.74 L1909.33 1342.76 L1905.07 1342.76 L1905.07 1306.74 Z" fill="#000000" fill-rule="nonzero" fill-opacity="1" /><path clip-path="url(#clip970)" d="M1933.31 1306.74 L1937.57 1306.74 L1937.57 1342.76 L1933.31 1342.76 L1933.31 1306.74 Z" fill="#000000" fill-rule="nonzero" fill-opacity="1" /><path clip-path="url(#clip970)" d="M1946.48 1316.83 L1950.74 1316.83 L1950.74 1342.76 L1946.48 1342.76 L1946.48 1316.83 M1946.48 1306.74 L1950.74 1306.74 L1950.74 1312.13 L1946.48 1312.13 L1946.48 1306.74 Z" fill="#000000" fill-rule="nonzero" fill-opacity="1" /><path clip-path="url(#clip970)" d="M1981.2 1327.11 L1981.2 1342.76 L1976.94 1342.76 L1976.94 1327.25 Q1976.94 1323.57 1975.51 1321.74 Q1974.07 1319.91 1971.2 1319.91 Q1967.75 1319.91 1965.76 1322.11 Q1963.77 1324.31 1963.77 1328.1 L1963.77 1342.76 L1959.49 1342.76 L1959.49 1316.83 L1963.77 1316.83 L1963.77 1320.86 Q1965.3 1318.52 1967.36 1317.36 Q1969.44 1316.2 1972.15 1316.2 Q1976.62 1316.2 1978.91 1318.98 Q1981.2 1321.74 1981.2 1327.11 Z" fill="#000000" fill-rule="nonzero" fill-opacity="1" /><path clip-path="url(#clip970)" d="M2011.87 1328.73 L2011.87 1330.81 L1992.29 1330.81 Q1992.57 1335.21 1994.93 1337.52 Q1997.31 1339.82 2001.55 1339.82 Q2004 1339.82 2006.29 1339.21 Q2008.61 1338.61 2010.88 1337.41 L2010.88 1341.44 Q2008.59 1342.41 2006.18 1342.92 Q2003.77 1343.43 2001.3 1343.43 Q1995.09 1343.43 1991.46 1339.82 Q1987.85 1336.2 1987.85 1330.05 Q1987.85 1323.68 1991.27 1319.95 Q1994.72 1316.2 2000.55 1316.2 Q2005.79 1316.2 2008.82 1319.58 Q2011.87 1322.94 2011.87 1328.73 M2007.61 1327.48 Q2007.57 1323.98 2005.65 1321.9 Q2003.75 1319.82 2000.6 1319.82 Q1997.04 1319.82 1994.88 1321.83 Q1992.75 1323.84 1992.43 1327.5 L2007.61 1327.48 Z" fill="#000000" fill-rule="nonzero" fill-opacity="1" /></svg>
