<?xml version="1.0" encoding="utf-8"?>
<svg xmlns="http://www.w3.org/2000/svg" xmlns:xlink="http://www.w3.org/1999/xlink" width="450" height="300" viewBox="0 0 1800 1200">
<defs>
  <clipPath id="clip270">
    <rect x="0" y="0" width="1800" height="1200"/>
  </clipPath>
</defs>
<path clip-path="url(#clip270)" d="M0 1200 L1800 1200 L1800 0 L0 0  Z" fill="#ffffff" fill-rule="evenodd" fill-opacity="1"/>
<defs>
  <clipPath id="clip271">
    <rect x="360" y="0" width="1261" height="1200"/>
  </clipPath>
</defs>
<path clip-path="url(#clip270)" d="M243.542 1027.18 L1752.76 1027.18 L1752.76 47.2441 L243.542 47.2441  Z" fill="#ffffff" fill-rule="evenodd" fill-opacity="1"/>
<defs>
  <clipPath id="clip272">
    <rect x="243" y="47" width="1510" height="981"/>
  </clipPath>
</defs>
<polyline clip-path="url(#clip272)" style="stroke:#000000; stroke-linecap:round; stroke-linejoin:round; stroke-width:2; stroke-opacity:0.1; fill:none" points="286.256,1027.18 286.256,47.2441 "/>
<polyline clip-path="url(#clip272)" style="stroke:#000000; stroke-linecap:round; stroke-linejoin:round; stroke-width:2; stroke-opacity:0.1; fill:none" points="642.202,1027.18 642.202,47.2441 "/>
<polyline clip-path="url(#clip272)" style="stroke:#000000; stroke-linecap:round; stroke-linejoin:round; stroke-width:2; stroke-opacity:0.1; fill:none" points="998.149,1027.18 998.149,47.2441 "/>
<polyline clip-path="url(#clip272)" style="stroke:#000000; stroke-linecap:round; stroke-linejoin:round; stroke-width:2; stroke-opacity:0.1; fill:none" points="1354.1,1027.18 1354.1,47.2441 "/>
<polyline clip-path="url(#clip272)" style="stroke:#000000; stroke-linecap:round; stroke-linejoin:round; stroke-width:2; stroke-opacity:0.1; fill:none" points="1710.04,1027.18 1710.04,47.2441 "/>
<polyline clip-path="url(#clip270)" style="stroke:#000000; stroke-linecap:round; stroke-linejoin:round; stroke-width:4; stroke-opacity:1; fill:none" points="243.542,1027.18 1752.76,1027.18 "/>
<polyline clip-path="url(#clip270)" style="stroke:#000000; stroke-linecap:round; stroke-linejoin:round; stroke-width:4; stroke-opacity:1; fill:none" points="286.256,1027.18 286.256,1008.28 "/>
<polyline clip-path="url(#clip270)" style="stroke:#000000; stroke-linecap:round; stroke-linejoin:round; stroke-width:4; stroke-opacity:1; fill:none" points="642.202,1027.18 642.202,1008.28 "/>
<polyline clip-path="url(#clip270)" style="stroke:#000000; stroke-linecap:round; stroke-linejoin:round; stroke-width:4; stroke-opacity:1; fill:none" points="998.149,1027.18 998.149,1008.28 "/>
<polyline clip-path="url(#clip270)" style="stroke:#000000; stroke-linecap:round; stroke-linejoin:round; stroke-width:4; stroke-opacity:1; fill:none" points="1354.1,1027.18 1354.1,1008.28 "/>
<polyline clip-path="url(#clip270)" style="stroke:#000000; stroke-linecap:round; stroke-linejoin:round; stroke-width:4; stroke-opacity:1; fill:none" points="1710.04,1027.18 1710.04,1008.28 "/>
<path clip-path="url(#clip270)" d="M248.559 1053.3 Q244.948 1053.3 243.119 1056.86 Q241.314 1060.4 241.314 1067.53 Q241.314 1074.64 243.119 1078.21 Q244.948 1081.75 248.559 1081.75 Q252.193 1081.75 253.999 1078.21 Q255.828 1074.64 255.828 1067.53 Q255.828 1060.4 253.999 1056.86 Q252.193 1053.3 248.559 1053.3 M248.559 1049.59 Q254.369 1049.59 257.425 1054.2 Q260.503 1058.78 260.503 1067.53 Q260.503 1076.26 257.425 1080.87 Q254.369 1085.45 248.559 1085.45 Q242.749 1085.45 239.67 1080.87 Q236.615 1076.26 236.615 1067.53 Q236.615 1058.78 239.67 1054.2 Q242.749 1049.59 248.559 1049.59 Z" fill="#000000" fill-rule="nonzero" fill-opacity="1" /><path clip-path="url(#clip270)" d="M268.721 1078.9 L273.605 1078.9 L273.605 1084.78 L268.721 1084.78 L268.721 1078.9 Z" fill="#000000" fill-rule="nonzero" fill-opacity="1" /><path clip-path="url(#clip270)" d="M293.79 1053.3 Q290.179 1053.3 288.351 1056.86 Q286.545 1060.4 286.545 1067.53 Q286.545 1074.64 288.351 1078.21 Q290.179 1081.75 293.79 1081.75 Q297.425 1081.75 299.23 1078.21 Q301.059 1074.64 301.059 1067.53 Q301.059 1060.4 299.23 1056.86 Q297.425 1053.3 293.79 1053.3 M293.79 1049.59 Q299.6 1049.59 302.656 1054.2 Q305.735 1058.78 305.735 1067.53 Q305.735 1076.26 302.656 1080.87 Q299.6 1085.45 293.79 1085.45 Q287.98 1085.45 284.901 1080.87 Q281.846 1076.26 281.846 1067.53 Q281.846 1058.78 284.901 1054.2 Q287.98 1049.59 293.79 1049.59 Z" fill="#000000" fill-rule="nonzero" fill-opacity="1" /><path clip-path="url(#clip270)" d="M323.952 1053.3 Q320.341 1053.3 318.512 1056.86 Q316.707 1060.4 316.707 1067.53 Q316.707 1074.64 318.512 1078.21 Q320.341 1081.75 323.952 1081.75 Q327.586 1081.75 329.392 1078.21 Q331.221 1074.64 331.221 1067.53 Q331.221 1060.4 329.392 1056.86 Q327.586 1053.3 323.952 1053.3 M323.952 1049.59 Q329.762 1049.59 332.818 1054.2 Q335.897 1058.78 335.897 1067.53 Q335.897 1076.26 332.818 1080.87 Q329.762 1085.45 323.952 1085.45 Q318.142 1085.45 315.063 1080.87 Q312.008 1076.26 312.008 1067.53 Q312.008 1058.78 315.063 1054.2 Q318.142 1049.59 323.952 1049.59 Z" fill="#000000" fill-rule="nonzero" fill-opacity="1" /><path clip-path="url(#clip270)" d="M605.003 1053.3 Q601.392 1053.3 599.564 1056.86 Q597.758 1060.4 597.758 1067.53 Q597.758 1074.64 599.564 1078.21 Q601.392 1081.75 605.003 1081.75 Q608.638 1081.75 610.443 1078.21 Q612.272 1074.64 612.272 1067.53 Q612.272 1060.4 610.443 1056.86 Q608.638 1053.3 605.003 1053.3 M605.003 1049.59 Q610.814 1049.59 613.869 1054.2 Q616.948 1058.78 616.948 1067.53 Q616.948 1076.26 613.869 1080.87 Q610.814 1085.45 605.003 1085.45 Q599.193 1085.45 596.115 1080.87 Q593.059 1076.26 593.059 1067.53 Q593.059 1058.78 596.115 1054.2 Q599.193 1049.59 605.003 1049.59 Z" fill="#000000" fill-rule="nonzero" fill-opacity="1" /><path clip-path="url(#clip270)" d="M625.165 1078.9 L630.05 1078.9 L630.05 1084.78 L625.165 1084.78 L625.165 1078.9 Z" fill="#000000" fill-rule="nonzero" fill-opacity="1" /><path clip-path="url(#clip270)" d="M644.262 1080.84 L660.582 1080.84 L660.582 1084.78 L638.637 1084.78 L638.637 1080.84 Q641.3 1078.09 645.883 1073.46 Q650.489 1068.81 651.67 1067.47 Q653.915 1064.94 654.795 1063.21 Q655.698 1061.45 655.698 1059.76 Q655.698 1057 653.753 1055.27 Q651.832 1053.53 648.73 1053.53 Q646.531 1053.53 644.077 1054.29 Q641.647 1055.06 638.869 1056.61 L638.869 1051.89 Q641.693 1050.75 644.147 1050.17 Q646.6 1049.59 648.637 1049.59 Q654.008 1049.59 657.202 1052.28 Q660.397 1054.97 660.397 1059.46 Q660.397 1061.59 659.586 1063.51 Q658.799 1065.4 656.693 1068 Q656.114 1068.67 653.012 1071.89 Q649.911 1075.08 644.262 1080.84 Z" fill="#000000" fill-rule="nonzero" fill-opacity="1" /><path clip-path="url(#clip270)" d="M670.443 1050.22 L688.799 1050.22 L688.799 1054.16 L674.725 1054.16 L674.725 1062.63 Q675.744 1062.28 676.762 1062.12 Q677.781 1061.93 678.799 1061.93 Q684.586 1061.93 687.966 1065.1 Q691.346 1068.28 691.346 1073.69 Q691.346 1079.27 687.873 1082.37 Q684.401 1085.45 678.082 1085.45 Q675.906 1085.45 673.637 1085.08 Q671.392 1084.71 668.985 1083.97 L668.985 1079.27 Q671.068 1080.4 673.29 1080.96 Q675.512 1081.52 677.989 1081.52 Q681.994 1081.52 684.332 1079.41 Q686.67 1077.3 686.67 1073.69 Q686.67 1070.08 684.332 1067.97 Q681.994 1065.87 677.989 1065.87 Q676.114 1065.87 674.239 1066.28 Q672.387 1066.7 670.443 1067.58 L670.443 1050.22 Z" fill="#000000" fill-rule="nonzero" fill-opacity="1" /><path clip-path="url(#clip270)" d="M960.452 1053.3 Q956.841 1053.3 955.013 1056.86 Q953.207 1060.4 953.207 1067.53 Q953.207 1074.64 955.013 1078.21 Q956.841 1081.75 960.452 1081.75 Q964.087 1081.75 965.892 1078.21 Q967.721 1074.64 967.721 1067.53 Q967.721 1060.4 965.892 1056.86 Q964.087 1053.3 960.452 1053.3 M960.452 1049.59 Q966.263 1049.59 969.318 1054.2 Q972.397 1058.78 972.397 1067.53 Q972.397 1076.26 969.318 1080.87 Q966.263 1085.45 960.452 1085.45 Q954.642 1085.45 951.564 1080.87 Q948.508 1076.26 948.508 1067.53 Q948.508 1058.78 951.564 1054.2 Q954.642 1049.59 960.452 1049.59 Z" fill="#000000" fill-rule="nonzero" fill-opacity="1" /><path clip-path="url(#clip270)" d="M980.614 1078.9 L985.499 1078.9 L985.499 1084.78 L980.614 1084.78 L980.614 1078.9 Z" fill="#000000" fill-rule="nonzero" fill-opacity="1" /><path clip-path="url(#clip270)" d="M995.73 1050.22 L1014.09 1050.22 L1014.09 1054.16 L1000.01 1054.16 L1000.01 1062.63 Q1001.03 1062.28 1002.05 1062.12 Q1003.07 1061.93 1004.09 1061.93 Q1009.87 1061.93 1013.25 1065.1 Q1016.63 1068.28 1016.63 1073.69 Q1016.63 1079.27 1013.16 1082.37 Q1009.69 1085.45 1003.37 1085.45 Q1001.19 1085.45 998.924 1085.08 Q996.679 1084.71 994.272 1083.97 L994.272 1079.27 Q996.355 1080.4 998.577 1080.96 Q1000.8 1081.52 1003.28 1081.52 Q1007.28 1081.52 1009.62 1079.41 Q1011.96 1077.3 1011.96 1073.69 Q1011.96 1070.08 1009.62 1067.97 Q1007.28 1065.87 1003.28 1065.87 Q1001.4 1065.87 999.526 1066.28 Q997.674 1066.7 995.73 1067.58 L995.73 1050.22 Z" fill="#000000" fill-rule="nonzero" fill-opacity="1" /><path clip-path="url(#clip270)" d="M1035.85 1053.3 Q1032.23 1053.3 1030.41 1056.86 Q1028.6 1060.4 1028.6 1067.53 Q1028.6 1074.64 1030.41 1078.21 Q1032.23 1081.75 1035.85 1081.75 Q1039.48 1081.75 1041.29 1078.21 Q1043.11 1074.64 1043.11 1067.53 Q1043.11 1060.4 1041.29 1056.86 Q1039.48 1053.3 1035.85 1053.3 M1035.85 1049.59 Q1041.66 1049.59 1044.71 1054.2 Q1047.79 1058.78 1047.79 1067.53 Q1047.79 1076.26 1044.71 1080.87 Q1041.66 1085.45 1035.85 1085.45 Q1030.04 1085.45 1026.96 1080.87 Q1023.9 1076.26 1023.9 1067.53 Q1023.9 1058.78 1026.96 1054.2 Q1030.04 1049.59 1035.85 1049.59 Z" fill="#000000" fill-rule="nonzero" fill-opacity="1" /><path clip-path="url(#clip270)" d="M1316.9 1053.3 Q1313.29 1053.3 1311.46 1056.86 Q1309.65 1060.4 1309.65 1067.53 Q1309.65 1074.64 1311.46 1078.21 Q1313.29 1081.75 1316.9 1081.75 Q1320.53 1081.75 1322.34 1078.21 Q1324.17 1074.64 1324.17 1067.53 Q1324.17 1060.4 1322.34 1056.86 Q1320.53 1053.3 1316.9 1053.3 M1316.9 1049.59 Q1322.71 1049.59 1325.76 1054.2 Q1328.84 1058.78 1328.84 1067.53 Q1328.84 1076.26 1325.76 1080.87 Q1322.71 1085.45 1316.9 1085.45 Q1311.09 1085.45 1308.01 1080.87 Q1304.95 1076.26 1304.95 1067.53 Q1304.95 1058.78 1308.01 1054.2 Q1311.09 1049.59 1316.9 1049.59 Z" fill="#000000" fill-rule="nonzero" fill-opacity="1" /><path clip-path="url(#clip270)" d="M1337.06 1078.9 L1341.94 1078.9 L1341.94 1084.78 L1337.06 1084.78 L1337.06 1078.9 Z" fill="#000000" fill-rule="nonzero" fill-opacity="1" /><path clip-path="url(#clip270)" d="M1350.95 1050.22 L1373.17 1050.22 L1373.17 1052.21 L1360.62 1084.78 L1355.74 1084.78 L1367.54 1054.16 L1350.95 1054.16 L1350.95 1050.22 Z" fill="#000000" fill-rule="nonzero" fill-opacity="1" /><path clip-path="url(#clip270)" d="M1382.34 1050.22 L1400.69 1050.22 L1400.69 1054.16 L1386.62 1054.16 L1386.62 1062.63 Q1387.64 1062.28 1388.66 1062.12 Q1389.67 1061.93 1390.69 1061.93 Q1396.48 1061.93 1399.86 1065.1 Q1403.24 1068.28 1403.24 1073.69 Q1403.24 1079.27 1399.77 1082.37 Q1396.29 1085.45 1389.98 1085.45 Q1387.8 1085.45 1385.53 1085.08 Q1383.29 1084.71 1380.88 1083.97 L1380.88 1079.27 Q1382.96 1080.4 1385.18 1080.96 Q1387.41 1081.52 1389.88 1081.52 Q1393.89 1081.52 1396.23 1079.41 Q1398.56 1077.3 1398.56 1073.69 Q1398.56 1070.08 1396.23 1067.97 Q1393.89 1065.87 1389.88 1065.87 Q1388.01 1065.87 1386.13 1066.28 Q1384.28 1066.7 1382.34 1067.58 L1382.34 1050.22 Z" fill="#000000" fill-rule="nonzero" fill-opacity="1" /><path clip-path="url(#clip270)" d="M1662.11 1080.84 L1669.75 1080.84 L1669.75 1054.48 L1661.44 1056.15 L1661.44 1051.89 L1669.71 1050.22 L1674.38 1050.22 L1674.38 1080.84 L1682.02 1080.84 L1682.02 1084.78 L1662.11 1084.78 L1662.11 1080.84 Z" fill="#000000" fill-rule="nonzero" fill-opacity="1" /><path clip-path="url(#clip270)" d="M1691.47 1078.9 L1696.35 1078.9 L1696.35 1084.78 L1691.47 1084.78 L1691.47 1078.9 Z" fill="#000000" fill-rule="nonzero" fill-opacity="1" /><path clip-path="url(#clip270)" d="M1716.54 1053.3 Q1712.92 1053.3 1711.1 1056.86 Q1709.29 1060.4 1709.29 1067.53 Q1709.29 1074.64 1711.1 1078.21 Q1712.92 1081.75 1716.54 1081.75 Q1720.17 1081.75 1721.98 1078.21 Q1723.8 1074.64 1723.8 1067.53 Q1723.8 1060.4 1721.98 1056.86 Q1720.17 1053.3 1716.54 1053.3 M1716.54 1049.59 Q1722.35 1049.59 1725.4 1054.2 Q1728.48 1058.78 1728.48 1067.53 Q1728.48 1076.26 1725.4 1080.87 Q1722.35 1085.45 1716.54 1085.45 Q1710.73 1085.45 1707.65 1080.87 Q1704.59 1076.26 1704.59 1067.53 Q1704.59 1058.78 1707.65 1054.2 Q1710.73 1049.59 1716.54 1049.59 Z" fill="#000000" fill-rule="nonzero" fill-opacity="1" /><path clip-path="url(#clip270)" d="M1746.7 1053.3 Q1743.09 1053.3 1741.26 1056.86 Q1739.45 1060.4 1739.45 1067.53 Q1739.45 1074.64 1741.26 1078.21 Q1743.09 1081.75 1746.7 1081.75 Q1750.33 1081.75 1752.14 1078.21 Q1753.97 1074.64 1753.97 1067.53 Q1753.97 1060.4 1752.14 1056.86 Q1750.33 1053.3 1746.7 1053.3 M1746.7 1049.59 Q1752.51 1049.59 1755.56 1054.2 Q1758.64 1058.78 1758.64 1067.53 Q1758.64 1076.26 1755.56 1080.87 Q1752.51 1085.45 1746.7 1085.45 Q1740.89 1085.45 1737.81 1080.87 Q1734.75 1076.26 1734.75 1067.53 Q1734.75 1058.78 1737.81 1054.2 Q1740.89 1049.59 1746.7 1049.59 Z" fill="#000000" fill-rule="nonzero" fill-opacity="1" /><path clip-path="url(#clip270)" d="M513.066 1120.81 L513.066 1138.66 L521.151 1138.66 Q525.638 1138.66 528.089 1136.34 Q530.54 1134.02 530.54 1129.72 Q530.54 1125.45 528.089 1123.13 Q525.638 1120.81 521.151 1120.81 L513.066 1120.81 M506.637 1115.52 L521.151 1115.52 Q529.14 1115.52 533.214 1119.15 Q537.32 1122.75 537.32 1129.72 Q537.32 1136.75 533.214 1140.35 Q529.14 1143.95 521.151 1143.95 L513.066 1143.95 L513.066 1163.04 L506.637 1163.04 L506.637 1115.52 Z" fill="#000000" fill-rule="nonzero" fill-opacity="1" /><path clip-path="url(#clip270)" d="M557.181 1131.5 Q552.47 1131.5 549.733 1135.19 Q546.995 1138.85 546.995 1145.25 Q546.995 1151.65 549.701 1155.34 Q552.438 1159 557.181 1159 Q561.859 1159 564.597 1155.31 Q567.334 1151.62 567.334 1145.25 Q567.334 1138.92 564.597 1135.23 Q561.859 1131.5 557.181 1131.5 M557.181 1126.54 Q564.819 1126.54 569.18 1131.5 Q573.54 1136.47 573.54 1145.25 Q573.54 1154 569.18 1159 Q564.819 1163.97 557.181 1163.97 Q549.51 1163.97 545.149 1159 Q540.821 1154 540.821 1145.25 Q540.821 1136.47 545.149 1131.5 Q549.51 1126.54 557.181 1126.54 Z" fill="#000000" fill-rule="nonzero" fill-opacity="1" /><path clip-path="url(#clip270)" d="M605.974 1128.45 L605.974 1133.98 Q603.491 1132.71 600.817 1132.07 Q598.144 1131.44 595.279 1131.44 Q590.919 1131.44 588.723 1132.77 Q586.558 1134.11 586.558 1136.79 Q586.558 1138.82 588.118 1140 Q589.677 1141.15 594.388 1142.2 L596.393 1142.64 Q602.632 1143.98 605.242 1146.43 Q607.883 1148.85 607.883 1153.21 Q607.883 1158.17 603.937 1161.07 Q600.022 1163.97 593.147 1163.97 Q590.282 1163.97 587.163 1163.39 Q584.076 1162.85 580.638 1161.74 L580.638 1155.69 Q583.885 1157.38 587.036 1158.24 Q590.187 1159.07 593.274 1159.07 Q597.412 1159.07 599.64 1157.66 Q601.868 1156.23 601.868 1153.65 Q601.868 1151.27 600.245 1149.99 Q598.653 1148.72 593.21 1147.54 L591.173 1147.07 Q585.731 1145.92 583.312 1143.56 Q580.893 1141.18 580.893 1137.04 Q580.893 1132.01 584.458 1129.27 Q588.022 1126.54 594.579 1126.54 Q597.826 1126.54 600.69 1127.01 Q603.555 1127.49 605.974 1128.45 Z" fill="#000000" fill-rule="nonzero" fill-opacity="1" /><path clip-path="url(#clip270)" d="M623.002 1117.27 L623.002 1127.4 L635.065 1127.4 L635.065 1131.95 L623.002 1131.95 L623.002 1151.3 Q623.002 1155.66 624.18 1156.9 Q625.389 1158.14 629.049 1158.14 L635.065 1158.14 L635.065 1163.04 L629.049 1163.04 Q622.27 1163.04 619.692 1160.53 Q617.114 1157.98 617.114 1151.3 L617.114 1131.95 L612.817 1131.95 L612.817 1127.4 L617.114 1127.4 L617.114 1117.27 L623.002 1117.27 Z" fill="#000000" fill-rule="nonzero" fill-opacity="1" /><path clip-path="url(#clip270)" d="M673.259 1143.76 L673.259 1146.62 L646.332 1146.62 Q646.714 1152.67 649.961 1155.85 Q653.239 1159 659.064 1159 Q662.438 1159 665.589 1158.17 Q668.771 1157.35 671.891 1155.69 L671.891 1161.23 Q668.74 1162.57 665.429 1163.27 Q662.119 1163.97 658.714 1163.97 Q650.184 1163.97 645.186 1159 Q640.221 1154.04 640.221 1145.57 Q640.221 1136.82 644.932 1131.69 Q649.674 1126.54 657.695 1126.54 Q664.888 1126.54 669.058 1131.18 Q673.259 1135.8 673.259 1143.76 M667.403 1142.04 Q667.339 1137.23 664.697 1134.37 Q662.087 1131.5 657.759 1131.5 Q652.857 1131.5 649.897 1134.27 Q646.969 1137.04 646.523 1142.07 L667.403 1142.04 Z" fill="#000000" fill-rule="nonzero" fill-opacity="1" /><path clip-path="url(#clip270)" d="M703.528 1132.87 Q702.541 1132.3 701.364 1132.04 Q700.218 1131.76 698.818 1131.76 Q693.852 1131.76 691.179 1135 Q688.537 1138.22 688.537 1144.27 L688.537 1163.04 L682.649 1163.04 L682.649 1127.4 L688.537 1127.4 L688.537 1132.93 Q690.383 1129.69 693.343 1128.13 Q696.303 1126.54 700.536 1126.54 Q701.141 1126.54 701.873 1126.63 Q702.605 1126.7 703.496 1126.85 L703.528 1132.87 Z" fill="#000000" fill-rule="nonzero" fill-opacity="1" /><path clip-path="url(#clip270)" d="M709.671 1127.4 L715.528 1127.4 L715.528 1163.04 L709.671 1163.04 L709.671 1127.4 M709.671 1113.52 L715.528 1113.52 L715.528 1120.93 L709.671 1120.93 L709.671 1113.52 Z" fill="#000000" fill-rule="nonzero" fill-opacity="1" /><path clip-path="url(#clip270)" d="M741.595 1131.5 Q736.884 1131.5 734.147 1135.19 Q731.41 1138.85 731.41 1145.25 Q731.41 1151.65 734.115 1155.34 Q736.853 1159 741.595 1159 Q746.274 1159 749.011 1155.31 Q751.748 1151.62 751.748 1145.25 Q751.748 1138.92 749.011 1135.23 Q746.274 1131.5 741.595 1131.5 M741.595 1126.54 Q749.234 1126.54 753.594 1131.5 Q757.955 1136.47 757.955 1145.25 Q757.955 1154 753.594 1159 Q749.234 1163.97 741.595 1163.97 Q733.924 1163.97 729.564 1159 Q725.235 1154 725.235 1145.25 Q725.235 1136.47 729.564 1131.5 Q733.924 1126.54 741.595 1126.54 Z" fill="#000000" fill-rule="nonzero" fill-opacity="1" /><path clip-path="url(#clip270)" d="M788.319 1132.87 Q787.333 1132.3 786.155 1132.04 Q785.009 1131.76 783.609 1131.76 Q778.643 1131.76 775.97 1135 Q773.328 1138.22 773.328 1144.27 L773.328 1163.04 L767.44 1163.04 L767.44 1127.4 L773.328 1127.4 L773.328 1132.93 Q775.174 1129.69 778.134 1128.13 Q781.094 1126.54 785.327 1126.54 Q785.932 1126.54 786.664 1126.63 Q787.396 1126.7 788.288 1126.85 L788.319 1132.87 Z" fill="#000000" fill-rule="nonzero" fill-opacity="1" /><path clip-path="url(#clip270)" d="M821.867 1120.81 L821.867 1138.66 L829.951 1138.66 Q834.439 1138.66 836.89 1136.34 Q839.341 1134.02 839.341 1129.72 Q839.341 1125.45 836.89 1123.13 Q834.439 1120.81 829.951 1120.81 L821.867 1120.81 M815.437 1115.52 L829.951 1115.52 Q837.94 1115.52 842.014 1119.15 Q846.12 1122.75 846.12 1129.72 Q846.12 1136.75 842.014 1140.35 Q837.94 1143.95 829.951 1143.95 L821.867 1143.95 L821.867 1163.04 L815.437 1163.04 L815.437 1115.52 Z" fill="#000000" fill-rule="nonzero" fill-opacity="1" /><path clip-path="url(#clip270)" d="M874.002 1132.87 Q873.015 1132.3 871.837 1132.04 Q870.692 1131.76 869.291 1131.76 Q864.326 1131.76 861.652 1135 Q859.011 1138.22 859.011 1144.27 L859.011 1163.04 L853.122 1163.04 L853.122 1127.4 L859.011 1127.4 L859.011 1132.93 Q860.857 1129.69 863.817 1128.13 Q866.777 1126.54 871.01 1126.54 Q871.615 1126.54 872.347 1126.63 Q873.079 1126.7 873.97 1126.85 L874.002 1132.87 Z" fill="#000000" fill-rule="nonzero" fill-opacity="1" /><path clip-path="url(#clip270)" d="M892.526 1131.5 Q887.815 1131.5 885.078 1135.19 Q882.341 1138.85 882.341 1145.25 Q882.341 1151.65 885.046 1155.34 Q887.784 1159 892.526 1159 Q897.205 1159 899.942 1155.31 Q902.679 1151.62 902.679 1145.25 Q902.679 1138.92 899.942 1135.23 Q897.205 1131.5 892.526 1131.5 M892.526 1126.54 Q900.165 1126.54 904.525 1131.5 Q908.886 1136.47 908.886 1145.25 Q908.886 1154 904.525 1159 Q900.165 1163.97 892.526 1163.97 Q884.855 1163.97 880.495 1159 Q876.166 1154 876.166 1145.25 Q876.166 1136.47 880.495 1131.5 Q884.855 1126.54 892.526 1126.54 Z" fill="#000000" fill-rule="nonzero" fill-opacity="1" /><path clip-path="url(#clip270)" d="M944.184 1145.25 Q944.184 1138.79 941.51 1135.13 Q938.868 1131.44 934.221 1131.44 Q929.574 1131.44 926.901 1135.13 Q924.259 1138.79 924.259 1145.25 Q924.259 1151.71 926.901 1155.4 Q929.574 1159.07 934.221 1159.07 Q938.868 1159.07 941.51 1155.4 Q944.184 1151.71 944.184 1145.25 M924.259 1132.81 Q926.105 1129.62 928.906 1128.1 Q931.739 1126.54 935.654 1126.54 Q942.147 1126.54 946.189 1131.69 Q950.263 1136.85 950.263 1145.25 Q950.263 1153.65 946.189 1158.81 Q942.147 1163.97 935.654 1163.97 Q931.739 1163.97 928.906 1162.44 Q926.105 1160.88 924.259 1157.7 L924.259 1163.04 L918.371 1163.04 L918.371 1113.52 L924.259 1113.52 L924.259 1132.81 Z" fill="#000000" fill-rule="nonzero" fill-opacity="1" /><path clip-path="url(#clip270)" d="M976.171 1145.12 Q969.074 1145.12 966.336 1146.75 Q963.599 1148.37 963.599 1152.29 Q963.599 1155.4 965.636 1157.25 Q967.705 1159.07 971.238 1159.07 Q976.108 1159.07 979.036 1155.63 Q981.996 1152.16 981.996 1146.43 L981.996 1145.12 L976.171 1145.12 M987.852 1142.71 L987.852 1163.04 L981.996 1163.04 L981.996 1157.63 Q979.991 1160.88 976.999 1162.44 Q974.007 1163.97 969.678 1163.97 Q964.204 1163.97 960.957 1160.91 Q957.743 1157.82 957.743 1152.67 Q957.743 1146.65 961.753 1143.6 Q965.795 1140.54 973.784 1140.54 L981.996 1140.54 L981.996 1139.97 Q981.996 1135.93 979.322 1133.73 Q976.681 1131.5 971.875 1131.5 Q968.819 1131.5 965.923 1132.23 Q963.026 1132.97 960.353 1134.43 L960.353 1129.02 Q963.567 1127.78 966.591 1127.17 Q969.615 1126.54 972.479 1126.54 Q980.214 1126.54 984.033 1130.55 Q987.852 1134.56 987.852 1142.71 Z" fill="#000000" fill-rule="nonzero" fill-opacity="1" /><path clip-path="url(#clip270)" d="M1025.51 1145.25 Q1025.51 1138.79 1022.83 1135.13 Q1020.19 1131.44 1015.54 1131.44 Q1010.9 1131.44 1008.22 1135.13 Q1005.58 1138.79 1005.58 1145.25 Q1005.58 1151.71 1008.22 1155.4 Q1010.9 1159.07 1015.54 1159.07 Q1020.19 1159.07 1022.83 1155.4 Q1025.51 1151.71 1025.51 1145.25 M1005.58 1132.81 Q1007.43 1129.62 1010.23 1128.1 Q1013.06 1126.54 1016.98 1126.54 Q1023.47 1126.54 1027.51 1131.69 Q1031.58 1136.85 1031.58 1145.25 Q1031.58 1153.65 1027.51 1158.81 Q1023.47 1163.97 1016.98 1163.97 Q1013.06 1163.97 1010.23 1162.44 Q1007.43 1160.88 1005.58 1157.7 L1005.58 1163.04 L999.693 1163.04 L999.693 1113.52 L1005.58 1113.52 L1005.58 1132.81 Z" fill="#000000" fill-rule="nonzero" fill-opacity="1" /><path clip-path="url(#clip270)" d="M1041.29 1127.4 L1047.15 1127.4 L1047.15 1163.04 L1041.29 1163.04 L1041.29 1127.4 M1041.29 1113.52 L1047.15 1113.52 L1047.15 1120.93 L1041.29 1120.93 L1041.29 1113.52 Z" fill="#000000" fill-rule="nonzero" fill-opacity="1" /><path clip-path="url(#clip270)" d="M1059.4 1113.52 L1065.26 1113.52 L1065.26 1163.04 L1059.4 1163.04 L1059.4 1113.52 Z" fill="#000000" fill-rule="nonzero" fill-opacity="1" /><path clip-path="url(#clip270)" d="M1077.51 1127.4 L1083.37 1127.4 L1083.37 1163.04 L1077.51 1163.04 L1077.51 1127.4 M1077.51 1113.52 L1083.37 1113.52 L1083.37 1120.93 L1077.51 1120.93 L1077.51 1113.52 Z" fill="#000000" fill-rule="nonzero" fill-opacity="1" /><path clip-path="url(#clip270)" d="M1101.42 1117.27 L1101.42 1127.4 L1113.48 1127.4 L1113.48 1131.95 L1101.42 1131.95 L1101.42 1151.3 Q1101.42 1155.66 1102.59 1156.9 Q1103.8 1158.14 1107.46 1158.14 L1113.48 1158.14 L1113.48 1163.04 L1107.46 1163.04 Q1100.68 1163.04 1098.11 1160.53 Q1095.53 1157.98 1095.53 1151.3 L1095.53 1131.95 L1091.23 1131.95 L1091.23 1127.4 L1095.53 1127.4 L1095.53 1117.27 L1101.42 1117.27 Z" fill="#000000" fill-rule="nonzero" fill-opacity="1" /><path clip-path="url(#clip270)" d="M1136.01 1166.35 Q1133.53 1172.72 1131.18 1174.66 Q1128.82 1176.6 1124.87 1176.6 L1120.2 1176.6 L1120.2 1171.7 L1123.63 1171.7 Q1126.05 1171.7 1127.39 1170.56 Q1128.73 1169.41 1130.35 1165.14 L1131.4 1162.47 L1116.98 1127.4 L1123.19 1127.4 L1134.33 1155.28 L1145.47 1127.4 L1151.67 1127.4 L1136.01 1166.35 Z" fill="#000000" fill-rule="nonzero" fill-opacity="1" /><path clip-path="url(#clip270)" d="M1174.14 1115.52 L1214.34 1115.52 L1214.34 1120.93 L1197.48 1120.93 L1197.48 1163.04 L1191.01 1163.04 L1191.01 1120.93 L1174.14 1120.93 L1174.14 1115.52 Z" fill="#000000" fill-rule="nonzero" fill-opacity="1" /><path clip-path="url(#clip270)" d="M1249.93 1141.53 L1249.93 1163.04 L1244.07 1163.04 L1244.07 1141.72 Q1244.07 1136.66 1242.1 1134.14 Q1240.13 1131.63 1236.18 1131.63 Q1231.44 1131.63 1228.7 1134.65 Q1225.96 1137.68 1225.96 1142.9 L1225.96 1163.04 L1220.07 1163.04 L1220.07 1113.52 L1225.96 1113.52 L1225.96 1132.93 Q1228.06 1129.72 1230.9 1128.13 Q1233.76 1126.54 1237.48 1126.54 Q1243.63 1126.54 1246.78 1130.36 Q1249.93 1134.14 1249.93 1141.53 Z" fill="#000000" fill-rule="nonzero" fill-opacity="1" /><path clip-path="url(#clip270)" d="M1282.27 1132.87 Q1281.28 1132.3 1280.1 1132.04 Q1278.96 1131.76 1277.56 1131.76 Q1272.59 1131.76 1269.92 1135 Q1267.28 1138.22 1267.28 1144.27 L1267.28 1163.04 L1261.39 1163.04 L1261.39 1127.4 L1267.28 1127.4 L1267.28 1132.93 Q1269.12 1129.69 1272.08 1128.13 Q1275.04 1126.54 1279.27 1126.54 Q1279.88 1126.54 1280.61 1126.63 Q1281.34 1126.7 1282.23 1126.85 L1282.27 1132.87 Z" fill="#000000" fill-rule="nonzero" fill-opacity="1" /><path clip-path="url(#clip270)" d="M1317.47 1143.76 L1317.47 1146.62 L1290.54 1146.62 Q1290.92 1152.67 1294.17 1155.85 Q1297.45 1159 1303.27 1159 Q1306.65 1159 1309.8 1158.17 Q1312.98 1157.35 1316.1 1155.69 L1316.1 1161.23 Q1312.95 1162.57 1309.64 1163.27 Q1306.33 1163.97 1302.92 1163.97 Q1294.39 1163.97 1289.4 1159 Q1284.43 1154.04 1284.43 1145.57 Q1284.43 1136.82 1289.14 1131.69 Q1293.88 1126.54 1301.9 1126.54 Q1309.1 1126.54 1313.27 1131.18 Q1317.47 1135.8 1317.47 1143.76 M1311.61 1142.04 Q1311.55 1137.23 1308.91 1134.37 Q1306.3 1131.5 1301.97 1131.5 Q1297.07 1131.5 1294.11 1134.27 Q1291.18 1137.04 1290.73 1142.07 L1311.61 1142.04 Z" fill="#000000" fill-rule="nonzero" fill-opacity="1" /><path clip-path="url(#clip270)" d="M1349.81 1128.45 L1349.81 1133.98 Q1347.32 1132.71 1344.65 1132.07 Q1341.98 1131.44 1339.11 1131.44 Q1334.75 1131.44 1332.56 1132.77 Q1330.39 1134.11 1330.39 1136.79 Q1330.39 1138.82 1331.95 1140 Q1333.51 1141.15 1338.22 1142.2 L1340.23 1142.64 Q1346.46 1143.98 1349.07 1146.43 Q1351.72 1148.85 1351.72 1153.21 Q1351.72 1158.17 1347.77 1161.07 Q1343.85 1163.97 1336.98 1163.97 Q1334.12 1163.97 1331 1163.39 Q1327.91 1162.85 1324.47 1161.74 L1324.47 1155.69 Q1327.72 1157.38 1330.87 1158.24 Q1334.02 1159.07 1337.11 1159.07 Q1341.24 1159.07 1343.47 1157.66 Q1345.7 1156.23 1345.7 1153.65 Q1345.7 1151.27 1344.08 1149.99 Q1342.49 1148.72 1337.04 1147.54 L1335.01 1147.07 Q1329.56 1145.92 1327.14 1143.56 Q1324.73 1141.18 1324.73 1137.04 Q1324.73 1132.01 1328.29 1129.27 Q1331.86 1126.54 1338.41 1126.54 Q1341.66 1126.54 1344.52 1127.01 Q1347.39 1127.49 1349.81 1128.45 Z" fill="#000000" fill-rule="nonzero" fill-opacity="1" /><path clip-path="url(#clip270)" d="M1390.67 1141.53 L1390.67 1163.04 L1384.82 1163.04 L1384.82 1141.72 Q1384.82 1136.66 1382.84 1134.14 Q1380.87 1131.63 1376.92 1131.63 Q1372.18 1131.63 1369.44 1134.65 Q1366.71 1137.68 1366.71 1142.9 L1366.71 1163.04 L1360.82 1163.04 L1360.82 1113.52 L1366.71 1113.52 L1366.71 1132.93 Q1368.81 1129.72 1371.64 1128.13 Q1374.51 1126.54 1378.23 1126.54 Q1384.37 1126.54 1387.52 1130.36 Q1390.67 1134.14 1390.67 1141.53 Z" fill="#000000" fill-rule="nonzero" fill-opacity="1" /><path clip-path="url(#clip270)" d="M1416.17 1131.5 Q1411.46 1131.5 1408.72 1135.19 Q1405.98 1138.85 1405.98 1145.25 Q1405.98 1151.65 1408.69 1155.34 Q1411.43 1159 1416.17 1159 Q1420.85 1159 1423.59 1155.31 Q1426.32 1151.62 1426.32 1145.25 Q1426.32 1138.92 1423.59 1135.23 Q1420.85 1131.5 1416.17 1131.5 M1416.17 1126.54 Q1423.81 1126.54 1428.17 1131.5 Q1432.53 1136.47 1432.53 1145.25 Q1432.53 1154 1428.17 1159 Q1423.81 1163.97 1416.17 1163.97 Q1408.5 1163.97 1404.14 1159 Q1399.81 1154 1399.81 1145.25 Q1399.81 1136.47 1404.14 1131.5 Q1408.5 1126.54 1416.17 1126.54 Z" fill="#000000" fill-rule="nonzero" fill-opacity="1" /><path clip-path="url(#clip270)" d="M1442.24 1113.52 L1448.09 1113.52 L1448.09 1163.04 L1442.24 1163.04 L1442.24 1113.52 Z" fill="#000000" fill-rule="nonzero" fill-opacity="1" /><path clip-path="url(#clip270)" d="M1483.8 1132.81 L1483.8 1113.52 L1489.66 1113.52 L1489.66 1163.04 L1483.8 1163.04 L1483.8 1157.7 Q1481.96 1160.88 1479.13 1162.44 Q1476.32 1163.97 1472.38 1163.97 Q1465.92 1163.97 1461.84 1158.81 Q1457.8 1153.65 1457.8 1145.25 Q1457.8 1136.85 1461.84 1131.69 Q1465.92 1126.54 1472.38 1126.54 Q1476.32 1126.54 1479.13 1128.1 Q1481.96 1129.62 1483.8 1132.81 M1463.85 1145.25 Q1463.85 1151.71 1466.49 1155.4 Q1469.16 1159.07 1473.81 1159.07 Q1478.46 1159.07 1481.13 1155.4 Q1483.8 1151.71 1483.8 1145.25 Q1483.8 1138.79 1481.13 1135.13 Q1478.46 1131.44 1473.81 1131.44 Q1469.16 1131.44 1466.49 1135.13 Q1463.85 1138.79 1463.85 1145.25 Z" fill="#000000" fill-rule="nonzero" fill-opacity="1" /><polyline clip-path="url(#clip272)" style="stroke:#000000; stroke-linecap:round; stroke-linejoin:round; stroke-width:2; stroke-opacity:0.1; fill:none" points="243.542,999.446 1752.76,999.446 "/>
<polyline clip-path="url(#clip272)" style="stroke:#000000; stroke-linecap:round; stroke-linejoin:round; stroke-width:2; stroke-opacity:0.1; fill:none" points="243.542,768.329 1752.76,768.329 "/>
<polyline clip-path="url(#clip272)" style="stroke:#000000; stroke-linecap:round; stroke-linejoin:round; stroke-width:2; stroke-opacity:0.1; fill:none" points="243.542,537.212 1752.76,537.212 "/>
<polyline clip-path="url(#clip272)" style="stroke:#000000; stroke-linecap:round; stroke-linejoin:round; stroke-width:2; stroke-opacity:0.1; fill:none" points="243.542,306.095 1752.76,306.095 "/>
<polyline clip-path="url(#clip272)" style="stroke:#000000; stroke-linecap:round; stroke-linejoin:round; stroke-width:2; stroke-opacity:0.1; fill:none" points="243.542,74.9781 1752.76,74.9781 "/>
<polyline clip-path="url(#clip270)" style="stroke:#000000; stroke-linecap:round; stroke-linejoin:round; stroke-width:4; stroke-opacity:1; fill:none" points="243.542,1027.18 243.542,47.2441 "/>
<polyline clip-path="url(#clip270)" style="stroke:#000000; stroke-linecap:round; stroke-linejoin:round; stroke-width:4; stroke-opacity:1; fill:none" points="243.542,999.446 262.44,999.446 "/>
<polyline clip-path="url(#clip270)" style="stroke:#000000; stroke-linecap:round; stroke-linejoin:round; stroke-width:4; stroke-opacity:1; fill:none" points="243.542,768.329 262.44,768.329 "/>
<polyline clip-path="url(#clip270)" style="stroke:#000000; stroke-linecap:round; stroke-linejoin:round; stroke-width:4; stroke-opacity:1; fill:none" points="243.542,537.212 262.44,537.212 "/>
<polyline clip-path="url(#clip270)" style="stroke:#000000; stroke-linecap:round; stroke-linejoin:round; stroke-width:4; stroke-opacity:1; fill:none" points="243.542,306.095 262.44,306.095 "/>
<polyline clip-path="url(#clip270)" style="stroke:#000000; stroke-linecap:round; stroke-linejoin:round; stroke-width:4; stroke-opacity:1; fill:none" points="243.542,74.9781 262.44,74.9781 "/>
<path clip-path="url(#clip270)" d="M129.205 985.244 Q125.593 985.244 123.765 988.809 Q121.959 992.351 121.959 999.481 Q121.959 1006.59 123.765 1010.15 Q125.593 1013.69 129.205 1013.69 Q132.839 1013.69 134.644 1010.15 Q136.473 1006.59 136.473 999.481 Q136.473 992.351 134.644 988.809 Q132.839 985.244 129.205 985.244 M129.205 981.541 Q135.015 981.541 138.07 986.147 Q141.149 990.731 141.149 999.481 Q141.149 1008.21 138.07 1012.81 Q135.015 1017.4 129.205 1017.4 Q123.394 1017.4 120.316 1012.81 Q117.26 1008.21 117.26 999.481 Q117.26 990.731 120.316 986.147 Q123.394 981.541 129.205 981.541 Z" fill="#000000" fill-rule="nonzero" fill-opacity="1" /><path clip-path="url(#clip270)" d="M149.366 1010.85 L154.251 1010.85 L154.251 1016.73 L149.366 1016.73 L149.366 1010.85 Z" fill="#000000" fill-rule="nonzero" fill-opacity="1" /><path clip-path="url(#clip270)" d="M174.436 985.244 Q170.825 985.244 168.996 988.809 Q167.19 992.351 167.19 999.481 Q167.19 1006.59 168.996 1010.15 Q170.825 1013.69 174.436 1013.69 Q178.07 1013.69 179.876 1010.15 Q181.704 1006.59 181.704 999.481 Q181.704 992.351 179.876 988.809 Q178.07 985.244 174.436 985.244 M174.436 981.541 Q180.246 981.541 183.301 986.147 Q186.38 990.731 186.38 999.481 Q186.38 1008.21 183.301 1012.81 Q180.246 1017.4 174.436 1017.4 Q168.626 1017.4 165.547 1012.81 Q162.491 1008.21 162.491 999.481 Q162.491 990.731 165.547 986.147 Q168.626 981.541 174.436 981.541 Z" fill="#000000" fill-rule="nonzero" fill-opacity="1" /><path clip-path="url(#clip270)" d="M204.598 985.244 Q200.987 985.244 199.158 988.809 Q197.352 992.351 197.352 999.481 Q197.352 1006.59 199.158 1010.15 Q200.987 1013.69 204.598 1013.69 Q208.232 1013.69 210.037 1010.15 Q211.866 1006.59 211.866 999.481 Q211.866 992.351 210.037 988.809 Q208.232 985.244 204.598 985.244 M204.598 981.541 Q210.408 981.541 213.463 986.147 Q216.542 990.731 216.542 999.481 Q216.542 1008.21 213.463 1012.81 Q210.408 1017.4 204.598 1017.4 Q198.787 1017.4 195.709 1012.81 Q192.653 1008.21 192.653 999.481 Q192.653 990.731 195.709 986.147 Q198.787 981.541 204.598 981.541 Z" fill="#000000" fill-rule="nonzero" fill-opacity="1" /><path clip-path="url(#clip270)" d="M130.2 754.128 Q126.589 754.128 124.76 757.692 Q122.955 761.234 122.955 768.364 Q122.955 775.47 124.76 779.035 Q126.589 782.576 130.2 782.576 Q133.834 782.576 135.64 779.035 Q137.468 775.47 137.468 768.364 Q137.468 761.234 135.64 757.692 Q133.834 754.128 130.2 754.128 M130.2 750.424 Q136.01 750.424 139.066 755.03 Q142.144 759.614 142.144 768.364 Q142.144 777.09 139.066 781.697 Q136.01 786.28 130.2 786.28 Q124.39 786.28 121.311 781.697 Q118.256 777.09 118.256 768.364 Q118.256 759.614 121.311 755.03 Q124.39 750.424 130.2 750.424 Z" fill="#000000" fill-rule="nonzero" fill-opacity="1" /><path clip-path="url(#clip270)" d="M150.362 779.729 L155.246 779.729 L155.246 785.609 L150.362 785.609 L150.362 779.729 Z" fill="#000000" fill-rule="nonzero" fill-opacity="1" /><path clip-path="url(#clip270)" d="M169.459 781.674 L185.778 781.674 L185.778 785.609 L163.834 785.609 L163.834 781.674 Q166.496 778.919 171.079 774.29 Q175.686 769.637 176.866 768.294 Q179.112 765.771 179.991 764.035 Q180.894 762.276 180.894 760.586 Q180.894 757.831 178.95 756.095 Q177.028 754.359 173.927 754.359 Q171.727 754.359 169.274 755.123 Q166.843 755.887 164.065 757.438 L164.065 752.716 Q166.89 751.581 169.343 751.003 Q171.797 750.424 173.834 750.424 Q179.204 750.424 182.399 753.109 Q185.593 755.794 185.593 760.285 Q185.593 762.415 184.783 764.336 Q183.996 766.234 181.889 768.827 Q181.311 769.498 178.209 772.715 Q175.107 775.91 169.459 781.674 Z" fill="#000000" fill-rule="nonzero" fill-opacity="1" /><path clip-path="url(#clip270)" d="M195.639 751.049 L213.996 751.049 L213.996 754.984 L199.922 754.984 L199.922 763.456 Q200.94 763.109 201.959 762.947 Q202.977 762.762 203.996 762.762 Q209.783 762.762 213.162 765.933 Q216.542 769.104 216.542 774.521 Q216.542 780.1 213.07 783.201 Q209.598 786.28 203.278 786.28 Q201.102 786.28 198.834 785.91 Q196.588 785.539 194.181 784.799 L194.181 780.1 Q196.264 781.234 198.487 781.789 Q200.709 782.345 203.186 782.345 Q207.19 782.345 209.528 780.239 Q211.866 778.132 211.866 774.521 Q211.866 770.91 209.528 768.803 Q207.19 766.697 203.186 766.697 Q201.311 766.697 199.436 767.114 Q197.584 767.53 195.639 768.41 L195.639 751.049 Z" fill="#000000" fill-rule="nonzero" fill-opacity="1" /><path clip-path="url(#clip270)" d="M129.205 523.011 Q125.593 523.011 123.765 526.575 Q121.959 530.117 121.959 537.247 Q121.959 544.353 123.765 547.918 Q125.593 551.46 129.205 551.46 Q132.839 551.46 134.644 547.918 Q136.473 544.353 136.473 537.247 Q136.473 530.117 134.644 526.575 Q132.839 523.011 129.205 523.011 M129.205 519.307 Q135.015 519.307 138.07 523.913 Q141.149 528.497 141.149 537.247 Q141.149 545.973 138.07 550.58 Q135.015 555.163 129.205 555.163 Q123.394 555.163 120.316 550.58 Q117.26 545.973 117.26 537.247 Q117.26 528.497 120.316 523.913 Q123.394 519.307 129.205 519.307 Z" fill="#000000" fill-rule="nonzero" fill-opacity="1" /><path clip-path="url(#clip270)" d="M149.366 548.612 L154.251 548.612 L154.251 554.492 L149.366 554.492 L149.366 548.612 Z" fill="#000000" fill-rule="nonzero" fill-opacity="1" /><path clip-path="url(#clip270)" d="M164.482 519.932 L182.839 519.932 L182.839 523.867 L168.765 523.867 L168.765 532.339 Q169.783 531.992 170.802 531.83 Q171.82 531.645 172.839 531.645 Q178.626 531.645 182.005 534.816 Q185.385 537.987 185.385 543.404 Q185.385 548.983 181.913 552.085 Q178.44 555.163 172.121 555.163 Q169.945 555.163 167.677 554.793 Q165.431 554.423 163.024 553.682 L163.024 548.983 Q165.107 550.117 167.329 550.673 Q169.552 551.228 172.028 551.228 Q176.033 551.228 178.371 549.122 Q180.709 547.015 180.709 543.404 Q180.709 539.793 178.371 537.687 Q176.033 535.58 172.028 535.58 Q170.153 535.58 168.278 535.997 Q166.427 536.413 164.482 537.293 L164.482 519.932 Z" fill="#000000" fill-rule="nonzero" fill-opacity="1" /><path clip-path="url(#clip270)" d="M204.598 523.011 Q200.987 523.011 199.158 526.575 Q197.352 530.117 197.352 537.247 Q197.352 544.353 199.158 547.918 Q200.987 551.46 204.598 551.46 Q208.232 551.46 210.037 547.918 Q211.866 544.353 211.866 537.247 Q211.866 530.117 210.037 526.575 Q208.232 523.011 204.598 523.011 M204.598 519.307 Q210.408 519.307 213.463 523.913 Q216.542 528.497 216.542 537.247 Q216.542 545.973 213.463 550.58 Q210.408 555.163 204.598 555.163 Q198.787 555.163 195.709 550.58 Q192.653 545.973 192.653 537.247 Q192.653 528.497 195.709 523.913 Q198.787 519.307 204.598 519.307 Z" fill="#000000" fill-rule="nonzero" fill-opacity="1" /><path clip-path="url(#clip270)" d="M130.2 291.894 Q126.589 291.894 124.76 295.459 Q122.955 299 122.955 306.13 Q122.955 313.236 124.76 316.801 Q126.589 320.343 130.2 320.343 Q133.834 320.343 135.64 316.801 Q137.468 313.236 137.468 306.13 Q137.468 299 135.64 295.459 Q133.834 291.894 130.2 291.894 M130.2 288.19 Q136.01 288.19 139.066 292.797 Q142.144 297.38 142.144 306.13 Q142.144 314.857 139.066 319.463 Q136.01 324.046 130.2 324.046 Q124.39 324.046 121.311 319.463 Q118.256 314.857 118.256 306.13 Q118.256 297.38 121.311 292.797 Q124.39 288.19 130.2 288.19 Z" fill="#000000" fill-rule="nonzero" fill-opacity="1" /><path clip-path="url(#clip270)" d="M150.362 317.495 L155.246 317.495 L155.246 323.375 L150.362 323.375 L150.362 317.495 Z" fill="#000000" fill-rule="nonzero" fill-opacity="1" /><path clip-path="url(#clip270)" d="M164.251 288.815 L186.473 288.815 L186.473 290.806 L173.927 323.375 L169.042 323.375 L180.848 292.75 L164.251 292.75 L164.251 288.815 Z" fill="#000000" fill-rule="nonzero" fill-opacity="1" /><path clip-path="url(#clip270)" d="M195.639 288.815 L213.996 288.815 L213.996 292.75 L199.922 292.75 L199.922 301.222 Q200.94 300.875 201.959 300.713 Q202.977 300.528 203.996 300.528 Q209.783 300.528 213.162 303.699 Q216.542 306.871 216.542 312.287 Q216.542 317.866 213.07 320.968 Q209.598 324.046 203.278 324.046 Q201.102 324.046 198.834 323.676 Q196.588 323.306 194.181 322.565 L194.181 317.866 Q196.264 319 198.487 319.556 Q200.709 320.111 203.186 320.111 Q207.19 320.111 209.528 318.005 Q211.866 315.898 211.866 312.287 Q211.866 308.676 209.528 306.57 Q207.19 304.463 203.186 304.463 Q201.311 304.463 199.436 304.88 Q197.584 305.296 195.639 306.176 L195.639 288.815 Z" fill="#000000" fill-rule="nonzero" fill-opacity="1" /><path clip-path="url(#clip270)" d="M120.015 88.323 L127.654 88.323 L127.654 61.9574 L119.343 63.624 L119.343 59.3648 L127.607 57.6981 L132.283 57.6981 L132.283 88.323 L139.922 88.323 L139.922 92.2581 L120.015 92.2581 L120.015 88.323 Z" fill="#000000" fill-rule="nonzero" fill-opacity="1" /><path clip-path="url(#clip270)" d="M149.366 86.3785 L154.251 86.3785 L154.251 92.2581 L149.366 92.2581 L149.366 86.3785 Z" fill="#000000" fill-rule="nonzero" fill-opacity="1" /><path clip-path="url(#clip270)" d="M174.436 60.7768 Q170.825 60.7768 168.996 64.3416 Q167.19 67.8833 167.19 75.0128 Q167.19 82.1193 168.996 85.6841 Q170.825 89.2257 174.436 89.2257 Q178.07 89.2257 179.876 85.6841 Q181.704 82.1193 181.704 75.0128 Q181.704 67.8833 179.876 64.3416 Q178.07 60.7768 174.436 60.7768 M174.436 57.0731 Q180.246 57.0731 183.301 61.6796 Q186.38 66.2629 186.38 75.0128 Q186.38 83.7397 183.301 88.3461 Q180.246 92.9294 174.436 92.9294 Q168.626 92.9294 165.547 88.3461 Q162.491 83.7397 162.491 75.0128 Q162.491 66.2629 165.547 61.6796 Q168.626 57.0731 174.436 57.0731 Z" fill="#000000" fill-rule="nonzero" fill-opacity="1" /><path clip-path="url(#clip270)" d="M204.598 60.7768 Q200.987 60.7768 199.158 64.3416 Q197.352 67.8833 197.352 75.0128 Q197.352 82.1193 199.158 85.6841 Q200.987 89.2257 204.598 89.2257 Q208.232 89.2257 210.037 85.6841 Q211.866 82.1193 211.866 75.0128 Q211.866 67.8833 210.037 64.3416 Q208.232 60.7768 204.598 60.7768 M204.598 57.0731 Q210.408 57.0731 213.463 61.6796 Q216.542 66.2629 216.542 75.0128 Q216.542 83.7397 213.463 88.3461 Q210.408 92.9294 204.598 92.9294 Q198.787 92.9294 195.709 88.3461 Q192.653 83.7397 192.653 75.0128 Q192.653 66.2629 195.709 61.6796 Q198.787 57.0731 204.598 57.0731 Z" fill="#000000" fill-rule="nonzero" fill-opacity="1" /><path clip-path="url(#clip270)" d="M28.4842 594.121 L28.4842 566.813 L33.895 566.813 L33.895 587.692 L47.8996 587.692 L47.8996 568.85 L53.3104 568.85 L53.3104 587.692 L76.0042 587.692 L76.0042 594.121 L28.4842 594.121 Z" fill="#000000" fill-rule="nonzero" fill-opacity="1" /><path clip-path="url(#clip270)" d="M33.7677 550.198 L51.6235 550.198 L51.6235 542.114 Q51.6235 537.626 49.3 535.175 Q46.9765 532.724 42.6797 532.724 Q38.4147 532.724 36.0912 535.175 Q33.7677 537.626 33.7677 542.114 L33.7677 550.198 M28.4842 556.627 L28.4842 542.114 Q28.4842 534.125 32.1126 530.051 Q35.7092 525.945 42.6797 525.945 Q49.7138 525.945 53.3104 530.051 Q56.907 534.125 56.907 542.114 L56.907 550.198 L76.0042 550.198 L76.0042 556.627 L28.4842 556.627 Z" fill="#000000" fill-rule="nonzero" fill-opacity="1" /><path clip-path="url(#clip270)" d="M53.7242 494.785 Q54.4244 492.716 56.7161 490.774 Q59.0077 488.801 63.0181 486.827 L76.0042 480.303 L76.0042 487.209 L63.8138 493.289 Q59.0395 495.644 57.48 497.872 Q55.9204 500.068 55.9204 503.887 L55.9204 510.89 L76.0042 510.89 L76.0042 517.319 L28.4842 517.319 L28.4842 502.805 Q28.4842 494.657 31.8898 490.647 Q35.2955 486.636 42.1704 486.636 Q46.6582 486.636 49.6183 488.737 Q52.5784 490.806 53.7242 494.785 M33.7677 510.89 L50.6368 510.89 L50.6368 502.805 Q50.6368 498.158 48.5043 495.803 Q46.34 493.416 42.1704 493.416 Q38.0009 493.416 35.9002 495.803 Q33.7677 498.158 33.7677 502.805 L33.7677 510.89 Z" fill="#000000" fill-rule="nonzero" fill-opacity="1" /><polyline clip-path="url(#clip272)" style="stroke:#000000; stroke-linecap:round; stroke-linejoin:round; stroke-width:6; stroke-opacity:1; fill:none" points="286.256,76.9193 287.679,80.0009 289.103,82.4056 290.527,84.5162 291.951,86.4227 293.375,88.213 294.798,89.9294 296.222,91.6655 297.646,93.2948 299.07,94.9597 300.494,96.5459 301.917,98.1322 303.341,99.7259 304.765,101.252 306.189,102.838 307.612,104.191 309.036,105.512 310.46,106.887 311.884,108.269 313.308,109.611 314.731,110.924 316.155,112.171 317.579,113.392 319.003,114.632 320.427,115.861 321.85,117.061 323.274,118.205 324.698,119.404 326.122,120.558 327.545,121.666 328.969,122.789 330.393,123.905 331.817,125.028 333.241,126.103 334.664,127.146 336.088,128.231 337.512,129.324 338.936,130.424 340.36,131.467 341.783,132.494 343.207,133.56 344.631,134.588 346.055,135.566 347.478,136.572 348.902,137.542 350.326,138.479 351.75,139.427 353.174,140.363 354.597,141.292 356.021,142.227 357.445,143.099 358.869,143.961 360.293,144.874 361.716,145.721 363.14,146.573 364.564,147.449 365.988,148.313 367.411,149.179 368.835,149.973 370.259,150.789 371.683,151.637 373.107,152.472 374.53,153.327 375.954,154.115 377.378,154.92 378.802,155.724 380.226,156.51 381.649,157.333 383.073,158.139 384.497,158.968 385.921,159.727 387.344,160.537 388.768,161.336 390.192,162.128 391.616,162.898 393.04,163.655 394.463,164.37 395.887,165.149 397.311,165.845 398.735,166.625 400.159,167.42 401.582,168.181 403.006,168.893 404.43,169.591 405.854,170.289 407.277,170.982 408.701,171.7 410.125,172.377 411.549,173.07 412.973,173.809 414.396,174.487 415.82,175.176 417.244,175.895 418.668,176.545 420.092,177.268 421.515,177.975 422.939,178.689 424.363,179.391 425.787,180.122 427.211,180.844 428.634,181.53 430.058,182.202 431.482,182.845 432.906,183.572 434.329,184.245 435.753,184.908 437.177,185.628 438.601,186.335 440.025,187.046 441.448,187.73 442.872,188.43 444.296,189.115 445.72,189.823 447.144,190.476 448.567,191.16 449.991,191.857 451.415,192.546 452.839,193.251 454.262,193.948 455.686,194.627 457.11,195.36 458.534,196.047 459.958,196.744 461.381,197.425 462.805,198.095 464.229,198.731 465.653,199.359 467.077,200.02 468.5,200.684 469.924,201.337 471.348,201.998 472.772,202.667 474.195,203.366 475.619,204.044 477.043,204.69 478.467,205.323 479.891,205.974 481.314,206.67 482.738,207.257 484.162,207.904 485.586,208.544 487.01,209.192 488.433,209.847 489.857,210.503 491.281,211.134 492.705,211.777 494.128,212.446 495.552,213.131 496.976,213.856 498.4,214.456 499.824,215.093 501.247,215.704 502.671,216.341 504.095,216.988 505.519,217.655 506.943,218.269 508.366,218.948 509.79,219.617 511.214,220.279 512.638,220.966 514.061,221.618 515.485,222.28 516.909,222.94 518.333,223.629 519.757,224.252 521.18,224.921 522.604,225.544 524.028,226.218 525.452,226.865 526.876,227.507 528.299,228.187 529.723,228.812 531.147,229.469 532.571,230.139 533.995,230.793 535.418,231.472 536.842,232.148 538.266,232.781 539.69,233.488 541.113,234.144 542.537,234.819 543.961,235.528 545.385,236.22 546.809,236.935 548.232,237.599 549.656,238.252 551.08,238.894 552.504,239.555 553.928,240.221 555.351,240.903 556.775,241.533 558.199,242.208 559.623,242.879 561.046,243.521 562.47,244.218 563.894,244.926 565.318,245.617 566.742,246.299 568.165,246.966 569.589,247.633 571.013,248.303 572.437,249.055 573.861,249.761 575.284,250.459 576.708,251.149 578.132,251.803 579.556,252.512 580.979,253.188 582.403,253.839 583.827,254.529 585.251,255.179 586.675,255.897 588.098,256.58 589.522,257.268 590.946,258.007 592.37,258.718 593.794,259.445 595.217,260.171 596.641,260.855 598.065,261.568 599.489,262.266 600.912,262.961 602.336,263.695 603.76,264.389 605.184,265.083 606.608,265.816 608.031,266.536 609.455,267.289 610.879,268.011 612.303,268.714 613.727,269.44 615.15,270.181 616.574,270.892 617.998,271.606 619.422,272.306 620.846,273.034 622.269,273.761 623.693,274.465 625.117,275.201 626.541,275.905 627.964,276.606 629.388,277.304 630.812,278.044 632.236,278.718 633.66,279.497 635.083,280.19 636.507,280.924 637.931,281.675 639.355,282.42 640.779,283.134 642.202,283.861 643.626,284.632 645.05,285.386 646.474,286.179 647.897,286.881 649.321,287.628 650.745,288.408 652.169,289.125 653.593,289.871 655.016,290.606 656.44,291.346 657.864,292.067 659.288,292.804 660.712,293.552 662.135,294.305 663.559,295.03 664.983,295.772 666.407,296.464 667.83,297.194 669.254,297.927 670.678,298.655 672.102,299.388 673.526,300.174 674.949,300.958 676.373,301.723 677.797,302.488 679.221,303.222 680.645,304.029 682.068,304.837 683.492,305.581 684.916,306.384 686.34,307.169 687.763,307.982 689.187,308.784 690.611,309.537 692.035,310.291 693.459,311.105 694.882,311.922 696.306,312.675 697.73,313.464 699.154,314.251 700.578,315.016 702.001,315.81 703.425,316.623 704.849,317.411 706.273,318.239 707.696,319.048 709.12,319.85 710.544,320.599 711.968,321.364 713.392,322.203 714.815,323.03 716.239,323.82 717.663,324.628 719.087,325.446 720.511,326.258 721.934,327.082 723.358,327.964 724.782,328.807 726.206,329.607 727.63,330.471 729.053,331.284 730.477,332.143 731.901,332.996 733.325,333.819 734.748,334.679 736.172,335.586 737.596,336.425 739.02,337.239 740.444,338.131 741.867,338.977 743.291,339.824 744.715,340.664 746.139,341.553 747.563,342.443 748.986,343.359 750.41,344.218 751.834,345.079 753.258,345.916 754.681,346.794 756.105,347.613 757.529,348.5 758.953,349.386 760.377,350.259 761.8,351.127 763.224,352.028 764.648,352.886 766.072,353.81 767.496,354.75 768.919,355.596 770.343,356.498 771.767,357.405 773.191,358.325 774.614,359.265 776.038,360.14 777.462,361.064 778.886,361.957 780.31,362.873 781.733,363.772 783.157,364.682 784.581,365.612 786.005,366.584 787.429,367.485 788.852,368.447 790.276,369.397 791.7,370.326 793.124,371.284 794.547,372.217 795.971,373.144 797.395,374.096 798.819,375.054 800.243,375.991 801.666,376.988 803.09,377.962 804.514,378.985 805.938,379.961 807.362,380.953 808.785,381.907 810.209,382.847 811.633,383.837 813.057,384.832 814.48,385.862 815.904,386.883 817.328,387.885 818.752,388.87 820.176,389.913 821.599,390.921 823.023,391.93 824.447,392.966 825.871,394.016 827.295,395.05 828.718,396.132 830.142,397.235 831.566,398.288 832.99,399.376 834.414,400.46 835.837,401.521 837.261,402.626 838.685,403.703 840.109,404.739 841.532,405.926 842.956,406.967 844.38,408.033 845.804,409.144 847.228,410.337 848.651,411.463 850.075,412.583 851.499,413.738 852.923,414.88 854.347,416.054 855.77,417.219 857.194,418.4 858.618,419.597 860.042,420.747 861.465,421.907 862.889,423.091 864.313,424.245 865.737,425.515 867.161,426.76 868.584,427.991 870.008,429.228 871.432,430.467 872.856,431.705 874.28,432.967 875.703,434.247 877.127,435.533 878.551,436.848 879.975,438.213 881.398,439.622 882.822,440.984 884.246,442.254 885.67,443.576 887.094,444.964 888.517,446.324 889.941,447.698 891.365,449.189 892.789,450.616 894.213,452.048 895.636,453.505 897.06,454.995 898.484,456.585 899.908,458.139 901.331,459.75 902.755,461.299 904.179,462.944 905.603,464.681 907.027,466.293 908.45,467.977 909.874,469.733 911.298,471.536 912.722,473.323 914.146,475.157 915.569,477.106 916.993,479.053 918.417,481.131 919.841,483.135 921.264,485.269 922.688,487.569 924.112,489.893 925.536,492.297 926.96,494.779 928.383,497.323 929.807,499.939 931.231,502.636 932.655,505.298 934.079,507.981 935.502,510.686 936.926,513.422 938.35,516.122 939.774,518.842 941.197,521.451 942.621,524.055 944.045,526.668 945.469,529.313 946.893,531.832 948.316,534.396 949.74,536.844 951.164,539.277 952.588,541.591 954.012,544.023 955.435,546.41 956.859,548.719 958.283,551.041 959.707,553.332 961.131,555.613 962.554,557.844 963.978,560.041 965.402,562.319 966.826,564.538 968.249,566.899 969.673,569.107 971.097,571.348 972.521,573.55 973.945,575.699 975.368,577.967 976.792,580.134 978.216,582.264 979.64,584.396 981.064,586.584 982.487,588.776 983.911,590.892 985.335,593.044 986.759,595.096 988.182,597.251 989.606,599.266 991.03,601.364 992.454,603.475 993.878,605.588 995.301,607.606 996.725,609.622 998.149,611.659 999.573,613.714 1001,615.725 1002.42,617.792 1003.84,619.74 1005.27,621.788 1006.69,623.833 1008.12,625.885 1009.54,627.85 1010.96,629.872 1012.39,631.872 1013.81,633.785 1015.23,635.686 1016.66,637.575 1018.08,639.416 1019.51,641.232 1020.93,643.076 1022.35,644.86 1023.78,646.483 1025.2,648.196 1026.62,649.846 1028.05,651.525 1029.47,653.158 1030.9,654.79 1032.32,656.329 1033.74,657.921 1035.17,659.456 1036.59,660.904 1038.02,662.397 1039.44,663.916 1040.86,665.427 1042.29,666.953 1043.71,668.379 1045.13,669.849 1046.56,671.325 1047.98,672.807 1049.41,674.265 1050.83,675.74 1052.25,677.221 1053.68,678.677 1055.1,680.187 1056.52,681.659 1057.95,683.075 1059.37,684.548 1060.8,686.001 1062.22,687.471 1063.64,688.897 1065.07,690.353 1066.49,691.785 1067.91,693.219 1069.34,694.709 1070.76,696.179 1072.19,697.703 1073.61,699.159 1075.03,700.604 1076.46,702.043 1077.88,703.503 1079.3,704.975 1080.73,706.415 1082.15,707.844 1083.58,709.26 1085,710.621 1086.42,712.03 1087.85,713.402 1089.27,714.753 1090.7,716.072 1092.12,717.45 1093.54,718.801 1094.97,720.153 1096.39,721.506 1097.81,722.738 1099.24,724.019 1100.66,725.239 1102.09,726.51 1103.51,727.752 1104.93,729 1106.36,730.232 1107.78,731.429 1109.2,732.601 1110.63,733.793 1112.05,734.973 1113.48,736.155 1114.9,737.304 1116.32,738.487 1117.75,739.635 1119.17,740.716 1120.59,741.877 1122.02,742.964 1123.44,744.087 1124.87,745.164 1126.29,746.247 1127.71,747.336 1129.14,748.409 1130.56,749.475 1131.98,750.563 1133.41,751.622 1134.83,752.71 1136.26,753.822 1137.68,754.907 1139.1,755.996 1140.53,757.128 1141.95,758.212 1143.38,759.321 1144.8,760.418 1146.22,761.515 1147.65,762.629 1149.07,763.685 1150.49,764.759 1151.92,765.854 1153.34,766.925 1154.77,768.014 1156.19,769.107 1157.61,770.152 1159.04,771.284 1160.46,772.38 1161.88,773.452 1163.31,774.553 1164.73,775.645 1166.16,776.757 1167.58,777.831 1169,778.905 1170.43,779.913 1171.85,781.004 1173.27,782.138 1174.7,783.244 1176.12,784.3 1177.55,785.344 1178.97,786.363 1180.39,787.475 1181.82,788.583 1183.24,789.595 1184.67,790.732 1186.09,791.782 1187.51,792.893 1188.94,794.006 1190.36,795.065 1191.78,796.13 1193.21,797.159 1194.63,798.223 1196.06,799.309 1197.48,800.318 1198.9,801.365 1200.33,802.4 1201.75,803.462 1203.17,804.455 1204.6,805.438 1206.02,806.514 1207.45,807.549 1208.87,808.595 1210.29,809.612 1211.72,810.64 1213.14,811.606 1214.56,812.504 1215.99,813.405 1217.41,814.347 1218.84,815.342 1220.26,816.254 1221.68,817.18 1223.11,818.109 1224.53,819.019 1225.95,819.95 1227.38,820.867 1228.8,821.8 1230.23,822.735 1231.65,823.685 1233.07,824.611 1234.5,825.514 1235.92,826.432 1237.35,827.354 1238.77,828.206 1240.19,829.082 1241.62,829.986 1243.04,830.856 1244.46,831.727 1245.89,832.568 1247.31,833.474 1248.74,834.312 1250.16,835.162 1251.58,836.029 1253.01,836.846 1254.43,837.719 1255.85,838.578 1257.28,839.393 1258.7,840.222 1260.13,841.093 1261.55,841.902 1262.97,842.686 1264.4,843.518 1265.82,844.306 1267.24,845.182 1268.67,845.957 1270.09,846.754 1271.52,847.535 1272.94,848.288 1274.36,849.098 1275.79,849.899 1277.21,850.701 1278.63,851.541 1280.06,852.339 1281.48,853.069 1282.91,853.85 1284.33,854.588 1285.75,855.282 1287.18,856.125 1288.6,856.879 1290.03,857.639 1291.45,858.397 1292.87,859.161 1294.3,859.879 1295.72,860.653 1297.14,861.425 1298.57,862.174 1299.99,862.949 1301.42,863.672 1302.84,864.43 1304.26,865.2 1305.69,865.983 1307.11,866.7 1308.53,867.399 1309.96,868.173 1311.38,868.912 1312.81,869.682 1314.23,870.45 1315.65,871.214 1317.08,871.945 1318.5,872.688 1319.92,873.455 1321.35,874.194 1322.77,874.948 1324.2,875.7 1325.62,876.489 1327.04,877.226 1328.47,877.955 1329.89,878.692 1331.32,879.455 1332.74,880.229 1334.16,880.987 1335.59,881.675 1337.01,882.408 1338.43,883.171 1339.86,883.877 1341.28,884.61 1342.71,885.334 1344.13,886.098 1345.55,886.803 1346.98,887.483 1348.4,888.242 1349.82,888.942 1351.25,889.64 1352.67,890.348 1354.1,891.072 1355.52,891.773 1356.94,892.463 1358.37,893.141 1359.79,893.811 1361.21,894.507 1362.64,895.218 1364.06,895.879 1365.49,896.553 1366.91,897.238 1368.33,897.903 1369.76,898.561 1371.18,899.2 1372.6,899.903 1374.03,900.563 1375.45,901.223 1376.88,901.851 1378.3,902.497 1379.72,903.1 1381.15,903.74 1382.57,904.419 1384,905.109 1385.42,905.736 1386.84,906.387 1388.27,907.059 1389.69,907.698 1391.11,908.299 1392.54,908.911 1393.96,909.51 1395.39,910.157 1396.81,910.817 1398.23,911.491 1399.66,912.131 1401.08,912.807 1402.5,913.426 1403.93,914.048 1405.35,914.666 1406.78,915.297 1408.2,915.954 1409.62,916.608 1411.05,917.252 1412.47,917.922 1413.89,918.54 1415.32,919.179 1416.74,919.796 1418.17,920.402 1419.59,921.062 1421.01,921.683 1422.44,922.298 1423.86,922.858 1425.28,923.461 1426.71,924.028 1428.13,924.631 1429.56,925.213 1430.98,925.834 1432.4,926.453 1433.83,926.999 1435.25,927.591 1436.68,928.191 1438.1,928.813 1439.52,929.416 1440.95,930.002 1442.37,930.588 1443.79,931.156 1445.22,931.721 1446.64,932.29 1448.07,932.821 1449.49,933.381 1450.91,933.93 1452.34,934.451 1453.76,934.979 1455.18,935.531 1456.61,936.094 1458.03,936.638 1459.46,937.147 1460.88,937.705 1462.3,938.212 1463.73,938.73 1465.15,939.231 1466.57,939.765 1468,940.274 1469.42,940.834 1470.85,941.354 1472.27,941.856 1473.69,942.376 1475.12,942.884 1476.54,943.431 1477.97,943.944 1479.39,944.464 1480.81,944.994 1482.24,945.462 1483.66,945.927 1485.08,946.411 1486.51,946.867 1487.93,947.34 1489.36,947.818 1490.78,948.289 1492.2,948.8 1493.63,949.293 1495.05,949.811 1496.47,950.291 1497.9,950.752 1499.32,951.262 1500.75,951.754 1502.17,952.237 1503.59,952.709 1505.02,953.218 1506.44,953.708 1507.86,954.186 1509.29,954.686 1510.71,955.178 1512.14,955.638 1513.56,956.087 1514.98,956.535 1516.41,957.035 1517.83,957.476 1519.25,957.952 1520.68,958.44 1522.1,958.89 1523.53,959.36 1524.95,959.829 1526.37,960.284 1527.8,960.741 1529.22,961.194 1530.65,961.626 1532.07,962.075 1533.49,962.521 1534.92,962.95 1536.34,963.414 1537.76,963.842 1539.19,964.284 1540.61,964.692 1542.04,965.125 1543.46,965.547 1544.88,965.96 1546.31,966.397 1547.73,966.816 1549.15,967.186 1550.58,967.559 1552,967.99 1553.43,968.373 1554.85,968.819 1556.27,969.238 1557.7,969.659 1559.12,970.062 1560.54,970.463 1561.97,970.882 1563.39,971.271 1564.82,971.694 1566.24,972.078 1567.66,972.471 1569.09,972.886 1570.51,973.271 1571.93,973.669 1573.36,974.052 1574.78,974.443 1576.21,974.825 1577.63,975.23 1579.05,975.643 1580.48,976.016 1581.9,976.357 1583.33,976.736 1584.75,977.094 1586.17,977.461 1587.6,977.841 1589.02,978.206 1590.44,978.575 1591.87,978.93 1593.29,979.265 1594.72,979.633 1596.14,979.971 1597.56,980.333 1598.99,980.68 1600.41,981.024 1601.83,981.365 1603.26,981.691 1604.68,982.038 1606.11,982.355 1607.53,982.675 1608.95,982.984 1610.38,983.298 1611.8,983.634 1613.22,983.946 1614.65,984.244 1616.07,984.541 1617.5,984.834 1618.92,985.134 1620.34,985.436 1621.77,985.776 1623.19,986.05 1624.62,986.324 1626.04,986.608 1627.46,986.865 1628.89,987.172 1630.31,987.47 1631.73,987.764 1633.16,988.055 1634.58,988.339 1636.01,988.647 1637.43,988.941 1638.85,989.227 1640.28,989.511 1641.7,989.794 1643.12,990.103 1644.55,990.381 1645.97,990.644 1647.4,990.915 1648.82,991.195 1650.24,991.46 1651.67,991.719 1653.09,991.969 1654.51,992.202 1655.94,992.441 1657.36,992.657 1658.79,992.915 1660.21,993.161 1661.63,993.396 1663.06,993.616 1664.48,993.834 1665.9,994.061 1667.33,994.283 1668.75,994.507 1670.18,994.725 1671.6,994.979 1673.02,995.212 1674.45,995.441 1675.87,995.659 1677.3,995.864 1678.72,996.044 1680.14,996.237 1681.57,996.432 1682.99,996.618 1684.41,996.814 1685.84,997.014 1687.26,997.179 1688.69,997.347 1690.11,997.526 1691.53,997.709 1692.96,997.875 1694.38,998.049 1695.8,998.218 1697.23,998.373 1698.65,998.525 1700.08,998.697 1701.5,998.816 1702.92,998.95 1704.35,999.078 1705.77,999.17 1707.19,999.27 1708.62,999.368 1710.04,999.446 "/>
<polyline clip-path="url(#clip272)" style="stroke:#808080; stroke-linecap:round; stroke-linejoin:round; stroke-width:4; stroke-opacity:1; fill:none" stroke-dasharray="16, 10" points="286.256,74.9781 295.525,80.9969 381.236,136.649 432.745,170.094 476.295,198.371 523.603,229.088 567.216,257.406 613.974,287.767 668.148,322.942 716.292,354.201 758.509,381.613 804.537,411.499 850.839,441.563 902.032,474.803 950.74,506.429 1001.39,539.314 1044.02,566.995 1096.07,600.791 1143.75,631.75 1187.79,660.344 1232.39,689.308 1282.39,721.768 1327.69,751.183 1379.56,784.861 1427.58,816.043 1474.93,846.786 1520.9,876.634 1568.02,907.232 1619.65,940.756 1694.66,989.455 1710.04,999.446 "/>
<path clip-path="url(#clip270)" d="M1004.96 183.589 L1702.45 183.589 L1702.45 79.9086 L1004.96 79.9086  Z" fill="#ffffff" fill-rule="evenodd" fill-opacity="1"/>
<polyline clip-path="url(#clip270)" style="stroke:#000000; stroke-linecap:round; stroke-linejoin:round; stroke-width:4; stroke-opacity:1; fill:none" points="1004.96,183.589 1702.45,183.589 1702.45,79.9086 1004.96,79.9086 1004.96,183.589 "/>
<polyline clip-path="url(#clip270)" style="stroke:#000000; stroke-linecap:round; stroke-linejoin:round; stroke-width:6; stroke-opacity:1; fill:none" points="1021.73,131.749 1122.34,131.749 "/>
<path clip-path="url(#clip270)" d="M1158.02 127.038 L1158.02 113.01 L1162.28 113.01 L1162.28 149.029 L1158.02 149.029 L1158.02 145.14 Q1156.68 147.455 1154.62 148.589 Q1152.58 149.7 1149.71 149.7 Q1145.01 149.7 1142.05 145.95 Q1139.11 142.2 1139.11 136.089 Q1139.11 129.978 1142.05 126.228 Q1145.01 122.478 1149.71 122.478 Q1152.58 122.478 1154.62 123.612 Q1156.68 124.723 1158.02 127.038 M1143.51 136.089 Q1143.51 140.788 1145.43 143.473 Q1147.37 146.135 1150.75 146.135 Q1154.13 146.135 1156.08 143.473 Q1158.02 140.788 1158.02 136.089 Q1158.02 131.39 1156.08 128.728 Q1154.13 126.043 1150.75 126.043 Q1147.37 126.043 1145.43 128.728 Q1143.51 131.39 1143.51 136.089 Z" fill="#000000" fill-rule="nonzero" fill-opacity="1" /><path clip-path="url(#clip270)" d="M1171.05 123.103 L1175.31 123.103 L1175.31 149.029 L1171.05 149.029 L1171.05 123.103 M1171.05 113.01 L1175.31 113.01 L1175.31 118.404 L1171.05 118.404 L1171.05 113.01 Z" fill="#000000" fill-rule="nonzero" fill-opacity="1" /><path clip-path="url(#clip270)" d="M1197.35 113.01 L1197.35 116.552 L1193.27 116.552 Q1190.98 116.552 1190.08 117.478 Q1189.2 118.404 1189.2 120.811 L1189.2 123.103 L1196.21 123.103 L1196.21 126.413 L1189.2 126.413 L1189.2 149.029 L1184.92 149.029 L1184.92 126.413 L1180.84 126.413 L1180.84 123.103 L1184.92 123.103 L1184.92 121.297 Q1184.92 116.969 1186.93 115.001 Q1188.95 113.01 1193.32 113.01 L1197.35 113.01 Z" fill="#000000" fill-rule="nonzero" fill-opacity="1" /><path clip-path="url(#clip270)" d="M1201.1 114.469 L1220.96 114.469 L1220.96 118.404 L1205.77 118.404 L1205.77 128.589 L1219.48 128.589 L1219.48 132.524 L1205.77 132.524 L1205.77 149.029 L1201.1 149.029 L1201.1 114.469 Z" fill="#000000" fill-rule="nonzero" fill-opacity="1" /><path clip-path="url(#clip270)" d="M1227.83 114.469 L1232.53 114.469 L1232.53 135.464 Q1232.53 141.019 1234.55 143.473 Q1236.56 145.904 1241.08 145.904 Q1245.57 145.904 1247.58 143.473 Q1249.59 141.019 1249.59 135.464 L1249.59 114.469 L1254.29 114.469 L1254.29 136.043 Q1254.29 142.802 1250.94 146.251 Q1247.6 149.7 1241.08 149.7 Q1234.52 149.7 1231.17 146.251 Q1227.83 142.802 1227.83 136.043 L1227.83 114.469 Z" fill="#000000" fill-rule="nonzero" fill-opacity="1" /><path clip-path="url(#clip270)" d="M1267.74 132.524 L1267.74 145.186 L1275.24 145.186 Q1279.02 145.186 1280.82 143.635 Q1282.65 142.061 1282.65 138.843 Q1282.65 135.603 1280.82 134.075 Q1279.02 132.524 1275.24 132.524 L1267.74 132.524 M1267.74 118.311 L1267.74 128.728 L1274.66 128.728 Q1278.09 128.728 1279.76 127.455 Q1281.45 126.158 1281.45 123.519 Q1281.45 120.904 1279.76 119.607 Q1278.09 118.311 1274.66 118.311 L1267.74 118.311 M1263.07 114.469 L1275.01 114.469 Q1280.36 114.469 1283.25 116.691 Q1286.14 118.913 1286.14 123.01 Q1286.14 126.182 1284.66 128.057 Q1283.18 129.931 1280.31 130.394 Q1283.76 131.135 1285.66 133.496 Q1287.58 135.834 1287.58 139.353 Q1287.58 143.982 1284.43 146.505 Q1281.28 149.029 1275.47 149.029 L1263.07 149.029 L1263.07 114.469 Z" fill="#000000" fill-rule="nonzero" fill-opacity="1" /><path clip-path="url(#clip270)" d="M1307.14 119.075 L1300.8 136.274 L1313.51 136.274 L1307.14 119.075 M1304.5 114.469 L1309.8 114.469 L1322.97 149.029 L1318.11 149.029 L1314.96 140.163 L1299.39 140.163 L1296.24 149.029 L1291.31 149.029 L1304.5 114.469 Z" fill="#000000" fill-rule="nonzero" fill-opacity="1" /><path clip-path="url(#clip270)" d="M1344.41 132.825 Q1345.91 133.334 1347.33 135.001 Q1348.76 136.668 1350.2 139.584 L1354.94 149.029 L1349.92 149.029 L1345.5 140.163 Q1343.78 136.691 1342.16 135.556 Q1340.57 134.422 1337.79 134.422 L1332.7 134.422 L1332.7 149.029 L1328.02 149.029 L1328.02 114.469 L1338.58 114.469 Q1344.5 114.469 1347.42 116.945 Q1350.33 119.422 1350.33 124.422 Q1350.33 127.686 1348.81 129.839 Q1347.3 131.992 1344.41 132.825 M1332.7 118.311 L1332.7 130.58 L1338.58 130.58 Q1341.95 130.58 1343.67 129.029 Q1345.4 127.455 1345.4 124.422 Q1345.4 121.39 1343.67 119.862 Q1341.95 118.311 1338.58 118.311 L1332.7 118.311 Z" fill="#000000" fill-rule="nonzero" fill-opacity="1" /><path clip-path="url(#clip270)" d="M1376.03 114.469 L1395.89 114.469 L1395.89 118.404 L1380.7 118.404 L1380.7 128.589 L1394.41 128.589 L1394.41 132.524 L1380.7 132.524 L1380.7 149.029 L1376.03 149.029 L1376.03 114.469 Z" fill="#000000" fill-rule="nonzero" fill-opacity="1" /><path clip-path="url(#clip270)" d="M1410.54 135.996 Q1405.38 135.996 1403.39 137.177 Q1401.4 138.357 1401.4 141.205 Q1401.4 143.473 1402.88 144.816 Q1404.38 146.135 1406.95 146.135 Q1410.5 146.135 1412.63 143.635 Q1414.78 141.112 1414.78 136.945 L1414.78 135.996 L1410.54 135.996 M1419.04 134.237 L1419.04 149.029 L1414.78 149.029 L1414.78 145.093 Q1413.32 147.455 1411.14 148.589 Q1408.97 149.7 1405.82 149.7 Q1401.84 149.7 1399.48 147.478 Q1397.14 145.232 1397.14 141.482 Q1397.14 137.107 1400.06 134.885 Q1403 132.663 1408.81 132.663 L1414.78 132.663 L1414.78 132.246 Q1414.78 129.307 1412.83 127.709 Q1410.91 126.089 1407.42 126.089 Q1405.2 126.089 1403.09 126.621 Q1400.98 127.154 1399.04 128.219 L1399.04 124.283 Q1401.38 123.381 1403.57 122.941 Q1405.77 122.478 1407.86 122.478 Q1413.48 122.478 1416.26 125.394 Q1419.04 128.311 1419.04 134.237 Z" fill="#000000" fill-rule="nonzero" fill-opacity="1" /><path clip-path="url(#clip270)" d="M1427.81 113.01 L1432.07 113.01 L1432.07 149.029 L1427.81 149.029 L1427.81 113.01 Z" fill="#000000" fill-rule="nonzero" fill-opacity="1" /><path clip-path="url(#clip270)" d="M1457.51 123.867 L1457.51 127.894 Q1455.7 126.969 1453.76 126.506 Q1451.82 126.043 1449.73 126.043 Q1446.56 126.043 1444.96 127.015 Q1443.39 127.987 1443.39 129.931 Q1443.39 131.413 1444.52 132.269 Q1445.66 133.103 1449.08 133.867 L1450.54 134.191 Q1455.08 135.163 1456.98 136.945 Q1458.9 138.705 1458.9 141.876 Q1458.9 145.487 1456.03 147.593 Q1453.18 149.7 1448.18 149.7 Q1446.1 149.7 1443.83 149.283 Q1441.58 148.89 1439.08 148.08 L1439.08 143.681 Q1441.44 144.908 1443.74 145.533 Q1446.03 146.135 1448.27 146.135 Q1451.28 146.135 1452.9 145.117 Q1454.52 144.075 1454.52 142.2 Q1454.52 140.464 1453.34 139.538 Q1452.19 138.612 1448.23 137.756 L1446.75 137.408 Q1442.79 136.575 1441.03 134.862 Q1439.27 133.126 1439.27 130.117 Q1439.27 126.459 1441.86 124.469 Q1444.45 122.478 1449.22 122.478 Q1451.58 122.478 1453.67 122.825 Q1455.75 123.172 1457.51 123.867 Z" fill="#000000" fill-rule="nonzero" fill-opacity="1" /><path clip-path="url(#clip270)" d="M1487.86 135.001 L1487.86 137.084 L1468.27 137.084 Q1468.55 141.482 1470.91 143.797 Q1473.3 146.089 1477.53 146.089 Q1479.99 146.089 1482.28 145.487 Q1484.59 144.885 1486.86 143.681 L1486.86 147.709 Q1484.57 148.681 1482.16 149.191 Q1479.75 149.7 1477.28 149.7 Q1471.07 149.7 1467.44 146.089 Q1463.83 142.478 1463.83 136.32 Q1463.83 129.955 1467.25 126.228 Q1470.7 122.478 1476.54 122.478 Q1481.77 122.478 1484.8 125.857 Q1487.86 129.214 1487.86 135.001 M1483.6 133.751 Q1483.55 130.256 1481.63 128.172 Q1479.73 126.089 1476.58 126.089 Q1473.02 126.089 1470.87 128.103 Q1468.74 130.117 1468.41 133.774 L1483.6 133.751 Z" fill="#000000" fill-rule="nonzero" fill-opacity="1" /><path clip-path="url(#clip270)" d="M1514.78 118.311 L1514.78 131.297 L1520.66 131.297 Q1523.92 131.297 1525.7 129.607 Q1527.49 127.918 1527.49 124.793 Q1527.49 121.691 1525.7 120.001 Q1523.92 118.311 1520.66 118.311 L1514.78 118.311 M1510.1 114.469 L1520.66 114.469 Q1526.47 114.469 1529.43 117.107 Q1532.42 119.723 1532.42 124.793 Q1532.42 129.908 1529.43 132.524 Q1526.47 135.14 1520.66 135.14 L1514.78 135.14 L1514.78 149.029 L1510.1 149.029 L1510.1 114.469 Z" fill="#000000" fill-rule="nonzero" fill-opacity="1" /><path clip-path="url(#clip270)" d="M1546.86 126.089 Q1543.44 126.089 1541.44 128.774 Q1539.45 131.436 1539.45 136.089 Q1539.45 140.742 1541.42 143.427 Q1543.41 146.089 1546.86 146.089 Q1550.26 146.089 1552.25 143.404 Q1554.25 140.718 1554.25 136.089 Q1554.25 131.482 1552.25 128.797 Q1550.26 126.089 1546.86 126.089 M1546.86 122.478 Q1552.42 122.478 1555.59 126.089 Q1558.76 129.7 1558.76 136.089 Q1558.76 142.455 1555.59 146.089 Q1552.42 149.7 1546.86 149.7 Q1541.28 149.7 1538.11 146.089 Q1534.96 142.455 1534.96 136.089 Q1534.96 129.7 1538.11 126.089 Q1541.28 122.478 1546.86 122.478 Z" fill="#000000" fill-rule="nonzero" fill-opacity="1" /><path clip-path="url(#clip270)" d="M1582.35 123.867 L1582.35 127.894 Q1580.54 126.969 1578.6 126.506 Q1576.65 126.043 1574.57 126.043 Q1571.4 126.043 1569.8 127.015 Q1568.23 127.987 1568.23 129.931 Q1568.23 131.413 1569.36 132.269 Q1570.5 133.103 1573.92 133.867 L1575.38 134.191 Q1579.92 135.163 1581.81 136.945 Q1583.74 138.705 1583.74 141.876 Q1583.74 145.487 1580.87 147.593 Q1578.02 149.7 1573.02 149.7 Q1570.93 149.7 1568.67 149.283 Q1566.42 148.89 1563.92 148.08 L1563.92 143.681 Q1566.28 144.908 1568.57 145.533 Q1570.87 146.135 1573.11 146.135 Q1576.12 146.135 1577.74 145.117 Q1579.36 144.075 1579.36 142.2 Q1579.36 140.464 1578.18 139.538 Q1577.02 138.612 1573.06 137.756 L1571.58 137.408 Q1567.62 136.575 1565.87 134.862 Q1564.11 133.126 1564.11 130.117 Q1564.11 126.459 1566.7 124.469 Q1569.29 122.478 1574.06 122.478 Q1576.42 122.478 1578.5 122.825 Q1580.59 123.172 1582.35 123.867 Z" fill="#000000" fill-rule="nonzero" fill-opacity="1" /><path clip-path="url(#clip270)" d="M1590.52 123.103 L1594.78 123.103 L1594.78 149.029 L1590.52 149.029 L1590.52 123.103 M1590.52 113.01 L1594.78 113.01 L1594.78 118.404 L1590.52 118.404 L1590.52 113.01 Z" fill="#000000" fill-rule="nonzero" fill-opacity="1" /><path clip-path="url(#clip270)" d="M1607.9 115.742 L1607.9 123.103 L1616.68 123.103 L1616.68 126.413 L1607.9 126.413 L1607.9 140.487 Q1607.9 143.658 1608.76 144.561 Q1609.64 145.464 1612.3 145.464 L1616.68 145.464 L1616.68 149.029 L1612.3 149.029 Q1607.37 149.029 1605.49 147.2 Q1603.62 145.348 1603.62 140.487 L1603.62 126.413 L1600.5 126.413 L1600.5 123.103 L1603.62 123.103 L1603.62 115.742 L1607.9 115.742 Z" fill="#000000" fill-rule="nonzero" fill-opacity="1" /><path clip-path="url(#clip270)" d="M1622.28 123.103 L1626.54 123.103 L1626.54 149.029 L1622.28 149.029 L1622.28 123.103 M1622.28 113.01 L1626.54 113.01 L1626.54 118.404 L1622.28 118.404 L1622.28 113.01 Z" fill="#000000" fill-rule="nonzero" fill-opacity="1" /><path clip-path="url(#clip270)" d="M1632.39 123.103 L1636.91 123.103 L1645.01 144.862 L1653.11 123.103 L1657.62 123.103 L1647.9 149.029 L1642.12 149.029 L1632.39 123.103 Z" fill="#000000" fill-rule="nonzero" fill-opacity="1" /><path clip-path="url(#clip270)" d="M1685.68 135.001 L1685.68 137.084 L1666.1 137.084 Q1666.37 141.482 1668.74 143.797 Q1671.12 146.089 1675.36 146.089 Q1677.81 146.089 1680.1 145.487 Q1682.42 144.885 1684.68 143.681 L1684.68 147.709 Q1682.39 148.681 1679.99 149.191 Q1677.58 149.7 1675.1 149.7 Q1668.9 149.7 1665.26 146.089 Q1661.65 142.478 1661.65 136.32 Q1661.65 129.955 1665.08 126.228 Q1668.53 122.478 1674.36 122.478 Q1679.59 122.478 1682.62 125.857 Q1685.68 129.214 1685.68 135.001 M1681.42 133.751 Q1681.37 130.256 1679.45 128.172 Q1677.55 126.089 1674.41 126.089 Q1670.84 126.089 1668.69 128.103 Q1666.56 130.117 1666.24 133.774 L1681.42 133.751 Z" fill="#000000" fill-rule="nonzero" fill-opacity="1" /></svg>
