<?xml version="1.0" encoding="utf-8"?>
<svg xmlns="http://www.w3.org/2000/svg" xmlns:xlink="http://www.w3.org/1999/xlink" width="550" height="300" viewBox="0 0 2200 1200">
<defs>
  <clipPath id="clip510">
    <rect x="0" y="0" width="2200" height="1200"/>
  </clipPath>
</defs>
<path clip-path="url(#clip510)" d="M0 1200 L2200 1200 L2200 0 L0 0  Z" fill="#ffffff" fill-rule="evenodd" fill-opacity="1"/>
<defs>
  <clipPath id="clip511">
    <rect x="440" y="0" width="1541" height="1200"/>
  </clipPath>
</defs>
<path clip-path="url(#clip510)" d="M238.902 1042.1 L2152.76 1042.1 L2152.76 47.2441 L238.902 47.2441  Z" fill="#ffffff" fill-rule="evenodd" fill-opacity="1"/>
<defs>
  <clipPath id="clip512">
    <rect x="238" y="47" width="1915" height="996"/>
  </clipPath>
</defs>
<polyline clip-path="url(#clip512)" style="stroke:#000000; stroke-linecap:round; stroke-linejoin:round; stroke-width:2; stroke-opacity:0.1; fill:none" points="293.068,1042.1 293.068,47.2441 "/>
<polyline clip-path="url(#clip512)" style="stroke:#000000; stroke-linecap:round; stroke-linejoin:round; stroke-width:2; stroke-opacity:0.1; fill:none" points="744.448,1042.1 744.448,47.2441 "/>
<polyline clip-path="url(#clip512)" style="stroke:#000000; stroke-linecap:round; stroke-linejoin:round; stroke-width:2; stroke-opacity:0.1; fill:none" points="1195.83,1042.1 1195.83,47.2441 "/>
<polyline clip-path="url(#clip512)" style="stroke:#000000; stroke-linecap:round; stroke-linejoin:round; stroke-width:2; stroke-opacity:0.1; fill:none" points="1647.21,1042.1 1647.21,47.2441 "/>
<polyline clip-path="url(#clip512)" style="stroke:#000000; stroke-linecap:round; stroke-linejoin:round; stroke-width:2; stroke-opacity:0.1; fill:none" points="2098.59,1042.1 2098.59,47.2441 "/>
<polyline clip-path="url(#clip510)" style="stroke:#000000; stroke-linecap:round; stroke-linejoin:round; stroke-width:4; stroke-opacity:1; fill:none" points="238.902,1042.1 2152.76,1042.1 "/>
<polyline clip-path="url(#clip510)" style="stroke:#000000; stroke-linecap:round; stroke-linejoin:round; stroke-width:4; stroke-opacity:1; fill:none" points="293.068,1042.1 293.068,1023.21 "/>
<polyline clip-path="url(#clip510)" style="stroke:#000000; stroke-linecap:round; stroke-linejoin:round; stroke-width:4; stroke-opacity:1; fill:none" points="744.448,1042.1 744.448,1023.21 "/>
<polyline clip-path="url(#clip510)" style="stroke:#000000; stroke-linecap:round; stroke-linejoin:round; stroke-width:4; stroke-opacity:1; fill:none" points="1195.83,1042.1 1195.83,1023.21 "/>
<polyline clip-path="url(#clip510)" style="stroke:#000000; stroke-linecap:round; stroke-linejoin:round; stroke-width:4; stroke-opacity:1; fill:none" points="1647.21,1042.1 1647.21,1023.21 "/>
<polyline clip-path="url(#clip510)" style="stroke:#000000; stroke-linecap:round; stroke-linejoin:round; stroke-width:4; stroke-opacity:1; fill:none" points="2098.59,1042.1 2098.59,1023.21 "/>
<path clip-path="url(#clip510)" d="M255.371 1071.42 Q251.76 1071.42 249.931 1074.99 Q248.126 1078.53 248.126 1085.66 Q248.126 1092.76 249.931 1096.33 Q251.76 1099.87 255.371 1099.87 Q259.005 1099.87 260.811 1096.33 Q262.64 1092.76 262.64 1085.66 Q262.64 1078.53 260.811 1074.99 Q259.005 1071.42 255.371 1071.42 M255.371 1067.72 Q261.181 1067.72 264.237 1072.32 Q267.316 1076.91 267.316 1085.66 Q267.316 1094.39 264.237 1098.99 Q261.181 1103.57 255.371 1103.57 Q249.561 1103.57 246.482 1098.99 Q243.427 1094.39 243.427 1085.66 Q243.427 1076.91 246.482 1072.32 Q249.561 1067.72 255.371 1067.72 Z" fill="#000000" fill-rule="nonzero" fill-opacity="1" /><path clip-path="url(#clip510)" d="M275.533 1097.02 L280.417 1097.02 L280.417 1102.9 L275.533 1102.9 L275.533 1097.02 Z" fill="#000000" fill-rule="nonzero" fill-opacity="1" /><path clip-path="url(#clip510)" d="M300.602 1071.42 Q296.991 1071.42 295.163 1074.99 Q293.357 1078.53 293.357 1085.66 Q293.357 1092.76 295.163 1096.33 Q296.991 1099.87 300.602 1099.87 Q304.237 1099.87 306.042 1096.33 Q307.871 1092.76 307.871 1085.66 Q307.871 1078.53 306.042 1074.99 Q304.237 1071.42 300.602 1071.42 M300.602 1067.72 Q306.413 1067.72 309.468 1072.32 Q312.547 1076.91 312.547 1085.66 Q312.547 1094.39 309.468 1098.99 Q306.413 1103.57 300.602 1103.57 Q294.792 1103.57 291.714 1098.99 Q288.658 1094.39 288.658 1085.66 Q288.658 1076.91 291.714 1072.32 Q294.792 1067.72 300.602 1067.72 Z" fill="#000000" fill-rule="nonzero" fill-opacity="1" /><path clip-path="url(#clip510)" d="M330.764 1071.42 Q327.153 1071.42 325.324 1074.99 Q323.519 1078.53 323.519 1085.66 Q323.519 1092.76 325.324 1096.33 Q327.153 1099.87 330.764 1099.87 Q334.399 1099.87 336.204 1096.33 Q338.033 1092.76 338.033 1085.66 Q338.033 1078.53 336.204 1074.99 Q334.399 1071.42 330.764 1071.42 M330.764 1067.72 Q336.574 1067.72 339.63 1072.32 Q342.709 1076.91 342.709 1085.66 Q342.709 1094.39 339.63 1098.99 Q336.574 1103.57 330.764 1103.57 Q324.954 1103.57 321.875 1098.99 Q318.82 1094.39 318.82 1085.66 Q318.82 1076.91 321.875 1072.32 Q324.954 1067.72 330.764 1067.72 Z" fill="#000000" fill-rule="nonzero" fill-opacity="1" /><path clip-path="url(#clip510)" d="M707.249 1071.42 Q703.638 1071.42 701.81 1074.99 Q700.004 1078.53 700.004 1085.66 Q700.004 1092.76 701.81 1096.33 Q703.638 1099.87 707.249 1099.87 Q710.884 1099.87 712.689 1096.33 Q714.518 1092.76 714.518 1085.66 Q714.518 1078.53 712.689 1074.99 Q710.884 1071.42 707.249 1071.42 M707.249 1067.72 Q713.06 1067.72 716.115 1072.32 Q719.194 1076.91 719.194 1085.66 Q719.194 1094.39 716.115 1098.99 Q713.06 1103.57 707.249 1103.57 Q701.439 1103.57 698.361 1098.99 Q695.305 1094.39 695.305 1085.66 Q695.305 1076.91 698.361 1072.32 Q701.439 1067.72 707.249 1067.72 Z" fill="#000000" fill-rule="nonzero" fill-opacity="1" /><path clip-path="url(#clip510)" d="M727.411 1097.02 L732.296 1097.02 L732.296 1102.9 L727.411 1102.9 L727.411 1097.02 Z" fill="#000000" fill-rule="nonzero" fill-opacity="1" /><path clip-path="url(#clip510)" d="M746.509 1098.97 L762.828 1098.97 L762.828 1102.9 L740.884 1102.9 L740.884 1098.97 Q743.546 1096.21 748.129 1091.58 Q752.735 1086.93 753.916 1085.59 Q756.161 1083.07 757.041 1081.33 Q757.944 1079.57 757.944 1077.88 Q757.944 1075.13 755.999 1073.39 Q754.078 1071.65 750.976 1071.65 Q748.777 1071.65 746.323 1072.42 Q743.893 1073.18 741.115 1074.73 L741.115 1070.01 Q743.939 1068.88 746.393 1068.3 Q748.846 1067.72 750.883 1067.72 Q756.254 1067.72 759.448 1070.4 Q762.643 1073.09 762.643 1077.58 Q762.643 1079.71 761.833 1081.63 Q761.045 1083.53 758.939 1086.12 Q758.36 1086.79 755.258 1090.01 Q752.157 1093.2 746.509 1098.97 Z" fill="#000000" fill-rule="nonzero" fill-opacity="1" /><path clip-path="url(#clip510)" d="M772.689 1068.34 L791.045 1068.34 L791.045 1072.28 L776.971 1072.28 L776.971 1080.75 Q777.99 1080.4 779.008 1080.24 Q780.027 1080.06 781.045 1080.06 Q786.832 1080.06 790.212 1083.23 Q793.592 1086.4 793.592 1091.82 Q793.592 1097.39 790.119 1100.5 Q786.647 1103.57 780.328 1103.57 Q778.152 1103.57 775.883 1103.2 Q773.638 1102.83 771.231 1102.09 L771.231 1097.39 Q773.314 1098.53 775.536 1099.08 Q777.758 1099.64 780.235 1099.64 Q784.24 1099.64 786.578 1097.53 Q788.916 1095.43 788.916 1091.82 Q788.916 1088.2 786.578 1086.1 Q784.24 1083.99 780.235 1083.99 Q778.36 1083.99 776.485 1084.41 Q774.633 1084.82 772.689 1085.7 L772.689 1068.34 Z" fill="#000000" fill-rule="nonzero" fill-opacity="1" /><path clip-path="url(#clip510)" d="M1158.13 1071.42 Q1154.52 1071.42 1152.69 1074.99 Q1150.89 1078.53 1150.89 1085.66 Q1150.89 1092.76 1152.69 1096.33 Q1154.52 1099.87 1158.13 1099.87 Q1161.77 1099.87 1163.57 1096.33 Q1165.4 1092.76 1165.4 1085.66 Q1165.4 1078.53 1163.57 1074.99 Q1161.77 1071.42 1158.13 1071.42 M1158.13 1067.72 Q1163.94 1067.72 1167 1072.32 Q1170.08 1076.91 1170.08 1085.66 Q1170.08 1094.39 1167 1098.99 Q1163.94 1103.57 1158.13 1103.57 Q1152.32 1103.57 1149.24 1098.99 Q1146.19 1094.39 1146.19 1085.66 Q1146.19 1076.91 1149.24 1072.32 Q1152.32 1067.72 1158.13 1067.72 Z" fill="#000000" fill-rule="nonzero" fill-opacity="1" /><path clip-path="url(#clip510)" d="M1178.29 1097.02 L1183.18 1097.02 L1183.18 1102.9 L1178.29 1102.9 L1178.29 1097.02 Z" fill="#000000" fill-rule="nonzero" fill-opacity="1" /><path clip-path="url(#clip510)" d="M1193.41 1068.34 L1211.77 1068.34 L1211.77 1072.28 L1197.69 1072.28 L1197.69 1080.75 Q1198.71 1080.4 1199.73 1080.24 Q1200.75 1080.06 1201.77 1080.06 Q1207.55 1080.06 1210.93 1083.23 Q1214.31 1086.4 1214.31 1091.82 Q1214.31 1097.39 1210.84 1100.5 Q1207.37 1103.57 1201.05 1103.57 Q1198.87 1103.57 1196.6 1103.2 Q1194.36 1102.83 1191.95 1102.09 L1191.95 1097.39 Q1194.03 1098.53 1196.26 1099.08 Q1198.48 1099.64 1200.96 1099.64 Q1204.96 1099.64 1207.3 1097.53 Q1209.64 1095.43 1209.64 1091.82 Q1209.64 1088.2 1207.3 1086.1 Q1204.96 1083.99 1200.96 1083.99 Q1199.08 1083.99 1197.21 1084.41 Q1195.35 1084.82 1193.41 1085.7 L1193.41 1068.34 Z" fill="#000000" fill-rule="nonzero" fill-opacity="1" /><path clip-path="url(#clip510)" d="M1233.53 1071.42 Q1229.91 1071.42 1228.09 1074.99 Q1226.28 1078.53 1226.28 1085.66 Q1226.28 1092.76 1228.09 1096.33 Q1229.91 1099.87 1233.53 1099.87 Q1237.16 1099.87 1238.97 1096.33 Q1240.79 1092.76 1240.79 1085.66 Q1240.79 1078.53 1238.97 1074.99 Q1237.16 1071.42 1233.53 1071.42 M1233.53 1067.72 Q1239.34 1067.72 1242.39 1072.32 Q1245.47 1076.91 1245.47 1085.66 Q1245.47 1094.39 1242.39 1098.99 Q1239.34 1103.57 1233.53 1103.57 Q1227.72 1103.57 1224.64 1098.99 Q1221.58 1094.39 1221.58 1085.66 Q1221.58 1076.91 1224.64 1072.32 Q1227.72 1067.72 1233.53 1067.72 Z" fill="#000000" fill-rule="nonzero" fill-opacity="1" /><path clip-path="url(#clip510)" d="M1610.01 1071.42 Q1606.4 1071.42 1604.57 1074.99 Q1602.77 1078.53 1602.77 1085.66 Q1602.77 1092.76 1604.57 1096.33 Q1606.4 1099.87 1610.01 1099.87 Q1613.64 1099.87 1615.45 1096.33 Q1617.28 1092.76 1617.28 1085.66 Q1617.28 1078.53 1615.45 1074.99 Q1613.64 1071.42 1610.01 1071.42 M1610.01 1067.72 Q1615.82 1067.72 1618.88 1072.32 Q1621.96 1076.91 1621.96 1085.66 Q1621.96 1094.39 1618.88 1098.99 Q1615.82 1103.57 1610.01 1103.57 Q1604.2 1103.57 1601.12 1098.99 Q1598.07 1094.39 1598.07 1085.66 Q1598.07 1076.91 1601.12 1072.32 Q1604.2 1067.72 1610.01 1067.72 Z" fill="#000000" fill-rule="nonzero" fill-opacity="1" /><path clip-path="url(#clip510)" d="M1630.17 1097.02 L1635.06 1097.02 L1635.06 1102.9 L1630.17 1102.9 L1630.17 1097.02 Z" fill="#000000" fill-rule="nonzero" fill-opacity="1" /><path clip-path="url(#clip510)" d="M1644.06 1068.34 L1666.28 1068.34 L1666.28 1070.33 L1653.74 1102.9 L1648.85 1102.9 L1660.66 1072.28 L1644.06 1072.28 L1644.06 1068.34 Z" fill="#000000" fill-rule="nonzero" fill-opacity="1" /><path clip-path="url(#clip510)" d="M1675.45 1068.34 L1693.81 1068.34 L1693.81 1072.28 L1679.73 1072.28 L1679.73 1080.75 Q1680.75 1080.4 1681.77 1080.24 Q1682.79 1080.06 1683.81 1080.06 Q1689.59 1080.06 1692.97 1083.23 Q1696.35 1086.4 1696.35 1091.82 Q1696.35 1097.39 1692.88 1100.5 Q1689.41 1103.57 1683.09 1103.57 Q1680.91 1103.57 1678.64 1103.2 Q1676.4 1102.83 1673.99 1102.09 L1673.99 1097.39 Q1676.08 1098.53 1678.3 1099.08 Q1680.52 1099.64 1683 1099.64 Q1687 1099.64 1689.34 1097.53 Q1691.68 1095.43 1691.68 1091.82 Q1691.68 1088.2 1689.34 1086.1 Q1687 1083.99 1683 1083.99 Q1681.12 1083.99 1679.25 1084.41 Q1677.39 1084.82 1675.45 1085.7 L1675.45 1068.34 Z" fill="#000000" fill-rule="nonzero" fill-opacity="1" /><path clip-path="url(#clip510)" d="M2050.66 1098.97 L2058.3 1098.97 L2058.3 1072.6 L2049.99 1074.27 L2049.99 1070.01 L2058.25 1068.34 L2062.93 1068.34 L2062.93 1098.97 L2070.57 1098.97 L2070.57 1102.9 L2050.66 1102.9 L2050.66 1098.97 Z" fill="#000000" fill-rule="nonzero" fill-opacity="1" /><path clip-path="url(#clip510)" d="M2080.01 1097.02 L2084.9 1097.02 L2084.9 1102.9 L2080.01 1102.9 L2080.01 1097.02 Z" fill="#000000" fill-rule="nonzero" fill-opacity="1" /><path clip-path="url(#clip510)" d="M2105.08 1071.42 Q2101.47 1071.42 2099.64 1074.99 Q2097.84 1078.53 2097.84 1085.66 Q2097.84 1092.76 2099.64 1096.33 Q2101.47 1099.87 2105.08 1099.87 Q2108.72 1099.87 2110.52 1096.33 Q2112.35 1092.76 2112.35 1085.66 Q2112.35 1078.53 2110.52 1074.99 Q2108.72 1071.42 2105.08 1071.42 M2105.08 1067.72 Q2110.89 1067.72 2113.95 1072.32 Q2117.03 1076.91 2117.03 1085.66 Q2117.03 1094.39 2113.95 1098.99 Q2110.89 1103.57 2105.08 1103.57 Q2099.27 1103.57 2096.19 1098.99 Q2093.14 1094.39 2093.14 1085.66 Q2093.14 1076.91 2096.19 1072.32 Q2099.27 1067.72 2105.08 1067.72 Z" fill="#000000" fill-rule="nonzero" fill-opacity="1" /><path clip-path="url(#clip510)" d="M2135.25 1071.42 Q2131.63 1071.42 2129.81 1074.99 Q2128 1078.53 2128 1085.66 Q2128 1092.76 2129.81 1096.33 Q2131.63 1099.87 2135.25 1099.87 Q2138.88 1099.87 2140.68 1096.33 Q2142.51 1092.76 2142.51 1085.66 Q2142.51 1078.53 2140.68 1074.99 Q2138.88 1071.42 2135.25 1071.42 M2135.25 1067.72 Q2141.06 1067.72 2144.11 1072.32 Q2147.19 1076.91 2147.19 1085.66 Q2147.19 1094.39 2144.11 1098.99 Q2141.06 1103.57 2135.25 1103.57 Q2129.43 1103.57 2126.36 1098.99 Q2123.3 1094.39 2123.3 1085.66 Q2123.3 1076.91 2126.36 1072.32 Q2129.43 1067.72 2135.25 1067.72 Z" fill="#000000" fill-rule="nonzero" fill-opacity="1" /><path clip-path="url(#clip510)" d="M710.746 1141.73 L710.746 1159.59 L718.831 1159.59 Q723.318 1159.59 725.769 1157.26 Q728.22 1154.94 728.22 1150.64 Q728.22 1146.38 725.769 1144.05 Q723.318 1141.73 718.831 1141.73 L710.746 1141.73 M704.317 1136.45 L718.831 1136.45 Q726.82 1136.45 730.894 1140.08 Q735 1143.67 735 1150.64 Q735 1157.68 730.894 1161.27 Q726.82 1164.87 718.831 1164.87 L710.746 1164.87 L710.746 1183.97 L704.317 1183.97 L704.317 1136.45 Z" fill="#000000" fill-rule="nonzero" fill-opacity="1" /><path clip-path="url(#clip510)" d="M754.861 1152.43 Q750.15 1152.43 747.413 1156.12 Q744.675 1159.78 744.675 1166.18 Q744.675 1172.57 747.381 1176.26 Q750.118 1179.93 754.861 1179.93 Q759.539 1179.93 762.277 1176.23 Q765.014 1172.54 765.014 1166.18 Q765.014 1159.84 762.277 1156.15 Q759.539 1152.43 754.861 1152.43 M754.861 1147.46 Q762.499 1147.46 766.86 1152.43 Q771.22 1157.39 771.22 1166.18 Q771.22 1174.93 766.86 1179.93 Q762.499 1184.89 754.861 1184.89 Q747.19 1184.89 742.829 1179.93 Q738.501 1174.93 738.501 1166.18 Q738.501 1157.39 742.829 1152.43 Q747.19 1147.46 754.861 1147.46 Z" fill="#000000" fill-rule="nonzero" fill-opacity="1" /><path clip-path="url(#clip510)" d="M803.654 1149.37 L803.654 1154.91 Q801.171 1153.63 798.497 1153 Q795.824 1152.36 792.959 1152.36 Q788.599 1152.36 786.403 1153.7 Q784.238 1155.04 784.238 1157.71 Q784.238 1159.75 785.798 1160.92 Q787.357 1162.07 792.068 1163.12 L794.073 1163.57 Q800.312 1164.9 802.922 1167.35 Q805.563 1169.77 805.563 1174.13 Q805.563 1179.1 801.617 1181.99 Q797.702 1184.89 790.827 1184.89 Q787.962 1184.89 784.843 1184.32 Q781.756 1183.78 778.318 1182.66 L778.318 1176.62 Q781.565 1178.3 784.716 1179.16 Q787.867 1179.99 790.954 1179.99 Q795.092 1179.99 797.32 1178.59 Q799.548 1177.16 799.548 1174.58 Q799.548 1172.19 797.925 1170.92 Q796.333 1169.64 790.89 1168.47 L788.853 1167.99 Q783.411 1166.84 780.992 1164.49 Q778.573 1162.1 778.573 1157.96 Q778.573 1152.93 782.138 1150.2 Q785.702 1147.46 792.259 1147.46 Q795.506 1147.46 798.37 1147.94 Q801.235 1148.42 803.654 1149.37 Z" fill="#000000" fill-rule="nonzero" fill-opacity="1" /><path clip-path="url(#clip510)" d="M820.682 1138.2 L820.682 1148.32 L832.745 1148.32 L832.745 1152.87 L820.682 1152.87 L820.682 1172.22 Q820.682 1176.58 821.86 1177.82 Q823.069 1179.07 826.729 1179.07 L832.745 1179.07 L832.745 1183.97 L826.729 1183.97 Q819.95 1183.97 817.372 1181.45 Q814.794 1178.91 814.794 1172.22 L814.794 1152.87 L810.497 1152.87 L810.497 1148.32 L814.794 1148.32 L814.794 1138.2 L820.682 1138.2 Z" fill="#000000" fill-rule="nonzero" fill-opacity="1" /><path clip-path="url(#clip510)" d="M870.939 1164.68 L870.939 1167.54 L844.012 1167.54 Q844.394 1173.59 847.641 1176.77 Q850.919 1179.93 856.744 1179.93 Q860.118 1179.93 863.269 1179.1 Q866.451 1178.27 869.571 1176.62 L869.571 1182.15 Q866.42 1183.49 863.109 1184.19 Q859.799 1184.89 856.394 1184.89 Q847.864 1184.89 842.866 1179.93 Q837.901 1174.96 837.901 1166.49 Q837.901 1157.74 842.612 1152.62 Q847.354 1147.46 855.375 1147.46 Q862.568 1147.46 866.738 1152.11 Q870.939 1156.72 870.939 1164.68 M865.083 1162.96 Q865.019 1158.15 862.377 1155.29 Q859.767 1152.43 855.439 1152.43 Q850.537 1152.43 847.577 1155.19 Q844.649 1157.96 844.203 1162.99 L865.083 1162.96 Z" fill="#000000" fill-rule="nonzero" fill-opacity="1" /><path clip-path="url(#clip510)" d="M901.208 1153.79 Q900.221 1153.22 899.044 1152.97 Q897.898 1152.68 896.498 1152.68 Q891.532 1152.68 888.859 1155.93 Q886.217 1159.14 886.217 1165.19 L886.217 1183.97 L880.329 1183.97 L880.329 1148.32 L886.217 1148.32 L886.217 1153.86 Q888.063 1150.61 891.023 1149.05 Q893.983 1147.46 898.216 1147.46 Q898.821 1147.46 899.553 1147.56 Q900.285 1147.62 901.176 1147.78 L901.208 1153.79 Z" fill="#000000" fill-rule="nonzero" fill-opacity="1" /><path clip-path="url(#clip510)" d="M907.351 1148.32 L913.208 1148.32 L913.208 1183.97 L907.351 1183.97 L907.351 1148.32 M907.351 1134.44 L913.208 1134.44 L913.208 1141.86 L907.351 1141.86 L907.351 1134.44 Z" fill="#000000" fill-rule="nonzero" fill-opacity="1" /><path clip-path="url(#clip510)" d="M939.275 1152.43 Q934.564 1152.43 931.827 1156.12 Q929.09 1159.78 929.09 1166.18 Q929.09 1172.57 931.795 1176.26 Q934.533 1179.93 939.275 1179.93 Q943.954 1179.93 946.691 1176.23 Q949.428 1172.54 949.428 1166.18 Q949.428 1159.84 946.691 1156.15 Q943.954 1152.43 939.275 1152.43 M939.275 1147.46 Q946.914 1147.46 951.274 1152.43 Q955.635 1157.39 955.635 1166.18 Q955.635 1174.93 951.274 1179.93 Q946.914 1184.89 939.275 1184.89 Q931.604 1184.89 927.244 1179.93 Q922.915 1174.93 922.915 1166.18 Q922.915 1157.39 927.244 1152.43 Q931.604 1147.46 939.275 1147.46 Z" fill="#000000" fill-rule="nonzero" fill-opacity="1" /><path clip-path="url(#clip510)" d="M985.999 1153.79 Q985.013 1153.22 983.835 1152.97 Q982.689 1152.68 981.289 1152.68 Q976.323 1152.68 973.65 1155.93 Q971.008 1159.14 971.008 1165.19 L971.008 1183.97 L965.12 1183.97 L965.12 1148.32 L971.008 1148.32 L971.008 1153.86 Q972.854 1150.61 975.814 1149.05 Q978.774 1147.46 983.007 1147.46 Q983.612 1147.46 984.344 1147.56 Q985.076 1147.62 985.968 1147.78 L985.999 1153.79 Z" fill="#000000" fill-rule="nonzero" fill-opacity="1" /><path clip-path="url(#clip510)" d="M1019.55 1141.73 L1019.55 1159.59 L1027.63 1159.59 Q1032.12 1159.59 1034.57 1157.26 Q1037.02 1154.94 1037.02 1150.64 Q1037.02 1146.38 1034.57 1144.05 Q1032.12 1141.73 1027.63 1141.73 L1019.55 1141.73 M1013.12 1136.45 L1027.63 1136.45 Q1035.62 1136.45 1039.69 1140.08 Q1043.8 1143.67 1043.8 1150.64 Q1043.8 1157.68 1039.69 1161.27 Q1035.62 1164.87 1027.63 1164.87 L1019.55 1164.87 L1019.55 1183.97 L1013.12 1183.97 L1013.12 1136.45 Z" fill="#000000" fill-rule="nonzero" fill-opacity="1" /><path clip-path="url(#clip510)" d="M1071.68 1153.79 Q1070.7 1153.22 1069.52 1152.97 Q1068.37 1152.68 1066.97 1152.68 Q1062.01 1152.68 1059.33 1155.93 Q1056.69 1159.14 1056.69 1165.19 L1056.69 1183.97 L1050.8 1183.97 L1050.8 1148.32 L1056.69 1148.32 L1056.69 1153.86 Q1058.54 1150.61 1061.5 1149.05 Q1064.46 1147.46 1068.69 1147.46 Q1069.29 1147.46 1070.03 1147.56 Q1070.76 1147.62 1071.65 1147.78 L1071.68 1153.79 Z" fill="#000000" fill-rule="nonzero" fill-opacity="1" /><path clip-path="url(#clip510)" d="M1090.21 1152.43 Q1085.5 1152.43 1082.76 1156.12 Q1080.02 1159.78 1080.02 1166.18 Q1080.02 1172.57 1082.73 1176.26 Q1085.46 1179.93 1090.21 1179.93 Q1094.88 1179.93 1097.62 1176.23 Q1100.36 1172.54 1100.36 1166.18 Q1100.36 1159.84 1097.62 1156.15 Q1094.88 1152.43 1090.21 1152.43 M1090.21 1147.46 Q1097.84 1147.46 1102.21 1152.43 Q1106.57 1157.39 1106.57 1166.18 Q1106.57 1174.93 1102.21 1179.93 Q1097.84 1184.89 1090.21 1184.89 Q1082.54 1184.89 1078.17 1179.93 Q1073.85 1174.93 1073.85 1166.18 Q1073.85 1157.39 1078.17 1152.43 Q1082.54 1147.46 1090.21 1147.46 Z" fill="#000000" fill-rule="nonzero" fill-opacity="1" /><path clip-path="url(#clip510)" d="M1141.86 1166.18 Q1141.86 1159.71 1139.19 1156.05 Q1136.55 1152.36 1131.9 1152.36 Q1127.25 1152.36 1124.58 1156.05 Q1121.94 1159.71 1121.94 1166.18 Q1121.94 1172.64 1124.58 1176.33 Q1127.25 1179.99 1131.9 1179.99 Q1136.55 1179.99 1139.19 1176.33 Q1141.86 1172.64 1141.86 1166.18 M1121.94 1153.73 Q1123.79 1150.55 1126.59 1149.02 Q1129.42 1147.46 1133.33 1147.46 Q1139.83 1147.46 1143.87 1152.62 Q1147.94 1157.77 1147.94 1166.18 Q1147.94 1174.58 1143.87 1179.73 Q1139.83 1184.89 1133.33 1184.89 Q1129.42 1184.89 1126.59 1183.36 Q1123.79 1181.8 1121.94 1178.62 L1121.94 1183.97 L1116.05 1183.97 L1116.05 1134.44 L1121.94 1134.44 L1121.94 1153.73 Z" fill="#000000" fill-rule="nonzero" fill-opacity="1" /><path clip-path="url(#clip510)" d="M1173.85 1166.05 Q1166.75 1166.05 1164.02 1167.67 Q1161.28 1169.29 1161.28 1173.21 Q1161.28 1176.33 1163.32 1178.17 Q1165.38 1179.99 1168.92 1179.99 Q1173.79 1179.99 1176.72 1176.55 Q1179.68 1173.08 1179.68 1167.35 L1179.68 1166.05 L1173.85 1166.05 M1185.53 1163.63 L1185.53 1183.97 L1179.68 1183.97 L1179.68 1178.56 Q1177.67 1181.8 1174.68 1183.36 Q1171.69 1184.89 1167.36 1184.89 Q1161.88 1184.89 1158.64 1181.83 Q1155.42 1178.75 1155.42 1173.59 Q1155.42 1167.58 1159.43 1164.52 Q1163.48 1161.46 1171.46 1161.46 L1179.68 1161.46 L1179.68 1160.89 Q1179.68 1156.85 1177 1154.65 Q1174.36 1152.43 1169.55 1152.43 Q1166.5 1152.43 1163.6 1153.16 Q1160.71 1153.89 1158.03 1155.35 L1158.03 1149.94 Q1161.25 1148.7 1164.27 1148.1 Q1167.29 1147.46 1170.16 1147.46 Q1177.89 1147.46 1181.71 1151.47 Q1185.53 1155.48 1185.53 1163.63 Z" fill="#000000" fill-rule="nonzero" fill-opacity="1" /><path clip-path="url(#clip510)" d="M1223.19 1166.18 Q1223.19 1159.71 1220.51 1156.05 Q1217.87 1152.36 1213.22 1152.36 Q1208.58 1152.36 1205.9 1156.05 Q1203.26 1159.71 1203.26 1166.18 Q1203.26 1172.64 1205.9 1176.33 Q1208.58 1179.99 1213.22 1179.99 Q1217.87 1179.99 1220.51 1176.33 Q1223.19 1172.64 1223.19 1166.18 M1203.26 1153.73 Q1205.11 1150.55 1207.91 1149.02 Q1210.74 1147.46 1214.66 1147.46 Q1221.15 1147.46 1225.19 1152.62 Q1229.26 1157.77 1229.26 1166.18 Q1229.26 1174.58 1225.19 1179.73 Q1221.15 1184.89 1214.66 1184.89 Q1210.74 1184.89 1207.91 1183.36 Q1205.11 1181.8 1203.26 1178.62 L1203.26 1183.97 L1197.37 1183.97 L1197.37 1134.44 L1203.26 1134.44 L1203.26 1153.73 Z" fill="#000000" fill-rule="nonzero" fill-opacity="1" /><path clip-path="url(#clip510)" d="M1238.97 1148.32 L1244.83 1148.32 L1244.83 1183.97 L1238.97 1183.97 L1238.97 1148.32 M1238.97 1134.44 L1244.83 1134.44 L1244.83 1141.86 L1238.97 1141.86 L1238.97 1134.44 Z" fill="#000000" fill-rule="nonzero" fill-opacity="1" /><path clip-path="url(#clip510)" d="M1257.08 1134.44 L1262.94 1134.44 L1262.94 1183.97 L1257.08 1183.97 L1257.08 1134.44 Z" fill="#000000" fill-rule="nonzero" fill-opacity="1" /><path clip-path="url(#clip510)" d="M1275.19 1148.32 L1281.05 1148.32 L1281.05 1183.97 L1275.19 1183.97 L1275.19 1148.32 M1275.19 1134.44 L1281.05 1134.44 L1281.05 1141.86 L1275.19 1141.86 L1275.19 1134.44 Z" fill="#000000" fill-rule="nonzero" fill-opacity="1" /><path clip-path="url(#clip510)" d="M1299.1 1138.2 L1299.1 1148.32 L1311.16 1148.32 L1311.16 1152.87 L1299.1 1152.87 L1299.1 1172.22 Q1299.1 1176.58 1300.27 1177.82 Q1301.48 1179.07 1305.14 1179.07 L1311.16 1179.07 L1311.16 1183.97 L1305.14 1183.97 Q1298.36 1183.97 1295.79 1181.45 Q1293.21 1178.91 1293.21 1172.22 L1293.21 1152.87 L1288.91 1152.87 L1288.91 1148.32 L1293.21 1148.32 L1293.21 1138.2 L1299.1 1138.2 Z" fill="#000000" fill-rule="nonzero" fill-opacity="1" /><path clip-path="url(#clip510)" d="M1333.69 1187.28 Q1331.21 1193.64 1328.86 1195.58 Q1326.5 1197.53 1322.55 1197.53 L1317.88 1197.53 L1317.88 1192.62 L1321.31 1192.62 Q1323.73 1192.62 1325.07 1191.48 Q1326.41 1190.33 1328.03 1186.07 L1329.08 1183.39 L1314.66 1148.32 L1320.87 1148.32 L1332.01 1176.2 L1343.15 1148.32 L1349.35 1148.32 L1333.69 1187.28 Z" fill="#000000" fill-rule="nonzero" fill-opacity="1" /><path clip-path="url(#clip510)" d="M1371.82 1136.45 L1412.02 1136.45 L1412.02 1141.86 L1395.16 1141.86 L1395.16 1183.97 L1388.69 1183.97 L1388.69 1141.86 L1371.82 1141.86 L1371.82 1136.45 Z" fill="#000000" fill-rule="nonzero" fill-opacity="1" /><path clip-path="url(#clip510)" d="M1447.61 1162.45 L1447.61 1183.97 L1441.75 1183.97 L1441.75 1162.64 Q1441.75 1157.58 1439.78 1155.07 Q1437.81 1152.55 1433.86 1152.55 Q1429.12 1152.55 1426.38 1155.58 Q1423.64 1158.6 1423.64 1163.82 L1423.64 1183.97 L1417.75 1183.97 L1417.75 1134.44 L1423.64 1134.44 L1423.64 1153.86 Q1425.74 1150.64 1428.58 1149.05 Q1431.44 1147.46 1435.16 1147.46 Q1441.31 1147.46 1444.46 1151.28 Q1447.61 1155.07 1447.61 1162.45 Z" fill="#000000" fill-rule="nonzero" fill-opacity="1" /><path clip-path="url(#clip510)" d="M1479.95 1153.79 Q1478.96 1153.22 1477.78 1152.97 Q1476.64 1152.68 1475.24 1152.68 Q1470.27 1152.68 1467.6 1155.93 Q1464.96 1159.14 1464.96 1165.19 L1464.96 1183.97 L1459.07 1183.97 L1459.07 1148.32 L1464.96 1148.32 L1464.96 1153.86 Q1466.8 1150.61 1469.76 1149.05 Q1472.72 1147.46 1476.95 1147.46 Q1477.56 1147.46 1478.29 1147.56 Q1479.02 1147.62 1479.91 1147.78 L1479.95 1153.79 Z" fill="#000000" fill-rule="nonzero" fill-opacity="1" /><path clip-path="url(#clip510)" d="M1515.15 1164.68 L1515.15 1167.54 L1488.22 1167.54 Q1488.6 1173.59 1491.85 1176.77 Q1495.13 1179.93 1500.95 1179.93 Q1504.33 1179.93 1507.48 1179.1 Q1510.66 1178.27 1513.78 1176.62 L1513.78 1182.15 Q1510.63 1183.49 1507.32 1184.19 Q1504.01 1184.89 1500.6 1184.89 Q1492.07 1184.89 1487.08 1179.93 Q1482.11 1174.96 1482.11 1166.49 Q1482.11 1157.74 1486.82 1152.62 Q1491.56 1147.46 1499.58 1147.46 Q1506.78 1147.46 1510.95 1152.11 Q1515.15 1156.72 1515.15 1164.68 M1509.29 1162.96 Q1509.23 1158.15 1506.59 1155.29 Q1503.98 1152.43 1499.65 1152.43 Q1494.75 1152.43 1491.79 1155.19 Q1488.86 1157.96 1488.41 1162.99 L1509.29 1162.96 Z" fill="#000000" fill-rule="nonzero" fill-opacity="1" /><path clip-path="url(#clip510)" d="M1547.49 1149.37 L1547.49 1154.91 Q1545 1153.63 1542.33 1153 Q1539.66 1152.36 1536.79 1152.36 Q1532.43 1152.36 1530.24 1153.7 Q1528.07 1155.04 1528.07 1157.71 Q1528.07 1159.75 1529.63 1160.92 Q1531.19 1162.07 1535.9 1163.12 L1537.91 1163.57 Q1544.14 1164.9 1546.75 1167.35 Q1549.4 1169.77 1549.4 1174.13 Q1549.4 1179.1 1545.45 1181.99 Q1541.53 1184.89 1534.66 1184.89 Q1531.8 1184.89 1528.68 1184.32 Q1525.59 1183.78 1522.15 1182.66 L1522.15 1176.62 Q1525.4 1178.3 1528.55 1179.16 Q1531.7 1179.99 1534.79 1179.99 Q1538.92 1179.99 1541.15 1178.59 Q1543.38 1177.16 1543.38 1174.58 Q1543.38 1172.19 1541.76 1170.92 Q1540.17 1169.64 1534.72 1168.47 L1532.69 1167.99 Q1527.24 1166.84 1524.82 1164.49 Q1522.41 1162.1 1522.41 1157.96 Q1522.41 1152.93 1525.97 1150.2 Q1529.54 1147.46 1536.09 1147.46 Q1539.34 1147.46 1542.2 1147.94 Q1545.07 1148.42 1547.49 1149.37 Z" fill="#000000" fill-rule="nonzero" fill-opacity="1" /><path clip-path="url(#clip510)" d="M1588.35 1162.45 L1588.35 1183.97 L1582.5 1183.97 L1582.5 1162.64 Q1582.5 1157.58 1580.52 1155.07 Q1578.55 1152.55 1574.6 1152.55 Q1569.86 1152.55 1567.12 1155.58 Q1564.39 1158.6 1564.39 1163.82 L1564.39 1183.97 L1558.5 1183.97 L1558.5 1134.44 L1564.39 1134.44 L1564.39 1153.86 Q1566.49 1150.64 1569.32 1149.05 Q1572.19 1147.46 1575.91 1147.46 Q1582.05 1147.46 1585.2 1151.28 Q1588.35 1155.07 1588.35 1162.45 Z" fill="#000000" fill-rule="nonzero" fill-opacity="1" /><path clip-path="url(#clip510)" d="M1613.85 1152.43 Q1609.14 1152.43 1606.4 1156.12 Q1603.66 1159.78 1603.66 1166.18 Q1603.66 1172.57 1606.37 1176.26 Q1609.11 1179.93 1613.85 1179.93 Q1618.53 1179.93 1621.27 1176.23 Q1624 1172.54 1624 1166.18 Q1624 1159.84 1621.27 1156.15 Q1618.53 1152.43 1613.85 1152.43 M1613.85 1147.46 Q1621.49 1147.46 1625.85 1152.43 Q1630.21 1157.39 1630.21 1166.18 Q1630.21 1174.93 1625.85 1179.93 Q1621.49 1184.89 1613.85 1184.89 Q1606.18 1184.89 1601.82 1179.93 Q1597.49 1174.93 1597.49 1166.18 Q1597.49 1157.39 1601.82 1152.43 Q1606.18 1147.46 1613.85 1147.46 Z" fill="#000000" fill-rule="nonzero" fill-opacity="1" /><path clip-path="url(#clip510)" d="M1639.92 1134.44 L1645.77 1134.44 L1645.77 1183.97 L1639.92 1183.97 L1639.92 1134.44 Z" fill="#000000" fill-rule="nonzero" fill-opacity="1" /><path clip-path="url(#clip510)" d="M1681.48 1153.73 L1681.48 1134.44 L1687.34 1134.44 L1687.34 1183.97 L1681.48 1183.97 L1681.48 1178.62 Q1679.64 1181.8 1676.81 1183.36 Q1674 1184.89 1670.06 1184.89 Q1663.6 1184.89 1659.52 1179.73 Q1655.48 1174.58 1655.48 1166.18 Q1655.48 1157.77 1659.52 1152.62 Q1663.6 1147.46 1670.06 1147.46 Q1674 1147.46 1676.81 1149.02 Q1679.64 1150.55 1681.48 1153.73 M1661.53 1166.18 Q1661.53 1172.64 1664.17 1176.33 Q1666.84 1179.99 1671.49 1179.99 Q1676.14 1179.99 1678.81 1176.33 Q1681.48 1172.64 1681.48 1166.18 Q1681.48 1159.71 1678.81 1156.05 Q1676.14 1152.36 1671.49 1152.36 Q1666.84 1152.36 1664.17 1156.05 Q1661.53 1159.71 1661.53 1166.18 Z" fill="#000000" fill-rule="nonzero" fill-opacity="1" /><polyline clip-path="url(#clip512)" style="stroke:#000000; stroke-linecap:round; stroke-linejoin:round; stroke-width:2; stroke-opacity:0.1; fill:none" points="238.902,1013.95 2152.76,1013.95 "/>
<polyline clip-path="url(#clip512)" style="stroke:#000000; stroke-linecap:round; stroke-linejoin:round; stroke-width:2; stroke-opacity:0.1; fill:none" points="238.902,779.31 2152.76,779.31 "/>
<polyline clip-path="url(#clip512)" style="stroke:#000000; stroke-linecap:round; stroke-linejoin:round; stroke-width:2; stroke-opacity:0.1; fill:none" points="238.902,544.674 2152.76,544.674 "/>
<polyline clip-path="url(#clip512)" style="stroke:#000000; stroke-linecap:round; stroke-linejoin:round; stroke-width:2; stroke-opacity:0.1; fill:none" points="238.902,310.037 2152.76,310.037 "/>
<polyline clip-path="url(#clip512)" style="stroke:#000000; stroke-linecap:round; stroke-linejoin:round; stroke-width:2; stroke-opacity:0.1; fill:none" points="238.902,75.4005 2152.76,75.4005 "/>
<polyline clip-path="url(#clip510)" style="stroke:#000000; stroke-linecap:round; stroke-linejoin:round; stroke-width:4; stroke-opacity:1; fill:none" points="238.902,1042.1 238.902,47.2441 "/>
<polyline clip-path="url(#clip510)" style="stroke:#000000; stroke-linecap:round; stroke-linejoin:round; stroke-width:4; stroke-opacity:1; fill:none" points="238.902,1013.95 257.8,1013.95 "/>
<polyline clip-path="url(#clip510)" style="stroke:#000000; stroke-linecap:round; stroke-linejoin:round; stroke-width:4; stroke-opacity:1; fill:none" points="238.902,779.31 257.8,779.31 "/>
<polyline clip-path="url(#clip510)" style="stroke:#000000; stroke-linecap:round; stroke-linejoin:round; stroke-width:4; stroke-opacity:1; fill:none" points="238.902,544.674 257.8,544.674 "/>
<polyline clip-path="url(#clip510)" style="stroke:#000000; stroke-linecap:round; stroke-linejoin:round; stroke-width:4; stroke-opacity:1; fill:none" points="238.902,310.037 257.8,310.037 "/>
<polyline clip-path="url(#clip510)" style="stroke:#000000; stroke-linecap:round; stroke-linejoin:round; stroke-width:4; stroke-opacity:1; fill:none" points="238.902,75.4005 257.8,75.4005 "/>
<path clip-path="url(#clip510)" d="M118.565 999.746 Q114.953 999.746 113.125 1003.31 Q111.319 1006.85 111.319 1013.98 Q111.319 1021.09 113.125 1024.65 Q114.953 1028.19 118.565 1028.19 Q122.199 1028.19 124.004 1024.65 Q125.833 1021.09 125.833 1013.98 Q125.833 1006.85 124.004 1003.31 Q122.199 999.746 118.565 999.746 M118.565 996.042 Q124.375 996.042 127.43 1000.65 Q130.509 1005.23 130.509 1013.98 Q130.509 1022.71 127.43 1027.32 Q124.375 1031.9 118.565 1031.9 Q112.754 1031.9 109.676 1027.32 Q106.62 1022.71 106.62 1013.98 Q106.62 1005.23 109.676 1000.65 Q112.754 996.042 118.565 996.042 Z" fill="#000000" fill-rule="nonzero" fill-opacity="1" /><path clip-path="url(#clip510)" d="M138.726 1025.35 L143.611 1025.35 L143.611 1031.23 L138.726 1031.23 L138.726 1025.35 Z" fill="#000000" fill-rule="nonzero" fill-opacity="1" /><path clip-path="url(#clip510)" d="M163.796 999.746 Q160.185 999.746 158.356 1003.31 Q156.55 1006.85 156.55 1013.98 Q156.55 1021.09 158.356 1024.65 Q160.185 1028.19 163.796 1028.19 Q167.43 1028.19 169.236 1024.65 Q171.064 1021.09 171.064 1013.98 Q171.064 1006.85 169.236 1003.31 Q167.43 999.746 163.796 999.746 M163.796 996.042 Q169.606 996.042 172.661 1000.65 Q175.74 1005.23 175.74 1013.98 Q175.74 1022.71 172.661 1027.32 Q169.606 1031.9 163.796 1031.9 Q157.986 1031.9 154.907 1027.32 Q151.851 1022.71 151.851 1013.98 Q151.851 1005.23 154.907 1000.65 Q157.986 996.042 163.796 996.042 Z" fill="#000000" fill-rule="nonzero" fill-opacity="1" /><path clip-path="url(#clip510)" d="M193.958 999.746 Q190.347 999.746 188.518 1003.31 Q186.712 1006.85 186.712 1013.98 Q186.712 1021.09 188.518 1024.65 Q190.347 1028.19 193.958 1028.19 Q197.592 1028.19 199.397 1024.65 Q201.226 1021.09 201.226 1013.98 Q201.226 1006.85 199.397 1003.31 Q197.592 999.746 193.958 999.746 M193.958 996.042 Q199.768 996.042 202.823 1000.65 Q205.902 1005.23 205.902 1013.98 Q205.902 1022.71 202.823 1027.32 Q199.768 1031.9 193.958 1031.9 Q188.147 1031.9 185.069 1027.32 Q182.013 1022.71 182.013 1013.98 Q182.013 1005.23 185.069 1000.65 Q188.147 996.042 193.958 996.042 Z" fill="#000000" fill-rule="nonzero" fill-opacity="1" /><path clip-path="url(#clip510)" d="M119.56 765.109 Q115.949 765.109 114.12 768.674 Q112.315 772.216 112.315 779.345 Q112.315 786.452 114.12 790.016 Q115.949 793.558 119.56 793.558 Q123.194 793.558 125 790.016 Q126.828 786.452 126.828 779.345 Q126.828 772.216 125 768.674 Q123.194 765.109 119.56 765.109 M119.56 761.405 Q125.37 761.405 128.426 766.012 Q131.504 770.595 131.504 779.345 Q131.504 788.072 128.426 792.678 Q125.37 797.262 119.56 797.262 Q113.75 797.262 110.671 792.678 Q107.616 788.072 107.616 779.345 Q107.616 770.595 110.671 766.012 Q113.75 761.405 119.56 761.405 Z" fill="#000000" fill-rule="nonzero" fill-opacity="1" /><path clip-path="url(#clip510)" d="M139.722 790.711 L144.606 790.711 L144.606 796.59 L139.722 796.59 L139.722 790.711 Z" fill="#000000" fill-rule="nonzero" fill-opacity="1" /><path clip-path="url(#clip510)" d="M158.819 792.655 L175.138 792.655 L175.138 796.59 L153.194 796.59 L153.194 792.655 Q155.856 789.901 160.439 785.271 Q165.046 780.618 166.226 779.276 Q168.472 776.753 169.351 775.016 Q170.254 773.257 170.254 771.567 Q170.254 768.813 168.31 767.077 Q166.388 765.341 163.287 765.341 Q161.087 765.341 158.634 766.104 Q156.203 766.868 153.425 768.419 L153.425 763.697 Q156.25 762.563 158.703 761.984 Q161.157 761.405 163.194 761.405 Q168.564 761.405 171.759 764.091 Q174.953 766.776 174.953 771.266 Q174.953 773.396 174.143 775.317 Q173.356 777.216 171.249 779.808 Q170.671 780.479 167.569 783.697 Q164.467 786.891 158.819 792.655 Z" fill="#000000" fill-rule="nonzero" fill-opacity="1" /><path clip-path="url(#clip510)" d="M184.999 762.03 L203.356 762.03 L203.356 765.966 L189.282 765.966 L189.282 774.438 Q190.3 774.091 191.319 773.929 Q192.337 773.743 193.356 773.743 Q199.143 773.743 202.522 776.915 Q205.902 780.086 205.902 785.503 Q205.902 791.081 202.43 794.183 Q198.958 797.262 192.638 797.262 Q190.462 797.262 188.194 796.891 Q185.948 796.521 183.541 795.78 L183.541 791.081 Q185.624 792.215 187.847 792.771 Q190.069 793.327 192.546 793.327 Q196.55 793.327 198.888 791.22 Q201.226 789.114 201.226 785.503 Q201.226 781.891 198.888 779.785 Q196.55 777.678 192.546 777.678 Q190.671 777.678 188.796 778.095 Q186.944 778.512 184.999 779.391 L184.999 762.03 Z" fill="#000000" fill-rule="nonzero" fill-opacity="1" /><path clip-path="url(#clip510)" d="M118.565 530.472 Q114.953 530.472 113.125 534.037 Q111.319 537.579 111.319 544.709 Q111.319 551.815 113.125 555.38 Q114.953 558.921 118.565 558.921 Q122.199 558.921 124.004 555.38 Q125.833 551.815 125.833 544.709 Q125.833 537.579 124.004 534.037 Q122.199 530.472 118.565 530.472 M118.565 526.769 Q124.375 526.769 127.43 531.375 Q130.509 535.959 130.509 544.709 Q130.509 553.435 127.43 558.042 Q124.375 562.625 118.565 562.625 Q112.754 562.625 109.676 558.042 Q106.62 553.435 106.62 544.709 Q106.62 535.959 109.676 531.375 Q112.754 526.769 118.565 526.769 Z" fill="#000000" fill-rule="nonzero" fill-opacity="1" /><path clip-path="url(#clip510)" d="M138.726 556.074 L143.611 556.074 L143.611 561.954 L138.726 561.954 L138.726 556.074 Z" fill="#000000" fill-rule="nonzero" fill-opacity="1" /><path clip-path="url(#clip510)" d="M153.842 527.394 L172.199 527.394 L172.199 531.329 L158.125 531.329 L158.125 539.801 Q159.143 539.454 160.162 539.292 Q161.18 539.107 162.199 539.107 Q167.986 539.107 171.365 542.278 Q174.745 545.449 174.745 550.866 Q174.745 556.445 171.273 559.546 Q167.8 562.625 161.481 562.625 Q159.305 562.625 157.037 562.255 Q154.791 561.884 152.384 561.144 L152.384 556.445 Q154.467 557.579 156.689 558.134 Q158.912 558.69 161.388 558.69 Q165.393 558.69 167.731 556.583 Q170.069 554.477 170.069 550.866 Q170.069 547.255 167.731 545.148 Q165.393 543.042 161.388 543.042 Q159.513 543.042 157.638 543.459 Q155.787 543.875 153.842 544.755 L153.842 527.394 Z" fill="#000000" fill-rule="nonzero" fill-opacity="1" /><path clip-path="url(#clip510)" d="M193.958 530.472 Q190.347 530.472 188.518 534.037 Q186.712 537.579 186.712 544.709 Q186.712 551.815 188.518 555.38 Q190.347 558.921 193.958 558.921 Q197.592 558.921 199.397 555.38 Q201.226 551.815 201.226 544.709 Q201.226 537.579 199.397 534.037 Q197.592 530.472 193.958 530.472 M193.958 526.769 Q199.768 526.769 202.823 531.375 Q205.902 535.959 205.902 544.709 Q205.902 553.435 202.823 558.042 Q199.768 562.625 193.958 562.625 Q188.147 562.625 185.069 558.042 Q182.013 553.435 182.013 544.709 Q182.013 535.959 185.069 531.375 Q188.147 526.769 193.958 526.769 Z" fill="#000000" fill-rule="nonzero" fill-opacity="1" /><path clip-path="url(#clip510)" d="M119.56 295.836 Q115.949 295.836 114.12 299.401 Q112.315 302.942 112.315 310.072 Q112.315 317.178 114.12 320.743 Q115.949 324.285 119.56 324.285 Q123.194 324.285 125 320.743 Q126.828 317.178 126.828 310.072 Q126.828 302.942 125 299.401 Q123.194 295.836 119.56 295.836 M119.56 292.132 Q125.37 292.132 128.426 296.739 Q131.504 301.322 131.504 310.072 Q131.504 318.799 128.426 323.405 Q125.37 327.988 119.56 327.988 Q113.75 327.988 110.671 323.405 Q107.616 318.799 107.616 310.072 Q107.616 301.322 110.671 296.739 Q113.75 292.132 119.56 292.132 Z" fill="#000000" fill-rule="nonzero" fill-opacity="1" /><path clip-path="url(#clip510)" d="M139.722 321.438 L144.606 321.438 L144.606 327.317 L139.722 327.317 L139.722 321.438 Z" fill="#000000" fill-rule="nonzero" fill-opacity="1" /><path clip-path="url(#clip510)" d="M153.611 292.757 L175.833 292.757 L175.833 294.748 L163.287 327.317 L158.402 327.317 L170.208 296.692 L153.611 296.692 L153.611 292.757 Z" fill="#000000" fill-rule="nonzero" fill-opacity="1" /><path clip-path="url(#clip510)" d="M184.999 292.757 L203.356 292.757 L203.356 296.692 L189.282 296.692 L189.282 305.164 Q190.3 304.817 191.319 304.655 Q192.337 304.47 193.356 304.47 Q199.143 304.47 202.522 307.641 Q205.902 310.813 205.902 316.229 Q205.902 321.808 202.43 324.91 Q198.958 327.988 192.638 327.988 Q190.462 327.988 188.194 327.618 Q185.948 327.248 183.541 326.507 L183.541 321.808 Q185.624 322.942 187.847 323.498 Q190.069 324.053 192.546 324.053 Q196.55 324.053 198.888 321.947 Q201.226 319.84 201.226 316.229 Q201.226 312.618 198.888 310.512 Q196.55 308.405 192.546 308.405 Q190.671 308.405 188.796 308.822 Q186.944 309.239 184.999 310.118 L184.999 292.757 Z" fill="#000000" fill-rule="nonzero" fill-opacity="1" /><path clip-path="url(#clip510)" d="M109.375 88.7453 L117.014 88.7453 L117.014 62.3797 L108.703 64.0464 L108.703 59.7871 L116.967 58.1205 L121.643 58.1205 L121.643 88.7453 L129.282 88.7453 L129.282 92.6805 L109.375 92.6805 L109.375 88.7453 Z" fill="#000000" fill-rule="nonzero" fill-opacity="1" /><path clip-path="url(#clip510)" d="M138.726 86.8009 L143.611 86.8009 L143.611 92.6805 L138.726 92.6805 L138.726 86.8009 Z" fill="#000000" fill-rule="nonzero" fill-opacity="1" /><path clip-path="url(#clip510)" d="M163.796 61.1992 Q160.185 61.1992 158.356 64.764 Q156.55 68.3056 156.55 75.4352 Q156.55 82.5417 158.356 86.1065 Q160.185 89.6481 163.796 89.6481 Q167.43 89.6481 169.236 86.1065 Q171.064 82.5417 171.064 75.4352 Q171.064 68.3056 169.236 64.764 Q167.43 61.1992 163.796 61.1992 M163.796 57.4955 Q169.606 57.4955 172.661 62.102 Q175.74 66.6853 175.74 75.4352 Q175.74 84.162 172.661 88.7685 Q169.606 93.3518 163.796 93.3518 Q157.986 93.3518 154.907 88.7685 Q151.851 84.162 151.851 75.4352 Q151.851 66.6853 154.907 62.102 Q157.986 57.4955 163.796 57.4955 Z" fill="#000000" fill-rule="nonzero" fill-opacity="1" /><path clip-path="url(#clip510)" d="M193.958 61.1992 Q190.347 61.1992 188.518 64.764 Q186.712 68.3056 186.712 75.4352 Q186.712 82.5417 188.518 86.1065 Q190.347 89.6481 193.958 89.6481 Q197.592 89.6481 199.397 86.1065 Q201.226 82.5417 201.226 75.4352 Q201.226 68.3056 199.397 64.764 Q197.592 61.1992 193.958 61.1992 M193.958 57.4955 Q199.768 57.4955 202.823 62.102 Q205.902 66.6853 205.902 75.4352 Q205.902 84.162 202.823 88.7685 Q199.768 93.3518 193.958 93.3518 Q188.147 93.3518 185.069 88.7685 Q182.013 84.162 182.013 75.4352 Q182.013 66.6853 185.069 62.102 Q188.147 57.4955 193.958 57.4955 Z" fill="#000000" fill-rule="nonzero" fill-opacity="1" /><path clip-path="url(#clip510)" d="M11.8442 601.583 L11.8442 574.274 L17.255 574.274 L17.255 595.154 L31.2596 595.154 L31.2596 576.311 L36.6704 576.311 L36.6704 595.154 L59.3642 595.154 L59.3642 601.583 L11.8442 601.583 Z" fill="#000000" fill-rule="nonzero" fill-opacity="1" /><path clip-path="url(#clip510)" d="M17.1277 557.66 L34.9835 557.66 L34.9835 549.575 Q34.9835 545.088 32.66 542.637 Q30.3365 540.186 26.0397 540.186 Q21.7747 540.186 19.4512 542.637 Q17.1277 545.088 17.1277 549.575 L17.1277 557.66 M11.8442 564.089 L11.8442 549.575 Q11.8442 541.586 15.4726 537.512 Q19.0692 533.406 26.0397 533.406 Q33.0738 533.406 36.6704 537.512 Q40.267 541.586 40.267 549.575 L40.267 557.66 L59.3642 557.66 L59.3642 564.089 L11.8442 564.089 Z" fill="#000000" fill-rule="nonzero" fill-opacity="1" /><path clip-path="url(#clip510)" d="M37.0842 502.246 Q37.7844 500.177 40.0761 498.236 Q42.3677 496.263 46.3781 494.289 L59.3642 487.764 L59.3642 494.671 L47.1738 500.75 Q42.3995 503.106 40.84 505.334 Q39.2804 507.53 39.2804 511.349 L39.2804 518.352 L59.3642 518.352 L59.3642 524.781 L11.8442 524.781 L11.8442 510.267 Q11.8442 502.119 15.2498 498.109 Q18.6555 494.098 25.5304 494.098 Q30.0182 494.098 32.9783 496.199 Q35.9384 498.268 37.0842 502.246 M17.1277 518.352 L33.9968 518.352 L33.9968 510.267 Q33.9968 505.62 31.8643 503.265 Q29.7 500.878 25.5304 500.878 Q21.3609 500.878 19.2602 503.265 Q17.1277 505.62 17.1277 510.267 L17.1277 518.352 Z" fill="#000000" fill-rule="nonzero" fill-opacity="1" /><polyline clip-path="url(#clip512)" style="stroke:#ff0000; stroke-linecap:round; stroke-linejoin:round; stroke-width:6; stroke-opacity:1; fill:none" points="293.068,75.4005 293.068,416.852 294.873,455.748 296.679,473.595 298.484,485.919 300.29,495.577 302.095,503.44 303.901,510.331 305.706,516.273 307.512,521.636 309.317,526.356 311.123,530.694 312.928,534.665 314.734,538.397 316.54,541.852 318.345,545.213 320.151,548.458 321.956,551.648 323.762,554.724 325.567,557.817 327.373,560.589 329.178,563.335 330.984,566.098 332.789,568.819 334.595,571.391 336.4,573.943 338.206,576.474 340.011,579.033 341.817,581.488 343.622,583.802 345.428,586.14 347.233,588.416 349.039,590.712 350.844,592.913 352.65,595.045 354.455,597.128 356.261,599.235 358.067,601.301 359.872,603.303 361.678,605.305 363.483,607.293 365.289,609.319 367.094,611.202 368.9,613.122 370.705,614.917 372.511,616.78 374.316,618.567 376.122,620.386 377.927,622.113 379.733,623.875 381.538,625.631 383.344,627.336 385.149,629.1 386.955,630.866 388.76,632.536 390.566,634.262 392.371,635.809 394.177,637.537 395.982,639.233 397.788,640.902 399.594,642.559 401.399,644.15 403.205,645.735 405.01,647.382 406.816,649.036 408.621,650.592 410.427,652.21 412.232,653.785 414.038,655.321 415.843,656.882 417.649,658.368 419.454,659.906 421.26,661.431 423.065,662.914 424.871,664.348 426.676,665.82 428.482,667.271 430.287,668.765 432.093,670.105 433.898,671.458 435.704,672.81 437.51,674.118 439.315,675.396 441.121,676.708 442.926,678.019 444.732,679.307 446.537,680.557 448.343,681.868 450.148,683.114 451.954,684.326 453.759,685.546 455.565,686.817 457.37,688.017 459.176,689.197 460.981,690.357 462.787,691.577 464.592,692.713 466.398,693.828 468.203,694.967 470.009,696.051 471.814,697.147 473.62,698.184 475.425,699.219 477.231,700.219 479.037,701.267 480.842,702.274 482.648,703.282 484.453,704.32 486.259,705.292 488.064,706.187 489.87,707.177 491.675,708.16 493.481,709.085 495.286,710.006 497.092,710.999 498.897,711.957 500.703,712.848 502.508,713.814 504.314,714.72 506.119,715.648 507.925,716.572 509.73,717.446 511.536,718.342 513.341,719.243 515.147,720.142 516.953,721.044 518.758,721.978 520.564,722.838 522.369,723.744 524.175,724.634 525.98,725.491 527.786,726.366 529.591,727.213 531.397,728.123 533.202,728.984 535.008,729.806 536.813,730.703 538.619,731.637 540.424,732.491 542.23,733.305 544.035,734.156 545.841,734.967 547.646,735.862 549.452,736.766 551.257,737.631 553.063,738.479 554.868,739.314 556.674,740.147 558.48,740.988 560.285,741.859 562.091,742.71 563.896,743.569 565.702,744.381 567.507,745.222 569.313,746.023 571.118,746.966 572.924,747.805 574.729,748.684 576.535,749.521 578.34,750.407 580.146,751.291 581.951,752.171 583.757,753.084 585.562,753.969 587.368,754.775 589.173,755.6 590.979,756.487 592.784,757.358 594.59,758.17 596.396,759.009 598.201,759.864 600.007,760.725 601.812,761.624 603.618,762.462 605.423,763.28 607.229,764.082 609.034,764.906 610.84,765.762 612.645,766.606 614.451,767.397 616.256,768.22 618.062,768.992 619.867,769.756 621.673,770.552 623.478,771.332 625.284,772.159 627.089,772.967 628.895,773.681 630.7,774.439 632.506,775.217 634.311,776.009 636.117,776.792 637.923,777.545 639.728,778.266 641.534,779.036 643.339,779.858 645.145,780.664 646.95,781.456 648.756,782.203 650.561,783.043 652.367,783.851 654.172,784.65 655.978,785.465 657.783,786.273 659.589,787.093 661.394,787.911 663.2,788.743 665.005,789.65 666.811,790.486 668.616,791.376 670.422,792.2 672.227,793.104 674.033,793.938 675.838,794.869 677.644,795.844 679.45,796.724 681.255,797.656 683.061,798.581 684.866,799.525 686.672,800.458 688.477,801.388 690.283,802.29 692.088,803.18 693.894,804.09 695.699,805.027 697.505,805.978 699.31,806.938 701.116,807.816 702.921,808.774 704.727,809.649 706.532,810.553 708.338,811.43 710.143,812.299 711.949,813.182 713.754,814.102 715.56,815.001 717.366,815.879 719.171,816.738 720.977,817.598 722.782,818.456 724.588,819.29 726.393,820.195 728.199,821.071 730.004,821.999 731.81,822.853 733.615,823.713 735.421,824.615 737.226,825.527 739.032,826.384 740.837,827.214 742.643,828.056 744.448,828.868 746.254,829.706 748.059,830.54 749.865,831.32 751.67,832.205 753.476,833.089 755.281,833.909 757.087,834.738 758.893,835.594 760.698,836.394 762.504,837.125 764.309,837.931 766.115,838.637 767.92,839.379 769.726,840.125 771.531,840.829 773.337,841.568 775.142,842.295 776.948,842.984 778.753,843.659 780.559,844.406 782.364,845.077 784.17,845.737 785.975,846.443 787.781,847.096 789.586,847.734 791.392,848.367 793.197,849.023 795.003,849.622 796.808,850.247 798.614,850.851 800.42,851.478 802.225,852.076 804.031,852.689 805.836,853.284 807.642,853.871 809.447,854.435 811.253,855.014 813.058,855.647 814.864,856.211 816.669,856.781 818.475,857.403 820.28,857.996 822.086,858.568 823.891,859.143 825.697,859.689 827.502,860.269 829.308,860.822 831.113,861.362 832.919,861.879 834.724,862.465 836.53,862.983 838.336,863.509 840.141,864.011 841.947,864.509 843.752,865.046 845.558,865.541 847.363,866.059 849.169,866.56 850.974,867.057 852.78,867.543 854.585,868.083 856.391,868.55 858.196,869.051 860.002,869.508 861.807,870.015 863.613,870.477 865.418,870.944 867.224,871.421 869.029,871.849 870.835,872.309 872.64,872.734 874.446,873.195 876.251,873.654 878.057,874.072 879.863,874.527 881.668,875.006 883.474,875.428 885.279,875.855 887.085,876.238 888.89,876.609 890.696,877.004 892.501,877.394 894.307,877.763 896.112,878.121 897.918,878.467 899.723,878.801 901.529,879.133 903.334,879.465 905.14,879.807 906.945,880.134 908.751,880.442 910.556,880.751 912.362,881.052 914.167,881.319 915.973,881.598 917.779,881.883 919.584,882.153 921.39,882.401 923.195,882.657 925.001,882.894 926.806,883.159 928.612,883.363 930.417,883.585 932.223,883.837 934.028,884.067 935.834,884.318 937.639,884.534 939.445,884.757 941.25,884.984 943.056,885.206 944.861,885.409 946.667,885.626 948.472,885.835 950.278,886.041 952.083,886.258 953.889,886.446 955.694,886.671 957.5,886.865 959.306,887.041 961.111,887.224 962.917,887.449 964.722,887.65 966.528,887.886 968.333,888.076 970.139,888.293 971.944,888.498 973.75,888.698 975.555,888.877 977.361,889.085 979.166,889.296 980.972,889.462 982.777,889.659 984.583,889.887 986.388,890.107 988.194,890.313 989.999,890.506 991.805,890.72 993.61,890.946 995.416,891.149 997.221,891.363 999.027,891.575 1000.83,891.798 1002.64,892.01 1004.44,892.192 1006.25,892.406 1008.05,892.641 1009.86,892.812 1011.67,893.034 1013.47,893.213 1015.28,893.418 1017.08,893.643 1018.89,893.868 1020.69,894.077 1022.5,894.277 1024.3,894.483 1026.11,894.689 1027.92,894.888 1029.72,895.066 1031.53,895.285 1033.33,895.483 1035.14,895.655 1036.94,895.852 1038.75,896.04 1040.55,896.232 1042.36,896.427 1044.17,896.605 1045.97,896.787 1047.78,896.969 1049.58,897.164 1051.39,897.361 1053.19,897.545 1055,897.727 1056.8,897.946 1058.61,898.139 1060.41,898.329 1062.22,898.498 1064.03,898.681 1065.83,898.863 1067.64,899.04 1069.44,899.245 1071.25,899.447 1073.05,899.618 1074.86,899.793 1076.66,899.956 1078.47,900.136 1080.28,900.332 1082.08,900.526 1083.89,900.701 1085.69,900.889 1087.5,901.065 1089.3,901.264 1091.11,901.472 1092.91,901.652 1094.72,901.845 1096.53,902.025 1098.33,902.189 1100.14,902.361 1101.94,902.522 1103.75,902.728 1105.55,902.882 1107.36,903.072 1109.16,903.254 1110.97,903.426 1112.77,903.611 1114.58,903.767 1116.39,903.958 1118.19,904.154 1120,904.32 1121.8,904.505 1123.61,904.677 1125.41,904.852 1127.22,905.025 1129.02,905.22 1130.83,905.379 1132.64,905.565 1134.44,905.744 1136.25,905.905 1138.05,906.091 1139.86,906.262 1141.66,906.43 1143.47,906.616 1145.27,906.805 1147.08,907.002 1148.89,907.17 1150.69,907.348 1152.5,907.536 1154.3,907.71 1156.11,907.856 1157.91,908.019 1159.72,908.169 1161.52,908.352 1163.33,908.521 1165.14,908.688 1166.94,908.874 1168.75,909.039 1170.55,909.197 1172.36,909.392 1174.16,909.587 1175.97,909.766 1177.77,909.932 1179.58,910.1 1181.38,910.284 1183.19,910.446 1185,910.623 1186.8,910.829 1188.61,911.046 1190.41,911.209 1192.22,911.383 1194.02,911.547 1195.83,911.721 1197.63,911.884 1199.44,912.04 1201.25,912.225 1203.05,912.407 1204.86,912.576 1206.66,912.779 1208.47,912.953 1210.27,913.135 1212.08,913.326 1213.88,913.507 1215.69,913.69 1217.5,913.872 1219.3,914.082 1221.11,914.274 1222.91,914.49 1224.72,914.7 1226.52,914.857 1228.33,915.025 1230.13,915.205 1231.94,915.403 1233.74,915.561 1235.55,915.722 1237.36,915.907 1239.16,916.094 1240.97,916.272 1242.77,916.438 1244.58,916.624 1246.38,916.822 1248.19,916.983 1249.99,917.174 1251.8,917.365 1253.61,917.548 1255.41,917.739 1257.22,917.944 1259.02,918.111 1260.83,918.276 1262.63,918.466 1264.44,918.658 1266.24,918.826 1268.05,918.997 1269.86,919.169 1271.66,919.349 1273.47,919.532 1275.27,919.727 1277.08,919.918 1278.88,920.076 1280.69,920.262 1282.49,920.452 1284.3,920.639 1286.11,920.838 1287.91,921.03 1289.72,921.212 1291.52,921.397 1293.33,921.559 1295.13,921.747 1296.94,921.942 1298.74,922.109 1300.55,922.274 1302.35,922.453 1304.16,922.627 1305.97,922.795 1307.77,922.98 1309.58,923.149 1311.38,923.323 1313.19,923.499 1314.99,923.692 1316.8,923.867 1318.6,924.049 1320.41,924.214 1322.22,924.396 1324.02,924.591 1325.83,924.765 1327.63,924.924 1329.44,925.116 1331.24,925.299 1333.05,925.48 1334.85,925.637 1336.66,925.79 1338.47,925.976 1340.27,926.166 1342.08,926.351 1343.88,926.517 1345.69,926.714 1347.49,926.882 1349.3,927.051 1351.1,927.228 1352.91,927.406 1354.71,927.567 1356.52,927.742 1358.33,927.918 1360.13,928.101 1361.94,928.294 1363.74,928.482 1365.55,928.669 1367.35,928.851 1369.16,929.029 1370.96,929.192 1372.77,929.375 1374.58,929.551 1376.38,929.722 1378.19,929.891 1379.99,930.078 1381.8,930.256 1383.6,930.448 1385.41,930.648 1387.21,930.82 1389.02,930.985 1390.83,931.166 1392.63,931.337 1394.44,931.47 1396.24,931.646 1398.05,931.816 1399.85,931.993 1401.66,932.128 1403.46,932.311 1405.27,932.475 1407.08,932.665 1408.88,932.82 1410.69,932.988 1412.49,933.15 1414.3,933.306 1416.1,933.472 1417.91,933.642 1419.71,933.82 1421.52,933.996 1423.32,934.161 1425.13,934.329 1426.94,934.497 1428.74,934.63 1430.55,934.795 1432.35,934.967 1434.16,935.127 1435.96,935.3 1437.77,935.467 1439.57,935.637 1441.38,935.814 1443.19,935.976 1444.99,936.12 1446.8,936.279 1448.6,936.429 1450.41,936.621 1452.21,936.774 1454.02,936.926 1455.82,937.081 1457.63,937.237 1459.44,937.404 1461.24,937.574 1463.05,937.742 1464.85,937.905 1466.66,938.074 1468.46,938.243 1470.27,938.414 1472.07,938.575 1473.88,938.733 1475.68,938.898 1477.49,939.066 1479.3,939.235 1481.1,939.411 1482.91,939.578 1484.71,939.756 1486.52,939.92 1488.32,940.103 1490.13,940.279 1491.93,940.45 1493.74,940.629 1495.55,940.811 1497.35,940.963 1499.16,941.122 1500.96,941.289 1502.77,941.453 1504.57,941.617 1506.38,941.791 1508.18,941.962 1509.99,942.126 1511.8,942.296 1513.6,942.469 1515.41,942.636 1517.21,942.783 1519.02,942.961 1520.82,943.129 1522.63,943.299 1524.43,943.45 1526.24,943.614 1528.05,943.799 1529.85,943.974 1531.66,944.127 1533.46,944.281 1535.27,944.44 1537.07,944.583 1538.88,944.742 1540.68,944.912 1542.49,945.071 1544.29,945.239 1546.1,945.382 1547.91,945.531 1549.71,945.677 1551.52,945.842 1553.32,945.994 1555.13,946.152 1556.93,946.342 1558.74,946.494 1560.54,946.651 1562.35,946.794 1564.16,946.939 1565.96,947.093 1567.77,947.218 1569.57,947.373 1571.38,947.533 1573.18,947.693 1574.99,947.846 1576.79,947.983 1578.6,948.136 1580.41,948.29 1582.21,948.465 1584.02,948.611 1585.82,948.752 1587.63,948.913 1589.43,949.058 1591.24,949.201 1593.04,949.35 1594.85,949.485 1596.65,949.64 1598.46,949.804 1600.27,949.946 1602.07,950.1 1603.88,950.275 1605.68,950.424 1607.49,950.582 1609.29,950.742 1611.1,950.905 1612.9,951.068 1614.71,951.222 1616.52,951.37 1618.32,951.511 1620.13,951.674 1621.93,951.817 1623.74,951.972 1625.54,952.105 1627.35,952.247 1629.15,952.388 1630.96,952.551 1632.77,952.703 1634.57,952.857 1636.38,953.002 1638.18,953.167 1639.99,953.323 1641.79,953.481 1643.6,953.665 1645.4,953.828 1647.21,953.974 1649.02,954.11 1650.82,954.258 1652.63,954.422 1654.43,954.579 1656.24,954.72 1658.04,954.85 1659.85,955.002 1661.65,955.146 1663.46,955.306 1665.26,955.473 1667.07,955.611 1668.88,955.776 1670.68,955.923 1672.49,956.077 1674.29,956.219 1676.1,956.354 1677.9,956.486 1679.71,956.632 1681.51,956.787 1683.32,956.946 1685.13,957.096 1686.93,957.229 1688.74,957.387 1690.54,957.542 1692.35,957.696 1694.15,957.835 1695.96,958.006 1697.76,958.171 1699.57,958.328 1701.38,958.476 1703.18,958.622 1704.99,958.765 1706.79,958.921 1708.6,959.071 1710.4,959.233 1712.21,959.373 1714.01,959.524 1715.82,959.672 1717.62,959.835 1719.43,959.989 1721.24,960.163 1723.04,960.311 1724.85,960.463 1726.65,960.62 1728.46,960.779 1730.26,960.92 1732.07,961.093 1733.87,961.249 1735.68,961.404 1737.49,961.546 1739.29,961.69 1741.1,961.864 1742.9,962.003 1744.71,962.135 1746.51,962.271 1748.32,962.435 1750.12,962.573 1751.93,962.725 1753.74,962.881 1755.54,963.046 1757.35,963.168 1759.15,963.335 1760.96,963.471 1762.76,963.612 1764.57,963.769 1766.37,963.926 1768.18,964.076 1769.99,964.219 1771.79,964.362 1773.6,964.502 1775.4,964.654 1777.21,964.813 1779.01,964.965 1780.82,965.102 1782.62,965.26 1784.43,965.403 1786.23,965.561 1788.04,965.716 1789.85,965.853 1791.65,965.994 1793.46,966.134 1795.26,966.304 1797.07,966.461 1798.87,966.599 1800.68,966.747 1802.48,966.931 1804.29,967.086 1806.1,967.239 1807.9,967.388 1809.71,967.561 1811.51,967.708 1813.32,967.839 1815.12,967.97 1816.93,968.128 1818.73,968.274 1820.54,968.44 1822.35,968.581 1824.15,968.732 1825.96,968.893 1827.76,969.054 1829.57,969.189 1831.37,969.361 1833.18,969.511 1834.98,969.645 1836.79,969.836 1838.59,969.985 1840.4,970.145 1842.21,970.291 1844.01,970.454 1845.82,970.607 1847.62,970.762 1849.43,970.921 1851.23,971.059 1853.04,971.229 1854.84,971.381 1856.65,971.532 1858.46,971.675 1860.26,971.842 1862.07,972.002 1863.87,972.144 1865.68,972.316 1867.48,972.481 1869.29,972.634 1871.09,972.775 1872.9,972.95 1874.71,973.122 1876.51,973.275 1878.32,973.426 1880.12,973.577 1881.93,973.748 1883.73,973.918 1885.54,974.088 1887.34,974.235 1889.15,974.378 1890.96,974.54 1892.76,974.7 1894.57,974.873 1896.37,975.008 1898.18,975.183 1899.98,975.345 1901.79,975.524 1903.59,975.681 1905.4,975.864 1907.2,976.02 1909.01,976.184 1910.82,976.354 1912.62,976.534 1914.43,976.675 1916.23,976.832 1918.04,977.015 1919.84,977.175 1921.65,977.343 1923.45,977.519 1925.26,977.691 1927.07,977.832 1928.87,978.002 1930.68,978.179 1932.48,978.347 1934.29,978.527 1936.09,978.671 1937.9,978.842 1939.7,979.012 1941.51,979.189 1943.32,979.365 1945.12,979.556 1946.93,979.719 1948.73,979.892 1950.54,980.038 1952.34,980.241 1954.15,980.401 1955.95,980.574 1957.76,980.775 1959.56,980.96 1961.37,981.139 1963.18,981.348 1964.98,981.52 1966.79,981.721 1968.59,981.911 1970.4,982.099 1972.2,982.289 1974.01,982.471 1975.81,982.666 1977.62,982.868 1979.43,983.067 1981.23,983.277 1983.04,983.458 1984.84,983.657 1986.65,983.85 1988.45,984.055 1990.26,984.261 1992.06,984.453 1993.87,984.658 1995.68,984.846 1997.48,985.033 1999.29,985.268 2001.09,985.452 2002.9,985.67 2004.7,985.878 2006.51,986.1 2008.31,986.304 2010.12,986.517 2011.93,986.729 2013.73,986.949 2015.54,987.216 2017.34,987.434 2019.15,987.671 2020.95,987.869 2022.76,988.109 2024.56,988.345 2026.37,988.587 2028.17,988.824 2029.98,989.079 2031.79,989.302 2033.59,989.558 2035.4,989.799 2037.2,990.066 2039.01,990.318 2040.81,990.607 2042.62,990.85 2044.42,991.126 2046.23,991.425 2048.04,991.681 2049.84,991.97 2051.65,992.269 2053.45,992.577 2055.26,992.888 2057.06,993.174 2058.87,993.536 2060.67,993.855 2062.48,994.179 2064.29,994.511 2066.09,994.874 2067.9,995.268 2069.7,995.678 2071.51,996.08 2073.31,996.477 2075.12,996.917 2076.92,997.397 2078.73,997.869 2080.54,998.342 2082.34,998.849 2084.15,999.388 2085.95,999.984 2087.76,1000.66 2089.56,1001.37 2091.37,1002.17 2093.17,1003.22 2094.98,1004.56 2096.78,1006.43 2098.59,1013.95 "/>
<polyline clip-path="url(#clip512)" style="stroke:#0000ff; stroke-linecap:round; stroke-linejoin:round; stroke-width:6; stroke-opacity:1; fill:none" points="293.068,75.4005 293.068,374.092 294.873,412.924 296.679,430.967 298.484,443.463 300.29,453.236 302.095,461.526 303.901,468.671 305.706,474.959 307.512,480.444 309.317,485.407 311.123,489.975 312.928,494.145 314.734,498.029 316.54,501.692 318.345,505.065 320.151,508.256 321.956,511.425 323.762,514.465 325.567,517.317 327.373,520.218 329.178,522.969 330.984,525.692 332.789,528.176 334.595,530.75 336.4,533.199 338.206,535.634 340.011,537.917 341.817,540.117 343.622,542.329 345.428,544.468 347.233,546.564 349.039,548.708 350.844,550.826 352.65,552.81 354.455,554.761 356.261,556.686 358.067,558.649 359.872,560.586 361.678,562.374 363.483,564.313 365.289,566.119 367.094,567.961 368.9,569.749 370.705,571.517 372.511,573.203 374.316,574.876 376.122,576.571 377.927,578.251 379.733,579.963 381.538,581.596 383.344,583.17 385.149,584.751 386.955,586.297 388.76,587.866 390.566,589.431 392.371,590.953 394.177,592.532 395.983,594.028 397.788,595.487 399.594,596.967 401.399,598.418 403.205,599.855 405.01,601.266 406.816,602.678 408.621,604.127 410.427,605.48 412.232,606.819 414.038,608.145 415.843,609.456 417.649,610.786 419.454,612.159 421.26,613.519 423.065,614.856 424.871,616.266 426.676,617.636 428.482,619.008 430.287,620.268 432.093,621.653 433.898,623.022 435.704,624.367 437.51,625.771 439.315,627.098 441.121,628.473 442.926,629.864 444.732,631.185 446.537,632.483 448.343,633.842 450.148,635.208 451.954,636.601 453.759,637.954 455.565,639.295 457.37,640.627 459.176,641.998 460.981,643.303 462.787,644.665 464.592,645.948 466.398,647.228 468.203,648.477 470.009,649.757 471.814,651.02 473.62,652.299 475.425,653.514 477.231,654.745 479.037,655.998 480.842,657.229 482.648,658.399 484.453,659.555 486.259,660.744 488.064,661.858 489.87,662.982 491.675,664.122 493.481,665.2 495.286,666.233 497.092,667.309 498.897,668.364 500.703,669.511 502.508,670.596 504.314,671.631 506.119,672.68 507.925,673.657 509.73,674.679 511.536,675.733 513.341,676.708 515.147,677.736 516.953,678.713 518.758,679.702 520.564,680.683 522.369,681.737 524.175,682.755 525.98,683.737 527.786,684.72 529.591,685.795 531.397,686.748 533.202,687.782 535.008,688.794 536.813,689.836 538.619,690.832 540.424,691.845 542.23,692.842 544.035,693.865 545.841,694.866 547.646,695.84 549.452,696.881 551.257,697.848 553.063,698.837 554.868,699.764 556.674,700.749 558.48,701.684 560.285,702.607 562.091,703.581 563.896,704.539 565.702,705.49 567.507,706.423 569.313,707.378 571.118,708.365 572.924,709.317 574.729,710.269 576.535,711.284 578.34,712.212 580.146,713.132 581.951,714.133 583.757,715.062 585.562,716.024 587.368,716.985 589.173,717.896 590.979,718.795 592.784,719.763 594.59,720.671 596.395,721.61 598.201,722.48 600.007,723.331 601.812,724.198 603.618,725.072 605.423,726.001 607.229,726.891 609.034,727.754 610.84,728.645 612.645,729.486 614.451,730.312 616.256,731.162 618.062,732.055 619.867,732.909 621.673,733.808 623.478,734.652 625.284,735.57 627.089,736.51 628.895,737.377 630.7,738.318 632.506,739.282 634.311,740.285 636.117,741.238 637.923,742.216 639.728,743.181 641.534,744.172 643.339,745.127 645.145,746.139 646.95,747.089 648.756,748.065 650.561,749.081 652.367,750.05 654.172,751.067 655.978,752.047 657.783,753.038 659.589,754.064 661.394,755.105 663.2,756.176 665.005,757.197 666.811,758.269 668.616,759.299 670.422,760.293 672.227,761.318 674.033,762.311 675.838,763.333 677.644,764.336 679.45,765.317 681.255,766.307 683.061,767.279 684.866,768.217 686.672,769.193 688.477,770.183 690.283,771.171 692.088,772.156 693.894,773.116 695.699,774.079 697.505,775.029 699.31,775.999 701.116,776.933 702.921,777.852 704.727,778.803 706.532,779.762 708.338,780.68 710.143,781.631 711.949,782.567 713.754,783.461 715.56,784.441 717.366,785.412 719.171,786.378 720.977,787.305 722.782,788.191 724.588,789.147 726.393,790.094 728.199,791.052 730.004,791.971 731.81,792.93 733.615,793.923 735.421,794.886 737.226,795.818 739.032,796.726 740.837,797.638 742.643,798.618 744.448,799.537 746.254,800.441 748.059,801.432 749.865,802.396 751.67,803.365 753.476,804.286 755.281,805.24 757.087,806.19 758.893,807.154 760.698,808.158 762.504,809.091 764.309,810.076 766.115,811.004 767.92,811.97 769.726,812.965 771.531,813.898 773.337,814.854 775.142,815.841 776.948,816.736 778.753,817.642 780.559,818.542 782.364,819.505 784.17,820.429 785.975,821.347 787.781,822.276 789.586,823.232 791.392,824.176 793.197,825.097 795.003,826.048 796.808,826.994 798.614,827.938 800.42,828.871 802.225,829.784 804.031,830.687 805.836,831.594 807.642,832.482 809.447,833.382 811.253,834.238 813.058,835.124 814.864,836.041 816.669,836.875 818.475,837.689 820.28,838.56 822.086,839.391 823.891,840.248 825.697,841.075 827.502,841.903 829.308,842.724 831.113,843.522 832.919,844.324 834.724,845.184 836.53,846.001 838.336,846.787 840.141,847.54 841.947,848.285 843.752,849.018 845.558,849.766 847.363,850.502 849.169,851.21 850.974,851.972 852.78,852.731 854.585,853.441 856.391,854.151 858.196,854.858 860.002,855.583 861.807,856.282 863.613,857.027 865.418,857.699 867.224,858.356 869.029,859.048 870.835,859.713 872.64,860.365 874.446,860.999 876.251,861.628 878.057,862.305 879.863,863.009 881.668,863.628 883.474,864.277 885.279,864.903 887.085,865.529 888.89,866.15 890.696,866.763 892.501,867.316 894.307,867.891 896.112,868.428 897.918,869.026 899.723,869.559 901.529,870.101 903.334,870.613 905.14,871.14 906.945,871.663 908.751,872.176 910.556,872.709 912.362,873.22 914.167,873.716 915.973,874.19 917.779,874.655 919.584,875.155 921.39,875.602 923.195,876.042 925.001,876.485 926.806,876.917 928.612,877.363 930.417,877.791 932.223,878.212 934.028,878.663 935.834,879.108 937.639,879.491 939.445,879.903 941.25,880.279 943.056,880.675 944.861,881.064 946.667,881.459 948.472,881.864 950.278,882.291 952.083,882.673 953.889,883.052 955.694,883.42 957.5,883.793 959.306,884.15 961.111,884.536 962.917,884.905 964.722,885.299 966.528,885.679 968.333,886.07 970.139,886.454 971.944,886.848 973.75,887.239 975.555,887.646 977.361,887.985 979.166,888.376 980.972,888.778 982.777,889.148 984.583,889.552 986.388,889.917 988.194,890.309 989.999,890.699 991.805,891.066 993.61,891.472 995.416,891.852 997.222,892.251 999.027,892.644 1000.83,893.043 1002.64,893.417 1004.44,893.793 1006.25,894.159 1008.05,894.545 1009.86,894.919 1011.67,895.275 1013.47,895.596 1015.28,895.931 1017.08,896.263 1018.89,896.574 1020.69,896.899 1022.5,897.218 1024.3,897.519 1026.11,897.785 1027.92,898.092 1029.72,898.391 1031.53,898.66 1033.33,898.923 1035.14,899.201 1036.94,899.469 1038.75,899.727 1040.55,899.986 1042.36,900.228 1044.17,900.455 1045.97,900.676 1047.78,900.891 1049.58,901.132 1051.39,901.364 1053.19,901.595 1055,901.791 1056.8,902.001 1058.61,902.214 1060.41,902.424 1062.22,902.621 1064.03,902.848 1065.83,903.037 1067.64,903.242 1069.44,903.421 1071.25,903.629 1073.05,903.82 1074.86,904.045 1076.66,904.231 1078.47,904.435 1080.28,904.65 1082.08,904.867 1083.89,905.067 1085.69,905.264 1087.5,905.445 1089.3,905.647 1091.11,905.828 1092.91,906.013 1094.72,906.196 1096.53,906.365 1098.33,906.554 1100.14,906.745 1101.94,906.927 1103.75,907.113 1105.55,907.297 1107.36,907.479 1109.16,907.671 1110.97,907.856 1112.77,908.052 1114.58,908.233 1116.39,908.415 1118.19,908.609 1120,908.802 1121.8,908.983 1123.61,909.187 1125.41,909.369 1127.22,909.544 1129.02,909.716 1130.83,909.923 1132.64,910.081 1134.44,910.243 1136.25,910.433 1138.05,910.633 1139.86,910.803 1141.66,911.002 1143.47,911.176 1145.27,911.355 1147.08,911.537 1148.89,911.728 1150.69,911.932 1152.5,912.123 1154.3,912.306 1156.11,912.498 1157.91,912.691 1159.72,912.863 1161.52,913.047 1163.33,913.227 1165.14,913.407 1166.94,913.583 1168.75,913.744 1170.55,913.937 1172.36,914.119 1174.16,914.322 1175.97,914.514 1177.77,914.686 1179.58,914.891 1181.38,915.066 1183.19,915.256 1185,915.448 1186.8,915.641 1188.61,915.826 1190.41,915.979 1192.22,916.159 1194.02,916.329 1195.83,916.508 1197.63,916.682 1199.44,916.859 1201.25,917.041 1203.05,917.195 1204.86,917.358 1206.66,917.551 1208.47,917.746 1210.27,917.928 1212.08,918.107 1213.88,918.3 1215.69,918.487 1217.5,918.666 1219.3,918.853 1221.11,919.038 1222.91,919.217 1224.72,919.384 1226.52,919.547 1228.33,919.725 1230.13,919.905 1231.94,920.076 1233.74,920.253 1235.55,920.418 1237.36,920.596 1239.16,920.765 1240.97,920.934 1242.77,921.092 1244.58,921.271 1246.38,921.462 1248.19,921.635 1249.99,921.829 1251.8,922.022 1253.61,922.206 1255.41,922.373 1257.22,922.545 1259.02,922.723 1260.83,922.9 1262.63,923.069 1264.44,923.225 1266.24,923.377 1268.05,923.553 1269.86,923.729 1271.66,923.929 1273.47,924.102 1275.27,924.266 1277.08,924.444 1278.88,924.634 1280.69,924.813 1282.49,924.984 1284.3,925.181 1286.11,925.375 1287.91,925.56 1289.72,925.719 1291.52,925.903 1293.33,926.095 1295.13,926.289 1296.94,926.446 1298.74,926.619 1300.55,926.826 1302.35,926.97 1304.16,927.172 1305.97,927.351 1307.77,927.541 1309.58,927.713 1311.38,927.874 1313.19,928.044 1314.99,928.2 1316.8,928.377 1318.6,928.557 1320.41,928.716 1322.22,928.902 1324.02,929.094 1325.83,929.269 1327.63,929.43 1329.44,929.594 1331.24,929.756 1333.05,929.917 1334.85,930.088 1336.66,930.265 1338.47,930.422 1340.27,930.622 1342.08,930.808 1343.88,930.992 1345.69,931.165 1347.49,931.307 1349.3,931.484 1351.1,931.646 1352.91,931.818 1354.71,931.995 1356.52,932.174 1358.33,932.329 1360.13,932.516 1361.94,932.692 1363.74,932.877 1365.55,933.034 1367.35,933.206 1369.16,933.361 1370.96,933.512 1372.77,933.692 1374.58,933.864 1376.38,934.032 1378.19,934.21 1379.99,934.359 1381.8,934.526 1383.6,934.749 1385.41,934.908 1387.21,935.092 1389.02,935.228 1390.83,935.41 1392.63,935.558 1394.44,935.728 1396.24,935.921 1398.05,936.089 1399.85,936.281 1401.66,936.471 1403.46,936.66 1405.27,936.825 1407.08,936.999 1408.88,937.191 1410.69,937.36 1412.49,937.535 1414.3,937.698 1416.1,937.878 1417.91,938.03 1419.71,938.183 1421.52,938.344 1423.32,938.502 1425.13,938.653 1426.94,938.811 1428.74,938.953 1430.55,939.119 1432.35,939.306 1434.16,939.46 1435.96,939.636 1437.77,939.812 1439.57,939.979 1441.38,940.162 1443.19,940.343 1444.99,940.534 1446.8,940.716 1448.6,940.899 1450.41,941.068 1452.21,941.23 1454.02,941.433 1455.82,941.602 1457.63,941.775 1459.44,941.941 1461.24,942.118 1463.05,942.297 1464.85,942.479 1466.66,942.662 1468.46,942.814 1470.27,942.971 1472.07,943.137 1473.88,943.304 1475.68,943.467 1477.49,943.66 1479.3,943.842 1481.1,943.995 1482.91,944.155 1484.71,944.327 1486.52,944.494 1488.32,944.647 1490.13,944.809 1491.93,944.975 1493.74,945.148 1495.55,945.304 1497.35,945.495 1499.16,945.662 1500.96,945.807 1502.77,945.999 1504.57,946.164 1506.38,946.35 1508.18,946.521 1509.99,946.693 1511.8,946.856 1513.6,947.012 1515.41,947.169 1517.21,947.336 1519.02,947.502 1520.82,947.668 1522.63,947.826 1524.43,947.981 1526.24,948.129 1528.05,948.297 1529.85,948.466 1531.66,948.645 1533.46,948.811 1535.27,948.979 1537.07,949.138 1538.88,949.312 1540.68,949.49 1542.49,949.661 1544.29,949.833 1546.1,950.005 1547.91,950.186 1549.71,950.337 1551.52,950.499 1553.32,950.66 1555.13,950.805 1556.93,950.982 1558.74,951.144 1560.54,951.297 1562.35,951.469 1564.16,951.617 1565.96,951.775 1567.77,951.975 1569.57,952.128 1571.38,952.289 1573.18,952.43 1574.99,952.597 1576.79,952.781 1578.6,952.938 1580.41,953.1 1582.21,953.274 1584.02,953.439 1585.82,953.608 1587.63,953.777 1589.43,953.939 1591.24,954.096 1593.04,954.269 1594.85,954.43 1596.65,954.603 1598.46,954.762 1600.27,954.947 1602.07,955.119 1603.88,955.301 1605.68,955.454 1607.49,955.615 1609.29,955.765 1611.1,955.934 1612.9,956.106 1614.71,956.277 1616.52,956.463 1618.32,956.651 1620.13,956.818 1621.93,956.965 1623.74,957.148 1625.54,957.345 1627.35,957.509 1629.15,957.647 1630.96,957.807 1632.77,957.973 1634.57,958.128 1636.38,958.299 1638.18,958.451 1639.99,958.61 1641.79,958.764 1643.6,958.905 1645.4,959.062 1647.21,959.211 1649.02,959.364 1650.82,959.526 1652.63,959.706 1654.43,959.862 1656.24,960.014 1658.04,960.185 1659.85,960.337 1661.65,960.49 1663.46,960.657 1665.26,960.811 1667.07,960.969 1668.88,961.127 1670.68,961.278 1672.49,961.417 1674.29,961.56 1676.1,961.728 1677.9,961.892 1679.71,962.032 1681.51,962.18 1683.32,962.335 1685.13,962.476 1686.93,962.623 1688.74,962.777 1690.54,962.931 1692.35,963.09 1694.15,963.233 1695.96,963.365 1697.76,963.509 1699.57,963.659 1701.38,963.789 1703.18,963.929 1704.99,964.075 1706.79,964.217 1708.6,964.346 1710.4,964.488 1712.21,964.629 1714.01,964.782 1715.82,964.939 1717.62,965.098 1719.43,965.244 1721.24,965.388 1723.04,965.526 1724.85,965.685 1726.65,965.855 1728.46,966.016 1730.26,966.154 1732.07,966.293 1733.87,966.444 1735.68,966.591 1737.49,966.744 1739.29,966.894 1741.1,967.032 1742.9,967.173 1744.71,967.33 1746.51,967.499 1748.32,967.658 1750.12,967.803 1751.93,967.949 1753.74,968.1 1755.54,968.234 1757.35,968.376 1759.15,968.512 1760.96,968.654 1762.76,968.801 1764.57,968.957 1766.37,969.108 1768.18,969.269 1769.99,969.422 1771.79,969.567 1773.6,969.71 1775.4,969.863 1777.21,970.013 1779.01,970.149 1780.82,970.303 1782.62,970.434 1784.43,970.594 1786.23,970.75 1788.04,970.896 1789.85,971.06 1791.65,971.195 1793.46,971.346 1795.26,971.496 1797.07,971.665 1798.87,971.827 1800.68,971.983 1802.48,972.128 1804.29,972.284 1806.1,972.426 1807.9,972.602 1809.71,972.747 1811.51,972.909 1813.32,973.035 1815.12,973.198 1816.93,973.345 1818.73,973.508 1820.54,973.655 1822.35,973.798 1824.15,973.941 1825.96,974.102 1827.76,974.241 1829.57,974.392 1831.37,974.548 1833.18,974.698 1834.98,974.836 1836.79,974.99 1838.59,975.125 1840.4,975.283 1842.21,975.422 1844.01,975.582 1845.82,975.731 1847.62,975.876 1849.43,976.045 1851.23,976.194 1853.04,976.354 1854.84,976.496 1856.65,976.643 1858.46,976.805 1860.26,976.97 1862.07,977.128 1863.87,977.296 1865.68,977.44 1867.48,977.602 1869.29,977.754 1871.09,977.918 1872.9,978.057 1874.71,978.21 1876.51,978.36 1878.32,978.505 1880.12,978.688 1881.93,978.841 1883.73,978.997 1885.54,979.161 1887.34,979.308 1889.15,979.435 1890.96,979.599 1892.76,979.743 1894.57,979.903 1896.37,980.064 1898.18,980.227 1899.98,980.386 1901.79,980.551 1903.59,980.72 1905.4,980.885 1907.2,981.04 1909.01,981.192 1910.82,981.337 1912.62,981.516 1914.43,981.699 1916.23,981.856 1918.04,982.023 1919.84,982.188 1921.65,982.373 1923.45,982.54 1925.26,982.705 1927.07,982.875 1928.87,983.054 1930.68,983.239 1932.48,983.416 1934.29,983.579 1936.09,983.738 1937.9,983.909 1939.7,984.073 1941.51,984.268 1943.32,984.426 1945.12,984.642 1946.93,984.82 1948.73,984.975 1950.54,985.145 1952.34,985.315 1954.15,985.502 1955.95,985.669 1957.76,985.866 1959.56,986.038 1961.37,986.223 1963.18,986.404 1964.98,986.566 1966.79,986.745 1968.59,986.917 1970.4,987.097 1972.2,987.283 1974.01,987.484 1975.81,987.677 1977.62,987.853 1979.43,988.067 1981.23,988.232 1983.04,988.399 1984.84,988.57 1986.65,988.772 1988.45,988.984 1990.26,989.151 1992.06,989.348 1993.87,989.54 1995.68,989.71 1997.48,989.895 1999.29,990.092 2001.09,990.287 2002.9,990.486 2004.7,990.659 2006.51,990.865 2008.31,991.065 2010.12,991.279 2011.93,991.479 2013.73,991.686 2015.54,991.876 2017.34,992.067 2019.15,992.284 2020.95,992.521 2022.76,992.737 2024.56,992.93 2026.37,993.147 2028.17,993.373 2029.98,993.605 2031.79,993.855 2033.59,994.102 2035.4,994.332 2037.2,994.559 2039.01,994.792 2040.81,995.031 2042.62,995.28 2044.42,995.525 2046.23,995.788 2048.04,996.071 2049.84,996.364 2051.65,996.642 2053.45,996.912 2055.26,997.196 2057.06,997.471 2058.87,997.785 2060.67,998.073 2062.48,998.402 2064.29,998.709 2066.09,999.049 2067.9,999.362 2069.7,999.679 2071.51,1000.03 2073.31,1000.38 2075.12,1000.76 2076.92,1001.18 2078.73,1001.56 2080.53,1001.96 2082.34,1002.4 2084.15,1002.89 2085.95,1003.4 2087.76,1003.98 2089.56,1004.56 2091.37,1005.2 2093.17,1006.03 2094.98,1007.07 2096.78,1008.61 2098.59,1013.95 "/>
<polyline clip-path="url(#clip512)" style="stroke:#808080; stroke-linecap:round; stroke-linejoin:round; stroke-width:4; stroke-opacity:1; fill:none" stroke-dasharray="16, 10" points="293.068,75.4005 304.823,81.5109 413.514,138.011 478.833,171.965 534.059,200.673 594.051,231.857 649.357,260.607 708.652,291.429 777.351,327.14 838.402,358.876 891.938,386.705 950.307,417.047 1009.02,447.568 1073.94,481.314 1135.71,513.422 1199.93,546.807 1254,574.91 1320,609.221 1380.47,640.652 1436.31,669.681 1492.88,699.086 1556.28,732.041 1613.72,761.903 1679.5,796.094 1740.4,827.751 1800.44,858.962 1858.73,889.265 1918.49,920.329 1983.97,954.363 2079.08,1003.8 2098.59,1013.95 "/>
<path clip-path="url(#clip510)" d="M1835.21 235.926 L2088.96 235.926 L2088.96 80.4061 L1835.21 80.4061  Z" fill="#ffffff" fill-rule="evenodd" fill-opacity="1"/>
<polyline clip-path="url(#clip510)" style="stroke:#000000; stroke-linecap:round; stroke-linejoin:round; stroke-width:4; stroke-opacity:1; fill:none" points="1835.21,235.926 2088.96,235.926 2088.96,80.4061 1835.21,80.4061 1835.21,235.926 "/>
<polyline clip-path="url(#clip510)" style="stroke:#ff0000; stroke-linecap:round; stroke-linejoin:round; stroke-width:6; stroke-opacity:1; fill:none" points="1856.48,132.246 1984.07,132.246 "/>
<path clip-path="url(#clip510)" d="M2014.94 150.197 Q2005.33 150.197 2005.33 136.447 Q2005.33 131.008 2008.92 123.6 L2013.51 123.6 Q2010.2 131.008 2010.2 136.563 Q2010.2 146.586 2015.33 146.586 Q2020.03 146.586 2020.03 134.133 L2023.97 134.133 Q2023.97 146.586 2028.67 146.586 Q2033.81 146.586 2033.81 136.563 Q2033.81 131.008 2030.5 123.6 L2035.08 123.6 Q2038.67 131.008 2038.67 136.447 Q2038.67 150.197 2029.06 150.197 Q2022.77 150.197 2022 143.276 Q2021.05 150.197 2014.94 150.197 Z" fill="#000000" fill-rule="nonzero" fill-opacity="1" /><path clip-path="url(#clip510)" d="M2047.79 145.591 L2055.43 145.591 L2055.43 119.225 L2047.12 120.892 L2047.12 116.633 L2055.38 114.966 L2060.06 114.966 L2060.06 145.591 L2067.7 145.591 L2067.7 149.526 L2047.79 149.526 L2047.79 145.591 Z" fill="#000000" fill-rule="nonzero" fill-opacity="1" /><polyline clip-path="url(#clip510)" style="stroke:#0000ff; stroke-linecap:round; stroke-linejoin:round; stroke-width:6; stroke-opacity:1; fill:none" points="1856.48,184.086 1984.07,184.086 "/>
<path clip-path="url(#clip510)" d="M2014.94 202.037 Q2005.33 202.037 2005.33 188.287 Q2005.33 182.848 2008.92 175.44 L2013.51 175.44 Q2010.2 182.848 2010.2 188.403 Q2010.2 198.426 2015.33 198.426 Q2020.03 198.426 2020.03 185.973 L2023.97 185.973 Q2023.97 198.426 2028.67 198.426 Q2033.81 198.426 2033.81 188.403 Q2033.81 182.848 2030.5 175.44 L2035.08 175.44 Q2038.67 182.848 2038.67 188.287 Q2038.67 202.037 2029.06 202.037 Q2022.77 202.037 2022 195.116 Q2021.05 202.037 2014.94 202.037 Z" fill="#000000" fill-rule="nonzero" fill-opacity="1" /><path clip-path="url(#clip510)" d="M2051.01 197.431 L2067.33 197.431 L2067.33 201.366 L2045.38 201.366 L2045.38 197.431 Q2048.04 194.676 2052.63 190.047 Q2057.23 185.394 2058.41 184.051 Q2060.66 181.528 2061.54 179.792 Q2062.44 178.033 2062.44 176.343 Q2062.44 173.588 2060.5 171.852 Q2058.58 170.116 2055.47 170.116 Q2053.27 170.116 2050.82 170.88 Q2048.39 171.644 2045.61 173.195 L2045.61 168.473 Q2048.44 167.338 2050.89 166.76 Q2053.34 166.181 2055.38 166.181 Q2060.75 166.181 2063.95 168.866 Q2067.14 171.551 2067.14 176.042 Q2067.14 178.172 2066.33 180.093 Q2065.54 181.991 2063.44 184.584 Q2062.86 185.255 2059.76 188.473 Q2056.65 191.667 2051.01 197.431 Z" fill="#000000" fill-rule="nonzero" fill-opacity="1" /></svg>
