<?xml version="1.0" encoding="utf-8"?>
<svg xmlns="http://www.w3.org/2000/svg" xmlns:xlink="http://www.w3.org/1999/xlink" width="500" height="300" viewBox="0 0 2000 1200">
<defs>
  <clipPath id="clip730">
    <rect x="0" y="0" width="2000" height="1200"/>
  </clipPath>
</defs>
<path clip-path="url(#clip730)" d="M0 1200 L2000 1200 L2000 0 L0 0  Z" fill="#ffffff" fill-rule="evenodd" fill-opacity="1"/>
<defs>
  <clipPath id="clip731">
    <rect x="400" y="0" width="1401" height="1200"/>
  </clipPath>
</defs>
<path clip-path="url(#clip730)" d="M240.79 1035.39 L1952.76 1035.39 L1952.76 47.2441 L240.79 47.2441  Z" fill="#ffffff" fill-rule="evenodd" fill-opacity="1"/>
<defs>
  <clipPath id="clip732">
    <rect x="240" y="47" width="1713" height="989"/>
  </clipPath>
</defs>
<polyline clip-path="url(#clip732)" style="stroke:#000000; stroke-linecap:round; stroke-linejoin:round; stroke-width:2; stroke-opacity:0.1; fill:none" points="289.242,1035.39 289.242,47.2441 "/>
<polyline clip-path="url(#clip732)" style="stroke:#000000; stroke-linecap:round; stroke-linejoin:round; stroke-width:2; stroke-opacity:0.1; fill:none" points="693.007,1035.39 693.007,47.2441 "/>
<polyline clip-path="url(#clip732)" style="stroke:#000000; stroke-linecap:round; stroke-linejoin:round; stroke-width:2; stroke-opacity:0.1; fill:none" points="1096.77,1035.39 1096.77,47.2441 "/>
<polyline clip-path="url(#clip732)" style="stroke:#000000; stroke-linecap:round; stroke-linejoin:round; stroke-width:2; stroke-opacity:0.1; fill:none" points="1500.54,1035.39 1500.54,47.2441 "/>
<polyline clip-path="url(#clip732)" style="stroke:#000000; stroke-linecap:round; stroke-linejoin:round; stroke-width:2; stroke-opacity:0.1; fill:none" points="1904.3,1035.39 1904.3,47.2441 "/>
<polyline clip-path="url(#clip730)" style="stroke:#000000; stroke-linecap:round; stroke-linejoin:round; stroke-width:4; stroke-opacity:1; fill:none" points="240.79,1035.39 1952.76,1035.39 "/>
<polyline clip-path="url(#clip730)" style="stroke:#000000; stroke-linecap:round; stroke-linejoin:round; stroke-width:4; stroke-opacity:1; fill:none" points="289.242,1035.39 289.242,1016.49 "/>
<polyline clip-path="url(#clip730)" style="stroke:#000000; stroke-linecap:round; stroke-linejoin:round; stroke-width:4; stroke-opacity:1; fill:none" points="693.007,1035.39 693.007,1016.49 "/>
<polyline clip-path="url(#clip730)" style="stroke:#000000; stroke-linecap:round; stroke-linejoin:round; stroke-width:4; stroke-opacity:1; fill:none" points="1096.77,1035.39 1096.77,1016.49 "/>
<polyline clip-path="url(#clip730)" style="stroke:#000000; stroke-linecap:round; stroke-linejoin:round; stroke-width:4; stroke-opacity:1; fill:none" points="1500.54,1035.39 1500.54,1016.49 "/>
<polyline clip-path="url(#clip730)" style="stroke:#000000; stroke-linecap:round; stroke-linejoin:round; stroke-width:4; stroke-opacity:1; fill:none" points="1904.3,1035.39 1904.3,1016.49 "/>
<path clip-path="url(#clip730)" d="M251.545 1063.11 Q247.934 1063.11 246.106 1066.67 Q244.3 1070.21 244.3 1077.34 Q244.3 1084.45 246.106 1088.01 Q247.934 1091.56 251.545 1091.56 Q255.18 1091.56 256.985 1088.01 Q258.814 1084.45 258.814 1077.34 Q258.814 1070.21 256.985 1066.67 Q255.18 1063.11 251.545 1063.11 M251.545 1059.4 Q257.355 1059.4 260.411 1064.01 Q263.49 1068.59 263.49 1077.34 Q263.49 1086.07 260.411 1090.68 Q257.355 1095.26 251.545 1095.26 Q245.735 1095.26 242.656 1090.68 Q239.601 1086.07 239.601 1077.34 Q239.601 1068.59 242.656 1064.01 Q245.735 1059.4 251.545 1059.4 Z" fill="#000000" fill-rule="nonzero" fill-opacity="1" /><path clip-path="url(#clip730)" d="M271.707 1088.71 L276.591 1088.71 L276.591 1094.59 L271.707 1094.59 L271.707 1088.71 Z" fill="#000000" fill-rule="nonzero" fill-opacity="1" /><path clip-path="url(#clip730)" d="M296.777 1063.11 Q293.165 1063.11 291.337 1066.67 Q289.531 1070.21 289.531 1077.34 Q289.531 1084.45 291.337 1088.01 Q293.165 1091.56 296.777 1091.56 Q300.411 1091.56 302.216 1088.01 Q304.045 1084.45 304.045 1077.34 Q304.045 1070.21 302.216 1066.67 Q300.411 1063.11 296.777 1063.11 M296.777 1059.4 Q302.587 1059.4 305.642 1064.01 Q308.721 1068.59 308.721 1077.34 Q308.721 1086.07 305.642 1090.68 Q302.587 1095.26 296.777 1095.26 Q290.966 1095.26 287.888 1090.68 Q284.832 1086.07 284.832 1077.34 Q284.832 1068.59 287.888 1064.01 Q290.966 1059.4 296.777 1059.4 Z" fill="#000000" fill-rule="nonzero" fill-opacity="1" /><path clip-path="url(#clip730)" d="M326.938 1063.11 Q323.327 1063.11 321.499 1066.67 Q319.693 1070.21 319.693 1077.34 Q319.693 1084.45 321.499 1088.01 Q323.327 1091.56 326.938 1091.56 Q330.573 1091.56 332.378 1088.01 Q334.207 1084.45 334.207 1077.34 Q334.207 1070.21 332.378 1066.67 Q330.573 1063.11 326.938 1063.11 M326.938 1059.4 Q332.749 1059.4 335.804 1064.01 Q338.883 1068.59 338.883 1077.34 Q338.883 1086.07 335.804 1090.68 Q332.749 1095.26 326.938 1095.26 Q321.128 1095.26 318.05 1090.68 Q314.994 1086.07 314.994 1077.34 Q314.994 1068.59 318.05 1064.01 Q321.128 1059.4 326.938 1059.4 Z" fill="#000000" fill-rule="nonzero" fill-opacity="1" /><path clip-path="url(#clip730)" d="M655.809 1063.11 Q652.197 1063.11 650.369 1066.67 Q648.563 1070.21 648.563 1077.34 Q648.563 1084.45 650.369 1088.01 Q652.197 1091.56 655.809 1091.56 Q659.443 1091.56 661.248 1088.01 Q663.077 1084.45 663.077 1077.34 Q663.077 1070.21 661.248 1066.67 Q659.443 1063.11 655.809 1063.11 M655.809 1059.4 Q661.619 1059.4 664.674 1064.01 Q667.753 1068.59 667.753 1077.34 Q667.753 1086.07 664.674 1090.68 Q661.619 1095.26 655.809 1095.26 Q649.998 1095.26 646.92 1090.68 Q643.864 1086.07 643.864 1077.34 Q643.864 1068.59 646.92 1064.01 Q649.998 1059.4 655.809 1059.4 Z" fill="#000000" fill-rule="nonzero" fill-opacity="1" /><path clip-path="url(#clip730)" d="M675.97 1088.71 L680.855 1088.71 L680.855 1094.59 L675.97 1094.59 L675.97 1088.71 Z" fill="#000000" fill-rule="nonzero" fill-opacity="1" /><path clip-path="url(#clip730)" d="M695.068 1090.65 L711.387 1090.65 L711.387 1094.59 L689.443 1094.59 L689.443 1090.65 Q692.105 1087.9 696.688 1083.27 Q701.294 1078.62 702.475 1077.27 Q704.72 1074.75 705.6 1073.01 Q706.503 1071.25 706.503 1069.56 Q706.503 1066.81 704.558 1065.07 Q702.637 1063.34 699.535 1063.34 Q697.336 1063.34 694.882 1064.1 Q692.452 1064.87 689.674 1066.42 L689.674 1061.69 Q692.498 1060.56 694.952 1059.98 Q697.406 1059.4 699.443 1059.4 Q704.813 1059.4 708.007 1062.09 Q711.202 1064.77 711.202 1069.26 Q711.202 1071.39 710.392 1073.31 Q709.605 1075.21 707.498 1077.81 Q706.919 1078.48 703.818 1081.69 Q700.716 1084.89 695.068 1090.65 Z" fill="#000000" fill-rule="nonzero" fill-opacity="1" /><path clip-path="url(#clip730)" d="M721.248 1060.03 L739.604 1060.03 L739.604 1063.96 L725.53 1063.96 L725.53 1072.44 Q726.549 1072.09 727.567 1071.93 Q728.586 1071.74 729.604 1071.74 Q735.391 1071.74 738.771 1074.91 Q742.151 1078.08 742.151 1083.5 Q742.151 1089.08 738.678 1092.18 Q735.206 1095.26 728.887 1095.26 Q726.711 1095.26 724.442 1094.89 Q722.197 1094.52 719.79 1093.78 L719.79 1089.08 Q721.873 1090.21 724.095 1090.77 Q726.317 1091.32 728.794 1091.32 Q732.799 1091.32 735.137 1089.22 Q737.475 1087.11 737.475 1083.5 Q737.475 1079.89 735.137 1077.78 Q732.799 1075.68 728.794 1075.68 Q726.919 1075.68 725.044 1076.09 Q723.192 1076.51 721.248 1077.39 L721.248 1060.03 Z" fill="#000000" fill-rule="nonzero" fill-opacity="1" /><path clip-path="url(#clip730)" d="M1059.08 1063.11 Q1055.47 1063.11 1053.64 1066.67 Q1051.83 1070.21 1051.83 1077.34 Q1051.83 1084.45 1053.64 1088.01 Q1055.47 1091.56 1059.08 1091.56 Q1062.71 1091.56 1064.52 1088.01 Q1066.34 1084.45 1066.34 1077.34 Q1066.34 1070.21 1064.52 1066.67 Q1062.71 1063.11 1059.08 1063.11 M1059.08 1059.4 Q1064.89 1059.4 1067.94 1064.01 Q1071.02 1068.59 1071.02 1077.34 Q1071.02 1086.07 1067.94 1090.68 Q1064.89 1095.26 1059.08 1095.26 Q1053.27 1095.26 1050.19 1090.68 Q1047.13 1086.07 1047.13 1077.34 Q1047.13 1068.59 1050.19 1064.01 Q1053.27 1059.4 1059.08 1059.4 Z" fill="#000000" fill-rule="nonzero" fill-opacity="1" /><path clip-path="url(#clip730)" d="M1079.24 1088.71 L1084.12 1088.71 L1084.12 1094.59 L1079.24 1094.59 L1079.24 1088.71 Z" fill="#000000" fill-rule="nonzero" fill-opacity="1" /><path clip-path="url(#clip730)" d="M1094.35 1060.03 L1112.71 1060.03 L1112.71 1063.96 L1098.64 1063.96 L1098.64 1072.44 Q1099.65 1072.09 1100.67 1071.93 Q1101.69 1071.74 1102.71 1071.74 Q1108.5 1071.74 1111.88 1074.91 Q1115.26 1078.08 1115.26 1083.5 Q1115.26 1089.08 1111.78 1092.18 Q1108.31 1095.26 1101.99 1095.26 Q1099.82 1095.26 1097.55 1094.89 Q1095.3 1094.52 1092.9 1093.78 L1092.9 1089.08 Q1094.98 1090.21 1097.2 1090.77 Q1099.42 1091.32 1101.9 1091.32 Q1105.9 1091.32 1108.24 1089.22 Q1110.58 1087.11 1110.58 1083.5 Q1110.58 1079.89 1108.24 1077.78 Q1105.9 1075.68 1101.9 1075.68 Q1100.03 1075.68 1098.15 1076.09 Q1096.3 1076.51 1094.35 1077.39 L1094.35 1060.03 Z" fill="#000000" fill-rule="nonzero" fill-opacity="1" /><path clip-path="url(#clip730)" d="M1134.47 1063.11 Q1130.86 1063.11 1129.03 1066.67 Q1127.22 1070.21 1127.22 1077.34 Q1127.22 1084.45 1129.03 1088.01 Q1130.86 1091.56 1134.47 1091.56 Q1138.1 1091.56 1139.91 1088.01 Q1141.74 1084.45 1141.74 1077.34 Q1141.74 1070.21 1139.91 1066.67 Q1138.1 1063.11 1134.47 1063.11 M1134.47 1059.4 Q1140.28 1059.4 1143.34 1064.01 Q1146.41 1068.59 1146.41 1077.34 Q1146.41 1086.07 1143.34 1090.68 Q1140.28 1095.26 1134.47 1095.26 Q1128.66 1095.26 1125.58 1090.68 Q1122.53 1086.07 1122.53 1077.34 Q1122.53 1068.59 1125.58 1064.01 Q1128.66 1059.4 1134.47 1059.4 Z" fill="#000000" fill-rule="nonzero" fill-opacity="1" /><path clip-path="url(#clip730)" d="M1463.34 1063.11 Q1459.73 1063.11 1457.9 1066.67 Q1456.09 1070.21 1456.09 1077.34 Q1456.09 1084.45 1457.9 1088.01 Q1459.73 1091.56 1463.34 1091.56 Q1466.97 1091.56 1468.78 1088.01 Q1470.61 1084.45 1470.61 1077.34 Q1470.61 1070.21 1468.78 1066.67 Q1466.97 1063.11 1463.34 1063.11 M1463.34 1059.4 Q1469.15 1059.4 1472.21 1064.01 Q1475.28 1068.59 1475.28 1077.34 Q1475.28 1086.07 1472.21 1090.68 Q1469.15 1095.26 1463.34 1095.26 Q1457.53 1095.26 1454.45 1090.68 Q1451.4 1086.07 1451.4 1077.34 Q1451.4 1068.59 1454.45 1064.01 Q1457.53 1059.4 1463.34 1059.4 Z" fill="#000000" fill-rule="nonzero" fill-opacity="1" /><path clip-path="url(#clip730)" d="M1483.5 1088.71 L1488.39 1088.71 L1488.39 1094.59 L1483.5 1094.59 L1483.5 1088.71 Z" fill="#000000" fill-rule="nonzero" fill-opacity="1" /><path clip-path="url(#clip730)" d="M1497.39 1060.03 L1519.61 1060.03 L1519.61 1062.02 L1507.07 1094.59 L1502.18 1094.59 L1513.99 1063.96 L1497.39 1063.96 L1497.39 1060.03 Z" fill="#000000" fill-rule="nonzero" fill-opacity="1" /><path clip-path="url(#clip730)" d="M1528.78 1060.03 L1547.14 1060.03 L1547.14 1063.96 L1533.06 1063.96 L1533.06 1072.44 Q1534.08 1072.09 1535.1 1071.93 Q1536.12 1071.74 1537.14 1071.74 Q1542.92 1071.74 1546.3 1074.91 Q1549.68 1078.08 1549.68 1083.5 Q1549.68 1089.08 1546.21 1092.18 Q1542.74 1095.26 1536.42 1095.26 Q1534.24 1095.26 1531.97 1094.89 Q1529.73 1094.52 1527.32 1093.78 L1527.32 1089.08 Q1529.4 1090.21 1531.63 1090.77 Q1533.85 1091.32 1536.33 1091.32 Q1540.33 1091.32 1542.67 1089.22 Q1545.01 1087.11 1545.01 1083.5 Q1545.01 1079.89 1542.67 1077.78 Q1540.33 1075.68 1536.33 1075.68 Q1534.45 1075.68 1532.58 1076.09 Q1530.72 1076.51 1528.78 1077.39 L1528.78 1060.03 Z" fill="#000000" fill-rule="nonzero" fill-opacity="1" /><path clip-path="url(#clip730)" d="M1856.38 1090.65 L1864.01 1090.65 L1864.01 1064.29 L1855.7 1065.95 L1855.7 1061.69 L1863.97 1060.03 L1868.64 1060.03 L1868.64 1090.65 L1876.28 1090.65 L1876.28 1094.59 L1856.38 1094.59 L1856.38 1090.65 Z" fill="#000000" fill-rule="nonzero" fill-opacity="1" /><path clip-path="url(#clip730)" d="M1885.73 1088.71 L1890.61 1088.71 L1890.61 1094.59 L1885.73 1094.59 L1885.73 1088.71 Z" fill="#000000" fill-rule="nonzero" fill-opacity="1" /><path clip-path="url(#clip730)" d="M1910.8 1063.11 Q1907.19 1063.11 1905.36 1066.67 Q1903.55 1070.21 1903.55 1077.34 Q1903.55 1084.45 1905.36 1088.01 Q1907.19 1091.56 1910.8 1091.56 Q1914.43 1091.56 1916.24 1088.01 Q1918.07 1084.45 1918.07 1077.34 Q1918.07 1070.21 1916.24 1066.67 Q1914.43 1063.11 1910.8 1063.11 M1910.8 1059.4 Q1916.61 1059.4 1919.66 1064.01 Q1922.74 1068.59 1922.74 1077.34 Q1922.74 1086.07 1919.66 1090.68 Q1916.61 1095.26 1910.8 1095.26 Q1904.99 1095.26 1901.91 1090.68 Q1898.85 1086.07 1898.85 1077.34 Q1898.85 1068.59 1901.91 1064.01 Q1904.99 1059.4 1910.8 1059.4 Z" fill="#000000" fill-rule="nonzero" fill-opacity="1" /><path clip-path="url(#clip730)" d="M1940.96 1063.11 Q1937.35 1063.11 1935.52 1066.67 Q1933.71 1070.21 1933.71 1077.34 Q1933.71 1084.45 1935.52 1088.01 Q1937.35 1091.56 1940.96 1091.56 Q1944.59 1091.56 1946.4 1088.01 Q1948.23 1084.45 1948.23 1077.34 Q1948.23 1070.21 1946.4 1066.67 Q1944.59 1063.11 1940.96 1063.11 M1940.96 1059.4 Q1946.77 1059.4 1949.82 1064.01 Q1952.9 1068.59 1952.9 1077.34 Q1952.9 1086.07 1949.82 1090.68 Q1946.77 1095.26 1940.96 1095.26 Q1935.15 1095.26 1932.07 1090.68 Q1929.01 1086.07 1929.01 1077.34 Q1929.01 1068.59 1932.07 1064.01 Q1935.15 1059.4 1940.96 1059.4 Z" fill="#000000" fill-rule="nonzero" fill-opacity="1" /><path clip-path="url(#clip730)" d="M611.69 1132.02 L611.69 1149.87 L619.775 1149.87 Q624.262 1149.87 626.713 1147.55 Q629.164 1145.22 629.164 1140.93 Q629.164 1136.66 626.713 1134.34 Q624.262 1132.02 619.775 1132.02 L611.69 1132.02 M605.261 1126.73 L619.775 1126.73 Q627.764 1126.73 631.838 1130.36 Q635.944 1133.96 635.944 1140.93 Q635.944 1147.96 631.838 1151.56 Q627.764 1155.15 619.775 1155.15 L611.69 1155.15 L611.69 1174.25 L605.261 1174.25 L605.261 1126.73 Z" fill="#000000" fill-rule="nonzero" fill-opacity="1" /><path clip-path="url(#clip730)" d="M655.805 1142.71 Q651.094 1142.71 648.357 1146.4 Q645.619 1150.06 645.619 1156.46 Q645.619 1162.86 648.325 1166.55 Q651.062 1170.21 655.805 1170.21 Q660.483 1170.21 663.221 1166.52 Q665.958 1162.83 665.958 1156.46 Q665.958 1150.13 663.221 1146.43 Q660.483 1142.71 655.805 1142.71 M655.805 1137.74 Q663.443 1137.74 667.804 1142.71 Q672.164 1147.68 672.164 1156.46 Q672.164 1165.21 667.804 1170.21 Q663.443 1175.17 655.805 1175.17 Q648.134 1175.17 643.773 1170.21 Q639.445 1165.21 639.445 1156.46 Q639.445 1147.68 643.773 1142.71 Q648.134 1137.74 655.805 1137.74 Z" fill="#000000" fill-rule="nonzero" fill-opacity="1" /><path clip-path="url(#clip730)" d="M704.598 1139.65 L704.598 1145.19 Q702.115 1143.92 699.441 1143.28 Q696.768 1142.65 693.903 1142.65 Q689.543 1142.65 687.347 1143.98 Q685.182 1145.32 685.182 1147.99 Q685.182 1150.03 686.742 1151.21 Q688.301 1152.35 693.012 1153.4 L695.017 1153.85 Q701.256 1155.19 703.866 1157.64 Q706.507 1160.06 706.507 1164.42 Q706.507 1169.38 702.561 1172.28 Q698.646 1175.17 691.771 1175.17 Q688.906 1175.17 685.787 1174.6 Q682.7 1174.06 679.262 1172.95 L679.262 1166.9 Q682.509 1168.59 685.66 1169.45 Q688.811 1170.27 691.898 1170.27 Q696.036 1170.27 698.264 1168.87 Q700.492 1167.44 700.492 1164.86 Q700.492 1162.48 698.869 1161.2 Q697.277 1159.93 691.834 1158.75 L689.797 1158.27 Q684.355 1157.13 681.936 1154.77 Q679.517 1152.39 679.517 1148.25 Q679.517 1143.22 683.082 1140.48 Q686.646 1137.74 693.203 1137.74 Q696.45 1137.74 699.314 1138.22 Q702.179 1138.7 704.598 1139.65 Z" fill="#000000" fill-rule="nonzero" fill-opacity="1" /><path clip-path="url(#clip730)" d="M721.626 1128.48 L721.626 1138.6 L733.689 1138.6 L733.689 1143.16 L721.626 1143.16 L721.626 1162.51 Q721.626 1166.87 722.804 1168.11 Q724.013 1169.35 727.673 1169.35 L733.689 1169.35 L733.689 1174.25 L727.673 1174.25 Q720.894 1174.25 718.316 1171.74 Q715.738 1169.19 715.738 1162.51 L715.738 1143.16 L711.441 1143.16 L711.441 1138.6 L715.738 1138.6 L715.738 1128.48 L721.626 1128.48 Z" fill="#000000" fill-rule="nonzero" fill-opacity="1" /><path clip-path="url(#clip730)" d="M771.883 1154.96 L771.883 1157.83 L744.956 1157.83 Q745.338 1163.88 748.585 1167.06 Q751.863 1170.21 757.688 1170.21 Q761.062 1170.21 764.213 1169.38 Q767.395 1168.55 770.515 1166.9 L770.515 1172.44 Q767.364 1173.77 764.053 1174.47 Q760.743 1175.17 757.338 1175.17 Q748.808 1175.17 743.81 1170.21 Q738.845 1165.24 738.845 1156.78 Q738.845 1148.03 743.556 1142.9 Q748.298 1137.74 756.319 1137.74 Q763.512 1137.74 767.682 1142.39 Q771.883 1147.01 771.883 1154.96 M766.027 1153.25 Q765.963 1148.44 763.321 1145.57 Q760.711 1142.71 756.383 1142.71 Q751.481 1142.71 748.521 1145.48 Q745.593 1148.25 745.147 1153.28 L766.027 1153.25 Z" fill="#000000" fill-rule="nonzero" fill-opacity="1" /><path clip-path="url(#clip730)" d="M802.152 1144.08 Q801.165 1143.51 799.988 1143.25 Q798.842 1142.96 797.442 1142.96 Q792.476 1142.96 789.803 1146.21 Q787.161 1149.43 787.161 1155.47 L787.161 1174.25 L781.273 1174.25 L781.273 1138.6 L787.161 1138.6 L787.161 1144.14 Q789.007 1140.9 791.967 1139.34 Q794.927 1137.74 799.16 1137.74 Q799.765 1137.74 800.497 1137.84 Q801.229 1137.9 802.12 1138.06 L802.152 1144.08 Z" fill="#000000" fill-rule="nonzero" fill-opacity="1" /><path clip-path="url(#clip730)" d="M808.295 1138.6 L814.152 1138.6 L814.152 1174.25 L808.295 1174.25 L808.295 1138.6 M808.295 1124.73 L814.152 1124.73 L814.152 1132.14 L808.295 1132.14 L808.295 1124.73 Z" fill="#000000" fill-rule="nonzero" fill-opacity="1" /><path clip-path="url(#clip730)" d="M840.219 1142.71 Q835.508 1142.71 832.771 1146.4 Q830.034 1150.06 830.034 1156.46 Q830.034 1162.86 832.739 1166.55 Q835.477 1170.21 840.219 1170.21 Q844.898 1170.21 847.635 1166.52 Q850.372 1162.83 850.372 1156.46 Q850.372 1150.13 847.635 1146.43 Q844.898 1142.71 840.219 1142.71 M840.219 1137.74 Q847.858 1137.74 852.218 1142.71 Q856.579 1147.68 856.579 1156.46 Q856.579 1165.21 852.218 1170.21 Q847.858 1175.17 840.219 1175.17 Q832.548 1175.17 828.188 1170.21 Q823.859 1165.21 823.859 1156.46 Q823.859 1147.68 828.188 1142.71 Q832.548 1137.74 840.219 1137.74 Z" fill="#000000" fill-rule="nonzero" fill-opacity="1" /><path clip-path="url(#clip730)" d="M886.943 1144.08 Q885.957 1143.51 884.779 1143.25 Q883.633 1142.96 882.233 1142.96 Q877.267 1142.96 874.594 1146.21 Q871.952 1149.43 871.952 1155.47 L871.952 1174.25 L866.064 1174.25 L866.064 1138.6 L871.952 1138.6 L871.952 1144.14 Q873.798 1140.9 876.758 1139.34 Q879.718 1137.74 883.951 1137.74 Q884.556 1137.74 885.288 1137.84 Q886.02 1137.9 886.912 1138.06 L886.943 1144.08 Z" fill="#000000" fill-rule="nonzero" fill-opacity="1" /><path clip-path="url(#clip730)" d="M920.491 1132.02 L920.491 1149.87 L928.575 1149.87 Q933.063 1149.87 935.514 1147.55 Q937.965 1145.22 937.965 1140.93 Q937.965 1136.66 935.514 1134.34 Q933.063 1132.02 928.575 1132.02 L920.491 1132.02 M914.061 1126.73 L928.575 1126.73 Q936.564 1126.73 940.638 1130.36 Q944.744 1133.96 944.744 1140.93 Q944.744 1147.96 940.638 1151.56 Q936.564 1155.15 928.575 1155.15 L920.491 1155.15 L920.491 1174.25 L914.061 1174.25 L914.061 1126.73 Z" fill="#000000" fill-rule="nonzero" fill-opacity="1" /><path clip-path="url(#clip730)" d="M972.626 1144.08 Q971.639 1143.51 970.461 1143.25 Q969.316 1142.96 967.915 1142.96 Q962.95 1142.96 960.276 1146.21 Q957.635 1149.43 957.635 1155.47 L957.635 1174.25 L951.746 1174.25 L951.746 1138.6 L957.635 1138.6 L957.635 1144.14 Q959.481 1140.9 962.441 1139.34 Q965.401 1137.74 969.634 1137.74 Q970.239 1137.74 970.971 1137.84 Q971.703 1137.9 972.594 1138.06 L972.626 1144.08 Z" fill="#000000" fill-rule="nonzero" fill-opacity="1" /><path clip-path="url(#clip730)" d="M991.15 1142.71 Q986.439 1142.71 983.702 1146.4 Q980.965 1150.06 980.965 1156.46 Q980.965 1162.86 983.67 1166.55 Q986.408 1170.21 991.15 1170.21 Q995.829 1170.21 998.566 1166.52 Q1001.3 1162.83 1001.3 1156.46 Q1001.3 1150.13 998.566 1146.43 Q995.829 1142.71 991.15 1142.71 M991.15 1137.74 Q998.789 1137.74 1003.15 1142.71 Q1007.51 1147.68 1007.51 1156.46 Q1007.51 1165.21 1003.15 1170.21 Q998.789 1175.17 991.15 1175.17 Q983.479 1175.17 979.119 1170.21 Q974.79 1165.21 974.79 1156.46 Q974.79 1147.68 979.119 1142.71 Q983.479 1137.74 991.15 1137.74 Z" fill="#000000" fill-rule="nonzero" fill-opacity="1" /><path clip-path="url(#clip730)" d="M1042.81 1156.46 Q1042.81 1150 1040.13 1146.34 Q1037.49 1142.65 1032.85 1142.65 Q1028.2 1142.65 1025.52 1146.34 Q1022.88 1150 1022.88 1156.46 Q1022.88 1162.92 1025.52 1166.61 Q1028.2 1170.27 1032.85 1170.27 Q1037.49 1170.27 1040.13 1166.61 Q1042.81 1162.92 1042.81 1156.46 M1022.88 1144.01 Q1024.73 1140.83 1027.53 1139.3 Q1030.36 1137.74 1034.28 1137.74 Q1040.77 1137.74 1044.81 1142.9 Q1048.89 1148.06 1048.89 1156.46 Q1048.89 1164.86 1044.81 1170.02 Q1040.77 1175.17 1034.28 1175.17 Q1030.36 1175.17 1027.53 1173.65 Q1024.73 1172.09 1022.88 1168.9 L1022.88 1174.25 L1016.99 1174.25 L1016.99 1124.73 L1022.88 1124.73 L1022.88 1144.01 Z" fill="#000000" fill-rule="nonzero" fill-opacity="1" /><path clip-path="url(#clip730)" d="M1074.8 1156.33 Q1067.7 1156.33 1064.96 1157.96 Q1062.22 1159.58 1062.22 1163.49 Q1062.22 1166.61 1064.26 1168.46 Q1066.33 1170.27 1069.86 1170.27 Q1074.73 1170.27 1077.66 1166.84 Q1080.62 1163.37 1080.62 1157.64 L1080.62 1156.33 L1074.8 1156.33 M1086.48 1153.91 L1086.48 1174.25 L1080.62 1174.25 L1080.62 1168.84 Q1078.61 1172.09 1075.62 1173.65 Q1072.63 1175.17 1068.3 1175.17 Q1062.83 1175.17 1059.58 1172.12 Q1056.37 1169.03 1056.37 1163.88 Q1056.37 1157.86 1060.38 1154.8 Q1064.42 1151.75 1072.41 1151.75 L1080.62 1151.75 L1080.62 1151.18 Q1080.62 1147.13 1077.95 1144.94 Q1075.3 1142.71 1070.5 1142.71 Q1067.44 1142.71 1064.55 1143.44 Q1061.65 1144.17 1058.98 1145.64 L1058.98 1140.23 Q1062.19 1138.99 1065.21 1138.38 Q1068.24 1137.74 1071.1 1137.74 Q1078.84 1137.74 1082.66 1141.75 Q1086.48 1145.77 1086.48 1153.91 Z" fill="#000000" fill-rule="nonzero" fill-opacity="1" /><path clip-path="url(#clip730)" d="M1124.13 1156.46 Q1124.13 1150 1121.46 1146.34 Q1118.81 1142.65 1114.17 1142.65 Q1109.52 1142.65 1106.85 1146.34 Q1104.2 1150 1104.2 1156.46 Q1104.2 1162.92 1106.85 1166.61 Q1109.52 1170.27 1114.17 1170.27 Q1118.81 1170.27 1121.46 1166.61 Q1124.13 1162.92 1124.13 1156.46 M1104.2 1144.01 Q1106.05 1140.83 1108.85 1139.3 Q1111.68 1137.74 1115.6 1137.74 Q1122.09 1137.74 1126.13 1142.9 Q1130.21 1148.06 1130.21 1156.46 Q1130.21 1164.86 1126.13 1170.02 Q1122.09 1175.17 1115.6 1175.17 Q1111.68 1175.17 1108.85 1173.65 Q1106.05 1172.09 1104.2 1168.9 L1104.2 1174.25 L1098.32 1174.25 L1098.32 1124.73 L1104.2 1124.73 L1104.2 1144.01 Z" fill="#000000" fill-rule="nonzero" fill-opacity="1" /><path clip-path="url(#clip730)" d="M1139.92 1138.6 L1145.77 1138.6 L1145.77 1174.25 L1139.92 1174.25 L1139.92 1138.6 M1139.92 1124.73 L1145.77 1124.73 L1145.77 1132.14 L1139.92 1132.14 L1139.92 1124.73 Z" fill="#000000" fill-rule="nonzero" fill-opacity="1" /><path clip-path="url(#clip730)" d="M1158.03 1124.73 L1163.88 1124.73 L1163.88 1174.25 L1158.03 1174.25 L1158.03 1124.73 Z" fill="#000000" fill-rule="nonzero" fill-opacity="1" /><path clip-path="url(#clip730)" d="M1176.14 1138.6 L1181.99 1138.6 L1181.99 1174.25 L1176.14 1174.25 L1176.14 1138.6 M1176.14 1124.73 L1181.99 1124.73 L1181.99 1132.14 L1176.14 1132.14 L1176.14 1124.73 Z" fill="#000000" fill-rule="nonzero" fill-opacity="1" /><path clip-path="url(#clip730)" d="M1200.04 1128.48 L1200.04 1138.6 L1212.1 1138.6 L1212.1 1143.16 L1200.04 1143.16 L1200.04 1162.51 Q1200.04 1166.87 1201.22 1168.11 Q1202.43 1169.35 1206.09 1169.35 L1212.1 1169.35 L1212.1 1174.25 L1206.09 1174.25 Q1199.31 1174.25 1196.73 1171.74 Q1194.15 1169.19 1194.15 1162.51 L1194.15 1143.16 L1189.86 1143.16 L1189.86 1138.6 L1194.15 1138.6 L1194.15 1128.48 L1200.04 1128.48 Z" fill="#000000" fill-rule="nonzero" fill-opacity="1" /><path clip-path="url(#clip730)" d="M1234.64 1177.56 Q1232.16 1183.93 1229.8 1185.87 Q1227.45 1187.81 1223.5 1187.81 L1218.82 1187.81 L1218.82 1182.91 L1222.26 1182.91 Q1224.68 1182.91 1226.01 1181.76 Q1227.35 1180.62 1228.97 1176.35 L1230.02 1173.68 L1215.6 1138.6 L1221.81 1138.6 L1232.95 1166.49 L1244.09 1138.6 L1250.3 1138.6 L1234.64 1177.56 Z" fill="#000000" fill-rule="nonzero" fill-opacity="1" /><path clip-path="url(#clip730)" d="M1272.77 1126.73 L1312.97 1126.73 L1312.97 1132.14 L1296.1 1132.14 L1296.1 1174.25 L1289.64 1174.25 L1289.64 1132.14 L1272.77 1132.14 L1272.77 1126.73 Z" fill="#000000" fill-rule="nonzero" fill-opacity="1" /><path clip-path="url(#clip730)" d="M1348.55 1152.74 L1348.55 1174.25 L1342.7 1174.25 L1342.7 1152.93 Q1342.7 1147.87 1340.72 1145.35 Q1338.75 1142.84 1334.8 1142.84 Q1330.06 1142.84 1327.32 1145.86 Q1324.59 1148.88 1324.59 1154.1 L1324.59 1174.25 L1318.7 1174.25 L1318.7 1124.73 L1324.59 1124.73 L1324.59 1144.14 Q1326.69 1140.93 1329.52 1139.34 Q1332.38 1137.74 1336.11 1137.74 Q1342.25 1137.74 1345.4 1141.56 Q1348.55 1145.35 1348.55 1152.74 Z" fill="#000000" fill-rule="nonzero" fill-opacity="1" /><path clip-path="url(#clip730)" d="M1380.89 1144.08 Q1379.9 1143.51 1378.73 1143.25 Q1377.58 1142.96 1376.18 1142.96 Q1371.21 1142.96 1368.54 1146.21 Q1365.9 1149.43 1365.9 1155.47 L1365.9 1174.25 L1360.01 1174.25 L1360.01 1138.6 L1365.9 1138.6 L1365.9 1144.14 Q1367.75 1140.9 1370.71 1139.34 Q1373.67 1137.74 1377.9 1137.74 Q1378.5 1137.74 1379.24 1137.84 Q1379.97 1137.9 1380.86 1138.06 L1380.89 1144.08 Z" fill="#000000" fill-rule="nonzero" fill-opacity="1" /><path clip-path="url(#clip730)" d="M1416.09 1154.96 L1416.09 1157.83 L1389.17 1157.83 Q1389.55 1163.88 1392.79 1167.06 Q1396.07 1170.21 1401.9 1170.21 Q1405.27 1170.21 1408.42 1169.38 Q1411.6 1168.55 1414.72 1166.9 L1414.72 1172.44 Q1411.57 1173.77 1408.26 1174.47 Q1404.95 1175.17 1401.55 1175.17 Q1393.02 1175.17 1388.02 1170.21 Q1383.05 1165.24 1383.05 1156.78 Q1383.05 1148.03 1387.77 1142.9 Q1392.51 1137.74 1400.53 1137.74 Q1407.72 1137.74 1411.89 1142.39 Q1416.09 1147.01 1416.09 1154.96 M1410.24 1153.25 Q1410.17 1148.44 1407.53 1145.57 Q1404.92 1142.71 1400.59 1142.71 Q1395.69 1142.71 1392.73 1145.48 Q1389.8 1148.25 1389.36 1153.28 L1410.24 1153.25 Z" fill="#000000" fill-rule="nonzero" fill-opacity="1" /><path clip-path="url(#clip730)" d="M1448.43 1139.65 L1448.43 1145.19 Q1445.95 1143.92 1443.27 1143.28 Q1440.6 1142.65 1437.74 1142.65 Q1433.38 1142.65 1431.18 1143.98 Q1429.02 1145.32 1429.02 1147.99 Q1429.02 1150.03 1430.57 1151.21 Q1432.13 1152.35 1436.84 1153.4 L1438.85 1153.85 Q1445.09 1155.19 1447.7 1157.64 Q1450.34 1160.06 1450.34 1164.42 Q1450.34 1169.38 1446.39 1172.28 Q1442.48 1175.17 1435.6 1175.17 Q1432.74 1175.17 1429.62 1174.6 Q1426.53 1174.06 1423.1 1172.95 L1423.1 1166.9 Q1426.34 1168.59 1429.49 1169.45 Q1432.64 1170.27 1435.73 1170.27 Q1439.87 1170.27 1442.1 1168.87 Q1444.32 1167.44 1444.32 1164.86 Q1444.32 1162.48 1442.7 1161.2 Q1441.11 1159.93 1435.67 1158.75 L1433.63 1158.27 Q1428.19 1157.13 1425.77 1154.77 Q1423.35 1152.39 1423.35 1148.25 Q1423.35 1143.22 1426.91 1140.48 Q1430.48 1137.74 1437.04 1137.74 Q1440.28 1137.74 1443.15 1138.22 Q1446.01 1138.7 1448.43 1139.65 Z" fill="#000000" fill-rule="nonzero" fill-opacity="1" /><path clip-path="url(#clip730)" d="M1489.3 1152.74 L1489.3 1174.25 L1483.44 1174.25 L1483.44 1152.93 Q1483.44 1147.87 1481.47 1145.35 Q1479.5 1142.84 1475.55 1142.84 Q1470.81 1142.84 1468.07 1145.86 Q1465.33 1148.88 1465.33 1154.1 L1465.33 1174.25 L1459.44 1174.25 L1459.44 1124.73 L1465.33 1124.73 L1465.33 1144.14 Q1467.43 1140.93 1470.26 1139.34 Q1473.13 1137.74 1476.85 1137.74 Q1483 1137.74 1486.15 1141.56 Q1489.3 1145.35 1489.3 1152.74 Z" fill="#000000" fill-rule="nonzero" fill-opacity="1" /><path clip-path="url(#clip730)" d="M1514.79 1142.71 Q1510.08 1142.71 1507.35 1146.4 Q1504.61 1150.06 1504.61 1156.46 Q1504.61 1162.86 1507.31 1166.55 Q1510.05 1170.21 1514.79 1170.21 Q1519.47 1170.21 1522.21 1166.52 Q1524.95 1162.83 1524.95 1156.46 Q1524.95 1150.13 1522.21 1146.43 Q1519.47 1142.71 1514.79 1142.71 M1514.79 1137.74 Q1522.43 1137.74 1526.79 1142.71 Q1531.15 1147.68 1531.15 1156.46 Q1531.15 1165.21 1526.79 1170.21 Q1522.43 1175.17 1514.79 1175.17 Q1507.12 1175.17 1502.76 1170.21 Q1498.43 1165.21 1498.43 1156.46 Q1498.43 1147.68 1502.76 1142.71 Q1507.12 1137.74 1514.79 1137.74 Z" fill="#000000" fill-rule="nonzero" fill-opacity="1" /><path clip-path="url(#clip730)" d="M1540.86 1124.73 L1546.72 1124.73 L1546.72 1174.25 L1540.86 1174.25 L1540.86 1124.73 Z" fill="#000000" fill-rule="nonzero" fill-opacity="1" /><path clip-path="url(#clip730)" d="M1582.43 1144.01 L1582.43 1124.73 L1588.29 1124.73 L1588.29 1174.25 L1582.43 1174.25 L1582.43 1168.9 Q1580.58 1172.09 1577.75 1173.65 Q1574.95 1175.17 1571 1175.17 Q1564.54 1175.17 1560.47 1170.02 Q1556.42 1164.86 1556.42 1156.46 Q1556.42 1148.06 1560.47 1142.9 Q1564.54 1137.74 1571 1137.74 Q1574.95 1137.74 1577.75 1139.3 Q1580.58 1140.83 1582.43 1144.01 M1562.47 1156.46 Q1562.47 1162.92 1565.11 1166.61 Q1567.79 1170.27 1572.43 1170.27 Q1577.08 1170.27 1579.76 1166.61 Q1582.43 1162.92 1582.43 1156.46 Q1582.43 1150 1579.76 1146.34 Q1577.08 1142.65 1572.43 1142.65 Q1567.79 1142.65 1565.11 1146.34 Q1562.47 1150 1562.47 1156.46 Z" fill="#000000" fill-rule="nonzero" fill-opacity="1" /><polyline clip-path="url(#clip732)" style="stroke:#000000; stroke-linecap:round; stroke-linejoin:round; stroke-width:2; stroke-opacity:0.1; fill:none" points="240.79,1007.42 1952.76,1007.42 "/>
<polyline clip-path="url(#clip732)" style="stroke:#000000; stroke-linecap:round; stroke-linejoin:round; stroke-width:2; stroke-opacity:0.1; fill:none" points="240.79,774.369 1952.76,774.369 "/>
<polyline clip-path="url(#clip732)" style="stroke:#000000; stroke-linecap:round; stroke-linejoin:round; stroke-width:2; stroke-opacity:0.1; fill:none" points="240.79,541.316 1952.76,541.316 "/>
<polyline clip-path="url(#clip732)" style="stroke:#000000; stroke-linecap:round; stroke-linejoin:round; stroke-width:2; stroke-opacity:0.1; fill:none" points="240.79,308.263 1952.76,308.263 "/>
<polyline clip-path="url(#clip732)" style="stroke:#000000; stroke-linecap:round; stroke-linejoin:round; stroke-width:2; stroke-opacity:0.1; fill:none" points="240.79,75.2104 1952.76,75.2104 "/>
<polyline clip-path="url(#clip730)" style="stroke:#000000; stroke-linecap:round; stroke-linejoin:round; stroke-width:4; stroke-opacity:1; fill:none" points="240.79,1035.39 240.79,47.2441 "/>
<polyline clip-path="url(#clip730)" style="stroke:#000000; stroke-linecap:round; stroke-linejoin:round; stroke-width:4; stroke-opacity:1; fill:none" points="240.79,1007.42 259.688,1007.42 "/>
<polyline clip-path="url(#clip730)" style="stroke:#000000; stroke-linecap:round; stroke-linejoin:round; stroke-width:4; stroke-opacity:1; fill:none" points="240.79,774.369 259.688,774.369 "/>
<polyline clip-path="url(#clip730)" style="stroke:#000000; stroke-linecap:round; stroke-linejoin:round; stroke-width:4; stroke-opacity:1; fill:none" points="240.79,541.316 259.688,541.316 "/>
<polyline clip-path="url(#clip730)" style="stroke:#000000; stroke-linecap:round; stroke-linejoin:round; stroke-width:4; stroke-opacity:1; fill:none" points="240.79,308.263 259.688,308.263 "/>
<polyline clip-path="url(#clip730)" style="stroke:#000000; stroke-linecap:round; stroke-linejoin:round; stroke-width:4; stroke-opacity:1; fill:none" points="240.79,75.2104 259.688,75.2104 "/>
<path clip-path="url(#clip730)" d="M123.453 993.22 Q119.841 993.22 118.013 996.785 Q116.207 1000.33 116.207 1007.46 Q116.207 1014.56 118.013 1018.13 Q119.841 1021.67 123.453 1021.67 Q127.087 1021.67 128.892 1018.13 Q130.721 1014.56 130.721 1007.46 Q130.721 1000.33 128.892 996.785 Q127.087 993.22 123.453 993.22 M123.453 989.517 Q129.263 989.517 132.318 994.123 Q135.397 998.706 135.397 1007.46 Q135.397 1016.18 132.318 1020.79 Q129.263 1025.37 123.453 1025.37 Q117.642 1025.37 114.564 1020.79 Q111.508 1016.18 111.508 1007.46 Q111.508 998.706 114.564 994.123 Q117.642 989.517 123.453 989.517 Z" fill="#000000" fill-rule="nonzero" fill-opacity="1" /><path clip-path="url(#clip730)" d="M143.614 1018.82 L148.499 1018.82 L148.499 1024.7 L143.614 1024.7 L143.614 1018.82 Z" fill="#000000" fill-rule="nonzero" fill-opacity="1" /><path clip-path="url(#clip730)" d="M168.684 993.22 Q165.073 993.22 163.244 996.785 Q161.438 1000.33 161.438 1007.46 Q161.438 1014.56 163.244 1018.13 Q165.073 1021.67 168.684 1021.67 Q172.318 1021.67 174.124 1018.13 Q175.952 1014.56 175.952 1007.46 Q175.952 1000.33 174.124 996.785 Q172.318 993.22 168.684 993.22 M168.684 989.517 Q174.494 989.517 177.549 994.123 Q180.628 998.706 180.628 1007.46 Q180.628 1016.18 177.549 1020.79 Q174.494 1025.37 168.684 1025.37 Q162.874 1025.37 159.795 1020.79 Q156.739 1016.18 156.739 1007.46 Q156.739 998.706 159.795 994.123 Q162.874 989.517 168.684 989.517 Z" fill="#000000" fill-rule="nonzero" fill-opacity="1" /><path clip-path="url(#clip730)" d="M198.846 993.22 Q195.235 993.22 193.406 996.785 Q191.6 1000.33 191.6 1007.46 Q191.6 1014.56 193.406 1018.13 Q195.235 1021.67 198.846 1021.67 Q202.48 1021.67 204.285 1018.13 Q206.114 1014.56 206.114 1007.46 Q206.114 1000.33 204.285 996.785 Q202.48 993.22 198.846 993.22 M198.846 989.517 Q204.656 989.517 207.711 994.123 Q210.79 998.706 210.79 1007.46 Q210.79 1016.18 207.711 1020.79 Q204.656 1025.37 198.846 1025.37 Q193.035 1025.37 189.957 1020.79 Q186.901 1016.18 186.901 1007.46 Q186.901 998.706 189.957 994.123 Q193.035 989.517 198.846 989.517 Z" fill="#000000" fill-rule="nonzero" fill-opacity="1" /><path clip-path="url(#clip730)" d="M124.448 760.167 Q120.837 760.167 119.008 763.732 Q117.203 767.274 117.203 774.403 Q117.203 781.51 119.008 785.075 Q120.837 788.616 124.448 788.616 Q128.082 788.616 129.888 785.075 Q131.716 781.51 131.716 774.403 Q131.716 767.274 129.888 763.732 Q128.082 760.167 124.448 760.167 M124.448 756.464 Q130.258 756.464 133.314 761.07 Q136.392 765.654 136.392 774.403 Q136.392 783.13 133.314 787.737 Q130.258 792.32 124.448 792.32 Q118.638 792.32 115.559 787.737 Q112.504 783.13 112.504 774.403 Q112.504 765.654 115.559 761.07 Q118.638 756.464 124.448 756.464 Z" fill="#000000" fill-rule="nonzero" fill-opacity="1" /><path clip-path="url(#clip730)" d="M144.61 785.769 L149.494 785.769 L149.494 791.649 L144.61 791.649 L144.61 785.769 Z" fill="#000000" fill-rule="nonzero" fill-opacity="1" /><path clip-path="url(#clip730)" d="M163.707 787.714 L180.026 787.714 L180.026 791.649 L158.082 791.649 L158.082 787.714 Q160.744 784.959 165.327 780.329 Q169.934 775.677 171.114 774.334 Q173.36 771.811 174.239 770.075 Q175.142 768.316 175.142 766.626 Q175.142 763.871 173.198 762.135 Q171.276 760.399 168.175 760.399 Q165.975 760.399 163.522 761.163 Q161.091 761.927 158.313 763.478 L158.313 758.755 Q161.138 757.621 163.591 757.042 Q166.045 756.464 168.082 756.464 Q173.452 756.464 176.647 759.149 Q179.841 761.834 179.841 766.325 Q179.841 768.454 179.031 770.376 Q178.244 772.274 176.137 774.866 Q175.559 775.538 172.457 778.755 Q169.355 781.95 163.707 787.714 Z" fill="#000000" fill-rule="nonzero" fill-opacity="1" /><path clip-path="url(#clip730)" d="M189.887 757.089 L208.244 757.089 L208.244 761.024 L194.17 761.024 L194.17 769.496 Q195.188 769.149 196.207 768.987 Q197.225 768.802 198.244 768.802 Q204.031 768.802 207.41 771.973 Q210.79 775.144 210.79 780.561 Q210.79 786.14 207.318 789.241 Q203.846 792.32 197.526 792.32 Q195.35 792.32 193.082 791.95 Q190.836 791.579 188.429 790.839 L188.429 786.14 Q190.512 787.274 192.735 787.829 Q194.957 788.385 197.434 788.385 Q201.438 788.385 203.776 786.278 Q206.114 784.172 206.114 780.561 Q206.114 776.95 203.776 774.843 Q201.438 772.737 197.434 772.737 Q195.559 772.737 193.684 773.153 Q191.832 773.57 189.887 774.45 L189.887 757.089 Z" fill="#000000" fill-rule="nonzero" fill-opacity="1" /><path clip-path="url(#clip730)" d="M123.453 527.115 Q119.841 527.115 118.013 530.679 Q116.207 534.221 116.207 541.351 Q116.207 548.457 118.013 552.022 Q119.841 555.564 123.453 555.564 Q127.087 555.564 128.892 552.022 Q130.721 548.457 130.721 541.351 Q130.721 534.221 128.892 530.679 Q127.087 527.115 123.453 527.115 M123.453 523.411 Q129.263 523.411 132.318 528.017 Q135.397 532.601 135.397 541.351 Q135.397 550.077 132.318 554.684 Q129.263 559.267 123.453 559.267 Q117.642 559.267 114.564 554.684 Q111.508 550.077 111.508 541.351 Q111.508 532.601 114.564 528.017 Q117.642 523.411 123.453 523.411 Z" fill="#000000" fill-rule="nonzero" fill-opacity="1" /><path clip-path="url(#clip730)" d="M143.614 552.716 L148.499 552.716 L148.499 558.596 L143.614 558.596 L143.614 552.716 Z" fill="#000000" fill-rule="nonzero" fill-opacity="1" /><path clip-path="url(#clip730)" d="M158.73 524.036 L177.087 524.036 L177.087 527.971 L163.013 527.971 L163.013 536.443 Q164.031 536.096 165.05 535.934 Q166.068 535.749 167.087 535.749 Q172.874 535.749 176.253 538.92 Q179.633 542.091 179.633 547.508 Q179.633 553.087 176.161 556.189 Q172.688 559.267 166.369 559.267 Q164.193 559.267 161.925 558.897 Q159.679 558.527 157.272 557.786 L157.272 553.087 Q159.355 554.221 161.577 554.777 Q163.8 555.332 166.276 555.332 Q170.281 555.332 172.619 553.226 Q174.957 551.119 174.957 547.508 Q174.957 543.897 172.619 541.791 Q170.281 539.684 166.276 539.684 Q164.401 539.684 162.526 540.101 Q160.675 540.517 158.73 541.397 L158.73 524.036 Z" fill="#000000" fill-rule="nonzero" fill-opacity="1" /><path clip-path="url(#clip730)" d="M198.846 527.115 Q195.235 527.115 193.406 530.679 Q191.6 534.221 191.6 541.351 Q191.6 548.457 193.406 552.022 Q195.235 555.564 198.846 555.564 Q202.48 555.564 204.285 552.022 Q206.114 548.457 206.114 541.351 Q206.114 534.221 204.285 530.679 Q202.48 527.115 198.846 527.115 M198.846 523.411 Q204.656 523.411 207.711 528.017 Q210.79 532.601 210.79 541.351 Q210.79 550.077 207.711 554.684 Q204.656 559.267 198.846 559.267 Q193.035 559.267 189.957 554.684 Q186.901 550.077 186.901 541.351 Q186.901 532.601 189.957 528.017 Q193.035 523.411 198.846 523.411 Z" fill="#000000" fill-rule="nonzero" fill-opacity="1" /><path clip-path="url(#clip730)" d="M124.448 294.062 Q120.837 294.062 119.008 297.627 Q117.203 301.168 117.203 308.298 Q117.203 315.404 119.008 318.969 Q120.837 322.511 124.448 322.511 Q128.082 322.511 129.888 318.969 Q131.716 315.404 131.716 308.298 Q131.716 301.168 129.888 297.627 Q128.082 294.062 124.448 294.062 M124.448 290.358 Q130.258 290.358 133.314 294.965 Q136.392 299.548 136.392 308.298 Q136.392 317.025 133.314 321.631 Q130.258 326.214 124.448 326.214 Q118.638 326.214 115.559 321.631 Q112.504 317.025 112.504 308.298 Q112.504 299.548 115.559 294.965 Q118.638 290.358 124.448 290.358 Z" fill="#000000" fill-rule="nonzero" fill-opacity="1" /><path clip-path="url(#clip730)" d="M144.61 319.664 L149.494 319.664 L149.494 325.543 L144.61 325.543 L144.61 319.664 Z" fill="#000000" fill-rule="nonzero" fill-opacity="1" /><path clip-path="url(#clip730)" d="M158.499 290.983 L180.721 290.983 L180.721 292.974 L168.175 325.543 L163.29 325.543 L175.096 294.918 L158.499 294.918 L158.499 290.983 Z" fill="#000000" fill-rule="nonzero" fill-opacity="1" /><path clip-path="url(#clip730)" d="M189.887 290.983 L208.244 290.983 L208.244 294.918 L194.17 294.918 L194.17 303.391 Q195.188 303.043 196.207 302.881 Q197.225 302.696 198.244 302.696 Q204.031 302.696 207.41 305.867 Q210.79 309.039 210.79 314.455 Q210.79 320.034 207.318 323.136 Q203.846 326.214 197.526 326.214 Q195.35 326.214 193.082 325.844 Q190.836 325.474 188.429 324.733 L188.429 320.034 Q190.512 321.168 192.735 321.724 Q194.957 322.279 197.434 322.279 Q201.438 322.279 203.776 320.173 Q206.114 318.066 206.114 314.455 Q206.114 310.844 203.776 308.738 Q201.438 306.631 197.434 306.631 Q195.559 306.631 193.684 307.048 Q191.832 307.465 189.887 308.344 L189.887 290.983 Z" fill="#000000" fill-rule="nonzero" fill-opacity="1" /><path clip-path="url(#clip730)" d="M114.263 88.5553 L121.902 88.5553 L121.902 62.1897 L113.591 63.8563 L113.591 59.5971 L121.855 57.9304 L126.531 57.9304 L126.531 88.5553 L134.17 88.5553 L134.17 92.4904 L114.263 92.4904 L114.263 88.5553 Z" fill="#000000" fill-rule="nonzero" fill-opacity="1" /><path clip-path="url(#clip730)" d="M143.614 86.6108 L148.499 86.6108 L148.499 92.4904 L143.614 92.4904 L143.614 86.6108 Z" fill="#000000" fill-rule="nonzero" fill-opacity="1" /><path clip-path="url(#clip730)" d="M168.684 61.0091 Q165.073 61.0091 163.244 64.5739 Q161.438 68.1156 161.438 75.2451 Q161.438 82.3516 163.244 85.9164 Q165.073 89.458 168.684 89.458 Q172.318 89.458 174.124 85.9164 Q175.952 82.3516 175.952 75.2451 Q175.952 68.1156 174.124 64.5739 Q172.318 61.0091 168.684 61.0091 M168.684 57.3054 Q174.494 57.3054 177.549 61.9119 Q180.628 66.4952 180.628 75.2451 Q180.628 83.972 177.549 88.5784 Q174.494 93.1617 168.684 93.1617 Q162.874 93.1617 159.795 88.5784 Q156.739 83.972 156.739 75.2451 Q156.739 66.4952 159.795 61.9119 Q162.874 57.3054 168.684 57.3054 Z" fill="#000000" fill-rule="nonzero" fill-opacity="1" /><path clip-path="url(#clip730)" d="M198.846 61.0091 Q195.235 61.0091 193.406 64.5739 Q191.6 68.1156 191.6 75.2451 Q191.6 82.3516 193.406 85.9164 Q195.235 89.458 198.846 89.458 Q202.48 89.458 204.285 85.9164 Q206.114 82.3516 206.114 75.2451 Q206.114 68.1156 204.285 64.5739 Q202.48 61.0091 198.846 61.0091 M198.846 57.3054 Q204.656 57.3054 207.711 61.9119 Q210.79 66.4952 210.79 75.2451 Q210.79 83.972 207.711 88.5784 Q204.656 93.1617 198.846 93.1617 Q193.035 93.1617 189.957 88.5784 Q186.901 83.972 186.901 75.2451 Q186.901 66.4952 189.957 61.9119 Q193.035 57.3054 198.846 57.3054 Z" fill="#000000" fill-rule="nonzero" fill-opacity="1" /><path clip-path="url(#clip730)" d="M19.7322 598.225 L19.7322 570.917 L25.143 570.917 L25.143 591.796 L39.1476 591.796 L39.1476 572.954 L44.5584 572.954 L44.5584 591.796 L67.2522 591.796 L67.2522 598.225 L19.7322 598.225 Z" fill="#000000" fill-rule="nonzero" fill-opacity="1" /><path clip-path="url(#clip730)" d="M25.0157 554.302 L42.8715 554.302 L42.8715 546.218 Q42.8715 541.73 40.548 539.279 Q38.2245 536.828 33.9277 536.828 Q29.6627 536.828 27.3392 539.279 Q25.0157 541.73 25.0157 546.218 L25.0157 554.302 M19.7322 560.731 L19.7322 546.218 Q19.7322 538.229 23.3606 534.155 Q26.9572 530.049 33.9277 530.049 Q40.9618 530.049 44.5584 534.155 Q48.155 538.229 48.155 546.218 L48.155 554.302 L67.2522 554.302 L67.2522 560.731 L19.7322 560.731 Z" fill="#000000" fill-rule="nonzero" fill-opacity="1" /><path clip-path="url(#clip730)" d="M44.9722 498.889 Q45.6724 496.82 47.9641 494.878 Q50.2557 492.905 54.2661 490.931 L67.2522 484.407 L67.2522 491.313 L55.0618 497.393 Q50.2875 499.748 48.728 501.976 Q47.1684 504.172 47.1684 507.991 L47.1684 514.994 L67.2522 514.994 L67.2522 521.423 L19.7322 521.423 L19.7322 506.909 Q19.7322 498.761 23.1378 494.751 Q26.5435 490.74 33.4184 490.74 Q37.9062 490.74 40.8663 492.841 Q43.8264 494.91 44.9722 498.889 M25.0157 514.994 L41.8848 514.994 L41.8848 506.909 Q41.8848 502.262 39.7523 499.907 Q37.588 497.52 33.4184 497.52 Q29.2489 497.52 27.1482 499.907 Q25.0157 502.262 25.0157 506.909 L25.0157 514.994 Z" fill="#000000" fill-rule="nonzero" fill-opacity="1" /><polyline clip-path="url(#clip732)" style="stroke:#000000; stroke-linecap:round; stroke-linejoin:round; stroke-width:6; stroke-opacity:1; fill:none" points="289.242,77.1678 290.857,80.2753 292.472,82.7001 294.087,84.8284 295.702,86.7508 297.317,88.5562 298.932,90.287 300.547,92.0376 302.162,93.6805 303.777,95.3594 305.393,96.9589 307.008,98.5584 308.623,100.166 310.238,101.705 311.853,103.303 313.468,104.668 315.083,106 316.698,107.387 318.313,108.78 319.928,110.134 321.543,111.458 323.158,112.714 324.773,113.946 326.388,115.197 328.003,116.436 329.618,117.646 331.234,118.799 332.849,120.009 334.464,121.172 336.079,122.29 337.694,123.422 339.309,124.547 340.924,125.68 342.539,126.764 344.154,127.815 345.769,128.91 347.384,130.012 348.999,131.12 350.614,132.172 352.229,133.208 353.844,134.283 355.459,135.319 357.075,136.306 358.69,137.32 360.305,138.298 361.92,139.243 363.535,140.199 365.15,141.143 366.765,142.08 368.38,143.022 369.995,143.902 371.61,144.771 373.225,145.692 374.84,146.546 376.455,147.405 378.07,148.288 379.685,149.16 381.3,150.033 382.916,150.834 384.531,151.656 386.146,152.512 387.761,153.353 389.376,154.215 390.991,155.01 392.606,155.822 394.221,156.632 395.836,157.426 397.451,158.256 399.066,159.068 400.681,159.904 402.296,160.669 403.911,161.486 405.526,162.291 407.141,163.09 408.756,163.867 410.372,164.63 411.987,165.351 413.602,166.136 415.217,166.839 416.832,167.625 418.447,168.427 420.062,169.194 421.677,169.912 423.292,170.616 424.907,171.32 426.522,172.019 428.137,172.742 429.752,173.425 431.367,174.124 432.982,174.869 434.597,175.553 436.213,176.248 437.828,176.973 439.443,177.628 441.058,178.357 442.673,179.07 444.288,179.79 445.903,180.498 447.518,181.235 449.133,181.963 450.748,182.654 452.363,183.332 453.978,183.981 455.593,184.714 457.208,185.393 458.823,186.061 460.438,186.787 462.054,187.5 463.669,188.217 465.284,188.906 466.899,189.613 468.514,190.304 470.129,191.018 471.744,191.676 473.359,192.366 474.974,193.068 476.589,193.763 478.204,194.474 479.819,195.177 481.434,195.861 483.049,196.601 484.664,197.293 486.279,197.996 487.895,198.683 489.51,199.359 491.125,200 492.74,200.634 494.355,201.299 495.97,201.97 497.585,202.628 499.2,203.294 500.815,203.969 502.43,204.674 504.045,205.358 505.66,206.009 507.275,206.647 508.89,207.304 510.505,208.005 512.12,208.597 513.736,209.25 515.351,209.895 516.966,210.549 518.581,211.209 520.196,211.871 521.811,212.506 523.426,213.155 525.041,213.83 526.656,214.52 528.271,215.251 529.886,215.856 531.501,216.499 533.116,217.115 534.731,217.757 536.346,218.41 537.961,219.082 539.577,219.701 541.192,220.386 542.807,221.061 544.422,221.729 546.037,222.421 547.652,223.079 549.267,223.746 550.882,224.411 552.497,225.106 554.112,225.735 555.727,226.409 557.342,227.037 558.957,227.717 560.572,228.369 562.187,229.017 563.802,229.703 565.418,230.332 567.033,230.995 568.648,231.67 570.263,232.33 571.878,233.015 573.493,233.697 575.108,234.335 576.723,235.048 578.338,235.71 579.953,236.39 581.568,237.105 583.183,237.803 584.798,238.524 586.413,239.193 588.028,239.852 589.643,240.499 591.259,241.166 592.874,241.837 594.489,242.525 596.104,243.16 597.719,243.841 599.334,244.518 600.949,245.165 602.564,245.868 604.179,246.582 605.794,247.279 607.409,247.966 609.024,248.639 610.639,249.312 612.254,249.987 613.869,250.745 615.484,251.457 617.1,252.161 618.715,252.857 620.33,253.516 621.945,254.231 623.56,254.913 625.175,255.57 626.79,256.265 628.405,256.921 630.02,257.644 631.635,258.334 633.25,259.027 634.865,259.773 636.48,260.489 638.095,261.222 639.71,261.955 641.325,262.644 642.941,263.364 644.556,264.067 646.171,264.768 647.786,265.508 649.401,266.208 651.016,266.907 652.631,267.647 654.246,268.373 655.861,269.132 657.476,269.86 659.091,270.569 660.706,271.301 662.321,272.049 663.936,272.765 665.551,273.485 667.166,274.191 668.782,274.925 670.397,275.658 672.012,276.368 673.627,277.111 675.242,277.821 676.857,278.527 678.472,279.231 680.087,279.977 681.702,280.657 683.317,281.443 684.932,282.142 686.547,282.881 688.162,283.638 689.777,284.39 691.392,285.11 693.007,285.843 694.623,286.62 696.238,287.381 697.853,288.181 699.468,288.888 701.083,289.642 702.698,290.428 704.313,291.151 705.928,291.903 707.543,292.644 709.158,293.391 710.773,294.118 712.388,294.861 714.003,295.615 715.618,296.375 717.233,297.106 718.848,297.854 720.463,298.551 722.079,299.288 723.694,300.027 725.309,300.761 726.924,301.5 728.539,302.292 730.154,303.084 731.769,303.854 733.384,304.626 734.999,305.366 736.614,306.18 738.229,306.995 739.844,307.745 741.459,308.554 743.074,309.346 744.689,310.166 746.304,310.975 747.92,311.734 749.535,312.494 751.15,313.315 752.765,314.139 754.38,314.898 755.995,315.694 757.61,316.487 759.225,317.259 760.84,318.059 762.455,318.88 764.07,319.674 765.685,320.508 767.3,321.324 768.915,322.133 770.53,322.889 772.145,323.66 773.761,324.506 775.376,325.34 776.991,326.137 778.606,326.951 780.221,327.776 781.836,328.595 783.451,329.426 785.066,330.315 786.681,331.165 788.296,331.972 789.911,332.843 791.526,333.663 793.141,334.529 794.756,335.39 796.371,336.22 797.986,337.086 799.602,338.001 801.217,338.847 802.832,339.668 804.447,340.568 806.062,341.42 807.677,342.275 809.292,343.122 810.907,344.018 812.522,344.916 814.137,345.839 815.752,346.705 817.367,347.574 818.982,348.418 820.597,349.303 822.212,350.129 823.827,351.023 825.443,351.916 827.058,352.797 828.673,353.673 830.288,354.581 831.903,355.446 833.518,356.378 835.133,357.326 836.748,358.179 838.363,359.088 839.978,360.003 841.593,360.931 843.208,361.878 844.823,362.761 846.438,363.693 848.053,364.593 849.668,365.517 851.284,366.424 852.899,367.34 854.514,368.279 856.129,369.259 857.744,370.167 859.359,371.137 860.974,372.096 862.589,373.032 864.204,373.998 865.819,374.939 867.434,375.873 869.049,376.834 870.664,377.8 872.279,378.745 873.894,379.75 875.509,380.732 877.125,381.764 878.74,382.747 880.355,383.748 881.97,384.711 883.585,385.658 885.2,386.657 886.815,387.659 888.43,388.698 890.045,389.728 891.66,390.738 893.275,391.732 894.89,392.783 896.505,393.8 898.12,394.818 899.735,395.862 901.35,396.92 902.966,397.964 904.581,399.054 906.196,400.167 907.811,401.228 909.426,402.325 911.041,403.419 912.656,404.488 914.271,405.603 915.886,406.688 917.501,407.734 919.116,408.93 920.731,409.98 922.346,411.055 923.961,412.175 925.576,413.378 927.191,414.513 928.807,415.644 930.422,416.808 932.037,417.96 933.652,419.143 935.267,420.317 936.882,421.509 938.497,422.716 940.112,423.875 941.727,425.045 943.342,426.239 944.957,427.403 946.572,428.683 948.187,429.939 949.802,431.18 951.417,432.427 953.032,433.676 954.648,434.926 956.263,436.198 957.878,437.488 959.493,438.786 961.108,440.111 962.723,441.488 964.338,442.908 965.953,444.282 967.568,445.562 969.183,446.896 970.798,448.295 972.413,449.667 974.028,451.052 975.643,452.555 977.258,453.994 978.873,455.439 980.488,456.907 982.104,458.411 983.719,460.014 985.334,461.58 986.949,463.205 988.564,464.767 990.179,466.426 991.794,468.178 993.409,469.803 995.024,471.501 996.639,473.272 998.254,475.089 999.869,476.892 1001.48,478.741 1003.1,480.707 1004.71,482.67 1006.33,484.765 1007.94,486.786 1009.56,488.938 1011.17,491.258 1012.79,493.6 1014.4,496.025 1016.02,498.527 1017.63,501.093 1019.25,503.731 1020.87,506.45 1022.48,509.135 1024.1,511.84 1025.71,514.568 1027.33,517.327 1028.94,520.049 1030.56,522.792 1032.17,525.423 1033.79,528.049 1035.4,530.684 1037.02,533.35 1038.63,535.891 1040.25,538.477 1041.86,540.945 1043.48,543.398 1045.09,545.731 1046.71,548.184 1048.32,550.591 1049.94,552.92 1051.55,555.261 1053.17,557.571 1054.78,559.871 1056.4,562.121 1058.01,564.336 1059.63,566.634 1061.24,568.871 1062.86,571.252 1064.47,573.478 1066.09,575.738 1067.7,577.959 1069.32,580.126 1070.93,582.413 1072.55,584.598 1074.16,586.746 1075.78,588.895 1077.39,591.101 1079.01,593.312 1080.62,595.446 1082.24,597.616 1083.85,599.685 1085.47,601.858 1087.08,603.89 1088.7,606.005 1090.31,608.134 1091.93,610.265 1093.54,612.299 1095.16,614.332 1096.77,616.387 1098.39,618.459 1100,620.487 1101.62,622.571 1103.23,624.535 1104.85,626.601 1106.46,628.662 1108.08,630.732 1109.69,632.713 1111.31,634.752 1112.92,636.769 1114.54,638.698 1116.15,640.615 1117.77,642.52 1119.38,644.376 1121,646.207 1122.61,648.067 1124.23,649.866 1125.84,651.502 1127.46,653.23 1129.07,654.894 1130.69,656.587 1132.3,658.234 1133.92,659.878 1135.53,661.431 1137.15,663.036 1138.76,664.583 1140.38,666.044 1141.99,667.549 1143.61,669.082 1145.22,670.605 1146.84,672.144 1148.45,673.582 1150.07,675.063 1151.69,676.553 1153.3,678.046 1154.92,679.516 1156.53,681.005 1158.15,682.497 1159.76,683.966 1161.38,685.489 1162.99,686.973 1164.61,688.401 1166.22,689.886 1167.84,691.351 1169.45,692.834 1171.07,694.272 1172.68,695.739 1174.3,697.184 1175.91,698.63 1177.53,700.132 1179.14,701.614 1180.76,703.152 1182.37,704.62 1183.99,706.077 1185.6,707.528 1187.22,709 1188.83,710.484 1190.45,711.937 1192.06,713.378 1193.68,714.805 1195.29,716.177 1196.91,717.598 1198.52,718.982 1200.14,720.344 1201.75,721.675 1203.37,723.063 1204.98,724.426 1206.6,725.789 1208.21,727.154 1209.83,728.396 1211.44,729.688 1213.06,730.918 1214.67,732.2 1216.29,733.452 1217.9,734.711 1219.52,735.953 1221.13,737.16 1222.75,738.341 1224.36,739.544 1225.98,740.734 1227.59,741.925 1229.21,743.084 1230.82,744.277 1232.44,745.434 1234.05,746.525 1235.67,747.696 1237.28,748.792 1238.9,749.924 1240.51,751.01 1242.13,752.102 1243.74,753.2 1245.36,754.282 1246.97,755.357 1248.59,756.454 1250.2,757.522 1251.82,758.619 1253.43,759.74 1255.05,760.835 1256.66,761.933 1258.28,763.074 1259.89,764.167 1261.51,765.286 1263.12,766.391 1264.74,767.498 1266.35,768.621 1267.97,769.686 1269.58,770.769 1271.2,771.873 1272.81,772.953 1274.43,774.051 1276.04,775.153 1277.66,776.207 1279.27,777.348 1280.89,778.454 1282.51,779.535 1284.12,780.645 1285.74,781.746 1287.35,782.867 1288.97,783.95 1290.58,785.033 1292.2,786.05 1293.81,787.15 1295.43,788.294 1297.04,789.409 1298.66,790.474 1300.27,791.526 1301.89,792.554 1303.5,793.675 1305.12,794.793 1306.73,795.813 1308.35,796.959 1309.96,798.018 1311.58,799.138 1313.19,800.261 1314.81,801.329 1316.42,802.402 1318.04,803.44 1319.65,804.513 1321.27,805.608 1322.88,806.626 1324.5,807.682 1326.11,808.725 1327.73,809.796 1329.34,810.798 1330.96,811.789 1332.57,812.874 1334.19,813.917 1335.8,814.972 1337.42,815.998 1339.03,817.034 1340.65,818.009 1342.26,818.914 1343.88,819.823 1345.49,820.773 1347.11,821.775 1348.72,822.695 1350.34,823.629 1351.95,824.565 1353.57,825.483 1355.18,826.422 1356.8,827.347 1358.41,828.288 1360.03,829.231 1361.64,830.188 1363.26,831.122 1364.87,832.032 1366.49,832.959 1368.1,833.888 1369.72,834.747 1371.33,835.631 1372.95,836.542 1374.56,837.419 1376.18,838.297 1377.79,839.146 1379.41,840.059 1381.02,840.904 1382.64,841.762 1384.25,842.636 1385.87,843.46 1387.48,844.34 1389.1,845.206 1390.71,846.028 1392.33,846.864 1393.94,847.743 1395.56,848.558 1397.17,849.349 1398.79,850.187 1400.4,850.982 1402.02,851.865 1403.63,852.647 1405.25,853.45 1406.86,854.238 1408.48,854.997 1410.1,855.815 1411.71,856.622 1413.33,857.43 1414.94,858.277 1416.56,859.083 1418.17,859.818 1419.79,860.606 1421.4,861.35 1423.02,862.051 1424.63,862.9 1426.25,863.66 1427.86,864.427 1429.48,865.191 1431.09,865.962 1432.71,866.686 1434.32,867.466 1435.94,868.245 1437.55,869 1439.17,869.782 1440.78,870.511 1442.4,871.275 1444.01,872.051 1445.63,872.841 1447.24,873.564 1448.86,874.269 1450.47,875.049 1452.09,875.795 1453.7,876.571 1455.32,877.345 1456.93,878.116 1458.55,878.853 1460.16,879.602 1461.78,880.375 1463.39,881.12 1465.01,881.881 1466.62,882.639 1468.24,883.435 1469.85,884.178 1471.47,884.913 1473.08,885.656 1474.7,886.426 1476.31,887.206 1477.93,887.971 1479.54,888.665 1481.16,889.403 1482.77,890.173 1484.39,890.884 1486,891.624 1487.62,892.354 1489.23,893.124 1490.85,893.835 1492.46,894.521 1494.08,895.287 1495.69,895.992 1497.31,896.696 1498.92,897.41 1500.54,898.14 1502.15,898.847 1503.77,899.542 1505.38,900.226 1507,900.902 1508.61,901.603 1510.23,902.321 1511.84,902.988 1513.46,903.667 1515.07,904.358 1516.69,905.028 1518.3,905.692 1519.92,906.336 1521.53,907.045 1523.15,907.711 1524.76,908.376 1526.38,909.009 1527.99,909.661 1529.61,910.269 1531.22,910.914 1532.84,911.599 1534.45,912.295 1536.07,912.927 1537.68,913.583 1539.3,914.261 1540.92,914.905 1542.53,915.511 1544.15,916.129 1545.76,916.733 1547.38,917.385 1548.99,918.05 1550.61,918.73 1552.22,919.376 1553.84,920.057 1555.45,920.682 1557.07,921.309 1558.68,921.932 1560.3,922.568 1561.91,923.23 1563.53,923.89 1565.14,924.54 1566.76,925.215 1568.37,925.838 1569.99,926.482 1571.6,927.104 1573.22,927.716 1574.83,928.381 1576.45,929.007 1578.06,929.627 1579.68,930.192 1581.29,930.8 1582.91,931.372 1584.52,931.98 1586.14,932.567 1587.75,933.193 1589.37,933.818 1590.98,934.368 1592.6,934.965 1594.21,935.57 1595.83,936.197 1597.44,936.805 1599.06,937.396 1600.67,937.987 1602.29,938.56 1603.9,939.129 1605.52,939.703 1607.13,940.239 1608.75,940.803 1610.36,941.357 1611.98,941.882 1613.59,942.415 1615.21,942.971 1616.82,943.54 1618.44,944.087 1620.05,944.601 1621.67,945.164 1623.28,945.674 1624.9,946.198 1626.51,946.703 1628.13,947.241 1629.74,947.754 1631.36,948.318 1632.97,948.843 1634.59,949.349 1636.2,949.873 1637.82,950.386 1639.43,950.938 1641.05,951.455 1642.66,951.979 1644.28,952.514 1645.89,952.986 1647.51,953.455 1649.12,953.942 1650.74,954.402 1652.35,954.879 1653.97,955.361 1655.58,955.836 1657.2,956.352 1658.81,956.848 1660.43,957.371 1662.04,957.855 1663.66,958.32 1665.27,958.834 1666.89,959.33 1668.5,959.817 1670.12,960.293 1671.74,960.807 1673.35,961.301 1674.97,961.783 1676.58,962.286 1678.2,962.783 1679.81,963.247 1681.43,963.7 1683.04,964.151 1684.66,964.655 1686.27,965.1 1687.89,965.58 1689.5,966.072 1691.12,966.526 1692.73,967 1694.35,967.473 1695.96,967.932 1697.58,968.393 1699.19,968.85 1700.81,969.285 1702.42,969.737 1704.04,970.188 1705.65,970.62 1707.27,971.087 1708.88,971.52 1710.5,971.965 1712.11,972.376 1713.73,972.814 1715.34,973.238 1716.96,973.655 1718.57,974.096 1720.19,974.519 1721.8,974.892 1723.42,975.268 1725.03,975.702 1726.65,976.088 1728.26,976.539 1729.88,976.961 1731.49,977.386 1733.11,977.792 1734.72,978.196 1736.34,978.619 1737.95,979.011 1739.57,979.437 1741.18,979.824 1742.8,980.221 1744.41,980.639 1746.03,981.027 1747.64,981.429 1749.26,981.815 1750.87,982.21 1752.49,982.595 1754.1,983.003 1755.72,983.419 1757.33,983.796 1758.95,984.14 1760.56,984.521 1762.18,984.883 1763.79,985.253 1765.41,985.636 1767.02,986.004 1768.64,986.376 1770.25,986.734 1771.87,987.071 1773.48,987.443 1775.1,987.783 1776.71,988.149 1778.33,988.498 1779.94,988.846 1781.56,989.189 1783.17,989.518 1784.79,989.868 1786.4,990.187 1788.02,990.51 1789.63,990.822 1791.25,991.138 1792.86,991.477 1794.48,991.792 1796.09,992.093 1797.71,992.392 1799.33,992.688 1800.94,992.99 1802.56,993.294 1804.17,993.638 1805.79,993.913 1807.4,994.19 1809.02,994.476 1810.63,994.735 1812.25,995.045 1813.86,995.346 1815.48,995.642 1817.09,995.935 1818.71,996.222 1820.32,996.533 1821.94,996.829 1823.55,997.117 1825.17,997.403 1826.78,997.688 1828.4,998.001 1830.01,998.28 1831.63,998.546 1833.24,998.82 1834.86,999.102 1836.47,999.369 1838.09,999.63 1839.7,999.882 1841.32,1000.12 1842.93,1000.36 1844.55,1000.58 1846.16,1000.84 1847.78,1001.08 1849.39,1001.32 1851.01,1001.54 1852.62,1001.76 1854.24,1001.99 1855.85,1002.22 1857.47,1002.44 1859.08,1002.66 1860.7,1002.92 1862.31,1003.15 1863.93,1003.38 1865.54,1003.6 1867.16,1003.81 1868.77,1003.99 1870.39,1004.19 1872,1004.38 1873.62,1004.57 1875.23,1004.77 1876.85,1004.97 1878.46,1005.14 1880.08,1005.31 1881.69,1005.49 1883.31,1005.67 1884.92,1005.84 1886.54,1006.01 1888.15,1006.18 1889.77,1006.34 1891.38,1006.49 1893,1006.67 1894.61,1006.79 1896.23,1006.92 1897.84,1007.05 1899.46,1007.14 1901.07,1007.24 1902.69,1007.34 1904.3,1007.42 "/>
<polyline clip-path="url(#clip732)" style="stroke:#808080; stroke-linecap:round; stroke-linejoin:round; stroke-width:4; stroke-opacity:1; fill:none" stroke-dasharray="16, 10" points="289.242,75.2104 299.757,81.2796 396.983,137.398 455.411,171.123 504.812,199.637 558.475,230.611 607.947,259.167 660.987,289.781 722.439,325.251 777.05,356.772 824.939,384.414 877.151,414.55 929.673,444.866 987.743,478.384 1043,510.275 1100.44,543.435 1148.8,571.349 1207.85,605.428 1261.93,636.646 1311.89,665.479 1362.49,694.686 1419.2,727.418 1470.58,757.079 1529.42,791.039 1583.9,822.483 1637.6,853.483 1689.75,883.581 1743.2,914.435 1801.77,948.24 1886.85,997.347 1904.3,1007.42 "/>
<path clip-path="url(#clip730)" d="M1177.92 183.862 L1895.69 183.862 L1895.69 80.1822 L1177.92 80.1822  Z" fill="#ffffff" fill-rule="evenodd" fill-opacity="1"/>
<polyline clip-path="url(#clip730)" style="stroke:#000000; stroke-linecap:round; stroke-linejoin:round; stroke-width:4; stroke-opacity:1; fill:none" points="1177.92,183.862 1895.69,183.862 1895.69,80.1822 1177.92,80.1822 1177.92,183.862 "/>
<polyline clip-path="url(#clip730)" style="stroke:#000000; stroke-linecap:round; stroke-linejoin:round; stroke-width:6; stroke-opacity:1; fill:none" points="1196.94,132.022 1311.08,132.022 "/>
<path clip-path="url(#clip730)" d="M1349.01 127.312 L1349.01 113.284 L1353.27 113.284 L1353.27 149.302 L1349.01 149.302 L1349.01 145.413 Q1347.67 147.728 1345.61 148.862 Q1343.57 149.974 1340.7 149.974 Q1336 149.974 1333.04 146.224 Q1330.1 142.474 1330.1 136.362 Q1330.1 130.251 1333.04 126.501 Q1336 122.751 1340.7 122.751 Q1343.57 122.751 1345.61 123.886 Q1347.67 124.997 1349.01 127.312 M1334.5 136.362 Q1334.5 141.062 1336.42 143.747 Q1338.36 146.409 1341.74 146.409 Q1345.12 146.409 1347.06 143.747 Q1349.01 141.062 1349.01 136.362 Q1349.01 131.663 1347.06 129.001 Q1345.12 126.316 1341.74 126.316 Q1338.36 126.316 1336.42 129.001 Q1334.5 131.663 1334.5 136.362 Z" fill="#000000" fill-rule="nonzero" fill-opacity="1" /><path clip-path="url(#clip730)" d="M1362.04 123.376 L1366.3 123.376 L1366.3 149.302 L1362.04 149.302 L1362.04 123.376 M1362.04 113.284 L1366.3 113.284 L1366.3 118.677 L1362.04 118.677 L1362.04 113.284 Z" fill="#000000" fill-rule="nonzero" fill-opacity="1" /><path clip-path="url(#clip730)" d="M1388.34 113.284 L1388.34 116.826 L1384.26 116.826 Q1381.97 116.826 1381.07 117.751 Q1380.19 118.677 1380.19 121.085 L1380.19 123.376 L1387.2 123.376 L1387.2 126.687 L1380.19 126.687 L1380.19 149.302 L1375.91 149.302 L1375.91 126.687 L1371.83 126.687 L1371.83 123.376 L1375.91 123.376 L1375.91 121.571 Q1375.91 117.242 1377.92 115.275 Q1379.94 113.284 1384.31 113.284 L1388.34 113.284 Z" fill="#000000" fill-rule="nonzero" fill-opacity="1" /><path clip-path="url(#clip730)" d="M1392.09 114.742 L1411.95 114.742 L1411.95 118.677 L1396.76 118.677 L1396.76 128.863 L1410.47 128.863 L1410.47 132.798 L1396.76 132.798 L1396.76 149.302 L1392.09 149.302 L1392.09 114.742 Z" fill="#000000" fill-rule="nonzero" fill-opacity="1" /><path clip-path="url(#clip730)" d="M1418.82 114.742 L1423.52 114.742 L1423.52 135.737 Q1423.52 141.293 1425.54 143.747 Q1427.55 146.177 1432.06 146.177 Q1436.56 146.177 1438.57 143.747 Q1440.58 141.293 1440.58 135.737 L1440.58 114.742 L1445.28 114.742 L1445.28 136.316 Q1445.28 143.075 1441.93 146.524 Q1438.59 149.974 1432.06 149.974 Q1425.51 149.974 1422.16 146.524 Q1418.82 143.075 1418.82 136.316 L1418.82 114.742 Z" fill="#000000" fill-rule="nonzero" fill-opacity="1" /><path clip-path="url(#clip730)" d="M1458.73 132.798 L1458.73 145.46 L1466.23 145.46 Q1470 145.46 1471.81 143.909 Q1473.64 142.335 1473.64 139.117 Q1473.64 135.876 1471.81 134.349 Q1470 132.798 1466.23 132.798 L1458.73 132.798 M1458.73 118.585 L1458.73 129.001 L1465.65 129.001 Q1469.08 129.001 1470.74 127.728 Q1472.43 126.432 1472.43 123.793 Q1472.43 121.177 1470.74 119.881 Q1469.08 118.585 1465.65 118.585 L1458.73 118.585 M1454.06 114.742 L1466 114.742 Q1471.35 114.742 1474.24 116.964 Q1477.13 119.187 1477.13 123.284 Q1477.13 126.455 1475.65 128.33 Q1474.17 130.205 1471.3 130.668 Q1474.75 131.409 1476.65 133.77 Q1478.57 136.108 1478.57 139.626 Q1478.57 144.256 1475.42 146.779 Q1472.27 149.302 1466.46 149.302 L1454.06 149.302 L1454.06 114.742 Z" fill="#000000" fill-rule="nonzero" fill-opacity="1" /><path clip-path="url(#clip730)" d="M1498.13 119.349 L1491.79 136.548 L1504.49 136.548 L1498.13 119.349 M1495.49 114.742 L1500.79 114.742 L1513.96 149.302 L1509.1 149.302 L1505.95 140.437 L1490.37 140.437 L1487.23 149.302 L1482.3 149.302 L1495.49 114.742 Z" fill="#000000" fill-rule="nonzero" fill-opacity="1" /><path clip-path="url(#clip730)" d="M1535.4 133.099 Q1536.9 133.608 1538.31 135.275 Q1539.75 136.941 1541.18 139.858 L1545.93 149.302 L1540.91 149.302 L1536.49 140.437 Q1534.77 136.964 1533.15 135.83 Q1531.55 134.696 1528.78 134.696 L1523.68 134.696 L1523.68 149.302 L1519.01 149.302 L1519.01 114.742 L1529.56 114.742 Q1535.49 114.742 1538.41 117.219 Q1541.32 119.696 1541.32 124.696 Q1541.32 127.96 1539.8 130.113 Q1538.29 132.265 1535.4 133.099 M1523.68 118.585 L1523.68 130.853 L1529.56 130.853 Q1532.94 130.853 1534.66 129.302 Q1536.39 127.728 1536.39 124.696 Q1536.39 121.663 1534.66 120.136 Q1532.94 118.585 1529.56 118.585 L1523.68 118.585 Z" fill="#000000" fill-rule="nonzero" fill-opacity="1" /><path clip-path="url(#clip730)" d="M1567.02 114.742 L1586.88 114.742 L1586.88 118.677 L1571.69 118.677 L1571.69 128.863 L1585.4 128.863 L1585.4 132.798 L1571.69 132.798 L1571.69 149.302 L1567.02 149.302 L1567.02 114.742 Z" fill="#000000" fill-rule="nonzero" fill-opacity="1" /><path clip-path="url(#clip730)" d="M1601.53 136.27 Q1596.37 136.27 1594.38 137.45 Q1592.39 138.631 1592.39 141.478 Q1592.39 143.747 1593.87 145.089 Q1595.37 146.409 1597.94 146.409 Q1601.48 146.409 1603.61 143.909 Q1605.77 141.386 1605.77 137.219 L1605.77 136.27 L1601.53 136.27 M1610.03 134.511 L1610.03 149.302 L1605.77 149.302 L1605.77 145.367 Q1604.31 147.728 1602.13 148.862 Q1599.96 149.974 1596.81 149.974 Q1592.83 149.974 1590.47 147.751 Q1588.13 145.506 1588.13 141.756 Q1588.13 137.381 1591.05 135.159 Q1593.98 132.937 1599.8 132.937 L1605.77 132.937 L1605.77 132.52 Q1605.77 129.58 1603.82 127.983 Q1601.9 126.363 1598.41 126.363 Q1596.18 126.363 1594.08 126.895 Q1591.97 127.427 1590.03 128.492 L1590.03 124.557 Q1592.36 123.654 1594.56 123.214 Q1596.76 122.751 1598.85 122.751 Q1604.47 122.751 1607.25 125.668 Q1610.03 128.585 1610.03 134.511 Z" fill="#000000" fill-rule="nonzero" fill-opacity="1" /><path clip-path="url(#clip730)" d="M1618.8 113.284 L1623.06 113.284 L1623.06 149.302 L1618.8 149.302 L1618.8 113.284 Z" fill="#000000" fill-rule="nonzero" fill-opacity="1" /><path clip-path="url(#clip730)" d="M1648.5 124.14 L1648.5 128.168 Q1646.69 127.242 1644.75 126.779 Q1642.8 126.316 1640.72 126.316 Q1637.55 126.316 1635.95 127.288 Q1634.38 128.261 1634.38 130.205 Q1634.38 131.687 1635.51 132.543 Q1636.65 133.376 1640.07 134.14 L1641.53 134.464 Q1646.07 135.437 1647.97 137.219 Q1649.89 138.978 1649.89 142.149 Q1649.89 145.761 1647.02 147.867 Q1644.17 149.974 1639.17 149.974 Q1637.09 149.974 1634.82 149.557 Q1632.57 149.163 1630.07 148.353 L1630.07 143.955 Q1632.43 145.182 1634.73 145.807 Q1637.02 146.409 1639.26 146.409 Q1642.27 146.409 1643.89 145.39 Q1645.51 144.349 1645.51 142.474 Q1645.51 140.737 1644.33 139.812 Q1643.17 138.886 1639.22 138.029 L1637.73 137.682 Q1633.78 136.849 1632.02 135.136 Q1630.26 133.4 1630.26 130.39 Q1630.26 126.733 1632.85 124.742 Q1635.44 122.751 1640.21 122.751 Q1642.57 122.751 1644.66 123.099 Q1646.74 123.446 1648.5 124.14 Z" fill="#000000" fill-rule="nonzero" fill-opacity="1" /><path clip-path="url(#clip730)" d="M1678.85 135.275 L1678.85 137.358 L1659.26 137.358 Q1659.54 141.756 1661.9 144.071 Q1664.29 146.362 1668.52 146.362 Q1670.98 146.362 1673.27 145.761 Q1675.58 145.159 1677.85 143.955 L1677.85 147.983 Q1675.56 148.955 1673.15 149.464 Q1670.74 149.974 1668.27 149.974 Q1662.06 149.974 1658.43 146.362 Q1654.82 142.751 1654.82 136.594 Q1654.82 130.228 1658.24 126.501 Q1661.69 122.751 1667.53 122.751 Q1672.76 122.751 1675.79 126.131 Q1678.85 129.488 1678.85 135.275 M1674.59 134.025 Q1674.54 130.529 1672.62 128.446 Q1670.72 126.363 1667.57 126.363 Q1664.01 126.363 1661.85 128.376 Q1659.73 130.39 1659.4 134.048 L1674.59 134.025 Z" fill="#000000" fill-rule="nonzero" fill-opacity="1" /><path clip-path="url(#clip730)" d="M1705.77 118.585 L1705.77 131.571 L1711.65 131.571 Q1714.91 131.571 1716.69 129.881 Q1718.47 128.191 1718.47 125.066 Q1718.47 121.964 1716.69 120.275 Q1714.91 118.585 1711.65 118.585 L1705.77 118.585 M1701.09 114.742 L1711.65 114.742 Q1717.46 114.742 1720.42 117.381 Q1723.41 119.997 1723.41 125.066 Q1723.41 130.182 1720.42 132.798 Q1717.46 135.413 1711.65 135.413 L1705.77 135.413 L1705.77 149.302 L1701.09 149.302 L1701.09 114.742 Z" fill="#000000" fill-rule="nonzero" fill-opacity="1" /><path clip-path="url(#clip730)" d="M1737.85 126.363 Q1734.42 126.363 1732.43 129.048 Q1730.44 131.71 1730.44 136.362 Q1730.44 141.015 1732.41 143.7 Q1734.4 146.362 1737.85 146.362 Q1741.25 146.362 1743.24 143.677 Q1745.23 140.992 1745.23 136.362 Q1745.23 131.756 1743.24 129.071 Q1741.25 126.363 1737.85 126.363 M1737.85 122.751 Q1743.41 122.751 1746.58 126.363 Q1749.75 129.974 1749.75 136.362 Q1749.75 142.728 1746.58 146.362 Q1743.41 149.974 1737.85 149.974 Q1732.27 149.974 1729.1 146.362 Q1725.95 142.728 1725.95 136.362 Q1725.95 129.974 1729.1 126.363 Q1732.27 122.751 1737.85 122.751 Z" fill="#000000" fill-rule="nonzero" fill-opacity="1" /><path clip-path="url(#clip730)" d="M1773.34 124.14 L1773.34 128.168 Q1771.53 127.242 1769.59 126.779 Q1767.64 126.316 1765.56 126.316 Q1762.39 126.316 1760.79 127.288 Q1759.22 128.261 1759.22 130.205 Q1759.22 131.687 1760.35 132.543 Q1761.48 133.376 1764.91 134.14 L1766.37 134.464 Q1770.91 135.437 1772.8 137.219 Q1774.72 138.978 1774.72 142.149 Q1774.72 145.761 1771.85 147.867 Q1769.01 149.974 1764.01 149.974 Q1761.92 149.974 1759.66 149.557 Q1757.41 149.163 1754.91 148.353 L1754.91 143.955 Q1757.27 145.182 1759.56 145.807 Q1761.85 146.409 1764.1 146.409 Q1767.11 146.409 1768.73 145.39 Q1770.35 144.349 1770.35 142.474 Q1770.35 140.737 1769.17 139.812 Q1768.01 138.886 1764.05 138.029 L1762.57 137.682 Q1758.61 136.849 1756.85 135.136 Q1755.1 133.4 1755.1 130.39 Q1755.1 126.733 1757.69 124.742 Q1760.28 122.751 1765.05 122.751 Q1767.41 122.751 1769.49 123.099 Q1771.58 123.446 1773.34 124.14 Z" fill="#000000" fill-rule="nonzero" fill-opacity="1" /><path clip-path="url(#clip730)" d="M1781.51 123.376 L1785.77 123.376 L1785.77 149.302 L1781.51 149.302 L1781.51 123.376 M1781.51 113.284 L1785.77 113.284 L1785.77 118.677 L1781.51 118.677 L1781.51 113.284 Z" fill="#000000" fill-rule="nonzero" fill-opacity="1" /><path clip-path="url(#clip730)" d="M1798.89 116.015 L1798.89 123.376 L1807.66 123.376 L1807.66 126.687 L1798.89 126.687 L1798.89 140.761 Q1798.89 143.932 1799.75 144.835 Q1800.63 145.737 1803.29 145.737 L1807.66 145.737 L1807.66 149.302 L1803.29 149.302 Q1798.36 149.302 1796.48 147.474 Q1794.61 145.622 1794.61 140.761 L1794.61 126.687 L1791.48 126.687 L1791.48 123.376 L1794.61 123.376 L1794.61 116.015 L1798.89 116.015 Z" fill="#000000" fill-rule="nonzero" fill-opacity="1" /><path clip-path="url(#clip730)" d="M1813.27 123.376 L1817.53 123.376 L1817.53 149.302 L1813.27 149.302 L1813.27 123.376 M1813.27 113.284 L1817.53 113.284 L1817.53 118.677 L1813.27 118.677 L1813.27 113.284 Z" fill="#000000" fill-rule="nonzero" fill-opacity="1" /><path clip-path="url(#clip730)" d="M1823.38 123.376 L1827.9 123.376 L1836 145.136 L1844.1 123.376 L1848.61 123.376 L1838.89 149.302 L1833.1 149.302 L1823.38 123.376 Z" fill="#000000" fill-rule="nonzero" fill-opacity="1" /><path clip-path="url(#clip730)" d="M1876.67 135.275 L1876.67 137.358 L1857.09 137.358 Q1857.36 141.756 1859.72 144.071 Q1862.11 146.362 1866.34 146.362 Q1868.8 146.362 1871.09 145.761 Q1873.4 145.159 1875.67 143.955 L1875.67 147.983 Q1873.38 148.955 1870.97 149.464 Q1868.57 149.974 1866.09 149.974 Q1859.89 149.974 1856.25 146.362 Q1852.64 142.751 1852.64 136.594 Q1852.64 130.228 1856.07 126.501 Q1859.52 122.751 1865.35 122.751 Q1870.58 122.751 1873.61 126.131 Q1876.67 129.488 1876.67 135.275 M1872.41 134.025 Q1872.36 130.529 1870.44 128.446 Q1868.54 126.363 1865.4 126.363 Q1861.83 126.363 1859.68 128.376 Q1857.55 130.39 1857.22 134.048 L1872.41 134.025 Z" fill="#000000" fill-rule="nonzero" fill-opacity="1" /></svg>
