<?xml version="1.0" encoding="UTF-8"?>
<svg xmlns="http://www.w3.org/2000/svg"
     xmlns:xlink="http://www.w3.org/1999/xlink"
     version="1.2"
     width="150mm" height="124mm" viewBox="0 0 150 124"
     stroke="none"
     fill="#000000"
     stroke-width="0.3"
     font-size="3.88"
>
<defs>
  <marker id="arrow" markerWidth="15" markerHeight="7" refX="5" refY="3.5" orient="auto" markerUnits="strokeWidth">
    <path d="M0,0 L15,3.5 L0,7 z" stroke="context-stroke" fill="context-stroke"/>
  </marker>
</defs>
<g stroke-opacity="1" stroke-width="0.3" id="img-d6e1d110-1">
  <g transform="translate(4.92,5.64)" stroke="#8EC4CE">
    <path fill="none" d="M-1.17,0 L1.17,0 " class="primitive"/>
  </g>
  <g transform="translate(27.12,8.09)" stroke="#8EC4CE">
    <path fill="none" d="M-0.73,0 L0.73,0 " class="primitive"/>
  </g>
  <g transform="translate(29.07,10.54)" stroke="#C7A9EC">
    <path fill="none" d="M-2.68,0 L2.68,0 " class="primitive"/>
  </g>
  <g transform="translate(23.78,9.31)" stroke="#8EC4CE">
    <path fill="none" d="M-2.61,0 L2.61,0 " class="primitive"/>
  </g>
  <g transform="translate(26.39,9.31)" stroke="#8EC4CE">
    <path fill="none" d="M0,1.23 L0,-1.23 " class="primitive"/>
  </g>
  <g transform="translate(70.32,12.99)" stroke="#C7A9EC">
    <path fill="none" d="M-8.43,0 L8.43,0 " class="primitive"/>
  </g>
  <g transform="translate(62.27,15.44)" stroke="#8EC4CE">
    <path fill="none" d="M-0.37,0 L0.37,0 " class="primitive"/>
  </g>
  <g transform="translate(41.53,14.21)" stroke="#8EC4CE">
    <path fill="none" d="M-20.36,0 L20.36,0 " class="primitive"/>
  </g>
  <g transform="translate(61.89,14.21)" stroke="#8EC4CE">
    <path fill="none" d="M0,1.23 L0,-1.23 " class="primitive"/>
  </g>
  <g transform="translate(17.89,11.76)" stroke="#8EC4CE">
    <path fill="none" d="M-3.29,0 L3.29,0 " class="primitive"/>
  </g>
  <g transform="translate(21.17,11.76)" stroke="#8EC4CE">
    <path fill="none" d="M0,2.45 L0,-2.45 " class="primitive"/>
  </g>
  <g transform="translate(36.6,17.89)" stroke="#C7A9EC">
    <path fill="none" d="M-4.35,0 L4.35,0 " class="primitive"/>
  </g>
  <g transform="translate(32.63,20.34)" stroke="#8EC4CE">
    <path fill="none" d="M-0.37,0 L0.37,0 " class="primitive"/>
  </g>
  <g transform="translate(23.89,19.11)" stroke="#C7A9EC">
    <path fill="none" d="M-8.36,0 L8.36,0 " class="primitive"/>
  </g>
  <g transform="translate(32.25,19.11)" stroke="#C7A9EC">
    <path fill="none" d="M0,1.23 L0,-1.23 " class="primitive"/>
  </g>
  <g transform="translate(21.02,22.79)" stroke="#8EC4CE">
    <path fill="none" d="M-2.4,0 L2.4,0 " class="primitive"/>
  </g>
  <g transform="translate(20.31,25.24)" stroke="#8EC4CE">
    <path fill="none" d="M-1.69,0 L1.69,0 " class="primitive"/>
  </g>
  <g transform="translate(17.07,24.02)" stroke="#8EC4CE">
    <path fill="none" d="M-1.54,0 L1.54,0 " class="primitive"/>
  </g>
  <g transform="translate(18.61,24.02)" stroke="#8EC4CE">
    <path fill="none" d="M0,1.23 L0,-1.23 " class="primitive"/>
  </g>
  <g transform="translate(15.07,21.57)" stroke="#8EC4CE">
    <path fill="none" d="M-0.47,0 L0.47,0 " class="primitive"/>
  </g>
  <g transform="translate(15.53,21.57)" stroke="#8EC4CE">
    <path fill="none" d="M0,2.45 L0,-2.45 " class="primitive"/>
  </g>
  <g transform="translate(13.5,16.66)" stroke="#8EC4CE">
    <path fill="none" d="M-1.1,0 L1.1,0 " class="primitive"/>
  </g>
  <g transform="translate(14.6,16.66)" stroke="#8EC4CE">
    <path fill="none" d="M0,4.9 L0,-4.9 " class="primitive"/>
  </g>
  <g transform="translate(22.57,27.69)" stroke="#8EC4CE">
    <path fill="none" d="M-3.14,0 L3.14,0 " class="primitive"/>
  </g>
  <g transform="translate(21,30.14)" stroke="#8EC4CE">
    <path fill="none" d="M-1.57,0 L1.57,0 " class="primitive"/>
  </g>
  <g transform="translate(17.25,28.92)" stroke="#8EC4CE">
    <path fill="none" d="M-2.18,0 L2.18,0 " class="primitive"/>
  </g>
  <g transform="translate(19.44,28.92)" stroke="#8EC4CE">
    <path fill="none" d="M0,1.23 L0,-1.23 " class="primitive"/>
  </g>
  <g transform="translate(25.31,32.59)" stroke="#C7A9EC">
    <path fill="none" d="M-2.12,0 L2.12,0 " class="primitive"/>
  </g>
  <g transform="translate(24.97,35.04)" stroke="#C7A9EC">
    <path fill="none" d="M-1.78,0 L1.78,0 " class="primitive"/>
  </g>
  <g transform="translate(19.13,33.82)" stroke="#8EC4CE">
    <path fill="none" d="M-4.06,0 L4.06,0 " class="primitive"/>
  </g>
  <g transform="translate(23.19,33.82)" stroke="#8EC4CE">
    <path fill="none" d="M0,1.23 L0,-1.23 " class="primitive"/>
  </g>
  <g transform="translate(15.01,31.37)" stroke="#8EC4CE">
    <path fill="none" d="M-0.06,0 L0.06,0 " class="primitive"/>
  </g>
  <g transform="translate(15.07,31.37)" stroke="#8EC4CE">
    <path fill="none" d="M0,2.45 L0,-2.45 " class="primitive"/>
  </g>
  <g transform="translate(24.83,37.49)" stroke="#C7A9EC">
    <path fill="none" d="M-1.15,0 L1.15,0 " class="primitive"/>
  </g>
  <g transform="translate(38.52,39.94)" stroke="#C7A9EC">
    <path fill="none" d="M-14.84,0 L14.84,0 " class="primitive"/>
  </g>
  <g transform="translate(22.9,38.72)" stroke="#8EC4CE">
    <path fill="none" d="M-0.78,0 L0.78,0 " class="primitive"/>
  </g>
  <g transform="translate(23.68,38.72)" stroke="#8EC4CE">
    <path fill="none" d="M0,1.23 L0,-1.23 " class="primitive"/>
  </g>
  <g transform="translate(24.56,42.4)" stroke="#8EC4CE">
    <path fill="none" d="M-1.17,0 L1.17,0 " class="primitive"/>
  </g>
  <g transform="translate(30.9,44.85)" stroke="#8EC4CE">
    <path fill="none" d="M-7.5,0 L7.5,0 " class="primitive"/>
  </g>
  <g transform="translate(22.75,43.62)" stroke="#8EC4CE">
    <path fill="none" d="M-0.64,0 L0.64,0 " class="primitive"/>
  </g>
  <g transform="translate(23.4,43.62)" stroke="#8EC4CE">
    <path fill="none" d="M0,1.23 L0,-1.23 " class="primitive"/>
  </g>
  <g transform="translate(18.53,41.17)" stroke="#C7A9EC">
    <path fill="none" d="M-3.58,0 L3.58,0 " class="primitive"/>
  </g>
  <g transform="translate(22.11,41.17)" stroke="#C7A9EC">
    <path fill="none" d="M0,2.45 L0,-2.45 " class="primitive"/>
  </g>
  <g transform="translate(13.67,36.27)" stroke="#8EC4CE">
    <path fill="none" d="M-1.28,0 L1.28,0 " class="primitive"/>
  </g>
  <g transform="translate(14.95,36.27)" stroke="#8EC4CE">
    <path fill="none" d="M0,4.9 L0,-4.9 " class="primitive"/>
  </g>
  <g transform="translate(8.07,26.47)" stroke="#8EC4CE">
    <path fill="none" d="M-4.32,0 L4.32,0 " class="primitive"/>
  </g>
  <g transform="translate(12.4,26.47)" stroke="#8EC4CE">
    <path fill="none" d="M0,9.8 L0,-9.8 " class="primitive"/>
  </g>
  <g transform="translate(23.05,47.3)" stroke="#C7A9EC">
    <path fill="none" d="M-2.17,0 L2.17,0 " class="primitive"/>
  </g>
  <g transform="translate(23.97,49.75)" stroke="#8EC4CE">
    <path fill="none" d="M-3.09,0 L3.09,0 " class="primitive"/>
  </g>
  <g transform="translate(17.14,48.52)" stroke="#C7A9EC">
    <path fill="none" d="M-3.74,0 L3.74,0 " class="primitive"/>
  </g>
  <g transform="translate(20.88,48.52)" stroke="#C7A9EC">
    <path fill="none" d="M0,1.23 L0,-1.23 " class="primitive"/>
  </g>
  <g stroke-opacity="1" stroke-width="0.3" id="img-d6e1d110-2">
    <g transform="translate(24.5,92.63)" stroke="#8EC4CE">
      <path fill="none" d="M0,1.23 L0,-1.23 " class="primitive"/>
    </g>
    <g transform="translate(32.32,96.31)" stroke="#C7A9EC">
      <path fill="none" d="M-4.41,0 L4.41,0 " class="primitive"/>
    </g>
    <g transform="translate(34.38,98.76)" stroke="#8EC4CE">
      <path fill="none" d="M-6.47,0 L6.47,0 " class="primitive"/>
    </g>
    <g transform="translate(25,97.53)" stroke="#8EC4CE">
      <path fill="none" d="M-2.91,0 L2.91,0 " class="primitive"/>
    </g>
    <g transform="translate(27.91,97.53)" stroke="#8EC4CE">
      <path fill="none" d="M0,1.23 L0,-1.23 " class="primitive"/>
    </g>
    <g transform="translate(19.02,95.08)" stroke="#8EC4CE">
      <path fill="none" d="M-3.07,0 L3.07,0 " class="primitive"/>
    </g>
    <g transform="translate(22.09,95.08)" stroke="#8EC4CE">
      <path fill="none" d="M0,2.45 L0,-2.45 " class="primitive"/>
    </g>
    <g transform="translate(15.68,90.18)" stroke="#8EC4CE">
      <path fill="none" d="M-0.27,0 L0.27,0 " class="primitive"/>
    </g>
    <g transform="translate(15.95,90.18)" stroke="#8EC4CE">
      <path fill="none" d="M0,4.9 L0,-4.9 " class="primitive"/>
    </g>
    <g transform="translate(44.49,101.21)" stroke="#C7A9EC">
      <path fill="none" d="M-0.83,0 L0.83,0 " class="primitive"/>
    </g>
    <g transform="translate(47.2,103.66)" stroke="#8EC4CE">
      <path fill="none" d="M-3.55,0 L3.55,0 " class="primitive"/>
    </g>
    <g transform="translate(32.82,102.43)" stroke="#8EC4CE">
      <path fill="none" d="M-10.83,0 L10.83,0 " class="primitive"/>
    </g>
    <g transform="translate(43.65,102.43)" stroke="#8EC4CE">
      <path fill="none" d="M0,1.23 L0,-1.23 " class="primitive"/>
    </g>
    <g transform="translate(29.77,106.11)" stroke="#8EC4CE">
      <path fill="none" d="M-1.63,0 L1.63,0 " class="primitive"/>
    </g>
    <g transform="translate(32.14,108.56)" stroke="#8EC4CE">
      <path fill="none" d="M-4,0 L4,0 " class="primitive"/>
    </g>
    <g transform="translate(25.06,107.34)" stroke="#8EC4CE">
      <path fill="none" d="M-3.07,0 L3.07,0 " class="primitive"/>
    </g>
    <g transform="translate(28.14,107.34)" stroke="#8EC4CE">
      <path fill="none" d="M0,1.23 L0,-1.23 " class="primitive"/>
    </g>
    <g transform="translate(19.02,104.89)" stroke="#8EC4CE">
      <path fill="none" d="M-2.97,0 L2.97,0 " class="primitive"/>
    </g>
    <g transform="translate(21.99,104.89)" stroke="#8EC4CE">
      <path fill="none" d="M0,2.45 L0,-2.45 " class="primitive"/>
    </g>
    <g transform="translate(39.93,111.01)" stroke="#8EC4CE">
      <path fill="none" d="M-1.2,0 L1.2,0 " class="primitive"/>
    </g>
    <g transform="translate(40.07,113.46)" stroke="#8EC4CE">
      <path fill="none" d="M-1.34,0 L1.34,0 " class="primitive"/>
    </g>
    <g transform="translate(29.74,112.24)" stroke="#8EC4CE">
      <path fill="none" d="M-8.99,0 L8.99,0 " class="primitive"/>
    </g>
    <g transform="translate(38.73,112.24)" stroke="#8EC4CE">
      <path fill="none" d="M0,1.23 L0,-1.23 " class="primitive"/>
    </g>
    <g transform="translate(31.93,115.91)" stroke="#8EC4CE">
      <path fill="none" d="M-1.19,0 L1.19,0 " class="primitive"/>
    </g>
    <g transform="translate(31.97,118.36)" stroke="#8EC4CE">
      <path fill="none" d="M-1.23,0 L1.23,0 " class="primitive"/>
    </g>
    <g transform="translate(25.75,117.14)" stroke="#8EC4CE">
      <path fill="none" d="M-4.99,0 L4.99,0 " class="primitive"/>
    </g>
    <g transform="translate(30.74,117.14)" stroke="#8EC4CE">
      <path fill="none" d="M0,1.23 L0,-1.23 " class="primitive"/>
    </g>
    <g transform="translate(18.4,114.69)" stroke="#C7A9EC">
      <path fill="none" d="M-2.35,0 L2.35,0 " class="primitive"/>
    </g>
    <g transform="translate(20.76,114.69)" stroke="#C7A9EC">
      <path fill="none" d="M0,2.45 L0,-2.45 " class="primitive"/>
    </g>
    <g transform="translate(15.73,109.79)" stroke="#8EC4CE">
      <path fill="none" d="M-0.32,0 L0.32,0 " class="primitive"/>
    </g>
    <g transform="translate(16.05,109.79)" stroke="#8EC4CE">
      <path fill="none" d="M0,4.9 L0,-4.9 " class="primitive"/>
    </g>
    <g transform="translate(12.03,99.98)" stroke="#8EC4CE">
      <path fill="none" d="M-3.37,0 L3.37,0 " class="primitive"/>
    </g>
    <g transform="translate(15.4,99.98)" stroke="#8EC4CE">
      <path fill="none" d="M0,9.8 L0,-9.8 " class="primitive"/>
    </g>
    <g transform="translate(6.2,80.69)" stroke="#8EC4CE">
      <path fill="none" d="M-2.45,0 L2.45,0 " class="primitive"/>
    </g>
    <g transform="translate(8.66,80.69)" stroke="#8EC4CE">
      <path fill="none" d="M0,19.3 L0,-19.3 " class="primitive"/>
    </g>
    <g transform="translate(3.75,53.58)" stroke="#000000">
      <path fill="none" d="M0,0 L0,0 " class="primitive"/>
    </g>
    <g transform="translate(3.75,53.58)" stroke="#000000">
      <path fill="none" d="M0,27.11 L0,-27.11 " class="primitive"/>
    </g>
    <g transform="translate(3.75,29.61)" stroke="#000000">
      <path fill="none" d="M0,0 L0,0 " class="primitive"/>
    </g>
    <g transform="translate(3.75,29.61)" stroke="#000000">
      <path fill="none" d="M0,23.97 L0,-23.97 " class="primitive"/>
    </g>
  </g>
  <g stroke-opacity="1" stroke-width="0.3" id="img-d6e1d110-3">
    <g transform="translate(20.88,48.52)" stroke="#C7A9EC">
      <path fill="none" d="M0,1.23 L0,-1.23 " class="primitive"/>
    </g>
    <g transform="translate(23.87,52.2)" stroke="#8EC4CE">
      <path fill="none" d="M-0.38,0 L0.38,0 " class="primitive"/>
    </g>
    <g transform="translate(24.5,54.65)" stroke="#8EC4CE">
      <path fill="none" d="M-1.01,0 L1.01,0 " class="primitive"/>
    </g>
    <g transform="translate(18.91,53.42)" stroke="#8EC4CE">
      <path fill="none" d="M-4.59,0 L4.59,0 " class="primitive"/>
    </g>
    <g transform="translate(23.49,53.42)" stroke="#8EC4CE">
      <path fill="none" d="M0,1.23 L0,-1.23 " class="primitive"/>
    </g>
    <g transform="translate(14.98,57.1)" stroke="#8EC4CE">
      <path fill="none" d="M-0.28,0 L0.28,0 " class="primitive"/>
    </g>
    <g transform="translate(15.65,59.55)" stroke="#8EC4CE">
      <path fill="none" d="M-0.95,0 L0.95,0 " class="primitive"/>
    </g>
    <g transform="translate(14.51,58.32)" stroke="#8EC4CE">
      <path fill="none" d="M-0.19,0 L0.19,0 " class="primitive"/>
    </g>
    <g transform="translate(14.7,58.32)" stroke="#8EC4CE">
      <path fill="none" d="M0,1.23 L0,-1.23 " class="primitive"/>
    </g>
    <g transform="translate(13.86,55.87)" stroke="#C7A9EC">
      <path fill="none" d="M-0.46,0 L0.46,0 " class="primitive"/>
    </g>
    <g transform="translate(14.32,55.87)" stroke="#C7A9EC">
      <path fill="none" d="M0,2.45 L0,-2.45 " class="primitive"/>
    </g>
    <g transform="translate(11.4,52.2)" stroke="#8EC4CE">
      <path fill="none" d="M-2,0 L2,0 " class="primitive"/>
    </g>
    <g transform="translate(13.41,52.2)" stroke="#8EC4CE">
      <path fill="none" d="M0,3.68 L0,-3.68 " class="primitive"/>
    </g>
    <g transform="translate(15.48,62)" stroke="#C7A9EC">
      <path fill="none" d="M-0.07,0 L0.07,0 " class="primitive"/>
    </g>
    <g transform="translate(21.01,64.45)" stroke="#C7A9EC">
      <path fill="none" d="M-5.61,0 L5.61,0 " class="primitive"/>
    </g>
    <g transform="translate(14.1,63.23)" stroke="#8EC4CE">
      <path fill="none" d="M-1.31,0 L1.31,0 " class="primitive"/>
    </g>
    <g transform="translate(15.41,63.23)" stroke="#8EC4CE">
      <path fill="none" d="M0,1.23 L0,-1.23 " class="primitive"/>
    </g>
    <g transform="translate(19.33,66.9)" stroke="#8EC4CE">
      <path fill="none" d="M-0.18,0 L0.18,0 " class="primitive"/>
    </g>
    <g transform="translate(24.03,69.35)" stroke="#8EC4CE">
      <path fill="none" d="M-4.89,0 L4.89,0 " class="primitive"/>
    </g>
    <g transform="translate(15.96,68.13)" stroke="#8EC4CE">
      <path fill="none" d="M-3.18,0 L3.18,0 " class="primitive"/>
    </g>
    <g transform="translate(19.14,68.13)" stroke="#8EC4CE">
      <path fill="none" d="M0,1.23 L0,-1.23 " class="primitive"/>
    </g>
    <g transform="translate(12.64,65.68)" stroke="#C7A9EC">
      <path fill="none" d="M-0.14,0 L0.14,0 " class="primitive"/>
    </g>
    <g transform="translate(12.78,65.68)" stroke="#C7A9EC">
      <path fill="none" d="M0,2.45 L0,-2.45 " class="primitive"/>
    </g>
    <g transform="translate(31.76,71.8)" stroke="#C7A9EC">
      <path fill="none" d="M-2.08,0 L2.08,0 " class="primitive"/>
    </g>
    <g transform="translate(31.5,74.25)" stroke="#8EC4CE">
      <path fill="none" d="M-1.82,0 L1.82,0 " class="primitive"/>
    </g>
    <g transform="translate(22.87,73.03)" stroke="#8EC4CE">
      <path fill="none" d="M-6.82,0 L6.82,0 " class="primitive"/>
    </g>
    <g transform="translate(29.69,73.03)" stroke="#8EC4CE">
      <path fill="none" d="M0,1.23 L0,-1.23 " class="primitive"/>
    </g>
    <g transform="translate(23.84,76.7)" stroke="#8EC4CE">
      <path fill="none" d="M-3.79,0 L3.79,0 " class="primitive"/>
    </g>
    <g transform="translate(20.26,79.15)" stroke="#8EC4CE">
      <path fill="none" d="M-0.21,0 L0.21,0 " class="primitive"/>
    </g>
    <g transform="translate(18.05,77.93)" stroke="#8EC4CE">
      <path fill="none" d="M-2,0 L2,0 " class="primitive"/>
    </g>
    <g transform="translate(20.05,77.93)" stroke="#8EC4CE">
      <path fill="none" d="M0,1.23 L0,-1.23 " class="primitive"/>
    </g>
    <g transform="translate(14.28,75.48)" stroke="#C7A9EC">
      <path fill="none" d="M-1.77,0 L1.77,0 " class="primitive"/>
    </g>
    <g transform="translate(16.05,75.48)" stroke="#C7A9EC">
      <path fill="none" d="M0,2.45 L0,-2.45 " class="primitive"/>
    </g>
    <g transform="translate(10.95,70.58)" stroke="#8EC4CE">
      <path fill="none" d="M-1.55,0 L1.55,0 " class="primitive"/>
    </g>
    <g transform="translate(12.5,70.58)" stroke="#8EC4CE">
      <path fill="none" d="M0,4.9 L0,-4.9 " class="primitive"/>
    </g>
    <g transform="translate(9.03,61.39)" stroke="#8EC4CE">
      <path fill="none" d="M-0.37,0 L0.37,0 " class="primitive"/>
    </g>
    <g transform="translate(9.4,61.39)" stroke="#8EC4CE">
      <path fill="none" d="M0,9.19 L0,-9.19 " class="primitive"/>
    </g>
    <g transform="translate(26.84,81.6)" stroke="#8EC4CE">
      <path fill="none" d="M-0.44,0 L0.44,0 " class="primitive"/>
    </g>
    <g transform="translate(26.87,84.06)" stroke="#8EC4CE">
      <path fill="none" d="M-0.47,0 L0.47,0 " class="primitive"/>
    </g>
    <g transform="translate(22.44,82.83)" stroke="#8EC4CE">
      <path fill="none" d="M-3.95,0 L3.95,0 " class="primitive"/>
    </g>
    <g transform="translate(26.39,82.83)" stroke="#8EC4CE">
      <path fill="none" d="M0,1.23 L0,-1.23 " class="primitive"/>
    </g>
    <g transform="translate(23.1,86.51)" stroke="#C7A9EC">
      <path fill="none" d="M-4.08,0 L4.08,0 " class="primitive"/>
    </g>
    <g transform="translate(26.45,88.96)" stroke="#8EC4CE">
      <path fill="none" d="M-7.43,0 L7.43,0 " class="primitive"/>
    </g>
    <g transform="translate(18.75,87.73)" stroke="#8EC4CE">
      <path fill="none" d="M-0.27,0 L0.27,0 " class="primitive"/>
    </g>
    <g transform="translate(19.02,87.73)" stroke="#8EC4CE">
      <path fill="none" d="M0,1.23 L0,-1.23 " class="primitive"/>
    </g>
    <g transform="translate(17.22,85.28)" stroke="#C7A9EC">
      <path fill="none" d="M-1.27,0 L1.27,0 " class="primitive"/>
    </g>
    <g transform="translate(18.49,85.28)" stroke="#C7A9EC">
      <path fill="none" d="M0,2.45 L0,-2.45 " class="primitive"/>
    </g>
    <g transform="translate(25.12,91.41)" stroke="#8EC4CE">
      <path fill="none" d="M-0.62,0 L0.62,0 " class="primitive"/>
    </g>
    <g transform="translate(29.57,93.86)" stroke="#C7A9EC">
      <path fill="none" d="M-5.06,0 L5.06,0 " class="primitive"/>
    </g>
    <g transform="translate(23.3,92.63)" stroke="#8EC4CE">
      <path fill="none" d="M-1.2,0 L1.2,0 " class="primitive"/>
    </g>
    <g transform="translate(24.5,92.63)" stroke="#8EC4CE">
      <path fill="none" d="M0,1.23 L0,-1.23 " class="primitive"/>
    </g>
  </g>
</g>
<g fill-opacity="1" id="img-d6e1d110-4">
  <g transform="translate(6.08,5.64)" fill="#8EC4CE">
    <circle cx="0" cy="0" r="0.75" class="primitive"/>
  </g>
  <g transform="translate(27.86,8.09)" fill="#8EC4CE">
    <circle cx="0" cy="0" r="0.75" class="primitive"/>
  </g>
  <g transform="translate(31.75,10.54)" fill="#C7A9EC">
    <circle cx="0" cy="0" r="0.75" class="primitive"/>
  </g>
  <g transform="translate(26.39,9.31)" fill="#8EC4CE">
    <circle cx="0" cy="0" r="0.75" class="primitive"/>
  </g>
  <g transform="translate(78.75,12.99)" fill="#C7A9EC">
    <circle cx="0" cy="0" r="0.75" class="primitive"/>
  </g>
  <g transform="translate(62.64,15.44)" fill="#8EC4CE">
    <circle cx="0" cy="0" r="0.75" class="primitive"/>
  </g>
  <g transform="translate(61.89,14.21)" fill="#8EC4CE">
    <circle cx="0" cy="0" r="0.75" class="primitive"/>
  </g>
  <g transform="translate(21.17,11.76)" fill="#8EC4CE">
    <circle cx="0" cy="0" r="0.75" class="primitive"/>
  </g>
  <g transform="translate(40.95,17.89)" fill="#C7A9EC">
    <circle cx="0" cy="0" r="0.75" class="primitive"/>
  </g>
  <g transform="translate(33,20.34)" fill="#8EC4CE">
    <circle cx="0" cy="0" r="0.75" class="primitive"/>
  </g>
  <g transform="translate(32.25,19.11)" fill="#C7A9EC">
    <circle cx="0" cy="0" r="0.75" class="primitive"/>
  </g>
  <g transform="translate(23.42,22.79)" fill="#8EC4CE">
    <circle cx="0" cy="0" r="0.75" class="primitive"/>
  </g>
  <g transform="translate(22,25.24)" fill="#8EC4CE">
    <circle cx="0" cy="0" r="0.75" class="primitive"/>
  </g>
  <g transform="translate(18.61,24.02)" fill="#8EC4CE">
    <circle cx="0" cy="0" r="0.75" class="primitive"/>
  </g>
  <g transform="translate(15.53,21.57)" fill="#8EC4CE">
    <circle cx="0" cy="0" r="0.75" class="primitive"/>
  </g>
  <g transform="translate(14.6,16.66)" fill="#8EC4CE">
    <circle cx="0" cy="0" r="0.75" class="primitive"/>
  </g>
  <g transform="translate(25.71,27.69)" fill="#8EC4CE">
    <circle cx="0" cy="0" r="0.75" class="primitive"/>
  </g>
  <g transform="translate(22.57,30.14)" fill="#8EC4CE">
    <circle cx="0" cy="0" r="0.75" class="primitive"/>
  </g>
  <g transform="translate(19.44,28.92)" fill="#8EC4CE">
    <circle cx="0" cy="0" r="0.75" class="primitive"/>
  </g>
  <g transform="translate(27.43,32.59)" fill="#C7A9EC">
    <circle cx="0" cy="0" r="0.75" class="primitive"/>
  </g>
  <g transform="translate(26.75,35.04)" fill="#C7A9EC">
    <circle cx="0" cy="0" r="0.75" class="primitive"/>
  </g>
  <g transform="translate(23.19,33.82)" fill="#8EC4CE">
    <circle cx="0" cy="0" r="0.75" class="primitive"/>
  </g>
  <g transform="translate(15.07,31.37)" fill="#8EC4CE">
    <circle cx="0" cy="0" r="0.75" class="primitive"/>
  </g>
  <g transform="translate(25.98,37.49)" fill="#C7A9EC">
    <circle cx="0" cy="0" r="0.75" class="primitive"/>
  </g>
  <g transform="translate(53.35,39.94)" fill="#C7A9EC">
    <circle cx="0" cy="0" r="0.75" class="primitive"/>
  </g>
  <g transform="translate(23.68,38.72)" fill="#8EC4CE">
    <circle cx="0" cy="0" r="0.75" class="primitive"/>
  </g>
  <g transform="translate(25.73,42.4)" fill="#8EC4CE">
    <circle cx="0" cy="0" r="0.75" class="primitive"/>
  </g>
  <g transform="translate(38.4,44.85)" fill="#8EC4CE">
    <circle cx="0" cy="0" r="0.75" class="primitive"/>
  </g>
  <g transform="translate(23.4,43.62)" fill="#8EC4CE">
    <circle cx="0" cy="0" r="0.75" class="primitive"/>
  </g>
  <g transform="translate(22.11,41.17)" fill="#C7A9EC">
    <circle cx="0" cy="0" r="0.75" class="primitive"/>
  </g>
  <g transform="translate(14.95,36.27)" fill="#8EC4CE">
    <circle cx="0" cy="0" r="0.75" class="primitive"/>
  </g>
  <g transform="translate(12.4,26.47)" fill="#8EC4CE">
    <circle cx="0" cy="0" r="0.75" class="primitive"/>
  </g>
  <g transform="translate(25.21,47.3)" fill="#C7A9EC">
    <circle cx="0" cy="0" r="0.75" class="primitive"/>
  </g>
  <g transform="translate(27.06,49.75)" fill="#8EC4CE">
    <circle cx="0" cy="0" r="0.75" class="primitive"/>
  </g>
  <g transform="translate(20.88,48.52)" fill="#C7A9EC">
    <circle cx="0" cy="0" r="0.75" class="primitive"/>
  </g>
  <g transform="translate(24.25,52.2)" fill="#8EC4CE">
    <circle cx="0" cy="0" r="0.75" class="primitive"/>
  </g>
  <g transform="translate(25.51,54.65)" fill="#8EC4CE">
    <circle cx="0" cy="0" r="0.75" class="primitive"/>
  </g>
  <g transform="translate(23.49,53.42)" fill="#8EC4CE">
    <circle cx="0" cy="0" r="0.75" class="primitive"/>
  </g>
  <g transform="translate(15.25,57.1)" fill="#8EC4CE">
    <circle cx="0" cy="0" r="0.75" class="primitive"/>
  </g>
  <g transform="translate(16.6,59.55)" fill="#8EC4CE">
    <circle cx="0" cy="0" r="0.75" class="primitive"/>
  </g>
  <g transform="translate(14.7,58.32)" fill="#8EC4CE">
    <circle cx="0" cy="0" r="0.75" class="primitive"/>
  </g>
  <g transform="translate(14.32,55.87)" fill="#C7A9EC">
    <circle cx="0" cy="0" r="0.75" class="primitive"/>
  </g>
  <g transform="translate(13.41,52.2)" fill="#8EC4CE">
    <circle cx="0" cy="0" r="0.75" class="primitive"/>
  </g>
  <g transform="translate(15.56,62)" fill="#C7A9EC">
    <circle cx="0" cy="0" r="0.75" class="primitive"/>
  </g>
  <g transform="translate(26.62,64.45)" fill="#C7A9EC">
    <circle cx="0" cy="0" r="0.75" class="primitive"/>
  </g>
  <g transform="translate(15.41,63.23)" fill="#8EC4CE">
    <circle cx="0" cy="0" r="0.75" class="primitive"/>
  </g>
  <g transform="translate(19.51,66.9)" fill="#8EC4CE">
    <circle cx="0" cy="0" r="0.75" class="primitive"/>
  </g>
  <g transform="translate(28.93,69.35)" fill="#8EC4CE">
    <circle cx="0" cy="0" r="0.75" class="primitive"/>
  </g>
  <g transform="translate(19.14,68.13)" fill="#8EC4CE">
    <circle cx="0" cy="0" r="0.75" class="primitive"/>
  </g>
  <g transform="translate(12.78,65.68)" fill="#C7A9EC">
    <circle cx="0" cy="0" r="0.75" class="primitive"/>
  </g>
  <g transform="translate(33.84,71.8)" fill="#C7A9EC">
    <circle cx="0" cy="0" r="0.75" class="primitive"/>
  </g>
  <g fill-opacity="1" id="img-d6e1d110-5">
    <g transform="translate(33.84,71.8)" fill="#C7A9EC">
      <circle cx="0" cy="0" r="0.75" class="primitive"/>
    </g>
    <g transform="translate(33.32,74.25)" fill="#8EC4CE">
      <circle cx="0" cy="0" r="0.75" class="primitive"/>
    </g>
    <g transform="translate(29.69,73.03)" fill="#8EC4CE">
      <circle cx="0" cy="0" r="0.75" class="primitive"/>
    </g>
    <g transform="translate(27.62,76.7)" fill="#8EC4CE">
      <circle cx="0" cy="0" r="0.75" class="primitive"/>
    </g>
    <g transform="translate(20.47,79.15)" fill="#8EC4CE">
      <circle cx="0" cy="0" r="0.75" class="primitive"/>
    </g>
    <g transform="translate(20.05,77.93)" fill="#8EC4CE">
      <circle cx="0" cy="0" r="0.75" class="primitive"/>
    </g>
    <g transform="translate(16.05,75.48)" fill="#C7A9EC">
      <circle cx="0" cy="0" r="0.75" class="primitive"/>
    </g>
    <g transform="translate(12.5,70.58)" fill="#8EC4CE">
      <circle cx="0" cy="0" r="0.75" class="primitive"/>
    </g>
    <g transform="translate(9.4,61.39)" fill="#8EC4CE">
      <circle cx="0" cy="0" r="0.75" class="primitive"/>
    </g>
    <g transform="translate(27.28,81.6)" fill="#8EC4CE">
      <circle cx="0" cy="0" r="0.75" class="primitive"/>
    </g>
    <g transform="translate(27.34,84.06)" fill="#8EC4CE">
      <circle cx="0" cy="0" r="0.75" class="primitive"/>
    </g>
    <g transform="translate(26.39,82.83)" fill="#8EC4CE">
      <circle cx="0" cy="0" r="0.75" class="primitive"/>
    </g>
    <g transform="translate(27.19,86.51)" fill="#C7A9EC">
      <circle cx="0" cy="0" r="0.75" class="primitive"/>
    </g>
    <g transform="translate(33.89,88.96)" fill="#8EC4CE">
      <circle cx="0" cy="0" r="0.75" class="primitive"/>
    </g>
    <g transform="translate(19.02,87.73)" fill="#8EC4CE">
      <circle cx="0" cy="0" r="0.75" class="primitive"/>
    </g>
    <g transform="translate(18.49,85.28)" fill="#C7A9EC">
      <circle cx="0" cy="0" r="0.75" class="primitive"/>
    </g>
    <g transform="translate(25.74,91.41)" fill="#8EC4CE">
      <circle cx="0" cy="0" r="0.75" class="primitive"/>
    </g>
    <g transform="translate(34.63,93.86)" fill="#C7A9EC">
      <circle cx="0" cy="0" r="0.75" class="primitive"/>
    </g>
    <g transform="translate(24.5,92.63)" fill="#8EC4CE">
      <circle cx="0" cy="0" r="0.75" class="primitive"/>
    </g>
    <g transform="translate(36.72,96.31)" fill="#C7A9EC">
      <circle cx="0" cy="0" r="0.75" class="primitive"/>
    </g>
    <g transform="translate(40.86,98.76)" fill="#8EC4CE">
      <circle cx="0" cy="0" r="0.75" class="primitive"/>
    </g>
    <g transform="translate(27.91,97.53)" fill="#8EC4CE">
      <circle cx="0" cy="0" r="0.75" class="primitive"/>
    </g>
    <g transform="translate(22.09,95.08)" fill="#8EC4CE">
      <circle cx="0" cy="0" r="0.75" class="primitive"/>
    </g>
    <g transform="translate(15.95,90.18)" fill="#8EC4CE">
      <circle cx="0" cy="0" r="0.75" class="primitive"/>
    </g>
    <g transform="translate(45.32,101.21)" fill="#C7A9EC">
      <circle cx="0" cy="0" r="0.75" class="primitive"/>
    </g>
    <g transform="translate(50.75,103.66)" fill="#8EC4CE">
      <circle cx="0" cy="0" r="0.75" class="primitive"/>
    </g>
    <g transform="translate(43.65,102.43)" fill="#8EC4CE">
      <circle cx="0" cy="0" r="0.75" class="primitive"/>
    </g>
    <g transform="translate(31.4,106.11)" fill="#8EC4CE">
      <circle cx="0" cy="0" r="0.75" class="primitive"/>
    </g>
    <g transform="translate(36.14,108.56)" fill="#8EC4CE">
      <circle cx="0" cy="0" r="0.75" class="primitive"/>
    </g>
    <g transform="translate(28.14,107.34)" fill="#8EC4CE">
      <circle cx="0" cy="0" r="0.75" class="primitive"/>
    </g>
    <g transform="translate(21.99,104.89)" fill="#8EC4CE">
      <circle cx="0" cy="0" r="0.75" class="primitive"/>
    </g>
    <g transform="translate(41.13,111.01)" fill="#8EC4CE">
      <circle cx="0" cy="0" r="0.75" class="primitive"/>
    </g>
    <g transform="translate(41.41,113.46)" fill="#8EC4CE">
      <circle cx="0" cy="0" r="0.75" class="primitive"/>
    </g>
    <g transform="translate(38.73,112.24)" fill="#8EC4CE">
      <circle cx="0" cy="0" r="0.75" class="primitive"/>
    </g>
    <g transform="translate(33.12,115.91)" fill="#8EC4CE">
      <circle cx="0" cy="0" r="0.75" class="primitive"/>
    </g>
    <g transform="translate(33.21,118.36)" fill="#8EC4CE">
      <circle cx="0" cy="0" r="0.75" class="primitive"/>
    </g>
    <g transform="translate(30.74,117.14)" fill="#8EC4CE">
      <circle cx="0" cy="0" r="0.75" class="primitive"/>
    </g>
    <g transform="translate(20.76,114.69)" fill="#C7A9EC">
      <circle cx="0" cy="0" r="0.75" class="primitive"/>
    </g>
    <g transform="translate(16.05,109.79)" fill="#8EC4CE">
      <circle cx="0" cy="0" r="0.75" class="primitive"/>
    </g>
    <g transform="translate(15.4,99.98)" fill="#8EC4CE">
      <circle cx="0" cy="0" r="0.75" class="primitive"/>
    </g>
    <g transform="translate(8.66,80.69)" fill="#8EC4CE">
      <circle cx="0" cy="0" r="0.75" class="primitive"/>
    </g>
    <g transform="translate(3.75,53.58)" fill="#000000">
      <circle cx="0" cy="0" r="0.75" class="primitive"/>
    </g>
    <g transform="translate(3.75,29.61)" fill="#000000">
      <circle cx="0" cy="0" r="0.75" class="primitive"/>
    </g>
  </g>
</g>
<g stroke-opacity="1" fill-opacity="1" font-size="1.41" stroke-width="0.1" id="img-d6e1d110-6">
  <g transform="translate(7.96,5.64)" stroke="#000000">
    <g class="primitive">
      <text dy="0.35em">N46</text>
    </g>
  </g>
  <g transform="translate(29.73,8.09)" stroke="#000000">
    <g class="primitive">
      <text dy="0.35em">N28</text>
    </g>
  </g>
  <g transform="translate(33.62,10.54)" stroke="#000000">
    <g class="primitive">
      <text dy="0.35em">N29</text>
    </g>
  </g>
  <g transform="translate(28.27,9.31)" stroke="#000000">
    <g class="primitive">
      <text dy="0.35em">N61</text>
    </g>
  </g>
  <g transform="translate(80.62,12.99)" stroke="#000000">
    <g class="primitive">
      <text dy="0.35em">N30</text>
    </g>
  </g>
  <g transform="translate(64.52,15.44)" stroke="#000000">
    <g class="primitive">
      <text dy="0.35em">N31</text>
    </g>
  </g>
  <g transform="translate(63.77,14.21)" stroke="#000000">
    <g class="primitive">
      <text dy="0.35em">N62</text>
    </g>
  </g>
  <g transform="translate(23.05,11.76)" stroke="#000000">
    <g class="primitive">
      <text dy="0.35em">N77</text>
    </g>
  </g>
  <g transform="translate(42.82,17.89)" stroke="#000000">
    <g class="primitive">
      <text dy="0.35em">N32</text>
    </g>
  </g>
  <g transform="translate(34.88,20.34)" stroke="#000000">
    <g class="primitive">
      <text dy="0.35em">N33</text>
    </g>
  </g>
  <g transform="translate(34.13,19.11)" stroke="#000000">
    <g class="primitive">
      <text dy="0.35em">N63</text>
    </g>
  </g>
  <g transform="translate(25.29,22.79)" stroke="#000000">
    <g class="primitive">
      <text dy="0.35em">N34</text>
    </g>
  </g>
  <g transform="translate(23.87,25.24)" stroke="#000000">
    <g class="primitive">
      <text dy="0.35em">N35</text>
    </g>
  </g>
  <g transform="translate(20.49,24.02)" stroke="#000000">
    <g class="primitive">
      <text dy="0.35em">N64</text>
    </g>
  </g>
  <g transform="translate(17.41,21.57)" stroke="#000000">
    <g class="primitive">
      <text dy="0.35em">N78</text>
    </g>
  </g>
  <g transform="translate(16.47,16.66)" stroke="#000000">
    <g class="primitive">
      <text dy="0.35em">N85</text>
    </g>
  </g>
  <g transform="translate(27.59,27.69)" stroke="#000000">
    <g class="primitive">
      <text dy="0.35em">N36</text>
    </g>
  </g>
  <g transform="translate(24.44,30.14)" stroke="#000000">
    <g class="primitive">
      <text dy="0.35em">N37</text>
    </g>
  </g>
  <g transform="translate(21.31,28.92)" stroke="#000000">
    <g class="primitive">
      <text dy="0.35em">N65</text>
    </g>
  </g>
  <g transform="translate(29.31,32.59)" stroke="#000000">
    <g class="primitive">
      <text dy="0.35em">N38</text>
    </g>
  </g>
  <g transform="translate(28.63,35.04)" stroke="#000000">
    <g class="primitive">
      <text dy="0.35em">N39</text>
    </g>
  </g>
  <g transform="translate(25.06,33.82)" stroke="#000000">
    <g class="primitive">
      <text dy="0.35em">N66</text>
    </g>
  </g>
  <g transform="translate(16.95,31.37)" stroke="#000000">
    <g class="primitive">
      <text dy="0.35em">N79</text>
    </g>
  </g>
  <g transform="translate(27.85,37.49)" stroke="#000000">
    <g class="primitive">
      <text dy="0.35em">N40</text>
    </g>
  </g>
  <g transform="translate(55.23,39.94)" stroke="#000000">
    <g class="primitive">
      <text dy="0.35em">N41</text>
    </g>
  </g>
  <g transform="translate(25.56,38.72)" stroke="#000000">
    <g class="primitive">
      <text dy="0.35em">N67</text>
    </g>
  </g>
  <g transform="translate(27.6,42.4)" stroke="#000000">
    <g class="primitive">
      <text dy="0.35em">N42</text>
    </g>
  </g>
  <g transform="translate(40.27,44.85)" stroke="#000000">
    <g class="primitive">
      <text dy="0.35em">N43</text>
    </g>
  </g>
  <g transform="translate(25.27,43.62)" stroke="#000000">
    <g class="primitive">
      <text dy="0.35em">N68</text>
    </g>
  </g>
  <g transform="translate(23.99,41.17)" stroke="#000000">
    <g class="primitive">
      <text dy="0.35em">N80</text>
    </g>
  </g>
  <g transform="translate(16.83,36.27)" stroke="#000000">
    <g class="primitive">
      <text dy="0.35em">N86</text>
    </g>
  </g>
  <g transform="translate(14.27,26.47)" stroke="#000000">
    <g class="primitive">
      <text dy="0.35em">N89</text>
    </g>
  </g>
  <g transform="translate(27.09,47.3)" stroke="#000000">
    <g class="primitive">
      <text dy="0.35em">N44</text>
    </g>
  </g>
  <g transform="translate(28.94,49.75)" stroke="#000000">
    <g class="primitive">
      <text dy="0.35em">N45</text>
    </g>
  </g>
  <g transform="translate(22.75,48.52)" stroke="#000000">
    <g class="primitive">
      <text dy="0.35em">N69</text>
    </g>
  </g>
  <g transform="translate(26.12,52.2)" stroke="#000000">
    <g class="primitive">
      <text dy="0.35em">N0</text>
    </g>
  </g>
  <g transform="translate(27.38,54.65)" stroke="#000000">
    <g class="primitive">
      <text dy="0.35em">N1</text>
    </g>
  </g>
  <g transform="translate(25.37,53.42)" stroke="#000000">
    <g class="primitive">
      <text dy="0.35em">N47</text>
    </g>
  </g>
  <g transform="translate(17.13,57.1)" stroke="#000000">
    <g class="primitive">
      <text dy="0.35em">N2</text>
    </g>
  </g>
  <g transform="translate(18.48,59.55)" stroke="#000000">
    <g class="primitive">
      <text dy="0.35em">N3</text>
    </g>
  </g>
  <g transform="translate(16.57,58.32)" stroke="#000000">
    <g class="primitive">
      <text dy="0.35em">N48</text>
    </g>
  </g>
  <g transform="translate(16.2,55.87)" stroke="#000000">
    <g class="primitive">
      <text dy="0.35em">N70</text>
    </g>
  </g>
  <g transform="translate(15.28,52.2)" stroke="#000000">
    <g class="primitive">
      <text dy="0.35em">N81</text>
    </g>
  </g>
  <g transform="translate(17.43,62)" stroke="#000000">
    <g class="primitive">
      <text dy="0.35em">N4</text>
    </g>
  </g>
  <g transform="translate(28.49,64.45)" stroke="#000000">
    <g class="primitive">
      <text dy="0.35em">N5</text>
    </g>
  </g>
  <g transform="translate(17.28,63.23)" stroke="#000000">
    <g class="primitive">
      <text dy="0.35em">N49</text>
    </g>
  </g>
  <g transform="translate(21.38,66.9)" stroke="#000000">
    <g class="primitive">
      <text dy="0.35em">N6</text>
    </g>
  </g>
  <g transform="translate(30.8,69.35)" stroke="#000000">
    <g class="primitive">
      <text dy="0.35em">N7</text>
    </g>
  </g>
  <g transform="translate(21.02,68.13)" stroke="#000000">
    <g class="primitive">
      <text dy="0.35em">N50</text>
    </g>
  </g>
  <g transform="translate(14.66,65.68)" stroke="#000000">
    <g class="primitive">
      <text dy="0.35em">N71</text>
    </g>
  </g>
  <g transform="translate(35.72,71.8)" stroke="#000000">
    <g class="primitive">
      <text dy="0.35em">N8</text>
    </g>
  </g>
  <g stroke-opacity="1" fill-opacity="1" font-size="1.41" stroke-width="0.1" id="img-d6e1d110-7">
    <g transform="translate(35.72,71.8)" stroke="#000000">
      <g class="primitive">
        <text dy="0.35em">N8</text>
      </g>
    </g>
    <g transform="translate(35.2,74.25)" stroke="#000000">
      <g class="primitive">
        <text dy="0.35em">N9</text>
      </g>
    </g>
    <g transform="translate(31.56,73.03)" stroke="#000000">
      <g class="primitive">
        <text dy="0.35em">N51</text>
      </g>
    </g>
    <g transform="translate(29.5,76.7)" stroke="#000000">
      <g class="primitive">
        <text dy="0.35em">N10</text>
      </g>
    </g>
    <g transform="translate(22.34,79.15)" stroke="#000000">
      <g class="primitive">
        <text dy="0.35em">N11</text>
      </g>
    </g>
    <g transform="translate(21.93,77.93)" stroke="#000000">
      <g class="primitive">
        <text dy="0.35em">N52</text>
      </g>
    </g>
    <g transform="translate(17.93,75.48)" stroke="#000000">
      <g class="primitive">
        <text dy="0.35em">N72</text>
      </g>
    </g>
    <g transform="translate(14.38,70.58)" stroke="#000000">
      <g class="primitive">
        <text dy="0.35em">N82</text>
      </g>
    </g>
    <g transform="translate(11.27,61.39)" stroke="#000000">
      <g class="primitive">
        <text dy="0.35em">N87</text>
      </g>
    </g>
    <g transform="translate(29.15,81.6)" stroke="#000000">
      <g class="primitive">
        <text dy="0.35em">N12</text>
      </g>
    </g>
    <g transform="translate(29.22,84.06)" stroke="#000000">
      <g class="primitive">
        <text dy="0.35em">N13</text>
      </g>
    </g>
    <g transform="translate(28.27,82.83)" stroke="#000000">
      <g class="primitive">
        <text dy="0.35em">N53</text>
      </g>
    </g>
    <g transform="translate(29.06,86.51)" stroke="#000000">
      <g class="primitive">
        <text dy="0.35em">N14</text>
      </g>
    </g>
    <g transform="translate(35.76,88.96)" stroke="#000000">
      <g class="primitive">
        <text dy="0.35em">N15</text>
      </g>
    </g>
    <g transform="translate(20.9,87.73)" stroke="#000000">
      <g class="primitive">
        <text dy="0.35em">N54</text>
      </g>
    </g>
    <g transform="translate(20.36,85.28)" stroke="#000000">
      <g class="primitive">
        <text dy="0.35em">N73</text>
      </g>
    </g>
    <g transform="translate(27.62,91.41)" stroke="#000000">
      <g class="primitive">
        <text dy="0.35em">N16</text>
      </g>
    </g>
    <g transform="translate(36.5,93.86)" stroke="#000000">
      <g class="primitive">
        <text dy="0.35em">N17</text>
      </g>
    </g>
    <g transform="translate(26.38,92.63)" stroke="#000000">
      <g class="primitive">
        <text dy="0.35em">N55</text>
      </g>
    </g>
    <g transform="translate(38.6,96.31)" stroke="#000000">
      <g class="primitive">
        <text dy="0.35em">N18</text>
      </g>
    </g>
    <g transform="translate(42.73,98.76)" stroke="#000000">
      <g class="primitive">
        <text dy="0.35em">N19</text>
      </g>
    </g>
    <g transform="translate(29.79,97.53)" stroke="#000000">
      <g class="primitive">
        <text dy="0.35em">N56</text>
      </g>
    </g>
    <g transform="translate(23.97,95.08)" stroke="#000000">
      <g class="primitive">
        <text dy="0.35em">N74</text>
      </g>
    </g>
    <g transform="translate(17.82,90.18)" stroke="#000000">
      <g class="primitive">
        <text dy="0.35em">N83</text>
      </g>
    </g>
    <g transform="translate(47.19,101.21)" stroke="#000000">
      <g class="primitive">
        <text dy="0.35em">N20</text>
      </g>
    </g>
    <g transform="translate(52.62,103.66)" stroke="#000000">
      <g class="primitive">
        <text dy="0.35em">N21</text>
      </g>
    </g>
    <g transform="translate(45.53,102.43)" stroke="#000000">
      <g class="primitive">
        <text dy="0.35em">N57</text>
      </g>
    </g>
    <g transform="translate(33.28,106.11)" stroke="#000000">
      <g class="primitive">
        <text dy="0.35em">N22</text>
      </g>
    </g>
    <g transform="translate(38.01,108.56)" stroke="#000000">
      <g class="primitive">
        <text dy="0.35em">N23</text>
      </g>
    </g>
    <g transform="translate(30.01,107.34)" stroke="#000000">
      <g class="primitive">
        <text dy="0.35em">N58</text>
      </g>
    </g>
    <g transform="translate(23.87,104.89)" stroke="#000000">
      <g class="primitive">
        <text dy="0.35em">N75</text>
      </g>
    </g>
    <g transform="translate(43,111.01)" stroke="#000000">
      <g class="primitive">
        <text dy="0.35em">N24</text>
      </g>
    </g>
    <g transform="translate(43.29,113.46)" stroke="#000000">
      <g class="primitive">
        <text dy="0.35em">N25</text>
      </g>
    </g>
    <g transform="translate(40.6,112.24)" stroke="#000000">
      <g class="primitive">
        <text dy="0.35em">N59</text>
      </g>
    </g>
    <g transform="translate(34.99,115.91)" stroke="#000000">
      <g class="primitive">
        <text dy="0.35em">N26</text>
      </g>
    </g>
    <g transform="translate(35.08,118.36)" stroke="#000000">
      <g class="primitive">
        <text dy="0.35em">N27</text>
      </g>
    </g>
    <g transform="translate(32.61,117.14)" stroke="#000000">
      <g class="primitive">
        <text dy="0.35em">N60</text>
      </g>
    </g>
    <g transform="translate(22.63,114.69)" stroke="#000000">
      <g class="primitive">
        <text dy="0.35em">N76</text>
      </g>
    </g>
    <g transform="translate(17.92,109.79)" stroke="#000000">
      <g class="primitive">
        <text dy="0.35em">N84</text>
      </g>
    </g>
    <g transform="translate(17.28,99.98)" stroke="#000000">
      <g class="primitive">
        <text dy="0.35em">N88</text>
      </g>
    </g>
    <g transform="translate(10.53,80.69)" stroke="#000000">
      <g class="primitive">
        <text dy="0.35em">N90</text>
      </g>
    </g>
    <g transform="translate(5.63,53.58)" stroke="#000000">
      <g class="primitive">
        <text dy="0.35em"></text>
      </g>
    </g>
    <g transform="translate(5.63,29.61)" stroke="#000000">
      <g class="primitive">
        <text dy="0.35em"></text>
      </g>
    </g>
  </g>
</g>
</svg>
