<?xml version="1.0" encoding="UTF-8"?>
<svg xmlns="http://www.w3.org/2000/svg"
     xmlns:xlink="http://www.w3.org/1999/xlink"
     version="1.2"
     width="150mm" height="110mm" viewBox="0 0 150 110"
     stroke="none"
     fill="#000000"
     stroke-width="0.3"
     font-size="3.88"
>
<defs>
  <marker id="arrow" markerWidth="15" markerHeight="7" refX="5" refY="3.5" orient="auto" markerUnits="strokeWidth">
    <path d="M0,0 L15,3.5 L0,7 z" stroke="context-stroke" fill="context-stroke"/>
  </marker>
</defs>
<g stroke-opacity="1" stroke-width="0.3" id="img-29b4c979-1">
  <g transform="translate(22,5)" stroke="#04F816">
    <path fill="none" d="M-1.34,0 L1.34,0 " class="primitive"/>
  </g>
  <g transform="translate(22.94,7.56)" stroke="#AAC1D1">
    <path fill="none" d="M-2.27,0 L2.27,0 " class="primitive"/>
  </g>
  <g transform="translate(15.87,6.28)" stroke="#AAC1D1">
    <path fill="none" d="M-4.79,0 L4.79,0 " class="primitive"/>
  </g>
  <g transform="translate(20.67,6.28)" stroke="#AAC1D1">
    <path fill="none" d="M0,1.28 L0,-1.28 " class="primitive"/>
  </g>
  <g transform="translate(16.56,10.13)" stroke="#AAC1D1">
    <path fill="none" d="M-1.79,0 L1.79,0 " class="primitive"/>
  </g>
  <g transform="translate(17.56,12.69)" stroke="#AAC1D1">
    <path fill="none" d="M-2.79,0 L2.79,0 " class="primitive"/>
  </g>
  <g transform="translate(12.92,11.41)" stroke="#04F816">
    <path fill="none" d="M-1.85,0 L1.85,0 " class="primitive"/>
  </g>
  <g transform="translate(14.77,11.41)" stroke="#04F816">
    <path fill="none" d="M0,1.28 L0,-1.28 " class="primitive"/>
  </g>
  <g transform="translate(10.2,8.85)" stroke="#AAC1D1">
    <path fill="none" d="M-0.88,0 L0.88,0 " class="primitive"/>
  </g>
  <g transform="translate(11.08,8.85)" stroke="#AAC1D1">
    <path fill="none" d="M0,2.56 L0,-2.56 " class="primitive"/>
  </g>
  <g transform="translate(28.38,15.26)" stroke="#AAC1D1">
    <path fill="none" d="M-8.73,0 L8.73,0 " class="primitive"/>
  </g>
  <g transform="translate(27.02,17.82)" stroke="#AAC1D1">
    <path fill="none" d="M-7.36,0 L7.36,0 " class="primitive"/>
  </g>
  <g transform="translate(17.29,16.54)" stroke="#AAC1D1">
    <path fill="none" d="M-2.36,0 L2.36,0 " class="primitive"/>
  </g>
  <g transform="translate(19.65,16.54)" stroke="#AAC1D1">
    <path fill="none" d="M0,1.28 L0,-1.28 " class="primitive"/>
  </g>
  <g transform="translate(16.55,20.38)" stroke="#AAC1D1">
    <path fill="none" d="M-0.93,0 L0.93,0 " class="primitive"/>
  </g>
  <g transform="translate(24.63,22.95)" stroke="#AAC1D1">
    <path fill="none" d="M-9.01,0 L9.01,0 " class="primitive"/>
  </g>
  <g transform="translate(15.28,21.67)" stroke="#AAC1D1">
    <path fill="none" d="M-0.34,0 L0.34,0 " class="primitive"/>
  </g>
  <g transform="translate(15.62,21.67)" stroke="#AAC1D1">
    <path fill="none" d="M0,1.28 L0,-1.28 " class="primitive"/>
  </g>
  <g transform="translate(12.13,19.1)" stroke="#04F816">
    <path fill="none" d="M-2.81,0 L2.81,0 " class="primitive"/>
  </g>
  <g transform="translate(14.94,19.1)" stroke="#04F816">
    <path fill="none" d="M0,2.56 L0,-2.56 " class="primitive"/>
  </g>
  <g transform="translate(8,13.97)" stroke="#AAC1D1">
    <path fill="none" d="M-1.31,0 L1.31,0 " class="primitive"/>
  </g>
  <g transform="translate(9.31,13.97)" stroke="#AAC1D1">
    <path fill="none" d="M0,5.13 L0,-5.13 " class="primitive"/>
  </g>
  <g transform="translate(54.52,25.51)" stroke="#AAC1D1">
    <path fill="none" d="M-2.97,0 L2.97,0 " class="primitive"/>
  </g>
  <g transform="translate(52.99,28.08)" stroke="#04F816">
    <path fill="none" d="M-1.45,0 L1.45,0 " class="primitive"/>
  </g>
  <g transform="translate(40.33,26.79)" stroke="#AAC1D1">
    <path fill="none" d="M-11.21,0 L11.21,0 " class="primitive"/>
  </g>
  <g transform="translate(51.54,26.79)" stroke="#AAC1D1">
    <path fill="none" d="M0,1.28 L0,-1.28 " class="primitive"/>
  </g>
  <g transform="translate(40.91,30.64)" stroke="#AAC1D1">
    <path fill="none" d="M-1.88,0 L1.88,0 " class="primitive"/>
  </g>
  <g transform="translate(39.8,33.21)" stroke="#AAC1D1">
    <path fill="none" d="M-0.77,0 L0.77,0 " class="primitive"/>
  </g>
  <g transform="translate(34.08,31.92)" stroke="#AAC1D1">
    <path fill="none" d="M-4.96,0 L4.96,0 " class="primitive"/>
  </g>
  <g transform="translate(39.03,31.92)" stroke="#AAC1D1">
    <path fill="none" d="M0,1.28 L0,-1.28 " class="primitive"/>
  </g>
  <g transform="translate(27.82,29.36)" stroke="#AAC1D1">
    <path fill="none" d="M-1.29,0 L1.29,0 " class="primitive"/>
  </g>
  <g transform="translate(29.12,29.36)" stroke="#AAC1D1">
    <path fill="none" d="M0,2.56 L0,-2.56 " class="primitive"/>
  </g>
  <g transform="translate(72.47,35.77)" stroke="#AAC1D1">
    <path fill="none" d="M-6.28,0 L6.28,0 " class="primitive"/>
  </g>
  <g transform="translate(66.25,38.33)" stroke="#AAC1D1">
    <path fill="none" d="M-0.06,0 L0.06,0 " class="primitive"/>
  </g>
  <g transform="translate(58.53,37.05)" stroke="#04F816">
    <path fill="none" d="M-7.67,0 L7.67,0 " class="primitive"/>
  </g>
  <g transform="translate(66.19,37.05)" stroke="#04F816">
    <path fill="none" d="M0,1.28 L0,-1.28 " class="primitive"/>
  </g>
  <g transform="translate(56.71,40.9)" stroke="#04F816">
    <path fill="none" d="M-3.86,0 L3.86,0 " class="primitive"/>
  </g>
  <g transform="translate(55.04,43.46)" stroke="#04F816">
    <path fill="none" d="M-2.19,0 L2.19,0 " class="primitive"/>
  </g>
  <g transform="translate(51.86,42.18)" stroke="#AAC1D1">
    <path fill="none" d="M-1,0 L1,0 " class="primitive"/>
  </g>
  <g transform="translate(52.85,42.18)" stroke="#AAC1D1">
    <path fill="none" d="M0,1.28 L0,-1.28 " class="primitive"/>
  </g>
  <g transform="translate(38.69,39.62)" stroke="#AAC1D1">
    <path fill="none" d="M-12.16,0 L12.16,0 " class="primitive"/>
  </g>
  <g transform="translate(50.86,39.62)" stroke="#AAC1D1">
    <path fill="none" d="M0,2.56 L0,-2.56 " class="primitive"/>
  </g>
  <g transform="translate(16.61,34.49)" stroke="#AAC1D1">
    <path fill="none" d="M-9.92,0 L9.92,0 " class="primitive"/>
  </g>
  <g transform="translate(26.53,34.49)" stroke="#AAC1D1">
    <path fill="none" d="M0,5.13 L0,-5.13 " class="primitive"/>
  </g>
  <g transform="translate(5.22,24.23)" stroke="#AAC1D1">
    <path fill="none" d="M-1.47,0 L1.47,0 " class="primitive"/>
  </g>
  <g transform="translate(6.69,24.23)" stroke="#AAC1D1">
    <path fill="none" d="M0,10.26 L0,-10.26 " class="primitive"/>
  </g>
  <g transform="translate(27.07,46.03)" stroke="#04F816">
    <path fill="none" d="M-3.35,0 L3.35,0 " class="primitive"/>
  </g>
  <g transform="translate(33.17,48.59)" stroke="#AAC1D1">
    <path fill="none" d="M-9.44,0 L9.44,0 " class="primitive"/>
  </g>
  <g transform="translate(23.42,47.31)" stroke="#AAC1D1">
    <path fill="none" d="M-0.3,0 L0.3,0 " class="primitive"/>
  </g>
  <g transform="translate(23.73,47.31)" stroke="#AAC1D1">
    <path fill="none" d="M0,1.28 L0,-1.28 " class="primitive"/>
  </g>
  <g transform="translate(48.04,51.15)" stroke="#AAC1D1">
    <path fill="none" d="M-22.73,0 L22.73,0 " class="primitive"/>
  </g>
  <g stroke-opacity="1" stroke-width="0.3" id="img-29b4c979-2">
    <g transform="translate(25.06,97.31)" stroke="#AAC1D1">
      <path fill="none" d="M-1.84,0 L1.84,0 " class="primitive"/>
    </g>
    <g transform="translate(29.27,99.87)" stroke="#AAC1D1">
      <path fill="none" d="M-6.05,0 L6.05,0 " class="primitive"/>
    </g>
    <g transform="translate(22.92,98.59)" stroke="#04F816">
      <path fill="none" d="M-0.3,0 L0.3,0 " class="primitive"/>
    </g>
    <g transform="translate(23.22,98.59)" stroke="#04F816">
      <path fill="none" d="M0,1.28 L0,-1.28 " class="primitive"/>
    </g>
    <g transform="translate(32.07,102.44)" stroke="#AAC1D1">
      <path fill="none" d="M-5.49,0 L5.49,0 " class="primitive"/>
    </g>
    <g transform="translate(28.01,105)" stroke="#AAC1D1">
      <path fill="none" d="M-1.43,0 L1.43,0 " class="primitive"/>
    </g>
    <g transform="translate(24.6,103.72)" stroke="#04F816">
      <path fill="none" d="M-1.98,0 L1.98,0 " class="primitive"/>
    </g>
    <g transform="translate(26.59,103.72)" stroke="#04F816">
      <path fill="none" d="M0,1.28 L0,-1.28 " class="primitive"/>
    </g>
    <g transform="translate(17.42,101.15)" stroke="#AAC1D1">
      <path fill="none" d="M-5.2,0 L5.2,0 " class="primitive"/>
    </g>
    <g transform="translate(22.62,101.15)" stroke="#AAC1D1">
      <path fill="none" d="M0,2.56 L0,-2.56 " class="primitive"/>
    </g>
    <g transform="translate(11.61,96.03)" stroke="#AAC1D1">
      <path fill="none" d="M-0.6,0 L0.6,0 " class="primitive"/>
    </g>
    <g transform="translate(12.21,96.03)" stroke="#AAC1D1">
      <path fill="none" d="M0,5.13 L0,-5.13 " class="primitive"/>
    </g>
    <g transform="translate(7.38,85.77)" stroke="#AAC1D1">
      <path fill="none" d="M-3.63,0 L3.63,0 " class="primitive"/>
    </g>
    <g transform="translate(11.01,85.77)" stroke="#AAC1D1">
      <path fill="none" d="M0,10.26 L0,-10.26 " class="primitive"/>
    </g>
    <g transform="translate(3.75,70.38)" stroke="#000000">
      <path fill="none" d="M0,0 L0,0 " class="primitive"/>
    </g>
    <g transform="translate(3.75,70.38)" stroke="#000000">
      <path fill="none" d="M0,15.38 L0,-15.38 " class="primitive"/>
    </g>
    <g transform="translate(3.75,47.31)" stroke="#000000">
      <path fill="none" d="M0,0 L0,0 " class="primitive"/>
    </g>
    <g transform="translate(3.75,47.31)" stroke="#000000">
      <path fill="none" d="M0,23.08 L0,-23.08 " class="primitive"/>
    </g>
  </g>
  <g stroke-opacity="1" stroke-width="0.3" id="img-29b4c979-3">
    <g transform="translate(48.04,51.15)" stroke="#AAC1D1">
      <path fill="none" d="M-22.73,0 L22.73,0 " class="primitive"/>
    </g>
    <g transform="translate(27.51,53.72)" stroke="#AAC1D1">
      <path fill="none" d="M-2.2,0 L2.2,0 " class="primitive"/>
    </g>
    <g transform="translate(24.21,52.44)" stroke="#AAC1D1">
      <path fill="none" d="M-1.09,0 L1.09,0 " class="primitive"/>
    </g>
    <g transform="translate(25.31,52.44)" stroke="#AAC1D1">
      <path fill="none" d="M0,1.28 L0,-1.28 " class="primitive"/>
    </g>
    <g transform="translate(20.93,49.87)" stroke="#AAC1D1">
      <path fill="none" d="M-2.19,0 L2.19,0 " class="primitive"/>
    </g>
    <g transform="translate(23.12,49.87)" stroke="#AAC1D1">
      <path fill="none" d="M0,2.56 L0,-2.56 " class="primitive"/>
    </g>
    <g transform="translate(46.07,56.28)" stroke="#AAC1D1">
      <path fill="none" d="M-10.5,0 L10.5,0 " class="primitive"/>
    </g>
    <g transform="translate(56.58,58.85)" stroke="#04F816">
      <path fill="none" d="M-21.01,0 L21.01,0 " class="primitive"/>
    </g>
    <g transform="translate(29.12,57.56)" stroke="#AAC1D1">
      <path fill="none" d="M-6.44,0 L6.44,0 " class="primitive"/>
    </g>
    <g transform="translate(35.56,57.56)" stroke="#AAC1D1">
      <path fill="none" d="M0,1.28 L0,-1.28 " class="primitive"/>
    </g>
    <g transform="translate(37.93,61.41)" stroke="#AAC1D1">
      <path fill="none" d="M-12.24,0 L12.24,0 " class="primitive"/>
    </g>
    <g transform="translate(26.51,63.97)" stroke="#AAC1D1">
      <path fill="none" d="M-0.82,0 L0.82,0 " class="primitive"/>
    </g>
    <g transform="translate(24.19,62.69)" stroke="#AAC1D1">
      <path fill="none" d="M-1.51,0 L1.51,0 " class="primitive"/>
    </g>
    <g transform="translate(25.69,62.69)" stroke="#AAC1D1">
      <path fill="none" d="M0,1.28 L0,-1.28 " class="primitive"/>
    </g>
    <g transform="translate(20.71,60.13)" stroke="#AAC1D1">
      <path fill="none" d="M-1.97,0 L1.97,0 " class="primitive"/>
    </g>
    <g transform="translate(22.68,60.13)" stroke="#AAC1D1">
      <path fill="none" d="M0,2.56 L0,-2.56 " class="primitive"/>
    </g>
    <g transform="translate(11.24,55)" stroke="#AAC1D1">
      <path fill="none" d="M-7.49,0 L7.49,0 " class="primitive"/>
    </g>
    <g transform="translate(18.73,55)" stroke="#AAC1D1">
      <path fill="none" d="M0,5.13 L0,-5.13 " class="primitive"/>
    </g>
    <g transform="translate(37.81,66.54)" stroke="#AAC1D1">
      <path fill="none" d="M-2.19,0 L2.19,0 " class="primitive"/>
    </g>
    <g transform="translate(40.31,69.1)" stroke="#04F816">
      <path fill="none" d="M-4.69,0 L4.69,0 " class="primitive"/>
    </g>
    <g transform="translate(26.06,67.82)" stroke="#AAC1D1">
      <path fill="none" d="M-9.56,0 L9.56,0 " class="primitive"/>
    </g>
    <g transform="translate(35.62,67.82)" stroke="#AAC1D1">
      <path fill="none" d="M0,1.28 L0,-1.28 " class="primitive"/>
    </g>
    <g transform="translate(27.44,71.67)" stroke="#AAC1D1">
      <path fill="none" d="M-2.73,0 L2.73,0 " class="primitive"/>
    </g>
    <g transform="translate(31.01,74.23)" stroke="#AAC1D1">
      <path fill="none" d="M-6.3,0 L6.3,0 " class="primitive"/>
    </g>
    <g transform="translate(20.61,72.95)" stroke="#AAC1D1">
      <path fill="none" d="M-4.1,0 L4.1,0 " class="primitive"/>
    </g>
    <g transform="translate(24.71,72.95)" stroke="#AAC1D1">
      <path fill="none" d="M0,1.28 L0,-1.28 " class="primitive"/>
    </g>
    <g transform="translate(16.25,70.38)" stroke="#04F816">
      <path fill="none" d="M-0.25,0 L0.25,0 " class="primitive"/>
    </g>
    <g transform="translate(16.51,70.38)" stroke="#04F816">
      <path fill="none" d="M0,2.56 L0,-2.56 " class="primitive"/>
    </g>
    <g transform="translate(31.67,76.79)" stroke="#AAC1D1">
      <path fill="none" d="M-2.68,0 L2.68,0 " class="primitive"/>
    </g>
    <g transform="translate(30.81,79.36)" stroke="#AAC1D1">
      <path fill="none" d="M-1.82,0 L1.82,0 " class="primitive"/>
    </g>
    <g transform="translate(25.41,78.08)" stroke="#AAC1D1">
      <path fill="none" d="M-3.58,0 L3.58,0 " class="primitive"/>
    </g>
    <g transform="translate(28.99,78.08)" stroke="#AAC1D1">
      <path fill="none" d="M0,1.28 L0,-1.28 " class="primitive"/>
    </g>
    <g transform="translate(27.14,81.92)" stroke="#AAC1D1">
      <path fill="none" d="M-0.13,0 L0.13,0 " class="primitive"/>
    </g>
    <g transform="translate(29.45,84.49)" stroke="#AAC1D1">
      <path fill="none" d="M-2.44,0 L2.44,0 " class="primitive"/>
    </g>
    <g transform="translate(24.42,83.21)" stroke="#AAC1D1">
      <path fill="none" d="M-2.59,0 L2.59,0 " class="primitive"/>
    </g>
    <g transform="translate(27.01,83.21)" stroke="#AAC1D1">
      <path fill="none" d="M0,1.28 L0,-1.28 " class="primitive"/>
    </g>
    <g transform="translate(18.92,80.64)" stroke="#04F816">
      <path fill="none" d="M-2.92,0 L2.92,0 " class="primitive"/>
    </g>
    <g transform="translate(21.83,80.64)" stroke="#04F816">
      <path fill="none" d="M0,2.56 L0,-2.56 " class="primitive"/>
    </g>
    <g transform="translate(13.51,75.51)" stroke="#AAC1D1">
      <path fill="none" d="M-2.49,0 L2.49,0 " class="primitive"/>
    </g>
    <g transform="translate(16,75.51)" stroke="#AAC1D1">
      <path fill="none" d="M0,5.13 L0,-5.13 " class="primitive"/>
    </g>
    <g transform="translate(26.69,87.05)" stroke="#AAC1D1">
      <path fill="none" d="M-7.17,0 L7.17,0 " class="primitive"/>
    </g>
    <g transform="translate(20.09,89.62)" stroke="#AAC1D1">
      <path fill="none" d="M-0.58,0 L0.58,0 " class="primitive"/>
    </g>
    <g transform="translate(18.84,88.33)" stroke="#AAC1D1">
      <path fill="none" d="M-0.67,0 L0.67,0 " class="primitive"/>
    </g>
    <g transform="translate(19.51,88.33)" stroke="#AAC1D1">
      <path fill="none" d="M0,1.28 L0,-1.28 " class="primitive"/>
    </g>
    <g transform="translate(23.73,92.18)" stroke="#AAC1D1">
      <path fill="none" d="M-2.51,0 L2.51,0 " class="primitive"/>
    </g>
    <g transform="translate(22.14,94.74)" stroke="#04F816">
      <path fill="none" d="M-0.91,0 L0.91,0 " class="primitive"/>
    </g>
    <g transform="translate(19.7,93.46)" stroke="#AAC1D1">
      <path fill="none" d="M-1.53,0 L1.53,0 " class="primitive"/>
    </g>
    <g transform="translate(21.23,93.46)" stroke="#AAC1D1">
      <path fill="none" d="M0,1.28 L0,-1.28 " class="primitive"/>
    </g>
    <g transform="translate(15.19,90.9)" stroke="#AAC1D1">
      <path fill="none" d="M-2.98,0 L2.98,0 " class="primitive"/>
    </g>
    <g transform="translate(18.16,90.9)" stroke="#AAC1D1">
      <path fill="none" d="M0,2.56 L0,-2.56 " class="primitive"/>
    </g>
    <g transform="translate(25.06,97.31)" stroke="#AAC1D1">
      <path fill="none" d="M-1.84,0 L1.84,0 " class="primitive"/>
    </g>
  </g>
</g>
<g fill-opacity="1" id="img-29b4c979-4">
  <g transform="translate(23.34,5)" fill="#04F816">
    <circle cx="0" cy="0" r="0.75" class="primitive"/>
  </g>
  <g transform="translate(25.2,7.56)" fill="#AAC1D1">
    <circle cx="0" cy="0" r="0.75" class="primitive"/>
  </g>
  <g transform="translate(20.67,6.28)" fill="#AAC1D1">
    <circle cx="0" cy="0" r="0.75" class="primitive"/>
  </g>
  <g transform="translate(18.35,10.13)" fill="#AAC1D1">
    <circle cx="0" cy="0" r="0.75" class="primitive"/>
  </g>
  <g transform="translate(20.34,12.69)" fill="#AAC1D1">
    <circle cx="0" cy="0" r="0.75" class="primitive"/>
  </g>
  <g transform="translate(14.77,11.41)" fill="#04F816">
    <circle cx="0" cy="0" r="0.75" class="primitive"/>
  </g>
  <g transform="translate(11.08,8.85)" fill="#AAC1D1">
    <circle cx="0" cy="0" r="0.75" class="primitive"/>
  </g>
  <g transform="translate(37.11,15.26)" fill="#AAC1D1">
    <circle cx="0" cy="0" r="0.75" class="primitive"/>
  </g>
  <g transform="translate(34.38,17.82)" fill="#AAC1D1">
    <circle cx="0" cy="0" r="0.75" class="primitive"/>
  </g>
  <g transform="translate(19.65,16.54)" fill="#AAC1D1">
    <circle cx="0" cy="0" r="0.75" class="primitive"/>
  </g>
  <g transform="translate(17.48,20.38)" fill="#AAC1D1">
    <circle cx="0" cy="0" r="0.75" class="primitive"/>
  </g>
  <g transform="translate(33.64,22.95)" fill="#AAC1D1">
    <circle cx="0" cy="0" r="0.75" class="primitive"/>
  </g>
  <g transform="translate(15.62,21.67)" fill="#AAC1D1">
    <circle cx="0" cy="0" r="0.75" class="primitive"/>
  </g>
  <g transform="translate(14.94,19.1)" fill="#04F816">
    <circle cx="0" cy="0" r="0.75" class="primitive"/>
  </g>
  <g transform="translate(9.31,13.97)" fill="#AAC1D1">
    <circle cx="0" cy="0" r="0.75" class="primitive"/>
  </g>
  <g transform="translate(57.49,25.51)" fill="#AAC1D1">
    <circle cx="0" cy="0" r="0.75" class="primitive"/>
  </g>
  <g transform="translate(54.44,28.08)" fill="#04F816">
    <circle cx="0" cy="0" r="0.75" class="primitive"/>
  </g>
  <g transform="translate(51.54,26.79)" fill="#AAC1D1">
    <circle cx="0" cy="0" r="0.75" class="primitive"/>
  </g>
  <g transform="translate(42.79,30.64)" fill="#AAC1D1">
    <circle cx="0" cy="0" r="0.75" class="primitive"/>
  </g>
  <g transform="translate(40.57,33.21)" fill="#AAC1D1">
    <circle cx="0" cy="0" r="0.75" class="primitive"/>
  </g>
  <g transform="translate(39.03,31.92)" fill="#AAC1D1">
    <circle cx="0" cy="0" r="0.75" class="primitive"/>
  </g>
  <g transform="translate(29.12,29.36)" fill="#AAC1D1">
    <circle cx="0" cy="0" r="0.75" class="primitive"/>
  </g>
  <g transform="translate(78.75,35.77)" fill="#AAC1D1">
    <circle cx="0" cy="0" r="0.75" class="primitive"/>
  </g>
  <g transform="translate(66.31,38.33)" fill="#AAC1D1">
    <circle cx="0" cy="0" r="0.75" class="primitive"/>
  </g>
  <g transform="translate(66.19,37.05)" fill="#04F816">
    <circle cx="0" cy="0" r="0.75" class="primitive"/>
  </g>
  <g transform="translate(60.57,40.9)" fill="#04F816">
    <circle cx="0" cy="0" r="0.75" class="primitive"/>
  </g>
  <g transform="translate(57.23,43.46)" fill="#04F816">
    <circle cx="0" cy="0" r="0.75" class="primitive"/>
  </g>
  <g transform="translate(52.85,42.18)" fill="#AAC1D1">
    <circle cx="0" cy="0" r="0.75" class="primitive"/>
  </g>
  <g transform="translate(50.86,39.62)" fill="#AAC1D1">
    <circle cx="0" cy="0" r="0.75" class="primitive"/>
  </g>
  <g transform="translate(26.53,34.49)" fill="#AAC1D1">
    <circle cx="0" cy="0" r="0.75" class="primitive"/>
  </g>
  <g transform="translate(6.69,24.23)" fill="#AAC1D1">
    <circle cx="0" cy="0" r="0.75" class="primitive"/>
  </g>
  <g transform="translate(30.42,46.03)" fill="#04F816">
    <circle cx="0" cy="0" r="0.75" class="primitive"/>
  </g>
  <g transform="translate(42.61,48.59)" fill="#AAC1D1">
    <circle cx="0" cy="0" r="0.75" class="primitive"/>
  </g>
  <g transform="translate(23.73,47.31)" fill="#AAC1D1">
    <circle cx="0" cy="0" r="0.75" class="primitive"/>
  </g>
  <g transform="translate(70.77,51.15)" fill="#AAC1D1">
    <circle cx="0" cy="0" r="0.75" class="primitive"/>
  </g>
  <g transform="translate(29.7,53.72)" fill="#AAC1D1">
    <circle cx="0" cy="0" r="0.75" class="primitive"/>
  </g>
  <g transform="translate(25.31,52.44)" fill="#AAC1D1">
    <circle cx="0" cy="0" r="0.75" class="primitive"/>
  </g>
  <g transform="translate(23.12,49.87)" fill="#AAC1D1">
    <circle cx="0" cy="0" r="0.75" class="primitive"/>
  </g>
  <g transform="translate(56.57,56.28)" fill="#AAC1D1">
    <circle cx="0" cy="0" r="0.75" class="primitive"/>
  </g>
  <g transform="translate(77.59,58.85)" fill="#04F816">
    <circle cx="0" cy="0" r="0.75" class="primitive"/>
  </g>
  <g transform="translate(35.56,57.56)" fill="#AAC1D1">
    <circle cx="0" cy="0" r="0.75" class="primitive"/>
  </g>
  <g transform="translate(50.17,61.41)" fill="#AAC1D1">
    <circle cx="0" cy="0" r="0.75" class="primitive"/>
  </g>
  <g transform="translate(27.33,63.97)" fill="#AAC1D1">
    <circle cx="0" cy="0" r="0.75" class="primitive"/>
  </g>
  <g transform="translate(25.69,62.69)" fill="#AAC1D1">
    <circle cx="0" cy="0" r="0.75" class="primitive"/>
  </g>
  <g transform="translate(22.68,60.13)" fill="#AAC1D1">
    <circle cx="0" cy="0" r="0.75" class="primitive"/>
  </g>
  <g transform="translate(18.73,55)" fill="#AAC1D1">
    <circle cx="0" cy="0" r="0.75" class="primitive"/>
  </g>
  <g transform="translate(40,66.54)" fill="#AAC1D1">
    <circle cx="0" cy="0" r="0.75" class="primitive"/>
  </g>
  <g transform="translate(45,69.1)" fill="#04F816">
    <circle cx="0" cy="0" r="0.75" class="primitive"/>
  </g>
  <g transform="translate(35.62,67.82)" fill="#AAC1D1">
    <circle cx="0" cy="0" r="0.75" class="primitive"/>
  </g>
  <g transform="translate(30.16,71.67)" fill="#AAC1D1">
    <circle cx="0" cy="0" r="0.75" class="primitive"/>
  </g>
  <g transform="translate(37.31,74.23)" fill="#AAC1D1">
    <circle cx="0" cy="0" r="0.75" class="primitive"/>
  </g>
  <g fill-opacity="1" id="img-29b4c979-5">
    <g transform="translate(37.31,74.23)" fill="#AAC1D1">
      <circle cx="0" cy="0" r="0.75" class="primitive"/>
    </g>
    <g transform="translate(24.71,72.95)" fill="#AAC1D1">
      <circle cx="0" cy="0" r="0.75" class="primitive"/>
    </g>
    <g transform="translate(16.51,70.38)" fill="#04F816">
      <circle cx="0" cy="0" r="0.75" class="primitive"/>
    </g>
    <g transform="translate(34.34,76.79)" fill="#AAC1D1">
      <circle cx="0" cy="0" r="0.75" class="primitive"/>
    </g>
    <g transform="translate(32.63,79.36)" fill="#AAC1D1">
      <circle cx="0" cy="0" r="0.75" class="primitive"/>
    </g>
    <g transform="translate(28.99,78.08)" fill="#AAC1D1">
      <circle cx="0" cy="0" r="0.75" class="primitive"/>
    </g>
    <g transform="translate(27.28,81.92)" fill="#AAC1D1">
      <circle cx="0" cy="0" r="0.75" class="primitive"/>
    </g>
    <g transform="translate(31.89,84.49)" fill="#AAC1D1">
      <circle cx="0" cy="0" r="0.75" class="primitive"/>
    </g>
    <g transform="translate(27.01,83.21)" fill="#AAC1D1">
      <circle cx="0" cy="0" r="0.75" class="primitive"/>
    </g>
    <g transform="translate(21.83,80.64)" fill="#04F816">
      <circle cx="0" cy="0" r="0.75" class="primitive"/>
    </g>
    <g transform="translate(16,75.51)" fill="#AAC1D1">
      <circle cx="0" cy="0" r="0.75" class="primitive"/>
    </g>
    <g transform="translate(33.86,87.05)" fill="#AAC1D1">
      <circle cx="0" cy="0" r="0.75" class="primitive"/>
    </g>
    <g transform="translate(20.67,89.62)" fill="#AAC1D1">
      <circle cx="0" cy="0" r="0.75" class="primitive"/>
    </g>
    <g transform="translate(19.51,88.33)" fill="#AAC1D1">
      <circle cx="0" cy="0" r="0.75" class="primitive"/>
    </g>
    <g transform="translate(26.24,92.18)" fill="#AAC1D1">
      <circle cx="0" cy="0" r="0.75" class="primitive"/>
    </g>
    <g transform="translate(23.06,94.74)" fill="#04F816">
      <circle cx="0" cy="0" r="0.75" class="primitive"/>
    </g>
    <g transform="translate(21.23,93.46)" fill="#AAC1D1">
      <circle cx="0" cy="0" r="0.75" class="primitive"/>
    </g>
    <g transform="translate(18.16,90.9)" fill="#AAC1D1">
      <circle cx="0" cy="0" r="0.75" class="primitive"/>
    </g>
    <g transform="translate(26.9,97.31)" fill="#AAC1D1">
      <circle cx="0" cy="0" r="0.75" class="primitive"/>
    </g>
    <g transform="translate(35.31,99.87)" fill="#AAC1D1">
      <circle cx="0" cy="0" r="0.75" class="primitive"/>
    </g>
    <g transform="translate(23.22,98.59)" fill="#04F816">
      <circle cx="0" cy="0" r="0.75" class="primitive"/>
    </g>
    <g transform="translate(37.56,102.44)" fill="#AAC1D1">
      <circle cx="0" cy="0" r="0.75" class="primitive"/>
    </g>
    <g transform="translate(29.44,105)" fill="#AAC1D1">
      <circle cx="0" cy="0" r="0.75" class="primitive"/>
    </g>
    <g transform="translate(26.59,103.72)" fill="#04F816">
      <circle cx="0" cy="0" r="0.75" class="primitive"/>
    </g>
    <g transform="translate(22.62,101.15)" fill="#AAC1D1">
      <circle cx="0" cy="0" r="0.75" class="primitive"/>
    </g>
    <g transform="translate(12.21,96.03)" fill="#AAC1D1">
      <circle cx="0" cy="0" r="0.75" class="primitive"/>
    </g>
    <g transform="translate(11.01,85.77)" fill="#AAC1D1">
      <circle cx="0" cy="0" r="0.75" class="primitive"/>
    </g>
    <g transform="translate(3.75,70.38)" fill="#000000">
      <circle cx="0" cy="0" r="0.75" class="primitive"/>
    </g>
    <g transform="translate(3.75,47.31)" fill="#000000">
      <circle cx="0" cy="0" r="0.75" class="primitive"/>
    </g>
  </g>
</g>
<g stroke-opacity="1" fill-opacity="1" font-size="1.41" stroke-width="0.1" id="img-29b4c979-6">
  <g transform="translate(25.21,5)" stroke="#000000">
    <g class="primitive">
      <text dy="0.35em">N16</text>
    </g>
  </g>
  <g transform="translate(27.08,7.56)" stroke="#000000">
    <g class="primitive">
      <text dy="0.35em">N17</text>
    </g>
  </g>
  <g transform="translate(22.54,6.28)" stroke="#000000">
    <g class="primitive">
      <text dy="0.35em">N48</text>
    </g>
  </g>
  <g transform="translate(20.22,10.13)" stroke="#000000">
    <g class="primitive">
      <text dy="0.35em">N18</text>
    </g>
  </g>
  <g transform="translate(22.22,12.69)" stroke="#000000">
    <g class="primitive">
      <text dy="0.35em">N19</text>
    </g>
  </g>
  <g transform="translate(16.65,11.41)" stroke="#000000">
    <g class="primitive">
      <text dy="0.35em">N49</text>
    </g>
  </g>
  <g transform="translate(12.95,8.85)" stroke="#000000">
    <g class="primitive">
      <text dy="0.35em">N64</text>
    </g>
  </g>
  <g transform="translate(38.98,15.26)" stroke="#000000">
    <g class="primitive">
      <text dy="0.35em">N20</text>
    </g>
  </g>
  <g transform="translate(36.25,17.82)" stroke="#000000">
    <g class="primitive">
      <text dy="0.35em">N21</text>
    </g>
  </g>
  <g transform="translate(21.53,16.54)" stroke="#000000">
    <g class="primitive">
      <text dy="0.35em">N50</text>
    </g>
  </g>
  <g transform="translate(19.36,20.38)" stroke="#000000">
    <g class="primitive">
      <text dy="0.35em">N22</text>
    </g>
  </g>
  <g transform="translate(35.52,22.95)" stroke="#000000">
    <g class="primitive">
      <text dy="0.35em">N23</text>
    </g>
  </g>
  <g transform="translate(17.49,21.67)" stroke="#000000">
    <g class="primitive">
      <text dy="0.35em">N51</text>
    </g>
  </g>
  <g transform="translate(16.81,19.1)" stroke="#000000">
    <g class="primitive">
      <text dy="0.35em">N65</text>
    </g>
  </g>
  <g transform="translate(11.19,13.97)" stroke="#000000">
    <g class="primitive">
      <text dy="0.35em">N72</text>
    </g>
  </g>
  <g transform="translate(59.37,25.51)" stroke="#000000">
    <g class="primitive">
      <text dy="0.35em">N24</text>
    </g>
  </g>
  <g transform="translate(56.32,28.08)" stroke="#000000">
    <g class="primitive">
      <text dy="0.35em">N25</text>
    </g>
  </g>
  <g transform="translate(53.42,26.79)" stroke="#000000">
    <g class="primitive">
      <text dy="0.35em">N52</text>
    </g>
  </g>
  <g transform="translate(44.67,30.64)" stroke="#000000">
    <g class="primitive">
      <text dy="0.35em">N26</text>
    </g>
  </g>
  <g transform="translate(42.45,33.21)" stroke="#000000">
    <g class="primitive">
      <text dy="0.35em">N27</text>
    </g>
  </g>
  <g transform="translate(40.91,31.92)" stroke="#000000">
    <g class="primitive">
      <text dy="0.35em">N53</text>
    </g>
  </g>
  <g transform="translate(30.99,29.36)" stroke="#000000">
    <g class="primitive">
      <text dy="0.35em">N66</text>
    </g>
  </g>
  <g transform="translate(80.62,35.77)" stroke="#000000">
    <g class="primitive">
      <text dy="0.35em">N28</text>
    </g>
  </g>
  <g transform="translate(68.18,38.33)" stroke="#000000">
    <g class="primitive">
      <text dy="0.35em">N29</text>
    </g>
  </g>
  <g transform="translate(68.07,37.05)" stroke="#000000">
    <g class="primitive">
      <text dy="0.35em">N54</text>
    </g>
  </g>
  <g transform="translate(62.45,40.9)" stroke="#000000">
    <g class="primitive">
      <text dy="0.35em">N30</text>
    </g>
  </g>
  <g transform="translate(59.1,43.46)" stroke="#000000">
    <g class="primitive">
      <text dy="0.35em">N31</text>
    </g>
  </g>
  <g transform="translate(54.73,42.18)" stroke="#000000">
    <g class="primitive">
      <text dy="0.35em">N55</text>
    </g>
  </g>
  <g transform="translate(52.73,39.62)" stroke="#000000">
    <g class="primitive">
      <text dy="0.35em">N67</text>
    </g>
  </g>
  <g transform="translate(28.41,34.49)" stroke="#000000">
    <g class="primitive">
      <text dy="0.35em">N73</text>
    </g>
  </g>
  <g transform="translate(8.57,24.23)" stroke="#000000">
    <g class="primitive">
      <text dy="0.35em">N76</text>
    </g>
  </g>
  <g transform="translate(32.29,46.03)" stroke="#000000">
    <g class="primitive">
      <text dy="0.35em">N32</text>
    </g>
  </g>
  <g transform="translate(44.48,48.59)" stroke="#000000">
    <g class="primitive">
      <text dy="0.35em">N33</text>
    </g>
  </g>
  <g transform="translate(25.6,47.31)" stroke="#000000">
    <g class="primitive">
      <text dy="0.35em">N56</text>
    </g>
  </g>
  <g transform="translate(72.64,51.15)" stroke="#000000">
    <g class="primitive">
      <text dy="0.35em">N34</text>
    </g>
  </g>
  <g transform="translate(31.58,53.72)" stroke="#000000">
    <g class="primitive">
      <text dy="0.35em">N35</text>
    </g>
  </g>
  <g transform="translate(27.18,52.44)" stroke="#000000">
    <g class="primitive">
      <text dy="0.35em">N57</text>
    </g>
  </g>
  <g transform="translate(25,49.87)" stroke="#000000">
    <g class="primitive">
      <text dy="0.35em">N68</text>
    </g>
  </g>
  <g transform="translate(58.44,56.28)" stroke="#000000">
    <g class="primitive">
      <text dy="0.35em">N36</text>
    </g>
  </g>
  <g transform="translate(79.47,58.85)" stroke="#000000">
    <g class="primitive">
      <text dy="0.35em">N37</text>
    </g>
  </g>
  <g transform="translate(37.44,57.56)" stroke="#000000">
    <g class="primitive">
      <text dy="0.35em">N58</text>
    </g>
  </g>
  <g transform="translate(52.04,61.41)" stroke="#000000">
    <g class="primitive">
      <text dy="0.35em">N38</text>
    </g>
  </g>
  <g transform="translate(29.2,63.97)" stroke="#000000">
    <g class="primitive">
      <text dy="0.35em">N39</text>
    </g>
  </g>
  <g transform="translate(27.57,62.69)" stroke="#000000">
    <g class="primitive">
      <text dy="0.35em">N59</text>
    </g>
  </g>
  <g transform="translate(24.55,60.13)" stroke="#000000">
    <g class="primitive">
      <text dy="0.35em">N69</text>
    </g>
  </g>
  <g transform="translate(20.61,55)" stroke="#000000">
    <g class="primitive">
      <text dy="0.35em">N74</text>
    </g>
  </g>
  <g transform="translate(41.87,66.54)" stroke="#000000">
    <g class="primitive">
      <text dy="0.35em">N0</text>
    </g>
  </g>
  <g transform="translate(46.87,69.1)" stroke="#000000">
    <g class="primitive">
      <text dy="0.35em">N1</text>
    </g>
  </g>
  <g transform="translate(37.49,67.82)" stroke="#000000">
    <g class="primitive">
      <text dy="0.35em">N40</text>
    </g>
  </g>
  <g transform="translate(32.04,71.67)" stroke="#000000">
    <g class="primitive">
      <text dy="0.35em">N2</text>
    </g>
  </g>
  <g transform="translate(39.18,74.23)" stroke="#000000">
    <g class="primitive">
      <text dy="0.35em">N3</text>
    </g>
  </g>
  <g stroke-opacity="1" fill-opacity="1" font-size="1.41" stroke-width="0.1" id="img-29b4c979-7">
    <g transform="translate(39.18,74.23)" stroke="#000000">
      <g class="primitive">
        <text dy="0.35em">N3</text>
      </g>
    </g>
    <g transform="translate(26.58,72.95)" stroke="#000000">
      <g class="primitive">
        <text dy="0.35em">N41</text>
      </g>
    </g>
    <g transform="translate(18.38,70.38)" stroke="#000000">
      <g class="primitive">
        <text dy="0.35em">N60</text>
      </g>
    </g>
    <g transform="translate(36.22,76.79)" stroke="#000000">
      <g class="primitive">
        <text dy="0.35em">N4</text>
      </g>
    </g>
    <g transform="translate(34.5,79.36)" stroke="#000000">
      <g class="primitive">
        <text dy="0.35em">N5</text>
      </g>
    </g>
    <g transform="translate(30.87,78.08)" stroke="#000000">
      <g class="primitive">
        <text dy="0.35em">N42</text>
      </g>
    </g>
    <g transform="translate(29.15,81.92)" stroke="#000000">
      <g class="primitive">
        <text dy="0.35em">N6</text>
      </g>
    </g>
    <g transform="translate(33.76,84.49)" stroke="#000000">
      <g class="primitive">
        <text dy="0.35em">N7</text>
      </g>
    </g>
    <g transform="translate(28.89,83.21)" stroke="#000000">
      <g class="primitive">
        <text dy="0.35em">N43</text>
      </g>
    </g>
    <g transform="translate(23.71,80.64)" stroke="#000000">
      <g class="primitive">
        <text dy="0.35em">N61</text>
      </g>
    </g>
    <g transform="translate(17.88,75.51)" stroke="#000000">
      <g class="primitive">
        <text dy="0.35em">N70</text>
      </g>
    </g>
    <g transform="translate(35.73,87.05)" stroke="#000000">
      <g class="primitive">
        <text dy="0.35em">N8</text>
      </g>
    </g>
    <g transform="translate(22.55,89.62)" stroke="#000000">
      <g class="primitive">
        <text dy="0.35em">N9</text>
      </g>
    </g>
    <g transform="translate(21.39,88.33)" stroke="#000000">
      <g class="primitive">
        <text dy="0.35em">N44</text>
      </g>
    </g>
    <g transform="translate(28.12,92.18)" stroke="#000000">
      <g class="primitive">
        <text dy="0.35em">N10</text>
      </g>
    </g>
    <g transform="translate(24.93,94.74)" stroke="#000000">
      <g class="primitive">
        <text dy="0.35em">N11</text>
      </g>
    </g>
    <g transform="translate(23.1,93.46)" stroke="#000000">
      <g class="primitive">
        <text dy="0.35em">N45</text>
      </g>
    </g>
    <g transform="translate(20.04,90.9)" stroke="#000000">
      <g class="primitive">
        <text dy="0.35em">N62</text>
      </g>
    </g>
    <g transform="translate(28.77,97.31)" stroke="#000000">
      <g class="primitive">
        <text dy="0.35em">N12</text>
      </g>
    </g>
    <g transform="translate(37.19,99.87)" stroke="#000000">
      <g class="primitive">
        <text dy="0.35em">N13</text>
      </g>
    </g>
    <g transform="translate(25.1,98.59)" stroke="#000000">
      <g class="primitive">
        <text dy="0.35em">N46</text>
      </g>
    </g>
    <g transform="translate(39.44,102.44)" stroke="#000000">
      <g class="primitive">
        <text dy="0.35em">N14</text>
      </g>
    </g>
    <g transform="translate(31.31,105)" stroke="#000000">
      <g class="primitive">
        <text dy="0.35em">N15</text>
      </g>
    </g>
    <g transform="translate(28.46,103.72)" stroke="#000000">
      <g class="primitive">
        <text dy="0.35em">N47</text>
      </g>
    </g>
    <g transform="translate(24.5,101.15)" stroke="#000000">
      <g class="primitive">
        <text dy="0.35em">N63</text>
      </g>
    </g>
    <g transform="translate(14.09,96.03)" stroke="#000000">
      <g class="primitive">
        <text dy="0.35em">N71</text>
      </g>
    </g>
    <g transform="translate(12.89,85.77)" stroke="#000000">
      <g class="primitive">
        <text dy="0.35em">N75</text>
      </g>
    </g>
    <g transform="translate(5.63,70.38)" stroke="#000000">
      <g class="primitive">
        <text dy="0.35em"></text>
      </g>
    </g>
    <g transform="translate(5.63,47.31)" stroke="#000000">
      <g class="primitive">
        <text dy="0.35em"></text>
      </g>
    </g>
  </g>
</g>
</svg>
