<?xml version="1.0" encoding="UTF-8"?>
<svg xmlns="http://www.w3.org/2000/svg"
     xmlns:xlink="http://www.w3.org/1999/xlink"
     version="1.2"
     width="150mm" height="72mm" viewBox="0 0 150 72"
     stroke="none"
     fill="#000000"
     stroke-width="0.3"
     font-size="3.88"
>
<defs>
  <marker id="arrow" markerWidth="15" markerHeight="7" refX="5" refY="3.5" orient="auto" markerUnits="strokeWidth">
    <path d="M0,0 L15,3.5 L0,7 z" stroke="context-stroke" fill="context-stroke"/>
  </marker>
</defs>
<g stroke-opacity="1" stroke-width="0.3" id="img-29b4c979-1">
  <g transform="translate(20.36,3.27)" stroke="#4E9F52">
    <path fill="none" d="M-1.84,0 L1.84,0 " class="primitive"/>
  </g>
  <g transform="translate(19.52,6.55)" stroke="#0CAC08">
    <path fill="none" d="M-1.01,0 L1.01,0 " class="primitive"/>
  </g>
  <g transform="translate(11.13,4.91)" stroke="#4E9F52">
    <path fill="none" d="M-7.38,0 L7.38,0 " class="primitive"/>
  </g>
  <g transform="translate(18.52,4.91)" stroke="#4E9F52">
    <path fill="none" d="M0,1.64 L0,-1.64 " class="primitive"/>
  </g>
  <g transform="translate(9.33,9.82)" stroke="#0CAC08">
    <path fill="none" d="M-2.86,0 L2.86,0 " class="primitive"/>
  </g>
  <g transform="translate(12.18,13.09)" stroke="#0CAC08">
    <path fill="none" d="M-2.73,0 L2.73,0 " class="primitive"/>
  </g>
  <g transform="translate(11.04,16.36)" stroke="#0CAC08">
    <path fill="none" d="M-1.59,0 L1.59,0 " class="primitive"/>
  </g>
  <g transform="translate(7.96,14.73)" stroke="#0CAC08">
    <path fill="none" d="M-1.49,0 L1.49,0 " class="primitive"/>
  </g>
  <g transform="translate(9.45,14.73)" stroke="#0CAC08">
    <path fill="none" d="M0,1.64 L0,-1.64 " class="primitive"/>
  </g>
  <g transform="translate(5.11,12.27)" stroke="#0CAC08">
    <path fill="none" d="M-1.36,0 L1.36,0 " class="primitive"/>
  </g>
  <g transform="translate(6.48,12.27)" stroke="#0CAC08">
    <path fill="none" d="M0,2.45 L0,-2.45 " class="primitive"/>
  </g>
  <g transform="translate(7.61,19.64)" stroke="#0CAC08">
    <path fill="none" d="M-0.03,0 L0.03,0 " class="primitive"/>
  </g>
  <g transform="translate(16.92,22.91)" stroke="#0CAC08">
    <path fill="none" d="M-0.99,0 L0.99,0 " class="primitive"/>
  </g>
  <g transform="translate(17.1,26.18)" stroke="#0CAC08">
    <path fill="none" d="M-1.17,0 L1.17,0 " class="primitive"/>
  </g>
  <g transform="translate(12.37,24.55)" stroke="#0CAC08">
    <path fill="none" d="M-3.56,0 L3.56,0 " class="primitive"/>
  </g>
  <g transform="translate(15.93,24.55)" stroke="#0CAC08">
    <path fill="none" d="M0,1.64 L0,-1.64 " class="primitive"/>
  </g>
  <g transform="translate(13.19,29.45)" stroke="#4E9F52">
    <path fill="none" d="M-2.01,0 L2.01,0 " class="primitive"/>
  </g>
  <g transform="translate(16.34,32.73)" stroke="#0CAC08">
    <path fill="none" d="M-0.12,0 L0.12,0 " class="primitive"/>
  </g>
  <g transform="translate(18.36,36)" stroke="#0CAC08">
    <path fill="none" d="M-2.14,0 L2.14,0 " class="primitive"/>
  </g>
  <g transform="translate(13.7,34.36)" stroke="#0CAC08">
    <path fill="none" d="M-2.52,0 L2.52,0 " class="primitive"/>
  </g>
  <g transform="translate(16.22,34.36)" stroke="#0CAC08">
    <path fill="none" d="M0,1.64 L0,-1.64 " class="primitive"/>
  </g>
  <g transform="translate(10,31.91)" stroke="#0CAC08">
    <path fill="none" d="M-1.18,0 L1.18,0 " class="primitive"/>
  </g>
  <g transform="translate(11.18,31.91)" stroke="#0CAC08">
    <path fill="none" d="M0,2.45 L0,-2.45 " class="primitive"/>
  </g>
  <g transform="translate(8.2,28.23)" stroke="#0CAC08">
    <path fill="none" d="M-0.62,0 L0.62,0 " class="primitive"/>
  </g>
  <g transform="translate(8.81,28.23)" stroke="#0CAC08">
    <path fill="none" d="M0,3.68 L0,-3.68 " class="primitive"/>
  </g>
  <g transform="translate(7.56,23.93)" stroke="#0CAC08">
    <path fill="none" d="M-0.02,0 L0.02,0 " class="primitive"/>
  </g>
  <g transform="translate(7.58,23.93)" stroke="#0CAC08">
    <path fill="none" d="M0,4.3 L0,-4.3 " class="primitive"/>
  </g>
  <g transform="translate(13.9,39.27)" stroke="#0CAC08">
    <path fill="none" d="M-0.26,0 L0.26,0 " class="primitive"/>
  </g>
  <g transform="translate(22.81,42.55)" stroke="#0CAC08">
    <path fill="none" d="M-1.91,0 L1.91,0 " class="primitive"/>
  </g>
  <g transform="translate(24.57,45.82)" stroke="#0CAC08">
    <path fill="none" d="M-3.67,0 L3.67,0 " class="primitive"/>
  </g>
  <g transform="translate(18.26,44.18)" stroke="#0CAC08">
    <path fill="none" d="M-2.64,0 L2.64,0 " class="primitive"/>
  </g>
  <g transform="translate(20.9,44.18)" stroke="#0CAC08">
    <path fill="none" d="M0,1.64 L0,-1.64 " class="primitive"/>
  </g>
  <g transform="translate(17.53,49.09)" stroke="#0CAC08">
    <path fill="none" d="M-1.42,0 L1.42,0 " class="primitive"/>
  </g>
  <g transform="translate(48.64,52.36)" stroke="#0CAC08">
    <path fill="none" d="M-0.45,0 L0.45,0 " class="primitive"/>
  </g>
  <g transform="translate(63.93,55.64)" stroke="#0CAC08">
    <path fill="none" d="M-1.81,0 L1.81,0 " class="primitive"/>
  </g>
  <g transform="translate(70.44,58.91)" stroke="#4E9F52">
    <path fill="none" d="M-8.31,0 L8.31,0 " class="primitive"/>
  </g>
  <g transform="translate(55.16,57.27)" stroke="#0CAC08">
    <path fill="none" d="M-6.97,0 L6.97,0 " class="primitive"/>
  </g>
  <g transform="translate(62.13,57.27)" stroke="#0CAC08">
    <path fill="none" d="M0,1.64 L0,-1.64 " class="primitive"/>
  </g>
  <g transform="translate(36.52,54.82)" stroke="#0CAC08">
    <path fill="none" d="M-11.67,0 L11.67,0 " class="primitive"/>
  </g>
  <g transform="translate(48.19,54.82)" stroke="#0CAC08">
    <path fill="none" d="M0,2.45 L0,-2.45 " class="primitive"/>
  </g>
  <g transform="translate(36.7,62.18)" stroke="#0CAC08">
    <path fill="none" d="M-3.15,0 L3.15,0 " class="primitive"/>
  </g>
  <g transform="translate(37,65.45)" stroke="#0CAC08">
    <path fill="none" d="M-1.22,0 L1.22,0 " class="primitive"/>
  </g>
  <g transform="translate(36.65,68.73)" stroke="#0CAC08">
    <path fill="none" d="M-0.88,0 L0.88,0 " class="primitive"/>
  </g>
  <g transform="translate(34.66,67.09)" stroke="#4E9F52">
    <path fill="none" d="M-1.11,0 L1.11,0 " class="primitive"/>
  </g>
  <g transform="translate(35.77,67.09)" stroke="#4E9F52">
    <path fill="none" d="M0,1.64 L0,-1.64 " class="primitive"/>
  </g>
  <g transform="translate(29.2,64.64)" stroke="#0CAC08">
    <path fill="none" d="M-4.35,0 L4.35,0 " class="primitive"/>
  </g>
  <g transform="translate(33.55,64.64)" stroke="#0CAC08">
    <path fill="none" d="M0,2.45 L0,-2.45 " class="primitive"/>
  </g>
  <g transform="translate(20.48,59.73)" stroke="#0CAC08">
    <path fill="none" d="M-4.37,0 L4.37,0 " class="primitive"/>
  </g>
  <g transform="translate(24.86,59.73)" stroke="#0CAC08">
    <path fill="none" d="M0,4.91 L0,-4.91 " class="primitive"/>
  </g>
  <g transform="translate(15.86,54.41)" stroke="#0CAC08">
    <path fill="none" d="M-0.25,0 L0.25,0 " class="primitive"/>
  </g>
  <g transform="translate(16.11,54.41)" stroke="#0CAC08">
    <path fill="none" d="M0,5.32 L0,-5.32 " class="primitive"/>
  </g>
  <g stroke-opacity="1" stroke-width="0.3" id="img-29b4c979-2">
    <g transform="translate(16.11,54.41)" stroke="#0CAC08">
      <path fill="none" d="M0,5.32 L0,-5.32 " class="primitive"/>
    </g>
    <g transform="translate(14.63,49.3)" stroke="#0CAC08">
      <path fill="none" d="M-0.98,0 L0.98,0 " class="primitive"/>
    </g>
    <g transform="translate(15.61,49.3)" stroke="#0CAC08">
      <path fill="none" d="M0,5.11 L0,-5.11 " class="primitive"/>
    </g>
    <g transform="translate(10.59,44.28)" stroke="#0CAC08">
      <path fill="none" d="M-3.05,0 L3.05,0 " class="primitive"/>
    </g>
    <g transform="translate(13.64,44.28)" stroke="#0CAC08">
      <path fill="none" d="M0,5.01 L0,-5.01 " class="primitive"/>
    </g>
    <g transform="translate(5.65,34.11)" stroke="#0CAC08">
      <path fill="none" d="M-1.9,0 L1.9,0 " class="primitive"/>
    </g>
    <g transform="translate(7.54,34.11)" stroke="#0CAC08">
      <path fill="none" d="M0,10.18 L0,-10.18 " class="primitive"/>
    </g>
    <g transform="translate(3.75,23.19)" stroke="#000000">
      <path fill="none" d="M0,0 L0,0 " class="primitive"/>
    </g>
    <g transform="translate(3.75,23.19)" stroke="#000000">
      <path fill="none" d="M0,10.92 L0,-10.92 " class="primitive"/>
    </g>
    <g transform="translate(3.75,14.05)" stroke="#000000">
      <path fill="none" d="M0,0 L0,0 " class="primitive"/>
    </g>
    <g transform="translate(3.75,14.05)" stroke="#000000">
      <path fill="none" d="M0,9.14 L0,-9.14 " class="primitive"/>
    </g>
  </g>
</g>
<g fill-opacity="1" id="img-29b4c979-3">
  <g transform="translate(22.21,3.27)" fill="#4E9F52">
    <circle cx="0" cy="0" r="0.75" class="primitive"/>
  </g>
  <g transform="translate(20.53,6.55)" fill="#0CAC08">
    <circle cx="0" cy="0" r="0.75" class="primitive"/>
  </g>
  <g transform="translate(18.52,4.91)" fill="#4E9F52">
    <circle cx="0" cy="0" r="0.75" class="primitive"/>
  </g>
  <g transform="translate(12.19,9.82)" fill="#0CAC08">
    <circle cx="0" cy="0" r="0.75" class="primitive"/>
  </g>
  <g transform="translate(14.91,13.09)" fill="#0CAC08">
    <circle cx="0" cy="0" r="0.75" class="primitive"/>
  </g>
  <g transform="translate(12.63,16.36)" fill="#0CAC08">
    <circle cx="0" cy="0" r="0.75" class="primitive"/>
  </g>
  <g transform="translate(9.45,14.73)" fill="#0CAC08">
    <circle cx="0" cy="0" r="0.75" class="primitive"/>
  </g>
  <g transform="translate(6.48,12.27)" fill="#0CAC08">
    <circle cx="0" cy="0" r="0.75" class="primitive"/>
  </g>
  <g transform="translate(7.64,19.64)" fill="#0CAC08">
    <circle cx="0" cy="0" r="0.75" class="primitive"/>
  </g>
  <g transform="translate(17.92,22.91)" fill="#0CAC08">
    <circle cx="0" cy="0" r="0.75" class="primitive"/>
  </g>
  <g transform="translate(18.27,26.18)" fill="#0CAC08">
    <circle cx="0" cy="0" r="0.75" class="primitive"/>
  </g>
  <g transform="translate(15.93,24.55)" fill="#0CAC08">
    <circle cx="0" cy="0" r="0.75" class="primitive"/>
  </g>
  <g transform="translate(15.19,29.45)" fill="#4E9F52">
    <circle cx="0" cy="0" r="0.75" class="primitive"/>
  </g>
  <g transform="translate(16.45,32.73)" fill="#0CAC08">
    <circle cx="0" cy="0" r="0.75" class="primitive"/>
  </g>
  <g transform="translate(20.5,36)" fill="#0CAC08">
    <circle cx="0" cy="0" r="0.75" class="primitive"/>
  </g>
  <g transform="translate(16.22,34.36)" fill="#0CAC08">
    <circle cx="0" cy="0" r="0.75" class="primitive"/>
  </g>
  <g transform="translate(11.18,31.91)" fill="#0CAC08">
    <circle cx="0" cy="0" r="0.75" class="primitive"/>
  </g>
  <g transform="translate(8.81,28.23)" fill="#0CAC08">
    <circle cx="0" cy="0" r="0.75" class="primitive"/>
  </g>
  <g transform="translate(7.58,23.93)" fill="#0CAC08">
    <circle cx="0" cy="0" r="0.75" class="primitive"/>
  </g>
  <g transform="translate(14.16,39.27)" fill="#0CAC08">
    <circle cx="0" cy="0" r="0.75" class="primitive"/>
  </g>
  <g transform="translate(24.72,42.55)" fill="#0CAC08">
    <circle cx="0" cy="0" r="0.75" class="primitive"/>
  </g>
  <g transform="translate(28.23,45.82)" fill="#0CAC08">
    <circle cx="0" cy="0" r="0.75" class="primitive"/>
  </g>
  <g transform="translate(20.9,44.18)" fill="#0CAC08">
    <circle cx="0" cy="0" r="0.75" class="primitive"/>
  </g>
  <g transform="translate(18.95,49.09)" fill="#0CAC08">
    <circle cx="0" cy="0" r="0.75" class="primitive"/>
  </g>
  <g transform="translate(49.09,52.36)" fill="#0CAC08">
    <circle cx="0" cy="0" r="0.75" class="primitive"/>
  </g>
  <g transform="translate(65.74,55.64)" fill="#0CAC08">
    <circle cx="0" cy="0" r="0.75" class="primitive"/>
  </g>
  <g transform="translate(78.75,58.91)" fill="#4E9F52">
    <circle cx="0" cy="0" r="0.75" class="primitive"/>
  </g>
  <g transform="translate(62.13,57.27)" fill="#0CAC08">
    <circle cx="0" cy="0" r="0.75" class="primitive"/>
  </g>
  <g transform="translate(48.19,54.82)" fill="#0CAC08">
    <circle cx="0" cy="0" r="0.75" class="primitive"/>
  </g>
  <g transform="translate(39.85,62.18)" fill="#0CAC08">
    <circle cx="0" cy="0" r="0.75" class="primitive"/>
  </g>
  <g transform="translate(38.22,65.45)" fill="#0CAC08">
    <circle cx="0" cy="0" r="0.75" class="primitive"/>
  </g>
  <g transform="translate(37.53,68.73)" fill="#0CAC08">
    <circle cx="0" cy="0" r="0.75" class="primitive"/>
  </g>
  <g transform="translate(35.77,67.09)" fill="#4E9F52">
    <circle cx="0" cy="0" r="0.75" class="primitive"/>
  </g>
  <g transform="translate(33.55,64.64)" fill="#0CAC08">
    <circle cx="0" cy="0" r="0.75" class="primitive"/>
  </g>
  <g transform="translate(24.86,59.73)" fill="#0CAC08">
    <circle cx="0" cy="0" r="0.75" class="primitive"/>
  </g>
  <g transform="translate(16.11,54.41)" fill="#0CAC08">
    <circle cx="0" cy="0" r="0.75" class="primitive"/>
  </g>
  <g transform="translate(15.61,49.3)" fill="#0CAC08">
    <circle cx="0" cy="0" r="0.75" class="primitive"/>
  </g>
  <g transform="translate(13.64,44.28)" fill="#0CAC08">
    <circle cx="0" cy="0" r="0.75" class="primitive"/>
  </g>
  <g transform="translate(7.54,34.11)" fill="#0CAC08">
    <circle cx="0" cy="0" r="0.75" class="primitive"/>
  </g>
  <g transform="translate(3.75,23.19)" fill="#000000">
    <circle cx="0" cy="0" r="0.75" class="primitive"/>
  </g>
  <g transform="translate(3.75,14.05)" fill="#000000">
    <circle cx="0" cy="0" r="0.75" class="primitive"/>
  </g>
</g>
<g stroke-opacity="1" fill-opacity="1" font-size="1.41" stroke-width="0.1" id="img-29b4c979-4">
  <g transform="translate(24.08,3.27)" stroke="#000000">
    <g class="primitive">
      <text dy="0.35em">N15</text>
    </g>
  </g>
  <g transform="translate(22.4,6.55)" stroke="#000000">
    <g class="primitive">
      <text dy="0.35em">N7</text>
    </g>
  </g>
  <g transform="translate(20.39,4.91)" stroke="#000000">
    <g class="primitive">
      <text dy="0.35em">N25</text>
    </g>
  </g>
  <g transform="translate(14.07,9.82)" stroke="#000000">
    <g class="primitive">
      <text dy="0.35em">N13</text>
    </g>
  </g>
  <g transform="translate(16.79,13.09)" stroke="#000000">
    <g class="primitive">
      <text dy="0.35em">N3</text>
    </g>
  </g>
  <g transform="translate(14.5,16.36)" stroke="#000000">
    <g class="primitive">
      <text dy="0.35em">N16</text>
    </g>
  </g>
  <g transform="translate(11.32,14.73)" stroke="#000000">
    <g class="primitive">
      <text dy="0.35em">N28</text>
    </g>
  </g>
  <g transform="translate(8.35,12.27)" stroke="#000000">
    <g class="primitive">
      <text dy="0.35em">N35</text>
    </g>
  </g>
  <g transform="translate(9.52,19.64)" stroke="#000000">
    <g class="primitive">
      <text dy="0.35em">N5</text>
    </g>
  </g>
  <g transform="translate(19.79,22.91)" stroke="#000000">
    <g class="primitive">
      <text dy="0.35em">N2</text>
    </g>
  </g>
  <g transform="translate(20.15,26.18)" stroke="#000000">
    <g class="primitive">
      <text dy="0.35em">N14</text>
    </g>
  </g>
  <g transform="translate(17.81,24.55)" stroke="#000000">
    <g class="primitive">
      <text dy="0.35em">N26</text>
    </g>
  </g>
  <g transform="translate(17.07,29.45)" stroke="#000000">
    <g class="primitive">
      <text dy="0.35em">N11</text>
    </g>
  </g>
  <g transform="translate(18.33,32.73)" stroke="#000000">
    <g class="primitive">
      <text dy="0.35em">N10</text>
    </g>
  </g>
  <g transform="translate(22.38,36)" stroke="#000000">
    <g class="primitive">
      <text dy="0.35em">N4</text>
    </g>
  </g>
  <g transform="translate(18.09,34.36)" stroke="#000000">
    <g class="primitive">
      <text dy="0.35em">N21</text>
    </g>
  </g>
  <g transform="translate(13.05,31.91)" stroke="#000000">
    <g class="primitive">
      <text dy="0.35em">N29</text>
    </g>
  </g>
  <g transform="translate(10.69,28.23)" stroke="#000000">
    <g class="primitive">
      <text dy="0.35em">N30</text>
    </g>
  </g>
  <g transform="translate(9.45,23.93)" stroke="#000000">
    <g class="primitive">
      <text dy="0.35em">N32</text>
    </g>
  </g>
  <g transform="translate(16.03,39.27)" stroke="#000000">
    <g class="primitive">
      <text dy="0.35em">N17</text>
    </g>
  </g>
  <g transform="translate(26.59,42.55)" stroke="#000000">
    <g class="primitive">
      <text dy="0.35em">N18</text>
    </g>
  </g>
  <g transform="translate(30.11,45.82)" stroke="#000000">
    <g class="primitive">
      <text dy="0.35em">N6</text>
    </g>
  </g>
  <g transform="translate(22.78,44.18)" stroke="#000000">
    <g class="primitive">
      <text dy="0.35em">N31</text>
    </g>
  </g>
  <g transform="translate(20.82,49.09)" stroke="#000000">
    <g class="primitive">
      <text dy="0.35em">N19</text>
    </g>
  </g>
  <g transform="translate(50.97,52.36)" stroke="#000000">
    <g class="primitive">
      <text dy="0.35em">N0</text>
    </g>
  </g>
  <g transform="translate(67.62,55.64)" stroke="#000000">
    <g class="primitive">
      <text dy="0.35em">N20</text>
    </g>
  </g>
  <g transform="translate(80.62,58.91)" stroke="#000000">
    <g class="primitive">
      <text dy="0.35em">N9</text>
    </g>
  </g>
  <g transform="translate(64,57.27)" stroke="#000000">
    <g class="primitive">
      <text dy="0.35em">N23</text>
    </g>
  </g>
  <g transform="translate(50.07,54.82)" stroke="#000000">
    <g class="primitive">
      <text dy="0.35em">N27</text>
    </g>
  </g>
  <g transform="translate(41.73,62.18)" stroke="#000000">
    <g class="primitive">
      <text dy="0.35em">N12</text>
    </g>
  </g>
  <g transform="translate(40.1,65.45)" stroke="#000000">
    <g class="primitive">
      <text dy="0.35em">N1</text>
    </g>
  </g>
  <g transform="translate(39.41,68.73)" stroke="#000000">
    <g class="primitive">
      <text dy="0.35em">N8</text>
    </g>
  </g>
  <g transform="translate(37.65,67.09)" stroke="#000000">
    <g class="primitive">
      <text dy="0.35em">N22</text>
    </g>
  </g>
  <g transform="translate(35.43,64.64)" stroke="#000000">
    <g class="primitive">
      <text dy="0.35em">N24</text>
    </g>
  </g>
  <g transform="translate(26.73,59.73)" stroke="#000000">
    <g class="primitive">
      <text dy="0.35em">N33</text>
    </g>
  </g>
  <g transform="translate(17.99,54.41)" stroke="#000000">
    <g class="primitive">
      <text dy="0.35em">N34</text>
    </g>
  </g>
  <g transform="translate(17.49,49.3)" stroke="#000000">
    <g class="primitive">
      <text dy="0.35em">N36</text>
    </g>
  </g>
  <g transform="translate(15.52,44.28)" stroke="#000000">
    <g class="primitive">
      <text dy="0.35em">N37</text>
    </g>
  </g>
  <g transform="translate(9.42,34.11)" stroke="#000000">
    <g class="primitive">
      <text dy="0.35em">N38</text>
    </g>
  </g>
  <g transform="translate(5.63,23.19)" stroke="#000000">
    <g class="primitive">
      <text dy="0.35em"></text>
    </g>
  </g>
  <g transform="translate(5.63,14.05)" stroke="#000000">
    <g class="primitive">
      <text dy="0.35em"></text>
    </g>
  </g>
</g>
</svg>
