<?xml version="1.0" encoding="UTF-8"?>
<svg xmlns="http://www.w3.org/2000/svg"
     xmlns:xlink="http://www.w3.org/1999/xlink"
     version="1.2"
     width="150mm" height="76mm" viewBox="0 0 150 76"
     stroke="none"
     fill="#000000"
     stroke-width="0.3"
     font-size="3.88"
>
<defs>
  <marker id="arrow" markerWidth="15" markerHeight="7" refX="5" refY="3.5" orient="auto" markerUnits="strokeWidth">
    <path d="M0,0 L15,3.5 L0,7 z" stroke="context-stroke" fill="context-stroke"/>
  </marker>
</defs>
<g stroke-opacity="1" stroke-width="0.3" id="img-d6e1d110-1">
  <g transform="translate(10.99,3.45)" stroke="#49FA3E">
    <path fill="none" d="M-7.24,0 L7.24,0 " class="primitive"/>
  </g>
  <g transform="translate(19.4,6.6)" stroke="#CA1411">
    <path fill="none" d="M-8.71,0 L8.71,0 " class="primitive"/>
  </g>
  <g transform="translate(13.65,9.74)" stroke="#49FA3E">
    <path fill="none" d="M-2.95,0 L2.95,0 " class="primitive"/>
  </g>
  <g transform="translate(9.47,8.17)" stroke="#CA1411">
    <path fill="none" d="M-1.23,0 L1.23,0 " class="primitive"/>
  </g>
  <g transform="translate(10.69,8.17)" stroke="#CA1411">
    <path fill="none" d="M0,1.57 L0,-1.57 " class="primitive"/>
  </g>
  <g transform="translate(24.03,12.88)" stroke="#49FA3E">
    <path fill="none" d="M-0.84,0 L0.84,0 " class="primitive"/>
  </g>
  <g transform="translate(24.52,16.02)" stroke="#49FA3E">
    <path fill="none" d="M-1.34,0 L1.34,0 " class="primitive"/>
  </g>
  <g transform="translate(15.71,14.45)" stroke="#49FA3E">
    <path fill="none" d="M-7.47,0 L7.47,0 " class="primitive"/>
  </g>
  <g transform="translate(23.19,14.45)" stroke="#49FA3E">
    <path fill="none" d="M0,1.57 L0,-1.57 " class="primitive"/>
  </g>
  <g transform="translate(8.15,11.31)" stroke="#49FA3E">
    <path fill="none" d="M-0.09,0 L0.09,0 " class="primitive"/>
  </g>
  <g transform="translate(8.24,11.31)" stroke="#49FA3E">
    <path fill="none" d="M0,3.14 L0,-3.14 " class="primitive"/>
  </g>
  <g transform="translate(24.05,19.16)" stroke="#49FA3E">
    <path fill="none" d="M-6.13,0 L6.13,0 " class="primitive"/>
  </g>
  <g transform="translate(24.86,22.3)" stroke="#49FA3E">
    <path fill="none" d="M-6.94,0 L6.94,0 " class="primitive"/>
  </g>
  <g transform="translate(13.43,20.73)" stroke="#CA1411">
    <path fill="none" d="M-4.49,0 L4.49,0 " class="primitive"/>
  </g>
  <g transform="translate(17.92,20.73)" stroke="#CA1411">
    <path fill="none" d="M0,1.57 L0,-1.57 " class="primitive"/>
  </g>
  <g transform="translate(16.66,25.44)" stroke="#49FA3E">
    <path fill="none" d="M-0.6,0 L0.6,0 " class="primitive"/>
  </g>
  <g transform="translate(20.13,28.58)" stroke="#49FA3E">
    <path fill="none" d="M-4.07,0 L4.07,0 " class="primitive"/>
  </g>
  <g transform="translate(12.5,27.01)" stroke="#CA1411">
    <path fill="none" d="M-3.56,0 L3.56,0 " class="primitive"/>
  </g>
  <g transform="translate(16.06,27.01)" stroke="#CA1411">
    <path fill="none" d="M0,1.57 L0,-1.57 " class="primitive"/>
  </g>
  <g transform="translate(8.5,23.87)" stroke="#49FA3E">
    <path fill="none" d="M-0.44,0 L0.44,0 " class="primitive"/>
  </g>
  <g transform="translate(8.94,23.87)" stroke="#49FA3E">
    <path fill="none" d="M0,3.14 L0,-3.14 " class="primitive"/>
  </g>
  <g transform="translate(5.9,17.59)" stroke="#49FA3E">
    <path fill="none" d="M-2.15,0 L2.15,0 " class="primitive"/>
  </g>
  <g transform="translate(8.06,17.59)" stroke="#49FA3E">
    <path fill="none" d="M0,6.28 L0,-6.28 " class="primitive"/>
  </g>
  <g transform="translate(19.7,31.72)" stroke="#49FA3E">
    <path fill="none" d="M-2.77,0 L2.77,0 " class="primitive"/>
  </g>
  <g transform="translate(20.45,34.86)" stroke="#CA1411">
    <path fill="none" d="M-3.52,0 L3.52,0 " class="primitive"/>
  </g>
  <g transform="translate(16,33.29)" stroke="#CA1411">
    <path fill="none" d="M-0.93,0 L0.93,0 " class="primitive"/>
  </g>
  <g transform="translate(16.93,33.29)" stroke="#CA1411">
    <path fill="none" d="M0,1.57 L0,-1.57 " class="primitive"/>
  </g>
  <g transform="translate(24.34,38)" stroke="#CA1411">
    <path fill="none" d="M-2.25,0 L2.25,0 " class="primitive"/>
  </g>
  <g transform="translate(23.63,41.14)" stroke="#49FA3E">
    <path fill="none" d="M-1.54,0 L1.54,0 " class="primitive"/>
  </g>
  <g transform="translate(20.64,39.57)" stroke="#CA1411">
    <path fill="none" d="M-1.45,0 L1.45,0 " class="primitive"/>
  </g>
  <g transform="translate(22.09,39.57)" stroke="#CA1411">
    <path fill="none" d="M0,1.57 L0,-1.57 " class="primitive"/>
  </g>
  <g transform="translate(22.17,44.28)" stroke="#CA1411">
    <path fill="none" d="M-0.98,0 L0.98,0 " class="primitive"/>
  </g>
  <g transform="translate(21.79,47.42)" stroke="#49FA3E">
    <path fill="none" d="M-0.61,0 L0.61,0 " class="primitive"/>
  </g>
  <g transform="translate(20.19,45.85)" stroke="#CA1411">
    <path fill="none" d="M-1,0 L1,0 " class="primitive"/>
  </g>
  <g transform="translate(21.18,45.85)" stroke="#CA1411">
    <path fill="none" d="M0,1.57 L0,-1.57 " class="primitive"/>
  </g>
  <g transform="translate(17.13,42.71)" stroke="#CA1411">
    <path fill="none" d="M-2.06,0 L2.06,0 " class="primitive"/>
  </g>
  <g transform="translate(19.19,42.71)" stroke="#CA1411">
    <path fill="none" d="M0,3.14 L0,-3.14 " class="primitive"/>
  </g>
  <g transform="translate(14.03,38)" stroke="#CA1411">
    <path fill="none" d="M-1.04,0 L1.04,0 " class="primitive"/>
  </g>
  <g transform="translate(15.07,38)" stroke="#CA1411">
    <path fill="none" d="M0,4.71 L0,-4.71 " class="primitive"/>
  </g>
  <g transform="translate(39.23,50.56)" stroke="#CA1411">
    <path fill="none" d="M-0.75,0 L0.75,0 " class="primitive"/>
  </g>
  <g transform="translate(42.37,53.7)" stroke="#49FA3E">
    <path fill="none" d="M-3.89,0 L3.89,0 " class="primitive"/>
  </g>
  <g transform="translate(33.79,52.13)" stroke="#49FA3E">
    <path fill="none" d="M-4.7,0 L4.7,0 " class="primitive"/>
  </g>
  <g transform="translate(38.48,52.13)" stroke="#49FA3E">
    <path fill="none" d="M0,1.57 L0,-1.57 " class="primitive"/>
  </g>
  <g transform="translate(34.09,56.84)" stroke="#49FA3E">
    <path fill="none" d="M-0.71,0 L0.71,0 " class="primitive"/>
  </g>
  <g transform="translate(39.52,59.98)" stroke="#CA1411">
    <path fill="none" d="M-6.15,0 L6.15,0 " class="primitive"/>
  </g>
  <g transform="translate(31.23,58.41)" stroke="#49FA3E">
    <path fill="none" d="M-2.14,0 L2.14,0 " class="primitive"/>
  </g>
  <g transform="translate(33.38,58.41)" stroke="#49FA3E">
    <path fill="none" d="M0,1.57 L0,-1.57 " class="primitive"/>
  </g>
  <g transform="translate(26.8,55.27)" stroke="#CA1411">
    <path fill="none" d="M-2.29,0 L2.29,0 " class="primitive"/>
  </g>
  <g transform="translate(29.09,55.27)" stroke="#CA1411">
    <path fill="none" d="M0,3.14 L0,-3.14 " class="primitive"/>
  </g>
  <g transform="translate(57.73,63.12)" stroke="#CA1411">
    <path fill="none" d="M-21.02,0 L21.02,0 " class="primitive"/>
  </g>
  <g transform="translate(36.99,66.26)" stroke="#CA1411">
    <path fill="none" d="M-0.27,0 L0.27,0 " class="primitive"/>
  </g>
  <g stroke-opacity="1" stroke-width="0.3" id="img-d6e1d110-2">
    <g transform="translate(36.99,66.26)" stroke="#CA1411">
      <path fill="none" d="M-0.27,0 L0.27,0 " class="primitive"/>
    </g>
    <g transform="translate(36.15,64.69)" stroke="#CA1411">
      <path fill="none" d="M-0.56,0 L0.56,0 " class="primitive"/>
    </g>
    <g transform="translate(36.72,64.69)" stroke="#CA1411">
      <path fill="none" d="M0,1.57 L0,-1.57 " class="primitive"/>
    </g>
    <g transform="translate(46.38,69.4)" stroke="#CA1411">
      <path fill="none" d="M-0.01,0 L0.01,0 " class="primitive"/>
    </g>
    <g transform="translate(47.29,72.55)" stroke="#CA1411">
      <path fill="none" d="M-0.92,0 L0.92,0 " class="primitive"/>
    </g>
    <g transform="translate(40.98,70.98)" stroke="#CA1411">
      <path fill="none" d="M-5.39,0 L5.39,0 " class="primitive"/>
    </g>
    <g transform="translate(46.37,70.98)" stroke="#CA1411">
      <path fill="none" d="M0,1.57 L0,-1.57 " class="primitive"/>
    </g>
    <g transform="translate(30.05,67.83)" stroke="#49FA3E">
      <path fill="none" d="M-5.54,0 L5.54,0 " class="primitive"/>
    </g>
    <g transform="translate(35.59,67.83)" stroke="#49FA3E">
      <path fill="none" d="M0,3.14 L0,-3.14 " class="primitive"/>
    </g>
    <g transform="translate(18.75,61.55)" stroke="#49FA3E">
      <path fill="none" d="M-5.76,0 L5.76,0 " class="primitive"/>
    </g>
    <g transform="translate(24.52,61.55)" stroke="#49FA3E">
      <path fill="none" d="M0,6.28 L0,-6.28 " class="primitive"/>
    </g>
    <g transform="translate(8.37,49.78)" stroke="#CA1411">
      <path fill="none" d="M-4.62,0 L4.62,0 " class="primitive"/>
    </g>
    <g transform="translate(12.99,49.78)" stroke="#CA1411">
      <path fill="none" d="M0,11.78 L0,-11.78 " class="primitive"/>
    </g>
    <g transform="translate(3.75,33.68)" stroke="#000000">
      <path fill="none" d="M0,0 L0,0 " class="primitive"/>
    </g>
    <g transform="translate(3.75,33.68)" stroke="#000000">
      <path fill="none" d="M0,16.1 L0,-16.1 " class="primitive"/>
    </g>
    <g transform="translate(3.75,18.57)" stroke="#000000">
      <path fill="none" d="M0,0 L0,0 " class="primitive"/>
    </g>
    <g transform="translate(3.75,18.57)" stroke="#000000">
      <path fill="none" d="M0,15.11 L0,-15.11 " class="primitive"/>
    </g>
  </g>
</g>
<g fill-opacity="1" id="img-d6e1d110-3">
  <g transform="translate(18.23,3.45)" fill="#49FA3E">
    <circle cx="0" cy="0" r="0.75" class="primitive"/>
  </g>
  <g transform="translate(28.11,6.6)" fill="#CA1411">
    <circle cx="0" cy="0" r="0.75" class="primitive"/>
  </g>
  <g transform="translate(16.6,9.74)" fill="#49FA3E">
    <circle cx="0" cy="0" r="0.75" class="primitive"/>
  </g>
  <g transform="translate(10.69,8.17)" fill="#CA1411">
    <circle cx="0" cy="0" r="0.75" class="primitive"/>
  </g>
  <g transform="translate(24.86,12.88)" fill="#49FA3E">
    <circle cx="0" cy="0" r="0.75" class="primitive"/>
  </g>
  <g transform="translate(25.86,16.02)" fill="#49FA3E">
    <circle cx="0" cy="0" r="0.75" class="primitive"/>
  </g>
  <g transform="translate(23.19,14.45)" fill="#49FA3E">
    <circle cx="0" cy="0" r="0.75" class="primitive"/>
  </g>
  <g transform="translate(8.24,11.31)" fill="#49FA3E">
    <circle cx="0" cy="0" r="0.75" class="primitive"/>
  </g>
  <g transform="translate(30.17,19.16)" fill="#49FA3E">
    <circle cx="0" cy="0" r="0.75" class="primitive"/>
  </g>
  <g transform="translate(31.79,22.3)" fill="#49FA3E">
    <circle cx="0" cy="0" r="0.75" class="primitive"/>
  </g>
  <g transform="translate(17.92,20.73)" fill="#CA1411">
    <circle cx="0" cy="0" r="0.75" class="primitive"/>
  </g>
  <g transform="translate(17.26,25.44)" fill="#49FA3E">
    <circle cx="0" cy="0" r="0.75" class="primitive"/>
  </g>
  <g transform="translate(24.2,28.58)" fill="#49FA3E">
    <circle cx="0" cy="0" r="0.75" class="primitive"/>
  </g>
  <g transform="translate(16.06,27.01)" fill="#CA1411">
    <circle cx="0" cy="0" r="0.75" class="primitive"/>
  </g>
  <g transform="translate(8.94,23.87)" fill="#49FA3E">
    <circle cx="0" cy="0" r="0.75" class="primitive"/>
  </g>
  <g transform="translate(8.06,17.59)" fill="#49FA3E">
    <circle cx="0" cy="0" r="0.75" class="primitive"/>
  </g>
  <g transform="translate(22.48,31.72)" fill="#49FA3E">
    <circle cx="0" cy="0" r="0.75" class="primitive"/>
  </g>
  <g transform="translate(23.97,34.86)" fill="#CA1411">
    <circle cx="0" cy="0" r="0.75" class="primitive"/>
  </g>
  <g transform="translate(16.93,33.29)" fill="#CA1411">
    <circle cx="0" cy="0" r="0.75" class="primitive"/>
  </g>
  <g transform="translate(26.59,38)" fill="#CA1411">
    <circle cx="0" cy="0" r="0.75" class="primitive"/>
  </g>
  <g transform="translate(25.17,41.14)" fill="#49FA3E">
    <circle cx="0" cy="0" r="0.75" class="primitive"/>
  </g>
  <g transform="translate(22.09,39.57)" fill="#CA1411">
    <circle cx="0" cy="0" r="0.75" class="primitive"/>
  </g>
  <g transform="translate(23.15,44.28)" fill="#CA1411">
    <circle cx="0" cy="0" r="0.75" class="primitive"/>
  </g>
  <g transform="translate(22.4,47.42)" fill="#49FA3E">
    <circle cx="0" cy="0" r="0.75" class="primitive"/>
  </g>
  <g transform="translate(21.18,45.85)" fill="#CA1411">
    <circle cx="0" cy="0" r="0.75" class="primitive"/>
  </g>
  <g transform="translate(19.19,42.71)" fill="#CA1411">
    <circle cx="0" cy="0" r="0.75" class="primitive"/>
  </g>
  <g transform="translate(15.07,38)" fill="#CA1411">
    <circle cx="0" cy="0" r="0.75" class="primitive"/>
  </g>
  <g transform="translate(39.99,50.56)" fill="#CA1411">
    <circle cx="0" cy="0" r="0.75" class="primitive"/>
  </g>
  <g transform="translate(46.26,53.7)" fill="#49FA3E">
    <circle cx="0" cy="0" r="0.75" class="primitive"/>
  </g>
  <g transform="translate(38.48,52.13)" fill="#49FA3E">
    <circle cx="0" cy="0" r="0.75" class="primitive"/>
  </g>
  <g transform="translate(34.8,56.84)" fill="#49FA3E">
    <circle cx="0" cy="0" r="0.75" class="primitive"/>
  </g>
  <g transform="translate(45.67,59.98)" fill="#CA1411">
    <circle cx="0" cy="0" r="0.75" class="primitive"/>
  </g>
  <g transform="translate(33.38,58.41)" fill="#49FA3E">
    <circle cx="0" cy="0" r="0.75" class="primitive"/>
  </g>
  <g transform="translate(29.09,55.27)" fill="#CA1411">
    <circle cx="0" cy="0" r="0.75" class="primitive"/>
  </g>
  <g transform="translate(78.75,63.12)" fill="#CA1411">
    <circle cx="0" cy="0" r="0.75" class="primitive"/>
  </g>
  <g transform="translate(37.26,66.26)" fill="#CA1411">
    <circle cx="0" cy="0" r="0.75" class="primitive"/>
  </g>
  <g transform="translate(36.72,64.69)" fill="#CA1411">
    <circle cx="0" cy="0" r="0.75" class="primitive"/>
  </g>
  <g transform="translate(46.4,69.4)" fill="#CA1411">
    <circle cx="0" cy="0" r="0.75" class="primitive"/>
  </g>
  <g transform="translate(48.22,72.55)" fill="#CA1411">
    <circle cx="0" cy="0" r="0.75" class="primitive"/>
  </g>
  <g transform="translate(46.37,70.98)" fill="#CA1411">
    <circle cx="0" cy="0" r="0.75" class="primitive"/>
  </g>
  <g transform="translate(35.59,67.83)" fill="#49FA3E">
    <circle cx="0" cy="0" r="0.75" class="primitive"/>
  </g>
  <g transform="translate(24.52,61.55)" fill="#49FA3E">
    <circle cx="0" cy="0" r="0.75" class="primitive"/>
  </g>
  <g transform="translate(12.99,49.78)" fill="#CA1411">
    <circle cx="0" cy="0" r="0.75" class="primitive"/>
  </g>
  <g transform="translate(3.75,33.68)" fill="#000000">
    <circle cx="0" cy="0" r="0.75" class="primitive"/>
  </g>
  <g transform="translate(3.75,18.57)" fill="#000000">
    <circle cx="0" cy="0" r="0.75" class="primitive"/>
  </g>
</g>
<g stroke-opacity="1" fill-opacity="1" font-size="1.41" stroke-width="0.1" id="img-d6e1d110-4">
  <g transform="translate(20.1,3.45)" stroke="#000000">
    <g class="primitive">
      <text dy="0.35em">N22</text>
    </g>
  </g>
  <g transform="translate(29.98,6.6)" stroke="#000000">
    <g class="primitive">
      <text dy="0.35em">N12</text>
    </g>
  </g>
  <g transform="translate(18.48,9.74)" stroke="#000000">
    <g class="primitive">
      <text dy="0.35em">N13</text>
    </g>
  </g>
  <g transform="translate(12.57,8.17)" stroke="#000000">
    <g class="primitive">
      <text dy="0.35em">N29</text>
    </g>
  </g>
  <g transform="translate(26.74,12.88)" stroke="#000000">
    <g class="primitive">
      <text dy="0.35em">N14</text>
    </g>
  </g>
  <g transform="translate(27.74,16.02)" stroke="#000000">
    <g class="primitive">
      <text dy="0.35em">N15</text>
    </g>
  </g>
  <g transform="translate(25.06,14.45)" stroke="#000000">
    <g class="primitive">
      <text dy="0.35em">N30</text>
    </g>
  </g>
  <g transform="translate(10.12,11.31)" stroke="#000000">
    <g class="primitive">
      <text dy="0.35em">N37</text>
    </g>
  </g>
  <g transform="translate(32.05,19.16)" stroke="#000000">
    <g class="primitive">
      <text dy="0.35em">N16</text>
    </g>
  </g>
  <g transform="translate(33.67,22.3)" stroke="#000000">
    <g class="primitive">
      <text dy="0.35em">N17</text>
    </g>
  </g>
  <g transform="translate(19.79,20.73)" stroke="#000000">
    <g class="primitive">
      <text dy="0.35em">N31</text>
    </g>
  </g>
  <g transform="translate(19.14,25.44)" stroke="#000000">
    <g class="primitive">
      <text dy="0.35em">N18</text>
    </g>
  </g>
  <g transform="translate(26.08,28.58)" stroke="#000000">
    <g class="primitive">
      <text dy="0.35em">N19</text>
    </g>
  </g>
  <g transform="translate(17.93,27.01)" stroke="#000000">
    <g class="primitive">
      <text dy="0.35em">N32</text>
    </g>
  </g>
  <g transform="translate(10.81,23.87)" stroke="#000000">
    <g class="primitive">
      <text dy="0.35em">N38</text>
    </g>
  </g>
  <g transform="translate(9.93,17.59)" stroke="#000000">
    <g class="primitive">
      <text dy="0.35em">N41</text>
    </g>
  </g>
  <g transform="translate(24.35,31.72)" stroke="#000000">
    <g class="primitive">
      <text dy="0.35em">N20</text>
    </g>
  </g>
  <g transform="translate(25.84,34.86)" stroke="#000000">
    <g class="primitive">
      <text dy="0.35em">N21</text>
    </g>
  </g>
  <g transform="translate(18.8,33.29)" stroke="#000000">
    <g class="primitive">
      <text dy="0.35em">N33</text>
    </g>
  </g>
  <g transform="translate(28.46,38)" stroke="#000000">
    <g class="primitive">
      <text dy="0.35em">N0</text>
    </g>
  </g>
  <g transform="translate(27.05,41.14)" stroke="#000000">
    <g class="primitive">
      <text dy="0.35em">N1</text>
    </g>
  </g>
  <g transform="translate(23.96,39.57)" stroke="#000000">
    <g class="primitive">
      <text dy="0.35em">N23</text>
    </g>
  </g>
  <g transform="translate(25.03,44.28)" stroke="#000000">
    <g class="primitive">
      <text dy="0.35em">N2</text>
    </g>
  </g>
  <g transform="translate(24.27,47.42)" stroke="#000000">
    <g class="primitive">
      <text dy="0.35em">N3</text>
    </g>
  </g>
  <g transform="translate(23.06,45.85)" stroke="#000000">
    <g class="primitive">
      <text dy="0.35em">N24</text>
    </g>
  </g>
  <g transform="translate(21.07,42.71)" stroke="#000000">
    <g class="primitive">
      <text dy="0.35em">N34</text>
    </g>
  </g>
  <g transform="translate(16.94,38)" stroke="#000000">
    <g class="primitive">
      <text dy="0.35em">N39</text>
    </g>
  </g>
  <g transform="translate(41.86,50.56)" stroke="#000000">
    <g class="primitive">
      <text dy="0.35em">N4</text>
    </g>
  </g>
  <g transform="translate(48.13,53.7)" stroke="#000000">
    <g class="primitive">
      <text dy="0.35em">N5</text>
    </g>
  </g>
  <g transform="translate(40.36,52.13)" stroke="#000000">
    <g class="primitive">
      <text dy="0.35em">N25</text>
    </g>
  </g>
  <g transform="translate(36.68,56.84)" stroke="#000000">
    <g class="primitive">
      <text dy="0.35em">N6</text>
    </g>
  </g>
  <g transform="translate(47.54,59.98)" stroke="#000000">
    <g class="primitive">
      <text dy="0.35em">N7</text>
    </g>
  </g>
  <g transform="translate(35.25,58.41)" stroke="#000000">
    <g class="primitive">
      <text dy="0.35em">N26</text>
    </g>
  </g>
  <g transform="translate(30.96,55.27)" stroke="#000000">
    <g class="primitive">
      <text dy="0.35em">N35</text>
    </g>
  </g>
  <g transform="translate(80.62,63.12)" stroke="#000000">
    <g class="primitive">
      <text dy="0.35em">N8</text>
    </g>
  </g>
  <g transform="translate(39.14,66.26)" stroke="#000000">
    <g class="primitive">
      <text dy="0.35em">N9</text>
    </g>
  </g>
  <g transform="translate(38.59,64.69)" stroke="#000000">
    <g class="primitive">
      <text dy="0.35em">N27</text>
    </g>
  </g>
  <g transform="translate(48.27,69.4)" stroke="#000000">
    <g class="primitive">
      <text dy="0.35em">N10</text>
    </g>
  </g>
  <g transform="translate(50.09,72.55)" stroke="#000000">
    <g class="primitive">
      <text dy="0.35em">N11</text>
    </g>
  </g>
  <g transform="translate(48.25,70.98)" stroke="#000000">
    <g class="primitive">
      <text dy="0.35em">N28</text>
    </g>
  </g>
  <g transform="translate(37.46,67.83)" stroke="#000000">
    <g class="primitive">
      <text dy="0.35em">N36</text>
    </g>
  </g>
  <g transform="translate(26.39,61.55)" stroke="#000000">
    <g class="primitive">
      <text dy="0.35em">N40</text>
    </g>
  </g>
  <g transform="translate(14.87,49.78)" stroke="#000000">
    <g class="primitive">
      <text dy="0.35em">N42</text>
    </g>
  </g>
  <g transform="translate(5.63,33.68)" stroke="#000000">
    <g class="primitive">
      <text dy="0.35em"></text>
    </g>
  </g>
  <g transform="translate(5.63,18.57)" stroke="#000000">
    <g class="primitive">
      <text dy="0.35em"></text>
    </g>
  </g>
</g>
</svg>
