<?xml version="1.0" encoding="UTF-8"?>
<svg xmlns="http://www.w3.org/2000/svg"
     xmlns:xlink="http://www.w3.org/1999/xlink"
     version="1.2"
     width="150mm" height="126mm" viewBox="0 0 150 126"
     stroke="none"
     fill="#000000"
     stroke-width="0.3"
     font-size="3.88"
>
<defs>
  <marker id="arrow" markerWidth="15" markerHeight="7" refX="5" refY="3.5" orient="auto" markerUnits="strokeWidth">
    <path d="M0,0 L15,3.5 L0,7 z" stroke="context-stroke" fill="context-stroke"/>
  </marker>
</defs>
<g stroke-opacity="1" stroke-width="0.3" id="img-29b4c979-1">
  <g transform="translate(6.32,5.73)" stroke="#FE11F9">
    <path fill="none" d="M-2.57,0 L2.57,0 " class="primitive"/>
  </g>
  <g transform="translate(3.77,8.16)" stroke="#FE11F9">
    <path fill="none" d="M-0.02,0 L0.02,0 " class="primitive"/>
  </g>
  <g transform="translate(8.21,10.6)" stroke="#FE11F9">
    <path fill="none" d="M-1.16,0 L1.16,0 " class="primitive"/>
  </g>
  <g transform="translate(8.99,13.04)" stroke="#FE11F9">
    <path fill="none" d="M-1.38,0 L1.38,0 " class="primitive"/>
  </g>
  <g transform="translate(9.06,15.48)" stroke="#FE11F9">
    <path fill="none" d="M-0.28,0 L0.28,0 " class="primitive"/>
  </g>
  <g transform="translate(9.09,17.91)" stroke="#FE11F9">
    <path fill="none" d="M-0.14,0 L0.14,0 " class="primitive"/>
  </g>
  <g transform="translate(10.62,20.35)" stroke="#FE11F9">
    <path fill="none" d="M-0.45,0 L0.45,0 " class="primitive"/>
  </g>
  <g transform="translate(10.84,22.79)" stroke="#FE11F9">
    <path fill="none" d="M-0.42,0 L0.42,0 " class="primitive"/>
  </g>
  <g transform="translate(11.54,25.22)" stroke="#FE11F9">
    <path fill="none" d="M-0.61,0 L0.61,0 " class="primitive"/>
  </g>
  <g transform="translate(12.39,27.66)" stroke="#FE11F9">
    <path fill="none" d="M-0.19,0 L0.19,0 " class="primitive"/>
  </g>
  <g transform="translate(13.36,30.1)" stroke="#FE11F9">
    <path fill="none" d="M-0.77,0 L0.77,0 " class="primitive"/>
  </g>
  <g transform="translate(13.64,32.54)" stroke="#FE11F9">
    <path fill="none" d="M-0.05,0 L0.05,0 " class="primitive"/>
  </g>
  <g transform="translate(14.21,34.97)" stroke="#FE11F9">
    <path fill="none" d="M-0.55,0 L0.55,0 " class="primitive"/>
  </g>
  <g transform="translate(20.11,37.41)" stroke="#6C7173">
    <path fill="none" d="M-0.39,0 L0.39,0 " class="primitive"/>
  </g>
  <g transform="translate(23.25,39.85)" stroke="#6C7173">
    <path fill="none" d="M-1.31,0 L1.31,0 " class="primitive"/>
  </g>
  <g transform="translate(22.99,42.28)" stroke="#FE11F9">
    <path fill="none" d="M-0.21,0 L0.21,0 " class="primitive"/>
  </g>
  <g transform="translate(23.83,44.72)" stroke="#FE11F9">
    <path fill="none" d="M-0.01,0 L0.01,0 " class="primitive"/>
  </g>
  <g transform="translate(25.2,47.16)" stroke="#FE11F9">
    <path fill="none" d="M-0.94,0 L0.94,0 " class="primitive"/>
  </g>
  <g transform="translate(24.5,49.6)" stroke="#FE11F9">
    <path fill="none" d="M-0.11,0 L0.11,0 " class="primitive"/>
  </g>
  <g transform="translate(24.78,52.03)" stroke="#FE11F9">
    <path fill="none" d="M-0.06,0 L0.06,0 " class="primitive"/>
  </g>
  <g transform="translate(25.51,54.47)" stroke="#FE11F9">
    <path fill="none" d="M-0.44,0 L0.44,0 " class="primitive"/>
  </g>
  <g transform="translate(30.37,56.91)" stroke="#FE11F9">
    <path fill="none" d="M-0.86,0 L0.86,0 " class="primitive"/>
  </g>
  <g transform="translate(30.29,59.34)" stroke="#6C7173">
    <path fill="none" d="M-0.38,0 L0.38,0 " class="primitive"/>
  </g>
  <g transform="translate(31.37,61.78)" stroke="#FE11F9">
    <path fill="none" d="M-0.42,0 L0.42,0 " class="primitive"/>
  </g>
  <g transform="translate(34.16,64.22)" stroke="#FE11F9">
    <path fill="none" d="M-0.02,0 L0.02,0 " class="primitive"/>
  </g>
  <g transform="translate(38.82,66.66)" stroke="#FE11F9">
    <path fill="none" d="M-1.74,0 L1.74,0 " class="primitive"/>
  </g>
  <g transform="translate(41.39,69.09)" stroke="#FE11F9">
    <path fill="none" d="M-0.1,0 L0.1,0 " class="primitive"/>
  </g>
  <g transform="translate(44.41,71.53)" stroke="#FE11F9">
    <path fill="none" d="M-0.22,0 L0.22,0 " class="primitive"/>
  </g>
  <g transform="translate(47.98,73.97)" stroke="#FE11F9">
    <path fill="none" d="M-0,0 L0,0 " class="primitive"/>
  </g>
  <g transform="translate(51.9,76.4)" stroke="#FE11F9">
    <path fill="none" d="M-0.01,0 L0.01,0 " class="primitive"/>
  </g>
  <g transform="translate(55.52,78.84)" stroke="#FE11F9">
    <path fill="none" d="M-0.06,0 L0.06,0 " class="primitive"/>
  </g>
  <g transform="translate(56.39,81.28)" stroke="#6C7173">
    <path fill="none" d="M-0.7,0 L0.7,0 " class="primitive"/>
  </g>
  <g transform="translate(56.93,83.72)" stroke="#FE11F9">
    <path fill="none" d="M-0.04,0 L0.04,0 " class="primitive"/>
  </g>
  <g transform="translate(57.44,86.15)" stroke="#FE11F9">
    <path fill="none" d="M-0.24,0 L0.24,0 " class="primitive"/>
  </g>
  <g transform="translate(59.3,88.59)" stroke="#FE11F9">
    <path fill="none" d="M-1.49,0 L1.49,0 " class="primitive"/>
  </g>
  <g transform="translate(59.55,91.03)" stroke="#FE11F9">
    <path fill="none" d="M-0.47,0 L0.47,0 " class="primitive"/>
  </g>
  <g transform="translate(66.03,93.46)" stroke="#FE11F9">
    <path fill="none" d="M-2.33,0 L2.33,0 " class="primitive"/>
  </g>
  <g transform="translate(64.9,95.9)" stroke="#FE11F9">
    <path fill="none" d="M-0.07,0 L0.07,0 " class="primitive"/>
  </g>
  <g transform="translate(65.97,98.34)" stroke="#FE11F9">
    <path fill="none" d="M-1.14,0 L1.14,0 " class="primitive"/>
  </g>
  <g transform="translate(67.9,100.78)" stroke="#FE11F9">
    <path fill="none" d="M-0.82,0 L0.82,0 " class="primitive"/>
  </g>
  <g transform="translate(70.75,103.21)" stroke="#6C7173">
    <path fill="none" d="M-1.08,0 L1.08,0 " class="primitive"/>
  </g>
  <g transform="translate(72.76,105.65)" stroke="#FE11F9">
    <path fill="none" d="M-0.02,0 L0.02,0 " class="primitive"/>
  </g>
  <g transform="translate(74.29,108.09)" stroke="#FE11F9">
    <path fill="none" d="M-0.34,0 L0.34,0 " class="primitive"/>
  </g>
  <g transform="translate(75.69,110.52)" stroke="#FE11F9">
    <path fill="none" d="M-1.59,0 L1.59,0 " class="primitive"/>
  </g>
  <g transform="translate(75.78,112.96)" stroke="#FE11F9">
    <path fill="none" d="M-0.08,0 L0.08,0 " class="primitive"/>
  </g>
  <g transform="translate(77.74,115.4)" stroke="#6C7173">
    <path fill="none" d="M-1.01,0 L1.01,0 " class="primitive"/>
  </g>
  <g transform="translate(77.03,117.84)" stroke="#FE11F9">
    <path fill="none" d="M-0.22,0 L0.22,0 " class="primitive"/>
  </g>
  <g transform="translate(76.96,120.27)" stroke="#FE11F9">
    <path fill="none" d="M-0.15,0 L0.15,0 " class="primitive"/>
  </g>
  <g transform="translate(76.76,119.05)" stroke="#FE11F9">
    <path fill="none" d="M-0.04,0 L0.04,0 " class="primitive"/>
  </g>
  <g transform="translate(76.81,119.05)" stroke="#FE11F9">
    <path fill="none" d="M0,1.22 L0,-1.22 " class="primitive"/>
  </g>
  <g transform="translate(76.21,117.23)" stroke="#FE11F9">
    <path fill="none" d="M-0.51,0 L0.51,0 " class="primitive"/>
  </g>
  <g stroke-opacity="1" stroke-width="0.3" id="img-29b4c979-2">
    <g transform="translate(24.9,56.91)" stroke="#FE11F9">
      <path fill="none" d="M-0.17,0 L0.17,0 " class="primitive"/>
    </g>
    <g transform="translate(25.07,56.91)" stroke="#FE11F9">
      <path fill="none" d="M0,2.44 L0,-2.44 " class="primitive"/>
    </g>
    <g transform="translate(24.56,54.47)" stroke="#6C7173">
      <path fill="none" d="M-0.17,0 L0.17,0 " class="primitive"/>
    </g>
    <g transform="translate(24.72,54.47)" stroke="#6C7173">
      <path fill="none" d="M0,2.44 L0,-2.44 " class="primitive"/>
    </g>
    <g transform="translate(24.33,52.03)" stroke="#6C7173">
      <path fill="none" d="M-0.06,0 L0.06,0 " class="primitive"/>
    </g>
    <g transform="translate(24.39,52.03)" stroke="#6C7173">
      <path fill="none" d="M0,2.44 L0,-2.44 " class="primitive"/>
    </g>
    <g transform="translate(24.04,49.6)" stroke="#6C7173">
      <path fill="none" d="M-0.22,0 L0.22,0 " class="primitive"/>
    </g>
    <g transform="translate(24.26,49.6)" stroke="#6C7173">
      <path fill="none" d="M0,2.44 L0,-2.44 " class="primitive"/>
    </g>
    <g transform="translate(23.3,47.16)" stroke="#FE11F9">
      <path fill="none" d="M-0.52,0 L0.52,0 " class="primitive"/>
    </g>
    <g transform="translate(23.82,47.16)" stroke="#FE11F9">
      <path fill="none" d="M0,2.44 L0,-2.44 " class="primitive"/>
    </g>
    <g transform="translate(22.36,44.72)" stroke="#FE11F9">
      <path fill="none" d="M-0.42,0 L0.42,0 " class="primitive"/>
    </g>
    <g transform="translate(22.78,44.72)" stroke="#FE11F9">
      <path fill="none" d="M0,2.44 L0,-2.44 " class="primitive"/>
    </g>
    <g transform="translate(20.83,42.28)" stroke="#FE11F9">
      <path fill="none" d="M-1.11,0 L1.11,0 " class="primitive"/>
    </g>
    <g transform="translate(21.94,42.28)" stroke="#FE11F9">
      <path fill="none" d="M0,2.44 L0,-2.44 " class="primitive"/>
    </g>
    <g transform="translate(16.69,39.85)" stroke="#6C7173">
      <path fill="none" d="M-3.03,0 L3.03,0 " class="primitive"/>
    </g>
    <g transform="translate(19.72,39.85)" stroke="#6C7173">
      <path fill="none" d="M0,2.44 L0,-2.44 " class="primitive"/>
    </g>
    <g transform="translate(13.63,37.41)" stroke="#FE11F9">
      <path fill="none" d="M-0.04,0 L0.04,0 " class="primitive"/>
    </g>
    <g transform="translate(13.66,37.41)" stroke="#FE11F9">
      <path fill="none" d="M0,2.44 L0,-2.44 " class="primitive"/>
    </g>
    <g transform="translate(13.09,34.97)" stroke="#FE11F9">
      <path fill="none" d="M-0.5,0 L0.5,0 " class="primitive"/>
    </g>
    <g transform="translate(13.59,34.97)" stroke="#FE11F9">
      <path fill="none" d="M0,2.44 L0,-2.44 " class="primitive"/>
    </g>
    <g transform="translate(12.39,32.54)" stroke="#FE11F9">
      <path fill="none" d="M-0.2,0 L0.2,0 " class="primitive"/>
    </g>
    <g transform="translate(12.59,32.54)" stroke="#FE11F9">
      <path fill="none" d="M0,2.44 L0,-2.44 " class="primitive"/>
    </g>
    <g transform="translate(11.56,30.1)" stroke="#FE11F9">
      <path fill="none" d="M-0.63,0 L0.63,0 " class="primitive"/>
    </g>
    <g transform="translate(12.2,30.1)" stroke="#FE11F9">
      <path fill="none" d="M0,2.44 L0,-2.44 " class="primitive"/>
    </g>
    <g transform="translate(10.67,27.66)" stroke="#FE11F9">
      <path fill="none" d="M-0.26,0 L0.26,0 " class="primitive"/>
    </g>
    <g transform="translate(10.93,27.66)" stroke="#FE11F9">
      <path fill="none" d="M0,2.44 L0,-2.44 " class="primitive"/>
    </g>
    <g transform="translate(10.29,25.22)" stroke="#FE11F9">
      <path fill="none" d="M-0.13,0 L0.13,0 " class="primitive"/>
    </g>
    <g transform="translate(10.42,25.22)" stroke="#FE11F9">
      <path fill="none" d="M0,2.44 L0,-2.44 " class="primitive"/>
    </g>
    <g transform="translate(9.55,22.79)" stroke="#6C7173">
      <path fill="none" d="M-0.61,0 L0.61,0 " class="primitive"/>
    </g>
    <g transform="translate(10.16,22.79)" stroke="#6C7173">
      <path fill="none" d="M0,2.44 L0,-2.44 " class="primitive"/>
    </g>
    <g transform="translate(8.86,20.35)" stroke="#FE11F9">
      <path fill="none" d="M-0.08,0 L0.08,0 " class="primitive"/>
    </g>
    <g transform="translate(8.94,20.35)" stroke="#FE11F9">
      <path fill="none" d="M0,2.44 L0,-2.44 " class="primitive"/>
    </g>
    <g transform="translate(8.19,17.91)" stroke="#FE11F9">
      <path fill="none" d="M-0.59,0 L0.59,0 " class="primitive"/>
    </g>
    <g transform="translate(8.78,17.91)" stroke="#FE11F9">
      <path fill="none" d="M0,2.44 L0,-2.44 " class="primitive"/>
    </g>
    <g transform="translate(7.33,15.48)" stroke="#FE11F9">
      <path fill="none" d="M-0.28,0 L0.28,0 " class="primitive"/>
    </g>
    <g transform="translate(7.61,15.48)" stroke="#FE11F9">
      <path fill="none" d="M0,2.44 L0,-2.44 " class="primitive"/>
    </g>
    <g transform="translate(5.4,13.04)" stroke="#FE11F9">
      <path fill="none" d="M-1.65,0 L1.65,0 " class="primitive"/>
    </g>
    <g transform="translate(7.05,13.04)" stroke="#FE11F9">
      <path fill="none" d="M0,2.44 L0,-2.44 " class="primitive"/>
    </g>
    <g transform="translate(3.75,10.6)" stroke="#000000">
      <path fill="none" d="M0,0 L0,0 " class="primitive"/>
    </g>
    <g transform="translate(3.75,10.6)" stroke="#000000">
      <path fill="none" d="M0,2.44 L0,-2.44 " class="primitive"/>
    </g>
    <g transform="translate(3.75,8.16)" stroke="#000000">
      <path fill="none" d="M0,0 L0,0 " class="primitive"/>
    </g>
    <g transform="translate(3.75,8.16)" stroke="#000000">
      <path fill="none" d="M0,2.44 L0,-2.44 " class="primitive"/>
    </g>
  </g>
  <g stroke-opacity="1" stroke-width="0.3" id="img-29b4c979-3">
    <g transform="translate(76.21,117.23)" stroke="#FE11F9">
      <path fill="none" d="M-0.51,0 L0.51,0 " class="primitive"/>
    </g>
    <g transform="translate(76.72,117.23)" stroke="#FE11F9">
      <path fill="none" d="M0,1.83 L0,-1.83 " class="primitive"/>
    </g>
    <g transform="translate(74.9,115.09)" stroke="#FE11F9">
      <path fill="none" d="M-0.8,0 L0.8,0 " class="primitive"/>
    </g>
    <g transform="translate(75.7,115.09)" stroke="#FE11F9">
      <path fill="none" d="M0,2.13 L0,-2.13 " class="primitive"/>
    </g>
    <g transform="translate(74.03,112.81)" stroke="#FE11F9">
      <path fill="none" d="M-0.08,0 L0.08,0 " class="primitive"/>
    </g>
    <g transform="translate(74.11,112.81)" stroke="#FE11F9">
      <path fill="none" d="M0,2.28 L0,-2.28 " class="primitive"/>
    </g>
    <g transform="translate(73.34,110.45)" stroke="#FE11F9">
      <path fill="none" d="M-0.61,0 L0.61,0 " class="primitive"/>
    </g>
    <g transform="translate(73.95,110.45)" stroke="#FE11F9">
      <path fill="none" d="M0,2.36 L0,-2.36 " class="primitive"/>
    </g>
    <g transform="translate(71.21,108.05)" stroke="#FE11F9">
      <path fill="none" d="M-1.53,0 L1.53,0 " class="primitive"/>
    </g>
    <g transform="translate(72.74,108.05)" stroke="#FE11F9">
      <path fill="none" d="M0,2.4 L0,-2.4 " class="primitive"/>
    </g>
    <g transform="translate(68.38,105.63)" stroke="#FE11F9">
      <path fill="none" d="M-1.3,0 L1.3,0 " class="primitive"/>
    </g>
    <g transform="translate(69.67,105.63)" stroke="#FE11F9">
      <path fill="none" d="M0,2.42 L0,-2.42 " class="primitive"/>
    </g>
    <g transform="translate(65.95,103.2)" stroke="#FE11F9">
      <path fill="none" d="M-1.12,0 L1.12,0 " class="primitive"/>
    </g>
    <g transform="translate(67.08,103.2)" stroke="#FE11F9">
      <path fill="none" d="M0,2.43 L0,-2.43 " class="primitive"/>
    </g>
    <g transform="translate(64.83,100.77)" stroke="#FE11F9">
      <path fill="none" d="M-0,0 L0,0 " class="primitive"/>
    </g>
    <g transform="translate(64.83,100.77)" stroke="#FE11F9">
      <path fill="none" d="M0,2.43 L0,-2.43 " class="primitive"/>
    </g>
    <g transform="translate(64.27,98.34)" stroke="#FE11F9">
      <path fill="none" d="M-0.56,0 L0.56,0 " class="primitive"/>
    </g>
    <g transform="translate(64.83,98.34)" stroke="#FE11F9">
      <path fill="none" d="M0,2.43 L0,-2.43 " class="primitive"/>
    </g>
    <g transform="translate(61.4,95.9)" stroke="#FE11F9">
      <path fill="none" d="M-2.31,0 L2.31,0 " class="primitive"/>
    </g>
    <g transform="translate(63.7,95.9)" stroke="#FE11F9">
      <path fill="none" d="M0,2.44 L0,-2.44 " class="primitive"/>
    </g>
    <g transform="translate(58.45,93.46)" stroke="#6C7173">
      <path fill="none" d="M-0.64,0 L0.64,0 " class="primitive"/>
    </g>
    <g transform="translate(59.09,93.46)" stroke="#6C7173">
      <path fill="none" d="M0,2.44 L0,-2.44 " class="primitive"/>
    </g>
    <g transform="translate(57.5,91.03)" stroke="#FE11F9">
      <path fill="none" d="M-0.3,0 L0.3,0 " class="primitive"/>
    </g>
    <g transform="translate(57.81,91.03)" stroke="#FE11F9">
      <path fill="none" d="M0,2.44 L0,-2.44 " class="primitive"/>
    </g>
    <g transform="translate(57.05,88.59)" stroke="#FE11F9">
      <path fill="none" d="M-0.16,0 L0.16,0 " class="primitive"/>
    </g>
    <g transform="translate(57.2,88.59)" stroke="#FE11F9">
      <path fill="none" d="M0,2.44 L0,-2.44 " class="primitive"/>
    </g>
    <g transform="translate(56.29,86.15)" stroke="#6C7173">
      <path fill="none" d="M-0.6,0 L0.6,0 " class="primitive"/>
    </g>
    <g transform="translate(56.89,86.15)" stroke="#6C7173">
      <path fill="none" d="M0,2.44 L0,-2.44 " class="primitive"/>
    </g>
    <g transform="translate(55.57,83.72)" stroke="#FE11F9">
      <path fill="none" d="M-0.12,0 L0.12,0 " class="primitive"/>
    </g>
    <g transform="translate(55.69,83.72)" stroke="#FE11F9">
      <path fill="none" d="M0,2.44 L0,-2.44 " class="primitive"/>
    </g>
    <g transform="translate(53.67,81.28)" stroke="#FE11F9">
      <path fill="none" d="M-1.78,0 L1.78,0 " class="primitive"/>
    </g>
    <g transform="translate(55.46,81.28)" stroke="#FE11F9">
      <path fill="none" d="M0,2.44 L0,-2.44 " class="primitive"/>
    </g>
    <g transform="translate(49.93,78.84)" stroke="#6C7173">
      <path fill="none" d="M-1.96,0 L1.96,0 " class="primitive"/>
    </g>
    <g transform="translate(51.89,78.84)" stroke="#6C7173">
      <path fill="none" d="M0,2.44 L0,-2.44 " class="primitive"/>
    </g>
    <g transform="translate(46.08,76.4)" stroke="#6C7173">
      <path fill="none" d="M-1.89,0 L1.89,0 " class="primitive"/>
    </g>
    <g transform="translate(47.97,76.4)" stroke="#6C7173">
      <path fill="none" d="M0,2.44 L0,-2.44 " class="primitive"/>
    </g>
    <g transform="translate(42.74,73.97)" stroke="#FE11F9">
      <path fill="none" d="M-1.45,0 L1.45,0 " class="primitive"/>
    </g>
    <g transform="translate(44.19,73.97)" stroke="#FE11F9">
      <path fill="none" d="M0,2.44 L0,-2.44 " class="primitive"/>
    </g>
    <g transform="translate(39.19,71.53)" stroke="#FE11F9">
      <path fill="none" d="M-2.1,0 L2.1,0 " class="primitive"/>
    </g>
    <g transform="translate(41.29,71.53)" stroke="#FE11F9">
      <path fill="none" d="M0,2.44 L0,-2.44 " class="primitive"/>
    </g>
    <g transform="translate(35.61,69.09)" stroke="#FE11F9">
      <path fill="none" d="M-1.48,0 L1.48,0 " class="primitive"/>
    </g>
    <g transform="translate(37.09,69.09)" stroke="#FE11F9">
      <path fill="none" d="M0,2.44 L0,-2.44 " class="primitive"/>
    </g>
    <g transform="translate(32.54,66.66)" stroke="#6C7173">
      <path fill="none" d="M-1.59,0 L1.59,0 " class="primitive"/>
    </g>
    <g transform="translate(34.13,66.66)" stroke="#6C7173">
      <path fill="none" d="M0,2.44 L0,-2.44 " class="primitive"/>
    </g>
    <g transform="translate(30.43,64.22)" stroke="#FE11F9">
      <path fill="none" d="M-0.52,0 L0.52,0 " class="primitive"/>
    </g>
    <g transform="translate(30.95,64.22)" stroke="#FE11F9">
      <path fill="none" d="M0,2.44 L0,-2.44 " class="primitive"/>
    </g>
    <g transform="translate(29.71,61.78)" stroke="#FE11F9">
      <path fill="none" d="M-0.19,0 L0.19,0 " class="primitive"/>
    </g>
    <g transform="translate(29.9,61.78)" stroke="#FE11F9">
      <path fill="none" d="M0,2.44 L0,-2.44 " class="primitive"/>
    </g>
    <g transform="translate(27.29,59.34)" stroke="#6C7173">
      <path fill="none" d="M-2.22,0 L2.22,0 " class="primitive"/>
    </g>
    <g transform="translate(29.51,59.34)" stroke="#6C7173">
      <path fill="none" d="M0,2.44 L0,-2.44 " class="primitive"/>
    </g>
    <g transform="translate(24.9,56.91)" stroke="#FE11F9">
      <path fill="none" d="M-0.17,0 L0.17,0 " class="primitive"/>
    </g>
  </g>
</g>
<g fill-opacity="1" id="img-29b4c979-4">
  <g transform="translate(8.88,5.73)" fill="#FE11F9">
    <circle cx="0" cy="0" r="0.75" class="primitive"/>
  </g>
  <g transform="translate(3.78,8.16)" fill="#FE11F9">
    <circle cx="0" cy="0" r="0.75" class="primitive"/>
  </g>
  <g transform="translate(9.37,10.6)" fill="#FE11F9">
    <circle cx="0" cy="0" r="0.75" class="primitive"/>
  </g>
  <g transform="translate(10.37,13.04)" fill="#FE11F9">
    <circle cx="0" cy="0" r="0.75" class="primitive"/>
  </g>
  <g transform="translate(9.35,15.48)" fill="#FE11F9">
    <circle cx="0" cy="0" r="0.75" class="primitive"/>
  </g>
  <g transform="translate(9.23,17.91)" fill="#FE11F9">
    <circle cx="0" cy="0" r="0.75" class="primitive"/>
  </g>
  <g transform="translate(11.07,20.35)" fill="#FE11F9">
    <circle cx="0" cy="0" r="0.75" class="primitive"/>
  </g>
  <g transform="translate(11.26,22.79)" fill="#FE11F9">
    <circle cx="0" cy="0" r="0.75" class="primitive"/>
  </g>
  <g transform="translate(12.15,25.22)" fill="#FE11F9">
    <circle cx="0" cy="0" r="0.75" class="primitive"/>
  </g>
  <g transform="translate(12.57,27.66)" fill="#FE11F9">
    <circle cx="0" cy="0" r="0.75" class="primitive"/>
  </g>
  <g transform="translate(14.14,30.1)" fill="#FE11F9">
    <circle cx="0" cy="0" r="0.75" class="primitive"/>
  </g>
  <g transform="translate(13.68,32.54)" fill="#FE11F9">
    <circle cx="0" cy="0" r="0.75" class="primitive"/>
  </g>
  <g transform="translate(14.76,34.97)" fill="#FE11F9">
    <circle cx="0" cy="0" r="0.75" class="primitive"/>
  </g>
  <g transform="translate(20.49,37.41)" fill="#6C7173">
    <circle cx="0" cy="0" r="0.75" class="primitive"/>
  </g>
  <g transform="translate(24.56,39.85)" fill="#6C7173">
    <circle cx="0" cy="0" r="0.75" class="primitive"/>
  </g>
  <g transform="translate(23.2,42.28)" fill="#FE11F9">
    <circle cx="0" cy="0" r="0.75" class="primitive"/>
  </g>
  <g transform="translate(23.84,44.72)" fill="#FE11F9">
    <circle cx="0" cy="0" r="0.75" class="primitive"/>
  </g>
  <g transform="translate(26.14,47.16)" fill="#FE11F9">
    <circle cx="0" cy="0" r="0.75" class="primitive"/>
  </g>
  <g transform="translate(24.62,49.6)" fill="#FE11F9">
    <circle cx="0" cy="0" r="0.75" class="primitive"/>
  </g>
  <g transform="translate(24.84,52.03)" fill="#FE11F9">
    <circle cx="0" cy="0" r="0.75" class="primitive"/>
  </g>
  <g transform="translate(25.96,54.47)" fill="#FE11F9">
    <circle cx="0" cy="0" r="0.75" class="primitive"/>
  </g>
  <g transform="translate(31.23,56.91)" fill="#FE11F9">
    <circle cx="0" cy="0" r="0.75" class="primitive"/>
  </g>
  <g transform="translate(30.67,59.34)" fill="#6C7173">
    <circle cx="0" cy="0" r="0.75" class="primitive"/>
  </g>
  <g transform="translate(31.8,61.78)" fill="#FE11F9">
    <circle cx="0" cy="0" r="0.75" class="primitive"/>
  </g>
  <g transform="translate(34.18,64.22)" fill="#FE11F9">
    <circle cx="0" cy="0" r="0.75" class="primitive"/>
  </g>
  <g transform="translate(40.56,66.66)" fill="#FE11F9">
    <circle cx="0" cy="0" r="0.75" class="primitive"/>
  </g>
  <g transform="translate(41.49,69.09)" fill="#FE11F9">
    <circle cx="0" cy="0" r="0.75" class="primitive"/>
  </g>
  <g transform="translate(44.63,71.53)" fill="#FE11F9">
    <circle cx="0" cy="0" r="0.75" class="primitive"/>
  </g>
  <g transform="translate(47.98,73.97)" fill="#FE11F9">
    <circle cx="0" cy="0" r="0.75" class="primitive"/>
  </g>
  <g transform="translate(51.91,76.4)" fill="#FE11F9">
    <circle cx="0" cy="0" r="0.75" class="primitive"/>
  </g>
  <g transform="translate(55.57,78.84)" fill="#FE11F9">
    <circle cx="0" cy="0" r="0.75" class="primitive"/>
  </g>
  <g transform="translate(57.09,81.28)" fill="#6C7173">
    <circle cx="0" cy="0" r="0.75" class="primitive"/>
  </g>
  <g transform="translate(56.97,83.72)" fill="#FE11F9">
    <circle cx="0" cy="0" r="0.75" class="primitive"/>
  </g>
  <g transform="translate(57.68,86.15)" fill="#FE11F9">
    <circle cx="0" cy="0" r="0.75" class="primitive"/>
  </g>
  <g transform="translate(60.78,88.59)" fill="#FE11F9">
    <circle cx="0" cy="0" r="0.75" class="primitive"/>
  </g>
  <g transform="translate(60.02,91.03)" fill="#FE11F9">
    <circle cx="0" cy="0" r="0.75" class="primitive"/>
  </g>
  <g transform="translate(68.37,93.46)" fill="#FE11F9">
    <circle cx="0" cy="0" r="0.75" class="primitive"/>
  </g>
  <g transform="translate(64.97,95.9)" fill="#FE11F9">
    <circle cx="0" cy="0" r="0.75" class="primitive"/>
  </g>
  <g transform="translate(67.12,98.34)" fill="#FE11F9">
    <circle cx="0" cy="0" r="0.75" class="primitive"/>
  </g>
  <g transform="translate(68.72,100.78)" fill="#FE11F9">
    <circle cx="0" cy="0" r="0.75" class="primitive"/>
  </g>
  <g transform="translate(71.83,103.21)" fill="#6C7173">
    <circle cx="0" cy="0" r="0.75" class="primitive"/>
  </g>
  <g transform="translate(72.77,105.65)" fill="#FE11F9">
    <circle cx="0" cy="0" r="0.75" class="primitive"/>
  </g>
  <g transform="translate(74.63,108.09)" fill="#FE11F9">
    <circle cx="0" cy="0" r="0.75" class="primitive"/>
  </g>
  <g transform="translate(77.28,110.52)" fill="#FE11F9">
    <circle cx="0" cy="0" r="0.75" class="primitive"/>
  </g>
  <g transform="translate(75.87,112.96)" fill="#FE11F9">
    <circle cx="0" cy="0" r="0.75" class="primitive"/>
  </g>
  <g transform="translate(78.75,115.4)" fill="#6C7173">
    <circle cx="0" cy="0" r="0.75" class="primitive"/>
  </g>
  <g transform="translate(77.25,117.84)" fill="#FE11F9">
    <circle cx="0" cy="0" r="0.75" class="primitive"/>
  </g>
  <g transform="translate(77.11,120.27)" fill="#FE11F9">
    <circle cx="0" cy="0" r="0.75" class="primitive"/>
  </g>
  <g transform="translate(76.81,119.05)" fill="#FE11F9">
    <circle cx="0" cy="0" r="0.75" class="primitive"/>
  </g>
  <g transform="translate(76.72,117.23)" fill="#FE11F9">
    <circle cx="0" cy="0" r="0.75" class="primitive"/>
  </g>
  <g transform="translate(75.7,115.09)" fill="#FE11F9">
    <circle cx="0" cy="0" r="0.75" class="primitive"/>
  </g>
  <g fill-opacity="1" id="img-29b4c979-5">
    <g transform="translate(75.7,115.09)" fill="#FE11F9">
      <circle cx="0" cy="0" r="0.75" class="primitive"/>
    </g>
    <g transform="translate(74.11,112.81)" fill="#FE11F9">
      <circle cx="0" cy="0" r="0.75" class="primitive"/>
    </g>
    <g transform="translate(73.95,110.45)" fill="#FE11F9">
      <circle cx="0" cy="0" r="0.75" class="primitive"/>
    </g>
    <g transform="translate(72.74,108.05)" fill="#FE11F9">
      <circle cx="0" cy="0" r="0.75" class="primitive"/>
    </g>
    <g transform="translate(69.67,105.63)" fill="#FE11F9">
      <circle cx="0" cy="0" r="0.75" class="primitive"/>
    </g>
    <g transform="translate(67.08,103.2)" fill="#FE11F9">
      <circle cx="0" cy="0" r="0.75" class="primitive"/>
    </g>
    <g transform="translate(64.83,100.77)" fill="#FE11F9">
      <circle cx="0" cy="0" r="0.75" class="primitive"/>
    </g>
    <g transform="translate(64.83,98.34)" fill="#FE11F9">
      <circle cx="0" cy="0" r="0.75" class="primitive"/>
    </g>
    <g transform="translate(63.7,95.9)" fill="#FE11F9">
      <circle cx="0" cy="0" r="0.75" class="primitive"/>
    </g>
    <g transform="translate(59.09,93.46)" fill="#6C7173">
      <circle cx="0" cy="0" r="0.75" class="primitive"/>
    </g>
    <g transform="translate(57.81,91.03)" fill="#FE11F9">
      <circle cx="0" cy="0" r="0.75" class="primitive"/>
    </g>
    <g transform="translate(57.2,88.59)" fill="#FE11F9">
      <circle cx="0" cy="0" r="0.75" class="primitive"/>
    </g>
    <g transform="translate(56.89,86.15)" fill="#6C7173">
      <circle cx="0" cy="0" r="0.75" class="primitive"/>
    </g>
    <g transform="translate(55.69,83.72)" fill="#FE11F9">
      <circle cx="0" cy="0" r="0.75" class="primitive"/>
    </g>
    <g transform="translate(55.46,81.28)" fill="#FE11F9">
      <circle cx="0" cy="0" r="0.75" class="primitive"/>
    </g>
    <g transform="translate(51.89,78.84)" fill="#6C7173">
      <circle cx="0" cy="0" r="0.75" class="primitive"/>
    </g>
    <g transform="translate(47.97,76.4)" fill="#6C7173">
      <circle cx="0" cy="0" r="0.75" class="primitive"/>
    </g>
    <g transform="translate(44.19,73.97)" fill="#FE11F9">
      <circle cx="0" cy="0" r="0.75" class="primitive"/>
    </g>
    <g transform="translate(41.29,71.53)" fill="#FE11F9">
      <circle cx="0" cy="0" r="0.75" class="primitive"/>
    </g>
    <g transform="translate(37.09,69.09)" fill="#FE11F9">
      <circle cx="0" cy="0" r="0.75" class="primitive"/>
    </g>
    <g transform="translate(34.13,66.66)" fill="#6C7173">
      <circle cx="0" cy="0" r="0.75" class="primitive"/>
    </g>
    <g transform="translate(30.95,64.22)" fill="#FE11F9">
      <circle cx="0" cy="0" r="0.75" class="primitive"/>
    </g>
    <g transform="translate(29.9,61.78)" fill="#FE11F9">
      <circle cx="0" cy="0" r="0.75" class="primitive"/>
    </g>
    <g transform="translate(29.51,59.34)" fill="#6C7173">
      <circle cx="0" cy="0" r="0.75" class="primitive"/>
    </g>
    <g transform="translate(25.07,56.91)" fill="#FE11F9">
      <circle cx="0" cy="0" r="0.75" class="primitive"/>
    </g>
    <g transform="translate(24.72,54.47)" fill="#6C7173">
      <circle cx="0" cy="0" r="0.75" class="primitive"/>
    </g>
    <g transform="translate(24.39,52.03)" fill="#6C7173">
      <circle cx="0" cy="0" r="0.75" class="primitive"/>
    </g>
    <g transform="translate(24.26,49.6)" fill="#6C7173">
      <circle cx="0" cy="0" r="0.75" class="primitive"/>
    </g>
    <g transform="translate(23.82,47.16)" fill="#FE11F9">
      <circle cx="0" cy="0" r="0.75" class="primitive"/>
    </g>
    <g transform="translate(22.78,44.72)" fill="#FE11F9">
      <circle cx="0" cy="0" r="0.75" class="primitive"/>
    </g>
    <g transform="translate(21.94,42.28)" fill="#FE11F9">
      <circle cx="0" cy="0" r="0.75" class="primitive"/>
    </g>
    <g transform="translate(19.72,39.85)" fill="#6C7173">
      <circle cx="0" cy="0" r="0.75" class="primitive"/>
    </g>
    <g transform="translate(13.66,37.41)" fill="#FE11F9">
      <circle cx="0" cy="0" r="0.75" class="primitive"/>
    </g>
    <g transform="translate(13.59,34.97)" fill="#FE11F9">
      <circle cx="0" cy="0" r="0.75" class="primitive"/>
    </g>
    <g transform="translate(12.59,32.54)" fill="#FE11F9">
      <circle cx="0" cy="0" r="0.75" class="primitive"/>
    </g>
    <g transform="translate(12.2,30.1)" fill="#FE11F9">
      <circle cx="0" cy="0" r="0.75" class="primitive"/>
    </g>
    <g transform="translate(10.93,27.66)" fill="#FE11F9">
      <circle cx="0" cy="0" r="0.75" class="primitive"/>
    </g>
    <g transform="translate(10.42,25.22)" fill="#FE11F9">
      <circle cx="0" cy="0" r="0.75" class="primitive"/>
    </g>
    <g transform="translate(10.16,22.79)" fill="#6C7173">
      <circle cx="0" cy="0" r="0.75" class="primitive"/>
    </g>
    <g transform="translate(8.94,20.35)" fill="#FE11F9">
      <circle cx="0" cy="0" r="0.75" class="primitive"/>
    </g>
    <g transform="translate(8.78,17.91)" fill="#FE11F9">
      <circle cx="0" cy="0" r="0.75" class="primitive"/>
    </g>
    <g transform="translate(7.61,15.48)" fill="#FE11F9">
      <circle cx="0" cy="0" r="0.75" class="primitive"/>
    </g>
    <g transform="translate(7.05,13.04)" fill="#FE11F9">
      <circle cx="0" cy="0" r="0.75" class="primitive"/>
    </g>
    <g transform="translate(3.75,10.6)" fill="#000000">
      <circle cx="0" cy="0" r="0.75" class="primitive"/>
    </g>
    <g transform="translate(3.75,8.16)" fill="#000000">
      <circle cx="0" cy="0" r="0.75" class="primitive"/>
    </g>
  </g>
</g>
<g stroke-opacity="1" fill-opacity="1" font-size="1.41" stroke-width="0.1" id="img-29b4c979-6">
  <g transform="translate(10.76,5.73)" stroke="#000000">
    <g class="primitive">
      <text dy="0.35em">N47</text>
    </g>
  </g>
  <g transform="translate(5.66,8.16)" stroke="#000000">
    <g class="primitive">
      <text dy="0.35em">N46</text>
    </g>
  </g>
  <g transform="translate(11.24,10.6)" stroke="#000000">
    <g class="primitive">
      <text dy="0.35em">N45</text>
    </g>
  </g>
  <g transform="translate(12.24,13.04)" stroke="#000000">
    <g class="primitive">
      <text dy="0.35em">N44</text>
    </g>
  </g>
  <g transform="translate(11.22,15.48)" stroke="#000000">
    <g class="primitive">
      <text dy="0.35em">N43</text>
    </g>
  </g>
  <g transform="translate(11.1,17.91)" stroke="#000000">
    <g class="primitive">
      <text dy="0.35em">N42</text>
    </g>
  </g>
  <g transform="translate(12.95,20.35)" stroke="#000000">
    <g class="primitive">
      <text dy="0.35em">N41</text>
    </g>
  </g>
  <g transform="translate(13.14,22.79)" stroke="#000000">
    <g class="primitive">
      <text dy="0.35em">N40</text>
    </g>
  </g>
  <g transform="translate(14.02,25.22)" stroke="#000000">
    <g class="primitive">
      <text dy="0.35em">N39</text>
    </g>
  </g>
  <g transform="translate(14.45,27.66)" stroke="#000000">
    <g class="primitive">
      <text dy="0.35em">N38</text>
    </g>
  </g>
  <g transform="translate(16.01,30.1)" stroke="#000000">
    <g class="primitive">
      <text dy="0.35em">N37</text>
    </g>
  </g>
  <g transform="translate(15.56,32.54)" stroke="#000000">
    <g class="primitive">
      <text dy="0.35em">N36</text>
    </g>
  </g>
  <g transform="translate(16.63,34.97)" stroke="#000000">
    <g class="primitive">
      <text dy="0.35em">N35</text>
    </g>
  </g>
  <g transform="translate(22.37,37.41)" stroke="#000000">
    <g class="primitive">
      <text dy="0.35em">N34</text>
    </g>
  </g>
  <g transform="translate(26.44,39.85)" stroke="#000000">
    <g class="primitive">
      <text dy="0.35em">N33</text>
    </g>
  </g>
  <g transform="translate(25.07,42.28)" stroke="#000000">
    <g class="primitive">
      <text dy="0.35em">N32</text>
    </g>
  </g>
  <g transform="translate(25.72,44.72)" stroke="#000000">
    <g class="primitive">
      <text dy="0.35em">N31</text>
    </g>
  </g>
  <g transform="translate(28.02,47.16)" stroke="#000000">
    <g class="primitive">
      <text dy="0.35em">N30</text>
    </g>
  </g>
  <g transform="translate(26.49,49.6)" stroke="#000000">
    <g class="primitive">
      <text dy="0.35em">N29</text>
    </g>
  </g>
  <g transform="translate(26.72,52.03)" stroke="#000000">
    <g class="primitive">
      <text dy="0.35em">N28</text>
    </g>
  </g>
  <g transform="translate(27.83,54.47)" stroke="#000000">
    <g class="primitive">
      <text dy="0.35em">N27</text>
    </g>
  </g>
  <g transform="translate(33.11,56.91)" stroke="#000000">
    <g class="primitive">
      <text dy="0.35em">N26</text>
    </g>
  </g>
  <g transform="translate(32.54,59.34)" stroke="#000000">
    <g class="primitive">
      <text dy="0.35em">N25</text>
    </g>
  </g>
  <g transform="translate(33.67,61.78)" stroke="#000000">
    <g class="primitive">
      <text dy="0.35em">N24</text>
    </g>
  </g>
  <g transform="translate(36.06,64.22)" stroke="#000000">
    <g class="primitive">
      <text dy="0.35em">N23</text>
    </g>
  </g>
  <g transform="translate(42.44,66.66)" stroke="#000000">
    <g class="primitive">
      <text dy="0.35em">N22</text>
    </g>
  </g>
  <g transform="translate(43.37,69.09)" stroke="#000000">
    <g class="primitive">
      <text dy="0.35em">N21</text>
    </g>
  </g>
  <g transform="translate(46.51,71.53)" stroke="#000000">
    <g class="primitive">
      <text dy="0.35em">N20</text>
    </g>
  </g>
  <g transform="translate(49.85,73.97)" stroke="#000000">
    <g class="primitive">
      <text dy="0.35em">N19</text>
    </g>
  </g>
  <g transform="translate(53.79,76.4)" stroke="#000000">
    <g class="primitive">
      <text dy="0.35em">N18</text>
    </g>
  </g>
  <g transform="translate(57.45,78.84)" stroke="#000000">
    <g class="primitive">
      <text dy="0.35em">N17</text>
    </g>
  </g>
  <g transform="translate(58.96,81.28)" stroke="#000000">
    <g class="primitive">
      <text dy="0.35em">N16</text>
    </g>
  </g>
  <g transform="translate(58.85,83.72)" stroke="#000000">
    <g class="primitive">
      <text dy="0.35em">N15</text>
    </g>
  </g>
  <g transform="translate(59.56,86.15)" stroke="#000000">
    <g class="primitive">
      <text dy="0.35em">N14</text>
    </g>
  </g>
  <g transform="translate(62.66,88.59)" stroke="#000000">
    <g class="primitive">
      <text dy="0.35em">N13</text>
    </g>
  </g>
  <g transform="translate(61.89,91.03)" stroke="#000000">
    <g class="primitive">
      <text dy="0.35em">N12</text>
    </g>
  </g>
  <g transform="translate(70.24,93.46)" stroke="#000000">
    <g class="primitive">
      <text dy="0.35em">N11</text>
    </g>
  </g>
  <g transform="translate(66.84,95.9)" stroke="#000000">
    <g class="primitive">
      <text dy="0.35em">N10</text>
    </g>
  </g>
  <g transform="translate(68.99,98.34)" stroke="#000000">
    <g class="primitive">
      <text dy="0.35em">N9</text>
    </g>
  </g>
  <g transform="translate(70.59,100.78)" stroke="#000000">
    <g class="primitive">
      <text dy="0.35em">N8</text>
    </g>
  </g>
  <g transform="translate(73.7,103.21)" stroke="#000000">
    <g class="primitive">
      <text dy="0.35em">N7</text>
    </g>
  </g>
  <g transform="translate(74.65,105.65)" stroke="#000000">
    <g class="primitive">
      <text dy="0.35em">N6</text>
    </g>
  </g>
  <g transform="translate(76.5,108.09)" stroke="#000000">
    <g class="primitive">
      <text dy="0.35em">N5</text>
    </g>
  </g>
  <g transform="translate(79.16,110.52)" stroke="#000000">
    <g class="primitive">
      <text dy="0.35em">N4</text>
    </g>
  </g>
  <g transform="translate(77.74,112.96)" stroke="#000000">
    <g class="primitive">
      <text dy="0.35em">N3</text>
    </g>
  </g>
  <g transform="translate(80.62,115.4)" stroke="#000000">
    <g class="primitive">
      <text dy="0.35em">N2</text>
    </g>
  </g>
  <g transform="translate(79.12,117.84)" stroke="#000000">
    <g class="primitive">
      <text dy="0.35em">N0</text>
    </g>
  </g>
  <g transform="translate(78.99,120.27)" stroke="#000000">
    <g class="primitive">
      <text dy="0.35em">N1</text>
    </g>
  </g>
  <g transform="translate(78.68,119.05)" stroke="#000000">
    <g class="primitive">
      <text dy="0.35em">N48</text>
    </g>
  </g>
  <g transform="translate(78.6,117.23)" stroke="#000000">
    <g class="primitive">
      <text dy="0.35em">N49</text>
    </g>
  </g>
  <g transform="translate(77.58,115.09)" stroke="#000000">
    <g class="primitive">
      <text dy="0.35em">N50</text>
    </g>
  </g>
  <g stroke-opacity="1" fill-opacity="1" font-size="1.41" stroke-width="0.1" id="img-29b4c979-7">
    <g transform="translate(77.58,115.09)" stroke="#000000">
      <g class="primitive">
        <text dy="0.35em">N50</text>
      </g>
    </g>
    <g transform="translate(75.98,112.81)" stroke="#000000">
      <g class="primitive">
        <text dy="0.35em">N51</text>
      </g>
    </g>
    <g transform="translate(75.82,110.45)" stroke="#000000">
      <g class="primitive">
        <text dy="0.35em">N52</text>
      </g>
    </g>
    <g transform="translate(74.61,108.05)" stroke="#000000">
      <g class="primitive">
        <text dy="0.35em">N53</text>
      </g>
    </g>
    <g transform="translate(71.55,105.63)" stroke="#000000">
      <g class="primitive">
        <text dy="0.35em">N54</text>
      </g>
    </g>
    <g transform="translate(68.95,103.2)" stroke="#000000">
      <g class="primitive">
        <text dy="0.35em">N55</text>
      </g>
    </g>
    <g transform="translate(66.7,100.77)" stroke="#000000">
      <g class="primitive">
        <text dy="0.35em">N56</text>
      </g>
    </g>
    <g transform="translate(66.7,98.34)" stroke="#000000">
      <g class="primitive">
        <text dy="0.35em">N57</text>
      </g>
    </g>
    <g transform="translate(65.58,95.9)" stroke="#000000">
      <g class="primitive">
        <text dy="0.35em">N58</text>
      </g>
    </g>
    <g transform="translate(60.96,93.46)" stroke="#000000">
      <g class="primitive">
        <text dy="0.35em">N59</text>
      </g>
    </g>
    <g transform="translate(59.68,91.03)" stroke="#000000">
      <g class="primitive">
        <text dy="0.35em">N60</text>
      </g>
    </g>
    <g transform="translate(59.08,88.59)" stroke="#000000">
      <g class="primitive">
        <text dy="0.35em">N61</text>
      </g>
    </g>
    <g transform="translate(58.77,86.15)" stroke="#000000">
      <g class="primitive">
        <text dy="0.35em">N62</text>
      </g>
    </g>
    <g transform="translate(57.56,83.72)" stroke="#000000">
      <g class="primitive">
        <text dy="0.35em">N63</text>
      </g>
    </g>
    <g transform="translate(57.33,81.28)" stroke="#000000">
      <g class="primitive">
        <text dy="0.35em">N64</text>
      </g>
    </g>
    <g transform="translate(53.76,78.84)" stroke="#000000">
      <g class="primitive">
        <text dy="0.35em">N65</text>
      </g>
    </g>
    <g transform="translate(49.85,76.4)" stroke="#000000">
      <g class="primitive">
        <text dy="0.35em">N66</text>
      </g>
    </g>
    <g transform="translate(46.06,73.97)" stroke="#000000">
      <g class="primitive">
        <text dy="0.35em">N67</text>
      </g>
    </g>
    <g transform="translate(43.17,71.53)" stroke="#000000">
      <g class="primitive">
        <text dy="0.35em">N68</text>
      </g>
    </g>
    <g transform="translate(38.96,69.09)" stroke="#000000">
      <g class="primitive">
        <text dy="0.35em">N69</text>
      </g>
    </g>
    <g transform="translate(36.01,66.66)" stroke="#000000">
      <g class="primitive">
        <text dy="0.35em">N70</text>
      </g>
    </g>
    <g transform="translate(32.83,64.22)" stroke="#000000">
      <g class="primitive">
        <text dy="0.35em">N71</text>
      </g>
    </g>
    <g transform="translate(31.78,61.78)" stroke="#000000">
      <g class="primitive">
        <text dy="0.35em">N72</text>
      </g>
    </g>
    <g transform="translate(31.39,59.34)" stroke="#000000">
      <g class="primitive">
        <text dy="0.35em">N73</text>
      </g>
    </g>
    <g transform="translate(26.94,56.91)" stroke="#000000">
      <g class="primitive">
        <text dy="0.35em">N74</text>
      </g>
    </g>
    <g transform="translate(26.6,54.47)" stroke="#000000">
      <g class="primitive">
        <text dy="0.35em">N75</text>
      </g>
    </g>
    <g transform="translate(26.27,52.03)" stroke="#000000">
      <g class="primitive">
        <text dy="0.35em">N76</text>
      </g>
    </g>
    <g transform="translate(26.14,49.6)" stroke="#000000">
      <g class="primitive">
        <text dy="0.35em">N77</text>
      </g>
    </g>
    <g transform="translate(25.7,47.16)" stroke="#000000">
      <g class="primitive">
        <text dy="0.35em">N78</text>
      </g>
    </g>
    <g transform="translate(24.66,44.72)" stroke="#000000">
      <g class="primitive">
        <text dy="0.35em">N79</text>
      </g>
    </g>
    <g transform="translate(23.82,42.28)" stroke="#000000">
      <g class="primitive">
        <text dy="0.35em">N80</text>
      </g>
    </g>
    <g transform="translate(21.6,39.85)" stroke="#000000">
      <g class="primitive">
        <text dy="0.35em">N81</text>
      </g>
    </g>
    <g transform="translate(15.54,37.41)" stroke="#000000">
      <g class="primitive">
        <text dy="0.35em">N82</text>
      </g>
    </g>
    <g transform="translate(15.46,34.97)" stroke="#000000">
      <g class="primitive">
        <text dy="0.35em">N83</text>
      </g>
    </g>
    <g transform="translate(14.47,32.54)" stroke="#000000">
      <g class="primitive">
        <text dy="0.35em">N84</text>
      </g>
    </g>
    <g transform="translate(14.07,30.1)" stroke="#000000">
      <g class="primitive">
        <text dy="0.35em">N85</text>
      </g>
    </g>
    <g transform="translate(12.81,27.66)" stroke="#000000">
      <g class="primitive">
        <text dy="0.35em">N86</text>
      </g>
    </g>
    <g transform="translate(12.29,25.22)" stroke="#000000">
      <g class="primitive">
        <text dy="0.35em">N87</text>
      </g>
    </g>
    <g transform="translate(12.04,22.79)" stroke="#000000">
      <g class="primitive">
        <text dy="0.35em">N88</text>
      </g>
    </g>
    <g transform="translate(10.82,20.35)" stroke="#000000">
      <g class="primitive">
        <text dy="0.35em">N89</text>
      </g>
    </g>
    <g transform="translate(10.66,17.91)" stroke="#000000">
      <g class="primitive">
        <text dy="0.35em">N90</text>
      </g>
    </g>
    <g transform="translate(9.48,15.48)" stroke="#000000">
      <g class="primitive">
        <text dy="0.35em">N91</text>
      </g>
    </g>
    <g transform="translate(8.93,13.04)" stroke="#000000">
      <g class="primitive">
        <text dy="0.35em">N92</text>
      </g>
    </g>
    <g transform="translate(5.63,10.6)" stroke="#000000">
      <g class="primitive">
        <text dy="0.35em"></text>
      </g>
    </g>
    <g transform="translate(5.63,8.16)" stroke="#000000">
      <g class="primitive">
        <text dy="0.35em"></text>
      </g>
    </g>
  </g>
</g>
</svg>
