<?xml version="1.0" encoding="UTF-8"?>
<svg xmlns="http://www.w3.org/2000/svg"
     xmlns:xlink="http://www.w3.org/1999/xlink"
     version="1.2"
     width="150mm" height="108mm" viewBox="0 0 150 108"
     stroke="none"
     fill="#000000"
     stroke-width="0.3"
     font-size="3.88"
>
<defs>
  <marker id="arrow" markerWidth="15" markerHeight="7" refX="5" refY="3.5" orient="auto" markerUnits="strokeWidth">
    <path d="M0,0 L15,3.5 L0,7 z" stroke="context-stroke" fill="context-stroke"/>
  </marker>
</defs>
<g stroke-opacity="1" stroke-width="0.3" id="img-29b4c979-1">
  <g transform="translate(4.26,4.91)" stroke="#B8602B">
    <path fill="none" d="M-0.51,0 L0.51,0 " class="primitive"/>
  </g>
  <g transform="translate(44.65,7.49)" stroke="#7BCC60">
    <path fill="none" d="M-1.55,0 L1.55,0 " class="primitive"/>
  </g>
  <g transform="translate(56.84,10.08)" stroke="#B8602B">
    <path fill="none" d="M-13.74,0 L13.74,0 " class="primitive"/>
  </g>
  <g transform="translate(41.71,8.78)" stroke="#7BCC60">
    <path fill="none" d="M-1.38,0 L1.38,0 " class="primitive"/>
  </g>
  <g transform="translate(43.1,8.78)" stroke="#7BCC60">
    <path fill="none" d="M0,1.29 L0,-1.29 " class="primitive"/>
  </g>
  <g transform="translate(47.42,12.66)" stroke="#7BCC60">
    <path fill="none" d="M-0.23,0 L0.23,0 " class="primitive"/>
  </g>
  <g transform="translate(52.82,15.24)" stroke="#7BCC60">
    <path fill="none" d="M-5.63,0 L5.63,0 " class="primitive"/>
  </g>
  <g transform="translate(43.76,13.95)" stroke="#B8602B">
    <path fill="none" d="M-3.43,0 L3.43,0 " class="primitive"/>
  </g>
  <g transform="translate(47.19,13.95)" stroke="#B8602B">
    <path fill="none" d="M0,1.29 L0,-1.29 " class="primitive"/>
  </g>
  <g transform="translate(37.2,11.37)" stroke="#7BCC60">
    <path fill="none" d="M-3.12,0 L3.12,0 " class="primitive"/>
  </g>
  <g transform="translate(40.33,11.37)" stroke="#7BCC60">
    <path fill="none" d="M0,2.58 L0,-2.58 " class="primitive"/>
  </g>
  <g transform="translate(41.38,17.83)" stroke="#B8602B">
    <path fill="none" d="M-4.6,0 L4.6,0 " class="primitive"/>
  </g>
  <g transform="translate(46.19,20.41)" stroke="#7BCC60">
    <path fill="none" d="M-9.42,0 L9.42,0 " class="primitive"/>
  </g>
  <g transform="translate(36.33,19.12)" stroke="#7BCC60">
    <path fill="none" d="M-0.44,0 L0.44,0 " class="primitive"/>
  </g>
  <g transform="translate(36.77,19.12)" stroke="#7BCC60">
    <path fill="none" d="M0,1.29 L0,-1.29 " class="primitive"/>
  </g>
  <g transform="translate(53.59,23)" stroke="#7BCC60">
    <path fill="none" d="M-5.06,0 L5.06,0 " class="primitive"/>
  </g>
  <g transform="translate(49.35,25.58)" stroke="#7BCC60">
    <path fill="none" d="M-0.82,0 L0.82,0 " class="primitive"/>
  </g>
  <g transform="translate(42.21,24.29)" stroke="#7BCC60">
    <path fill="none" d="M-6.32,0 L6.32,0 " class="primitive"/>
  </g>
  <g transform="translate(48.53,24.29)" stroke="#7BCC60">
    <path fill="none" d="M0,1.29 L0,-1.29 " class="primitive"/>
  </g>
  <g transform="translate(34.99,21.7)" stroke="#7BCC60">
    <path fill="none" d="M-0.91,0 L0.91,0 " class="primitive"/>
  </g>
  <g transform="translate(35.9,21.7)" stroke="#7BCC60">
    <path fill="none" d="M0,2.58 L0,-2.58 " class="primitive"/>
  </g>
  <g transform="translate(24.22,16.54)" stroke="#7BCC60">
    <path fill="none" d="M-9.86,0 L9.86,0 " class="primitive"/>
  </g>
  <g transform="translate(34.08,16.54)" stroke="#7BCC60">
    <path fill="none" d="M0,5.17 L0,-5.17 " class="primitive"/>
  </g>
  <g transform="translate(43.58,28.16)" stroke="#B8602B">
    <path fill="none" d="M-5.65,0 L5.65,0 " class="primitive"/>
  </g>
  <g transform="translate(39.99,30.75)" stroke="#7BCC60">
    <path fill="none" d="M-2.06,0 L2.06,0 " class="primitive"/>
  </g>
  <g transform="translate(33.93,29.45)" stroke="#7BCC60">
    <path fill="none" d="M-4,0 L4,0 " class="primitive"/>
  </g>
  <g transform="translate(37.93,29.45)" stroke="#7BCC60">
    <path fill="none" d="M0,1.29 L0,-1.29 " class="primitive"/>
  </g>
  <g transform="translate(48.12,33.33)" stroke="#7BCC60">
    <path fill="none" d="M-8.05,0 L8.05,0 " class="primitive"/>
  </g>
  <g transform="translate(43.58,35.91)" stroke="#B8602B">
    <path fill="none" d="M-3.51,0 L3.51,0 " class="primitive"/>
  </g>
  <g transform="translate(35,34.62)" stroke="#7BCC60">
    <path fill="none" d="M-5.07,0 L5.07,0 " class="primitive"/>
  </g>
  <g transform="translate(40.07,34.62)" stroke="#7BCC60">
    <path fill="none" d="M0,1.29 L0,-1.29 " class="primitive"/>
  </g>
  <g transform="translate(28.82,32.04)" stroke="#7BCC60">
    <path fill="none" d="M-1.11,0 L1.11,0 " class="primitive"/>
  </g>
  <g transform="translate(29.93,32.04)" stroke="#7BCC60">
    <path fill="none" d="M0,2.58 L0,-2.58 " class="primitive"/>
  </g>
  <g transform="translate(54.92,38.5)" stroke="#B8602B">
    <path fill="none" d="M-19.74,0 L19.74,0 " class="primitive"/>
  </g>
  <g transform="translate(37.5,41.08)" stroke="#7BCC60">
    <path fill="none" d="M-2.33,0 L2.33,0 " class="primitive"/>
  </g>
  <g transform="translate(32.56,39.79)" stroke="#B8602B">
    <path fill="none" d="M-2.61,0 L2.61,0 " class="primitive"/>
  </g>
  <g transform="translate(35.17,39.79)" stroke="#B8602B">
    <path fill="none" d="M0,1.29 L0,-1.29 " class="primitive"/>
  </g>
  <g transform="translate(49.5,43.67)" stroke="#7BCC60">
    <path fill="none" d="M-4.47,0 L4.47,0 " class="primitive"/>
  </g>
  <g transform="translate(45.12,46.25)" stroke="#7BCC60">
    <path fill="none" d="M-0.09,0 L0.09,0 " class="primitive"/>
  </g>
  <g transform="translate(37.49,44.96)" stroke="#7BCC60">
    <path fill="none" d="M-7.54,0 L7.54,0 " class="primitive"/>
  </g>
  <g transform="translate(45.03,44.96)" stroke="#7BCC60">
    <path fill="none" d="M0,1.29 L0,-1.29 " class="primitive"/>
  </g>
  <g transform="translate(28.83,42.37)" stroke="#B8602B">
    <path fill="none" d="M-1.12,0 L1.12,0 " class="primitive"/>
  </g>
  <g transform="translate(29.95,42.37)" stroke="#B8602B">
    <path fill="none" d="M0,2.58 L0,-2.58 " class="primitive"/>
  </g>
  <g transform="translate(21.03,37.21)" stroke="#B8602B">
    <path fill="none" d="M-6.68,0 L6.68,0 " class="primitive"/>
  </g>
  <g transform="translate(27.71,37.21)" stroke="#B8602B">
    <path fill="none" d="M0,5.17 L0,-5.17 " class="primitive"/>
  </g>
  <g transform="translate(9.05,26.87)" stroke="#7BCC60">
    <path fill="none" d="M-5.3,0 L5.3,0 " class="primitive"/>
  </g>
  <g transform="translate(14.36,26.87)" stroke="#7BCC60">
    <path fill="none" d="M0,10.33 L0,-10.33 " class="primitive"/>
  </g>
  <g transform="translate(22.74,48.83)" stroke="#7BCC60">
    <path fill="none" d="M-0.37,0 L0.37,0 " class="primitive"/>
  </g>
  <g transform="translate(35.73,51.42)" stroke="#7BCC60">
    <path fill="none" d="M-13.36,0 L13.36,0 " class="primitive"/>
  </g>
  <g transform="translate(18.02,50.12)" stroke="#B8602B">
    <path fill="none" d="M-4.35,0 L4.35,0 " class="primitive"/>
  </g>
  <g transform="translate(22.37,50.12)" stroke="#B8602B">
    <path fill="none" d="M0,1.29 L0,-1.29 " class="primitive"/>
  </g>
  <g stroke-opacity="1" stroke-width="0.3" id="img-29b4c979-2">
    <g transform="translate(36.34,103.09)" stroke="#7BCC60">
      <path fill="none" d="M-3.64,0 L3.64,0 " class="primitive"/>
    </g>
    <g transform="translate(29.01,101.8)" stroke="#B8602B">
      <path fill="none" d="M-3.69,0 L3.69,0 " class="primitive"/>
    </g>
    <g transform="translate(32.7,101.8)" stroke="#B8602B">
      <path fill="none" d="M0,1.29 L0,-1.29 " class="primitive"/>
    </g>
    <g transform="translate(23.76,99.22)" stroke="#B8602B">
      <path fill="none" d="M-1.55,0 L1.55,0 " class="primitive"/>
    </g>
    <g transform="translate(25.31,99.22)" stroke="#B8602B">
      <path fill="none" d="M0,2.58 L0,-2.58 " class="primitive"/>
    </g>
    <g transform="translate(16.82,94.05)" stroke="#7BCC60">
      <path fill="none" d="M-5.39,0 L5.39,0 " class="primitive"/>
    </g>
    <g transform="translate(22.21,94.05)" stroke="#7BCC60">
      <path fill="none" d="M0,5.17 L0,-5.17 " class="primitive"/>
    </g>
    <g transform="translate(8.73,84.36)" stroke="#7BCC60">
      <path fill="none" d="M-2.7,0 L2.7,0 " class="primitive"/>
    </g>
    <g transform="translate(11.43,84.36)" stroke="#7BCC60">
      <path fill="none" d="M0,9.69 L0,-9.69 " class="primitive"/>
    </g>
    <g transform="translate(4.89,71.12)" stroke="#7BCC60">
      <path fill="none" d="M-1.14,0 L1.14,0 " class="primitive"/>
    </g>
    <g transform="translate(6.03,71.12)" stroke="#7BCC60">
      <path fill="none" d="M0,13.24 L0,-13.24 " class="primitive"/>
    </g>
    <g transform="translate(3.75,48.99)" stroke="#000000">
      <path fill="none" d="M0,0 L0,0 " class="primitive"/>
    </g>
    <g transform="translate(3.75,48.99)" stroke="#000000">
      <path fill="none" d="M0,22.12 L0,-22.12 " class="primitive"/>
    </g>
    <g transform="translate(3.75,26.95)" stroke="#000000">
      <path fill="none" d="M0,0 L0,0 " class="primitive"/>
    </g>
    <g transform="translate(3.75,26.95)" stroke="#000000">
      <path fill="none" d="M0,22.04 L0,-22.04 " class="primitive"/>
    </g>
  </g>
  <g stroke-opacity="1" stroke-width="0.3" id="img-29b4c979-3">
    <g transform="translate(22.37,50.12)" stroke="#B8602B">
      <path fill="none" d="M0,1.29 L0,-1.29 " class="primitive"/>
    </g>
    <g transform="translate(22.55,54)" stroke="#B8602B">
      <path fill="none" d="M-2.64,0 L2.64,0 " class="primitive"/>
    </g>
    <g transform="translate(24.74,56.58)" stroke="#B8602B">
      <path fill="none" d="M-4.82,0 L4.82,0 " class="primitive"/>
    </g>
    <g transform="translate(16.79,55.29)" stroke="#7BCC60">
      <path fill="none" d="M-3.13,0 L3.13,0 " class="primitive"/>
    </g>
    <g transform="translate(19.92,55.29)" stroke="#7BCC60">
      <path fill="none" d="M0,1.29 L0,-1.29 " class="primitive"/>
    </g>
    <g transform="translate(10,52.71)" stroke="#B8602B">
      <path fill="none" d="M-3.67,0 L3.67,0 " class="primitive"/>
    </g>
    <g transform="translate(13.66,52.71)" stroke="#B8602B">
      <path fill="none" d="M0,2.58 L0,-2.58 " class="primitive"/>
    </g>
    <g transform="translate(49.5,59.17)" stroke="#7BCC60">
      <path fill="none" d="M-20.14,0 L20.14,0 " class="primitive"/>
    </g>
    <g transform="translate(29.97,61.75)" stroke="#B8602B">
      <path fill="none" d="M-0.62,0 L0.62,0 " class="primitive"/>
    </g>
    <g transform="translate(26.01,60.46)" stroke="#7BCC60">
      <path fill="none" d="M-3.34,0 L3.34,0 " class="primitive"/>
    </g>
    <g transform="translate(29.36,60.46)" stroke="#7BCC60">
      <path fill="none" d="M0,1.29 L0,-1.29 " class="primitive"/>
    </g>
    <g transform="translate(27.09,64.33)" stroke="#7BCC60">
      <path fill="none" d="M-2.2,0 L2.2,0 " class="primitive"/>
    </g>
    <g transform="translate(25.66,66.92)" stroke="#7BCC60">
      <path fill="none" d="M-0.77,0 L0.77,0 " class="primitive"/>
    </g>
    <g transform="translate(23.78,65.63)" stroke="#B8602B">
      <path fill="none" d="M-1.11,0 L1.11,0 " class="primitive"/>
    </g>
    <g transform="translate(24.9,65.63)" stroke="#B8602B">
      <path fill="none" d="M0,1.29 L0,-1.29 " class="primitive"/>
    </g>
    <g transform="translate(14.5,63.04)" stroke="#B8602B">
      <path fill="none" d="M-8.17,0 L8.17,0 " class="primitive"/>
    </g>
    <g transform="translate(22.67,63.04)" stroke="#B8602B">
      <path fill="none" d="M0,2.58 L0,-2.58 " class="primitive"/>
    </g>
    <g transform="translate(6.18,57.88)" stroke="#7BCC60">
      <path fill="none" d="M-0.15,0 L0.15,0 " class="primitive"/>
    </g>
    <g transform="translate(6.33,57.88)" stroke="#7BCC60">
      <path fill="none" d="M0,5.17 L0,-5.17 " class="primitive"/>
    </g>
    <g transform="translate(32.62,69.5)" stroke="#B8602B">
      <path fill="none" d="M-5.03,0 L5.03,0 " class="primitive"/>
    </g>
    <g transform="translate(32.96,72.09)" stroke="#B8602B">
      <path fill="none" d="M-5.37,0 L5.37,0 " class="primitive"/>
    </g>
    <g transform="translate(27.28,70.79)" stroke="#B8602B">
      <path fill="none" d="M-0.31,0 L0.31,0 " class="primitive"/>
    </g>
    <g transform="translate(27.59,70.79)" stroke="#B8602B">
      <path fill="none" d="M0,1.29 L0,-1.29 " class="primitive"/>
    </g>
    <g transform="translate(42.1,74.67)" stroke="#7BCC60">
      <path fill="none" d="M-1.3,0 L1.3,0 " class="primitive"/>
    </g>
    <g transform="translate(42,77.25)" stroke="#B8602B">
      <path fill="none" d="M-1.2,0 L1.2,0 " class="primitive"/>
    </g>
    <g transform="translate(35.19,75.96)" stroke="#7BCC60">
      <path fill="none" d="M-5.61,0 L5.61,0 " class="primitive"/>
    </g>
    <g transform="translate(40.8,75.96)" stroke="#7BCC60">
      <path fill="none" d="M0,1.29 L0,-1.29 " class="primitive"/>
    </g>
    <g transform="translate(46.96,79.84)" stroke="#B8602B">
      <path fill="none" d="M-9.66,0 L9.66,0 " class="primitive"/>
    </g>
    <g transform="translate(41.27,82.42)" stroke="#7BCC60">
      <path fill="none" d="M-3.96,0 L3.96,0 " class="primitive"/>
    </g>
    <g transform="translate(33.45,81.13)" stroke="#7BCC60">
      <path fill="none" d="M-3.86,0 L3.86,0 " class="primitive"/>
    </g>
    <g transform="translate(37.31,81.13)" stroke="#7BCC60">
      <path fill="none" d="M0,1.29 L0,-1.29 " class="primitive"/>
    </g>
    <g transform="translate(28.27,78.55)" stroke="#B8602B">
      <path fill="none" d="M-1.31,0 L1.31,0 " class="primitive"/>
    </g>
    <g transform="translate(29.58,78.55)" stroke="#B8602B">
      <path fill="none" d="M0,2.58 L0,-2.58 " class="primitive"/>
    </g>
    <g transform="translate(19.2,74.67)" stroke="#B8602B">
      <path fill="none" d="M-7.76,0 L7.76,0 " class="primitive"/>
    </g>
    <g transform="translate(26.96,74.67)" stroke="#B8602B">
      <path fill="none" d="M0,3.88 L0,-3.88 " class="primitive"/>
    </g>
    <g transform="translate(58.59,85)" stroke="#7BCC60">
      <path fill="none" d="M-5.74,0 L5.74,0 " class="primitive"/>
    </g>
    <g transform="translate(56.49,87.59)" stroke="#7BCC60">
      <path fill="none" d="M-3.65,0 L3.65,0 " class="primitive"/>
    </g>
    <g transform="translate(50.7,86.3)" stroke="#B8602B">
      <path fill="none" d="M-2.15,0 L2.15,0 " class="primitive"/>
    </g>
    <g transform="translate(52.84,86.3)" stroke="#B8602B">
      <path fill="none" d="M0,1.29 L0,-1.29 " class="primitive"/>
    </g>
    <g transform="translate(76.07,90.17)" stroke="#7BCC60">
      <path fill="none" d="M-1.5,0 L1.5,0 " class="primitive"/>
    </g>
    <g transform="translate(76.66,92.76)" stroke="#7BCC60">
      <path fill="none" d="M-2.09,0 L2.09,0 " class="primitive"/>
    </g>
    <g transform="translate(61.56,91.46)" stroke="#B8602B">
      <path fill="none" d="M-13.01,0 L13.01,0 " class="primitive"/>
    </g>
    <g transform="translate(74.57,91.46)" stroke="#B8602B">
      <path fill="none" d="M0,1.29 L0,-1.29 " class="primitive"/>
    </g>
    <g transform="translate(35.38,88.88)" stroke="#7BCC60">
      <path fill="none" d="M-13.17,0 L13.17,0 " class="primitive"/>
    </g>
    <g transform="translate(48.55,88.88)" stroke="#7BCC60">
      <path fill="none" d="M0,2.58 L0,-2.58 " class="primitive"/>
    </g>
    <g transform="translate(36.34,95.34)" stroke="#7BCC60">
      <path fill="none" d="M-3.16,0 L3.16,0 " class="primitive"/>
    </g>
    <g transform="translate(33.92,97.92)" stroke="#7BCC60">
      <path fill="none" d="M-0.73,0 L0.73,0 " class="primitive"/>
    </g>
    <g transform="translate(29.25,96.63)" stroke="#B8602B">
      <path fill="none" d="M-3.94,0 L3.94,0 " class="primitive"/>
    </g>
    <g transform="translate(33.19,96.63)" stroke="#B8602B">
      <path fill="none" d="M0,1.29 L0,-1.29 " class="primitive"/>
    </g>
    <g transform="translate(39.96,100.51)" stroke="#7BCC60">
      <path fill="none" d="M-7.26,0 L7.26,0 " class="primitive"/>
    </g>
    <g transform="translate(36.34,103.09)" stroke="#7BCC60">
      <path fill="none" d="M-3.64,0 L3.64,0 " class="primitive"/>
    </g>
  </g>
</g>
<g fill-opacity="1" id="img-29b4c979-4">
  <g transform="translate(4.77,4.91)" fill="#B8602B">
    <circle cx="0" cy="0" r="0.75" class="primitive"/>
  </g>
  <g transform="translate(46.2,7.49)" fill="#7BCC60">
    <circle cx="0" cy="0" r="0.75" class="primitive"/>
  </g>
  <g transform="translate(70.59,10.08)" fill="#B8602B">
    <circle cx="0" cy="0" r="0.75" class="primitive"/>
  </g>
  <g transform="translate(43.1,8.78)" fill="#7BCC60">
    <circle cx="0" cy="0" r="0.75" class="primitive"/>
  </g>
  <g transform="translate(47.65,12.66)" fill="#7BCC60">
    <circle cx="0" cy="0" r="0.75" class="primitive"/>
  </g>
  <g transform="translate(58.45,15.24)" fill="#7BCC60">
    <circle cx="0" cy="0" r="0.75" class="primitive"/>
  </g>
  <g transform="translate(47.19,13.95)" fill="#B8602B">
    <circle cx="0" cy="0" r="0.75" class="primitive"/>
  </g>
  <g transform="translate(40.33,11.37)" fill="#7BCC60">
    <circle cx="0" cy="0" r="0.75" class="primitive"/>
  </g>
  <g transform="translate(45.98,17.83)" fill="#B8602B">
    <circle cx="0" cy="0" r="0.75" class="primitive"/>
  </g>
  <g transform="translate(55.61,20.41)" fill="#7BCC60">
    <circle cx="0" cy="0" r="0.75" class="primitive"/>
  </g>
  <g transform="translate(36.77,19.12)" fill="#7BCC60">
    <circle cx="0" cy="0" r="0.75" class="primitive"/>
  </g>
  <g transform="translate(58.66,23)" fill="#7BCC60">
    <circle cx="0" cy="0" r="0.75" class="primitive"/>
  </g>
  <g transform="translate(50.18,25.58)" fill="#7BCC60">
    <circle cx="0" cy="0" r="0.75" class="primitive"/>
  </g>
  <g transform="translate(48.53,24.29)" fill="#7BCC60">
    <circle cx="0" cy="0" r="0.75" class="primitive"/>
  </g>
  <g transform="translate(35.9,21.7)" fill="#7BCC60">
    <circle cx="0" cy="0" r="0.75" class="primitive"/>
  </g>
  <g transform="translate(34.08,16.54)" fill="#7BCC60">
    <circle cx="0" cy="0" r="0.75" class="primitive"/>
  </g>
  <g transform="translate(49.23,28.16)" fill="#B8602B">
    <circle cx="0" cy="0" r="0.75" class="primitive"/>
  </g>
  <g transform="translate(42.05,30.75)" fill="#7BCC60">
    <circle cx="0" cy="0" r="0.75" class="primitive"/>
  </g>
  <g transform="translate(37.93,29.45)" fill="#7BCC60">
    <circle cx="0" cy="0" r="0.75" class="primitive"/>
  </g>
  <g transform="translate(56.16,33.33)" fill="#7BCC60">
    <circle cx="0" cy="0" r="0.75" class="primitive"/>
  </g>
  <g transform="translate(47.09,35.91)" fill="#B8602B">
    <circle cx="0" cy="0" r="0.75" class="primitive"/>
  </g>
  <g transform="translate(40.07,34.62)" fill="#7BCC60">
    <circle cx="0" cy="0" r="0.75" class="primitive"/>
  </g>
  <g transform="translate(29.93,32.04)" fill="#7BCC60">
    <circle cx="0" cy="0" r="0.75" class="primitive"/>
  </g>
  <g transform="translate(74.66,38.5)" fill="#B8602B">
    <circle cx="0" cy="0" r="0.75" class="primitive"/>
  </g>
  <g transform="translate(39.83,41.08)" fill="#7BCC60">
    <circle cx="0" cy="0" r="0.75" class="primitive"/>
  </g>
  <g transform="translate(35.17,39.79)" fill="#B8602B">
    <circle cx="0" cy="0" r="0.75" class="primitive"/>
  </g>
  <g transform="translate(53.98,43.67)" fill="#7BCC60">
    <circle cx="0" cy="0" r="0.75" class="primitive"/>
  </g>
  <g transform="translate(45.2,46.25)" fill="#7BCC60">
    <circle cx="0" cy="0" r="0.75" class="primitive"/>
  </g>
  <g transform="translate(45.03,44.96)" fill="#7BCC60">
    <circle cx="0" cy="0" r="0.75" class="primitive"/>
  </g>
  <g transform="translate(29.95,42.37)" fill="#B8602B">
    <circle cx="0" cy="0" r="0.75" class="primitive"/>
  </g>
  <g transform="translate(27.71,37.21)" fill="#B8602B">
    <circle cx="0" cy="0" r="0.75" class="primitive"/>
  </g>
  <g transform="translate(14.36,26.87)" fill="#7BCC60">
    <circle cx="0" cy="0" r="0.75" class="primitive"/>
  </g>
  <g transform="translate(23.1,48.83)" fill="#7BCC60">
    <circle cx="0" cy="0" r="0.75" class="primitive"/>
  </g>
  <g transform="translate(49.1,51.42)" fill="#7BCC60">
    <circle cx="0" cy="0" r="0.75" class="primitive"/>
  </g>
  <g transform="translate(22.37,50.12)" fill="#B8602B">
    <circle cx="0" cy="0" r="0.75" class="primitive"/>
  </g>
  <g transform="translate(25.19,54)" fill="#B8602B">
    <circle cx="0" cy="0" r="0.75" class="primitive"/>
  </g>
  <g transform="translate(29.56,56.58)" fill="#B8602B">
    <circle cx="0" cy="0" r="0.75" class="primitive"/>
  </g>
  <g transform="translate(19.92,55.29)" fill="#7BCC60">
    <circle cx="0" cy="0" r="0.75" class="primitive"/>
  </g>
  <g transform="translate(13.66,52.71)" fill="#B8602B">
    <circle cx="0" cy="0" r="0.75" class="primitive"/>
  </g>
  <g transform="translate(69.64,59.17)" fill="#7BCC60">
    <circle cx="0" cy="0" r="0.75" class="primitive"/>
  </g>
  <g transform="translate(30.59,61.75)" fill="#B8602B">
    <circle cx="0" cy="0" r="0.75" class="primitive"/>
  </g>
  <g transform="translate(29.36,60.46)" fill="#7BCC60">
    <circle cx="0" cy="0" r="0.75" class="primitive"/>
  </g>
  <g transform="translate(29.29,64.33)" fill="#7BCC60">
    <circle cx="0" cy="0" r="0.75" class="primitive"/>
  </g>
  <g transform="translate(26.43,66.92)" fill="#7BCC60">
    <circle cx="0" cy="0" r="0.75" class="primitive"/>
  </g>
  <g transform="translate(24.9,65.63)" fill="#B8602B">
    <circle cx="0" cy="0" r="0.75" class="primitive"/>
  </g>
  <g transform="translate(22.67,63.04)" fill="#B8602B">
    <circle cx="0" cy="0" r="0.75" class="primitive"/>
  </g>
  <g transform="translate(6.33,57.88)" fill="#7BCC60">
    <circle cx="0" cy="0" r="0.75" class="primitive"/>
  </g>
  <g transform="translate(37.65,69.5)" fill="#B8602B">
    <circle cx="0" cy="0" r="0.75" class="primitive"/>
  </g>
  <g transform="translate(38.33,72.09)" fill="#B8602B">
    <circle cx="0" cy="0" r="0.75" class="primitive"/>
  </g>
  <g transform="translate(27.59,70.79)" fill="#B8602B">
    <circle cx="0" cy="0" r="0.75" class="primitive"/>
  </g>
  <g transform="translate(43.41,74.67)" fill="#7BCC60">
    <circle cx="0" cy="0" r="0.75" class="primitive"/>
  </g>
  <g fill-opacity="1" id="img-29b4c979-5">
    <g transform="translate(43.41,74.67)" fill="#7BCC60">
      <circle cx="0" cy="0" r="0.75" class="primitive"/>
    </g>
    <g transform="translate(43.19,77.25)" fill="#B8602B">
      <circle cx="0" cy="0" r="0.75" class="primitive"/>
    </g>
    <g transform="translate(40.8,75.96)" fill="#7BCC60">
      <circle cx="0" cy="0" r="0.75" class="primitive"/>
    </g>
    <g transform="translate(56.62,79.84)" fill="#B8602B">
      <circle cx="0" cy="0" r="0.75" class="primitive"/>
    </g>
    <g transform="translate(45.24,82.42)" fill="#7BCC60">
      <circle cx="0" cy="0" r="0.75" class="primitive"/>
    </g>
    <g transform="translate(37.31,81.13)" fill="#7BCC60">
      <circle cx="0" cy="0" r="0.75" class="primitive"/>
    </g>
    <g transform="translate(29.58,78.55)" fill="#B8602B">
      <circle cx="0" cy="0" r="0.75" class="primitive"/>
    </g>
    <g transform="translate(26.96,74.67)" fill="#B8602B">
      <circle cx="0" cy="0" r="0.75" class="primitive"/>
    </g>
    <g transform="translate(64.33,85)" fill="#7BCC60">
      <circle cx="0" cy="0" r="0.75" class="primitive"/>
    </g>
    <g transform="translate(60.14,87.59)" fill="#7BCC60">
      <circle cx="0" cy="0" r="0.75" class="primitive"/>
    </g>
    <g transform="translate(52.84,86.3)" fill="#B8602B">
      <circle cx="0" cy="0" r="0.75" class="primitive"/>
    </g>
    <g transform="translate(77.57,90.17)" fill="#7BCC60">
      <circle cx="0" cy="0" r="0.75" class="primitive"/>
    </g>
    <g transform="translate(78.75,92.76)" fill="#7BCC60">
      <circle cx="0" cy="0" r="0.75" class="primitive"/>
    </g>
    <g transform="translate(74.57,91.46)" fill="#B8602B">
      <circle cx="0" cy="0" r="0.75" class="primitive"/>
    </g>
    <g transform="translate(48.55,88.88)" fill="#7BCC60">
      <circle cx="0" cy="0" r="0.75" class="primitive"/>
    </g>
    <g transform="translate(39.5,95.34)" fill="#7BCC60">
      <circle cx="0" cy="0" r="0.75" class="primitive"/>
    </g>
    <g transform="translate(34.66,97.92)" fill="#7BCC60">
      <circle cx="0" cy="0" r="0.75" class="primitive"/>
    </g>
    <g transform="translate(33.19,96.63)" fill="#B8602B">
      <circle cx="0" cy="0" r="0.75" class="primitive"/>
    </g>
    <g transform="translate(47.23,100.51)" fill="#7BCC60">
      <circle cx="0" cy="0" r="0.75" class="primitive"/>
    </g>
    <g transform="translate(39.99,103.09)" fill="#7BCC60">
      <circle cx="0" cy="0" r="0.75" class="primitive"/>
    </g>
    <g transform="translate(32.7,101.8)" fill="#B8602B">
      <circle cx="0" cy="0" r="0.75" class="primitive"/>
    </g>
    <g transform="translate(25.31,99.22)" fill="#B8602B">
      <circle cx="0" cy="0" r="0.75" class="primitive"/>
    </g>
    <g transform="translate(22.21,94.05)" fill="#7BCC60">
      <circle cx="0" cy="0" r="0.75" class="primitive"/>
    </g>
    <g transform="translate(11.43,84.36)" fill="#7BCC60">
      <circle cx="0" cy="0" r="0.75" class="primitive"/>
    </g>
    <g transform="translate(6.03,71.12)" fill="#7BCC60">
      <circle cx="0" cy="0" r="0.75" class="primitive"/>
    </g>
    <g transform="translate(3.75,48.99)" fill="#000000">
      <circle cx="0" cy="0" r="0.75" class="primitive"/>
    </g>
    <g transform="translate(3.75,26.95)" fill="#000000">
      <circle cx="0" cy="0" r="0.75" class="primitive"/>
    </g>
  </g>
</g>
<g stroke-opacity="1" fill-opacity="1" font-size="1.41" stroke-width="0.1" id="img-29b4c979-6">
  <g transform="translate(6.64,4.91)" stroke="#000000">
    <g class="primitive">
      <text dy="0.35em">N38</text>
    </g>
  </g>
  <g transform="translate(48.08,7.49)" stroke="#000000">
    <g class="primitive">
      <text dy="0.35em">N12</text>
    </g>
  </g>
  <g transform="translate(72.46,10.08)" stroke="#000000">
    <g class="primitive">
      <text dy="0.35em">N13</text>
    </g>
  </g>
  <g transform="translate(44.97,8.78)" stroke="#000000">
    <g class="primitive">
      <text dy="0.35em">N45</text>
    </g>
  </g>
  <g transform="translate(49.53,12.66)" stroke="#000000">
    <g class="primitive">
      <text dy="0.35em">N14</text>
    </g>
  </g>
  <g transform="translate(60.32,15.24)" stroke="#000000">
    <g class="primitive">
      <text dy="0.35em">N15</text>
    </g>
  </g>
  <g transform="translate(49.07,13.95)" stroke="#000000">
    <g class="primitive">
      <text dy="0.35em">N46</text>
    </g>
  </g>
  <g transform="translate(42.2,11.37)" stroke="#000000">
    <g class="primitive">
      <text dy="0.35em">N61</text>
    </g>
  </g>
  <g transform="translate(47.85,17.83)" stroke="#000000">
    <g class="primitive">
      <text dy="0.35em">N16</text>
    </g>
  </g>
  <g transform="translate(57.49,20.41)" stroke="#000000">
    <g class="primitive">
      <text dy="0.35em">N17</text>
    </g>
  </g>
  <g transform="translate(38.65,19.12)" stroke="#000000">
    <g class="primitive">
      <text dy="0.35em">N47</text>
    </g>
  </g>
  <g transform="translate(60.53,23)" stroke="#000000">
    <g class="primitive">
      <text dy="0.35em">N18</text>
    </g>
  </g>
  <g transform="translate(52.05,25.58)" stroke="#000000">
    <g class="primitive">
      <text dy="0.35em">N19</text>
    </g>
  </g>
  <g transform="translate(50.41,24.29)" stroke="#000000">
    <g class="primitive">
      <text dy="0.35em">N48</text>
    </g>
  </g>
  <g transform="translate(37.77,21.7)" stroke="#000000">
    <g class="primitive">
      <text dy="0.35em">N62</text>
    </g>
  </g>
  <g transform="translate(35.96,16.54)" stroke="#000000">
    <g class="primitive">
      <text dy="0.35em">N69</text>
    </g>
  </g>
  <g transform="translate(51.1,28.16)" stroke="#000000">
    <g class="primitive">
      <text dy="0.35em">N20</text>
    </g>
  </g>
  <g transform="translate(43.92,30.75)" stroke="#000000">
    <g class="primitive">
      <text dy="0.35em">N21</text>
    </g>
  </g>
  <g transform="translate(39.81,29.45)" stroke="#000000">
    <g class="primitive">
      <text dy="0.35em">N49</text>
    </g>
  </g>
  <g transform="translate(58.04,33.33)" stroke="#000000">
    <g class="primitive">
      <text dy="0.35em">N22</text>
    </g>
  </g>
  <g transform="translate(48.97,35.91)" stroke="#000000">
    <g class="primitive">
      <text dy="0.35em">N23</text>
    </g>
  </g>
  <g transform="translate(41.94,34.62)" stroke="#000000">
    <g class="primitive">
      <text dy="0.35em">N50</text>
    </g>
  </g>
  <g transform="translate(31.8,32.04)" stroke="#000000">
    <g class="primitive">
      <text dy="0.35em">N63</text>
    </g>
  </g>
  <g transform="translate(76.54,38.5)" stroke="#000000">
    <g class="primitive">
      <text dy="0.35em">N24</text>
    </g>
  </g>
  <g transform="translate(41.71,41.08)" stroke="#000000">
    <g class="primitive">
      <text dy="0.35em">N25</text>
    </g>
  </g>
  <g transform="translate(37.05,39.79)" stroke="#000000">
    <g class="primitive">
      <text dy="0.35em">N51</text>
    </g>
  </g>
  <g transform="translate(55.85,43.67)" stroke="#000000">
    <g class="primitive">
      <text dy="0.35em">N26</text>
    </g>
  </g>
  <g transform="translate(47.08,46.25)" stroke="#000000">
    <g class="primitive">
      <text dy="0.35em">N27</text>
    </g>
  </g>
  <g transform="translate(46.91,44.96)" stroke="#000000">
    <g class="primitive">
      <text dy="0.35em">N52</text>
    </g>
  </g>
  <g transform="translate(31.83,42.37)" stroke="#000000">
    <g class="primitive">
      <text dy="0.35em">N64</text>
    </g>
  </g>
  <g transform="translate(29.58,37.21)" stroke="#000000">
    <g class="primitive">
      <text dy="0.35em">N70</text>
    </g>
  </g>
  <g transform="translate(16.23,26.87)" stroke="#000000">
    <g class="primitive">
      <text dy="0.35em">N73</text>
    </g>
  </g>
  <g transform="translate(24.98,48.83)" stroke="#000000">
    <g class="primitive">
      <text dy="0.35em">N28</text>
    </g>
  </g>
  <g transform="translate(50.97,51.42)" stroke="#000000">
    <g class="primitive">
      <text dy="0.35em">N29</text>
    </g>
  </g>
  <g transform="translate(24.24,50.12)" stroke="#000000">
    <g class="primitive">
      <text dy="0.35em">N53</text>
    </g>
  </g>
  <g transform="translate(27.07,54)" stroke="#000000">
    <g class="primitive">
      <text dy="0.35em">N30</text>
    </g>
  </g>
  <g transform="translate(31.43,56.58)" stroke="#000000">
    <g class="primitive">
      <text dy="0.35em">N31</text>
    </g>
  </g>
  <g transform="translate(21.79,55.29)" stroke="#000000">
    <g class="primitive">
      <text dy="0.35em">N54</text>
    </g>
  </g>
  <g transform="translate(15.54,52.71)" stroke="#000000">
    <g class="primitive">
      <text dy="0.35em">N65</text>
    </g>
  </g>
  <g transform="translate(71.51,59.17)" stroke="#000000">
    <g class="primitive">
      <text dy="0.35em">N32</text>
    </g>
  </g>
  <g transform="translate(32.46,61.75)" stroke="#000000">
    <g class="primitive">
      <text dy="0.35em">N33</text>
    </g>
  </g>
  <g transform="translate(31.23,60.46)" stroke="#000000">
    <g class="primitive">
      <text dy="0.35em">N55</text>
    </g>
  </g>
  <g transform="translate(31.16,64.33)" stroke="#000000">
    <g class="primitive">
      <text dy="0.35em">N34</text>
    </g>
  </g>
  <g transform="translate(28.31,66.92)" stroke="#000000">
    <g class="primitive">
      <text dy="0.35em">N35</text>
    </g>
  </g>
  <g transform="translate(26.77,65.63)" stroke="#000000">
    <g class="primitive">
      <text dy="0.35em">N56</text>
    </g>
  </g>
  <g transform="translate(24.55,63.04)" stroke="#000000">
    <g class="primitive">
      <text dy="0.35em">N66</text>
    </g>
  </g>
  <g transform="translate(8.21,57.88)" stroke="#000000">
    <g class="primitive">
      <text dy="0.35em">N71</text>
    </g>
  </g>
  <g transform="translate(39.53,69.5)" stroke="#000000">
    <g class="primitive">
      <text dy="0.35em">N36</text>
    </g>
  </g>
  <g transform="translate(40.2,72.09)" stroke="#000000">
    <g class="primitive">
      <text dy="0.35em">N37</text>
    </g>
  </g>
  <g transform="translate(29.46,70.79)" stroke="#000000">
    <g class="primitive">
      <text dy="0.35em">N57</text>
    </g>
  </g>
  <g transform="translate(45.28,74.67)" stroke="#000000">
    <g class="primitive">
      <text dy="0.35em">N0</text>
    </g>
  </g>
  <g stroke-opacity="1" fill-opacity="1" font-size="1.41" stroke-width="0.1" id="img-29b4c979-7">
    <g transform="translate(45.28,74.67)" stroke="#000000">
      <g class="primitive">
        <text dy="0.35em">N0</text>
      </g>
    </g>
    <g transform="translate(45.07,77.25)" stroke="#000000">
      <g class="primitive">
        <text dy="0.35em">N1</text>
      </g>
    </g>
    <g transform="translate(42.68,75.96)" stroke="#000000">
      <g class="primitive">
        <text dy="0.35em">N39</text>
      </g>
    </g>
    <g transform="translate(58.5,79.84)" stroke="#000000">
      <g class="primitive">
        <text dy="0.35em">N2</text>
      </g>
    </g>
    <g transform="translate(47.11,82.42)" stroke="#000000">
      <g class="primitive">
        <text dy="0.35em">N3</text>
      </g>
    </g>
    <g transform="translate(39.18,81.13)" stroke="#000000">
      <g class="primitive">
        <text dy="0.35em">N40</text>
      </g>
    </g>
    <g transform="translate(31.46,78.55)" stroke="#000000">
      <g class="primitive">
        <text dy="0.35em">N58</text>
      </g>
    </g>
    <g transform="translate(28.84,74.67)" stroke="#000000">
      <g class="primitive">
        <text dy="0.35em">N67</text>
      </g>
    </g>
    <g transform="translate(66.21,85)" stroke="#000000">
      <g class="primitive">
        <text dy="0.35em">N4</text>
      </g>
    </g>
    <g transform="translate(62.02,87.59)" stroke="#000000">
      <g class="primitive">
        <text dy="0.35em">N5</text>
      </g>
    </g>
    <g transform="translate(54.72,86.3)" stroke="#000000">
      <g class="primitive">
        <text dy="0.35em">N41</text>
      </g>
    </g>
    <g transform="translate(79.44,90.17)" stroke="#000000">
      <g class="primitive">
        <text dy="0.35em">N6</text>
      </g>
    </g>
    <g transform="translate(80.62,92.76)" stroke="#000000">
      <g class="primitive">
        <text dy="0.35em">N7</text>
      </g>
    </g>
    <g transform="translate(76.44,91.46)" stroke="#000000">
      <g class="primitive">
        <text dy="0.35em">N42</text>
      </g>
    </g>
    <g transform="translate(50.43,88.88)" stroke="#000000">
      <g class="primitive">
        <text dy="0.35em">N59</text>
      </g>
    </g>
    <g transform="translate(41.38,95.34)" stroke="#000000">
      <g class="primitive">
        <text dy="0.35em">N8</text>
      </g>
    </g>
    <g transform="translate(36.53,97.92)" stroke="#000000">
      <g class="primitive">
        <text dy="0.35em">N9</text>
      </g>
    </g>
    <g transform="translate(35.06,96.63)" stroke="#000000">
      <g class="primitive">
        <text dy="0.35em">N43</text>
      </g>
    </g>
    <g transform="translate(49.1,100.51)" stroke="#000000">
      <g class="primitive">
        <text dy="0.35em">N10</text>
      </g>
    </g>
    <g transform="translate(41.86,103.09)" stroke="#000000">
      <g class="primitive">
        <text dy="0.35em">N11</text>
      </g>
    </g>
    <g transform="translate(34.58,101.8)" stroke="#000000">
      <g class="primitive">
        <text dy="0.35em">N44</text>
      </g>
    </g>
    <g transform="translate(27.19,99.22)" stroke="#000000">
      <g class="primitive">
        <text dy="0.35em">N60</text>
      </g>
    </g>
    <g transform="translate(24.09,94.05)" stroke="#000000">
      <g class="primitive">
        <text dy="0.35em">N68</text>
      </g>
    </g>
    <g transform="translate(13.31,84.36)" stroke="#000000">
      <g class="primitive">
        <text dy="0.35em">N72</text>
      </g>
    </g>
    <g transform="translate(7.91,71.12)" stroke="#000000">
      <g class="primitive">
        <text dy="0.35em">N74</text>
      </g>
    </g>
    <g transform="translate(5.63,48.99)" stroke="#000000">
      <g class="primitive">
        <text dy="0.35em"></text>
      </g>
    </g>
    <g transform="translate(5.63,26.95)" stroke="#000000">
      <g class="primitive">
        <text dy="0.35em"></text>
      </g>
    </g>
  </g>
</g>
</svg>
