<?xml version="1.0" encoding="UTF-8"?>
<svg xmlns="http://www.w3.org/2000/svg"
     xmlns:xlink="http://www.w3.org/1999/xlink"
     version="1.2"
     width="150mm" height="62mm" viewBox="0 0 150 62"
     stroke="none"
     fill="#000000"
     stroke-width="0.3"
     font-size="3.88"
>
<defs>
  <marker id="arrow" markerWidth="15" markerHeight="7" refX="5" refY="3.5" orient="auto" markerUnits="strokeWidth">
    <path d="M0,0 L15,3.5 L0,7 z" stroke="context-stroke" fill="context-stroke"/>
  </marker>
</defs>
<g stroke-opacity="1" stroke-width="0.3" id="img-29b4c979-1">
  <g transform="translate(16.86,2.82)" stroke="#25F1C9">
    <path fill="none" d="M-5.01,0 L5.01,0 " class="primitive"/>
  </g>
  <g transform="translate(22.17,6.58)" stroke="#8ECCC1">
    <path fill="none" d="M-8.02,0 L8.02,0 " class="primitive"/>
  </g>
  <g transform="translate(39.6,10.33)" stroke="#25F1C9">
    <path fill="none" d="M-8.89,0 L8.89,0 " class="primitive"/>
  </g>
  <g transform="translate(50.81,14.09)" stroke="#8ECCC1">
    <path fill="none" d="M-14.6,0 L14.6,0 " class="primitive"/>
  </g>
  <g transform="translate(52.8,17.85)" stroke="#8ECCC1">
    <path fill="none" d="M-4.72,0 L4.72,0 " class="primitive"/>
  </g>
  <g transform="translate(63.42,21.61)" stroke="#25F1C9">
    <path fill="none" d="M-15.33,0 L15.33,0 " class="primitive"/>
  </g>
  <g transform="translate(42.15,19.73)" stroke="#8ECCC1">
    <path fill="none" d="M-5.93,0 L5.93,0 " class="primitive"/>
  </g>
  <g transform="translate(48.08,19.73)" stroke="#8ECCC1">
    <path fill="none" d="M0,1.88 L0,-1.88 " class="primitive"/>
  </g>
  <g transform="translate(33.46,16.91)" stroke="#8ECCC1">
    <path fill="none" d="M-2.75,0 L2.75,0 " class="primitive"/>
  </g>
  <g transform="translate(36.21,16.91)" stroke="#8ECCC1">
    <path fill="none" d="M0,2.82 L0,-2.82 " class="primitive"/>
  </g>
  <g transform="translate(22.43,13.62)" stroke="#8ECCC1">
    <path fill="none" d="M-8.28,0 L8.28,0 " class="primitive"/>
  </g>
  <g transform="translate(30.71,13.62)" stroke="#8ECCC1">
    <path fill="none" d="M0,3.29 L0,-3.29 " class="primitive"/>
  </g>
  <g transform="translate(13,10.1)" stroke="#8ECCC1">
    <path fill="none" d="M-1.15,0 L1.15,0 " class="primitive"/>
  </g>
  <g transform="translate(14.15,10.1)" stroke="#8ECCC1">
    <path fill="none" d="M0,3.52 L0,-3.52 " class="primitive"/>
  </g>
  <g transform="translate(7.8,6.46)" stroke="#8ECCC1">
    <path fill="none" d="M-4.05,0 L4.05,0 " class="primitive"/>
  </g>
  <g transform="translate(11.85,6.46)" stroke="#8ECCC1">
    <path fill="none" d="M0,3.64 L0,-3.64 " class="primitive"/>
  </g>
  <g transform="translate(22.08,25.36)" stroke="#25F1C9">
    <path fill="none" d="M-18.33,0 L18.33,0 " class="primitive"/>
  </g>
  <g transform="translate(37.22,29.12)" stroke="#8ECCC1">
    <path fill="none" d="M-8.57,0 L8.57,0 " class="primitive"/>
  </g>
  <g transform="translate(37.77,32.88)" stroke="#8ECCC1">
    <path fill="none" d="M-9.12,0 L9.12,0 " class="primitive"/>
  </g>
  <g transform="translate(26.18,31)" stroke="#8ECCC1">
    <path fill="none" d="M-2.47,0 L2.47,0 " class="primitive"/>
  </g>
  <g transform="translate(28.65,31)" stroke="#8ECCC1">
    <path fill="none" d="M0,1.88 L0,-1.88 " class="primitive"/>
  </g>
  <g transform="translate(46.45,36.64)" stroke="#25F1C9">
    <path fill="none" d="M-1.07,0 L1.07,0 " class="primitive"/>
  </g>
  <g transform="translate(49.8,40.39)" stroke="#25F1C9">
    <path fill="none" d="M-4.43,0 L4.43,0 " class="primitive"/>
  </g>
  <g transform="translate(34.54,38.52)" stroke="#25F1C9">
    <path fill="none" d="M-10.83,0 L10.83,0 " class="primitive"/>
  </g>
  <g transform="translate(45.37,38.52)" stroke="#25F1C9">
    <path fill="none" d="M0,1.88 L0,-1.88 " class="primitive"/>
  </g>
  <g transform="translate(14.41,34.76)" stroke="#8ECCC1">
    <path fill="none" d="M-9.3,0 L9.3,0 " class="primitive"/>
  </g>
  <g transform="translate(23.72,34.76)" stroke="#8ECCC1">
    <path fill="none" d="M0,3.76 L0,-3.76 " class="primitive"/>
  </g>
  <g transform="translate(22.1,44.15)" stroke="#25F1C9">
    <path fill="none" d="M-0.62,0 L0.62,0 " class="primitive"/>
  </g>
  <g transform="translate(42.38,47.91)" stroke="#25F1C9">
    <path fill="none" d="M-20.9,0 L20.9,0 " class="primitive"/>
  </g>
  <g transform="translate(18.25,46.03)" stroke="#8ECCC1">
    <path fill="none" d="M-3.23,0 L3.23,0 " class="primitive"/>
  </g>
  <g transform="translate(21.48,46.03)" stroke="#8ECCC1">
    <path fill="none" d="M0,1.88 L0,-1.88 " class="primitive"/>
  </g>
  <g transform="translate(20.69,51.67)" stroke="#25F1C9">
    <path fill="none" d="M-2.76,0 L2.76,0 " class="primitive"/>
  </g>
  <g transform="translate(71.33,55.42)" stroke="#25F1C9">
    <path fill="none" d="M-6.7,0 L6.7,0 " class="primitive"/>
  </g>
  <g transform="translate(66.02,59.18)" stroke="#8ECCC1">
    <path fill="none" d="M-1.39,0 L1.39,0 " class="primitive"/>
  </g>
  <g transform="translate(41.28,57.3)" stroke="#8ECCC1">
    <path fill="none" d="M-23.35,0 L23.35,0 " class="primitive"/>
  </g>
  <g transform="translate(64.63,57.3)" stroke="#8ECCC1">
    <path fill="none" d="M0,1.88 L0,-1.88 " class="primitive"/>
  </g>
  <g transform="translate(16.48,54.48)" stroke="#8ECCC1">
    <path fill="none" d="M-1.45,0 L1.45,0 " class="primitive"/>
  </g>
  <g transform="translate(17.93,54.48)" stroke="#8ECCC1">
    <path fill="none" d="M0,2.82 L0,-2.82 " class="primitive"/>
  </g>
  <g transform="translate(10.07,50.26)" stroke="#25F1C9">
    <path fill="none" d="M-4.96,0 L4.96,0 " class="primitive"/>
  </g>
  <g transform="translate(15.03,50.26)" stroke="#25F1C9">
    <path fill="none" d="M0,4.23 L0,-4.23 " class="primitive"/>
  </g>
  <g transform="translate(4.43,42.51)" stroke="#25F1C9">
    <path fill="none" d="M-0.68,0 L0.68,0 " class="primitive"/>
  </g>
  <g transform="translate(5.11,42.51)" stroke="#25F1C9">
    <path fill="none" d="M0,7.75 L0,-7.75 " class="primitive"/>
  </g>
  <g transform="translate(3.75,33.94)" stroke="#000000">
    <path fill="none" d="M0,0 L0,0 " class="primitive"/>
  </g>
  <g transform="translate(3.75,33.94)" stroke="#000000">
    <path fill="none" d="M0,8.57 L0,-8.57 " class="primitive"/>
  </g>
  <g transform="translate(3.75,20.2)" stroke="#000000">
    <path fill="none" d="M0,0 L0,0 " class="primitive"/>
  </g>
  <g transform="translate(3.75,20.2)" stroke="#000000">
    <path fill="none" d="M0,13.74 L0,-13.74 " class="primitive"/>
  </g>
</g>
<g fill-opacity="1" id="img-29b4c979-2">
  <g transform="translate(21.88,2.82)" fill="#25F1C9">
    <circle cx="0" cy="0" r="0.75" class="primitive"/>
  </g>
  <g transform="translate(30.18,6.58)" fill="#8ECCC1">
    <circle cx="0" cy="0" r="0.75" class="primitive"/>
  </g>
  <g transform="translate(48.49,10.33)" fill="#25F1C9">
    <circle cx="0" cy="0" r="0.75" class="primitive"/>
  </g>
  <g transform="translate(65.41,14.09)" fill="#8ECCC1">
    <circle cx="0" cy="0" r="0.75" class="primitive"/>
  </g>
  <g transform="translate(57.51,17.85)" fill="#8ECCC1">
    <circle cx="0" cy="0" r="0.75" class="primitive"/>
  </g>
  <g transform="translate(78.75,21.61)" fill="#25F1C9">
    <circle cx="0" cy="0" r="0.75" class="primitive"/>
  </g>
  <g transform="translate(48.08,19.73)" fill="#8ECCC1">
    <circle cx="0" cy="0" r="0.75" class="primitive"/>
  </g>
  <g transform="translate(36.21,16.91)" fill="#8ECCC1">
    <circle cx="0" cy="0" r="0.75" class="primitive"/>
  </g>
  <g transform="translate(30.71,13.62)" fill="#8ECCC1">
    <circle cx="0" cy="0" r="0.75" class="primitive"/>
  </g>
  <g transform="translate(14.15,10.1)" fill="#8ECCC1">
    <circle cx="0" cy="0" r="0.75" class="primitive"/>
  </g>
  <g transform="translate(11.85,6.46)" fill="#8ECCC1">
    <circle cx="0" cy="0" r="0.75" class="primitive"/>
  </g>
  <g transform="translate(40.41,25.36)" fill="#25F1C9">
    <circle cx="0" cy="0" r="0.75" class="primitive"/>
  </g>
  <g transform="translate(45.79,29.12)" fill="#8ECCC1">
    <circle cx="0" cy="0" r="0.75" class="primitive"/>
  </g>
  <g transform="translate(46.9,32.88)" fill="#8ECCC1">
    <circle cx="0" cy="0" r="0.75" class="primitive"/>
  </g>
  <g transform="translate(28.65,31)" fill="#8ECCC1">
    <circle cx="0" cy="0" r="0.75" class="primitive"/>
  </g>
  <g transform="translate(47.52,36.64)" fill="#25F1C9">
    <circle cx="0" cy="0" r="0.75" class="primitive"/>
  </g>
  <g transform="translate(54.23,40.39)" fill="#25F1C9">
    <circle cx="0" cy="0" r="0.75" class="primitive"/>
  </g>
  <g transform="translate(45.37,38.52)" fill="#25F1C9">
    <circle cx="0" cy="0" r="0.75" class="primitive"/>
  </g>
  <g transform="translate(23.72,34.76)" fill="#8ECCC1">
    <circle cx="0" cy="0" r="0.75" class="primitive"/>
  </g>
  <g transform="translate(22.71,44.15)" fill="#25F1C9">
    <circle cx="0" cy="0" r="0.75" class="primitive"/>
  </g>
  <g transform="translate(63.28,47.91)" fill="#25F1C9">
    <circle cx="0" cy="0" r="0.75" class="primitive"/>
  </g>
  <g transform="translate(21.48,46.03)" fill="#8ECCC1">
    <circle cx="0" cy="0" r="0.75" class="primitive"/>
  </g>
  <g transform="translate(23.45,51.67)" fill="#25F1C9">
    <circle cx="0" cy="0" r="0.75" class="primitive"/>
  </g>
  <g transform="translate(78.02,55.42)" fill="#25F1C9">
    <circle cx="0" cy="0" r="0.75" class="primitive"/>
  </g>
  <g transform="translate(67.42,59.18)" fill="#8ECCC1">
    <circle cx="0" cy="0" r="0.75" class="primitive"/>
  </g>
  <g transform="translate(64.63,57.3)" fill="#8ECCC1">
    <circle cx="0" cy="0" r="0.75" class="primitive"/>
  </g>
  <g transform="translate(17.93,54.48)" fill="#8ECCC1">
    <circle cx="0" cy="0" r="0.75" class="primitive"/>
  </g>
  <g transform="translate(15.03,50.26)" fill="#25F1C9">
    <circle cx="0" cy="0" r="0.75" class="primitive"/>
  </g>
  <g transform="translate(5.11,42.51)" fill="#25F1C9">
    <circle cx="0" cy="0" r="0.75" class="primitive"/>
  </g>
  <g transform="translate(3.75,33.94)" fill="#000000">
    <circle cx="0" cy="0" r="0.75" class="primitive"/>
  </g>
  <g transform="translate(3.75,20.2)" fill="#000000">
    <circle cx="0" cy="0" r="0.75" class="primitive"/>
  </g>
</g>
<g stroke-opacity="1" fill-opacity="1" font-size="1.41" stroke-width="0.1" id="img-29b4c979-3">
  <g transform="translate(23.75,2.82)" stroke="#000000">
    <g class="primitive">
      <text dy="0.35em">N13</text>
    </g>
  </g>
  <g transform="translate(32.06,6.58)" stroke="#000000">
    <g class="primitive">
      <text dy="0.35em">N7</text>
    </g>
  </g>
  <g transform="translate(50.36,10.33)" stroke="#000000">
    <g class="primitive">
      <text dy="0.35em">N2</text>
    </g>
  </g>
  <g transform="translate(67.29,14.09)" stroke="#000000">
    <g class="primitive">
      <text dy="0.35em">N12</text>
    </g>
  </g>
  <g transform="translate(59.39,17.85)" stroke="#000000">
    <g class="primitive">
      <text dy="0.35em">N6</text>
    </g>
  </g>
  <g transform="translate(80.62,21.61)" stroke="#000000">
    <g class="primitive">
      <text dy="0.35em">N9</text>
    </g>
  </g>
  <g transform="translate(49.96,19.73)" stroke="#000000">
    <g class="primitive">
      <text dy="0.35em">N16</text>
    </g>
  </g>
  <g transform="translate(38.09,16.91)" stroke="#000000">
    <g class="primitive">
      <text dy="0.35em">N18</text>
    </g>
  </g>
  <g transform="translate(32.58,13.62)" stroke="#000000">
    <g class="primitive">
      <text dy="0.35em">N22</text>
    </g>
  </g>
  <g transform="translate(16.03,10.1)" stroke="#000000">
    <g class="primitive">
      <text dy="0.35em">N24</text>
    </g>
  </g>
  <g transform="translate(13.72,6.46)" stroke="#000000">
    <g class="primitive">
      <text dy="0.35em">N25</text>
    </g>
  </g>
  <g transform="translate(42.28,25.36)" stroke="#000000">
    <g class="primitive">
      <text dy="0.35em">N14</text>
    </g>
  </g>
  <g transform="translate(47.67,29.12)" stroke="#000000">
    <g class="primitive">
      <text dy="0.35em">N11</text>
    </g>
  </g>
  <g transform="translate(48.77,32.88)" stroke="#000000">
    <g class="primitive">
      <text dy="0.35em">N3</text>
    </g>
  </g>
  <g transform="translate(30.53,31)" stroke="#000000">
    <g class="primitive">
      <text dy="0.35em">N20</text>
    </g>
  </g>
  <g transform="translate(49.39,36.64)" stroke="#000000">
    <g class="primitive">
      <text dy="0.35em">N4</text>
    </g>
  </g>
  <g transform="translate(56.1,40.39)" stroke="#000000">
    <g class="primitive">
      <text dy="0.35em">N10</text>
    </g>
  </g>
  <g transform="translate(47.25,38.52)" stroke="#000000">
    <g class="primitive">
      <text dy="0.35em">N19</text>
    </g>
  </g>
  <g transform="translate(25.59,34.76)" stroke="#000000">
    <g class="primitive">
      <text dy="0.35em">N27</text>
    </g>
  </g>
  <g transform="translate(24.59,44.15)" stroke="#000000">
    <g class="primitive">
      <text dy="0.35em">N8</text>
    </g>
  </g>
  <g transform="translate(65.16,47.91)" stroke="#000000">
    <g class="primitive">
      <text dy="0.35em">N15</text>
    </g>
  </g>
  <g transform="translate(23.36,46.03)" stroke="#000000">
    <g class="primitive">
      <text dy="0.35em">N21</text>
    </g>
  </g>
  <g transform="translate(25.32,51.67)" stroke="#000000">
    <g class="primitive">
      <text dy="0.35em">N0</text>
    </g>
  </g>
  <g transform="translate(79.9,55.42)" stroke="#000000">
    <g class="primitive">
      <text dy="0.35em">N5</text>
    </g>
  </g>
  <g transform="translate(69.29,59.18)" stroke="#000000">
    <g class="primitive">
      <text dy="0.35em">N1</text>
    </g>
  </g>
  <g transform="translate(66.5,57.3)" stroke="#000000">
    <g class="primitive">
      <text dy="0.35em">N17</text>
    </g>
  </g>
  <g transform="translate(19.81,54.48)" stroke="#000000">
    <g class="primitive">
      <text dy="0.35em">N23</text>
    </g>
  </g>
  <g transform="translate(16.9,50.26)" stroke="#000000">
    <g class="primitive">
      <text dy="0.35em">N26</text>
    </g>
  </g>
  <g transform="translate(6.99,42.51)" stroke="#000000">
    <g class="primitive">
      <text dy="0.35em">N28</text>
    </g>
  </g>
  <g transform="translate(5.63,33.94)" stroke="#000000">
    <g class="primitive">
      <text dy="0.35em"></text>
    </g>
  </g>
  <g transform="translate(5.63,20.2)" stroke="#000000">
    <g class="primitive">
      <text dy="0.35em"></text>
    </g>
  </g>
</g>
</svg>
