<?xml version="1.0" encoding="UTF-8"?>
<svg xmlns="http://www.w3.org/2000/svg"
     xmlns:xlink="http://www.w3.org/1999/xlink"
     version="1.2"
     width="150mm" height="132mm" viewBox="0 0 150 132"
     stroke="none"
     fill="#000000"
     stroke-width="0.3"
     font-size="3.88"
>
<defs>
  <marker id="arrow" markerWidth="15" markerHeight="7" refX="5" refY="3.5" orient="auto" markerUnits="strokeWidth">
    <path d="M0,0 L15,3.5 L0,7 z" stroke="context-stroke" fill="context-stroke"/>
  </marker>
</defs>
<g stroke-opacity="1" stroke-width="0.3" id="img-d6e1d110-1">
  <g transform="translate(4.34,6)" stroke="#77C13E">
    <path fill="none" d="M-0.59,0 L0.59,0 " class="primitive"/>
  </g>
  <g transform="translate(54.07,8.4)" stroke="#77C13E">
    <path fill="none" d="M-6.74,0 L6.74,0 " class="primitive"/>
  </g>
  <g transform="translate(49.61,10.8)" stroke="#77C13E">
    <path fill="none" d="M-2.29,0 L2.29,0 " class="primitive"/>
  </g>
  <g transform="translate(41.8,9.6)" stroke="#77C13E">
    <path fill="none" d="M-5.52,0 L5.52,0 " class="primitive"/>
  </g>
  <g transform="translate(47.32,9.6)" stroke="#77C13E">
    <path fill="none" d="M0,1.2 L0,-1.2 " class="primitive"/>
  </g>
  <g transform="translate(48.16,13.2)" stroke="#77C13E">
    <path fill="none" d="M-11.32,0 L11.32,0 " class="primitive"/>
  </g>
  <g transform="translate(38.94,15.6)" stroke="#77C13E">
    <path fill="none" d="M-2.11,0 L2.11,0 " class="primitive"/>
  </g>
  <g transform="translate(36.56,14.4)" stroke="#28A08B">
    <path fill="none" d="M-0.28,0 L0.28,0 " class="primitive"/>
  </g>
  <g transform="translate(36.84,14.4)" stroke="#28A08B">
    <path fill="none" d="M0,1.2 L0,-1.2 " class="primitive"/>
  </g>
  <g transform="translate(28.46,12)" stroke="#77C13E">
    <path fill="none" d="M-7.82,0 L7.82,0 " class="primitive"/>
  </g>
  <g transform="translate(36.28,12)" stroke="#77C13E">
    <path fill="none" d="M0,2.4 L0,-2.4 " class="primitive"/>
  </g>
  <g transform="translate(28.02,18)" stroke="#77C13E">
    <path fill="none" d="M-4.86,0 L4.86,0 " class="primitive"/>
  </g>
  <g transform="translate(26.86,20.4)" stroke="#77C13E">
    <path fill="none" d="M-3.71,0 L3.71,0 " class="primitive"/>
  </g>
  <g transform="translate(22.71,19.2)" stroke="#77C13E">
    <path fill="none" d="M-0.45,0 L0.45,0 " class="primitive"/>
  </g>
  <g transform="translate(23.16,19.2)" stroke="#77C13E">
    <path fill="none" d="M0,1.2 L0,-1.2 " class="primitive"/>
  </g>
  <g transform="translate(40.56,22.8)" stroke="#77C13E">
    <path fill="none" d="M-0.33,0 L0.33,0 " class="primitive"/>
  </g>
  <g transform="translate(42.33,25.2)" stroke="#77C13E">
    <path fill="none" d="M-2.1,0 L2.1,0 " class="primitive"/>
  </g>
  <g transform="translate(31.25,24)" stroke="#77C13E">
    <path fill="none" d="M-8.99,0 L8.99,0 " class="primitive"/>
  </g>
  <g transform="translate(40.23,24)" stroke="#77C13E">
    <path fill="none" d="M0,1.2 L0,-1.2 " class="primitive"/>
  </g>
  <g transform="translate(21.45,21.6)" stroke="#77C13E">
    <path fill="none" d="M-0.81,0 L0.81,0 " class="primitive"/>
  </g>
  <g transform="translate(22.26,21.6)" stroke="#77C13E">
    <path fill="none" d="M0,2.4 L0,-2.4 " class="primitive"/>
  </g>
  <g transform="translate(17.08,16.8)" stroke="#77C13E">
    <path fill="none" d="M-3.56,0 L3.56,0 " class="primitive"/>
  </g>
  <g transform="translate(20.64,16.8)" stroke="#77C13E">
    <path fill="none" d="M0,4.8 L0,-4.8 " class="primitive"/>
  </g>
  <g transform="translate(49.21,27.6)" stroke="#77C13E">
    <path fill="none" d="M-18.2,0 L18.2,0 " class="primitive"/>
  </g>
  <g transform="translate(44.4,30)" stroke="#28A08B">
    <path fill="none" d="M-13.39,0 L13.39,0 " class="primitive"/>
  </g>
  <g transform="translate(28.61,28.8)" stroke="#77C13E">
    <path fill="none" d="M-2.39,0 L2.39,0 " class="primitive"/>
  </g>
  <g transform="translate(31.01,28.8)" stroke="#77C13E">
    <path fill="none" d="M0,1.2 L0,-1.2 " class="primitive"/>
  </g>
  <g transform="translate(41.65,32.4)" stroke="#77C13E">
    <path fill="none" d="M-10.25,0 L10.25,0 " class="primitive"/>
  </g>
  <g transform="translate(38.7,34.8)" stroke="#28A08B">
    <path fill="none" d="M-7.29,0 L7.29,0 " class="primitive"/>
  </g>
  <g transform="translate(28.81,33.6)" stroke="#77C13E">
    <path fill="none" d="M-2.59,0 L2.59,0 " class="primitive"/>
  </g>
  <g transform="translate(31.41,33.6)" stroke="#77C13E">
    <path fill="none" d="M0,1.2 L0,-1.2 " class="primitive"/>
  </g>
  <g transform="translate(23.84,31.2)" stroke="#77C13E">
    <path fill="none" d="M-2.38,0 L2.38,0 " class="primitive"/>
  </g>
  <g transform="translate(26.22,31.2)" stroke="#77C13E">
    <path fill="none" d="M0,2.4 L0,-2.4 " class="primitive"/>
  </g>
  <g transform="translate(57.21,37.2)" stroke="#77C13E">
    <path fill="none" d="M-6.85,0 L6.85,0 " class="primitive"/>
  </g>
  <g transform="translate(58.46,39.6)" stroke="#77C13E">
    <path fill="none" d="M-8.1,0 L8.1,0 " class="primitive"/>
  </g>
  <g transform="translate(38.88,38.4)" stroke="#77C13E">
    <path fill="none" d="M-11.48,0 L11.48,0 " class="primitive"/>
  </g>
  <g transform="translate(50.36,38.4)" stroke="#77C13E">
    <path fill="none" d="M0,1.2 L0,-1.2 " class="primitive"/>
  </g>
  <g transform="translate(44.09,42)" stroke="#77C13E">
    <path fill="none" d="M-0.4,0 L0.4,0 " class="primitive"/>
  </g>
  <g transform="translate(44.39,44.4)" stroke="#28A08B">
    <path fill="none" d="M-0.7,0 L0.7,0 " class="primitive"/>
  </g>
  <g transform="translate(39.27,43.2)" stroke="#77C13E">
    <path fill="none" d="M-4.42,0 L4.42,0 " class="primitive"/>
  </g>
  <g transform="translate(43.69,43.2)" stroke="#77C13E">
    <path fill="none" d="M0,1.2 L0,-1.2 " class="primitive"/>
  </g>
  <g transform="translate(39.67,46.8)" stroke="#77C13E">
    <path fill="none" d="M-0.65,0 L0.65,0 " class="primitive"/>
  </g>
  <g transform="translate(45.05,49.2)" stroke="#77C13E">
    <path fill="none" d="M-6.04,0 L6.04,0 " class="primitive"/>
  </g>
  <g transform="translate(36.93,48)" stroke="#77C13E">
    <path fill="none" d="M-2.08,0 L2.08,0 " class="primitive"/>
  </g>
  <g transform="translate(39.01,48)" stroke="#77C13E">
    <path fill="none" d="M0,1.2 L0,-1.2 " class="primitive"/>
  </g>
  <g transform="translate(31.13,45.6)" stroke="#77C13E">
    <path fill="none" d="M-3.73,0 L3.73,0 " class="primitive"/>
  </g>
  <g transform="translate(34.86,45.6)" stroke="#77C13E">
    <path fill="none" d="M0,2.4 L0,-2.4 " class="primitive"/>
  </g>
  <g transform="translate(24.43,42)" stroke="#77C13E">
    <path fill="none" d="M-2.97,0 L2.97,0 " class="primitive"/>
  </g>
  <g transform="translate(27.4,42)" stroke="#77C13E">
    <path fill="none" d="M0,3.6 L0,-3.6 " class="primitive"/>
  </g>
  <g transform="translate(17.49,36.6)" stroke="#77C13E">
    <path fill="none" d="M-3.97,0 L3.97,0 " class="primitive"/>
  </g>
  <g transform="translate(21.46,36.6)" stroke="#77C13E">
    <path fill="none" d="M0,5.4 L0,-5.4 " class="primitive"/>
  </g>
  <g stroke-opacity="1" stroke-width="0.3" stroke="#000000" id="img-d6e1d110-2">
    <g transform="translate(3.75,31.88)">
      <path fill="none" d="M0,25.88 L0,-25.88 " class="primitive"/>
    </g>
  </g>
  <g stroke-opacity="1" stroke-width="0.3" id="img-d6e1d110-3">
    <g transform="translate(21.36,92.4)" stroke="#77C13E">
      <path fill="none" d="M-2.05,0 L2.05,0 " class="primitive"/>
    </g>
    <g transform="translate(17.53,91.2)" stroke="#28A08B">
      <path fill="none" d="M-1.79,0 L1.79,0 " class="primitive"/>
    </g>
    <g transform="translate(19.32,91.2)" stroke="#28A08B">
      <path fill="none" d="M0,1.2 L0,-1.2 " class="primitive"/>
    </g>
    <g transform="translate(59.4,94.8)" stroke="#77C13E">
      <path fill="none" d="M-5.07,0 L5.07,0 " class="primitive"/>
    </g>
    <g transform="translate(54.38,97.2)" stroke="#77C13E">
      <path fill="none" d="M-0.05,0 L0.05,0 " class="primitive"/>
    </g>
    <g transform="translate(35.03,96)" stroke="#77C13E">
      <path fill="none" d="M-19.3,0 L19.3,0 " class="primitive"/>
    </g>
    <g transform="translate(54.33,96)" stroke="#77C13E">
      <path fill="none" d="M0,1.2 L0,-1.2 " class="primitive"/>
    </g>
    <g transform="translate(11.76,93.6)" stroke="#77C13E">
      <path fill="none" d="M-3.97,0 L3.97,0 " class="primitive"/>
    </g>
    <g transform="translate(15.74,93.6)" stroke="#77C13E">
      <path fill="none" d="M0,2.4 L0,-2.4 " class="primitive"/>
    </g>
    <g transform="translate(21.03,99.6)" stroke="#77C13E">
      <path fill="none" d="M-0.3,0 L0.3,0 " class="primitive"/>
    </g>
    <g transform="translate(23.59,102)" stroke="#77C13E">
      <path fill="none" d="M-2.86,0 L2.86,0 " class="primitive"/>
    </g>
    <g transform="translate(16.58,100.8)" stroke="#28A08B">
      <path fill="none" d="M-4.15,0 L4.15,0 " class="primitive"/>
    </g>
    <g transform="translate(20.73,100.8)" stroke="#28A08B">
      <path fill="none" d="M0,1.2 L0,-1.2 " class="primitive"/>
    </g>
    <g transform="translate(21.85,104.4)" stroke="#28A08B">
      <path fill="none" d="M-0.45,0 L0.45,0 " class="primitive"/>
    </g>
    <g transform="translate(36.12,106.8)" stroke="#77C13E">
      <path fill="none" d="M-14.72,0 L14.72,0 " class="primitive"/>
    </g>
    <g transform="translate(16.91,105.6)" stroke="#77C13E">
      <path fill="none" d="M-4.49,0 L4.49,0 " class="primitive"/>
    </g>
    <g transform="translate(21.4,105.6)" stroke="#77C13E">
      <path fill="none" d="M0,1.2 L0,-1.2 " class="primitive"/>
    </g>
    <g transform="translate(10.11,103.2)" stroke="#77C13E">
      <path fill="none" d="M-2.32,0 L2.32,0 " class="primitive"/>
    </g>
    <g transform="translate(12.42,103.2)" stroke="#77C13E">
      <path fill="none" d="M0,2.4 L0,-2.4 " class="primitive"/>
    </g>
    <g transform="translate(7.28,98.4)" stroke="#77C13E">
      <path fill="none" d="M-0.51,0 L0.51,0 " class="primitive"/>
    </g>
    <g transform="translate(7.79,98.4)" stroke="#77C13E">
      <path fill="none" d="M0,4.8 L0,-4.8 " class="primitive"/>
    </g>
    <g transform="translate(18.97,109.2)" stroke="#77C13E">
      <path fill="none" d="M-2.8,0 L2.8,0 " class="primitive"/>
    </g>
    <g transform="translate(19.21,111.6)" stroke="#77C13E">
      <path fill="none" d="M-3.04,0 L3.04,0 " class="primitive"/>
    </g>
    <g transform="translate(16,110.4)" stroke="#77C13E">
      <path fill="none" d="M-0.17,0 L0.17,0 " class="primitive"/>
    </g>
    <g transform="translate(16.17,110.4)" stroke="#77C13E">
      <path fill="none" d="M0,1.2 L0,-1.2 " class="primitive"/>
    </g>
    <g transform="translate(74.84,114)" stroke="#77C13E">
      <path fill="none" d="M-3.91,0 L3.91,0 " class="primitive"/>
    </g>
    <g transform="translate(74.26,116.4)" stroke="#77C13E">
      <path fill="none" d="M-3.32,0 L3.32,0 " class="primitive"/>
    </g>
    <g transform="translate(43.39,115.2)" stroke="#77C13E">
      <path fill="none" d="M-27.55,0 L27.55,0 " class="primitive"/>
    </g>
    <g transform="translate(70.94,115.2)" stroke="#77C13E">
      <path fill="none" d="M0,1.2 L0,-1.2 " class="primitive"/>
    </g>
    <g transform="translate(15.3,112.8)" stroke="#77C13E">
      <path fill="none" d="M-0.54,0 L0.54,0 " class="primitive"/>
    </g>
    <g transform="translate(15.84,112.8)" stroke="#77C13E">
      <path fill="none" d="M0,2.4 L0,-2.4 " class="primitive"/>
    </g>
    <g transform="translate(51.82,118.8)" stroke="#28A08B">
      <path fill="none" d="M-7.39,0 L7.39,0 " class="primitive"/>
    </g>
    <g transform="translate(44.87,121.2)" stroke="#77C13E">
      <path fill="none" d="M-0.44,0 L0.44,0 " class="primitive"/>
    </g>
    <g transform="translate(41.18,120)" stroke="#28A08B">
      <path fill="none" d="M-3.25,0 L3.25,0 " class="primitive"/>
    </g>
    <g transform="translate(44.43,120)" stroke="#28A08B">
      <path fill="none" d="M0,1.2 L0,-1.2 " class="primitive"/>
    </g>
    <g transform="translate(46.29,123.6)" stroke="#77C13E">
      <path fill="none" d="M-1.96,0 L1.96,0 " class="primitive"/>
    </g>
    <g transform="translate(56.27,126)" stroke="#77C13E">
      <path fill="none" d="M-11.95,0 L11.95,0 " class="primitive"/>
    </g>
    <g transform="translate(41.13,124.8)" stroke="#77C13E">
      <path fill="none" d="M-3.19,0 L3.19,0 " class="primitive"/>
    </g>
    <g transform="translate(44.32,124.8)" stroke="#77C13E">
      <path fill="none" d="M0,1.2 L0,-1.2 " class="primitive"/>
    </g>
    <g transform="translate(26.35,122.4)" stroke="#77C13E">
      <path fill="none" d="M-11.59,0 L11.59,0 " class="primitive"/>
    </g>
    <g transform="translate(37.94,122.4)" stroke="#77C13E">
      <path fill="none" d="M0,2.4 L0,-2.4 " class="primitive"/>
    </g>
    <g transform="translate(10.77,117.6)" stroke="#77C13E">
      <path fill="none" d="M-3.99,0 L3.99,0 " class="primitive"/>
    </g>
    <g transform="translate(14.76,117.6)" stroke="#77C13E">
      <path fill="none" d="M0,4.8 L0,-4.8 " class="primitive"/>
    </g>
    <g transform="translate(5.87,108)" stroke="#77C13E">
      <path fill="none" d="M-0.91,0 L0.91,0 " class="primitive"/>
    </g>
    <g transform="translate(6.78,108)" stroke="#77C13E">
      <path fill="none" d="M0,9.6 L0,-9.6 " class="primitive"/>
    </g>
    <g transform="translate(4.35,88.8)" stroke="#77C13E">
      <path fill="none" d="M-0.6,0 L0.6,0 " class="primitive"/>
    </g>
    <g transform="translate(4.95,88.8)" stroke="#77C13E">
      <path fill="none" d="M0,19.2 L0,-19.2 " class="primitive"/>
    </g>
    <g transform="translate(3.75,57.75)" stroke="#000000">
      <path fill="none" d="M0,0 L0,0 " class="primitive"/>
    </g>
    <g transform="translate(3.75,57.75)" stroke="#000000">
      <path fill="none" d="M0,31.05 L0,-31.05 " class="primitive"/>
    </g>
    <g transform="translate(3.75,31.87)" stroke="#000000">
      <path fill="none" d="M0,0 L0,0 " class="primitive"/>
    </g>
    <g transform="translate(3.75,31.88)" stroke="#000000">
      <path fill="none" d="M0,25.88 L0,-25.88 " class="primitive"/>
    </g>
  </g>
  <g stroke-opacity="1" stroke-width="0.3" id="img-d6e1d110-4">
    <g transform="translate(21.46,36.6)" stroke="#77C13E">
      <path fill="none" d="M0,5.4 L0,-5.4 " class="primitive"/>
    </g>
    <g transform="translate(8.64,26.7)" stroke="#77C13E">
      <path fill="none" d="M-4.89,0 L4.89,0 " class="primitive"/>
    </g>
    <g transform="translate(13.52,26.7)" stroke="#77C13E">
      <path fill="none" d="M0,9.9 L0,-9.9 " class="primitive"/>
    </g>
    <g transform="translate(30.92,51.6)" stroke="#77C13E">
      <path fill="none" d="M-0.81,0 L0.81,0 " class="primitive"/>
    </g>
    <g transform="translate(40.03,54)" stroke="#77C13E">
      <path fill="none" d="M-9.92,0 L9.92,0 " class="primitive"/>
    </g>
    <g transform="translate(24.18,52.8)" stroke="#77C13E">
      <path fill="none" d="M-5.93,0 L5.93,0 " class="primitive"/>
    </g>
    <g transform="translate(30.11,52.8)" stroke="#77C13E">
      <path fill="none" d="M0,1.2 L0,-1.2 " class="primitive"/>
    </g>
    <g transform="translate(24,56.4)" stroke="#77C13E">
      <path fill="none" d="M-3.12,0 L3.12,0 " class="primitive"/>
    </g>
    <g transform="translate(24.81,58.8)" stroke="#77C13E">
      <path fill="none" d="M-3.93,0 L3.93,0 " class="primitive"/>
    </g>
    <g transform="translate(19.56,57.6)" stroke="#77C13E">
      <path fill="none" d="M-1.31,0 L1.31,0 " class="primitive"/>
    </g>
    <g transform="translate(20.88,57.6)" stroke="#77C13E">
      <path fill="none" d="M0,1.2 L0,-1.2 " class="primitive"/>
    </g>
    <g transform="translate(14.49,55.2)" stroke="#77C13E">
      <path fill="none" d="M-3.76,0 L3.76,0 " class="primitive"/>
    </g>
    <g transform="translate(18.25,55.2)" stroke="#77C13E">
      <path fill="none" d="M0,2.4 L0,-2.4 " class="primitive"/>
    </g>
    <g transform="translate(36.4,61.2)" stroke="#77C13E">
      <path fill="none" d="M-2.77,0 L2.77,0 " class="primitive"/>
    </g>
    <g transform="translate(33.82,63.6)" stroke="#77C13E">
      <path fill="none" d="M-0.19,0 L0.19,0 " class="primitive"/>
    </g>
    <g transform="translate(28.43,62.4)" stroke="#77C13E">
      <path fill="none" d="M-5.2,0 L5.2,0 " class="primitive"/>
    </g>
    <g transform="translate(33.63,62.4)" stroke="#77C13E">
      <path fill="none" d="M0,1.2 L0,-1.2 " class="primitive"/>
    </g>
    <g transform="translate(41.69,66)" stroke="#77C13E">
      <path fill="none" d="M-5.75,0 L5.75,0 " class="primitive"/>
    </g>
    <g transform="translate(39.42,68.4)" stroke="#77C13E">
      <path fill="none" d="M-3.48,0 L3.48,0 " class="primitive"/>
    </g>
    <g transform="translate(29.59,67.2)" stroke="#77C13E">
      <path fill="none" d="M-6.35,0 L6.35,0 " class="primitive"/>
    </g>
    <g transform="translate(35.94,67.2)" stroke="#77C13E">
      <path fill="none" d="M0,1.2 L0,-1.2 " class="primitive"/>
    </g>
    <g transform="translate(16.98,64.8)" stroke="#77C13E">
      <path fill="none" d="M-6.25,0 L6.25,0 " class="primitive"/>
    </g>
    <g transform="translate(23.24,64.8)" stroke="#77C13E">
      <path fill="none" d="M0,2.4 L0,-2.4 " class="primitive"/>
    </g>
    <g transform="translate(9.26,60)" stroke="#77C13E">
      <path fill="none" d="M-1.48,0 L1.48,0 " class="primitive"/>
    </g>
    <g transform="translate(10.73,60)" stroke="#77C13E">
      <path fill="none" d="M0,4.8 L0,-4.8 " class="primitive"/>
    </g>
    <g transform="translate(36.73,70.8)" stroke="#77C13E">
      <path fill="none" d="M-6.57,0 L6.57,0 " class="primitive"/>
    </g>
    <g transform="translate(33.49,73.2)" stroke="#77C13E">
      <path fill="none" d="M-3.33,0 L3.33,0 " class="primitive"/>
    </g>
    <g transform="translate(24.83,72)" stroke="#77C13E">
      <path fill="none" d="M-5.33,0 L5.33,0 " class="primitive"/>
    </g>
    <g transform="translate(30.16,72)" stroke="#77C13E">
      <path fill="none" d="M0,1.2 L0,-1.2 " class="primitive"/>
    </g>
    <g transform="translate(30.2,75.6)" stroke="#77C13E">
      <path fill="none" d="M-5.07,0 L5.07,0 " class="primitive"/>
    </g>
    <g transform="translate(26.29,78)" stroke="#77C13E">
      <path fill="none" d="M-1.17,0 L1.17,0 " class="primitive"/>
    </g>
    <g transform="translate(22.31,76.8)" stroke="#77C13E">
      <path fill="none" d="M-2.82,0 L2.82,0 " class="primitive"/>
    </g>
    <g transform="translate(25.13,76.8)" stroke="#77C13E">
      <path fill="none" d="M0,1.2 L0,-1.2 " class="primitive"/>
    </g>
    <g transform="translate(15.42,74.4)" stroke="#77C13E">
      <path fill="none" d="M-4.07,0 L4.07,0 " class="primitive"/>
    </g>
    <g transform="translate(19.49,74.4)" stroke="#77C13E">
      <path fill="none" d="M0,2.4 L0,-2.4 " class="primitive"/>
    </g>
    <g transform="translate(37.69,80.4)" stroke="#77C13E">
      <path fill="none" d="M-5.78,0 L5.78,0 " class="primitive"/>
    </g>
    <g transform="translate(33.8,82.8)" stroke="#77C13E">
      <path fill="none" d="M-1.9,0 L1.9,0 " class="primitive"/>
    </g>
    <g transform="translate(24.58,81.6)" stroke="#77C13E">
      <path fill="none" d="M-7.32,0 L7.32,0 " class="primitive"/>
    </g>
    <g transform="translate(31.91,81.6)" stroke="#77C13E">
      <path fill="none" d="M0,1.2 L0,-1.2 " class="primitive"/>
    </g>
    <g transform="translate(34.25,85.2)" stroke="#77C13E">
      <path fill="none" d="M-8.28,0 L8.28,0 " class="primitive"/>
    </g>
    <g transform="translate(32.8,87.6)" stroke="#77C13E">
      <path fill="none" d="M-6.83,0 L6.83,0 " class="primitive"/>
    </g>
    <g transform="translate(21.61,86.4)" stroke="#77C13E">
      <path fill="none" d="M-4.36,0 L4.36,0 " class="primitive"/>
    </g>
    <g transform="translate(25.97,86.4)" stroke="#77C13E">
      <path fill="none" d="M0,1.2 L0,-1.2 " class="primitive"/>
    </g>
    <g transform="translate(14.31,84)" stroke="#77C13E">
      <path fill="none" d="M-2.95,0 L2.95,0 " class="primitive"/>
    </g>
    <g transform="translate(17.26,84)" stroke="#77C13E">
      <path fill="none" d="M0,2.4 L0,-2.4 " class="primitive"/>
    </g>
    <g transform="translate(9.57,79.2)" stroke="#77C13E">
      <path fill="none" d="M-1.79,0 L1.79,0 " class="primitive"/>
    </g>
    <g transform="translate(11.35,79.2)" stroke="#77C13E">
      <path fill="none" d="M0,4.8 L0,-4.8 " class="primitive"/>
    </g>
    <g transform="translate(6.37,69.6)" stroke="#77C13E">
      <path fill="none" d="M-1.41,0 L1.41,0 " class="primitive"/>
    </g>
    <g transform="translate(7.78,69.6)" stroke="#77C13E">
      <path fill="none" d="M0,9.6 L0,-9.6 " class="primitive"/>
    </g>
    <g transform="translate(20.7,90)" stroke="#77C13E">
      <path fill="none" d="M-1.38,0 L1.38,0 " class="primitive"/>
    </g>
    <g transform="translate(21.36,92.4)" stroke="#77C13E">
      <path fill="none" d="M-2.05,0 L2.05,0 " class="primitive"/>
    </g>
  </g>
</g>
<g fill-opacity="1" id="img-d6e1d110-5">
  <g transform="translate(4.93,6)" fill="#77C13E">
    <circle cx="0" cy="0" r="0.75" class="primitive"/>
  </g>
  <g transform="translate(60.81,8.4)" fill="#77C13E">
    <circle cx="0" cy="0" r="0.75" class="primitive"/>
  </g>
  <g transform="translate(51.9,10.8)" fill="#77C13E">
    <circle cx="0" cy="0" r="0.75" class="primitive"/>
  </g>
  <g transform="translate(47.32,9.6)" fill="#77C13E">
    <circle cx="0" cy="0" r="0.75" class="primitive"/>
  </g>
  <g transform="translate(59.48,13.2)" fill="#77C13E">
    <circle cx="0" cy="0" r="0.75" class="primitive"/>
  </g>
  <g transform="translate(41.05,15.6)" fill="#77C13E">
    <circle cx="0" cy="0" r="0.75" class="primitive"/>
  </g>
  <g transform="translate(36.84,14.4)" fill="#28A08B">
    <circle cx="0" cy="0" r="0.75" class="primitive"/>
  </g>
  <g transform="translate(36.28,12)" fill="#77C13E">
    <circle cx="0" cy="0" r="0.75" class="primitive"/>
  </g>
  <g transform="translate(32.88,18)" fill="#77C13E">
    <circle cx="0" cy="0" r="0.75" class="primitive"/>
  </g>
  <g transform="translate(30.57,20.4)" fill="#77C13E">
    <circle cx="0" cy="0" r="0.75" class="primitive"/>
  </g>
  <g transform="translate(23.16,19.2)" fill="#77C13E">
    <circle cx="0" cy="0" r="0.75" class="primitive"/>
  </g>
  <g transform="translate(40.89,22.8)" fill="#77C13E">
    <circle cx="0" cy="0" r="0.75" class="primitive"/>
  </g>
  <g transform="translate(44.43,25.2)" fill="#77C13E">
    <circle cx="0" cy="0" r="0.75" class="primitive"/>
  </g>
  <g transform="translate(40.23,24)" fill="#77C13E">
    <circle cx="0" cy="0" r="0.75" class="primitive"/>
  </g>
  <g transform="translate(22.26,21.6)" fill="#77C13E">
    <circle cx="0" cy="0" r="0.75" class="primitive"/>
  </g>
  <g transform="translate(20.64,16.8)" fill="#77C13E">
    <circle cx="0" cy="0" r="0.75" class="primitive"/>
  </g>
  <g transform="translate(67.41,27.6)" fill="#77C13E">
    <circle cx="0" cy="0" r="0.75" class="primitive"/>
  </g>
  <g transform="translate(57.79,30)" fill="#28A08B">
    <circle cx="0" cy="0" r="0.75" class="primitive"/>
  </g>
  <g transform="translate(31.01,28.8)" fill="#77C13E">
    <circle cx="0" cy="0" r="0.75" class="primitive"/>
  </g>
  <g transform="translate(51.9,32.4)" fill="#77C13E">
    <circle cx="0" cy="0" r="0.75" class="primitive"/>
  </g>
  <g transform="translate(45.99,34.8)" fill="#28A08B">
    <circle cx="0" cy="0" r="0.75" class="primitive"/>
  </g>
  <g transform="translate(31.41,33.6)" fill="#77C13E">
    <circle cx="0" cy="0" r="0.75" class="primitive"/>
  </g>
  <g transform="translate(26.22,31.2)" fill="#77C13E">
    <circle cx="0" cy="0" r="0.75" class="primitive"/>
  </g>
  <g transform="translate(64.05,37.2)" fill="#77C13E">
    <circle cx="0" cy="0" r="0.75" class="primitive"/>
  </g>
  <g transform="translate(66.56,39.6)" fill="#77C13E">
    <circle cx="0" cy="0" r="0.75" class="primitive"/>
  </g>
  <g transform="translate(50.36,38.4)" fill="#77C13E">
    <circle cx="0" cy="0" r="0.75" class="primitive"/>
  </g>
  <g transform="translate(44.49,42)" fill="#77C13E">
    <circle cx="0" cy="0" r="0.75" class="primitive"/>
  </g>
  <g transform="translate(45.09,44.4)" fill="#28A08B">
    <circle cx="0" cy="0" r="0.75" class="primitive"/>
  </g>
  <g transform="translate(43.69,43.2)" fill="#77C13E">
    <circle cx="0" cy="0" r="0.75" class="primitive"/>
  </g>
  <g transform="translate(40.32,46.8)" fill="#77C13E">
    <circle cx="0" cy="0" r="0.75" class="primitive"/>
  </g>
  <g transform="translate(51.08,49.2)" fill="#77C13E">
    <circle cx="0" cy="0" r="0.75" class="primitive"/>
  </g>
  <g transform="translate(39.01,48)" fill="#77C13E">
    <circle cx="0" cy="0" r="0.75" class="primitive"/>
  </g>
  <g transform="translate(34.86,45.6)" fill="#77C13E">
    <circle cx="0" cy="0" r="0.75" class="primitive"/>
  </g>
  <g transform="translate(27.4,42)" fill="#77C13E">
    <circle cx="0" cy="0" r="0.75" class="primitive"/>
  </g>
  <g transform="translate(21.46,36.6)" fill="#77C13E">
    <circle cx="0" cy="0" r="0.75" class="primitive"/>
  </g>
  <g transform="translate(13.52,26.7)" fill="#77C13E">
    <circle cx="0" cy="0" r="0.75" class="primitive"/>
  </g>
  <g transform="translate(31.72,51.6)" fill="#77C13E">
    <circle cx="0" cy="0" r="0.75" class="primitive"/>
  </g>
  <g transform="translate(49.94,54)" fill="#77C13E">
    <circle cx="0" cy="0" r="0.75" class="primitive"/>
  </g>
  <g transform="translate(30.11,52.8)" fill="#77C13E">
    <circle cx="0" cy="0" r="0.75" class="primitive"/>
  </g>
  <g transform="translate(27.11,56.4)" fill="#77C13E">
    <circle cx="0" cy="0" r="0.75" class="primitive"/>
  </g>
  <g transform="translate(28.74,58.8)" fill="#77C13E">
    <circle cx="0" cy="0" r="0.75" class="primitive"/>
  </g>
  <g transform="translate(20.88,57.6)" fill="#77C13E">
    <circle cx="0" cy="0" r="0.75" class="primitive"/>
  </g>
  <g transform="translate(18.25,55.2)" fill="#77C13E">
    <circle cx="0" cy="0" r="0.75" class="primitive"/>
  </g>
  <g transform="translate(39.16,61.2)" fill="#77C13E">
    <circle cx="0" cy="0" r="0.75" class="primitive"/>
  </g>
  <g transform="translate(34,63.6)" fill="#77C13E">
    <circle cx="0" cy="0" r="0.75" class="primitive"/>
  </g>
  <g transform="translate(33.63,62.4)" fill="#77C13E">
    <circle cx="0" cy="0" r="0.75" class="primitive"/>
  </g>
  <g transform="translate(47.45,66)" fill="#77C13E">
    <circle cx="0" cy="0" r="0.75" class="primitive"/>
  </g>
  <g transform="translate(42.89,68.4)" fill="#77C13E">
    <circle cx="0" cy="0" r="0.75" class="primitive"/>
  </g>
  <g transform="translate(35.94,67.2)" fill="#77C13E">
    <circle cx="0" cy="0" r="0.75" class="primitive"/>
  </g>
  <g transform="translate(23.24,64.8)" fill="#77C13E">
    <circle cx="0" cy="0" r="0.75" class="primitive"/>
  </g>
  <g transform="translate(10.73,60)" fill="#77C13E">
    <circle cx="0" cy="0" r="0.75" class="primitive"/>
  </g>
  <g fill-opacity="1" fill="#000000" id="img-d6e1d110-6">
    <g transform="translate(3.75,31.87)">
      <circle cx="0" cy="0" r="0.75" class="primitive"/>
    </g>
  </g>
  <g fill-opacity="1" id="img-d6e1d110-7">
    <g transform="translate(10.73,60)" fill="#77C13E">
      <circle cx="0" cy="0" r="0.75" class="primitive"/>
    </g>
    <g transform="translate(43.3,70.8)" fill="#77C13E">
      <circle cx="0" cy="0" r="0.75" class="primitive"/>
    </g>
    <g transform="translate(36.82,73.2)" fill="#77C13E">
      <circle cx="0" cy="0" r="0.75" class="primitive"/>
    </g>
    <g transform="translate(30.16,72)" fill="#77C13E">
      <circle cx="0" cy="0" r="0.75" class="primitive"/>
    </g>
    <g transform="translate(35.27,75.6)" fill="#77C13E">
      <circle cx="0" cy="0" r="0.75" class="primitive"/>
    </g>
    <g transform="translate(27.46,78)" fill="#77C13E">
      <circle cx="0" cy="0" r="0.75" class="primitive"/>
    </g>
    <g transform="translate(25.13,76.8)" fill="#77C13E">
      <circle cx="0" cy="0" r="0.75" class="primitive"/>
    </g>
    <g transform="translate(19.49,74.4)" fill="#77C13E">
      <circle cx="0" cy="0" r="0.75" class="primitive"/>
    </g>
    <g transform="translate(43.47,80.4)" fill="#77C13E">
      <circle cx="0" cy="0" r="0.75" class="primitive"/>
    </g>
    <g transform="translate(35.7,82.8)" fill="#77C13E">
      <circle cx="0" cy="0" r="0.75" class="primitive"/>
    </g>
    <g transform="translate(31.91,81.6)" fill="#77C13E">
      <circle cx="0" cy="0" r="0.75" class="primitive"/>
    </g>
    <g transform="translate(42.52,85.2)" fill="#77C13E">
      <circle cx="0" cy="0" r="0.75" class="primitive"/>
    </g>
    <g transform="translate(39.63,87.6)" fill="#77C13E">
      <circle cx="0" cy="0" r="0.75" class="primitive"/>
    </g>
    <g transform="translate(25.97,86.4)" fill="#77C13E">
      <circle cx="0" cy="0" r="0.75" class="primitive"/>
    </g>
    <g transform="translate(17.26,84)" fill="#77C13E">
      <circle cx="0" cy="0" r="0.75" class="primitive"/>
    </g>
    <g transform="translate(11.35,79.2)" fill="#77C13E">
      <circle cx="0" cy="0" r="0.75" class="primitive"/>
    </g>
    <g transform="translate(7.78,69.6)" fill="#77C13E">
      <circle cx="0" cy="0" r="0.75" class="primitive"/>
    </g>
    <g transform="translate(22.09,90)" fill="#77C13E">
      <circle cx="0" cy="0" r="0.75" class="primitive"/>
    </g>
    <g transform="translate(23.41,92.4)" fill="#77C13E">
      <circle cx="0" cy="0" r="0.75" class="primitive"/>
    </g>
    <g transform="translate(19.32,91.2)" fill="#28A08B">
      <circle cx="0" cy="0" r="0.75" class="primitive"/>
    </g>
    <g transform="translate(64.47,94.8)" fill="#77C13E">
      <circle cx="0" cy="0" r="0.75" class="primitive"/>
    </g>
    <g transform="translate(54.43,97.2)" fill="#77C13E">
      <circle cx="0" cy="0" r="0.75" class="primitive"/>
    </g>
    <g transform="translate(54.33,96)" fill="#77C13E">
      <circle cx="0" cy="0" r="0.75" class="primitive"/>
    </g>
    <g transform="translate(15.74,93.6)" fill="#77C13E">
      <circle cx="0" cy="0" r="0.75" class="primitive"/>
    </g>
    <g transform="translate(21.34,99.6)" fill="#77C13E">
      <circle cx="0" cy="0" r="0.75" class="primitive"/>
    </g>
    <g transform="translate(26.46,102)" fill="#77C13E">
      <circle cx="0" cy="0" r="0.75" class="primitive"/>
    </g>
    <g transform="translate(20.73,100.8)" fill="#28A08B">
      <circle cx="0" cy="0" r="0.75" class="primitive"/>
    </g>
    <g transform="translate(22.3,104.4)" fill="#28A08B">
      <circle cx="0" cy="0" r="0.75" class="primitive"/>
    </g>
    <g transform="translate(50.84,106.8)" fill="#77C13E">
      <circle cx="0" cy="0" r="0.75" class="primitive"/>
    </g>
    <g transform="translate(21.4,105.6)" fill="#77C13E">
      <circle cx="0" cy="0" r="0.75" class="primitive"/>
    </g>
    <g transform="translate(12.42,103.2)" fill="#77C13E">
      <circle cx="0" cy="0" r="0.75" class="primitive"/>
    </g>
    <g transform="translate(7.79,98.4)" fill="#77C13E">
      <circle cx="0" cy="0" r="0.75" class="primitive"/>
    </g>
    <g transform="translate(21.76,109.2)" fill="#77C13E">
      <circle cx="0" cy="0" r="0.75" class="primitive"/>
    </g>
    <g transform="translate(22.25,111.6)" fill="#77C13E">
      <circle cx="0" cy="0" r="0.75" class="primitive"/>
    </g>
    <g transform="translate(16.17,110.4)" fill="#77C13E">
      <circle cx="0" cy="0" r="0.75" class="primitive"/>
    </g>
    <g transform="translate(78.75,114)" fill="#77C13E">
      <circle cx="0" cy="0" r="0.75" class="primitive"/>
    </g>
    <g transform="translate(77.58,116.4)" fill="#77C13E">
      <circle cx="0" cy="0" r="0.75" class="primitive"/>
    </g>
    <g transform="translate(70.94,115.2)" fill="#77C13E">
      <circle cx="0" cy="0" r="0.75" class="primitive"/>
    </g>
    <g transform="translate(15.84,112.8)" fill="#77C13E">
      <circle cx="0" cy="0" r="0.75" class="primitive"/>
    </g>
    <g transform="translate(59.21,118.8)" fill="#28A08B">
      <circle cx="0" cy="0" r="0.75" class="primitive"/>
    </g>
    <g transform="translate(45.3,121.2)" fill="#77C13E">
      <circle cx="0" cy="0" r="0.75" class="primitive"/>
    </g>
    <g transform="translate(44.43,120)" fill="#28A08B">
      <circle cx="0" cy="0" r="0.75" class="primitive"/>
    </g>
    <g transform="translate(48.25,123.6)" fill="#77C13E">
      <circle cx="0" cy="0" r="0.75" class="primitive"/>
    </g>
    <g transform="translate(68.22,126)" fill="#77C13E">
      <circle cx="0" cy="0" r="0.75" class="primitive"/>
    </g>
    <g transform="translate(44.32,124.8)" fill="#77C13E">
      <circle cx="0" cy="0" r="0.75" class="primitive"/>
    </g>
    <g transform="translate(37.94,122.4)" fill="#77C13E">
      <circle cx="0" cy="0" r="0.75" class="primitive"/>
    </g>
    <g transform="translate(14.76,117.6)" fill="#77C13E">
      <circle cx="0" cy="0" r="0.75" class="primitive"/>
    </g>
    <g transform="translate(6.78,108)" fill="#77C13E">
      <circle cx="0" cy="0" r="0.75" class="primitive"/>
    </g>
    <g transform="translate(4.95,88.8)" fill="#77C13E">
      <circle cx="0" cy="0" r="0.75" class="primitive"/>
    </g>
    <g transform="translate(3.75,57.75)" fill="#000000">
      <circle cx="0" cy="0" r="0.75" class="primitive"/>
    </g>
    <g transform="translate(3.75,31.87)" fill="#000000">
      <circle cx="0" cy="0" r="0.75" class="primitive"/>
    </g>
  </g>
</g>
<g stroke-opacity="1" fill-opacity="1" font-size="1.41" stroke-width="0.1" id="img-d6e1d110-8">
  <g transform="translate(6.81,6)" stroke="#000000">
    <g class="primitive">
      <text dy="0.35em">N50</text>
    </g>
  </g>
  <g transform="translate(62.69,8.4)" stroke="#000000">
    <g class="primitive">
      <text dy="0.35em">N36</text>
    </g>
  </g>
  <g transform="translate(53.78,10.8)" stroke="#000000">
    <g class="primitive">
      <text dy="0.35em">N37</text>
    </g>
  </g>
  <g transform="translate(49.2,9.6)" stroke="#000000">
    <g class="primitive">
      <text dy="0.35em">N69</text>
    </g>
  </g>
  <g transform="translate(61.36,13.2)" stroke="#000000">
    <g class="primitive">
      <text dy="0.35em">N38</text>
    </g>
  </g>
  <g transform="translate(42.93,15.6)" stroke="#000000">
    <g class="primitive">
      <text dy="0.35em">N39</text>
    </g>
  </g>
  <g transform="translate(38.71,14.4)" stroke="#000000">
    <g class="primitive">
      <text dy="0.35em">N70</text>
    </g>
  </g>
  <g transform="translate(38.16,12)" stroke="#000000">
    <g class="primitive">
      <text dy="0.35em">N85</text>
    </g>
  </g>
  <g transform="translate(34.75,18)" stroke="#000000">
    <g class="primitive">
      <text dy="0.35em">N40</text>
    </g>
  </g>
  <g transform="translate(32.45,20.4)" stroke="#000000">
    <g class="primitive">
      <text dy="0.35em">N41</text>
    </g>
  </g>
  <g transform="translate(25.03,19.2)" stroke="#000000">
    <g class="primitive">
      <text dy="0.35em">N71</text>
    </g>
  </g>
  <g transform="translate(42.76,22.8)" stroke="#000000">
    <g class="primitive">
      <text dy="0.35em">N42</text>
    </g>
  </g>
  <g transform="translate(46.3,25.2)" stroke="#000000">
    <g class="primitive">
      <text dy="0.35em">N43</text>
    </g>
  </g>
  <g transform="translate(42.11,24)" stroke="#000000">
    <g class="primitive">
      <text dy="0.35em">N72</text>
    </g>
  </g>
  <g transform="translate(24.14,21.6)" stroke="#000000">
    <g class="primitive">
      <text dy="0.35em">N86</text>
    </g>
  </g>
  <g transform="translate(22.51,16.8)" stroke="#000000">
    <g class="primitive">
      <text dy="0.35em">N93</text>
    </g>
  </g>
  <g transform="translate(69.29,27.6)" stroke="#000000">
    <g class="primitive">
      <text dy="0.35em">N44</text>
    </g>
  </g>
  <g transform="translate(59.67,30)" stroke="#000000">
    <g class="primitive">
      <text dy="0.35em">N45</text>
    </g>
  </g>
  <g transform="translate(32.88,28.8)" stroke="#000000">
    <g class="primitive">
      <text dy="0.35em">N73</text>
    </g>
  </g>
  <g transform="translate(53.77,32.4)" stroke="#000000">
    <g class="primitive">
      <text dy="0.35em">N46</text>
    </g>
  </g>
  <g transform="translate(47.87,34.8)" stroke="#000000">
    <g class="primitive">
      <text dy="0.35em">N47</text>
    </g>
  </g>
  <g transform="translate(33.28,33.6)" stroke="#000000">
    <g class="primitive">
      <text dy="0.35em">N74</text>
    </g>
  </g>
  <g transform="translate(28.1,31.2)" stroke="#000000">
    <g class="primitive">
      <text dy="0.35em">N87</text>
    </g>
  </g>
  <g transform="translate(65.93,37.2)" stroke="#000000">
    <g class="primitive">
      <text dy="0.35em">N48</text>
    </g>
  </g>
  <g transform="translate(68.43,39.6)" stroke="#000000">
    <g class="primitive">
      <text dy="0.35em">N49</text>
    </g>
  </g>
  <g transform="translate(52.24,38.4)" stroke="#000000">
    <g class="primitive">
      <text dy="0.35em">N75</text>
    </g>
  </g>
  <g transform="translate(46.37,42)" stroke="#000000">
    <g class="primitive">
      <text dy="0.35em">N0</text>
    </g>
  </g>
  <g transform="translate(46.97,44.4)" stroke="#000000">
    <g class="primitive">
      <text dy="0.35em">N1</text>
    </g>
  </g>
  <g transform="translate(45.56,43.2)" stroke="#000000">
    <g class="primitive">
      <text dy="0.35em">N51</text>
    </g>
  </g>
  <g transform="translate(42.19,46.8)" stroke="#000000">
    <g class="primitive">
      <text dy="0.35em">N2</text>
    </g>
  </g>
  <g transform="translate(52.96,49.2)" stroke="#000000">
    <g class="primitive">
      <text dy="0.35em">N3</text>
    </g>
  </g>
  <g transform="translate(40.89,48)" stroke="#000000">
    <g class="primitive">
      <text dy="0.35em">N52</text>
    </g>
  </g>
  <g transform="translate(36.73,45.6)" stroke="#000000">
    <g class="primitive">
      <text dy="0.35em">N76</text>
    </g>
  </g>
  <g transform="translate(29.27,42)" stroke="#000000">
    <g class="primitive">
      <text dy="0.35em">N88</text>
    </g>
  </g>
  <g transform="translate(23.34,36.6)" stroke="#000000">
    <g class="primitive">
      <text dy="0.35em">N94</text>
    </g>
  </g>
  <g transform="translate(15.4,26.7)" stroke="#000000">
    <g class="primitive">
      <text dy="0.35em">N97</text>
    </g>
  </g>
  <g transform="translate(33.6,51.6)" stroke="#000000">
    <g class="primitive">
      <text dy="0.35em">N4</text>
    </g>
  </g>
  <g transform="translate(51.82,54)" stroke="#000000">
    <g class="primitive">
      <text dy="0.35em">N5</text>
    </g>
  </g>
  <g transform="translate(31.99,52.8)" stroke="#000000">
    <g class="primitive">
      <text dy="0.35em">N53</text>
    </g>
  </g>
  <g transform="translate(28.99,56.4)" stroke="#000000">
    <g class="primitive">
      <text dy="0.35em">N6</text>
    </g>
  </g>
  <g transform="translate(30.62,58.8)" stroke="#000000">
    <g class="primitive">
      <text dy="0.35em">N7</text>
    </g>
  </g>
  <g transform="translate(22.75,57.6)" stroke="#000000">
    <g class="primitive">
      <text dy="0.35em">N54</text>
    </g>
  </g>
  <g transform="translate(20.12,55.2)" stroke="#000000">
    <g class="primitive">
      <text dy="0.35em">N77</text>
    </g>
  </g>
  <g transform="translate(41.04,61.2)" stroke="#000000">
    <g class="primitive">
      <text dy="0.35em">N8</text>
    </g>
  </g>
  <g transform="translate(35.88,63.6)" stroke="#000000">
    <g class="primitive">
      <text dy="0.35em">N9</text>
    </g>
  </g>
  <g transform="translate(35.51,62.4)" stroke="#000000">
    <g class="primitive">
      <text dy="0.35em">N55</text>
    </g>
  </g>
  <g transform="translate(49.32,66)" stroke="#000000">
    <g class="primitive">
      <text dy="0.35em">N10</text>
    </g>
  </g>
  <g transform="translate(44.77,68.4)" stroke="#000000">
    <g class="primitive">
      <text dy="0.35em">N11</text>
    </g>
  </g>
  <g transform="translate(37.82,67.2)" stroke="#000000">
    <g class="primitive">
      <text dy="0.35em">N56</text>
    </g>
  </g>
  <g transform="translate(25.11,64.8)" stroke="#000000">
    <g class="primitive">
      <text dy="0.35em">N78</text>
    </g>
  </g>
  <g transform="translate(12.61,60)" stroke="#000000">
    <g class="primitive">
      <text dy="0.35em">N89</text>
    </g>
  </g>
  <g stroke-opacity="1" fill-opacity="1" font-size="1.41" stroke-width="0.1" stroke="#000000" fill="#000000" id="img-d6e1d110-9">
    <g transform="translate(5.63,31.87)">
      <g class="primitive">
        <text dy="0.35em"></text>
      </g>
    </g>
  </g>
  <g stroke-opacity="1" fill-opacity="1" font-size="1.41" stroke-width="0.1" id="img-d6e1d110-10">
    <g transform="translate(12.61,60)" stroke="#000000">
      <g class="primitive">
        <text dy="0.35em">N89</text>
      </g>
    </g>
    <g transform="translate(45.17,70.8)" stroke="#000000">
      <g class="primitive">
        <text dy="0.35em">N12</text>
      </g>
    </g>
    <g transform="translate(38.7,73.2)" stroke="#000000">
      <g class="primitive">
        <text dy="0.35em">N13</text>
      </g>
    </g>
    <g transform="translate(32.04,72)" stroke="#000000">
      <g class="primitive">
        <text dy="0.35em">N57</text>
      </g>
    </g>
    <g transform="translate(37.15,75.6)" stroke="#000000">
      <g class="primitive">
        <text dy="0.35em">N14</text>
      </g>
    </g>
    <g transform="translate(29.33,78)" stroke="#000000">
      <g class="primitive">
        <text dy="0.35em">N15</text>
      </g>
    </g>
    <g transform="translate(27,76.8)" stroke="#000000">
      <g class="primitive">
        <text dy="0.35em">N58</text>
      </g>
    </g>
    <g transform="translate(21.37,74.4)" stroke="#000000">
      <g class="primitive">
        <text dy="0.35em">N79</text>
      </g>
    </g>
    <g transform="translate(45.34,80.4)" stroke="#000000">
      <g class="primitive">
        <text dy="0.35em">N16</text>
      </g>
    </g>
    <g transform="translate(37.57,82.8)" stroke="#000000">
      <g class="primitive">
        <text dy="0.35em">N17</text>
      </g>
    </g>
    <g transform="translate(33.78,81.6)" stroke="#000000">
      <g class="primitive">
        <text dy="0.35em">N59</text>
      </g>
    </g>
    <g transform="translate(44.4,85.2)" stroke="#000000">
      <g class="primitive">
        <text dy="0.35em">N18</text>
      </g>
    </g>
    <g transform="translate(41.5,87.6)" stroke="#000000">
      <g class="primitive">
        <text dy="0.35em">N19</text>
      </g>
    </g>
    <g transform="translate(27.84,86.4)" stroke="#000000">
      <g class="primitive">
        <text dy="0.35em">N60</text>
      </g>
    </g>
    <g transform="translate(19.13,84)" stroke="#000000">
      <g class="primitive">
        <text dy="0.35em">N80</text>
      </g>
    </g>
    <g transform="translate(13.23,79.2)" stroke="#000000">
      <g class="primitive">
        <text dy="0.35em">N90</text>
      </g>
    </g>
    <g transform="translate(9.66,69.6)" stroke="#000000">
      <g class="primitive">
        <text dy="0.35em">N95</text>
      </g>
    </g>
    <g transform="translate(23.96,90)" stroke="#000000">
      <g class="primitive">
        <text dy="0.35em">N20</text>
      </g>
    </g>
    <g transform="translate(25.29,92.4)" stroke="#000000">
      <g class="primitive">
        <text dy="0.35em">N21</text>
      </g>
    </g>
    <g transform="translate(21.19,91.2)" stroke="#000000">
      <g class="primitive">
        <text dy="0.35em">N61</text>
      </g>
    </g>
    <g transform="translate(66.34,94.8)" stroke="#000000">
      <g class="primitive">
        <text dy="0.35em">N22</text>
      </g>
    </g>
    <g transform="translate(56.3,97.2)" stroke="#000000">
      <g class="primitive">
        <text dy="0.35em">N23</text>
      </g>
    </g>
    <g transform="translate(56.21,96)" stroke="#000000">
      <g class="primitive">
        <text dy="0.35em">N62</text>
      </g>
    </g>
    <g transform="translate(17.61,93.6)" stroke="#000000">
      <g class="primitive">
        <text dy="0.35em">N81</text>
      </g>
    </g>
    <g transform="translate(23.21,99.6)" stroke="#000000">
      <g class="primitive">
        <text dy="0.35em">N24</text>
      </g>
    </g>
    <g transform="translate(28.33,102)" stroke="#000000">
      <g class="primitive">
        <text dy="0.35em">N25</text>
      </g>
    </g>
    <g transform="translate(22.61,100.8)" stroke="#000000">
      <g class="primitive">
        <text dy="0.35em">N63</text>
      </g>
    </g>
    <g transform="translate(24.18,104.4)" stroke="#000000">
      <g class="primitive">
        <text dy="0.35em">N26</text>
      </g>
    </g>
    <g transform="translate(52.72,106.8)" stroke="#000000">
      <g class="primitive">
        <text dy="0.35em">N27</text>
      </g>
    </g>
    <g transform="translate(23.27,105.6)" stroke="#000000">
      <g class="primitive">
        <text dy="0.35em">N64</text>
      </g>
    </g>
    <g transform="translate(14.3,103.2)" stroke="#000000">
      <g class="primitive">
        <text dy="0.35em">N82</text>
      </g>
    </g>
    <g transform="translate(9.66,98.4)" stroke="#000000">
      <g class="primitive">
        <text dy="0.35em">N91</text>
      </g>
    </g>
    <g transform="translate(23.64,109.2)" stroke="#000000">
      <g class="primitive">
        <text dy="0.35em">N28</text>
      </g>
    </g>
    <g transform="translate(24.13,111.6)" stroke="#000000">
      <g class="primitive">
        <text dy="0.35em">N29</text>
      </g>
    </g>
    <g transform="translate(18.04,110.4)" stroke="#000000">
      <g class="primitive">
        <text dy="0.35em">N65</text>
      </g>
    </g>
    <g transform="translate(80.62,114)" stroke="#000000">
      <g class="primitive">
        <text dy="0.35em">N30</text>
      </g>
    </g>
    <g transform="translate(79.46,116.4)" stroke="#000000">
      <g class="primitive">
        <text dy="0.35em">N31</text>
      </g>
    </g>
    <g transform="translate(72.81,115.2)" stroke="#000000">
      <g class="primitive">
        <text dy="0.35em">N66</text>
      </g>
    </g>
    <g transform="translate(17.71,112.8)" stroke="#000000">
      <g class="primitive">
        <text dy="0.35em">N83</text>
      </g>
    </g>
    <g transform="translate(61.09,118.8)" stroke="#000000">
      <g class="primitive">
        <text dy="0.35em">N32</text>
      </g>
    </g>
    <g transform="translate(47.18,121.2)" stroke="#000000">
      <g class="primitive">
        <text dy="0.35em">N33</text>
      </g>
    </g>
    <g transform="translate(46.31,120)" stroke="#000000">
      <g class="primitive">
        <text dy="0.35em">N67</text>
      </g>
    </g>
    <g transform="translate(50.12,123.6)" stroke="#000000">
      <g class="primitive">
        <text dy="0.35em">N34</text>
      </g>
    </g>
    <g transform="translate(70.09,126)" stroke="#000000">
      <g class="primitive">
        <text dy="0.35em">N35</text>
      </g>
    </g>
    <g transform="translate(46.2,124.8)" stroke="#000000">
      <g class="primitive">
        <text dy="0.35em">N68</text>
      </g>
    </g>
    <g transform="translate(39.81,122.4)" stroke="#000000">
      <g class="primitive">
        <text dy="0.35em">N84</text>
      </g>
    </g>
    <g transform="translate(16.63,117.6)" stroke="#000000">
      <g class="primitive">
        <text dy="0.35em">N92</text>
      </g>
    </g>
    <g transform="translate(8.65,108)" stroke="#000000">
      <g class="primitive">
        <text dy="0.35em">N96</text>
      </g>
    </g>
    <g transform="translate(6.83,88.8)" stroke="#000000">
      <g class="primitive">
        <text dy="0.35em">N98</text>
      </g>
    </g>
    <g transform="translate(5.63,57.75)" stroke="#000000">
      <g class="primitive">
        <text dy="0.35em"></text>
      </g>
    </g>
    <g transform="translate(5.63,31.87)" stroke="#000000">
      <g class="primitive">
        <text dy="0.35em"></text>
      </g>
    </g>
  </g>
</g>
</svg>
