<?xml version="1.0" encoding="UTF-8"?>
<svg xmlns="http://www.w3.org/2000/svg"
     xmlns:xlink="http://www.w3.org/1999/xlink"
     version="1.2"
     width="150mm" height="46mm" viewBox="0 0 150 46"
     stroke="none"
     fill="#000000"
     stroke-width="0.3"
     font-size="3.88"
>
<defs>
  <marker id="arrow" markerWidth="15" markerHeight="7" refX="5" refY="3.5" orient="auto" markerUnits="strokeWidth">
    <path d="M0,0 L15,3.5 L0,7 z" stroke="context-stroke" fill="context-stroke"/>
  </marker>
</defs>
<g stroke-opacity="1" stroke-width="0.3" id="img-29b4c979-1">
  <g transform="translate(5.07,2.09)" stroke="#3B4993">
    <path fill="none" d="M-1.32,0 L1.32,0 " class="primitive"/>
  </g>
  <g transform="translate(7.66,8.06)" stroke="#3B4993">
    <path fill="none" d="M-3.91,0 L3.91,0 " class="primitive"/>
  </g>
  <g transform="translate(27.17,14.04)" stroke="#3B4993">
    <path fill="none" d="M-0.74,0 L0.74,0 " class="primitive"/>
  </g>
  <g transform="translate(28.97,20.01)" stroke="#C96092">
    <path fill="none" d="M-0.87,0 L0.87,0 " class="primitive"/>
  </g>
  <g transform="translate(37.98,25.99)" stroke="#C96092">
    <path fill="none" d="M-4.85,0 L4.85,0 " class="primitive"/>
  </g>
  <g transform="translate(41.77,31.96)" stroke="#C96092">
    <path fill="none" d="M-7.58,0 L7.58,0 " class="primitive"/>
  </g>
  <g transform="translate(62.73,37.94)" stroke="#C96092">
    <path fill="none" d="M-16.02,0 L16.02,0 " class="primitive"/>
  </g>
  <g transform="translate(49.1,43.91)" stroke="#C96092">
    <path fill="none" d="M-2.4,0 L2.4,0 " class="primitive"/>
  </g>
  <g transform="translate(40.45,40.92)" stroke="#C96092">
    <path fill="none" d="M-6.25,0 L6.25,0 " class="primitive"/>
  </g>
  <g transform="translate(46.7,40.92)" stroke="#C96092">
    <path fill="none" d="M0,2.99 L0,-2.99 " class="primitive"/>
  </g>
  <g transform="translate(33.66,36.44)" stroke="#3B4993">
    <path fill="none" d="M-0.53,0 L0.53,0 " class="primitive"/>
  </g>
  <g transform="translate(34.19,36.44)" stroke="#3B4993">
    <path fill="none" d="M0,4.48 L0,-4.48 " class="primitive"/>
  </g>
  <g transform="translate(30.61,31.21)" stroke="#3B4993">
    <path fill="none" d="M-2.52,0 L2.52,0 " class="primitive"/>
  </g>
  <g transform="translate(33.12,31.21)" stroke="#3B4993">
    <path fill="none" d="M0,5.23 L0,-5.23 " class="primitive"/>
  </g>
  <g transform="translate(27.26,25.61)" stroke="#C96092">
    <path fill="none" d="M-0.83,0 L0.83,0 " class="primitive"/>
  </g>
  <g transform="translate(28.09,25.61)" stroke="#C96092">
    <path fill="none" d="M0,5.6 L0,-5.6 " class="primitive"/>
  </g>
  <g transform="translate(15.09,19.83)" stroke="#3B4993">
    <path fill="none" d="M-11.34,0 L11.34,0 " class="primitive"/>
  </g>
  <g transform="translate(26.43,19.83)" stroke="#3B4993">
    <path fill="none" d="M0,5.79 L0,-5.79 " class="primitive"/>
  </g>
  <g transform="translate(3.75,13.95)" stroke="#000000">
    <path fill="none" d="M0,0 L0,0 " class="primitive"/>
  </g>
  <g transform="translate(3.75,13.95)" stroke="#000000">
    <path fill="none" d="M0,5.88 L0,-5.88 " class="primitive"/>
  </g>
  <g transform="translate(3.75,8.02)" stroke="#000000">
    <path fill="none" d="M0,0 L0,0 " class="primitive"/>
  </g>
  <g transform="translate(3.75,8.02)" stroke="#000000">
    <path fill="none" d="M0,5.93 L0,-5.93 " class="primitive"/>
  </g>
</g>
<g fill-opacity="1" id="img-29b4c979-2">
  <g transform="translate(6.39,2.09)" fill="#3B4993">
    <circle cx="0" cy="0" r="0.75" class="primitive"/>
  </g>
  <g transform="translate(11.57,8.06)" fill="#3B4993">
    <circle cx="0" cy="0" r="0.75" class="primitive"/>
  </g>
  <g transform="translate(27.92,14.04)" fill="#3B4993">
    <circle cx="0" cy="0" r="0.75" class="primitive"/>
  </g>
  <g transform="translate(29.84,20.01)" fill="#C96092">
    <circle cx="0" cy="0" r="0.75" class="primitive"/>
  </g>
  <g transform="translate(42.83,25.99)" fill="#C96092">
    <circle cx="0" cy="0" r="0.75" class="primitive"/>
  </g>
  <g transform="translate(49.35,31.96)" fill="#C96092">
    <circle cx="0" cy="0" r="0.75" class="primitive"/>
  </g>
  <g transform="translate(78.75,37.94)" fill="#C96092">
    <circle cx="0" cy="0" r="0.75" class="primitive"/>
  </g>
  <g transform="translate(51.5,43.91)" fill="#C96092">
    <circle cx="0" cy="0" r="0.75" class="primitive"/>
  </g>
  <g transform="translate(46.7,40.92)" fill="#C96092">
    <circle cx="0" cy="0" r="0.75" class="primitive"/>
  </g>
  <g transform="translate(34.19,36.44)" fill="#3B4993">
    <circle cx="0" cy="0" r="0.75" class="primitive"/>
  </g>
  <g transform="translate(33.12,31.21)" fill="#3B4993">
    <circle cx="0" cy="0" r="0.75" class="primitive"/>
  </g>
  <g transform="translate(28.09,25.61)" fill="#C96092">
    <circle cx="0" cy="0" r="0.75" class="primitive"/>
  </g>
  <g transform="translate(26.43,19.83)" fill="#3B4993">
    <circle cx="0" cy="0" r="0.75" class="primitive"/>
  </g>
  <g transform="translate(3.75,13.95)" fill="#000000">
    <circle cx="0" cy="0" r="0.75" class="primitive"/>
  </g>
  <g transform="translate(3.75,8.02)" fill="#000000">
    <circle cx="0" cy="0" r="0.75" class="primitive"/>
  </g>
</g>
<g stroke-opacity="1" fill-opacity="1" font-size="1.41" stroke-width="0.1" id="img-29b4c979-3">
  <g transform="translate(8.26,2.09)" stroke="#000000">
    <g class="primitive">
      <text dy="0.35em">N7</text>
    </g>
  </g>
  <g transform="translate(13.45,8.06)" stroke="#000000">
    <g class="primitive">
      <text dy="0.35em">N6</text>
    </g>
  </g>
  <g transform="translate(29.79,14.04)" stroke="#000000">
    <g class="primitive">
      <text dy="0.35em">N5</text>
    </g>
  </g>
  <g transform="translate(31.72,20.01)" stroke="#000000">
    <g class="primitive">
      <text dy="0.35em">N4</text>
    </g>
  </g>
  <g transform="translate(44.7,25.99)" stroke="#000000">
    <g class="primitive">
      <text dy="0.35em">N3</text>
    </g>
  </g>
  <g transform="translate(51.23,31.96)" stroke="#000000">
    <g class="primitive">
      <text dy="0.35em">N2</text>
    </g>
  </g>
  <g transform="translate(80.62,37.94)" stroke="#000000">
    <g class="primitive">
      <text dy="0.35em">N0</text>
    </g>
  </g>
  <g transform="translate(53.37,43.91)" stroke="#000000">
    <g class="primitive">
      <text dy="0.35em">N1</text>
    </g>
  </g>
  <g transform="translate(48.58,40.92)" stroke="#000000">
    <g class="primitive">
      <text dy="0.35em">N8</text>
    </g>
  </g>
  <g transform="translate(36.07,36.44)" stroke="#000000">
    <g class="primitive">
      <text dy="0.35em">N9</text>
    </g>
  </g>
  <g transform="translate(35,31.21)" stroke="#000000">
    <g class="primitive">
      <text dy="0.35em">N10</text>
    </g>
  </g>
  <g transform="translate(29.97,25.61)" stroke="#000000">
    <g class="primitive">
      <text dy="0.35em">N11</text>
    </g>
  </g>
  <g transform="translate(28.31,19.83)" stroke="#000000">
    <g class="primitive">
      <text dy="0.35em">N12</text>
    </g>
  </g>
  <g transform="translate(5.63,13.95)" stroke="#000000">
    <g class="primitive">
      <text dy="0.35em"></text>
    </g>
  </g>
  <g transform="translate(5.63,8.02)" stroke="#000000">
    <g class="primitive">
      <text dy="0.35em"></text>
    </g>
  </g>
</g>
</svg>
