<?xml version="1.0" encoding="UTF-8"?>
<svg xmlns="http://www.w3.org/2000/svg"
     xmlns:xlink="http://www.w3.org/1999/xlink"
     version="1.2"
     width="150mm" height="104mm" viewBox="0 0 150 104"
     stroke="none"
     fill="#000000"
     stroke-width="0.3"
     font-size="3.88"
>
<defs>
  <marker id="arrow" markerWidth="15" markerHeight="7" refX="5" refY="3.5" orient="auto" markerUnits="strokeWidth">
    <path d="M0,0 L15,3.5 L0,7 z" stroke="context-stroke" fill="context-stroke"/>
  </marker>
</defs>
<g stroke-opacity="1" stroke-width="0.3" id="img-29b4c979-1">
  <g transform="translate(4.59,4.73)" stroke="#7DA23A">
    <path fill="none" d="M-0.84,0 L0.84,0 " class="primitive"/>
  </g>
  <g transform="translate(20.73,7.35)" stroke="#7DA23A">
    <path fill="none" d="M-2.8,0 L2.8,0 " class="primitive"/>
  </g>
  <g transform="translate(20.06,9.98)" stroke="#7DA23A">
    <path fill="none" d="M-2.14,0 L2.14,0 " class="primitive"/>
  </g>
  <g transform="translate(16.76,8.67)" stroke="#7DA23A">
    <path fill="none" d="M-1.17,0 L1.17,0 " class="primitive"/>
  </g>
  <g transform="translate(17.93,8.67)" stroke="#7DA23A">
    <path fill="none" d="M0,1.31 L0,-1.31 " class="primitive"/>
  </g>
  <g transform="translate(24.65,12.61)" stroke="#7DA23A">
    <path fill="none" d="M-4.14,0 L4.14,0 " class="primitive"/>
  </g>
  <g transform="translate(24.04,15.23)" stroke="#7DA23A">
    <path fill="none" d="M-3.54,0 L3.54,0 " class="primitive"/>
  </g>
  <g transform="translate(18.04,13.92)" stroke="#7DA23A">
    <path fill="none" d="M-2.46,0 L2.46,0 " class="primitive"/>
  </g>
  <g transform="translate(20.5,13.92)" stroke="#7DA23A">
    <path fill="none" d="M0,1.31 L0,-1.31 " class="primitive"/>
  </g>
  <g transform="translate(14.16,11.29)" stroke="#0C42C4">
    <path fill="none" d="M-1.43,0 L1.43,0 " class="primitive"/>
  </g>
  <g transform="translate(15.58,11.29)" stroke="#0C42C4">
    <path fill="none" d="M0,2.63 L0,-2.63 " class="primitive"/>
  </g>
  <g transform="translate(34.88,17.86)" stroke="#7DA23A">
    <path fill="none" d="M-0.36,0 L0.36,0 " class="primitive"/>
  </g>
  <g transform="translate(35.76,20.48)" stroke="#7DA23A">
    <path fill="none" d="M-1.24,0 L1.24,0 " class="primitive"/>
  </g>
  <g transform="translate(32.5,19.17)" stroke="#7DA23A">
    <path fill="none" d="M-2.02,0 L2.02,0 " class="primitive"/>
  </g>
  <g transform="translate(34.52,19.17)" stroke="#7DA23A">
    <path fill="none" d="M0,1.31 L0,-1.31 " class="primitive"/>
  </g>
  <g transform="translate(38.3,23.11)" stroke="#7DA23A">
    <path fill="none" d="M-2.73,0 L2.73,0 " class="primitive"/>
  </g>
  <g transform="translate(36.17,25.74)" stroke="#7DA23A">
    <path fill="none" d="M-0.6,0 L0.6,0 " class="primitive"/>
  </g>
  <g transform="translate(33.03,24.42)" stroke="#7DA23A">
    <path fill="none" d="M-2.54,0 L2.54,0 " class="primitive"/>
  </g>
  <g transform="translate(35.57,24.42)" stroke="#7DA23A">
    <path fill="none" d="M0,1.31 L0,-1.31 " class="primitive"/>
  </g>
  <g transform="translate(21.61,21.8)" stroke="#7DA23A">
    <path fill="none" d="M-8.87,0 L8.87,0 " class="primitive"/>
  </g>
  <g transform="translate(30.48,21.8)" stroke="#7DA23A">
    <path fill="none" d="M0,2.63 L0,-2.63 " class="primitive"/>
  </g>
  <g transform="translate(8.35,16.55)" stroke="#7DA23A">
    <path fill="none" d="M-4.38,0 L4.38,0 " class="primitive"/>
  </g>
  <g transform="translate(12.73,16.55)" stroke="#7DA23A">
    <path fill="none" d="M0,5.25 L0,-5.25 " class="primitive"/>
  </g>
  <g transform="translate(28.54,28.36)" stroke="#7DA23A">
    <path fill="none" d="M-2.15,0 L2.15,0 " class="primitive"/>
  </g>
  <g transform="translate(32.9,30.99)" stroke="#7DA23A">
    <path fill="none" d="M-6.5,0 L6.5,0 " class="primitive"/>
  </g>
  <g transform="translate(25.68,29.68)" stroke="#7DA23A">
    <path fill="none" d="M-0.71,0 L0.71,0 " class="primitive"/>
  </g>
  <g transform="translate(26.4,29.68)" stroke="#7DA23A">
    <path fill="none" d="M0,1.31 L0,-1.31 " class="primitive"/>
  </g>
  <g transform="translate(35.53,33.62)" stroke="#7DA23A">
    <path fill="none" d="M-10.53,0 L10.53,0 " class="primitive"/>
  </g>
  <g transform="translate(32.23,36.24)" stroke="#7DA23A">
    <path fill="none" d="M-7.23,0 L7.23,0 " class="primitive"/>
  </g>
  <g transform="translate(24.98,34.93)" stroke="#7DA23A">
    <path fill="none" d="M-0.01,0 L0.01,0 " class="primitive"/>
  </g>
  <g transform="translate(25,34.93)" stroke="#7DA23A">
    <path fill="none" d="M0,1.31 L0,-1.31 " class="primitive"/>
  </g>
  <g transform="translate(24.57,32.3)" stroke="#7DA23A">
    <path fill="none" d="M-0.4,0 L0.4,0 " class="primitive"/>
  </g>
  <g transform="translate(24.97,32.3)" stroke="#7DA23A">
    <path fill="none" d="M0,2.63 L0,-2.63 " class="primitive"/>
  </g>
  <g transform="translate(41.89,38.87)" stroke="#7DA23A">
    <path fill="none" d="M-0.72,0 L0.72,0 " class="primitive"/>
  </g>
  <g transform="translate(44.77,41.49)" stroke="#7DA23A">
    <path fill="none" d="M-3.6,0 L3.6,0 " class="primitive"/>
  </g>
  <g transform="translate(38.05,40.18)" stroke="#7DA23A">
    <path fill="none" d="M-3.12,0 L3.12,0 " class="primitive"/>
  </g>
  <g transform="translate(41.17,40.18)" stroke="#7DA23A">
    <path fill="none" d="M0,1.31 L0,-1.31 " class="primitive"/>
  </g>
  <g transform="translate(66.81,44.12)" stroke="#7DA23A">
    <path fill="none" d="M-11.94,0 L11.94,0 " class="primitive"/>
  </g>
  <g transform="translate(56.66,46.75)" stroke="#7DA23A">
    <path fill="none" d="M-1.79,0 L1.79,0 " class="primitive"/>
  </g>
  <g transform="translate(44.9,45.43)" stroke="#7DA23A">
    <path fill="none" d="M-9.98,0 L9.98,0 " class="primitive"/>
  </g>
  <g transform="translate(54.87,45.43)" stroke="#7DA23A">
    <path fill="none" d="M0,1.31 L0,-1.31 " class="primitive"/>
  </g>
  <g transform="translate(29.55,42.81)" stroke="#7DA23A">
    <path fill="none" d="M-5.38,0 L5.38,0 " class="primitive"/>
  </g>
  <g transform="translate(34.92,42.81)" stroke="#7DA23A">
    <path fill="none" d="M0,2.63 L0,-2.63 " class="primitive"/>
  </g>
  <g transform="translate(14.07,37.56)" stroke="#7DA23A">
    <path fill="none" d="M-10.1,0 L10.1,0 " class="primitive"/>
  </g>
  <g transform="translate(24.17,37.56)" stroke="#7DA23A">
    <path fill="none" d="M0,5.25 L0,-5.25 " class="primitive"/>
  </g>
  <g transform="translate(3.86,27.05)" stroke="#7DA23A">
    <path fill="none" d="M-0.11,0 L0.11,0 " class="primitive"/>
  </g>
  <g transform="translate(3.97,27.05)" stroke="#7DA23A">
    <path fill="none" d="M0,10.51 L0,-10.51 " class="primitive"/>
  </g>
  <g transform="translate(32.6,49.37)" stroke="#0C42C4">
    <path fill="none" d="M-2.28,0 L2.28,0 " class="primitive"/>
  </g>
  <g transform="translate(34.59,52)" stroke="#7DA23A">
    <path fill="none" d="M-4.27,0 L4.27,0 " class="primitive"/>
  </g>
  <g transform="translate(23.23,50.69)" stroke="#7DA23A">
    <path fill="none" d="M-7.1,0 L7.1,0 " class="primitive"/>
  </g>
  <g transform="translate(30.32,50.69)" stroke="#7DA23A">
    <path fill="none" d="M0,1.31 L0,-1.31 " class="primitive"/>
  </g>
  <g stroke-opacity="1" stroke-width="0.3" id="img-29b4c979-2">
    <g transform="translate(18.29,90.08)" stroke="#7DA23A">
      <path fill="none" d="M0,5.25 L0,-5.25 " class="primitive"/>
    </g>
    <g transform="translate(4.47,82.2)" stroke="#7DA23A">
      <path fill="none" d="M-0.64,0 L0.64,0 " class="primitive"/>
    </g>
    <g transform="translate(5.1,82.2)" stroke="#7DA23A">
      <path fill="none" d="M0,7.88 L0,-7.88 " class="primitive"/>
    </g>
    <g transform="translate(3.79,70.38)" stroke="#7DA23A">
      <path fill="none" d="M-0.04,0 L0.04,0 " class="primitive"/>
    </g>
    <g transform="translate(3.83,70.38)" stroke="#7DA23A">
      <path fill="none" d="M0,11.82 L0,-11.82 " class="primitive"/>
    </g>
    <g transform="translate(3.75,48.72)" stroke="#000000">
      <path fill="none" d="M0,0 L0,0 " class="primitive"/>
    </g>
    <g transform="translate(3.75,48.72)" stroke="#000000">
      <path fill="none" d="M0,21.67 L0,-21.67 " class="primitive"/>
    </g>
    <g transform="translate(3.75,26.72)" stroke="#000000">
      <path fill="none" d="M0,0 L0,0 " class="primitive"/>
    </g>
    <g transform="translate(3.75,26.72)" stroke="#000000">
      <path fill="none" d="M0,21.99 L0,-21.99 " class="primitive"/>
    </g>
  </g>
  <g stroke-opacity="1" stroke-width="0.3" id="img-29b4c979-3">
    <g transform="translate(30.32,50.69)" stroke="#7DA23A">
      <path fill="none" d="M0,1.31 L0,-1.31 " class="primitive"/>
    </g>
    <g transform="translate(24.51,54.63)" stroke="#7DA23A">
      <path fill="none" d="M-0.97,0 L0.97,0 " class="primitive"/>
    </g>
    <g transform="translate(24.29,57.25)" stroke="#7DA23A">
      <path fill="none" d="M-0.75,0 L0.75,0 " class="primitive"/>
    </g>
    <g transform="translate(19.83,55.94)" stroke="#7DA23A">
      <path fill="none" d="M-3.71,0 L3.71,0 " class="primitive"/>
    </g>
    <g transform="translate(23.54,55.94)" stroke="#7DA23A">
      <path fill="none" d="M0,1.31 L0,-1.31 " class="primitive"/>
    </g>
    <g transform="translate(12.28,53.31)" stroke="#7DA23A">
      <path fill="none" d="M-3.85,0 L3.85,0 " class="primitive"/>
    </g>
    <g transform="translate(16.13,53.31)" stroke="#7DA23A">
      <path fill="none" d="M0,2.63 L0,-2.63 " class="primitive"/>
    </g>
    <g transform="translate(19.96,59.88)" stroke="#7DA23A">
      <path fill="none" d="M-6.18,0 L6.18,0 " class="primitive"/>
    </g>
    <g transform="translate(14.46,62.51)" stroke="#7DA23A">
      <path fill="none" d="M-0.68,0 L0.68,0 " class="primitive"/>
    </g>
    <g transform="translate(12.09,61.19)" stroke="#7DA23A">
      <path fill="none" d="M-1.69,0 L1.69,0 " class="primitive"/>
    </g>
    <g transform="translate(13.78,61.19)" stroke="#7DA23A">
      <path fill="none" d="M0,1.31 L0,-1.31 " class="primitive"/>
    </g>
    <g transform="translate(38.92,65.13)" stroke="#7DA23A">
      <path fill="none" d="M-11.16,0 L11.16,0 " class="primitive"/>
    </g>
    <g transform="translate(34.33,67.76)" stroke="#7DA23A">
      <path fill="none" d="M-6.57,0 L6.57,0 " class="primitive"/>
    </g>
    <g transform="translate(19.08,66.44)" stroke="#7DA23A">
      <path fill="none" d="M-8.68,0 L8.68,0 " class="primitive"/>
    </g>
    <g transform="translate(27.76,66.44)" stroke="#7DA23A">
      <path fill="none" d="M0,1.31 L0,-1.31 " class="primitive"/>
    </g>
    <g transform="translate(9.41,63.82)" stroke="#7DA23A">
      <path fill="none" d="M-0.98,0 L0.98,0 " class="primitive"/>
    </g>
    <g transform="translate(10.4,63.82)" stroke="#7DA23A">
      <path fill="none" d="M0,2.63 L0,-2.63 " class="primitive"/>
    </g>
    <g transform="translate(6.13,58.57)" stroke="#7DA23A">
      <path fill="none" d="M-2.3,0 L2.3,0 " class="primitive"/>
    </g>
    <g transform="translate(8.43,58.57)" stroke="#7DA23A">
      <path fill="none" d="M0,5.25 L0,-5.25 " class="primitive"/>
    </g>
    <g transform="translate(26.37,70.38)" stroke="#7DA23A">
      <path fill="none" d="M-0.77,0 L0.77,0 " class="primitive"/>
    </g>
    <g transform="translate(31.63,73.01)" stroke="#7DA23A">
      <path fill="none" d="M-6.04,0 L6.04,0 " class="primitive"/>
    </g>
    <g transform="translate(18.57,71.7)" stroke="#7DA23A">
      <path fill="none" d="M-7.03,0 L7.03,0 " class="primitive"/>
    </g>
    <g transform="translate(25.6,71.7)" stroke="#7DA23A">
      <path fill="none" d="M0,1.31 L0,-1.31 " class="primitive"/>
    </g>
    <g transform="translate(24.15,75.64)" stroke="#7DA23A">
      <path fill="none" d="M-0.36,0 L0.36,0 " class="primitive"/>
    </g>
    <g transform="translate(23.85,78.26)" stroke="#7DA23A">
      <path fill="none" d="M-0.05,0 L0.05,0 " class="primitive"/>
    </g>
    <g transform="translate(17.67,76.95)" stroke="#7DA23A">
      <path fill="none" d="M-6.13,0 L6.13,0 " class="primitive"/>
    </g>
    <g transform="translate(23.79,76.95)" stroke="#7DA23A">
      <path fill="none" d="M0,1.31 L0,-1.31 " class="primitive"/>
    </g>
    <g transform="translate(8.32,74.32)" stroke="#7DA23A">
      <path fill="none" d="M-3.22,0 L3.22,0 " class="primitive"/>
    </g>
    <g transform="translate(11.54,74.32)" stroke="#7DA23A">
      <path fill="none" d="M0,2.63 L0,-2.63 " class="primitive"/>
    </g>
    <g transform="translate(30.37,80.89)" stroke="#7DA23A">
      <path fill="none" d="M-3.56,0 L3.56,0 " class="primitive"/>
    </g>
    <g transform="translate(32.66,83.52)" stroke="#7DA23A">
      <path fill="none" d="M-5.85,0 L5.85,0 " class="primitive"/>
    </g>
    <g transform="translate(24.63,82.2)" stroke="#7DA23A">
      <path fill="none" d="M-2.18,0 L2.18,0 " class="primitive"/>
    </g>
    <g transform="translate(26.81,82.2)" stroke="#7DA23A">
      <path fill="none" d="M0,1.31 L0,-1.31 " class="primitive"/>
    </g>
    <g transform="translate(22.68,86.14)" stroke="#7DA23A">
      <path fill="none" d="M-0.12,0 L0.12,0 " class="primitive"/>
    </g>
    <g transform="translate(24.44,88.77)" stroke="#7DA23A">
      <path fill="none" d="M-1.89,0 L1.89,0 " class="primitive"/>
    </g>
    <g transform="translate(22.51,87.45)" stroke="#7DA23A">
      <path fill="none" d="M-0.05,0 L0.05,0 " class="primitive"/>
    </g>
    <g transform="translate(22.56,87.45)" stroke="#7DA23A">
      <path fill="none" d="M0,1.31 L0,-1.31 " class="primitive"/>
    </g>
    <g transform="translate(20.38,84.83)" stroke="#7DA23A">
      <path fill="none" d="M-2.08,0 L2.08,0 " class="primitive"/>
    </g>
    <g transform="translate(22.46,84.83)" stroke="#7DA23A">
      <path fill="none" d="M0,2.63 L0,-2.63 " class="primitive"/>
    </g>
    <g transform="translate(55.75,91.39)" stroke="#7DA23A">
      <path fill="none" d="M-12.54,0 L12.54,0 " class="primitive"/>
    </g>
    <g transform="translate(44.39,94.02)" stroke="#7DA23A">
      <path fill="none" d="M-1.18,0 L1.18,0 " class="primitive"/>
    </g>
    <g transform="translate(35.6,92.71)" stroke="#7DA23A">
      <path fill="none" d="M-7.62,0 L7.62,0 " class="primitive"/>
    </g>
    <g transform="translate(43.21,92.71)" stroke="#7DA23A">
      <path fill="none" d="M0,1.31 L0,-1.31 " class="primitive"/>
    </g>
    <g transform="translate(34.89,96.65)" stroke="#7DA23A">
      <path fill="none" d="M-4.21,0 L4.21,0 " class="primitive"/>
    </g>
    <g transform="translate(31.57,99.27)" stroke="#7DA23A">
      <path fill="none" d="M-0.89,0 L0.89,0 " class="primitive"/>
    </g>
    <g transform="translate(29.33,97.96)" stroke="#0C42C4">
      <path fill="none" d="M-1.35,0 L1.35,0 " class="primitive"/>
    </g>
    <g transform="translate(30.68,97.96)" stroke="#0C42C4">
      <path fill="none" d="M0,1.31 L0,-1.31 " class="primitive"/>
    </g>
    <g transform="translate(23.14,95.33)" stroke="#7DA23A">
      <path fill="none" d="M-4.84,0 L4.84,0 " class="primitive"/>
    </g>
    <g transform="translate(27.98,95.33)" stroke="#7DA23A">
      <path fill="none" d="M0,2.63 L0,-2.63 " class="primitive"/>
    </g>
    <g transform="translate(11.7,90.08)" stroke="#7DA23A">
      <path fill="none" d="M-6.59,0 L6.59,0 " class="primitive"/>
    </g>
    <g transform="translate(18.29,90.08)" stroke="#7DA23A">
      <path fill="none" d="M0,5.25 L0,-5.25 " class="primitive"/>
    </g>
  </g>
</g>
<g fill-opacity="1" id="img-29b4c979-4">
  <g transform="translate(5.44,4.73)" fill="#7DA23A">
    <circle cx="0" cy="0" r="0.75" class="primitive"/>
  </g>
  <g transform="translate(23.53,7.35)" fill="#7DA23A">
    <circle cx="0" cy="0" r="0.75" class="primitive"/>
  </g>
  <g transform="translate(22.2,9.98)" fill="#7DA23A">
    <circle cx="0" cy="0" r="0.75" class="primitive"/>
  </g>
  <g transform="translate(17.93,8.67)" fill="#7DA23A">
    <circle cx="0" cy="0" r="0.75" class="primitive"/>
  </g>
  <g transform="translate(28.79,12.61)" fill="#7DA23A">
    <circle cx="0" cy="0" r="0.75" class="primitive"/>
  </g>
  <g transform="translate(27.58,15.23)" fill="#7DA23A">
    <circle cx="0" cy="0" r="0.75" class="primitive"/>
  </g>
  <g transform="translate(20.5,13.92)" fill="#7DA23A">
    <circle cx="0" cy="0" r="0.75" class="primitive"/>
  </g>
  <g transform="translate(15.58,11.29)" fill="#0C42C4">
    <circle cx="0" cy="0" r="0.75" class="primitive"/>
  </g>
  <g transform="translate(35.24,17.86)" fill="#7DA23A">
    <circle cx="0" cy="0" r="0.75" class="primitive"/>
  </g>
  <g transform="translate(37,20.48)" fill="#7DA23A">
    <circle cx="0" cy="0" r="0.75" class="primitive"/>
  </g>
  <g transform="translate(34.52,19.17)" fill="#7DA23A">
    <circle cx="0" cy="0" r="0.75" class="primitive"/>
  </g>
  <g transform="translate(41.03,23.11)" fill="#7DA23A">
    <circle cx="0" cy="0" r="0.75" class="primitive"/>
  </g>
  <g transform="translate(36.78,25.74)" fill="#7DA23A">
    <circle cx="0" cy="0" r="0.75" class="primitive"/>
  </g>
  <g transform="translate(35.57,24.42)" fill="#7DA23A">
    <circle cx="0" cy="0" r="0.75" class="primitive"/>
  </g>
  <g transform="translate(30.48,21.8)" fill="#7DA23A">
    <circle cx="0" cy="0" r="0.75" class="primitive"/>
  </g>
  <g transform="translate(12.73,16.55)" fill="#7DA23A">
    <circle cx="0" cy="0" r="0.75" class="primitive"/>
  </g>
  <g transform="translate(30.69,28.36)" fill="#7DA23A">
    <circle cx="0" cy="0" r="0.75" class="primitive"/>
  </g>
  <g transform="translate(39.4,30.99)" fill="#7DA23A">
    <circle cx="0" cy="0" r="0.75" class="primitive"/>
  </g>
  <g transform="translate(26.4,29.68)" fill="#7DA23A">
    <circle cx="0" cy="0" r="0.75" class="primitive"/>
  </g>
  <g transform="translate(46.06,33.62)" fill="#7DA23A">
    <circle cx="0" cy="0" r="0.75" class="primitive"/>
  </g>
  <g transform="translate(39.47,36.24)" fill="#7DA23A">
    <circle cx="0" cy="0" r="0.75" class="primitive"/>
  </g>
  <g transform="translate(25,34.93)" fill="#7DA23A">
    <circle cx="0" cy="0" r="0.75" class="primitive"/>
  </g>
  <g transform="translate(24.97,32.3)" fill="#7DA23A">
    <circle cx="0" cy="0" r="0.75" class="primitive"/>
  </g>
  <g transform="translate(42.62,38.87)" fill="#7DA23A">
    <circle cx="0" cy="0" r="0.75" class="primitive"/>
  </g>
  <g transform="translate(48.37,41.49)" fill="#7DA23A">
    <circle cx="0" cy="0" r="0.75" class="primitive"/>
  </g>
  <g transform="translate(41.17,40.18)" fill="#7DA23A">
    <circle cx="0" cy="0" r="0.75" class="primitive"/>
  </g>
  <g transform="translate(78.75,44.12)" fill="#7DA23A">
    <circle cx="0" cy="0" r="0.75" class="primitive"/>
  </g>
  <g transform="translate(58.45,46.75)" fill="#7DA23A">
    <circle cx="0" cy="0" r="0.75" class="primitive"/>
  </g>
  <g transform="translate(54.87,45.43)" fill="#7DA23A">
    <circle cx="0" cy="0" r="0.75" class="primitive"/>
  </g>
  <g transform="translate(34.92,42.81)" fill="#7DA23A">
    <circle cx="0" cy="0" r="0.75" class="primitive"/>
  </g>
  <g transform="translate(24.17,37.56)" fill="#7DA23A">
    <circle cx="0" cy="0" r="0.75" class="primitive"/>
  </g>
  <g transform="translate(3.97,27.05)" fill="#7DA23A">
    <circle cx="0" cy="0" r="0.75" class="primitive"/>
  </g>
  <g transform="translate(34.88,49.37)" fill="#0C42C4">
    <circle cx="0" cy="0" r="0.75" class="primitive"/>
  </g>
  <g transform="translate(38.86,52)" fill="#7DA23A">
    <circle cx="0" cy="0" r="0.75" class="primitive"/>
  </g>
  <g transform="translate(30.32,50.69)" fill="#7DA23A">
    <circle cx="0" cy="0" r="0.75" class="primitive"/>
  </g>
  <g transform="translate(25.47,54.63)" fill="#7DA23A">
    <circle cx="0" cy="0" r="0.75" class="primitive"/>
  </g>
  <g transform="translate(25.04,57.25)" fill="#7DA23A">
    <circle cx="0" cy="0" r="0.75" class="primitive"/>
  </g>
  <g transform="translate(23.54,55.94)" fill="#7DA23A">
    <circle cx="0" cy="0" r="0.75" class="primitive"/>
  </g>
  <g transform="translate(16.13,53.31)" fill="#7DA23A">
    <circle cx="0" cy="0" r="0.75" class="primitive"/>
  </g>
  <g transform="translate(26.14,59.88)" fill="#7DA23A">
    <circle cx="0" cy="0" r="0.75" class="primitive"/>
  </g>
  <g transform="translate(15.14,62.51)" fill="#7DA23A">
    <circle cx="0" cy="0" r="0.75" class="primitive"/>
  </g>
  <g transform="translate(13.78,61.19)" fill="#7DA23A">
    <circle cx="0" cy="0" r="0.75" class="primitive"/>
  </g>
  <g transform="translate(50.08,65.13)" fill="#7DA23A">
    <circle cx="0" cy="0" r="0.75" class="primitive"/>
  </g>
  <g transform="translate(40.9,67.76)" fill="#7DA23A">
    <circle cx="0" cy="0" r="0.75" class="primitive"/>
  </g>
  <g transform="translate(27.76,66.44)" fill="#7DA23A">
    <circle cx="0" cy="0" r="0.75" class="primitive"/>
  </g>
  <g transform="translate(10.4,63.82)" fill="#7DA23A">
    <circle cx="0" cy="0" r="0.75" class="primitive"/>
  </g>
  <g transform="translate(8.43,58.57)" fill="#7DA23A">
    <circle cx="0" cy="0" r="0.75" class="primitive"/>
  </g>
  <g transform="translate(27.14,70.38)" fill="#7DA23A">
    <circle cx="0" cy="0" r="0.75" class="primitive"/>
  </g>
  <g transform="translate(37.67,73.01)" fill="#7DA23A">
    <circle cx="0" cy="0" r="0.75" class="primitive"/>
  </g>
  <g transform="translate(25.6,71.7)" fill="#7DA23A">
    <circle cx="0" cy="0" r="0.75" class="primitive"/>
  </g>
  <g transform="translate(24.51,75.64)" fill="#7DA23A">
    <circle cx="0" cy="0" r="0.75" class="primitive"/>
  </g>
  <g fill-opacity="1" id="img-29b4c979-5">
    <g transform="translate(24.51,75.64)" fill="#7DA23A">
      <circle cx="0" cy="0" r="0.75" class="primitive"/>
    </g>
    <g transform="translate(23.9,78.26)" fill="#7DA23A">
      <circle cx="0" cy="0" r="0.75" class="primitive"/>
    </g>
    <g transform="translate(23.79,76.95)" fill="#7DA23A">
      <circle cx="0" cy="0" r="0.75" class="primitive"/>
    </g>
    <g transform="translate(11.54,74.32)" fill="#7DA23A">
      <circle cx="0" cy="0" r="0.75" class="primitive"/>
    </g>
    <g transform="translate(33.93,80.89)" fill="#7DA23A">
      <circle cx="0" cy="0" r="0.75" class="primitive"/>
    </g>
    <g transform="translate(38.51,83.52)" fill="#7DA23A">
      <circle cx="0" cy="0" r="0.75" class="primitive"/>
    </g>
    <g transform="translate(26.81,82.2)" fill="#7DA23A">
      <circle cx="0" cy="0" r="0.75" class="primitive"/>
    </g>
    <g transform="translate(22.79,86.14)" fill="#7DA23A">
      <circle cx="0" cy="0" r="0.75" class="primitive"/>
    </g>
    <g transform="translate(26.33,88.77)" fill="#7DA23A">
      <circle cx="0" cy="0" r="0.75" class="primitive"/>
    </g>
    <g transform="translate(22.56,87.45)" fill="#7DA23A">
      <circle cx="0" cy="0" r="0.75" class="primitive"/>
    </g>
    <g transform="translate(22.46,84.83)" fill="#7DA23A">
      <circle cx="0" cy="0" r="0.75" class="primitive"/>
    </g>
    <g transform="translate(68.29,91.39)" fill="#7DA23A">
      <circle cx="0" cy="0" r="0.75" class="primitive"/>
    </g>
    <g transform="translate(45.57,94.02)" fill="#7DA23A">
      <circle cx="0" cy="0" r="0.75" class="primitive"/>
    </g>
    <g transform="translate(43.21,92.71)" fill="#7DA23A">
      <circle cx="0" cy="0" r="0.75" class="primitive"/>
    </g>
    <g transform="translate(39.11,96.65)" fill="#7DA23A">
      <circle cx="0" cy="0" r="0.75" class="primitive"/>
    </g>
    <g transform="translate(32.46,99.27)" fill="#7DA23A">
      <circle cx="0" cy="0" r="0.75" class="primitive"/>
    </g>
    <g transform="translate(30.68,97.96)" fill="#0C42C4">
      <circle cx="0" cy="0" r="0.75" class="primitive"/>
    </g>
    <g transform="translate(27.98,95.33)" fill="#7DA23A">
      <circle cx="0" cy="0" r="0.75" class="primitive"/>
    </g>
    <g transform="translate(18.29,90.08)" fill="#7DA23A">
      <circle cx="0" cy="0" r="0.75" class="primitive"/>
    </g>
    <g transform="translate(5.1,82.2)" fill="#7DA23A">
      <circle cx="0" cy="0" r="0.75" class="primitive"/>
    </g>
    <g transform="translate(3.83,70.38)" fill="#7DA23A">
      <circle cx="0" cy="0" r="0.75" class="primitive"/>
    </g>
    <g transform="translate(3.75,48.72)" fill="#000000">
      <circle cx="0" cy="0" r="0.75" class="primitive"/>
    </g>
    <g transform="translate(3.75,26.72)" fill="#000000">
      <circle cx="0" cy="0" r="0.75" class="primitive"/>
    </g>
  </g>
</g>
<g stroke-opacity="1" fill-opacity="1" font-size="1.41" stroke-width="0.1" id="img-29b4c979-6">
  <g transform="translate(7.31,4.73)" stroke="#000000">
    <g class="primitive">
      <text dy="0.35em">N36</text>
    </g>
  </g>
  <g transform="translate(25.41,7.35)" stroke="#000000">
    <g class="primitive">
      <text dy="0.35em">N8</text>
    </g>
  </g>
  <g transform="translate(24.08,9.98)" stroke="#000000">
    <g class="primitive">
      <text dy="0.35em">N9</text>
    </g>
  </g>
  <g transform="translate(19.8,8.67)" stroke="#000000">
    <g class="primitive">
      <text dy="0.35em">N41</text>
    </g>
  </g>
  <g transform="translate(30.66,12.61)" stroke="#000000">
    <g class="primitive">
      <text dy="0.35em">N10</text>
    </g>
  </g>
  <g transform="translate(29.45,15.23)" stroke="#000000">
    <g class="primitive">
      <text dy="0.35em">N11</text>
    </g>
  </g>
  <g transform="translate(22.38,13.92)" stroke="#000000">
    <g class="primitive">
      <text dy="0.35em">N42</text>
    </g>
  </g>
  <g transform="translate(17.46,11.29)" stroke="#000000">
    <g class="primitive">
      <text dy="0.35em">N57</text>
    </g>
  </g>
  <g transform="translate(37.11,17.86)" stroke="#000000">
    <g class="primitive">
      <text dy="0.35em">N12</text>
    </g>
  </g>
  <g transform="translate(38.88,20.48)" stroke="#000000">
    <g class="primitive">
      <text dy="0.35em">N13</text>
    </g>
  </g>
  <g transform="translate(36.39,19.17)" stroke="#000000">
    <g class="primitive">
      <text dy="0.35em">N43</text>
    </g>
  </g>
  <g transform="translate(42.9,23.11)" stroke="#000000">
    <g class="primitive">
      <text dy="0.35em">N14</text>
    </g>
  </g>
  <g transform="translate(38.65,25.74)" stroke="#000000">
    <g class="primitive">
      <text dy="0.35em">N15</text>
    </g>
  </g>
  <g transform="translate(37.44,24.42)" stroke="#000000">
    <g class="primitive">
      <text dy="0.35em">N44</text>
    </g>
  </g>
  <g transform="translate(32.36,21.8)" stroke="#000000">
    <g class="primitive">
      <text dy="0.35em">N58</text>
    </g>
  </g>
  <g transform="translate(14.61,16.55)" stroke="#000000">
    <g class="primitive">
      <text dy="0.35em">N65</text>
    </g>
  </g>
  <g transform="translate(32.57,28.36)" stroke="#000000">
    <g class="primitive">
      <text dy="0.35em">N16</text>
    </g>
  </g>
  <g transform="translate(41.27,30.99)" stroke="#000000">
    <g class="primitive">
      <text dy="0.35em">N17</text>
    </g>
  </g>
  <g transform="translate(28.27,29.68)" stroke="#000000">
    <g class="primitive">
      <text dy="0.35em">N45</text>
    </g>
  </g>
  <g transform="translate(47.93,33.62)" stroke="#000000">
    <g class="primitive">
      <text dy="0.35em">N18</text>
    </g>
  </g>
  <g transform="translate(41.34,36.24)" stroke="#000000">
    <g class="primitive">
      <text dy="0.35em">N19</text>
    </g>
  </g>
  <g transform="translate(26.87,34.93)" stroke="#000000">
    <g class="primitive">
      <text dy="0.35em">N46</text>
    </g>
  </g>
  <g transform="translate(26.85,32.3)" stroke="#000000">
    <g class="primitive">
      <text dy="0.35em">N59</text>
    </g>
  </g>
  <g transform="translate(44.49,38.87)" stroke="#000000">
    <g class="primitive">
      <text dy="0.35em">N20</text>
    </g>
  </g>
  <g transform="translate(50.24,41.49)" stroke="#000000">
    <g class="primitive">
      <text dy="0.35em">N21</text>
    </g>
  </g>
  <g transform="translate(43.05,40.18)" stroke="#000000">
    <g class="primitive">
      <text dy="0.35em">N47</text>
    </g>
  </g>
  <g transform="translate(80.62,44.12)" stroke="#000000">
    <g class="primitive">
      <text dy="0.35em">N22</text>
    </g>
  </g>
  <g transform="translate(60.32,46.75)" stroke="#000000">
    <g class="primitive">
      <text dy="0.35em">N23</text>
    </g>
  </g>
  <g transform="translate(56.75,45.43)" stroke="#000000">
    <g class="primitive">
      <text dy="0.35em">N48</text>
    </g>
  </g>
  <g transform="translate(36.8,42.81)" stroke="#000000">
    <g class="primitive">
      <text dy="0.35em">N60</text>
    </g>
  </g>
  <g transform="translate(26.05,37.56)" stroke="#000000">
    <g class="primitive">
      <text dy="0.35em">N66</text>
    </g>
  </g>
  <g transform="translate(5.85,27.05)" stroke="#000000">
    <g class="primitive">
      <text dy="0.35em">N69</text>
    </g>
  </g>
  <g transform="translate(36.76,49.37)" stroke="#000000">
    <g class="primitive">
      <text dy="0.35em">N24</text>
    </g>
  </g>
  <g transform="translate(40.73,52)" stroke="#000000">
    <g class="primitive">
      <text dy="0.35em">N25</text>
    </g>
  </g>
  <g transform="translate(32.2,50.69)" stroke="#000000">
    <g class="primitive">
      <text dy="0.35em">N49</text>
    </g>
  </g>
  <g transform="translate(27.35,54.63)" stroke="#000000">
    <g class="primitive">
      <text dy="0.35em">N26</text>
    </g>
  </g>
  <g transform="translate(26.91,57.25)" stroke="#000000">
    <g class="primitive">
      <text dy="0.35em">N27</text>
    </g>
  </g>
  <g transform="translate(25.41,55.94)" stroke="#000000">
    <g class="primitive">
      <text dy="0.35em">N50</text>
    </g>
  </g>
  <g transform="translate(18,53.31)" stroke="#000000">
    <g class="primitive">
      <text dy="0.35em">N61</text>
    </g>
  </g>
  <g transform="translate(28.01,59.88)" stroke="#000000">
    <g class="primitive">
      <text dy="0.35em">N28</text>
    </g>
  </g>
  <g transform="translate(17.02,62.51)" stroke="#000000">
    <g class="primitive">
      <text dy="0.35em">N29</text>
    </g>
  </g>
  <g transform="translate(15.66,61.19)" stroke="#000000">
    <g class="primitive">
      <text dy="0.35em">N51</text>
    </g>
  </g>
  <g transform="translate(51.95,65.13)" stroke="#000000">
    <g class="primitive">
      <text dy="0.35em">N30</text>
    </g>
  </g>
  <g transform="translate(42.78,67.76)" stroke="#000000">
    <g class="primitive">
      <text dy="0.35em">N31</text>
    </g>
  </g>
  <g transform="translate(29.64,66.44)" stroke="#000000">
    <g class="primitive">
      <text dy="0.35em">N52</text>
    </g>
  </g>
  <g transform="translate(12.27,63.82)" stroke="#000000">
    <g class="primitive">
      <text dy="0.35em">N62</text>
    </g>
  </g>
  <g transform="translate(10.3,58.57)" stroke="#000000">
    <g class="primitive">
      <text dy="0.35em">N67</text>
    </g>
  </g>
  <g transform="translate(29.02,70.38)" stroke="#000000">
    <g class="primitive">
      <text dy="0.35em">N32</text>
    </g>
  </g>
  <g transform="translate(39.54,73.01)" stroke="#000000">
    <g class="primitive">
      <text dy="0.35em">N33</text>
    </g>
  </g>
  <g transform="translate(27.47,71.7)" stroke="#000000">
    <g class="primitive">
      <text dy="0.35em">N53</text>
    </g>
  </g>
  <g transform="translate(26.38,75.64)" stroke="#000000">
    <g class="primitive">
      <text dy="0.35em">N34</text>
    </g>
  </g>
  <g stroke-opacity="1" fill-opacity="1" font-size="1.41" stroke-width="0.1" id="img-29b4c979-7">
    <g transform="translate(26.38,75.64)" stroke="#000000">
      <g class="primitive">
        <text dy="0.35em">N34</text>
      </g>
    </g>
    <g transform="translate(25.77,78.26)" stroke="#000000">
      <g class="primitive">
        <text dy="0.35em">N35</text>
      </g>
    </g>
    <g transform="translate(25.67,76.95)" stroke="#000000">
      <g class="primitive">
        <text dy="0.35em">N54</text>
      </g>
    </g>
    <g transform="translate(13.41,74.32)" stroke="#000000">
      <g class="primitive">
        <text dy="0.35em">N63</text>
      </g>
    </g>
    <g transform="translate(35.81,80.89)" stroke="#000000">
      <g class="primitive">
        <text dy="0.35em">N0</text>
      </g>
    </g>
    <g transform="translate(40.39,83.52)" stroke="#000000">
      <g class="primitive">
        <text dy="0.35em">N1</text>
      </g>
    </g>
    <g transform="translate(28.68,82.2)" stroke="#000000">
      <g class="primitive">
        <text dy="0.35em">N37</text>
      </g>
    </g>
    <g transform="translate(24.67,86.14)" stroke="#000000">
      <g class="primitive">
        <text dy="0.35em">N2</text>
      </g>
    </g>
    <g transform="translate(28.21,88.77)" stroke="#000000">
      <g class="primitive">
        <text dy="0.35em">N3</text>
      </g>
    </g>
    <g transform="translate(24.43,87.45)" stroke="#000000">
      <g class="primitive">
        <text dy="0.35em">N38</text>
      </g>
    </g>
    <g transform="translate(24.33,84.83)" stroke="#000000">
      <g class="primitive">
        <text dy="0.35em">N55</text>
      </g>
    </g>
    <g transform="translate(70.16,91.39)" stroke="#000000">
      <g class="primitive">
        <text dy="0.35em">N4</text>
      </g>
    </g>
    <g transform="translate(47.44,94.02)" stroke="#000000">
      <g class="primitive">
        <text dy="0.35em">N5</text>
      </g>
    </g>
    <g transform="translate(45.09,92.71)" stroke="#000000">
      <g class="primitive">
        <text dy="0.35em">N39</text>
      </g>
    </g>
    <g transform="translate(40.98,96.65)" stroke="#000000">
      <g class="primitive">
        <text dy="0.35em">N6</text>
      </g>
    </g>
    <g transform="translate(34.34,99.27)" stroke="#000000">
      <g class="primitive">
        <text dy="0.35em">N7</text>
      </g>
    </g>
    <g transform="translate(32.55,97.96)" stroke="#000000">
      <g class="primitive">
        <text dy="0.35em">N40</text>
      </g>
    </g>
    <g transform="translate(29.86,95.33)" stroke="#000000">
      <g class="primitive">
        <text dy="0.35em">N56</text>
      </g>
    </g>
    <g transform="translate(20.17,90.08)" stroke="#000000">
      <g class="primitive">
        <text dy="0.35em">N64</text>
      </g>
    </g>
    <g transform="translate(6.98,82.2)" stroke="#000000">
      <g class="primitive">
        <text dy="0.35em">N68</text>
      </g>
    </g>
    <g transform="translate(5.7,70.38)" stroke="#000000">
      <g class="primitive">
        <text dy="0.35em">N70</text>
      </g>
    </g>
    <g transform="translate(5.63,48.72)" stroke="#000000">
      <g class="primitive">
        <text dy="0.35em"></text>
      </g>
    </g>
    <g transform="translate(5.63,26.72)" stroke="#000000">
      <g class="primitive">
        <text dy="0.35em"></text>
      </g>
    </g>
  </g>
</g>
</svg>
