<?xml version="1.0" encoding="UTF-8"?>
<svg xmlns="http://www.w3.org/2000/svg"
     xmlns:xlink="http://www.w3.org/1999/xlink"
     version="1.2"
     width="150mm" height="80mm" viewBox="0 0 150 80"
     stroke="none"
     fill="#000000"
     stroke-width="0.3"
     font-size="3.88"
>
<defs>
  <marker id="arrow" markerWidth="15" markerHeight="7" refX="5" refY="3.5" orient="auto" markerUnits="strokeWidth">
    <path d="M0,0 L15,3.5 L0,7 z" stroke="context-stroke" fill="context-stroke"/>
  </marker>
</defs>
<g stroke-opacity="1" stroke-width="0.3" id="img-29b4c979-1">
  <g transform="translate(12.82,3.64)" stroke="#7444E4">
    <path fill="none" d="M-3.94,0 L3.94,0 " class="primitive"/>
  </g>
  <g transform="translate(9.12,6.67)" stroke="#7444E4">
    <path fill="none" d="M-0.24,0 L0.24,0 " class="primitive"/>
  </g>
  <g transform="translate(6.31,5.15)" stroke="#7444E4">
    <path fill="none" d="M-2.56,0 L2.56,0 " class="primitive"/>
  </g>
  <g transform="translate(8.88,5.15)" stroke="#7444E4">
    <path fill="none" d="M0,1.52 L0,-1.52 " class="primitive"/>
  </g>
  <g transform="translate(25.93,9.7)" stroke="#7444E4">
    <path fill="none" d="M-10.54,0 L10.54,0 " class="primitive"/>
  </g>
  <g transform="translate(17.86,12.73)" stroke="#7444E4">
    <path fill="none" d="M-2.46,0 L2.46,0 " class="primitive"/>
  </g>
  <g transform="translate(9.81,11.21)" stroke="#7444E4">
    <path fill="none" d="M-5.59,0 L5.59,0 " class="primitive"/>
  </g>
  <g transform="translate(15.4,11.21)" stroke="#7444E4">
    <path fill="none" d="M0,1.52 L0,-1.52 " class="primitive"/>
  </g>
  <g transform="translate(7.58,15.76)" stroke="#23D772">
    <path fill="none" d="M-1.58,0 L1.58,0 " class="primitive"/>
  </g>
  <g transform="translate(16.28,18.79)" stroke="#7444E4">
    <path fill="none" d="M-6.32,0 L6.32,0 " class="primitive"/>
  </g>
  <g transform="translate(10.92,21.82)" stroke="#23D772">
    <path fill="none" d="M-0.97,0 L0.97,0 " class="primitive"/>
  </g>
  <g transform="translate(7.98,20.3)" stroke="#7444E4">
    <path fill="none" d="M-1.97,0 L1.97,0 " class="primitive"/>
  </g>
  <g transform="translate(9.95,20.3)" stroke="#7444E4">
    <path fill="none" d="M0,1.52 L0,-1.52 " class="primitive"/>
  </g>
  <g transform="translate(5.11,18.03)" stroke="#7444E4">
    <path fill="none" d="M-0.9,0 L0.9,0 " class="primitive"/>
  </g>
  <g transform="translate(6.01,18.03)" stroke="#7444E4">
    <path fill="none" d="M0,2.27 L0,-2.27 " class="primitive"/>
  </g>
  <g transform="translate(3.98,14.62)" stroke="#7444E4">
    <path fill="none" d="M-0.23,0 L0.23,0 " class="primitive"/>
  </g>
  <g transform="translate(4.22,14.62)" stroke="#7444E4">
    <path fill="none" d="M0,3.41 L0,-3.41 " class="primitive"/>
  </g>
  <g transform="translate(3.75,9.89)" stroke="#000000">
    <path fill="none" d="M0,0 L0,0 " class="primitive"/>
  </g>
  <g transform="translate(3.75,9.89)" stroke="#000000">
    <path fill="none" d="M0,4.73 L0,-4.73 " class="primitive"/>
  </g>
  <g transform="translate(24.16,24.85)" stroke="#7444E4">
    <path fill="none" d="M-2.12,0 L2.12,0 " class="primitive"/>
  </g>
  <g transform="translate(22.14,27.88)" stroke="#23D772">
    <path fill="none" d="M-0.1,0 L0.1,0 " class="primitive"/>
  </g>
  <g transform="translate(20.29,26.36)" stroke="#7444E4">
    <path fill="none" d="M-1.75,0 L1.75,0 " class="primitive"/>
  </g>
  <g transform="translate(22.03,26.36)" stroke="#7444E4">
    <path fill="none" d="M0,1.52 L0,-1.52 " class="primitive"/>
  </g>
  <g transform="translate(26.16,30.91)" stroke="#23D772">
    <path fill="none" d="M-5.44,0 L5.44,0 " class="primitive"/>
  </g>
  <g transform="translate(21.49,33.94)" stroke="#7444E4">
    <path fill="none" d="M-0.77,0 L0.77,0 " class="primitive"/>
  </g>
  <g transform="translate(19.63,32.42)" stroke="#7444E4">
    <path fill="none" d="M-1.09,0 L1.09,0 " class="primitive"/>
  </g>
  <g transform="translate(20.72,32.42)" stroke="#7444E4">
    <path fill="none" d="M0,1.52 L0,-1.52 " class="primitive"/>
  </g>
  <g transform="translate(18.18,29.39)" stroke="#7444E4">
    <path fill="none" d="M-0.35,0 L0.35,0 " class="primitive"/>
  </g>
  <g transform="translate(18.54,29.39)" stroke="#7444E4">
    <path fill="none" d="M0,3.03 L0,-3.03 " class="primitive"/>
  </g>
  <g transform="translate(27.15,36.97)" stroke="#7444E4">
    <path fill="none" d="M-4.1,0 L4.1,0 " class="primitive"/>
  </g>
  <g transform="translate(30.06,40)" stroke="#23D772">
    <path fill="none" d="M-0.29,0 L0.29,0 " class="primitive"/>
  </g>
  <g transform="translate(71.63,43.03)" stroke="#7444E4">
    <path fill="none" d="M-7.12,0 L7.12,0 " class="primitive"/>
  </g>
  <g transform="translate(69.75,46.06)" stroke="#23D772">
    <path fill="none" d="M-5.23,0 L5.23,0 " class="primitive"/>
  </g>
  <g transform="translate(47.15,44.55)" stroke="#7444E4">
    <path fill="none" d="M-17.37,0 L17.37,0 " class="primitive"/>
  </g>
  <g transform="translate(64.52,44.55)" stroke="#7444E4">
    <path fill="none" d="M0,1.52 L0,-1.52 " class="primitive"/>
  </g>
  <g transform="translate(26.41,42.27)" stroke="#7444E4">
    <path fill="none" d="M-3.36,0 L3.36,0 " class="primitive"/>
  </g>
  <g transform="translate(29.78,42.27)" stroke="#7444E4">
    <path fill="none" d="M0,2.27 L0,-2.27 " class="primitive"/>
  </g>
  <g transform="translate(20.44,39.62)" stroke="#7444E4">
    <path fill="none" d="M-2.61,0 L2.61,0 " class="primitive"/>
  </g>
  <g transform="translate(23.05,39.62)" stroke="#7444E4">
    <path fill="none" d="M0,2.65 L0,-2.65 " class="primitive"/>
  </g>
  <g transform="translate(17.22,34.51)" stroke="#7444E4">
    <path fill="none" d="M-0.61,0 L0.61,0 " class="primitive"/>
  </g>
  <g transform="translate(17.83,34.51)" stroke="#7444E4">
    <path fill="none" d="M0,5.11 L0,-5.11 " class="primitive"/>
  </g>
  <g transform="translate(31.19,49.09)" stroke="#7444E4">
    <path fill="none" d="M-1.89,0 L1.89,0 " class="primitive"/>
  </g>
  <g transform="translate(37.55,52.12)" stroke="#7444E4">
    <path fill="none" d="M-0.61,0 L0.61,0 " class="primitive"/>
  </g>
  <g transform="translate(45.73,55.15)" stroke="#7444E4">
    <path fill="none" d="M-2.52,0 L2.52,0 " class="primitive"/>
  </g>
  <g transform="translate(46.5,58.18)" stroke="#23D772">
    <path fill="none" d="M-3.29,0 L3.29,0 " class="primitive"/>
  </g>
  <g transform="translate(40.07,56.67)" stroke="#7444E4">
    <path fill="none" d="M-3.14,0 L3.14,0 " class="primitive"/>
  </g>
  <g transform="translate(43.21,56.67)" stroke="#7444E4">
    <path fill="none" d="M0,1.52 L0,-1.52 " class="primitive"/>
  </g>
  <g transform="translate(33.12,54.39)" stroke="#23D772">
    <path fill="none" d="M-3.82,0 L3.82,0 " class="primitive"/>
  </g>
  <g transform="translate(36.94,54.39)" stroke="#23D772">
    <path fill="none" d="M0,2.27 L0,-2.27 " class="primitive"/>
  </g>
  <g transform="translate(23.83,51.74)" stroke="#7444E4">
    <path fill="none" d="M-5.47,0 L5.47,0 " class="primitive"/>
  </g>
  <g transform="translate(29.3,51.74)" stroke="#7444E4">
    <path fill="none" d="M0,2.65 L0,-2.65 " class="primitive"/>
  </g>
  <g stroke-opacity="1" stroke-width="0.3" id="img-29b4c979-2">
    <g transform="translate(29.3,51.74)" stroke="#7444E4">
      <path fill="none" d="M0,2.65 L0,-2.65 " class="primitive"/>
    </g>
    <g transform="translate(19.85,61.21)" stroke="#23D772">
      <path fill="none" d="M-0.73,0 L0.73,0 " class="primitive"/>
    </g>
    <g transform="translate(33.47,64.24)" stroke="#7444E4">
      <path fill="none" d="M-2.61,0 L2.61,0 " class="primitive"/>
    </g>
    <g transform="translate(33.8,67.27)" stroke="#7444E4">
      <path fill="none" d="M-2.94,0 L2.94,0 " class="primitive"/>
    </g>
    <g transform="translate(25.09,65.76)" stroke="#7444E4">
      <path fill="none" d="M-5.77,0 L5.77,0 " class="primitive"/>
    </g>
    <g transform="translate(30.86,65.76)" stroke="#7444E4">
      <path fill="none" d="M0,1.52 L0,-1.52 " class="primitive"/>
    </g>
    <g transform="translate(29,70.3)" stroke="#23D772">
      <path fill="none" d="M-6.38,0 L6.38,0 " class="primitive"/>
    </g>
    <g transform="translate(29.46,73.33)" stroke="#7444E4">
      <path fill="none" d="M-1.7,0 L1.7,0 " class="primitive"/>
    </g>
    <g transform="translate(29.25,76.36)" stroke="#7444E4">
      <path fill="none" d="M-1.48,0 L1.48,0 " class="primitive"/>
    </g>
    <g transform="translate(25.19,74.85)" stroke="#23D772">
      <path fill="none" d="M-2.57,0 L2.57,0 " class="primitive"/>
    </g>
    <g transform="translate(27.76,74.85)" stroke="#23D772">
      <path fill="none" d="M0,1.52 L0,-1.52 " class="primitive"/>
    </g>
    <g transform="translate(20.98,72.58)" stroke="#7444E4">
      <path fill="none" d="M-1.65,0 L1.65,0 " class="primitive"/>
    </g>
    <g transform="translate(22.62,72.58)" stroke="#7444E4">
      <path fill="none" d="M0,2.27 L0,-2.27 " class="primitive"/>
    </g>
    <g transform="translate(19.22,69.17)" stroke="#7444E4">
      <path fill="none" d="M-0.1,0 L0.1,0 " class="primitive"/>
    </g>
    <g transform="translate(19.33,69.17)" stroke="#7444E4">
      <path fill="none" d="M0,3.41 L0,-3.41 " class="primitive"/>
    </g>
    <g transform="translate(18.74,65.19)" stroke="#7444E4">
      <path fill="none" d="M-0.38,0 L0.38,0 " class="primitive"/>
    </g>
    <g transform="translate(19.12,65.19)" stroke="#7444E4">
      <path fill="none" d="M0,3.98 L0,-3.98 " class="primitive"/>
    </g>
    <g transform="translate(17.48,58.47)" stroke="#23D772">
      <path fill="none" d="M-0.88,0 L0.88,0 " class="primitive"/>
    </g>
    <g transform="translate(18.36,58.47)" stroke="#23D772">
      <path fill="none" d="M0,6.72 L0,-6.72 " class="primitive"/>
    </g>
    <g transform="translate(10.18,46.49)" stroke="#23D772">
      <path fill="none" d="M-6.43,0 L6.43,0 " class="primitive"/>
    </g>
    <g transform="translate(16.6,46.49)" stroke="#23D772">
      <path fill="none" d="M0,11.98 L0,-11.98 " class="primitive"/>
    </g>
    <g transform="translate(3.75,28.19)" stroke="#000000">
      <path fill="none" d="M0,0 L0,0 " class="primitive"/>
    </g>
    <g transform="translate(3.75,28.19)" stroke="#000000">
      <path fill="none" d="M0,18.3 L0,-18.3 " class="primitive"/>
    </g>
  </g>
</g>
<g fill-opacity="1" id="img-29b4c979-3">
  <g transform="translate(16.77,3.64)" fill="#7444E4">
    <circle cx="0" cy="0" r="0.75" class="primitive"/>
  </g>
  <g transform="translate(9.35,6.67)" fill="#7444E4">
    <circle cx="0" cy="0" r="0.75" class="primitive"/>
  </g>
  <g transform="translate(8.88,5.15)" fill="#7444E4">
    <circle cx="0" cy="0" r="0.75" class="primitive"/>
  </g>
  <g transform="translate(36.47,9.7)" fill="#7444E4">
    <circle cx="0" cy="0" r="0.75" class="primitive"/>
  </g>
  <g transform="translate(20.32,12.73)" fill="#7444E4">
    <circle cx="0" cy="0" r="0.75" class="primitive"/>
  </g>
  <g transform="translate(15.4,11.21)" fill="#7444E4">
    <circle cx="0" cy="0" r="0.75" class="primitive"/>
  </g>
  <g transform="translate(9.16,15.76)" fill="#23D772">
    <circle cx="0" cy="0" r="0.75" class="primitive"/>
  </g>
  <g transform="translate(22.6,18.79)" fill="#7444E4">
    <circle cx="0" cy="0" r="0.75" class="primitive"/>
  </g>
  <g transform="translate(11.89,21.82)" fill="#23D772">
    <circle cx="0" cy="0" r="0.75" class="primitive"/>
  </g>
  <g transform="translate(9.95,20.3)" fill="#7444E4">
    <circle cx="0" cy="0" r="0.75" class="primitive"/>
  </g>
  <g transform="translate(6.01,18.03)" fill="#7444E4">
    <circle cx="0" cy="0" r="0.75" class="primitive"/>
  </g>
  <g transform="translate(4.22,14.62)" fill="#7444E4">
    <circle cx="0" cy="0" r="0.75" class="primitive"/>
  </g>
  <g transform="translate(3.75,9.89)" fill="#000000">
    <circle cx="0" cy="0" r="0.75" class="primitive"/>
  </g>
  <g transform="translate(26.28,24.85)" fill="#7444E4">
    <circle cx="0" cy="0" r="0.75" class="primitive"/>
  </g>
  <g transform="translate(22.24,27.88)" fill="#23D772">
    <circle cx="0" cy="0" r="0.75" class="primitive"/>
  </g>
  <g transform="translate(22.03,26.36)" fill="#7444E4">
    <circle cx="0" cy="0" r="0.75" class="primitive"/>
  </g>
  <g transform="translate(31.6,30.91)" fill="#23D772">
    <circle cx="0" cy="0" r="0.75" class="primitive"/>
  </g>
  <g transform="translate(22.26,33.94)" fill="#7444E4">
    <circle cx="0" cy="0" r="0.75" class="primitive"/>
  </g>
  <g transform="translate(20.72,32.42)" fill="#7444E4">
    <circle cx="0" cy="0" r="0.75" class="primitive"/>
  </g>
  <g transform="translate(18.54,29.39)" fill="#7444E4">
    <circle cx="0" cy="0" r="0.75" class="primitive"/>
  </g>
  <g transform="translate(31.25,36.97)" fill="#7444E4">
    <circle cx="0" cy="0" r="0.75" class="primitive"/>
  </g>
  <g transform="translate(30.35,40)" fill="#23D772">
    <circle cx="0" cy="0" r="0.75" class="primitive"/>
  </g>
  <g transform="translate(78.75,43.03)" fill="#7444E4">
    <circle cx="0" cy="0" r="0.75" class="primitive"/>
  </g>
  <g transform="translate(74.98,46.06)" fill="#23D772">
    <circle cx="0" cy="0" r="0.75" class="primitive"/>
  </g>
  <g transform="translate(64.52,44.55)" fill="#7444E4">
    <circle cx="0" cy="0" r="0.75" class="primitive"/>
  </g>
  <g transform="translate(29.78,42.27)" fill="#7444E4">
    <circle cx="0" cy="0" r="0.75" class="primitive"/>
  </g>
  <g transform="translate(23.05,39.62)" fill="#7444E4">
    <circle cx="0" cy="0" r="0.75" class="primitive"/>
  </g>
  <g transform="translate(17.83,34.51)" fill="#7444E4">
    <circle cx="0" cy="0" r="0.75" class="primitive"/>
  </g>
  <g transform="translate(33.09,49.09)" fill="#7444E4">
    <circle cx="0" cy="0" r="0.75" class="primitive"/>
  </g>
  <g transform="translate(38.16,52.12)" fill="#7444E4">
    <circle cx="0" cy="0" r="0.75" class="primitive"/>
  </g>
  <g transform="translate(48.26,55.15)" fill="#7444E4">
    <circle cx="0" cy="0" r="0.75" class="primitive"/>
  </g>
  <g transform="translate(49.79,58.18)" fill="#23D772">
    <circle cx="0" cy="0" r="0.75" class="primitive"/>
  </g>
  <g transform="translate(43.21,56.67)" fill="#7444E4">
    <circle cx="0" cy="0" r="0.75" class="primitive"/>
  </g>
  <g transform="translate(36.94,54.39)" fill="#23D772">
    <circle cx="0" cy="0" r="0.75" class="primitive"/>
  </g>
  <g transform="translate(29.3,51.74)" fill="#7444E4">
    <circle cx="0" cy="0" r="0.75" class="primitive"/>
  </g>
  <g transform="translate(20.58,61.21)" fill="#23D772">
    <circle cx="0" cy="0" r="0.75" class="primitive"/>
  </g>
  <g transform="translate(36.09,64.24)" fill="#7444E4">
    <circle cx="0" cy="0" r="0.75" class="primitive"/>
  </g>
  <g transform="translate(36.75,67.27)" fill="#7444E4">
    <circle cx="0" cy="0" r="0.75" class="primitive"/>
  </g>
  <g transform="translate(30.86,65.76)" fill="#7444E4">
    <circle cx="0" cy="0" r="0.75" class="primitive"/>
  </g>
  <g transform="translate(35.38,70.3)" fill="#23D772">
    <circle cx="0" cy="0" r="0.75" class="primitive"/>
  </g>
  <g transform="translate(31.17,73.33)" fill="#7444E4">
    <circle cx="0" cy="0" r="0.75" class="primitive"/>
  </g>
  <g transform="translate(30.73,76.36)" fill="#7444E4">
    <circle cx="0" cy="0" r="0.75" class="primitive"/>
  </g>
  <g transform="translate(27.76,74.85)" fill="#23D772">
    <circle cx="0" cy="0" r="0.75" class="primitive"/>
  </g>
  <g transform="translate(22.62,72.58)" fill="#7444E4">
    <circle cx="0" cy="0" r="0.75" class="primitive"/>
  </g>
  <g transform="translate(19.33,69.17)" fill="#7444E4">
    <circle cx="0" cy="0" r="0.75" class="primitive"/>
  </g>
  <g transform="translate(19.12,65.19)" fill="#7444E4">
    <circle cx="0" cy="0" r="0.75" class="primitive"/>
  </g>
  <g transform="translate(18.36,58.47)" fill="#23D772">
    <circle cx="0" cy="0" r="0.75" class="primitive"/>
  </g>
  <g transform="translate(16.6,46.49)" fill="#23D772">
    <circle cx="0" cy="0" r="0.75" class="primitive"/>
  </g>
  <g transform="translate(3.75,28.19)" fill="#000000">
    <circle cx="0" cy="0" r="0.75" class="primitive"/>
  </g>
</g>
<g stroke-opacity="1" fill-opacity="1" font-size="1.41" stroke-width="0.1" id="img-29b4c979-4">
  <g transform="translate(18.64,3.64)" stroke="#000000">
    <g class="primitive">
      <text dy="0.35em">N2</text>
    </g>
  </g>
  <g transform="translate(11.23,6.67)" stroke="#000000">
    <g class="primitive">
      <text dy="0.35em">N13</text>
    </g>
  </g>
  <g transform="translate(10.75,5.15)" stroke="#000000">
    <g class="primitive">
      <text dy="0.35em">N27</text>
    </g>
  </g>
  <g transform="translate(38.34,9.7)" stroke="#000000">
    <g class="primitive">
      <text dy="0.35em">N20</text>
    </g>
  </g>
  <g transform="translate(22.19,12.73)" stroke="#000000">
    <g class="primitive">
      <text dy="0.35em">N1</text>
    </g>
  </g>
  <g transform="translate(17.27,11.21)" stroke="#000000">
    <g class="primitive">
      <text dy="0.35em">N29</text>
    </g>
  </g>
  <g transform="translate(11.03,15.76)" stroke="#000000">
    <g class="primitive">
      <text dy="0.35em">N16</text>
    </g>
  </g>
  <g transform="translate(24.48,18.79)" stroke="#000000">
    <g class="primitive">
      <text dy="0.35em">N11</text>
    </g>
  </g>
  <g transform="translate(13.77,21.82)" stroke="#000000">
    <g class="primitive">
      <text dy="0.35em">N17</text>
    </g>
  </g>
  <g transform="translate(11.83,20.3)" stroke="#000000">
    <g class="primitive">
      <text dy="0.35em">N30</text>
    </g>
  </g>
  <g transform="translate(7.88,18.03)" stroke="#000000">
    <g class="primitive">
      <text dy="0.35em">N35</text>
    </g>
  </g>
  <g transform="translate(6.09,14.62)" stroke="#000000">
    <g class="primitive">
      <text dy="0.35em">N39</text>
    </g>
  </g>
  <g transform="translate(5.63,9.89)" stroke="#000000">
    <g class="primitive">
      <text dy="0.35em"></text>
    </g>
  </g>
  <g transform="translate(28.15,24.85)" stroke="#000000">
    <g class="primitive">
      <text dy="0.35em">N24</text>
    </g>
  </g>
  <g transform="translate(24.11,27.88)" stroke="#000000">
    <g class="primitive">
      <text dy="0.35em">N18</text>
    </g>
  </g>
  <g transform="translate(23.91,26.36)" stroke="#000000">
    <g class="primitive">
      <text dy="0.35em">N37</text>
    </g>
  </g>
  <g transform="translate(33.47,30.91)" stroke="#000000">
    <g class="primitive">
      <text dy="0.35em">N21</text>
    </g>
  </g>
  <g transform="translate(24.13,33.94)" stroke="#000000">
    <g class="primitive">
      <text dy="0.35em">N0</text>
    </g>
  </g>
  <g transform="translate(22.59,32.42)" stroke="#000000">
    <g class="primitive">
      <text dy="0.35em">N33</text>
    </g>
  </g>
  <g transform="translate(20.41,29.39)" stroke="#000000">
    <g class="primitive">
      <text dy="0.35em">N42</text>
    </g>
  </g>
  <g transform="translate(33.13,36.97)" stroke="#000000">
    <g class="primitive">
      <text dy="0.35em">N4</text>
    </g>
  </g>
  <g transform="translate(32.23,40)" stroke="#000000">
    <g class="primitive">
      <text dy="0.35em">N23</text>
    </g>
  </g>
  <g transform="translate(80.62,43.03)" stroke="#000000">
    <g class="primitive">
      <text dy="0.35em">N12</text>
    </g>
  </g>
  <g transform="translate(76.86,46.06)" stroke="#000000">
    <g class="primitive">
      <text dy="0.35em">N5</text>
    </g>
  </g>
  <g transform="translate(66.39,44.55)" stroke="#000000">
    <g class="primitive">
      <text dy="0.35em">N31</text>
    </g>
  </g>
  <g transform="translate(31.65,42.27)" stroke="#000000">
    <g class="primitive">
      <text dy="0.35em">N38</text>
    </g>
  </g>
  <g transform="translate(24.92,39.62)" stroke="#000000">
    <g class="primitive">
      <text dy="0.35em">N43</text>
    </g>
  </g>
  <g transform="translate(19.71,34.51)" stroke="#000000">
    <g class="primitive">
      <text dy="0.35em">N45</text>
    </g>
  </g>
  <g transform="translate(34.96,49.09)" stroke="#000000">
    <g class="primitive">
      <text dy="0.35em">N15</text>
    </g>
  </g>
  <g transform="translate(40.03,52.12)" stroke="#000000">
    <g class="primitive">
      <text dy="0.35em">N10</text>
    </g>
  </g>
  <g transform="translate(50.13,55.15)" stroke="#000000">
    <g class="primitive">
      <text dy="0.35em">N9</text>
    </g>
  </g>
  <g transform="translate(51.66,58.18)" stroke="#000000">
    <g class="primitive">
      <text dy="0.35em">N6</text>
    </g>
  </g>
  <g transform="translate(45.08,56.67)" stroke="#000000">
    <g class="primitive">
      <text dy="0.35em">N25</text>
    </g>
  </g>
  <g transform="translate(38.81,54.39)" stroke="#000000">
    <g class="primitive">
      <text dy="0.35em">N28</text>
    </g>
  </g>
  <g transform="translate(31.18,51.74)" stroke="#000000">
    <g class="primitive">
      <text dy="0.35em">N32</text>
    </g>
  </g>
  <g transform="translate(22.46,61.21)" stroke="#000000">
    <g class="primitive">
      <text dy="0.35em">N7</text>
    </g>
  </g>
  <g transform="translate(37.96,64.24)" stroke="#000000">
    <g class="primitive">
      <text dy="0.35em">N22</text>
    </g>
  </g>
  <g transform="translate(38.62,67.27)" stroke="#000000">
    <g class="primitive">
      <text dy="0.35em">N3</text>
    </g>
  </g>
  <g transform="translate(32.74,65.76)" stroke="#000000">
    <g class="primitive">
      <text dy="0.35em">N26</text>
    </g>
  </g>
  <g transform="translate(37.25,70.3)" stroke="#000000">
    <g class="primitive">
      <text dy="0.35em">N8</text>
    </g>
  </g>
  <g transform="translate(33.04,73.33)" stroke="#000000">
    <g class="primitive">
      <text dy="0.35em">N19</text>
    </g>
  </g>
  <g transform="translate(32.6,76.36)" stroke="#000000">
    <g class="primitive">
      <text dy="0.35em">N14</text>
    </g>
  </g>
  <g transform="translate(29.64,74.85)" stroke="#000000">
    <g class="primitive">
      <text dy="0.35em">N34</text>
    </g>
  </g>
  <g transform="translate(24.5,72.58)" stroke="#000000">
    <g class="primitive">
      <text dy="0.35em">N36</text>
    </g>
  </g>
  <g transform="translate(21.2,69.17)" stroke="#000000">
    <g class="primitive">
      <text dy="0.35em">N40</text>
    </g>
  </g>
  <g transform="translate(20.99,65.19)" stroke="#000000">
    <g class="primitive">
      <text dy="0.35em">N41</text>
    </g>
  </g>
  <g transform="translate(20.24,58.47)" stroke="#000000">
    <g class="primitive">
      <text dy="0.35em">N44</text>
    </g>
  </g>
  <g transform="translate(18.48,46.49)" stroke="#000000">
    <g class="primitive">
      <text dy="0.35em">N46</text>
    </g>
  </g>
  <g transform="translate(5.63,28.19)" stroke="#000000">
    <g class="primitive">
      <text dy="0.35em"></text>
    </g>
  </g>
</g>
</svg>
