<?xml version="1.0" encoding="UTF-8"?>
<svg xmlns="http://www.w3.org/2000/svg"
     xmlns:xlink="http://www.w3.org/1999/xlink"
     version="1.2"
     width="150mm" height="74mm" viewBox="0 0 150 74"
     stroke="none"
     fill="#000000"
     stroke-width="0.3"
     font-size="3.88"
>
<defs>
  <marker id="arrow" markerWidth="15" markerHeight="7" refX="5" refY="3.5" orient="auto" markerUnits="strokeWidth">
    <path d="M0,0 L15,3.5 L0,7 z" stroke="context-stroke" fill="context-stroke"/>
  </marker>
</defs>
<g stroke-opacity="1" stroke-width="0.3" id="img-29b4c979-1">
  <g transform="translate(23.84,3.36)" stroke="#C2CD7C">
    <path fill="none" d="M-4.6,0 L4.6,0 " class="primitive"/>
  </g>
  <g transform="translate(22.42,6.57)" stroke="#C2CD7C">
    <path fill="none" d="M-3.18,0 L3.18,0 " class="primitive"/>
  </g>
  <g transform="translate(15.74,4.97)" stroke="#C2CD7C">
    <path fill="none" d="M-3.5,0 L3.5,0 " class="primitive"/>
  </g>
  <g transform="translate(19.24,4.97)" stroke="#C2CD7C">
    <path fill="none" d="M0,1.6 L0,-1.6 " class="primitive"/>
  </g>
  <g transform="translate(31.65,9.77)" stroke="#4068DC">
    <path fill="none" d="M-5.11,0 L5.11,0 " class="primitive"/>
  </g>
  <g transform="translate(33.48,12.97)" stroke="#4068DC">
    <path fill="none" d="M-3.75,0 L3.75,0 " class="primitive"/>
  </g>
  <g transform="translate(39.67,16.18)" stroke="#C2CD7C">
    <path fill="none" d="M-9.93,0 L9.93,0 " class="primitive"/>
  </g>
  <g transform="translate(28.14,14.58)" stroke="#C2CD7C">
    <path fill="none" d="M-1.6,0 L1.6,0 " class="primitive"/>
  </g>
  <g transform="translate(29.73,14.58)" stroke="#C2CD7C">
    <path fill="none" d="M0,1.6 L0,-1.6 " class="primitive"/>
  </g>
  <g transform="translate(24.29,12.17)" stroke="#C2CD7C">
    <path fill="none" d="M-2.26,0 L2.26,0 " class="primitive"/>
  </g>
  <g transform="translate(26.54,12.17)" stroke="#C2CD7C">
    <path fill="none" d="M0,2.4 L0,-2.4 " class="primitive"/>
  </g>
  <g transform="translate(30.06,19.38)" stroke="#C2CD7C">
    <path fill="none" d="M-1.16,0 L1.16,0 " class="primitive"/>
  </g>
  <g transform="translate(63.11,22.58)" stroke="#4068DC">
    <path fill="none" d="M-8.12,0 L8.12,0 " class="primitive"/>
  </g>
  <g transform="translate(61.57,25.79)" stroke="#C2CD7C">
    <path fill="none" d="M-6.58,0 L6.58,0 " class="primitive"/>
  </g>
  <g transform="translate(41.95,24.19)" stroke="#C2CD7C">
    <path fill="none" d="M-13.05,0 L13.05,0 " class="primitive"/>
  </g>
  <g transform="translate(54.99,24.19)" stroke="#C2CD7C">
    <path fill="none" d="M0,1.6 L0,-1.6 " class="primitive"/>
  </g>
  <g transform="translate(25.46,21.78)" stroke="#C2CD7C">
    <path fill="none" d="M-3.44,0 L3.44,0 " class="primitive"/>
  </g>
  <g transform="translate(28.9,21.78)" stroke="#C2CD7C">
    <path fill="none" d="M0,2.4 L0,-2.4 " class="primitive"/>
  </g>
  <g transform="translate(17.14,16.98)" stroke="#4068DC">
    <path fill="none" d="M-4.89,0 L4.89,0 " class="primitive"/>
  </g>
  <g transform="translate(22.03,16.98)" stroke="#4068DC">
    <path fill="none" d="M0,4.81 L0,-4.81 " class="primitive"/>
  </g>
  <g transform="translate(8,10.97)" stroke="#4068DC">
    <path fill="none" d="M-4.25,0 L4.25,0 " class="primitive"/>
  </g>
  <g transform="translate(12.24,10.97)" stroke="#4068DC">
    <path fill="none" d="M0,6.01 L0,-6.01 " class="primitive"/>
  </g>
  <g transform="translate(13.16,28.99)" stroke="#C2CD7C">
    <path fill="none" d="M-0.73,0 L0.73,0 " class="primitive"/>
  </g>
  <g transform="translate(28.69,32.19)" stroke="#4068DC">
    <path fill="none" d="M-1.78,0 L1.78,0 " class="primitive"/>
  </g>
  <g transform="translate(33.39,35.4)" stroke="#C2CD7C">
    <path fill="none" d="M-6.48,0 L6.48,0 " class="primitive"/>
  </g>
  <g transform="translate(26.51,33.8)" stroke="#C2CD7C">
    <path fill="none" d="M-0.4,0 L0.4,0 " class="primitive"/>
  </g>
  <g transform="translate(26.91,33.8)" stroke="#C2CD7C">
    <path fill="none" d="M0,1.6 L0,-1.6 " class="primitive"/>
  </g>
  <g transform="translate(30.13,38.6)" stroke="#4068DC">
    <path fill="none" d="M-0.74,0 L0.74,0 " class="primitive"/>
  </g>
  <g transform="translate(62.63,41.81)" stroke="#4068DC">
    <path fill="none" d="M-8.83,0 L8.83,0 " class="primitive"/>
  </g>
  <g transform="translate(54.17,45.01)" stroke="#4068DC">
    <path fill="none" d="M-0.36,0 L0.36,0 " class="primitive"/>
  </g>
  <g transform="translate(41.6,43.41)" stroke="#C2CD7C">
    <path fill="none" d="M-12.21,0 L12.21,0 " class="primitive"/>
  </g>
  <g transform="translate(53.8,43.41)" stroke="#C2CD7C">
    <path fill="none" d="M0,1.6 L0,-1.6 " class="primitive"/>
  </g>
  <g transform="translate(27.75,41)" stroke="#C2CD7C">
    <path fill="none" d="M-1.64,0 L1.64,0 " class="primitive"/>
  </g>
  <g transform="translate(29.39,41)" stroke="#C2CD7C">
    <path fill="none" d="M0,2.4 L0,-2.4 " class="primitive"/>
  </g>
  <g transform="translate(19.27,37.4)" stroke="#C2CD7C">
    <path fill="none" d="M-6.84,0 L6.84,0 " class="primitive"/>
  </g>
  <g transform="translate(26.11,37.4)" stroke="#C2CD7C">
    <path fill="none" d="M0,3.6 L0,-3.6 " class="primitive"/>
  </g>
  <g transform="translate(8.09,33.2)" stroke="#4068DC">
    <path fill="none" d="M-4.34,0 L4.34,0 " class="primitive"/>
  </g>
  <g transform="translate(12.43,33.2)" stroke="#4068DC">
    <path fill="none" d="M0,4.2 L0,-4.2 " class="primitive"/>
  </g>
  <g transform="translate(15.89,48.21)" stroke="#C2CD7C">
    <path fill="none" d="M-3.48,0 L3.48,0 " class="primitive"/>
  </g>
  <g transform="translate(12.45,51.42)" stroke="#4068DC">
    <path fill="none" d="M-0.05,0 L0.05,0 " class="primitive"/>
  </g>
  <g transform="translate(8.97,49.81)" stroke="#C2CD7C">
    <path fill="none" d="M-3.43,0 L3.43,0 " class="primitive"/>
  </g>
  <g transform="translate(12.4,49.81)" stroke="#C2CD7C">
    <path fill="none" d="M0,1.6 L0,-1.6 " class="primitive"/>
  </g>
  <g transform="translate(23.7,54.62)" stroke="#4068DC">
    <path fill="none" d="M-5.11,0 L5.11,0 " class="primitive"/>
  </g>
  <g transform="translate(40.35,57.82)" stroke="#4068DC">
    <path fill="none" d="M-1.71,0 L1.71,0 " class="primitive"/>
  </g>
  <g transform="translate(50.36,61.03)" stroke="#4068DC">
    <path fill="none" d="M-1.18,0 L1.18,0 " class="primitive"/>
  </g>
  <g transform="translate(52.02,64.23)" stroke="#C2CD7C">
    <path fill="none" d="M-0.91,0 L0.91,0 " class="primitive"/>
  </g>
  <g transform="translate(59.73,67.43)" stroke="#C2CD7C">
    <path fill="none" d="M-6.13,0 L6.13,0 " class="primitive"/>
  </g>
  <g transform="translate(66.17,70.64)" stroke="#C2CD7C">
    <path fill="none" d="M-12.58,0 L12.58,0 " class="primitive"/>
  </g>
  <g transform="translate(52.36,69.03)" stroke="#C2CD7C">
    <path fill="none" d="M-1.24,0 L1.24,0 " class="primitive"/>
  </g>
  <g transform="translate(53.6,69.03)" stroke="#C2CD7C">
    <path fill="none" d="M0,1.6 L0,-1.6 " class="primitive"/>
  </g>
  <g transform="translate(50.15,66.63)" stroke="#4068DC">
    <path fill="none" d="M-0.97,0 L0.97,0 " class="primitive"/>
  </g>
  <g stroke-opacity="1" stroke-width="0.3" id="img-29b4c979-2">
    <g transform="translate(50.15,66.63)" stroke="#4068DC">
      <path fill="none" d="M-0.97,0 L0.97,0 " class="primitive"/>
    </g>
    <g transform="translate(51.12,66.63)" stroke="#4068DC">
      <path fill="none" d="M0,2.4 L0,-2.4 " class="primitive"/>
    </g>
    <g transform="translate(43.91,63.83)" stroke="#C2CD7C">
      <path fill="none" d="M-5.27,0 L5.27,0 " class="primitive"/>
    </g>
    <g transform="translate(49.19,63.83)" stroke="#C2CD7C">
      <path fill="none" d="M0,2.8 L0,-2.8 " class="primitive"/>
    </g>
    <g transform="translate(28.61,60.83)" stroke="#C2CD7C">
      <path fill="none" d="M-10.03,0 L10.03,0 " class="primitive"/>
    </g>
    <g transform="translate(38.64,60.83)" stroke="#C2CD7C">
      <path fill="none" d="M0,3 L0,-3 " class="primitive"/>
    </g>
    <g transform="translate(12.06,57.72)" stroke="#C2CD7C">
      <path fill="none" d="M-6.52,0 L6.52,0 " class="primitive"/>
    </g>
    <g transform="translate(18.58,57.72)" stroke="#C2CD7C">
      <path fill="none" d="M0,3.1 L0,-3.1 " class="primitive"/>
    </g>
    <g transform="translate(4.65,53.77)" stroke="#C2CD7C">
      <path fill="none" d="M-0.9,0 L0.9,0 " class="primitive"/>
    </g>
    <g transform="translate(5.54,53.77)" stroke="#C2CD7C">
      <path fill="none" d="M0,3.95 L0,-3.95 " class="primitive"/>
    </g>
    <g transform="translate(3.75,43.48)" stroke="#000000">
      <path fill="none" d="M0,0 L0,0 " class="primitive"/>
    </g>
    <g transform="translate(3.75,43.48)" stroke="#000000">
      <path fill="none" d="M0,10.29 L0,-10.29 " class="primitive"/>
    </g>
    <g transform="translate(3.75,27.23)" stroke="#000000">
      <path fill="none" d="M0,0 L0,0 " class="primitive"/>
    </g>
    <g transform="translate(3.75,27.23)" stroke="#000000">
      <path fill="none" d="M0,16.26 L0,-16.26 " class="primitive"/>
    </g>
  </g>
</g>
<g fill-opacity="1" id="img-29b4c979-3">
  <g transform="translate(28.43,3.36)" fill="#C2CD7C">
    <circle cx="0" cy="0" r="0.75" class="primitive"/>
  </g>
  <g transform="translate(25.59,6.57)" fill="#C2CD7C">
    <circle cx="0" cy="0" r="0.75" class="primitive"/>
  </g>
  <g transform="translate(19.24,4.97)" fill="#C2CD7C">
    <circle cx="0" cy="0" r="0.75" class="primitive"/>
  </g>
  <g transform="translate(36.75,9.77)" fill="#4068DC">
    <circle cx="0" cy="0" r="0.75" class="primitive"/>
  </g>
  <g transform="translate(37.23,12.97)" fill="#4068DC">
    <circle cx="0" cy="0" r="0.75" class="primitive"/>
  </g>
  <g transform="translate(49.6,16.18)" fill="#C2CD7C">
    <circle cx="0" cy="0" r="0.75" class="primitive"/>
  </g>
  <g transform="translate(29.73,14.58)" fill="#C2CD7C">
    <circle cx="0" cy="0" r="0.75" class="primitive"/>
  </g>
  <g transform="translate(26.54,12.17)" fill="#C2CD7C">
    <circle cx="0" cy="0" r="0.75" class="primitive"/>
  </g>
  <g transform="translate(31.21,19.38)" fill="#C2CD7C">
    <circle cx="0" cy="0" r="0.75" class="primitive"/>
  </g>
  <g transform="translate(71.23,22.58)" fill="#4068DC">
    <circle cx="0" cy="0" r="0.75" class="primitive"/>
  </g>
  <g transform="translate(68.15,25.79)" fill="#C2CD7C">
    <circle cx="0" cy="0" r="0.75" class="primitive"/>
  </g>
  <g transform="translate(54.99,24.19)" fill="#C2CD7C">
    <circle cx="0" cy="0" r="0.75" class="primitive"/>
  </g>
  <g transform="translate(28.9,21.78)" fill="#C2CD7C">
    <circle cx="0" cy="0" r="0.75" class="primitive"/>
  </g>
  <g transform="translate(22.03,16.98)" fill="#4068DC">
    <circle cx="0" cy="0" r="0.75" class="primitive"/>
  </g>
  <g transform="translate(12.24,10.97)" fill="#4068DC">
    <circle cx="0" cy="0" r="0.75" class="primitive"/>
  </g>
  <g transform="translate(13.9,28.99)" fill="#C2CD7C">
    <circle cx="0" cy="0" r="0.75" class="primitive"/>
  </g>
  <g transform="translate(30.47,32.19)" fill="#4068DC">
    <circle cx="0" cy="0" r="0.75" class="primitive"/>
  </g>
  <g transform="translate(39.87,35.4)" fill="#C2CD7C">
    <circle cx="0" cy="0" r="0.75" class="primitive"/>
  </g>
  <g transform="translate(26.91,33.8)" fill="#C2CD7C">
    <circle cx="0" cy="0" r="0.75" class="primitive"/>
  </g>
  <g transform="translate(30.88,38.6)" fill="#4068DC">
    <circle cx="0" cy="0" r="0.75" class="primitive"/>
  </g>
  <g transform="translate(71.46,41.81)" fill="#4068DC">
    <circle cx="0" cy="0" r="0.75" class="primitive"/>
  </g>
  <g transform="translate(54.53,45.01)" fill="#4068DC">
    <circle cx="0" cy="0" r="0.75" class="primitive"/>
  </g>
  <g transform="translate(53.8,43.41)" fill="#C2CD7C">
    <circle cx="0" cy="0" r="0.75" class="primitive"/>
  </g>
  <g transform="translate(29.39,41)" fill="#C2CD7C">
    <circle cx="0" cy="0" r="0.75" class="primitive"/>
  </g>
  <g transform="translate(26.11,37.4)" fill="#C2CD7C">
    <circle cx="0" cy="0" r="0.75" class="primitive"/>
  </g>
  <g transform="translate(12.43,33.2)" fill="#4068DC">
    <circle cx="0" cy="0" r="0.75" class="primitive"/>
  </g>
  <g transform="translate(19.37,48.21)" fill="#C2CD7C">
    <circle cx="0" cy="0" r="0.75" class="primitive"/>
  </g>
  <g transform="translate(12.5,51.42)" fill="#4068DC">
    <circle cx="0" cy="0" r="0.75" class="primitive"/>
  </g>
  <g transform="translate(12.4,49.81)" fill="#C2CD7C">
    <circle cx="0" cy="0" r="0.75" class="primitive"/>
  </g>
  <g transform="translate(28.81,54.62)" fill="#4068DC">
    <circle cx="0" cy="0" r="0.75" class="primitive"/>
  </g>
  <g transform="translate(42.07,57.82)" fill="#4068DC">
    <circle cx="0" cy="0" r="0.75" class="primitive"/>
  </g>
  <g transform="translate(51.54,61.03)" fill="#4068DC">
    <circle cx="0" cy="0" r="0.75" class="primitive"/>
  </g>
  <g transform="translate(52.93,64.23)" fill="#C2CD7C">
    <circle cx="0" cy="0" r="0.75" class="primitive"/>
  </g>
  <g transform="translate(65.86,67.43)" fill="#C2CD7C">
    <circle cx="0" cy="0" r="0.75" class="primitive"/>
  </g>
  <g transform="translate(78.75,70.64)" fill="#C2CD7C">
    <circle cx="0" cy="0" r="0.75" class="primitive"/>
  </g>
  <g transform="translate(53.6,69.03)" fill="#C2CD7C">
    <circle cx="0" cy="0" r="0.75" class="primitive"/>
  </g>
  <g transform="translate(51.12,66.63)" fill="#4068DC">
    <circle cx="0" cy="0" r="0.75" class="primitive"/>
  </g>
  <g transform="translate(49.19,63.83)" fill="#C2CD7C">
    <circle cx="0" cy="0" r="0.75" class="primitive"/>
  </g>
  <g transform="translate(38.64,60.83)" fill="#C2CD7C">
    <circle cx="0" cy="0" r="0.75" class="primitive"/>
  </g>
  <g transform="translate(18.58,57.72)" fill="#C2CD7C">
    <circle cx="0" cy="0" r="0.75" class="primitive"/>
  </g>
  <g transform="translate(5.54,53.77)" fill="#C2CD7C">
    <circle cx="0" cy="0" r="0.75" class="primitive"/>
  </g>
  <g transform="translate(3.75,43.48)" fill="#000000">
    <circle cx="0" cy="0" r="0.75" class="primitive"/>
  </g>
  <g transform="translate(3.75,27.23)" fill="#000000">
    <circle cx="0" cy="0" r="0.75" class="primitive"/>
  </g>
</g>
<g stroke-opacity="1" fill-opacity="1" font-size="1.41" stroke-width="0.1" id="img-29b4c979-4">
  <g transform="translate(30.31,3.36)" stroke="#000000">
    <g class="primitive">
      <text dy="0.35em">N13</text>
    </g>
  </g>
  <g transform="translate(27.47,6.57)" stroke="#000000">
    <g class="primitive">
      <text dy="0.35em">N19</text>
    </g>
  </g>
  <g transform="translate(21.12,4.97)" stroke="#000000">
    <g class="primitive">
      <text dy="0.35em">N31</text>
    </g>
  </g>
  <g transform="translate(38.63,9.77)" stroke="#000000">
    <g class="primitive">
      <text dy="0.35em">N7</text>
    </g>
  </g>
  <g transform="translate(39.11,12.97)" stroke="#000000">
    <g class="primitive">
      <text dy="0.35em">N17</text>
    </g>
  </g>
  <g transform="translate(51.48,16.18)" stroke="#000000">
    <g class="primitive">
      <text dy="0.35em">N9</text>
    </g>
  </g>
  <g transform="translate(31.61,14.58)" stroke="#000000">
    <g class="primitive">
      <text dy="0.35em">N23</text>
    </g>
  </g>
  <g transform="translate(28.42,12.17)" stroke="#000000">
    <g class="primitive">
      <text dy="0.35em">N30</text>
    </g>
  </g>
  <g transform="translate(33.09,19.38)" stroke="#000000">
    <g class="primitive">
      <text dy="0.35em">N2</text>
    </g>
  </g>
  <g transform="translate(73.1,22.58)" stroke="#000000">
    <g class="primitive">
      <text dy="0.35em">N8</text>
    </g>
  </g>
  <g transform="translate(70.02,25.79)" stroke="#000000">
    <g class="primitive">
      <text dy="0.35em">N10</text>
    </g>
  </g>
  <g transform="translate(56.87,24.19)" stroke="#000000">
    <g class="primitive">
      <text dy="0.35em">N27</text>
    </g>
  </g>
  <g transform="translate(30.78,21.78)" stroke="#000000">
    <g class="primitive">
      <text dy="0.35em">N33</text>
    </g>
  </g>
  <g transform="translate(23.9,16.98)" stroke="#000000">
    <g class="primitive">
      <text dy="0.35em">N35</text>
    </g>
  </g>
  <g transform="translate(14.12,10.97)" stroke="#000000">
    <g class="primitive">
      <text dy="0.35em">N39</text>
    </g>
  </g>
  <g transform="translate(15.77,28.99)" stroke="#000000">
    <g class="primitive">
      <text dy="0.35em">N15</text>
    </g>
  </g>
  <g transform="translate(32.34,32.19)" stroke="#000000">
    <g class="primitive">
      <text dy="0.35em">N20</text>
    </g>
  </g>
  <g transform="translate(41.74,35.4)" stroke="#000000">
    <g class="primitive">
      <text dy="0.35em">N16</text>
    </g>
  </g>
  <g transform="translate(28.79,33.8)" stroke="#000000">
    <g class="primitive">
      <text dy="0.35em">N29</text>
    </g>
  </g>
  <g transform="translate(32.75,38.6)" stroke="#000000">
    <g class="primitive">
      <text dy="0.35em">N4</text>
    </g>
  </g>
  <g transform="translate(73.33,41.81)" stroke="#000000">
    <g class="primitive">
      <text dy="0.35em">N14</text>
    </g>
  </g>
  <g transform="translate(56.41,45.01)" stroke="#000000">
    <g class="primitive">
      <text dy="0.35em">N1</text>
    </g>
  </g>
  <g transform="translate(55.68,43.41)" stroke="#000000">
    <g class="primitive">
      <text dy="0.35em">N26</text>
    </g>
  </g>
  <g transform="translate(31.27,41)" stroke="#000000">
    <g class="primitive">
      <text dy="0.35em">N34</text>
    </g>
  </g>
  <g transform="translate(27.99,37.4)" stroke="#000000">
    <g class="primitive">
      <text dy="0.35em">N36</text>
    </g>
  </g>
  <g transform="translate(14.31,33.2)" stroke="#000000">
    <g class="primitive">
      <text dy="0.35em">N40</text>
    </g>
  </g>
  <g transform="translate(21.25,48.21)" stroke="#000000">
    <g class="primitive">
      <text dy="0.35em">N18</text>
    </g>
  </g>
  <g transform="translate(14.38,51.42)" stroke="#000000">
    <g class="primitive">
      <text dy="0.35em">N11</text>
    </g>
  </g>
  <g transform="translate(14.28,49.81)" stroke="#000000">
    <g class="primitive">
      <text dy="0.35em">N28</text>
    </g>
  </g>
  <g transform="translate(30.68,54.62)" stroke="#000000">
    <g class="primitive">
      <text dy="0.35em">N0</text>
    </g>
  </g>
  <g transform="translate(43.94,57.82)" stroke="#000000">
    <g class="primitive">
      <text dy="0.35em">N3</text>
    </g>
  </g>
  <g transform="translate(53.42,61.03)" stroke="#000000">
    <g class="primitive">
      <text dy="0.35em">N12</text>
    </g>
  </g>
  <g transform="translate(54.8,64.23)" stroke="#000000">
    <g class="primitive">
      <text dy="0.35em">N5</text>
    </g>
  </g>
  <g transform="translate(67.74,67.43)" stroke="#000000">
    <g class="primitive">
      <text dy="0.35em">N21</text>
    </g>
  </g>
  <g transform="translate(80.62,70.64)" stroke="#000000">
    <g class="primitive">
      <text dy="0.35em">N6</text>
    </g>
  </g>
  <g transform="translate(55.47,69.03)" stroke="#000000">
    <g class="primitive">
      <text dy="0.35em">N22</text>
    </g>
  </g>
  <g transform="translate(52.99,66.63)" stroke="#000000">
    <g class="primitive">
      <text dy="0.35em">N24</text>
    </g>
  </g>
  <g transform="translate(51.06,63.83)" stroke="#000000">
    <g class="primitive">
      <text dy="0.35em">N25</text>
    </g>
  </g>
  <g transform="translate(40.51,60.83)" stroke="#000000">
    <g class="primitive">
      <text dy="0.35em">N32</text>
    </g>
  </g>
  <g transform="translate(20.46,57.72)" stroke="#000000">
    <g class="primitive">
      <text dy="0.35em">N37</text>
    </g>
  </g>
  <g transform="translate(7.42,53.77)" stroke="#000000">
    <g class="primitive">
      <text dy="0.35em">N38</text>
    </g>
  </g>
  <g transform="translate(5.63,43.48)" stroke="#000000">
    <g class="primitive">
      <text dy="0.35em"></text>
    </g>
  </g>
  <g transform="translate(5.63,27.23)" stroke="#000000">
    <g class="primitive">
      <text dy="0.35em"></text>
    </g>
  </g>
</g>
</svg>
