<?xml version="1.0" encoding="UTF-8"?>
<svg xmlns="http://www.w3.org/2000/svg"
     xmlns:xlink="http://www.w3.org/1999/xlink"
     version="1.2"
     width="150mm" height="60mm" viewBox="0 0 150 60"
     stroke="none"
     fill="#000000"
     stroke-width="0.3"
     font-size="3.88"
>
<defs>
  <marker id="arrow" markerWidth="15" markerHeight="7" refX="5" refY="3.5" orient="auto" markerUnits="strokeWidth">
    <path d="M0,0 L15,3.5 L0,7 z" stroke="context-stroke" fill="context-stroke"/>
  </marker>
</defs>
<g stroke-opacity="1" stroke-width="0.3" id="img-e0e9d0e6-1">
  <g transform="translate(10.16,2.73)" stroke="#15D651">
    <path fill="none" d="M-5.88,0 L5.88,0 " class="primitive"/>
  </g>
  <g transform="translate(7,6.62)" stroke="#9EE846">
    <path fill="none" d="M-0.11,0 L0.11,0 " class="primitive"/>
  </g>
  <g transform="translate(8.85,10.52)" stroke="#9EE846">
    <path fill="none" d="M-1.95,0 L1.95,0 " class="primitive"/>
  </g>
  <g transform="translate(5.59,8.57)" stroke="#9EE846">
    <path fill="none" d="M-1.31,0 L1.31,0 " class="primitive"/>
  </g>
  <g transform="translate(6.9,8.57)" stroke="#9EE846">
    <path fill="none" d="M0,1.95 L0,-1.95 " class="primitive"/>
  </g>
  <g transform="translate(4.01,5.65)" stroke="#9EE846">
    <path fill="none" d="M-0.26,0 L0.26,0 " class="primitive"/>
  </g>
  <g transform="translate(4.28,5.65)" stroke="#9EE846">
    <path fill="none" d="M0,2.92 L0,-2.92 " class="primitive"/>
  </g>
  <g transform="translate(11.38,14.42)" stroke="#15D651">
    <path fill="none" d="M-7.35,0 L7.35,0 " class="primitive"/>
  </g>
  <g transform="translate(5.01,18.31)" stroke="#9EE846">
    <path fill="none" d="M-0.02,0 L0.02,0 " class="primitive"/>
  </g>
  <g transform="translate(10.92,22.21)" stroke="#15D651">
    <path fill="none" d="M-1.71,0 L1.71,0 " class="primitive"/>
  </g>
  <g transform="translate(11.79,26.1)" stroke="#9EE846">
    <path fill="none" d="M-2.58,0 L2.58,0 " class="primitive"/>
  </g>
  <g transform="translate(7.1,24.16)" stroke="#9EE846">
    <path fill="none" d="M-2.11,0 L2.11,0 " class="primitive"/>
  </g>
  <g transform="translate(9.21,24.16)" stroke="#9EE846">
    <path fill="none" d="M0,1.95 L0,-1.95 " class="primitive"/>
  </g>
  <g transform="translate(4.51,21.23)" stroke="#15D651">
    <path fill="none" d="M-0.48,0 L0.48,0 " class="primitive"/>
  </g>
  <g transform="translate(4.99,21.23)" stroke="#15D651">
    <path fill="none" d="M0,2.92 L0,-2.92 " class="primitive"/>
  </g>
  <g transform="translate(3.89,17.82)" stroke="#9EE846">
    <path fill="none" d="M-0.14,0 L0.14,0 " class="primitive"/>
  </g>
  <g transform="translate(4.03,17.82)" stroke="#9EE846">
    <path fill="none" d="M0,3.41 L0,-3.41 " class="primitive"/>
  </g>
  <g transform="translate(3.75,11.74)" stroke="#000000">
    <path fill="none" d="M0,0 L0,0 " class="primitive"/>
  </g>
  <g transform="translate(3.75,11.74)" stroke="#000000">
    <path fill="none" d="M0,6.09 L0,-6.09 " class="primitive"/>
  </g>
  <g transform="translate(9.3,30)" stroke="#9EE846">
    <path fill="none" d="M-4.59,0 L4.59,0 " class="primitive"/>
  </g>
  <g transform="translate(68.9,33.9)" stroke="#9EE846">
    <path fill="none" d="M-9.85,0 L9.85,0 " class="primitive"/>
  </g>
  <g transform="translate(72.85,37.79)" stroke="#9EE846">
    <path fill="none" d="M-4.15,0 L4.15,0 " class="primitive"/>
  </g>
  <g transform="translate(70.24,41.69)" stroke="#9EE846">
    <path fill="none" d="M-1.53,0 L1.53,0 " class="primitive"/>
  </g>
  <g transform="translate(63.88,39.74)" stroke="#15D651">
    <path fill="none" d="M-4.82,0 L4.82,0 " class="primitive"/>
  </g>
  <g transform="translate(68.71,39.74)" stroke="#15D651">
    <path fill="none" d="M0,1.95 L0,-1.95 " class="primitive"/>
  </g>
  <g transform="translate(49.42,36.82)" stroke="#15D651">
    <path fill="none" d="M-9.64,0 L9.64,0 " class="primitive"/>
  </g>
  <g transform="translate(59.06,36.82)" stroke="#15D651">
    <path fill="none" d="M0,2.92 L0,-2.92 " class="primitive"/>
  </g>
  <g transform="translate(65.61,45.58)" stroke="#9EE846">
    <path fill="none" d="M-0.27,0 L0.27,0 " class="primitive"/>
  </g>
  <g transform="translate(65.85,49.48)" stroke="#9EE846">
    <path fill="none" d="M-0.51,0 L0.51,0 " class="primitive"/>
  </g>
  <g transform="translate(53.24,47.53)" stroke="#15D651">
    <path fill="none" d="M-12.1,0 L12.1,0 " class="primitive"/>
  </g>
  <g transform="translate(65.34,47.53)" stroke="#15D651">
    <path fill="none" d="M0,1.95 L0,-1.95 " class="primitive"/>
  </g>
  <g transform="translate(43.19,53.38)" stroke="#9EE846">
    <path fill="none" d="M-1.41,0 L1.41,0 " class="primitive"/>
  </g>
  <g transform="translate(44.72,57.27)" stroke="#9EE846">
    <path fill="none" d="M-2.94,0 L2.94,0 " class="primitive"/>
  </g>
  <g transform="translate(41.46,55.32)" stroke="#15D651">
    <path fill="none" d="M-0.32,0 L0.32,0 " class="primitive"/>
  </g>
  <g transform="translate(41.78,55.32)" stroke="#15D651">
    <path fill="none" d="M0,1.95 L0,-1.95 " class="primitive"/>
  </g>
  <g transform="translate(40.46,51.43)" stroke="#15D651">
    <path fill="none" d="M-0.68,0 L0.68,0 " class="primitive"/>
  </g>
  <g transform="translate(41.14,51.43)" stroke="#15D651">
    <path fill="none" d="M0,3.9 L0,-3.9 " class="primitive"/>
  </g>
  <g transform="translate(22.25,44.12)" stroke="#9EE846">
    <path fill="none" d="M-17.53,0 L17.53,0 " class="primitive"/>
  </g>
  <g transform="translate(39.78,44.12)" stroke="#9EE846">
    <path fill="none" d="M0,7.31 L0,-7.31 " class="primitive"/>
  </g>
  <g transform="translate(4.23,37.06)" stroke="#9EE846">
    <path fill="none" d="M-0.48,0 L0.48,0 " class="primitive"/>
  </g>
  <g transform="translate(4.72,37.06)" stroke="#9EE846">
    <path fill="none" d="M0,7.06 L0,-7.06 " class="primitive"/>
  </g>
  <g transform="translate(3.75,24.4)" stroke="#000000">
    <path fill="none" d="M0,0 L0,0 " class="primitive"/>
  </g>
  <g transform="translate(3.75,24.4)" stroke="#000000">
    <path fill="none" d="M0,12.66 L0,-12.66 " class="primitive"/>
  </g>
</g>
<g fill-opacity="1" id="img-e0e9d0e6-2">
  <g transform="translate(16.05,2.73)" fill="#15D651">
    <circle cx="0" cy="0" r="0.75" class="primitive"/>
  </g>
  <g transform="translate(7.11,6.62)" fill="#9EE846">
    <circle cx="0" cy="0" r="0.75" class="primitive"/>
  </g>
  <g transform="translate(10.8,10.52)" fill="#9EE846">
    <circle cx="0" cy="0" r="0.75" class="primitive"/>
  </g>
  <g transform="translate(6.9,8.57)" fill="#9EE846">
    <circle cx="0" cy="0" r="0.75" class="primitive"/>
  </g>
  <g transform="translate(4.28,5.65)" fill="#9EE846">
    <circle cx="0" cy="0" r="0.75" class="primitive"/>
  </g>
  <g transform="translate(18.73,14.42)" fill="#15D651">
    <circle cx="0" cy="0" r="0.75" class="primitive"/>
  </g>
  <g transform="translate(5.03,18.31)" fill="#9EE846">
    <circle cx="0" cy="0" r="0.75" class="primitive"/>
  </g>
  <g transform="translate(12.63,22.21)" fill="#15D651">
    <circle cx="0" cy="0" r="0.75" class="primitive"/>
  </g>
  <g transform="translate(14.37,26.1)" fill="#9EE846">
    <circle cx="0" cy="0" r="0.75" class="primitive"/>
  </g>
  <g transform="translate(9.21,24.16)" fill="#9EE846">
    <circle cx="0" cy="0" r="0.75" class="primitive"/>
  </g>
  <g transform="translate(4.99,21.23)" fill="#15D651">
    <circle cx="0" cy="0" r="0.75" class="primitive"/>
  </g>
  <g transform="translate(4.03,17.82)" fill="#9EE846">
    <circle cx="0" cy="0" r="0.75" class="primitive"/>
  </g>
  <g transform="translate(3.75,11.74)" fill="#000000">
    <circle cx="0" cy="0" r="0.75" class="primitive"/>
  </g>
  <g transform="translate(13.89,30)" fill="#9EE846">
    <circle cx="0" cy="0" r="0.75" class="primitive"/>
  </g>
  <g transform="translate(78.75,33.9)" fill="#9EE846">
    <circle cx="0" cy="0" r="0.75" class="primitive"/>
  </g>
  <g transform="translate(77,37.79)" fill="#9EE846">
    <circle cx="0" cy="0" r="0.75" class="primitive"/>
  </g>
  <g transform="translate(71.78,41.69)" fill="#9EE846">
    <circle cx="0" cy="0" r="0.75" class="primitive"/>
  </g>
  <g transform="translate(68.71,39.74)" fill="#15D651">
    <circle cx="0" cy="0" r="0.75" class="primitive"/>
  </g>
  <g transform="translate(59.06,36.82)" fill="#15D651">
    <circle cx="0" cy="0" r="0.75" class="primitive"/>
  </g>
  <g transform="translate(65.88,45.58)" fill="#9EE846">
    <circle cx="0" cy="0" r="0.75" class="primitive"/>
  </g>
  <g transform="translate(66.37,49.48)" fill="#9EE846">
    <circle cx="0" cy="0" r="0.75" class="primitive"/>
  </g>
  <g transform="translate(65.34,47.53)" fill="#15D651">
    <circle cx="0" cy="0" r="0.75" class="primitive"/>
  </g>
  <g transform="translate(44.6,53.38)" fill="#9EE846">
    <circle cx="0" cy="0" r="0.75" class="primitive"/>
  </g>
  <g transform="translate(47.66,57.27)" fill="#9EE846">
    <circle cx="0" cy="0" r="0.75" class="primitive"/>
  </g>
  <g transform="translate(41.78,55.32)" fill="#15D651">
    <circle cx="0" cy="0" r="0.75" class="primitive"/>
  </g>
  <g transform="translate(41.14,51.43)" fill="#15D651">
    <circle cx="0" cy="0" r="0.75" class="primitive"/>
  </g>
  <g transform="translate(39.78,44.12)" fill="#9EE846">
    <circle cx="0" cy="0" r="0.75" class="primitive"/>
  </g>
  <g transform="translate(4.72,37.06)" fill="#9EE846">
    <circle cx="0" cy="0" r="0.75" class="primitive"/>
  </g>
  <g transform="translate(3.75,24.4)" fill="#000000">
    <circle cx="0" cy="0" r="0.75" class="primitive"/>
  </g>
</g>
<g stroke-opacity="1" fill-opacity="1" font-size="1.41" stroke-width="0.1" id="img-e0e9d0e6-3">
  <g transform="translate(17.92,2.73)" stroke="#000000">
    <g class="primitive">
      <text dy="0.35em">N6</text>
    </g>
  </g>
  <g transform="translate(8.99,6.62)" stroke="#000000">
    <g class="primitive">
      <text dy="0.35em">N2</text>
    </g>
  </g>
  <g transform="translate(12.68,10.52)" stroke="#000000">
    <g class="primitive">
      <text dy="0.35em">N11</text>
    </g>
  </g>
  <g transform="translate(8.77,8.57)" stroke="#000000">
    <g class="primitive">
      <text dy="0.35em">N21</text>
    </g>
  </g>
  <g transform="translate(6.15,5.65)" stroke="#000000">
    <g class="primitive">
      <text dy="0.35em">N22</text>
    </g>
  </g>
  <g transform="translate(20.6,14.42)" stroke="#000000">
    <g class="primitive">
      <text dy="0.35em">N8</text>
    </g>
  </g>
  <g transform="translate(6.9,18.31)" stroke="#000000">
    <g class="primitive">
      <text dy="0.35em">N7</text>
    </g>
  </g>
  <g transform="translate(14.5,22.21)" stroke="#000000">
    <g class="primitive">
      <text dy="0.35em">N14</text>
    </g>
  </g>
  <g transform="translate(16.24,26.1)" stroke="#000000">
    <g class="primitive">
      <text dy="0.35em">N9</text>
    </g>
  </g>
  <g transform="translate(11.08,24.16)" stroke="#000000">
    <g class="primitive">
      <text dy="0.35em">N16</text>
    </g>
  </g>
  <g transform="translate(6.86,21.23)" stroke="#000000">
    <g class="primitive">
      <text dy="0.35em">N17</text>
    </g>
  </g>
  <g transform="translate(5.9,17.82)" stroke="#000000">
    <g class="primitive">
      <text dy="0.35em">N18</text>
    </g>
  </g>
  <g transform="translate(5.63,11.74)" stroke="#000000">
    <g class="primitive">
      <text dy="0.35em"></text>
    </g>
  </g>
  <g transform="translate(15.77,30)" stroke="#000000">
    <g class="primitive">
      <text dy="0.35em">N5</text>
    </g>
  </g>
  <g transform="translate(80.62,33.9)" stroke="#000000">
    <g class="primitive">
      <text dy="0.35em">N1</text>
    </g>
  </g>
  <g transform="translate(78.88,37.79)" stroke="#000000">
    <g class="primitive">
      <text dy="0.35em">N10</text>
    </g>
  </g>
  <g transform="translate(73.65,41.69)" stroke="#000000">
    <g class="primitive">
      <text dy="0.35em">N12</text>
    </g>
  </g>
  <g transform="translate(70.58,39.74)" stroke="#000000">
    <g class="primitive">
      <text dy="0.35em">N19</text>
    </g>
  </g>
  <g transform="translate(60.93,36.82)" stroke="#000000">
    <g class="primitive">
      <text dy="0.35em">N23</text>
    </g>
  </g>
  <g transform="translate(67.75,45.58)" stroke="#000000">
    <g class="primitive">
      <text dy="0.35em">N13</text>
    </g>
  </g>
  <g transform="translate(68.24,49.48)" stroke="#000000">
    <g class="primitive">
      <text dy="0.35em">N4</text>
    </g>
  </g>
  <g transform="translate(67.22,47.53)" stroke="#000000">
    <g class="primitive">
      <text dy="0.35em">N20</text>
    </g>
  </g>
  <g transform="translate(46.47,53.38)" stroke="#000000">
    <g class="primitive">
      <text dy="0.35em">N0</text>
    </g>
  </g>
  <g transform="translate(49.54,57.27)" stroke="#000000">
    <g class="primitive">
      <text dy="0.35em">N3</text>
    </g>
  </g>
  <g transform="translate(43.66,55.32)" stroke="#000000">
    <g class="primitive">
      <text dy="0.35em">N15</text>
    </g>
  </g>
  <g transform="translate(43.01,51.43)" stroke="#000000">
    <g class="primitive">
      <text dy="0.35em">N24</text>
    </g>
  </g>
  <g transform="translate(41.65,44.12)" stroke="#000000">
    <g class="primitive">
      <text dy="0.35em">N25</text>
    </g>
  </g>
  <g transform="translate(6.59,37.06)" stroke="#000000">
    <g class="primitive">
      <text dy="0.35em">N26</text>
    </g>
  </g>
  <g transform="translate(5.63,24.4)" stroke="#000000">
    <g class="primitive">
      <text dy="0.35em"></text>
    </g>
  </g>
</g>
</svg>
