<?xml version="1.0" encoding="UTF-8"?>
<svg xmlns="http://www.w3.org/2000/svg"
     xmlns:xlink="http://www.w3.org/1999/xlink"
     version="1.2"
     width="150mm" height="148mm" viewBox="0 0 150 148"
     stroke="none"
     fill="#000000"
     stroke-width="0.3"
     font-size="3.88"
>
<defs>
  <marker id="arrow" markerWidth="15" markerHeight="7" refX="5" refY="3.5" orient="auto" markerUnits="strokeWidth">
    <path d="M0,0 L15,3.5 L0,7 z" stroke="context-stroke" fill="context-stroke"/>
  </marker>
</defs>
<g stroke-opacity="1" stroke-width="0.3" id="img-cd72c563-1">
  <g transform="translate(4.92,6.73)" stroke="#FF0000">
    <path fill="none" d="M-0.14,0 L0.14,0 " class="primitive"/>
  </g>
  <g transform="translate(5.4,9.05)" stroke="#FF0000">
    <path fill="none" d="M-0,0 L0,0 " class="primitive"/>
  </g>
  <g transform="translate(5.41,11.37)" stroke="#FF0000">
    <path fill="none" d="M-0,0 L0,0 " class="primitive"/>
  </g>
  <g transform="translate(5.47,13.69)" stroke="#FF0000">
    <path fill="none" d="M-0.01,0 L0.01,0 " class="primitive"/>
  </g>
  <g transform="translate(5.48,16.01)" stroke="#FF0000">
    <path fill="none" d="M-0,0 L0,0 " class="primitive"/>
  </g>
  <g transform="translate(5.47,18.33)" stroke="#FF0000">
    <path fill="none" d="M-0,0 L0,0 " class="primitive"/>
  </g>
  <g transform="translate(5.48,20.65)" stroke="#FF0000">
    <path fill="none" d="M-0,0 L0,0 " class="primitive"/>
  </g>
  <g transform="translate(5.47,19.49)" stroke="#FF0000">
    <path fill="none" d="M-0,0 L0,0 " class="primitive"/>
  </g>
  <g transform="translate(5.47,19.49)" stroke="#FF0000">
    <path fill="none" d="M0,1.16 L0,-1.16 " class="primitive"/>
  </g>
  <g transform="translate(5.48,22.97)" stroke="#FF0000">
    <path fill="none" d="M-0.01,0 L0.01,0 " class="primitive"/>
  </g>
  <g transform="translate(5.48,25.29)" stroke="#FF0000">
    <path fill="none" d="M-0,0 L0,0 " class="primitive"/>
  </g>
  <g transform="translate(5.47,24.13)" stroke="#FF0000">
    <path fill="none" d="M-0,0 L0,0 " class="primitive"/>
  </g>
  <g transform="translate(5.47,24.13)" stroke="#FF0000">
    <path fill="none" d="M0,1.16 L0,-1.16 " class="primitive"/>
  </g>
  <g transform="translate(5.49,27.61)" stroke="#FF0000">
    <path fill="none" d="M-0.01,0 L0.01,0 " class="primitive"/>
  </g>
  <g transform="translate(5.49,29.92)" stroke="#FF0000">
    <path fill="none" d="M-0.01,0 L0.01,0 " class="primitive"/>
  </g>
  <g transform="translate(5.49,32.24)" stroke="#FF0000">
    <path fill="none" d="M-0.01,0 L0.01,0 " class="primitive"/>
  </g>
  <g transform="translate(5.48,31.08)" stroke="#FF0000">
    <path fill="none" d="M-0,0 L0,0 " class="primitive"/>
  </g>
  <g transform="translate(5.48,31.08)" stroke="#FF0000">
    <path fill="none" d="M0,1.16 L0,-1.16 " class="primitive"/>
  </g>
  <g transform="translate(5.48,29.34)" stroke="#FF0000">
    <path fill="none" d="M-0,0 L0,0 " class="primitive"/>
  </g>
  <g transform="translate(5.48,29.34)" stroke="#FF0000">
    <path fill="none" d="M0,1.74 L0,-1.74 " class="primitive"/>
  </g>
  <g transform="translate(5.47,26.74)" stroke="#FF0000">
    <path fill="none" d="M-0,0 L0,0 " class="primitive"/>
  </g>
  <g transform="translate(5.47,26.74)" stroke="#FF0000">
    <path fill="none" d="M0,2.61 L0,-2.61 " class="primitive"/>
  </g>
  <g transform="translate(5.47,23.11)" stroke="#FF0000">
    <path fill="none" d="M-0,0 L0,0 " class="primitive"/>
  </g>
  <g transform="translate(5.47,23.11)" stroke="#FF0000">
    <path fill="none" d="M0,3.62 L0,-3.62 " class="primitive"/>
  </g>
  <g transform="translate(5.47,19.56)" stroke="#FF0000">
    <path fill="none" d="M-0.01,0 L0.01,0 " class="primitive"/>
  </g>
  <g transform="translate(5.47,19.56)" stroke="#FF0000">
    <path fill="none" d="M0,3.55 L0,-3.55 " class="primitive"/>
  </g>
  <g transform="translate(5.44,16.62)" stroke="#FF0000">
    <path fill="none" d="M-0.03,0 L0.03,0 " class="primitive"/>
  </g>
  <g transform="translate(5.46,16.62)" stroke="#FF0000">
    <path fill="none" d="M0,2.94 L0,-2.94 " class="primitive"/>
  </g>
  <g transform="translate(5.4,13.99)" stroke="#FF0000">
    <path fill="none" d="M-0.01,0 L0.01,0 " class="primitive"/>
  </g>
  <g transform="translate(5.41,13.99)" stroke="#FF0000">
    <path fill="none" d="M0,2.63 L0,-2.63 " class="primitive"/>
  </g>
  <g transform="translate(5.09,11.52)" stroke="#FF0000">
    <path fill="none" d="M-0.31,0 L0.31,0 " class="primitive"/>
  </g>
  <g transform="translate(5.4,11.52)" stroke="#FF0000">
    <path fill="none" d="M0,2.47 L0,-2.47 " class="primitive"/>
  </g>
  <g transform="translate(4.27,9.12)" stroke="#FF0000">
    <path fill="none" d="M-0.52,0 L0.52,0 " class="primitive"/>
  </g>
  <g transform="translate(4.78,9.12)" stroke="#FF0000">
    <path fill="none" d="M0,2.4 L0,-2.4 " class="primitive"/>
  </g>
  <g transform="translate(41.25,34.56)" stroke="#000000">
    <path fill="none" d="M-37.5,0 L37.5,0 " class="primitive"/>
  </g>
  <g transform="translate(4.06,36.88)" stroke="#FF0000">
    <path fill="none" d="M-0,0 L0,0 " class="primitive"/>
  </g>
  <g transform="translate(4.06,39.2)" stroke="#FF0000">
    <path fill="none" d="M-0.01,0 L0.01,0 " class="primitive"/>
  </g>
  <g transform="translate(4.07,41.52)" stroke="#FF0000">
    <path fill="none" d="M-0,0 L0,0 " class="primitive"/>
  </g>
  <g transform="translate(4.07,43.84)" stroke="#FF0000">
    <path fill="none" d="M-0,0 L0,0 " class="primitive"/>
  </g>
  <g transform="translate(4.06,42.68)" stroke="#FF0000">
    <path fill="none" d="M-0.01,0 L0.01,0 " class="primitive"/>
  </g>
  <g transform="translate(4.06,42.68)" stroke="#FF0000">
    <path fill="none" d="M0,1.16 L0,-1.16 " class="primitive"/>
  </g>
  <g transform="translate(4.05,40.94)" stroke="#FF0000">
    <path fill="none" d="M-0,0 L0,0 " class="primitive"/>
  </g>
  <g transform="translate(4.05,40.94)" stroke="#FF0000">
    <path fill="none" d="M0,1.74 L0,-1.74 " class="primitive"/>
  </g>
  <g transform="translate(4.06,46.16)" stroke="#FF0000">
    <path fill="none" d="M-0.01,0 L0.01,0 " class="primitive"/>
  </g>
  <g transform="translate(4.06,48.48)" stroke="#FF0000">
    <path fill="none" d="M-0,0 L0,0 " class="primitive"/>
  </g>
  <g transform="translate(4.07,50.8)" stroke="#FF0000">
    <path fill="none" d="M-0.01,0 L0.01,0 " class="primitive"/>
  </g>
  <g transform="translate(4.06,49.64)" stroke="#FF0000">
    <path fill="none" d="M-0,0 L0,0 " class="primitive"/>
  </g>
  <g transform="translate(4.06,49.64)" stroke="#FF0000">
    <path fill="none" d="M0,1.16 L0,-1.16 " class="primitive"/>
  </g>
  <g transform="translate(4.05,47.9)" stroke="#FF0000">
    <path fill="none" d="M-0,0 L0,0 " class="primitive"/>
  </g>
  <g transform="translate(4.05,47.9)" stroke="#FF0000">
    <path fill="none" d="M0,1.74 L0,-1.74 " class="primitive"/>
  </g>
  <g transform="translate(4.05,44.42)" stroke="#FF0000">
    <path fill="none" d="M-0,0 L0,0 " class="primitive"/>
  </g>
  <g stroke-opacity="1" stroke-width="0.3" id="img-cd72c563-2">
    <g transform="translate(4.08,140.11)" stroke="#0000FF">
      <path fill="none" d="M0,1.16 L0,-1.16 " class="primitive"/>
    </g>
    <g transform="translate(4.08,138.37)" stroke="#0000FF">
      <path fill="none" d="M-0,0 L0,0 " class="primitive"/>
    </g>
    <g transform="translate(4.08,138.37)" stroke="#0000FF">
      <path fill="none" d="M0,1.74 L0,-1.74 " class="primitive"/>
    </g>
    <g transform="translate(4.07,136.34)" stroke="#0000FF">
      <path fill="none" d="M-0,0 L0,0 " class="primitive"/>
    </g>
    <g transform="translate(4.07,136.34)" stroke="#0000FF">
      <path fill="none" d="M0,2.03 L0,-2.03 " class="primitive"/>
    </g>
    <g transform="translate(4.07,133.59)" stroke="#0000FF">
      <path fill="none" d="M-0,0 L0,0 " class="primitive"/>
    </g>
    <g transform="translate(4.07,133.59)" stroke="#0000FF">
      <path fill="none" d="M0,2.75 L0,-2.75 " class="primitive"/>
    </g>
    <g transform="translate(4.07,130.47)" stroke="#0000FF">
      <path fill="none" d="M-0,0 L0,0 " class="primitive"/>
    </g>
    <g transform="translate(4.07,130.47)" stroke="#0000FF">
      <path fill="none" d="M0,3.12 L0,-3.12 " class="primitive"/>
    </g>
    <g transform="translate(4.07,123.91)" stroke="#0000FF">
      <path fill="none" d="M-0,0 L0,0 " class="primitive"/>
    </g>
    <g transform="translate(4.07,123.91)" stroke="#0000FF">
      <path fill="none" d="M0,6.56 L0,-6.56 " class="primitive"/>
    </g>
    <g transform="translate(4.07,117.51)" stroke="#0000FF">
      <path fill="none" d="M-0,0 L0,0 " class="primitive"/>
    </g>
    <g transform="translate(4.07,117.51)" stroke="#0000FF">
      <path fill="none" d="M0,6.4 L0,-6.4 " class="primitive"/>
    </g>
    <g transform="translate(4.06,113.15)" stroke="#0000FF">
      <path fill="none" d="M-0.01,0 L0.01,0 " class="primitive"/>
    </g>
    <g transform="translate(4.07,113.15)" stroke="#0000FF">
      <path fill="none" d="M0,4.36 L0,-4.36 " class="primitive"/>
    </g>
    <g transform="translate(3.97,109.24)" stroke="#000000">
      <path fill="none" d="M-0.08,0 L0.08,0 " class="primitive"/>
    </g>
    <g transform="translate(4.05,109.24)" stroke="#000000">
      <path fill="none" d="M0,3.92 L0,-3.92 " class="primitive"/>
    </g>
    <g transform="translate(3.82,99.43)" stroke="#000000">
      <path fill="none" d="M-0.07,0 L0.07,0 " class="primitive"/>
    </g>
    <g transform="translate(3.89,99.43)" stroke="#000000">
      <path fill="none" d="M0,9.81 L0,-9.81 " class="primitive"/>
    </g>
    <g transform="translate(3.75,73.88)" stroke="#000000">
      <path fill="none" d="M-0,0 L0,0 " class="primitive"/>
    </g>
    <g transform="translate(3.75,73.88)" stroke="#000000">
      <path fill="none" d="M0,25.55 L0,-25.55 " class="primitive"/>
    </g>
    <g transform="translate(3.75,54.22)" stroke="#000000">
      <path fill="none" d="M0,0 L0,0 " class="primitive"/>
    </g>
    <g transform="translate(3.75,54.22)" stroke="#000000">
      <path fill="none" d="M0,19.66 L0,-19.66 " class="primitive"/>
    </g>
    <g transform="translate(3.75,31.67)" stroke="#000000">
      <path fill="none" d="M0,0 L0,0 " class="primitive"/>
    </g>
    <g transform="translate(3.75,31.67)" stroke="#000000">
      <path fill="none" d="M0,22.55 L0,-22.55 " class="primitive"/>
    </g>
  </g>
  <g stroke-opacity="1" stroke-width="0.3" id="img-cd72c563-3">
    <g transform="translate(4.15,90.24)" stroke="#FF0000">
      <path fill="none" d="M-0,0 L0,0 " class="primitive"/>
    </g>
    <g transform="translate(4.16,92.56)" stroke="#FF0000">
      <path fill="none" d="M-0.01,0 L0.01,0 " class="primitive"/>
    </g>
    <g transform="translate(4.16,94.88)" stroke="#FF0000">
      <path fill="none" d="M-0,0 L0,0 " class="primitive"/>
    </g>
    <g transform="translate(4.16,97.2)" stroke="#FF0000">
      <path fill="none" d="M-0,0 L0,0 " class="primitive"/>
    </g>
    <g transform="translate(4.16,99.52)" stroke="#FF0000">
      <path fill="none" d="M-0,0 L0,0 " class="primitive"/>
    </g>
    <g transform="translate(4.16,101.84)" stroke="#FF0000">
      <path fill="none" d="M-0,0 L0,0 " class="primitive"/>
    </g>
    <g transform="translate(4.16,100.68)" stroke="#FF0000">
      <path fill="none" d="M-0,0 L0,0 " class="primitive"/>
    </g>
    <g transform="translate(4.16,100.68)" stroke="#FF0000">
      <path fill="none" d="M0,1.16 L0,-1.16 " class="primitive"/>
    </g>
    <g transform="translate(4.16,98.94)" stroke="#FF0000">
      <path fill="none" d="M-0,0 L0,0 " class="primitive"/>
    </g>
    <g transform="translate(4.16,98.94)" stroke="#FF0000">
      <path fill="none" d="M0,1.74 L0,-1.74 " class="primitive"/>
    </g>
    <g transform="translate(4.15,96.91)" stroke="#FF0000">
      <path fill="none" d="M-0,0 L0,0 " class="primitive"/>
    </g>
    <g transform="translate(4.16,96.91)" stroke="#FF0000">
      <path fill="none" d="M0,2.03 L0,-2.03 " class="primitive"/>
    </g>
    <g transform="translate(4.15,94.73)" stroke="#FF0000">
      <path fill="none" d="M-0,0 L0,0 " class="primitive"/>
    </g>
    <g transform="translate(4.15,94.73)" stroke="#FF0000">
      <path fill="none" d="M0,2.17 L0,-2.17 " class="primitive"/>
    </g>
    <g transform="translate(4.15,92.49)" stroke="#FF0000">
      <path fill="none" d="M-0,0 L0,0 " class="primitive"/>
    </g>
    <g transform="translate(4.15,92.49)" stroke="#FF0000">
      <path fill="none" d="M0,2.25 L0,-2.25 " class="primitive"/>
    </g>
    <g transform="translate(4.02,89.62)" stroke="#FF0000">
      <path fill="none" d="M-0.13,0 L0.13,0 " class="primitive"/>
    </g>
    <g transform="translate(4.15,89.62)" stroke="#FF0000">
      <path fill="none" d="M0,2.86 L0,-2.86 " class="primitive"/>
    </g>
    <g transform="translate(4.09,104.16)" stroke="#FF0000">
      <path fill="none" d="M-0,0 L0,0 " class="primitive"/>
    </g>
    <g transform="translate(4.09,106.48)" stroke="#FF0000">
      <path fill="none" d="M-0,0 L0,0 " class="primitive"/>
    </g>
    <g transform="translate(4.07,105.32)" stroke="#FF0000">
      <path fill="none" d="M-0.02,0 L0.02,0 " class="primitive"/>
    </g>
    <g transform="translate(4.09,105.32)" stroke="#FF0000">
      <path fill="none" d="M0,1.16 L0,-1.16 " class="primitive"/>
    </g>
    <g transform="translate(4.08,108.8)" stroke="#0000FF">
      <path fill="none" d="M-0,0 L0,0 " class="primitive"/>
    </g>
    <g transform="translate(4.07,111.12)" stroke="#0000FF">
      <path fill="none" d="M-0,0 L0,0 " class="primitive"/>
    </g>
    <g transform="translate(4.08,113.44)" stroke="#0000FF">
      <path fill="none" d="M-0,0 L0,0 " class="primitive"/>
    </g>
    <g transform="translate(4.08,115.76)" stroke="#0000FF">
      <path fill="none" d="M-0,0 L0,0 " class="primitive"/>
    </g>
    <g transform="translate(4.08,114.6)" stroke="#0000FF">
      <path fill="none" d="M-0,0 L0,0 " class="primitive"/>
    </g>
    <g transform="translate(4.08,114.6)" stroke="#0000FF">
      <path fill="none" d="M0,1.16 L0,-1.16 " class="primitive"/>
    </g>
    <g transform="translate(4.09,118.08)" stroke="#0000FF">
      <path fill="none" d="M-0.01,0 L0.01,0 " class="primitive"/>
    </g>
    <g transform="translate(4.08,120.39)" stroke="#0000FF">
      <path fill="none" d="M-0,0 L0,0 " class="primitive"/>
    </g>
    <g transform="translate(4.09,122.71)" stroke="#0000FF">
      <path fill="none" d="M-0.01,0 L0.01,0 " class="primitive"/>
    </g>
    <g transform="translate(4.08,125.03)" stroke="#0000FF">
      <path fill="none" d="M-0,0 L0,0 " class="primitive"/>
    </g>
    <g transform="translate(4.08,123.87)" stroke="#0000FF">
      <path fill="none" d="M-0,0 L0,0 " class="primitive"/>
    </g>
    <g transform="translate(4.08,123.87)" stroke="#0000FF">
      <path fill="none" d="M0,1.16 L0,-1.16 " class="primitive"/>
    </g>
    <g transform="translate(4.08,122.13)" stroke="#0000FF">
      <path fill="none" d="M-0,0 L0,0 " class="primitive"/>
    </g>
    <g transform="translate(4.08,122.13)" stroke="#0000FF">
      <path fill="none" d="M0,1.74 L0,-1.74 " class="primitive"/>
    </g>
    <g transform="translate(4.08,120.11)" stroke="#0000FF">
      <path fill="none" d="M-0,0 L0,0 " class="primitive"/>
    </g>
    <g transform="translate(4.08,120.11)" stroke="#0000FF">
      <path fill="none" d="M0,2.03 L0,-2.03 " class="primitive"/>
    </g>
    <g transform="translate(4.07,117.35)" stroke="#0000FF">
      <path fill="none" d="M-0,0 L0,0 " class="primitive"/>
    </g>
    <g transform="translate(4.07,117.35)" stroke="#0000FF">
      <path fill="none" d="M0,2.75 L0,-2.75 " class="primitive"/>
    </g>
    <g transform="translate(4.08,127.35)" stroke="#0000FF">
      <path fill="none" d="M-0,0 L0,0 " class="primitive"/>
    </g>
    <g transform="translate(4.08,129.67)" stroke="#0000FF">
      <path fill="none" d="M-0,0 L0,0 " class="primitive"/>
    </g>
    <g transform="translate(4.08,131.99)" stroke="#0000FF">
      <path fill="none" d="M-0,0 L0,0 " class="primitive"/>
    </g>
    <g transform="translate(4.07,130.83)" stroke="#0000FF">
      <path fill="none" d="M-0,0 L0,0 " class="primitive"/>
    </g>
    <g transform="translate(4.07,130.83)" stroke="#0000FF">
      <path fill="none" d="M0,1.16 L0,-1.16 " class="primitive"/>
    </g>
    <g transform="translate(4.08,134.31)" stroke="#0000FF">
      <path fill="none" d="M-0,0 L0,0 " class="primitive"/>
    </g>
    <g transform="translate(4.08,136.63)" stroke="#0000FF">
      <path fill="none" d="M-0,0 L0,0 " class="primitive"/>
    </g>
    <g transform="translate(4.08,138.95)" stroke="#0000FF">
      <path fill="none" d="M-0,0 L0,0 " class="primitive"/>
    </g>
    <g transform="translate(4.08,141.27)" stroke="#0000FF">
      <path fill="none" d="M-0,0 L0,0 " class="primitive"/>
    </g>
    <g transform="translate(4.08,140.11)" stroke="#0000FF">
      <path fill="none" d="M-0,0 L0,0 " class="primitive"/>
    </g>
    <g transform="translate(4.08,140.11)" stroke="#0000FF">
      <path fill="none" d="M0,1.16 L0,-1.16 " class="primitive"/>
    </g>
  </g>
  <g stroke-opacity="1" stroke-width="0.3" id="img-cd72c563-4">
    <g transform="translate(4.05,44.42)" stroke="#FF0000">
      <path fill="none" d="M-0,0 L0,0 " class="primitive"/>
    </g>
    <g transform="translate(4.05,44.42)" stroke="#FF0000">
      <path fill="none" d="M0,3.48 L0,-3.48 " class="primitive"/>
    </g>
    <g transform="translate(3.97,40.65)" stroke="#FF0000">
      <path fill="none" d="M-0.09,0 L0.09,0 " class="primitive"/>
    </g>
    <g transform="translate(4.05,40.65)" stroke="#FF0000">
      <path fill="none" d="M0,3.77 L0,-3.77 " class="primitive"/>
    </g>
    <g transform="translate(4.01,53.12)" stroke="#FF0000">
      <path fill="none" d="M-0.11,0 L0.11,0 " class="primitive"/>
    </g>
    <g transform="translate(4,55.44)" stroke="#FF0000">
      <path fill="none" d="M-0,0 L0,0 " class="primitive"/>
    </g>
    <g transform="translate(4.01,57.76)" stroke="#FF0000">
      <path fill="none" d="M-0,0 L0,0 " class="primitive"/>
    </g>
    <g transform="translate(4.01,60.08)" stroke="#FF0000">
      <path fill="none" d="M-0,0 L0,0 " class="primitive"/>
    </g>
    <g transform="translate(4.01,62.4)" stroke="#FF0000">
      <path fill="none" d="M-0,0 L0,0 " class="primitive"/>
    </g>
    <g transform="translate(4,61.24)" stroke="#FF0000">
      <path fill="none" d="M-0,0 L0,0 " class="primitive"/>
    </g>
    <g transform="translate(4,61.24)" stroke="#FF0000">
      <path fill="none" d="M0,1.16 L0,-1.16 " class="primitive"/>
    </g>
    <g transform="translate(4.01,64.72)" stroke="#FF0000">
      <path fill="none" d="M-0,0 L0,0 " class="primitive"/>
    </g>
    <g transform="translate(4.01,67.04)" stroke="#FF0000">
      <path fill="none" d="M-0.01,0 L0.01,0 " class="primitive"/>
    </g>
    <g transform="translate(4,65.88)" stroke="#FF0000">
      <path fill="none" d="M-0,0 L0,0 " class="primitive"/>
    </g>
    <g transform="translate(4,65.88)" stroke="#FF0000">
      <path fill="none" d="M0,1.16 L0,-1.16 " class="primitive"/>
    </g>
    <g transform="translate(4.01,69.36)" stroke="#FF0000">
      <path fill="none" d="M-0.01,0 L0.01,0 " class="primitive"/>
    </g>
    <g transform="translate(4.01,71.68)" stroke="#FF0000">
      <path fill="none" d="M-0.01,0 L0.01,0 " class="primitive"/>
    </g>
    <g transform="translate(4,70.52)" stroke="#FF0000">
      <path fill="none" d="M-0,0 L0,0 " class="primitive"/>
    </g>
    <g transform="translate(4,70.52)" stroke="#FF0000">
      <path fill="none" d="M0,1.16 L0,-1.16 " class="primitive"/>
    </g>
    <g transform="translate(4,68.2)" stroke="#FF0000">
      <path fill="none" d="M-0,0 L0,0 " class="primitive"/>
    </g>
    <g transform="translate(4,68.2)" stroke="#FF0000">
      <path fill="none" d="M0,2.32 L0,-2.32 " class="primitive"/>
    </g>
    <g transform="translate(4,74)" stroke="#FF0000">
      <path fill="none" d="M-0,0 L0,0 " class="primitive"/>
    </g>
    <g transform="translate(4.01,76.32)" stroke="#FF0000">
      <path fill="none" d="M-0,0 L0,0 " class="primitive"/>
    </g>
    <g transform="translate(4.01,78.64)" stroke="#FF0000">
      <path fill="none" d="M-0.01,0 L0.01,0 " class="primitive"/>
    </g>
    <g transform="translate(4,77.48)" stroke="#FF0000">
      <path fill="none" d="M-0,0 L0,0 " class="primitive"/>
    </g>
    <g transform="translate(4,77.48)" stroke="#FF0000">
      <path fill="none" d="M0,1.16 L0,-1.16 " class="primitive"/>
    </g>
    <g transform="translate(4.01,80.96)" stroke="#FF0000">
      <path fill="none" d="M-0.01,0 L0.01,0 " class="primitive"/>
    </g>
    <g transform="translate(4.01,83.28)" stroke="#FF0000">
      <path fill="none" d="M-0,0 L0,0 " class="primitive"/>
    </g>
    <g transform="translate(4,82.12)" stroke="#FF0000">
      <path fill="none" d="M-0,0 L0,0 " class="primitive"/>
    </g>
    <g transform="translate(4,82.12)" stroke="#FF0000">
      <path fill="none" d="M0,1.16 L0,-1.16 " class="primitive"/>
    </g>
    <g transform="translate(4,79.8)" stroke="#FF0000">
      <path fill="none" d="M-0,0 L0,0 " class="primitive"/>
    </g>
    <g transform="translate(4,79.8)" stroke="#FF0000">
      <path fill="none" d="M0,2.32 L0,-2.32 " class="primitive"/>
    </g>
    <g transform="translate(4,76.9)" stroke="#FF0000">
      <path fill="none" d="M-0,0 L0,0 " class="primitive"/>
    </g>
    <g transform="translate(4,76.9)" stroke="#FF0000">
      <path fill="none" d="M0,2.9 L0,-2.9 " class="primitive"/>
    </g>
    <g transform="translate(4,72.55)" stroke="#FF0000">
      <path fill="none" d="M-0,0 L0,0 " class="primitive"/>
    </g>
    <g transform="translate(4,72.55)" stroke="#FF0000">
      <path fill="none" d="M0,4.35 L0,-4.35 " class="primitive"/>
    </g>
    <g transform="translate(4,66.9)" stroke="#FF0000">
      <path fill="none" d="M-0,0 L0,0 " class="primitive"/>
    </g>
    <g transform="translate(4,66.9)" stroke="#FF0000">
      <path fill="none" d="M0,5.65 L0,-5.65 " class="primitive"/>
    </g>
    <g transform="translate(4,62.33)" stroke="#FF0000">
      <path fill="none" d="M-0,0 L0,0 " class="primitive"/>
    </g>
    <g transform="translate(4,62.33)" stroke="#FF0000">
      <path fill="none" d="M0,4.57 L0,-4.57 " class="primitive"/>
    </g>
    <g transform="translate(3.95,58.89)" stroke="#FF0000">
      <path fill="none" d="M-0.05,0 L0.05,0 " class="primitive"/>
    </g>
    <g transform="translate(4,58.89)" stroke="#FF0000">
      <path fill="none" d="M0,3.44 L0,-3.44 " class="primitive"/>
    </g>
    <g transform="translate(3.89,56)" stroke="#FF0000">
      <path fill="none" d="M-0.01,0 L0.01,0 " class="primitive"/>
    </g>
    <g transform="translate(3.9,56)" stroke="#FF0000">
      <path fill="none" d="M0,2.88 L0,-2.88 " class="primitive"/>
    </g>
    <g transform="translate(3.82,48.33)" stroke="#FF0000">
      <path fill="none" d="M-0.07,0 L0.07,0 " class="primitive"/>
    </g>
    <g transform="translate(3.88,48.33)" stroke="#FF0000">
      <path fill="none" d="M0,7.68 L0,-7.68 " class="primitive"/>
    </g>
    <g transform="translate(4.17,85.6)" stroke="#FF0000">
      <path fill="none" d="M-0.01,0 L0.01,0 " class="primitive"/>
    </g>
    <g transform="translate(4.17,87.92)" stroke="#FF0000">
      <path fill="none" d="M-0.01,0 L0.01,0 " class="primitive"/>
    </g>
    <g transform="translate(4.15,86.76)" stroke="#FF0000">
      <path fill="none" d="M-0,0 L0,0 " class="primitive"/>
    </g>
    <g transform="translate(4.16,86.76)" stroke="#FF0000">
      <path fill="none" d="M0,1.16 L0,-1.16 " class="primitive"/>
    </g>
    <g transform="translate(4.15,90.24)" stroke="#FF0000">
      <path fill="none" d="M-0,0 L0,0 " class="primitive"/>
    </g>
  </g>
</g>
<g fill-opacity="1" id="img-cd72c563-5">
  <g transform="translate(5.07,6.73)" fill="#FF0000">
    <circle cx="0" cy="0" r="0.75" class="primitive"/>
  </g>
  <g transform="translate(5.4,9.05)" fill="#FF0000">
    <circle cx="0" cy="0" r="0.75" class="primitive"/>
  </g>
  <g transform="translate(5.42,11.37)" fill="#FF0000">
    <circle cx="0" cy="0" r="0.75" class="primitive"/>
  </g>
  <g transform="translate(5.47,13.69)" fill="#FF0000">
    <circle cx="0" cy="0" r="0.75" class="primitive"/>
  </g>
  <g transform="translate(5.48,16.01)" fill="#FF0000">
    <circle cx="0" cy="0" r="0.75" class="primitive"/>
  </g>
  <g transform="translate(5.47,18.33)" fill="#FF0000">
    <circle cx="0" cy="0" r="0.75" class="primitive"/>
  </g>
  <g transform="translate(5.48,20.65)" fill="#FF0000">
    <circle cx="0" cy="0" r="0.75" class="primitive"/>
  </g>
  <g transform="translate(5.47,19.49)" fill="#FF0000">
    <circle cx="0" cy="0" r="0.75" class="primitive"/>
  </g>
  <g transform="translate(5.49,22.97)" fill="#FF0000">
    <circle cx="0" cy="0" r="0.75" class="primitive"/>
  </g>
  <g transform="translate(5.48,25.29)" fill="#FF0000">
    <circle cx="0" cy="0" r="0.75" class="primitive"/>
  </g>
  <g transform="translate(5.47,24.13)" fill="#FF0000">
    <circle cx="0" cy="0" r="0.75" class="primitive"/>
  </g>
  <g transform="translate(5.5,27.61)" fill="#FF0000">
    <circle cx="0" cy="0" r="0.75" class="primitive"/>
  </g>
  <g transform="translate(5.49,29.92)" fill="#FF0000">
    <circle cx="0" cy="0" r="0.75" class="primitive"/>
  </g>
  <g transform="translate(5.49,32.24)" fill="#FF0000">
    <circle cx="0" cy="0" r="0.75" class="primitive"/>
  </g>
  <g transform="translate(5.48,31.08)" fill="#FF0000">
    <circle cx="0" cy="0" r="0.75" class="primitive"/>
  </g>
  <g transform="translate(5.48,29.34)" fill="#FF0000">
    <circle cx="0" cy="0" r="0.75" class="primitive"/>
  </g>
  <g transform="translate(5.47,26.74)" fill="#FF0000">
    <circle cx="0" cy="0" r="0.75" class="primitive"/>
  </g>
  <g transform="translate(5.47,23.11)" fill="#FF0000">
    <circle cx="0" cy="0" r="0.75" class="primitive"/>
  </g>
  <g transform="translate(5.47,19.56)" fill="#FF0000">
    <circle cx="0" cy="0" r="0.75" class="primitive"/>
  </g>
  <g transform="translate(5.46,16.62)" fill="#FF0000">
    <circle cx="0" cy="0" r="0.75" class="primitive"/>
  </g>
  <g transform="translate(5.41,13.99)" fill="#FF0000">
    <circle cx="0" cy="0" r="0.75" class="primitive"/>
  </g>
  <g transform="translate(5.4,11.52)" fill="#FF0000">
    <circle cx="0" cy="0" r="0.75" class="primitive"/>
  </g>
  <g transform="translate(4.78,9.12)" fill="#FF0000">
    <circle cx="0" cy="0" r="0.75" class="primitive"/>
  </g>
  <g transform="translate(78.75,34.56)" fill="#000000">
    <circle cx="0" cy="0" r="0.75" class="primitive"/>
  </g>
  <g transform="translate(4.06,36.88)" fill="#FF0000">
    <circle cx="0" cy="0" r="0.75" class="primitive"/>
  </g>
  <g transform="translate(4.06,39.2)" fill="#FF0000">
    <circle cx="0" cy="0" r="0.75" class="primitive"/>
  </g>
  <g transform="translate(4.07,41.52)" fill="#FF0000">
    <circle cx="0" cy="0" r="0.75" class="primitive"/>
  </g>
  <g transform="translate(4.07,43.84)" fill="#FF0000">
    <circle cx="0" cy="0" r="0.75" class="primitive"/>
  </g>
  <g transform="translate(4.06,42.68)" fill="#FF0000">
    <circle cx="0" cy="0" r="0.75" class="primitive"/>
  </g>
  <g transform="translate(4.05,40.94)" fill="#FF0000">
    <circle cx="0" cy="0" r="0.75" class="primitive"/>
  </g>
  <g transform="translate(4.07,46.16)" fill="#FF0000">
    <circle cx="0" cy="0" r="0.75" class="primitive"/>
  </g>
  <g transform="translate(4.06,48.48)" fill="#FF0000">
    <circle cx="0" cy="0" r="0.75" class="primitive"/>
  </g>
  <g transform="translate(4.08,50.8)" fill="#FF0000">
    <circle cx="0" cy="0" r="0.75" class="primitive"/>
  </g>
  <g transform="translate(4.06,49.64)" fill="#FF0000">
    <circle cx="0" cy="0" r="0.75" class="primitive"/>
  </g>
  <g transform="translate(4.05,47.9)" fill="#FF0000">
    <circle cx="0" cy="0" r="0.75" class="primitive"/>
  </g>
  <g transform="translate(4.05,44.42)" fill="#FF0000">
    <circle cx="0" cy="0" r="0.75" class="primitive"/>
  </g>
  <g transform="translate(4.05,40.65)" fill="#FF0000">
    <circle cx="0" cy="0" r="0.75" class="primitive"/>
  </g>
  <g transform="translate(4.12,53.12)" fill="#FF0000">
    <circle cx="0" cy="0" r="0.75" class="primitive"/>
  </g>
  <g transform="translate(4,55.44)" fill="#FF0000">
    <circle cx="0" cy="0" r="0.75" class="primitive"/>
  </g>
  <g transform="translate(4.01,57.76)" fill="#FF0000">
    <circle cx="0" cy="0" r="0.75" class="primitive"/>
  </g>
  <g transform="translate(4.01,60.08)" fill="#FF0000">
    <circle cx="0" cy="0" r="0.75" class="primitive"/>
  </g>
  <g transform="translate(4.01,62.4)" fill="#FF0000">
    <circle cx="0" cy="0" r="0.75" class="primitive"/>
  </g>
  <g transform="translate(4,61.24)" fill="#FF0000">
    <circle cx="0" cy="0" r="0.75" class="primitive"/>
  </g>
  <g transform="translate(4.01,64.72)" fill="#FF0000">
    <circle cx="0" cy="0" r="0.75" class="primitive"/>
  </g>
  <g transform="translate(4.02,67.04)" fill="#FF0000">
    <circle cx="0" cy="0" r="0.75" class="primitive"/>
  </g>
  <g transform="translate(4,65.88)" fill="#FF0000">
    <circle cx="0" cy="0" r="0.75" class="primitive"/>
  </g>
  <g transform="translate(4.02,69.36)" fill="#FF0000">
    <circle cx="0" cy="0" r="0.75" class="primitive"/>
  </g>
  <g transform="translate(4.01,71.68)" fill="#FF0000">
    <circle cx="0" cy="0" r="0.75" class="primitive"/>
  </g>
  <g transform="translate(4,70.52)" fill="#FF0000">
    <circle cx="0" cy="0" r="0.75" class="primitive"/>
  </g>
  <g transform="translate(4,68.2)" fill="#FF0000">
    <circle cx="0" cy="0" r="0.75" class="primitive"/>
  </g>
  <g transform="translate(4,74)" fill="#FF0000">
    <circle cx="0" cy="0" r="0.75" class="primitive"/>
  </g>
  <g fill-opacity="1" id="img-cd72c563-6">
    <g transform="translate(4.08,134.31)" fill="#0000FF">
      <circle cx="0" cy="0" r="0.75" class="primitive"/>
    </g>
    <g transform="translate(4.09,136.63)" fill="#0000FF">
      <circle cx="0" cy="0" r="0.75" class="primitive"/>
    </g>
    <g transform="translate(4.08,138.95)" fill="#0000FF">
      <circle cx="0" cy="0" r="0.75" class="primitive"/>
    </g>
    <g transform="translate(4.09,141.27)" fill="#0000FF">
      <circle cx="0" cy="0" r="0.75" class="primitive"/>
    </g>
    <g transform="translate(4.08,140.11)" fill="#0000FF">
      <circle cx="0" cy="0" r="0.75" class="primitive"/>
    </g>
    <g transform="translate(4.08,138.37)" fill="#0000FF">
      <circle cx="0" cy="0" r="0.75" class="primitive"/>
    </g>
    <g transform="translate(4.07,136.34)" fill="#0000FF">
      <circle cx="0" cy="0" r="0.75" class="primitive"/>
    </g>
    <g transform="translate(4.07,133.59)" fill="#0000FF">
      <circle cx="0" cy="0" r="0.75" class="primitive"/>
    </g>
    <g transform="translate(4.07,130.47)" fill="#0000FF">
      <circle cx="0" cy="0" r="0.75" class="primitive"/>
    </g>
    <g transform="translate(4.07,123.91)" fill="#0000FF">
      <circle cx="0" cy="0" r="0.75" class="primitive"/>
    </g>
    <g transform="translate(4.07,117.51)" fill="#0000FF">
      <circle cx="0" cy="0" r="0.75" class="primitive"/>
    </g>
    <g transform="translate(4.07,113.15)" fill="#0000FF">
      <circle cx="0" cy="0" r="0.75" class="primitive"/>
    </g>
    <g transform="translate(4.05,109.24)" fill="#000000">
      <circle cx="0" cy="0" r="0.75" class="primitive"/>
    </g>
    <g transform="translate(3.89,99.43)" fill="#000000">
      <circle cx="0" cy="0" r="0.75" class="primitive"/>
    </g>
    <g transform="translate(3.75,73.88)" fill="#000000">
      <circle cx="0" cy="0" r="0.75" class="primitive"/>
    </g>
    <g transform="translate(3.75,54.22)" fill="#000000">
      <circle cx="0" cy="0" r="0.75" class="primitive"/>
    </g>
    <g transform="translate(3.75,31.67)" fill="#000000">
      <circle cx="0" cy="0" r="0.75" class="primitive"/>
    </g>
  </g>
  <g fill-opacity="1" id="img-cd72c563-7">
    <g transform="translate(4,74)" fill="#FF0000">
      <circle cx="0" cy="0" r="0.75" class="primitive"/>
    </g>
    <g transform="translate(4.01,76.32)" fill="#FF0000">
      <circle cx="0" cy="0" r="0.75" class="primitive"/>
    </g>
    <g transform="translate(4.03,78.64)" fill="#FF0000">
      <circle cx="0" cy="0" r="0.75" class="primitive"/>
    </g>
    <g transform="translate(4,77.48)" fill="#FF0000">
      <circle cx="0" cy="0" r="0.75" class="primitive"/>
    </g>
    <g transform="translate(4.02,80.96)" fill="#FF0000">
      <circle cx="0" cy="0" r="0.75" class="primitive"/>
    </g>
    <g transform="translate(4.01,83.28)" fill="#FF0000">
      <circle cx="0" cy="0" r="0.75" class="primitive"/>
    </g>
    <g transform="translate(4,82.12)" fill="#FF0000">
      <circle cx="0" cy="0" r="0.75" class="primitive"/>
    </g>
    <g transform="translate(4,79.8)" fill="#FF0000">
      <circle cx="0" cy="0" r="0.75" class="primitive"/>
    </g>
    <g transform="translate(4,76.9)" fill="#FF0000">
      <circle cx="0" cy="0" r="0.75" class="primitive"/>
    </g>
    <g transform="translate(4,72.55)" fill="#FF0000">
      <circle cx="0" cy="0" r="0.75" class="primitive"/>
    </g>
    <g transform="translate(4,66.9)" fill="#FF0000">
      <circle cx="0" cy="0" r="0.75" class="primitive"/>
    </g>
    <g transform="translate(4,62.33)" fill="#FF0000">
      <circle cx="0" cy="0" r="0.75" class="primitive"/>
    </g>
    <g transform="translate(4,58.89)" fill="#FF0000">
      <circle cx="0" cy="0" r="0.75" class="primitive"/>
    </g>
    <g transform="translate(3.9,56)" fill="#FF0000">
      <circle cx="0" cy="0" r="0.75" class="primitive"/>
    </g>
    <g transform="translate(3.88,48.33)" fill="#FF0000">
      <circle cx="0" cy="0" r="0.75" class="primitive"/>
    </g>
    <g transform="translate(4.18,85.6)" fill="#FF0000">
      <circle cx="0" cy="0" r="0.75" class="primitive"/>
    </g>
    <g transform="translate(4.18,87.92)" fill="#FF0000">
      <circle cx="0" cy="0" r="0.75" class="primitive"/>
    </g>
    <g transform="translate(4.16,86.76)" fill="#FF0000">
      <circle cx="0" cy="0" r="0.75" class="primitive"/>
    </g>
    <g transform="translate(4.15,90.24)" fill="#FF0000">
      <circle cx="0" cy="0" r="0.75" class="primitive"/>
    </g>
    <g transform="translate(4.18,92.56)" fill="#FF0000">
      <circle cx="0" cy="0" r="0.75" class="primitive"/>
    </g>
    <g transform="translate(4.16,94.88)" fill="#FF0000">
      <circle cx="0" cy="0" r="0.75" class="primitive"/>
    </g>
    <g transform="translate(4.16,97.2)" fill="#FF0000">
      <circle cx="0" cy="0" r="0.75" class="primitive"/>
    </g>
    <g transform="translate(4.16,99.52)" fill="#FF0000">
      <circle cx="0" cy="0" r="0.75" class="primitive"/>
    </g>
    <g transform="translate(4.17,101.84)" fill="#FF0000">
      <circle cx="0" cy="0" r="0.75" class="primitive"/>
    </g>
    <g transform="translate(4.16,100.68)" fill="#FF0000">
      <circle cx="0" cy="0" r="0.75" class="primitive"/>
    </g>
    <g transform="translate(4.16,98.94)" fill="#FF0000">
      <circle cx="0" cy="0" r="0.75" class="primitive"/>
    </g>
    <g transform="translate(4.16,96.91)" fill="#FF0000">
      <circle cx="0" cy="0" r="0.75" class="primitive"/>
    </g>
    <g transform="translate(4.15,94.73)" fill="#FF0000">
      <circle cx="0" cy="0" r="0.75" class="primitive"/>
    </g>
    <g transform="translate(4.15,92.49)" fill="#FF0000">
      <circle cx="0" cy="0" r="0.75" class="primitive"/>
    </g>
    <g transform="translate(4.15,89.62)" fill="#FF0000">
      <circle cx="0" cy="0" r="0.75" class="primitive"/>
    </g>
    <g transform="translate(4.09,104.16)" fill="#FF0000">
      <circle cx="0" cy="0" r="0.75" class="primitive"/>
    </g>
    <g transform="translate(4.09,106.48)" fill="#FF0000">
      <circle cx="0" cy="0" r="0.75" class="primitive"/>
    </g>
    <g transform="translate(4.09,105.32)" fill="#FF0000">
      <circle cx="0" cy="0" r="0.75" class="primitive"/>
    </g>
    <g transform="translate(4.08,108.8)" fill="#0000FF">
      <circle cx="0" cy="0" r="0.75" class="primitive"/>
    </g>
    <g transform="translate(4.07,111.12)" fill="#0000FF">
      <circle cx="0" cy="0" r="0.75" class="primitive"/>
    </g>
    <g transform="translate(4.08,113.44)" fill="#0000FF">
      <circle cx="0" cy="0" r="0.75" class="primitive"/>
    </g>
    <g transform="translate(4.09,115.76)" fill="#0000FF">
      <circle cx="0" cy="0" r="0.75" class="primitive"/>
    </g>
    <g transform="translate(4.08,114.6)" fill="#0000FF">
      <circle cx="0" cy="0" r="0.75" class="primitive"/>
    </g>
    <g transform="translate(4.09,118.08)" fill="#0000FF">
      <circle cx="0" cy="0" r="0.75" class="primitive"/>
    </g>
    <g transform="translate(4.08,120.39)" fill="#0000FF">
      <circle cx="0" cy="0" r="0.75" class="primitive"/>
    </g>
    <g transform="translate(4.09,122.71)" fill="#0000FF">
      <circle cx="0" cy="0" r="0.75" class="primitive"/>
    </g>
    <g transform="translate(4.09,125.03)" fill="#0000FF">
      <circle cx="0" cy="0" r="0.75" class="primitive"/>
    </g>
    <g transform="translate(4.08,123.87)" fill="#0000FF">
      <circle cx="0" cy="0" r="0.75" class="primitive"/>
    </g>
    <g transform="translate(4.08,122.13)" fill="#0000FF">
      <circle cx="0" cy="0" r="0.75" class="primitive"/>
    </g>
    <g transform="translate(4.08,120.11)" fill="#0000FF">
      <circle cx="0" cy="0" r="0.75" class="primitive"/>
    </g>
    <g transform="translate(4.07,117.35)" fill="#0000FF">
      <circle cx="0" cy="0" r="0.75" class="primitive"/>
    </g>
    <g transform="translate(4.08,127.35)" fill="#0000FF">
      <circle cx="0" cy="0" r="0.75" class="primitive"/>
    </g>
    <g transform="translate(4.08,129.67)" fill="#0000FF">
      <circle cx="0" cy="0" r="0.75" class="primitive"/>
    </g>
    <g transform="translate(4.08,131.99)" fill="#0000FF">
      <circle cx="0" cy="0" r="0.75" class="primitive"/>
    </g>
    <g transform="translate(4.07,130.83)" fill="#0000FF">
      <circle cx="0" cy="0" r="0.75" class="primitive"/>
    </g>
    <g transform="translate(4.08,134.31)" fill="#0000FF">
      <circle cx="0" cy="0" r="0.75" class="primitive"/>
    </g>
  </g>
</g>
</svg>
