<?xml version="1.0" encoding="UTF-8"?>
<svg xmlns="http://www.w3.org/2000/svg"
     xmlns:xlink="http://www.w3.org/1999/xlink"
     version="1.2"
     width="150mm" height="72mm" viewBox="0 0 150 72"
     stroke="none"
     fill="#000000"
     stroke-width="0.3"
     font-size="3.88"
>
<defs>
  <marker id="arrow" markerWidth="15" markerHeight="7" refX="5" refY="3.5" orient="auto" markerUnits="strokeWidth">
    <path d="M0,0 L15,3.5 L0,7 z" stroke="context-stroke" fill="context-stroke"/>
  </marker>
</defs>
<g stroke-opacity="1" stroke-width="0.3" id="img-29b4c979-1">
  <g transform="translate(62.3,3.27)" stroke="#D9F846">
    <path fill="none" d="M-7.89,0 L7.89,0 " class="primitive"/>
  </g>
  <g transform="translate(59.88,6.55)" stroke="#D9F846">
    <path fill="none" d="M-5.47,0 L5.47,0 " class="primitive"/>
  </g>
  <g transform="translate(46.69,4.91)" stroke="#C49A0C">
    <path fill="none" d="M-7.72,0 L7.72,0 " class="primitive"/>
  </g>
  <g transform="translate(54.41,4.91)" stroke="#C49A0C">
    <path fill="none" d="M0,1.64 L0,-1.64 " class="primitive"/>
  </g>
  <g transform="translate(46.57,9.82)" stroke="#D9F846">
    <path fill="none" d="M-6.24,0 L6.24,0 " class="primitive"/>
  </g>
  <g transform="translate(49.18,13.09)" stroke="#D9F846">
    <path fill="none" d="M-2.11,0 L2.11,0 " class="primitive"/>
  </g>
  <g transform="translate(51.37,16.36)" stroke="#D9F846">
    <path fill="none" d="M-4.3,0 L4.3,0 " class="primitive"/>
  </g>
  <g transform="translate(43.7,14.73)" stroke="#D9F846">
    <path fill="none" d="M-3.37,0 L3.37,0 " class="primitive"/>
  </g>
  <g transform="translate(47.07,14.73)" stroke="#D9F846">
    <path fill="none" d="M0,1.64 L0,-1.64 " class="primitive"/>
  </g>
  <g transform="translate(39.65,12.27)" stroke="#C49A0C">
    <path fill="none" d="M-0.68,0 L0.68,0 " class="primitive"/>
  </g>
  <g transform="translate(40.33,12.27)" stroke="#C49A0C">
    <path fill="none" d="M0,2.45 L0,-2.45 " class="primitive"/>
  </g>
  <g transform="translate(21.36,8.59)" stroke="#C49A0C">
    <path fill="none" d="M-17.61,0 L17.61,0 " class="primitive"/>
  </g>
  <g transform="translate(38.97,8.59)" stroke="#C49A0C">
    <path fill="none" d="M0,3.68 L0,-3.68 " class="primitive"/>
  </g>
  <g transform="translate(15.46,19.64)" stroke="#D9F846">
    <path fill="none" d="M-0.94,0 L0.94,0 " class="primitive"/>
  </g>
  <g transform="translate(16.17,22.91)" stroke="#C49A0C">
    <path fill="none" d="M-1.66,0 L1.66,0 " class="primitive"/>
  </g>
  <g transform="translate(9.13,21.27)" stroke="#C49A0C">
    <path fill="none" d="M-5.38,0 L5.38,0 " class="primitive"/>
  </g>
  <g transform="translate(14.51,21.27)" stroke="#C49A0C">
    <path fill="none" d="M0,1.64 L0,-1.64 " class="primitive"/>
  </g>
  <g transform="translate(6.59,26.18)" stroke="#D9F846">
    <path fill="none" d="M-2.35,0 L2.35,0 " class="primitive"/>
  </g>
  <g transform="translate(22.84,29.45)" stroke="#D9F846">
    <path fill="none" d="M-0.45,0 L0.45,0 " class="primitive"/>
  </g>
  <g transform="translate(23.83,32.73)" stroke="#D9F846">
    <path fill="none" d="M-1.44,0 L1.44,0 " class="primitive"/>
  </g>
  <g transform="translate(16.23,31.09)" stroke="#D9F846">
    <path fill="none" d="M-6.15,0 L6.15,0 " class="primitive"/>
  </g>
  <g transform="translate(22.39,31.09)" stroke="#D9F846">
    <path fill="none" d="M0,1.64 L0,-1.64 " class="primitive"/>
  </g>
  <g transform="translate(27.87,36)" stroke="#C49A0C">
    <path fill="none" d="M-16.94,0 L16.94,0 " class="primitive"/>
  </g>
  <g transform="translate(31.23,39.27)" stroke="#C49A0C">
    <path fill="none" d="M-12.71,0 L12.71,0 " class="primitive"/>
  </g>
  <g transform="translate(37.63,42.55)" stroke="#D9F846">
    <path fill="none" d="M-11.06,0 L11.06,0 " class="primitive"/>
  </g>
  <g transform="translate(38.83,45.82)" stroke="#D9F846">
    <path fill="none" d="M-3.78,0 L3.78,0 " class="primitive"/>
  </g>
  <g transform="translate(40.63,49.09)" stroke="#D9F846">
    <path fill="none" d="M-0.53,0 L0.53,0 " class="primitive"/>
  </g>
  <g transform="translate(43.29,52.36)" stroke="#D9F846">
    <path fill="none" d="M-2.46,0 L2.46,0 " class="primitive"/>
  </g>
  <g transform="translate(50,55.64)" stroke="#D9F846">
    <path fill="none" d="M-9.17,0 L9.17,0 " class="primitive"/>
  </g>
  <g transform="translate(40.47,54)" stroke="#C49A0C">
    <path fill="none" d="M-0.37,0 L0.37,0 " class="primitive"/>
  </g>
  <g transform="translate(40.83,54)" stroke="#C49A0C">
    <path fill="none" d="M0,1.64 L0,-1.64 " class="primitive"/>
  </g>
  <g transform="translate(37.57,51.55)" stroke="#D9F846">
    <path fill="none" d="M-2.53,0 L2.53,0 " class="primitive"/>
  </g>
  <g transform="translate(40.1,51.55)" stroke="#D9F846">
    <path fill="none" d="M0,2.45 L0,-2.45 " class="primitive"/>
  </g>
  <g transform="translate(34.3,48.68)" stroke="#D9F846">
    <path fill="none" d="M-0.75,0 L0.75,0 " class="primitive"/>
  </g>
  <g transform="translate(35.05,48.68)" stroke="#D9F846">
    <path fill="none" d="M0,2.86 L0,-2.86 " class="primitive"/>
  </g>
  <g transform="translate(65.37,58.91)" stroke="#D9F846">
    <path fill="none" d="M-3.56,0 L3.56,0 " class="primitive"/>
  </g>
  <g transform="translate(62.52,62.18)" stroke="#C49A0C">
    <path fill="none" d="M-0.71,0 L0.71,0 " class="primitive"/>
  </g>
  <g transform="translate(50.57,60.55)" stroke="#D9F846">
    <path fill="none" d="M-11.24,0 L11.24,0 " class="primitive"/>
  </g>
  <g transform="translate(61.81,60.55)" stroke="#D9F846">
    <path fill="none" d="M0,1.64 L0,-1.64 " class="primitive"/>
  </g>
  <g transform="translate(49.03,65.45)" stroke="#C49A0C">
    <path fill="none" d="M-1.5,0 L1.5,0 " class="primitive"/>
  </g>
  <g transform="translate(63.14,68.73)" stroke="#C49A0C">
    <path fill="none" d="M-15.61,0 L15.61,0 " class="primitive"/>
  </g>
  <g transform="translate(43.44,67.09)" stroke="#D9F846">
    <path fill="none" d="M-4.1,0 L4.1,0 " class="primitive"/>
  </g>
  <g transform="translate(47.54,67.09)" stroke="#D9F846">
    <path fill="none" d="M0,1.64 L0,-1.64 " class="primitive"/>
  </g>
  <g transform="translate(36.44,63.82)" stroke="#C49A0C">
    <path fill="none" d="M-2.89,0 L2.89,0 " class="primitive"/>
  </g>
  <g transform="translate(39.34,63.82)" stroke="#C49A0C">
    <path fill="none" d="M0,3.27 L0,-3.27 " class="primitive"/>
  </g>
  <g transform="translate(30.06,56.25)" stroke="#D9F846">
    <path fill="none" d="M-3.49,0 L3.49,0 " class="primitive"/>
  </g>
  <g transform="translate(33.55,56.25)" stroke="#D9F846">
    <path fill="none" d="M0,7.57 L0,-7.57 " class="primitive"/>
  </g>
  <g transform="translate(22.54,49.4)" stroke="#D9F846">
    <path fill="none" d="M-4.03,0 L4.03,0 " class="primitive"/>
  </g>
  <g transform="translate(26.57,49.4)" stroke="#D9F846">
    <path fill="none" d="M0,6.85 L0,-6.85 " class="primitive"/>
  </g>
  <g transform="translate(14.72,44.34)" stroke="#C49A0C">
    <path fill="none" d="M-3.79,0 L3.79,0 " class="primitive"/>
  </g>
  <g transform="translate(18.51,44.34)" stroke="#C49A0C">
    <path fill="none" d="M0,5.06 L0,-5.06 " class="primitive"/>
  </g>
  <g stroke-opacity="1" stroke-width="0.3" id="img-29b4c979-2">
    <g transform="translate(18.51,44.34)" stroke="#C49A0C">
      <path fill="none" d="M0,5.06 L0,-5.06 " class="primitive"/>
    </g>
    <g transform="translate(10.51,40.17)" stroke="#D9F846">
      <path fill="none" d="M-0.42,0 L0.42,0 " class="primitive"/>
    </g>
    <g transform="translate(10.93,40.17)" stroke="#D9F846">
      <path fill="none" d="M0,4.17 L0,-4.17 " class="primitive"/>
    </g>
    <g transform="translate(7.16,35.63)" stroke="#D9F846">
      <path fill="none" d="M-2.92,0 L2.92,0 " class="primitive"/>
    </g>
    <g transform="translate(10.08,35.63)" stroke="#D9F846">
      <path fill="none" d="M0,4.54 L0,-4.54 " class="primitive"/>
    </g>
    <g transform="translate(3.99,30.91)" stroke="#D9F846">
      <path fill="none" d="M-0.24,0 L0.24,0 " class="primitive"/>
    </g>
    <g transform="translate(4.23,30.91)" stroke="#D9F846">
      <path fill="none" d="M0,4.72 L0,-4.72 " class="primitive"/>
    </g>
    <g transform="translate(3.75,26.09)" stroke="#000000">
      <path fill="none" d="M0,0 L0,0 " class="primitive"/>
    </g>
    <g transform="translate(3.75,26.09)" stroke="#000000">
      <path fill="none" d="M0,4.82 L0,-4.82 " class="primitive"/>
    </g>
    <g transform="translate(3.75,17.34)" stroke="#000000">
      <path fill="none" d="M0,0 L0,0 " class="primitive"/>
    </g>
    <g transform="translate(3.75,17.34)" stroke="#000000">
      <path fill="none" d="M0,8.75 L0,-8.75 " class="primitive"/>
    </g>
  </g>
</g>
<g fill-opacity="1" id="img-29b4c979-3">
  <g transform="translate(70.19,3.27)" fill="#D9F846">
    <circle cx="0" cy="0" r="0.75" class="primitive"/>
  </g>
  <g transform="translate(65.35,6.55)" fill="#D9F846">
    <circle cx="0" cy="0" r="0.75" class="primitive"/>
  </g>
  <g transform="translate(54.41,4.91)" fill="#C49A0C">
    <circle cx="0" cy="0" r="0.75" class="primitive"/>
  </g>
  <g transform="translate(52.81,9.82)" fill="#D9F846">
    <circle cx="0" cy="0" r="0.75" class="primitive"/>
  </g>
  <g transform="translate(51.29,13.09)" fill="#D9F846">
    <circle cx="0" cy="0" r="0.75" class="primitive"/>
  </g>
  <g transform="translate(55.67,16.36)" fill="#D9F846">
    <circle cx="0" cy="0" r="0.75" class="primitive"/>
  </g>
  <g transform="translate(47.07,14.73)" fill="#D9F846">
    <circle cx="0" cy="0" r="0.75" class="primitive"/>
  </g>
  <g transform="translate(40.33,12.27)" fill="#C49A0C">
    <circle cx="0" cy="0" r="0.75" class="primitive"/>
  </g>
  <g transform="translate(38.97,8.59)" fill="#C49A0C">
    <circle cx="0" cy="0" r="0.75" class="primitive"/>
  </g>
  <g transform="translate(16.4,19.64)" fill="#D9F846">
    <circle cx="0" cy="0" r="0.75" class="primitive"/>
  </g>
  <g transform="translate(17.84,22.91)" fill="#C49A0C">
    <circle cx="0" cy="0" r="0.75" class="primitive"/>
  </g>
  <g transform="translate(14.51,21.27)" fill="#C49A0C">
    <circle cx="0" cy="0" r="0.75" class="primitive"/>
  </g>
  <g transform="translate(8.94,26.18)" fill="#D9F846">
    <circle cx="0" cy="0" r="0.75" class="primitive"/>
  </g>
  <g transform="translate(23.28,29.45)" fill="#D9F846">
    <circle cx="0" cy="0" r="0.75" class="primitive"/>
  </g>
  <g transform="translate(25.27,32.73)" fill="#D9F846">
    <circle cx="0" cy="0" r="0.75" class="primitive"/>
  </g>
  <g transform="translate(22.39,31.09)" fill="#D9F846">
    <circle cx="0" cy="0" r="0.75" class="primitive"/>
  </g>
  <g transform="translate(44.81,36)" fill="#C49A0C">
    <circle cx="0" cy="0" r="0.75" class="primitive"/>
  </g>
  <g transform="translate(43.94,39.27)" fill="#C49A0C">
    <circle cx="0" cy="0" r="0.75" class="primitive"/>
  </g>
  <g transform="translate(48.69,42.55)" fill="#D9F846">
    <circle cx="0" cy="0" r="0.75" class="primitive"/>
  </g>
  <g transform="translate(42.6,45.82)" fill="#D9F846">
    <circle cx="0" cy="0" r="0.75" class="primitive"/>
  </g>
  <g transform="translate(41.16,49.09)" fill="#D9F846">
    <circle cx="0" cy="0" r="0.75" class="primitive"/>
  </g>
  <g transform="translate(45.74,52.36)" fill="#D9F846">
    <circle cx="0" cy="0" r="0.75" class="primitive"/>
  </g>
  <g transform="translate(59.17,55.64)" fill="#D9F846">
    <circle cx="0" cy="0" r="0.75" class="primitive"/>
  </g>
  <g transform="translate(40.83,54)" fill="#C49A0C">
    <circle cx="0" cy="0" r="0.75" class="primitive"/>
  </g>
  <g transform="translate(40.1,51.55)" fill="#D9F846">
    <circle cx="0" cy="0" r="0.75" class="primitive"/>
  </g>
  <g transform="translate(35.05,48.68)" fill="#D9F846">
    <circle cx="0" cy="0" r="0.75" class="primitive"/>
  </g>
  <g transform="translate(68.93,58.91)" fill="#D9F846">
    <circle cx="0" cy="0" r="0.75" class="primitive"/>
  </g>
  <g transform="translate(63.23,62.18)" fill="#C49A0C">
    <circle cx="0" cy="0" r="0.75" class="primitive"/>
  </g>
  <g transform="translate(61.81,60.55)" fill="#D9F846">
    <circle cx="0" cy="0" r="0.75" class="primitive"/>
  </g>
  <g transform="translate(50.53,65.45)" fill="#C49A0C">
    <circle cx="0" cy="0" r="0.75" class="primitive"/>
  </g>
  <g transform="translate(78.75,68.73)" fill="#C49A0C">
    <circle cx="0" cy="0" r="0.75" class="primitive"/>
  </g>
  <g transform="translate(47.54,67.09)" fill="#D9F846">
    <circle cx="0" cy="0" r="0.75" class="primitive"/>
  </g>
  <g transform="translate(39.34,63.82)" fill="#C49A0C">
    <circle cx="0" cy="0" r="0.75" class="primitive"/>
  </g>
  <g transform="translate(33.55,56.25)" fill="#D9F846">
    <circle cx="0" cy="0" r="0.75" class="primitive"/>
  </g>
  <g transform="translate(26.57,49.4)" fill="#D9F846">
    <circle cx="0" cy="0" r="0.75" class="primitive"/>
  </g>
  <g transform="translate(18.51,44.34)" fill="#C49A0C">
    <circle cx="0" cy="0" r="0.75" class="primitive"/>
  </g>
  <g transform="translate(10.93,40.17)" fill="#D9F846">
    <circle cx="0" cy="0" r="0.75" class="primitive"/>
  </g>
  <g transform="translate(10.08,35.63)" fill="#D9F846">
    <circle cx="0" cy="0" r="0.75" class="primitive"/>
  </g>
  <g transform="translate(4.23,30.91)" fill="#D9F846">
    <circle cx="0" cy="0" r="0.75" class="primitive"/>
  </g>
  <g transform="translate(3.75,26.09)" fill="#000000">
    <circle cx="0" cy="0" r="0.75" class="primitive"/>
  </g>
  <g transform="translate(3.75,17.34)" fill="#000000">
    <circle cx="0" cy="0" r="0.75" class="primitive"/>
  </g>
</g>
<g stroke-opacity="1" fill-opacity="1" font-size="1.41" stroke-width="0.1" id="img-29b4c979-4">
  <g transform="translate(72.07,3.27)" stroke="#000000">
    <g class="primitive">
      <text dy="0.35em">N8</text>
    </g>
  </g>
  <g transform="translate(67.23,6.55)" stroke="#000000">
    <g class="primitive">
      <text dy="0.35em">N1</text>
    </g>
  </g>
  <g transform="translate(56.29,4.91)" stroke="#000000">
    <g class="primitive">
      <text dy="0.35em">N27</text>
    </g>
  </g>
  <g transform="translate(54.69,9.82)" stroke="#000000">
    <g class="primitive">
      <text dy="0.35em">N7</text>
    </g>
  </g>
  <g transform="translate(53.16,13.09)" stroke="#000000">
    <g class="primitive">
      <text dy="0.35em">N3</text>
    </g>
  </g>
  <g transform="translate(57.54,16.36)" stroke="#000000">
    <g class="primitive">
      <text dy="0.35em">N2</text>
    </g>
  </g>
  <g transform="translate(48.94,14.73)" stroke="#000000">
    <g class="primitive">
      <text dy="0.35em">N21</text>
    </g>
  </g>
  <g transform="translate(42.21,12.27)" stroke="#000000">
    <g class="primitive">
      <text dy="0.35em">N24</text>
    </g>
  </g>
  <g transform="translate(40.84,8.59)" stroke="#000000">
    <g class="primitive">
      <text dy="0.35em">N36</text>
    </g>
  </g>
  <g transform="translate(18.27,19.64)" stroke="#000000">
    <g class="primitive">
      <text dy="0.35em">N5</text>
    </g>
  </g>
  <g transform="translate(19.71,22.91)" stroke="#000000">
    <g class="primitive">
      <text dy="0.35em">N10</text>
    </g>
  </g>
  <g transform="translate(16.39,21.27)" stroke="#000000">
    <g class="primitive">
      <text dy="0.35em">N26</text>
    </g>
  </g>
  <g transform="translate(10.82,26.18)" stroke="#000000">
    <g class="primitive">
      <text dy="0.35em">N4</text>
    </g>
  </g>
  <g transform="translate(25.16,29.45)" stroke="#000000">
    <g class="primitive">
      <text dy="0.35em">N19</text>
    </g>
  </g>
  <g transform="translate(27.15,32.73)" stroke="#000000">
    <g class="primitive">
      <text dy="0.35em">N9</text>
    </g>
  </g>
  <g transform="translate(24.26,31.09)" stroke="#000000">
    <g class="primitive">
      <text dy="0.35em">N34</text>
    </g>
  </g>
  <g transform="translate(46.68,36)" stroke="#000000">
    <g class="primitive">
      <text dy="0.35em">N13</text>
    </g>
  </g>
  <g transform="translate(45.82,39.27)" stroke="#000000">
    <g class="primitive">
      <text dy="0.35em">N18</text>
    </g>
  </g>
  <g transform="translate(50.56,42.55)" stroke="#000000">
    <g class="primitive">
      <text dy="0.35em">N15</text>
    </g>
  </g>
  <g transform="translate(44.48,45.82)" stroke="#000000">
    <g class="primitive">
      <text dy="0.35em">N0</text>
    </g>
  </g>
  <g transform="translate(43.04,49.09)" stroke="#000000">
    <g class="primitive">
      <text dy="0.35em">N20</text>
    </g>
  </g>
  <g transform="translate(47.62,52.36)" stroke="#000000">
    <g class="primitive">
      <text dy="0.35em">N14</text>
    </g>
  </g>
  <g transform="translate(61.05,55.64)" stroke="#000000">
    <g class="primitive">
      <text dy="0.35em">N17</text>
    </g>
  </g>
  <g transform="translate(42.71,54)" stroke="#000000">
    <g class="primitive">
      <text dy="0.35em">N22</text>
    </g>
  </g>
  <g transform="translate(41.98,51.55)" stroke="#000000">
    <g class="primitive">
      <text dy="0.35em">N29</text>
    </g>
  </g>
  <g transform="translate(36.92,48.68)" stroke="#000000">
    <g class="primitive">
      <text dy="0.35em">N30</text>
    </g>
  </g>
  <g transform="translate(70.8,58.91)" stroke="#000000">
    <g class="primitive">
      <text dy="0.35em">N6</text>
    </g>
  </g>
  <g transform="translate(65.11,62.18)" stroke="#000000">
    <g class="primitive">
      <text dy="0.35em">N12</text>
    </g>
  </g>
  <g transform="translate(63.69,60.55)" stroke="#000000">
    <g class="primitive">
      <text dy="0.35em">N23</text>
    </g>
  </g>
  <g transform="translate(52.4,65.45)" stroke="#000000">
    <g class="primitive">
      <text dy="0.35em">N16</text>
    </g>
  </g>
  <g transform="translate(80.62,68.73)" stroke="#000000">
    <g class="primitive">
      <text dy="0.35em">N11</text>
    </g>
  </g>
  <g transform="translate(49.41,67.09)" stroke="#000000">
    <g class="primitive">
      <text dy="0.35em">N25</text>
    </g>
  </g>
  <g transform="translate(41.21,63.82)" stroke="#000000">
    <g class="primitive">
      <text dy="0.35em">N28</text>
    </g>
  </g>
  <g transform="translate(35.42,56.25)" stroke="#000000">
    <g class="primitive">
      <text dy="0.35em">N31</text>
    </g>
  </g>
  <g transform="translate(28.45,49.4)" stroke="#000000">
    <g class="primitive">
      <text dy="0.35em">N32</text>
    </g>
  </g>
  <g transform="translate(20.39,44.34)" stroke="#000000">
    <g class="primitive">
      <text dy="0.35em">N33</text>
    </g>
  </g>
  <g transform="translate(12.8,40.17)" stroke="#000000">
    <g class="primitive">
      <text dy="0.35em">N35</text>
    </g>
  </g>
  <g transform="translate(11.96,35.63)" stroke="#000000">
    <g class="primitive">
      <text dy="0.35em">N37</text>
    </g>
  </g>
  <g transform="translate(6.11,30.91)" stroke="#000000">
    <g class="primitive">
      <text dy="0.35em">N38</text>
    </g>
  </g>
  <g transform="translate(5.63,26.09)" stroke="#000000">
    <g class="primitive">
      <text dy="0.35em"></text>
    </g>
  </g>
  <g transform="translate(5.63,17.34)" stroke="#000000">
    <g class="primitive">
      <text dy="0.35em"></text>
    </g>
  </g>
</g>
</svg>
