<?xml version="1.0" encoding="UTF-8"?>
<svg xmlns="http://www.w3.org/2000/svg"
     xmlns:xlink="http://www.w3.org/1999/xlink"
     version="1.2"
     width="150mm" height="56mm" viewBox="0 0 150 56"
     stroke="none"
     fill="#000000"
     stroke-width="0.3"
     font-size="3.88"
>
<defs>
  <marker id="arrow" markerWidth="15" markerHeight="7" refX="5" refY="3.5" orient="auto" markerUnits="strokeWidth">
    <path d="M0,0 L15,3.5 L0,7 z" stroke="context-stroke" fill="context-stroke"/>
  </marker>
</defs>
<g stroke-opacity="1" stroke-width="0.3" id="img-29b4c979-1">
  <g transform="translate(3.91,2.55)" stroke="#BBB836">
    <path fill="none" d="M-0.16,0 L0.16,0 " class="primitive"/>
  </g>
  <g transform="translate(13.47,6.79)" stroke="#2607B5">
    <path fill="none" d="M-5.13,0 L5.13,0 " class="primitive"/>
  </g>
  <g transform="translate(9.53,11.03)" stroke="#BBB836">
    <path fill="none" d="M-1.19,0 L1.19,0 " class="primitive"/>
  </g>
  <g transform="translate(6.97,8.91)" stroke="#BBB836">
    <path fill="none" d="M-1.36,0 L1.36,0 " class="primitive"/>
  </g>
  <g transform="translate(8.34,8.91)" stroke="#BBB836">
    <path fill="none" d="M0,2.12 L0,-2.12 " class="primitive"/>
  </g>
  <g transform="translate(14.75,15.27)" stroke="#BBB836">
    <path fill="none" d="M-5.53,0 L5.53,0 " class="primitive"/>
  </g>
  <g transform="translate(9.9,19.52)" stroke="#BBB836">
    <path fill="none" d="M-0.68,0 L0.68,0 " class="primitive"/>
  </g>
  <g transform="translate(7.41,17.39)" stroke="#BBB836">
    <path fill="none" d="M-1.8,0 L1.8,0 " class="primitive"/>
  </g>
  <g transform="translate(9.22,17.39)" stroke="#BBB836">
    <path fill="none" d="M0,2.12 L0,-2.12 " class="primitive"/>
  </g>
  <g transform="translate(4.68,13.15)" stroke="#BBB836">
    <path fill="none" d="M-0.93,0 L0.93,0 " class="primitive"/>
  </g>
  <g transform="translate(5.61,13.15)" stroke="#BBB836">
    <path fill="none" d="M0,4.24 L0,-4.24 " class="primitive"/>
  </g>
  <g transform="translate(44.7,23.76)" stroke="#BBB836">
    <path fill="none" d="M-2.33,0 L2.33,0 " class="primitive"/>
  </g>
  <g transform="translate(43.44,28)" stroke="#2607B5">
    <path fill="none" d="M-1.06,0 L1.06,0 " class="primitive"/>
  </g>
  <g transform="translate(23.95,25.88)" stroke="#BBB836">
    <path fill="none" d="M-18.42,0 L18.42,0 " class="primitive"/>
  </g>
  <g transform="translate(42.37,25.88)" stroke="#BBB836">
    <path fill="none" d="M0,2.12 L0,-2.12 " class="primitive"/>
  </g>
  <g transform="translate(11.54,32.24)" stroke="#BBB836">
    <path fill="none" d="M-5.6,0 L5.6,0 " class="primitive"/>
  </g>
  <g transform="translate(14.25,36.48)" stroke="#BBB836">
    <path fill="none" d="M-8.31,0 L8.31,0 " class="primitive"/>
  </g>
  <g transform="translate(5.74,34.36)" stroke="#2607B5">
    <path fill="none" d="M-0.2,0 L0.2,0 " class="primitive"/>
  </g>
  <g transform="translate(5.94,34.36)" stroke="#2607B5">
    <path fill="none" d="M0,2.12 L0,-2.12 " class="primitive"/>
  </g>
  <g transform="translate(5.29,30.12)" stroke="#BBB836">
    <path fill="none" d="M-0.25,0 L0.25,0 " class="primitive"/>
  </g>
  <g transform="translate(5.54,30.12)" stroke="#BBB836">
    <path fill="none" d="M0,4.24 L0,-4.24 " class="primitive"/>
  </g>
  <g transform="translate(23.79,40.73)" stroke="#2607B5">
    <path fill="none" d="M-2.19,0 L2.19,0 " class="primitive"/>
  </g>
  <g transform="translate(31.55,44.97)" stroke="#2607B5">
    <path fill="none" d="M-9.95,0 L9.95,0 " class="primitive"/>
  </g>
  <g transform="translate(17.73,42.85)" stroke="#BBB836">
    <path fill="none" d="M-3.88,0 L3.88,0 " class="primitive"/>
  </g>
  <g transform="translate(21.6,42.85)" stroke="#BBB836">
    <path fill="none" d="M0,2.12 L0,-2.12 " class="primitive"/>
  </g>
  <g transform="translate(57.16,49.21)" stroke="#BBB836">
    <path fill="none" d="M-13.65,0 L13.65,0 " class="primitive"/>
  </g>
  <g transform="translate(61.13,53.45)" stroke="#BBB836">
    <path fill="none" d="M-17.62,0 L17.62,0 " class="primitive"/>
  </g>
  <g transform="translate(28.68,51.33)" stroke="#BBB836">
    <path fill="none" d="M-14.83,0 L14.83,0 " class="primitive"/>
  </g>
  <g transform="translate(43.51,51.33)" stroke="#BBB836">
    <path fill="none" d="M0,2.12 L0,-2.12 " class="primitive"/>
  </g>
  <g transform="translate(9.45,47.09)" stroke="#BBB836">
    <path fill="none" d="M-4.4,0 L4.4,0 " class="primitive"/>
  </g>
  <g transform="translate(13.85,47.09)" stroke="#BBB836">
    <path fill="none" d="M0,4.24 L0,-4.24 " class="primitive"/>
  </g>
  <g transform="translate(4.4,38.61)" stroke="#BBB836">
    <path fill="none" d="M-0.65,0 L0.65,0 " class="primitive"/>
  </g>
  <g transform="translate(5.05,38.61)" stroke="#BBB836">
    <path fill="none" d="M0,8.48 L0,-8.48 " class="primitive"/>
  </g>
  <g transform="translate(3.75,25.88)" stroke="#000000">
    <path fill="none" d="M0,0 L0,0 " class="primitive"/>
  </g>
  <g transform="translate(3.75,25.88)" stroke="#000000">
    <path fill="none" d="M0,12.73 L0,-12.73 " class="primitive"/>
  </g>
  <g transform="translate(3.75,14.21)" stroke="#000000">
    <path fill="none" d="M0,0 L0,0 " class="primitive"/>
  </g>
  <g transform="translate(3.75,14.21)" stroke="#000000">
    <path fill="none" d="M0,11.67 L0,-11.67 " class="primitive"/>
  </g>
</g>
<g fill-opacity="1" id="img-29b4c979-2">
  <g transform="translate(4.07,2.55)" fill="#BBB836">
    <circle cx="0" cy="0" r="0.75" class="primitive"/>
  </g>
  <g transform="translate(18.61,6.79)" fill="#2607B5">
    <circle cx="0" cy="0" r="0.75" class="primitive"/>
  </g>
  <g transform="translate(10.72,11.03)" fill="#BBB836">
    <circle cx="0" cy="0" r="0.75" class="primitive"/>
  </g>
  <g transform="translate(8.34,8.91)" fill="#BBB836">
    <circle cx="0" cy="0" r="0.75" class="primitive"/>
  </g>
  <g transform="translate(20.28,15.27)" fill="#BBB836">
    <circle cx="0" cy="0" r="0.75" class="primitive"/>
  </g>
  <g transform="translate(10.57,19.52)" fill="#BBB836">
    <circle cx="0" cy="0" r="0.75" class="primitive"/>
  </g>
  <g transform="translate(9.22,17.39)" fill="#BBB836">
    <circle cx="0" cy="0" r="0.75" class="primitive"/>
  </g>
  <g transform="translate(5.61,13.15)" fill="#BBB836">
    <circle cx="0" cy="0" r="0.75" class="primitive"/>
  </g>
  <g transform="translate(47.03,23.76)" fill="#BBB836">
    <circle cx="0" cy="0" r="0.75" class="primitive"/>
  </g>
  <g transform="translate(44.5,28)" fill="#2607B5">
    <circle cx="0" cy="0" r="0.75" class="primitive"/>
  </g>
  <g transform="translate(42.37,25.88)" fill="#BBB836">
    <circle cx="0" cy="0" r="0.75" class="primitive"/>
  </g>
  <g transform="translate(17.14,32.24)" fill="#BBB836">
    <circle cx="0" cy="0" r="0.75" class="primitive"/>
  </g>
  <g transform="translate(22.56,36.48)" fill="#BBB836">
    <circle cx="0" cy="0" r="0.75" class="primitive"/>
  </g>
  <g transform="translate(5.94,34.36)" fill="#2607B5">
    <circle cx="0" cy="0" r="0.75" class="primitive"/>
  </g>
  <g transform="translate(5.54,30.12)" fill="#BBB836">
    <circle cx="0" cy="0" r="0.75" class="primitive"/>
  </g>
  <g transform="translate(25.97,40.73)" fill="#2607B5">
    <circle cx="0" cy="0" r="0.75" class="primitive"/>
  </g>
  <g transform="translate(41.5,44.97)" fill="#2607B5">
    <circle cx="0" cy="0" r="0.75" class="primitive"/>
  </g>
  <g transform="translate(21.6,42.85)" fill="#BBB836">
    <circle cx="0" cy="0" r="0.75" class="primitive"/>
  </g>
  <g transform="translate(70.81,49.21)" fill="#BBB836">
    <circle cx="0" cy="0" r="0.75" class="primitive"/>
  </g>
  <g transform="translate(78.75,53.45)" fill="#BBB836">
    <circle cx="0" cy="0" r="0.75" class="primitive"/>
  </g>
  <g transform="translate(43.51,51.33)" fill="#BBB836">
    <circle cx="0" cy="0" r="0.75" class="primitive"/>
  </g>
  <g transform="translate(13.85,47.09)" fill="#BBB836">
    <circle cx="0" cy="0" r="0.75" class="primitive"/>
  </g>
  <g transform="translate(5.05,38.61)" fill="#BBB836">
    <circle cx="0" cy="0" r="0.75" class="primitive"/>
  </g>
  <g transform="translate(3.75,25.88)" fill="#000000">
    <circle cx="0" cy="0" r="0.75" class="primitive"/>
  </g>
  <g transform="translate(3.75,14.21)" fill="#000000">
    <circle cx="0" cy="0" r="0.75" class="primitive"/>
  </g>
</g>
<g stroke-opacity="1" fill-opacity="1" font-size="1.41" stroke-width="0.1" id="img-29b4c979-3">
  <g transform="translate(5.94,2.55)" stroke="#000000">
    <g class="primitive">
      <text dy="0.35em">N12</text>
    </g>
  </g>
  <g transform="translate(20.48,6.79)" stroke="#000000">
    <g class="primitive">
      <text dy="0.35em">N8</text>
    </g>
  </g>
  <g transform="translate(12.59,11.03)" stroke="#000000">
    <g class="primitive">
      <text dy="0.35em">N9</text>
    </g>
  </g>
  <g transform="translate(10.21,8.91)" stroke="#000000">
    <g class="primitive">
      <text dy="0.35em">N17</text>
    </g>
  </g>
  <g transform="translate(22.16,15.27)" stroke="#000000">
    <g class="primitive">
      <text dy="0.35em">N10</text>
    </g>
  </g>
  <g transform="translate(12.45,19.52)" stroke="#000000">
    <g class="primitive">
      <text dy="0.35em">N11</text>
    </g>
  </g>
  <g transform="translate(11.09,17.39)" stroke="#000000">
    <g class="primitive">
      <text dy="0.35em">N18</text>
    </g>
  </g>
  <g transform="translate(7.48,13.15)" stroke="#000000">
    <g class="primitive">
      <text dy="0.35em">N21</text>
    </g>
  </g>
  <g transform="translate(48.91,23.76)" stroke="#000000">
    <g class="primitive">
      <text dy="0.35em">N0</text>
    </g>
  </g>
  <g transform="translate(46.37,28)" stroke="#000000">
    <g class="primitive">
      <text dy="0.35em">N1</text>
    </g>
  </g>
  <g transform="translate(44.25,25.88)" stroke="#000000">
    <g class="primitive">
      <text dy="0.35em">N13</text>
    </g>
  </g>
  <g transform="translate(19.01,32.24)" stroke="#000000">
    <g class="primitive">
      <text dy="0.35em">N2</text>
    </g>
  </g>
  <g transform="translate(24.43,36.48)" stroke="#000000">
    <g class="primitive">
      <text dy="0.35em">N3</text>
    </g>
  </g>
  <g transform="translate(7.82,34.36)" stroke="#000000">
    <g class="primitive">
      <text dy="0.35em">N14</text>
    </g>
  </g>
  <g transform="translate(7.41,30.12)" stroke="#000000">
    <g class="primitive">
      <text dy="0.35em">N19</text>
    </g>
  </g>
  <g transform="translate(27.85,40.73)" stroke="#000000">
    <g class="primitive">
      <text dy="0.35em">N4</text>
    </g>
  </g>
  <g transform="translate(43.38,44.97)" stroke="#000000">
    <g class="primitive">
      <text dy="0.35em">N5</text>
    </g>
  </g>
  <g transform="translate(23.48,42.85)" stroke="#000000">
    <g class="primitive">
      <text dy="0.35em">N15</text>
    </g>
  </g>
  <g transform="translate(72.68,49.21)" stroke="#000000">
    <g class="primitive">
      <text dy="0.35em">N6</text>
    </g>
  </g>
  <g transform="translate(80.62,53.45)" stroke="#000000">
    <g class="primitive">
      <text dy="0.35em">N7</text>
    </g>
  </g>
  <g transform="translate(45.38,51.33)" stroke="#000000">
    <g class="primitive">
      <text dy="0.35em">N16</text>
    </g>
  </g>
  <g transform="translate(15.73,47.09)" stroke="#000000">
    <g class="primitive">
      <text dy="0.35em">N20</text>
    </g>
  </g>
  <g transform="translate(6.92,38.61)" stroke="#000000">
    <g class="primitive">
      <text dy="0.35em">N22</text>
    </g>
  </g>
  <g transform="translate(5.63,25.88)" stroke="#000000">
    <g class="primitive">
      <text dy="0.35em"></text>
    </g>
  </g>
  <g transform="translate(5.63,14.21)" stroke="#000000">
    <g class="primitive">
      <text dy="0.35em"></text>
    </g>
  </g>
</g>
</svg>
