<?xml version="1.0" encoding="UTF-8"?>
<svg xmlns="http://www.w3.org/2000/svg"
     xmlns:xlink="http://www.w3.org/1999/xlink"
     version="1.2"
     width="150mm" height="116mm" viewBox="0 0 150 116"
     stroke="none"
     fill="#000000"
     stroke-width="0.3"
     font-size="3.88"
>
<defs>
  <marker id="arrow" markerWidth="15" markerHeight="7" refX="5" refY="3.5" orient="auto" markerUnits="strokeWidth">
    <path d="M0,0 L15,3.5 L0,7 z" stroke="context-stroke" fill="context-stroke"/>
  </marker>
</defs>
<g stroke-opacity="1" stroke-width="0.3" id="img-29b4c979-1">
  <g transform="translate(10.22,5.27)" stroke="#D4F014">
    <path fill="none" d="M-6.47,0 L6.47,0 " class="primitive"/>
  </g>
  <g transform="translate(4.96,7.78)" stroke="#D4F014">
    <path fill="none" d="M-1.21,0 L1.21,0 " class="primitive"/>
  </g>
  <g transform="translate(6.4,10.29)" stroke="#C82590">
    <path fill="none" d="M-0.57,0 L0.57,0 " class="primitive"/>
  </g>
  <g transform="translate(7.51,12.81)" stroke="#C82590">
    <path fill="none" d="M-0.85,0 L0.85,0 " class="primitive"/>
  </g>
  <g transform="translate(7.73,15.32)" stroke="#C82590">
    <path fill="none" d="M-0.04,0 L0.04,0 " class="primitive"/>
  </g>
  <g transform="translate(8.79,17.83)" stroke="#D4F014">
    <path fill="none" d="M-0.36,0 L0.36,0 " class="primitive"/>
  </g>
  <g transform="translate(10.14,20.34)" stroke="#C82590">
    <path fill="none" d="M-1.49,0 L1.49,0 " class="primitive"/>
  </g>
  <g transform="translate(10.73,22.85)" stroke="#D4F014">
    <path fill="none" d="M-1.46,0 L1.46,0 " class="primitive"/>
  </g>
  <g transform="translate(10.23,25.36)" stroke="#D4F014">
    <path fill="none" d="M-0.76,0 L0.76,0 " class="primitive"/>
  </g>
  <g transform="translate(11.74,27.87)" stroke="#D4F014">
    <path fill="none" d="M-1.61,0 L1.61,0 " class="primitive"/>
  </g>
  <g transform="translate(11.38,30.38)" stroke="#C82590">
    <path fill="none" d="M-0.75,0 L0.75,0 " class="primitive"/>
  </g>
  <g transform="translate(11.9,32.89)" stroke="#D4F014">
    <path fill="none" d="M-0.62,0 L0.62,0 " class="primitive"/>
  </g>
  <g transform="translate(14.23,35.4)" stroke="#D4F014">
    <path fill="none" d="M-0.61,0 L0.61,0 " class="primitive"/>
  </g>
  <g transform="translate(16.63,37.91)" stroke="#D4F014">
    <path fill="none" d="M-1.33,0 L1.33,0 " class="primitive"/>
  </g>
  <g transform="translate(16.37,40.42)" stroke="#D4F014">
    <path fill="none" d="M-0.21,0 L0.21,0 " class="primitive"/>
  </g>
  <g transform="translate(17.86,42.94)" stroke="#C82590">
    <path fill="none" d="M-1.33,0 L1.33,0 " class="primitive"/>
  </g>
  <g transform="translate(19.54,45.45)" stroke="#D4F014">
    <path fill="none" d="M-0.33,0 L0.33,0 " class="primitive"/>
  </g>
  <g transform="translate(19.95,47.96)" stroke="#D4F014">
    <path fill="none" d="M-0.22,0 L0.22,0 " class="primitive"/>
  </g>
  <g transform="translate(20.77,50.47)" stroke="#D4F014">
    <path fill="none" d="M-0.58,0 L0.58,0 " class="primitive"/>
  </g>
  <g transform="translate(22.8,52.98)" stroke="#C82590">
    <path fill="none" d="M-0.19,0 L0.19,0 " class="primitive"/>
  </g>
  <g transform="translate(25.58,55.49)" stroke="#D4F014">
    <path fill="none" d="M-0.77,0 L0.77,0 " class="primitive"/>
  </g>
  <g transform="translate(27.58,58)" stroke="#D4F014">
    <path fill="none" d="M-0.13,0 L0.13,0 " class="primitive"/>
  </g>
  <g transform="translate(33.34,60.51)" stroke="#D4F014">
    <path fill="none" d="M-0.28,0 L0.28,0 " class="primitive"/>
  </g>
  <g transform="translate(34.45,63.02)" stroke="#C82590">
    <path fill="none" d="M-0.85,0 L0.85,0 " class="primitive"/>
  </g>
  <g transform="translate(35.4,65.53)" stroke="#D4F014">
    <path fill="none" d="M-0.91,0 L0.91,0 " class="primitive"/>
  </g>
  <g transform="translate(37.27,68.04)" stroke="#D4F014">
    <path fill="none" d="M-1.97,0 L1.97,0 " class="primitive"/>
  </g>
  <g transform="translate(39.29,70.55)" stroke="#C82590">
    <path fill="none" d="M-2.03,0 L2.03,0 " class="primitive"/>
  </g>
  <g transform="translate(38.78,73.06)" stroke="#C82590">
    <path fill="none" d="M-0.56,0 L0.56,0 " class="primitive"/>
  </g>
  <g transform="translate(43.58,75.58)" stroke="#D4F014">
    <path fill="none" d="M-2.05,0 L2.05,0 " class="primitive"/>
  </g>
  <g transform="translate(43.45,78.09)" stroke="#C82590">
    <path fill="none" d="M-0.06,0 L0.06,0 " class="primitive"/>
  </g>
  <g transform="translate(44.44,80.6)" stroke="#D4F014">
    <path fill="none" d="M-0.11,0 L0.11,0 " class="primitive"/>
  </g>
  <g transform="translate(45.19,83.11)" stroke="#D4F014">
    <path fill="none" d="M-0.25,0 L0.25,0 " class="primitive"/>
  </g>
  <g transform="translate(47.38,85.62)" stroke="#D4F014">
    <path fill="none" d="M-1.74,0 L1.74,0 " class="primitive"/>
  </g>
  <g transform="translate(50.21,88.13)" stroke="#D4F014">
    <path fill="none" d="M-0.83,0 L0.83,0 " class="primitive"/>
  </g>
  <g transform="translate(52.04,90.64)" stroke="#C82590">
    <path fill="none" d="M-0.6,0 L0.6,0 " class="primitive"/>
  </g>
  <g transform="translate(54.9,93.15)" stroke="#D4F014">
    <path fill="none" d="M-1.43,0 L1.43,0 " class="primitive"/>
  </g>
  <g transform="translate(60.43,95.66)" stroke="#D4F014">
    <path fill="none" d="M-1.9,0 L1.9,0 " class="primitive"/>
  </g>
  <g transform="translate(66.36,98.17)" stroke="#D4F014">
    <path fill="none" d="M-0.61,0 L0.61,0 " class="primitive"/>
  </g>
  <g transform="translate(71.02,100.68)" stroke="#D4F014">
    <path fill="none" d="M-0.92,0 L0.92,0 " class="primitive"/>
  </g>
  <g transform="translate(71.06,103.19)" stroke="#D4F014">
    <path fill="none" d="M-0.03,0 L0.03,0 " class="primitive"/>
  </g>
  <g transform="translate(72.4,105.71)" stroke="#D4F014">
    <path fill="none" d="M-0.74,0 L0.74,0 " class="primitive"/>
  </g>
  <g transform="translate(74.43,108.22)" stroke="#C82590">
    <path fill="none" d="M-1.77,0 L1.77,0 " class="primitive"/>
  </g>
  <g transform="translate(75.71,110.73)" stroke="#D4F014">
    <path fill="none" d="M-3.04,0 L3.04,0 " class="primitive"/>
  </g>
  <g transform="translate(72.16,109.47)" stroke="#D4F014">
    <path fill="none" d="M-0.5,0 L0.5,0 " class="primitive"/>
  </g>
  <g transform="translate(72.66,109.47)" stroke="#D4F014">
    <path fill="none" d="M0,1.26 L0,-1.26 " class="primitive"/>
  </g>
  <g transform="translate(71.34,107.59)" stroke="#D4F014">
    <path fill="none" d="M-0.32,0 L0.32,0 " class="primitive"/>
  </g>
  <g transform="translate(71.67,107.59)" stroke="#D4F014">
    <path fill="none" d="M0,1.88 L0,-1.88 " class="primitive"/>
  </g>
  <g transform="translate(70.56,105.39)" stroke="#D4F014">
    <path fill="none" d="M-0.46,0 L0.46,0 " class="primitive"/>
  </g>
  <g transform="translate(71.02,105.39)" stroke="#D4F014">
    <path fill="none" d="M0,2.2 L0,-2.2 " class="primitive"/>
  </g>
  <g transform="translate(67.92,103.04)" stroke="#D4F014">
    <path fill="none" d="M-2.17,0 L2.17,0 " class="primitive"/>
  </g>
  <g transform="translate(70.1,103.04)" stroke="#D4F014">
    <path fill="none" d="M0,2.35 L0,-2.35 " class="primitive"/>
  </g>
  <g stroke-opacity="1" stroke-width="0.3" id="img-29b4c979-2">
    <g transform="translate(15.3,40.42)" stroke="#D4F014">
      <path fill="none" d="M0,2.51 L0,-2.51 " class="primitive"/>
    </g>
    <g transform="translate(12.45,37.91)" stroke="#C82590">
      <path fill="none" d="M-1.17,0 L1.17,0 " class="primitive"/>
    </g>
    <g transform="translate(13.62,37.91)" stroke="#C82590">
      <path fill="none" d="M0,2.51 L0,-2.51 " class="primitive"/>
    </g>
    <g transform="translate(10.95,35.4)" stroke="#C82590">
      <path fill="none" d="M-0.33,0 L0.33,0 " class="primitive"/>
    </g>
    <g transform="translate(11.28,35.4)" stroke="#C82590">
      <path fill="none" d="M0,2.51 L0,-2.51 " class="primitive"/>
    </g>
    <g transform="translate(10.38,32.89)" stroke="#C82590">
      <path fill="none" d="M-0.25,0 L0.25,0 " class="primitive"/>
    </g>
    <g transform="translate(10.63,32.89)" stroke="#C82590">
      <path fill="none" d="M0,2.51 L0,-2.51 " class="primitive"/>
    </g>
    <g transform="translate(9.8,30.38)" stroke="#D4F014">
      <path fill="none" d="M-0.33,0 L0.33,0 " class="primitive"/>
    </g>
    <g transform="translate(10.13,30.38)" stroke="#D4F014">
      <path fill="none" d="M0,2.51 L0,-2.51 " class="primitive"/>
    </g>
    <g transform="translate(9.37,27.87)" stroke="#D4F014">
      <path fill="none" d="M-0.1,0 L0.1,0 " class="primitive"/>
    </g>
    <g transform="translate(9.48,27.87)" stroke="#D4F014">
      <path fill="none" d="M0,2.51 L0,-2.51 " class="primitive"/>
    </g>
    <g transform="translate(8.96,25.36)" stroke="#D4F014">
      <path fill="none" d="M-0.31,0 L0.31,0 " class="primitive"/>
    </g>
    <g transform="translate(9.27,25.36)" stroke="#D4F014">
      <path fill="none" d="M0,2.51 L0,-2.51 " class="primitive"/>
    </g>
    <g transform="translate(8.54,22.85)" stroke="#C82590">
      <path fill="none" d="M-0.11,0 L0.11,0 " class="primitive"/>
    </g>
    <g transform="translate(8.65,22.85)" stroke="#C82590">
      <path fill="none" d="M0,2.51 L0,-2.51 " class="primitive"/>
    </g>
    <g transform="translate(8.06,20.34)" stroke="#D4F014">
      <path fill="none" d="M-0.37,0 L0.37,0 " class="primitive"/>
    </g>
    <g transform="translate(8.43,20.34)" stroke="#D4F014">
      <path fill="none" d="M0,2.51 L0,-2.51 " class="primitive"/>
    </g>
    <g transform="translate(7.17,17.83)" stroke="#C82590">
      <path fill="none" d="M-0.52,0 L0.52,0 " class="primitive"/>
    </g>
    <g transform="translate(7.69,17.83)" stroke="#C82590">
      <path fill="none" d="M0,2.51 L0,-2.51 " class="primitive"/>
    </g>
    <g transform="translate(6.24,15.32)" stroke="#D4F014">
      <path fill="none" d="M-0.41,0 L0.41,0 " class="primitive"/>
    </g>
    <g transform="translate(6.66,15.32)" stroke="#D4F014">
      <path fill="none" d="M0,2.51 L0,-2.51 " class="primitive"/>
    </g>
    <g transform="translate(4.79,12.81)" stroke="#D4F014">
      <path fill="none" d="M-1.04,0 L1.04,0 " class="primitive"/>
    </g>
    <g transform="translate(5.83,12.81)" stroke="#D4F014">
      <path fill="none" d="M0,2.51 L0,-2.51 " class="primitive"/>
    </g>
    <g transform="translate(3.75,10.29)" stroke="#000000">
      <path fill="none" d="M0,0 L0,0 " class="primitive"/>
    </g>
    <g transform="translate(3.75,10.29)" stroke="#000000">
      <path fill="none" d="M0,2.51 L0,-2.51 " class="primitive"/>
    </g>
    <g transform="translate(3.75,7.78)" stroke="#000000">
      <path fill="none" d="M0,0 L0,0 " class="primitive"/>
    </g>
    <g transform="translate(3.75,7.78)" stroke="#000000">
      <path fill="none" d="M0,2.51 L0,-2.51 " class="primitive"/>
    </g>
  </g>
  <g stroke-opacity="1" stroke-width="0.3" id="img-29b4c979-3">
    <g transform="translate(70.1,103.04)" stroke="#D4F014">
      <path fill="none" d="M0,2.35 L0,-2.35 " class="primitive"/>
    </g>
    <g transform="translate(62.14,100.61)" stroke="#C82590">
      <path fill="none" d="M-3.61,0 L3.61,0 " class="primitive"/>
    </g>
    <g transform="translate(65.75,100.61)" stroke="#C82590">
      <path fill="none" d="M0,2.43 L0,-2.43 " class="primitive"/>
    </g>
    <g transform="translate(56,98.13)" stroke="#D4F014">
      <path fill="none" d="M-2.53,0 L2.53,0 " class="primitive"/>
    </g>
    <g transform="translate(58.52,98.13)" stroke="#D4F014">
      <path fill="none" d="M0,2.47 L0,-2.47 " class="primitive"/>
    </g>
    <g transform="translate(52.45,95.64)" stroke="#C82590">
      <path fill="none" d="M-1.02,0 L1.02,0 " class="primitive"/>
    </g>
    <g transform="translate(53.47,95.64)" stroke="#C82590">
      <path fill="none" d="M0,2.49 L0,-2.49 " class="primitive"/>
    </g>
    <g transform="translate(50.41,93.14)" stroke="#D4F014">
      <path fill="none" d="M-1.03,0 L1.03,0 " class="primitive"/>
    </g>
    <g transform="translate(51.44,93.14)" stroke="#D4F014">
      <path fill="none" d="M0,2.5 L0,-2.5 " class="primitive"/>
    </g>
    <g transform="translate(47.51,90.64)" stroke="#D4F014">
      <path fill="none" d="M-1.87,0 L1.87,0 " class="primitive"/>
    </g>
    <g transform="translate(49.38,90.64)" stroke="#D4F014">
      <path fill="none" d="M0,2.51 L0,-2.51 " class="primitive"/>
    </g>
    <g transform="translate(45.29,88.13)" stroke="#D4F014">
      <path fill="none" d="M-0.35,0 L0.35,0 " class="primitive"/>
    </g>
    <g transform="translate(45.64,88.13)" stroke="#D4F014">
      <path fill="none" d="M0,2.51 L0,-2.51 " class="primitive"/>
    </g>
    <g transform="translate(44.63,85.62)" stroke="#C82590">
      <path fill="none" d="M-0.3,0 L0.3,0 " class="primitive"/>
    </g>
    <g transform="translate(44.94,85.62)" stroke="#C82590">
      <path fill="none" d="M0,2.51 L0,-2.51 " class="primitive"/>
    </g>
    <g transform="translate(43.86,83.11)" stroke="#C82590">
      <path fill="none" d="M-0.47,0 L0.47,0 " class="primitive"/>
    </g>
    <g transform="translate(44.33,83.11)" stroke="#C82590">
      <path fill="none" d="M0,2.51 L0,-2.51 " class="primitive"/>
    </g>
    <g transform="translate(42.46,80.6)" stroke="#D4F014">
      <path fill="none" d="M-0.93,0 L0.93,0 " class="primitive"/>
    </g>
    <g transform="translate(43.39,80.6)" stroke="#D4F014">
      <path fill="none" d="M0,2.51 L0,-2.51 " class="primitive"/>
    </g>
    <g transform="translate(39.88,78.09)" stroke="#D4F014">
      <path fill="none" d="M-1.65,0 L1.65,0 " class="primitive"/>
    </g>
    <g transform="translate(41.53,78.09)" stroke="#D4F014">
      <path fill="none" d="M0,2.51 L0,-2.51 " class="primitive"/>
    </g>
    <g transform="translate(37.74,75.58)" stroke="#D4F014">
      <path fill="none" d="M-0.48,0 L0.48,0 " class="primitive"/>
    </g>
    <g transform="translate(38.22,75.58)" stroke="#D4F014">
      <path fill="none" d="M0,2.51 L0,-2.51 " class="primitive"/>
    </g>
    <g transform="translate(36.28,73.06)" stroke="#D4F014">
      <path fill="none" d="M-0.98,0 L0.98,0 " class="primitive"/>
    </g>
    <g transform="translate(37.26,73.06)" stroke="#D4F014">
      <path fill="none" d="M0,2.51 L0,-2.51 " class="primitive"/>
    </g>
    <g transform="translate(34.9,70.55)" stroke="#C82590">
      <path fill="none" d="M-0.4,0 L0.4,0 " class="primitive"/>
    </g>
    <g transform="translate(35.3,70.55)" stroke="#C82590">
      <path fill="none" d="M0,2.51 L0,-2.51 " class="primitive"/>
    </g>
    <g transform="translate(34.05,68.04)" stroke="#D4F014">
      <path fill="none" d="M-0.45,0 L0.45,0 " class="primitive"/>
    </g>
    <g transform="translate(34.49,68.04)" stroke="#D4F014">
      <path fill="none" d="M0,2.51 L0,-2.51 " class="primitive"/>
    </g>
    <g transform="translate(33.33,65.53)" stroke="#D4F014">
      <path fill="none" d="M-0.27,0 L0.27,0 " class="primitive"/>
    </g>
    <g transform="translate(33.6,65.53)" stroke="#D4F014">
      <path fill="none" d="M0,2.51 L0,-2.51 " class="primitive"/>
    </g>
    <g transform="translate(30.26,63.02)" stroke="#C82590">
      <path fill="none" d="M-2.81,0 L2.81,0 " class="primitive"/>
    </g>
    <g transform="translate(33.07,63.02)" stroke="#C82590">
      <path fill="none" d="M0,2.51 L0,-2.51 " class="primitive"/>
    </g>
    <g transform="translate(26.13,60.51)" stroke="#D4F014">
      <path fill="none" d="M-1.32,0 L1.32,0 " class="primitive"/>
    </g>
    <g transform="translate(27.45,60.51)" stroke="#D4F014">
      <path fill="none" d="M0,2.51 L0,-2.51 " class="primitive"/>
    </g>
    <g transform="translate(23.71,58)" stroke="#D4F014">
      <path fill="none" d="M-1.1,0 L1.1,0 " class="primitive"/>
    </g>
    <g transform="translate(24.81,58)" stroke="#D4F014">
      <path fill="none" d="M0,2.51 L0,-2.51 " class="primitive"/>
    </g>
    <g transform="translate(21.4,55.49)" stroke="#D4F014">
      <path fill="none" d="M-1.21,0 L1.21,0 " class="primitive"/>
    </g>
    <g transform="translate(22.61,55.49)" stroke="#D4F014">
      <path fill="none" d="M0,2.51 L0,-2.51 " class="primitive"/>
    </g>
    <g transform="translate(19.96,52.98)" stroke="#D4F014">
      <path fill="none" d="M-0.23,0 L0.23,0 " class="primitive"/>
    </g>
    <g transform="translate(20.19,52.98)" stroke="#D4F014">
      <path fill="none" d="M0,2.51 L0,-2.51 " class="primitive"/>
    </g>
    <g transform="translate(19.47,50.47)" stroke="#C82590">
      <path fill="none" d="M-0.26,0 L0.26,0 " class="primitive"/>
    </g>
    <g transform="translate(19.74,50.47)" stroke="#C82590">
      <path fill="none" d="M0,2.51 L0,-2.51 " class="primitive"/>
    </g>
    <g transform="translate(17.87,47.96)" stroke="#D4F014">
      <path fill="none" d="M-1.34,0 L1.34,0 " class="primitive"/>
    </g>
    <g transform="translate(19.21,47.96)" stroke="#D4F014">
      <path fill="none" d="M0,2.51 L0,-2.51 " class="primitive"/>
    </g>
    <g transform="translate(16.35,45.45)" stroke="#D4F014">
      <path fill="none" d="M-0.18,0 L0.18,0 " class="primitive"/>
    </g>
    <g transform="translate(16.53,45.45)" stroke="#D4F014">
      <path fill="none" d="M0,2.51 L0,-2.51 " class="primitive"/>
    </g>
    <g transform="translate(15.73,42.94)" stroke="#D4F014">
      <path fill="none" d="M-0.43,0 L0.43,0 " class="primitive"/>
    </g>
    <g transform="translate(16.16,42.94)" stroke="#D4F014">
      <path fill="none" d="M0,2.51 L0,-2.51 " class="primitive"/>
    </g>
    <g transform="translate(14.46,40.42)" stroke="#D4F014">
      <path fill="none" d="M-0.84,0 L0.84,0 " class="primitive"/>
    </g>
    <g transform="translate(15.3,40.42)" stroke="#D4F014">
      <path fill="none" d="M0,2.51 L0,-2.51 " class="primitive"/>
    </g>
  </g>
</g>
<g fill-opacity="1" id="img-29b4c979-4">
  <g transform="translate(16.69,5.27)" fill="#D4F014">
    <circle cx="0" cy="0" r="0.75" class="primitive"/>
  </g>
  <g transform="translate(6.16,7.78)" fill="#D4F014">
    <circle cx="0" cy="0" r="0.75" class="primitive"/>
  </g>
  <g transform="translate(6.98,10.29)" fill="#C82590">
    <circle cx="0" cy="0" r="0.75" class="primitive"/>
  </g>
  <g transform="translate(8.37,12.81)" fill="#C82590">
    <circle cx="0" cy="0" r="0.75" class="primitive"/>
  </g>
  <g transform="translate(7.77,15.32)" fill="#C82590">
    <circle cx="0" cy="0" r="0.75" class="primitive"/>
  </g>
  <g transform="translate(9.15,17.83)" fill="#D4F014">
    <circle cx="0" cy="0" r="0.75" class="primitive"/>
  </g>
  <g transform="translate(11.63,20.34)" fill="#C82590">
    <circle cx="0" cy="0" r="0.75" class="primitive"/>
  </g>
  <g transform="translate(12.19,22.85)" fill="#D4F014">
    <circle cx="0" cy="0" r="0.75" class="primitive"/>
  </g>
  <g transform="translate(10.99,25.36)" fill="#D4F014">
    <circle cx="0" cy="0" r="0.75" class="primitive"/>
  </g>
  <g transform="translate(13.35,27.87)" fill="#D4F014">
    <circle cx="0" cy="0" r="0.75" class="primitive"/>
  </g>
  <g transform="translate(12.14,30.38)" fill="#C82590">
    <circle cx="0" cy="0" r="0.75" class="primitive"/>
  </g>
  <g transform="translate(12.53,32.89)" fill="#D4F014">
    <circle cx="0" cy="0" r="0.75" class="primitive"/>
  </g>
  <g transform="translate(14.83,35.4)" fill="#D4F014">
    <circle cx="0" cy="0" r="0.75" class="primitive"/>
  </g>
  <g transform="translate(17.97,37.91)" fill="#D4F014">
    <circle cx="0" cy="0" r="0.75" class="primitive"/>
  </g>
  <g transform="translate(16.58,40.42)" fill="#D4F014">
    <circle cx="0" cy="0" r="0.75" class="primitive"/>
  </g>
  <g transform="translate(19.18,42.94)" fill="#C82590">
    <circle cx="0" cy="0" r="0.75" class="primitive"/>
  </g>
  <g transform="translate(19.87,45.45)" fill="#D4F014">
    <circle cx="0" cy="0" r="0.75" class="primitive"/>
  </g>
  <g transform="translate(20.17,47.96)" fill="#D4F014">
    <circle cx="0" cy="0" r="0.75" class="primitive"/>
  </g>
  <g transform="translate(21.36,50.47)" fill="#D4F014">
    <circle cx="0" cy="0" r="0.75" class="primitive"/>
  </g>
  <g transform="translate(22.99,52.98)" fill="#C82590">
    <circle cx="0" cy="0" r="0.75" class="primitive"/>
  </g>
  <g transform="translate(26.35,55.49)" fill="#D4F014">
    <circle cx="0" cy="0" r="0.75" class="primitive"/>
  </g>
  <g transform="translate(27.71,58)" fill="#D4F014">
    <circle cx="0" cy="0" r="0.75" class="primitive"/>
  </g>
  <g transform="translate(33.62,60.51)" fill="#D4F014">
    <circle cx="0" cy="0" r="0.75" class="primitive"/>
  </g>
  <g transform="translate(35.29,63.02)" fill="#C82590">
    <circle cx="0" cy="0" r="0.75" class="primitive"/>
  </g>
  <g transform="translate(36.32,65.53)" fill="#D4F014">
    <circle cx="0" cy="0" r="0.75" class="primitive"/>
  </g>
  <g transform="translate(39.23,68.04)" fill="#D4F014">
    <circle cx="0" cy="0" r="0.75" class="primitive"/>
  </g>
  <g transform="translate(41.32,70.55)" fill="#C82590">
    <circle cx="0" cy="0" r="0.75" class="primitive"/>
  </g>
  <g transform="translate(39.34,73.06)" fill="#C82590">
    <circle cx="0" cy="0" r="0.75" class="primitive"/>
  </g>
  <g transform="translate(45.63,75.58)" fill="#D4F014">
    <circle cx="0" cy="0" r="0.75" class="primitive"/>
  </g>
  <g transform="translate(43.51,78.09)" fill="#C82590">
    <circle cx="0" cy="0" r="0.75" class="primitive"/>
  </g>
  <g transform="translate(44.55,80.6)" fill="#D4F014">
    <circle cx="0" cy="0" r="0.75" class="primitive"/>
  </g>
  <g transform="translate(45.44,83.11)" fill="#D4F014">
    <circle cx="0" cy="0" r="0.75" class="primitive"/>
  </g>
  <g transform="translate(49.12,85.62)" fill="#D4F014">
    <circle cx="0" cy="0" r="0.75" class="primitive"/>
  </g>
  <g transform="translate(51.05,88.13)" fill="#D4F014">
    <circle cx="0" cy="0" r="0.75" class="primitive"/>
  </g>
  <g transform="translate(52.65,90.64)" fill="#C82590">
    <circle cx="0" cy="0" r="0.75" class="primitive"/>
  </g>
  <g transform="translate(56.32,93.15)" fill="#D4F014">
    <circle cx="0" cy="0" r="0.75" class="primitive"/>
  </g>
  <g transform="translate(62.33,95.66)" fill="#D4F014">
    <circle cx="0" cy="0" r="0.75" class="primitive"/>
  </g>
  <g transform="translate(66.98,98.17)" fill="#D4F014">
    <circle cx="0" cy="0" r="0.75" class="primitive"/>
  </g>
  <g transform="translate(71.94,100.68)" fill="#D4F014">
    <circle cx="0" cy="0" r="0.75" class="primitive"/>
  </g>
  <g transform="translate(71.09,103.19)" fill="#D4F014">
    <circle cx="0" cy="0" r="0.75" class="primitive"/>
  </g>
  <g transform="translate(73.14,105.71)" fill="#D4F014">
    <circle cx="0" cy="0" r="0.75" class="primitive"/>
  </g>
  <g transform="translate(76.2,108.22)" fill="#C82590">
    <circle cx="0" cy="0" r="0.75" class="primitive"/>
  </g>
  <g transform="translate(78.75,110.73)" fill="#D4F014">
    <circle cx="0" cy="0" r="0.75" class="primitive"/>
  </g>
  <g transform="translate(72.66,109.47)" fill="#D4F014">
    <circle cx="0" cy="0" r="0.75" class="primitive"/>
  </g>
  <g transform="translate(71.67,107.59)" fill="#D4F014">
    <circle cx="0" cy="0" r="0.75" class="primitive"/>
  </g>
  <g transform="translate(71.02,105.39)" fill="#D4F014">
    <circle cx="0" cy="0" r="0.75" class="primitive"/>
  </g>
  <g transform="translate(70.1,103.04)" fill="#D4F014">
    <circle cx="0" cy="0" r="0.75" class="primitive"/>
  </g>
  <g transform="translate(65.75,100.61)" fill="#C82590">
    <circle cx="0" cy="0" r="0.75" class="primitive"/>
  </g>
  <g transform="translate(58.52,98.13)" fill="#D4F014">
    <circle cx="0" cy="0" r="0.75" class="primitive"/>
  </g>
  <g transform="translate(53.47,95.64)" fill="#C82590">
    <circle cx="0" cy="0" r="0.75" class="primitive"/>
  </g>
  <g transform="translate(51.44,93.14)" fill="#D4F014">
    <circle cx="0" cy="0" r="0.75" class="primitive"/>
  </g>
  <g fill-opacity="1" id="img-29b4c979-5">
    <g transform="translate(51.44,93.14)" fill="#D4F014">
      <circle cx="0" cy="0" r="0.75" class="primitive"/>
    </g>
    <g transform="translate(49.38,90.64)" fill="#D4F014">
      <circle cx="0" cy="0" r="0.75" class="primitive"/>
    </g>
    <g transform="translate(45.64,88.13)" fill="#D4F014">
      <circle cx="0" cy="0" r="0.75" class="primitive"/>
    </g>
    <g transform="translate(44.94,85.62)" fill="#C82590">
      <circle cx="0" cy="0" r="0.75" class="primitive"/>
    </g>
    <g transform="translate(44.33,83.11)" fill="#C82590">
      <circle cx="0" cy="0" r="0.75" class="primitive"/>
    </g>
    <g transform="translate(43.39,80.6)" fill="#D4F014">
      <circle cx="0" cy="0" r="0.75" class="primitive"/>
    </g>
    <g transform="translate(41.53,78.09)" fill="#D4F014">
      <circle cx="0" cy="0" r="0.75" class="primitive"/>
    </g>
    <g transform="translate(38.22,75.58)" fill="#D4F014">
      <circle cx="0" cy="0" r="0.75" class="primitive"/>
    </g>
    <g transform="translate(37.26,73.06)" fill="#D4F014">
      <circle cx="0" cy="0" r="0.75" class="primitive"/>
    </g>
    <g transform="translate(35.3,70.55)" fill="#C82590">
      <circle cx="0" cy="0" r="0.75" class="primitive"/>
    </g>
    <g transform="translate(34.49,68.04)" fill="#D4F014">
      <circle cx="0" cy="0" r="0.75" class="primitive"/>
    </g>
    <g transform="translate(33.6,65.53)" fill="#D4F014">
      <circle cx="0" cy="0" r="0.75" class="primitive"/>
    </g>
    <g transform="translate(33.07,63.02)" fill="#C82590">
      <circle cx="0" cy="0" r="0.75" class="primitive"/>
    </g>
    <g transform="translate(27.45,60.51)" fill="#D4F014">
      <circle cx="0" cy="0" r="0.75" class="primitive"/>
    </g>
    <g transform="translate(24.81,58)" fill="#D4F014">
      <circle cx="0" cy="0" r="0.75" class="primitive"/>
    </g>
    <g transform="translate(22.61,55.49)" fill="#D4F014">
      <circle cx="0" cy="0" r="0.75" class="primitive"/>
    </g>
    <g transform="translate(20.19,52.98)" fill="#D4F014">
      <circle cx="0" cy="0" r="0.75" class="primitive"/>
    </g>
    <g transform="translate(19.74,50.47)" fill="#C82590">
      <circle cx="0" cy="0" r="0.75" class="primitive"/>
    </g>
    <g transform="translate(19.21,47.96)" fill="#D4F014">
      <circle cx="0" cy="0" r="0.75" class="primitive"/>
    </g>
    <g transform="translate(16.53,45.45)" fill="#D4F014">
      <circle cx="0" cy="0" r="0.75" class="primitive"/>
    </g>
    <g transform="translate(16.16,42.94)" fill="#D4F014">
      <circle cx="0" cy="0" r="0.75" class="primitive"/>
    </g>
    <g transform="translate(15.3,40.42)" fill="#D4F014">
      <circle cx="0" cy="0" r="0.75" class="primitive"/>
    </g>
    <g transform="translate(13.62,37.91)" fill="#C82590">
      <circle cx="0" cy="0" r="0.75" class="primitive"/>
    </g>
    <g transform="translate(11.28,35.4)" fill="#C82590">
      <circle cx="0" cy="0" r="0.75" class="primitive"/>
    </g>
    <g transform="translate(10.63,32.89)" fill="#C82590">
      <circle cx="0" cy="0" r="0.75" class="primitive"/>
    </g>
    <g transform="translate(10.13,30.38)" fill="#D4F014">
      <circle cx="0" cy="0" r="0.75" class="primitive"/>
    </g>
    <g transform="translate(9.48,27.87)" fill="#D4F014">
      <circle cx="0" cy="0" r="0.75" class="primitive"/>
    </g>
    <g transform="translate(9.27,25.36)" fill="#D4F014">
      <circle cx="0" cy="0" r="0.75" class="primitive"/>
    </g>
    <g transform="translate(8.65,22.85)" fill="#C82590">
      <circle cx="0" cy="0" r="0.75" class="primitive"/>
    </g>
    <g transform="translate(8.43,20.34)" fill="#D4F014">
      <circle cx="0" cy="0" r="0.75" class="primitive"/>
    </g>
    <g transform="translate(7.69,17.83)" fill="#C82590">
      <circle cx="0" cy="0" r="0.75" class="primitive"/>
    </g>
    <g transform="translate(6.66,15.32)" fill="#D4F014">
      <circle cx="0" cy="0" r="0.75" class="primitive"/>
    </g>
    <g transform="translate(5.83,12.81)" fill="#D4F014">
      <circle cx="0" cy="0" r="0.75" class="primitive"/>
    </g>
    <g transform="translate(3.75,10.29)" fill="#000000">
      <circle cx="0" cy="0" r="0.75" class="primitive"/>
    </g>
    <g transform="translate(3.75,7.78)" fill="#000000">
      <circle cx="0" cy="0" r="0.75" class="primitive"/>
    </g>
  </g>
</g>
<g stroke-opacity="1" fill-opacity="1" font-size="1.41" stroke-width="0.1" id="img-29b4c979-6">
  <g transform="translate(18.56,5.27)" stroke="#000000">
    <g class="primitive">
      <text dy="0.35em">N42</text>
    </g>
  </g>
  <g transform="translate(8.04,7.78)" stroke="#000000">
    <g class="primitive">
      <text dy="0.35em">N41</text>
    </g>
  </g>
  <g transform="translate(8.85,10.29)" stroke="#000000">
    <g class="primitive">
      <text dy="0.35em">N40</text>
    </g>
  </g>
  <g transform="translate(10.24,12.81)" stroke="#000000">
    <g class="primitive">
      <text dy="0.35em">N39</text>
    </g>
  </g>
  <g transform="translate(9.65,15.32)" stroke="#000000">
    <g class="primitive">
      <text dy="0.35em">N38</text>
    </g>
  </g>
  <g transform="translate(11.02,17.83)" stroke="#000000">
    <g class="primitive">
      <text dy="0.35em">N37</text>
    </g>
  </g>
  <g transform="translate(13.5,20.34)" stroke="#000000">
    <g class="primitive">
      <text dy="0.35em">N36</text>
    </g>
  </g>
  <g transform="translate(14.06,22.85)" stroke="#000000">
    <g class="primitive">
      <text dy="0.35em">N35</text>
    </g>
  </g>
  <g transform="translate(12.87,25.36)" stroke="#000000">
    <g class="primitive">
      <text dy="0.35em">N34</text>
    </g>
  </g>
  <g transform="translate(15.23,27.87)" stroke="#000000">
    <g class="primitive">
      <text dy="0.35em">N33</text>
    </g>
  </g>
  <g transform="translate(14.01,30.38)" stroke="#000000">
    <g class="primitive">
      <text dy="0.35em">N32</text>
    </g>
  </g>
  <g transform="translate(14.4,32.89)" stroke="#000000">
    <g class="primitive">
      <text dy="0.35em">N31</text>
    </g>
  </g>
  <g transform="translate(16.71,35.4)" stroke="#000000">
    <g class="primitive">
      <text dy="0.35em">N30</text>
    </g>
  </g>
  <g transform="translate(19.84,37.91)" stroke="#000000">
    <g class="primitive">
      <text dy="0.35em">N29</text>
    </g>
  </g>
  <g transform="translate(18.45,40.42)" stroke="#000000">
    <g class="primitive">
      <text dy="0.35em">N28</text>
    </g>
  </g>
  <g transform="translate(21.06,42.94)" stroke="#000000">
    <g class="primitive">
      <text dy="0.35em">N27</text>
    </g>
  </g>
  <g transform="translate(21.75,45.45)" stroke="#000000">
    <g class="primitive">
      <text dy="0.35em">N26</text>
    </g>
  </g>
  <g transform="translate(22.04,47.96)" stroke="#000000">
    <g class="primitive">
      <text dy="0.35em">N25</text>
    </g>
  </g>
  <g transform="translate(23.23,50.47)" stroke="#000000">
    <g class="primitive">
      <text dy="0.35em">N24</text>
    </g>
  </g>
  <g transform="translate(24.87,52.98)" stroke="#000000">
    <g class="primitive">
      <text dy="0.35em">N23</text>
    </g>
  </g>
  <g transform="translate(28.23,55.49)" stroke="#000000">
    <g class="primitive">
      <text dy="0.35em">N22</text>
    </g>
  </g>
  <g transform="translate(29.58,58)" stroke="#000000">
    <g class="primitive">
      <text dy="0.35em">N21</text>
    </g>
  </g>
  <g transform="translate(35.49,60.51)" stroke="#000000">
    <g class="primitive">
      <text dy="0.35em">N20</text>
    </g>
  </g>
  <g transform="translate(37.17,63.02)" stroke="#000000">
    <g class="primitive">
      <text dy="0.35em">N19</text>
    </g>
  </g>
  <g transform="translate(38.19,65.53)" stroke="#000000">
    <g class="primitive">
      <text dy="0.35em">N18</text>
    </g>
  </g>
  <g transform="translate(41.11,68.04)" stroke="#000000">
    <g class="primitive">
      <text dy="0.35em">N17</text>
    </g>
  </g>
  <g transform="translate(43.19,70.55)" stroke="#000000">
    <g class="primitive">
      <text dy="0.35em">N16</text>
    </g>
  </g>
  <g transform="translate(41.22,73.06)" stroke="#000000">
    <g class="primitive">
      <text dy="0.35em">N15</text>
    </g>
  </g>
  <g transform="translate(47.5,75.58)" stroke="#000000">
    <g class="primitive">
      <text dy="0.35em">N14</text>
    </g>
  </g>
  <g transform="translate(45.38,78.09)" stroke="#000000">
    <g class="primitive">
      <text dy="0.35em">N13</text>
    </g>
  </g>
  <g transform="translate(46.43,80.6)" stroke="#000000">
    <g class="primitive">
      <text dy="0.35em">N12</text>
    </g>
  </g>
  <g transform="translate(47.32,83.11)" stroke="#000000">
    <g class="primitive">
      <text dy="0.35em">N11</text>
    </g>
  </g>
  <g transform="translate(51,85.62)" stroke="#000000">
    <g class="primitive">
      <text dy="0.35em">N10</text>
    </g>
  </g>
  <g transform="translate(52.92,88.13)" stroke="#000000">
    <g class="primitive">
      <text dy="0.35em">N9</text>
    </g>
  </g>
  <g transform="translate(54.52,90.64)" stroke="#000000">
    <g class="primitive">
      <text dy="0.35em">N8</text>
    </g>
  </g>
  <g transform="translate(58.2,93.15)" stroke="#000000">
    <g class="primitive">
      <text dy="0.35em">N7</text>
    </g>
  </g>
  <g transform="translate(64.2,95.66)" stroke="#000000">
    <g class="primitive">
      <text dy="0.35em">N6</text>
    </g>
  </g>
  <g transform="translate(68.85,98.17)" stroke="#000000">
    <g class="primitive">
      <text dy="0.35em">N5</text>
    </g>
  </g>
  <g transform="translate(73.82,100.68)" stroke="#000000">
    <g class="primitive">
      <text dy="0.35em">N4</text>
    </g>
  </g>
  <g transform="translate(72.96,103.19)" stroke="#000000">
    <g class="primitive">
      <text dy="0.35em">N3</text>
    </g>
  </g>
  <g transform="translate(75.01,105.71)" stroke="#000000">
    <g class="primitive">
      <text dy="0.35em">N2</text>
    </g>
  </g>
  <g transform="translate(78.08,108.22)" stroke="#000000">
    <g class="primitive">
      <text dy="0.35em">N0</text>
    </g>
  </g>
  <g transform="translate(80.62,110.73)" stroke="#000000">
    <g class="primitive">
      <text dy="0.35em">N1</text>
    </g>
  </g>
  <g transform="translate(74.54,109.47)" stroke="#000000">
    <g class="primitive">
      <text dy="0.35em">N43</text>
    </g>
  </g>
  <g transform="translate(73.54,107.59)" stroke="#000000">
    <g class="primitive">
      <text dy="0.35em">N44</text>
    </g>
  </g>
  <g transform="translate(72.9,105.39)" stroke="#000000">
    <g class="primitive">
      <text dy="0.35em">N45</text>
    </g>
  </g>
  <g transform="translate(71.97,103.04)" stroke="#000000">
    <g class="primitive">
      <text dy="0.35em">N46</text>
    </g>
  </g>
  <g transform="translate(67.63,100.61)" stroke="#000000">
    <g class="primitive">
      <text dy="0.35em">N47</text>
    </g>
  </g>
  <g transform="translate(60.4,98.13)" stroke="#000000">
    <g class="primitive">
      <text dy="0.35em">N48</text>
    </g>
  </g>
  <g transform="translate(55.34,95.64)" stroke="#000000">
    <g class="primitive">
      <text dy="0.35em">N49</text>
    </g>
  </g>
  <g transform="translate(53.31,93.14)" stroke="#000000">
    <g class="primitive">
      <text dy="0.35em">N50</text>
    </g>
  </g>
  <g stroke-opacity="1" fill-opacity="1" font-size="1.41" stroke-width="0.1" id="img-29b4c979-7">
    <g transform="translate(53.31,93.14)" stroke="#000000">
      <g class="primitive">
        <text dy="0.35em">N50</text>
      </g>
    </g>
    <g transform="translate(51.25,90.64)" stroke="#000000">
      <g class="primitive">
        <text dy="0.35em">N51</text>
      </g>
    </g>
    <g transform="translate(47.52,88.13)" stroke="#000000">
      <g class="primitive">
        <text dy="0.35em">N52</text>
      </g>
    </g>
    <g transform="translate(46.81,85.62)" stroke="#000000">
      <g class="primitive">
        <text dy="0.35em">N53</text>
      </g>
    </g>
    <g transform="translate(46.21,83.11)" stroke="#000000">
      <g class="primitive">
        <text dy="0.35em">N54</text>
      </g>
    </g>
    <g transform="translate(45.26,80.6)" stroke="#000000">
      <g class="primitive">
        <text dy="0.35em">N55</text>
      </g>
    </g>
    <g transform="translate(43.41,78.09)" stroke="#000000">
      <g class="primitive">
        <text dy="0.35em">N56</text>
      </g>
    </g>
    <g transform="translate(40.1,75.58)" stroke="#000000">
      <g class="primitive">
        <text dy="0.35em">N57</text>
      </g>
    </g>
    <g transform="translate(39.14,73.06)" stroke="#000000">
      <g class="primitive">
        <text dy="0.35em">N58</text>
      </g>
    </g>
    <g transform="translate(37.18,70.55)" stroke="#000000">
      <g class="primitive">
        <text dy="0.35em">N59</text>
      </g>
    </g>
    <g transform="translate(36.37,68.04)" stroke="#000000">
      <g class="primitive">
        <text dy="0.35em">N60</text>
      </g>
    </g>
    <g transform="translate(35.47,65.53)" stroke="#000000">
      <g class="primitive">
        <text dy="0.35em">N61</text>
      </g>
    </g>
    <g transform="translate(34.94,63.02)" stroke="#000000">
      <g class="primitive">
        <text dy="0.35em">N62</text>
      </g>
    </g>
    <g transform="translate(29.33,60.51)" stroke="#000000">
      <g class="primitive">
        <text dy="0.35em">N63</text>
      </g>
    </g>
    <g transform="translate(26.69,58)" stroke="#000000">
      <g class="primitive">
        <text dy="0.35em">N64</text>
      </g>
    </g>
    <g transform="translate(24.48,55.49)" stroke="#000000">
      <g class="primitive">
        <text dy="0.35em">N65</text>
      </g>
    </g>
    <g transform="translate(22.07,52.98)" stroke="#000000">
      <g class="primitive">
        <text dy="0.35em">N66</text>
      </g>
    </g>
    <g transform="translate(21.61,50.47)" stroke="#000000">
      <g class="primitive">
        <text dy="0.35em">N67</text>
      </g>
    </g>
    <g transform="translate(21.08,47.96)" stroke="#000000">
      <g class="primitive">
        <text dy="0.35em">N68</text>
      </g>
    </g>
    <g transform="translate(18.4,45.45)" stroke="#000000">
      <g class="primitive">
        <text dy="0.35em">N69</text>
      </g>
    </g>
    <g transform="translate(18.04,42.94)" stroke="#000000">
      <g class="primitive">
        <text dy="0.35em">N70</text>
      </g>
    </g>
    <g transform="translate(17.18,40.42)" stroke="#000000">
      <g class="primitive">
        <text dy="0.35em">N71</text>
      </g>
    </g>
    <g transform="translate(15.49,37.91)" stroke="#000000">
      <g class="primitive">
        <text dy="0.35em">N72</text>
      </g>
    </g>
    <g transform="translate(13.15,35.4)" stroke="#000000">
      <g class="primitive">
        <text dy="0.35em">N73</text>
      </g>
    </g>
    <g transform="translate(12.5,32.89)" stroke="#000000">
      <g class="primitive">
        <text dy="0.35em">N74</text>
      </g>
    </g>
    <g transform="translate(12,30.38)" stroke="#000000">
      <g class="primitive">
        <text dy="0.35em">N75</text>
      </g>
    </g>
    <g transform="translate(11.35,27.87)" stroke="#000000">
      <g class="primitive">
        <text dy="0.35em">N76</text>
      </g>
    </g>
    <g transform="translate(11.15,25.36)" stroke="#000000">
      <g class="primitive">
        <text dy="0.35em">N77</text>
      </g>
    </g>
    <g transform="translate(10.52,22.85)" stroke="#000000">
      <g class="primitive">
        <text dy="0.35em">N78</text>
      </g>
    </g>
    <g transform="translate(10.3,20.34)" stroke="#000000">
      <g class="primitive">
        <text dy="0.35em">N79</text>
      </g>
    </g>
    <g transform="translate(9.57,17.83)" stroke="#000000">
      <g class="primitive">
        <text dy="0.35em">N80</text>
      </g>
    </g>
    <g transform="translate(8.53,15.32)" stroke="#000000">
      <g class="primitive">
        <text dy="0.35em">N81</text>
      </g>
    </g>
    <g transform="translate(7.71,12.81)" stroke="#000000">
      <g class="primitive">
        <text dy="0.35em">N82</text>
      </g>
    </g>
    <g transform="translate(5.63,10.29)" stroke="#000000">
      <g class="primitive">
        <text dy="0.35em"></text>
      </g>
    </g>
    <g transform="translate(5.63,7.78)" stroke="#000000">
      <g class="primitive">
        <text dy="0.35em"></text>
      </g>
    </g>
  </g>
</g>
</svg>
