<?xml version="1.0" encoding="UTF-8"?>
<svg xmlns="http://www.w3.org/2000/svg"
     xmlns:xlink="http://www.w3.org/1999/xlink"
     version="1.2"
     width="150mm" height="88mm" viewBox="0 0 150 88"
     stroke="none"
     fill="#000000"
     stroke-width="0.3"
     font-size="3.88"
>
<defs>
  <marker id="arrow" markerWidth="15" markerHeight="7" refX="5" refY="3.5" orient="auto" markerUnits="strokeWidth">
    <path d="M0,0 L15,3.5 L0,7 z" stroke="context-stroke" fill="context-stroke"/>
  </marker>
</defs>
<g stroke-opacity="1" stroke-width="0.3" id="img-29b4c979-1">
  <g transform="translate(8.14,4)" stroke="#A99A07">
    <path fill="none" d="M-4.39,0 L4.39,0 " class="primitive"/>
  </g>
  <g transform="translate(42.08,6.86)" stroke="#A99A07">
    <path fill="none" d="M-1.11,0 L1.11,0 " class="primitive"/>
  </g>
  <g transform="translate(67.39,9.71)" stroke="#A99A07">
    <path fill="none" d="M-4.2,0 L4.2,0 " class="primitive"/>
  </g>
  <g transform="translate(68.79,12.57)" stroke="#A99A07">
    <path fill="none" d="M-5.6,0 L5.6,0 " class="primitive"/>
  </g>
  <g transform="translate(52.08,11.14)" stroke="#A99A07">
    <path fill="none" d="M-11.11,0 L11.11,0 " class="primitive"/>
  </g>
  <g transform="translate(63.19,11.14)" stroke="#A99A07">
    <path fill="none" d="M0,1.43 L0,-1.43 " class="primitive"/>
  </g>
  <g transform="translate(35.54,9)" stroke="#A99A07">
    <path fill="none" d="M-5.43,0 L5.43,0 " class="primitive"/>
  </g>
  <g transform="translate(40.97,9)" stroke="#A99A07">
    <path fill="none" d="M0,2.14 L0,-2.14 " class="primitive"/>
  </g>
  <g transform="translate(43.92,15.43)" stroke="#3A5B75">
    <path fill="none" d="M-2.23,0 L2.23,0 " class="primitive"/>
  </g>
  <g transform="translate(44.06,18.29)" stroke="#3A5B75">
    <path fill="none" d="M-2.37,0 L2.37,0 " class="primitive"/>
  </g>
  <g transform="translate(41.42,16.86)" stroke="#A99A07">
    <path fill="none" d="M-0.27,0 L0.27,0 " class="primitive"/>
  </g>
  <g transform="translate(41.69,16.86)" stroke="#A99A07">
    <path fill="none" d="M0,1.43 L0,-1.43 " class="primitive"/>
  </g>
  <g transform="translate(46.36,21.14)" stroke="#A99A07">
    <path fill="none" d="M-2.24,0 L2.24,0 " class="primitive"/>
  </g>
  <g transform="translate(46.82,24)" stroke="#3A5B75">
    <path fill="none" d="M-2.7,0 L2.7,0 " class="primitive"/>
  </g>
  <g transform="translate(42.63,22.57)" stroke="#A99A07">
    <path fill="none" d="M-1.49,0 L1.49,0 " class="primitive"/>
  </g>
  <g transform="translate(44.12,22.57)" stroke="#A99A07">
    <path fill="none" d="M0,1.43 L0,-1.43 " class="primitive"/>
  </g>
  <g transform="translate(35.63,19.71)" stroke="#3A5B75">
    <path fill="none" d="M-5.51,0 L5.51,0 " class="primitive"/>
  </g>
  <g transform="translate(41.14,19.71)" stroke="#3A5B75">
    <path fill="none" d="M0,2.86 L0,-2.86 " class="primitive"/>
  </g>
  <g transform="translate(16.93,14.36)" stroke="#A99A07">
    <path fill="none" d="M-13.18,0 L13.18,0 " class="primitive"/>
  </g>
  <g transform="translate(30.11,14.36)" stroke="#A99A07">
    <path fill="none" d="M0,5.36 L0,-5.36 " class="primitive"/>
  </g>
  <g transform="translate(3.75,9.18)" stroke="#000000">
    <path fill="none" d="M0,0 L0,0 " class="primitive"/>
  </g>
  <g transform="translate(3.75,9.18)" stroke="#000000">
    <path fill="none" d="M0,5.18 L0,-5.18 " class="primitive"/>
  </g>
  <g transform="translate(16.54,26.86)" stroke="#3A5B75">
    <path fill="none" d="M-3.75,0 L3.75,0 " class="primitive"/>
  </g>
  <g transform="translate(44.83,29.71)" stroke="#A99A07">
    <path fill="none" d="M-0.38,0 L0.38,0 " class="primitive"/>
  </g>
  <g transform="translate(45.27,32.57)" stroke="#A99A07">
    <path fill="none" d="M-0.82,0 L0.82,0 " class="primitive"/>
  </g>
  <g transform="translate(28.62,31.14)" stroke="#3A5B75">
    <path fill="none" d="M-15.83,0 L15.83,0 " class="primitive"/>
  </g>
  <g transform="translate(44.45,31.14)" stroke="#3A5B75">
    <path fill="none" d="M0,1.43 L0,-1.43 " class="primitive"/>
  </g>
  <g transform="translate(11.5,29)" stroke="#A99A07">
    <path fill="none" d="M-1.29,0 L1.29,0 " class="primitive"/>
  </g>
  <g transform="translate(12.79,29)" stroke="#A99A07">
    <path fill="none" d="M0,2.14 L0,-2.14 " class="primitive"/>
  </g>
  <g transform="translate(20.74,35.43)" stroke="#A99A07">
    <path fill="none" d="M-1.06,0 L1.06,0 " class="primitive"/>
  </g>
  <g transform="translate(33.55,38.29)" stroke="#A99A07">
    <path fill="none" d="M-0.24,0 L0.24,0 " class="primitive"/>
  </g>
  <g transform="translate(33.4,41.14)" stroke="#A99A07">
    <path fill="none" d="M-0.09,0 L0.09,0 " class="primitive"/>
  </g>
  <g transform="translate(26.49,39.71)" stroke="#3A5B75">
    <path fill="none" d="M-6.81,0 L6.81,0 " class="primitive"/>
  </g>
  <g transform="translate(33.31,39.71)" stroke="#3A5B75">
    <path fill="none" d="M0,1.43 L0,-1.43 " class="primitive"/>
  </g>
  <g transform="translate(16.36,37.57)" stroke="#A99A07">
    <path fill="none" d="M-3.32,0 L3.32,0 " class="primitive"/>
  </g>
  <g transform="translate(19.68,37.57)" stroke="#A99A07">
    <path fill="none" d="M0,2.14 L0,-2.14 " class="primitive"/>
  </g>
  <g transform="translate(18.51,44)" stroke="#A99A07">
    <path fill="none" d="M-1.24,0 L1.24,0 " class="primitive"/>
  </g>
  <g transform="translate(30.91,46.86)" stroke="#3A5B75">
    <path fill="none" d="M-1.61,0 L1.61,0 " class="primitive"/>
  </g>
  <g transform="translate(33.14,49.71)" stroke="#3A5B75">
    <path fill="none" d="M-0.44,0 L0.44,0 " class="primitive"/>
  </g>
  <g transform="translate(40.62,52.57)" stroke="#3A5B75">
    <path fill="none" d="M-4.06,0 L4.06,0 " class="primitive"/>
  </g>
  <g transform="translate(40.08,55.43)" stroke="#A99A07">
    <path fill="none" d="M-3.51,0 L3.51,0 " class="primitive"/>
  </g>
  <g transform="translate(34.63,54)" stroke="#3A5B75">
    <path fill="none" d="M-1.93,0 L1.93,0 " class="primitive"/>
  </g>
  <g transform="translate(36.56,54)" stroke="#3A5B75">
    <path fill="none" d="M0,1.43 L0,-1.43 " class="primitive"/>
  </g>
  <g transform="translate(31,51.86)" stroke="#3A5B75">
    <path fill="none" d="M-1.7,0 L1.7,0 " class="primitive"/>
  </g>
  <g transform="translate(32.7,51.86)" stroke="#3A5B75">
    <path fill="none" d="M0,2.14 L0,-2.14 " class="primitive"/>
  </g>
  <g transform="translate(23.29,49.36)" stroke="#A99A07">
    <path fill="none" d="M-6.01,0 L6.01,0 " class="primitive"/>
  </g>
  <g transform="translate(29.3,49.36)" stroke="#A99A07">
    <path fill="none" d="M0,2.5 L0,-2.5 " class="primitive"/>
  </g>
  <g transform="translate(15.79,46.68)" stroke="#A99A07">
    <path fill="none" d="M-1.48,0 L1.48,0 " class="primitive"/>
  </g>
  <g transform="translate(17.28,46.68)" stroke="#A99A07">
    <path fill="none" d="M0,2.68 L0,-2.68 " class="primitive"/>
  </g>
  <g transform="translate(30.42,58.29)" stroke="#A99A07">
    <path fill="none" d="M-2.9,0 L2.9,0 " class="primitive"/>
  </g>
  <g transform="translate(63.66,61.14)" stroke="#A99A07">
    <path fill="none" d="M-1.13,0 L1.13,0 " class="primitive"/>
  </g>
  <g stroke-opacity="1" stroke-width="0.3" id="img-29b4c979-2">
    <g transform="translate(63.66,61.14)" stroke="#A99A07">
      <path fill="none" d="M-1.13,0 L1.13,0 " class="primitive"/>
    </g>
    <g transform="translate(75.35,64)" stroke="#3A5B75">
      <path fill="none" d="M-0.21,0 L0.21,0 " class="primitive"/>
    </g>
    <g transform="translate(76.94,66.86)" stroke="#A99A07">
      <path fill="none" d="M-1.81,0 L1.81,0 " class="primitive"/>
    </g>
    <g transform="translate(68.83,65.43)" stroke="#A99A07">
      <path fill="none" d="M-6.3,0 L6.3,0 " class="primitive"/>
    </g>
    <g transform="translate(75.14,65.43)" stroke="#A99A07">
      <path fill="none" d="M0,1.43 L0,-1.43 " class="primitive"/>
    </g>
    <g transform="translate(51.21,63.29)" stroke="#A99A07">
      <path fill="none" d="M-11.32,0 L11.32,0 " class="primitive"/>
    </g>
    <g transform="translate(62.53,63.29)" stroke="#A99A07">
      <path fill="none" d="M0,2.14 L0,-2.14 " class="primitive"/>
    </g>
    <g transform="translate(51.96,69.71)" stroke="#A99A07">
      <path fill="none" d="M-0.86,0 L0.86,0 " class="primitive"/>
    </g>
    <g transform="translate(53.7,72.57)" stroke="#A99A07">
      <path fill="none" d="M-2.6,0 L2.6,0 " class="primitive"/>
    </g>
    <g transform="translate(49.35,71.14)" stroke="#A99A07">
      <path fill="none" d="M-1.75,0 L1.75,0 " class="primitive"/>
    </g>
    <g transform="translate(51.11,71.14)" stroke="#A99A07">
      <path fill="none" d="M0,1.43 L0,-1.43 " class="primitive"/>
    </g>
    <g transform="translate(62.26,75.43)" stroke="#3A5B75">
      <path fill="none" d="M-5.59,0 L5.59,0 " class="primitive"/>
    </g>
    <g transform="translate(64.9,78.29)" stroke="#A99A07">
      <path fill="none" d="M-8.22,0 L8.22,0 " class="primitive"/>
    </g>
    <g transform="translate(53.57,76.86)" stroke="#3A5B75">
      <path fill="none" d="M-3.11,0 L3.11,0 " class="primitive"/>
    </g>
    <g transform="translate(56.68,76.86)" stroke="#3A5B75">
      <path fill="none" d="M0,1.43 L0,-1.43 " class="primitive"/>
    </g>
    <g transform="translate(53.93,81.14)" stroke="#A99A07">
      <path fill="none" d="M-0.74,0 L0.74,0 " class="primitive"/>
    </g>
    <g transform="translate(53.61,84)" stroke="#A99A07">
      <path fill="none" d="M-0.43,0 L0.43,0 " class="primitive"/>
    </g>
    <g transform="translate(51.82,82.57)" stroke="#3A5B75">
      <path fill="none" d="M-1.36,0 L1.36,0 " class="primitive"/>
    </g>
    <g transform="translate(53.19,82.57)" stroke="#3A5B75">
      <path fill="none" d="M0,1.43 L0,-1.43 " class="primitive"/>
    </g>
    <g transform="translate(49.03,79.71)" stroke="#A99A07">
      <path fill="none" d="M-1.43,0 L1.43,0 " class="primitive"/>
    </g>
    <g transform="translate(50.46,79.71)" stroke="#A99A07">
      <path fill="none" d="M0,2.86 L0,-2.86 " class="primitive"/>
    </g>
    <g transform="translate(43.75,75.43)" stroke="#A99A07">
      <path fill="none" d="M-3.85,0 L3.85,0 " class="primitive"/>
    </g>
    <g transform="translate(47.6,75.43)" stroke="#A99A07">
      <path fill="none" d="M0,4.29 L0,-4.29 " class="primitive"/>
    </g>
    <g transform="translate(33.71,69.36)" stroke="#A99A07">
      <path fill="none" d="M-6.19,0 L6.19,0 " class="primitive"/>
    </g>
    <g transform="translate(39.9,69.36)" stroke="#A99A07">
      <path fill="none" d="M0,6.07 L0,-6.07 " class="primitive"/>
    </g>
    <g transform="translate(20.91,63.82)" stroke="#3A5B75">
      <path fill="none" d="M-6.61,0 L6.61,0 " class="primitive"/>
    </g>
    <g transform="translate(27.52,63.82)" stroke="#3A5B75">
      <path fill="none" d="M0,5.54 L0,-5.54 " class="primitive"/>
    </g>
    <g transform="translate(13.67,55.25)" stroke="#A99A07">
      <path fill="none" d="M-0.63,0 L0.63,0 " class="primitive"/>
    </g>
    <g transform="translate(14.31,55.25)" stroke="#A99A07">
      <path fill="none" d="M0,8.57 L0,-8.57 " class="primitive"/>
    </g>
    <g transform="translate(11.63,46.41)" stroke="#A99A07">
      <path fill="none" d="M-1.41,0 L1.41,0 " class="primitive"/>
    </g>
    <g transform="translate(13.04,46.41)" stroke="#A99A07">
      <path fill="none" d="M0,8.84 L0,-8.84 " class="primitive"/>
    </g>
    <g transform="translate(6.98,37.71)" stroke="#A99A07">
      <path fill="none" d="M-3.23,0 L3.23,0 " class="primitive"/>
    </g>
    <g transform="translate(10.22,37.71)" stroke="#A99A07">
      <path fill="none" d="M0,8.71 L0,-8.71 " class="primitive"/>
    </g>
    <g transform="translate(3.75,23.44)" stroke="#000000">
      <path fill="none" d="M0,0 L0,0 " class="primitive"/>
    </g>
    <g transform="translate(3.75,23.44)" stroke="#000000">
      <path fill="none" d="M0,14.26 L0,-14.26 " class="primitive"/>
    </g>
  </g>
</g>
<g fill-opacity="1" id="img-29b4c979-3">
  <g transform="translate(12.53,4)" fill="#A99A07">
    <circle cx="0" cy="0" r="0.75" class="primitive"/>
  </g>
  <g transform="translate(43.18,6.86)" fill="#A99A07">
    <circle cx="0" cy="0" r="0.75" class="primitive"/>
  </g>
  <g transform="translate(71.59,9.71)" fill="#A99A07">
    <circle cx="0" cy="0" r="0.75" class="primitive"/>
  </g>
  <g transform="translate(74.39,12.57)" fill="#A99A07">
    <circle cx="0" cy="0" r="0.75" class="primitive"/>
  </g>
  <g transform="translate(63.19,11.14)" fill="#A99A07">
    <circle cx="0" cy="0" r="0.75" class="primitive"/>
  </g>
  <g transform="translate(40.97,9)" fill="#A99A07">
    <circle cx="0" cy="0" r="0.75" class="primitive"/>
  </g>
  <g transform="translate(46.15,15.43)" fill="#3A5B75">
    <circle cx="0" cy="0" r="0.75" class="primitive"/>
  </g>
  <g transform="translate(46.43,18.29)" fill="#3A5B75">
    <circle cx="0" cy="0" r="0.75" class="primitive"/>
  </g>
  <g transform="translate(41.69,16.86)" fill="#A99A07">
    <circle cx="0" cy="0" r="0.75" class="primitive"/>
  </g>
  <g transform="translate(48.6,21.14)" fill="#A99A07">
    <circle cx="0" cy="0" r="0.75" class="primitive"/>
  </g>
  <g transform="translate(49.52,24)" fill="#3A5B75">
    <circle cx="0" cy="0" r="0.75" class="primitive"/>
  </g>
  <g transform="translate(44.12,22.57)" fill="#A99A07">
    <circle cx="0" cy="0" r="0.75" class="primitive"/>
  </g>
  <g transform="translate(41.14,19.71)" fill="#3A5B75">
    <circle cx="0" cy="0" r="0.75" class="primitive"/>
  </g>
  <g transform="translate(30.11,14.36)" fill="#A99A07">
    <circle cx="0" cy="0" r="0.75" class="primitive"/>
  </g>
  <g transform="translate(3.75,9.18)" fill="#000000">
    <circle cx="0" cy="0" r="0.75" class="primitive"/>
  </g>
  <g transform="translate(20.28,26.86)" fill="#3A5B75">
    <circle cx="0" cy="0" r="0.75" class="primitive"/>
  </g>
  <g transform="translate(45.21,29.71)" fill="#A99A07">
    <circle cx="0" cy="0" r="0.75" class="primitive"/>
  </g>
  <g transform="translate(46.08,32.57)" fill="#A99A07">
    <circle cx="0" cy="0" r="0.75" class="primitive"/>
  </g>
  <g transform="translate(44.45,31.14)" fill="#3A5B75">
    <circle cx="0" cy="0" r="0.75" class="primitive"/>
  </g>
  <g transform="translate(12.79,29)" fill="#A99A07">
    <circle cx="0" cy="0" r="0.75" class="primitive"/>
  </g>
  <g transform="translate(21.8,35.43)" fill="#A99A07">
    <circle cx="0" cy="0" r="0.75" class="primitive"/>
  </g>
  <g transform="translate(33.79,38.29)" fill="#A99A07">
    <circle cx="0" cy="0" r="0.75" class="primitive"/>
  </g>
  <g transform="translate(33.49,41.14)" fill="#A99A07">
    <circle cx="0" cy="0" r="0.75" class="primitive"/>
  </g>
  <g transform="translate(33.31,39.71)" fill="#3A5B75">
    <circle cx="0" cy="0" r="0.75" class="primitive"/>
  </g>
  <g transform="translate(19.68,37.57)" fill="#A99A07">
    <circle cx="0" cy="0" r="0.75" class="primitive"/>
  </g>
  <g transform="translate(19.75,44)" fill="#A99A07">
    <circle cx="0" cy="0" r="0.75" class="primitive"/>
  </g>
  <g transform="translate(32.52,46.86)" fill="#3A5B75">
    <circle cx="0" cy="0" r="0.75" class="primitive"/>
  </g>
  <g transform="translate(33.57,49.71)" fill="#3A5B75">
    <circle cx="0" cy="0" r="0.75" class="primitive"/>
  </g>
  <g transform="translate(44.68,52.57)" fill="#3A5B75">
    <circle cx="0" cy="0" r="0.75" class="primitive"/>
  </g>
  <g transform="translate(43.59,55.43)" fill="#A99A07">
    <circle cx="0" cy="0" r="0.75" class="primitive"/>
  </g>
  <g transform="translate(36.56,54)" fill="#3A5B75">
    <circle cx="0" cy="0" r="0.75" class="primitive"/>
  </g>
  <g transform="translate(32.7,51.86)" fill="#3A5B75">
    <circle cx="0" cy="0" r="0.75" class="primitive"/>
  </g>
  <g transform="translate(29.3,49.36)" fill="#A99A07">
    <circle cx="0" cy="0" r="0.75" class="primitive"/>
  </g>
  <g transform="translate(17.28,46.68)" fill="#A99A07">
    <circle cx="0" cy="0" r="0.75" class="primitive"/>
  </g>
  <g transform="translate(33.32,58.29)" fill="#A99A07">
    <circle cx="0" cy="0" r="0.75" class="primitive"/>
  </g>
  <g transform="translate(64.79,61.14)" fill="#A99A07">
    <circle cx="0" cy="0" r="0.75" class="primitive"/>
  </g>
  <g transform="translate(75.56,64)" fill="#3A5B75">
    <circle cx="0" cy="0" r="0.75" class="primitive"/>
  </g>
  <g transform="translate(78.75,66.86)" fill="#A99A07">
    <circle cx="0" cy="0" r="0.75" class="primitive"/>
  </g>
  <g transform="translate(75.14,65.43)" fill="#A99A07">
    <circle cx="0" cy="0" r="0.75" class="primitive"/>
  </g>
  <g transform="translate(62.53,63.29)" fill="#A99A07">
    <circle cx="0" cy="0" r="0.75" class="primitive"/>
  </g>
  <g transform="translate(52.82,69.71)" fill="#A99A07">
    <circle cx="0" cy="0" r="0.75" class="primitive"/>
  </g>
  <g transform="translate(56.3,72.57)" fill="#A99A07">
    <circle cx="0" cy="0" r="0.75" class="primitive"/>
  </g>
  <g transform="translate(51.11,71.14)" fill="#A99A07">
    <circle cx="0" cy="0" r="0.75" class="primitive"/>
  </g>
  <g transform="translate(67.85,75.43)" fill="#3A5B75">
    <circle cx="0" cy="0" r="0.75" class="primitive"/>
  </g>
  <g transform="translate(73.12,78.29)" fill="#A99A07">
    <circle cx="0" cy="0" r="0.75" class="primitive"/>
  </g>
  <g transform="translate(56.68,76.86)" fill="#3A5B75">
    <circle cx="0" cy="0" r="0.75" class="primitive"/>
  </g>
  <g transform="translate(54.67,81.14)" fill="#A99A07">
    <circle cx="0" cy="0" r="0.75" class="primitive"/>
  </g>
  <g transform="translate(54.04,84)" fill="#A99A07">
    <circle cx="0" cy="0" r="0.75" class="primitive"/>
  </g>
  <g transform="translate(53.19,82.57)" fill="#3A5B75">
    <circle cx="0" cy="0" r="0.75" class="primitive"/>
  </g>
  <g transform="translate(50.46,79.71)" fill="#A99A07">
    <circle cx="0" cy="0" r="0.75" class="primitive"/>
  </g>
  <g transform="translate(47.6,75.43)" fill="#A99A07">
    <circle cx="0" cy="0" r="0.75" class="primitive"/>
  </g>
  <g fill-opacity="1" id="img-29b4c979-4">
    <g transform="translate(47.6,75.43)" fill="#A99A07">
      <circle cx="0" cy="0" r="0.75" class="primitive"/>
    </g>
    <g transform="translate(39.9,69.36)" fill="#A99A07">
      <circle cx="0" cy="0" r="0.75" class="primitive"/>
    </g>
    <g transform="translate(27.52,63.82)" fill="#3A5B75">
      <circle cx="0" cy="0" r="0.75" class="primitive"/>
    </g>
    <g transform="translate(14.31,55.25)" fill="#A99A07">
      <circle cx="0" cy="0" r="0.75" class="primitive"/>
    </g>
    <g transform="translate(13.04,46.41)" fill="#A99A07">
      <circle cx="0" cy="0" r="0.75" class="primitive"/>
    </g>
    <g transform="translate(10.22,37.71)" fill="#A99A07">
      <circle cx="0" cy="0" r="0.75" class="primitive"/>
    </g>
    <g transform="translate(3.75,23.44)" fill="#000000">
      <circle cx="0" cy="0" r="0.75" class="primitive"/>
    </g>
  </g>
</g>
<g stroke-opacity="1" fill-opacity="1" font-size="1.41" stroke-width="0.1" id="img-29b4c979-5">
  <g transform="translate(14.41,4)" stroke="#000000">
    <g class="primitive">
      <text dy="0.35em">N10</text>
    </g>
  </g>
  <g transform="translate(45.06,6.86)" stroke="#000000">
    <g class="primitive">
      <text dy="0.35em">N17</text>
    </g>
  </g>
  <g transform="translate(73.47,9.71)" stroke="#000000">
    <g class="primitive">
      <text dy="0.35em">N21</text>
    </g>
  </g>
  <g transform="translate(76.27,12.57)" stroke="#000000">
    <g class="primitive">
      <text dy="0.35em">N27</text>
    </g>
  </g>
  <g transform="translate(65.07,11.14)" stroke="#000000">
    <g class="primitive">
      <text dy="0.35em">N38</text>
    </g>
  </g>
  <g transform="translate(42.85,9)" stroke="#000000">
    <g class="primitive">
      <text dy="0.35em">N43</text>
    </g>
  </g>
  <g transform="translate(48.03,15.43)" stroke="#000000">
    <g class="primitive">
      <text dy="0.35em">N23</text>
    </g>
  </g>
  <g transform="translate(48.3,18.29)" stroke="#000000">
    <g class="primitive">
      <text dy="0.35em">N2</text>
    </g>
  </g>
  <g transform="translate(43.57,16.86)" stroke="#000000">
    <g class="primitive">
      <text dy="0.35em">N33</text>
    </g>
  </g>
  <g transform="translate(50.48,21.14)" stroke="#000000">
    <g class="primitive">
      <text dy="0.35em">N24</text>
    </g>
  </g>
  <g transform="translate(51.39,24)" stroke="#000000">
    <g class="primitive">
      <text dy="0.35em">N4</text>
    </g>
  </g>
  <g transform="translate(46,22.57)" stroke="#000000">
    <g class="primitive">
      <text dy="0.35em">N39</text>
    </g>
  </g>
  <g transform="translate(43.02,19.71)" stroke="#000000">
    <g class="primitive">
      <text dy="0.35em">N47</text>
    </g>
  </g>
  <g transform="translate(31.99,14.36)" stroke="#000000">
    <g class="primitive">
      <text dy="0.35em">N51</text>
    </g>
  </g>
  <g transform="translate(5.63,9.18)" stroke="#000000">
    <g class="primitive">
      <text dy="0.35em"></text>
    </g>
  </g>
  <g transform="translate(22.16,26.86)" stroke="#000000">
    <g class="primitive">
      <text dy="0.35em">N5</text>
    </g>
  </g>
  <g transform="translate(47.08,29.71)" stroke="#000000">
    <g class="primitive">
      <text dy="0.35em">N8</text>
    </g>
  </g>
  <g transform="translate(47.96,32.57)" stroke="#000000">
    <g class="primitive">
      <text dy="0.35em">N6</text>
    </g>
  </g>
  <g transform="translate(46.32,31.14)" stroke="#000000">
    <g class="primitive">
      <text dy="0.35em">N36</text>
    </g>
  </g>
  <g transform="translate(14.66,29)" stroke="#000000">
    <g class="primitive">
      <text dy="0.35em">N48</text>
    </g>
  </g>
  <g transform="translate(23.67,35.43)" stroke="#000000">
    <g class="primitive">
      <text dy="0.35em">N12</text>
    </g>
  </g>
  <g transform="translate(35.67,38.29)" stroke="#000000">
    <g class="primitive">
      <text dy="0.35em">N0</text>
    </g>
  </g>
  <g transform="translate(35.37,41.14)" stroke="#000000">
    <g class="primitive">
      <text dy="0.35em">N13</text>
    </g>
  </g>
  <g transform="translate(35.18,39.71)" stroke="#000000">
    <g class="primitive">
      <text dy="0.35em">N35</text>
    </g>
  </g>
  <g transform="translate(21.55,37.57)" stroke="#000000">
    <g class="primitive">
      <text dy="0.35em">N37</text>
    </g>
  </g>
  <g transform="translate(21.62,44)" stroke="#000000">
    <g class="primitive">
      <text dy="0.35em">N28</text>
    </g>
  </g>
  <g transform="translate(34.4,46.86)" stroke="#000000">
    <g class="primitive">
      <text dy="0.35em">N16</text>
    </g>
  </g>
  <g transform="translate(35.45,49.71)" stroke="#000000">
    <g class="primitive">
      <text dy="0.35em">N18</text>
    </g>
  </g>
  <g transform="translate(46.55,52.57)" stroke="#000000">
    <g class="primitive">
      <text dy="0.35em">N14</text>
    </g>
  </g>
  <g transform="translate(45.47,55.43)" stroke="#000000">
    <g class="primitive">
      <text dy="0.35em">N25</text>
    </g>
  </g>
  <g transform="translate(38.44,54)" stroke="#000000">
    <g class="primitive">
      <text dy="0.35em">N30</text>
    </g>
  </g>
  <g transform="translate(34.58,51.86)" stroke="#000000">
    <g class="primitive">
      <text dy="0.35em">N32</text>
    </g>
  </g>
  <g transform="translate(31.18,49.36)" stroke="#000000">
    <g class="primitive">
      <text dy="0.35em">N49</text>
    </g>
  </g>
  <g transform="translate(19.15,46.68)" stroke="#000000">
    <g class="primitive">
      <text dy="0.35em">N50</text>
    </g>
  </g>
  <g transform="translate(35.2,58.29)" stroke="#000000">
    <g class="primitive">
      <text dy="0.35em">N11</text>
    </g>
  </g>
  <g transform="translate(66.66,61.14)" stroke="#000000">
    <g class="primitive">
      <text dy="0.35em">N3</text>
    </g>
  </g>
  <g transform="translate(77.43,64)" stroke="#000000">
    <g class="primitive">
      <text dy="0.35em">N9</text>
    </g>
  </g>
  <g transform="translate(80.62,66.86)" stroke="#000000">
    <g class="primitive">
      <text dy="0.35em">N19</text>
    </g>
  </g>
  <g transform="translate(77.01,65.43)" stroke="#000000">
    <g class="primitive">
      <text dy="0.35em">N29</text>
    </g>
  </g>
  <g transform="translate(64.41,63.29)" stroke="#000000">
    <g class="primitive">
      <text dy="0.35em">N42</text>
    </g>
  </g>
  <g transform="translate(54.69,69.71)" stroke="#000000">
    <g class="primitive">
      <text dy="0.35em">N15</text>
    </g>
  </g>
  <g transform="translate(58.18,72.57)" stroke="#000000">
    <g class="primitive">
      <text dy="0.35em">N1</text>
    </g>
  </g>
  <g transform="translate(52.98,71.14)" stroke="#000000">
    <g class="primitive">
      <text dy="0.35em">N40</text>
    </g>
  </g>
  <g transform="translate(69.72,75.43)" stroke="#000000">
    <g class="primitive">
      <text dy="0.35em">N22</text>
    </g>
  </g>
  <g transform="translate(75,78.29)" stroke="#000000">
    <g class="primitive">
      <text dy="0.35em">N7</text>
    </g>
  </g>
  <g transform="translate(58.55,76.86)" stroke="#000000">
    <g class="primitive">
      <text dy="0.35em">N34</text>
    </g>
  </g>
  <g transform="translate(56.54,81.14)" stroke="#000000">
    <g class="primitive">
      <text dy="0.35em">N20</text>
    </g>
  </g>
  <g transform="translate(55.92,84)" stroke="#000000">
    <g class="primitive">
      <text dy="0.35em">N26</text>
    </g>
  </g>
  <g transform="translate(55.06,82.57)" stroke="#000000">
    <g class="primitive">
      <text dy="0.35em">N31</text>
    </g>
  </g>
  <g transform="translate(52.33,79.71)" stroke="#000000">
    <g class="primitive">
      <text dy="0.35em">N41</text>
    </g>
  </g>
  <g transform="translate(49.48,75.43)" stroke="#000000">
    <g class="primitive">
      <text dy="0.35em">N44</text>
    </g>
  </g>
  <g stroke-opacity="1" fill-opacity="1" font-size="1.41" stroke-width="0.1" id="img-29b4c979-6">
    <g transform="translate(49.48,75.43)" stroke="#000000">
      <g class="primitive">
        <text dy="0.35em">N44</text>
      </g>
    </g>
    <g transform="translate(41.77,69.36)" stroke="#000000">
      <g class="primitive">
        <text dy="0.35em">N45</text>
      </g>
    </g>
    <g transform="translate(29.39,63.82)" stroke="#000000">
      <g class="primitive">
        <text dy="0.35em">N46</text>
      </g>
    </g>
    <g transform="translate(16.18,55.25)" stroke="#000000">
      <g class="primitive">
        <text dy="0.35em">N52</text>
      </g>
    </g>
    <g transform="translate(14.91,46.41)" stroke="#000000">
      <g class="primitive">
        <text dy="0.35em">N53</text>
      </g>
    </g>
    <g transform="translate(12.09,37.71)" stroke="#000000">
      <g class="primitive">
        <text dy="0.35em">N54</text>
      </g>
    </g>
    <g transform="translate(5.63,23.44)" stroke="#000000">
      <g class="primitive">
        <text dy="0.35em"></text>
      </g>
    </g>
  </g>
</g>
</svg>
