<?xml version="1.0" encoding="UTF-8"?>
<svg xmlns="http://www.w3.org/2000/svg"
     xmlns:xlink="http://www.w3.org/1999/xlink"
     version="1.2"
     width="150mm" height="46mm" viewBox="0 0 150 46"
     stroke="none"
     fill="#000000"
     stroke-width="0.3"
     font-size="3.88"
>
<defs>
  <marker id="arrow" markerWidth="15" markerHeight="7" refX="5" refY="3.5" orient="auto" markerUnits="strokeWidth">
    <path d="M0,0 L15,3.5 L0,7 z" stroke="context-stroke" fill="context-stroke"/>
  </marker>
</defs>
<g stroke-opacity="1" stroke-width="0.3" id="img-29b4c979-1">
  <g transform="translate(4.59,2.09)" stroke="#89BBDF">
    <path fill="none" d="M-0.84,0 L0.84,0 " class="primitive"/>
  </g>
  <g transform="translate(8.29,8.06)" stroke="#3B2ABA">
    <path fill="none" d="M-4.54,0 L4.54,0 " class="primitive"/>
  </g>
  <g transform="translate(12.53,14.04)" stroke="#3B2ABA">
    <path fill="none" d="M-1.37,0 L1.37,0 " class="primitive"/>
  </g>
  <g transform="translate(17.57,20.01)" stroke="#3B2ABA">
    <path fill="none" d="M-4.89,0 L4.89,0 " class="primitive"/>
  </g>
  <g transform="translate(51.59,25.99)" stroke="#89BBDF">
    <path fill="none" d="M-9.5,0 L9.5,0 " class="primitive"/>
  </g>
  <g transform="translate(64.49,31.96)" stroke="#3B2ABA">
    <path fill="none" d="M-14.26,0 L14.26,0 " class="primitive"/>
  </g>
  <g transform="translate(68.92,37.94)" stroke="#89BBDF">
    <path fill="none" d="M-5.29,0 L5.29,0 " class="primitive"/>
  </g>
  <g transform="translate(63.7,43.91)" stroke="#3B2ABA">
    <path fill="none" d="M-0.06,0 L0.06,0 " class="primitive"/>
  </g>
  <g transform="translate(56.94,40.92)" stroke="#3B2ABA">
    <path fill="none" d="M-6.7,0 L6.7,0 " class="primitive"/>
  </g>
  <g transform="translate(63.64,40.92)" stroke="#3B2ABA">
    <path fill="none" d="M0,2.99 L0,-2.99 " class="primitive"/>
  </g>
  <g transform="translate(46.16,36.44)" stroke="#89BBDF">
    <path fill="none" d="M-4.07,0 L4.07,0 " class="primitive"/>
  </g>
  <g transform="translate(50.24,36.44)" stroke="#89BBDF">
    <path fill="none" d="M0,4.48 L0,-4.48 " class="primitive"/>
  </g>
  <g transform="translate(27.38,31.21)" stroke="#3B2ABA">
    <path fill="none" d="M-14.71,0 L14.71,0 " class="primitive"/>
  </g>
  <g transform="translate(42.09,31.21)" stroke="#3B2ABA">
    <path fill="none" d="M0,5.23 L0,-5.23 " class="primitive"/>
  </g>
  <g transform="translate(11.91,25.61)" stroke="#3B2ABA">
    <path fill="none" d="M-0.76,0 L0.76,0 " class="primitive"/>
  </g>
  <g transform="translate(12.68,25.61)" stroke="#3B2ABA">
    <path fill="none" d="M0,5.6 L0,-5.6 " class="primitive"/>
  </g>
  <g transform="translate(7.45,19.83)" stroke="#3B2ABA">
    <path fill="none" d="M-3.7,0 L3.7,0 " class="primitive"/>
  </g>
  <g transform="translate(11.15,19.83)" stroke="#3B2ABA">
    <path fill="none" d="M0,5.79 L0,-5.79 " class="primitive"/>
  </g>
  <g transform="translate(3.75,13.95)" stroke="#000000">
    <path fill="none" d="M0,0 L0,0 " class="primitive"/>
  </g>
  <g transform="translate(3.75,13.95)" stroke="#000000">
    <path fill="none" d="M0,5.88 L0,-5.88 " class="primitive"/>
  </g>
  <g transform="translate(3.75,8.02)" stroke="#000000">
    <path fill="none" d="M0,0 L0,0 " class="primitive"/>
  </g>
  <g transform="translate(3.75,8.02)" stroke="#000000">
    <path fill="none" d="M0,5.93 L0,-5.93 " class="primitive"/>
  </g>
</g>
<g fill-opacity="1" id="img-29b4c979-2">
  <g transform="translate(5.43,2.09)" fill="#89BBDF">
    <circle cx="0" cy="0" r="0.75" class="primitive"/>
  </g>
  <g transform="translate(12.84,8.06)" fill="#3B2ABA">
    <circle cx="0" cy="0" r="0.75" class="primitive"/>
  </g>
  <g transform="translate(13.9,14.04)" fill="#3B2ABA">
    <circle cx="0" cy="0" r="0.75" class="primitive"/>
  </g>
  <g transform="translate(22.46,20.01)" fill="#3B2ABA">
    <circle cx="0" cy="0" r="0.75" class="primitive"/>
  </g>
  <g transform="translate(61.09,25.99)" fill="#89BBDF">
    <circle cx="0" cy="0" r="0.75" class="primitive"/>
  </g>
  <g transform="translate(78.75,31.96)" fill="#3B2ABA">
    <circle cx="0" cy="0" r="0.75" class="primitive"/>
  </g>
  <g transform="translate(74.21,37.94)" fill="#89BBDF">
    <circle cx="0" cy="0" r="0.75" class="primitive"/>
  </g>
  <g transform="translate(63.76,43.91)" fill="#3B2ABA">
    <circle cx="0" cy="0" r="0.75" class="primitive"/>
  </g>
  <g transform="translate(63.64,40.92)" fill="#3B2ABA">
    <circle cx="0" cy="0" r="0.75" class="primitive"/>
  </g>
  <g transform="translate(50.24,36.44)" fill="#89BBDF">
    <circle cx="0" cy="0" r="0.75" class="primitive"/>
  </g>
  <g transform="translate(42.09,31.21)" fill="#3B2ABA">
    <circle cx="0" cy="0" r="0.75" class="primitive"/>
  </g>
  <g transform="translate(12.68,25.61)" fill="#3B2ABA">
    <circle cx="0" cy="0" r="0.75" class="primitive"/>
  </g>
  <g transform="translate(11.15,19.83)" fill="#3B2ABA">
    <circle cx="0" cy="0" r="0.75" class="primitive"/>
  </g>
  <g transform="translate(3.75,13.95)" fill="#000000">
    <circle cx="0" cy="0" r="0.75" class="primitive"/>
  </g>
  <g transform="translate(3.75,8.02)" fill="#000000">
    <circle cx="0" cy="0" r="0.75" class="primitive"/>
  </g>
</g>
<g stroke-opacity="1" fill-opacity="1" font-size="1.41" stroke-width="0.1" id="img-29b4c979-3">
  <g transform="translate(7.3,2.09)" stroke="#000000">
    <g class="primitive">
      <text dy="0.35em">N7</text>
    </g>
  </g>
  <g transform="translate(14.71,8.06)" stroke="#000000">
    <g class="primitive">
      <text dy="0.35em">N6</text>
    </g>
  </g>
  <g transform="translate(15.78,14.04)" stroke="#000000">
    <g class="primitive">
      <text dy="0.35em">N5</text>
    </g>
  </g>
  <g transform="translate(24.34,20.01)" stroke="#000000">
    <g class="primitive">
      <text dy="0.35em">N4</text>
    </g>
  </g>
  <g transform="translate(62.97,25.99)" stroke="#000000">
    <g class="primitive">
      <text dy="0.35em">N3</text>
    </g>
  </g>
  <g transform="translate(80.62,31.96)" stroke="#000000">
    <g class="primitive">
      <text dy="0.35em">N2</text>
    </g>
  </g>
  <g transform="translate(76.08,37.94)" stroke="#000000">
    <g class="primitive">
      <text dy="0.35em">N0</text>
    </g>
  </g>
  <g transform="translate(65.63,43.91)" stroke="#000000">
    <g class="primitive">
      <text dy="0.35em">N1</text>
    </g>
  </g>
  <g transform="translate(65.51,40.92)" stroke="#000000">
    <g class="primitive">
      <text dy="0.35em">N8</text>
    </g>
  </g>
  <g transform="translate(52.11,36.44)" stroke="#000000">
    <g class="primitive">
      <text dy="0.35em">N9</text>
    </g>
  </g>
  <g transform="translate(43.97,31.21)" stroke="#000000">
    <g class="primitive">
      <text dy="0.35em">N10</text>
    </g>
  </g>
  <g transform="translate(14.55,25.61)" stroke="#000000">
    <g class="primitive">
      <text dy="0.35em">N11</text>
    </g>
  </g>
  <g transform="translate(13.03,19.83)" stroke="#000000">
    <g class="primitive">
      <text dy="0.35em">N12</text>
    </g>
  </g>
  <g transform="translate(5.63,13.95)" stroke="#000000">
    <g class="primitive">
      <text dy="0.35em"></text>
    </g>
  </g>
  <g transform="translate(5.63,8.02)" stroke="#000000">
    <g class="primitive">
      <text dy="0.35em"></text>
    </g>
  </g>
</g>
</svg>
