<?xml version="1.0" encoding="UTF-8"?>
<svg xmlns="http://www.w3.org/2000/svg"
     xmlns:xlink="http://www.w3.org/1999/xlink"
     version="1.2"
     width="150mm" height="68mm" viewBox="0 0 150 68"
     stroke="none"
     fill="#000000"
     stroke-width="0.3"
     font-size="3.88"
>
<defs>
  <marker id="arrow" markerWidth="15" markerHeight="7" refX="5" refY="3.5" orient="auto" markerUnits="strokeWidth">
    <path d="M0,0 L15,3.5 L0,7 z" stroke="context-stroke" fill="context-stroke"/>
  </marker>
</defs>
<g stroke-opacity="1" stroke-width="0.3" id="img-d6e1d110-1">
  <g transform="translate(29.89,3.09)" stroke="#F625DE">
    <path fill="none" d="M-26.14,0 L26.14,0 " class="primitive"/>
  </g>
  <g transform="translate(20.15,6.53)" stroke="#11236A">
    <path fill="none" d="M-1.58,0 L1.58,0 " class="primitive"/>
  </g>
  <g transform="translate(27.87,9.96)" stroke="#F625DE">
    <path fill="none" d="M-9.3,0 L9.3,0 " class="primitive"/>
  </g>
  <g transform="translate(15.48,8.24)" stroke="#11236A">
    <path fill="none" d="M-3.09,0 L3.09,0 " class="primitive"/>
  </g>
  <g transform="translate(18.57,8.24)" stroke="#11236A">
    <path fill="none" d="M0,1.72 L0,-1.72 " class="primitive"/>
  </g>
  <g transform="translate(26.62,13.39)" stroke="#11236A">
    <path fill="none" d="M-2.89,0 L2.89,0 " class="primitive"/>
  </g>
  <g transform="translate(34.79,16.83)" stroke="#F625DE">
    <path fill="none" d="M-11.06,0 L11.06,0 " class="primitive"/>
  </g>
  <g transform="translate(18.06,15.11)" stroke="#F625DE">
    <path fill="none" d="M-5.66,0 L5.66,0 " class="primitive"/>
  </g>
  <g transform="translate(23.73,15.11)" stroke="#F625DE">
    <path fill="none" d="M0,1.72 L0,-1.72 " class="primitive"/>
  </g>
  <g transform="translate(11.82,11.68)" stroke="#F625DE">
    <path fill="none" d="M-0.57,0 L0.57,0 " class="primitive"/>
  </g>
  <g transform="translate(12.4,11.68)" stroke="#F625DE">
    <path fill="none" d="M0,3.43 L0,-3.43 " class="primitive"/>
  </g>
  <g transform="translate(34.13,20.26)" stroke="#11236A">
    <path fill="none" d="M-3.48,0 L3.48,0 " class="primitive"/>
  </g>
  <g transform="translate(31.58,23.7)" stroke="#11236A">
    <path fill="none" d="M-0.94,0 L0.94,0 " class="primitive"/>
  </g>
  <g transform="translate(23.83,21.98)" stroke="#11236A">
    <path fill="none" d="M-6.81,0 L6.81,0 " class="primitive"/>
  </g>
  <g transform="translate(30.64,21.98)" stroke="#11236A">
    <path fill="none" d="M0,1.72 L0,-1.72 " class="primitive"/>
  </g>
  <g transform="translate(42.15,27.13)" stroke="#11236A">
    <path fill="none" d="M-17.68,0 L17.68,0 " class="primitive"/>
  </g>
  <g transform="translate(25.13,30.57)" stroke="#11236A">
    <path fill="none" d="M-0.65,0 L0.65,0 " class="primitive"/>
  </g>
  <g transform="translate(20.75,28.85)" stroke="#11236A">
    <path fill="none" d="M-3.73,0 L3.73,0 " class="primitive"/>
  </g>
  <g transform="translate(24.48,28.85)" stroke="#11236A">
    <path fill="none" d="M0,1.72 L0,-1.72 " class="primitive"/>
  </g>
  <g transform="translate(14.14,25.41)" stroke="#F625DE">
    <path fill="none" d="M-2.88,0 L2.88,0 " class="primitive"/>
  </g>
  <g transform="translate(17.02,25.41)" stroke="#F625DE">
    <path fill="none" d="M0,3.43 L0,-3.43 " class="primitive"/>
  </g>
  <g transform="translate(7.5,18.55)" stroke="#11236A">
    <path fill="none" d="M-3.75,0 L3.75,0 " class="primitive"/>
  </g>
  <g transform="translate(11.25,18.55)" stroke="#11236A">
    <path fill="none" d="M0,6.87 L0,-6.87 " class="primitive"/>
  </g>
  <g transform="translate(61.04,34)" stroke="#F625DE">
    <path fill="none" d="M-6.08,0 L6.08,0 " class="primitive"/>
  </g>
  <g transform="translate(61.9,37.43)" stroke="#11236A">
    <path fill="none" d="M-6.94,0 L6.94,0 " class="primitive"/>
  </g>
  <g transform="translate(52.79,35.72)" stroke="#11236A">
    <path fill="none" d="M-2.17,0 L2.17,0 " class="primitive"/>
  </g>
  <g transform="translate(54.96,35.72)" stroke="#11236A">
    <path fill="none" d="M0,1.72 L0,-1.72 " class="primitive"/>
  </g>
  <g transform="translate(58.38,40.87)" stroke="#11236A">
    <path fill="none" d="M-2.87,0 L2.87,0 " class="primitive"/>
  </g>
  <g transform="translate(59.33,44.3)" stroke="#F625DE">
    <path fill="none" d="M-3.83,0 L3.83,0 " class="primitive"/>
  </g>
  <g transform="translate(53.06,42.59)" stroke="#11236A">
    <path fill="none" d="M-2.44,0 L2.44,0 " class="primitive"/>
  </g>
  <g transform="translate(55.51,42.59)" stroke="#11236A">
    <path fill="none" d="M0,1.72 L0,-1.72 " class="primitive"/>
  </g>
  <g transform="translate(31.72,39.15)" stroke="#F625DE">
    <path fill="none" d="M-18.9,0 L18.9,0 " class="primitive"/>
  </g>
  <g transform="translate(50.62,39.15)" stroke="#F625DE">
    <path fill="none" d="M0,3.43 L0,-3.43 " class="primitive"/>
  </g>
  <g transform="translate(43.19,47.74)" stroke="#11236A">
    <path fill="none" d="M-3.24,0 L3.24,0 " class="primitive"/>
  </g>
  <g transform="translate(45.77,51.17)" stroke="#11236A">
    <path fill="none" d="M-5.81,0 L5.81,0 " class="primitive"/>
  </g>
  <g transform="translate(32.07,49.45)" stroke="#11236A">
    <path fill="none" d="M-7.88,0 L7.88,0 " class="primitive"/>
  </g>
  <g transform="translate(39.95,49.45)" stroke="#11236A">
    <path fill="none" d="M0,1.72 L0,-1.72 " class="primitive"/>
  </g>
  <g transform="translate(57.63,54.61)" stroke="#11236A">
    <path fill="none" d="M-21.12,0 L21.12,0 " class="primitive"/>
  </g>
  <g transform="translate(57.06,58.04)" stroke="#F625DE">
    <path fill="none" d="M-20.56,0 L20.56,0 " class="primitive"/>
  </g>
  <g transform="translate(34.05,56.32)" stroke="#F625DE">
    <path fill="none" d="M-2.46,0 L2.46,0 " class="primitive"/>
  </g>
  <g transform="translate(36.5,56.32)" stroke="#F625DE">
    <path fill="none" d="M0,1.72 L0,-1.72 " class="primitive"/>
  </g>
  <g transform="translate(74.62,61.47)" stroke="#11236A">
    <path fill="none" d="M-3.79,0 L3.79,0 " class="primitive"/>
  </g>
  <g transform="translate(73.69,64.91)" stroke="#11236A">
    <path fill="none" d="M-2.86,0 L2.86,0 " class="primitive"/>
  </g>
  <g transform="translate(51.21,63.19)" stroke="#F625DE">
    <path fill="none" d="M-19.62,0 L19.62,0 " class="primitive"/>
  </g>
  <g transform="translate(70.83,63.19)" stroke="#F625DE">
    <path fill="none" d="M0,1.72 L0,-1.72 " class="primitive"/>
  </g>
  <g transform="translate(27.89,59.76)" stroke="#11236A">
    <path fill="none" d="M-3.7,0 L3.7,0 " class="primitive"/>
  </g>
  <g transform="translate(31.59,59.76)" stroke="#11236A">
    <path fill="none" d="M0,3.43 L0,-3.43 " class="primitive"/>
  </g>
  <g transform="translate(18.5,54.61)" stroke="#11236A">
    <path fill="none" d="M-5.69,0 L5.69,0 " class="primitive"/>
  </g>
  <g transform="translate(24.19,54.61)" stroke="#11236A">
    <path fill="none" d="M0,5.15 L0,-5.15 " class="primitive"/>
  </g>
  <g transform="translate(8.28,46.88)" stroke="#11236A">
    <path fill="none" d="M-4.53,0 L4.53,0 " class="primitive"/>
  </g>
  <g transform="translate(12.82,46.88)" stroke="#11236A">
    <path fill="none" d="M0,7.73 L0,-7.73 " class="primitive"/>
  </g>
  <g stroke-opacity="1" stroke-width="0.3" id="img-d6e1d110-2">
    <g transform="translate(12.82,46.88)" stroke="#11236A">
      <path fill="none" d="M0,7.73 L0,-7.73 " class="primitive"/>
    </g>
    <g transform="translate(3.75,32.71)" stroke="#000000">
      <path fill="none" d="M0,0 L0,0 " class="primitive"/>
    </g>
    <g transform="translate(3.75,32.71)" stroke="#000000">
      <path fill="none" d="M0,14.17 L0,-14.17 " class="primitive"/>
    </g>
    <g transform="translate(3.75,17.9)" stroke="#000000">
      <path fill="none" d="M0,0 L0,0 " class="primitive"/>
    </g>
    <g transform="translate(3.75,17.9)" stroke="#000000">
      <path fill="none" d="M0,14.81 L0,-14.81 " class="primitive"/>
    </g>
  </g>
</g>
<g fill-opacity="1" id="img-d6e1d110-3">
  <g transform="translate(56.04,3.09)" fill="#F625DE">
    <circle cx="0" cy="0" r="0.75" class="primitive"/>
  </g>
  <g transform="translate(21.74,6.53)" fill="#11236A">
    <circle cx="0" cy="0" r="0.75" class="primitive"/>
  </g>
  <g transform="translate(37.17,9.96)" fill="#F625DE">
    <circle cx="0" cy="0" r="0.75" class="primitive"/>
  </g>
  <g transform="translate(18.57,8.24)" fill="#11236A">
    <circle cx="0" cy="0" r="0.75" class="primitive"/>
  </g>
  <g transform="translate(29.52,13.39)" fill="#11236A">
    <circle cx="0" cy="0" r="0.75" class="primitive"/>
  </g>
  <g transform="translate(45.84,16.83)" fill="#F625DE">
    <circle cx="0" cy="0" r="0.75" class="primitive"/>
  </g>
  <g transform="translate(23.73,15.11)" fill="#F625DE">
    <circle cx="0" cy="0" r="0.75" class="primitive"/>
  </g>
  <g transform="translate(12.4,11.68)" fill="#F625DE">
    <circle cx="0" cy="0" r="0.75" class="primitive"/>
  </g>
  <g transform="translate(37.61,20.26)" fill="#11236A">
    <circle cx="0" cy="0" r="0.75" class="primitive"/>
  </g>
  <g transform="translate(32.53,23.7)" fill="#11236A">
    <circle cx="0" cy="0" r="0.75" class="primitive"/>
  </g>
  <g transform="translate(30.64,21.98)" fill="#11236A">
    <circle cx="0" cy="0" r="0.75" class="primitive"/>
  </g>
  <g transform="translate(59.83,27.13)" fill="#11236A">
    <circle cx="0" cy="0" r="0.75" class="primitive"/>
  </g>
  <g transform="translate(25.77,30.57)" fill="#11236A">
    <circle cx="0" cy="0" r="0.75" class="primitive"/>
  </g>
  <g transform="translate(24.48,28.85)" fill="#11236A">
    <circle cx="0" cy="0" r="0.75" class="primitive"/>
  </g>
  <g transform="translate(17.02,25.41)" fill="#F625DE">
    <circle cx="0" cy="0" r="0.75" class="primitive"/>
  </g>
  <g transform="translate(11.25,18.55)" fill="#11236A">
    <circle cx="0" cy="0" r="0.75" class="primitive"/>
  </g>
  <g transform="translate(67.12,34)" fill="#F625DE">
    <circle cx="0" cy="0" r="0.75" class="primitive"/>
  </g>
  <g transform="translate(68.85,37.43)" fill="#11236A">
    <circle cx="0" cy="0" r="0.75" class="primitive"/>
  </g>
  <g transform="translate(54.96,35.72)" fill="#11236A">
    <circle cx="0" cy="0" r="0.75" class="primitive"/>
  </g>
  <g transform="translate(61.25,40.87)" fill="#11236A">
    <circle cx="0" cy="0" r="0.75" class="primitive"/>
  </g>
  <g transform="translate(63.16,44.3)" fill="#F625DE">
    <circle cx="0" cy="0" r="0.75" class="primitive"/>
  </g>
  <g transform="translate(55.51,42.59)" fill="#11236A">
    <circle cx="0" cy="0" r="0.75" class="primitive"/>
  </g>
  <g transform="translate(50.62,39.15)" fill="#F625DE">
    <circle cx="0" cy="0" r="0.75" class="primitive"/>
  </g>
  <g transform="translate(46.43,47.74)" fill="#11236A">
    <circle cx="0" cy="0" r="0.75" class="primitive"/>
  </g>
  <g transform="translate(51.58,51.17)" fill="#11236A">
    <circle cx="0" cy="0" r="0.75" class="primitive"/>
  </g>
  <g transform="translate(39.95,49.45)" fill="#11236A">
    <circle cx="0" cy="0" r="0.75" class="primitive"/>
  </g>
  <g transform="translate(78.75,54.61)" fill="#11236A">
    <circle cx="0" cy="0" r="0.75" class="primitive"/>
  </g>
  <g transform="translate(77.62,58.04)" fill="#F625DE">
    <circle cx="0" cy="0" r="0.75" class="primitive"/>
  </g>
  <g transform="translate(36.5,56.32)" fill="#F625DE">
    <circle cx="0" cy="0" r="0.75" class="primitive"/>
  </g>
  <g transform="translate(78.41,61.47)" fill="#11236A">
    <circle cx="0" cy="0" r="0.75" class="primitive"/>
  </g>
  <g transform="translate(76.56,64.91)" fill="#11236A">
    <circle cx="0" cy="0" r="0.75" class="primitive"/>
  </g>
  <g transform="translate(70.83,63.19)" fill="#F625DE">
    <circle cx="0" cy="0" r="0.75" class="primitive"/>
  </g>
  <g transform="translate(31.59,59.76)" fill="#11236A">
    <circle cx="0" cy="0" r="0.75" class="primitive"/>
  </g>
  <g transform="translate(24.19,54.61)" fill="#11236A">
    <circle cx="0" cy="0" r="0.75" class="primitive"/>
  </g>
  <g transform="translate(12.82,46.88)" fill="#11236A">
    <circle cx="0" cy="0" r="0.75" class="primitive"/>
  </g>
  <g transform="translate(3.75,32.71)" fill="#000000">
    <circle cx="0" cy="0" r="0.75" class="primitive"/>
  </g>
  <g transform="translate(3.75,17.9)" fill="#000000">
    <circle cx="0" cy="0" r="0.75" class="primitive"/>
  </g>
</g>
<g stroke-opacity="1" fill-opacity="1" font-size="1.41" stroke-width="0.1" id="img-d6e1d110-4">
  <g transform="translate(57.91,3.09)" stroke="#000000">
    <g class="primitive">
      <text dy="0.35em">N18</text>
    </g>
  </g>
  <g transform="translate(23.61,6.53)" stroke="#000000">
    <g class="primitive">
      <text dy="0.35em">N4</text>
    </g>
  </g>
  <g transform="translate(39.05,9.96)" stroke="#000000">
    <g class="primitive">
      <text dy="0.35em">N5</text>
    </g>
  </g>
  <g transform="translate(20.45,8.24)" stroke="#000000">
    <g class="primitive">
      <text dy="0.35em">N21</text>
    </g>
  </g>
  <g transform="translate(31.39,13.39)" stroke="#000000">
    <g class="primitive">
      <text dy="0.35em">N6</text>
    </g>
  </g>
  <g transform="translate(47.72,16.83)" stroke="#000000">
    <g class="primitive">
      <text dy="0.35em">N7</text>
    </g>
  </g>
  <g transform="translate(25.6,15.11)" stroke="#000000">
    <g class="primitive">
      <text dy="0.35em">N22</text>
    </g>
  </g>
  <g transform="translate(14.27,11.68)" stroke="#000000">
    <g class="primitive">
      <text dy="0.35em">N29</text>
    </g>
  </g>
  <g transform="translate(39.48,20.26)" stroke="#000000">
    <g class="primitive">
      <text dy="0.35em">N8</text>
    </g>
  </g>
  <g transform="translate(34.4,23.7)" stroke="#000000">
    <g class="primitive">
      <text dy="0.35em">N9</text>
    </g>
  </g>
  <g transform="translate(32.52,21.98)" stroke="#000000">
    <g class="primitive">
      <text dy="0.35em">N23</text>
    </g>
  </g>
  <g transform="translate(61.7,27.13)" stroke="#000000">
    <g class="primitive">
      <text dy="0.35em">N10</text>
    </g>
  </g>
  <g transform="translate(27.65,30.57)" stroke="#000000">
    <g class="primitive">
      <text dy="0.35em">N11</text>
    </g>
  </g>
  <g transform="translate(26.35,28.85)" stroke="#000000">
    <g class="primitive">
      <text dy="0.35em">N24</text>
    </g>
  </g>
  <g transform="translate(18.89,25.41)" stroke="#000000">
    <g class="primitive">
      <text dy="0.35em">N30</text>
    </g>
  </g>
  <g transform="translate(13.13,18.55)" stroke="#000000">
    <g class="primitive">
      <text dy="0.35em">N33</text>
    </g>
  </g>
  <g transform="translate(69,34)" stroke="#000000">
    <g class="primitive">
      <text dy="0.35em">N12</text>
    </g>
  </g>
  <g transform="translate(70.72,37.43)" stroke="#000000">
    <g class="primitive">
      <text dy="0.35em">N13</text>
    </g>
  </g>
  <g transform="translate(56.83,35.72)" stroke="#000000">
    <g class="primitive">
      <text dy="0.35em">N25</text>
    </g>
  </g>
  <g transform="translate(63.13,40.87)" stroke="#000000">
    <g class="primitive">
      <text dy="0.35em">N14</text>
    </g>
  </g>
  <g transform="translate(65.04,44.3)" stroke="#000000">
    <g class="primitive">
      <text dy="0.35em">N15</text>
    </g>
  </g>
  <g transform="translate(57.38,42.59)" stroke="#000000">
    <g class="primitive">
      <text dy="0.35em">N26</text>
    </g>
  </g>
  <g transform="translate(52.5,39.15)" stroke="#000000">
    <g class="primitive">
      <text dy="0.35em">N31</text>
    </g>
  </g>
  <g transform="translate(48.3,47.74)" stroke="#000000">
    <g class="primitive">
      <text dy="0.35em">N16</text>
    </g>
  </g>
  <g transform="translate(53.45,51.17)" stroke="#000000">
    <g class="primitive">
      <text dy="0.35em">N17</text>
    </g>
  </g>
  <g transform="translate(41.83,49.45)" stroke="#000000">
    <g class="primitive">
      <text dy="0.35em">N27</text>
    </g>
  </g>
  <g transform="translate(80.62,54.61)" stroke="#000000">
    <g class="primitive">
      <text dy="0.35em">N0</text>
    </g>
  </g>
  <g transform="translate(79.49,58.04)" stroke="#000000">
    <g class="primitive">
      <text dy="0.35em">N1</text>
    </g>
  </g>
  <g transform="translate(38.38,56.32)" stroke="#000000">
    <g class="primitive">
      <text dy="0.35em">N19</text>
    </g>
  </g>
  <g transform="translate(80.29,61.47)" stroke="#000000">
    <g class="primitive">
      <text dy="0.35em">N2</text>
    </g>
  </g>
  <g transform="translate(78.43,64.91)" stroke="#000000">
    <g class="primitive">
      <text dy="0.35em">N3</text>
    </g>
  </g>
  <g transform="translate(72.7,63.19)" stroke="#000000">
    <g class="primitive">
      <text dy="0.35em">N20</text>
    </g>
  </g>
  <g transform="translate(33.47,59.76)" stroke="#000000">
    <g class="primitive">
      <text dy="0.35em">N28</text>
    </g>
  </g>
  <g transform="translate(26.06,54.61)" stroke="#000000">
    <g class="primitive">
      <text dy="0.35em">N32</text>
    </g>
  </g>
  <g transform="translate(14.69,46.88)" stroke="#000000">
    <g class="primitive">
      <text dy="0.35em">N34</text>
    </g>
  </g>
  <g transform="translate(5.63,32.71)" stroke="#000000">
    <g class="primitive">
      <text dy="0.35em"></text>
    </g>
  </g>
  <g transform="translate(5.63,17.9)" stroke="#000000">
    <g class="primitive">
      <text dy="0.35em"></text>
    </g>
  </g>
</g>
</svg>
