<?xml version="1.0" encoding="UTF-8"?>
<svg xmlns="http://www.w3.org/2000/svg"
     xmlns:xlink="http://www.w3.org/1999/xlink"
     version="1.2"
     width="150mm" height="50mm" viewBox="0 0 150 50"
     stroke="none"
     fill="#000000"
     stroke-width="0.3"
     font-size="3.88"
>
<defs>
  <marker id="arrow" markerWidth="15" markerHeight="7" refX="5" refY="3.5" orient="auto" markerUnits="strokeWidth">
    <path d="M0,0 L15,3.5 L0,7 z" stroke="context-stroke" fill="context-stroke"/>
  </marker>
</defs>
<g stroke-opacity="1" stroke-width="0.3" id="img-29b4c979-1">
  <g transform="translate(6.06,2.27)" stroke="#530FC0">
    <path fill="none" d="M-2.31,0 L2.31,0 " class="primitive"/>
  </g>
  <g transform="translate(4.38,7.32)" stroke="#C6F130">
    <path fill="none" d="M-0.63,0 L0.63,0 " class="primitive"/>
  </g>
  <g transform="translate(6.55,12.37)" stroke="#C6F130">
    <path fill="none" d="M-2.7,0 L2.7,0 " class="primitive"/>
  </g>
  <g transform="translate(26.45,17.42)" stroke="#C6F130">
    <path fill="none" d="M-8.36,0 L8.36,0 " class="primitive"/>
  </g>
  <g transform="translate(30.09,22.47)" stroke="#530FC0">
    <path fill="none" d="M-10.64,0 L10.64,0 " class="primitive"/>
  </g>
  <g transform="translate(52.98,27.53)" stroke="#C6F130">
    <path fill="none" d="M-8.05,0 L8.05,0 " class="primitive"/>
  </g>
  <g transform="translate(54.41,32.58)" stroke="#C6F130">
    <path fill="none" d="M-1.42,0 L1.42,0 " class="primitive"/>
  </g>
  <g transform="translate(67.15,37.63)" stroke="#530FC0">
    <path fill="none" d="M-0.87,0 L0.87,0 " class="primitive"/>
  </g>
  <g transform="translate(75.48,42.68)" stroke="#C6F130">
    <path fill="none" d="M-3.27,0 L3.27,0 " class="primitive"/>
  </g>
  <g transform="translate(72.38,47.73)" stroke="#C6F130">
    <path fill="none" d="M-0.17,0 L0.17,0 " class="primitive"/>
  </g>
  <g transform="translate(69.25,45.2)" stroke="#C6F130">
    <path fill="none" d="M-2.97,0 L2.97,0 " class="primitive"/>
  </g>
  <g transform="translate(72.22,45.2)" stroke="#C6F130">
    <path fill="none" d="M0,2.53 L0,-2.53 " class="primitive"/>
  </g>
  <g transform="translate(59.63,41.41)" stroke="#C6F130">
    <path fill="none" d="M-6.65,0 L6.65,0 " class="primitive"/>
  </g>
  <g transform="translate(66.28,41.41)" stroke="#C6F130">
    <path fill="none" d="M0,3.79 L0,-3.79 " class="primitive"/>
  </g>
  <g transform="translate(48.96,36.99)" stroke="#C6F130">
    <path fill="none" d="M-4.03,0 L4.03,0 " class="primitive"/>
  </g>
  <g transform="translate(52.99,36.99)" stroke="#C6F130">
    <path fill="none" d="M0,4.42 L0,-4.42 " class="primitive"/>
  </g>
  <g transform="translate(32.19,32.26)" stroke="#530FC0">
    <path fill="none" d="M-12.74,0 L12.74,0 " class="primitive"/>
  </g>
  <g transform="translate(44.93,32.26)" stroke="#530FC0">
    <path fill="none" d="M0,4.73 L0,-4.73 " class="primitive"/>
  </g>
  <g transform="translate(18.77,27.37)" stroke="#C6F130">
    <path fill="none" d="M-0.68,0 L0.68,0 " class="primitive"/>
  </g>
  <g transform="translate(19.45,27.37)" stroke="#C6F130">
    <path fill="none" d="M0,4.89 L0,-4.89 " class="primitive"/>
  </g>
  <g transform="translate(10.97,22.4)" stroke="#C6F130">
    <path fill="none" d="M-7.12,0 L7.12,0 " class="primitive"/>
  </g>
  <g transform="translate(18.09,22.4)" stroke="#C6F130">
    <path fill="none" d="M0,4.97 L0,-4.97 " class="primitive"/>
  </g>
  <g transform="translate(3.8,17.38)" stroke="#530FC0">
    <path fill="none" d="M-0.05,0 L0.05,0 " class="primitive"/>
  </g>
  <g transform="translate(3.85,17.38)" stroke="#530FC0">
    <path fill="none" d="M0,5.01 L0,-5.01 " class="primitive"/>
  </g>
  <g transform="translate(3.75,12.35)" stroke="#000000">
    <path fill="none" d="M0,0 L0,0 " class="primitive"/>
  </g>
  <g transform="translate(3.75,12.35)" stroke="#000000">
    <path fill="none" d="M0,5.03 L0,-5.03 " class="primitive"/>
  </g>
  <g transform="translate(3.75,7.31)" stroke="#000000">
    <path fill="none" d="M0,0 L0,0 " class="primitive"/>
  </g>
  <g transform="translate(3.75,7.31)" stroke="#000000">
    <path fill="none" d="M0,5.04 L0,-5.04 " class="primitive"/>
  </g>
</g>
<g fill-opacity="1" id="img-29b4c979-2">
  <g transform="translate(8.37,2.27)" fill="#530FC0">
    <circle cx="0" cy="0" r="0.75" class="primitive"/>
  </g>
  <g transform="translate(5.02,7.32)" fill="#C6F130">
    <circle cx="0" cy="0" r="0.75" class="primitive"/>
  </g>
  <g transform="translate(9.25,12.37)" fill="#C6F130">
    <circle cx="0" cy="0" r="0.75" class="primitive"/>
  </g>
  <g transform="translate(34.81,17.42)" fill="#C6F130">
    <circle cx="0" cy="0" r="0.75" class="primitive"/>
  </g>
  <g transform="translate(40.73,22.47)" fill="#530FC0">
    <circle cx="0" cy="0" r="0.75" class="primitive"/>
  </g>
  <g transform="translate(61.03,27.53)" fill="#C6F130">
    <circle cx="0" cy="0" r="0.75" class="primitive"/>
  </g>
  <g transform="translate(55.83,32.58)" fill="#C6F130">
    <circle cx="0" cy="0" r="0.75" class="primitive"/>
  </g>
  <g transform="translate(68.02,37.63)" fill="#530FC0">
    <circle cx="0" cy="0" r="0.75" class="primitive"/>
  </g>
  <g transform="translate(78.75,42.68)" fill="#C6F130">
    <circle cx="0" cy="0" r="0.75" class="primitive"/>
  </g>
  <g transform="translate(72.55,47.73)" fill="#C6F130">
    <circle cx="0" cy="0" r="0.75" class="primitive"/>
  </g>
  <g transform="translate(72.22,45.2)" fill="#C6F130">
    <circle cx="0" cy="0" r="0.75" class="primitive"/>
  </g>
  <g transform="translate(66.28,41.41)" fill="#C6F130">
    <circle cx="0" cy="0" r="0.75" class="primitive"/>
  </g>
  <g transform="translate(52.99,36.99)" fill="#C6F130">
    <circle cx="0" cy="0" r="0.75" class="primitive"/>
  </g>
  <g transform="translate(44.93,32.26)" fill="#530FC0">
    <circle cx="0" cy="0" r="0.75" class="primitive"/>
  </g>
  <g transform="translate(19.45,27.37)" fill="#C6F130">
    <circle cx="0" cy="0" r="0.75" class="primitive"/>
  </g>
  <g transform="translate(18.09,22.4)" fill="#C6F130">
    <circle cx="0" cy="0" r="0.75" class="primitive"/>
  </g>
  <g transform="translate(3.85,17.38)" fill="#530FC0">
    <circle cx="0" cy="0" r="0.75" class="primitive"/>
  </g>
  <g transform="translate(3.75,12.35)" fill="#000000">
    <circle cx="0" cy="0" r="0.75" class="primitive"/>
  </g>
  <g transform="translate(3.75,7.31)" fill="#000000">
    <circle cx="0" cy="0" r="0.75" class="primitive"/>
  </g>
</g>
<g stroke-opacity="1" fill-opacity="1" font-size="1.41" stroke-width="0.1" id="img-29b4c979-3">
  <g transform="translate(10.25,2.27)" stroke="#000000">
    <g class="primitive">
      <text dy="0.35em">N9</text>
    </g>
  </g>
  <g transform="translate(6.89,7.32)" stroke="#000000">
    <g class="primitive">
      <text dy="0.35em">N8</text>
    </g>
  </g>
  <g transform="translate(11.13,12.37)" stroke="#000000">
    <g class="primitive">
      <text dy="0.35em">N7</text>
    </g>
  </g>
  <g transform="translate(36.68,17.42)" stroke="#000000">
    <g class="primitive">
      <text dy="0.35em">N6</text>
    </g>
  </g>
  <g transform="translate(42.61,22.47)" stroke="#000000">
    <g class="primitive">
      <text dy="0.35em">N5</text>
    </g>
  </g>
  <g transform="translate(62.9,27.53)" stroke="#000000">
    <g class="primitive">
      <text dy="0.35em">N4</text>
    </g>
  </g>
  <g transform="translate(57.7,32.58)" stroke="#000000">
    <g class="primitive">
      <text dy="0.35em">N3</text>
    </g>
  </g>
  <g transform="translate(69.89,37.63)" stroke="#000000">
    <g class="primitive">
      <text dy="0.35em">N2</text>
    </g>
  </g>
  <g transform="translate(80.62,42.68)" stroke="#000000">
    <g class="primitive">
      <text dy="0.35em">N0</text>
    </g>
  </g>
  <g transform="translate(74.42,47.73)" stroke="#000000">
    <g class="primitive">
      <text dy="0.35em">N1</text>
    </g>
  </g>
  <g transform="translate(74.09,45.2)" stroke="#000000">
    <g class="primitive">
      <text dy="0.35em">N10</text>
    </g>
  </g>
  <g transform="translate(68.15,41.41)" stroke="#000000">
    <g class="primitive">
      <text dy="0.35em">N11</text>
    </g>
  </g>
  <g transform="translate(54.86,36.99)" stroke="#000000">
    <g class="primitive">
      <text dy="0.35em">N12</text>
    </g>
  </g>
  <g transform="translate(46.81,32.26)" stroke="#000000">
    <g class="primitive">
      <text dy="0.35em">N13</text>
    </g>
  </g>
  <g transform="translate(21.33,27.37)" stroke="#000000">
    <g class="primitive">
      <text dy="0.35em">N14</text>
    </g>
  </g>
  <g transform="translate(19.96,22.4)" stroke="#000000">
    <g class="primitive">
      <text dy="0.35em">N15</text>
    </g>
  </g>
  <g transform="translate(5.73,17.38)" stroke="#000000">
    <g class="primitive">
      <text dy="0.35em">N16</text>
    </g>
  </g>
  <g transform="translate(5.63,12.35)" stroke="#000000">
    <g class="primitive">
      <text dy="0.35em"></text>
    </g>
  </g>
  <g transform="translate(5.63,7.31)" stroke="#000000">
    <g class="primitive">
      <text dy="0.35em"></text>
    </g>
  </g>
</g>
</svg>
