<?xml version="1.0" encoding="UTF-8"?>
<svg xmlns="http://www.w3.org/2000/svg"
     xmlns:xlink="http://www.w3.org/1999/xlink"
     version="1.2"
     width="150mm" height="102mm" viewBox="0 0 150 102"
     stroke="none"
     fill="#000000"
     stroke-width="0.3"
     font-size="3.88"
>
<defs>
  <marker id="arrow" markerWidth="15" markerHeight="7" refX="5" refY="3.5" orient="auto" markerUnits="strokeWidth">
    <path d="M0,0 L15,3.5 L0,7 z" stroke="context-stroke" fill="context-stroke"/>
  </marker>
</defs>
<g stroke-opacity="1" stroke-width="0.3" id="img-29b4c979-1">
  <g transform="translate(4.34,4.64)" stroke="#5D7F5D">
    <path fill="none" d="M-0.59,0 L0.59,0 " class="primitive"/>
  </g>
  <g transform="translate(4.75,7.29)" stroke="#A45DFE">
    <path fill="none" d="M-1,0 L1,0 " class="primitive"/>
  </g>
  <g transform="translate(8.91,9.94)" stroke="#A45DFE">
    <path fill="none" d="M-4.56,0 L4.56,0 " class="primitive"/>
  </g>
  <g transform="translate(11.83,12.58)" stroke="#5D7F5D">
    <path fill="none" d="M-1.67,0 L1.67,0 " class="primitive"/>
  </g>
  <g transform="translate(11.84,15.23)" stroke="#5D7F5D">
    <path fill="none" d="M-0.62,0 L0.62,0 " class="primitive"/>
  </g>
  <g transform="translate(14.06,17.88)" stroke="#5D7F5D">
    <path fill="none" d="M-0.09,0 L0.09,0 " class="primitive"/>
  </g>
  <g transform="translate(16.83,20.53)" stroke="#5D7F5D">
    <path fill="none" d="M-0.3,0 L0.3,0 " class="primitive"/>
  </g>
  <g transform="translate(17.68,23.18)" stroke="#5D7F5D">
    <path fill="none" d="M-0.1,0 L0.1,0 " class="primitive"/>
  </g>
  <g transform="translate(17.81,25.83)" stroke="#5D7F5D">
    <path fill="none" d="M-0.23,0 L0.23,0 " class="primitive"/>
  </g>
  <g transform="translate(18.43,28.48)" stroke="#5D7F5D">
    <path fill="none" d="M-0.5,0 L0.5,0 " class="primitive"/>
  </g>
  <g transform="translate(19.79,31.13)" stroke="#5D7F5D">
    <path fill="none" d="M-0.02,0 L0.02,0 " class="primitive"/>
  </g>
  <g transform="translate(25.17,33.78)" stroke="#5D7F5D">
    <path fill="none" d="M-3.33,0 L3.33,0 " class="primitive"/>
  </g>
  <g transform="translate(22.57,36.43)" stroke="#A45DFE">
    <path fill="none" d="M-0.27,0 L0.27,0 " class="primitive"/>
  </g>
  <g transform="translate(28.41,39.08)" stroke="#5D7F5D">
    <path fill="none" d="M-5.86,0 L5.86,0 " class="primitive"/>
  </g>
  <g transform="translate(23.17,41.73)" stroke="#5D7F5D">
    <path fill="none" d="M-0.45,0 L0.45,0 " class="primitive"/>
  </g>
  <g transform="translate(24.53,44.38)" stroke="#5D7F5D">
    <path fill="none" d="M-1.27,0 L1.27,0 " class="primitive"/>
  </g>
  <g transform="translate(23.82,47.03)" stroke="#5D7F5D">
    <path fill="none" d="M-0.3,0 L0.3,0 " class="primitive"/>
  </g>
  <g transform="translate(24.76,49.68)" stroke="#A45DFE">
    <path fill="none" d="M-0.1,0 L0.1,0 " class="primitive"/>
  </g>
  <g transform="translate(25.13,52.32)" stroke="#5D7F5D">
    <path fill="none" d="M-0.29,0 L0.29,0 " class="primitive"/>
  </g>
  <g transform="translate(26.79,54.97)" stroke="#5D7F5D">
    <path fill="none" d="M-0.81,0 L0.81,0 " class="primitive"/>
  </g>
  <g transform="translate(27.57,57.62)" stroke="#5D7F5D">
    <path fill="none" d="M-0.21,0 L0.21,0 " class="primitive"/>
  </g>
  <g transform="translate(28.6,60.27)" stroke="#5D7F5D">
    <path fill="none" d="M-1.22,0 L1.22,0 " class="primitive"/>
  </g>
  <g transform="translate(33.35,62.92)" stroke="#5D7F5D">
    <path fill="none" d="M-3.52,0 L3.52,0 " class="primitive"/>
  </g>
  <g transform="translate(35.22,65.57)" stroke="#A45DFE">
    <path fill="none" d="M-4.03,0 L4.03,0 " class="primitive"/>
  </g>
  <g transform="translate(42,68.22)" stroke="#5D7F5D">
    <path fill="none" d="M-3.07,0 L3.07,0 " class="primitive"/>
  </g>
  <g transform="translate(42.85,70.87)" stroke="#5D7F5D">
    <path fill="none" d="M-2.38,0 L2.38,0 " class="primitive"/>
  </g>
  <g transform="translate(45.91,73.52)" stroke="#5D7F5D">
    <path fill="none" d="M-0.91,0 L0.91,0 " class="primitive"/>
  </g>
  <g transform="translate(45.67,76.17)" stroke="#5D7F5D">
    <path fill="none" d="M-0.13,0 L0.13,0 " class="primitive"/>
  </g>
  <g transform="translate(49.67,78.82)" stroke="#5D7F5D">
    <path fill="none" d="M-0.03,0 L0.03,0 " class="primitive"/>
  </g>
  <g transform="translate(58.93,81.47)" stroke="#5D7F5D">
    <path fill="none" d="M-0.02,0 L0.02,0 " class="primitive"/>
  </g>
  <g transform="translate(59.87,84.12)" stroke="#5D7F5D">
    <path fill="none" d="M-0.73,0 L0.73,0 " class="primitive"/>
  </g>
  <g transform="translate(60.85,86.77)" stroke="#5D7F5D">
    <path fill="none" d="M-0.66,0 L0.66,0 " class="primitive"/>
  </g>
  <g transform="translate(64.4,89.42)" stroke="#5D7F5D">
    <path fill="none" d="M-1.24,0 L1.24,0 " class="primitive"/>
  </g>
  <g transform="translate(69.67,92.06)" stroke="#5D7F5D">
    <path fill="none" d="M-0.25,0 L0.25,0 " class="primitive"/>
  </g>
  <g transform="translate(71.49,94.71)" stroke="#5D7F5D">
    <path fill="none" d="M-0.02,0 L0.02,0 " class="primitive"/>
  </g>
  <g transform="translate(75.11,97.36)" stroke="#5D7F5D">
    <path fill="none" d="M-3.64,0 L3.64,0 " class="primitive"/>
  </g>
  <g transform="translate(70.45,96.04)" stroke="#5D7F5D">
    <path fill="none" d="M-1.03,0 L1.03,0 " class="primitive"/>
  </g>
  <g transform="translate(71.47,96.04)" stroke="#5D7F5D">
    <path fill="none" d="M0,1.32 L0,-1.32 " class="primitive"/>
  </g>
  <g transform="translate(66.29,94.05)" stroke="#5D7F5D">
    <path fill="none" d="M-3.13,0 L3.13,0 " class="primitive"/>
  </g>
  <g transform="translate(69.42,94.05)" stroke="#5D7F5D">
    <path fill="none" d="M0,1.99 L0,-1.99 " class="primitive"/>
  </g>
  <g transform="translate(61.68,91.73)" stroke="#A45DFE">
    <path fill="none" d="M-1.48,0 L1.48,0 " class="primitive"/>
  </g>
  <g transform="translate(63.16,91.73)" stroke="#A45DFE">
    <path fill="none" d="M0,2.32 L0,-2.32 " class="primitive"/>
  </g>
  <g transform="translate(59.67,89.25)" stroke="#5D7F5D">
    <path fill="none" d="M-0.53,0 L0.53,0 " class="primitive"/>
  </g>
  <g transform="translate(60.2,89.25)" stroke="#5D7F5D">
    <path fill="none" d="M0,2.48 L0,-2.48 " class="primitive"/>
  </g>
  <g transform="translate(59.02,86.68)" stroke="#A45DFE">
    <path fill="none" d="M-0.11,0 L0.11,0 " class="primitive"/>
  </g>
  <g transform="translate(59.13,86.68)" stroke="#A45DFE">
    <path fill="none" d="M0,2.57 L0,-2.57 " class="primitive"/>
  </g>
  <g transform="translate(54.27,84.08)" stroke="#5D7F5D">
    <path fill="none" d="M-4.63,0 L4.63,0 " class="primitive"/>
  </g>
  <g transform="translate(58.91,84.08)" stroke="#5D7F5D">
    <path fill="none" d="M0,2.61 L0,-2.61 " class="primitive"/>
  </g>
  <g transform="translate(47.59,81.45)" stroke="#5D7F5D">
    <path fill="none" d="M-2.05,0 L2.05,0 " class="primitive"/>
  </g>
  <g transform="translate(49.64,81.45)" stroke="#5D7F5D">
    <path fill="none" d="M0,2.63 L0,-2.63 " class="primitive"/>
  </g>
  <g transform="translate(45.26,78.81)" stroke="#5D7F5D">
    <path fill="none" d="M-0.27,0 L0.27,0 " class="primitive"/>
  </g>
  <g stroke-opacity="1" stroke-width="0.3" id="img-29b4c979-2">
    <g transform="translate(4.05,12.58)" stroke="#5D7F5D">
      <path fill="none" d="M-0.3,0 L0.3,0 " class="primitive"/>
    </g>
    <g transform="translate(4.35,12.58)" stroke="#5D7F5D">
      <path fill="none" d="M0,2.65 L0,-2.65 " class="primitive"/>
    </g>
    <g transform="translate(3.75,9.94)" stroke="#000000">
      <path fill="none" d="M0,0 L0,0 " class="primitive"/>
    </g>
    <g transform="translate(3.75,9.94)" stroke="#000000">
      <path fill="none" d="M0,2.65 L0,-2.65 " class="primitive"/>
    </g>
    <g transform="translate(3.75,7.29)" stroke="#000000">
      <path fill="none" d="M0,0 L0,0 " class="primitive"/>
    </g>
    <g transform="translate(3.75,7.29)" stroke="#000000">
      <path fill="none" d="M0,2.65 L0,-2.65 " class="primitive"/>
    </g>
  </g>
  <g stroke-opacity="1" stroke-width="0.3" id="img-29b4c979-3">
    <g transform="translate(45.26,78.81)" stroke="#5D7F5D">
      <path fill="none" d="M-0.27,0 L0.27,0 " class="primitive"/>
    </g>
    <g transform="translate(45.54,78.81)" stroke="#5D7F5D">
      <path fill="none" d="M0,2.64 L0,-2.64 " class="primitive"/>
    </g>
    <g transform="translate(42.73,76.16)" stroke="#5D7F5D">
      <path fill="none" d="M-2.26,0 L2.26,0 " class="primitive"/>
    </g>
    <g transform="translate(44.99,76.16)" stroke="#5D7F5D">
      <path fill="none" d="M0,2.64 L0,-2.64 " class="primitive"/>
    </g>
    <g transform="translate(39.7,73.52)" stroke="#5D7F5D">
      <path fill="none" d="M-0.77,0 L0.77,0 " class="primitive"/>
    </g>
    <g transform="translate(40.48,73.52)" stroke="#5D7F5D">
      <path fill="none" d="M0,2.65 L0,-2.65 " class="primitive"/>
    </g>
    <g transform="translate(35.06,70.87)" stroke="#5D7F5D">
      <path fill="none" d="M-3.87,0 L3.87,0 " class="primitive"/>
    </g>
    <g transform="translate(38.93,70.87)" stroke="#5D7F5D">
      <path fill="none" d="M0,2.65 L0,-2.65 " class="primitive"/>
    </g>
    <g transform="translate(30.51,68.22)" stroke="#5D7F5D">
      <path fill="none" d="M-0.68,0 L0.68,0 " class="primitive"/>
    </g>
    <g transform="translate(31.2,68.22)" stroke="#5D7F5D">
      <path fill="none" d="M0,2.65 L0,-2.65 " class="primitive"/>
    </g>
    <g transform="translate(28.61,65.57)" stroke="#5D7F5D">
      <path fill="none" d="M-1.22,0 L1.22,0 " class="primitive"/>
    </g>
    <g transform="translate(29.83,65.57)" stroke="#5D7F5D">
      <path fill="none" d="M0,2.65 L0,-2.65 " class="primitive"/>
    </g>
    <g transform="translate(27.37,62.92)" stroke="#5D7F5D">
      <path fill="none" d="M-0.01,0 L0.01,0 " class="primitive"/>
    </g>
    <g transform="translate(27.39,62.92)" stroke="#5D7F5D">
      <path fill="none" d="M0,2.65 L0,-2.65 " class="primitive"/>
    </g>
    <g transform="translate(26.67,60.27)" stroke="#5D7F5D">
      <path fill="none" d="M-0.69,0 L0.69,0 " class="primitive"/>
    </g>
    <g transform="translate(27.36,60.27)" stroke="#5D7F5D">
      <path fill="none" d="M0,2.65 L0,-2.65 " class="primitive"/>
    </g>
    <g transform="translate(25.41,57.62)" stroke="#5D7F5D">
      <path fill="none" d="M-0.57,0 L0.57,0 " class="primitive"/>
    </g>
    <g transform="translate(25.98,57.62)" stroke="#5D7F5D">
      <path fill="none" d="M0,2.65 L0,-2.65 " class="primitive"/>
    </g>
    <g transform="translate(24.75,54.97)" stroke="#5D7F5D">
      <path fill="none" d="M-0.1,0 L0.1,0 " class="primitive"/>
    </g>
    <g transform="translate(24.84,54.97)" stroke="#5D7F5D">
      <path fill="none" d="M0,2.65 L0,-2.65 " class="primitive"/>
    </g>
    <g transform="translate(24.09,52.32)" stroke="#5D7F5D">
      <path fill="none" d="M-0.57,0 L0.57,0 " class="primitive"/>
    </g>
    <g transform="translate(24.65,52.32)" stroke="#5D7F5D">
      <path fill="none" d="M0,2.65 L0,-2.65 " class="primitive"/>
    </g>
    <g transform="translate(23.39,49.68)" stroke="#5D7F5D">
      <path fill="none" d="M-0.13,0 L0.13,0 " class="primitive"/>
    </g>
    <g transform="translate(23.52,49.68)" stroke="#5D7F5D">
      <path fill="none" d="M0,2.65 L0,-2.65 " class="primitive"/>
    </g>
    <g transform="translate(23,47.03)" stroke="#5D7F5D">
      <path fill="none" d="M-0.27,0 L0.27,0 " class="primitive"/>
    </g>
    <g transform="translate(23.27,47.03)" stroke="#5D7F5D">
      <path fill="none" d="M0,2.65 L0,-2.65 " class="primitive"/>
    </g>
    <g transform="translate(22.64,44.38)" stroke="#5D7F5D">
      <path fill="none" d="M-0.09,0 L0.09,0 " class="primitive"/>
    </g>
    <g transform="translate(22.73,44.38)" stroke="#5D7F5D">
      <path fill="none" d="M0,2.65 L0,-2.65 " class="primitive"/>
    </g>
    <g transform="translate(22.43,41.73)" stroke="#5D7F5D">
      <path fill="none" d="M-0.13,0 L0.13,0 " class="primitive"/>
    </g>
    <g transform="translate(22.56,41.73)" stroke="#5D7F5D">
      <path fill="none" d="M0,2.65 L0,-2.65 " class="primitive"/>
    </g>
    <g transform="translate(22.07,39.08)" stroke="#5D7F5D">
      <path fill="none" d="M-0.23,0 L0.23,0 " class="primitive"/>
    </g>
    <g transform="translate(22.3,39.08)" stroke="#5D7F5D">
      <path fill="none" d="M0,2.65 L0,-2.65 " class="primitive"/>
    </g>
    <g transform="translate(20.81,36.43)" stroke="#5D7F5D">
      <path fill="none" d="M-1.03,0 L1.03,0 " class="primitive"/>
    </g>
    <g transform="translate(21.84,36.43)" stroke="#5D7F5D">
      <path fill="none" d="M0,2.65 L0,-2.65 " class="primitive"/>
    </g>
    <g transform="translate(18.85,33.78)" stroke="#5D7F5D">
      <path fill="none" d="M-0.92,0 L0.92,0 " class="primitive"/>
    </g>
    <g transform="translate(19.77,33.78)" stroke="#5D7F5D">
      <path fill="none" d="M0,2.65 L0,-2.65 " class="primitive"/>
    </g>
    <g transform="translate(17.75,31.13)" stroke="#5D7F5D">
      <path fill="none" d="M-0.17,0 L0.17,0 " class="primitive"/>
    </g>
    <g transform="translate(17.93,31.13)" stroke="#5D7F5D">
      <path fill="none" d="M0,2.65 L0,-2.65 " class="primitive"/>
    </g>
    <g transform="translate(17.58,28.48)" stroke="#5D7F5D">
      <path fill="none" d="M-0,0 L0,0 " class="primitive"/>
    </g>
    <g transform="translate(17.58,28.48)" stroke="#5D7F5D">
      <path fill="none" d="M0,2.65 L0,-2.65 " class="primitive"/>
    </g>
    <g transform="translate(17.05,25.83)" stroke="#5D7F5D">
      <path fill="none" d="M-0.53,0 L0.53,0 " class="primitive"/>
    </g>
    <g transform="translate(17.58,25.83)" stroke="#5D7F5D">
      <path fill="none" d="M0,2.65 L0,-2.65 " class="primitive"/>
    </g>
    <g transform="translate(15.25,23.18)" stroke="#5D7F5D">
      <path fill="none" d="M-1.28,0 L1.28,0 " class="primitive"/>
    </g>
    <g transform="translate(16.53,23.18)" stroke="#5D7F5D">
      <path fill="none" d="M0,2.65 L0,-2.65 " class="primitive"/>
    </g>
    <g transform="translate(12.6,20.53)" stroke="#A45DFE">
      <path fill="none" d="M-1.37,0 L1.37,0 " class="primitive"/>
    </g>
    <g transform="translate(13.97,20.53)" stroke="#A45DFE">
      <path fill="none" d="M0,2.65 L0,-2.65 " class="primitive"/>
    </g>
    <g transform="translate(10.69,17.88)" stroke="#A45DFE">
      <path fill="none" d="M-0.53,0 L0.53,0 " class="primitive"/>
    </g>
    <g transform="translate(11.22,17.88)" stroke="#A45DFE">
      <path fill="none" d="M0,2.65 L0,-2.65 " class="primitive"/>
    </g>
    <g transform="translate(7.25,15.23)" stroke="#5D7F5D">
      <path fill="none" d="M-2.91,0 L2.91,0 " class="primitive"/>
    </g>
    <g transform="translate(10.16,15.23)" stroke="#5D7F5D">
      <path fill="none" d="M0,2.65 L0,-2.65 " class="primitive"/>
    </g>
    <g transform="translate(4.05,12.58)" stroke="#5D7F5D">
      <path fill="none" d="M-0.3,0 L0.3,0 " class="primitive"/>
    </g>
  </g>
</g>
<g fill-opacity="1" id="img-29b4c979-4">
  <g transform="translate(4.94,4.64)" fill="#5D7F5D">
    <circle cx="0" cy="0" r="0.75" class="primitive"/>
  </g>
  <g transform="translate(5.74,7.29)" fill="#A45DFE">
    <circle cx="0" cy="0" r="0.75" class="primitive"/>
  </g>
  <g transform="translate(13.47,9.94)" fill="#A45DFE">
    <circle cx="0" cy="0" r="0.75" class="primitive"/>
  </g>
  <g transform="translate(13.5,12.58)" fill="#5D7F5D">
    <circle cx="0" cy="0" r="0.75" class="primitive"/>
  </g>
  <g transform="translate(12.46,15.23)" fill="#5D7F5D">
    <circle cx="0" cy="0" r="0.75" class="primitive"/>
  </g>
  <g transform="translate(14.16,17.88)" fill="#5D7F5D">
    <circle cx="0" cy="0" r="0.75" class="primitive"/>
  </g>
  <g transform="translate(17.13,20.53)" fill="#5D7F5D">
    <circle cx="0" cy="0" r="0.75" class="primitive"/>
  </g>
  <g transform="translate(17.77,23.18)" fill="#5D7F5D">
    <circle cx="0" cy="0" r="0.75" class="primitive"/>
  </g>
  <g transform="translate(18.04,25.83)" fill="#5D7F5D">
    <circle cx="0" cy="0" r="0.75" class="primitive"/>
  </g>
  <g transform="translate(18.93,28.48)" fill="#5D7F5D">
    <circle cx="0" cy="0" r="0.75" class="primitive"/>
  </g>
  <g transform="translate(19.81,31.13)" fill="#5D7F5D">
    <circle cx="0" cy="0" r="0.75" class="primitive"/>
  </g>
  <g transform="translate(28.5,33.78)" fill="#5D7F5D">
    <circle cx="0" cy="0" r="0.75" class="primitive"/>
  </g>
  <g transform="translate(22.83,36.43)" fill="#A45DFE">
    <circle cx="0" cy="0" r="0.75" class="primitive"/>
  </g>
  <g transform="translate(34.27,39.08)" fill="#5D7F5D">
    <circle cx="0" cy="0" r="0.75" class="primitive"/>
  </g>
  <g transform="translate(23.62,41.73)" fill="#5D7F5D">
    <circle cx="0" cy="0" r="0.75" class="primitive"/>
  </g>
  <g transform="translate(25.8,44.38)" fill="#5D7F5D">
    <circle cx="0" cy="0" r="0.75" class="primitive"/>
  </g>
  <g transform="translate(24.12,47.03)" fill="#5D7F5D">
    <circle cx="0" cy="0" r="0.75" class="primitive"/>
  </g>
  <g transform="translate(24.86,49.68)" fill="#A45DFE">
    <circle cx="0" cy="0" r="0.75" class="primitive"/>
  </g>
  <g transform="translate(25.42,52.32)" fill="#5D7F5D">
    <circle cx="0" cy="0" r="0.75" class="primitive"/>
  </g>
  <g transform="translate(27.59,54.97)" fill="#5D7F5D">
    <circle cx="0" cy="0" r="0.75" class="primitive"/>
  </g>
  <g transform="translate(27.79,57.62)" fill="#5D7F5D">
    <circle cx="0" cy="0" r="0.75" class="primitive"/>
  </g>
  <g transform="translate(29.82,60.27)" fill="#5D7F5D">
    <circle cx="0" cy="0" r="0.75" class="primitive"/>
  </g>
  <g transform="translate(36.87,62.92)" fill="#5D7F5D">
    <circle cx="0" cy="0" r="0.75" class="primitive"/>
  </g>
  <g transform="translate(39.25,65.57)" fill="#A45DFE">
    <circle cx="0" cy="0" r="0.75" class="primitive"/>
  </g>
  <g transform="translate(45.08,68.22)" fill="#5D7F5D">
    <circle cx="0" cy="0" r="0.75" class="primitive"/>
  </g>
  <g transform="translate(45.23,70.87)" fill="#5D7F5D">
    <circle cx="0" cy="0" r="0.75" class="primitive"/>
  </g>
  <g transform="translate(46.82,73.52)" fill="#5D7F5D">
    <circle cx="0" cy="0" r="0.75" class="primitive"/>
  </g>
  <g transform="translate(45.8,76.17)" fill="#5D7F5D">
    <circle cx="0" cy="0" r="0.75" class="primitive"/>
  </g>
  <g transform="translate(49.7,78.82)" fill="#5D7F5D">
    <circle cx="0" cy="0" r="0.75" class="primitive"/>
  </g>
  <g transform="translate(58.95,81.47)" fill="#5D7F5D">
    <circle cx="0" cy="0" r="0.75" class="primitive"/>
  </g>
  <g transform="translate(60.6,84.12)" fill="#5D7F5D">
    <circle cx="0" cy="0" r="0.75" class="primitive"/>
  </g>
  <g transform="translate(61.51,86.77)" fill="#5D7F5D">
    <circle cx="0" cy="0" r="0.75" class="primitive"/>
  </g>
  <g transform="translate(65.64,89.42)" fill="#5D7F5D">
    <circle cx="0" cy="0" r="0.75" class="primitive"/>
  </g>
  <g transform="translate(69.91,92.06)" fill="#5D7F5D">
    <circle cx="0" cy="0" r="0.75" class="primitive"/>
  </g>
  <g transform="translate(71.51,94.71)" fill="#5D7F5D">
    <circle cx="0" cy="0" r="0.75" class="primitive"/>
  </g>
  <g transform="translate(78.75,97.36)" fill="#5D7F5D">
    <circle cx="0" cy="0" r="0.75" class="primitive"/>
  </g>
  <g transform="translate(71.47,96.04)" fill="#5D7F5D">
    <circle cx="0" cy="0" r="0.75" class="primitive"/>
  </g>
  <g transform="translate(69.42,94.05)" fill="#5D7F5D">
    <circle cx="0" cy="0" r="0.75" class="primitive"/>
  </g>
  <g transform="translate(63.16,91.73)" fill="#A45DFE">
    <circle cx="0" cy="0" r="0.75" class="primitive"/>
  </g>
  <g transform="translate(60.2,89.25)" fill="#5D7F5D">
    <circle cx="0" cy="0" r="0.75" class="primitive"/>
  </g>
  <g transform="translate(59.13,86.68)" fill="#A45DFE">
    <circle cx="0" cy="0" r="0.75" class="primitive"/>
  </g>
  <g transform="translate(58.91,84.08)" fill="#5D7F5D">
    <circle cx="0" cy="0" r="0.75" class="primitive"/>
  </g>
  <g transform="translate(49.64,81.45)" fill="#5D7F5D">
    <circle cx="0" cy="0" r="0.75" class="primitive"/>
  </g>
  <g transform="translate(45.54,78.81)" fill="#5D7F5D">
    <circle cx="0" cy="0" r="0.75" class="primitive"/>
  </g>
  <g transform="translate(44.99,76.16)" fill="#5D7F5D">
    <circle cx="0" cy="0" r="0.75" class="primitive"/>
  </g>
  <g transform="translate(40.48,73.52)" fill="#5D7F5D">
    <circle cx="0" cy="0" r="0.75" class="primitive"/>
  </g>
  <g transform="translate(38.93,70.87)" fill="#5D7F5D">
    <circle cx="0" cy="0" r="0.75" class="primitive"/>
  </g>
  <g transform="translate(31.2,68.22)" fill="#5D7F5D">
    <circle cx="0" cy="0" r="0.75" class="primitive"/>
  </g>
  <g transform="translate(29.83,65.57)" fill="#5D7F5D">
    <circle cx="0" cy="0" r="0.75" class="primitive"/>
  </g>
  <g transform="translate(27.39,62.92)" fill="#5D7F5D">
    <circle cx="0" cy="0" r="0.75" class="primitive"/>
  </g>
  <g transform="translate(27.36,60.27)" fill="#5D7F5D">
    <circle cx="0" cy="0" r="0.75" class="primitive"/>
  </g>
  <g fill-opacity="1" id="img-29b4c979-5">
    <g transform="translate(27.36,60.27)" fill="#5D7F5D">
      <circle cx="0" cy="0" r="0.75" class="primitive"/>
    </g>
    <g transform="translate(25.98,57.62)" fill="#5D7F5D">
      <circle cx="0" cy="0" r="0.75" class="primitive"/>
    </g>
    <g transform="translate(24.84,54.97)" fill="#5D7F5D">
      <circle cx="0" cy="0" r="0.75" class="primitive"/>
    </g>
    <g transform="translate(24.65,52.32)" fill="#5D7F5D">
      <circle cx="0" cy="0" r="0.75" class="primitive"/>
    </g>
    <g transform="translate(23.52,49.68)" fill="#5D7F5D">
      <circle cx="0" cy="0" r="0.75" class="primitive"/>
    </g>
    <g transform="translate(23.27,47.03)" fill="#5D7F5D">
      <circle cx="0" cy="0" r="0.75" class="primitive"/>
    </g>
    <g transform="translate(22.73,44.38)" fill="#5D7F5D">
      <circle cx="0" cy="0" r="0.75" class="primitive"/>
    </g>
    <g transform="translate(22.56,41.73)" fill="#5D7F5D">
      <circle cx="0" cy="0" r="0.75" class="primitive"/>
    </g>
    <g transform="translate(22.3,39.08)" fill="#5D7F5D">
      <circle cx="0" cy="0" r="0.75" class="primitive"/>
    </g>
    <g transform="translate(21.84,36.43)" fill="#5D7F5D">
      <circle cx="0" cy="0" r="0.75" class="primitive"/>
    </g>
    <g transform="translate(19.77,33.78)" fill="#5D7F5D">
      <circle cx="0" cy="0" r="0.75" class="primitive"/>
    </g>
    <g transform="translate(17.93,31.13)" fill="#5D7F5D">
      <circle cx="0" cy="0" r="0.75" class="primitive"/>
    </g>
    <g transform="translate(17.58,28.48)" fill="#5D7F5D">
      <circle cx="0" cy="0" r="0.75" class="primitive"/>
    </g>
    <g transform="translate(17.58,25.83)" fill="#5D7F5D">
      <circle cx="0" cy="0" r="0.75" class="primitive"/>
    </g>
    <g transform="translate(16.53,23.18)" fill="#5D7F5D">
      <circle cx="0" cy="0" r="0.75" class="primitive"/>
    </g>
    <g transform="translate(13.97,20.53)" fill="#A45DFE">
      <circle cx="0" cy="0" r="0.75" class="primitive"/>
    </g>
    <g transform="translate(11.22,17.88)" fill="#A45DFE">
      <circle cx="0" cy="0" r="0.75" class="primitive"/>
    </g>
    <g transform="translate(10.16,15.23)" fill="#5D7F5D">
      <circle cx="0" cy="0" r="0.75" class="primitive"/>
    </g>
    <g transform="translate(4.35,12.58)" fill="#5D7F5D">
      <circle cx="0" cy="0" r="0.75" class="primitive"/>
    </g>
    <g transform="translate(3.75,9.94)" fill="#000000">
      <circle cx="0" cy="0" r="0.75" class="primitive"/>
    </g>
    <g transform="translate(3.75,7.29)" fill="#000000">
      <circle cx="0" cy="0" r="0.75" class="primitive"/>
    </g>
  </g>
</g>
<g stroke-opacity="1" fill-opacity="1" font-size="1.41" stroke-width="0.1" id="img-29b4c979-6">
  <g transform="translate(6.81,4.64)" stroke="#000000">
    <g class="primitive">
      <text dy="0.35em">N35</text>
    </g>
  </g>
  <g transform="translate(7.62,7.29)" stroke="#000000">
    <g class="primitive">
      <text dy="0.35em">N34</text>
    </g>
  </g>
  <g transform="translate(15.34,9.94)" stroke="#000000">
    <g class="primitive">
      <text dy="0.35em">N33</text>
    </g>
  </g>
  <g transform="translate(15.37,12.58)" stroke="#000000">
    <g class="primitive">
      <text dy="0.35em">N32</text>
    </g>
  </g>
  <g transform="translate(14.33,15.23)" stroke="#000000">
    <g class="primitive">
      <text dy="0.35em">N31</text>
    </g>
  </g>
  <g transform="translate(16.03,17.88)" stroke="#000000">
    <g class="primitive">
      <text dy="0.35em">N30</text>
    </g>
  </g>
  <g transform="translate(19,20.53)" stroke="#000000">
    <g class="primitive">
      <text dy="0.35em">N29</text>
    </g>
  </g>
  <g transform="translate(19.65,23.18)" stroke="#000000">
    <g class="primitive">
      <text dy="0.35em">N28</text>
    </g>
  </g>
  <g transform="translate(19.91,25.83)" stroke="#000000">
    <g class="primitive">
      <text dy="0.35em">N27</text>
    </g>
  </g>
  <g transform="translate(20.8,28.48)" stroke="#000000">
    <g class="primitive">
      <text dy="0.35em">N26</text>
    </g>
  </g>
  <g transform="translate(21.69,31.13)" stroke="#000000">
    <g class="primitive">
      <text dy="0.35em">N25</text>
    </g>
  </g>
  <g transform="translate(30.38,33.78)" stroke="#000000">
    <g class="primitive">
      <text dy="0.35em">N24</text>
    </g>
  </g>
  <g transform="translate(24.71,36.43)" stroke="#000000">
    <g class="primitive">
      <text dy="0.35em">N23</text>
    </g>
  </g>
  <g transform="translate(36.14,39.08)" stroke="#000000">
    <g class="primitive">
      <text dy="0.35em">N22</text>
    </g>
  </g>
  <g transform="translate(25.49,41.73)" stroke="#000000">
    <g class="primitive">
      <text dy="0.35em">N21</text>
    </g>
  </g>
  <g transform="translate(27.67,44.38)" stroke="#000000">
    <g class="primitive">
      <text dy="0.35em">N20</text>
    </g>
  </g>
  <g transform="translate(25.99,47.03)" stroke="#000000">
    <g class="primitive">
      <text dy="0.35em">N19</text>
    </g>
  </g>
  <g transform="translate(26.74,49.68)" stroke="#000000">
    <g class="primitive">
      <text dy="0.35em">N18</text>
    </g>
  </g>
  <g transform="translate(27.29,52.32)" stroke="#000000">
    <g class="primitive">
      <text dy="0.35em">N17</text>
    </g>
  </g>
  <g transform="translate(29.47,54.97)" stroke="#000000">
    <g class="primitive">
      <text dy="0.35em">N16</text>
    </g>
  </g>
  <g transform="translate(29.66,57.62)" stroke="#000000">
    <g class="primitive">
      <text dy="0.35em">N15</text>
    </g>
  </g>
  <g transform="translate(31.69,60.27)" stroke="#000000">
    <g class="primitive">
      <text dy="0.35em">N14</text>
    </g>
  </g>
  <g transform="translate(38.75,62.92)" stroke="#000000">
    <g class="primitive">
      <text dy="0.35em">N13</text>
    </g>
  </g>
  <g transform="translate(41.13,65.57)" stroke="#000000">
    <g class="primitive">
      <text dy="0.35em">N12</text>
    </g>
  </g>
  <g transform="translate(46.95,68.22)" stroke="#000000">
    <g class="primitive">
      <text dy="0.35em">N11</text>
    </g>
  </g>
  <g transform="translate(47.11,70.87)" stroke="#000000">
    <g class="primitive">
      <text dy="0.35em">N10</text>
    </g>
  </g>
  <g transform="translate(48.69,73.52)" stroke="#000000">
    <g class="primitive">
      <text dy="0.35em">N9</text>
    </g>
  </g>
  <g transform="translate(47.67,76.17)" stroke="#000000">
    <g class="primitive">
      <text dy="0.35em">N8</text>
    </g>
  </g>
  <g transform="translate(51.58,78.82)" stroke="#000000">
    <g class="primitive">
      <text dy="0.35em">N7</text>
    </g>
  </g>
  <g transform="translate(60.82,81.47)" stroke="#000000">
    <g class="primitive">
      <text dy="0.35em">N6</text>
    </g>
  </g>
  <g transform="translate(62.48,84.12)" stroke="#000000">
    <g class="primitive">
      <text dy="0.35em">N5</text>
    </g>
  </g>
  <g transform="translate(63.38,86.77)" stroke="#000000">
    <g class="primitive">
      <text dy="0.35em">N4</text>
    </g>
  </g>
  <g transform="translate(67.52,89.42)" stroke="#000000">
    <g class="primitive">
      <text dy="0.35em">N3</text>
    </g>
  </g>
  <g transform="translate(71.79,92.06)" stroke="#000000">
    <g class="primitive">
      <text dy="0.35em">N2</text>
    </g>
  </g>
  <g transform="translate(73.38,94.71)" stroke="#000000">
    <g class="primitive">
      <text dy="0.35em">N0</text>
    </g>
  </g>
  <g transform="translate(80.62,97.36)" stroke="#000000">
    <g class="primitive">
      <text dy="0.35em">N1</text>
    </g>
  </g>
  <g transform="translate(73.35,96.04)" stroke="#000000">
    <g class="primitive">
      <text dy="0.35em">N36</text>
    </g>
  </g>
  <g transform="translate(71.29,94.05)" stroke="#000000">
    <g class="primitive">
      <text dy="0.35em">N37</text>
    </g>
  </g>
  <g transform="translate(65.03,91.73)" stroke="#000000">
    <g class="primitive">
      <text dy="0.35em">N38</text>
    </g>
  </g>
  <g transform="translate(62.07,89.25)" stroke="#000000">
    <g class="primitive">
      <text dy="0.35em">N39</text>
    </g>
  </g>
  <g transform="translate(61.01,86.68)" stroke="#000000">
    <g class="primitive">
      <text dy="0.35em">N40</text>
    </g>
  </g>
  <g transform="translate(60.78,84.08)" stroke="#000000">
    <g class="primitive">
      <text dy="0.35em">N41</text>
    </g>
  </g>
  <g transform="translate(51.52,81.45)" stroke="#000000">
    <g class="primitive">
      <text dy="0.35em">N42</text>
    </g>
  </g>
  <g transform="translate(47.41,78.81)" stroke="#000000">
    <g class="primitive">
      <text dy="0.35em">N43</text>
    </g>
  </g>
  <g transform="translate(46.87,76.16)" stroke="#000000">
    <g class="primitive">
      <text dy="0.35em">N44</text>
    </g>
  </g>
  <g transform="translate(42.35,73.52)" stroke="#000000">
    <g class="primitive">
      <text dy="0.35em">N45</text>
    </g>
  </g>
  <g transform="translate(40.81,70.87)" stroke="#000000">
    <g class="primitive">
      <text dy="0.35em">N46</text>
    </g>
  </g>
  <g transform="translate(33.07,68.22)" stroke="#000000">
    <g class="primitive">
      <text dy="0.35em">N47</text>
    </g>
  </g>
  <g transform="translate(31.7,65.57)" stroke="#000000">
    <g class="primitive">
      <text dy="0.35em">N48</text>
    </g>
  </g>
  <g transform="translate(29.26,62.92)" stroke="#000000">
    <g class="primitive">
      <text dy="0.35em">N49</text>
    </g>
  </g>
  <g transform="translate(29.24,60.27)" stroke="#000000">
    <g class="primitive">
      <text dy="0.35em">N50</text>
    </g>
  </g>
  <g stroke-opacity="1" fill-opacity="1" font-size="1.41" stroke-width="0.1" id="img-29b4c979-7">
    <g transform="translate(29.24,60.27)" stroke="#000000">
      <g class="primitive">
        <text dy="0.35em">N50</text>
      </g>
    </g>
    <g transform="translate(27.85,57.62)" stroke="#000000">
      <g class="primitive">
        <text dy="0.35em">N51</text>
      </g>
    </g>
    <g transform="translate(26.72,54.97)" stroke="#000000">
      <g class="primitive">
        <text dy="0.35em">N52</text>
      </g>
    </g>
    <g transform="translate(26.53,52.32)" stroke="#000000">
      <g class="primitive">
        <text dy="0.35em">N53</text>
      </g>
    </g>
    <g transform="translate(25.39,49.68)" stroke="#000000">
      <g class="primitive">
        <text dy="0.35em">N54</text>
      </g>
    </g>
    <g transform="translate(25.14,47.03)" stroke="#000000">
      <g class="primitive">
        <text dy="0.35em">N55</text>
      </g>
    </g>
    <g transform="translate(24.6,44.38)" stroke="#000000">
      <g class="primitive">
        <text dy="0.35em">N56</text>
      </g>
    </g>
    <g transform="translate(24.43,41.73)" stroke="#000000">
      <g class="primitive">
        <text dy="0.35em">N57</text>
      </g>
    </g>
    <g transform="translate(24.18,39.08)" stroke="#000000">
      <g class="primitive">
        <text dy="0.35em">N58</text>
      </g>
    </g>
    <g transform="translate(23.71,36.43)" stroke="#000000">
      <g class="primitive">
        <text dy="0.35em">N59</text>
      </g>
    </g>
    <g transform="translate(21.65,33.78)" stroke="#000000">
      <g class="primitive">
        <text dy="0.35em">N60</text>
      </g>
    </g>
    <g transform="translate(19.8,31.13)" stroke="#000000">
      <g class="primitive">
        <text dy="0.35em">N61</text>
      </g>
    </g>
    <g transform="translate(19.46,28.48)" stroke="#000000">
      <g class="primitive">
        <text dy="0.35em">N62</text>
      </g>
    </g>
    <g transform="translate(19.45,25.83)" stroke="#000000">
      <g class="primitive">
        <text dy="0.35em">N63</text>
      </g>
    </g>
    <g transform="translate(18.4,23.18)" stroke="#000000">
      <g class="primitive">
        <text dy="0.35em">N64</text>
      </g>
    </g>
    <g transform="translate(15.84,20.53)" stroke="#000000">
      <g class="primitive">
        <text dy="0.35em">N65</text>
      </g>
    </g>
    <g transform="translate(13.1,17.88)" stroke="#000000">
      <g class="primitive">
        <text dy="0.35em">N66</text>
      </g>
    </g>
    <g transform="translate(12.03,15.23)" stroke="#000000">
      <g class="primitive">
        <text dy="0.35em">N67</text>
      </g>
    </g>
    <g transform="translate(6.22,12.58)" stroke="#000000">
      <g class="primitive">
        <text dy="0.35em">N68</text>
      </g>
    </g>
    <g transform="translate(5.63,9.94)" stroke="#000000">
      <g class="primitive">
        <text dy="0.35em"></text>
      </g>
    </g>
    <g transform="translate(5.63,7.29)" stroke="#000000">
      <g class="primitive">
        <text dy="0.35em"></text>
      </g>
    </g>
  </g>
</g>
</svg>
