<?xml version="1.0" encoding="UTF-8"?>
<svg xmlns="http://www.w3.org/2000/svg"
     xmlns:xlink="http://www.w3.org/1999/xlink"
     version="1.2"
     width="150mm" height="82mm" viewBox="0 0 150 82"
     stroke="none"
     fill="#000000"
     stroke-width="0.3"
     font-size="3.88"
>
<defs>
  <marker id="arrow" markerWidth="15" markerHeight="7" refX="5" refY="3.5" orient="auto" markerUnits="strokeWidth">
    <path d="M0,0 L15,3.5 L0,7 z" stroke="context-stroke" fill="context-stroke"/>
  </marker>
</defs>
<g stroke-opacity="1" stroke-width="0.3" id="img-29b4c979-1">
  <g transform="translate(4.09,3.73)" stroke="#2F5F96">
    <path fill="none" d="M-0.34,0 L0.34,0 " class="primitive"/>
  </g>
  <g transform="translate(7.23,6.71)" stroke="#2F5F96">
    <path fill="none" d="M-3.48,0 L3.48,0 " class="primitive"/>
  </g>
  <g transform="translate(15.87,9.69)" stroke="#8E318F">
    <path fill="none" d="M-4.74,0 L4.74,0 " class="primitive"/>
  </g>
  <g transform="translate(14.57,12.67)" stroke="#2F5F96">
    <path fill="none" d="M-0.55,0 L0.55,0 " class="primitive"/>
  </g>
  <g transform="translate(26.33,15.65)" stroke="#2F5F96">
    <path fill="none" d="M-3.28,0 L3.28,0 " class="primitive"/>
  </g>
  <g transform="translate(28.54,18.64)" stroke="#2F5F96">
    <path fill="none" d="M-1.52,0 L1.52,0 " class="primitive"/>
  </g>
  <g transform="translate(31.45,21.62)" stroke="#2F5F96">
    <path fill="none" d="M-1.88,0 L1.88,0 " class="primitive"/>
  </g>
  <g transform="translate(33.79,24.6)" stroke="#2F5F96">
    <path fill="none" d="M-0.45,0 L0.45,0 " class="primitive"/>
  </g>
  <g transform="translate(36.86,27.58)" stroke="#2F5F96">
    <path fill="none" d="M-1.27,0 L1.27,0 " class="primitive"/>
  </g>
  <g transform="translate(35.8,30.56)" stroke="#2F5F96">
    <path fill="none" d="M-0.07,0 L0.07,0 " class="primitive"/>
  </g>
  <g transform="translate(43.51,33.55)" stroke="#2F5F96">
    <path fill="none" d="M-2.49,0 L2.49,0 " class="primitive"/>
  </g>
  <g transform="translate(43.81,36.53)" stroke="#2F5F96">
    <path fill="none" d="M-0.47,0 L0.47,0 " class="primitive"/>
  </g>
  <g transform="translate(54.41,39.51)" stroke="#2F5F96">
    <path fill="none" d="M-1.54,0 L1.54,0 " class="primitive"/>
  </g>
  <g transform="translate(56.57,42.49)" stroke="#2F5F96">
    <path fill="none" d="M-3.62,0 L3.62,0 " class="primitive"/>
  </g>
  <g transform="translate(53.73,45.47)" stroke="#8E318F">
    <path fill="none" d="M-0.14,0 L0.14,0 " class="primitive"/>
  </g>
  <g transform="translate(62.22,48.45)" stroke="#2F5F96">
    <path fill="none" d="M-2.05,0 L2.05,0 " class="primitive"/>
  </g>
  <g transform="translate(62.34,51.44)" stroke="#2F5F96">
    <path fill="none" d="M-1.9,0 L1.9,0 " class="primitive"/>
  </g>
  <g transform="translate(60.88,54.42)" stroke="#2F5F96">
    <path fill="none" d="M-0.29,0 L0.29,0 " class="primitive"/>
  </g>
  <g transform="translate(63.8,57.4)" stroke="#2F5F96">
    <path fill="none" d="M-0.34,0 L0.34,0 " class="primitive"/>
  </g>
  <g transform="translate(65.77,60.38)" stroke="#2F5F96">
    <path fill="none" d="M-1.37,0 L1.37,0 " class="primitive"/>
  </g>
  <g transform="translate(71.42,63.36)" stroke="#2F5F96">
    <path fill="none" d="M-4.14,0 L4.14,0 " class="primitive"/>
  </g>
  <g transform="translate(69.93,66.35)" stroke="#2F5F96">
    <path fill="none" d="M-2.6,0 L2.6,0 " class="primitive"/>
  </g>
  <g transform="translate(68,69.33)" stroke="#8E318F">
    <path fill="none" d="M-0.15,0 L0.15,0 " class="primitive"/>
  </g>
  <g transform="translate(69.54,72.31)" stroke="#2F5F96">
    <path fill="none" d="M-0.62,0 L0.62,0 " class="primitive"/>
  </g>
  <g transform="translate(78.2,75.29)" stroke="#2F5F96">
    <path fill="none" d="M-0.55,0 L0.55,0 " class="primitive"/>
  </g>
  <g transform="translate(77.89,78.27)" stroke="#2F5F96">
    <path fill="none" d="M-0.24,0 L0.24,0 " class="primitive"/>
  </g>
  <g transform="translate(73.29,76.78)" stroke="#2F5F96">
    <path fill="none" d="M-4.36,0 L4.36,0 " class="primitive"/>
  </g>
  <g transform="translate(77.65,76.78)" stroke="#2F5F96">
    <path fill="none" d="M0,1.49 L0,-1.49 " class="primitive"/>
  </g>
  <g transform="translate(68.39,74.55)" stroke="#2F5F96">
    <path fill="none" d="M-0.53,0 L0.53,0 " class="primitive"/>
  </g>
  <g transform="translate(68.92,74.55)" stroke="#2F5F96">
    <path fill="none" d="M0,2.24 L0,-2.24 " class="primitive"/>
  </g>
  <g transform="translate(67.59,71.94)" stroke="#2F5F96">
    <path fill="none" d="M-0.26,0 L0.26,0 " class="primitive"/>
  </g>
  <g transform="translate(67.85,71.94)" stroke="#2F5F96">
    <path fill="none" d="M0,2.61 L0,-2.61 " class="primitive"/>
  </g>
  <g transform="translate(67.3,69.14)" stroke="#2F5F96">
    <path fill="none" d="M-0.03,0 L0.03,0 " class="primitive"/>
  </g>
  <g transform="translate(67.33,69.14)" stroke="#2F5F96">
    <path fill="none" d="M0,2.8 L0,-2.8 " class="primitive"/>
  </g>
  <g transform="translate(65.84,66.25)" stroke="#2F5F96">
    <path fill="none" d="M-1.43,0 L1.43,0 " class="primitive"/>
  </g>
  <g transform="translate(67.27,66.25)" stroke="#2F5F96">
    <path fill="none" d="M0,2.89 L0,-2.89 " class="primitive"/>
  </g>
  <g transform="translate(63.93,63.32)" stroke="#2F5F96">
    <path fill="none" d="M-0.47,0 L0.47,0 " class="primitive"/>
  </g>
  <g transform="translate(64.41,63.32)" stroke="#2F5F96">
    <path fill="none" d="M0,2.94 L0,-2.94 " class="primitive"/>
  </g>
  <g transform="translate(62.02,60.36)" stroke="#2F5F96">
    <path fill="none" d="M-1.44,0 L1.44,0 " class="primitive"/>
  </g>
  <g transform="translate(63.46,60.36)" stroke="#2F5F96">
    <path fill="none" d="M0,2.96 L0,-2.96 " class="primitive"/>
  </g>
  <g transform="translate(60.51,57.39)" stroke="#2F5F96">
    <path fill="none" d="M-0.07,0 L0.07,0 " class="primitive"/>
  </g>
  <g transform="translate(60.59,57.39)" stroke="#2F5F96">
    <path fill="none" d="M0,2.97 L0,-2.97 " class="primitive"/>
  </g>
  <g transform="translate(60.3,54.41)" stroke="#2F5F96">
    <path fill="none" d="M-0.13,0 L0.13,0 " class="primitive"/>
  </g>
  <g transform="translate(60.44,54.41)" stroke="#2F5F96">
    <path fill="none" d="M0,2.98 L0,-2.98 " class="primitive"/>
  </g>
  <g transform="translate(56.88,51.43)" stroke="#2F5F96">
    <path fill="none" d="M-3.29,0 L3.29,0 " class="primitive"/>
  </g>
  <g transform="translate(60.17,51.43)" stroke="#2F5F96">
    <path fill="none" d="M0,2.98 L0,-2.98 " class="primitive"/>
  </g>
  <g transform="translate(53.27,48.45)" stroke="#2F5F96">
    <path fill="none" d="M-0.32,0 L0.32,0 " class="primitive"/>
  </g>
  <g transform="translate(53.59,48.45)" stroke="#2F5F96">
    <path fill="none" d="M0,2.98 L0,-2.98 " class="primitive"/>
  </g>
  <g transform="translate(52.91,45.47)" stroke="#2F5F96">
    <path fill="none" d="M-0.04,0 L0.04,0 " class="primitive"/>
  </g>
  <g transform="translate(52.95,45.47)" stroke="#2F5F96">
    <path fill="none" d="M0,2.98 L0,-2.98 " class="primitive"/>
  </g>
  <g transform="translate(48.1,42.49)" stroke="#2F5F96">
    <path fill="none" d="M-4.77,0 L4.77,0 " class="primitive"/>
  </g>
  <g stroke-opacity="1" stroke-width="0.3" id="img-29b4c979-2">
    <g transform="translate(48.1,42.49)" stroke="#2F5F96">
      <path fill="none" d="M-4.77,0 L4.77,0 " class="primitive"/>
    </g>
    <g transform="translate(52.87,42.49)" stroke="#2F5F96">
      <path fill="none" d="M0,2.98 L0,-2.98 " class="primitive"/>
    </g>
    <g transform="translate(42.17,39.51)" stroke="#2F5F96">
      <path fill="none" d="M-1.16,0 L1.16,0 " class="primitive"/>
    </g>
    <g transform="translate(43.33,39.51)" stroke="#2F5F96">
      <path fill="none" d="M0,2.98 L0,-2.98 " class="primitive"/>
    </g>
    <g transform="translate(38.37,36.53)" stroke="#2F5F96">
      <path fill="none" d="M-2.65,0 L2.65,0 " class="primitive"/>
    </g>
    <g transform="translate(41.02,36.53)" stroke="#2F5F96">
      <path fill="none" d="M0,2.98 L0,-2.98 " class="primitive"/>
    </g>
    <g transform="translate(35.65,33.55)" stroke="#2F5F96">
      <path fill="none" d="M-0.07,0 L0.07,0 " class="primitive"/>
    </g>
    <g transform="translate(35.73,33.55)" stroke="#2F5F96">
      <path fill="none" d="M0,2.98 L0,-2.98 " class="primitive"/>
    </g>
    <g transform="translate(34.47,30.56)" stroke="#2F5F96">
      <path fill="none" d="M-1.12,0 L1.12,0 " class="primitive"/>
    </g>
    <g transform="translate(35.58,30.56)" stroke="#2F5F96">
      <path fill="none" d="M0,2.98 L0,-2.98 " class="primitive"/>
    </g>
    <g transform="translate(31.46,27.58)" stroke="#2F5F96">
      <path fill="none" d="M-1.89,0 L1.89,0 " class="primitive"/>
    </g>
    <g transform="translate(33.35,27.58)" stroke="#2F5F96">
      <path fill="none" d="M0,2.98 L0,-2.98 " class="primitive"/>
    </g>
    <g transform="translate(28.3,24.6)" stroke="#2F5F96">
      <path fill="none" d="M-1.27,0 L1.27,0 " class="primitive"/>
    </g>
    <g transform="translate(29.57,24.6)" stroke="#2F5F96">
      <path fill="none" d="M0,2.98 L0,-2.98 " class="primitive"/>
    </g>
    <g transform="translate(25.04,21.62)" stroke="#8E318F">
      <path fill="none" d="M-1.99,0 L1.99,0 " class="primitive"/>
    </g>
    <g transform="translate(27.02,21.62)" stroke="#8E318F">
      <path fill="none" d="M0,2.98 L0,-2.98 " class="primitive"/>
    </g>
    <g transform="translate(18.53,18.64)" stroke="#2F5F96">
      <path fill="none" d="M-4.52,0 L4.52,0 " class="primitive"/>
    </g>
    <g transform="translate(23.05,18.64)" stroke="#2F5F96">
      <path fill="none" d="M0,2.98 L0,-2.98 " class="primitive"/>
    </g>
    <g transform="translate(12.57,15.65)" stroke="#2F5F96">
      <path fill="none" d="M-1.44,0 L1.44,0 " class="primitive"/>
    </g>
    <g transform="translate(14.01,15.65)" stroke="#2F5F96">
      <path fill="none" d="M0,2.98 L0,-2.98 " class="primitive"/>
    </g>
    <g transform="translate(7.44,12.67)" stroke="#2F5F96">
      <path fill="none" d="M-3.69,0 L3.69,0 " class="primitive"/>
    </g>
    <g transform="translate(11.13,12.67)" stroke="#2F5F96">
      <path fill="none" d="M0,2.98 L0,-2.98 " class="primitive"/>
    </g>
    <g transform="translate(3.75,9.69)" stroke="#000000">
      <path fill="none" d="M0,0 L0,0 " class="primitive"/>
    </g>
    <g transform="translate(3.75,9.69)" stroke="#000000">
      <path fill="none" d="M0,2.98 L0,-2.98 " class="primitive"/>
    </g>
    <g transform="translate(3.75,6.71)" stroke="#000000">
      <path fill="none" d="M0,0 L0,0 " class="primitive"/>
    </g>
    <g transform="translate(3.75,6.71)" stroke="#000000">
      <path fill="none" d="M0,2.98 L0,-2.98 " class="primitive"/>
    </g>
  </g>
</g>
<g fill-opacity="1" id="img-29b4c979-3">
  <g transform="translate(4.43,3.73)" fill="#2F5F96">
    <circle cx="0" cy="0" r="0.75" class="primitive"/>
  </g>
  <g transform="translate(10.7,6.71)" fill="#2F5F96">
    <circle cx="0" cy="0" r="0.75" class="primitive"/>
  </g>
  <g transform="translate(20.61,9.69)" fill="#8E318F">
    <circle cx="0" cy="0" r="0.75" class="primitive"/>
  </g>
  <g transform="translate(15.12,12.67)" fill="#2F5F96">
    <circle cx="0" cy="0" r="0.75" class="primitive"/>
  </g>
  <g transform="translate(29.6,15.65)" fill="#2F5F96">
    <circle cx="0" cy="0" r="0.75" class="primitive"/>
  </g>
  <g transform="translate(30.07,18.64)" fill="#2F5F96">
    <circle cx="0" cy="0" r="0.75" class="primitive"/>
  </g>
  <g transform="translate(33.34,21.62)" fill="#2F5F96">
    <circle cx="0" cy="0" r="0.75" class="primitive"/>
  </g>
  <g transform="translate(34.24,24.6)" fill="#2F5F96">
    <circle cx="0" cy="0" r="0.75" class="primitive"/>
  </g>
  <g transform="translate(38.13,27.58)" fill="#2F5F96">
    <circle cx="0" cy="0" r="0.75" class="primitive"/>
  </g>
  <g transform="translate(35.87,30.56)" fill="#2F5F96">
    <circle cx="0" cy="0" r="0.75" class="primitive"/>
  </g>
  <g transform="translate(46.01,33.55)" fill="#2F5F96">
    <circle cx="0" cy="0" r="0.75" class="primitive"/>
  </g>
  <g transform="translate(44.28,36.53)" fill="#2F5F96">
    <circle cx="0" cy="0" r="0.75" class="primitive"/>
  </g>
  <g transform="translate(55.94,39.51)" fill="#2F5F96">
    <circle cx="0" cy="0" r="0.75" class="primitive"/>
  </g>
  <g transform="translate(60.19,42.49)" fill="#2F5F96">
    <circle cx="0" cy="0" r="0.75" class="primitive"/>
  </g>
  <g transform="translate(53.87,45.47)" fill="#8E318F">
    <circle cx="0" cy="0" r="0.75" class="primitive"/>
  </g>
  <g transform="translate(64.28,48.45)" fill="#2F5F96">
    <circle cx="0" cy="0" r="0.75" class="primitive"/>
  </g>
  <g transform="translate(64.24,51.44)" fill="#2F5F96">
    <circle cx="0" cy="0" r="0.75" class="primitive"/>
  </g>
  <g transform="translate(61.17,54.42)" fill="#2F5F96">
    <circle cx="0" cy="0" r="0.75" class="primitive"/>
  </g>
  <g transform="translate(64.14,57.4)" fill="#2F5F96">
    <circle cx="0" cy="0" r="0.75" class="primitive"/>
  </g>
  <g transform="translate(67.14,60.38)" fill="#2F5F96">
    <circle cx="0" cy="0" r="0.75" class="primitive"/>
  </g>
  <g transform="translate(75.56,63.36)" fill="#2F5F96">
    <circle cx="0" cy="0" r="0.75" class="primitive"/>
  </g>
  <g transform="translate(72.52,66.35)" fill="#2F5F96">
    <circle cx="0" cy="0" r="0.75" class="primitive"/>
  </g>
  <g transform="translate(68.15,69.33)" fill="#8E318F">
    <circle cx="0" cy="0" r="0.75" class="primitive"/>
  </g>
  <g transform="translate(70.16,72.31)" fill="#2F5F96">
    <circle cx="0" cy="0" r="0.75" class="primitive"/>
  </g>
  <g transform="translate(78.75,75.29)" fill="#2F5F96">
    <circle cx="0" cy="0" r="0.75" class="primitive"/>
  </g>
  <g transform="translate(78.13,78.27)" fill="#2F5F96">
    <circle cx="0" cy="0" r="0.75" class="primitive"/>
  </g>
  <g transform="translate(77.65,76.78)" fill="#2F5F96">
    <circle cx="0" cy="0" r="0.75" class="primitive"/>
  </g>
  <g transform="translate(68.92,74.55)" fill="#2F5F96">
    <circle cx="0" cy="0" r="0.75" class="primitive"/>
  </g>
  <g transform="translate(67.85,71.94)" fill="#2F5F96">
    <circle cx="0" cy="0" r="0.75" class="primitive"/>
  </g>
  <g transform="translate(67.33,69.14)" fill="#2F5F96">
    <circle cx="0" cy="0" r="0.75" class="primitive"/>
  </g>
  <g transform="translate(67.27,66.25)" fill="#2F5F96">
    <circle cx="0" cy="0" r="0.75" class="primitive"/>
  </g>
  <g transform="translate(64.41,63.32)" fill="#2F5F96">
    <circle cx="0" cy="0" r="0.75" class="primitive"/>
  </g>
  <g transform="translate(63.46,60.36)" fill="#2F5F96">
    <circle cx="0" cy="0" r="0.75" class="primitive"/>
  </g>
  <g transform="translate(60.59,57.39)" fill="#2F5F96">
    <circle cx="0" cy="0" r="0.75" class="primitive"/>
  </g>
  <g transform="translate(60.44,54.41)" fill="#2F5F96">
    <circle cx="0" cy="0" r="0.75" class="primitive"/>
  </g>
  <g transform="translate(60.17,51.43)" fill="#2F5F96">
    <circle cx="0" cy="0" r="0.75" class="primitive"/>
  </g>
  <g transform="translate(53.59,48.45)" fill="#2F5F96">
    <circle cx="0" cy="0" r="0.75" class="primitive"/>
  </g>
  <g transform="translate(52.95,45.47)" fill="#2F5F96">
    <circle cx="0" cy="0" r="0.75" class="primitive"/>
  </g>
  <g transform="translate(52.87,42.49)" fill="#2F5F96">
    <circle cx="0" cy="0" r="0.75" class="primitive"/>
  </g>
  <g transform="translate(43.33,39.51)" fill="#2F5F96">
    <circle cx="0" cy="0" r="0.75" class="primitive"/>
  </g>
  <g transform="translate(41.02,36.53)" fill="#2F5F96">
    <circle cx="0" cy="0" r="0.75" class="primitive"/>
  </g>
  <g transform="translate(35.73,33.55)" fill="#2F5F96">
    <circle cx="0" cy="0" r="0.75" class="primitive"/>
  </g>
  <g transform="translate(35.58,30.56)" fill="#2F5F96">
    <circle cx="0" cy="0" r="0.75" class="primitive"/>
  </g>
  <g transform="translate(33.35,27.58)" fill="#2F5F96">
    <circle cx="0" cy="0" r="0.75" class="primitive"/>
  </g>
  <g transform="translate(29.57,24.6)" fill="#2F5F96">
    <circle cx="0" cy="0" r="0.75" class="primitive"/>
  </g>
  <g transform="translate(27.02,21.62)" fill="#8E318F">
    <circle cx="0" cy="0" r="0.75" class="primitive"/>
  </g>
  <g transform="translate(23.05,18.64)" fill="#2F5F96">
    <circle cx="0" cy="0" r="0.75" class="primitive"/>
  </g>
  <g transform="translate(14.01,15.65)" fill="#2F5F96">
    <circle cx="0" cy="0" r="0.75" class="primitive"/>
  </g>
  <g transform="translate(11.13,12.67)" fill="#2F5F96">
    <circle cx="0" cy="0" r="0.75" class="primitive"/>
  </g>
  <g transform="translate(3.75,9.69)" fill="#000000">
    <circle cx="0" cy="0" r="0.75" class="primitive"/>
  </g>
  <g transform="translate(3.75,6.71)" fill="#000000">
    <circle cx="0" cy="0" r="0.75" class="primitive"/>
  </g>
  <g fill-opacity="1" fill="#000000" id="img-29b4c979-4">
    <g transform="translate(3.75,6.71)">
      <circle cx="0" cy="0" r="0.75" class="primitive"/>
    </g>
  </g>
</g>
<g stroke-opacity="1" fill-opacity="1" font-size="1.41" stroke-width="0.1" id="img-29b4c979-5">
  <g transform="translate(6.31,3.73)" stroke="#000000">
    <g class="primitive">
      <text dy="0.35em">N25</text>
    </g>
  </g>
  <g transform="translate(12.58,6.71)" stroke="#000000">
    <g class="primitive">
      <text dy="0.35em">N24</text>
    </g>
  </g>
  <g transform="translate(22.48,9.69)" stroke="#000000">
    <g class="primitive">
      <text dy="0.35em">N23</text>
    </g>
  </g>
  <g transform="translate(16.99,12.67)" stroke="#000000">
    <g class="primitive">
      <text dy="0.35em">N22</text>
    </g>
  </g>
  <g transform="translate(31.48,15.65)" stroke="#000000">
    <g class="primitive">
      <text dy="0.35em">N21</text>
    </g>
  </g>
  <g transform="translate(31.94,18.64)" stroke="#000000">
    <g class="primitive">
      <text dy="0.35em">N20</text>
    </g>
  </g>
  <g transform="translate(35.21,21.62)" stroke="#000000">
    <g class="primitive">
      <text dy="0.35em">N19</text>
    </g>
  </g>
  <g transform="translate(36.11,24.6)" stroke="#000000">
    <g class="primitive">
      <text dy="0.35em">N18</text>
    </g>
  </g>
  <g transform="translate(40.01,27.58)" stroke="#000000">
    <g class="primitive">
      <text dy="0.35em">N17</text>
    </g>
  </g>
  <g transform="translate(37.75,30.56)" stroke="#000000">
    <g class="primitive">
      <text dy="0.35em">N16</text>
    </g>
  </g>
  <g transform="translate(47.88,33.55)" stroke="#000000">
    <g class="primitive">
      <text dy="0.35em">N15</text>
    </g>
  </g>
  <g transform="translate(46.15,36.53)" stroke="#000000">
    <g class="primitive">
      <text dy="0.35em">N14</text>
    </g>
  </g>
  <g transform="translate(57.82,39.51)" stroke="#000000">
    <g class="primitive">
      <text dy="0.35em">N13</text>
    </g>
  </g>
  <g transform="translate(62.06,42.49)" stroke="#000000">
    <g class="primitive">
      <text dy="0.35em">N12</text>
    </g>
  </g>
  <g transform="translate(55.75,45.47)" stroke="#000000">
    <g class="primitive">
      <text dy="0.35em">N11</text>
    </g>
  </g>
  <g transform="translate(66.15,48.45)" stroke="#000000">
    <g class="primitive">
      <text dy="0.35em">N10</text>
    </g>
  </g>
  <g transform="translate(66.12,51.44)" stroke="#000000">
    <g class="primitive">
      <text dy="0.35em">N9</text>
    </g>
  </g>
  <g transform="translate(63.05,54.42)" stroke="#000000">
    <g class="primitive">
      <text dy="0.35em">N8</text>
    </g>
  </g>
  <g transform="translate(66.01,57.4)" stroke="#000000">
    <g class="primitive">
      <text dy="0.35em">N7</text>
    </g>
  </g>
  <g transform="translate(69.02,60.38)" stroke="#000000">
    <g class="primitive">
      <text dy="0.35em">N6</text>
    </g>
  </g>
  <g transform="translate(77.43,63.36)" stroke="#000000">
    <g class="primitive">
      <text dy="0.35em">N5</text>
    </g>
  </g>
  <g transform="translate(74.4,66.35)" stroke="#000000">
    <g class="primitive">
      <text dy="0.35em">N4</text>
    </g>
  </g>
  <g transform="translate(70.03,69.33)" stroke="#000000">
    <g class="primitive">
      <text dy="0.35em">N3</text>
    </g>
  </g>
  <g transform="translate(72.03,72.31)" stroke="#000000">
    <g class="primitive">
      <text dy="0.35em">N2</text>
    </g>
  </g>
  <g transform="translate(80.62,75.29)" stroke="#000000">
    <g class="primitive">
      <text dy="0.35em">N0</text>
    </g>
  </g>
  <g transform="translate(80.01,78.27)" stroke="#000000">
    <g class="primitive">
      <text dy="0.35em">N1</text>
    </g>
  </g>
  <g transform="translate(79.52,76.78)" stroke="#000000">
    <g class="primitive">
      <text dy="0.35em">N26</text>
    </g>
  </g>
  <g transform="translate(70.8,74.55)" stroke="#000000">
    <g class="primitive">
      <text dy="0.35em">N27</text>
    </g>
  </g>
  <g transform="translate(69.73,71.94)" stroke="#000000">
    <g class="primitive">
      <text dy="0.35em">N28</text>
    </g>
  </g>
  <g transform="translate(69.21,69.14)" stroke="#000000">
    <g class="primitive">
      <text dy="0.35em">N29</text>
    </g>
  </g>
  <g transform="translate(69.15,66.25)" stroke="#000000">
    <g class="primitive">
      <text dy="0.35em">N30</text>
    </g>
  </g>
  <g transform="translate(66.28,63.32)" stroke="#000000">
    <g class="primitive">
      <text dy="0.35em">N31</text>
    </g>
  </g>
  <g transform="translate(65.33,60.36)" stroke="#000000">
    <g class="primitive">
      <text dy="0.35em">N32</text>
    </g>
  </g>
  <g transform="translate(62.46,57.39)" stroke="#000000">
    <g class="primitive">
      <text dy="0.35em">N33</text>
    </g>
  </g>
  <g transform="translate(62.31,54.41)" stroke="#000000">
    <g class="primitive">
      <text dy="0.35em">N34</text>
    </g>
  </g>
  <g transform="translate(62.05,51.43)" stroke="#000000">
    <g class="primitive">
      <text dy="0.35em">N35</text>
    </g>
  </g>
  <g transform="translate(55.47,48.45)" stroke="#000000">
    <g class="primitive">
      <text dy="0.35em">N36</text>
    </g>
  </g>
  <g transform="translate(54.82,45.47)" stroke="#000000">
    <g class="primitive">
      <text dy="0.35em">N37</text>
    </g>
  </g>
  <g transform="translate(54.74,42.49)" stroke="#000000">
    <g class="primitive">
      <text dy="0.35em">N38</text>
    </g>
  </g>
  <g transform="translate(45.21,39.51)" stroke="#000000">
    <g class="primitive">
      <text dy="0.35em">N39</text>
    </g>
  </g>
  <g transform="translate(42.89,36.53)" stroke="#000000">
    <g class="primitive">
      <text dy="0.35em">N40</text>
    </g>
  </g>
  <g transform="translate(37.6,33.55)" stroke="#000000">
    <g class="primitive">
      <text dy="0.35em">N41</text>
    </g>
  </g>
  <g transform="translate(37.46,30.56)" stroke="#000000">
    <g class="primitive">
      <text dy="0.35em">N42</text>
    </g>
  </g>
  <g transform="translate(35.22,27.58)" stroke="#000000">
    <g class="primitive">
      <text dy="0.35em">N43</text>
    </g>
  </g>
  <g transform="translate(31.45,24.6)" stroke="#000000">
    <g class="primitive">
      <text dy="0.35em">N44</text>
    </g>
  </g>
  <g transform="translate(28.9,21.62)" stroke="#000000">
    <g class="primitive">
      <text dy="0.35em">N45</text>
    </g>
  </g>
  <g transform="translate(24.92,18.64)" stroke="#000000">
    <g class="primitive">
      <text dy="0.35em">N46</text>
    </g>
  </g>
  <g transform="translate(15.89,15.65)" stroke="#000000">
    <g class="primitive">
      <text dy="0.35em">N47</text>
    </g>
  </g>
  <g transform="translate(13.01,12.67)" stroke="#000000">
    <g class="primitive">
      <text dy="0.35em">N48</text>
    </g>
  </g>
  <g transform="translate(5.63,9.69)" stroke="#000000">
    <g class="primitive">
      <text dy="0.35em"></text>
    </g>
  </g>
  <g transform="translate(5.63,6.71)" stroke="#000000">
    <g class="primitive">
      <text dy="0.35em"></text>
    </g>
  </g>
  <g stroke-opacity="1" fill-opacity="1" font-size="1.41" stroke-width="0.1" stroke="#000000" fill="#000000" id="img-29b4c979-6">
    <g transform="translate(5.63,6.71)">
      <g class="primitive">
        <text dy="0.35em"></text>
      </g>
    </g>
  </g>
</g>
</svg>
