<?xml version="1.0" encoding="UTF-8"?>
<svg xmlns="http://www.w3.org/2000/svg"
     xmlns:xlink="http://www.w3.org/1999/xlink"
     version="1.2"
     width="150mm" height="108mm" viewBox="0 0 150 108"
     stroke="none"
     fill="#000000"
     stroke-width="0.3"
     font-size="3.88"
>
<defs>
  <marker id="arrow" markerWidth="15" markerHeight="7" refX="5" refY="3.5" orient="auto" markerUnits="strokeWidth">
    <path d="M0,0 L15,3.5 L0,7 z" stroke="context-stroke" fill="context-stroke"/>
  </marker>
</defs>
<g stroke-opacity="1" stroke-width="0.3" id="img-29b4c979-1">
  <g transform="translate(3.84,4.91)" stroke="#6846DA">
    <path fill="none" d="M-0.09,0 L0.09,0 " class="primitive"/>
  </g>
  <g transform="translate(5.2,7.49)" stroke="#6846DA">
    <path fill="none" d="M-1.45,0 L1.45,0 " class="primitive"/>
  </g>
  <g transform="translate(6.98,10.08)" stroke="#6846DA">
    <path fill="none" d="M-2.2,0 L2.2,0 " class="primitive"/>
  </g>
  <g transform="translate(5.28,12.66)" stroke="#26EA07">
    <path fill="none" d="M-0.45,0 L0.45,0 " class="primitive"/>
  </g>
  <g transform="translate(10.22,15.24)" stroke="#6846DA">
    <path fill="none" d="M-0.92,0 L0.92,0 " class="primitive"/>
  </g>
  <g transform="translate(14.7,17.83)" stroke="#6846DA">
    <path fill="none" d="M-1.3,0 L1.3,0 " class="primitive"/>
  </g>
  <g transform="translate(20.41,20.41)" stroke="#26EA07">
    <path fill="none" d="M-0.33,0 L0.33,0 " class="primitive"/>
  </g>
  <g transform="translate(20.99,23)" stroke="#26EA07">
    <path fill="none" d="M-0.03,0 L0.03,0 " class="primitive"/>
  </g>
  <g transform="translate(21.44,25.58)" stroke="#26EA07">
    <path fill="none" d="M-0.02,0 L0.02,0 " class="primitive"/>
  </g>
  <g transform="translate(25.74,28.16)" stroke="#6846DA">
    <path fill="none" d="M-1.15,0 L1.15,0 " class="primitive"/>
  </g>
  <g transform="translate(25.77,30.75)" stroke="#26EA07">
    <path fill="none" d="M-0.05,0 L0.05,0 " class="primitive"/>
  </g>
  <g transform="translate(27.92,33.33)" stroke="#26EA07">
    <path fill="none" d="M-1.73,0 L1.73,0 " class="primitive"/>
  </g>
  <g transform="translate(27.09,35.91)" stroke="#6846DA">
    <path fill="none" d="M-0.64,0 L0.64,0 " class="primitive"/>
  </g>
  <g transform="translate(30.96,38.5)" stroke="#26EA07">
    <path fill="none" d="M-0.19,0 L0.19,0 " class="primitive"/>
  </g>
  <g transform="translate(33.81,41.08)" stroke="#26EA07">
    <path fill="none" d="M-1.24,0 L1.24,0 " class="primitive"/>
  </g>
  <g transform="translate(39.78,43.67)" stroke="#6846DA">
    <path fill="none" d="M-6.75,0 L6.75,0 " class="primitive"/>
  </g>
  <g transform="translate(33.87,46.25)" stroke="#26EA07">
    <path fill="none" d="M-0.22,0 L0.22,0 " class="primitive"/>
  </g>
  <g transform="translate(39.53,48.83)" stroke="#26EA07">
    <path fill="none" d="M-1.26,0 L1.26,0 " class="primitive"/>
  </g>
  <g transform="translate(43.04,51.42)" stroke="#26EA07">
    <path fill="none" d="M-0.02,0 L0.02,0 " class="primitive"/>
  </g>
  <g transform="translate(48.14,54)" stroke="#26EA07">
    <path fill="none" d="M-0.28,0 L0.28,0 " class="primitive"/>
  </g>
  <g transform="translate(54.26,56.58)" stroke="#6846DA">
    <path fill="none" d="M-0.5,0 L0.5,0 " class="primitive"/>
  </g>
  <g transform="translate(55.49,59.17)" stroke="#6846DA">
    <path fill="none" d="M-0.28,0 L0.28,0 " class="primitive"/>
  </g>
  <g transform="translate(57.08,61.75)" stroke="#6846DA">
    <path fill="none" d="M-0.96,0 L0.96,0 " class="primitive"/>
  </g>
  <g transform="translate(56.9,64.33)" stroke="#26EA07">
    <path fill="none" d="M-0.77,0 L0.77,0 " class="primitive"/>
  </g>
  <g transform="translate(60.22,66.92)" stroke="#6846DA">
    <path fill="none" d="M-1.76,0 L1.76,0 " class="primitive"/>
  </g>
  <g transform="translate(61.07,69.5)" stroke="#6846DA">
    <path fill="none" d="M-0.21,0 L0.21,0 " class="primitive"/>
  </g>
  <g transform="translate(62.31,72.09)" stroke="#26EA07">
    <path fill="none" d="M-0.46,0 L0.46,0 " class="primitive"/>
  </g>
  <g transform="translate(63.2,74.67)" stroke="#26EA07">
    <path fill="none" d="M-0.8,0 L0.8,0 " class="primitive"/>
  </g>
  <g transform="translate(67.07,77.25)" stroke="#26EA07">
    <path fill="none" d="M-0.83,0 L0.83,0 " class="primitive"/>
  </g>
  <g transform="translate(67.69,79.84)" stroke="#26EA07">
    <path fill="none" d="M-1.12,0 L1.12,0 " class="primitive"/>
  </g>
  <g transform="translate(67.07,82.42)" stroke="#6846DA">
    <path fill="none" d="M-0.24,0 L0.24,0 " class="primitive"/>
  </g>
  <g transform="translate(70.05,85)" stroke="#26EA07">
    <path fill="none" d="M-2.1,0 L2.1,0 " class="primitive"/>
  </g>
  <g transform="translate(69.71,87.59)" stroke="#26EA07">
    <path fill="none" d="M-0.45,0 L0.45,0 " class="primitive"/>
  </g>
  <g transform="translate(72.2,90.17)" stroke="#26EA07">
    <path fill="none" d="M-2.46,0 L2.46,0 " class="primitive"/>
  </g>
  <g transform="translate(73.17,92.76)" stroke="#26EA07">
    <path fill="none" d="M-0.52,0 L0.52,0 " class="primitive"/>
  </g>
  <g transform="translate(74.43,95.34)" stroke="#6846DA">
    <path fill="none" d="M-0.66,0 L0.66,0 " class="primitive"/>
  </g>
  <g transform="translate(74,97.92)" stroke="#26EA07">
    <path fill="none" d="M-0.14,0 L0.14,0 " class="primitive"/>
  </g>
  <g transform="translate(77.07,100.51)" stroke="#26EA07">
    <path fill="none" d="M-1.68,0 L1.68,0 " class="primitive"/>
  </g>
  <g transform="translate(75.49,103.09)" stroke="#6846DA">
    <path fill="none" d="M-0.11,0 L0.11,0 " class="primitive"/>
  </g>
  <g transform="translate(74.62,101.8)" stroke="#6846DA">
    <path fill="none" d="M-0.76,0 L0.76,0 " class="primitive"/>
  </g>
  <g transform="translate(75.39,101.8)" stroke="#6846DA">
    <path fill="none" d="M0,1.29 L0,-1.29 " class="primitive"/>
  </g>
  <g transform="translate(73.82,99.86)" stroke="#26EA07">
    <path fill="none" d="M-0.05,0 L0.05,0 " class="primitive"/>
  </g>
  <g transform="translate(73.86,99.86)" stroke="#26EA07">
    <path fill="none" d="M0,1.94 L0,-1.94 " class="primitive"/>
  </g>
  <g transform="translate(73.21,97.6)" stroke="#26EA07">
    <path fill="none" d="M-0.56,0 L0.56,0 " class="primitive"/>
  </g>
  <g transform="translate(73.77,97.6)" stroke="#26EA07">
    <path fill="none" d="M0,2.26 L0,-2.26 " class="primitive"/>
  </g>
  <g transform="translate(71.2,95.18)" stroke="#6846DA">
    <path fill="none" d="M-1.45,0 L1.45,0 " class="primitive"/>
  </g>
  <g transform="translate(72.65,95.18)" stroke="#6846DA">
    <path fill="none" d="M0,2.42 L0,-2.42 " class="primitive"/>
  </g>
  <g transform="translate(69.5,92.68)" stroke="#6846DA">
    <path fill="none" d="M-0.24,0 L0.24,0 " class="primitive"/>
  </g>
  <g transform="translate(69.74,92.68)" stroke="#6846DA">
    <path fill="none" d="M0,2.5 L0,-2.5 " class="primitive"/>
  </g>
  <g transform="translate(68.6,90.13)" stroke="#26EA07">
    <path fill="none" d="M-0.65,0 L0.65,0 " class="primitive"/>
  </g>
  <g transform="translate(69.26,90.13)" stroke="#26EA07">
    <path fill="none" d="M0,2.54 L0,-2.54 " class="primitive"/>
  </g>
  <g stroke-opacity="1" stroke-width="0.3" id="img-29b4c979-2">
    <g transform="translate(20.96,25.58)" stroke="#6846DA">
      <path fill="none" d="M0,2.58 L0,-2.58 " class="primitive"/>
    </g>
    <g transform="translate(16.74,23)" stroke="#26EA07">
      <path fill="none" d="M-3.34,0 L3.34,0 " class="primitive"/>
    </g>
    <g transform="translate(20.08,23)" stroke="#26EA07">
      <path fill="none" d="M0,2.58 L0,-2.58 " class="primitive"/>
    </g>
    <g transform="translate(11.35,20.41)" stroke="#6846DA">
      <path fill="none" d="M-2.05,0 L2.05,0 " class="primitive"/>
    </g>
    <g transform="translate(13.4,20.41)" stroke="#6846DA">
      <path fill="none" d="M0,2.58 L0,-2.58 " class="primitive"/>
    </g>
    <g transform="translate(7.07,17.83)" stroke="#26EA07">
      <path fill="none" d="M-2.23,0 L2.23,0 " class="primitive"/>
    </g>
    <g transform="translate(9.3,17.83)" stroke="#26EA07">
      <path fill="none" d="M0,2.58 L0,-2.58 " class="primitive"/>
    </g>
    <g transform="translate(4.8,15.24)" stroke="#6846DA">
      <path fill="none" d="M-0.03,0 L0.03,0 " class="primitive"/>
    </g>
    <g transform="translate(4.83,15.24)" stroke="#6846DA">
      <path fill="none" d="M0,2.58 L0,-2.58 " class="primitive"/>
    </g>
    <g transform="translate(4.26,12.66)" stroke="#26EA07">
      <path fill="none" d="M-0.51,0 L0.51,0 " class="primitive"/>
    </g>
    <g transform="translate(4.77,12.66)" stroke="#26EA07">
      <path fill="none" d="M0,2.58 L0,-2.58 " class="primitive"/>
    </g>
    <g transform="translate(3.75,10.08)" stroke="#000000">
      <path fill="none" d="M0,0 L0,0 " class="primitive"/>
    </g>
    <g transform="translate(3.75,10.08)" stroke="#000000">
      <path fill="none" d="M0,2.58 L0,-2.58 " class="primitive"/>
    </g>
    <g transform="translate(3.75,7.49)" stroke="#000000">
      <path fill="none" d="M0,0 L0,0 " class="primitive"/>
    </g>
    <g transform="translate(3.75,7.49)" stroke="#000000">
      <path fill="none" d="M0,2.58 L0,-2.58 " class="primitive"/>
    </g>
  </g>
  <g stroke-opacity="1" stroke-width="0.3" id="img-29b4c979-3">
    <g transform="translate(69.26,90.13)" stroke="#26EA07">
      <path fill="none" d="M0,2.54 L0,-2.54 " class="primitive"/>
    </g>
    <g transform="translate(67.39,87.57)" stroke="#6846DA">
      <path fill="none" d="M-0.56,0 L0.56,0 " class="primitive"/>
    </g>
    <g transform="translate(67.95,87.57)" stroke="#6846DA">
      <path fill="none" d="M0,2.56 L0,-2.56 " class="primitive"/>
    </g>
    <g transform="translate(66.7,84.99)" stroke="#26EA07">
      <path fill="none" d="M-0.13,0 L0.13,0 " class="primitive"/>
    </g>
    <g transform="translate(66.83,84.99)" stroke="#26EA07">
      <path fill="none" d="M0,2.57 L0,-2.57 " class="primitive"/>
    </g>
    <g transform="translate(66.4,82.42)" stroke="#6846DA">
      <path fill="none" d="M-0.16,0 L0.16,0 " class="primitive"/>
    </g>
    <g transform="translate(66.56,82.42)" stroke="#6846DA">
      <path fill="none" d="M0,2.58 L0,-2.58 " class="primitive"/>
    </g>
    <g transform="translate(64.32,79.83)" stroke="#6846DA">
      <path fill="none" d="M-1.92,0 L1.92,0 " class="primitive"/>
    </g>
    <g transform="translate(66.24,79.83)" stroke="#6846DA">
      <path fill="none" d="M0,2.58 L0,-2.58 " class="primitive"/>
    </g>
    <g transform="translate(62.13,77.25)" stroke="#6846DA">
      <path fill="none" d="M-0.28,0 L0.28,0 " class="primitive"/>
    </g>
    <g transform="translate(62.41,77.25)" stroke="#6846DA">
      <path fill="none" d="M0,2.58 L0,-2.58 " class="primitive"/>
    </g>
    <g transform="translate(61.35,74.67)" stroke="#26EA07">
      <path fill="none" d="M-0.49,0 L0.49,0 " class="primitive"/>
    </g>
    <g transform="translate(61.84,74.67)" stroke="#26EA07">
      <path fill="none" d="M0,2.58 L0,-2.58 " class="primitive"/>
    </g>
    <g transform="translate(59.66,72.09)" stroke="#6846DA">
      <path fill="none" d="M-1.2,0 L1.2,0 " class="primitive"/>
    </g>
    <g transform="translate(60.86,72.09)" stroke="#6846DA">
      <path fill="none" d="M0,2.58 L0,-2.58 " class="primitive"/>
    </g>
    <g transform="translate(57.3,69.5)" stroke="#6846DA">
      <path fill="none" d="M-1.16,0 L1.16,0 " class="primitive"/>
    </g>
    <g transform="translate(58.46,69.5)" stroke="#6846DA">
      <path fill="none" d="M0,2.58 L0,-2.58 " class="primitive"/>
    </g>
    <g transform="translate(56.12,66.92)" stroke="#26EA07">
      <path fill="none" d="M-0.01,0 L0.01,0 " class="primitive"/>
    </g>
    <g transform="translate(56.13,66.92)" stroke="#26EA07">
      <path fill="none" d="M0,2.58 L0,-2.58 " class="primitive"/>
    </g>
    <g transform="translate(55.66,64.33)" stroke="#6846DA">
      <path fill="none" d="M-0.45,0 L0.45,0 " class="primitive"/>
    </g>
    <g transform="translate(56.11,64.33)" stroke="#6846DA">
      <path fill="none" d="M0,2.58 L0,-2.58 " class="primitive"/>
    </g>
    <g transform="translate(54.49,61.75)" stroke="#6846DA">
      <path fill="none" d="M-0.73,0 L0.73,0 " class="primitive"/>
    </g>
    <g transform="translate(55.21,61.75)" stroke="#6846DA">
      <path fill="none" d="M0,2.58 L0,-2.58 " class="primitive"/>
    </g>
    <g transform="translate(50.81,59.17)" stroke="#26EA07">
      <path fill="none" d="M-2.95,0 L2.95,0 " class="primitive"/>
    </g>
    <g transform="translate(53.76,59.17)" stroke="#26EA07">
      <path fill="none" d="M0,2.58 L0,-2.58 " class="primitive"/>
    </g>
    <g transform="translate(45.44,56.58)" stroke="#26EA07">
      <path fill="none" d="M-2.42,0 L2.42,0 " class="primitive"/>
    </g>
    <g transform="translate(47.86,56.58)" stroke="#26EA07">
      <path fill="none" d="M0,2.58 L0,-2.58 " class="primitive"/>
    </g>
    <g transform="translate(40.65,54)" stroke="#26EA07">
      <path fill="none" d="M-2.37,0 L2.37,0 " class="primitive"/>
    </g>
    <g transform="translate(43.02,54)" stroke="#26EA07">
      <path fill="none" d="M0,2.58 L0,-2.58 " class="primitive"/>
    </g>
    <g transform="translate(35.96,51.42)" stroke="#6846DA">
      <path fill="none" d="M-2.31,0 L2.31,0 " class="primitive"/>
    </g>
    <g transform="translate(38.27,51.42)" stroke="#6846DA">
      <path fill="none" d="M0,2.58 L0,-2.58 " class="primitive"/>
    </g>
    <g transform="translate(33.34,48.83)" stroke="#6846DA">
      <path fill="none" d="M-0.31,0 L0.31,0 " class="primitive"/>
    </g>
    <g transform="translate(33.65,48.83)" stroke="#6846DA">
      <path fill="none" d="M0,2.58 L0,-2.58 " class="primitive"/>
    </g>
    <g transform="translate(32.8,46.25)" stroke="#6846DA">
      <path fill="none" d="M-0.24,0 L0.24,0 " class="primitive"/>
    </g>
    <g transform="translate(33.03,46.25)" stroke="#6846DA">
      <path fill="none" d="M0,2.58 L0,-2.58 " class="primitive"/>
    </g>
    <g transform="translate(31.67,43.67)" stroke="#6846DA">
      <path fill="none" d="M-0.9,0 L0.9,0 " class="primitive"/>
    </g>
    <g transform="translate(32.56,43.67)" stroke="#6846DA">
      <path fill="none" d="M0,2.58 L0,-2.58 " class="primitive"/>
    </g>
    <g transform="translate(28.61,41.08)" stroke="#26EA07">
      <path fill="none" d="M-2.16,0 L2.16,0 " class="primitive"/>
    </g>
    <g transform="translate(30.77,41.08)" stroke="#26EA07">
      <path fill="none" d="M0,2.58 L0,-2.58 " class="primitive"/>
    </g>
    <g transform="translate(26.32,38.5)" stroke="#6846DA">
      <path fill="none" d="M-0.13,0 L0.13,0 " class="primitive"/>
    </g>
    <g transform="translate(26.45,38.5)" stroke="#6846DA">
      <path fill="none" d="M0,2.58 L0,-2.58 " class="primitive"/>
    </g>
    <g transform="translate(25.96,35.91)" stroke="#6846DA">
      <path fill="none" d="M-0.23,0 L0.23,0 " class="primitive"/>
    </g>
    <g transform="translate(26.19,35.91)" stroke="#6846DA">
      <path fill="none" d="M0,2.58 L0,-2.58 " class="primitive"/>
    </g>
    <g transform="translate(25.16,33.33)" stroke="#6846DA">
      <path fill="none" d="M-0.57,0 L0.57,0 " class="primitive"/>
    </g>
    <g transform="translate(25.72,33.33)" stroke="#6846DA">
      <path fill="none" d="M0,2.58 L0,-2.58 " class="primitive"/>
    </g>
    <g transform="translate(23.01,30.75)" stroke="#26EA07">
      <path fill="none" d="M-1.58,0 L1.58,0 " class="primitive"/>
    </g>
    <g transform="translate(24.59,30.75)" stroke="#26EA07">
      <path fill="none" d="M0,2.58 L0,-2.58 " class="primitive"/>
    </g>
    <g transform="translate(21.19,28.16)" stroke="#26EA07">
      <path fill="none" d="M-0.23,0 L0.23,0 " class="primitive"/>
    </g>
    <g transform="translate(21.43,28.16)" stroke="#26EA07">
      <path fill="none" d="M0,2.58 L0,-2.58 " class="primitive"/>
    </g>
    <g transform="translate(20.52,25.58)" stroke="#6846DA">
      <path fill="none" d="M-0.44,0 L0.44,0 " class="primitive"/>
    </g>
    <g transform="translate(20.96,25.58)" stroke="#6846DA">
      <path fill="none" d="M0,2.58 L0,-2.58 " class="primitive"/>
    </g>
  </g>
</g>
<g fill-opacity="1" id="img-29b4c979-4">
  <g transform="translate(3.92,4.91)" fill="#6846DA">
    <circle cx="0" cy="0" r="0.75" class="primitive"/>
  </g>
  <g transform="translate(6.66,7.49)" fill="#6846DA">
    <circle cx="0" cy="0" r="0.75" class="primitive"/>
  </g>
  <g transform="translate(9.18,10.08)" fill="#6846DA">
    <circle cx="0" cy="0" r="0.75" class="primitive"/>
  </g>
  <g transform="translate(5.73,12.66)" fill="#26EA07">
    <circle cx="0" cy="0" r="0.75" class="primitive"/>
  </g>
  <g transform="translate(11.14,15.24)" fill="#6846DA">
    <circle cx="0" cy="0" r="0.75" class="primitive"/>
  </g>
  <g transform="translate(16.01,17.83)" fill="#6846DA">
    <circle cx="0" cy="0" r="0.75" class="primitive"/>
  </g>
  <g transform="translate(20.74,20.41)" fill="#26EA07">
    <circle cx="0" cy="0" r="0.75" class="primitive"/>
  </g>
  <g transform="translate(21.02,23)" fill="#26EA07">
    <circle cx="0" cy="0" r="0.75" class="primitive"/>
  </g>
  <g transform="translate(21.46,25.58)" fill="#26EA07">
    <circle cx="0" cy="0" r="0.75" class="primitive"/>
  </g>
  <g transform="translate(26.88,28.16)" fill="#6846DA">
    <circle cx="0" cy="0" r="0.75" class="primitive"/>
  </g>
  <g transform="translate(25.83,30.75)" fill="#26EA07">
    <circle cx="0" cy="0" r="0.75" class="primitive"/>
  </g>
  <g transform="translate(29.65,33.33)" fill="#26EA07">
    <circle cx="0" cy="0" r="0.75" class="primitive"/>
  </g>
  <g transform="translate(27.73,35.91)" fill="#6846DA">
    <circle cx="0" cy="0" r="0.75" class="primitive"/>
  </g>
  <g transform="translate(31.15,38.5)" fill="#26EA07">
    <circle cx="0" cy="0" r="0.75" class="primitive"/>
  </g>
  <g transform="translate(35.05,41.08)" fill="#26EA07">
    <circle cx="0" cy="0" r="0.75" class="primitive"/>
  </g>
  <g transform="translate(46.53,43.67)" fill="#6846DA">
    <circle cx="0" cy="0" r="0.75" class="primitive"/>
  </g>
  <g transform="translate(34.1,46.25)" fill="#26EA07">
    <circle cx="0" cy="0" r="0.75" class="primitive"/>
  </g>
  <g transform="translate(40.79,48.83)" fill="#26EA07">
    <circle cx="0" cy="0" r="0.75" class="primitive"/>
  </g>
  <g transform="translate(43.06,51.42)" fill="#26EA07">
    <circle cx="0" cy="0" r="0.75" class="primitive"/>
  </g>
  <g transform="translate(48.42,54)" fill="#26EA07">
    <circle cx="0" cy="0" r="0.75" class="primitive"/>
  </g>
  <g transform="translate(54.75,56.58)" fill="#6846DA">
    <circle cx="0" cy="0" r="0.75" class="primitive"/>
  </g>
  <g transform="translate(55.77,59.17)" fill="#6846DA">
    <circle cx="0" cy="0" r="0.75" class="primitive"/>
  </g>
  <g transform="translate(58.04,61.75)" fill="#6846DA">
    <circle cx="0" cy="0" r="0.75" class="primitive"/>
  </g>
  <g transform="translate(57.67,64.33)" fill="#26EA07">
    <circle cx="0" cy="0" r="0.75" class="primitive"/>
  </g>
  <g transform="translate(61.98,66.92)" fill="#6846DA">
    <circle cx="0" cy="0" r="0.75" class="primitive"/>
  </g>
  <g transform="translate(61.29,69.5)" fill="#6846DA">
    <circle cx="0" cy="0" r="0.75" class="primitive"/>
  </g>
  <g transform="translate(62.77,72.09)" fill="#26EA07">
    <circle cx="0" cy="0" r="0.75" class="primitive"/>
  </g>
  <g transform="translate(64,74.67)" fill="#26EA07">
    <circle cx="0" cy="0" r="0.75" class="primitive"/>
  </g>
  <g transform="translate(67.9,77.25)" fill="#26EA07">
    <circle cx="0" cy="0" r="0.75" class="primitive"/>
  </g>
  <g transform="translate(68.81,79.84)" fill="#26EA07">
    <circle cx="0" cy="0" r="0.75" class="primitive"/>
  </g>
  <g transform="translate(67.32,82.42)" fill="#6846DA">
    <circle cx="0" cy="0" r="0.75" class="primitive"/>
  </g>
  <g transform="translate(72.16,85)" fill="#26EA07">
    <circle cx="0" cy="0" r="0.75" class="primitive"/>
  </g>
  <g transform="translate(70.16,87.59)" fill="#26EA07">
    <circle cx="0" cy="0" r="0.75" class="primitive"/>
  </g>
  <g transform="translate(74.66,90.17)" fill="#26EA07">
    <circle cx="0" cy="0" r="0.75" class="primitive"/>
  </g>
  <g transform="translate(73.69,92.76)" fill="#26EA07">
    <circle cx="0" cy="0" r="0.75" class="primitive"/>
  </g>
  <g transform="translate(75.1,95.34)" fill="#6846DA">
    <circle cx="0" cy="0" r="0.75" class="primitive"/>
  </g>
  <g transform="translate(74.14,97.92)" fill="#26EA07">
    <circle cx="0" cy="0" r="0.75" class="primitive"/>
  </g>
  <g transform="translate(78.75,100.51)" fill="#26EA07">
    <circle cx="0" cy="0" r="0.75" class="primitive"/>
  </g>
  <g transform="translate(75.6,103.09)" fill="#6846DA">
    <circle cx="0" cy="0" r="0.75" class="primitive"/>
  </g>
  <g transform="translate(75.39,101.8)" fill="#6846DA">
    <circle cx="0" cy="0" r="0.75" class="primitive"/>
  </g>
  <g transform="translate(73.86,99.86)" fill="#26EA07">
    <circle cx="0" cy="0" r="0.75" class="primitive"/>
  </g>
  <g transform="translate(73.77,97.6)" fill="#26EA07">
    <circle cx="0" cy="0" r="0.75" class="primitive"/>
  </g>
  <g transform="translate(72.65,95.18)" fill="#6846DA">
    <circle cx="0" cy="0" r="0.75" class="primitive"/>
  </g>
  <g transform="translate(69.74,92.68)" fill="#6846DA">
    <circle cx="0" cy="0" r="0.75" class="primitive"/>
  </g>
  <g transform="translate(69.26,90.13)" fill="#26EA07">
    <circle cx="0" cy="0" r="0.75" class="primitive"/>
  </g>
  <g transform="translate(67.95,87.57)" fill="#6846DA">
    <circle cx="0" cy="0" r="0.75" class="primitive"/>
  </g>
  <g transform="translate(66.83,84.99)" fill="#26EA07">
    <circle cx="0" cy="0" r="0.75" class="primitive"/>
  </g>
  <g transform="translate(66.56,82.42)" fill="#6846DA">
    <circle cx="0" cy="0" r="0.75" class="primitive"/>
  </g>
  <g transform="translate(66.24,79.83)" fill="#6846DA">
    <circle cx="0" cy="0" r="0.75" class="primitive"/>
  </g>
  <g transform="translate(62.41,77.25)" fill="#6846DA">
    <circle cx="0" cy="0" r="0.75" class="primitive"/>
  </g>
  <g transform="translate(61.84,74.67)" fill="#26EA07">
    <circle cx="0" cy="0" r="0.75" class="primitive"/>
  </g>
  <g fill-opacity="1" id="img-29b4c979-5">
    <g transform="translate(61.84,74.67)" fill="#26EA07">
      <circle cx="0" cy="0" r="0.75" class="primitive"/>
    </g>
    <g transform="translate(60.86,72.09)" fill="#6846DA">
      <circle cx="0" cy="0" r="0.75" class="primitive"/>
    </g>
    <g transform="translate(58.46,69.5)" fill="#6846DA">
      <circle cx="0" cy="0" r="0.75" class="primitive"/>
    </g>
    <g transform="translate(56.13,66.92)" fill="#26EA07">
      <circle cx="0" cy="0" r="0.75" class="primitive"/>
    </g>
    <g transform="translate(56.11,64.33)" fill="#6846DA">
      <circle cx="0" cy="0" r="0.75" class="primitive"/>
    </g>
    <g transform="translate(55.21,61.75)" fill="#6846DA">
      <circle cx="0" cy="0" r="0.75" class="primitive"/>
    </g>
    <g transform="translate(53.76,59.17)" fill="#26EA07">
      <circle cx="0" cy="0" r="0.75" class="primitive"/>
    </g>
    <g transform="translate(47.86,56.58)" fill="#26EA07">
      <circle cx="0" cy="0" r="0.75" class="primitive"/>
    </g>
    <g transform="translate(43.02,54)" fill="#26EA07">
      <circle cx="0" cy="0" r="0.75" class="primitive"/>
    </g>
    <g transform="translate(38.27,51.42)" fill="#6846DA">
      <circle cx="0" cy="0" r="0.75" class="primitive"/>
    </g>
    <g transform="translate(33.65,48.83)" fill="#6846DA">
      <circle cx="0" cy="0" r="0.75" class="primitive"/>
    </g>
    <g transform="translate(33.03,46.25)" fill="#6846DA">
      <circle cx="0" cy="0" r="0.75" class="primitive"/>
    </g>
    <g transform="translate(32.56,43.67)" fill="#6846DA">
      <circle cx="0" cy="0" r="0.75" class="primitive"/>
    </g>
    <g transform="translate(30.77,41.08)" fill="#26EA07">
      <circle cx="0" cy="0" r="0.75" class="primitive"/>
    </g>
    <g transform="translate(26.45,38.5)" fill="#6846DA">
      <circle cx="0" cy="0" r="0.75" class="primitive"/>
    </g>
    <g transform="translate(26.19,35.91)" fill="#6846DA">
      <circle cx="0" cy="0" r="0.75" class="primitive"/>
    </g>
    <g transform="translate(25.72,33.33)" fill="#6846DA">
      <circle cx="0" cy="0" r="0.75" class="primitive"/>
    </g>
    <g transform="translate(24.59,30.75)" fill="#26EA07">
      <circle cx="0" cy="0" r="0.75" class="primitive"/>
    </g>
    <g transform="translate(21.43,28.16)" fill="#26EA07">
      <circle cx="0" cy="0" r="0.75" class="primitive"/>
    </g>
    <g transform="translate(20.96,25.58)" fill="#6846DA">
      <circle cx="0" cy="0" r="0.75" class="primitive"/>
    </g>
    <g transform="translate(20.08,23)" fill="#26EA07">
      <circle cx="0" cy="0" r="0.75" class="primitive"/>
    </g>
    <g transform="translate(13.4,20.41)" fill="#6846DA">
      <circle cx="0" cy="0" r="0.75" class="primitive"/>
    </g>
    <g transform="translate(9.3,17.83)" fill="#26EA07">
      <circle cx="0" cy="0" r="0.75" class="primitive"/>
    </g>
    <g transform="translate(4.83,15.24)" fill="#6846DA">
      <circle cx="0" cy="0" r="0.75" class="primitive"/>
    </g>
    <g transform="translate(4.77,12.66)" fill="#26EA07">
      <circle cx="0" cy="0" r="0.75" class="primitive"/>
    </g>
    <g transform="translate(3.75,10.08)" fill="#000000">
      <circle cx="0" cy="0" r="0.75" class="primitive"/>
    </g>
    <g transform="translate(3.75,7.49)" fill="#000000">
      <circle cx="0" cy="0" r="0.75" class="primitive"/>
    </g>
  </g>
</g>
<g stroke-opacity="1" fill-opacity="1" font-size="1.41" stroke-width="0.1" id="img-29b4c979-6">
  <g transform="translate(5.8,4.91)" stroke="#000000">
    <g class="primitive">
      <text dy="0.35em">N38</text>
    </g>
  </g>
  <g transform="translate(8.53,7.49)" stroke="#000000">
    <g class="primitive">
      <text dy="0.35em">N37</text>
    </g>
  </g>
  <g transform="translate(11.06,10.08)" stroke="#000000">
    <g class="primitive">
      <text dy="0.35em">N36</text>
    </g>
  </g>
  <g transform="translate(7.6,12.66)" stroke="#000000">
    <g class="primitive">
      <text dy="0.35em">N35</text>
    </g>
  </g>
  <g transform="translate(13.01,15.24)" stroke="#000000">
    <g class="primitive">
      <text dy="0.35em">N34</text>
    </g>
  </g>
  <g transform="translate(17.88,17.83)" stroke="#000000">
    <g class="primitive">
      <text dy="0.35em">N33</text>
    </g>
  </g>
  <g transform="translate(22.62,20.41)" stroke="#000000">
    <g class="primitive">
      <text dy="0.35em">N32</text>
    </g>
  </g>
  <g transform="translate(22.9,23)" stroke="#000000">
    <g class="primitive">
      <text dy="0.35em">N31</text>
    </g>
  </g>
  <g transform="translate(23.34,25.58)" stroke="#000000">
    <g class="primitive">
      <text dy="0.35em">N30</text>
    </g>
  </g>
  <g transform="translate(28.76,28.16)" stroke="#000000">
    <g class="primitive">
      <text dy="0.35em">N29</text>
    </g>
  </g>
  <g transform="translate(27.7,30.75)" stroke="#000000">
    <g class="primitive">
      <text dy="0.35em">N28</text>
    </g>
  </g>
  <g transform="translate(31.52,33.33)" stroke="#000000">
    <g class="primitive">
      <text dy="0.35em">N27</text>
    </g>
  </g>
  <g transform="translate(29.61,35.91)" stroke="#000000">
    <g class="primitive">
      <text dy="0.35em">N26</text>
    </g>
  </g>
  <g transform="translate(33.03,38.5)" stroke="#000000">
    <g class="primitive">
      <text dy="0.35em">N25</text>
    </g>
  </g>
  <g transform="translate(36.93,41.08)" stroke="#000000">
    <g class="primitive">
      <text dy="0.35em">N24</text>
    </g>
  </g>
  <g transform="translate(48.41,43.67)" stroke="#000000">
    <g class="primitive">
      <text dy="0.35em">N23</text>
    </g>
  </g>
  <g transform="translate(35.97,46.25)" stroke="#000000">
    <g class="primitive">
      <text dy="0.35em">N22</text>
    </g>
  </g>
  <g transform="translate(42.67,48.83)" stroke="#000000">
    <g class="primitive">
      <text dy="0.35em">N21</text>
    </g>
  </g>
  <g transform="translate(44.93,51.42)" stroke="#000000">
    <g class="primitive">
      <text dy="0.35em">N20</text>
    </g>
  </g>
  <g transform="translate(50.3,54)" stroke="#000000">
    <g class="primitive">
      <text dy="0.35em">N19</text>
    </g>
  </g>
  <g transform="translate(56.63,56.58)" stroke="#000000">
    <g class="primitive">
      <text dy="0.35em">N18</text>
    </g>
  </g>
  <g transform="translate(57.65,59.17)" stroke="#000000">
    <g class="primitive">
      <text dy="0.35em">N17</text>
    </g>
  </g>
  <g transform="translate(59.92,61.75)" stroke="#000000">
    <g class="primitive">
      <text dy="0.35em">N16</text>
    </g>
  </g>
  <g transform="translate(59.55,64.33)" stroke="#000000">
    <g class="primitive">
      <text dy="0.35em">N15</text>
    </g>
  </g>
  <g transform="translate(63.86,66.92)" stroke="#000000">
    <g class="primitive">
      <text dy="0.35em">N14</text>
    </g>
  </g>
  <g transform="translate(63.16,69.5)" stroke="#000000">
    <g class="primitive">
      <text dy="0.35em">N13</text>
    </g>
  </g>
  <g transform="translate(64.64,72.09)" stroke="#000000">
    <g class="primitive">
      <text dy="0.35em">N12</text>
    </g>
  </g>
  <g transform="translate(65.87,74.67)" stroke="#000000">
    <g class="primitive">
      <text dy="0.35em">N11</text>
    </g>
  </g>
  <g transform="translate(69.78,77.25)" stroke="#000000">
    <g class="primitive">
      <text dy="0.35em">N10</text>
    </g>
  </g>
  <g transform="translate(70.69,79.84)" stroke="#000000">
    <g class="primitive">
      <text dy="0.35em">N9</text>
    </g>
  </g>
  <g transform="translate(69.19,82.42)" stroke="#000000">
    <g class="primitive">
      <text dy="0.35em">N8</text>
    </g>
  </g>
  <g transform="translate(74.03,85)" stroke="#000000">
    <g class="primitive">
      <text dy="0.35em">N7</text>
    </g>
  </g>
  <g transform="translate(72.03,87.59)" stroke="#000000">
    <g class="primitive">
      <text dy="0.35em">N6</text>
    </g>
  </g>
  <g transform="translate(76.53,90.17)" stroke="#000000">
    <g class="primitive">
      <text dy="0.35em">N5</text>
    </g>
  </g>
  <g transform="translate(75.56,92.76)" stroke="#000000">
    <g class="primitive">
      <text dy="0.35em">N4</text>
    </g>
  </g>
  <g transform="translate(76.97,95.34)" stroke="#000000">
    <g class="primitive">
      <text dy="0.35em">N3</text>
    </g>
  </g>
  <g transform="translate(76.01,97.92)" stroke="#000000">
    <g class="primitive">
      <text dy="0.35em">N2</text>
    </g>
  </g>
  <g transform="translate(80.62,100.51)" stroke="#000000">
    <g class="primitive">
      <text dy="0.35em">N0</text>
    </g>
  </g>
  <g transform="translate(77.47,103.09)" stroke="#000000">
    <g class="primitive">
      <text dy="0.35em">N1</text>
    </g>
  </g>
  <g transform="translate(77.26,101.8)" stroke="#000000">
    <g class="primitive">
      <text dy="0.35em">N39</text>
    </g>
  </g>
  <g transform="translate(75.74,99.86)" stroke="#000000">
    <g class="primitive">
      <text dy="0.35em">N40</text>
    </g>
  </g>
  <g transform="translate(75.64,97.6)" stroke="#000000">
    <g class="primitive">
      <text dy="0.35em">N41</text>
    </g>
  </g>
  <g transform="translate(74.52,95.18)" stroke="#000000">
    <g class="primitive">
      <text dy="0.35em">N42</text>
    </g>
  </g>
  <g transform="translate(71.62,92.68)" stroke="#000000">
    <g class="primitive">
      <text dy="0.35em">N43</text>
    </g>
  </g>
  <g transform="translate(71.13,90.13)" stroke="#000000">
    <g class="primitive">
      <text dy="0.35em">N44</text>
    </g>
  </g>
  <g transform="translate(69.83,87.57)" stroke="#000000">
    <g class="primitive">
      <text dy="0.35em">N45</text>
    </g>
  </g>
  <g transform="translate(68.7,84.99)" stroke="#000000">
    <g class="primitive">
      <text dy="0.35em">N46</text>
    </g>
  </g>
  <g transform="translate(68.44,82.42)" stroke="#000000">
    <g class="primitive">
      <text dy="0.35em">N47</text>
    </g>
  </g>
  <g transform="translate(68.11,79.83)" stroke="#000000">
    <g class="primitive">
      <text dy="0.35em">N48</text>
    </g>
  </g>
  <g transform="translate(64.28,77.25)" stroke="#000000">
    <g class="primitive">
      <text dy="0.35em">N49</text>
    </g>
  </g>
  <g transform="translate(63.72,74.67)" stroke="#000000">
    <g class="primitive">
      <text dy="0.35em">N50</text>
    </g>
  </g>
  <g stroke-opacity="1" fill-opacity="1" font-size="1.41" stroke-width="0.1" id="img-29b4c979-7">
    <g transform="translate(63.72,74.67)" stroke="#000000">
      <g class="primitive">
        <text dy="0.35em">N50</text>
      </g>
    </g>
    <g transform="translate(62.73,72.09)" stroke="#000000">
      <g class="primitive">
        <text dy="0.35em">N51</text>
      </g>
    </g>
    <g transform="translate(60.34,69.5)" stroke="#000000">
      <g class="primitive">
        <text dy="0.35em">N52</text>
      </g>
    </g>
    <g transform="translate(58.01,66.92)" stroke="#000000">
      <g class="primitive">
        <text dy="0.35em">N53</text>
      </g>
    </g>
    <g transform="translate(57.99,64.33)" stroke="#000000">
      <g class="primitive">
        <text dy="0.35em">N54</text>
      </g>
    </g>
    <g transform="translate(57.09,61.75)" stroke="#000000">
      <g class="primitive">
        <text dy="0.35em">N55</text>
      </g>
    </g>
    <g transform="translate(55.63,59.17)" stroke="#000000">
      <g class="primitive">
        <text dy="0.35em">N56</text>
      </g>
    </g>
    <g transform="translate(49.74,56.58)" stroke="#000000">
      <g class="primitive">
        <text dy="0.35em">N57</text>
      </g>
    </g>
    <g transform="translate(44.9,54)" stroke="#000000">
      <g class="primitive">
        <text dy="0.35em">N58</text>
      </g>
    </g>
    <g transform="translate(40.15,51.42)" stroke="#000000">
      <g class="primitive">
        <text dy="0.35em">N59</text>
      </g>
    </g>
    <g transform="translate(35.53,48.83)" stroke="#000000">
      <g class="primitive">
        <text dy="0.35em">N60</text>
      </g>
    </g>
    <g transform="translate(34.91,46.25)" stroke="#000000">
      <g class="primitive">
        <text dy="0.35em">N61</text>
      </g>
    </g>
    <g transform="translate(34.44,43.67)" stroke="#000000">
      <g class="primitive">
        <text dy="0.35em">N62</text>
      </g>
    </g>
    <g transform="translate(32.65,41.08)" stroke="#000000">
      <g class="primitive">
        <text dy="0.35em">N63</text>
      </g>
    </g>
    <g transform="translate(28.33,38.5)" stroke="#000000">
      <g class="primitive">
        <text dy="0.35em">N64</text>
      </g>
    </g>
    <g transform="translate(28.06,35.91)" stroke="#000000">
      <g class="primitive">
        <text dy="0.35em">N65</text>
      </g>
    </g>
    <g transform="translate(27.6,33.33)" stroke="#000000">
      <g class="primitive">
        <text dy="0.35em">N66</text>
      </g>
    </g>
    <g transform="translate(26.47,30.75)" stroke="#000000">
      <g class="primitive">
        <text dy="0.35em">N67</text>
      </g>
    </g>
    <g transform="translate(23.3,28.16)" stroke="#000000">
      <g class="primitive">
        <text dy="0.35em">N68</text>
      </g>
    </g>
    <g transform="translate(22.83,25.58)" stroke="#000000">
      <g class="primitive">
        <text dy="0.35em">N69</text>
      </g>
    </g>
    <g transform="translate(21.96,23)" stroke="#000000">
      <g class="primitive">
        <text dy="0.35em">N70</text>
      </g>
    </g>
    <g transform="translate(15.28,20.41)" stroke="#000000">
      <g class="primitive">
        <text dy="0.35em">N71</text>
      </g>
    </g>
    <g transform="translate(11.17,17.83)" stroke="#000000">
      <g class="primitive">
        <text dy="0.35em">N72</text>
      </g>
    </g>
    <g transform="translate(6.71,15.24)" stroke="#000000">
      <g class="primitive">
        <text dy="0.35em">N73</text>
      </g>
    </g>
    <g transform="translate(6.65,12.66)" stroke="#000000">
      <g class="primitive">
        <text dy="0.35em">N74</text>
      </g>
    </g>
    <g transform="translate(5.63,10.08)" stroke="#000000">
      <g class="primitive">
        <text dy="0.35em"></text>
      </g>
    </g>
    <g transform="translate(5.63,7.49)" stroke="#000000">
      <g class="primitive">
        <text dy="0.35em"></text>
      </g>
    </g>
  </g>
</g>
</svg>
