<?xml version="1.0" encoding="UTF-8"?>
<svg xmlns="http://www.w3.org/2000/svg"
     xmlns:xlink="http://www.w3.org/1999/xlink"
     version="1.2"
     width="150mm" height="74mm" viewBox="0 0 150 74"
     stroke="none"
     fill="#000000"
     stroke-width="0.3"
     font-size="3.88"
>
<defs>
  <marker id="arrow" markerWidth="15" markerHeight="7" refX="5" refY="3.5" orient="auto" markerUnits="strokeWidth">
    <path d="M0,0 L15,3.5 L0,7 z" stroke="context-stroke" fill="context-stroke"/>
  </marker>
</defs>
<g stroke-opacity="1" stroke-width="0.3" id="img-29b4c979-1">
  <g transform="translate(4.42,3.36)" stroke="#88B312">
    <path fill="none" d="M-0.67,0 L0.67,0 " class="primitive"/>
  </g>
  <g transform="translate(5.8,6.57)" stroke="#88B312">
    <path fill="none" d="M-2.05,0 L2.05,0 " class="primitive"/>
  </g>
  <g transform="translate(9.93,9.77)" stroke="#D47D50">
    <path fill="none" d="M-3.1,0 L3.1,0 " class="primitive"/>
  </g>
  <g transform="translate(13.95,12.97)" stroke="#88B312">
    <path fill="none" d="M-3.3,0 L3.3,0 " class="primitive"/>
  </g>
  <g transform="translate(16.89,16.18)" stroke="#D47D50">
    <path fill="none" d="M-3.98,0 L3.98,0 " class="primitive"/>
  </g>
  <g transform="translate(19.78,19.38)" stroke="#88B312">
    <path fill="none" d="M-1.33,0 L1.33,0 " class="primitive"/>
  </g>
  <g transform="translate(22.08,22.58)" stroke="#88B312">
    <path fill="none" d="M-0.52,0 L0.52,0 " class="primitive"/>
  </g>
  <g transform="translate(35.67,25.79)" stroke="#88B312">
    <path fill="none" d="M-1.3,0 L1.3,0 " class="primitive"/>
  </g>
  <g transform="translate(39.76,28.99)" stroke="#D47D50">
    <path fill="none" d="M-0.37,0 L0.37,0 " class="primitive"/>
  </g>
  <g transform="translate(40.36,32.19)" stroke="#D47D50">
    <path fill="none" d="M-0.32,0 L0.32,0 " class="primitive"/>
  </g>
  <g transform="translate(42.98,35.4)" stroke="#D47D50">
    <path fill="none" d="M-1.98,0 L1.98,0 " class="primitive"/>
  </g>
  <g transform="translate(45.25,38.6)" stroke="#D47D50">
    <path fill="none" d="M-3.04,0 L3.04,0 " class="primitive"/>
  </g>
  <g transform="translate(46.71,41.81)" stroke="#88B312">
    <path fill="none" d="M-1.92,0 L1.92,0 " class="primitive"/>
  </g>
  <g transform="translate(45.53,45.01)" stroke="#88B312">
    <path fill="none" d="M-0.18,0 L0.18,0 " class="primitive"/>
  </g>
  <g transform="translate(65.58,48.21)" stroke="#88B312">
    <path fill="none" d="M-5.87,0 L5.87,0 " class="primitive"/>
  </g>
  <g transform="translate(61.28,51.42)" stroke="#88B312">
    <path fill="none" d="M-1.13,0 L1.13,0 " class="primitive"/>
  </g>
  <g transform="translate(61.05,54.62)" stroke="#88B312">
    <path fill="none" d="M-0.45,0 L0.45,0 " class="primitive"/>
  </g>
  <g transform="translate(66.43,57.82)" stroke="#88B312">
    <path fill="none" d="M-2.19,0 L2.19,0 " class="primitive"/>
  </g>
  <g transform="translate(67.31,61.03)" stroke="#88B312">
    <path fill="none" d="M-1.07,0 L1.07,0 " class="primitive"/>
  </g>
  <g transform="translate(68.88,64.23)" stroke="#D47D50">
    <path fill="none" d="M-1.88,0 L1.88,0 " class="primitive"/>
  </g>
  <g transform="translate(70.05,67.43)" stroke="#88B312">
    <path fill="none" d="M-0.05,0 L0.05,0 " class="primitive"/>
  </g>
  <g transform="translate(74.37,70.64)" stroke="#88B312">
    <path fill="none" d="M-4.38,0 L4.38,0 " class="primitive"/>
  </g>
  <g transform="translate(68.5,69.03)" stroke="#D47D50">
    <path fill="none" d="M-1.5,0 L1.5,0 " class="primitive"/>
  </g>
  <g transform="translate(70,69.03)" stroke="#D47D50">
    <path fill="none" d="M0,1.6 L0,-1.6 " class="primitive"/>
  </g>
  <g transform="translate(66.62,66.63)" stroke="#88B312">
    <path fill="none" d="M-0.38,0 L0.38,0 " class="primitive"/>
  </g>
  <g transform="translate(67,66.63)" stroke="#88B312">
    <path fill="none" d="M0,2.4 L0,-2.4 " class="primitive"/>
  </g>
  <g transform="translate(65.24,63.83)" stroke="#88B312">
    <path fill="none" d="M-1,0 L1,0 " class="primitive"/>
  </g>
  <g transform="translate(66.24,63.83)" stroke="#88B312">
    <path fill="none" d="M0,2.8 L0,-2.8 " class="primitive"/>
  </g>
  <g transform="translate(62.42,60.83)" stroke="#D47D50">
    <path fill="none" d="M-1.82,0 L1.82,0 " class="primitive"/>
  </g>
  <g transform="translate(64.24,60.83)" stroke="#D47D50">
    <path fill="none" d="M0,3 L0,-3 " class="primitive"/>
  </g>
  <g transform="translate(60.37,57.72)" stroke="#D47D50">
    <path fill="none" d="M-0.23,0 L0.23,0 " class="primitive"/>
  </g>
  <g transform="translate(60.6,57.72)" stroke="#D47D50">
    <path fill="none" d="M0,3.1 L0,-3.1 " class="primitive"/>
  </g>
  <g transform="translate(59.92,54.57)" stroke="#88B312">
    <path fill="none" d="M-0.22,0 L0.22,0 " class="primitive"/>
  </g>
  <g transform="translate(60.14,54.57)" stroke="#88B312">
    <path fill="none" d="M0,3.15 L0,-3.15 " class="primitive"/>
  </g>
  <g transform="translate(52.53,51.39)" stroke="#88B312">
    <path fill="none" d="M-7.17,0 L7.17,0 " class="primitive"/>
  </g>
  <g transform="translate(59.7,51.39)" stroke="#88B312">
    <path fill="none" d="M0,3.18 L0,-3.18 " class="primitive"/>
  </g>
  <g transform="translate(45.07,48.2)" stroke="#D47D50">
    <path fill="none" d="M-0.28,0 L0.28,0 " class="primitive"/>
  </g>
  <g transform="translate(45.36,48.2)" stroke="#D47D50">
    <path fill="none" d="M0,3.19 L0,-3.19 " class="primitive"/>
  </g>
  <g transform="translate(43.5,45)" stroke="#D47D50">
    <path fill="none" d="M-1.29,0 L1.29,0 " class="primitive"/>
  </g>
  <g transform="translate(44.79,45)" stroke="#D47D50">
    <path fill="none" d="M0,3.2 L0,-3.2 " class="primitive"/>
  </g>
  <g transform="translate(41.6,41.8)" stroke="#D47D50">
    <path fill="none" d="M-0.61,0 L0.61,0 " class="primitive"/>
  </g>
  <g transform="translate(42.21,41.8)" stroke="#D47D50">
    <path fill="none" d="M0,3.2 L0,-3.2 " class="primitive"/>
  </g>
  <g transform="translate(40.52,38.6)" stroke="#D47D50">
    <path fill="none" d="M-0.48,0 L0.48,0 " class="primitive"/>
  </g>
  <g transform="translate(41,38.6)" stroke="#D47D50">
    <path fill="none" d="M0,3.2 L0,-3.2 " class="primitive"/>
  </g>
  <g transform="translate(39.72,35.4)" stroke="#88B312">
    <path fill="none" d="M-0.32,0 L0.32,0 " class="primitive"/>
  </g>
  <g transform="translate(40.04,35.4)" stroke="#88B312">
    <path fill="none" d="M0,3.2 L0,-3.2 " class="primitive"/>
  </g>
  <g transform="translate(36.88,32.19)" stroke="#D47D50">
    <path fill="none" d="M-2.51,0 L2.51,0 " class="primitive"/>
  </g>
  <g transform="translate(39.39,32.19)" stroke="#D47D50">
    <path fill="none" d="M0,3.2 L0,-3.2 " class="primitive"/>
  </g>
  <g transform="translate(27.96,28.99)" stroke="#D47D50">
    <path fill="none" d="M-6.4,0 L6.4,0 " class="primitive"/>
  </g>
  <g transform="translate(34.36,28.99)" stroke="#D47D50">
    <path fill="none" d="M0,3.2 L0,-3.2 " class="primitive"/>
  </g>
  <g transform="translate(20,25.79)" stroke="#D47D50">
    <path fill="none" d="M-1.56,0 L1.56,0 " class="primitive"/>
  </g>
  <g stroke-opacity="1" stroke-width="0.3" id="img-29b4c979-2">
    <g transform="translate(20,25.79)" stroke="#D47D50">
      <path fill="none" d="M-1.56,0 L1.56,0 " class="primitive"/>
    </g>
    <g transform="translate(21.56,25.79)" stroke="#D47D50">
      <path fill="none" d="M0,3.2 L0,-3.2 " class="primitive"/>
    </g>
    <g transform="translate(15.67,22.58)" stroke="#D47D50">
      <path fill="none" d="M-2.77,0 L2.77,0 " class="primitive"/>
    </g>
    <g transform="translate(18.44,22.58)" stroke="#D47D50">
      <path fill="none" d="M0,3.2 L0,-3.2 " class="primitive"/>
    </g>
    <g transform="translate(11.78,19.38)" stroke="#88B312">
      <path fill="none" d="M-1.13,0 L1.13,0 " class="primitive"/>
    </g>
    <g transform="translate(12.91,19.38)" stroke="#88B312">
      <path fill="none" d="M0,3.2 L0,-3.2 " class="primitive"/>
    </g>
    <g transform="translate(8.74,16.18)" stroke="#D47D50">
      <path fill="none" d="M-1.91,0 L1.91,0 " class="primitive"/>
    </g>
    <g transform="translate(10.65,16.18)" stroke="#D47D50">
      <path fill="none" d="M0,3.2 L0,-3.2 " class="primitive"/>
    </g>
    <g transform="translate(5.29,12.97)" stroke="#D47D50">
      <path fill="none" d="M-1.54,0 L1.54,0 " class="primitive"/>
    </g>
    <g transform="translate(6.83,12.97)" stroke="#D47D50">
      <path fill="none" d="M0,3.2 L0,-3.2 " class="primitive"/>
    </g>
    <g transform="translate(3.75,9.77)" stroke="#000000">
      <path fill="none" d="M0,0 L0,0 " class="primitive"/>
    </g>
    <g transform="translate(3.75,9.77)" stroke="#000000">
      <path fill="none" d="M0,3.2 L0,-3.2 " class="primitive"/>
    </g>
    <g transform="translate(3.75,6.57)" stroke="#000000">
      <path fill="none" d="M0,0 L0,0 " class="primitive"/>
    </g>
    <g transform="translate(3.75,6.57)" stroke="#000000">
      <path fill="none" d="M0,3.2 L0,-3.2 " class="primitive"/>
    </g>
  </g>
</g>
<g fill-opacity="1" id="img-29b4c979-3">
  <g transform="translate(5.09,3.36)" fill="#88B312">
    <circle cx="0" cy="0" r="0.75" class="primitive"/>
  </g>
  <g transform="translate(7.85,6.57)" fill="#88B312">
    <circle cx="0" cy="0" r="0.75" class="primitive"/>
  </g>
  <g transform="translate(13.03,9.77)" fill="#D47D50">
    <circle cx="0" cy="0" r="0.75" class="primitive"/>
  </g>
  <g transform="translate(17.25,12.97)" fill="#88B312">
    <circle cx="0" cy="0" r="0.75" class="primitive"/>
  </g>
  <g transform="translate(20.87,16.18)" fill="#D47D50">
    <circle cx="0" cy="0" r="0.75" class="primitive"/>
  </g>
  <g transform="translate(21.11,19.38)" fill="#88B312">
    <circle cx="0" cy="0" r="0.75" class="primitive"/>
  </g>
  <g transform="translate(22.6,22.58)" fill="#88B312">
    <circle cx="0" cy="0" r="0.75" class="primitive"/>
  </g>
  <g transform="translate(36.97,25.79)" fill="#88B312">
    <circle cx="0" cy="0" r="0.75" class="primitive"/>
  </g>
  <g transform="translate(40.14,28.99)" fill="#D47D50">
    <circle cx="0" cy="0" r="0.75" class="primitive"/>
  </g>
  <g transform="translate(40.67,32.19)" fill="#D47D50">
    <circle cx="0" cy="0" r="0.75" class="primitive"/>
  </g>
  <g transform="translate(44.96,35.4)" fill="#D47D50">
    <circle cx="0" cy="0" r="0.75" class="primitive"/>
  </g>
  <g transform="translate(48.28,38.6)" fill="#D47D50">
    <circle cx="0" cy="0" r="0.75" class="primitive"/>
  </g>
  <g transform="translate(48.62,41.81)" fill="#88B312">
    <circle cx="0" cy="0" r="0.75" class="primitive"/>
  </g>
  <g transform="translate(45.71,45.01)" fill="#88B312">
    <circle cx="0" cy="0" r="0.75" class="primitive"/>
  </g>
  <g transform="translate(71.45,48.21)" fill="#88B312">
    <circle cx="0" cy="0" r="0.75" class="primitive"/>
  </g>
  <g transform="translate(62.41,51.42)" fill="#88B312">
    <circle cx="0" cy="0" r="0.75" class="primitive"/>
  </g>
  <g transform="translate(61.5,54.62)" fill="#88B312">
    <circle cx="0" cy="0" r="0.75" class="primitive"/>
  </g>
  <g transform="translate(68.63,57.82)" fill="#88B312">
    <circle cx="0" cy="0" r="0.75" class="primitive"/>
  </g>
  <g transform="translate(68.38,61.03)" fill="#88B312">
    <circle cx="0" cy="0" r="0.75" class="primitive"/>
  </g>
  <g transform="translate(70.75,64.23)" fill="#D47D50">
    <circle cx="0" cy="0" r="0.75" class="primitive"/>
  </g>
  <g transform="translate(70.1,67.43)" fill="#88B312">
    <circle cx="0" cy="0" r="0.75" class="primitive"/>
  </g>
  <g transform="translate(78.75,70.64)" fill="#88B312">
    <circle cx="0" cy="0" r="0.75" class="primitive"/>
  </g>
  <g transform="translate(70,69.03)" fill="#D47D50">
    <circle cx="0" cy="0" r="0.75" class="primitive"/>
  </g>
  <g transform="translate(67,66.63)" fill="#88B312">
    <circle cx="0" cy="0" r="0.75" class="primitive"/>
  </g>
  <g transform="translate(66.24,63.83)" fill="#88B312">
    <circle cx="0" cy="0" r="0.75" class="primitive"/>
  </g>
  <g transform="translate(64.24,60.83)" fill="#D47D50">
    <circle cx="0" cy="0" r="0.75" class="primitive"/>
  </g>
  <g transform="translate(60.6,57.72)" fill="#D47D50">
    <circle cx="0" cy="0" r="0.75" class="primitive"/>
  </g>
  <g transform="translate(60.14,54.57)" fill="#88B312">
    <circle cx="0" cy="0" r="0.75" class="primitive"/>
  </g>
  <g transform="translate(59.7,51.39)" fill="#88B312">
    <circle cx="0" cy="0" r="0.75" class="primitive"/>
  </g>
  <g transform="translate(45.36,48.2)" fill="#D47D50">
    <circle cx="0" cy="0" r="0.75" class="primitive"/>
  </g>
  <g transform="translate(44.79,45)" fill="#D47D50">
    <circle cx="0" cy="0" r="0.75" class="primitive"/>
  </g>
  <g transform="translate(42.21,41.8)" fill="#D47D50">
    <circle cx="0" cy="0" r="0.75" class="primitive"/>
  </g>
  <g transform="translate(41,38.6)" fill="#D47D50">
    <circle cx="0" cy="0" r="0.75" class="primitive"/>
  </g>
  <g transform="translate(40.04,35.4)" fill="#88B312">
    <circle cx="0" cy="0" r="0.75" class="primitive"/>
  </g>
  <g transform="translate(39.39,32.19)" fill="#D47D50">
    <circle cx="0" cy="0" r="0.75" class="primitive"/>
  </g>
  <g transform="translate(34.36,28.99)" fill="#D47D50">
    <circle cx="0" cy="0" r="0.75" class="primitive"/>
  </g>
  <g transform="translate(21.56,25.79)" fill="#D47D50">
    <circle cx="0" cy="0" r="0.75" class="primitive"/>
  </g>
  <g transform="translate(18.44,22.58)" fill="#D47D50">
    <circle cx="0" cy="0" r="0.75" class="primitive"/>
  </g>
  <g transform="translate(12.91,19.38)" fill="#88B312">
    <circle cx="0" cy="0" r="0.75" class="primitive"/>
  </g>
  <g transform="translate(10.65,16.18)" fill="#D47D50">
    <circle cx="0" cy="0" r="0.75" class="primitive"/>
  </g>
  <g transform="translate(6.83,12.97)" fill="#D47D50">
    <circle cx="0" cy="0" r="0.75" class="primitive"/>
  </g>
  <g transform="translate(3.75,9.77)" fill="#000000">
    <circle cx="0" cy="0" r="0.75" class="primitive"/>
  </g>
  <g transform="translate(3.75,6.57)" fill="#000000">
    <circle cx="0" cy="0" r="0.75" class="primitive"/>
  </g>
</g>
<g stroke-opacity="1" fill-opacity="1" font-size="1.41" stroke-width="0.1" id="img-29b4c979-4">
  <g transform="translate(6.96,3.36)" stroke="#000000">
    <g class="primitive">
      <text dy="0.35em">N21</text>
    </g>
  </g>
  <g transform="translate(9.73,6.57)" stroke="#000000">
    <g class="primitive">
      <text dy="0.35em">N20</text>
    </g>
  </g>
  <g transform="translate(14.91,9.77)" stroke="#000000">
    <g class="primitive">
      <text dy="0.35em">N19</text>
    </g>
  </g>
  <g transform="translate(19.12,12.97)" stroke="#000000">
    <g class="primitive">
      <text dy="0.35em">N18</text>
    </g>
  </g>
  <g transform="translate(22.75,16.18)" stroke="#000000">
    <g class="primitive">
      <text dy="0.35em">N17</text>
    </g>
  </g>
  <g transform="translate(22.98,19.38)" stroke="#000000">
    <g class="primitive">
      <text dy="0.35em">N16</text>
    </g>
  </g>
  <g transform="translate(24.47,22.58)" stroke="#000000">
    <g class="primitive">
      <text dy="0.35em">N15</text>
    </g>
  </g>
  <g transform="translate(38.84,25.79)" stroke="#000000">
    <g class="primitive">
      <text dy="0.35em">N14</text>
    </g>
  </g>
  <g transform="translate(42.01,28.99)" stroke="#000000">
    <g class="primitive">
      <text dy="0.35em">N13</text>
    </g>
  </g>
  <g transform="translate(42.55,32.19)" stroke="#000000">
    <g class="primitive">
      <text dy="0.35em">N12</text>
    </g>
  </g>
  <g transform="translate(46.83,35.4)" stroke="#000000">
    <g class="primitive">
      <text dy="0.35em">N11</text>
    </g>
  </g>
  <g transform="translate(50.16,38.6)" stroke="#000000">
    <g class="primitive">
      <text dy="0.35em">N10</text>
    </g>
  </g>
  <g transform="translate(50.5,41.81)" stroke="#000000">
    <g class="primitive">
      <text dy="0.35em">N9</text>
    </g>
  </g>
  <g transform="translate(47.58,45.01)" stroke="#000000">
    <g class="primitive">
      <text dy="0.35em">N8</text>
    </g>
  </g>
  <g transform="translate(73.33,48.21)" stroke="#000000">
    <g class="primitive">
      <text dy="0.35em">N7</text>
    </g>
  </g>
  <g transform="translate(64.28,51.42)" stroke="#000000">
    <g class="primitive">
      <text dy="0.35em">N6</text>
    </g>
  </g>
  <g transform="translate(63.38,54.62)" stroke="#000000">
    <g class="primitive">
      <text dy="0.35em">N5</text>
    </g>
  </g>
  <g transform="translate(70.5,57.82)" stroke="#000000">
    <g class="primitive">
      <text dy="0.35em">N4</text>
    </g>
  </g>
  <g transform="translate(70.26,61.03)" stroke="#000000">
    <g class="primitive">
      <text dy="0.35em">N3</text>
    </g>
  </g>
  <g transform="translate(72.63,64.23)" stroke="#000000">
    <g class="primitive">
      <text dy="0.35em">N2</text>
    </g>
  </g>
  <g transform="translate(71.97,67.43)" stroke="#000000">
    <g class="primitive">
      <text dy="0.35em">N0</text>
    </g>
  </g>
  <g transform="translate(80.62,70.64)" stroke="#000000">
    <g class="primitive">
      <text dy="0.35em">N1</text>
    </g>
  </g>
  <g transform="translate(71.87,69.03)" stroke="#000000">
    <g class="primitive">
      <text dy="0.35em">N22</text>
    </g>
  </g>
  <g transform="translate(68.87,66.63)" stroke="#000000">
    <g class="primitive">
      <text dy="0.35em">N23</text>
    </g>
  </g>
  <g transform="translate(68.11,63.83)" stroke="#000000">
    <g class="primitive">
      <text dy="0.35em">N24</text>
    </g>
  </g>
  <g transform="translate(66.12,60.83)" stroke="#000000">
    <g class="primitive">
      <text dy="0.35em">N25</text>
    </g>
  </g>
  <g transform="translate(62.47,57.72)" stroke="#000000">
    <g class="primitive">
      <text dy="0.35em">N26</text>
    </g>
  </g>
  <g transform="translate(62.02,54.57)" stroke="#000000">
    <g class="primitive">
      <text dy="0.35em">N27</text>
    </g>
  </g>
  <g transform="translate(61.58,51.39)" stroke="#000000">
    <g class="primitive">
      <text dy="0.35em">N28</text>
    </g>
  </g>
  <g transform="translate(47.23,48.2)" stroke="#000000">
    <g class="primitive">
      <text dy="0.35em">N29</text>
    </g>
  </g>
  <g transform="translate(46.66,45)" stroke="#000000">
    <g class="primitive">
      <text dy="0.35em">N30</text>
    </g>
  </g>
  <g transform="translate(44.09,41.8)" stroke="#000000">
    <g class="primitive">
      <text dy="0.35em">N31</text>
    </g>
  </g>
  <g transform="translate(42.87,38.6)" stroke="#000000">
    <g class="primitive">
      <text dy="0.35em">N32</text>
    </g>
  </g>
  <g transform="translate(41.91,35.4)" stroke="#000000">
    <g class="primitive">
      <text dy="0.35em">N33</text>
    </g>
  </g>
  <g transform="translate(41.27,32.19)" stroke="#000000">
    <g class="primitive">
      <text dy="0.35em">N34</text>
    </g>
  </g>
  <g transform="translate(36.24,28.99)" stroke="#000000">
    <g class="primitive">
      <text dy="0.35em">N35</text>
    </g>
  </g>
  <g transform="translate(23.44,25.79)" stroke="#000000">
    <g class="primitive">
      <text dy="0.35em">N36</text>
    </g>
  </g>
  <g transform="translate(20.32,22.58)" stroke="#000000">
    <g class="primitive">
      <text dy="0.35em">N37</text>
    </g>
  </g>
  <g transform="translate(14.78,19.38)" stroke="#000000">
    <g class="primitive">
      <text dy="0.35em">N38</text>
    </g>
  </g>
  <g transform="translate(12.52,16.18)" stroke="#000000">
    <g class="primitive">
      <text dy="0.35em">N39</text>
    </g>
  </g>
  <g transform="translate(8.7,12.97)" stroke="#000000">
    <g class="primitive">
      <text dy="0.35em">N40</text>
    </g>
  </g>
  <g transform="translate(5.63,9.77)" stroke="#000000">
    <g class="primitive">
      <text dy="0.35em"></text>
    </g>
  </g>
  <g transform="translate(5.63,6.57)" stroke="#000000">
    <g class="primitive">
      <text dy="0.35em"></text>
    </g>
  </g>
</g>
</svg>
