<?xml version="1.0" encoding="UTF-8"?>
<svg xmlns="http://www.w3.org/2000/svg"
     xmlns:xlink="http://www.w3.org/1999/xlink"
     version="1.2"
     width="150mm" height="46mm" viewBox="0 0 150 46"
     stroke="none"
     fill="#000000"
     stroke-width="0.3"
     font-size="3.88"
>
<defs>
  <marker id="arrow" markerWidth="15" markerHeight="7" refX="5" refY="3.5" orient="auto" markerUnits="strokeWidth">
    <path d="M0,0 L15,3.5 L0,7 z" stroke="context-stroke" fill="context-stroke"/>
  </marker>
</defs>
<g stroke-opacity="1" stroke-width="0.3" id="img-603bdad0-1">
  <g transform="translate(25.85,2.09)" stroke="#2A7CD0">
    <path fill="none" d="M-8.63,0 L8.63,0 " class="primitive"/>
  </g>
  <g transform="translate(33.53,8.06)" stroke="#436250">
    <path fill="none" d="M-16.3,0 L16.3,0 " class="primitive"/>
  </g>
  <g transform="translate(10.49,5.08)" stroke="#2A7CD0">
    <path fill="none" d="M-6.74,0 L6.74,0 " class="primitive"/>
  </g>
  <g transform="translate(17.23,5.08)" stroke="#2A7CD0">
    <path fill="none" d="M0,2.99 L0,-2.99 " class="primitive"/>
  </g>
  <g transform="translate(18.26,14.04)" stroke="#2A7CD0">
    <path fill="none" d="M-2.39,0 L2.39,0 " class="primitive"/>
  </g>
  <g transform="translate(28.18,20.01)" stroke="#436250">
    <path fill="none" d="M-12.32,0 L12.32,0 " class="primitive"/>
  </g>
  <g transform="translate(9.81,17.03)" stroke="#2A7CD0">
    <path fill="none" d="M-6.06,0 L6.06,0 " class="primitive"/>
  </g>
  <g transform="translate(15.86,17.03)" stroke="#2A7CD0">
    <path fill="none" d="M0,2.99 L0,-2.99 " class="primitive"/>
  </g>
  <g transform="translate(3.75,11.05)" stroke="#000000">
    <path fill="none" d="M0,0 L0,0 " class="primitive"/>
  </g>
  <g transform="translate(3.75,11.05)" stroke="#000000">
    <path fill="none" d="M0,5.97 L0,-5.97 " class="primitive"/>
  </g>
  <g transform="translate(26.33,25.99)" stroke="#436250">
    <path fill="none" d="M-4.15,0 L4.15,0 " class="primitive"/>
  </g>
  <g transform="translate(32.03,31.96)" stroke="#436250">
    <path fill="none" d="M-9.85,0 L9.85,0 " class="primitive"/>
  </g>
  <g transform="translate(21.54,28.97)" stroke="#436250">
    <path fill="none" d="M-0.64,0 L0.64,0 " class="primitive"/>
  </g>
  <g transform="translate(22.17,28.97)" stroke="#436250">
    <path fill="none" d="M0,2.99 L0,-2.99 " class="primitive"/>
  </g>
  <g transform="translate(50.37,37.94)" stroke="#436250">
    <path fill="none" d="M-28.38,0 L28.38,0 " class="primitive"/>
  </g>
  <g transform="translate(36.78,43.91)" stroke="#2A7CD0">
    <path fill="none" d="M-14.78,0 L14.78,0 " class="primitive"/>
  </g>
  <g transform="translate(21.45,40.92)" stroke="#436250">
    <path fill="none" d="M-0.55,0 L0.55,0 " class="primitive"/>
  </g>
  <g transform="translate(21.99,40.92)" stroke="#436250">
    <path fill="none" d="M0,2.99 L0,-2.99 " class="primitive"/>
  </g>
  <g transform="translate(12.32,34.95)" stroke="#2A7CD0">
    <path fill="none" d="M-8.57,0 L8.57,0 " class="primitive"/>
  </g>
  <g transform="translate(20.9,34.95)" stroke="#2A7CD0">
    <path fill="none" d="M0,5.97 L0,-5.97 " class="primitive"/>
  </g>
  <g transform="translate(3.75,23)" stroke="#000000">
    <path fill="none" d="M0,0 L0,0 " class="primitive"/>
  </g>
  <g transform="translate(3.75,23)" stroke="#000000">
    <path fill="none" d="M0,11.95 L0,-11.95 " class="primitive"/>
  </g>
</g>
<g fill-opacity="1" id="img-603bdad0-2">
  <g transform="translate(34.48,2.09)" fill="#2A7CD0">
    <circle cx="0" cy="0" r="0.75" class="primitive"/>
  </g>
  <g transform="translate(49.83,8.06)" fill="#436250">
    <circle cx="0" cy="0" r="0.75" class="primitive"/>
  </g>
  <g transform="translate(17.23,5.08)" fill="#2A7CD0">
    <circle cx="0" cy="0" r="0.75" class="primitive"/>
  </g>
  <g transform="translate(20.65,14.04)" fill="#2A7CD0">
    <circle cx="0" cy="0" r="0.75" class="primitive"/>
  </g>
  <g transform="translate(40.5,20.01)" fill="#436250">
    <circle cx="0" cy="0" r="0.75" class="primitive"/>
  </g>
  <g transform="translate(15.86,17.03)" fill="#2A7CD0">
    <circle cx="0" cy="0" r="0.75" class="primitive"/>
  </g>
  <g transform="translate(3.75,11.05)" fill="#000000">
    <circle cx="0" cy="0" r="0.75" class="primitive"/>
  </g>
  <g transform="translate(30.48,25.99)" fill="#436250">
    <circle cx="0" cy="0" r="0.75" class="primitive"/>
  </g>
  <g transform="translate(41.88,31.96)" fill="#436250">
    <circle cx="0" cy="0" r="0.75" class="primitive"/>
  </g>
  <g transform="translate(22.17,28.97)" fill="#436250">
    <circle cx="0" cy="0" r="0.75" class="primitive"/>
  </g>
  <g transform="translate(78.75,37.94)" fill="#436250">
    <circle cx="0" cy="0" r="0.75" class="primitive"/>
  </g>
  <g transform="translate(51.56,43.91)" fill="#2A7CD0">
    <circle cx="0" cy="0" r="0.75" class="primitive"/>
  </g>
  <g transform="translate(21.99,40.92)" fill="#436250">
    <circle cx="0" cy="0" r="0.75" class="primitive"/>
  </g>
  <g transform="translate(20.9,34.95)" fill="#2A7CD0">
    <circle cx="0" cy="0" r="0.75" class="primitive"/>
  </g>
  <g transform="translate(3.75,23)" fill="#000000">
    <circle cx="0" cy="0" r="0.75" class="primitive"/>
  </g>
</g>
<g stroke-opacity="1" fill-opacity="1" font-size="1.41" stroke-width="0.1" id="img-603bdad0-3">
  <g transform="translate(36.36,2.09)" stroke="#000000">
    <g class="primitive">
      <text dy="0.35em">N4</text>
    </g>
  </g>
  <g transform="translate(51.71,8.06)" stroke="#000000">
    <g class="primitive">
      <text dy="0.35em">N5</text>
    </g>
  </g>
  <g transform="translate(19.1,5.08)" stroke="#000000">
    <g class="primitive">
      <text dy="0.35em">N10</text>
    </g>
  </g>
  <g transform="translate(22.52,14.04)" stroke="#000000">
    <g class="primitive">
      <text dy="0.35em">N6</text>
    </g>
  </g>
  <g transform="translate(42.38,20.01)" stroke="#000000">
    <g class="primitive">
      <text dy="0.35em">N7</text>
    </g>
  </g>
  <g transform="translate(17.74,17.03)" stroke="#000000">
    <g class="primitive">
      <text dy="0.35em">N11</text>
    </g>
  </g>
  <g transform="translate(5.63,11.05)" stroke="#000000">
    <g class="primitive">
      <text dy="0.35em"></text>
    </g>
  </g>
  <g transform="translate(32.35,25.99)" stroke="#000000">
    <g class="primitive">
      <text dy="0.35em">N0</text>
    </g>
  </g>
  <g transform="translate(43.76,31.96)" stroke="#000000">
    <g class="primitive">
      <text dy="0.35em">N1</text>
    </g>
  </g>
  <g transform="translate(24.05,28.97)" stroke="#000000">
    <g class="primitive">
      <text dy="0.35em">N8</text>
    </g>
  </g>
  <g transform="translate(80.62,37.94)" stroke="#000000">
    <g class="primitive">
      <text dy="0.35em">N2</text>
    </g>
  </g>
  <g transform="translate(53.43,43.91)" stroke="#000000">
    <g class="primitive">
      <text dy="0.35em">N3</text>
    </g>
  </g>
  <g transform="translate(23.87,40.92)" stroke="#000000">
    <g class="primitive">
      <text dy="0.35em">N9</text>
    </g>
  </g>
  <g transform="translate(22.77,34.95)" stroke="#000000">
    <g class="primitive">
      <text dy="0.35em">N12</text>
    </g>
  </g>
  <g transform="translate(5.63,23)" stroke="#000000">
    <g class="primitive">
      <text dy="0.35em"></text>
    </g>
  </g>
</g>
</svg>
