<?xml version="1.0" encoding="UTF-8"?>
<svg xmlns="http://www.w3.org/2000/svg"
     xmlns:xlink="http://www.w3.org/1999/xlink"
     version="1.2"
     width="150mm" height="74mm" viewBox="0 0 150 74"
     stroke="none"
     fill="#000000"
     stroke-width="0.3"
     font-size="3.88"
>
<defs>
  <marker id="arrow" markerWidth="15" markerHeight="7" refX="5" refY="3.5" orient="auto" markerUnits="strokeWidth">
    <path d="M0,0 L15,3.5 L0,7 z" stroke="context-stroke" fill="context-stroke"/>
  </marker>
</defs>
<g stroke-opacity="1" stroke-width="0.3" id="img-29b4c979-1">
  <g transform="translate(26.02,3.36)" stroke="#C92AFD">
    <path fill="none" d="M-4.5,0 L4.5,0 " class="primitive"/>
  </g>
  <g transform="translate(25.98,6.57)" stroke="#2C7D38">
    <path fill="none" d="M-4.46,0 L4.46,0 " class="primitive"/>
  </g>
  <g transform="translate(14.51,4.97)" stroke="#C92AFD">
    <path fill="none" d="M-7.01,0 L7.01,0 " class="primitive"/>
  </g>
  <g transform="translate(21.52,4.97)" stroke="#C92AFD">
    <path fill="none" d="M0,1.6 L0,-1.6 " class="primitive"/>
  </g>
  <g transform="translate(35.3,9.77)" stroke="#2C7D38">
    <path fill="none" d="M-7.61,0 L7.61,0 " class="primitive"/>
  </g>
  <g transform="translate(29.5,12.97)" stroke="#2C7D38">
    <path fill="none" d="M-1.81,0 L1.81,0 " class="primitive"/>
  </g>
  <g transform="translate(18.65,11.37)" stroke="#2C7D38">
    <path fill="none" d="M-9.04,0 L9.04,0 " class="primitive"/>
  </g>
  <g transform="translate(27.69,11.37)" stroke="#2C7D38">
    <path fill="none" d="M0,1.6 L0,-1.6 " class="primitive"/>
  </g>
  <g transform="translate(42.78,16.18)" stroke="#2C7D38">
    <path fill="none" d="M-28.05,0 L28.05,0 " class="primitive"/>
  </g>
  <g transform="translate(14.84,19.38)" stroke="#2C7D38">
    <path fill="none" d="M-0.11,0 L0.11,0 " class="primitive"/>
  </g>
  <g transform="translate(12.17,17.78)" stroke="#2C7D38">
    <path fill="none" d="M-2.56,0 L2.56,0 " class="primitive"/>
  </g>
  <g transform="translate(14.73,17.78)" stroke="#2C7D38">
    <path fill="none" d="M0,1.6 L0,-1.6 " class="primitive"/>
  </g>
  <g transform="translate(8.55,14.58)" stroke="#2C7D38">
    <path fill="none" d="M-1.06,0 L1.06,0 " class="primitive"/>
  </g>
  <g transform="translate(9.61,14.58)" stroke="#2C7D38">
    <path fill="none" d="M0,3.2 L0,-3.2 " class="primitive"/>
  </g>
  <g transform="translate(5.62,9.77)" stroke="#2C7D38">
    <path fill="none" d="M-1.87,0 L1.87,0 " class="primitive"/>
  </g>
  <g transform="translate(7.5,9.77)" stroke="#2C7D38">
    <path fill="none" d="M0,4.81 L0,-4.81 " class="primitive"/>
  </g>
  <g transform="translate(12.19,22.58)" stroke="#2C7D38">
    <path fill="none" d="M-2.05,0 L2.05,0 " class="primitive"/>
  </g>
  <g transform="translate(18.87,25.79)" stroke="#C92AFD">
    <path fill="none" d="M-1.4,0 L1.4,0 " class="primitive"/>
  </g>
  <g transform="translate(29.54,28.99)" stroke="#2C7D38">
    <path fill="none" d="M-3.92,0 L3.92,0 " class="primitive"/>
  </g>
  <g transform="translate(55.51,32.19)" stroke="#C92AFD">
    <path fill="none" d="M-0.52,0 L0.52,0 " class="primitive"/>
  </g>
  <g transform="translate(58.1,35.4)" stroke="#2C7D38">
    <path fill="none" d="M-3.11,0 L3.11,0 " class="primitive"/>
  </g>
  <g transform="translate(40.31,33.8)" stroke="#2C7D38">
    <path fill="none" d="M-14.68,0 L14.68,0 " class="primitive"/>
  </g>
  <g transform="translate(54.99,33.8)" stroke="#2C7D38">
    <path fill="none" d="M0,1.6 L0,-1.6 " class="primitive"/>
  </g>
  <g transform="translate(21.55,31.39)" stroke="#2C7D38">
    <path fill="none" d="M-4.07,0 L4.07,0 " class="primitive"/>
  </g>
  <g transform="translate(25.62,31.39)" stroke="#2C7D38">
    <path fill="none" d="M0,2.4 L0,-2.4 " class="primitive"/>
  </g>
  <g transform="translate(13.81,28.59)" stroke="#2C7D38">
    <path fill="none" d="M-3.66,0 L3.66,0 " class="primitive"/>
  </g>
  <g transform="translate(17.47,28.59)" stroke="#2C7D38">
    <path fill="none" d="M0,2.8 L0,-2.8 " class="primitive"/>
  </g>
  <g transform="translate(6.95,25.59)" stroke="#2C7D38">
    <path fill="none" d="M-3.2,0 L3.2,0 " class="primitive"/>
  </g>
  <g transform="translate(10.15,25.59)" stroke="#2C7D38">
    <path fill="none" d="M0,3 L0,-3 " class="primitive"/>
  </g>
  <g transform="translate(26.97,38.6)" stroke="#2C7D38">
    <path fill="none" d="M-1.72,0 L1.72,0 " class="primitive"/>
  </g>
  <g transform="translate(62.68,41.81)" stroke="#C92AFD">
    <path fill="none" d="M-12.42,0 L12.42,0 " class="primitive"/>
  </g>
  <g transform="translate(70.18,45.01)" stroke="#C92AFD">
    <path fill="none" d="M-8.57,0 L8.57,0 " class="primitive"/>
  </g>
  <g transform="translate(61.68,48.21)" stroke="#2C7D38">
    <path fill="none" d="M-0.08,0 L0.08,0 " class="primitive"/>
  </g>
  <g transform="translate(55.93,46.61)" stroke="#2C7D38">
    <path fill="none" d="M-5.67,0 L5.67,0 " class="primitive"/>
  </g>
  <g transform="translate(61.6,46.61)" stroke="#2C7D38">
    <path fill="none" d="M0,1.6 L0,-1.6 " class="primitive"/>
  </g>
  <g transform="translate(37.76,44.21)" stroke="#2C7D38">
    <path fill="none" d="M-12.51,0 L12.51,0 " class="primitive"/>
  </g>
  <g transform="translate(50.26,44.21)" stroke="#2C7D38">
    <path fill="none" d="M0,2.4 L0,-2.4 " class="primitive"/>
  </g>
  <g transform="translate(24.11,41.4)" stroke="#C92AFD">
    <path fill="none" d="M-1.14,0 L1.14,0 " class="primitive"/>
  </g>
  <g transform="translate(25.25,41.4)" stroke="#C92AFD">
    <path fill="none" d="M0,2.8 L0,-2.8 " class="primitive"/>
  </g>
  <g transform="translate(25.06,51.42)" stroke="#2C7D38">
    <path fill="none" d="M-0.04,0 L0.04,0 " class="primitive"/>
  </g>
  <g transform="translate(35.54,54.62)" stroke="#2C7D38">
    <path fill="none" d="M-1.78,0 L1.78,0 " class="primitive"/>
  </g>
  <g transform="translate(50.68,57.82)" stroke="#2C7D38">
    <path fill="none" d="M-7.59,0 L7.59,0 " class="primitive"/>
  </g>
  <g transform="translate(48.47,61.03)" stroke="#2C7D38">
    <path fill="none" d="M-5.38,0 L5.38,0 " class="primitive"/>
  </g>
  <g transform="translate(38.43,59.42)" stroke="#C92AFD">
    <path fill="none" d="M-4.67,0 L4.67,0 " class="primitive"/>
  </g>
  <g transform="translate(43.09,59.42)" stroke="#C92AFD">
    <path fill="none" d="M0,1.6 L0,-1.6 " class="primitive"/>
  </g>
  <g transform="translate(32,57.02)" stroke="#2C7D38">
    <path fill="none" d="M-1.76,0 L1.76,0 " class="primitive"/>
  </g>
  <g transform="translate(33.76,57.02)" stroke="#2C7D38">
    <path fill="none" d="M0,2.4 L0,-2.4 " class="primitive"/>
  </g>
  <g transform="translate(43.68,64.23)" stroke="#2C7D38">
    <path fill="none" d="M-11.23,0 L11.23,0 " class="primitive"/>
  </g>
  <g transform="translate(35.69,67.43)" stroke="#2C7D38">
    <path fill="none" d="M-0.45,0 L0.45,0 " class="primitive"/>
  </g>
  <g transform="translate(35.36,70.64)" stroke="#C92AFD">
    <path fill="none" d="M-0.13,0 L0.13,0 " class="primitive"/>
  </g>
  <g transform="translate(33.84,69.03)" stroke="#2C7D38">
    <path fill="none" d="M-1.4,0 L1.4,0 " class="primitive"/>
  </g>
  <g stroke-opacity="1" stroke-width="0.3" id="img-29b4c979-2">
    <g transform="translate(33.84,69.03)" stroke="#2C7D38">
      <path fill="none" d="M-1.4,0 L1.4,0 " class="primitive"/>
    </g>
    <g transform="translate(35.24,69.03)" stroke="#2C7D38">
      <path fill="none" d="M0,1.6 L0,-1.6 " class="primitive"/>
    </g>
    <g transform="translate(31.34,66.63)" stroke="#2C7D38">
      <path fill="none" d="M-1.1,0 L1.1,0 " class="primitive"/>
    </g>
    <g transform="translate(32.44,66.63)" stroke="#2C7D38">
      <path fill="none" d="M0,2.4 L0,-2.4 " class="primitive"/>
    </g>
    <g transform="translate(27.63,61.83)" stroke="#2C7D38">
      <path fill="none" d="M-2.61,0 L2.61,0 " class="primitive"/>
    </g>
    <g transform="translate(30.24,61.83)" stroke="#2C7D38">
      <path fill="none" d="M0,4.81 L0,-4.81 " class="primitive"/>
    </g>
    <g transform="translate(23.99,56.62)" stroke="#2C7D38">
      <path fill="none" d="M-1.03,0 L1.03,0 " class="primitive"/>
    </g>
    <g transform="translate(25.01,56.62)" stroke="#2C7D38">
      <path fill="none" d="M0,5.21 L0,-5.21 " class="primitive"/>
    </g>
    <g transform="translate(13.36,49.01)" stroke="#2C7D38">
      <path fill="none" d="M-9.61,0 L9.61,0 " class="primitive"/>
    </g>
    <g transform="translate(22.96,49.01)" stroke="#2C7D38">
      <path fill="none" d="M0,7.61 L0,-7.61 " class="primitive"/>
    </g>
    <g transform="translate(3.75,37.3)" stroke="#000000">
      <path fill="none" d="M0,0 L0,0 " class="primitive"/>
    </g>
    <g transform="translate(3.75,37.3)" stroke="#000000">
      <path fill="none" d="M0,11.71 L0,-11.71 " class="primitive"/>
    </g>
    <g transform="translate(3.75,23.54)" stroke="#000000">
      <path fill="none" d="M0,0 L0,0 " class="primitive"/>
    </g>
    <g transform="translate(3.75,23.54)" stroke="#000000">
      <path fill="none" d="M0,13.76 L0,-13.76 " class="primitive"/>
    </g>
  </g>
</g>
<g fill-opacity="1" id="img-29b4c979-3">
  <g transform="translate(30.52,3.36)" fill="#C92AFD">
    <circle cx="0" cy="0" r="0.75" class="primitive"/>
  </g>
  <g transform="translate(30.44,6.57)" fill="#2C7D38">
    <circle cx="0" cy="0" r="0.75" class="primitive"/>
  </g>
  <g transform="translate(21.52,4.97)" fill="#C92AFD">
    <circle cx="0" cy="0" r="0.75" class="primitive"/>
  </g>
  <g transform="translate(42.91,9.77)" fill="#2C7D38">
    <circle cx="0" cy="0" r="0.75" class="primitive"/>
  </g>
  <g transform="translate(31.31,12.97)" fill="#2C7D38">
    <circle cx="0" cy="0" r="0.75" class="primitive"/>
  </g>
  <g transform="translate(27.69,11.37)" fill="#2C7D38">
    <circle cx="0" cy="0" r="0.75" class="primitive"/>
  </g>
  <g transform="translate(70.84,16.18)" fill="#2C7D38">
    <circle cx="0" cy="0" r="0.75" class="primitive"/>
  </g>
  <g transform="translate(14.95,19.38)" fill="#2C7D38">
    <circle cx="0" cy="0" r="0.75" class="primitive"/>
  </g>
  <g transform="translate(14.73,17.78)" fill="#2C7D38">
    <circle cx="0" cy="0" r="0.75" class="primitive"/>
  </g>
  <g transform="translate(9.61,14.58)" fill="#2C7D38">
    <circle cx="0" cy="0" r="0.75" class="primitive"/>
  </g>
  <g transform="translate(7.5,9.77)" fill="#2C7D38">
    <circle cx="0" cy="0" r="0.75" class="primitive"/>
  </g>
  <g transform="translate(14.24,22.58)" fill="#2C7D38">
    <circle cx="0" cy="0" r="0.75" class="primitive"/>
  </g>
  <g transform="translate(20.27,25.79)" fill="#C92AFD">
    <circle cx="0" cy="0" r="0.75" class="primitive"/>
  </g>
  <g transform="translate(33.47,28.99)" fill="#2C7D38">
    <circle cx="0" cy="0" r="0.75" class="primitive"/>
  </g>
  <g transform="translate(56.04,32.19)" fill="#C92AFD">
    <circle cx="0" cy="0" r="0.75" class="primitive"/>
  </g>
  <g transform="translate(61.21,35.4)" fill="#2C7D38">
    <circle cx="0" cy="0" r="0.75" class="primitive"/>
  </g>
  <g transform="translate(54.99,33.8)" fill="#2C7D38">
    <circle cx="0" cy="0" r="0.75" class="primitive"/>
  </g>
  <g transform="translate(25.62,31.39)" fill="#2C7D38">
    <circle cx="0" cy="0" r="0.75" class="primitive"/>
  </g>
  <g transform="translate(17.47,28.59)" fill="#2C7D38">
    <circle cx="0" cy="0" r="0.75" class="primitive"/>
  </g>
  <g transform="translate(10.15,25.59)" fill="#2C7D38">
    <circle cx="0" cy="0" r="0.75" class="primitive"/>
  </g>
  <g transform="translate(28.69,38.6)" fill="#2C7D38">
    <circle cx="0" cy="0" r="0.75" class="primitive"/>
  </g>
  <g transform="translate(75.1,41.81)" fill="#C92AFD">
    <circle cx="0" cy="0" r="0.75" class="primitive"/>
  </g>
  <g transform="translate(78.75,45.01)" fill="#C92AFD">
    <circle cx="0" cy="0" r="0.75" class="primitive"/>
  </g>
  <g transform="translate(61.76,48.21)" fill="#2C7D38">
    <circle cx="0" cy="0" r="0.75" class="primitive"/>
  </g>
  <g transform="translate(61.6,46.61)" fill="#2C7D38">
    <circle cx="0" cy="0" r="0.75" class="primitive"/>
  </g>
  <g transform="translate(50.26,44.21)" fill="#2C7D38">
    <circle cx="0" cy="0" r="0.75" class="primitive"/>
  </g>
  <g transform="translate(25.25,41.4)" fill="#C92AFD">
    <circle cx="0" cy="0" r="0.75" class="primitive"/>
  </g>
  <g transform="translate(25.1,51.42)" fill="#2C7D38">
    <circle cx="0" cy="0" r="0.75" class="primitive"/>
  </g>
  <g transform="translate(37.32,54.62)" fill="#2C7D38">
    <circle cx="0" cy="0" r="0.75" class="primitive"/>
  </g>
  <g transform="translate(58.27,57.82)" fill="#2C7D38">
    <circle cx="0" cy="0" r="0.75" class="primitive"/>
  </g>
  <g transform="translate(53.86,61.03)" fill="#2C7D38">
    <circle cx="0" cy="0" r="0.75" class="primitive"/>
  </g>
  <g transform="translate(43.09,59.42)" fill="#C92AFD">
    <circle cx="0" cy="0" r="0.75" class="primitive"/>
  </g>
  <g transform="translate(33.76,57.02)" fill="#2C7D38">
    <circle cx="0" cy="0" r="0.75" class="primitive"/>
  </g>
  <g transform="translate(54.91,64.23)" fill="#2C7D38">
    <circle cx="0" cy="0" r="0.75" class="primitive"/>
  </g>
  <g transform="translate(36.13,67.43)" fill="#2C7D38">
    <circle cx="0" cy="0" r="0.75" class="primitive"/>
  </g>
  <g transform="translate(35.49,70.64)" fill="#C92AFD">
    <circle cx="0" cy="0" r="0.75" class="primitive"/>
  </g>
  <g transform="translate(35.24,69.03)" fill="#2C7D38">
    <circle cx="0" cy="0" r="0.75" class="primitive"/>
  </g>
  <g transform="translate(32.44,66.63)" fill="#2C7D38">
    <circle cx="0" cy="0" r="0.75" class="primitive"/>
  </g>
  <g transform="translate(30.24,61.83)" fill="#2C7D38">
    <circle cx="0" cy="0" r="0.75" class="primitive"/>
  </g>
  <g transform="translate(25.01,56.62)" fill="#2C7D38">
    <circle cx="0" cy="0" r="0.75" class="primitive"/>
  </g>
  <g transform="translate(22.96,49.01)" fill="#2C7D38">
    <circle cx="0" cy="0" r="0.75" class="primitive"/>
  </g>
  <g transform="translate(3.75,37.3)" fill="#000000">
    <circle cx="0" cy="0" r="0.75" class="primitive"/>
  </g>
  <g transform="translate(3.75,23.54)" fill="#000000">
    <circle cx="0" cy="0" r="0.75" class="primitive"/>
  </g>
</g>
<g stroke-opacity="1" fill-opacity="1" font-size="1.41" stroke-width="0.1" id="img-29b4c979-4">
  <g transform="translate(32.39,3.36)" stroke="#000000">
    <g class="primitive">
      <text dy="0.35em">N8</text>
    </g>
  </g>
  <g transform="translate(32.31,6.57)" stroke="#000000">
    <g class="primitive">
      <text dy="0.35em">N3</text>
    </g>
  </g>
  <g transform="translate(23.39,4.97)" stroke="#000000">
    <g class="primitive">
      <text dy="0.35em">N23</text>
    </g>
  </g>
  <g transform="translate(44.79,9.77)" stroke="#000000">
    <g class="primitive">
      <text dy="0.35em">N1</text>
    </g>
  </g>
  <g transform="translate(33.19,12.97)" stroke="#000000">
    <g class="primitive">
      <text dy="0.35em">N20</text>
    </g>
  </g>
  <g transform="translate(29.57,11.37)" stroke="#000000">
    <g class="primitive">
      <text dy="0.35em">N22</text>
    </g>
  </g>
  <g transform="translate(72.71,16.18)" stroke="#000000">
    <g class="primitive">
      <text dy="0.35em">N17</text>
    </g>
  </g>
  <g transform="translate(16.83,19.38)" stroke="#000000">
    <g class="primitive">
      <text dy="0.35em">N11</text>
    </g>
  </g>
  <g transform="translate(16.6,17.78)" stroke="#000000">
    <g class="primitive">
      <text dy="0.35em">N26</text>
    </g>
  </g>
  <g transform="translate(11.48,14.58)" stroke="#000000">
    <g class="primitive">
      <text dy="0.35em">N38</text>
    </g>
  </g>
  <g transform="translate(9.37,9.77)" stroke="#000000">
    <g class="primitive">
      <text dy="0.35em">N39</text>
    </g>
  </g>
  <g transform="translate(16.12,22.58)" stroke="#000000">
    <g class="primitive">
      <text dy="0.35em">N13</text>
    </g>
  </g>
  <g transform="translate(22.15,25.79)" stroke="#000000">
    <g class="primitive">
      <text dy="0.35em">N21</text>
    </g>
  </g>
  <g transform="translate(35.34,28.99)" stroke="#000000">
    <g class="primitive">
      <text dy="0.35em">N14</text>
    </g>
  </g>
  <g transform="translate(57.91,32.19)" stroke="#000000">
    <g class="primitive">
      <text dy="0.35em">N15</text>
    </g>
  </g>
  <g transform="translate(63.08,35.4)" stroke="#000000">
    <g class="primitive">
      <text dy="0.35em">N0</text>
    </g>
  </g>
  <g transform="translate(56.86,33.8)" stroke="#000000">
    <g class="primitive">
      <text dy="0.35em">N30</text>
    </g>
  </g>
  <g transform="translate(27.5,31.39)" stroke="#000000">
    <g class="primitive">
      <text dy="0.35em">N34</text>
    </g>
  </g>
  <g transform="translate(19.35,28.59)" stroke="#000000">
    <g class="primitive">
      <text dy="0.35em">N36</text>
    </g>
  </g>
  <g transform="translate(12.02,25.59)" stroke="#000000">
    <g class="primitive">
      <text dy="0.35em">N40</text>
    </g>
  </g>
  <g transform="translate(30.56,38.6)" stroke="#000000">
    <g class="primitive">
      <text dy="0.35em">N6</text>
    </g>
  </g>
  <g transform="translate(76.97,41.81)" stroke="#000000">
    <g class="primitive">
      <text dy="0.35em">N5</text>
    </g>
  </g>
  <g transform="translate(80.62,45.01)" stroke="#000000">
    <g class="primitive">
      <text dy="0.35em">N12</text>
    </g>
  </g>
  <g transform="translate(63.63,48.21)" stroke="#000000">
    <g class="primitive">
      <text dy="0.35em">N9</text>
    </g>
  </g>
  <g transform="translate(63.48,46.61)" stroke="#000000">
    <g class="primitive">
      <text dy="0.35em">N24</text>
    </g>
  </g>
  <g transform="translate(52.14,44.21)" stroke="#000000">
    <g class="primitive">
      <text dy="0.35em">N29</text>
    </g>
  </g>
  <g transform="translate(27.12,41.4)" stroke="#000000">
    <g class="primitive">
      <text dy="0.35em">N33</text>
    </g>
  </g>
  <g transform="translate(26.98,51.42)" stroke="#000000">
    <g class="primitive">
      <text dy="0.35em">N7</text>
    </g>
  </g>
  <g transform="translate(39.2,54.62)" stroke="#000000">
    <g class="primitive">
      <text dy="0.35em">N16</text>
    </g>
  </g>
  <g transform="translate(60.15,57.82)" stroke="#000000">
    <g class="primitive">
      <text dy="0.35em">N4</text>
    </g>
  </g>
  <g transform="translate(55.73,61.03)" stroke="#000000">
    <g class="primitive">
      <text dy="0.35em">N19</text>
    </g>
  </g>
  <g transform="translate(44.97,59.42)" stroke="#000000">
    <g class="primitive">
      <text dy="0.35em">N25</text>
    </g>
  </g>
  <g transform="translate(35.64,57.02)" stroke="#000000">
    <g class="primitive">
      <text dy="0.35em">N27</text>
    </g>
  </g>
  <g transform="translate(56.79,64.23)" stroke="#000000">
    <g class="primitive">
      <text dy="0.35em">N2</text>
    </g>
  </g>
  <g transform="translate(38.01,67.43)" stroke="#000000">
    <g class="primitive">
      <text dy="0.35em">N10</text>
    </g>
  </g>
  <g transform="translate(37.36,70.64)" stroke="#000000">
    <g class="primitive">
      <text dy="0.35em">N18</text>
    </g>
  </g>
  <g transform="translate(37.11,69.03)" stroke="#000000">
    <g class="primitive">
      <text dy="0.35em">N28</text>
    </g>
  </g>
  <g transform="translate(34.32,66.63)" stroke="#000000">
    <g class="primitive">
      <text dy="0.35em">N31</text>
    </g>
  </g>
  <g transform="translate(32.12,61.83)" stroke="#000000">
    <g class="primitive">
      <text dy="0.35em">N32</text>
    </g>
  </g>
  <g transform="translate(26.89,56.62)" stroke="#000000">
    <g class="primitive">
      <text dy="0.35em">N35</text>
    </g>
  </g>
  <g transform="translate(24.84,49.01)" stroke="#000000">
    <g class="primitive">
      <text dy="0.35em">N37</text>
    </g>
  </g>
  <g transform="translate(5.63,37.3)" stroke="#000000">
    <g class="primitive">
      <text dy="0.35em"></text>
    </g>
  </g>
  <g transform="translate(5.63,23.54)" stroke="#000000">
    <g class="primitive">
      <text dy="0.35em"></text>
    </g>
  </g>
</g>
</svg>
