<?xml version="1.0" encoding="UTF-8"?>
<svg xmlns="http://www.w3.org/2000/svg"
     xmlns:xlink="http://www.w3.org/1999/xlink"
     version="1.2"
     width="150mm" height="120mm" viewBox="0 0 150 120"
     stroke="none"
     fill="#000000"
     stroke-width="0.3"
     font-size="3.88"
>
<defs>
  <marker id="arrow" markerWidth="15" markerHeight="7" refX="5" refY="3.5" orient="auto" markerUnits="strokeWidth">
    <path d="M0,0 L15,3.5 L0,7 z" stroke="context-stroke" fill="context-stroke"/>
  </marker>
</defs>
<g stroke-opacity="1" stroke-width="0.3" id="img-300d6e6f-1">
  <g transform="translate(16.79,5.45)" stroke="#3A08FA">
    <path fill="none" d="M-6.39,0 L6.39,0 " class="primitive"/>
  </g>
  <g transform="translate(10.69,7.93)" stroke="#529E26">
    <path fill="none" d="M-0.28,0 L0.28,0 " class="primitive"/>
  </g>
  <g transform="translate(8.42,6.69)" stroke="#3A08FA">
    <path fill="none" d="M-1.98,0 L1.98,0 " class="primitive"/>
  </g>
  <g transform="translate(10.4,6.69)" stroke="#3A08FA">
    <path fill="none" d="M0,1.24 L0,-1.24 " class="primitive"/>
  </g>
  <g transform="translate(14.16,10.41)" stroke="#529E26">
    <path fill="none" d="M-3.93,0 L3.93,0 " class="primitive"/>
  </g>
  <g transform="translate(11.74,12.89)" stroke="#3A08FA">
    <path fill="none" d="M-1.51,0 L1.51,0 " class="primitive"/>
  </g>
  <g transform="translate(8.34,11.65)" stroke="#3A08FA">
    <path fill="none" d="M-1.9,0 L1.9,0 " class="primitive"/>
  </g>
  <g transform="translate(10.24,11.65)" stroke="#3A08FA">
    <path fill="none" d="M0,1.24 L0,-1.24 " class="primitive"/>
  </g>
  <g transform="translate(5.15,9.17)" stroke="#529E26">
    <path fill="none" d="M-1.29,0 L1.29,0 " class="primitive"/>
  </g>
  <g transform="translate(6.44,9.17)" stroke="#529E26">
    <path fill="none" d="M0,2.48 L0,-2.48 " class="primitive"/>
  </g>
  <g transform="translate(9.51,15.37)" stroke="#529E26">
    <path fill="none" d="M-0.34,0 L0.34,0 " class="primitive"/>
  </g>
  <g transform="translate(23.17,17.85)" stroke="#3A08FA">
    <path fill="none" d="M-0.33,0 L0.33,0 " class="primitive"/>
  </g>
  <g transform="translate(24.41,20.33)" stroke="#3A08FA">
    <path fill="none" d="M-1.56,0 L1.56,0 " class="primitive"/>
  </g>
  <g transform="translate(19.75,19.09)" stroke="#3A08FA">
    <path fill="none" d="M-3.1,0 L3.1,0 " class="primitive"/>
  </g>
  <g transform="translate(22.85,19.09)" stroke="#3A08FA">
    <path fill="none" d="M0,1.24 L0,-1.24 " class="primitive"/>
  </g>
  <g transform="translate(19.49,22.81)" stroke="#3A08FA">
    <path fill="none" d="M-0.25,0 L0.25,0 " class="primitive"/>
  </g>
  <g transform="translate(28.12,25.29)" stroke="#3A08FA">
    <path fill="none" d="M-4.14,0 L4.14,0 " class="primitive"/>
  </g>
  <g transform="translate(26.22,27.77)" stroke="#529E26">
    <path fill="none" d="M-2.24,0 L2.24,0 " class="primitive"/>
  </g>
  <g transform="translate(21.61,26.53)" stroke="#529E26">
    <path fill="none" d="M-2.37,0 L2.37,0 " class="primitive"/>
  </g>
  <g transform="translate(23.98,26.53)" stroke="#529E26">
    <path fill="none" d="M0,1.24 L0,-1.24 " class="primitive"/>
  </g>
  <g transform="translate(17.95,24.67)" stroke="#529E26">
    <path fill="none" d="M-1.3,0 L1.3,0 " class="primitive"/>
  </g>
  <g transform="translate(19.25,24.67)" stroke="#529E26">
    <path fill="none" d="M0,1.86 L0,-1.86 " class="primitive"/>
  </g>
  <g transform="translate(12.91,21.88)" stroke="#529E26">
    <path fill="none" d="M-3.74,0 L3.74,0 " class="primitive"/>
  </g>
  <g transform="translate(16.65,21.88)" stroke="#529E26">
    <path fill="none" d="M0,2.79 L0,-2.79 " class="primitive"/>
  </g>
  <g transform="translate(6.51,18.63)" stroke="#529E26">
    <path fill="none" d="M-2.65,0 L2.65,0 " class="primitive"/>
  </g>
  <g transform="translate(9.17,18.63)" stroke="#529E26">
    <path fill="none" d="M0,3.25 L0,-3.25 " class="primitive"/>
  </g>
  <g transform="translate(3.81,13.9)" stroke="#3A08FA">
    <path fill="none" d="M-0.06,0 L0.06,0 " class="primitive"/>
  </g>
  <g transform="translate(3.86,13.9)" stroke="#3A08FA">
    <path fill="none" d="M0,4.73 L0,-4.73 " class="primitive"/>
  </g>
  <g transform="translate(14.7,30.25)" stroke="#3A08FA">
    <path fill="none" d="M-1.31,0 L1.31,0 " class="primitive"/>
  </g>
  <g transform="translate(14.62,32.73)" stroke="#529E26">
    <path fill="none" d="M-0.06,0 L0.06,0 " class="primitive"/>
  </g>
  <g transform="translate(15.67,35.21)" stroke="#529E26">
    <path fill="none" d="M-1.11,0 L1.11,0 " class="primitive"/>
  </g>
  <g transform="translate(13.97,33.97)" stroke="#3A08FA">
    <path fill="none" d="M-0.58,0 L0.58,0 " class="primitive"/>
  </g>
  <g transform="translate(14.56,33.97)" stroke="#3A08FA">
    <path fill="none" d="M0,1.24 L0,-1.24 " class="primitive"/>
  </g>
  <g transform="translate(11.44,32.11)" stroke="#529E26">
    <path fill="none" d="M-1.95,0 L1.95,0 " class="primitive"/>
  </g>
  <g transform="translate(13.39,32.11)" stroke="#529E26">
    <path fill="none" d="M0,1.86 L0,-1.86 " class="primitive"/>
  </g>
  <g transform="translate(12.6,37.69)" stroke="#3A08FA">
    <path fill="none" d="M-0.12,0 L0.12,0 " class="primitive"/>
  </g>
  <g transform="translate(14.79,40.17)" stroke="#3A08FA">
    <path fill="none" d="M-2.3,0 L2.3,0 " class="primitive"/>
  </g>
  <g transform="translate(11.71,38.93)" stroke="#529E26">
    <path fill="none" d="M-0.78,0 L0.78,0 " class="primitive"/>
  </g>
  <g transform="translate(12.49,38.93)" stroke="#529E26">
    <path fill="none" d="M0,1.24 L0,-1.24 " class="primitive"/>
  </g>
  <g transform="translate(17.28,42.64)" stroke="#3A08FA">
    <path fill="none" d="M-2.64,0 L2.64,0 " class="primitive"/>
  </g>
  <g transform="translate(26.59,45.12)" stroke="#529E26">
    <path fill="none" d="M-9.55,0 L9.55,0 " class="primitive"/>
  </g>
  <g transform="translate(26.68,47.6)" stroke="#3A08FA">
    <path fill="none" d="M-0.22,0 L0.22,0 " class="primitive"/>
  </g>
  <g transform="translate(26.95,50.08)" stroke="#529E26">
    <path fill="none" d="M-0.49,0 L0.49,0 " class="primitive"/>
  </g>
  <g transform="translate(21.75,48.84)" stroke="#529E26">
    <path fill="none" d="M-4.71,0 L4.71,0 " class="primitive"/>
  </g>
  <g transform="translate(26.46,48.84)" stroke="#529E26">
    <path fill="none" d="M0,1.24 L0,-1.24 " class="primitive"/>
  </g>
  <g transform="translate(15.84,46.98)" stroke="#3A08FA">
    <path fill="none" d="M-1.2,0 L1.2,0 " class="primitive"/>
  </g>
  <g transform="translate(17.03,46.98)" stroke="#3A08FA">
    <path fill="none" d="M0,1.86 L0,-1.86 " class="primitive"/>
  </g>
  <g transform="translate(12.78,44.81)" stroke="#3A08FA">
    <path fill="none" d="M-1.86,0 L1.86,0 " class="primitive"/>
  </g>
  <g transform="translate(14.64,44.81)" stroke="#3A08FA">
    <path fill="none" d="M0,2.17 L0,-2.17 " class="primitive"/>
  </g>
  <g transform="translate(10.21,41.87)" stroke="#529E26">
    <path fill="none" d="M-0.72,0 L0.72,0 " class="primitive"/>
  </g>
  <g transform="translate(10.93,41.87)" stroke="#529E26">
    <path fill="none" d="M0,2.94 L0,-2.94 " class="primitive"/>
  </g>
  <g stroke-opacity="1" stroke-width="0.3" id="img-300d6e6f-2">
    <g transform="translate(58.5,98.43)" stroke="#529E26">
      <path fill="none" d="M0,1.24 L0,-1.24 " class="primitive"/>
    </g>
    <g transform="translate(62.74,102.15)" stroke="#529E26">
      <path fill="none" d="M-2.5,0 L2.5,0 " class="primitive"/>
    </g>
    <g transform="translate(62.75,104.63)" stroke="#529E26">
      <path fill="none" d="M-2.5,0 L2.5,0 " class="primitive"/>
    </g>
    <g transform="translate(58.96,103.39)" stroke="#3A08FA">
      <path fill="none" d="M-1.29,0 L1.29,0 " class="primitive"/>
    </g>
    <g transform="translate(60.25,103.39)" stroke="#3A08FA">
      <path fill="none" d="M0,1.24 L0,-1.24 " class="primitive"/>
    </g>
    <g transform="translate(56.05,100.91)" stroke="#3A08FA">
      <path fill="none" d="M-1.62,0 L1.62,0 " class="primitive"/>
    </g>
    <g transform="translate(57.66,100.91)" stroke="#3A08FA">
      <path fill="none" d="M0,2.48 L0,-2.48 " class="primitive"/>
    </g>
    <g transform="translate(69.67,107.11)" stroke="#529E26">
      <path fill="none" d="M-9.08,0 L9.08,0 " class="primitive"/>
    </g>
    <g transform="translate(66.62,109.59)" stroke="#3A08FA">
      <path fill="none" d="M-6.04,0 L6.04,0 " class="primitive"/>
    </g>
    <g transform="translate(58.08,108.35)" stroke="#3A08FA">
      <path fill="none" d="M-2.5,0 L2.5,0 " class="primitive"/>
    </g>
    <g transform="translate(60.58,108.35)" stroke="#3A08FA">
      <path fill="none" d="M0,1.24 L0,-1.24 " class="primitive"/>
    </g>
    <g transform="translate(62.36,112.07)" stroke="#3A08FA">
      <path fill="none" d="M-1.05,0 L1.05,0 " class="primitive"/>
    </g>
    <g transform="translate(62.05,114.55)" stroke="#529E26">
      <path fill="none" d="M-0.74,0 L0.74,0 " class="primitive"/>
    </g>
    <g transform="translate(58.44,113.31)" stroke="#3A08FA">
      <path fill="none" d="M-2.86,0 L2.86,0 " class="primitive"/>
    </g>
    <g transform="translate(61.31,113.31)" stroke="#3A08FA">
      <path fill="none" d="M0,1.24 L0,-1.24 " class="primitive"/>
    </g>
    <g transform="translate(55,110.83)" stroke="#529E26">
      <path fill="none" d="M-0.58,0 L0.58,0 " class="primitive"/>
    </g>
    <g transform="translate(55.58,110.83)" stroke="#529E26">
      <path fill="none" d="M0,2.48 L0,-2.48 " class="primitive"/>
    </g>
    <g transform="translate(51.48,105.87)" stroke="#529E26">
      <path fill="none" d="M-2.94,0 L2.94,0 " class="primitive"/>
    </g>
    <g transform="translate(54.43,105.87)" stroke="#529E26">
      <path fill="none" d="M0,4.96 L0,-4.96 " class="primitive"/>
    </g>
    <g transform="translate(40.47,100.29)" stroke="#529E26">
      <path fill="none" d="M-8.07,0 L8.07,0 " class="primitive"/>
    </g>
    <g transform="translate(48.54,100.29)" stroke="#529E26">
      <path fill="none" d="M0,5.58 L0,-5.58 " class="primitive"/>
    </g>
    <g transform="translate(29.53,94.71)" stroke="#529E26">
      <path fill="none" d="M-2.87,0 L2.87,0 " class="primitive"/>
    </g>
    <g transform="translate(32.39,94.71)" stroke="#529E26">
      <path fill="none" d="M0,5.58 L0,-5.58 " class="primitive"/>
    </g>
    <g transform="translate(22.26,89.75)" stroke="#529E26">
      <path fill="none" d="M-4.4,0 L4.4,0 " class="primitive"/>
    </g>
    <g transform="translate(26.66,89.75)" stroke="#529E26">
      <path fill="none" d="M0,4.96 L0,-4.96 " class="primitive"/>
    </g>
    <g transform="translate(17.15,82.24)" stroke="#3A08FA">
      <path fill="none" d="M-0.71,0 L0.71,0 " class="primitive"/>
    </g>
    <g transform="translate(17.86,82.24)" stroke="#3A08FA">
      <path fill="none" d="M0,7.52 L0,-7.52 " class="primitive"/>
    </g>
    <g transform="translate(10.09,69.45)" stroke="#3A08FA">
      <path fill="none" d="M-6.34,0 L6.34,0 " class="primitive"/>
    </g>
    <g transform="translate(16.43,69.45)" stroke="#3A08FA">
      <path fill="none" d="M0,12.78 L0,-12.78 " class="primitive"/>
    </g>
    <g transform="translate(3.75,53.22)" stroke="#000000">
      <path fill="none" d="M0,0 L0,0 " class="primitive"/>
    </g>
    <g transform="translate(3.75,53.22)" stroke="#000000">
      <path fill="none" d="M0,16.23 L0,-16.23 " class="primitive"/>
    </g>
    <g transform="translate(3.75,33.56)" stroke="#000000">
      <path fill="none" d="M0,0 L0,0 " class="primitive"/>
    </g>
    <g transform="translate(3.75,33.56)" stroke="#000000">
      <path fill="none" d="M0,19.66 L0,-19.66 " class="primitive"/>
    </g>
  </g>
  <g stroke-opacity="1" stroke-width="0.3" id="img-300d6e6f-3">
    <g transform="translate(10.93,41.87)" stroke="#529E26">
      <path fill="none" d="M0,2.94 L0,-2.94 " class="primitive"/>
    </g>
    <g transform="translate(6.62,36.99)" stroke="#3A08FA">
      <path fill="none" d="M-2.87,0 L2.87,0 " class="primitive"/>
    </g>
    <g transform="translate(9.49,36.99)" stroke="#3A08FA">
      <path fill="none" d="M0,4.88 L0,-4.88 " class="primitive"/>
    </g>
    <g transform="translate(21.97,52.56)" stroke="#3A08FA">
      <path fill="none" d="M-3.88,0 L3.88,0 " class="primitive"/>
    </g>
    <g transform="translate(26.68,55.04)" stroke="#3A08FA">
      <path fill="none" d="M-2.42,0 L2.42,0 " class="primitive"/>
    </g>
    <g transform="translate(26.49,57.52)" stroke="#529E26">
      <path fill="none" d="M-2.12,0 L2.12,0 " class="primitive"/>
    </g>
    <g transform="translate(24.49,60)" stroke="#529E26">
      <path fill="none" d="M-0.13,0 L0.13,0 " class="primitive"/>
    </g>
    <g transform="translate(24.31,58.76)" stroke="#3A08FA">
      <path fill="none" d="M-0.05,0 L0.05,0 " class="primitive"/>
    </g>
    <g transform="translate(24.36,58.76)" stroke="#3A08FA">
      <path fill="none" d="M0,1.24 L0,-1.24 " class="primitive"/>
    </g>
    <g transform="translate(23.79,56.9)" stroke="#529E26">
      <path fill="none" d="M-0.47,0 L0.47,0 " class="primitive"/>
    </g>
    <g transform="translate(24.26,56.9)" stroke="#529E26">
      <path fill="none" d="M0,1.86 L0,-1.86 " class="primitive"/>
    </g>
    <g transform="translate(33.02,62.48)" stroke="#3A08FA">
      <path fill="none" d="M-2.26,0 L2.26,0 " class="primitive"/>
    </g>
    <g transform="translate(47.87,64.96)" stroke="#529E26">
      <path fill="none" d="M-5.18,0 L5.18,0 " class="primitive"/>
    </g>
    <g transform="translate(50.82,67.44)" stroke="#529E26">
      <path fill="none" d="M-0.11,0 L0.11,0 " class="primitive"/>
    </g>
    <g transform="translate(51.4,69.92)" stroke="#529E26">
      <path fill="none" d="M-0.69,0 L0.69,0 " class="primitive"/>
    </g>
    <g transform="translate(46.7,68.68)" stroke="#529E26">
      <path fill="none" d="M-4.01,0 L4.01,0 " class="primitive"/>
    </g>
    <g transform="translate(50.71,68.68)" stroke="#529E26">
      <path fill="none" d="M0,1.24 L0,-1.24 " class="primitive"/>
    </g>
    <g transform="translate(36.72,66.82)" stroke="#529E26">
      <path fill="none" d="M-5.96,0 L5.96,0 " class="primitive"/>
    </g>
    <g transform="translate(42.69,66.82)" stroke="#529E26">
      <path fill="none" d="M0,1.86 L0,-1.86 " class="primitive"/>
    </g>
    <g transform="translate(27.04,64.65)" stroke="#3A08FA">
      <path fill="none" d="M-3.72,0 L3.72,0 " class="primitive"/>
    </g>
    <g transform="translate(30.76,64.65)" stroke="#3A08FA">
      <path fill="none" d="M0,2.17 L0,-2.17 " class="primitive"/>
    </g>
    <g transform="translate(20.71,60.77)" stroke="#3A08FA">
      <path fill="none" d="M-2.61,0 L2.61,0 " class="primitive"/>
    </g>
    <g transform="translate(23.32,60.77)" stroke="#3A08FA">
      <path fill="none" d="M0,3.87 L0,-3.87 " class="primitive"/>
    </g>
    <g transform="translate(17.26,56.67)" stroke="#3A08FA">
      <path fill="none" d="M-0.83,0 L0.83,0 " class="primitive"/>
    </g>
    <g transform="translate(18.1,56.67)" stroke="#3A08FA">
      <path fill="none" d="M0,4.11 L0,-4.11 " class="primitive"/>
    </g>
    <g transform="translate(18.73,72.4)" stroke="#529E26">
      <path fill="none" d="M-0.85,0 L0.85,0 " class="primitive"/>
    </g>
    <g transform="translate(24.19,74.88)" stroke="#3A08FA">
      <path fill="none" d="M-2.35,0 L2.35,0 " class="primitive"/>
    </g>
    <g transform="translate(35.28,77.36)" stroke="#3A08FA">
      <path fill="none" d="M-1.92,0 L1.92,0 " class="primitive"/>
    </g>
    <g transform="translate(39.27,79.83)" stroke="#529E26">
      <path fill="none" d="M-1.01,0 L1.01,0 " class="primitive"/>
    </g>
    <g transform="translate(38.52,82.31)" stroke="#3A08FA">
      <path fill="none" d="M-0.26,0 L0.26,0 " class="primitive"/>
    </g>
    <g transform="translate(35.81,81.07)" stroke="#529E26">
      <path fill="none" d="M-2.45,0 L2.45,0 " class="primitive"/>
    </g>
    <g transform="translate(38.26,81.07)" stroke="#529E26">
      <path fill="none" d="M0,1.24 L0,-1.24 " class="primitive"/>
    </g>
    <g transform="translate(27.61,79.21)" stroke="#529E26">
      <path fill="none" d="M-5.76,0 L5.76,0 " class="primitive"/>
    </g>
    <g transform="translate(33.37,79.21)" stroke="#529E26">
      <path fill="none" d="M0,1.86 L0,-1.86 " class="primitive"/>
    </g>
    <g transform="translate(19.87,77.05)" stroke="#3A08FA">
      <path fill="none" d="M-1.98,0 L1.98,0 " class="primitive"/>
    </g>
    <g transform="translate(21.85,77.05)" stroke="#3A08FA">
      <path fill="none" d="M0,2.17 L0,-2.17 " class="primitive"/>
    </g>
    <g transform="translate(17.87,74.72)" stroke="#529E26">
      <path fill="none" d="M-0.01,0 L0.01,0 " class="primitive"/>
    </g>
    <g transform="translate(17.89,74.72)" stroke="#529E26">
      <path fill="none" d="M0,2.32 L0,-2.32 " class="primitive"/>
    </g>
    <g transform="translate(27.57,84.79)" stroke="#3A08FA">
      <path fill="none" d="M-0.91,0 L0.91,0 " class="primitive"/>
    </g>
    <g transform="translate(52.46,87.27)" stroke="#529E26">
      <path fill="none" d="M-6.44,0 L6.44,0 " class="primitive"/>
    </g>
    <g transform="translate(50.31,89.75)" stroke="#3A08FA">
      <path fill="none" d="M-0.73,0 L0.73,0 " class="primitive"/>
    </g>
    <g transform="translate(49.97,92.23)" stroke="#3A08FA">
      <path fill="none" d="M-0.4,0 L0.4,0 " class="primitive"/>
    </g>
    <g transform="translate(47.79,90.99)" stroke="#3A08FA">
      <path fill="none" d="M-1.78,0 L1.78,0 " class="primitive"/>
    </g>
    <g transform="translate(49.57,90.99)" stroke="#3A08FA">
      <path fill="none" d="M0,1.24 L0,-1.24 " class="primitive"/>
    </g>
    <g transform="translate(39.2,89.13)" stroke="#3A08FA">
      <path fill="none" d="M-6.81,0 L6.81,0 " class="primitive"/>
    </g>
    <g transform="translate(46.02,89.13)" stroke="#3A08FA">
      <path fill="none" d="M0,1.86 L0,-1.86 " class="primitive"/>
    </g>
    <g transform="translate(50.86,94.71)" stroke="#3A08FA">
      <path fill="none" d="M-2.32,0 L2.32,0 " class="primitive"/>
    </g>
    <g transform="translate(59.93,97.19)" stroke="#3A08FA">
      <path fill="none" d="M-1.43,0 L1.43,0 " class="primitive"/>
    </g>
    <g transform="translate(60.52,99.67)" stroke="#3A08FA">
      <path fill="none" d="M-2.02,0 L2.02,0 " class="primitive"/>
    </g>
    <g transform="translate(58.08,98.43)" stroke="#529E26">
      <path fill="none" d="M-0.42,0 L0.42,0 " class="primitive"/>
    </g>
    <g transform="translate(58.5,98.43)" stroke="#529E26">
      <path fill="none" d="M0,1.24 L0,-1.24 " class="primitive"/>
    </g>
  </g>
</g>
<g fill-opacity="1" id="img-300d6e6f-4">
  <g transform="translate(23.18,5.45)" fill="#3A08FA">
    <circle cx="0" cy="0" r="0.75" class="primitive"/>
  </g>
  <g transform="translate(10.97,7.93)" fill="#529E26">
    <circle cx="0" cy="0" r="0.75" class="primitive"/>
  </g>
  <g transform="translate(10.4,6.69)" fill="#3A08FA">
    <circle cx="0" cy="0" r="0.75" class="primitive"/>
  </g>
  <g transform="translate(18.09,10.41)" fill="#529E26">
    <circle cx="0" cy="0" r="0.75" class="primitive"/>
  </g>
  <g transform="translate(13.25,12.89)" fill="#3A08FA">
    <circle cx="0" cy="0" r="0.75" class="primitive"/>
  </g>
  <g transform="translate(10.24,11.65)" fill="#3A08FA">
    <circle cx="0" cy="0" r="0.75" class="primitive"/>
  </g>
  <g transform="translate(6.44,9.17)" fill="#529E26">
    <circle cx="0" cy="0" r="0.75" class="primitive"/>
  </g>
  <g transform="translate(9.85,15.37)" fill="#529E26">
    <circle cx="0" cy="0" r="0.75" class="primitive"/>
  </g>
  <g transform="translate(23.5,17.85)" fill="#3A08FA">
    <circle cx="0" cy="0" r="0.75" class="primitive"/>
  </g>
  <g transform="translate(25.97,20.33)" fill="#3A08FA">
    <circle cx="0" cy="0" r="0.75" class="primitive"/>
  </g>
  <g transform="translate(22.85,19.09)" fill="#3A08FA">
    <circle cx="0" cy="0" r="0.75" class="primitive"/>
  </g>
  <g transform="translate(19.74,22.81)" fill="#3A08FA">
    <circle cx="0" cy="0" r="0.75" class="primitive"/>
  </g>
  <g transform="translate(32.27,25.29)" fill="#3A08FA">
    <circle cx="0" cy="0" r="0.75" class="primitive"/>
  </g>
  <g transform="translate(28.46,27.77)" fill="#529E26">
    <circle cx="0" cy="0" r="0.75" class="primitive"/>
  </g>
  <g transform="translate(23.98,26.53)" fill="#529E26">
    <circle cx="0" cy="0" r="0.75" class="primitive"/>
  </g>
  <g transform="translate(19.25,24.67)" fill="#529E26">
    <circle cx="0" cy="0" r="0.75" class="primitive"/>
  </g>
  <g transform="translate(16.65,21.88)" fill="#529E26">
    <circle cx="0" cy="0" r="0.75" class="primitive"/>
  </g>
  <g transform="translate(9.17,18.63)" fill="#529E26">
    <circle cx="0" cy="0" r="0.75" class="primitive"/>
  </g>
  <g transform="translate(3.86,13.9)" fill="#3A08FA">
    <circle cx="0" cy="0" r="0.75" class="primitive"/>
  </g>
  <g transform="translate(16.01,30.25)" fill="#3A08FA">
    <circle cx="0" cy="0" r="0.75" class="primitive"/>
  </g>
  <g transform="translate(14.68,32.73)" fill="#529E26">
    <circle cx="0" cy="0" r="0.75" class="primitive"/>
  </g>
  <g transform="translate(16.78,35.21)" fill="#529E26">
    <circle cx="0" cy="0" r="0.75" class="primitive"/>
  </g>
  <g transform="translate(14.56,33.97)" fill="#3A08FA">
    <circle cx="0" cy="0" r="0.75" class="primitive"/>
  </g>
  <g transform="translate(13.39,32.11)" fill="#529E26">
    <circle cx="0" cy="0" r="0.75" class="primitive"/>
  </g>
  <g transform="translate(12.72,37.69)" fill="#3A08FA">
    <circle cx="0" cy="0" r="0.75" class="primitive"/>
  </g>
  <g transform="translate(17.09,40.17)" fill="#3A08FA">
    <circle cx="0" cy="0" r="0.75" class="primitive"/>
  </g>
  <g transform="translate(12.49,38.93)" fill="#529E26">
    <circle cx="0" cy="0" r="0.75" class="primitive"/>
  </g>
  <g transform="translate(19.92,42.64)" fill="#3A08FA">
    <circle cx="0" cy="0" r="0.75" class="primitive"/>
  </g>
  <g transform="translate(36.14,45.12)" fill="#529E26">
    <circle cx="0" cy="0" r="0.75" class="primitive"/>
  </g>
  <g transform="translate(26.89,47.6)" fill="#3A08FA">
    <circle cx="0" cy="0" r="0.75" class="primitive"/>
  </g>
  <g transform="translate(27.45,50.08)" fill="#529E26">
    <circle cx="0" cy="0" r="0.75" class="primitive"/>
  </g>
  <g transform="translate(26.46,48.84)" fill="#529E26">
    <circle cx="0" cy="0" r="0.75" class="primitive"/>
  </g>
  <g transform="translate(17.03,46.98)" fill="#3A08FA">
    <circle cx="0" cy="0" r="0.75" class="primitive"/>
  </g>
  <g transform="translate(14.64,44.81)" fill="#3A08FA">
    <circle cx="0" cy="0" r="0.75" class="primitive"/>
  </g>
  <g transform="translate(10.93,41.87)" fill="#529E26">
    <circle cx="0" cy="0" r="0.75" class="primitive"/>
  </g>
  <g transform="translate(9.49,36.99)" fill="#3A08FA">
    <circle cx="0" cy="0" r="0.75" class="primitive"/>
  </g>
  <g transform="translate(25.85,52.56)" fill="#3A08FA">
    <circle cx="0" cy="0" r="0.75" class="primitive"/>
  </g>
  <g transform="translate(29.1,55.04)" fill="#3A08FA">
    <circle cx="0" cy="0" r="0.75" class="primitive"/>
  </g>
  <g transform="translate(28.61,57.52)" fill="#529E26">
    <circle cx="0" cy="0" r="0.75" class="primitive"/>
  </g>
  <g transform="translate(24.62,60)" fill="#529E26">
    <circle cx="0" cy="0" r="0.75" class="primitive"/>
  </g>
  <g transform="translate(24.36,58.76)" fill="#3A08FA">
    <circle cx="0" cy="0" r="0.75" class="primitive"/>
  </g>
  <g transform="translate(24.26,56.9)" fill="#529E26">
    <circle cx="0" cy="0" r="0.75" class="primitive"/>
  </g>
  <g transform="translate(35.27,62.48)" fill="#3A08FA">
    <circle cx="0" cy="0" r="0.75" class="primitive"/>
  </g>
  <g transform="translate(53.05,64.96)" fill="#529E26">
    <circle cx="0" cy="0" r="0.75" class="primitive"/>
  </g>
  <g transform="translate(50.93,67.44)" fill="#529E26">
    <circle cx="0" cy="0" r="0.75" class="primitive"/>
  </g>
  <g transform="translate(52.1,69.92)" fill="#529E26">
    <circle cx="0" cy="0" r="0.75" class="primitive"/>
  </g>
  <g transform="translate(50.71,68.68)" fill="#529E26">
    <circle cx="0" cy="0" r="0.75" class="primitive"/>
  </g>
  <g transform="translate(42.69,66.82)" fill="#529E26">
    <circle cx="0" cy="0" r="0.75" class="primitive"/>
  </g>
  <g transform="translate(30.76,64.65)" fill="#3A08FA">
    <circle cx="0" cy="0" r="0.75" class="primitive"/>
  </g>
  <g transform="translate(23.32,60.77)" fill="#3A08FA">
    <circle cx="0" cy="0" r="0.75" class="primitive"/>
  </g>
  <g transform="translate(18.1,56.67)" fill="#3A08FA">
    <circle cx="0" cy="0" r="0.75" class="primitive"/>
  </g>
  <g fill-opacity="1" id="img-300d6e6f-5">
    <g transform="translate(18.1,56.67)" fill="#3A08FA">
      <circle cx="0" cy="0" r="0.75" class="primitive"/>
    </g>
    <g transform="translate(19.58,72.4)" fill="#529E26">
      <circle cx="0" cy="0" r="0.75" class="primitive"/>
    </g>
    <g transform="translate(26.54,74.88)" fill="#3A08FA">
      <circle cx="0" cy="0" r="0.75" class="primitive"/>
    </g>
    <g transform="translate(37.2,77.36)" fill="#3A08FA">
      <circle cx="0" cy="0" r="0.75" class="primitive"/>
    </g>
    <g transform="translate(40.28,79.83)" fill="#529E26">
      <circle cx="0" cy="0" r="0.75" class="primitive"/>
    </g>
    <g transform="translate(38.77,82.31)" fill="#3A08FA">
      <circle cx="0" cy="0" r="0.75" class="primitive"/>
    </g>
    <g transform="translate(38.26,81.07)" fill="#529E26">
      <circle cx="0" cy="0" r="0.75" class="primitive"/>
    </g>
    <g transform="translate(33.37,79.21)" fill="#529E26">
      <circle cx="0" cy="0" r="0.75" class="primitive"/>
    </g>
    <g transform="translate(21.85,77.05)" fill="#3A08FA">
      <circle cx="0" cy="0" r="0.75" class="primitive"/>
    </g>
    <g transform="translate(17.89,74.72)" fill="#529E26">
      <circle cx="0" cy="0" r="0.75" class="primitive"/>
    </g>
    <g transform="translate(28.49,84.79)" fill="#3A08FA">
      <circle cx="0" cy="0" r="0.75" class="primitive"/>
    </g>
    <g transform="translate(58.9,87.27)" fill="#529E26">
      <circle cx="0" cy="0" r="0.75" class="primitive"/>
    </g>
    <g transform="translate(51.04,89.75)" fill="#3A08FA">
      <circle cx="0" cy="0" r="0.75" class="primitive"/>
    </g>
    <g transform="translate(50.37,92.23)" fill="#3A08FA">
      <circle cx="0" cy="0" r="0.75" class="primitive"/>
    </g>
    <g transform="translate(49.57,90.99)" fill="#3A08FA">
      <circle cx="0" cy="0" r="0.75" class="primitive"/>
    </g>
    <g transform="translate(46.02,89.13)" fill="#3A08FA">
      <circle cx="0" cy="0" r="0.75" class="primitive"/>
    </g>
    <g transform="translate(53.17,94.71)" fill="#3A08FA">
      <circle cx="0" cy="0" r="0.75" class="primitive"/>
    </g>
    <g transform="translate(61.36,97.19)" fill="#3A08FA">
      <circle cx="0" cy="0" r="0.75" class="primitive"/>
    </g>
    <g transform="translate(62.53,99.67)" fill="#3A08FA">
      <circle cx="0" cy="0" r="0.75" class="primitive"/>
    </g>
    <g transform="translate(58.5,98.43)" fill="#529E26">
      <circle cx="0" cy="0" r="0.75" class="primitive"/>
    </g>
    <g transform="translate(65.24,102.15)" fill="#529E26">
      <circle cx="0" cy="0" r="0.75" class="primitive"/>
    </g>
    <g transform="translate(65.25,104.63)" fill="#529E26">
      <circle cx="0" cy="0" r="0.75" class="primitive"/>
    </g>
    <g transform="translate(60.25,103.39)" fill="#3A08FA">
      <circle cx="0" cy="0" r="0.75" class="primitive"/>
    </g>
    <g transform="translate(57.66,100.91)" fill="#3A08FA">
      <circle cx="0" cy="0" r="0.75" class="primitive"/>
    </g>
    <g transform="translate(78.75,107.11)" fill="#529E26">
      <circle cx="0" cy="0" r="0.75" class="primitive"/>
    </g>
    <g transform="translate(72.67,109.59)" fill="#3A08FA">
      <circle cx="0" cy="0" r="0.75" class="primitive"/>
    </g>
    <g transform="translate(60.58,108.35)" fill="#3A08FA">
      <circle cx="0" cy="0" r="0.75" class="primitive"/>
    </g>
    <g transform="translate(63.41,112.07)" fill="#3A08FA">
      <circle cx="0" cy="0" r="0.75" class="primitive"/>
    </g>
    <g transform="translate(62.79,114.55)" fill="#529E26">
      <circle cx="0" cy="0" r="0.75" class="primitive"/>
    </g>
    <g transform="translate(61.31,113.31)" fill="#3A08FA">
      <circle cx="0" cy="0" r="0.75" class="primitive"/>
    </g>
    <g transform="translate(55.58,110.83)" fill="#529E26">
      <circle cx="0" cy="0" r="0.75" class="primitive"/>
    </g>
    <g transform="translate(54.43,105.87)" fill="#529E26">
      <circle cx="0" cy="0" r="0.75" class="primitive"/>
    </g>
    <g transform="translate(48.54,100.29)" fill="#529E26">
      <circle cx="0" cy="0" r="0.75" class="primitive"/>
    </g>
    <g transform="translate(32.39,94.71)" fill="#529E26">
      <circle cx="0" cy="0" r="0.75" class="primitive"/>
    </g>
    <g transform="translate(26.66,89.75)" fill="#529E26">
      <circle cx="0" cy="0" r="0.75" class="primitive"/>
    </g>
    <g transform="translate(17.86,82.24)" fill="#3A08FA">
      <circle cx="0" cy="0" r="0.75" class="primitive"/>
    </g>
    <g transform="translate(16.43,69.45)" fill="#3A08FA">
      <circle cx="0" cy="0" r="0.75" class="primitive"/>
    </g>
    <g transform="translate(3.75,53.22)" fill="#000000">
      <circle cx="0" cy="0" r="0.75" class="primitive"/>
    </g>
    <g transform="translate(3.75,33.56)" fill="#000000">
      <circle cx="0" cy="0" r="0.75" class="primitive"/>
    </g>
  </g>
</g>
<g stroke-opacity="1" fill-opacity="1" font-size="1.41" stroke-width="0.1" id="img-300d6e6f-6">
  <g transform="translate(25.05,5.45)" stroke="#000000">
    <g class="primitive">
      <text dy="0.35em">N41</text>
    </g>
  </g>
  <g transform="translate(12.84,7.93)" stroke="#000000">
    <g class="primitive">
      <text dy="0.35em">N42</text>
    </g>
  </g>
  <g transform="translate(12.28,6.69)" stroke="#000000">
    <g class="primitive">
      <text dy="0.35em">N57</text>
    </g>
  </g>
  <g transform="translate(19.97,10.41)" stroke="#000000">
    <g class="primitive">
      <text dy="0.35em">N23</text>
    </g>
  </g>
  <g transform="translate(15.12,12.89)" stroke="#000000">
    <g class="primitive">
      <text dy="0.35em">N39</text>
    </g>
  </g>
  <g transform="translate(12.11,11.65)" stroke="#000000">
    <g class="primitive">
      <text dy="0.35em">N48</text>
    </g>
  </g>
  <g transform="translate(8.32,9.17)" stroke="#000000">
    <g class="primitive">
      <text dy="0.35em">N62</text>
    </g>
  </g>
  <g transform="translate(11.72,15.37)" stroke="#000000">
    <g class="primitive">
      <text dy="0.35em">N20</text>
    </g>
  </g>
  <g transform="translate(25.37,17.85)" stroke="#000000">
    <g class="primitive">
      <text dy="0.35em">N10</text>
    </g>
  </g>
  <g transform="translate(27.84,20.33)" stroke="#000000">
    <g class="primitive">
      <text dy="0.35em">N2</text>
    </g>
  </g>
  <g transform="translate(24.72,19.09)" stroke="#000000">
    <g class="primitive">
      <text dy="0.35em">N56</text>
    </g>
  </g>
  <g transform="translate(21.61,22.81)" stroke="#000000">
    <g class="primitive">
      <text dy="0.35em">N26</text>
    </g>
  </g>
  <g transform="translate(34.14,25.29)" stroke="#000000">
    <g class="primitive">
      <text dy="0.35em">N0</text>
    </g>
  </g>
  <g transform="translate(30.33,27.77)" stroke="#000000">
    <g class="primitive">
      <text dy="0.35em">N21</text>
    </g>
  </g>
  <g transform="translate(25.85,26.53)" stroke="#000000">
    <g class="primitive">
      <text dy="0.35em">N46</text>
    </g>
  </g>
  <g transform="translate(21.12,24.67)" stroke="#000000">
    <g class="primitive">
      <text dy="0.35em">N47</text>
    </g>
  </g>
  <g transform="translate(18.53,21.88)" stroke="#000000">
    <g class="primitive">
      <text dy="0.35em">N65</text>
    </g>
  </g>
  <g transform="translate(11.04,18.63)" stroke="#000000">
    <g class="primitive">
      <text dy="0.35em">N70</text>
    </g>
  </g>
  <g transform="translate(5.74,13.9)" stroke="#000000">
    <g class="primitive">
      <text dy="0.35em">N80</text>
    </g>
  </g>
  <g transform="translate(17.89,30.25)" stroke="#000000">
    <g class="primitive">
      <text dy="0.35em">N25</text>
    </g>
  </g>
  <g transform="translate(16.56,32.73)" stroke="#000000">
    <g class="primitive">
      <text dy="0.35em">N7</text>
    </g>
  </g>
  <g transform="translate(18.65,35.21)" stroke="#000000">
    <g class="primitive">
      <text dy="0.35em">N1</text>
    </g>
  </g>
  <g transform="translate(16.43,33.97)" stroke="#000000">
    <g class="primitive">
      <text dy="0.35em">N76</text>
    </g>
  </g>
  <g transform="translate(15.26,32.11)" stroke="#000000">
    <g class="primitive">
      <text dy="0.35em">N79</text>
    </g>
  </g>
  <g transform="translate(14.6,37.69)" stroke="#000000">
    <g class="primitive">
      <text dy="0.35em">N19</text>
    </g>
  </g>
  <g transform="translate(18.96,40.17)" stroke="#000000">
    <g class="primitive">
      <text dy="0.35em">N31</text>
    </g>
  </g>
  <g transform="translate(14.36,38.93)" stroke="#000000">
    <g class="primitive">
      <text dy="0.35em">N77</text>
    </g>
  </g>
  <g transform="translate(21.79,42.64)" stroke="#000000">
    <g class="primitive">
      <text dy="0.35em">N18</text>
    </g>
  </g>
  <g transform="translate(38.02,45.12)" stroke="#000000">
    <g class="primitive">
      <text dy="0.35em">N17</text>
    </g>
  </g>
  <g transform="translate(28.77,47.6)" stroke="#000000">
    <g class="primitive">
      <text dy="0.35em">N28</text>
    </g>
  </g>
  <g transform="translate(29.32,50.08)" stroke="#000000">
    <g class="primitive">
      <text dy="0.35em">N27</text>
    </g>
  </g>
  <g transform="translate(28.33,48.84)" stroke="#000000">
    <g class="primitive">
      <text dy="0.35em">N54</text>
    </g>
  </g>
  <g transform="translate(18.91,46.98)" stroke="#000000">
    <g class="primitive">
      <text dy="0.35em">N58</text>
    </g>
  </g>
  <g transform="translate(16.52,44.81)" stroke="#000000">
    <g class="primitive">
      <text dy="0.35em">N73</text>
    </g>
  </g>
  <g transform="translate(12.8,41.87)" stroke="#000000">
    <g class="primitive">
      <text dy="0.35em">N83</text>
    </g>
  </g>
  <g transform="translate(11.36,36.99)" stroke="#000000">
    <g class="primitive">
      <text dy="0.35em">N85</text>
    </g>
  </g>
  <g transform="translate(27.73,52.56)" stroke="#000000">
    <g class="primitive">
      <text dy="0.35em">N4</text>
    </g>
  </g>
  <g transform="translate(30.98,55.04)" stroke="#000000">
    <g class="primitive">
      <text dy="0.35em">N37</text>
    </g>
  </g>
  <g transform="translate(30.48,57.52)" stroke="#000000">
    <g class="primitive">
      <text dy="0.35em">N11</text>
    </g>
  </g>
  <g transform="translate(26.5,60)" stroke="#000000">
    <g class="primitive">
      <text dy="0.35em">N35</text>
    </g>
  </g>
  <g transform="translate(26.24,58.76)" stroke="#000000">
    <g class="primitive">
      <text dy="0.35em">N55</text>
    </g>
  </g>
  <g transform="translate(26.14,56.9)" stroke="#000000">
    <g class="primitive">
      <text dy="0.35em">N59</text>
    </g>
  </g>
  <g transform="translate(37.15,62.48)" stroke="#000000">
    <g class="primitive">
      <text dy="0.35em">N16</text>
    </g>
  </g>
  <g transform="translate(54.92,64.96)" stroke="#000000">
    <g class="primitive">
      <text dy="0.35em">N44</text>
    </g>
  </g>
  <g transform="translate(52.8,67.44)" stroke="#000000">
    <g class="primitive">
      <text dy="0.35em">N15</text>
    </g>
  </g>
  <g transform="translate(53.97,69.92)" stroke="#000000">
    <g class="primitive">
      <text dy="0.35em">N24</text>
    </g>
  </g>
  <g transform="translate(52.59,68.68)" stroke="#000000">
    <g class="primitive">
      <text dy="0.35em">N50</text>
    </g>
  </g>
  <g transform="translate(44.56,66.82)" stroke="#000000">
    <g class="primitive">
      <text dy="0.35em">N63</text>
    </g>
  </g>
  <g transform="translate(32.64,64.65)" stroke="#000000">
    <g class="primitive">
      <text dy="0.35em">N67</text>
    </g>
  </g>
  <g transform="translate(25.2,60.77)" stroke="#000000">
    <g class="primitive">
      <text dy="0.35em">N75</text>
    </g>
  </g>
  <g transform="translate(19.97,56.67)" stroke="#000000">
    <g class="primitive">
      <text dy="0.35em">N81</text>
    </g>
  </g>
  <g stroke-opacity="1" fill-opacity="1" font-size="1.41" stroke-width="0.1" id="img-300d6e6f-7">
    <g transform="translate(19.97,56.67)" stroke="#000000">
      <g class="primitive">
        <text dy="0.35em">N81</text>
      </g>
    </g>
    <g transform="translate(21.46,72.4)" stroke="#000000">
      <g class="primitive">
        <text dy="0.35em">N8</text>
      </g>
    </g>
    <g transform="translate(28.42,74.88)" stroke="#000000">
      <g class="primitive">
        <text dy="0.35em">N6</text>
      </g>
    </g>
    <g transform="translate(39.07,77.36)" stroke="#000000">
      <g class="primitive">
        <text dy="0.35em">N32</text>
      </g>
    </g>
    <g transform="translate(42.16,79.83)" stroke="#000000">
      <g class="primitive">
        <text dy="0.35em">N29</text>
      </g>
    </g>
    <g transform="translate(40.65,82.31)" stroke="#000000">
      <g class="primitive">
        <text dy="0.35em">N9</text>
      </g>
    </g>
    <g transform="translate(40.14,81.07)" stroke="#000000">
      <g class="primitive">
        <text dy="0.35em">N53</text>
      </g>
    </g>
    <g transform="translate(35.24,79.21)" stroke="#000000">
      <g class="primitive">
        <text dy="0.35em">N60</text>
      </g>
    </g>
    <g transform="translate(23.72,77.05)" stroke="#000000">
      <g class="primitive">
        <text dy="0.35em">N61</text>
      </g>
    </g>
    <g transform="translate(19.76,74.72)" stroke="#000000">
      <g class="primitive">
        <text dy="0.35em">N72</text>
      </g>
    </g>
    <g transform="translate(30.36,84.79)" stroke="#000000">
      <g class="primitive">
        <text dy="0.35em">N14</text>
      </g>
    </g>
    <g transform="translate(60.77,87.27)" stroke="#000000">
      <g class="primitive">
        <text dy="0.35em">N40</text>
      </g>
    </g>
    <g transform="translate(52.92,89.75)" stroke="#000000">
      <g class="primitive">
        <text dy="0.35em">N13</text>
      </g>
    </g>
    <g transform="translate(52.24,92.23)" stroke="#000000">
      <g class="primitive">
        <text dy="0.35em">N12</text>
      </g>
    </g>
    <g transform="translate(51.45,90.99)" stroke="#000000">
      <g class="primitive">
        <text dy="0.35em">N51</text>
      </g>
    </g>
    <g transform="translate(47.89,89.13)" stroke="#000000">
      <g class="primitive">
        <text dy="0.35em">N71</text>
      </g>
    </g>
    <g transform="translate(55.05,94.71)" stroke="#000000">
      <g class="primitive">
        <text dy="0.35em">N38</text>
      </g>
    </g>
    <g transform="translate(63.24,97.19)" stroke="#000000">
      <g class="primitive">
        <text dy="0.35em">N33</text>
      </g>
    </g>
    <g transform="translate(64.41,99.67)" stroke="#000000">
      <g class="primitive">
        <text dy="0.35em">N3</text>
      </g>
    </g>
    <g transform="translate(60.37,98.43)" stroke="#000000">
      <g class="primitive">
        <text dy="0.35em">N45</text>
      </g>
    </g>
    <g transform="translate(67.11,102.15)" stroke="#000000">
      <g class="primitive">
        <text dy="0.35em">N22</text>
      </g>
    </g>
    <g transform="translate(67.13,104.63)" stroke="#000000">
      <g class="primitive">
        <text dy="0.35em">N30</text>
      </g>
    </g>
    <g transform="translate(62.12,103.39)" stroke="#000000">
      <g class="primitive">
        <text dy="0.35em">N49</text>
      </g>
    </g>
    <g transform="translate(59.54,100.91)" stroke="#000000">
      <g class="primitive">
        <text dy="0.35em">N68</text>
      </g>
    </g>
    <g transform="translate(80.62,107.11)" stroke="#000000">
      <g class="primitive">
        <text dy="0.35em">N34</text>
      </g>
    </g>
    <g transform="translate(74.54,109.59)" stroke="#000000">
      <g class="primitive">
        <text dy="0.35em">N36</text>
      </g>
    </g>
    <g transform="translate(62.46,108.35)" stroke="#000000">
      <g class="primitive">
        <text dy="0.35em">N64</text>
      </g>
    </g>
    <g transform="translate(65.28,112.07)" stroke="#000000">
      <g class="primitive">
        <text dy="0.35em">N43</text>
      </g>
    </g>
    <g transform="translate(64.66,114.55)" stroke="#000000">
      <g class="primitive">
        <text dy="0.35em">N5</text>
      </g>
    </g>
    <g transform="translate(63.18,113.31)" stroke="#000000">
      <g class="primitive">
        <text dy="0.35em">N52</text>
      </g>
    </g>
    <g transform="translate(57.45,110.83)" stroke="#000000">
      <g class="primitive">
        <text dy="0.35em">N66</text>
      </g>
    </g>
    <g transform="translate(56.3,105.87)" stroke="#000000">
      <g class="primitive">
        <text dy="0.35em">N69</text>
      </g>
    </g>
    <g transform="translate(50.41,100.29)" stroke="#000000">
      <g class="primitive">
        <text dy="0.35em">N74</text>
      </g>
    </g>
    <g transform="translate(34.27,94.71)" stroke="#000000">
      <g class="primitive">
        <text dy="0.35em">N78</text>
      </g>
    </g>
    <g transform="translate(28.54,89.75)" stroke="#000000">
      <g class="primitive">
        <text dy="0.35em">N82</text>
      </g>
    </g>
    <g transform="translate(19.73,82.24)" stroke="#000000">
      <g class="primitive">
        <text dy="0.35em">N84</text>
      </g>
    </g>
    <g transform="translate(18.31,69.45)" stroke="#000000">
      <g class="primitive">
        <text dy="0.35em">N86</text>
      </g>
    </g>
    <g transform="translate(5.63,53.22)" stroke="#000000">
      <g class="primitive">
        <text dy="0.35em"></text>
      </g>
    </g>
    <g transform="translate(5.63,33.56)" stroke="#000000">
      <g class="primitive">
        <text dy="0.35em"></text>
      </g>
    </g>
  </g>
</g>
</svg>
