<?xml version="1.0" encoding="UTF-8"?>
<svg xmlns="http://www.w3.org/2000/svg"
     xmlns:xlink="http://www.w3.org/1999/xlink"
     version="1.2"
     width="150mm" height="90mm" viewBox="0 0 150 90"
     stroke="none"
     fill="#000000"
     stroke-width="0.3"
     font-size="3.88"
>
<defs>
  <marker id="arrow" markerWidth="15" markerHeight="7" refX="5" refY="3.5" orient="auto" markerUnits="strokeWidth">
    <path d="M0,0 L15,3.5 L0,7 z" stroke="context-stroke" fill="context-stroke"/>
  </marker>
</defs>
<g stroke-opacity="1" stroke-width="0.3" id="img-29b4c979-1">
  <g transform="translate(4.42,4.09)" stroke="#1132F7">
    <path fill="none" d="M-0.67,0 L0.67,0 " class="primitive"/>
  </g>
  <g transform="translate(16.13,6.91)" stroke="#1132F7">
    <path fill="none" d="M-1.27,0 L1.27,0 " class="primitive"/>
  </g>
  <g transform="translate(20.05,9.73)" stroke="#B5363B">
    <path fill="none" d="M-3.43,0 L3.43,0 " class="primitive"/>
  </g>
  <g transform="translate(16.83,12.55)" stroke="#B5363B">
    <path fill="none" d="M-0.21,0 L0.21,0 " class="primitive"/>
  </g>
  <g transform="translate(15.74,11.14)" stroke="#B5363B">
    <path fill="none" d="M-0.88,0 L0.88,0 " class="primitive"/>
  </g>
  <g transform="translate(16.62,11.14)" stroke="#B5363B">
    <path fill="none" d="M0,1.41 L0,-1.41 " class="primitive"/>
  </g>
  <g transform="translate(10.3,9.03)" stroke="#B5363B">
    <path fill="none" d="M-4.57,0 L4.57,0 " class="primitive"/>
  </g>
  <g transform="translate(14.86,9.03)" stroke="#B5363B">
    <path fill="none" d="M0,2.12 L0,-2.12 " class="primitive"/>
  </g>
  <g transform="translate(24.21,15.38)" stroke="#B5363B">
    <path fill="none" d="M-3.97,0 L3.97,0 " class="primitive"/>
  </g>
  <g transform="translate(21.98,18.2)" stroke="#B5363B">
    <path fill="none" d="M-1.74,0 L1.74,0 " class="primitive"/>
  </g>
  <g transform="translate(14.52,16.79)" stroke="#B5363B">
    <path fill="none" d="M-5.71,0 L5.71,0 " class="primitive"/>
  </g>
  <g transform="translate(20.23,16.79)" stroke="#B5363B">
    <path fill="none" d="M0,1.41 L0,-1.41 " class="primitive"/>
  </g>
  <g transform="translate(15.61,21.02)" stroke="#B5363B">
    <path fill="none" d="M-0.39,0 L0.39,0 " class="primitive"/>
  </g>
  <g transform="translate(17.35,23.84)" stroke="#B5363B">
    <path fill="none" d="M-2.13,0 L2.13,0 " class="primitive"/>
  </g>
  <g transform="translate(14.84,22.43)" stroke="#B5363B">
    <path fill="none" d="M-0.38,0 L0.38,0 " class="primitive"/>
  </g>
  <g transform="translate(15.22,22.43)" stroke="#B5363B">
    <path fill="none" d="M0,1.41 L0,-1.41 " class="primitive"/>
  </g>
  <g transform="translate(34.44,26.66)" stroke="#1132F7">
    <path fill="none" d="M-0.7,0 L0.7,0 " class="primitive"/>
  </g>
  <g transform="translate(37.13,29.48)" stroke="#1132F7">
    <path fill="none" d="M-1.07,0 L1.07,0 " class="primitive"/>
  </g>
  <g transform="translate(38.44,32.3)" stroke="#B5363B">
    <path fill="none" d="M-0.2,0 L0.2,0 " class="primitive"/>
  </g>
  <g transform="translate(45.58,35.13)" stroke="#B5363B">
    <path fill="none" d="M-2.09,0 L2.09,0 " class="primitive"/>
  </g>
  <g transform="translate(45.81,37.95)" stroke="#B5363B">
    <path fill="none" d="M-0.25,0 L0.25,0 " class="primitive"/>
  </g>
  <g transform="translate(46.22,40.77)" stroke="#1132F7">
    <path fill="none" d="M-0.66,0 L0.66,0 " class="primitive"/>
  </g>
  <g transform="translate(44.52,39.36)" stroke="#1132F7">
    <path fill="none" d="M-1.03,0 L1.03,0 " class="primitive"/>
  </g>
  <g transform="translate(45.56,39.36)" stroke="#1132F7">
    <path fill="none" d="M0,1.41 L0,-1.41 " class="primitive"/>
  </g>
  <g transform="translate(40.87,37.24)" stroke="#B5363B">
    <path fill="none" d="M-2.62,0 L2.62,0 " class="primitive"/>
  </g>
  <g transform="translate(43.49,37.24)" stroke="#B5363B">
    <path fill="none" d="M0,2.12 L0,-2.12 " class="primitive"/>
  </g>
  <g transform="translate(37.15,34.77)" stroke="#B5363B">
    <path fill="none" d="M-1.09,0 L1.09,0 " class="primitive"/>
  </g>
  <g transform="translate(38.24,34.77)" stroke="#B5363B">
    <path fill="none" d="M0,2.47 L0,-2.47 " class="primitive"/>
  </g>
  <g transform="translate(34.9,32.13)" stroke="#1132F7">
    <path fill="none" d="M-1.16,0 L1.16,0 " class="primitive"/>
  </g>
  <g transform="translate(36.06,32.13)" stroke="#1132F7">
    <path fill="none" d="M0,2.64 L0,-2.64 " class="primitive"/>
  </g>
  <g transform="translate(24.09,29.39)" stroke="#B5363B">
    <path fill="none" d="M-9.64,0 L9.64,0 " class="primitive"/>
  </g>
  <g transform="translate(33.74,29.39)" stroke="#B5363B">
    <path fill="none" d="M0,2.73 L0,-2.73 " class="primitive"/>
  </g>
  <g transform="translate(11.63,25.91)" stroke="#B5363B">
    <path fill="none" d="M-2.82,0 L2.82,0 " class="primitive"/>
  </g>
  <g transform="translate(14.45,25.91)" stroke="#B5363B">
    <path fill="none" d="M0,3.48 L0,-3.48 " class="primitive"/>
  </g>
  <g transform="translate(7.27,21.35)" stroke="#B5363B">
    <path fill="none" d="M-1.54,0 L1.54,0 " class="primitive"/>
  </g>
  <g transform="translate(8.81,21.35)" stroke="#B5363B">
    <path fill="none" d="M0,4.56 L0,-4.56 " class="primitive"/>
  </g>
  <g transform="translate(4.74,15.19)" stroke="#B5363B">
    <path fill="none" d="M-0.99,0 L0.99,0 " class="primitive"/>
  </g>
  <g transform="translate(5.73,15.19)" stroke="#B5363B">
    <path fill="none" d="M0,6.16 L0,-6.16 " class="primitive"/>
  </g>
  <g transform="translate(37.98,43.59)" stroke="#B5363B">
    <path fill="none" d="M-7.04,0 L7.04,0 " class="primitive"/>
  </g>
  <g transform="translate(31.98,46.41)" stroke="#1132F7">
    <path fill="none" d="M-1.05,0 L1.05,0 " class="primitive"/>
  </g>
  <g transform="translate(30.24,45)" stroke="#1132F7">
    <path fill="none" d="M-0.69,0 L0.69,0 " class="primitive"/>
  </g>
  <g transform="translate(30.93,45)" stroke="#1132F7">
    <path fill="none" d="M0,1.41 L0,-1.41 " class="primitive"/>
  </g>
  <g transform="translate(31.98,49.23)" stroke="#1132F7">
    <path fill="none" d="M-1.46,0 L1.46,0 " class="primitive"/>
  </g>
  <g transform="translate(36.05,52.05)" stroke="#B5363B">
    <path fill="none" d="M-4.42,0 L4.42,0 " class="primitive"/>
  </g>
  <g transform="translate(42.14,54.87)" stroke="#1132F7">
    <path fill="none" d="M-3.37,0 L3.37,0 " class="primitive"/>
  </g>
  <g transform="translate(42.76,57.7)" stroke="#1132F7">
    <path fill="none" d="M-3.99,0 L3.99,0 " class="primitive"/>
  </g>
  <g transform="translate(35.2,56.29)" stroke="#B5363B">
    <path fill="none" d="M-3.57,0 L3.57,0 " class="primitive"/>
  </g>
  <g transform="translate(38.77,56.29)" stroke="#B5363B">
    <path fill="none" d="M0,1.41 L0,-1.41 " class="primitive"/>
  </g>
  <g transform="translate(31.08,54.17)" stroke="#B5363B">
    <path fill="none" d="M-0.55,0 L0.55,0 " class="primitive"/>
  </g>
  <g transform="translate(31.63,54.17)" stroke="#B5363B">
    <path fill="none" d="M0,2.12 L0,-2.12 " class="primitive"/>
  </g>
  <g transform="translate(30.04,51.7)" stroke="#B5363B">
    <path fill="none" d="M-0.49,0 L0.49,0 " class="primitive"/>
  </g>
  <g stroke-opacity="1" stroke-width="0.3" id="img-29b4c979-2">
    <g transform="translate(30.04,51.7)" stroke="#B5363B">
      <path fill="none" d="M-0.49,0 L0.49,0 " class="primitive"/>
    </g>
    <g transform="translate(30.52,51.7)" stroke="#B5363B">
      <path fill="none" d="M0,2.47 L0,-2.47 " class="primitive"/>
    </g>
    <g transform="translate(24.12,48.35)" stroke="#B5363B">
      <path fill="none" d="M-5.43,0 L5.43,0 " class="primitive"/>
    </g>
    <g transform="translate(29.55,48.35)" stroke="#B5363B">
      <path fill="none" d="M0,3.35 L0,-3.35 " class="primitive"/>
    </g>
    <g transform="translate(29.31,60.52)" stroke="#B5363B">
      <path fill="none" d="M-1.04,0 L1.04,0 " class="primitive"/>
    </g>
    <g transform="translate(30.04,63.34)" stroke="#B5363B">
      <path fill="none" d="M-1.76,0 L1.76,0 " class="primitive"/>
    </g>
    <g transform="translate(26.27,61.93)" stroke="#B5363B">
      <path fill="none" d="M-2,0 L2,0 " class="primitive"/>
    </g>
    <g transform="translate(28.27,61.93)" stroke="#B5363B">
      <path fill="none" d="M0,1.41 L0,-1.41 " class="primitive"/>
    </g>
    <g transform="translate(45.75,66.16)" stroke="#1132F7">
      <path fill="none" d="M-1.29,0 L1.29,0 " class="primitive"/>
    </g>
    <g transform="translate(46.63,68.98)" stroke="#1132F7">
      <path fill="none" d="M-1.08,0 L1.08,0 " class="primitive"/>
    </g>
    <g transform="translate(66.48,71.8)" stroke="#1132F7">
      <path fill="none" d="M-1.2,0 L1.2,0 " class="primitive"/>
    </g>
    <g transform="translate(66.26,74.62)" stroke="#1132F7">
      <path fill="none" d="M-0.99,0 L0.99,0 " class="primitive"/>
    </g>
    <g transform="translate(58.28,73.21)" stroke="#1132F7">
      <path fill="none" d="M-6.99,0 L6.99,0 " class="primitive"/>
    </g>
    <g transform="translate(65.27,73.21)" stroke="#1132F7">
      <path fill="none" d="M0,1.41 L0,-1.41 " class="primitive"/>
    </g>
    <g transform="translate(75.44,77.45)" stroke="#B5363B">
      <path fill="none" d="M-3.31,0 L3.31,0 " class="primitive"/>
    </g>
    <g transform="translate(73.49,80.27)" stroke="#B5363B">
      <path fill="none" d="M-1.36,0 L1.36,0 " class="primitive"/>
    </g>
    <g transform="translate(66.67,78.86)" stroke="#B5363B">
      <path fill="none" d="M-5.46,0 L5.46,0 " class="primitive"/>
    </g>
    <g transform="translate(72.13,78.86)" stroke="#B5363B">
      <path fill="none" d="M0,1.41 L0,-1.41 " class="primitive"/>
    </g>
    <g transform="translate(71.96,83.09)" stroke="#B5363B">
      <path fill="none" d="M-2.98,0 L2.98,0 " class="primitive"/>
    </g>
    <g transform="translate(69.67,85.91)" stroke="#1132F7">
      <path fill="none" d="M-0.69,0 L0.69,0 " class="primitive"/>
    </g>
    <g transform="translate(65.09,84.5)" stroke="#B5363B">
      <path fill="none" d="M-3.89,0 L3.89,0 " class="primitive"/>
    </g>
    <g transform="translate(68.98,84.5)" stroke="#B5363B">
      <path fill="none" d="M0,1.41 L0,-1.41 " class="primitive"/>
    </g>
    <g transform="translate(56.25,81.68)" stroke="#B5363B">
      <path fill="none" d="M-4.96,0 L4.96,0 " class="primitive"/>
    </g>
    <g transform="translate(61.21,81.68)" stroke="#B5363B">
      <path fill="none" d="M0,2.82 L0,-2.82 " class="primitive"/>
    </g>
    <g transform="translate(48.42,77.45)" stroke="#1132F7">
      <path fill="none" d="M-2.87,0 L2.87,0 " class="primitive"/>
    </g>
    <g transform="translate(51.29,77.45)" stroke="#1132F7">
      <path fill="none" d="M0,4.23 L0,-4.23 " class="primitive"/>
    </g>
    <g transform="translate(45,73.21)" stroke="#1132F7">
      <path fill="none" d="M-0.55,0 L0.55,0 " class="primitive"/>
    </g>
    <g transform="translate(45.55,73.21)" stroke="#1132F7">
      <path fill="none" d="M0,4.23 L0,-4.23 " class="primitive"/>
    </g>
    <g transform="translate(34.37,69.69)" stroke="#B5363B">
      <path fill="none" d="M-10.09,0 L10.09,0 " class="primitive"/>
    </g>
    <g transform="translate(44.46,69.69)" stroke="#B5363B">
      <path fill="none" d="M0,3.53 L0,-3.53 " class="primitive"/>
    </g>
    <g transform="translate(21.48,65.81)" stroke="#B5363B">
      <path fill="none" d="M-2.79,0 L2.79,0 " class="primitive"/>
    </g>
    <g transform="translate(24.28,65.81)" stroke="#B5363B">
      <path fill="none" d="M0,3.88 L0,-3.88 " class="primitive"/>
    </g>
    <g transform="translate(11.22,57.08)" stroke="#1132F7">
      <path fill="none" d="M-7.47,0 L7.47,0 " class="primitive"/>
    </g>
    <g transform="translate(18.69,57.08)" stroke="#1132F7">
      <path fill="none" d="M0,8.73 L0,-8.73 " class="primitive"/>
    </g>
    <g transform="translate(3.75,36.13)" stroke="#000000">
      <path fill="none" d="M0,0 L0,0 " class="primitive"/>
    </g>
    <g transform="translate(3.75,36.13)" stroke="#000000">
      <path fill="none" d="M0,20.94 L0,-20.94 " class="primitive"/>
    </g>
    <g transform="translate(3.75,20.11)" stroke="#000000">
      <path fill="none" d="M0,0 L0,0 " class="primitive"/>
    </g>
    <g transform="translate(3.75,20.11)" stroke="#000000">
      <path fill="none" d="M0,16.02 L0,-16.02 " class="primitive"/>
    </g>
  </g>
</g>
<g fill-opacity="1" id="img-29b4c979-3">
  <g transform="translate(5.09,4.09)" fill="#1132F7">
    <circle cx="0" cy="0" r="0.75" class="primitive"/>
  </g>
  <g transform="translate(17.4,6.91)" fill="#1132F7">
    <circle cx="0" cy="0" r="0.75" class="primitive"/>
  </g>
  <g transform="translate(23.49,9.73)" fill="#B5363B">
    <circle cx="0" cy="0" r="0.75" class="primitive"/>
  </g>
  <g transform="translate(17.04,12.55)" fill="#B5363B">
    <circle cx="0" cy="0" r="0.75" class="primitive"/>
  </g>
  <g transform="translate(16.62,11.14)" fill="#B5363B">
    <circle cx="0" cy="0" r="0.75" class="primitive"/>
  </g>
  <g transform="translate(14.86,9.03)" fill="#B5363B">
    <circle cx="0" cy="0" r="0.75" class="primitive"/>
  </g>
  <g transform="translate(28.18,15.38)" fill="#B5363B">
    <circle cx="0" cy="0" r="0.75" class="primitive"/>
  </g>
  <g transform="translate(23.72,18.2)" fill="#B5363B">
    <circle cx="0" cy="0" r="0.75" class="primitive"/>
  </g>
  <g transform="translate(20.23,16.79)" fill="#B5363B">
    <circle cx="0" cy="0" r="0.75" class="primitive"/>
  </g>
  <g transform="translate(16,21.02)" fill="#B5363B">
    <circle cx="0" cy="0" r="0.75" class="primitive"/>
  </g>
  <g transform="translate(19.47,23.84)" fill="#B5363B">
    <circle cx="0" cy="0" r="0.75" class="primitive"/>
  </g>
  <g transform="translate(15.22,22.43)" fill="#B5363B">
    <circle cx="0" cy="0" r="0.75" class="primitive"/>
  </g>
  <g transform="translate(35.14,26.66)" fill="#1132F7">
    <circle cx="0" cy="0" r="0.75" class="primitive"/>
  </g>
  <g transform="translate(38.21,29.48)" fill="#1132F7">
    <circle cx="0" cy="0" r="0.75" class="primitive"/>
  </g>
  <g transform="translate(38.63,32.3)" fill="#B5363B">
    <circle cx="0" cy="0" r="0.75" class="primitive"/>
  </g>
  <g transform="translate(47.67,35.13)" fill="#B5363B">
    <circle cx="0" cy="0" r="0.75" class="primitive"/>
  </g>
  <g transform="translate(46.06,37.95)" fill="#B5363B">
    <circle cx="0" cy="0" r="0.75" class="primitive"/>
  </g>
  <g transform="translate(46.89,40.77)" fill="#1132F7">
    <circle cx="0" cy="0" r="0.75" class="primitive"/>
  </g>
  <g transform="translate(45.56,39.36)" fill="#1132F7">
    <circle cx="0" cy="0" r="0.75" class="primitive"/>
  </g>
  <g transform="translate(43.49,37.24)" fill="#B5363B">
    <circle cx="0" cy="0" r="0.75" class="primitive"/>
  </g>
  <g transform="translate(38.24,34.77)" fill="#B5363B">
    <circle cx="0" cy="0" r="0.75" class="primitive"/>
  </g>
  <g transform="translate(36.06,32.13)" fill="#1132F7">
    <circle cx="0" cy="0" r="0.75" class="primitive"/>
  </g>
  <g transform="translate(33.74,29.39)" fill="#B5363B">
    <circle cx="0" cy="0" r="0.75" class="primitive"/>
  </g>
  <g transform="translate(14.45,25.91)" fill="#B5363B">
    <circle cx="0" cy="0" r="0.75" class="primitive"/>
  </g>
  <g transform="translate(8.81,21.35)" fill="#B5363B">
    <circle cx="0" cy="0" r="0.75" class="primitive"/>
  </g>
  <g transform="translate(5.73,15.19)" fill="#B5363B">
    <circle cx="0" cy="0" r="0.75" class="primitive"/>
  </g>
  <g transform="translate(45.02,43.59)" fill="#B5363B">
    <circle cx="0" cy="0" r="0.75" class="primitive"/>
  </g>
  <g transform="translate(33.03,46.41)" fill="#1132F7">
    <circle cx="0" cy="0" r="0.75" class="primitive"/>
  </g>
  <g transform="translate(30.93,45)" fill="#1132F7">
    <circle cx="0" cy="0" r="0.75" class="primitive"/>
  </g>
  <g transform="translate(33.44,49.23)" fill="#1132F7">
    <circle cx="0" cy="0" r="0.75" class="primitive"/>
  </g>
  <g transform="translate(40.47,52.05)" fill="#B5363B">
    <circle cx="0" cy="0" r="0.75" class="primitive"/>
  </g>
  <g transform="translate(45.51,54.87)" fill="#1132F7">
    <circle cx="0" cy="0" r="0.75" class="primitive"/>
  </g>
  <g transform="translate(46.76,57.7)" fill="#1132F7">
    <circle cx="0" cy="0" r="0.75" class="primitive"/>
  </g>
  <g transform="translate(38.77,56.29)" fill="#B5363B">
    <circle cx="0" cy="0" r="0.75" class="primitive"/>
  </g>
  <g transform="translate(31.63,54.17)" fill="#B5363B">
    <circle cx="0" cy="0" r="0.75" class="primitive"/>
  </g>
  <g transform="translate(30.52,51.7)" fill="#B5363B">
    <circle cx="0" cy="0" r="0.75" class="primitive"/>
  </g>
  <g transform="translate(29.55,48.35)" fill="#B5363B">
    <circle cx="0" cy="0" r="0.75" class="primitive"/>
  </g>
  <g transform="translate(30.35,60.52)" fill="#B5363B">
    <circle cx="0" cy="0" r="0.75" class="primitive"/>
  </g>
  <g transform="translate(31.8,63.34)" fill="#B5363B">
    <circle cx="0" cy="0" r="0.75" class="primitive"/>
  </g>
  <g transform="translate(28.27,61.93)" fill="#B5363B">
    <circle cx="0" cy="0" r="0.75" class="primitive"/>
  </g>
  <g transform="translate(47.04,66.16)" fill="#1132F7">
    <circle cx="0" cy="0" r="0.75" class="primitive"/>
  </g>
  <g transform="translate(47.7,68.98)" fill="#1132F7">
    <circle cx="0" cy="0" r="0.75" class="primitive"/>
  </g>
  <g transform="translate(67.68,71.8)" fill="#1132F7">
    <circle cx="0" cy="0" r="0.75" class="primitive"/>
  </g>
  <g transform="translate(67.24,74.62)" fill="#1132F7">
    <circle cx="0" cy="0" r="0.75" class="primitive"/>
  </g>
  <g transform="translate(65.27,73.21)" fill="#1132F7">
    <circle cx="0" cy="0" r="0.75" class="primitive"/>
  </g>
  <g transform="translate(78.75,77.45)" fill="#B5363B">
    <circle cx="0" cy="0" r="0.75" class="primitive"/>
  </g>
  <g transform="translate(74.84,80.27)" fill="#B5363B">
    <circle cx="0" cy="0" r="0.75" class="primitive"/>
  </g>
  <g transform="translate(72.13,78.86)" fill="#B5363B">
    <circle cx="0" cy="0" r="0.75" class="primitive"/>
  </g>
  <g transform="translate(74.94,83.09)" fill="#B5363B">
    <circle cx="0" cy="0" r="0.75" class="primitive"/>
  </g>
  <g transform="translate(70.36,85.91)" fill="#1132F7">
    <circle cx="0" cy="0" r="0.75" class="primitive"/>
  </g>
  <g transform="translate(68.98,84.5)" fill="#B5363B">
    <circle cx="0" cy="0" r="0.75" class="primitive"/>
  </g>
  <g fill-opacity="1" id="img-29b4c979-4">
    <g transform="translate(68.98,84.5)" fill="#B5363B">
      <circle cx="0" cy="0" r="0.75" class="primitive"/>
    </g>
    <g transform="translate(61.21,81.68)" fill="#B5363B">
      <circle cx="0" cy="0" r="0.75" class="primitive"/>
    </g>
    <g transform="translate(51.29,77.45)" fill="#1132F7">
      <circle cx="0" cy="0" r="0.75" class="primitive"/>
    </g>
    <g transform="translate(45.55,73.21)" fill="#1132F7">
      <circle cx="0" cy="0" r="0.75" class="primitive"/>
    </g>
    <g transform="translate(44.46,69.69)" fill="#B5363B">
      <circle cx="0" cy="0" r="0.75" class="primitive"/>
    </g>
    <g transform="translate(24.28,65.81)" fill="#B5363B">
      <circle cx="0" cy="0" r="0.75" class="primitive"/>
    </g>
    <g transform="translate(18.69,57.08)" fill="#1132F7">
      <circle cx="0" cy="0" r="0.75" class="primitive"/>
    </g>
    <g transform="translate(3.75,36.13)" fill="#000000">
      <circle cx="0" cy="0" r="0.75" class="primitive"/>
    </g>
    <g transform="translate(3.75,20.11)" fill="#000000">
      <circle cx="0" cy="0" r="0.75" class="primitive"/>
    </g>
  </g>
</g>
<g stroke-opacity="1" fill-opacity="1" font-size="1.41" stroke-width="0.1" id="img-29b4c979-5">
  <g transform="translate(6.96,4.09)" stroke="#000000">
    <g class="primitive">
      <text dy="0.35em">N12</text>
    </g>
  </g>
  <g transform="translate(19.27,6.91)" stroke="#000000">
    <g class="primitive">
      <text dy="0.35em">N28</text>
    </g>
  </g>
  <g transform="translate(25.36,9.73)" stroke="#000000">
    <g class="primitive">
      <text dy="0.35em">N2</text>
    </g>
  </g>
  <g transform="translate(18.91,12.55)" stroke="#000000">
    <g class="primitive">
      <text dy="0.35em">N7</text>
    </g>
  </g>
  <g transform="translate(18.49,11.14)" stroke="#000000">
    <g class="primitive">
      <text dy="0.35em">N35</text>
    </g>
  </g>
  <g transform="translate(16.74,9.03)" stroke="#000000">
    <g class="primitive">
      <text dy="0.35em">N42</text>
    </g>
  </g>
  <g transform="translate(30.05,15.38)" stroke="#000000">
    <g class="primitive">
      <text dy="0.35em">N14</text>
    </g>
  </g>
  <g transform="translate(25.59,18.2)" stroke="#000000">
    <g class="primitive">
      <text dy="0.35em">N24</text>
    </g>
  </g>
  <g transform="translate(22.11,16.79)" stroke="#000000">
    <g class="primitive">
      <text dy="0.35em">N37</text>
    </g>
  </g>
  <g transform="translate(17.87,21.02)" stroke="#000000">
    <g class="primitive">
      <text dy="0.35em">N17</text>
    </g>
  </g>
  <g transform="translate(21.35,23.84)" stroke="#000000">
    <g class="primitive">
      <text dy="0.35em">N1</text>
    </g>
  </g>
  <g transform="translate(17.09,22.43)" stroke="#000000">
    <g class="primitive">
      <text dy="0.35em">N45</text>
    </g>
  </g>
  <g transform="translate(37.02,26.66)" stroke="#000000">
    <g class="primitive">
      <text dy="0.35em">N27</text>
    </g>
  </g>
  <g transform="translate(40.08,29.48)" stroke="#000000">
    <g class="primitive">
      <text dy="0.35em">N13</text>
    </g>
  </g>
  <g transform="translate(40.51,32.3)" stroke="#000000">
    <g class="primitive">
      <text dy="0.35em">N20</text>
    </g>
  </g>
  <g transform="translate(49.55,35.13)" stroke="#000000">
    <g class="primitive">
      <text dy="0.35em">N26</text>
    </g>
  </g>
  <g transform="translate(47.93,37.95)" stroke="#000000">
    <g class="primitive">
      <text dy="0.35em">N6</text>
    </g>
  </g>
  <g transform="translate(48.76,40.77)" stroke="#000000">
    <g class="primitive">
      <text dy="0.35em">N25</text>
    </g>
  </g>
  <g transform="translate(47.43,39.36)" stroke="#000000">
    <g class="primitive">
      <text dy="0.35em">N34</text>
    </g>
  </g>
  <g transform="translate(45.36,37.24)" stroke="#000000">
    <g class="primitive">
      <text dy="0.35em">N36</text>
    </g>
  </g>
  <g transform="translate(40.12,34.77)" stroke="#000000">
    <g class="primitive">
      <text dy="0.35em">N43</text>
    </g>
  </g>
  <g transform="translate(37.94,32.13)" stroke="#000000">
    <g class="primitive">
      <text dy="0.35em">N44</text>
    </g>
  </g>
  <g transform="translate(35.61,29.39)" stroke="#000000">
    <g class="primitive">
      <text dy="0.35em">N49</text>
    </g>
  </g>
  <g transform="translate(16.33,25.91)" stroke="#000000">
    <g class="primitive">
      <text dy="0.35em">N53</text>
    </g>
  </g>
  <g transform="translate(10.68,21.35)" stroke="#000000">
    <g class="primitive">
      <text dy="0.35em">N55</text>
    </g>
  </g>
  <g transform="translate(7.61,15.19)" stroke="#000000">
    <g class="primitive">
      <text dy="0.35em">N56</text>
    </g>
  </g>
  <g transform="translate(46.89,43.59)" stroke="#000000">
    <g class="primitive">
      <text dy="0.35em">N11</text>
    </g>
  </g>
  <g transform="translate(34.91,46.41)" stroke="#000000">
    <g class="primitive">
      <text dy="0.35em">N19</text>
    </g>
  </g>
  <g transform="translate(32.81,45)" stroke="#000000">
    <g class="primitive">
      <text dy="0.35em">N40</text>
    </g>
  </g>
  <g transform="translate(35.32,49.23)" stroke="#000000">
    <g class="primitive">
      <text dy="0.35em">N29</text>
    </g>
  </g>
  <g transform="translate(42.34,52.05)" stroke="#000000">
    <g class="primitive">
      <text dy="0.35em">N15</text>
    </g>
  </g>
  <g transform="translate(47.39,54.87)" stroke="#000000">
    <g class="primitive">
      <text dy="0.35em">N8</text>
    </g>
  </g>
  <g transform="translate(48.63,57.7)" stroke="#000000">
    <g class="primitive">
      <text dy="0.35em">N4</text>
    </g>
  </g>
  <g transform="translate(40.64,56.29)" stroke="#000000">
    <g class="primitive">
      <text dy="0.35em">N32</text>
    </g>
  </g>
  <g transform="translate(33.51,54.17)" stroke="#000000">
    <g class="primitive">
      <text dy="0.35em">N33</text>
    </g>
  </g>
  <g transform="translate(32.4,51.7)" stroke="#000000">
    <g class="primitive">
      <text dy="0.35em">N41</text>
    </g>
  </g>
  <g transform="translate(31.43,48.35)" stroke="#000000">
    <g class="primitive">
      <text dy="0.35em">N52</text>
    </g>
  </g>
  <g transform="translate(32.23,60.52)" stroke="#000000">
    <g class="primitive">
      <text dy="0.35em">N9</text>
    </g>
  </g>
  <g transform="translate(33.68,63.34)" stroke="#000000">
    <g class="primitive">
      <text dy="0.35em">N0</text>
    </g>
  </g>
  <g transform="translate(30.15,61.93)" stroke="#000000">
    <g class="primitive">
      <text dy="0.35em">N47</text>
    </g>
  </g>
  <g transform="translate(48.91,66.16)" stroke="#000000">
    <g class="primitive">
      <text dy="0.35em">N3</text>
    </g>
  </g>
  <g transform="translate(49.58,68.98)" stroke="#000000">
    <g class="primitive">
      <text dy="0.35em">N22</text>
    </g>
  </g>
  <g transform="translate(69.55,71.8)" stroke="#000000">
    <g class="primitive">
      <text dy="0.35em">N18</text>
    </g>
  </g>
  <g transform="translate(69.12,74.62)" stroke="#000000">
    <g class="primitive">
      <text dy="0.35em">N5</text>
    </g>
  </g>
  <g transform="translate(67.15,73.21)" stroke="#000000">
    <g class="primitive">
      <text dy="0.35em">N38</text>
    </g>
  </g>
  <g transform="translate(80.62,77.45)" stroke="#000000">
    <g class="primitive">
      <text dy="0.35em">N21</text>
    </g>
  </g>
  <g transform="translate(76.72,80.27)" stroke="#000000">
    <g class="primitive">
      <text dy="0.35em">N10</text>
    </g>
  </g>
  <g transform="translate(74,78.86)" stroke="#000000">
    <g class="primitive">
      <text dy="0.35em">N30</text>
    </g>
  </g>
  <g transform="translate(76.82,83.09)" stroke="#000000">
    <g class="primitive">
      <text dy="0.35em">N23</text>
    </g>
  </g>
  <g transform="translate(72.24,85.91)" stroke="#000000">
    <g class="primitive">
      <text dy="0.35em">N16</text>
    </g>
  </g>
  <g transform="translate(70.85,84.5)" stroke="#000000">
    <g class="primitive">
      <text dy="0.35em">N31</text>
    </g>
  </g>
  <g stroke-opacity="1" fill-opacity="1" font-size="1.41" stroke-width="0.1" id="img-29b4c979-6">
    <g transform="translate(70.85,84.5)" stroke="#000000">
      <g class="primitive">
        <text dy="0.35em">N31</text>
      </g>
    </g>
    <g transform="translate(63.08,81.68)" stroke="#000000">
      <g class="primitive">
        <text dy="0.35em">N39</text>
      </g>
    </g>
    <g transform="translate(53.17,77.45)" stroke="#000000">
      <g class="primitive">
        <text dy="0.35em">N46</text>
      </g>
    </g>
    <g transform="translate(47.43,73.21)" stroke="#000000">
      <g class="primitive">
        <text dy="0.35em">N48</text>
      </g>
    </g>
    <g transform="translate(46.33,69.69)" stroke="#000000">
      <g class="primitive">
        <text dy="0.35em">N50</text>
      </g>
    </g>
    <g transform="translate(26.15,65.81)" stroke="#000000">
      <g class="primitive">
        <text dy="0.35em">N51</text>
      </g>
    </g>
    <g transform="translate(20.56,57.08)" stroke="#000000">
      <g class="primitive">
        <text dy="0.35em">N54</text>
      </g>
    </g>
    <g transform="translate(5.63,36.13)" stroke="#000000">
      <g class="primitive">
        <text dy="0.35em"></text>
      </g>
    </g>
    <g transform="translate(5.63,20.11)" stroke="#000000">
      <g class="primitive">
        <text dy="0.35em"></text>
      </g>
    </g>
  </g>
</g>
</svg>
