<?xml version="1.0" encoding="UTF-8"?>
<svg xmlns="http://www.w3.org/2000/svg"
     xmlns:xlink="http://www.w3.org/1999/xlink"
     version="1.2"
     width="150mm" height="92mm" viewBox="0 0 150 92"
     stroke="none"
     fill="#000000"
     stroke-width="0.3"
     font-size="3.88"
>
<defs>
  <marker id="arrow" markerWidth="15" markerHeight="7" refX="5" refY="3.5" orient="auto" markerUnits="strokeWidth">
    <path d="M0,0 L15,3.5 L0,7 z" stroke="context-stroke" fill="context-stroke"/>
  </marker>
</defs>
<g stroke-opacity="1" stroke-width="0.3" id="img-29b4c979-1">
  <g transform="translate(11.35,4.18)" stroke="#828FC1">
    <path fill="none" d="M-7.6,0 L7.6,0 " class="primitive"/>
  </g>
  <g transform="translate(6.7,6.97)" stroke="#828FC1">
    <path fill="none" d="M-2.95,0 L2.95,0 " class="primitive"/>
  </g>
  <g transform="translate(8.1,9.76)" stroke="#828FC1">
    <path fill="none" d="M-2.01,0 L2.01,0 " class="primitive"/>
  </g>
  <g transform="translate(14.99,12.55)" stroke="#4C596A">
    <path fill="none" d="M-3.1,0 L3.1,0 " class="primitive"/>
  </g>
  <g transform="translate(13.6,15.33)" stroke="#4C596A">
    <path fill="none" d="M-0.51,0 L0.51,0 " class="primitive"/>
  </g>
  <g transform="translate(14.52,18.12)" stroke="#828FC1">
    <path fill="none" d="M-0.61,0 L0.61,0 " class="primitive"/>
  </g>
  <g transform="translate(21.95,20.91)" stroke="#828FC1">
    <path fill="none" d="M-7.25,0 L7.25,0 " class="primitive"/>
  </g>
  <g transform="translate(21.48,23.7)" stroke="#4C596A">
    <path fill="none" d="M-6.25,0 L6.25,0 " class="primitive"/>
  </g>
  <g transform="translate(19.99,26.48)" stroke="#828FC1">
    <path fill="none" d="M-1.47,0 L1.47,0 " class="primitive"/>
  </g>
  <g transform="translate(19.71,29.27)" stroke="#4C596A">
    <path fill="none" d="M-0.04,0 L0.04,0 " class="primitive"/>
  </g>
  <g transform="translate(24.95,32.06)" stroke="#4C596A">
    <path fill="none" d="M-2.37,0 L2.37,0 " class="primitive"/>
  </g>
  <g transform="translate(28.38,34.85)" stroke="#828FC1">
    <path fill="none" d="M-1.24,0 L1.24,0 " class="primitive"/>
  </g>
  <g transform="translate(36.72,37.64)" stroke="#4C596A">
    <path fill="none" d="M-3.34,0 L3.34,0 " class="primitive"/>
  </g>
  <g transform="translate(36.69,40.42)" stroke="#828FC1">
    <path fill="none" d="M-0.51,0 L0.51,0 " class="primitive"/>
  </g>
  <g transform="translate(38.01,43.21)" stroke="#828FC1">
    <path fill="none" d="M-1.41,0 L1.41,0 " class="primitive"/>
  </g>
  <g transform="translate(41.52,46)" stroke="#828FC1">
    <path fill="none" d="M-2.36,0 L2.36,0 " class="primitive"/>
  </g>
  <g transform="translate(42.46,48.79)" stroke="#828FC1">
    <path fill="none" d="M-1.34,0 L1.34,0 " class="primitive"/>
  </g>
  <g transform="translate(43.72,51.58)" stroke="#828FC1">
    <path fill="none" d="M-0.77,0 L0.77,0 " class="primitive"/>
  </g>
  <g transform="translate(49.11,54.36)" stroke="#4C596A">
    <path fill="none" d="M-0.2,0 L0.2,0 " class="primitive"/>
  </g>
  <g transform="translate(55.71,57.15)" stroke="#828FC1">
    <path fill="none" d="M-0.41,0 L0.41,0 " class="primitive"/>
  </g>
  <g transform="translate(59.12,59.94)" stroke="#4C596A">
    <path fill="none" d="M-2.87,0 L2.87,0 " class="primitive"/>
  </g>
  <g transform="translate(62.54,62.73)" stroke="#828FC1">
    <path fill="none" d="M-2.49,0 L2.49,0 " class="primitive"/>
  </g>
  <g transform="translate(61.74,65.52)" stroke="#828FC1">
    <path fill="none" d="M-1.46,0 L1.46,0 " class="primitive"/>
  </g>
  <g transform="translate(62.69,68.3)" stroke="#4C596A">
    <path fill="none" d="M-1.69,0 L1.69,0 " class="primitive"/>
  </g>
  <g transform="translate(63.21,71.09)" stroke="#828FC1">
    <path fill="none" d="M-0.42,0 L0.42,0 " class="primitive"/>
  </g>
  <g transform="translate(67.29,73.88)" stroke="#828FC1">
    <path fill="none" d="M-4.17,0 L4.17,0 " class="primitive"/>
  </g>
  <g transform="translate(66.19,76.67)" stroke="#4C596A">
    <path fill="none" d="M-0.43,0 L0.43,0 " class="primitive"/>
  </g>
  <g transform="translate(74.53,79.45)" stroke="#4C596A">
    <path fill="none" d="M-0.51,0 L0.51,0 " class="primitive"/>
  </g>
  <g transform="translate(75.33,82.24)" stroke="#4C596A">
    <path fill="none" d="M-0.06,0 L0.06,0 " class="primitive"/>
  </g>
  <g transform="translate(78.05,85.03)" stroke="#4C596A">
    <path fill="none" d="M-0.3,0 L0.3,0 " class="primitive"/>
  </g>
  <g transform="translate(78.25,87.82)" stroke="#4C596A">
    <path fill="none" d="M-0.5,0 L0.5,0 " class="primitive"/>
  </g>
  <g transform="translate(76.51,86.42)" stroke="#4C596A">
    <path fill="none" d="M-1.24,0 L1.24,0 " class="primitive"/>
  </g>
  <g transform="translate(77.75,86.42)" stroke="#4C596A">
    <path fill="none" d="M0,1.39 L0,-1.39 " class="primitive"/>
  </g>
  <g transform="translate(74.64,84.33)" stroke="#4C596A">
    <path fill="none" d="M-0.63,0 L0.63,0 " class="primitive"/>
  </g>
  <g transform="translate(75.27,84.33)" stroke="#4C596A">
    <path fill="none" d="M0,2.09 L0,-2.09 " class="primitive"/>
  </g>
  <g transform="translate(69.89,81.89)" stroke="#828FC1">
    <path fill="none" d="M-4.13,0 L4.13,0 " class="primitive"/>
  </g>
  <g transform="translate(74.01,81.89)" stroke="#828FC1">
    <path fill="none" d="M0,2.44 L0,-2.44 " class="primitive"/>
  </g>
  <g transform="translate(64.45,79.28)" stroke="#4C596A">
    <path fill="none" d="M-1.32,0 L1.32,0 " class="primitive"/>
  </g>
  <g transform="translate(65.76,79.28)" stroke="#4C596A">
    <path fill="none" d="M0,2.61 L0,-2.61 " class="primitive"/>
  </g>
  <g transform="translate(62.96,76.58)" stroke="#828FC1">
    <path fill="none" d="M-0.17,0 L0.17,0 " class="primitive"/>
  </g>
  <g transform="translate(63.13,76.58)" stroke="#828FC1">
    <path fill="none" d="M0,2.7 L0,-2.7 " class="primitive"/>
  </g>
  <g transform="translate(61.89,73.84)" stroke="#828FC1">
    <path fill="none" d="M-0.9,0 L0.9,0 " class="primitive"/>
  </g>
  <g transform="translate(62.79,73.84)" stroke="#828FC1">
    <path fill="none" d="M0,2.74 L0,-2.74 " class="primitive"/>
  </g>
  <g transform="translate(60.64,71.07)" stroke="#828FC1">
    <path fill="none" d="M-0.36,0 L0.36,0 " class="primitive"/>
  </g>
  <g transform="translate(61,71.07)" stroke="#828FC1">
    <path fill="none" d="M0,2.77 L0,-2.77 " class="primitive"/>
  </g>
  <g transform="translate(60.16,68.29)" stroke="#828FC1">
    <path fill="none" d="M-0.11,0 L0.11,0 " class="primitive"/>
  </g>
  <g transform="translate(60.27,68.29)" stroke="#828FC1">
    <path fill="none" d="M0,2.78 L0,-2.78 " class="primitive"/>
  </g>
  <g transform="translate(58.16,65.51)" stroke="#4C596A">
    <path fill="none" d="M-1.9,0 L1.9,0 " class="primitive"/>
  </g>
  <g transform="translate(60.05,65.51)" stroke="#4C596A">
    <path fill="none" d="M0,2.78 L0,-2.78 " class="primitive"/>
  </g>
  <g transform="translate(55.78,62.72)" stroke="#4C596A">
    <path fill="none" d="M-0.48,0 L0.48,0 " class="primitive"/>
  </g>
  <g transform="translate(56.26,62.72)" stroke="#4C596A">
    <path fill="none" d="M0,2.79 L0,-2.79 " class="primitive"/>
  </g>
  <g stroke-opacity="1" stroke-width="0.3" id="img-29b4c979-2">
    <g transform="translate(56.26,62.72)" stroke="#4C596A">
      <path fill="none" d="M0,2.79 L0,-2.79 " class="primitive"/>
    </g>
    <g transform="translate(52.1,59.94)" stroke="#4C596A">
      <path fill="none" d="M-3.19,0 L3.19,0 " class="primitive"/>
    </g>
    <g transform="translate(55.29,59.94)" stroke="#4C596A">
      <path fill="none" d="M0,2.79 L0,-2.79 " class="primitive"/>
    </g>
    <g transform="translate(45.93,57.15)" stroke="#4C596A">
      <path fill="none" d="M-2.98,0 L2.98,0 " class="primitive"/>
    </g>
    <g transform="translate(48.91,57.15)" stroke="#4C596A">
      <path fill="none" d="M0,2.79 L0,-2.79 " class="primitive"/>
    </g>
    <g transform="translate(42.04,54.36)" stroke="#4C596A">
      <path fill="none" d="M-0.92,0 L0.92,0 " class="primitive"/>
    </g>
    <g transform="translate(42.96,54.36)" stroke="#4C596A">
      <path fill="none" d="M0,2.79 L0,-2.79 " class="primitive"/>
    </g>
    <g transform="translate(40.14,51.58)" stroke="#4C596A">
      <path fill="none" d="M-0.98,0 L0.98,0 " class="primitive"/>
    </g>
    <g transform="translate(41.12,51.58)" stroke="#4C596A">
      <path fill="none" d="M0,2.79 L0,-2.79 " class="primitive"/>
    </g>
    <g transform="translate(37.88,48.79)" stroke="#828FC1">
      <path fill="none" d="M-1.28,0 L1.28,0 " class="primitive"/>
    </g>
    <g transform="translate(39.16,48.79)" stroke="#828FC1">
      <path fill="none" d="M0,2.79 L0,-2.79 " class="primitive"/>
    </g>
    <g transform="translate(36.39,46)" stroke="#4C596A">
      <path fill="none" d="M-0.21,0 L0.21,0 " class="primitive"/>
    </g>
    <g transform="translate(36.6,46)" stroke="#4C596A">
      <path fill="none" d="M0,2.79 L0,-2.79 " class="primitive"/>
    </g>
    <g transform="translate(34.78,43.21)" stroke="#4C596A">
      <path fill="none" d="M-1.41,0 L1.41,0 " class="primitive"/>
    </g>
    <g transform="translate(36.19,43.21)" stroke="#4C596A">
      <path fill="none" d="M0,2.79 L0,-2.79 " class="primitive"/>
    </g>
    <g transform="translate(30.26,40.42)" stroke="#4C596A">
      <path fill="none" d="M-3.12,0 L3.12,0 " class="primitive"/>
    </g>
    <g transform="translate(33.38,40.42)" stroke="#4C596A">
      <path fill="none" d="M0,2.79 L0,-2.79 " class="primitive"/>
    </g>
    <g transform="translate(24.86,37.64)" stroke="#828FC1">
      <path fill="none" d="M-2.28,0 L2.28,0 " class="primitive"/>
    </g>
    <g transform="translate(27.14,37.64)" stroke="#828FC1">
      <path fill="none" d="M0,2.79 L0,-2.79 " class="primitive"/>
    </g>
    <g transform="translate(21.12,34.85)" stroke="#828FC1">
      <path fill="none" d="M-1.46,0 L1.46,0 " class="primitive"/>
    </g>
    <g transform="translate(22.58,34.85)" stroke="#828FC1">
      <path fill="none" d="M0,2.79 L0,-2.79 " class="primitive"/>
    </g>
    <g transform="translate(19.09,32.06)" stroke="#828FC1">
      <path fill="none" d="M-0.57,0 L0.57,0 " class="primitive"/>
    </g>
    <g transform="translate(19.67,32.06)" stroke="#828FC1">
      <path fill="none" d="M0,2.79 L0,-2.79 " class="primitive"/>
    </g>
    <g transform="translate(16.88,29.27)" stroke="#4C596A">
      <path fill="none" d="M-1.64,0 L1.64,0 " class="primitive"/>
    </g>
    <g transform="translate(18.52,29.27)" stroke="#4C596A">
      <path fill="none" d="M0,2.79 L0,-2.79 " class="primitive"/>
    </g>
    <g transform="translate(14.97,26.48)" stroke="#4C596A">
      <path fill="none" d="M-0.27,0 L0.27,0 " class="primitive"/>
    </g>
    <g transform="translate(15.23,26.48)" stroke="#4C596A">
      <path fill="none" d="M0,2.79 L0,-2.79 " class="primitive"/>
    </g>
    <g transform="translate(14.31,23.7)" stroke="#828FC1">
      <path fill="none" d="M-0.39,0 L0.39,0 " class="primitive"/>
    </g>
    <g transform="translate(14.7,23.7)" stroke="#828FC1">
      <path fill="none" d="M0,2.79 L0,-2.79 " class="primitive"/>
    </g>
    <g transform="translate(13.51,20.91)" stroke="#4C596A">
      <path fill="none" d="M-0.41,0 L0.41,0 " class="primitive"/>
    </g>
    <g transform="translate(13.92,20.91)" stroke="#4C596A">
      <path fill="none" d="M0,2.79 L0,-2.79 " class="primitive"/>
    </g>
    <g transform="translate(12.49,18.12)" stroke="#828FC1">
      <path fill="none" d="M-0.6,0 L0.6,0 " class="primitive"/>
    </g>
    <g transform="translate(13.09,18.12)" stroke="#828FC1">
      <path fill="none" d="M0,2.79 L0,-2.79 " class="primitive"/>
    </g>
    <g transform="translate(8.99,15.33)" stroke="#4C596A">
      <path fill="none" d="M-2.9,0 L2.9,0 " class="primitive"/>
    </g>
    <g transform="translate(11.89,15.33)" stroke="#4C596A">
      <path fill="none" d="M0,2.79 L0,-2.79 " class="primitive"/>
    </g>
    <g transform="translate(4.92,12.55)" stroke="#4C596A">
      <path fill="none" d="M-1.17,0 L1.17,0 " class="primitive"/>
    </g>
    <g transform="translate(6.09,12.55)" stroke="#4C596A">
      <path fill="none" d="M0,2.79 L0,-2.79 " class="primitive"/>
    </g>
    <g transform="translate(3.75,9.76)" stroke="#000000">
      <path fill="none" d="M0,0 L0,0 " class="primitive"/>
    </g>
    <g transform="translate(3.75,9.76)" stroke="#000000">
      <path fill="none" d="M0,2.79 L0,-2.79 " class="primitive"/>
    </g>
    <g transform="translate(3.75,6.97)" stroke="#000000">
      <path fill="none" d="M0,0 L0,0 " class="primitive"/>
    </g>
    <g transform="translate(3.75,6.97)" stroke="#000000">
      <path fill="none" d="M0,2.79 L0,-2.79 " class="primitive"/>
    </g>
  </g>
</g>
<g fill-opacity="1" id="img-29b4c979-3">
  <g transform="translate(18.95,4.18)" fill="#828FC1">
    <circle cx="0" cy="0" r="0.75" class="primitive"/>
  </g>
  <g transform="translate(9.64,6.97)" fill="#828FC1">
    <circle cx="0" cy="0" r="0.75" class="primitive"/>
  </g>
  <g transform="translate(10.11,9.76)" fill="#828FC1">
    <circle cx="0" cy="0" r="0.75" class="primitive"/>
  </g>
  <g transform="translate(18.09,12.55)" fill="#4C596A">
    <circle cx="0" cy="0" r="0.75" class="primitive"/>
  </g>
  <g transform="translate(14.11,15.33)" fill="#4C596A">
    <circle cx="0" cy="0" r="0.75" class="primitive"/>
  </g>
  <g transform="translate(15.13,18.12)" fill="#828FC1">
    <circle cx="0" cy="0" r="0.75" class="primitive"/>
  </g>
  <g transform="translate(29.19,20.91)" fill="#828FC1">
    <circle cx="0" cy="0" r="0.75" class="primitive"/>
  </g>
  <g transform="translate(27.73,23.7)" fill="#4C596A">
    <circle cx="0" cy="0" r="0.75" class="primitive"/>
  </g>
  <g transform="translate(21.47,26.48)" fill="#828FC1">
    <circle cx="0" cy="0" r="0.75" class="primitive"/>
  </g>
  <g transform="translate(19.75,29.27)" fill="#4C596A">
    <circle cx="0" cy="0" r="0.75" class="primitive"/>
  </g>
  <g transform="translate(27.31,32.06)" fill="#4C596A">
    <circle cx="0" cy="0" r="0.75" class="primitive"/>
  </g>
  <g transform="translate(29.62,34.85)" fill="#828FC1">
    <circle cx="0" cy="0" r="0.75" class="primitive"/>
  </g>
  <g transform="translate(40.06,37.64)" fill="#4C596A">
    <circle cx="0" cy="0" r="0.75" class="primitive"/>
  </g>
  <g transform="translate(37.2,40.42)" fill="#828FC1">
    <circle cx="0" cy="0" r="0.75" class="primitive"/>
  </g>
  <g transform="translate(39.42,43.21)" fill="#828FC1">
    <circle cx="0" cy="0" r="0.75" class="primitive"/>
  </g>
  <g transform="translate(43.88,46)" fill="#828FC1">
    <circle cx="0" cy="0" r="0.75" class="primitive"/>
  </g>
  <g transform="translate(43.8,48.79)" fill="#828FC1">
    <circle cx="0" cy="0" r="0.75" class="primitive"/>
  </g>
  <g transform="translate(44.49,51.58)" fill="#828FC1">
    <circle cx="0" cy="0" r="0.75" class="primitive"/>
  </g>
  <g transform="translate(49.31,54.36)" fill="#4C596A">
    <circle cx="0" cy="0" r="0.75" class="primitive"/>
  </g>
  <g transform="translate(56.12,57.15)" fill="#828FC1">
    <circle cx="0" cy="0" r="0.75" class="primitive"/>
  </g>
  <g transform="translate(61.99,59.94)" fill="#4C596A">
    <circle cx="0" cy="0" r="0.75" class="primitive"/>
  </g>
  <g transform="translate(65.03,62.73)" fill="#828FC1">
    <circle cx="0" cy="0" r="0.75" class="primitive"/>
  </g>
  <g transform="translate(63.2,65.52)" fill="#828FC1">
    <circle cx="0" cy="0" r="0.75" class="primitive"/>
  </g>
  <g transform="translate(64.37,68.3)" fill="#4C596A">
    <circle cx="0" cy="0" r="0.75" class="primitive"/>
  </g>
  <g transform="translate(63.62,71.09)" fill="#828FC1">
    <circle cx="0" cy="0" r="0.75" class="primitive"/>
  </g>
  <g transform="translate(71.46,73.88)" fill="#828FC1">
    <circle cx="0" cy="0" r="0.75" class="primitive"/>
  </g>
  <g transform="translate(66.62,76.67)" fill="#4C596A">
    <circle cx="0" cy="0" r="0.75" class="primitive"/>
  </g>
  <g transform="translate(75.04,79.45)" fill="#4C596A">
    <circle cx="0" cy="0" r="0.75" class="primitive"/>
  </g>
  <g transform="translate(75.39,82.24)" fill="#4C596A">
    <circle cx="0" cy="0" r="0.75" class="primitive"/>
  </g>
  <g transform="translate(78.36,85.03)" fill="#4C596A">
    <circle cx="0" cy="0" r="0.75" class="primitive"/>
  </g>
  <g transform="translate(78.75,87.82)" fill="#4C596A">
    <circle cx="0" cy="0" r="0.75" class="primitive"/>
  </g>
  <g transform="translate(77.75,86.42)" fill="#4C596A">
    <circle cx="0" cy="0" r="0.75" class="primitive"/>
  </g>
  <g transform="translate(75.27,84.33)" fill="#4C596A">
    <circle cx="0" cy="0" r="0.75" class="primitive"/>
  </g>
  <g transform="translate(74.01,81.89)" fill="#828FC1">
    <circle cx="0" cy="0" r="0.75" class="primitive"/>
  </g>
  <g transform="translate(65.76,79.28)" fill="#4C596A">
    <circle cx="0" cy="0" r="0.75" class="primitive"/>
  </g>
  <g transform="translate(63.13,76.58)" fill="#828FC1">
    <circle cx="0" cy="0" r="0.75" class="primitive"/>
  </g>
  <g transform="translate(62.79,73.84)" fill="#828FC1">
    <circle cx="0" cy="0" r="0.75" class="primitive"/>
  </g>
  <g transform="translate(61,71.07)" fill="#828FC1">
    <circle cx="0" cy="0" r="0.75" class="primitive"/>
  </g>
  <g transform="translate(60.27,68.29)" fill="#828FC1">
    <circle cx="0" cy="0" r="0.75" class="primitive"/>
  </g>
  <g transform="translate(60.05,65.51)" fill="#4C596A">
    <circle cx="0" cy="0" r="0.75" class="primitive"/>
  </g>
  <g transform="translate(56.26,62.72)" fill="#4C596A">
    <circle cx="0" cy="0" r="0.75" class="primitive"/>
  </g>
  <g transform="translate(55.29,59.94)" fill="#4C596A">
    <circle cx="0" cy="0" r="0.75" class="primitive"/>
  </g>
  <g transform="translate(48.91,57.15)" fill="#4C596A">
    <circle cx="0" cy="0" r="0.75" class="primitive"/>
  </g>
  <g transform="translate(42.96,54.36)" fill="#4C596A">
    <circle cx="0" cy="0" r="0.75" class="primitive"/>
  </g>
  <g transform="translate(41.12,51.58)" fill="#4C596A">
    <circle cx="0" cy="0" r="0.75" class="primitive"/>
  </g>
  <g transform="translate(39.16,48.79)" fill="#828FC1">
    <circle cx="0" cy="0" r="0.75" class="primitive"/>
  </g>
  <g transform="translate(36.6,46)" fill="#4C596A">
    <circle cx="0" cy="0" r="0.75" class="primitive"/>
  </g>
  <g transform="translate(36.19,43.21)" fill="#4C596A">
    <circle cx="0" cy="0" r="0.75" class="primitive"/>
  </g>
  <g transform="translate(33.38,40.42)" fill="#4C596A">
    <circle cx="0" cy="0" r="0.75" class="primitive"/>
  </g>
  <g transform="translate(27.14,37.64)" fill="#828FC1">
    <circle cx="0" cy="0" r="0.75" class="primitive"/>
  </g>
  <g transform="translate(22.58,34.85)" fill="#828FC1">
    <circle cx="0" cy="0" r="0.75" class="primitive"/>
  </g>
  <g fill-opacity="1" id="img-29b4c979-4">
    <g transform="translate(22.58,34.85)" fill="#828FC1">
      <circle cx="0" cy="0" r="0.75" class="primitive"/>
    </g>
    <g transform="translate(19.67,32.06)" fill="#828FC1">
      <circle cx="0" cy="0" r="0.75" class="primitive"/>
    </g>
    <g transform="translate(18.52,29.27)" fill="#4C596A">
      <circle cx="0" cy="0" r="0.75" class="primitive"/>
    </g>
    <g transform="translate(15.23,26.48)" fill="#4C596A">
      <circle cx="0" cy="0" r="0.75" class="primitive"/>
    </g>
    <g transform="translate(14.7,23.7)" fill="#828FC1">
      <circle cx="0" cy="0" r="0.75" class="primitive"/>
    </g>
    <g transform="translate(13.92,20.91)" fill="#4C596A">
      <circle cx="0" cy="0" r="0.75" class="primitive"/>
    </g>
    <g transform="translate(13.09,18.12)" fill="#828FC1">
      <circle cx="0" cy="0" r="0.75" class="primitive"/>
    </g>
    <g transform="translate(11.89,15.33)" fill="#4C596A">
      <circle cx="0" cy="0" r="0.75" class="primitive"/>
    </g>
    <g transform="translate(6.09,12.55)" fill="#4C596A">
      <circle cx="0" cy="0" r="0.75" class="primitive"/>
    </g>
    <g transform="translate(3.75,9.76)" fill="#000000">
      <circle cx="0" cy="0" r="0.75" class="primitive"/>
    </g>
    <g transform="translate(3.75,6.97)" fill="#000000">
      <circle cx="0" cy="0" r="0.75" class="primitive"/>
    </g>
  </g>
</g>
<g stroke-opacity="1" fill-opacity="1" font-size="1.41" stroke-width="0.1" id="img-29b4c979-5">
  <g transform="translate(20.82,4.18)" stroke="#000000">
    <g class="primitive">
      <text dy="0.35em">N30</text>
    </g>
  </g>
  <g transform="translate(11.52,6.97)" stroke="#000000">
    <g class="primitive">
      <text dy="0.35em">N29</text>
    </g>
  </g>
  <g transform="translate(11.99,9.76)" stroke="#000000">
    <g class="primitive">
      <text dy="0.35em">N28</text>
    </g>
  </g>
  <g transform="translate(19.97,12.55)" stroke="#000000">
    <g class="primitive">
      <text dy="0.35em">N27</text>
    </g>
  </g>
  <g transform="translate(15.99,15.33)" stroke="#000000">
    <g class="primitive">
      <text dy="0.35em">N26</text>
    </g>
  </g>
  <g transform="translate(17.01,18.12)" stroke="#000000">
    <g class="primitive">
      <text dy="0.35em">N25</text>
    </g>
  </g>
  <g transform="translate(31.07,20.91)" stroke="#000000">
    <g class="primitive">
      <text dy="0.35em">N24</text>
    </g>
  </g>
  <g transform="translate(29.61,23.7)" stroke="#000000">
    <g class="primitive">
      <text dy="0.35em">N23</text>
    </g>
  </g>
  <g transform="translate(23.34,26.48)" stroke="#000000">
    <g class="primitive">
      <text dy="0.35em">N22</text>
    </g>
  </g>
  <g transform="translate(21.63,29.27)" stroke="#000000">
    <g class="primitive">
      <text dy="0.35em">N21</text>
    </g>
  </g>
  <g transform="translate(29.19,32.06)" stroke="#000000">
    <g class="primitive">
      <text dy="0.35em">N20</text>
    </g>
  </g>
  <g transform="translate(31.5,34.85)" stroke="#000000">
    <g class="primitive">
      <text dy="0.35em">N19</text>
    </g>
  </g>
  <g transform="translate(41.94,37.64)" stroke="#000000">
    <g class="primitive">
      <text dy="0.35em">N18</text>
    </g>
  </g>
  <g transform="translate(39.07,40.42)" stroke="#000000">
    <g class="primitive">
      <text dy="0.35em">N17</text>
    </g>
  </g>
  <g transform="translate(41.29,43.21)" stroke="#000000">
    <g class="primitive">
      <text dy="0.35em">N16</text>
    </g>
  </g>
  <g transform="translate(45.75,46)" stroke="#000000">
    <g class="primitive">
      <text dy="0.35em">N15</text>
    </g>
  </g>
  <g transform="translate(45.68,48.79)" stroke="#000000">
    <g class="primitive">
      <text dy="0.35em">N14</text>
    </g>
  </g>
  <g transform="translate(46.36,51.58)" stroke="#000000">
    <g class="primitive">
      <text dy="0.35em">N13</text>
    </g>
  </g>
  <g transform="translate(51.19,54.36)" stroke="#000000">
    <g class="primitive">
      <text dy="0.35em">N12</text>
    </g>
  </g>
  <g transform="translate(58,57.15)" stroke="#000000">
    <g class="primitive">
      <text dy="0.35em">N11</text>
    </g>
  </g>
  <g transform="translate(63.86,59.94)" stroke="#000000">
    <g class="primitive">
      <text dy="0.35em">N10</text>
    </g>
  </g>
  <g transform="translate(66.9,62.73)" stroke="#000000">
    <g class="primitive">
      <text dy="0.35em">N9</text>
    </g>
  </g>
  <g transform="translate(65.07,65.52)" stroke="#000000">
    <g class="primitive">
      <text dy="0.35em">N8</text>
    </g>
  </g>
  <g transform="translate(66.25,68.3)" stroke="#000000">
    <g class="primitive">
      <text dy="0.35em">N7</text>
    </g>
  </g>
  <g transform="translate(65.5,71.09)" stroke="#000000">
    <g class="primitive">
      <text dy="0.35em">N6</text>
    </g>
  </g>
  <g transform="translate(73.34,73.88)" stroke="#000000">
    <g class="primitive">
      <text dy="0.35em">N5</text>
    </g>
  </g>
  <g transform="translate(68.5,76.67)" stroke="#000000">
    <g class="primitive">
      <text dy="0.35em">N4</text>
    </g>
  </g>
  <g transform="translate(76.91,79.45)" stroke="#000000">
    <g class="primitive">
      <text dy="0.35em">N3</text>
    </g>
  </g>
  <g transform="translate(77.26,82.24)" stroke="#000000">
    <g class="primitive">
      <text dy="0.35em">N2</text>
    </g>
  </g>
  <g transform="translate(80.23,85.03)" stroke="#000000">
    <g class="primitive">
      <text dy="0.35em">N0</text>
    </g>
  </g>
  <g transform="translate(80.62,87.82)" stroke="#000000">
    <g class="primitive">
      <text dy="0.35em">N1</text>
    </g>
  </g>
  <g transform="translate(79.62,86.42)" stroke="#000000">
    <g class="primitive">
      <text dy="0.35em">N31</text>
    </g>
  </g>
  <g transform="translate(77.15,84.33)" stroke="#000000">
    <g class="primitive">
      <text dy="0.35em">N32</text>
    </g>
  </g>
  <g transform="translate(75.89,81.89)" stroke="#000000">
    <g class="primitive">
      <text dy="0.35em">N33</text>
    </g>
  </g>
  <g transform="translate(67.64,79.28)" stroke="#000000">
    <g class="primitive">
      <text dy="0.35em">N34</text>
    </g>
  </g>
  <g transform="translate(65,76.58)" stroke="#000000">
    <g class="primitive">
      <text dy="0.35em">N35</text>
    </g>
  </g>
  <g transform="translate(64.67,73.84)" stroke="#000000">
    <g class="primitive">
      <text dy="0.35em">N36</text>
    </g>
  </g>
  <g transform="translate(62.87,71.07)" stroke="#000000">
    <g class="primitive">
      <text dy="0.35em">N37</text>
    </g>
  </g>
  <g transform="translate(62.15,68.29)" stroke="#000000">
    <g class="primitive">
      <text dy="0.35em">N38</text>
    </g>
  </g>
  <g transform="translate(61.93,65.51)" stroke="#000000">
    <g class="primitive">
      <text dy="0.35em">N39</text>
    </g>
  </g>
  <g transform="translate(58.13,62.72)" stroke="#000000">
    <g class="primitive">
      <text dy="0.35em">N40</text>
    </g>
  </g>
  <g transform="translate(57.17,59.94)" stroke="#000000">
    <g class="primitive">
      <text dy="0.35em">N41</text>
    </g>
  </g>
  <g transform="translate(50.78,57.15)" stroke="#000000">
    <g class="primitive">
      <text dy="0.35em">N42</text>
    </g>
  </g>
  <g transform="translate(44.83,54.36)" stroke="#000000">
    <g class="primitive">
      <text dy="0.35em">N43</text>
    </g>
  </g>
  <g transform="translate(43,51.58)" stroke="#000000">
    <g class="primitive">
      <text dy="0.35em">N44</text>
    </g>
  </g>
  <g transform="translate(41.03,48.79)" stroke="#000000">
    <g class="primitive">
      <text dy="0.35em">N45</text>
    </g>
  </g>
  <g transform="translate(38.47,46)" stroke="#000000">
    <g class="primitive">
      <text dy="0.35em">N46</text>
    </g>
  </g>
  <g transform="translate(38.06,43.21)" stroke="#000000">
    <g class="primitive">
      <text dy="0.35em">N47</text>
    </g>
  </g>
  <g transform="translate(35.25,40.42)" stroke="#000000">
    <g class="primitive">
      <text dy="0.35em">N48</text>
    </g>
  </g>
  <g transform="translate(29.01,37.64)" stroke="#000000">
    <g class="primitive">
      <text dy="0.35em">N49</text>
    </g>
  </g>
  <g transform="translate(24.45,34.85)" stroke="#000000">
    <g class="primitive">
      <text dy="0.35em">N50</text>
    </g>
  </g>
  <g stroke-opacity="1" fill-opacity="1" font-size="1.41" stroke-width="0.1" id="img-29b4c979-6">
    <g transform="translate(24.45,34.85)" stroke="#000000">
      <g class="primitive">
        <text dy="0.35em">N50</text>
      </g>
    </g>
    <g transform="translate(21.54,32.06)" stroke="#000000">
      <g class="primitive">
        <text dy="0.35em">N51</text>
      </g>
    </g>
    <g transform="translate(20.39,29.27)" stroke="#000000">
      <g class="primitive">
        <text dy="0.35em">N52</text>
      </g>
    </g>
    <g transform="translate(17.11,26.48)" stroke="#000000">
      <g class="primitive">
        <text dy="0.35em">N53</text>
      </g>
    </g>
    <g transform="translate(16.57,23.7)" stroke="#000000">
      <g class="primitive">
        <text dy="0.35em">N54</text>
      </g>
    </g>
    <g transform="translate(15.79,20.91)" stroke="#000000">
      <g class="primitive">
        <text dy="0.35em">N55</text>
      </g>
    </g>
    <g transform="translate(14.97,18.12)" stroke="#000000">
      <g class="primitive">
        <text dy="0.35em">N56</text>
      </g>
    </g>
    <g transform="translate(13.77,15.33)" stroke="#000000">
      <g class="primitive">
        <text dy="0.35em">N57</text>
      </g>
    </g>
    <g transform="translate(7.97,12.55)" stroke="#000000">
      <g class="primitive">
        <text dy="0.35em">N58</text>
      </g>
    </g>
    <g transform="translate(5.63,9.76)" stroke="#000000">
      <g class="primitive">
        <text dy="0.35em"></text>
      </g>
    </g>
    <g transform="translate(5.63,6.97)" stroke="#000000">
      <g class="primitive">
        <text dy="0.35em"></text>
      </g>
    </g>
  </g>
</g>
</svg>
