<?xml version="1.0" encoding="UTF-8"?>
<svg xmlns="http://www.w3.org/2000/svg"
     xmlns:xlink="http://www.w3.org/1999/xlink"
     version="1.2"
     width="150mm" height="82mm" viewBox="0 0 150 82"
     stroke="none"
     fill="#000000"
     stroke-width="0.3"
     font-size="3.88"
>
<defs>
  <marker id="arrow" markerWidth="15" markerHeight="7" refX="5" refY="3.5" orient="auto" markerUnits="strokeWidth">
    <path d="M0,0 L15,3.5 L0,7 z" stroke="context-stroke" fill="context-stroke"/>
  </marker>
</defs>
<g stroke-opacity="1" stroke-width="0.3" id="img-29b4c979-1">
  <g transform="translate(7.25,3.73)" stroke="#24FB22">
    <path fill="none" d="M-3.33,0 L3.33,0 " class="primitive"/>
  </g>
  <g transform="translate(6.01,6.71)" stroke="#24FB22">
    <path fill="none" d="M-1.33,0 L1.33,0 " class="primitive"/>
  </g>
  <g transform="translate(6.52,9.69)" stroke="#24FB22">
    <path fill="none" d="M-1.84,0 L1.84,0 " class="primitive"/>
  </g>
  <g transform="translate(4.3,8.2)" stroke="#24FB22">
    <path fill="none" d="M-0.37,0 L0.37,0 " class="primitive"/>
  </g>
  <g transform="translate(4.68,8.2)" stroke="#24FB22">
    <path fill="none" d="M0,1.49 L0,-1.49 " class="primitive"/>
  </g>
  <g transform="translate(3.84,5.96)" stroke="#24FB22">
    <path fill="none" d="M-0.09,0 L0.09,0 " class="primitive"/>
  </g>
  <g transform="translate(3.93,5.96)" stroke="#24FB22">
    <path fill="none" d="M0,2.24 L0,-2.24 " class="primitive"/>
  </g>
  <g transform="translate(36.14,12.67)" stroke="#390FF6">
    <path fill="none" d="M-24.8,0 L24.8,0 " class="primitive"/>
  </g>
  <g transform="translate(46.1,15.65)" stroke="#24FB22">
    <path fill="none" d="M-7.57,0 L7.57,0 " class="primitive"/>
  </g>
  <g transform="translate(38.78,18.64)" stroke="#24FB22">
    <path fill="none" d="M-0.25,0 L0.25,0 " class="primitive"/>
  </g>
  <g transform="translate(29.35,17.15)" stroke="#24FB22">
    <path fill="none" d="M-9.18,0 L9.18,0 " class="primitive"/>
  </g>
  <g transform="translate(38.53,17.15)" stroke="#24FB22">
    <path fill="none" d="M0,1.49 L0,-1.49 " class="primitive"/>
  </g>
  <g transform="translate(31.28,21.62)" stroke="#24FB22">
    <path fill="none" d="M-2.11,0 L2.11,0 " class="primitive"/>
  </g>
  <g transform="translate(34.26,24.6)" stroke="#24FB22">
    <path fill="none" d="M-5.08,0 L5.08,0 " class="primitive"/>
  </g>
  <g transform="translate(28.49,23.11)" stroke="#24FB22">
    <path fill="none" d="M-0.68,0 L0.68,0 " class="primitive"/>
  </g>
  <g transform="translate(29.17,23.11)" stroke="#24FB22">
    <path fill="none" d="M0,1.49 L0,-1.49 " class="primitive"/>
  </g>
  <g transform="translate(33.25,27.58)" stroke="#24FB22">
    <path fill="none" d="M-3.28,0 L3.28,0 " class="primitive"/>
  </g>
  <g transform="translate(46.04,30.56)" stroke="#24FB22">
    <path fill="none" d="M-16.07,0 L16.07,0 " class="primitive"/>
  </g>
  <g transform="translate(28.89,29.07)" stroke="#390FF6">
    <path fill="none" d="M-1.08,0 L1.08,0 " class="primitive"/>
  </g>
  <g transform="translate(29.97,29.07)" stroke="#390FF6">
    <path fill="none" d="M0,1.49 L0,-1.49 " class="primitive"/>
  </g>
  <g transform="translate(23.99,26.09)" stroke="#24FB22">
    <path fill="none" d="M-3.81,0 L3.81,0 " class="primitive"/>
  </g>
  <g transform="translate(27.81,26.09)" stroke="#24FB22">
    <path fill="none" d="M0,2.98 L0,-2.98 " class="primitive"/>
  </g>
  <g transform="translate(15.76,21.62)" stroke="#24FB22">
    <path fill="none" d="M-4.42,0 L4.42,0 " class="primitive"/>
  </g>
  <g transform="translate(20.18,21.62)" stroke="#24FB22">
    <path fill="none" d="M0,4.47 L0,-4.47 " class="primitive"/>
  </g>
  <g transform="translate(7.55,17.15)" stroke="#24FB22">
    <path fill="none" d="M-3.8,0 L3.8,0 " class="primitive"/>
  </g>
  <g transform="translate(11.34,17.15)" stroke="#24FB22">
    <path fill="none" d="M0,4.47 L0,-4.47 " class="primitive"/>
  </g>
  <g transform="translate(3.75,11.55)" stroke="#000000">
    <path fill="none" d="M0,0 L0,0 " class="primitive"/>
  </g>
  <g transform="translate(3.75,11.55)" stroke="#000000">
    <path fill="none" d="M0,5.59 L0,-5.59 " class="primitive"/>
  </g>
  <g transform="translate(39.22,33.55)" stroke="#24FB22">
    <path fill="none" d="M-1.93,0 L1.93,0 " class="primitive"/>
  </g>
  <g transform="translate(63.5,36.53)" stroke="#24FB22">
    <path fill="none" d="M-3.44,0 L3.44,0 " class="primitive"/>
  </g>
  <g transform="translate(69.4,39.51)" stroke="#24FB22">
    <path fill="none" d="M-9.35,0 L9.35,0 " class="primitive"/>
  </g>
  <g transform="translate(48.67,38.02)" stroke="#24FB22">
    <path fill="none" d="M-11.39,0 L11.39,0 " class="primitive"/>
  </g>
  <g transform="translate(60.06,38.02)" stroke="#24FB22">
    <path fill="none" d="M0,1.49 L0,-1.49 " class="primitive"/>
  </g>
  <g transform="translate(22.72,35.78)" stroke="#24FB22">
    <path fill="none" d="M-14.56,0 L14.56,0 " class="primitive"/>
  </g>
  <g transform="translate(37.28,35.78)" stroke="#24FB22">
    <path fill="none" d="M0,2.24 L0,-2.24 " class="primitive"/>
  </g>
  <g transform="translate(35.71,42.49)" stroke="#24FB22">
    <path fill="none" d="M-14,0 L14,0 " class="primitive"/>
  </g>
  <g transform="translate(34.62,45.47)" stroke="#24FB22">
    <path fill="none" d="M-1.71,0 L1.71,0 " class="primitive"/>
  </g>
  <g transform="translate(33.43,48.45)" stroke="#24FB22">
    <path fill="none" d="M-0.52,0 L0.52,0 " class="primitive"/>
  </g>
  <g transform="translate(27.31,46.96)" stroke="#390FF6">
    <path fill="none" d="M-5.6,0 L5.6,0 " class="primitive"/>
  </g>
  <g transform="translate(32.91,46.96)" stroke="#390FF6">
    <path fill="none" d="M0,1.49 L0,-1.49 " class="primitive"/>
  </g>
  <g transform="translate(14.94,44.73)" stroke="#390FF6">
    <path fill="none" d="M-6.78,0 L6.78,0 " class="primitive"/>
  </g>
  <g transform="translate(21.71,44.73)" stroke="#390FF6">
    <path fill="none" d="M0,2.24 L0,-2.24 " class="primitive"/>
  </g>
  <g transform="translate(7.87,40.25)" stroke="#24FB22">
    <path fill="none" d="M-0.28,0 L0.28,0 " class="primitive"/>
  </g>
  <g transform="translate(8.16,40.25)" stroke="#24FB22">
    <path fill="none" d="M0,4.47 L0,-4.47 " class="primitive"/>
  </g>
  <g transform="translate(22.25,51.44)" stroke="#24FB22">
    <path fill="none" d="M-3.08,0 L3.08,0 " class="primitive"/>
  </g>
  <g transform="translate(37.97,54.42)" stroke="#24FB22">
    <path fill="none" d="M-16.24,0 L16.24,0 " class="primitive"/>
  </g>
  <g transform="translate(22.84,57.4)" stroke="#24FB22">
    <path fill="none" d="M-1.12,0 L1.12,0 " class="primitive"/>
  </g>
  <g transform="translate(20.45,55.91)" stroke="#24FB22">
    <path fill="none" d="M-1.28,0 L1.28,0 " class="primitive"/>
  </g>
  <g transform="translate(21.73,55.91)" stroke="#24FB22">
    <path fill="none" d="M0,1.49 L0,-1.49 " class="primitive"/>
  </g>
  <g transform="translate(17.51,53.67)" stroke="#24FB22">
    <path fill="none" d="M-1.66,0 L1.66,0 " class="primitive"/>
  </g>
  <g transform="translate(19.18,53.67)" stroke="#24FB22">
    <path fill="none" d="M0,2.24 L0,-2.24 " class="primitive"/>
  </g>
  <g stroke-opacity="1" stroke-width="0.3" id="img-29b4c979-2">
    <g transform="translate(19.18,53.67)" stroke="#24FB22">
      <path fill="none" d="M0,2.24 L0,-2.24 " class="primitive"/>
    </g>
    <g transform="translate(33.29,60.38)" stroke="#24FB22">
      <path fill="none" d="M-7.35,0 L7.35,0 " class="primitive"/>
    </g>
    <g transform="translate(37.92,63.36)" stroke="#24FB22">
      <path fill="none" d="M-1.43,0 L1.43,0 " class="primitive"/>
    </g>
    <g transform="translate(50.03,66.35)" stroke="#24FB22">
      <path fill="none" d="M-13.54,0 L13.54,0 " class="primitive"/>
    </g>
    <g transform="translate(35.95,64.85)" stroke="#24FB22">
      <path fill="none" d="M-0.54,0 L0.54,0 " class="primitive"/>
    </g>
    <g transform="translate(36.49,64.85)" stroke="#24FB22">
      <path fill="none" d="M0,1.49 L0,-1.49 " class="primitive"/>
    </g>
    <g transform="translate(48.28,69.33)" stroke="#24FB22">
      <path fill="none" d="M-12.6,0 L12.6,0 " class="primitive"/>
    </g>
    <g transform="translate(46.9,72.31)" stroke="#24FB22">
      <path fill="none" d="M-4.95,0 L4.95,0 " class="primitive"/>
    </g>
    <g transform="translate(56.04,75.29)" stroke="#24FB22">
      <path fill="none" d="M-10.69,0 L10.69,0 " class="primitive"/>
    </g>
    <g transform="translate(52.3,78.27)" stroke="#390FF6">
      <path fill="none" d="M-6.95,0 L6.95,0 " class="primitive"/>
    </g>
    <g transform="translate(43.65,76.78)" stroke="#24FB22">
      <path fill="none" d="M-1.7,0 L1.7,0 " class="primitive"/>
    </g>
    <g transform="translate(45.35,76.78)" stroke="#24FB22">
      <path fill="none" d="M0,1.49 L0,-1.49 " class="primitive"/>
    </g>
    <g transform="translate(38.82,74.55)" stroke="#24FB22">
      <path fill="none" d="M-3.14,0 L3.14,0 " class="primitive"/>
    </g>
    <g transform="translate(41.95,74.55)" stroke="#24FB22">
      <path fill="none" d="M0,2.24 L0,-2.24 " class="primitive"/>
    </g>
    <g transform="translate(35.55,71.94)" stroke="#24FB22">
      <path fill="none" d="M-0.13,0 L0.13,0 " class="primitive"/>
    </g>
    <g transform="translate(35.68,71.94)" stroke="#24FB22">
      <path fill="none" d="M0,2.61 L0,-2.61 " class="primitive"/>
    </g>
    <g transform="translate(30.68,68.4)" stroke="#24FB22">
      <path fill="none" d="M-4.74,0 L4.74,0 " class="primitive"/>
    </g>
    <g transform="translate(35.42,68.4)" stroke="#24FB22">
      <path fill="none" d="M0,3.54 L0,-3.54 " class="primitive"/>
    </g>
    <g transform="translate(20.89,64.39)" stroke="#24FB22">
      <path fill="none" d="M-5.04,0 L5.04,0 " class="primitive"/>
    </g>
    <g transform="translate(25.94,64.39)" stroke="#24FB22">
      <path fill="none" d="M0,4.01 L0,-4.01 " class="primitive"/>
    </g>
    <g transform="translate(11.72,59.03)" stroke="#24FB22">
      <path fill="none" d="M-4.13,0 L4.13,0 " class="primitive"/>
    </g>
    <g transform="translate(15.85,59.03)" stroke="#24FB22">
      <path fill="none" d="M0,5.36 L0,-5.36 " class="primitive"/>
    </g>
    <g transform="translate(5.67,49.64)" stroke="#24FB22">
      <path fill="none" d="M-1.92,0 L1.92,0 " class="primitive"/>
    </g>
    <g transform="translate(7.59,49.64)" stroke="#24FB22">
      <path fill="none" d="M0,9.39 L0,-9.39 " class="primitive"/>
    </g>
    <g transform="translate(3.75,30.6)" stroke="#000000">
      <path fill="none" d="M0,0 L0,0 " class="primitive"/>
    </g>
    <g transform="translate(3.75,30.6)" stroke="#000000">
      <path fill="none" d="M0,19.04 L0,-19.04 " class="primitive"/>
    </g>
  </g>
</g>
<g fill-opacity="1" id="img-29b4c979-3">
  <g transform="translate(10.58,3.73)" fill="#24FB22">
    <circle cx="0" cy="0" r="0.75" class="primitive"/>
  </g>
  <g transform="translate(7.35,6.71)" fill="#24FB22">
    <circle cx="0" cy="0" r="0.75" class="primitive"/>
  </g>
  <g transform="translate(8.37,9.69)" fill="#24FB22">
    <circle cx="0" cy="0" r="0.75" class="primitive"/>
  </g>
  <g transform="translate(4.68,8.2)" fill="#24FB22">
    <circle cx="0" cy="0" r="0.75" class="primitive"/>
  </g>
  <g transform="translate(3.93,5.96)" fill="#24FB22">
    <circle cx="0" cy="0" r="0.75" class="primitive"/>
  </g>
  <g transform="translate(60.95,12.67)" fill="#390FF6">
    <circle cx="0" cy="0" r="0.75" class="primitive"/>
  </g>
  <g transform="translate(53.67,15.65)" fill="#24FB22">
    <circle cx="0" cy="0" r="0.75" class="primitive"/>
  </g>
  <g transform="translate(39.03,18.64)" fill="#24FB22">
    <circle cx="0" cy="0" r="0.75" class="primitive"/>
  </g>
  <g transform="translate(38.53,17.15)" fill="#24FB22">
    <circle cx="0" cy="0" r="0.75" class="primitive"/>
  </g>
  <g transform="translate(33.4,21.62)" fill="#24FB22">
    <circle cx="0" cy="0" r="0.75" class="primitive"/>
  </g>
  <g transform="translate(39.34,24.6)" fill="#24FB22">
    <circle cx="0" cy="0" r="0.75" class="primitive"/>
  </g>
  <g transform="translate(29.17,23.11)" fill="#24FB22">
    <circle cx="0" cy="0" r="0.75" class="primitive"/>
  </g>
  <g transform="translate(36.53,27.58)" fill="#24FB22">
    <circle cx="0" cy="0" r="0.75" class="primitive"/>
  </g>
  <g transform="translate(62.11,30.56)" fill="#24FB22">
    <circle cx="0" cy="0" r="0.75" class="primitive"/>
  </g>
  <g transform="translate(29.97,29.07)" fill="#390FF6">
    <circle cx="0" cy="0" r="0.75" class="primitive"/>
  </g>
  <g transform="translate(27.81,26.09)" fill="#24FB22">
    <circle cx="0" cy="0" r="0.75" class="primitive"/>
  </g>
  <g transform="translate(20.18,21.62)" fill="#24FB22">
    <circle cx="0" cy="0" r="0.75" class="primitive"/>
  </g>
  <g transform="translate(11.34,17.15)" fill="#24FB22">
    <circle cx="0" cy="0" r="0.75" class="primitive"/>
  </g>
  <g transform="translate(3.75,11.55)" fill="#000000">
    <circle cx="0" cy="0" r="0.75" class="primitive"/>
  </g>
  <g transform="translate(41.15,33.55)" fill="#24FB22">
    <circle cx="0" cy="0" r="0.75" class="primitive"/>
  </g>
  <g transform="translate(66.94,36.53)" fill="#24FB22">
    <circle cx="0" cy="0" r="0.75" class="primitive"/>
  </g>
  <g transform="translate(78.75,39.51)" fill="#24FB22">
    <circle cx="0" cy="0" r="0.75" class="primitive"/>
  </g>
  <g transform="translate(60.06,38.02)" fill="#24FB22">
    <circle cx="0" cy="0" r="0.75" class="primitive"/>
  </g>
  <g transform="translate(37.28,35.78)" fill="#24FB22">
    <circle cx="0" cy="0" r="0.75" class="primitive"/>
  </g>
  <g transform="translate(49.71,42.49)" fill="#24FB22">
    <circle cx="0" cy="0" r="0.75" class="primitive"/>
  </g>
  <g transform="translate(36.33,45.47)" fill="#24FB22">
    <circle cx="0" cy="0" r="0.75" class="primitive"/>
  </g>
  <g transform="translate(33.95,48.45)" fill="#24FB22">
    <circle cx="0" cy="0" r="0.75" class="primitive"/>
  </g>
  <g transform="translate(32.91,46.96)" fill="#390FF6">
    <circle cx="0" cy="0" r="0.75" class="primitive"/>
  </g>
  <g transform="translate(21.71,44.73)" fill="#390FF6">
    <circle cx="0" cy="0" r="0.75" class="primitive"/>
  </g>
  <g transform="translate(8.16,40.25)" fill="#24FB22">
    <circle cx="0" cy="0" r="0.75" class="primitive"/>
  </g>
  <g transform="translate(25.33,51.44)" fill="#24FB22">
    <circle cx="0" cy="0" r="0.75" class="primitive"/>
  </g>
  <g transform="translate(54.21,54.42)" fill="#24FB22">
    <circle cx="0" cy="0" r="0.75" class="primitive"/>
  </g>
  <g transform="translate(23.96,57.4)" fill="#24FB22">
    <circle cx="0" cy="0" r="0.75" class="primitive"/>
  </g>
  <g transform="translate(21.73,55.91)" fill="#24FB22">
    <circle cx="0" cy="0" r="0.75" class="primitive"/>
  </g>
  <g transform="translate(19.18,53.67)" fill="#24FB22">
    <circle cx="0" cy="0" r="0.75" class="primitive"/>
  </g>
  <g transform="translate(40.64,60.38)" fill="#24FB22">
    <circle cx="0" cy="0" r="0.75" class="primitive"/>
  </g>
  <g transform="translate(39.35,63.36)" fill="#24FB22">
    <circle cx="0" cy="0" r="0.75" class="primitive"/>
  </g>
  <g transform="translate(63.58,66.35)" fill="#24FB22">
    <circle cx="0" cy="0" r="0.75" class="primitive"/>
  </g>
  <g transform="translate(36.49,64.85)" fill="#24FB22">
    <circle cx="0" cy="0" r="0.75" class="primitive"/>
  </g>
  <g transform="translate(60.89,69.33)" fill="#24FB22">
    <circle cx="0" cy="0" r="0.75" class="primitive"/>
  </g>
  <g transform="translate(51.84,72.31)" fill="#24FB22">
    <circle cx="0" cy="0" r="0.75" class="primitive"/>
  </g>
  <g transform="translate(66.72,75.29)" fill="#24FB22">
    <circle cx="0" cy="0" r="0.75" class="primitive"/>
  </g>
  <g transform="translate(59.25,78.27)" fill="#390FF6">
    <circle cx="0" cy="0" r="0.75" class="primitive"/>
  </g>
  <g transform="translate(45.35,76.78)" fill="#24FB22">
    <circle cx="0" cy="0" r="0.75" class="primitive"/>
  </g>
  <g transform="translate(41.95,74.55)" fill="#24FB22">
    <circle cx="0" cy="0" r="0.75" class="primitive"/>
  </g>
  <g transform="translate(35.68,71.94)" fill="#24FB22">
    <circle cx="0" cy="0" r="0.75" class="primitive"/>
  </g>
  <g transform="translate(35.42,68.4)" fill="#24FB22">
    <circle cx="0" cy="0" r="0.75" class="primitive"/>
  </g>
  <g transform="translate(25.94,64.39)" fill="#24FB22">
    <circle cx="0" cy="0" r="0.75" class="primitive"/>
  </g>
  <g transform="translate(15.85,59.03)" fill="#24FB22">
    <circle cx="0" cy="0" r="0.75" class="primitive"/>
  </g>
  <g transform="translate(7.59,49.64)" fill="#24FB22">
    <circle cx="0" cy="0" r="0.75" class="primitive"/>
  </g>
  <g transform="translate(3.75,30.6)" fill="#000000">
    <circle cx="0" cy="0" r="0.75" class="primitive"/>
  </g>
  <g fill-opacity="1" fill="#000000" id="img-29b4c979-4">
    <g transform="translate(3.75,30.6)">
      <circle cx="0" cy="0" r="0.75" class="primitive"/>
    </g>
  </g>
</g>
<g stroke-opacity="1" fill-opacity="1" font-size="1.41" stroke-width="0.1" id="img-29b4c979-5">
  <g transform="translate(12.45,3.73)" stroke="#000000">
    <g class="primitive">
      <text dy="0.35em">N24</text>
    </g>
  </g>
  <g transform="translate(9.22,6.71)" stroke="#000000">
    <g class="primitive">
      <text dy="0.35em">N2</text>
    </g>
  </g>
  <g transform="translate(10.24,9.69)" stroke="#000000">
    <g class="primitive">
      <text dy="0.35em">N25</text>
    </g>
  </g>
  <g transform="translate(6.55,8.2)" stroke="#000000">
    <g class="primitive">
      <text dy="0.35em">N27</text>
    </g>
  </g>
  <g transform="translate(5.8,5.96)" stroke="#000000">
    <g class="primitive">
      <text dy="0.35em">N37</text>
    </g>
  </g>
  <g transform="translate(62.82,12.67)" stroke="#000000">
    <g class="primitive">
      <text dy="0.35em">N6</text>
    </g>
  </g>
  <g transform="translate(55.55,15.65)" stroke="#000000">
    <g class="primitive">
      <text dy="0.35em">N17</text>
    </g>
  </g>
  <g transform="translate(40.9,18.64)" stroke="#000000">
    <g class="primitive">
      <text dy="0.35em">N4</text>
    </g>
  </g>
  <g transform="translate(40.41,17.15)" stroke="#000000">
    <g class="primitive">
      <text dy="0.35em">N36</text>
    </g>
  </g>
  <g transform="translate(35.27,21.62)" stroke="#000000">
    <g class="primitive">
      <text dy="0.35em">N12</text>
    </g>
  </g>
  <g transform="translate(41.22,24.6)" stroke="#000000">
    <g class="primitive">
      <text dy="0.35em">N14</text>
    </g>
  </g>
  <g transform="translate(31.05,23.11)" stroke="#000000">
    <g class="primitive">
      <text dy="0.35em">N30</text>
    </g>
  </g>
  <g transform="translate(38.4,27.58)" stroke="#000000">
    <g class="primitive">
      <text dy="0.35em">N9</text>
    </g>
  </g>
  <g transform="translate(63.98,30.56)" stroke="#000000">
    <g class="primitive">
      <text dy="0.35em">N19</text>
    </g>
  </g>
  <g transform="translate(31.84,29.07)" stroke="#000000">
    <g class="primitive">
      <text dy="0.35em">N38</text>
    </g>
  </g>
  <g transform="translate(29.68,26.09)" stroke="#000000">
    <g class="primitive">
      <text dy="0.35em">N44</text>
    </g>
  </g>
  <g transform="translate(22.05,21.62)" stroke="#000000">
    <g class="primitive">
      <text dy="0.35em">N45</text>
    </g>
  </g>
  <g transform="translate(13.22,17.15)" stroke="#000000">
    <g class="primitive">
      <text dy="0.35em">N47</text>
    </g>
  </g>
  <g transform="translate(5.63,11.55)" stroke="#000000">
    <g class="primitive">
      <text dy="0.35em"></text>
    </g>
  </g>
  <g transform="translate(43.02,33.55)" stroke="#000000">
    <g class="primitive">
      <text dy="0.35em">N8</text>
    </g>
  </g>
  <g transform="translate(68.81,36.53)" stroke="#000000">
    <g class="primitive">
      <text dy="0.35em">N23</text>
    </g>
  </g>
  <g transform="translate(80.62,39.51)" stroke="#000000">
    <g class="primitive">
      <text dy="0.35em">N7</text>
    </g>
  </g>
  <g transform="translate(61.93,38.02)" stroke="#000000">
    <g class="primitive">
      <text dy="0.35em">N26</text>
    </g>
  </g>
  <g transform="translate(39.16,35.78)" stroke="#000000">
    <g class="primitive">
      <text dy="0.35em">N28</text>
    </g>
  </g>
  <g transform="translate(51.58,42.49)" stroke="#000000">
    <g class="primitive">
      <text dy="0.35em">N11</text>
    </g>
  </g>
  <g transform="translate(38.2,45.47)" stroke="#000000">
    <g class="primitive">
      <text dy="0.35em">N21</text>
    </g>
  </g>
  <g transform="translate(35.83,48.45)" stroke="#000000">
    <g class="primitive">
      <text dy="0.35em">N22</text>
    </g>
  </g>
  <g transform="translate(34.78,46.96)" stroke="#000000">
    <g class="primitive">
      <text dy="0.35em">N34</text>
    </g>
  </g>
  <g transform="translate(23.59,44.73)" stroke="#000000">
    <g class="primitive">
      <text dy="0.35em">N35</text>
    </g>
  </g>
  <g transform="translate(10.03,40.25)" stroke="#000000">
    <g class="primitive">
      <text dy="0.35em">N39</text>
    </g>
  </g>
  <g transform="translate(27.21,51.44)" stroke="#000000">
    <g class="primitive">
      <text dy="0.35em">N5</text>
    </g>
  </g>
  <g transform="translate(56.08,54.42)" stroke="#000000">
    <g class="primitive">
      <text dy="0.35em">N3</text>
    </g>
  </g>
  <g transform="translate(25.84,57.4)" stroke="#000000">
    <g class="primitive">
      <text dy="0.35em">N18</text>
    </g>
  </g>
  <g transform="translate(23.6,55.91)" stroke="#000000">
    <g class="primitive">
      <text dy="0.35em">N29</text>
    </g>
  </g>
  <g transform="translate(21.05,53.67)" stroke="#000000">
    <g class="primitive">
      <text dy="0.35em">N31</text>
    </g>
  </g>
  <g transform="translate(42.51,60.38)" stroke="#000000">
    <g class="primitive">
      <text dy="0.35em">N10</text>
    </g>
  </g>
  <g transform="translate(41.22,63.36)" stroke="#000000">
    <g class="primitive">
      <text dy="0.35em">N0</text>
    </g>
  </g>
  <g transform="translate(65.45,66.35)" stroke="#000000">
    <g class="primitive">
      <text dy="0.35em">N13</text>
    </g>
  </g>
  <g transform="translate(38.37,64.85)" stroke="#000000">
    <g class="primitive">
      <text dy="0.35em">N33</text>
    </g>
  </g>
  <g transform="translate(62.76,69.33)" stroke="#000000">
    <g class="primitive">
      <text dy="0.35em">N15</text>
    </g>
  </g>
  <g transform="translate(53.72,72.31)" stroke="#000000">
    <g class="primitive">
      <text dy="0.35em">N16</text>
    </g>
  </g>
  <g transform="translate(68.6,75.29)" stroke="#000000">
    <g class="primitive">
      <text dy="0.35em">N20</text>
    </g>
  </g>
  <g transform="translate(61.13,78.27)" stroke="#000000">
    <g class="primitive">
      <text dy="0.35em">N1</text>
    </g>
  </g>
  <g transform="translate(47.23,76.78)" stroke="#000000">
    <g class="primitive">
      <text dy="0.35em">N32</text>
    </g>
  </g>
  <g transform="translate(43.83,74.55)" stroke="#000000">
    <g class="primitive">
      <text dy="0.35em">N40</text>
    </g>
  </g>
  <g transform="translate(37.55,71.94)" stroke="#000000">
    <g class="primitive">
      <text dy="0.35em">N41</text>
    </g>
  </g>
  <g transform="translate(37.29,68.4)" stroke="#000000">
    <g class="primitive">
      <text dy="0.35em">N42</text>
    </g>
  </g>
  <g transform="translate(27.81,64.39)" stroke="#000000">
    <g class="primitive">
      <text dy="0.35em">N43</text>
    </g>
  </g>
  <g transform="translate(17.72,59.03)" stroke="#000000">
    <g class="primitive">
      <text dy="0.35em">N46</text>
    </g>
  </g>
  <g transform="translate(9.46,49.64)" stroke="#000000">
    <g class="primitive">
      <text dy="0.35em">N48</text>
    </g>
  </g>
  <g transform="translate(5.63,30.6)" stroke="#000000">
    <g class="primitive">
      <text dy="0.35em"></text>
    </g>
  </g>
  <g stroke-opacity="1" fill-opacity="1" font-size="1.41" stroke-width="0.1" stroke="#000000" fill="#000000" id="img-29b4c979-6">
    <g transform="translate(5.63,30.6)">
      <g class="primitive">
        <text dy="0.35em"></text>
      </g>
    </g>
  </g>
</g>
</svg>
