<?xml version="1.0" encoding="UTF-8"?>
<svg xmlns="http://www.w3.org/2000/svg"
     xmlns:xlink="http://www.w3.org/1999/xlink"
     version="1.2"
     width="150mm" height="70mm" viewBox="0 0 150 70"
     stroke="none"
     fill="#000000"
     stroke-width="0.3"
     font-size="3.88"
>
<defs>
  <marker id="arrow" markerWidth="15" markerHeight="7" refX="5" refY="3.5" orient="auto" markerUnits="strokeWidth">
    <path d="M0,0 L15,3.5 L0,7 z" stroke="context-stroke" fill="context-stroke"/>
  </marker>
</defs>
<g stroke-opacity="1" stroke-width="0.3" id="img-29b4c979-1">
  <g transform="translate(4.85,3.18)" stroke="#C5E3B2">
    <path fill="none" d="M-1.1,0 L1.1,0 " class="primitive"/>
  </g>
  <g transform="translate(3.87,6.53)" stroke="#9D28AA">
    <path fill="none" d="M-0.12,0 L0.12,0 " class="primitive"/>
  </g>
  <g transform="translate(8.56,9.88)" stroke="#9D28AA">
    <path fill="none" d="M-1.4,0 L1.4,0 " class="primitive"/>
  </g>
  <g transform="translate(9.84,13.23)" stroke="#C5E3B2">
    <path fill="none" d="M-2.36,0 L2.36,0 " class="primitive"/>
  </g>
  <g transform="translate(15.99,16.58)" stroke="#9D28AA">
    <path fill="none" d="M-4.45,0 L4.45,0 " class="primitive"/>
  </g>
  <g transform="translate(16.09,19.93)" stroke="#9D28AA">
    <path fill="none" d="M-1.14,0 L1.14,0 " class="primitive"/>
  </g>
  <g transform="translate(21.88,23.28)" stroke="#9D28AA">
    <path fill="none" d="M-1.46,0 L1.46,0 " class="primitive"/>
  </g>
  <g transform="translate(22.63,26.63)" stroke="#9D28AA">
    <path fill="none" d="M-1.48,0 L1.48,0 " class="primitive"/>
  </g>
  <g transform="translate(24.85,29.98)" stroke="#C5E3B2">
    <path fill="none" d="M-2.55,0 L2.55,0 " class="primitive"/>
  </g>
  <g transform="translate(27.15,33.33)" stroke="#C5E3B2">
    <path fill="none" d="M-1.76,0 L1.76,0 " class="primitive"/>
  </g>
  <g transform="translate(36.31,36.67)" stroke="#C5E3B2">
    <path fill="none" d="M-1.28,0 L1.28,0 " class="primitive"/>
  </g>
  <g transform="translate(41.79,40.02)" stroke="#9D28AA">
    <path fill="none" d="M-6.69,0 L6.69,0 " class="primitive"/>
  </g>
  <g transform="translate(38.14,43.37)" stroke="#9D28AA">
    <path fill="none" d="M-0.32,0 L0.32,0 " class="primitive"/>
  </g>
  <g transform="translate(44.13,46.72)" stroke="#C5E3B2">
    <path fill="none" d="M-1.72,0 L1.72,0 " class="primitive"/>
  </g>
  <g transform="translate(47.1,50.07)" stroke="#C5E3B2">
    <path fill="none" d="M-3.94,0 L3.94,0 " class="primitive"/>
  </g>
  <g transform="translate(59.35,53.42)" stroke="#C5E3B2">
    <path fill="none" d="M-6.25,0 L6.25,0 " class="primitive"/>
  </g>
  <g transform="translate(72.86,56.77)" stroke="#9D28AA">
    <path fill="none" d="M-1.84,0 L1.84,0 " class="primitive"/>
  </g>
  <g transform="translate(74.02,60.12)" stroke="#C5E3B2">
    <path fill="none" d="M-0.72,0 L0.72,0 " class="primitive"/>
  </g>
  <g transform="translate(77.82,63.47)" stroke="#9D28AA">
    <path fill="none" d="M-0.93,0 L0.93,0 " class="primitive"/>
  </g>
  <g transform="translate(76.93,66.82)" stroke="#9D28AA">
    <path fill="none" d="M-0.03,0 L0.03,0 " class="primitive"/>
  </g>
  <g transform="translate(75.1,65.14)" stroke="#9D28AA">
    <path fill="none" d="M-1.79,0 L1.79,0 " class="primitive"/>
  </g>
  <g transform="translate(76.89,65.14)" stroke="#9D28AA">
    <path fill="none" d="M0,1.67 L0,-1.67 " class="primitive"/>
  </g>
  <g transform="translate(72.17,62.63)" stroke="#9D28AA">
    <path fill="none" d="M-1.14,0 L1.14,0 " class="primitive"/>
  </g>
  <g transform="translate(73.31,62.63)" stroke="#9D28AA">
    <path fill="none" d="M0,2.51 L0,-2.51 " class="primitive"/>
  </g>
  <g transform="translate(62.06,59.7)" stroke="#9D28AA">
    <path fill="none" d="M-8.96,0 L8.96,0 " class="primitive"/>
  </g>
  <g transform="translate(71.03,59.7)" stroke="#9D28AA">
    <path fill="none" d="M0,2.93 L0,-2.93 " class="primitive"/>
  </g>
  <g transform="translate(48.13,56.56)" stroke="#9D28AA">
    <path fill="none" d="M-4.97,0 L4.97,0 " class="primitive"/>
  </g>
  <g transform="translate(53.1,56.56)" stroke="#9D28AA">
    <path fill="none" d="M0,3.14 L0,-3.14 " class="primitive"/>
  </g>
  <g transform="translate(42.79,53.32)" stroke="#C5E3B2">
    <path fill="none" d="M-0.37,0 L0.37,0 " class="primitive"/>
  </g>
  <g transform="translate(43.16,53.32)" stroke="#C5E3B2">
    <path fill="none" d="M0,3.24 L0,-3.24 " class="primitive"/>
  </g>
  <g transform="translate(40.12,50.02)" stroke="#9D28AA">
    <path fill="none" d="M-2.29,0 L2.29,0 " class="primitive"/>
  </g>
  <g transform="translate(42.41,50.02)" stroke="#9D28AA">
    <path fill="none" d="M0,3.3 L0,-3.3 " class="primitive"/>
  </g>
  <g transform="translate(36.46,46.7)" stroke="#9D28AA">
    <path fill="none" d="M-1.37,0 L1.37,0 " class="primitive"/>
  </g>
  <g transform="translate(37.82,46.7)" stroke="#9D28AA">
    <path fill="none" d="M0,3.32 L0,-3.32 " class="primitive"/>
  </g>
  <g transform="translate(35.06,43.36)" stroke="#C5E3B2">
    <path fill="none" d="M-0.03,0 L0.03,0 " class="primitive"/>
  </g>
  <g transform="translate(35.09,43.36)" stroke="#C5E3B2">
    <path fill="none" d="M0,3.34 L0,-3.34 " class="primitive"/>
  </g>
  <g transform="translate(30.21,40.02)" stroke="#9D28AA">
    <path fill="none" d="M-4.82,0 L4.82,0 " class="primitive"/>
  </g>
  <g transform="translate(35.03,40.02)" stroke="#9D28AA">
    <path fill="none" d="M0,3.34 L0,-3.34 " class="primitive"/>
  </g>
  <g transform="translate(23.84,36.67)" stroke="#9D28AA">
    <path fill="none" d="M-1.55,0 L1.55,0 " class="primitive"/>
  </g>
  <g transform="translate(25.39,36.67)" stroke="#9D28AA">
    <path fill="none" d="M0,3.35 L0,-3.35 " class="primitive"/>
  </g>
  <g transform="translate(21.72,33.32)" stroke="#C5E3B2">
    <path fill="none" d="M-0.57,0 L0.57,0 " class="primitive"/>
  </g>
  <g transform="translate(22.29,33.32)" stroke="#C5E3B2">
    <path fill="none" d="M0,3.35 L0,-3.35 " class="primitive"/>
  </g>
  <g transform="translate(20.78,29.98)" stroke="#9D28AA">
    <path fill="none" d="M-0.37,0 L0.37,0 " class="primitive"/>
  </g>
  <g transform="translate(21.15,29.98)" stroke="#9D28AA">
    <path fill="none" d="M0,3.35 L0,-3.35 " class="primitive"/>
  </g>
  <g transform="translate(17.68,26.63)" stroke="#C5E3B2">
    <path fill="none" d="M-2.73,0 L2.73,0 " class="primitive"/>
  </g>
  <g transform="translate(20.42,26.63)" stroke="#C5E3B2">
    <path fill="none" d="M0,3.35 L0,-3.35 " class="primitive"/>
  </g>
  <g transform="translate(13.25,23.28)" stroke="#C5E3B2">
    <path fill="none" d="M-1.7,0 L1.7,0 " class="primitive"/>
  </g>
  <g transform="translate(14.95,23.28)" stroke="#C5E3B2">
    <path fill="none" d="M0,3.35 L0,-3.35 " class="primitive"/>
  </g>
  <g transform="translate(9.51,19.93)" stroke="#9D28AA">
    <path fill="none" d="M-2.03,0 L2.03,0 " class="primitive"/>
  </g>
  <g transform="translate(11.54,19.93)" stroke="#9D28AA">
    <path fill="none" d="M0,3.35 L0,-3.35 " class="primitive"/>
  </g>
  <g transform="translate(7.32,16.58)" stroke="#9D28AA">
    <path fill="none" d="M-0.16,0 L0.16,0 " class="primitive"/>
  </g>
  <g stroke-opacity="1" stroke-width="0.3" id="img-29b4c979-2">
    <g transform="translate(7.32,16.58)" stroke="#9D28AA">
      <path fill="none" d="M-0.16,0 L0.16,0 " class="primitive"/>
    </g>
    <g transform="translate(7.49,16.58)" stroke="#9D28AA">
      <path fill="none" d="M0,3.35 L0,-3.35 " class="primitive"/>
    </g>
    <g transform="translate(5.46,13.23)" stroke="#C5E3B2">
      <path fill="none" d="M-1.71,0 L1.71,0 " class="primitive"/>
    </g>
    <g transform="translate(7.16,13.23)" stroke="#C5E3B2">
      <path fill="none" d="M0,3.35 L0,-3.35 " class="primitive"/>
    </g>
    <g transform="translate(3.75,9.88)" stroke="#000000">
      <path fill="none" d="M0,0 L0,0 " class="primitive"/>
    </g>
    <g transform="translate(3.75,9.88)" stroke="#000000">
      <path fill="none" d="M0,3.35 L0,-3.35 " class="primitive"/>
    </g>
    <g transform="translate(3.75,6.53)" stroke="#000000">
      <path fill="none" d="M0,0 L0,0 " class="primitive"/>
    </g>
    <g transform="translate(3.75,6.53)" stroke="#000000">
      <path fill="none" d="M0,3.35 L0,-3.35 " class="primitive"/>
    </g>
  </g>
</g>
<g fill-opacity="1" id="img-29b4c979-3">
  <g transform="translate(5.94,3.18)" fill="#C5E3B2">
    <circle cx="0" cy="0" r="0.75" class="primitive"/>
  </g>
  <g transform="translate(4,6.53)" fill="#9D28AA">
    <circle cx="0" cy="0" r="0.75" class="primitive"/>
  </g>
  <g transform="translate(9.96,9.88)" fill="#9D28AA">
    <circle cx="0" cy="0" r="0.75" class="primitive"/>
  </g>
  <g transform="translate(12.2,13.23)" fill="#C5E3B2">
    <circle cx="0" cy="0" r="0.75" class="primitive"/>
  </g>
  <g transform="translate(20.43,16.58)" fill="#9D28AA">
    <circle cx="0" cy="0" r="0.75" class="primitive"/>
  </g>
  <g transform="translate(17.23,19.93)" fill="#9D28AA">
    <circle cx="0" cy="0" r="0.75" class="primitive"/>
  </g>
  <g transform="translate(23.34,23.28)" fill="#9D28AA">
    <circle cx="0" cy="0" r="0.75" class="primitive"/>
  </g>
  <g transform="translate(24.11,26.63)" fill="#9D28AA">
    <circle cx="0" cy="0" r="0.75" class="primitive"/>
  </g>
  <g transform="translate(27.4,29.98)" fill="#C5E3B2">
    <circle cx="0" cy="0" r="0.75" class="primitive"/>
  </g>
  <g transform="translate(28.9,33.33)" fill="#C5E3B2">
    <circle cx="0" cy="0" r="0.75" class="primitive"/>
  </g>
  <g transform="translate(37.59,36.67)" fill="#C5E3B2">
    <circle cx="0" cy="0" r="0.75" class="primitive"/>
  </g>
  <g transform="translate(48.48,40.02)" fill="#9D28AA">
    <circle cx="0" cy="0" r="0.75" class="primitive"/>
  </g>
  <g transform="translate(38.46,43.37)" fill="#9D28AA">
    <circle cx="0" cy="0" r="0.75" class="primitive"/>
  </g>
  <g transform="translate(45.84,46.72)" fill="#C5E3B2">
    <circle cx="0" cy="0" r="0.75" class="primitive"/>
  </g>
  <g transform="translate(51.05,50.07)" fill="#C5E3B2">
    <circle cx="0" cy="0" r="0.75" class="primitive"/>
  </g>
  <g transform="translate(65.59,53.42)" fill="#C5E3B2">
    <circle cx="0" cy="0" r="0.75" class="primitive"/>
  </g>
  <g transform="translate(74.7,56.77)" fill="#9D28AA">
    <circle cx="0" cy="0" r="0.75" class="primitive"/>
  </g>
  <g transform="translate(74.74,60.12)" fill="#C5E3B2">
    <circle cx="0" cy="0" r="0.75" class="primitive"/>
  </g>
  <g transform="translate(78.75,63.47)" fill="#9D28AA">
    <circle cx="0" cy="0" r="0.75" class="primitive"/>
  </g>
  <g transform="translate(76.96,66.82)" fill="#9D28AA">
    <circle cx="0" cy="0" r="0.75" class="primitive"/>
  </g>
  <g transform="translate(76.89,65.14)" fill="#9D28AA">
    <circle cx="0" cy="0" r="0.75" class="primitive"/>
  </g>
  <g transform="translate(73.31,62.63)" fill="#9D28AA">
    <circle cx="0" cy="0" r="0.75" class="primitive"/>
  </g>
  <g transform="translate(71.03,59.7)" fill="#9D28AA">
    <circle cx="0" cy="0" r="0.75" class="primitive"/>
  </g>
  <g transform="translate(53.1,56.56)" fill="#9D28AA">
    <circle cx="0" cy="0" r="0.75" class="primitive"/>
  </g>
  <g transform="translate(43.16,53.32)" fill="#C5E3B2">
    <circle cx="0" cy="0" r="0.75" class="primitive"/>
  </g>
  <g transform="translate(42.41,50.02)" fill="#9D28AA">
    <circle cx="0" cy="0" r="0.75" class="primitive"/>
  </g>
  <g transform="translate(37.82,46.7)" fill="#9D28AA">
    <circle cx="0" cy="0" r="0.75" class="primitive"/>
  </g>
  <g transform="translate(35.09,43.36)" fill="#C5E3B2">
    <circle cx="0" cy="0" r="0.75" class="primitive"/>
  </g>
  <g transform="translate(35.03,40.02)" fill="#9D28AA">
    <circle cx="0" cy="0" r="0.75" class="primitive"/>
  </g>
  <g transform="translate(25.39,36.67)" fill="#9D28AA">
    <circle cx="0" cy="0" r="0.75" class="primitive"/>
  </g>
  <g transform="translate(22.29,33.32)" fill="#C5E3B2">
    <circle cx="0" cy="0" r="0.75" class="primitive"/>
  </g>
  <g transform="translate(21.15,29.98)" fill="#9D28AA">
    <circle cx="0" cy="0" r="0.75" class="primitive"/>
  </g>
  <g transform="translate(20.42,26.63)" fill="#C5E3B2">
    <circle cx="0" cy="0" r="0.75" class="primitive"/>
  </g>
  <g transform="translate(14.95,23.28)" fill="#C5E3B2">
    <circle cx="0" cy="0" r="0.75" class="primitive"/>
  </g>
  <g transform="translate(11.54,19.93)" fill="#9D28AA">
    <circle cx="0" cy="0" r="0.75" class="primitive"/>
  </g>
  <g transform="translate(7.49,16.58)" fill="#9D28AA">
    <circle cx="0" cy="0" r="0.75" class="primitive"/>
  </g>
  <g transform="translate(7.16,13.23)" fill="#C5E3B2">
    <circle cx="0" cy="0" r="0.75" class="primitive"/>
  </g>
  <g transform="translate(3.75,9.88)" fill="#000000">
    <circle cx="0" cy="0" r="0.75" class="primitive"/>
  </g>
  <g transform="translate(3.75,6.53)" fill="#000000">
    <circle cx="0" cy="0" r="0.75" class="primitive"/>
  </g>
</g>
<g stroke-opacity="1" fill-opacity="1" font-size="1.41" stroke-width="0.1" id="img-29b4c979-4">
  <g transform="translate(7.82,3.18)" stroke="#000000">
    <g class="primitive">
      <text dy="0.35em">N19</text>
    </g>
  </g>
  <g transform="translate(5.87,6.53)" stroke="#000000">
    <g class="primitive">
      <text dy="0.35em">N18</text>
    </g>
  </g>
  <g transform="translate(11.83,9.88)" stroke="#000000">
    <g class="primitive">
      <text dy="0.35em">N17</text>
    </g>
  </g>
  <g transform="translate(14.07,13.23)" stroke="#000000">
    <g class="primitive">
      <text dy="0.35em">N16</text>
    </g>
  </g>
  <g transform="translate(22.31,16.58)" stroke="#000000">
    <g class="primitive">
      <text dy="0.35em">N15</text>
    </g>
  </g>
  <g transform="translate(19.11,19.93)" stroke="#000000">
    <g class="primitive">
      <text dy="0.35em">N14</text>
    </g>
  </g>
  <g transform="translate(25.21,23.28)" stroke="#000000">
    <g class="primitive">
      <text dy="0.35em">N13</text>
    </g>
  </g>
  <g transform="translate(25.98,26.63)" stroke="#000000">
    <g class="primitive">
      <text dy="0.35em">N12</text>
    </g>
  </g>
  <g transform="translate(29.28,29.98)" stroke="#000000">
    <g class="primitive">
      <text dy="0.35em">N11</text>
    </g>
  </g>
  <g transform="translate(30.78,33.33)" stroke="#000000">
    <g class="primitive">
      <text dy="0.35em">N10</text>
    </g>
  </g>
  <g transform="translate(39.46,36.67)" stroke="#000000">
    <g class="primitive">
      <text dy="0.35em">N9</text>
    </g>
  </g>
  <g transform="translate(50.36,40.02)" stroke="#000000">
    <g class="primitive">
      <text dy="0.35em">N8</text>
    </g>
  </g>
  <g transform="translate(40.34,43.37)" stroke="#000000">
    <g class="primitive">
      <text dy="0.35em">N7</text>
    </g>
  </g>
  <g transform="translate(47.72,46.72)" stroke="#000000">
    <g class="primitive">
      <text dy="0.35em">N6</text>
    </g>
  </g>
  <g transform="translate(52.92,50.07)" stroke="#000000">
    <g class="primitive">
      <text dy="0.35em">N5</text>
    </g>
  </g>
  <g transform="translate(67.47,53.42)" stroke="#000000">
    <g class="primitive">
      <text dy="0.35em">N4</text>
    </g>
  </g>
  <g transform="translate(76.57,56.77)" stroke="#000000">
    <g class="primitive">
      <text dy="0.35em">N3</text>
    </g>
  </g>
  <g transform="translate(76.62,60.12)" stroke="#000000">
    <g class="primitive">
      <text dy="0.35em">N2</text>
    </g>
  </g>
  <g transform="translate(80.62,63.47)" stroke="#000000">
    <g class="primitive">
      <text dy="0.35em">N0</text>
    </g>
  </g>
  <g transform="translate(78.84,66.82)" stroke="#000000">
    <g class="primitive">
      <text dy="0.35em">N1</text>
    </g>
  </g>
  <g transform="translate(78.77,65.14)" stroke="#000000">
    <g class="primitive">
      <text dy="0.35em">N20</text>
    </g>
  </g>
  <g transform="translate(75.18,62.63)" stroke="#000000">
    <g class="primitive">
      <text dy="0.35em">N21</text>
    </g>
  </g>
  <g transform="translate(72.9,59.7)" stroke="#000000">
    <g class="primitive">
      <text dy="0.35em">N22</text>
    </g>
  </g>
  <g transform="translate(54.98,56.56)" stroke="#000000">
    <g class="primitive">
      <text dy="0.35em">N23</text>
    </g>
  </g>
  <g transform="translate(45.03,53.32)" stroke="#000000">
    <g class="primitive">
      <text dy="0.35em">N24</text>
    </g>
  </g>
  <g transform="translate(44.29,50.02)" stroke="#000000">
    <g class="primitive">
      <text dy="0.35em">N25</text>
    </g>
  </g>
  <g transform="translate(39.7,46.7)" stroke="#000000">
    <g class="primitive">
      <text dy="0.35em">N26</text>
    </g>
  </g>
  <g transform="translate(36.97,43.36)" stroke="#000000">
    <g class="primitive">
      <text dy="0.35em">N27</text>
    </g>
  </g>
  <g transform="translate(36.91,40.02)" stroke="#000000">
    <g class="primitive">
      <text dy="0.35em">N28</text>
    </g>
  </g>
  <g transform="translate(27.27,36.67)" stroke="#000000">
    <g class="primitive">
      <text dy="0.35em">N29</text>
    </g>
  </g>
  <g transform="translate(24.17,33.32)" stroke="#000000">
    <g class="primitive">
      <text dy="0.35em">N30</text>
    </g>
  </g>
  <g transform="translate(23.03,29.98)" stroke="#000000">
    <g class="primitive">
      <text dy="0.35em">N31</text>
    </g>
  </g>
  <g transform="translate(22.29,26.63)" stroke="#000000">
    <g class="primitive">
      <text dy="0.35em">N32</text>
    </g>
  </g>
  <g transform="translate(16.83,23.28)" stroke="#000000">
    <g class="primitive">
      <text dy="0.35em">N33</text>
    </g>
  </g>
  <g transform="translate(13.42,19.93)" stroke="#000000">
    <g class="primitive">
      <text dy="0.35em">N34</text>
    </g>
  </g>
  <g transform="translate(9.36,16.58)" stroke="#000000">
    <g class="primitive">
      <text dy="0.35em">N35</text>
    </g>
  </g>
  <g transform="translate(9.04,13.23)" stroke="#000000">
    <g class="primitive">
      <text dy="0.35em">N36</text>
    </g>
  </g>
  <g transform="translate(5.63,9.88)" stroke="#000000">
    <g class="primitive">
      <text dy="0.35em"></text>
    </g>
  </g>
  <g transform="translate(5.63,6.53)" stroke="#000000">
    <g class="primitive">
      <text dy="0.35em"></text>
    </g>
  </g>
</g>
</svg>
